<?xml version="1.0" encoding="UTF-8"?><!DOCTYPE svg PUBLIC "-//W3C//DTD SVG 1.1//EN" "http://www.w3.org/Graphics/SVG/1.1/DTD/svg11.dtd"><svg xmlns="http://www.w3.org/2000/svg" xmlns:xlink="http://www.w3.org/1999/xlink" version="1.1" id="mdi-access-point-off" width="24" height="24" viewBox="0 0 24 24"><path d="M20.84 22.73L12.1 14C12.06 14 12.03 14 12 14C10.9 14 10 13.11 10 12C10 11.97 10 11.94 10 11.9L8.4 10.29C8.15 10.81 8 11.38 8 12C8 13.11 8.45 14.11 9.17 14.83L7.76 16.24C6.67 15.15 6 13.65 6 12C6 10.83 6.34 9.74 6.93 8.82L5.5 7.37C4.55 8.67 4 10.27 4 12C4 14.22 4.89 16.22 6.34 17.66L4.93 19.07C3.12 17.26 2 14.76 2 12C2 9.72 2.77 7.63 4.06 5.95L1.11 3L2.39 1.73L22.11 21.46L20.84 22.73M15.93 12.73L17.53 14.33C17.83 13.61 18 12.83 18 12C18 10.35 17.33 8.85 16.24 7.76L14.83 9.17C15.55 9.89 16 10.89 16 12C16 12.25 15.97 12.5 15.93 12.73M19.03 15.83L20.5 17.28C21.44 15.75 22 13.94 22 12C22 9.24 20.88 6.74 19.07 4.93L17.66 6.34C19.11 7.78 20 9.79 20 12C20 13.39 19.65 14.7 19.03 15.83Z" /></svg>