<?xml version="1.0" encoding="UTF-8"?><!DOCTYPE svg PUBLIC "-//W3C//DTD SVG 1.1//EN" "http://www.w3.org/Graphics/SVG/1.1/DTD/svg11.dtd"><svg xmlns="http://www.w3.org/2000/svg" xmlns:xlink="http://www.w3.org/1999/xlink" version="1.1" id="mdi-account-multiple-remove-outline" width="24" height="24" viewBox="0 0 24 24"><path d="M13 11a3 3 0 10-3-3 3 3 0 003 3zm0-4a1 1 0 11-1 1 1 1 0 011-1zm4.11 3.86a5 5 0 000-5.72A2.91 2.91 0 0118 5a3 3 0 010 6 2.91 2.91 0 01-.89-.14zM13 13c-6 0-6 4-6 4v2h12v-2s0-4-6-4zm-4 4c0-.29.32-2 4-2 3.51 0 3.94 1.56 4 2zm15 0v2h-3v-2a5.6 5.6 0 00-1.8-3.94C24 13.55 24 17 24 17zM6.12 14.54L4 12.41l-2.12 2.13-1.42-1.42L2.59 11 .46 8.88l1.42-1.42L4 9.59l2.12-2.13 1.42 1.42L5.41 11l2.13 2.12z" /></svg>