<svg xmlns="http://www.w3.org/2000/svg" id="mdi-account-box-edit-outline" viewBox="0 0 24 24"><path d="M21.7 13.58L20.42 12.3C20.21 12.09 19.86 12.09 19.65 12.3L18.65 13.3L20.7 15.35L21.7 14.35C21.91 14.14 21.91 13.79 21.7 13.58M12 22H14.06L20.11 15.93L18.06 13.88L12 19.94V22M10 21H5C4.47 21 3.96 20.79 3.59 20.41C3.21 20.04 3 19.53 3 19V5C3 4.47 3.21 3.96 3.59 3.59C3.96 3.21 4.47 3 5 3H19C20.1 3 21 3.89 21 5V10.33C20.36 10.07 19.63 10.08 19 10.36V5H5V19H10.11L10 19.11V21M14.62 14.5L12.11 17H7.5V16.25C7.5 14.75 10.5 14 12 14C12.7 14 13.73 14.16 14.62 14.5M13.59 11.59C13.17 12 12.6 12.25 12 12.25C11.4 12.25 10.83 12 10.41 11.59C10 11.17 9.75 10.6 9.75 10C9.75 9.4 10 8.83 10.41 8.41C10.83 8 11.4 7.75 12 7.75C12.6 7.75 13.17 8 13.59 8.41C14 8.83 14.25 9.4 14.25 10C14.25 10.6 14 11.17 13.59 11.59Z" /></svg>