<?xml version="1.0" encoding="UTF-8"?><!DOCTYPE svg PUBLIC "-//W3C//DTD SVG 1.1//EN" "http://www.w3.org/Graphics/SVG/1.1/DTD/svg11.dtd"><svg xmlns="http://www.w3.org/2000/svg" xmlns:xlink="http://www.w3.org/1999/xlink" version="1.1" id="mdi-account-filter-outline" width="24" height="24" viewBox="0 0 24 24"><path d="M17 21L18.8 22.8C19.3 23.3 20 22.9 20 22.3V18L22.8 14.6C23.3 13.9 22.8 13 22 13H15C14.2 13 13.7 14 14.2 14.6L17 18V21M15 20H2V17C2 14.3 7.3 13 10 13C10.6 13 11.3 13.1 12.1 13.2C11.9 13.8 12 14.5 12.2 15.1C11.5 15 10.7 14.9 10 14.9C7 14.9 3.9 16.4 3.9 17V18.1H14.5L15 18.7V20M10 12C12.2 12 14 10.2 14 8S12.2 4 10 4 6 5.8 6 8 7.8 12 10 12M10 6C11.1 6 12 6.9 12 8S11.1 10 10 10 8 9.1 8 8 8.9 6 10 6Z" /></svg>