<svg xmlns="http://www.w3.org/2000/svg" id="mdi-account-lock-outline" viewBox="0 0 24 24"><path d="M10 12C12.21 12 14 10.21 14 8S12.21 4 10 4 6 5.79 6 8 7.79 12 10 12M10 6C11.11 6 12 6.9 12 8S11.11 10 10 10 8 9.11 8 8 8.9 6 10 6M12 20H2V17C2 14.33 7.33 13 10 13C11 13 12.38 13.19 13.71 13.56C13.41 14.12 13.23 14.74 13.21 15.39C12.23 15.1 11.11 14.9 10 14.9C7.03 14.9 3.9 16.36 3.9 17V18.1H12C12 18.13 12 18.17 12 18.2V20M20.8 17V15.5C20.8 14.1 19.4 13 18 13C16.6 13 15.2 14.1 15.2 15.5V17C14.6 17 14 17.6 14 18.2V21.7C14 22.4 14.6 23 15.2 23H20.7C21.4 23 22 22.4 22 21.8V18.3C22 17.6 21.4 17 20.8 17M19.5 17H16.5V15.5C16.5 14.7 17.2 14.2 18 14.2C18.8 14.2 19.5 14.7 19.5 15.5V17Z" /></svg>