<?xml version="1.0" encoding="UTF-8"?><!DOCTYPE svg PUBLIC "-//W3C//DTD SVG 1.1//EN" "http://www.w3.org/Graphics/SVG/1.1/DTD/svg11.dtd"><svg xmlns="http://www.w3.org/2000/svg" xmlns:xlink="http://www.w3.org/1999/xlink" version="1.1" id="mdi-account-arrow-up" width="24" height="24" viewBox="0 0 24 24"><path d="M6 8C6 5.79 7.79 4 10 4S14 5.79 14 8 12.21 12 10 12 6 10.21 6 8M10 14C5.58 14 2 15.79 2 18V20H13.09C13.04 19.67 13 19.34 13 19C13 17.36 13.66 15.87 14.74 14.78C13.41 14.29 11.78 14 10 14M19 15L16 18H18V22H20V18H22L19 15Z" /></svg>