<?xml version="1.0" encoding="UTF-8"?><!DOCTYPE svg PUBLIC "-//W3C//DTD SVG 1.1//EN" "http://www.w3.org/Graphics/SVG/1.1/DTD/svg11.dtd"><svg xmlns="http://www.w3.org/2000/svg" xmlns:xlink="http://www.w3.org/1999/xlink" version="1.1" id="mdi-account-wrench-outline" width="24" height="24" viewBox="0 0 24 24"><path d="M10 4C7.8 4 6 5.8 6 8S7.8 12 10 12 14 10.2 14 8 12.2 4 10 4M10 10C8.9 10 8 9.1 8 8S8.9 6 10 6 12 6.9 12 8 11.1 10 10 10M22.9 21.2L18.8 17.1C19.2 16.1 19 14.8 18.1 14C17.2 13.1 15.9 12.9 14.8 13.4L16.7 15.3L15.3 16.7L13.3 14.7C12.8 15.8 13 17.1 13.9 18.1C14.8 19 16 19.2 17 18.8L21.1 22.9C21.3 23.1 21.6 23.1 21.7 22.9L22.7 21.9C23 21.6 23 21.3 22.9 21.2M9.1 15C9 15.3 9 15.7 9 16C9 16.7 9.1 17.4 9.3 18H4V17C4 16.5 5.8 15.2 9.1 15M10 13C5.6 13 2 14.8 2 17V20H13C11.8 19.1 11 17.6 11 16C11 14.9 11.3 13.9 11.9 13.1C11.3 13.1 10.7 13 10 13Z" /></svg>