<svg xmlns="http://www.w3.org/2000/svg" id="mdi-account-cowboy-hat-outline" viewBox="0 0 24 24"><path d="M19 4C18.4 4 18 4.4 18 5V6H16.5L15.1 3C15 2.8 14.9 2.6 14.7 2.5C14.2 2 13.4 1.9 12.7 2.2L12 2.4L11.3 2.1C10.6 1.8 9.8 1.9 9.3 2.4C9.1 2.6 9 2.8 8.9 3L7.5 6H6V5C6 4.4 5.6 4 5 4S4 4.4 4 5V6C4 7.1 4.9 8 6 8H18C19.1 8 20 7.1 20 6V5C20 4.5 19.6 4 19 4M4 22V19C4 16.33 9.33 15 12 15S20 16.33 20 19V22H4M18.1 20.1V19C18.1 18.36 14.97 16.9 12 16.9S5.9 18.36 5.9 19V20.1H18.1M16 9V10C16 12.21 14.21 14 12 14S8 12.21 8 10V9H10V10C10 11.11 10.9 12 12 12S14 11.11 14 10V9H16Z" /></svg>