<svg xmlns="http://www.w3.org/2000/svg" id="mdi-account-reactivate-outline" viewBox="0 0 24 24"><path d="M21.5 9H16.5L18.36 7.14C16.9 5.23 14.59 4 12 4C7.58 4 4 7.58 4 12C4 13.83 4.61 15.5 5.64 16.85C6.86 15.45 9.15 14.5 12 14.5C14.85 14.5 17.15 15.45 18.36 16.85C19.39 15.5 20 13.83 20 12H22C22 17.5 17.5 22 12 22C6.5 22 2 17.5 2 12C2 6.5 6.5 2 12 2C15.14 2 17.95 3.45 19.78 5.72L21.5 4V9M12 20C13.9 20 15.64 19.34 17 18.24C16.36 17.23 14.45 16.5 12 16.5C9.55 16.5 7.64 17.23 7 18.24C8.36 19.34 10.1 20 12 20M12 6C13.93 6 15.5 7.57 15.5 9.5C15.5 11.43 13.93 13 12 13C10.07 13 8.5 11.43 8.5 9.5C8.5 7.57 10.07 6 12 6M12 8C11.17 8 10.5 8.67 10.5 9.5C10.5 10.33 11.17 11 12 11C12.83 11 13.5 10.33 13.5 9.5C13.5 8.67 12.83 8 12 8Z" /></svg>