<svg xmlns="http://www.w3.org/2000/svg" id="mdi-account-tie-hat-outline" viewBox="0 0 24 24"><path d="M6 4.5C6 3.1 8.7 2 12 2S18 3.1 18 4.5C18 4.9 17.8 5.2 17.5 5.5C16.6 4.6 14.5 4 12 4S7.4 4.6 6.5 5.5C6.2 5.2 6 4.9 6 4.5M12 5C9.8 5 8.1 5.5 7.4 6.1C8.5 6.6 10.1 7 12 7S15.5 6.6 16.6 6.1C15.9 5.5 14.2 5 12 5M14 8C14 9.1 13.1 10 12 10S10 9.1 10 8V7.9C9.3 7.8 8.6 7.7 8 7.5V8C8 10.2 9.8 12 12 12S16 10.2 16 8C16 7.8 16 7.6 15.9 7.4C15.3 7.6 14.6 7.7 13.9 7.8C14 7.9 14 7.9 14 8M16.4 13.8L15.7 15L15.5 15.5C17 16 18.1 16.6 18.1 17V20.1H13.9L13 15L13.9 13.1C13.3 13.1 12.7 13 12 13S10.7 13 10.1 13.1L11 15L10.1 20.1H5.9V17C5.9 16.6 7 16 8.5 15.5L8.3 15L7.7 13.8C5.7 14.4 4 15.5 4 17V22H20V17C20 15.5 18.3 14.4 16.4 13.8Z" /></svg>