<?xml version="1.0" encoding="UTF-8"?><!DOCTYPE svg PUBLIC "-//W3C//DTD SVG 1.1//EN" "http://www.w3.org/Graphics/SVG/1.1/DTD/svg11.dtd"><svg xmlns="http://www.w3.org/2000/svg" xmlns:xlink="http://www.w3.org/1999/xlink" version="1.1" id="mdi-account-wrench" width="24" height="24" viewBox="0 0 24 24"><path d="M22.9 21.2L18.8 17.1C19.2 16.1 19 14.8 18.1 14C17.2 13.1 15.9 12.9 14.8 13.4L16.7 15.3L15.3 16.7L13.3 14.7C12.8 15.8 13 17.1 13.9 18.1C14.8 19 16 19.2 17 18.8L21.1 22.9C21.3 23.1 21.6 23.1 21.7 22.9L22.7 21.9C23 21.6 23 21.3 22.9 21.2M10 3C7.8 3 6 4.8 6 7S7.8 11 10 11 14 9.2 14 7 12.2 3 10 3M10 13C5.6 13 2 14.8 2 17V19H11.5C11.2 18.2 11 17.4 11 16.5C11 15.3 11.3 14.2 11.9 13.1C11.3 13.1 10.7 13 10 13" /></svg>