<?xml version="1.0" encoding="UTF-8"?><!DOCTYPE svg PUBLIC "-//W3C//DTD SVG 1.1//EN" "http://www.w3.org/Graphics/SVG/1.1/DTD/svg11.dtd"><svg xmlns="http://www.w3.org/2000/svg" xmlns:xlink="http://www.w3.org/1999/xlink" version="1.1" id="mdi-account-multiple-minus" width="24" height="24" viewBox="0 0 24 24"><path d="M13,13C11,13 7,14 7,16V18H19V16C19,14 15,13 13,13M19.62,13.16C20.45,13.88 21,14.82 21,16V18H24V16C24,14.46 21.63,13.5 19.62,13.16M13,11A3,3 0 0,0 16,8A3,3 0 0,0 13,5A3,3 0 0,0 10,8A3,3 0 0,0 13,11M18,11A3,3 0 0,0 21,8A3,3 0 0,0 18,5C17.68,5 17.37,5.05 17.08,5.14C17.65,5.95 18,6.94 18,8C18,9.06 17.65,10.04 17.08,10.85C17.37,10.95 17.68,11 18,11M8,10H0V12H8V10Z" /></svg>