<?xml version="1.0" encoding="UTF-8"?><!DOCTYPE svg PUBLIC "-//W3C//DTD SVG 1.1//EN" "http://www.w3.org/Graphics/SVG/1.1/DTD/svg11.dtd"><svg xmlns="http://www.w3.org/2000/svg" xmlns:xlink="http://www.w3.org/1999/xlink" version="1.1" id="mdi-account-multiple-remove" width="24" height="24" viewBox="0 0 24 24"><path d="M19 17v2H7v-2s0-4 6-4 6 4 6 4zm-3-9a3 3 0 10-3 3 3 3 0 003-3zm3.2 5.06A5.6 5.6 0 0121 17v2h3v-2s0-3.45-4.8-3.94zM18 5a2.91 2.91 0 00-.89.14 5 5 0 010 5.72A2.91 2.91 0 0018 11a3 3 0 000-6zM7.54 13.12L5.41 11l2.13-2.12-1.42-1.42L4 9.59 1.88 7.46.46 8.88 2.59 11 .46 13.12l1.42 1.42L4 12.41l2.12 2.13z" /></svg>