<svg xmlns="http://www.w3.org/2000/svg" id="mdi-account-network-off-outline" viewBox="0 0 24 24"><path d="M19 15.8L15.75 12.55C17.7 13.17 19 14.26 19 15.5V15.8M13.03 9.83L8.67 5.47C9.11 4.04 10.43 3 12 3C13.93 3 15.5 4.57 15.5 6.5C15.5 8.07 14.46 9.39 13.03 9.83M12 8C12.83 8 13.5 7.33 13.5 6.5S12.83 5 12 5 10.5 5.67 10.5 6.5 11.17 8 12 8M22 22H21.57L20.84 22.73L20.11 22H15C15 22.55 14.55 23 14 23H10C9.45 23 9 22.55 9 22H2V20H9C9 19.45 9.45 19 10 19H11V17H5V15.5C5 13.88 7.22 12.5 10.23 12.12L1.11 3L2.39 1.73L22 21.34V21.35L22.11 21.46L22 21.57V22M13.11 15L12.11 14C12.08 14 12.04 14 12 14C9.89 14 8.39 14.53 7.61 15H13.11M18.11 20L15.11 17H13V19H14C14.55 19 15 19.45 15 20H18.11Z" /></svg>