<?xml version="1.0" encoding="UTF-8"?><!DOCTYPE svg PUBLIC "-//W3C//DTD SVG 1.1//EN" "http://www.w3.org/Graphics/SVG/1.1/DTD/svg11.dtd"><svg xmlns="http://www.w3.org/2000/svg" xmlns:xlink="http://www.w3.org/1999/xlink" version="1.1" id="mdi-account-wrench" width="24" height="24" viewBox="0 0 24 24"><path d="M22.9 21.2L18.8 17.1C19.2 16.1 19 14.8 18.1 14C17.2 13.1 15.9 12.9 14.8 13.4L16.7 15.3L15.3 16.7L13.3 14.7C12.8 15.8 13 17.1 13.9 18.1C14.8 19 16 19.2 17 18.8L21.1 22.9C21.3 23.1 21.6 23.1 21.7 22.9L22.7 21.9C23 21.6 23 21.3 22.9 21.2M6 8C6 5.8 7.8 4 10 4S14 5.8 14 8 12.2 12 10 12 6 10.2 6 8M13 20H2V18C2 15.8 5.6 14 10 14C10.5 14 10.9 14 11.4 14.1C11.1 14.7 11 15.3 11 16C11 17.6 11.8 19.1 13 20Z" /></svg>