<?xml version="1.0" encoding="UTF-8"?><!DOCTYPE svg PUBLIC "-//W3C//DTD SVG 1.1//EN" "http://www.w3.org/Graphics/SVG/1.1/DTD/svg11.dtd"><svg xmlns="http://www.w3.org/2000/svg" xmlns:xlink="http://www.w3.org/1999/xlink" version="1.1" id="mdi-account-wrench-outline" width="24" height="24" viewBox="0 0 24 24"><path d="M10 3C7.8 3 6 4.8 6 7S7.8 11 10 11 14 9.2 14 7 12.2 3 10 3M10 5C11.1 5 12 5.9 12 7S11.1 9 10 9 8 8.1 8 7 8.9 5 10 5M10 12C7.3 12 2 13.3 2 16V19H11.5C11.2 18.4 11.1 17.8 11 17.1H3.9V16C3.9 15.4 7 13.9 10 13.9C10.5 13.9 11 14 11.5 14C11.8 13.4 12.1 12.8 12.6 12.3C11.6 12.1 10.7 12 10 12M22.9 21.2L18.8 17.1C19.2 16.1 19 14.8 18.1 14C17.2 13.1 15.9 12.9 14.8 13.4L16.7 15.3L15.3 16.7L13.3 14.7C12.8 15.8 13 17.1 13.9 18.1C14.8 19 16 19.2 17 18.8L21.1 22.9C21.3 23.1 21.6 23.1 21.7 22.9L22.7 21.9C23 21.6 23 21.3 22.9 21.2" /></svg>