<?xml version="1.0" encoding="UTF-8"?><!DOCTYPE svg PUBLIC "-//W3C//DTD SVG 1.1//EN" "http://www.w3.org/Graphics/SVG/1.1/DTD/svg11.dtd"><svg xmlns="http://www.w3.org/2000/svg" xmlns:xlink="http://www.w3.org/1999/xlink" version="1.1" id="mdi-account-key" width="24" height="24" viewBox="0 0 24 24"><path d="M11 10V12H9V14H7V12H5.8C5.4 13.2 4.3 14 3 14C1.3 14 0 12.7 0 11S1.3 8 3 8C4.3 8 5.4 8.8 5.8 10H11M3 10C2.4 10 2 10.4 2 11S2.4 12 3 12 4 11.6 4 11 3.6 10 3 10M16 14C18.7 14 24 15.3 24 18V20H8V18C8 15.3 13.3 14 16 14M16 12C13.8 12 12 10.2 12 8S13.8 4 16 4 20 5.8 20 8 18.2 12 16 12Z" /></svg>