<svg xmlns="http://www.w3.org/2000/svg" id="mdi-airplane-cog" viewBox="0 0 24 24"><path d="M15.73 12.81C14.76 13.33 13.92 14.07 13.29 14.96L11.55 11.63L7.66 15.5L8 18L6.95 19.06L5.18 15.87L2 14.11L3.06 13.05L5.54 13.4L9.43 9.5L2 5.62L3.41 4.21L12.61 6.33L16.5 2.44C17.08 1.85 18.03 1.85 18.62 2.44C19.2 3.03 19.2 4 18.62 4.56L14.73 8.45L15.73 12.81M23.8 20.4C23.9 20.4 23.9 20.5 23.8 20.6L22.8 22.3C22.7 22.4 22.6 22.4 22.5 22.4L21.3 22C21 22.2 20.8 22.3 20.5 22.5L20.3 23.8C20.3 23.9 20.2 24 20.1 24H18.1C18 24 17.9 23.9 17.8 23.8L17.6 22.5C17.3 22.4 17 22.2 16.8 22L15.6 22.5C15.5 22.5 15.4 22.5 15.3 22.4L14.3 20.7C14.2 20.6 14.3 20.5 14.4 20.4L15.5 19.6V18.6L14.4 17.8C14.3 17.7 14.3 17.6 14.3 17.5L15.3 15.8C15.4 15.7 15.5 15.7 15.6 15.7L16.8 16.2C17.1 16 17.3 15.9 17.6 15.7L17.8 14.4C17.8 14.3 17.9 14.2 18.1 14.2H20.1C20.2 14.2 20.3 14.3 20.3 14.4L20.5 15.7C20.8 15.8 21.1 16 21.4 16.2L22.6 15.7C22.7 15.7 22.9 15.7 22.9 15.8L23.9 17.5C24 17.6 23.9 17.7 23.8 17.8L22.7 18.6V19.6L23.8 20.4M20.5 19C20.5 18.2 19.8 17.5 19 17.5S17.5 18.2 17.5 19 18.2 20.5 19 20.5 20.5 19.8 20.5 19Z" /></svg>