<svg xmlns="http://www.w3.org/2000/svg" id="mdi-airplane-search" viewBox="0 0 24 24"><path d="M9.55 9.63L10.9 12.22C11.5 11.17 12.41 10.31 13.5 9.74L12.73 6.45L16.62 2.56C17.2 1.97 17.2 1 16.62 .438S15.08-.148 14.5 .438L10.61 4.33L1.41 2.21L0 3.62L7.43 7.5L3.54 11.4L1.06 11.05L0 12.11L3.18 13.87L4.95 17.06L6 16L5.66 13.5L9.55 9.63M16.5 11C19 11 21 13 21 15.5C21 16.38 20.75 17.21 20.31 17.9L23.39 21L22 22.39L18.88 19.32C18.19 19.75 17.37 20 16.5 20C14 20 12 18 12 15.5S14 11 16.5 11M16.5 13C15.12 13 14 14.12 14 15.5S15.12 18 16.5 18 19 16.88 19 15.5 17.88 13 16.5 13" /></svg>