<?xml version="1.0" encoding="UTF-8"?><!DOCTYPE svg PUBLIC "-//W3C//DTD SVG 1.1//EN" "http://www.w3.org/Graphics/SVG/1.1/DTD/svg11.dtd"><svg xmlns="http://www.w3.org/2000/svg" xmlns:xlink="http://www.w3.org/1999/xlink" version="1.1" id="mdi-archive-clock" width="24" height="24" viewBox="0 0 24 24"><path d="M20 6H2V2H20V6M16.5 12H15V17L18.61 19.16L19.36 17.94L16.5 16.25V12M23 16C23 19.87 19.87 23 16 23C13.62 23 11.53 21.81 10.26 20H3V7H19V9.68C21.36 10.81 23 13.21 23 16M8 12H10.26C10.83 11.19 11.56 10.5 12.41 10H8.5C8.22 10 8 10.22 8 10.5V12M21 16C21 13.24 18.76 11 16 11S11 13.24 11 16 13.24 21 16 21 21 18.76 21 16Z" /></svg>