<svg xmlns="http://www.w3.org/2000/svg" id="mdi-archive-refresh-outline" viewBox="0 0 24 24"><path d="M18 12.03V10H20V12.18C19.5 12.07 19 12 18.5 12C18.33 12 18.17 12 18 12.03M9.5 11C9.22 11 9 11.22 9 11.5V13H15V11.5C15 11.22 14.78 11 14.5 11H9.5M6 19V10H4V21H12.5C12.24 20.38 12.09 19.7 12.03 19H6M21 9H3V3H21V9M19 5H5V7H19V5M22 18.5V14.5L20.83 15.67C20.11 14.95 19.11 14.5 18 14.5C15.79 14.5 14 16.29 14 18.5S15.79 22.5 18 22.5C19.68 22.5 21.12 21.47 21.71 20H20C19.54 20.61 18.82 21 18 21C16.62 21 15.5 19.88 15.5 18.5S16.62 16 18 16C18.69 16 19.32 16.28 19.77 16.73L18 18.5H22Z" /></svg>