<?xml version="1.0" encoding="UTF-8"?><!DOCTYPE svg PUBLIC "-//W3C//DTD SVG 1.1//EN" "http://www.w3.org/Graphics/SVG/1.1/DTD/svg11.dtd"><svg xmlns="http://www.w3.org/2000/svg" xmlns:xlink="http://www.w3.org/1999/xlink" version="1.1" id="mdi-archive-settings-outline" width="24" height="24" viewBox="0 0 24 24"><path d="M3 2V8H21V2H3M19 6H5V4H19V6M18 9H20V20H4V9H6V18H18V9M15 10.5V12H9V10.5C9 10.22 9.22 10 9.5 10H14.5C14.78 10 15 10.22 15 10.5M7 22H9V24H7V22M11 22H13V24H11V22M15 22H17V24H15V22Z" /></svg>