<?xml version="1.0" encoding="UTF-8"?><!DOCTYPE svg PUBLIC "-//W3C//DTD SVG 1.1//EN" "http://www.w3.org/Graphics/SVG/1.1/DTD/svg11.dtd"><svg xmlns="http://www.w3.org/2000/svg" xmlns:xlink="http://www.w3.org/1999/xlink" version="1.1" id="mdi-archive-edit" width="24" height="24" viewBox="0 0 24 24"><path d="M20 10.3V8H4V21H11V19.13L19.39 10.74C19.57 10.56 19.78 10.42 20 10.3M15 13H9V11.5C9 11.22 9.22 11 9.5 11H14.5C14.78 11 15 11.22 15 11.5V13M21 7H3V3H21V7M22.85 14.19L21.87 15.17L19.83 13.13L20.81 12.15C21 11.95 21.33 11.95 21.53 12.15L22.85 13.47C23.05 13.67 23.05 14 22.85 14.19M19.13 13.83L21.17 15.87L15.04 22H13V19.96L19.13 13.83Z" /></svg>