<svg xmlns="http://www.w3.org/2000/svg" id="mdi-archive-eye-outline" viewBox="0 0 24 24"><path d="M14.5 11C14.78 11 15 11.22 15 11.5V13H9V11.5C9 11.22 9.22 11 9.5 11H14.5M20 13.55V10H18V13.06C18.69 13.14 19.36 13.31 20 13.55M21 9H3V3H21V9M19 5H5V7H19V5M8.85 19H6V10H4V21H9.78C9.54 20.61 9.32 20.19 9.14 19.75L8.85 19M17 18C16.44 18 16 18.44 16 19S16.44 20 17 20 18 19.56 18 19 17.56 18 17 18M23 19C22.06 21.34 19.73 23 17 23S11.94 21.34 11 19C11.94 16.66 14.27 15 17 15S22.06 16.66 23 19M19.5 19C19.5 17.62 18.38 16.5 17 16.5S14.5 17.62 14.5 19 15.62 21.5 17 21.5 19.5 20.38 19.5 19Z" /></svg>