<svg xmlns="http://www.w3.org/2000/svg" id="mdi-archive-lock-open" viewBox="0 0 24 24"><path d="M21 7H3V3H21V7M19 9C19.34 9 19.68 9.04 20 9.11V8H4V21H13.03C13 20.9 13 20.8 13 20.7V17.2C13 16.24 13.5 15.34 14.2 14.74V13.5C14.2 13.33 14.24 13.17 14.26 13H9V11.5C9 11.22 9.22 11 9.5 11H14.5C14.67 11 14.82 11.09 14.91 11.22C15.75 9.91 17.28 9 19 9M21.8 16H17.5V13.5C17.5 12.7 18.2 12.2 19 12.2S20.5 12.7 20.5 13.5V14H21.8V13.5C21.8 12.1 20.4 11 19 11S16.2 12.1 16.2 13.5V16C15.6 16 15 16.6 15 17.2V20.7C15 21.4 15.6 22 16.2 22H21.7C22.4 22 23 21.4 23 20.8V17.3C23 16.6 22.4 16 21.8 16Z" /></svg>