<svg xmlns="http://www.w3.org/2000/svg" id="mdi-archive-sync-outline" viewBox="0 0 24 24"><path d="M18 11.18V10H20V11.03C19.84 11 19.67 11 19.5 11C19 11 18.5 11.07 18 11.18M15 11.5C15 11.22 14.78 11 14.5 11H9.5C9.22 11 9 11.22 9 11.5V13H14.82C14.88 12.94 14.94 12.88 15 12.82V11.5M6 19V10H4V21H14.03C13.64 20.39 13.35 19.72 13.18 19H6M21 9H3V3H21V9M19 5H5V7H19V5M19 13.5V12L16.75 14.25L19 16.5V15C20.38 15 21.5 16.12 21.5 17.5C21.5 17.9 21.41 18.28 21.24 18.62L22.33 19.71C22.75 19.08 23 18.32 23 17.5C23 15.29 21.21 13.5 19 13.5M19 20C17.62 20 16.5 18.88 16.5 17.5C16.5 17.1 16.59 16.72 16.76 16.38L15.67 15.29C15.25 15.92 15 16.68 15 17.5C15 19.71 16.79 21.5 19 21.5V23L21.25 20.75L19 18.5V20Z" /></svg>