<?xml version="1.0" encoding="UTF-8"?><!DOCTYPE svg PUBLIC "-//W3C//DTD SVG 1.1//EN" "http://www.w3.org/Graphics/SVG/1.1/DTD/svg11.dtd"><svg xmlns="http://www.w3.org/2000/svg" xmlns:xlink="http://www.w3.org/1999/xlink" version="1.1" id="mdi-arrow-bottom-right-thin-circle-outline" width="24" height="24" viewBox="0 0 24 24"><path d="M12 20.03C7.59 20.03 3.97 16.41 3.97 12C3.97 7.59 7.59 3.97 12 3.97C16.41 3.97 20.03 7.59 20.03 12C20.03 16.41 16.41 20.03 12 20.03M12 22C17.54 22 22 17.54 22 12C22 6.46 17.54 2 12 2C6.46 2 2 6.46 2 12C2 17.54 6.46 22 12 22M13.88 12.47L16 10.36V16H10.36L12.47 13.88L7.5 8.9L8.9 7.5" /></svg>