<?xml version="1.0" encoding="UTF-8"?><!DOCTYPE svg PUBLIC "-//W3C//DTD SVG 1.1//EN" "http://www.w3.org/Graphics/SVG/1.1/DTD/svg11.dtd"><svg xmlns="http://www.w3.org/2000/svg" xmlns:xlink="http://www.w3.org/1999/xlink" version="1.1" id="mdi-arrow-top-left-thin-circle-outline" width="24" height="24" viewBox="0 0 24 24"><path d="M12 3.97C16.41 3.97 20.03 7.59 20.03 12C20.03 16.41 16.41 20.03 12 20.03C7.59 20.03 3.97 16.41 3.97 12C3.97 7.59 7.59 3.97 12 3.97M12 2C6.46 2 2 6.46 2 12C2 17.54 6.46 22 12 22C17.54 22 22 17.54 22 12C22 6.46 17.54 2 12 2M10.12 11.53L8 13.64V8H13.64L11.53 10.12L16.5 15.1L15.1 16.5" /></svg>