<svg xmlns="http://www.w3.org/2000/svg" id="mdi-aurora" viewBox="0 0 24 24"><path d="M2 3C2.55 3 3 3.45 3 4V13H5V5C5 4.45 5.45 4 6 4C6.55 4 7 4.45 7 5V13H9V6C9 5.45 9.45 5 10 5C10.55 5 11 5.45 11 6V13H12.5C12.67 13 12.84 13 13 13.05V7C13 6.45 13.45 6 14 6C14.55 6 15 6.45 15 7V15.5C15 16.88 13.88 18 12.5 18H11.5C11.22 18 11 18.22 11 18.5C11 18.78 11.22 19 11.5 19H17V8C17 7.45 17.45 7 18 7C18.55 7 19 7.45 19 8V19H21V9C21 8.45 21.45 8 22 8C22.55 8 23 8.45 23 9V20C23 20.55 22.55 21 22 21H11.5C10.12 21 9 19.88 9 18.5C9 17.12 10.12 16 11.5 16H12.5C12.78 16 13 15.78 13 15.5C13 15.22 12.78 15 12.5 15H2C1.45 15 1 14.55 1 14V4C1 3.45 1.45 3 2 3Z" /></svg>