<svg xmlns="http://www.w3.org/2000/svg" id="mdi-awning" viewBox="0 0 24 24"><path d="M5.06 7C4.63 7 4.22 7.14 3.84 7.42C3.46 7.7 3.24 8.06 3.14 8.5L2.11 12.91C1.86 14 2.06 14.92 2.69 15.73C2.81 15.85 2.93 15.97 3.04 16.07C3.63 16.64 4.28 17 5.22 17C6.16 17 6.91 16.59 7.47 16.05C8.1 16.67 8.86 17 9.8 17C10.64 17 11.44 16.63 12 16.07C12.68 16.7 13.45 17 14.3 17C15.17 17 15.91 16.67 16.54 16.05C17.11 16.62 17.86 17 18.81 17C19.76 17 20.43 16.65 21 16.06C21.09 15.97 21.18 15.87 21.28 15.77C21.94 14.95 22.14 14 21.89 12.91L20.86 8.5C20.73 8.06 20.5 7.7 20.13 7.42C19.77 7.14 19.38 7 18.94 7H5.06Z" /></svg>