<svg xmlns="http://www.w3.org/2000/svg" id="mdi-awning-outline" viewBox="0 0 24 24"><path d="M5.06 7C4.63 7 4.22 7.14 3.84 7.42C3.46 7.7 3.24 8.06 3.14 8.5L2.11 12.91C1.86 14 2.06 14.92 2.69 15.73C2.81 15.85 2.93 15.97 3.04 16.07C3.63 16.64 4.28 17 5.22 17C6.16 17 6.91 16.59 7.47 16.05C8.1 16.67 8.86 17 9.8 17C10.64 17 11.44 16.63 12 16.07C12.68 16.7 13.45 17 14.3 17C15.17 17 15.91 16.67 16.54 16.05C17.11 16.62 17.86 17 18.81 17C19.76 17 20.43 16.65 21 16.06C21.09 15.97 21.18 15.87 21.28 15.77C21.94 14.95 22.14 14 21.89 12.91L20.86 8.5C20.73 8.06 20.5 7.7 20.13 7.42C19.77 7.14 19.38 7 18.94 7H5.06M18.89 8.97L19.97 13.38C20.06 13.81 19.97 14.2 19.69 14.55C19.44 14.86 19.13 15 18.75 15C18.44 15 18.17 14.9 17.95 14.66C17.73 14.43 17.61 14.16 17.58 13.84L16.97 9L18.89 8.97M5.06 9H7.03L6.42 13.84C6.3 14.63 5.91 15 5.25 15C4.84 15 4.53 14.86 4.31 14.55C4.03 14.2 3.94 13.81 4.03 13.38L5.06 9M9.05 9H11V13.7C11 14.05 10.89 14.35 10.64 14.62C10.39 14.88 10.08 15 9.7 15C9.36 15 9.07 14.88 8.84 14.59C8.61 14.3 8.5 14 8.5 13.66V13.5L9.05 9M13 9H14.95L15.5 13.5C15.58 13.92 15.5 14.27 15.21 14.57C14.95 14.87 14.61 15 14.2 15C13.89 15 13.61 14.88 13.36 14.62C13.11 14.35 13 14.05 13 13.7V9Z" /></svg>