<?xml version="1.0" encoding="UTF-8"?><!DOCTYPE svg PUBLIC "-//W3C//DTD SVG 1.1//EN" "http://www.w3.org/Graphics/SVG/1.1/DTD/svg11.dtd"><svg xmlns="http://www.w3.org/2000/svg" xmlns:xlink="http://www.w3.org/1999/xlink" version="1.1" id="mdi-bag-suitcase" width="24" height="24" viewBox="0 0 24 24"><path d="M17.03 6C18.11 6 19 6.88 19 8V19C19 20.13 18.11 21 17.03 21C17.03 21.58 16.56 22 16 22C15.5 22 15 21.58 15 21H9C9 21.58 8.5 22 8 22C7.44 22 6.97 21.58 6.97 21C5.89 21 5 20.13 5 19V8C5 6.88 5.89 6 6.97 6H9V3C9 2.42 9.46 2 10 2H14C14.54 2 15 2.42 15 3V6H17.03M13.5 6V3.5H10.5V6H13.5M8 9V18H9.5V9H8M14.5 9V18H16V9H14.5M11.25 9V18H12.75V9H11.25Z" /></svg>