<?xml version="1.0" encoding="UTF-8"?><!DOCTYPE svg PUBLIC "-//W3C//DTD SVG 1.1//EN" "http://www.w3.org/Graphics/SVG/1.1/DTD/svg11.dtd"><svg xmlns="http://www.w3.org/2000/svg" xmlns:xlink="http://www.w3.org/1999/xlink" version="1.1" id="mdi-bank-check" width="24" height="24" viewBox="0 0 24 24"><path d="M10,17v-7h3v6.6c-0.1,0.1-0.1,0.3-0.1,0.4H10 M18.5,13c0.2,0,0.3,0,0.5,0v-3h-3v3.6C16.8,13.2,17.6,13,18.5,13 M7,17v-7H4v7tH7 M21,6l-9.5-5L2,6v2h19V6 M2,19v3h11.3c-0.5-0.9-0.8-1.9-0.8-3H2 M20.8,16l-3.6,3.6L15.7,18l-1.2,1.2l2.8,3l4.8-4.8L20.8,16z" /></svg>