<svg xmlns="http://www.w3.org/2000/svg" id="mdi-bell-cog-outline" viewBox="0 0 24 24"><path d="M22.72 19.5C22.74 19.33 22.75 19.17 22.75 19S22.74 18.67 22.72 18.5L23.77 17.68C23.87 17.61 23.89 17.5 23.83 17.36L22.83 15.64C22.77 15.53 22.64 15.5 22.53 15.53L21.28 16C21 15.83 20.75 15.66 20.44 15.54L20.25 14.21C20.23 14.09 20.13 14 20 14H18C17.88 14 17.77 14.09 17.75 14.21L17.57 15.54C17.25 15.66 17 15.83 16.72 16L15.5 15.53C15.37 15.5 15.23 15.53 15.17 15.64L14.17 17.36C14.11 17.5 14.14 17.61 14.23 17.68L15.29 18.5C15.27 18.67 15.25 18.84 15.25 19S15.27 19.33 15.29 19.5L14.23 20.32C14.14 20.39 14.11 20.53 14.17 20.64L15.17 22.37C15.23 22.5 15.37 22.5 15.5 22.5L16.72 21.97C17 22.17 17.25 22.34 17.57 22.47L17.75 23.79C17.77 23.91 17.88 24 18 24H20C20.13 24 20.23 23.91 20.25 23.79L20.44 22.47C20.75 22.34 21 22.17 21.28 21.97L22.53 22.5C22.64 22.5 22.77 22.5 22.83 22.37L23.83 20.64C23.89 20.53 23.87 20.39 23.77 20.32L22.72 19.5M19 20.75C18.04 20.75 17.25 19.97 17.25 19S18.04 17.25 19 17.25 20.75 18.03 20.75 19 19.97 20.75 19 20.75M12.08 20H3V19L5 17V11C5 7.9 7 5.2 10 4.3V4C10 2.9 10.9 2 12 2S14 2.9 14 4V4.3C17 5.2 19 7.9 19 11V12C18.31 12 17.63 12.11 17 12.29V11C17 8.2 14.8 6 12 6S7 8.2 7 11V18H12.08C12.03 18.33 12 18.66 12 19C12 19.34 12.03 19.67 12.08 20M12.3 21C12.5 21.6 12.74 22.17 13.06 22.69C12.75 22.88 12.39 23 12 23C10.9 23 10 22.1 10 21H12.3Z" /></svg>