<?xml version="1.0" encoding="UTF-8"?><!DOCTYPE svg PUBLIC "-//W3C//DTD SVG 1.1//EN" "http://www.w3.org/Graphics/SVG/1.1/DTD/svg11.dtd"><svg xmlns="http://www.w3.org/2000/svg" xmlns:xlink="http://www.w3.org/1999/xlink" version="1.1" id="mdi-book-remove-multiple" width="24" height="24" viewBox="0 0 24 24"><path d="M9,2A2,2 0 0,0 7,4V16A2,2 0 0,0 9,18H19A2,2 0 0,0 21,16V4A2,2 0 0,0 19,2H14V7L12,5.5L10,7V2H9M3,6V20A2,2 0 0,0 5,22H17V20H5V6H3M14.59,10.17L16,11.59L17.41,10.17L18.83,11.59L17.41,13L18.83,14.41L17.41,15.83L16,14.41L14.59,15.83L13.17,14.41L14.59,13L13.17,11.59L14.59,10.17Z" /></svg>