<svg xmlns="http://www.w3.org/2000/svg" id="mdi-book-lock-outline" viewBox="0 0 24 24"><path d="M13 20.7C13 21.16 13.1 21.6 13.27 22H6C4.89 22 4 21.11 4 20V4C4 2.9 4.89 2 6 2H18C19.11 2 20 2.9 20 4V10.11C19.68 10.04 19.34 10 19 10S18.32 10.04 18 10.11V4H13V12L10.5 9.75L8 12V4H6V20H13V20.7M23 17.3V20.8C23 21.4 22.4 22 21.7 22H16.2C15.6 22 15 21.4 15 20.7V17.2C15 16.6 15.6 16 16.2 16V14.5C16.2 13.1 17.6 12 19 12S21.8 13.1 21.8 14.5V16C22.4 16 23 16.6 23 17.3M20.5 14.5C20.5 13.7 19.8 13.2 19 13.2S17.5 13.7 17.5 14.5V16H20.5V14.5Z" /></svg>