<svg xmlns="http://www.w3.org/2000/svg" id="mdi-book-refresh-outline" viewBox="0 0 24 24"><path d="M12.18 20C12.36 20.72 12.65 21.39 13.04 22H6C4.89 22 4 21.11 4 20V4C4 2.9 4.89 2 6 2H18C19.11 2 20 2.9 20 4V12.18C19.5 12.07 19 12 18.5 12C18.33 12 18.17 12 18 12.03V4H13V12L10.5 9.75L8 12V4H6V20H12.18M22 18.5V14.5L20.83 15.67C20.11 14.95 19.11 14.5 18 14.5C15.79 14.5 14 16.29 14 18.5S15.79 22.5 18 22.5C19.68 22.5 21.12 21.47 21.71 20H20C19.54 20.61 18.82 21 18 21C16.62 21 15.5 19.88 15.5 18.5S16.62 16 18 16C18.69 16 19.32 16.28 19.77 16.73L18 18.5H22Z" /></svg>