<svg xmlns="http://www.w3.org/2000/svg" id="mdi-book-lock-open" viewBox="0 0 24 24"><path d="M14.2 13.5V14.74C13.5 15.34 13 16.24 13 17.2V20.7C13 21.16 13.1 21.6 13.27 22H6C4.89 22 4 21.11 4 20V4C4 2.9 4.89 2 6 2H7V9L9.5 7.5L12 9V2H18C19.1 2 20 2.89 20 4V9.11C19.68 9.04 19.34 9 19 9C16.4 9 14.2 11.06 14.2 13.5M21.8 16H17.5V13.5C17.5 12.7 18.2 12.2 19 12.2S20.5 12.7 20.5 13.5V14H21.8V13.5C21.8 12.1 20.4 11 19 11S16.2 12.1 16.2 13.5V16C15.6 16 15 16.6 15 17.2V20.7C15 21.4 15.6 22 16.2 22H21.7C22.4 22 23 21.4 23 20.8V17.3C23 16.6 22.4 16 21.8 16Z" /></svg>