<?xml version="1.0" encoding="UTF-8"?><!DOCTYPE svg PUBLIC "-//W3C//DTD SVG 1.1//EN" "http://www.w3.org/Graphics/SVG/1.1/DTD/svg11.dtd"><svg xmlns="http://www.w3.org/2000/svg" xmlns:xlink="http://www.w3.org/1999/xlink" version="1.1" id="mdi-bottle-wine-outline" width="24" height="24" viewBox="0 0 24 24"><path d="M11.5 2H12.5C12.8 2 13 2.2 13 2.5V7C14 7.2 15 9 15 11V21C15 21.6 14.6 22 14 22H10C9.4 22 9 21.6 9 21V11C9 9 10 7.2 11 7V2.5C11 2.2 11.2 2 11.5 2M12 9C11.5 9 11 9.5 11 11V20H13V11C13 9.5 12.5 9 12 9Z" /></svg>