<?xml version="1.0" encoding="UTF-8"?><!DOCTYPE svg PUBLIC "-//W3C//DTD SVG 1.1//EN" "http://www.w3.org/Graphics/SVG/1.1/DTD/svg11.dtd"><svg xmlns="http://www.w3.org/2000/svg" xmlns:xlink="http://www.w3.org/1999/xlink" version="1.1" id="mdi-briefcase-arrow-left-right" width="24" height="24" viewBox="0 0 24 24"><path d="M10 2H14C15.11 2 16 2.9 16 4V6H20C21.11 6 22 6.9 22 8V13.53C20.94 12.58 19.54 12 18 12C14.69 12 12 14.69 12 18C12 19.09 12.29 20.12 12.8 21H4C2.89 21 2 20.1 2 19V8C2 6.89 2.89 6 4 6H8V4C8 2.89 8.89 2 10 2M14 6V4H10V6H14M19 18.5V17H15V15H19V13.5L22 16L19 18.5M17 19H21V21H17V22.5L14 20L17 17.5V19Z" /></svg>