<?xml version="1.0" encoding="UTF-8"?><!DOCTYPE svg PUBLIC "-//W3C//DTD SVG 1.1//EN" "http://www.w3.org/Graphics/SVG/1.1/DTD/svg11.dtd"><svg xmlns="http://www.w3.org/2000/svg" xmlns:xlink="http://www.w3.org/1999/xlink" version="1.1" id="mdi-brush-variant" width="24" height="24" viewBox="0 0 24 24"><path d="M8 3C5.79 3 4 4.79 4 7V14C4 15.1 4.9 16 6 16H9V20C9 21.1 9.9 22 11 22H13C14.1 22 15 21.1 15 20V16H18C19.1 16 20 15.1 20 14V3H8M8 5H12V7H14V5H15V9H17V5H18V10H6V7C6 5.9 6.9 5 8 5M6 14V12H18V14H6Z" /></svg>