<?xml version="1.0" encoding="UTF-8"?><!DOCTYPE svg PUBLIC "-//W3C//DTD SVG 1.1//EN" "http://www.w3.org/Graphics/SVG/1.1/DTD/svg11.dtd"><svg xmlns="http://www.w3.org/2000/svg" xmlns:xlink="http://www.w3.org/1999/xlink" version="1.1" id="mdi-calculator-variant-outline" width="24" height="24" viewBox="0 0 24 24"><path d="M19 3H5C3.9 3 3 3.9 3 5V19C3 20.1 3.9 21 5 21H19C20.1 21 21 20.1 21 19V5C21 3.9 20.1 3 19 3M19 19H5V5H19V19M6.2 7.7H11.2V9.2H6.2V7.7M13 15.8H18V17.3H13V15.8M13 13.2H18V14.7H13V13.2M8 18H9.5V16H11.5V14.5H9.5V12.5H8V14.5H6V16H8V18M14.1 10.9L15.5 9.5L16.9 10.9L18 9.9L16.6 8.5L18 7.1L16.9 6L15.5 7.4L14.1 6L13 7.1L14.4 8.5L13 9.9L14.1 10.9Z" /></svg>