<?xml version="1.0" encoding="UTF-8"?><!DOCTYPE svg PUBLIC "-//W3C//DTD SVG 1.1//EN" "http://www.w3.org/Graphics/SVG/1.1/DTD/svg11.dtd"><svg xmlns="http://www.w3.org/2000/svg" xmlns:xlink="http://www.w3.org/1999/xlink" version="1.1" id="mdi-calendar-filter-outline" width="24" height="24" viewBox="0 0 24 24"><path d="M18 3C19.11 3 20 3.89 20 5V11H18V9H4V19H14V21H4C3.92 21 3.83 21 3.75 21C3.31 20.93 2.9 20.73 2.58 20.42C2.27 20.1 2.07 19.69 2 19.25C2 19.17 2 19.08 2 19V5C2 4.92 2 4.83 2 4.75C2.07 4.31 2.27 3.9 2.58 3.58C2.9 3.27 3.31 3.07 3.75 3C3.84 3 3.92 3 4 3H5V1H7V3H15V1H17V3H18M18 7V5H4V7H18M18 21.44C18 21.59 17.97 21.75 17.86 21.86L17.69 21.96L17.5 22L17.31 21.96L17.15 21.85L16.15 20.85L16.03 20.66L16 20.44V17.5H16L13.1 13.81C13.03 13.71 13 13.57 13 13.44C13 13.31 13.09 13.19 13.19 13.11L13.5 13H20.5L20.81 13.11C20.92 13.19 21 13.31 21 13.44C21 13.57 21 13.71 20.9 13.81L18 17.5H18V21.44Z" /></svg>