<?xml version="1.0" encoding="UTF-8"?><!DOCTYPE svg PUBLIC "-//W3C//DTD SVG 1.1//EN" "http://www.w3.org/Graphics/SVG/1.1/DTD/svg11.dtd"><svg xmlns="http://www.w3.org/2000/svg" xmlns:xlink="http://www.w3.org/1999/xlink" version="1.1" id="mdi-calendar-multiselect-outline" width="24" height="24" viewBox="0 0 24 24"><path d="M20.41 21.41C20.79 21.04 21 20.53 21 20V6C21 5.47 20.79 4.96 20.41 4.59C20.04 4.21 19.53 4 19 4H18V2H16V4H8V2H6V4H5C4.47 4 3.96 4.21 3.59 4.59C3.21 4.96 3 5.47 3 6V20C3 20.53 3.21 21.04 3.59 21.41C3.96 21.79 4.47 22 5 22H19C19.53 22 20.04 21.79 20.41 21.41M19 8H5V6H19V8M19 10V20H5V10H19M7 13V11H9V13H7M15 13V11H17V13H15M13 15H11V17H13V15M15 17V15H17V17H15Z" /></svg>