<?xml version="1.0" encoding="UTF-8"?><!DOCTYPE svg PUBLIC "-//W3C//DTD SVG 1.1//EN" "http://www.w3.org/Graphics/SVG/1.1/DTD/svg11.dtd"><svg xmlns="http://www.w3.org/2000/svg" xmlns:xlink="http://www.w3.org/1999/xlink" version="1.1" id="mdi-calendar-export-outline" width="24" height="24" viewBox="0 0 24 24"><path d="M19 3H18V1H16V3H8V1H6V3H5C3.9 3 3 3.9 3 5V19C3 20.1 3.9 21 5 21H8L6 19H5V9H19V19H18L16 21H19C20.1 21 21 20.1 21 19V5C21 3.9 20.1 3 19 3M5 7V5H19V7H5M13 18V12H11V18H8L12 22L16 18H13Z" /></svg>