<svg xmlns="http://www.w3.org/2000/svg" id="mdi-calendar-clock-outline" viewBox="0 0 24 24"><path d="M6 1V3H5C3.89 3 3 3.89 3 5V19C3 20.1 3.89 21 5 21H11.1C12.36 22.24 14.09 23 16 23C19.87 23 23 19.87 23 16C23 14.09 22.24 12.36 21 11.1V5C21 3.9 20.11 3 19 3H18V1H16V3H8V1M5 5H19V7H5M5 9H19V9.67C18.09 9.24 17.07 9 16 9C12.13 9 9 12.13 9 16C9 17.07 9.24 18.09 9.67 19H5M16 11.15C18.68 11.15 20.85 13.32 20.85 16C20.85 18.68 18.68 20.85 16 20.85C13.32 20.85 11.15 18.68 11.15 16C11.15 13.32 13.32 11.15 16 11.15M15 13V16.69L18.19 18.53L18.94 17.23L16.5 15.82V13Z" /></svg>