<?xml version="1.0" encoding="UTF-8"?><!DOCTYPE svg PUBLIC "-//W3C//DTD SVG 1.1//EN" "http://www.w3.org/Graphics/SVG/1.1/DTD/svg11.dtd"><svg xmlns="http://www.w3.org/2000/svg" xmlns:xlink="http://www.w3.org/1999/xlink" version="1.1" id="mdi-calendar-star-outline" width="24" height="24" viewBox="0 0 24 24"><path d="M19 4H18V2H16V4H8V2H6V4H5C3.9 4 3 4.9 3 6V20C3 21.1 3.9 22 5 22H19C20.1 22 21 21.1 21 20V6C21 4.9 20.1 4 19 4M19 20H5V10H19V20M19 8H5V6H19V8M11 14.1H7.8L10.4 16L9.4 19.1L12 17.2L14.6 19.1L13.6 16L16.2 14.1H13L12 11L11 14.1Z" /></svg>