<?xml version="1.0" encoding="UTF-8"?><!DOCTYPE svg PUBLIC "-//W3C//DTD SVG 1.1//EN" "http://www.w3.org/Graphics/SVG/1.1/DTD/svg11.dtd"><svg xmlns="http://www.w3.org/2000/svg" xmlns:xlink="http://www.w3.org/1999/xlink" version="1.1" id="mdi-calendar-star" width="24" height="24" viewBox="0 0 24 24"><path d="M19 19H5V8H19M16 1V3H8V1H6V3H5C3.9 3 3 3.9 3 5V19C3 20.11 3.9 21 5 21H19C20.11 21 21 20.11 21 19V5C21 3.9 20.11 3 19 3H18V1M10.88 12H7.27L10.19 14.11L9.08 17.56L12 15.43L14.92 17.56L13.8 14.12L16.72 12H13.12L12 8.56L10.88 12Z" /></svg>