<svg xmlns="http://www.w3.org/2000/svg" id="mdi-candy-off-outline" viewBox="0 0 24 24"><path d="M22.1 21.5L2.4 1.7L1.1 3L7.7 9.6C6.6 11.5 6.9 14 8.5 15.6S12.6 17.5 14.5 16.4L20.9 22.8L22.1 21.5M9.9 14.1C9.1 13.3 8.8 12.1 9.2 11L13 14.8C11.9 15.2 10.7 15 9.9 14.1M14.8 6.3C14.5 5.2 14.6 3.6 15.9 2.4C16.8 3.3 17.3 4.3 17.4 5.3C18.5 4.6 19.4 4.5 19.4 4.5C19.3 5.3 19 6 18.6 6.5C19.6 6.7 20.7 7.2 21.5 8C20.3 9.2 18.7 9.4 17.6 9.1C17.3 7.8 16.2 6.7 14.8 6.3M12.2 9L10.4 7.2C12.1 6.6 14.1 7 15.5 8.4C16.9 9.8 17.3 11.7 16.7 13.5L15 11.8C14.9 11.1 14.7 10.4 14.1 9.9S12.9 9.1 12.2 9M9.2 17.7C9.5 18.8 9.4 20.4 8.1 21.6C7.2 20.7 6.7 19.7 6.6 18.7C5.5 19.4 4.6 19.5 4.6 19.5C4.7 18.7 5 18 5.4 17.5C4.4 17.3 3.3 16.8 2.5 16C3.7 14.8 5.3 14.6 6.4 14.9C6.7 16.2 7.8 17.3 9.2 17.7Z" /></svg>