<svg xmlns="http://www.w3.org/2000/svg" id="mdi-car-key" viewBox="0 0 24 24"><path d="M9 0C7.3 0 6 1.3 6 3S7.3 6 9 6C10.3 6 11.4 5.2 11.8 4H14V6H16V4H18V2H11.8C11.4 .8 10.3 0 9 0M9 2C9.6 2 10 2.4 10 3S9.6 4 9 4 8 3.6 8 3 8.4 2 9 2M6.5 8C5.8 8 5.3 8.4 5.1 9L3 15V23C3 23.6 3.4 24 4 24H5C5.6 24 6 23.6 6 23V22H18V23C18 23.6 18.4 24 19 24H20C20.6 24 21 23.6 21 23V15L18.9 9C18.7 8.4 18.1 8 17.5 8H6.5M6.5 9.5H17.5L19 14H5L6.5 9.5M6.5 16C7.3 16 8 16.7 8 17.5S7.3 19 6.5 19 5 18.3 5 17.5 5.7 16 6.5 16M17.5 16C18.3 16 19 16.7 19 17.5S18.3 19 17.5 19 16 18.3 16 17.5 16.7 16 17.5 16Z" /></svg>