<svg xmlns="http://www.w3.org/2000/svg" id="mdi-car-electric-outline" viewBox="0 0 24 24"><path d="M18.92 2C18.72 1.42 18.16 1 17.5 1H6.5C5.84 1 5.29 1.42 5.08 2L3 8V16C3 16.55 3.45 17 4 17H5C5.55 17 6 16.55 6 16V15H18V16C18 16.55 18.45 17 19 17H20C20.55 17 21 16.55 21 16V8L18.92 2M6.85 3H17.14L18.22 6.11H5.77L6.85 3M19 13H5V8H19V13M7.5 9C8.33 9 9 9.67 9 10.5S8.33 12 7.5 12 6 11.33 6 10.5 6.67 9 7.5 9M16.5 9C17.33 9 18 9.67 18 10.5S17.33 12 16.5 12C15.67 12 15 11.33 15 10.5S15.67 9 16.5 9M7 20H11V18L17 21H13V23L7 20Z" /></svg>