<svg xmlns="http://www.w3.org/2000/svg" id="mdi-car-clock" viewBox="0 0 24 24"><path d="M23 8C23 4.13 19.87 1 16 1C12.47 1 9.57 3.61 9.08 7H4.5C3.84 7 3.28 7.42 3.08 8L1 14V22C1 22.55 1.45 23 2 23H3C3.55 23 4 22.55 4 22V21H16V22C16 22.55 16.45 23 17 23H18C18.55 23 19 22.55 19 22V14.32C21.36 13.19 23 10.79 23 8M4.5 8.5H9.03C9.15 10.26 9.92 11.84 11.11 13H3L4.5 8.5M4.5 18C3.67 18 3 17.33 3 16.5S3.67 15 4.5 15 6 15.67 6 16.5 5.33 18 4.5 18M15.5 18C14.67 18 14 17.33 14 16.5S14.67 15 15.5 15 17 15.67 17 16.5 16.33 18 15.5 18M16 13C14.61 13 13.44 12.5 12.47 11.53C11.5 10.56 11 9.39 11 8C11 6.64 11.5 5.46 12.47 4.5C13.44 3.5 14.61 3 16 3C17.36 3 18.54 3.5 19.5 4.5C20.5 5.46 21 6.64 21 8C21 9.39 20.5 10.56 19.5 11.53C18.54 12.5 17.36 13 16 13M16.5 8.25L19.36 9.94L18.61 11.16L15 9V4H16.5V8.25Z" /></svg>