<svg xmlns="http://www.w3.org/2000/svg" id="mdi-car-speed-limiter" viewBox="0 0 24 24"><path d="M18 15C18 17.6 16.8 19.9 14.9 21.3L14.4 20.8L12.3 18.7L13.7 17.3L14.9 18.5C15.4 17.8 15.8 16.9 15.9 16H14V14H15.9C15.7 13.1 15.4 12.3 14.9 11.5L13.7 12.7L12.3 11.3L13.5 10.1C12.8 9.6 11.9 9.2 11 9.1V11H9V9.1C8.1 9.3 7.3 9.6 6.5 10.1L9.5 13.1C9.7 13.1 9.8 13 10 13C11.11 13 12 13.9 12 15S11.11 17 10 17 8 16.11 8 15C8 14.8 8 14.7 8.1 14.5L5.1 11.5C4.6 12.2 4.2 13.1 4.1 14H6V16H4.1C4.3 16.9 4.6 17.7 5.1 18.5L6.3 17.3L7.7 18.7L5.1 21.3C3.2 19.9 2 17.6 2 15C2 10.58 5.58 7 10 7S18 10.58 18 15M23 5C23 3.34 21.66 2 20 2S17 3.34 17 5C17 6.3 17.84 7.4 19 7.82V11H21V7.82C22.16 7.4 23 6.3 23 5M20 6C19.45 6 19 5.55 19 5S19.45 4 20 4 21 4.45 21 5 20.55 6 20 6Z" /></svg>