<?xml version="1.0" encoding="UTF-8"?><!DOCTYPE svg PUBLIC "-//W3C//DTD SVG 1.1//EN" "http://www.w3.org/Graphics/SVG/1.1/DTD/svg11.dtd"><svg xmlns="http://www.w3.org/2000/svg" xmlns:xlink="http://www.w3.org/1999/xlink" version="1.1" id="mdi-cards-playing-diamond-multiple-outline" width="24" height="24" viewBox="0 0 24 24"><path d="M19 0H9C7.9 0 7 .9 7 2V18C7 19.1 7.9 20 9 20H19C20.1 20 21 19.1 21 18V2C21 .9 20.1 0 19 0M19 18H9V2H19V18M3 4V22C3 23.1 3.9 24 5 24H17V22H5V4H3M14 5L11 10L14 15L17 10L14 5Z" /></svg>