<svg xmlns="http://www.w3.org/2000/svg" id="mdi-cart-percent" viewBox="0 0 24 24"><path d="M7 18C8.1 18 9 18.9 9 20S8.1 22 7 22 5 21.1 5 20 5.9 18 7 18M17 18C18.1 18 19 18.9 19 20S18.1 22 17 22 15 21.1 15 20 15.9 18 17 18M7.2 14.8C7.2 14.9 7.3 15 7.4 15H19V17H7C5.9 17 5 16.1 5 15C5 14.6 5.1 14.3 5.2 14L6.5 11.6L3 4H1V2H4.3L8.6 11H15.6L19.5 4L21.2 5L17.3 12C17 12.6 16.3 13 15.6 13H8.1L7.2 14.6V14.8M9.4 1C10.2 1 10.8 1.6 10.8 2.4S10.2 3.8 9.4 3.8 8 3.2 8 2.4 8.7 1 9.4 1M14.6 9C13.8 9 13.2 8.4 13.2 7.6S13.8 6.2 14.6 6.2 16 6.8 16 7.6 15.3 9 14.6 9M9.2 9L8 7.8L14.8 1L16 2.2L9.2 9" /></svg>