<?xml version="1.0" encoding="UTF-8"?><!DOCTYPE svg PUBLIC "-//W3C//DTD SVG 1.1//EN" "http://www.w3.org/Graphics/SVG/1.1/DTD/svg11.dtd"><svg xmlns="http://www.w3.org/2000/svg" xmlns:xlink="http://www.w3.org/1999/xlink" version="1.1" id="mdi-cart-heart" width="24" height="24" viewBox="0 0 24 24"><path d="M9 20C9 21.11 8.11 22 7 22S5 21.11 5 20 5.9 18 7 18 9 18.9 9 20M17 18C15.9 18 15 18.9 15 20S15.9 22 17 22 19 21.11 19 20 18.11 18 17 18M7.17 14.75L7.2 14.63L8.1 13H15.55C16.3 13 16.96 12.59 17.3 11.97L21.16 4.96L19.42 4H19.41L18.31 6L15.55 11H8.53L8.4 10.73L6.16 6L5.21 4L4.27 2H1V4H3L6.6 11.59L5.25 14.04C5.09 14.32 5 14.65 5 15C5 16.11 5.9 17 7 17H19V15H7.42C7.29 15 7.17 14.89 7.17 14.75M12 9.3L11.4 8.8C9.4 6.9 8 5.7 8 4.2C8 3 9 2 10.2 2C10.9 2 11.6 2.3 12 2.8C12.4 2.3 13.1 2 13.8 2C15 2 16 2.9 16 4.2C16 5.7 14.6 6.9 12.6 8.8L12 9.3Z" /></svg>