<svg xmlns="http://www.w3.org/2000/svg" id="mdi-cash-edit" viewBox="0 0 24 24"><path d="M3 6H21V9.1C19.96 9.1 19.35 9.72 19.2 9.87L19.19 9.89L19 10.07V10C18.47 10 17.96 9.79 17.59 9.41C17.21 9.04 17 8.53 17 8H7C7 8.53 6.79 9.04 6.41 9.41C6.04 9.79 5.53 10 5 10V14C5.53 14 6.04 14.21 6.41 14.59C6.79 14.96 7 15.47 7 16H13.07L11.07 18H3V6M12 9C12.8 9 13.56 9.32 14.12 9.88C14.68 10.44 15 11.2 15 12C15 12.8 14.68 13.56 14.12 14.12C13.56 14.68 12.8 15 12 15C11.2 15 10.44 14.68 9.88 14.12C9.32 13.56 9 12.8 9 12C9 11.2 9.32 10.44 9.88 9.88C10.44 9.32 11.2 9 12 9M22.7 12.6L21.4 11.3C21.3 11.2 21.2 11.1 21 11.1C20.8 11.1 20.7 11.2 20.6 11.3L19.6 12.3L21.7 14.4L22.7 13.4C22.9 13.2 22.9 12.8 22.7 12.6M15.1 21L21.1 14.9L19.1 12.8L13 18.9V21H15.1Z" /></svg>