<?xml version="1.0" encoding="UTF-8"?><!DOCTYPE svg PUBLIC "-//W3C//DTD SVG 1.1//EN" "http://www.w3.org/Graphics/SVG/1.1/DTD/svg11.dtd"><svg xmlns="http://www.w3.org/2000/svg" xmlns:xlink="http://www.w3.org/1999/xlink" version="1.1" id="mdi-cctv" width="24" height="24" viewBox="0 0 24 24"><path d="M6.03 12.03L8.03 15.5L5.5 18.68L2 12.62L6.03 12.03M17 18V15.29C17.88 14.9 18.5 14.03 18.5 13C18.5 12.43 18.3 11.9 17.97 11.5L19.94 10.35C20.95 9.76 21.3 8.47 20.71 7.46L19.33 5.06C18.74 4.05 17.45 3.7 16.44 4.28L8.31 9C7.36 9.53 7.03 10.75 7.58 11.71L9.08 14.31C9.63 15.26 10.86 15.59 11.81 15.04L13.69 13.96C13.94 14.55 14.41 15.03 15 15.29V18C15 19.1 15.9 20 17 20H22V18H17Z" /></svg>