<svg xmlns="http://www.w3.org/2000/svg" id="mdi-chandelier" viewBox="0 0 24 24"><path d="M15 13.1C15 14.76 13.66 16.1 12 16.1S9 14.76 9 13.1 10.34 10.1 12 10.1 15 11.44 15 13.1M9 2V3C9 4.11 9.9 5 11 5V9.1C11.32 9.04 11.66 9 12 9S12.68 9.04 13 9.1V5C14.11 5 15 4.11 15 3V2H9M4 11.1C2.34 11.1 1 12.44 1 14.1S2.34 17.1 4 17.1 7 15.76 7 14.1 5.66 11.1 4 11.1M20 11.1C18.34 11.1 17 12.44 17 14.1S18.34 17.1 20 17.1 23 15.76 23 14.1 21.66 11.1 20 11.1M20 18.1C19.32 18.1 18.67 17.96 18.08 17.71C17.6 17.95 17.07 18.1 16.5 18.1C15.39 18.1 14.41 17.57 13.77 16.77C13.22 17 12.63 17.1 12 17.1S10.78 17 10.23 16.77C9.59 17.57 8.61 18.1 7.5 18.1C6.93 18.1 6.4 17.95 5.92 17.71C5.33 17.96 4.68 18.1 4 18.1C3.73 18.1 3.46 18.06 3.2 18C4.21 19.29 5.76 20.1 7.5 20.1C8.83 20.1 10.05 19.63 11 18.84V21.1C11 21.65 11.45 22.1 12 22.1C12.55 22.1 13 21.65 13 21.1V18.84C13.95 19.63 15.17 20.1 16.5 20.1C18.24 20.1 19.79 19.29 20.8 18C20.54 18.06 20.27 18.1 20 18.1Z" /></svg>