<svg xmlns="http://www.w3.org/2000/svg" id="mdi-charity-search" viewBox="0 0 24 24"><path d="M10.5 6L3.4 13.1C2.6 12.2 2.2 10.9 2 9.2C1.9 7.4 2.4 5.9 3.5 4.6C4.7 3.4 6.1 2.8 7.8 2.8C9.5 2.8 10.9 3.4 12 4.6L13.7 6.3C13 6.5 12.4 6.8 11.8 7.2L10.5 6M15.5 6C18.4 6 20.9 7.9 21.7 10.6C21.8 10.2 21.9 9.8 21.9 9.3C22.1 7.6 21.6 6.1 20.6 4.8C20.1 4.3 19.4 3.8 18.6 3.4C17.7 3 16.9 2.8 16.2 2.8C14.9 2.8 13.7 3.2 12.7 3.9L14.8 6H15.5M11 7.9L10.6 7.5C9.8 8.1 7.9 10 4.9 13.1C4.7 13.3 4.6 13.5 4.6 13.8C4.6 14.1 4.7 14.3 4.9 14.5C5.1 14.7 5.3 14.8 5.6 14.8C5.8 14.8 6.1 14.7 6.3 14.5L9 11.8C9.2 10.2 9.9 8.9 11 7.9M10.2 16.3L9.1 17.4C9 17.5 8.9 17.8 8.9 18C8.9 18.3 9 18.5 9.2 18.7S9.6 19 9.8 19C10.1 19 10.3 18.9 10.5 18.7L11.6 17.6C11.1 17.3 10.6 16.8 10.2 16.3M9 13.2L7 15.2C6.8 15.4 6.7 15.7 6.7 16C6.7 16.3 6.8 16.5 7 16.7C7.2 16.9 7.5 17 7.7 17C8 17 8.2 16.9 8.4 16.7L9.6 15.4C9.3 14.7 9.1 14 9 13.2M12.5 18.2L11.3 19.4C11.1 19.6 11 19.8 11 20.1C11 20.4 11.1 20.6 11.3 20.8S11.7 21.1 12 21.1C12.3 21.1 12.5 21 12.7 20.8L14.6 18.9C13.8 18.8 13.1 18.6 12.5 18.2M22.2 17.8L20.8 19.2L17.9 16.3C17.2 16.7 16.4 17 15.5 17C13 17 11 15 11 12.5S13 8 15.5 8 20 10 20 12.5C20 13.4 19.7 14.2 19.3 14.9L22.2 17.8M18 12.5C18 11.1 16.9 10 15.5 10S13 11.1 13 12.5 14.1 15 15.5 15 18 13.9 18 12.5Z" /></svg>