<svg xmlns="http://www.w3.org/2000/svg" id="mdi-chat-question-outline" viewBox="0 0 24 24"><path d="M12 3C6.5 3 2 6.6 2 11C2 13.2 3.1 15.2 4.8 16.5C4.8 17.1 4.4 18.7 2 21C4.4 20.9 6.6 20 8.5 18.5C9.6 18.8 10.8 19 12 19C17.5 19 22 15.4 22 11S17.5 3 12 3M12 17C7.6 17 4 14.3 4 11S7.6 5 12 5 20 7.7 20 11 16.4 17 12 17M12.2 6.5C11.3 6.5 10.6 6.7 10.1 7C9.5 7.4 9.2 8 9.3 8.7H11.3C11.3 8.4 11.4 8.2 11.6 8.1C11.8 8 12 7.9 12.3 7.9C12.6 7.9 12.9 8 13.1 8.2C13.3 8.4 13.4 8.6 13.4 8.9C13.4 9.2 13.3 9.4 13.2 9.6C13 9.8 12.8 10 12.6 10.1C12.1 10.4 11.7 10.7 11.5 10.9C11.1 11.2 11 11.5 11 12H13C13 11.7 13.1 11.5 13.1 11.3C13.2 11.1 13.4 11 13.6 10.8C14.1 10.6 14.4 10.3 14.7 9.9C15 9.5 15.1 9.1 15.1 8.7C15.1 8 14.8 7.4 14.3 7C13.9 6.7 13.1 6.5 12.2 6.5M11 13V15H13V13H11Z" /></svg>