<?xml version="1.0" encoding="UTF-8"?><!DOCTYPE svg PUBLIC "-//W3C//DTD SVG 1.1//EN" "http://www.w3.org/Graphics/SVG/1.1/DTD/svg11.dtd"><svg xmlns="http://www.w3.org/2000/svg" xmlns:xlink="http://www.w3.org/1999/xlink" version="1.1" id="mdi-chili-off" width="24" height="24" viewBox="0 0 24 24"><path d="M20.8 22.7L16 17.9V21.8C16 21.8 8 20 8 11V10 9.9L1.1 3L2.4 1.7L22.1 21.4L20.8 22.7M13.8 9L12 8L11.5 8.3L16 12.8V10C16 9.2 15.6 8.6 15 8.2L13.8 9M12 6.5L13.8 7.5L15.3 6.6C14.9 5.6 14.1 4.9 13.1 4.6C12.8 3.2 11.5 2 10 2V4C10.4 4 10.8 4.3 10.9 4.7C10.2 4.9 9.6 5.4 9.2 6L10.6 7.4L12 6.5Z" /></svg>