<?xml version="1.0" encoding="UTF-8"?><!DOCTYPE svg PUBLIC "-//W3C//DTD SVG 1.1//EN" "http://www.w3.org/Graphics/SVG/1.1/DTD/svg11.dtd"><svg xmlns="http://www.w3.org/2000/svg" xmlns:xlink="http://www.w3.org/1999/xlink" version="1.1" id="mdi-church" width="24" height="24" viewBox="0 0 24 24"><path d="M18 12.22V9L13 6.5V5H15V3H13V1H11V3H9V5H11V6.5L6 9V12.22L2 14V22H10V19C10 17.9 10.9 17 12 17S14 17.9 14 19V22H22V14L18 12.22M12 13.5C11.17 13.5 10.5 12.83 10.5 12S11.17 10.5 12 10.5 13.5 11.17 13.5 12 12.83 13.5 12 13.5Z" /></svg>