<svg xmlns="http://www.w3.org/2000/svg" id="mdi-circle-opacity" viewBox="0 0 24 24"><path d="M18 10V8H20V10H18M18 12V10H16V12H18M18 8V6H16V8H18M16 2.84V4H18C17.37 3.54 16.71 3.15 16 2.84M18 4V6H20C19.42 5.25 18.75 4.58 18 4M20 6V8H21.16C20.85 7.29 20.46 6.63 20 6M22 12C22 11.32 21.93 10.65 21.8 10H20V12H22M16 6V4H14V6H16M16 16H18V14H16V16M18 18H20L20 18V16H18V18M16 20H18L18 20V18H16V20M14 21.8C14.7 21.66 15.36 21.44 16 21.16V20H14V21.8M18 14H20V12H18V14M16 8H14V10H16V8M20 16H21.16C21.44 15.36 21.66 14.7 21.8 14H20V16M16 12H14V14H16V12M12 18V16H14V14H12V12H14V10H12V8H14V6H12V4H14V2.2C13.35 2.07 12.69 2 12 2C6.5 2 2 6.5 2 12S6.5 22 12 22V20H14V18H12M14 18H16V16H14V18Z" /></svg>