<?xml version="1.0" encoding="UTF-8"?><!DOCTYPE svg PUBLIC "-//W3C//DTD SVG 1.1//EN" "http://www.w3.org/Graphics/SVG/1.1/DTD/svg11.dtd"><svg xmlns="http://www.w3.org/2000/svg" xmlns:xlink="http://www.w3.org/1999/xlink" version="1.1" id="mdi-clipboard-off" width="24" height="24" viewBox="0 0 24 24"><path d="M21 5C21 3.9 20.11 3 19 3H14.82C14.4 1.84 13.3 1 12 1S9.6 1.84 9.18 3H6.2L21 17.8V5M12 5C11.45 5 11 4.55 11 4S11.45 3 12 3 13 3.45 13 4 12.55 5 12 5M22.11 21.46L20.84 22.73L19.1 21C19.07 21 19.03 21 19 21H5C3.9 21 3 20.11 3 19V5C3 4.97 3 4.93 3 4.9L1.11 3L2.39 1.73L22.11 21.46Z" /></svg>