<svg xmlns="http://www.w3.org/2000/svg" id="mdi-clock-remove" viewBox="0 0 24 24"><path d="M13.72 21.84C13.16 21.94 12.59 22 12 22C6.5 22 2 17.5 2 12S6.5 2 12 2 22 6.5 22 12C22 12.59 21.94 13.16 21.84 13.72C21 13.26 20.03 13 19 13C17.74 13 16.57 13.39 15.6 14.06L12.5 12.2V7H11V13L14.43 15.11C13.54 16.16 13 17.5 13 19C13 20.03 13.26 21 13.72 21.84M21.12 15.46L19 17.59L16.88 15.47L15.47 16.88L17.59 19L15.47 21.12L16.88 22.54L19 20.41L21.12 22.54L22.54 21.12L20.41 19L22.54 16.88L21.12 15.46Z" /></svg>