<?xml version="1.0" encoding="UTF-8"?><!DOCTYPE svg PUBLIC "-//W3C//DTD SVG 1.1//EN" "http://www.w3.org/Graphics/SVG/1.1/DTD/svg11.dtd"><svg xmlns="http://www.w3.org/2000/svg" xmlns:xlink="http://www.w3.org/1999/xlink" version="1.1" id="mdi-clock-edit-outline" width="24" height="24" viewBox="0 0 24 24"><path d="M19.1 14.9L21.1 16.9L15.1 23H13V21C13 20.9 19.1 14.9 19.1 14.9M12 2C17.3 2 21.6 6.1 22 11.4C21.4 11.1 20.6 11.2 20 11.4C19.7 7 15.8 3.7 11.4 4C7.2 4.3 4 7.8 4 12C4 16 7 19.4 11 19.9V21.9C5.9 21.4 2 17.1 2 11.9C2 6.5 6.5 2 12 2M21.4 13.4L22.7 14.7C22.9 14.9 22.9 15.3 22.7 15.5L21.7 16.5L19.7 14.5L20.7 13.5C20.9 13.1 21.2 13.1 21.4 13.4M12.5 7V12.2L16.5 14.6L15.4 15.6L11 13V7H12.5Z" /></svg>