<svg xmlns="http://www.w3.org/2000/svg" id="mdi-clock-star-four-points-outline" viewBox="0 0 24 24"><path d="M12 20C12.4 20 12.7 20 13.1 19.9C13.2 20.6 13.4 21.3 13.7 21.8C13.2 21.9 12.6 22 12 22C6.5 22 2 17.5 2 12C2 6.5 6.5 2 12 2C17.5 2 22 6.5 22 12C22 12.5 21.92 12.97 21.84 13.5L21.8 13.7C21.2 13.4 20.6 13.2 19.9 13.1C20 12.7 20 12.4 20 12C20 7.6 16.4 4 12 4C7.6 4 4 7.6 4 12C4 16.4 7.6 20 12 20M12.5 12.3L15.6 14.1C15.2 14.4 14.8 14.7 14.5 15.1L11 13V7H12.5V12.3M17.74 17.75L19 15L20.25 17.75L23 19L20.25 20.26L19 23L17.74 20.26L15 19L17.74 17.75Z" /></svg>