<?xml version="1.0" encoding="UTF-8"?><!DOCTYPE svg PUBLIC "-//W3C//DTD SVG 1.1//EN" "http://www.w3.org/Graphics/SVG/1.1/DTD/svg11.dtd"><svg xmlns="http://www.w3.org/2000/svg" xmlns:xlink="http://www.w3.org/1999/xlink" version="1.1" id="mdi-clock-edit" width="24" height="24" viewBox="0 0 24 24"><path d="M19.1 14.9L21.1 16.9L15.1 23H13V21C13 20.9 19.1 14.9 19.1 14.9M12 2C17.3 2 21.6 6.1 22 11.4C21.1 11 20 11.2 19.3 12L16.6 14.7L12.6 12.3V7H11V13L15.4 15.7L11 20.1V22C5.5 21.4 1.5 16.5 2 11C2.6 5.9 6.9 2 12 2M21.4 13.4L22.7 14.7C22.9 14.9 22.9 15.3 22.7 15.5L21.7 16.5L19.7 14.5L20.7 13.5C20.9 13.1 21.2 13.1 21.4 13.4Z" /></svg>