<svg xmlns="http://www.w3.org/2000/svg" id="mdi-cloud-question" viewBox="0 0 24 24"><path d="M21.86 12.5C21.1 11.63 20.15 11.13 19 11C19 9.05 18.32 7.4 16.96 6.04C15.6 4.68 13.95 4 12 4C10.42 4 9 4.47 7.75 5.43S5.67 7.62 5.25 9.15C4 9.43 2.96 10.08 2.17 11.1S1 13.28 1 14.58C1 16.09 1.54 17.38 2.61 18.43C3.69 19.5 5 20 6.5 20H18.5C19.75 20 20.81 19.56 21.69 18.69C22.56 17.81 23 16.75 23 15.5C23 14.35 22.62 13.35 21.86 12.5M13 17H11V15H13V17M14.8 11.82C14.5 12.21 14.13 12.5 13.67 12.75C13.41 12.91 13.24 13.07 13.15 13.26C13.06 13.45 13 13.69 13 14H11C11 13.45 11.11 13.08 11.3 12.82C11.5 12.56 11.85 12.25 12.37 11.91C12.63 11.75 12.84 11.56 13 11.32C13.15 11.09 13.23 10.81 13.23 10.5C13.23 10.18 13.14 9.94 12.96 9.76C12.78 9.56 12.5 9.47 12.2 9.47C11.93 9.47 11.71 9.55 11.5 9.7C11.35 9.85 11.25 10.08 11.25 10.39H9.28C9.23 9.64 9.5 9 10.06 8.59C10.6 8.2 11.31 8 12.2 8C13.14 8 13.89 8.23 14.43 8.68S15.24 9.75 15.24 10.5C15.24 11 15.09 11.41 14.8 11.82Z" /></svg>