<svg xmlns="http://www.w3.org/2000/svg" id="mdi-cloud-remove" viewBox="0 0 24 24"><path d="M13 19C13 19.34 13.04 19.67 13.09 20H6.5C5 20 3.69 19.5 2.61 18.43C1.54 17.38 1 16.09 1 14.58C1 13.28 1.39 12.12 2.17 11.1S4 9.43 5.25 9.15C5.67 7.62 6.5 6.38 7.75 5.43S10.42 4 12 4C13.95 4 15.6 4.68 16.96 6.04C18.32 7.4 19 9.05 19 11C20.15 11.13 21.1 11.63 21.86 12.5C22.37 13.07 22.7 13.71 22.86 14.42C21.82 13.54 20.5 13 19 13C15.69 13 13 15.69 13 19M21.12 15.46L19 17.59L16.88 15.47L15.47 16.88L17.59 19L15.47 21.12L16.88 22.54L19 20.41L21.12 22.54L22.54 21.12L20.41 19L22.54 16.88L21.12 15.46Z" /></svg>