<svg xmlns="http://www.w3.org/2000/svg" id="mdi-cloud-percent-outline" viewBox="0 0 24 24"><path d="M21.86 12.5C21.1 11.63 20.15 11.13 19 11C19 9.05 18.32 7.4 16.96 6.04C15.6 4.68 13.95 4 12 4C10.42 4 9 4.47 7.75 5.43S5.67 7.62 5.25 9.15C4 9.43 2.96 10.08 2.17 11.1S1 13.28 1 14.58C1 16.09 1.54 17.38 2.61 18.43C3.69 19.5 5 20 6.5 20H18.5C19.75 20 20.81 19.56 21.69 18.69C22.56 17.81 23 16.75 23 15.5C23 14.35 22.62 13.35 21.86 12.5M20.27 17.27C19.79 17.76 19.2 18 18.5 18H6.5C5.53 18 4.71 17.66 4.03 17C3.34 16.29 3 15.47 3 14.5S3.34 12.71 4.03 12.03C4.71 11.34 5.53 11 6.5 11H7C7 9.62 7.5 8.44 8.46 7.46C9.44 6.5 10.62 6 12 6S14.56 6.5 15.54 7.46C16.5 8.44 17 9.62 17 11V13H18.5C19.2 13 19.79 13.24 20.27 13.73S21 14.8 21 15.5 20.76 16.79 20.27 17.27M8.03 10.45C8.03 9.67 8.67 9.03 9.45 9.03C10.23 9.03 10.87 9.67 10.87 10.45C10.87 11.23 10.23 11.87 9.45 11.87C8.67 11.87 8.03 11.23 8.03 10.45M15.97 15.55C15.97 16.33 15.33 16.97 14.55 16.97C13.77 16.97 13.13 16.33 13.13 15.55C13.13 14.77 13.77 14.13 14.55 14.13C15.33 14.13 15.97 14.77 15.97 15.55M14.8 9L16 10.2L9.2 17L8 15.8L14.8 9Z" /></svg>