<svg xmlns="http://www.w3.org/2000/svg" id="mdi-cloud-off-outline" viewBox="0 0 24 24"><path d="M19.8 22.6L17.15 20H6.5Q4.2 20 2.6 18.4T1 14.5Q1 12.58 2.19 11.08 3.38 9.57 5.25 9.15 5.33 8.95 5.4 8.76 5.5 8.57 5.55 8.35L1.4 4.2L2.8 2.8L21.2 21.2M6.5 18H15.15L7.1 9.95Q7.05 10.23 7.03 10.5 7 10.73 7 11H6.5Q5.05 11 4.03 12.03 3 13.05 3 14.5 3 15.95 4.03 17 5.05 18 6.5 18M11.13 14M21.6 18.75L20.15 17.35Q20.58 17 20.79 16.54 21 16.08 21 15.5 21 14.45 20.27 13.73 19.55 13 18.5 13H17V11Q17 8.93 15.54 7.46 14.08 6 12 6 11.33 6 10.7 6.16 10.07 6.33 9.5 6.68L8.05 5.23Q8.93 4.63 9.91 4.31 10.9 4 12 4 14.93 4 16.96 6.04 19 8.07 19 11 20.73 11.2 21.86 12.5 23 13.78 23 15.5 23 16.5 22.63 17.31 22.25 18.15 21.6 18.75M14.83 12.03Z" /></svg>