<svg xmlns="http://www.w3.org/2000/svg" id="mdi-cloud-circle" viewBox="0 0 24 24"><path d="M8.5 16H16Q17.25 16 18.13 15.13T19 13Q19 11.75 18.13 10.88T16 10Q15.8 8.55 14.68 7.53 13.55 6.5 12.15 6.5 10.88 6.5 9.84 7.15 8.8 7.8 8.3 9 6.88 9.13 5.94 10.09 5 11.05 5 12.5 5 13.95 6.03 15 7.05 16 8.5 16M12 22Q9.93 22 8.1 21.21 6.28 20.43 4.93 19.08 3.58 17.73 2.79 15.9 2 14.08 2 12T2.79 8.1Q3.58 6.28 4.93 4.93 6.28 3.58 8.1 2.79 9.93 2 12 2T15.9 2.79Q17.73 3.58 19.08 4.93 20.43 6.28 21.21 8.1 22 9.93 22 12T21.21 15.9Q20.43 17.73 19.08 19.08 17.73 20.43 15.9 21.21 14.08 22 12 22Z" /></svg>