<svg xmlns="http://www.w3.org/2000/svg" id="mdi-cloud-percent" viewBox="0 0 24 24"><path d="M19.35 10.03C18.67 6.59 15.64 4 12 4C9.11 4 6.6 5.64 5.35 8.03C2.34 8.36 0 10.9 0 14C0 17.31 2.69 20 6 20H19C21.76 20 24 17.76 24 15C24 12.36 21.95 10.22 19.35 10.03M9.45 9.03C10.23 9.03 10.87 9.67 10.87 10.45S10.23 11.87 9.45 11.87 8.03 11.23 8.03 10.45 8.67 9.03 9.45 9.03M14.55 16.97C13.77 16.97 13.13 16.33 13.13 15.55S13.77 14.13 14.55 14.13 15.97 14.77 15.97 15.55 15.33 16.97 14.55 16.97M9.2 17L8 15.8L14.8 9L16 10.2L9.2 17Z" /></svg>