<?xml version="1.0" encoding="UTF-8"?><!DOCTYPE svg PUBLIC "-//W3C//DTD SVG 1.1//EN" "http://www.w3.org/Graphics/SVG/1.1/DTD/svg11.dtd"><svg xmlns="http://www.w3.org/2000/svg" xmlns:xlink="http://www.w3.org/1999/xlink" version="1.1" id="mdi-coffee-maker" width="24" height="24" viewBox="0 0 24 24"><path d="M18,6V4h2V2H6C4.9,2,4,2.9,4,4v16c0,1.1,0.9,2,2,2h14v-2h-4.03C17.2,19.09,18,17.64,18,16v-5H8v5tc0,1.64,0.81,3.09,2.03,4H6V4h2v2c0,0.55,0.45,1,1,1h8C17.55,7,18,6.55,18,6z M10,16v-3h6v3c0,1.65-1.35,3-3,3S10,17.65,10,16zt M13,8c0.552,0,1,0.448,1,1s-0.448,1-1,1s-1-0.448-1-1S12.448,8,13,8z" /></svg>