<?xml version="1.0" encoding="UTF-8"?><!DOCTYPE svg PUBLIC "-//W3C//DTD SVG 1.1//EN" "http://www.w3.org/Graphics/SVG/1.1/DTD/svg11.dtd"><svg xmlns="http://www.w3.org/2000/svg" xmlns:xlink="http://www.w3.org/1999/xlink" version="1.1" id="mdi-cog-sync" width="24" height="24" viewBox="0 0 24 24"><path d="M11.5 18.5C11.5 17.4 11.8 16.4 12.2 15.5H12C10.1 15.5 8.5 13.9 8.5 12S10.1 8.5 12 8.5 15.5 10.1 15.5 12C15.5 12.2 15.5 12.4 15.4 12.5C16.2 12.2 17 12 18 12C18.5 12 19 12.1 19.5 12.2V12C19.5 11.7 19.5 11.3 19.4 11L21.5 9.4C21.7 9.2 21.7 9 21.6 8.8L19.6 5.3C19.5 5 19.3 5 19 5L16.5 6C16 5.6 15.4 5.3 14.8 5L14.4 2.3C14.5 2.2 14.2 2 14 2H10C9.8 2 9.5 2.2 9.5 2.4L9.1 5.1C8.5 5.3 8 5.7 7.4 6L5 5C4.7 5 4.5 5 4.3 5.3L2.3 8.8C2.2 9 2.3 9.2 2.5 9.4L4.6 11C4.6 11.3 4.5 11.7 4.5 12S4.5 12.7 4.6 13L2.5 14.7C2.3 14.9 2.3 15.1 2.4 15.3L4.4 18.8C4.5 19 4.7 19 5 19L7.5 18C8 18.4 8.6 18.7 9.2 19L9.6 21.7C9.6 21.9 9.8 22.1 10.1 22.1H12.6C11.9 21 11.5 19.8 11.5 18.5M18 14.5V13L15.8 15.2L18 17.4V16C19.4 16 20.5 17.1 20.5 18.5C20.5 18.9 20.4 19.3 20.2 19.6L21.3 20.7C22.5 18.9 22 16.4 20.2 15.2C19.6 14.7 18.8 14.5 18 14.5M18 21C16.6 21 15.5 19.9 15.5 18.5C15.5 18.1 15.6 17.7 15.8 17.4L14.7 16.3C13.5 18.1 14 20.6 15.8 21.8C16.5 22.2 17.2 22.5 18 22.5V24L20.2 21.8L18 19.5V21Z" /></svg>