<?xml version="1.0" encoding="UTF-8"?><!DOCTYPE svg PUBLIC "-//W3C//DTD SVG 1.1//EN" "http://www.w3.org/Graphics/SVG/1.1/DTD/svg11.dtd"><svg xmlns="http://www.w3.org/2000/svg" xmlns:xlink="http://www.w3.org/1999/xlink" version="1.1" id="mdi-comment-off-outline" width="24" height="24" viewBox="0 0 24 24"><path d="M7.2 4L5.2 2H20C21.11 2 22 2.9 22 4V16C22 16.76 21.57 17.41 20.95 17.75L19.2 16H20V4H7.2M22.11 21.46L20.84 22.73L16.11 18H13.9L10.2 21.71C10 21.9 9.75 22 9.5 22H9C8.45 22 8 21.55 8 21V18H4C2.9 18 2 17.11 2 16V4C2 3.97 2 3.93 2 3.9L1.11 3L2.39 1.73L22.11 21.46M14.11 16L4 5.89V16H10V19.08L13.08 16H14.11Z" /></svg>