<?xml version="1.0" encoding="UTF-8"?><!DOCTYPE svg PUBLIC "-//W3C//DTD SVG 1.1//EN" "http://www.w3.org/Graphics/SVG/1.1/DTD/svg11.dtd"><svg xmlns="http://www.w3.org/2000/svg" xmlns:xlink="http://www.w3.org/1999/xlink" version="1.1" id="mdi-comment-edit" width="24" height="24" viewBox="0 0 24 24"><path d="M9 22C8.45 22 8 21.55 8 21V18H4C2.9 18 2 17.11 2 16L2 4C2 2.89 2.89 2 4 2H20C21.1 2 22 2.89 22 4V16C22 17.1 21.1 18 20 18L13.9 18L10.2 21.71C10 21.9 9.75 22 9.5 22L9.5 22H9M18 14V12H12.5L10.5 14H18M6 14H8.5L15.35 7.12C15.55 6.93 15.55 6.61 15.35 6.41L13.59 4.65C13.39 4.45 13.07 4.45 12.88 4.65L6 11.53V14Z" /></svg>