<svg xmlns="http://www.w3.org/2000/svg" id="mdi-compost" viewBox="0 0 24 24"><path d="M18.92 14C18.64 15.97 17.53 17.68 15.96 18.76C15.76 17.93 14.53 17.25 12.92 17.06C13.09 15.87 13.44 14.76 13.68 14.12C14.06 14.36 14.5 14.5 15 14.5C18.55 14.5 18 8.5 18 8.5S17.5 9.5 16 9.5H15C13.62 9.5 12.5 10.62 12.5 12C12.5 12.5 12.64 12.93 12.87 13.31C13.53 12.62 14.24 12 15 11.5C13.68 12.83 12.67 14.5 12 16.1C11.37 14.87 10.58 13.93 10 13.5C10.47 13.7 10.91 14 11.33 14.3C11.44 14.06 11.5 13.79 11.5 13.5C11.45 10.77 7 11 7 11C7.31 11.42 7.5 11.95 7.5 12.5V13.5C7.5 14.6 8.4 15.5 9.5 15.5C10 15.5 10.45 15.32 10.8 15C11.03 15.63 11.2 16.35 11.29 17.04C9.57 17.19 8.25 17.89 8.04 18.77C6.21 17.5 5 15.39 5 13C5 9.14 8.14 6 12 6V9L17 5L12 1V4C7.03 4 3 8.03 3 13S7.03 22 12 22C16.63 22 20.44 18.5 20.94 14H18.92Z" /></svg>