<?xml version="1.0" encoding="UTF-8"?><!DOCTYPE svg PUBLIC "-//W3C//DTD SVG 1.1//EN" "http://www.w3.org/Graphics/SVG/1.1/DTD/svg11.dtd"><svg xmlns="http://www.w3.org/2000/svg" xmlns:xlink="http://www.w3.org/1999/xlink" version="1.1" id="mdi-compost" width="24" height="24" viewBox="0 0 24 24"><path d="M12.87 11.81C12.64 11.43 12.5 11 12.5 10.5C12.5 9.12 13.62 8 15 8H16C17.5 8 18 7 18 7S18.55 13 15 13C14.5 13 14.06 12.86 13.68 12.62C13.44 13.26 13.09 14.38 12.92 15.58C14.18 15.8 15.2 16.47 15.69 17.35C17.38 16.18 18.5 14.22 18.5 12H21.5C21.5 17.24 17.24 21.5 12 21.5S2.5 17.24 2.5 12 6.76 2.5 12 2.5V0L16 4L12 8V5.5C8.42 5.5 5.5 8.42 5.5 12C5.5 14.21 6.61 16.17 8.31 17.35C8.82 16.43 9.94 15.73 11.29 15.55C11.2 14.86 11.03 14.13 10.8 13.5C10.45 13.82 10 14 9.5 14C8.4 14 7.5 13.1 7.5 12V11C7.5 10.45 7.31 9.92 7 9.5C7 9.5 11.45 9.27 11.5 12C11.5 12.29 11.44 12.56 11.33 12.8C10.91 12.5 10.47 12.2 10 12C10.58 12.43 11.37 13.37 12 14.6C12.67 13 13.68 11.33 15 10C14.24 10.5 13.53 11.12 12.87 11.81Z" /></svg>