<?xml version="1.0" encoding="UTF-8"?><!DOCTYPE svg PUBLIC "-//W3C//DTD SVG 1.1//EN" "http://www.w3.org/Graphics/SVG/1.1/DTD/svg11.dtd"><svg xmlns="http://www.w3.org/2000/svg" xmlns:xlink="http://www.w3.org/1999/xlink" version="1.1" id="mdi-connection" width="24" height="24" viewBox="0 0 24 24"><path d="M21.4 7.5C22.2 8.3 22.2 9.6 21.4 10.3L18.6 13.1L10.8 5.3L13.6 2.5C14.4 1.7 15.7 1.7 16.4 2.5L18.2 4.3L21.2 1.3L22.6 2.7L19.6 5.7L21.4 7.5M15.6 13.3L14.2 11.9L11.4 14.7L9.3 12.6L12.1 9.8L10.7 8.4L7.9 11.2L6.4 9.8L3.6 12.6C2.8 13.4 2.8 14.7 3.6 15.4L5.4 17.2L1.4 21.2L2.8 22.6L6.8 18.6L8.6 20.4C9.4 21.2 10.7 21.2 11.4 20.4L14.2 17.6L12.8 16.2L15.6 13.3Z" /></svg>