<svg xmlns="http://www.w3.org/2000/svg" id="mdi-cookie-outline" viewBox="0 0 24 24"><path d="M20.87 10.5C20.6 10 20 10 20 10H18V9C18 8 17 8 17 8H15V7C15 6 14 6 14 6H13V4C13 3 12 3 12 3C7.03 3 3 7.03 3 12C3 16.97 7.03 21 12 21C16.97 21 21 16.97 21 12C21 11.5 20.96 11 20.87 10.5M11.32 18.96C12 18.82 12.5 18.22 12.5 17.5C12.5 16.67 11.83 16 11 16S9.5 16.67 9.5 17.5C9.5 18 9.76 18.47 10.16 18.74C7.54 18.04 5.5 15.81 5.09 13.12C5 12.61 5 12.11 5 11.62C5.07 12.39 5.71 13 6.5 13C7.33 13 8 12.33 8 11.5S7.33 10 6.5 10C5.82 10 5.25 10.46 5.07 11.08C5.47 8 7.91 5.5 11 5.07V6.5C11 7.33 11.67 8 12.5 8H13V8.5C13 9.33 13.67 10 14.5 10H16V10.5C16 11.33 16.67 12 17.5 12H19C19 16.08 15.5 19.36 11.32 18.96M9.5 9C8.67 9 8 8.33 8 7.5S8.67 6 9.5 6 11 6.67 11 7.5 10.33 9 9.5 9M13 12.5C13 13.33 12.33 14 11.5 14S10 13.33 10 12.5 10.67 11 11.5 11 13 11.67 13 12.5M18 14.5C18 15.33 17.33 16 16.5 16S15 15.33 15 14.5 15.67 13 16.5 13 18 13.67 18 14.5Z" /></svg>