<svg xmlns="http://www.w3.org/2000/svg" id="mdi-cookie-off-outline" viewBox="0 0 24 24"><path d="M8.93 5.73L7.45 4.25C8.79 3.46 10.34 3 12 3C12 3 13 3 13 4V6H14C14 6 15 6 15 7V8H17C17 8 18 8 18 9V10H20C20 10 20.6 10 20.87 10.5C20.96 11 21 11.5 21 12C21 13.66 20.54 15.22 19.75 16.55L18.28 15.08C18.74 14.15 19 13.11 19 12H17.5C16.67 12 16 11.33 16 10.5V10H14.5C13.67 10 13 9.33 13 8.5V8H12.5C11.67 8 11 7.33 11 6.5V5.07C10.26 5.18 9.57 5.41 8.93 5.73M9.25 6.05L10.95 7.75C10.97 7.67 11 7.59 11 7.5C11 6.67 10.33 6 9.5 6C9.41 6 9.33 6.03 9.25 6.05M16.25 13.05L17.95 14.75C17.97 14.67 18 14.59 18 14.5C18 13.67 17.33 13 16.5 13C16.41 13 16.33 13.03 16.25 13.05M22.11 21.46L20.84 22.73L17.34 19.23C15.85 20.34 14 21 12 21C7.03 21 3 16.97 3 12C3 10 3.66 8.15 4.77 6.66L1.11 3L2.39 1.73L22.11 21.46M15.9 17.79L12 13.9C11.85 13.96 11.68 14 11.5 14C10.67 14 10 13.33 10 12.5C10 12.32 10.04 12.15 10.1 12L6.21 8.1C5.62 9 5.21 10 5.07 11.08C5.25 10.46 5.82 10 6.5 10C7.33 10 8 10.67 8 11.5S7.33 13 6.5 13C5.71 13 5.07 12.39 5 11.62C5 12.11 5 12.61 5.09 13.12C5.5 15.81 7.54 18.04 10.16 18.74C9.76 18.47 9.5 18 9.5 17.5C9.5 16.67 10.17 16 11 16S12.5 16.67 12.5 17.5C12.5 18.22 12 18.82 11.32 18.96C13.03 19.12 14.61 18.66 15.9 17.79Z" /></svg>