<svg xmlns="http://www.w3.org/2000/svg" id="mdi-cookie-edit" viewBox="0 0 24 24"><path d="M15.1 15.03C15.04 14.86 15 14.69 15 14.5C15 13.67 15.67 13 16.5 13C16.69 13 16.86 13.04 17.03 13.1L19.39 10.74C19.69 10.44 20.05 10.24 20.44 10.12C20.21 10 20 10 20 10H18V9C18 8 17 8 17 8H15V7C15 6 14 6 14 6H13V4C13 3 12 3 12 3C7.03 3 3 7.03 3 12C3 16.63 6.5 20.44 11 20.94V19.13L11.14 19C11.1 19 11.05 19 11 19C10.17 19 9.5 18.33 9.5 17.5S10.17 16 11 16 12.5 16.67 12.5 17.5C12.5 17.55 12.5 17.6 12.5 17.64L15.1 15.03M6.5 13C5.67 13 5 12.33 5 11.5S5.67 10 6.5 10 8 10.67 8 11.5 7.33 13 6.5 13M9.5 9C8.67 9 8 8.33 8 7.5S8.67 6 9.5 6 11 6.67 11 7.5 10.33 9 9.5 9M11.5 14C10.67 14 10 13.33 10 12.5S10.67 11 11.5 11 13 11.67 13 12.5 12.33 14 11.5 14M22.85 14.19L21.87 15.17L19.83 13.13L20.81 12.15C21 11.95 21.33 11.95 21.53 12.15L22.85 13.47C23.05 13.67 23.05 14 22.85 14.19M19.13 13.83L21.17 15.87L15.04 22H13V19.96L19.13 13.83Z" /></svg>