<svg xmlns="http://www.w3.org/2000/svg" id="mdi-cookie-refresh-outline" viewBox="0 0 24 24"><path d="M13 12.5C13 13.33 12.33 14 11.5 14S10 13.33 10 12.5 10.67 11 11.5 11 13 11.67 13 12.5M11 7.5C11 6.67 10.33 6 9.5 6S8 6.67 8 7.5 8.67 9 9.5 9 11 8.33 11 7.5M15 10H16V10.5C16 11.33 16.67 12 17.5 12H19L19 12.03C19.69 12.09 20.36 12.24 21 12.5C21 12.33 21 12.17 21 12C21 11.5 20.96 11 20.87 10.5C20.6 10 20 10 20 10H18V9C18 8 17 8 17 8H15V7C15 6 14 6 14 6H13V4C13 3 12 3 12 3C7.03 3 3 7.03 3 12S7.03 21 12 21C12.17 21 12.33 21 12.5 21C12.24 20.36 12.09 19.69 12.03 19C11.8 19 11.56 19 11.32 18.96C11.59 18.9 11.81 18.76 12 18.58C12 18.55 12 18.53 12 18.5C12 17.87 12.1 17.27 12.26 16.69C12 16.28 11.53 16 11 16C10.17 16 9.5 16.67 9.5 17.5C9.5 18 9.76 18.47 10.16 18.74C7.54 18.04 5.5 15.81 5.09 13.12C5 12.61 5 12.11 5 11.62C5.07 12.39 5.71 13 6.5 13C7.33 13 8 12.33 8 11.5S7.33 10 6.5 10C5.82 10 5.25 10.46 5.07 11.08C5.47 8 7.91 5.5 11 5.07V6.5C11 7.33 11.67 8 12.5 8H13V8.5C13 9.33 13.67 10 14.5 10H15M22 18.5V14.5L20.83 15.67C20.11 14.95 19.11 14.5 18 14.5C15.79 14.5 14 16.29 14 18.5S15.79 22.5 18 22.5C19.68 22.5 21.12 21.47 21.71 20H20C19.54 20.61 18.82 21 18 21C16.62 21 15.5 19.88 15.5 18.5S16.62 16 18 16C18.69 16 19.32 16.28 19.77 16.73L18 18.5H22Z" /></svg>