<?xml version="1.0" encoding="UTF-8"?><!DOCTYPE svg PUBLIC "-//W3C//DTD SVG 1.1//EN" "http://www.w3.org/Graphics/SVG/1.1/DTD/svg11.dtd"><svg xmlns="http://www.w3.org/2000/svg" xmlns:xlink="http://www.w3.org/1999/xlink" version="1.1" id="mdi-cradle" width="24" height="24" viewBox="0 0 24 24"><path d="M18 9H12V4H8C5.8 4 4 5.8 4 8V14C4 15.1 4.9 16 6 16H8V18.9C7.4 18.5 6.8 18.1 6.3 17.6L4.9 19C6.7 20.9 9.2 22 12 22S17.3 20.9 19.1 19.1L17.7 17.7C17.2 18.2 16.7 18.6 16.1 19V16H18.1C19.2 16 20.1 15.1 20.1 14V11C20 9.9 19.1 9 18 9M14 19.8C13.4 20 12.7 20 12 20S10.6 19.9 10 19.8V16H14V19.8Z" /></svg>