<?xml version="1.0" encoding="UTF-8"?><!DOCTYPE svg PUBLIC "-//W3C//DTD SVG 1.1//EN" "http://www.w3.org/Graphics/SVG/1.1/DTD/svg11.dtd"><svg xmlns="http://www.w3.org/2000/svg" xmlns:xlink="http://www.w3.org/1999/xlink" version="1.1" id="mdi-credit-card-refresh" width="24" height="24" viewBox="0 0 24 24"><path d="M20 4H4C2.9 4 2 4.89 2 6V18C2 19.11 2.9 20 4 20H11.68C11.57 19.5 11.5 19 11.5 18.5C11.5 14.91 14.41 12 18 12C19.5 12 20.9 12.53 22 13.4V6C22 4.89 21.11 4 20 4M20 11H4V8H20V11M20.83 15.67L22 14.5V18.5H18L19.77 16.73C19.32 16.28 18.69 16 18 16C16.62 16 15.5 17.12 15.5 18.5S16.62 21 18 21C18.82 21 19.54 20.61 20 20H21.71C21.12 21.47 19.68 22.5 18 22.5C15.79 22.5 14 20.71 14 18.5S15.79 14.5 18 14.5C19.11 14.5 20.11 14.95 20.83 15.67Z" /></svg>