<?xml version="1.0" encoding="UTF-8"?><!DOCTYPE svg PUBLIC "-//W3C//DTD SVG 1.1//EN" "http://www.w3.org/Graphics/SVG/1.1/DTD/svg11.dtd"><svg xmlns="http://www.w3.org/2000/svg" xmlns:xlink="http://www.w3.org/1999/xlink" version="1.1" id="mdi-crown-circle-outline" width="24" height="24" viewBox="0 0 24 24"><path d="M12 2C6.47 2 2 6.5 2 12C2 17.5 6.5 22 12 22S22 17.5 22 12 17.5 2 12 2M12 20C7.58 20 4 16.42 4 12C4 7.58 7.58 4 12 4S20 7.58 20 12C20 16.42 16.42 20 12 20M8 14L7 8L10 10L12 7L14 10L17 8L16 14H8M8.56 16C8.22 16 8 15.78 8 15.44V15H16V15.44C16 15.78 15.78 16 15.44 16H8.56Z" /></svg>