<?xml version="1.0" encoding="UTF-8"?><!DOCTYPE svg PUBLIC "-//W3C//DTD SVG 1.1//EN" "http://www.w3.org/Graphics/SVG/1.1/DTD/svg11.dtd"><svg xmlns="http://www.w3.org/2000/svg" xmlns:xlink="http://www.w3.org/1999/xlink" version="1.1" id="mdi-currency-rupee" width="24" height="24" viewBox="0 0 24 24"><path d="M3 3H6.5C9.54 3 12 5.46 12 8.5C12 10.69 10.71 12.59 8.86 13.47L12.64 21H10.4L6.88 14H5V21H3V3M6.5 12C8.43 12 10 10.43 10 8.5S8.43 5 6.5 5H5V12H6.5M20.78 17.37C20.64 17.09 20.43 16.84 20.15 16.63C19.87 16.42 19.54 16.24 19.14 16.1C18.74 15.96 18.29 15.83 17.79 15.72C17.44 15.65 17.15 15.57 16.92 15.5C16.69 15.41 16.5 15.33 16.37 15.24C16.23 15.15 16.14 15.05 16.09 14.94C16.04 14.83 16 14.7 16 14.55C16 14.41 16.04 14.27 16.1 14.14C16.16 14 16.25 13.89 16.37 13.8C16.5 13.7 16.64 13.62 16.82 13.56C17 13.5 17.22 13.47 17.46 13.47C17.71 13.47 17.93 13.5 18.12 13.58C18.31 13.65 18.47 13.75 18.6 13.87C18.73 14 18.82 14.13 18.89 14.29C18.95 14.45 19 14.61 19 14.78H20.94C20.94 14.39 20.86 14.03 20.7 13.69C20.54 13.35 20.31 13.06 20 12.81C19.71 12.56 19.35 12.37 18.92 12.22C18.5 12.07 18 12 17.46 12C16.95 12 16.5 12.07 16.07 12.21C15.66 12.35 15.3 12.54 15 12.78C14.72 13 14.5 13.3 14.34 13.62S14.11 14.27 14.11 14.63C14.11 15 14.19 15.32 14.34 15.59C14.5 15.87 14.7 16.11 15 16.32C15.25 16.53 15.58 16.7 15.96 16.85C16.34 17 16.77 17.11 17.23 17.21C17.62 17.29 17.94 17.38 18.18 17.47S18.61 17.66 18.75 17.76C18.88 17.86 18.97 18 19 18.1C19.07 18.22 19.09 18.35 19.09 18.5C19.09 18.81 18.96 19.06 18.69 19.26C18.42 19.46 18.03 19.55 17.5 19.55C17.3 19.55 17.09 19.53 16.88 19.47C16.67 19.42 16.5 19.34 16.32 19.23C16.15 19.12 16 18.97 15.91 18.79C15.8 18.61 15.74 18.38 15.73 18.12H13.84C13.84 18.5 13.92 18.83 14.08 19.17C14.24 19.5 14.47 19.82 14.78 20.1C15.09 20.37 15.47 20.59 15.93 20.76C16.39 20.93 16.91 21 17.5 21C18.04 21 18.5 20.95 18.95 20.82C19.38 20.69 19.75 20.5 20.06 20.28C20.37 20.05 20.6 19.77 20.77 19.45C20.94 19.13 21 18.78 21 18.39S20.93 17.65 20.78 17.37" /></svg>