<svg xmlns="http://www.w3.org/2000/svg" id="mdi-cylinder-off" viewBox="0 0 24 24"><path d="M7.64 4.44L6.03 2.83C8.15 2.1 10.82 2 12 2C14.11 2 21 2.29 21 6V17.8L18.06 14.86C18.39 14.97 18.7 15.1 19 15.25V8.75C17.28 9.63 14.82 9.89 13.17 9.97L11.18 8C11.45 8 11.72 8 12 8C15.87 8 19 7.11 19 6S15.87 4 12 4C10.35 4 8.84 4.17 7.64 4.44M22.11 21.46L20.84 22.73L18.91 20.8C16.7 21.87 13.36 22 12 22C9.89 22 3 21.71 3 18V6C3 5.66 3.08 5.36 3.18 5.07L1.11 3L2.39 1.73L22.11 21.46M5 15.25C7.2 14.13 10.62 14 12 14L12.11 14L7.73 9.62C6.76 9.43 5.8 9.15 5 8.75V15.25M17.39 19.28L14.21 16.1C13.5 16.04 12.78 16 12 16C8.13 16 5 16.9 5 18S8.13 20 12 20C14.17 20 16.1 19.72 17.39 19.28Z" /></svg>