<?xml version="1.0" encoding="UTF-8"?><!DOCTYPE svg PUBLIC "-//W3C//DTD SVG 1.1//EN" "http://www.w3.org/Graphics/SVG/1.1/DTD/svg11.dtd"><svg xmlns="http://www.w3.org/2000/svg" xmlns:xlink="http://www.w3.org/1999/xlink" version="1.1" id="mdi-database-export-outline" width="24" height="24" viewBox="0 0 24 24"><path d="M17.86 18L18.9 19C17.5 20.2 14.94 21 12 21C7.59 21 4 19.21 4 17V7C4 4.79 7.58 3 12 3C14.95 3 17.5 3.8 18.9 5L17.86 6L17.5 6.4C16.65 5.77 14.78 5 12 5C8.13 5 6 6.5 6 7S8.13 9 12 9C13.37 9 14.5 8.81 15.42 8.54L16.38 9.5H13.5V10.92C13 10.97 12.5 11 12 11C9.61 11 7.47 10.47 6 9.64V12.45C7.3 13.4 9.58 14 12 14C12.5 14 13 13.97 13.5 13.92V14.5H16.38L15.38 15.5L15.5 15.61C14.41 15.86 13.24 16 12 16C9.72 16 7.61 15.55 6 14.77V17C6 17.5 8.13 19 12 19C14.78 19 16.65 18.23 17.5 17.61L17.86 18M18.92 7.08L17.5 8.5L20 11H15V13H20L17.5 15.5L18.92 16.92L23.84 12L18.92 7.08Z" /></svg>