<svg xmlns="http://www.w3.org/2000/svg" id="mdi-database-off" viewBox="0 0 24 24"><path d="M19.07 15.87C19.66 15.31 20 14.68 20 14V16.8L19.07 15.87M20 9C20 10.54 18.27 11.86 15.73 12.53L17.89 14.69C19.19 14 20 13.04 20 12V9M20 7C20 4.79 16.42 3 12 3C10.13 3 8.42 3.33 7.06 3.86L14.06 10.86C17.5 10.41 20 8.85 20 7M2.39 1.73L1.11 3L4.21 6.1C4.08 6.39 4 6.69 4 7C4 8.63 5.96 10.04 8.77 10.66L11.08 12.97C7.1 12.74 4 11.06 4 9V12C4 14.21 7.58 16 12 16C12.69 16 13.35 15.95 14 15.87L15.66 17.55C14.57 17.84 13.32 18 12 18C7.58 18 4 16.21 4 14V17C4 19.21 7.58 21 12 21C14.31 21 16.38 20.5 17.84 19.73L20.84 22.73L22.11 21.46L2.39 1.73Z" /></svg>