<?xml version="1.0" encoding="UTF-8"?><!DOCTYPE svg PUBLIC "-//W3C//DTD SVG 1.1//EN" "http://www.w3.org/Graphics/SVG/1.1/DTD/svg11.dtd"><svg xmlns="http://www.w3.org/2000/svg" xmlns:xlink="http://www.w3.org/1999/xlink" version="1.1" id="mdi-database-edit-outline" width="24" height="24" viewBox="0 0 24 24"><path d="M12 16C12.8 16 13.57 15.93 14.31 15.82L17.22 12.91C15.89 13.59 14 14 12 14C9.58 14 7.3 13.4 6 12.45V9.64C7.47 10.47 9.61 11 12 11S16.53 10.47 18 9.64V12.13L19.39 10.74C19.57 10.56 19.78 10.42 20 10.3V7C20 4.79 16.42 3 12 3S4 4.79 4 7V17C4 19.04 7.06 20.72 11 20.97V19.13L11.17 18.96C7.84 18.76 6 17.46 6 17V14.77C7.61 15.55 9.72 16 12 16M12 5C15.87 5 18 6.5 18 7S15.87 9 12 9 6 7.5 6 7 8.13 5 12 5M19.13 13.83L21.17 15.87L15.04 22H13V19.96L19.13 13.83M22.85 14.19L21.87 15.17L19.83 13.13L20.81 12.15C21 11.95 21.33 11.95 21.53 12.15L22.85 13.47C23.05 13.67 23.05 14 22.85 14.19Z" /></svg>