<?xml version="1.0" encoding="UTF-8"?><!DOCTYPE svg PUBLIC "-//W3C//DTD SVG 1.1//EN" "http://www.w3.org/Graphics/SVG/1.1/DTD/svg11.dtd"><svg xmlns="http://www.w3.org/2000/svg" xmlns:xlink="http://www.w3.org/1999/xlink" version="1.1" id="mdi-database-alert-outline" width="24" height="24" viewBox="0 0 24 24"><path d="M10 3C5.58 3 2 4.79 2 7V17C2 19.21 5.59 21 10 21S18 19.21 18 17V7C18 4.79 14.42 3 10 3M16 17C16 17.5 13.87 19 10 19S4 17.5 4 17V14.77C5.61 15.55 7.72 16 10 16S14.39 15.55 16 14.77V17M16 12.45C14.7 13.4 12.42 14 10 14S5.3 13.4 4 12.45V9.64C5.47 10.47 7.61 11 10 11S14.53 10.47 16 9.64V12.45M10 9C6.13 9 4 7.5 4 7S6.13 5 10 5 16 6.5 16 7 13.87 9 10 9M22 7V13H20V7H22M20 15H22V17H20V15Z" /></svg>