<svg xmlns="http://www.w3.org/2000/svg" id="mdi-database-off-outline" viewBox="0 0 24 24"><path d="M2.39 1.73L1.11 3L4.21 6.1C4.08 6.39 4 6.69 4 7V17C4 19.21 7.59 21 12 21C14.3 21 16.38 20.5 17.84 19.73L20.84 22.73L22.11 21.46L2.39 1.73M6 9.64C6.76 10.07 7.7 10.42 8.76 10.65L12.11 14C12.07 14 12.04 14 12 14C9.58 14 7.3 13.4 6 12.45V9.64M12 19C8.13 19 6 17.5 6 17V14.77C7.61 15.55 9.72 16 12 16C12.68 16 13.34 15.95 14 15.87L16.34 18.23C15.33 18.65 13.87 19 12 19M8.64 5.44L7.06 3.86C8.42 3.33 10.13 3 12 3C16.42 3 20 4.79 20 7V16.8L18 14.8V14.77L18 14.78L16.45 13.25C17.05 13.03 17.58 12.76 18 12.45V9.64C16.97 10.22 15.61 10.65 14.06 10.86L12.19 9C15.94 8.94 18 7.5 18 7C18 6.5 15.87 5 12 5C10.66 5 9.54 5.18 8.64 5.44Z" /></svg>