<svg xmlns="http://www.w3.org/2000/svg" id="mdi-database-eye-off-outline" viewBox="0 0 24 24"><path d="M23 19C22.9 19.2 22.8 19.4 22.7 19.5L18.3 15.1C20.5 15.6 22.2 17.1 23 19M12 5C15.9 5 18 6.5 18 7C18 7.5 15.9 8.9 12.2 9L14.1 10.9C15.6 10.7 17 10.3 18 9.7V12.5C17.7 12.7 17.4 12.9 17 13.1C18 13.1 19 13.3 20 13.7V7C20 4.8 16.4 3 12 3C10.1 3 8.4 3.3 7.1 3.9L8.7 5.5C9.5 5.2 10.7 5 12 5M22.1 21.5L20.8 22.8L20.2 22.2C19.2 22.7 18.1 23.1 17 23.1C14.3 23.1 11.9 21.4 11 19.1C11.6 17.7 12.6 16.6 13.9 15.9L12.4 14.4C11.7 14.8 11.1 15.4 10.5 16C8.8 15.9 7.2 15.5 5.9 14.8V17C5.9 17.3 7 18.2 8.9 18.6L8.8 19L9.1 19.7C9.3 20.1 9.4 20.4 9.6 20.8C6.4 20.3 4 18.8 4 17V7C4 6.7 4.1 6.4 4.2 6.1L1.1 3L2.4 1.7L22.1 21.5M12.1 14L8.7 10.6C7.6 10.4 6.7 10 5.9 9.6V12.4C7.2 13.4 9.5 13.9 11.9 13.9C12 14 12.1 14 12.1 14M18.8 20.7L17.7 19.6C17.6 19.9 17.3 20 17 20C16.4 20 16 19.6 16 19C16 18.7 16.1 18.4 16.4 18.2L15.3 17.1C14.8 17.6 14.5 18.2 14.5 18.9C14.5 20.3 15.6 21.4 17 21.4C17.7 21.5 18.4 21.2 18.8 20.7Z" /></svg>