<svg xmlns="http://www.w3.org/2000/svg" id="mdi-diaper-outline" viewBox="0 0 24 24"><path d="M21 4H3C2.45 4 2 4.45 2 5V10C2 15.5 6.5 20 12 20C17.5 20 22 15.5 22 10V5C22 4.45 21.55 4 21 4M4 6H20V8H15V10H20C20 10.34 20 10.67 19.94 11C16.12 11.03 13.03 14.12 13 17.94C12.67 18 12.34 18 12 18C11.66 18 11.33 18 11 17.94C10.97 14.12 7.88 11.03 4.06 11C4 10.67 4 10.34 4 10H9V8H4V6M15.04 17.4C15.31 15.12 17.12 13.31 19.41 13.04C18.59 15 17 16.59 15.03 17.41M4.6 13.04C6.88 13.31 8.7 15.12 8.97 17.41C7 16.59 5.41 15 4.6 13.03Z" /></svg>