<svg xmlns="http://www.w3.org/2000/svg" id="mdi-door-closed-cancel" viewBox="0 0 24 24"><path d="M6.5 11C9 11 11 9 11 6.5C11 4 9 2 6.5 2C4 2 2 4 2 6.5C2 9 4 11 6.5 11M3.92 5L8 9.09C7.58 9.35 7.06 9.5 6.5 9.5C4.84 9.5 3.5 8.16 3.5 6.5C3.5 5.94 3.65 5.42 3.92 5M9.5 6.5C9.5 7.06 9.35 7.58 9.09 8L5 3.92C5.42 3.65 5.94 3.5 6.5 3.5C8.16 3.5 9.5 4.84 9.5 6.5M10 12C10.81 11.46 11.5 10.77 12 9.97V19H19V5H12.83C12.66 4.28 12.37 3.61 12 3H19C20.11 3 21 3.89 21 5V19H22V21H2V19H10V12M16 11H18V13H16V11Z" /></svg>