<?xml version="1.0" encoding="UTF-8"?><!DOCTYPE svg PUBLIC "-//W3C//DTD SVG 1.1//EN" "http://www.w3.org/Graphics/SVG/1.1/DTD/svg11.dtd"><svg xmlns="http://www.w3.org/2000/svg" xmlns:xlink="http://www.w3.org/1999/xlink" version="1.1" id="mdi-edge" width="24" height="24" viewBox="0 0 24 24"><path d="M22 10.25C22 13.06 19.91 15.33 17.33 15.33C15.5 15.33 14.43 15 13.97 14.63C13.5 14.26 13.61 14 13.81 13.78C14.24 13.33 14.5 12.72 14.5 12.04C14.5 10.66 13.39 9.53 12 9.53C10.61 9.53 9.5 10.66 9.5 12.04C9.5 14.76 12.25 17.8 16.4 17.8C18.46 17.8 19.37 17.18 20.15 16.86C20.44 16.82 20.56 17.23 20.44 17.41C18.65 20.15 15.55 21.96 12 21.96C6.5 21.96 2 17.5 2 12C2 6.5 6.5 2.04 12 2.04C18.88 2.04 22 7.23 22 10.25Z" /></svg>