<?xml version="1.0" encoding="UTF-8"?><!DOCTYPE svg PUBLIC "-//W3C//DTD SVG 1.1//EN" "http://www.w3.org/Graphics/SVG/1.1/DTD/svg11.dtd"><svg xmlns="http://www.w3.org/2000/svg" xmlns:xlink="http://www.w3.org/1999/xlink" version="1.1" id="mdi-email-send" width="24" height="24" viewBox="0 0 24 24"><path d="M13 19C13 15.69 15.69 13 19 13C20.1 13 21.12 13.3 22 13.81V6C22 4.89 21.1 4 20 4H4C2.89 4 2 4.89 2 6V18C2 19.11 2.9 20 4 20H13.09C13.04 19.67 13 19.34 13 19M4 8V6L12 11L20 6V8L12 13L4 8M20 22V20H16V18H20V16L23 19L20 22Z" /></svg>