<?xml version="1.0" encoding="UTF-8"?><!DOCTYPE svg PUBLIC "-//W3C//DTD SVG 1.1//EN" "http://www.w3.org/Graphics/SVG/1.1/DTD/svg11.dtd"><svg xmlns="http://www.w3.org/2000/svg" xmlns:xlink="http://www.w3.org/1999/xlink" version="1.1" id="mdi-email-minus-outline" width="24" height="24" viewBox="0 0 24 24"><path d="M16 18V20H24V18H16M14 19C14 18.66 14.04 18.33 14.09 18H3V8L11 13L19 8V13.09C19.33 13.04 19.66 13 20 13S20.67 13.04 21 13.09V6C21 4.9 20.1 4 19 4H3C1.9 4 1 4.9 1 6V18C1 19.1 1.9 20 3 20H14.09C14.04 19.67 14 19.34 14 19M19 6L11 11L3 6H19Z" /></svg>