<svg xmlns="http://www.w3.org/2000/svg" id="mdi-emoticon-plus-outline" viewBox="0 0 24 24"><path d="M15 18H18V15H20V18H23V20H20V23H18V20H15V18M12 17.5C9.67 17.5 7.69 16.04 6.89 14H15.69C14.5 14.78 13.62 15.97 13.23 17.36C12.83 17.45 12.42 17.5 12 17.5M8.5 11C7.67 11 7 10.33 7 9.5C7 8.67 7.67 8 8.5 8C9.33 8 10 8.67 10 9.5C10 10.33 9.33 11 8.5 11M15.5 11C14.67 11 14 10.33 14 9.5C14 8.67 14.67 8 15.5 8C16.33 8 17 8.67 17 9.5C17 10.33 16.33 11 15.5 11M12 20L13.07 19.93C13.18 20.61 13.4 21.26 13.72 21.85C13.16 21.95 12.58 22 12 22C6.47 22 2 17.5 2 12C2 6.5 6.47 2 12 2C17.5 2 22 6.5 22 12C22 12.59 21.95 13.16 21.85 13.72C21.26 13.4 20.62 13.18 19.93 13.07L20 12C20 7.58 16.42 4 12 4C7.58 4 4 7.58 4 12C4 16.42 7.58 20 12 20Z" /></svg>