<?xml version="1.0" encoding="UTF-8"?><!DOCTYPE svg PUBLIC "-//W3C//DTD SVG 1.1//EN" "http://www.w3.org/Graphics/SVG/1.1/DTD/svg11.dtd"><svg xmlns="http://www.w3.org/2000/svg" xmlns:xlink="http://www.w3.org/1999/xlink" version="1.1" id="mdi-ev-plug-chademo" width="24" height="24" viewBox="0 0 24 24"><path d="M8 10.5C8.83 10.5 9.5 11.17 9.5 12S8.83 13.5 8 13.5 6.5 12.83 6.5 12 7.17 10.5 8 10.5M8 9C6.34 9 5 10.34 5 12S6.34 15 8 15 11 13.66 11 12 9.66 9 8 9M16 10.5C16.83 10.5 17.5 11.17 17.5 12S16.83 13.5 16 13.5C15.17 13.5 14.5 12.83 14.5 12S15.17 10.5 16 10.5M16 9C14.34 9 13 10.34 13 12S14.34 15 16 15 19 13.66 19 12 17.66 9 16 9M14.12 8.41L12.71 7L14.12 5.59L13.41 4.88L12 6.29L10.59 4.88L9.88 5.59L11.29 7L9.88 8.41L10.59 9.12L12 7.71L13.41 9.12L14.12 8.41M14.12 18.41L12.71 17L14.12 15.59L13.41 14.88L12 16.29L10.59 14.88L9.88 15.59L11.29 17L9.88 18.41L10.59 19.12L12 17.71L13.41 19.12L14.12 18.41M19.74 5.67L20.5 4.93L19.07 3.5L18.33 4.26C16.6 2.85 14.4 2 12 2S7.4 2.85 5.67 4.26L4.93 3.5L3.5 4.93L4.26 5.67C2.85 7.4 2 9.6 2 12C2 17.5 6.5 22 12 22S22 17.5 22 12C22 9.6 21.15 7.4 19.74 5.67M12 20C7.59 20 4 16.41 4 12S7.59 4 12 4 20 7.59 20 12 16.41 20 12 20Z" /></svg>