<?xml version="1.0" encoding="UTF-8"?><!DOCTYPE svg PUBLIC "-//W3C//DTD SVG 1.1//EN" "http://www.w3.org/Graphics/SVG/1.1/DTD/svg11.dtd"><svg xmlns="http://www.w3.org/2000/svg" xmlns:xlink="http://www.w3.org/1999/xlink" version="1.1" id="mdi-ev-plug-type2" width="24" height="24" viewBox="0 0 24 24"><path d="M7.5 11C7.5 11.28 7.28 11.5 7 11.5S6.5 11.28 6.5 11 6.72 10.5 7 10.5 7.5 10.72 7.5 11M9.5 14.5C9.22 14.5 9 14.72 9 15S9.22 15.5 9.5 15.5 10 15.28 10 15 9.78 14.5 9.5 14.5M9.5 8C9.78 8 10 7.78 10 7.5S9.78 7 9.5 7 9 7.22 9 7.5 9.22 8 9.5 8M14.5 8C14.78 8 15 7.78 15 7.5S14.78 7 14.5 7 14 7.22 14 7.5 14.22 8 14.5 8M12 10.5C11.72 10.5 11.5 10.72 11.5 11S11.72 11.5 12 11.5 12.5 11.28 12.5 11 12.28 10.5 12 10.5M20 11C20 15.42 16.42 19 12 19S4 15.42 4 11C4 8.61 5.06 6.47 6.72 5H17.28C18.94 6.47 20 8.61 20 11M13 7.5C13 8.33 13.67 9 14.5 9S16 8.33 16 7.5 15.33 6 14.5 6 13 6.67 13 7.5M8 7.5C8 8.33 8.67 9 9.5 9S11 8.33 11 7.5 10.33 6 9.5 6 8 6.67 8 7.5M7 13C8.11 13 9 12.11 9 11C9 9.9 8.11 9 7 9S5 9.9 5 11C5 12.11 5.9 13 7 13M11.5 15C11.5 13.9 10.61 13 9.5 13S7.5 13.9 7.5 15C7.5 16.11 8.4 17 9.5 17S11.5 16.11 11.5 15M12 13C13.11 13 14 12.11 14 11C14 9.9 13.11 9 12 9S10 9.9 10 11C10 12.11 10.9 13 12 13M16.5 15C16.5 13.9 15.61 13 14.5 13S12.5 13.9 12.5 15C12.5 16.11 13.4 17 14.5 17S16.5 16.11 16.5 15M19 11C19 9.9 18.11 9 17 9S15 9.9 15 11C15 12.11 15.9 13 17 13S19 12.11 19 11M17 10.5C16.72 10.5 16.5 10.72 16.5 11S16.72 11.5 17 11.5 17.5 11.28 17.5 11 17.28 10.5 17 10.5M14.5 14.5C14.22 14.5 14 14.72 14 15S14.22 15.5 14.5 15.5 15 15.28 15 15 14.78 14.5 14.5 14.5Z" /></svg>