<svg xmlns="http://www.w3.org/2000/svg" id="mdi-eye-lock-outline" viewBox="0 0 24 24"><path d="M20.8 17V15.5C20.8 14.1 19.4 13 18 13S15.2 14.1 15.2 15.5V17C14.6 17 14 17.6 14 18.2V21.7C14 22.4 14.6 23 15.2 23H20.7C21.4 23 22 22.4 22 21.8V18.3C22 17.6 21.4 17 20.8 17M19.5 17H16.5V15.5C16.5 14.7 17.2 14.2 18 14.2S19.5 14.7 19.5 15.5V17M15 12C14.1 12.7 13.5 13.6 13.3 14.7C12.9 14.9 12.5 15 12 15C10.3 15 9 13.7 9 12S10.3 9 12 9 15 10.3 15 12M12 19.5C7 19.5 2.7 16.4 1 12C2.7 7.6 7 4.5 12 4.5S21.3 7.6 23 12C22.8 12.5 22.5 13 22.3 13.5C21.9 12.8 21.4 12.2 20.7 11.8C19 8.5 15.7 6.5 12 6.5C8.2 6.5 4.8 8.6 3.2 12C4.9 15.4 8.3 17.5 12 17.5H12.1C12 17.7 12 18 12 18.2V19.5Z" /></svg>