<svg xmlns="http://www.w3.org/2000/svg" id="mdi-eye-arrow-right-outline" viewBox="0 0 24 24"><path d="M12 4.5C7 4.5 2.7 7.6 1 12C2.7 16.4 7 19.5 12 19.5H13.1C13 19.2 13 18.9 13 18.5C13 18.1 13 17.8 13.1 17.4C12.7 17.4 12.4 17.5 12 17.5C8.2 17.5 4.8 15.4 3.2 12C4.8 8.6 8.2 6.5 12 6.5S19.2 8.6 20.8 12C20.7 12.2 20.5 12.4 20.4 12.7C21.1 12.9 21.7 13.1 22.3 13.5C22.6 13 22.8 12.5 23 12C21.3 7.6 17 4.5 12 4.5M12 9C10.3 9 9 10.3 9 12S10.3 15 12 15 15 13.7 15 12 13.7 9 12 9M19 21V19H15V17H19V15L22 18L19 21" /></svg>