<svg xmlns="http://www.w3.org/2000/svg" id="mdi-eye-arrow-right" viewBox="0 0 24 24"><path d="M12 4.5C7 4.5 2.7 7.6 1 12C2.7 16.4 7 19.5 12 19.5H13.1C13 19.2 13 18.9 13 18.5C13 17.9 13.1 17.4 13.2 16.8C12.8 16.9 12.4 17 12 17C9.2 17 7 14.8 7 12S9.2 7 12 7 17 9.2 17 12C17 12.3 17 12.6 16.9 12.9C17.6 12.7 18.3 12.5 19 12.5C20.2 12.5 21.3 12.8 22.3 13.5C22.6 13 22.8 12.5 23 12C21.3 7.6 17 4.5 12 4.5M12 9C10.3 9 9 10.3 9 12S10.3 15 12 15 15 13.7 15 12 13.7 9 12 9M19 21V19H15V17H19V15L22 18L19 21" /></svg>