<?xml version="1.0" encoding="UTF-8"?><!DOCTYPE svg PUBLIC "-//W3C//DTD SVG 1.1//EN" "http://www.w3.org/Graphics/SVG/1.1/DTD/svg11.dtd"><svg xmlns="http://www.w3.org/2000/svg" xmlns:xlink="http://www.w3.org/1999/xlink" version="1.1" id="mdi-face-shimmer-outline" width="24" height="24" viewBox="0 0 24 24"><path d="M19.5 1L18.41 3.41L16 4.5L18.41 5.59L19.5 8L20.6 5.59L23 4.5L20.6 3.41L19.5 1M12 2C6.5 2 2 6.5 2 12C2 17.5 6.5 22 12 22C17.5 22 22 17.5 22 12C22 10.53 21.67 9.13 21.1 7.87L19.86 10.57C19.95 11.04 20 11.5 20 12C20 16.43 16.43 20 12 20C7.57 20 4 16.43 4 12C4 11.95 4 11.91 4 11.86A10 10 0 0 0 9.74 6.31C11.61 8.61 14.44 10 17.5 10C17.94 10 18.39 9.97 18.83 9.91L17.96 8C17.81 8 17.65 8 17.5 8C14.68 8 12.1 6.5 10.66 4.12C11.1 4.05 11.54 4 12 4C12.5 4 12.96 4.05 13.42 4.13L16.13 2.91C14.87 2.33 13.47 2 12 2M8.09 5A8 8 0 0 1 4.41 9.5C5.04 7.57 6.37 6 8.09 5M9 11.75A1.25 1.25 0 0 0 7.75 13A1.25 1.25 0 0 0 9 14.25A1.25 1.25 0 0 0 10.25 13A1.25 1.25 0 0 0 9 11.75M15 11.75A1.25 1.25 0 0 0 13.75 13A1.25 1.25 0 0 0 15 14.25A1.25 1.25 0 0 0 16.25 13A1.25 1.25 0 0 0 15 11.75Z" /></svg>