<svg xmlns="http://www.w3.org/2000/svg" id="mdi-face-man-shimmer" viewBox="0 0 24 24"><path d="M18.41 3.41L16 4.5L18.41 5.59L19.5 8L20.6 5.59L23 4.5L20.6 3.41L19.5 1M12 2C6.5 2 2 6.5 2 12C2 17.5 6.5 22 12 22C17.5 22 22 17.5 22 12C22 10.53 21.67 9.13 21.1 7.87L19.86 10.59C19.94 11.05 20 11.5 20 12C20 16.43 16.43 20 12 20C7.57 20 4 16.43 4 12C4 11.96 4 11.91 4 11.87A10 10 0 0 0 9.74 6.31A10 10 0 0 0 17.5 10A10 10 0 0 0 18.83 9.91L17.35 6.65L12.6 4.5L16.13 2.9C14.87 2.33 13.47 2 12 2M9 11.75A1.25 1.25 0 0 0 7.75 13A1.25 1.25 0 0 0 9 14.25A1.25 1.25 0 0 0 10.25 13A1.25 1.25 0 0 0 9 11.75M15 11.75A1.25 1.25 0 0 0 13.75 13A1.25 1.25 0 0 0 15 14.25A1.25 1.25 0 0 0 16.25 13A1.25 1.25 0 0 0 15 11.75Z" /></svg>