<svg xmlns="http://www.w3.org/2000/svg" id="mdi-fan-auto" viewBox="0 0 24 24"><path d="M12.5 2C8.93 2 8.14 5.96 10.13 9.65C9.72 9.97 9.4 10.39 9.21 10.87C8.28 10.68 7.23 10.25 6.73 9.26C5.56 6.89 2 7 2 11.5C2 15.07 5.95 15.85 9.64 13.87C9.96 14.27 10.39 14.59 10.88 14.79C10.68 15.71 10.24 16.75 9.26 17.24C6.9 18.42 7 22 11.5 22C12.31 22 13 21.78 13.5 21.41C13.19 20.67 13 19.86 13 19C13 17.59 13.5 16.3 14.3 15.28C14.17 14.97 14.03 14.65 13.86 14.34C14.26 14 14.57 13.59 14.77 13.11C15.26 13.21 15.78 13.39 16.25 13.67C17.07 13.25 18 13 19 13C20.05 13 21.03 13.27 21.89 13.74C21.95 13.37 22 12.96 22 12.5C22 8.92 18.03 8.13 14.33 10.13C14 9.73 13.59 9.42 13.11 9.22C13.3 8.29 13.74 7.24 14.73 6.75C17.09 5.57 17 2 12.5 2M12 11C12.54 11 13 11.45 13 12C13 12.55 12.54 13 12 13C11.43 13 11 12.55 11 12C11 11.45 11.43 11 12 11M18 15C16.89 15 16 15.9 16 17V23H18V21H20V23H22V17C22 15.9 21.1 15 20 15M18 17H20V19H18Z" /></svg>