<?xml version="1.0" encoding="UTF-8"?><!DOCTYPE svg PUBLIC "-//W3C//DTD SVG 1.1//EN" "http://www.w3.org/Graphics/SVG/1.1/DTD/svg11.dtd"><svg xmlns="http://www.w3.org/2000/svg" xmlns:xlink="http://www.w3.org/1999/xlink" version="1.1" id="mdi-fax" width="24" height="24" viewBox="0 0 24 24"><path d="M19,9h-1V4H8v14.5V20h14v-8C22,10.34,20.66,9,19,9z M10,6h6v3h-6V6z M14,17h-4v-5h4V17z M16,17tc-0.55,0-1-0.45-1-1c0-0.55,0.45-1,1-1c0.55,0,1,0.45,1,1C17,16.55,16.55,17,16,17z M16,14c-0.55,0-1-0.45-1-1s0.45-1,1-1tc0.55,0,1,0.45,1,1S16.55,14,16,14z M19,17c-0.55,0-1-0.45-1-1c0-0.55,0.45-1,1-1s1,0.45,1,1C20,16.55,19.55,17,19,17z M19,14tc-0.55,0-1-0.45-1-1s0.45-1,1-1s1,0.45,1,1S19.55,14,19,14z M4.5,8C3.12,8,2,9.12,2,10.5v8C2,19.88,3.12,21,4.5,21S7,19.88,7,18.5tv-8C7,9.12,5.88,8,4.5,8z" /></svg>