<?xml version="1.0" encoding="UTF-8"?><!DOCTYPE svg PUBLIC "-//W3C//DTD SVG 1.1//EN" "http://www.w3.org/Graphics/SVG/1.1/DTD/svg11.dtd"><svg xmlns="http://www.w3.org/2000/svg" xmlns:xlink="http://www.w3.org/1999/xlink" version="1.1" id="mdi-fence" width="24" height="24" viewBox="0 0 24 24"><path d="M9 8V10H7V8H5V10H3V8H1V20H3V18H5V20H7V18H9V20H11V18H13V20H15V18H17V20H19V18H21V20H23V8H21V10H19V8H17V10H15V8H13V10H11V8H9M3 12H5V16H3V12M7 12H9V16H7V12M11 12H13V16H11V12M15 12H17V16H15V12M19 12H21V16H19V12Z" /></svg>