<?xml version="1.0" encoding="UTF-8"?><!DOCTYPE svg PUBLIC "-//W3C//DTD SVG 1.1//EN" "http://www.w3.org/Graphics/SVG/1.1/DTD/svg11.dtd"><svg xmlns="http://www.w3.org/2000/svg" xmlns:xlink="http://www.w3.org/1999/xlink" version="1.1" id="mdi-fence" width="24" height="24" viewBox="0 0 24 24"><path d="M9 9V11H7V9H5V11H3V9H1V21H3V19H5V21H7V19H9V21H11V19H13V21H15V19H17V21H19V19H21V21H23V9H21V11H19V9H17V11H15V9H13V11H11V9H9M3 13H5V17H3V13M7 13H9V17H7V13M11 13H13V17H11V13M15 13H17V17H15V13M19 13H21V17H19V13Z" /></svg>