<svg xmlns="http://www.w3.org/2000/svg" id="mdi-file-document-refresh-outline" viewBox="0 0 24 24"><path d="M6 2C5.47 2 4.96 2.21 4.59 2.59C4.21 2.96 4 3.47 4 4V20C4 20.53 4.21 21.04 4.59 21.41C4.96 21.79 5.47 22 6 22H13C12.63 21.4 12.34 20.72 12.17 20H6V4H13V9H18V12H18.5C19 12 19.5 12.06 20 12.17V8L14 2H6M12 18C12.07 17.3 12.24 16.62 12.5 16H8V18H12M13.81 14C14.43 13.36 15.17 12.85 16 12.5V12H8V14H13.81M18 14.5C19.11 14.5 20.11 14.95 20.83 15.67L22 14.5V18.5H18L19.77 16.73C19.32 16.28 18.69 16 18 16C16.62 16 15.5 17.12 15.5 18.5C15.5 19.88 16.62 21 18 21C18.82 21 19.54 20.61 20 20H21.71C21.12 21.47 19.68 22.5 18 22.5C15.79 22.5 14 20.71 14 18.5C14 16.29 15.79 14.5 18 14.5Z" /></svg>