<?xml version="1.0" encoding="UTF-8"?><!DOCTYPE svg PUBLIC "-//W3C//DTD SVG 1.1//EN" "http://www.w3.org/Graphics/SVG/1.1/DTD/svg11.dtd"><svg xmlns="http://www.w3.org/2000/svg" xmlns:xlink="http://www.w3.org/1999/xlink" version="1.1" id="mdi-file-png-box" width="24" height="24" viewBox="0 0 24 24"><path d="M6.5 10.5H7.5V11.5H6.5V10.5M20 6V18C20 19.1 19.1 20 18 20H6C4.9 20 4 19.1 4 18V6C4 4.9 4.9 4 6 4H18C19.1 4 20 4.9 20 6M9 10.5C9 9.67 8.33 9 7.5 9H5V15H6.5V13H7.5C8.33 13 9 12.33 9 11.5V10.5M14 9H12.5V11.5L11.5 9H10V15H11.5V12.5L12.5 15H14V9M19 10.33C19 9.67 18.47 9 17.67 9H16.33C15.53 9 15 9.67 15 10.33V13.67C15 14.33 15.53 15 16.33 15H17.67C18.47 15 19 14.33 19 13.67V12H17.5V13.5H16.5V10.5H19V10.33Z" /></svg>