<?xml version="1.0" encoding="UTF-8"?><!DOCTYPE svg PUBLIC "-//W3C//DTD SVG 1.1//EN" "http://www.w3.org/Graphics/SVG/1.1/DTD/svg11.dtd"><svg xmlns="http://www.w3.org/2000/svg" xmlns:xlink="http://www.w3.org/1999/xlink" version="1.1" id="mdi-file-gif-box" width="24" height="24" viewBox="0 0 24 24"><path d="M18 4H6C4.9 4 4 4.9 4 6V18C4 19.1 4.9 20 6 20H18C19.1 20 20 19.1 20 18V6C20 4.9 19.1 4 18 4M10 10.5H7.5V13.5H8.5V12H10V13.67C10 14.33 9.47 15 8.67 15H7.33C6.53 15 6 14.33 6 13.67V10.33C6 9.67 6.53 9 7.33 9H8.67C9.47 9 10 9.67 10 10.33V10.5M13 15H11.5V9H13V15M17.5 10.5H16V11.5H17.5V13H16V15H14.5V9H17.5V10.5Z" /></svg>