<svg xmlns="http://www.w3.org/2000/svg" id="mdi-file-lock-open" viewBox="0 0 24 24"><path d="M22 18.3V21.8C22 22.4 21.4 23 20.7 23H15.2C14.6 23 14 22.4 14 21.7V18.2C14 17.6 14.6 17 15.2 17V14.5C15.2 13.1 16.6 12 18 12S20.8 13.1 20.8 14.5V15H19.5V14.5C19.5 13.7 18.8 13.2 18 13.2S16.5 13.7 16.5 14.5V17H20.8C21.4 17 22 17.6 22 18.3M6 2C4.9 2 4 2.9 4 4V20C4 21.1 4.9 22 6 22H12V18.2C12 17.2 12.4 16.5 13 16C13.1 15.9 13.2 15.9 13.2 15.8V14.5C13.2 11.8 15.6 10 18 10C18.7 10 19.4 10.2 20 10.4V8L14 2H6M13 3.5L18.5 9H13V3.5Z" /></svg>