<svg width="24" height="24" viewBox="0 0 24 24" fill="none" xmlns="http://www.w3.org/2000/svg">
<path fill-rule="evenodd" clip-rule="evenodd" d="M4 4C4 2.89 4.89 2 6 2H14L20 8V20C20 20.5304 19.7893 21.0391 19.4142 21.4142C19.0391 21.7893 18.5304 22 18 22H6C5.46957 22 4.96086 21.7893 4.58579 21.4142C4.21071 21.0391 4 20.5304 4 20V4ZM13 3.5V9H18.5L13 3.5ZM11 11.338L6 13.838L11 16.338L15 14.338V17.838H16V13.838L11 11.338ZM11 17.4892L14 15.9892V18.4892L11 19.9892L8 18.4892V15.9892L11 17.4892Z" fill="black"/>
</svg>
