<?xml version="1.0" encoding="UTF-8"?><!DOCTYPE svg PUBLIC "-//W3C//DTD SVG 1.1//EN" "http://www.w3.org/Graphics/SVG/1.1/DTD/svg11.dtd"><svg xmlns="http://www.w3.org/2000/svg" xmlns:xlink="http://www.w3.org/1999/xlink" version="1.1" id="mdi-file-arrow-left-right" width="24" height="24" viewBox="0 0 24 24"><path d="M19 13C19.34 13 19.67 13.04 20 13.09V8L14 2H6C4.89 2 4 2.89 4 4V20C4 21.11 4.89 22 6 22H13.81C13.3 21.12 13 20.1 13 19C13 15.69 15.69 13 19 13M13 3.5L18.5 9H13V3.5M20 19.5V18H16V16H20V14.5L23 17L20 19.5M18 20H22V22H18V23.5L15 21L18 18.5V20Z" /></svg>