<svg xmlns="http://www.w3.org/2000/svg" id="mdi-file-image-remove" viewBox="0 0 24 24"><path d="M13.09 20H6L12 14L13.88 15.88C14.5 14.9 15.36 14.1 16.4 13.6L18 12V13.09C18.33 13.04 18.66 13 19 13C19.34 13 19.67 13.04 20 13.09V8L14 2H6C4.89 2 4 2.89 4 4V20C4 21.1 4.89 22 6 22H13.81C13.46 21.39 13.21 20.72 13.09 20M13 3.5L18.5 9H13V3.5M8 9C9.11 9 10 9.9 10 11S9.11 13 8 13 6 12.11 6 11 6.9 9 8 9M22.54 16.88L20.41 19L22.54 21.12L21.12 22.54L19 20.41L16.88 22.54L15.47 21.12L17.59 19L15.47 16.88L16.88 15.47L19 17.59L21.12 15.47L22.54 16.88Z" /></svg>