<?xml version="1.0" encoding="UTF-8"?><!DOCTYPE svg PUBLIC "-//W3C//DTD SVG 1.1//EN" "http://www.w3.org/Graphics/SVG/1.1/DTD/svg11.dtd"><svg xmlns="http://www.w3.org/2000/svg" xmlns:xlink="http://www.w3.org/1999/xlink" version="1.1" id="mdi-file-document-check-outline" width="24" height="24" viewBox="0 0 24 24"><path d="M23.5 17L18.5 22L15 18.5L16.5 17L18.5 19L22 15.5L23.5 17M6 2C4.89 2 4 2.9 4 4V20C4 21.11 4.89 22 6 22H13.81C13.45 21.38 13.2 20.7 13.08 20H6V4H13V9H18V13.08C18.33 13.03 18.67 13 19 13C19.34 13 19.67 13.03 20 13.08V8L14 2M8 12V14H16V12M8 16V18H13V16Z" /></svg>