<svg width="24" height="24" viewBox="0 0 24 24" fill="none" xmlns="http://www.w3.org/2000/svg">
<path d="M14 2H6C5.46957 2 4.96086 2.21071 4.58579 2.58579C4.21071 2.96086 4 3.46957 4 4V20C4 20.5304 4.21071 21.0391 4.58579 21.4142C4.96086 21.7893 5.46957 22 6 22H18C18.5304 22 19.0391 21.7893 19.4142 21.4142C19.7893 21.0391 20 20.5304 20 20V8L14 2ZM18 20H6V4H13V9H18V20Z" fill="black"/>
<path d="M15 15.0047L12 16.5047L9 15.0047V17.5047L12 19.0047L15 17.5047V15.0047Z" fill="black"/>
<path d="M7 12.8536L12 10.3536L17 12.8536V16.8536H16V13.3536L12 15.3536L7 12.8536Z" fill="black"/>
</svg>
