<?xml version="1.0" encoding="UTF-8"?><!DOCTYPE svg PUBLIC "-//W3C//DTD SVG 1.1//EN" "http://www.w3.org/Graphics/SVG/1.1/DTD/svg11.dtd"><svg xmlns="http://www.w3.org/2000/svg" xmlns:xlink="http://www.w3.org/1999/xlink" version="1.1" id="mdi-filter-off-outline" width="24" height="24" viewBox="0 0 24 24"><path d="M2.39 1.73L1.11 3L9 10.89V15.87C8.96 16.16 9.06 16.47 9.29 16.7L13.3 20.71C13.69 21.1 14.32 21.1 14.71 20.71C14.94 20.5 15.04 20.18 15 19.88V16.89L20.84 22.73L22.11 21.46L15 14.35V14.34L13 12.35L11 10.34L4.15 3.5L2.39 1.73M6.21 3L8.2 5H16.96L13.11 9.91L15 11.8V10.75L19.79 4.62C20.13 4.19 20.05 3.56 19.62 3.22C19.43 3.08 19.22 3 19 3H6.21M11 12.89L13 14.89V17.58L11 15.58V12.89Z" /></svg>