<svg xmlns="http://www.w3.org/2000/svg" id="mdi-fire-circle" viewBox="0 0 24 24"><path d="M14.66 14.18C14.69 14.29 14.7 14.4 14.7 14.5C14.73 15.15 14.44 15.85 13.97 16.28C13.75 16.47 13.39 16.67 13.11 16.75C12.23 17.06 11.35 16.62 10.83 16.11C11.77 15.89 12.32 15.21 12.5 14.5C12.62 13.89 12.37 13.38 12.27 12.78C12.17 12.2 12.19 11.71 12.4 11.18C12.55 11.47 12.71 11.77 12.9 12C13.5 12.78 14.45 13.12 14.66 14.18M22 12C22 17.5 17.5 22 12 22S2 17.5 2 12 6.5 2 12 2 22 6.5 22 12M17.16 12.56L17.06 12.36C16.9 12 16.45 11.38 16.45 11.38C16.27 11.15 16.05 10.94 15.85 10.74C15.32 10.27 14.73 9.94 14.22 9.45C13.05 8.31 12.79 6.44 13.54 5C12.79 5.18 12.14 5.58 11.58 6.03C9.55 7.65 8.75 10.5 9.71 12.95C9.74 13.03 9.77 13.11 9.77 13.21C9.77 13.38 9.65 13.53 9.5 13.6C9.31 13.67 9.13 13.63 9 13.5C8.93 13.46 8.9 13.42 8.87 13.37C8 12.26 7.84 10.66 8.43 9.39C7.12 10.45 6.41 12.24 6.5 13.92C6.56 14.31 6.6 14.7 6.74 15.09C6.85 15.56 7.06 16 7.3 16.44C8.14 17.78 9.61 18.75 11.19 18.94C12.87 19.15 14.67 18.85 15.96 17.7C17.4 16.4 17.9 14.33 17.16 12.56Z" /></svg>