<?xml version="1.0" encoding="UTF-8"?><!DOCTYPE svg PUBLIC "-//W3C//DTD SVG 1.1//EN" "http://www.w3.org/Graphics/SVG/1.1/DTD/svg11.dtd"><svg xmlns="http://www.w3.org/2000/svg" xmlns:xlink="http://www.w3.org/1999/xlink" version="1.1" id="mdi-fire-alert" width="24" height="24" viewBox="0 0 24 24"><path d="M15.66 11.2C15.43 10.9 15.15 10.64 14.89 10.38C14.22 9.78 13.46 9.35 12.82 8.72C11.33 7.26 11 4.85 11.95 3C11 3.23 10.17 3.75 9.46 4.32C6.87 6.4 5.85 10.07 7.07 13.22C7.11 13.32 7.15 13.42 7.15 13.55C7.15 13.77 7 13.97 6.8 14.05C6.57 14.15 6.33 14.09 6.14 13.93C6.08 13.88 6.04 13.83 6 13.76C4.87 12.33 4.69 10.28 5.45 8.64C3.78 10 2.87 12.3 3 14.47C3.06 14.97 3.12 15.47 3.29 15.97C3.43 16.57 3.7 17.17 4 17.7C5.08 19.43 6.95 20.67 8.96 20.92C11.1 21.19 13.39 20.8 15.03 19.32C16.86 17.66 17.5 15 16.56 12.72L16.43 12.46C16.22 12 15.66 11.2 15.66 11.2M12.5 17.5C12.22 17.74 11.76 18 11.4 18.1C10.28 18.5 9.16 17.94 8.5 17.28C9.69 17 10.4 16.12 10.61 15.23C10.78 14.43 10.46 13.77 10.33 13C10.21 12.26 10.23 11.63 10.5 10.94C10.69 11.32 10.89 11.7 11.13 12C11.9 13 13.11 13.44 13.37 14.8C13.41 14.94 13.43 15.08 13.43 15.23C13.46 16.05 13.1 16.95 12.5 17.5H12.5M21 13H19V7H21V13M21 17H19V15H21V17Z" /></svg>