<svg xmlns="http://www.w3.org/2000/svg" id="mdi-fire-off" viewBox="0 0 24 24"><path d="M22.11 21.46L2.39 1.73L1.11 3L7.09 9C5.66 10.36 4.88 12.47 5 14.47C5.06 14.97 5.12 15.47 5.29 15.97C5.43 16.57 5.7 17.17 6 17.7C7.08 19.43 8.95 20.67 10.96 20.92C13.1 21.19 15.39 20.8 17.03 19.32C17.1 19.26 17.15 19.18 17.22 19.11L20.84 22.73L22.11 21.46M8.8 14.05C8.57 14.15 8.33 14.09 8.14 13.93C8.08 13.88 8.04 13.83 8 13.76C7 12.47 6.74 10.69 7.26 9.15L8.58 10.47C8.58 11.4 8.73 12.33 9.07 13.22C9.11 13.32 9.15 13.42 9.15 13.55C9.15 13.77 9 13.97 8.8 14.05M14.5 17.5C14.22 17.74 13.76 18 13.4 18.1C12.28 18.5 11.16 17.94 10.5 17.28C11.69 17 12.4 16.12 12.61 15.23C12.66 15 12.66 14.76 12.64 14.53L15 16.88C14.85 17.11 14.69 17.33 14.5 17.5M18.92 15.72L9.65 6.46C10.12 5.65 10.72 4.92 11.46 4.32C12.17 3.75 13 3.23 13.95 3C13 4.85 13.33 7.26 14.82 8.72C15.46 9.35 16.22 9.78 16.89 10.38C17.15 10.64 17.43 10.9 17.66 11.2C17.66 11.2 18.22 12 18.43 12.46L18.56 12.72C18.96 13.69 19.06 14.72 18.92 15.72Z" /></svg>