<svg xmlns="http://www.w3.org/2000/svg" id="mdi-fire-station" viewBox="0 0 24 24"><path d="M13.11 10.39C13.37 10.15 13.53 9.75 13.5 9.39V9.2C13.43 8.81 13.18 8.6 12.92 8.37C12.78 8.24 12.63 8.12 12.5 7.95L12.26 7.5C12.13 7.8 12.12 8.08 12.17 8.41C12.19 8.5 12.21 8.6 12.24 8.69C12.29 8.92 12.35 9.14 12.29 9.39C12.2 9.78 11.9 10.17 11.37 10.3C11.67 10.59 12.15 10.82 12.64 10.66L13.11 10.39M2 22V7C2 6.74 2.11 6.5 2.29 6.29C2.5 6.11 2.74 6 3 6H7V2H17V6H21C21.27 6 21.5 6.11 21.71 6.29C21.9 6.5 22 6.74 22 7V22H19V17C19 17 19 15 15 15C11 15 11 17 11 17V22H8V17H4V22H2M14.47 7.62H14.5L14.14 7.25L13.25 6.5C12.61 5.88 12.46 4.82 12.87 4C12.5 4.1 12.1 4.33 11.79 4.58C10.68 5.5 10.23 7.12 10.76 8.5L10.8 8.65C10.8 8.75 10.73 8.84 10.64 8.87C10.55 8.92 10.44 8.89 10.36 8.82L10.3 8.74C9.81 8.11 9.73 7.21 10.06 6.5C9.34 7.09 8.96 8.1 9 9.06L9.13 9.72C9.19 10 9.3 10.25 9.45 10.5C9.9 11.24 10.71 11.79 11.58 11.9C12.5 12 13.5 11.85 14.21 11.19C15 10.45 15.29 9.3 14.87 8.29L14.81 8.17L14.47 7.62Z" /></svg>