<?xml version="1.0" encoding="UTF-8"?><!DOCTYPE svg PUBLIC "-//W3C//DTD SVG 1.1//EN" "http://www.w3.org/Graphics/SVG/1.1/DTD/svg11.dtd"><svg xmlns="http://www.w3.org/2000/svg" xmlns:xlink="http://www.w3.org/1999/xlink" version="1.1" id="mdi-fit-to-screen-outline" width="24" height="24" viewBox="0 0 24 24"><path d="M17 4H20C21.1 4 22 4.9 22 6V8H20V6H17V4M4 8V6H7V4H4C2.9 4 2 4.9 2 6V8H4M20 16V18H17V20H20C21.1 20 22 19.1 22 18V16H20M7 18H4V16H2V18C2 19.1 2.9 20 4 20H7V18M16 10V14H8V10H16M18 8H6V16H18V8Z" /></svg>