<svg xmlns="http://www.w3.org/2000/svg" id="mdi-flower-pollen" viewBox="0 0 24 24"><path d="M18.4 12.75C18.4 11.37 17.28 10.25 15.9 10.25C15.37 10.25 14.88 10.41 14.5 10.69V10.5C14.5 9.12 13.38 8 12 8S9.5 9.12 9.5 10.5V10.69C9.12 10.41 8.63 10.25 8.1 10.25C6.72 10.25 5.6 11.37 5.6 12.75C5.6 13.74 6.19 14.6 7.03 15C6.19 15.4 5.6 16.25 5.6 17.25C5.6 18.63 6.72 19.75 8.1 19.75C8.63 19.75 9.12 19.58 9.5 19.31V19.5C9.5 20.88 10.62 22 12 22S14.5 20.88 14.5 19.5V19.31C14.88 19.58 15.37 19.75 15.9 19.75C17.28 19.75 18.4 18.63 18.4 17.25C18.4 16.25 17.81 15.4 16.97 15C17.81 14.6 18.4 13.74 18.4 12.75M12 17.5C10.62 17.5 9.5 16.38 9.5 15S10.62 12.5 12 12.5 14.5 13.62 14.5 15 13.38 17.5 12 17.5M11 6C11 5.45 11.45 5 12 5S13 5.45 13 6 12.55 7 12 7 11 6.55 11 6M7 8C7 7.45 7.45 7 8 7S9 7.45 9 8 8.55 9 8 9 7 8.55 7 8M5 6C4.45 6 4 5.55 4 5S4.45 4 5 4 6 4.45 6 5 5.55 6 5 6M8 3C8 2.45 8.45 2 9 2S10 2.45 10 3 9.55 4 9 4 8 3.55 8 3M14 3C14 2.45 14.45 2 15 2S16 2.45 16 3 15.55 4 15 4 14 3.55 14 3M20 5C20 5.55 19.55 6 19 6S18 5.55 18 5 18.45 4 19 4 20 4.45 20 5M16 7C16.55 7 17 7.45 17 8S16.55 9 16 9 15 8.55 15 8 15.45 7 16 7Z" /></svg>