<svg xmlns="http://www.w3.org/2000/svg" id="mdi-folder-eye" viewBox="0 0 24 24"><path d="M9.3 20H4C2.9 20 2 19.1 2 18V6C2 4.9 2.9 4 4 4H10L12 6H20C21.1 6 22 6.9 22 8V14.6C20.6 13.6 18.9 13 17 13C13.5 13 10.4 15.1 9.1 18.3L8.8 19L9.1 19.7C9.2 19.8 9.2 19.9 9.3 20M23 19C22.1 21.3 19.7 23 17 23S11.9 21.3 11 19C11.9 16.7 14.3 15 17 15S22.1 16.7 23 19M19.5 19C19.5 17.6 18.4 16.5 17 16.5S14.5 17.6 14.5 19 15.6 21.5 17 21.5 19.5 20.4 19.5 19M17 18C16.4 18 16 18.4 16 19S16.4 20 17 20 18 19.6 18 19 17.6 18 17 18" /></svg>