<?xml version="1.0" encoding="UTF-8"?><!DOCTYPE svg PUBLIC "-//W3C//DTD SVG 1.1//EN" "http://www.w3.org/Graphics/SVG/1.1/DTD/svg11.dtd"><svg xmlns="http://www.w3.org/2000/svg" xmlns:xlink="http://www.w3.org/1999/xlink" version="1.1" id="mdi-folder-key" width="24" height="24" viewBox="0 0 24 24"><path d="M4 4C2.9 4 2 4.9 2 6V18C2 19.1 2.9 20 4 20H20C21.1 20 22 19.1 22 18V8C22 6.9 21.1 6 20 6H12L10 4M11 10C12.3 10 13.4 10.8 13.8 12H20V14H18V16H16V14H13.8C13.4 15.2 12.3 16 11 16C9.3 16 8 14.7 8 13S9.3 10 11 10M11 12C10.4 12 10 12.4 10 13C10 13.6 10.4 14 11 14C11.6 14 12 13.6 12 13S11.6 12 11 12Z" /></svg>