<svg xmlns="http://www.w3.org/2000/svg" id="mdi-folder-wrench" viewBox="0 0 24 24"><path d="M13.03 20H4C2.9 20 2 19.11 2 18V6C2 4.89 2.89 4 4 4H10L12 6H20C21.1 6 22 6.89 22 8V17.5L20.96 16.44C20.97 16.3 21 16.15 21 16C21 13.24 18.76 11 16 11S11 13.24 11 16C11 17.64 11.8 19.09 13.03 20M22.87 21.19L18.76 17.08C19.17 16.04 18.94 14.82 18.08 13.97C17.18 13.06 15.83 12.88 14.74 13.38L16.68 15.32L15.33 16.68L13.34 14.73C12.8 15.82 13.05 17.17 13.93 18.08C14.79 18.94 16 19.16 17.05 18.76L21.16 22.86C21.34 23.05 21.61 23.05 21.79 22.86L22.83 21.83C23.05 21.65 23.05 21.33 22.87 21.19Z" /></svg>