<svg xmlns="http://www.w3.org/2000/svg" id="mdi-folder-lock" viewBox="0 0 24 24"><path d="M13 20H4C2.9 20 2 19.11 2 18V6C2 4.89 2.89 4 4 4H10L12 6H20C21.1 6 22 6.89 22 8V11.04C21.17 10.4 20.13 10 19 10C16.4 10 14.2 12.06 14.2 14.5V14.74C13.5 15.34 13 16.24 13 17.2V20M23 17.3V20.8C23 21.4 22.4 22 21.7 22H16.2C15.6 22 15 21.4 15 20.7V17.2C15 16.6 15.6 16 16.2 16V14.5C16.2 13.1 17.6 12 19 12S21.8 13.1 21.8 14.5V16C22.4 16 23 16.6 23 17.3M20.5 14.5C20.5 13.7 19.8 13.2 19 13.2S17.5 13.7 17.5 14.5V16H20.5V14.5Z" /></svg>