<svg xmlns="http://www.w3.org/2000/svg" id="mdi-food-steak" viewBox="0 0 24 24"><path d="M11.9 2C8 2 4.9 5.4 5 9.3C5.1 11.9 6.6 14.1 8.7 15.2C10.1 15.9 11 17.3 11 18.8V19C11 20.7 12.3 22 14 22C18 22 19 17 19 9C19 9 19 2 11.9 2M14 20C13.4 20 13 19.6 13 19V18.8C13 16.6 11.7 14.5 9.7 13.4C8.1 12.6 7.1 11 7 9.2C7 7.9 7.5 6.5 8.4 5.5C9.3 4.5 10.6 4 11.8 4C16.7 4 17 8.2 17 9C17 18.9 15.3 20 14 20M15.8 7.6L8.3 10.3C8.1 10 8 9.6 8 9.1C8 8.4 8.2 7.8 8.5 7.1L13.7 5.2C14.9 5.8 15.5 6.7 15.8 7.6M12.9 15.1L15.7 14.1C15.6 15.6 15.3 16.7 15.1 17.4L13.8 17.9C13.8 16.9 13.5 16 12.9 15.1M16 9.2C16 10.4 16 11.5 15.9 12.4L11.9 13.9C11.4 13.4 10.8 12.9 10.1 12.6C9.7 12.4 9.3 12.1 9 11.8L16 9.2Z" /></svg>