<?xml version="1.0" encoding="UTF-8"?><!DOCTYPE svg PUBLIC "-//W3C//DTD SVG 1.1//EN" "http://www.w3.org/Graphics/SVG/1.1/DTD/svg11.dtd"><svg xmlns="http://www.w3.org/2000/svg" xmlns:xlink="http://www.w3.org/1999/xlink" version="1.1" id="mdi-format-list-group-plus" width="24" height="24" viewBox="0 0 24 24"><path d="M17 14V17H14V19H17V22H19V19H22V17H19V14M20 11V12.3C19.4 12.1 18.7 12 18 12C16.8 12 15.6 12.4 14.7 13H7V11H20M12.1 17H7V15H12.8C12.5 15.6 12.2 16.3 12.1 17M7 7H20V9H7V7M5 19H7V21H3V3H7V5H5V19Z" /></svg>