<?xml version="1.0" encoding="UTF-8"?><!DOCTYPE svg PUBLIC "-//W3C//DTD SVG 1.1//EN" "http://www.w3.org/Graphics/SVG/1.1/DTD/svg11.dtd"><svg xmlns="http://www.w3.org/2000/svg" xmlns:xlink="http://www.w3.org/1999/xlink" version="1.1" id="mdi-fridge-variant-alert" width="24" height="24" viewBox="0 0 24 24"><path d="M17 4V19C17 20.11 16.11 21 15 21V22H13V21H10.5V2H15C16.11 2 17 2.9 17 4M5 2H9.5V21H7V22H5V21C3.9 21 3 20.11 3 19V4C3 2.9 3.9 2 5 2M8 10H5V14H8V10M19 7V13H21V7H19M19 17H21V15H19V17Z" /></svg>