<?xml version="1.0" encoding="UTF-8"?><!DOCTYPE svg PUBLIC "-//W3C//DTD SVG 1.1//EN" "http://www.w3.org/Graphics/SVG/1.1/DTD/svg11.dtd"><svg xmlns="http://www.w3.org/2000/svg" xmlns:xlink="http://www.w3.org/1999/xlink" version="1.1" id="mdi-fuse-alert" width="24" height="24" viewBox="0 0 24 24"><path d="M6 7V17H13V7H6M9.16 16V12.87H7.41L9.91 8V11.14H11.59L9.16 16M14 2V6H5V2C5 1.45 5.45 1 6 1H13C13.55 1 14 1.45 14 2M14 18V22C14 22.55 13.55 23 13 23H6C5.45 23 5 22.55 5 22V18H14M19 13H17V7H19V13M19 17H17V15H19V17Z" /></svg>