<?xml version="1.0" encoding="UTF-8"?><!DOCTYPE svg PUBLIC "-//W3C//DTD SVG 1.1//EN" "http://www.w3.org/Graphics/SVG/1.1/DTD/svg11.dtd"><svg xmlns="http://www.w3.org/2000/svg" xmlns:xlink="http://www.w3.org/1999/xlink" version="1.1" id="mdi-ghost-off-outline" width="24" height="24" viewBox="0 0 24 24"><path d="M8.29 5.09L6.84 3.64C8.3 2.61 10.08 2 12 2C16.97 2 21 6.03 21 11V17.8L19 15.8V11C19 7.14 15.86 4 12 4C10.63 4 9.36 4.4 8.29 5.09M22.11 21.46L20.84 22.73L17.56 19.45L15 22L12 19L9 22L6 19L3 22V11C3 9.26 3.5 7.63 4.36 6.25L1.11 3L2.39 1.73L6.89 6.23L8.69 8.03H8.69L10.97 10.31V10.31L17.41 16.76L17.42 16.76L21 20.34V20.35L22.11 21.46M16.14 18.03L9.89 11.78C9.62 11.92 9.32 12 9 12C7.9 12 7 11.11 7 10C7 9.68 7.08 9.38 7.22 9.11L5.82 7.71C5.3 8.69 5 9.81 5 11V17.17L6 16.17L7.41 17.59L9 19.17L10.59 17.59L12 16.17L13.41 17.59L15 19.17L16.14 18.03M15 8C13.96 8 13.11 8.8 13 9.82L15.18 12C16.2 11.89 17 11.04 17 10C17 8.9 16.11 8 15 8Z" /></svg>