<svg xmlns="http://www.w3.org/2000/svg" id="mdi-gift-open" viewBox="0 0 24 24"><path d="M22 10.92L19.26 9.33C21.9 7.08 19.25 2.88 16.08 4.31L15.21 4.68L15.1 3.72C15 2.64 14.44 1.87 13.7 1.42C12.06 .467 9.56 1.12 9.16 3.5L6.41 1.92C5.45 1.36 4.23 1.69 3.68 2.65L2.68 4.38C2.4 4.86 2.57 5.47 3.05 5.75L10.84 10.25L12.34 7.65L14.07 8.65L12.57 11.25L20.36 15.75C20.84 16 21.46 15.86 21.73 15.38L22.73 13.65C23.28 12.69 22.96 11.47 22 10.92M12.37 5C11.5 5.25 10.8 4.32 11.24 3.55C11.5 3.07 12.13 2.91 12.61 3.18C13.38 3.63 13.23 4.79 12.37 5M17.56 8C16.7 8.25 16 7.32 16.44 6.55C16.71 6.07 17.33 5.91 17.8 6.18C18.57 6.63 18.42 7.79 17.56 8M20.87 16.88C21.28 16.88 21.67 16.74 22 16.5V20C22 21.11 21.11 22 20 22H4C2.9 22 2 21.11 2 20V11H10.15L11 11.5V20H13V12.65L19.87 16.61C20.17 16.79 20.5 16.88 20.87 16.88Z" /></svg>