<?xml version="1.0" encoding="UTF-8"?><!DOCTYPE svg PUBLIC "-//W3C//DTD SVG 1.1//EN" "http://www.w3.org/Graphics/SVG/1.1/DTD/svg11.dtd"><svg xmlns="http://www.w3.org/2000/svg" xmlns:xlink="http://www.w3.org/1999/xlink" version="1.1" id="mdi-google-maps" width="24" height="24" viewBox="0 0 24 24"><path d="M18.273,5.999c1.01,2.173,0.781,4.732-0.337,6.811c-0.917,1.706-2.287,3.117-3.415,4.678tc-0.516,0.715-1.037,1.458-1.391,2.272c-0.118,0.271-0.219,0.548-0.319,0.827c-0.101,0.278-0.187,0.561-0.283,0.84tc-0.091,0.262-0.197,0.57-0.523,0.573h-0.006c-0.388-0.001-0.483-0.442-0.579-0.739c-0.237-0.728-0.484-1.427-0.849-2.104tc-0.425-0.787-0.954-1.514-1.492-2.226L18.273,5.999z M9.121,8.421l-3.299,3.922c0.603,1.283,1.517,2.386,2.392,3.483tc0.206,0.258,0.412,0.518,0.614,0.78l4.153-4.937l-0.024,0.008c-1.451,0.501-3.076-0.242-3.66-1.656tC9.218,9.83,9.159,9.63,9.124,9.425C9.071,9.061,9.059,8.791,9.12,8.427C9.12,8.427,9.121,8.421,9.121,8.421z M6.577,4.624tL6.574,4.628c-1.622,2.055-1.901,4.9-0.931,7.308l3.987-4.741L9.583,7.153C9.583,7.153,6.577,4.624,6.577,4.624z M14.218,2.363tl-3.198,3.802c0.007-0.003,0.015-0.006,0.023-0.008c1.333-0.459,2.836,0.125,3.517,1.355c0.147,0.266,0.269,0.569,0.314,0.871tc0.057,0.372,0.071,0.644,0.01,1.017L14.88,9.413l3.197-3.801c-0.835-1.524-2.209-2.681-3.852-3.247tC14.225,2.366,14.218,2.363,14.218,2.363z M9.889,6.89l3.913-4.652l-0.039-0.01C13.184,2.075,12.587,1.999,11.989,2tc-1.96,0.018-3.823,0.854-5.141,2.305L6.834,4.32L9.889,6.89z" /></svg>