<?xml version="1.0" encoding="UTF-8"?><!DOCTYPE svg PUBLIC "-//W3C//DTD SVG 1.1//EN" "http://www.w3.org/Graphics/SVG/1.1/DTD/svg11.dtd"><svg xmlns="http://www.w3.org/2000/svg" xmlns:xlink="http://www.w3.org/1999/xlink" version="1.1" id="mdi-google-maps" width="24" height="24" viewBox="0 0 24 24"><path d="M18.27 6C19.28 8.17 19.05 10.73 17.94 12.81C17 14.5 15.65 15.93 14.5 17.5C14 18.2 13.5 18.95 13.13 19.76C13 20.03 12.91 20.31 12.81 20.59C12.71 20.87 12.62 21.15 12.53 21.43C12.44 21.69 12.33 22 12 22H12C11.61 22 11.5 21.56 11.42 21.26C11.18 20.53 10.94 19.83 10.57 19.16C10.15 18.37 9.62 17.64 9.08 16.93L18.27 6M9.12 8.42L5.82 12.34C6.43 13.63 7.34 14.73 8.21 15.83C8.42 16.08 8.63 16.34 8.83 16.61L13 11.67L12.96 11.68C11.5 12.18 9.88 11.44 9.3 10C9.22 9.83 9.16 9.63 9.12 9.43C9.07 9.06 9.06 8.79 9.12 8.43L9.12 8.42M6.58 4.62L6.57 4.63C4.95 6.68 4.67 9.53 5.64 11.94L9.63 7.2L9.58 7.15L6.58 4.62M14.22 2.36L11 6.17L11.04 6.16C12.38 5.7 13.88 6.28 14.56 7.5C14.71 7.78 14.83 8.08 14.87 8.38C14.93 8.76 14.95 9.03 14.88 9.4L14.88 9.41L18.08 5.61C17.24 4.09 15.87 2.93 14.23 2.37L14.22 2.36M9.89 6.89L13.8 2.24L13.76 2.23C13.18 2.08 12.59 2 12 2C10.03 2 8.17 2.85 6.85 4.31L6.83 4.32L9.89 6.89Z" /></svg>