<svg xmlns="http://www.w3.org/2000/svg" id="mdi-grass" viewBox="0 0 24 24"><path d="M12 20H2V18H7.75C7 15.19 4.81 13 2 12.26C2.64 12.1 3.31 12 4 12C8.42 12 12 15.58 12 20M22 12.26C21.36 12.1 20.69 12 20 12C17.07 12 14.5 13.58 13.12 15.93C13.41 16.59 13.65 17.28 13.79 18C13.92 18.65 14 19.32 14 20H22V18H16.24C17 15.19 19.19 13 22 12.26M15.64 11C16.42 8.93 17.87 7.18 19.73 6C15.44 6.16 12 9.67 12 14V14C12.95 12.75 14.2 11.72 15.64 11M11.42 8.85C10.58 6.66 8.88 4.89 6.7 4C8.14 5.86 9 8.18 9 10.71C9 10.92 8.97 11.12 8.96 11.32C9.39 11.56 9.79 11.84 10.18 12.14C10.39 10.96 10.83 9.85 11.42 8.85Z" /></svg>