<svg xmlns="http://www.w3.org/2000/svg" id="mdi-hammer-sickle" viewBox="0 0 24 24"><path d="M22 20.59L20.59 22L17.45 18.86C16.89 19.23 16.3 19.56 15.66 19.78C14 20.36 12.2 20.4 10.53 19.88C9.5 19.58 8.56 19.05 7.75 18.37L4.56 21.56C4 22.15 3.03 22.15 2.44 21.56C1.86 21 1.86 20 2.44 19.44L5.82 16.06L8.47 15.54C9.19 16.45 10.19 17.13 11.28 17.5C12.44 17.85 13.72 17.84 14.87 17.46C15.16 17.37 15.44 17.26 15.7 17.12L7.6 9L5.83 10.78L3 7.95L7.95 3L12.19 4.41L9 7.6L17.31 15.89C17.5 15.71 17.65 15.53 17.8 15.33C19.3 13.36 19.42 10.42 18.09 8C16.78 5.57 14.5 3.55 12 2C13.41 2.5 14.76 3.17 16 4.04C17.24 4.91 18.43 5.93 19.33 7.25C20.23 8.54 20.87 10.12 21 11.79C21.1 13.47 20.66 15.23 19.7 16.65C19.5 17 19.24 17.28 19 17.56L22 20.59Z" /></svg>