<svg xmlns="http://www.w3.org/2000/svg" id="mdi-hand-back-left-off" viewBox="0 0 24 24"><path d="M22.11 21.46L2.39 1.73L1.11 3L3.21 5.1C3.09 5.29 3 5.5 3 5.75V16C3 20.42 6.58 24 11 24C13.93 24 16.58 22.39 17.97 19.86L20.84 22.73L22.11 21.46M5.5 12V7.39L6.5 8.39V12H5.5M10 12H9V10.89L10 11.89V12M16 12.8L13.5 10.3V3.25C13.5 2.56 14.06 2 14.75 2S16 2.56 16 3.25V12.8M19.5 16.28L17.16 13.96L18.16 11.47C18.38 10.92 18.84 10.5 19.4 10.31L20.19 10.05C21 9.79 21.74 10.58 21.43 11.37L19.5 16.28M9 5.8L6.5 3.3V2.75C6.5 2.06 7.06 1.5 7.75 1.5S9 2.06 9 2.75V5.8M12.5 9.3L10 6.8V1.25C10 .56 10.56 0 11.25 0S12.5 .56 12.5 1.25V9.3Z" /></svg>