<svg xmlns="http://www.w3.org/2000/svg" id="mdi-hand-back-right-off-outline" viewBox="0 0 24 24"><path d="M22.11 21.46L2.39 1.73L1.11 3L7 8.89V10.39C6.66 10.08 6.24 9.85 5.78 9.73L5 9.5C4.18 9.29 3.31 9.61 2.82 10.35C2.44 10.92 2.42 11.66 2.67 12.3L5.23 18.73C6.5 21.91 9.57 24 13 24C15.5 24 17.7 22.85 19.17 21.06L20.84 22.73L22.11 21.46M13 22C10.39 22 8.05 20.41 7.09 18L4.5 11.45L5 11.59C5.5 11.71 5.85 12.05 6 12.5L7 15H9V10.89L17.75 19.64C16.66 21.07 14.94 22 13 22M9 5.8L7.09 3.89C7.36 2.8 8.33 2 9.5 2C9.69 2 9.87 2 10.04 2.06C10.25 .89 11.27 0 12.5 0C13.56 0 14.46 .66 14.83 1.59C15.04 1.53 15.27 1.5 15.5 1.5C16.88 1.5 18 2.62 18 4V4.55C18.16 4.5 18.33 4.5 18.5 4.5C19.88 4.5 21 5.62 21 7V16C21 16.56 20.94 17.11 20.83 17.63L19 15.8V7C19 6.72 18.78 6.5 18.5 6.5S18 6.72 18 7V12H16V4C16 3.72 15.78 3.5 15.5 3.5S15 3.72 15 4V11.8L13 9.8V2.5C13 2.22 12.78 2 12.5 2S12 2.22 12 2.5V8.8L10 6.8V4.5C10 4.22 9.78 4 9.5 4S9 4.22 9 4.5V5.8Z" /></svg>