<svg xmlns="http://www.w3.org/2000/svg" id="mdi-hand-wash" viewBox="0 0 24 24"><path d="M17 5L17.62 6.37L19 7L17.62 7.63L17 9L16.36 7.63L15 7L16.36 6.37L17 5M11 6.13V4H13C13.57 4 14.1 4.17 14.55 4.45L16 3C15.15 2.39 14.13 2 13 2H7.5V4H9V6.14C7.23 6.5 5.81 7.8 5.26 9.5H9.24L15 11.65V11.03C15 8.61 13.28 6.59 11 6.13M1 22H5V11H1V22M20 17H13L10.91 16.27L11.24 15.33L13 16H15.82C16.47 16 17 15.47 17 14.82C17 14.33 16.69 13.89 16.23 13.71L8.97 11H7V20L14 22L22 19C22 17.9 21.11 17 20 17M20 14C21.1 14 22 13.1 22 12S20 8 20 8 18 10.9 18 12 18.9 14 20 14Z" /></svg>