<svg xmlns="http://www.w3.org/2000/svg" id="mdi-hands-pray" viewBox="0 0 24 24"><path d="M11.43 9.67C11.47 9.78 11.5 9.88 11.5 10V15.22C11.5 15.72 11.31 16.2 10.97 16.57L8.18 19.62L4.78 16.22L6 15L8.8 2.86C8.92 2.36 9.37 2 9.89 2C10.5 2 11 2.5 11 3.11V8.07C10.84 8.03 10.67 8 10.5 8C9.4 8 8.5 8.9 8.5 10V13C8.5 13.28 8.72 13.5 9 13.5S9.5 13.28 9.5 13V10C9.5 9.45 9.95 9 10.5 9C10.69 9 10.85 9.07 11 9.16C11.12 9.23 11.21 9.32 11.3 9.42C11.33 9.46 11.36 9.5 11.38 9.55C11.4 9.59 11.42 9.63 11.43 9.67M2 19L6 22L7.17 20.73L3.72 17.28L2 19M18 15L15.2 2.86C15.08 2.36 14.63 2 14.11 2C13.5 2 13 2.5 13 3.11V8.07C13.16 8.03 13.33 8 13.5 8C14.6 8 15.5 8.9 15.5 10V13C15.5 13.28 15.28 13.5 15 13.5S14.5 13.28 14.5 13V10C14.5 9.45 14.05 9 13.5 9C13.31 9 13.15 9.07 13 9.16C12.88 9.23 12.79 9.32 12.71 9.42C12.68 9.46 12.64 9.5 12.62 9.55C12.6 9.59 12.58 9.63 12.57 9.67C12.53 9.78 12.5 9.88 12.5 10V15.22C12.5 15.72 12.69 16.2 13.03 16.57L15.82 19.62L19.22 16.22L18 15M20.28 17.28L16.83 20.73L18 22L22 19L20.28 17.28Z" /></svg>