<svg xmlns="http://www.w3.org/2000/svg" id="mdi-hand-cycle" viewBox="0 0 24 24"><path d="M19.5 13C18.18 13 17.05 13.74 16.45 14.81L13.23 12.18L10.96 13L9.87 11.32L11.21 11.69L13.87 9.5L12.93 8.36L10.9 10.03L7.96 9C7.96 9 7.96 9 7.95 9C7.54 8.85 7.08 8.89 6.69 9.14C6.04 9.56 5.83 10.39 6.16 11.07C5.95 11.03 5.73 11 5.5 11C3 11 1 13 1 15.5S3 20 5.5 20 10 18 10 15.5C10 15.37 9.97 15.25 9.96 15.12L13 14L16 16.5L16 16.5C16 18.43 17.57 20 19.5 20S23 18.43 23 16.5 21.43 13 19.5 13M5.5 18.5C3.85 18.5 2.5 17.15 2.5 15.5S3.85 12.5 5.5 12.5 8.5 13.85 8.5 15.5 7.15 18.5 5.5 18.5M19.5 18.5C18.4 18.5 17.5 17.6 17.5 16.5S18.4 14.5 19.5 14.5 21.5 15.4 21.5 16.5 20.6 18.5 19.5 18.5M6.44 7.57C5.85 7 5.85 6.06 6.44 5.5C7.03 4.89 7.97 4.89 8.56 5.5C9.15 6.06 9.15 7 8.56 7.57C7.97 8.15 7.03 8.15 6.44 7.57" /></svg>