<svg xmlns="http://www.w3.org/2000/svg" id="mdi-hand-back-left-outline" viewBox="0 0 24 24"><path d="M3 16C3 20.42 6.58 24 11 24C14.43 24 17.5 21.91 18.77 18.73L21.33 12.3C21.58 11.66 21.56 10.92 21.18 10.35C20.69 9.61 19.82 9.29 19 9.5L18.22 9.73C17.76 9.85 17.34 10.08 17 10.39V4.5C17 3.12 15.88 2 14.5 2C14.31 2 14.13 2 13.96 2.06C13.75 .89 12.73 0 11.5 0C10.44 0 9.54 .66 9.17 1.59C8.96 1.53 8.73 1.5 8.5 1.5C7.12 1.5 6 2.62 6 4V4.55C5.84 4.5 5.67 4.5 5.5 4.5C4.12 4.5 3 5.62 3 7V16M5 7C5 6.72 5.22 6.5 5.5 6.5S6 6.72 6 7V12H8V4C8 3.72 8.22 3.5 8.5 3.5S9 3.72 9 4V12H11V2.5C11 2.22 11.22 2 11.5 2S12 2.22 12 2.5V12H14V4.5C14 4.22 14.22 4 14.5 4S15 4.22 15 4.5V15H17L18 12.5C18.15 12.05 18.5 11.71 19 11.59L19.5 11.45L16.91 18C15.95 20.41 13.61 22 11 22C7.69 22 5 19.31 5 16V7Z" /></svg>