<svg xmlns="http://www.w3.org/2000/svg" id="mdi-hand-back-right-off" viewBox="0 0 24 24"><path d="M20.84 22.73L19.17 21.06C17.7 22.85 15.5 24 13 24C9.74 24 6.81 22 5.6 19L2.57 11.37C2.26 10.58 3 9.79 3.81 10.05L4.6 10.31C5.16 10.5 5.62 10.92 5.84 11.47L7.25 15H8V9.89L1.11 3L2.39 1.73L22.11 21.46L20.84 22.73M14 1.25C14 .56 13.44 0 12.75 0S11.5 .56 11.5 1.25V8.3L14 10.8V1.25M21 16V5.75C21 5.06 20.44 4.5 19.75 4.5S18.5 5.06 18.5 5.75V12H17.5V2.75C17.5 2.06 16.94 1.5 16.25 1.5S15 2.06 15 2.75V11.8L20.83 17.63C20.94 17.11 21 16.56 21 16M10.5 3.25C10.5 2.56 9.94 2 9.25 2S8 2.56 8 3.25V4.8L10.5 7.3V3.25Z" /></svg>