<?xml version="1.0" encoding="UTF-8"?><!DOCTYPE svg PUBLIC "-//W3C//DTD SVG 1.1//EN" "http://www.w3.org/Graphics/SVG/1.1/DTD/svg11.dtd"><svg xmlns="http://www.w3.org/2000/svg" xmlns:xlink="http://www.w3.org/1999/xlink" version="1.1" id="mdi-head-cog-outline" width="24" height="24" viewBox="0 0 24 24"><path d="M13 3C16.88 3 20 6.14 20 10C20 12.8 18.37 15.19 16 16.31V21H9V18H8C6.89 18 6 17.11 6 16V13H4.5C4.08 13 3.84 12.5 4.08 12.19L6 9.66C6.19 5.95 9.23 3 13 3M13 1C8.42 1 4.61 4.43 4.06 8.91L2.5 11C1.92 11.72 1.82 12.72 2.24 13.59C2.6 14.31 3.24 14.8 4 14.95V16C4 17.86 5.28 19.43 7 19.87V23H18V17.47C20.5 15.83 22 13.06 22 10C22 5.04 17.96 1 13 1M17 9.42V9C17 8.85 17 8.76 16.94 8.62L17.83 7.96C17.88 7.92 17.92 7.78 17.88 7.68L17.08 6.32C17.03 6.23 16.89 6.18 16.8 6.23L15.81 6.65C15.63 6.46 15.39 6.32 15.16 6.23L15 5.2C14.97 5.06 14.92 5 14.78 5H13.19C13.09 5 13 5.06 13 5.2L12.86 6.23C12.63 6.32 12.39 6.46 12.2 6.65L11.17 6.23C11.08 6.18 11 6.23 10.94 6.32L10.14 7.68C10.09 7.82 10.09 7.92 10.19 7.96L11.03 8.62C11.03 8.76 11 8.9 11 9C11 9.14 11.03 9.28 11.03 9.42L10.19 10.07C10.09 10.12 10.09 10.21 10.14 10.31L10.94 11.71C11 11.81 11.08 11.81 11.17 11.81L12.16 11.38C12.39 11.57 12.58 11.67 12.86 11.76L13 12.84C13 12.93 13.09 13 13.19 13H14.78C14.92 13 14.97 12.93 15 12.84L15.16 11.76C15.39 11.67 15.63 11.57 15.81 11.39L16.8 11.81C16.89 11.81 17.03 11.81 17.08 11.71L17.88 10.31C17.92 10.21 17.88 10.12 17.83 10.07L17 9.42M14 10.45C13.22 10.45 12.58 9.79 12.58 9S13.19 7.59 14 7.59C14.78 7.59 15.44 8.2 15.44 9S14.78 10.45 14 10.45Z" /></svg>