<?xml version="1.0" encoding="UTF-8"?><!DOCTYPE svg PUBLIC "-//W3C//DTD SVG 1.1//EN" "http://www.w3.org/Graphics/SVG/1.1/DTD/svg11.dtd"><svg xmlns="http://www.w3.org/2000/svg" xmlns:xlink="http://www.w3.org/1999/xlink" version="1.1" id="mdi-head-dots-horizontal-outline" width="24" height="24" viewBox="0 0 24 24"><path d="M13 3C16.88 3 20 6.14 20 10C20 12.8 18.37 15.19 16 16.31V21H9V18H8C6.89 18 6 17.11 6 16V13H4.5C4.08 13 3.84 12.5 4.08 12.19L6 9.66C6.19 5.95 9.23 3 13 3M13 1C8.41 1 4.61 4.42 4.06 8.9L2.5 11L2.47 11L2.45 11.03C1.9 11.79 1.83 12.79 2.26 13.62C2.62 14.31 3.26 14.79 4 14.94V16C4 17.85 5.28 19.42 7 19.87V23H18V17.5C20.5 15.83 22 13.06 22 10C22 5.03 17.96 1 13 1M11 10C10.45 10 10 9.55 10 9S10.45 8 11 8 12 8.45 12 9 11.55 10 11 10M14 10C13.45 10 13 9.55 13 9S13.45 8 14 8 15 8.45 15 9 14.55 10 14 10M17 10C16.45 10 16 9.55 16 9S16.45 8 17 8 18 8.45 18 9 17.55 10 17 10Z" /></svg>