<svg xmlns="http://www.w3.org/2000/svg" id="mdi-heart-remove-outline" viewBox="0 0 24 24"><path d="M12.67 20.74L12 21.35L10.55 20.03C5.4 15.36 2 12.27 2 8.5C2 5.41 4.42 3 7.5 3C9.24 3 10.91 3.81 12 5.08C13.09 3.81 14.76 3 16.5 3C19.58 3 22 5.41 22 8.5C22 9.93 21.5 11.26 20.62 12.61C20 12.31 19.31 12.11 18.59 12.04C19.5 10.8 20 9.65 20 8.5C20 6.5 18.5 5 16.5 5C14.96 5 13.46 6 12.93 7.36H11.07C10.54 6 9.04 5 7.5 5C5.5 5 4 6.5 4 8.5C4 11.39 7.14 14.24 11.89 18.55L12 18.65L12.04 18.61C12.12 19.37 12.34 20.09 12.67 20.74M20.12 14.46L18 16.59L15.88 14.47L14.47 15.88L16.59 18L14.47 20.12L15.88 21.54L18 19.41L20.12 21.54L21.54 20.12L19.41 18L21.54 15.88L20.12 14.46Z" /></svg>