<svg xmlns="http://www.w3.org/2000/svg" id="mdi-heat-pump-outline" viewBox="0 0 24 24"><path d="M19 3H5C3.9 3 3 3.9 3 5V19C3 20.1 3.9 21 5 21H19C20.1 21 21 20.1 21 19V5C21 3.9 20.1 3 19 3M19 19H5V5H19V19M12 18C15.31 18 18 15.31 18 12S15.31 6 12 6 6 8.69 6 12 8.69 18 12 18M11.25 15.92C10.7 15.82 10.2 15.6 9.75 15.3L11.25 13.8V15.92M12.75 15.92V13.81L14.25 15.31C13.8 15.61 13.3 15.82 12.75 15.92M15.31 14.25L13.81 12.75H15.92C15.82 13.3 15.61 13.8 15.31 14.25M15.92 11.25H13.81L15.31 9.75C15.61 10.2 15.82 10.7 15.92 11.25M12.75 8.08C13.3 8.18 13.8 8.4 14.25 8.7L12.75 10.2V8.08M12 11C12.55 11 13 11.45 13 12S12.55 13 12 13 11 12.55 11 12 11.45 11 12 11M11.25 8.08V10.19L9.75 8.69C10.2 8.39 10.7 8.18 11.25 8.08M8.69 9.75L10.19 11.25H8.08C8.18 10.7 8.39 10.2 8.69 9.75M10.19 12.75L8.69 14.25C8.39 13.81 8.18 13.3 8.07 12.75H10.19Z" /></svg>