<svg xmlns="http://www.w3.org/2000/svg" id="mdi-heating-coil" viewBox="0 0 24 24"><path d="M19 17C20.21 17 22 16.2 22 14S20.21 11 19 11H17V9H19C21.2 9 22 7.21 22 6C22 3.8 20.21 3 19 3H17V2H16V3H8V2H7V3H2V5H7V7H5C3.79 7 2 7.8 2 10S3.79 13 5 13H7V15H5C3.79 15 2 15.8 2 18S3.79 21 5 21H7V22H8V21H16V22H17V21H22V19H17V17H19M19 13C19.45 13 20 13.19 20 14S19.45 15 19 15H17V13H19M16 11H8V9H16V11M19 5C19.45 5 20 5.2 20 6C20 6.45 19.81 7 19 7H17V5H19M8 5H16V7H8V5M5 11C4.55 11 4 10.81 4 10S4.55 9 5 9H7V11H5M8 13H16V15H8V13M5 19C4.55 19 4 18.81 4 18S4.55 17 5 17H7V19H5M16 19H8V17H16V19Z" /></svg>