<?xml version="1.0" encoding="UTF-8"?><!DOCTYPE svg PUBLIC "-//W3C//DTD SVG 1.1//EN" "http://www.w3.org/Graphics/SVG/1.1/DTD/svg11.dtd"><svg xmlns="http://www.w3.org/2000/svg" xmlns:xlink="http://www.w3.org/1999/xlink" version="1.1" id="mdi-home-battery-outline" width="24" height="24" viewBox="0 0 24 24"><path d="M15 9H16V7.5H20V9H21C21.55 9 22 9.45 22 10V21C22 21.55 21.55 22 21 22H15C14.45 22 14 21.55 14 21V10C14 9.45 14.45 9 15 9M16 11V14H20V11H16M12 5.69L7 10.19V18H12V20H5V12H2L12 3L14.78 5.5H14V7.17L13.76 7.27L12 5.69Z" /></svg>