<?xml version="1.0" encoding="UTF-8"?><!DOCTYPE svg PUBLIC "-//W3C//DTD SVG 1.1//EN" "http://www.w3.org/Graphics/SVG/1.1/DTD/svg11.dtd"><svg xmlns="http://www.w3.org/2000/svg" xmlns:xlink="http://www.w3.org/1999/xlink" version="1.1" id="mdi-home-thermometer-outline" width="24" height="24" viewBox="0 0 24 24"><path d="M12 2.09L2.09 12H4V21H20V12H21.91M12 4.91L18 10.91V19H6V10.91M12 8A1 1 0 0 0 11 9V13.27A2 2 0 0 0 10 15A2 2 0 0 0 12 17A2 2 0 0 0 14 15A2 2 0 0 0 13 13.27V9A1 1 0 0 0 12 8Z" /></svg>