<svg xmlns="http://www.w3.org/2000/svg" id="mdi-hours-12" viewBox="0 0 24 24"><path d="M13 2V4C17 4.5 20 7.8 20 11.9C20 15.1 18.1 17.9 15.3 19.2L13 17V22H18L16.8 20.8C19.9 19.1 22 15.8 22 12C22 6.8 18 2.5 13 2M11 2C9.1 2.2 7.2 3 5.7 4.2L7.1 5.6C8.2 4.8 9.6 4.2 11 4V2M4.2 5.7C3 7.2 2.2 9.1 2 11H4C4.2 9.6 4.8 8.2 5.6 7.1L4.2 5.7M2 13C2.2 14.9 3 16.8 4.2 18.3L5.6 16.9C4.8 15.8 4.2 14.4 4 13H2M7.1 18.4L5.7 19.8C7.2 21 9.1 21.8 11 22V20C9.6 19.8 8.2 19.2 7.1 18.4M12 8V10H15V11H14C12.9 11 12 11.9 12 13V16H17V14H14V13H15C16.1 13 17 12.1 17 11V10C17 8.9 16.1 8 15 8H12M7 8V10H8V16H10V8H7Z" /></svg>