<svg xmlns="http://www.w3.org/2000/svg" id="mdi-hub" viewBox="0 0 24 24"><path d="M8.4 18.2C8.8 18.7 9 19.3 9 20C9 21.7 7.7 23 6 23S3 21.7 3 20 4.3 17 6 17C6.4 17 6.8 17.1 7.2 17.3L8.6 15.5C7.7 14.5 7.3 13.1 7.5 11.8L5.5 11.1C5 11.9 4.1 12.5 3 12.5C1.3 12.5 0 11.2 0 9.5S1.3 6.5 3 6.5 6 7.8 6 9.5V9.7L8 10.4C8.6 9.2 9.8 8.3 11.2 8.1V5.9C10 5.6 9 4.4 9 3C9 1.3 10.3 0 12 0S15 1.3 15 3C15 4.4 14 5.6 12.8 5.9V8.1C14.2 8.3 15.4 9.2 16 10.4L18 9.7V9.5C18 7.8 19.3 6.5 21 6.5S24 7.8 24 9.5 22.7 12.5 21 12.5C19.9 12.5 19 11.9 18.5 11.1L16.5 11.8C16.7 13.1 16.3 14.5 15.4 15.5L16.8 17.3C17.2 17.1 17.6 17 18 17C19.7 17 21 18.3 21 20S19.7 23 18 23 15 21.7 15 20C15 19.3 15.2 18.7 15.6 18.2L14.2 16.4C12.8 17.2 11.2 17.2 9.8 16.4L8.4 18.2Z" /></svg>