<svg xmlns="http://www.w3.org/2000/svg" id="mdi-human-greeting-proximity" viewBox="0 0 24 24"><path d="M11 14H9C9 9.03 13.03 5 18 5V7C14.13 7 11 10.13 11 14M18 11V9C15.24 9 13 11.24 13 14H15C15 12.34 16.34 11 18 11M7 4C7 2.89 6.11 2 5 2S3 2.89 3 4 3.89 6 5 6 7 5.11 7 4M11.45 4.5H9.45C9.21 5.92 8 7 6.5 7H3.5C2.67 7 2 7.67 2 8.5V11H8V8.74C9.86 8.15 11.25 6.5 11.45 4.5M19 17C20.11 17 21 16.11 21 15S20.11 13 19 13 17 13.89 17 15 17.89 17 19 17M20.5 18H17.5C16 18 14.79 16.92 14.55 15.5H12.55C12.75 17.5 14.14 19.15 16 19.74V22H22V19.5C22 18.67 21.33 18 20.5 18Z" /></svg>