<svg xmlns="http://www.w3.org/2000/svg" id="mdi-human-male-female-child" viewBox="0 0 24 24"><path d="M16 4C16 2.9 16.9 2 18 2S20 2.9 20 4 19.1 6 18 6 16 5.1 16 4M20 22V16H22.5L20 8.4C19.7 7.6 19 7 18.1 7H18C17.1 7 16.4 7.6 16.1 8.4L15.2 11C16.3 11.6 17 12.7 17 14.1V22H20M12.5 11.5C13.3 11.5 14 10.8 14 10S13.3 8.5 12.5 8.5 11 9.2 11 10 11.7 11.5 12.5 11.5M5.5 6C6.6 6 7.5 5.1 7.5 4S6.6 2 5.5 2 3.5 2.9 3.5 4 4.4 6 5.5 6M7.5 22V15H9V9C9 7.9 8.1 7 7 7H4C2.9 7 2 7.9 2 9V15H3.5V22H7.5M14 22V18H15V14C15 13.2 14.3 12.5 13.5 12.5H11.5C10.7 12.5 10 13.2 10 14V18H11V22H14Z" /></svg>