<?xml version="1.0" encoding="UTF-8"?><!DOCTYPE svg PUBLIC "-//W3C//DTD SVG 1.1//EN" "http://www.w3.org/Graphics/SVG/1.1/DTD/svg11.dtd"><svg xmlns="http://www.w3.org/2000/svg" xmlns:xlink="http://www.w3.org/1999/xlink" version="1.1" id="mdi-human-cane" width="24" height="24" viewBox="0 0 24 24"><path d="M18 12.24V22H17.06V12.24C17.06 12.09 17 12 16.93 11.89C16.84 11.8 16.74 11.76 16.62 11.76C16.47 11.76 16.36 11.8 16.27 11.89C16.18 12 16.14 12.1 16.14 12.24V13.16H15.23V12.5C14.53 12.33 13.9 12.04 13.35 11.63C12.8 11.22 12.34 10.74 11.96 10.19L11.61 11.39C11.5 11.81 11.5 12.24 11.5 12.68L11.5 13L11.5 13.33L13.35 15.94V22H11.5V17.34L9.82 15L9.65 18.25L6.86 22L5.38 20.87L7.77 17.64V12.68C7.77 12.15 7.82 11.63 7.91 11.11L8.25 9.54L6.86 10.32V13.63H5V9.23L10 6.4C10.29 6.26 10.59 6.18 10.91 6.18C11.23 6.18 11.54 6.27 11.83 6.44C12.15 6.62 12.39 6.88 12.57 7.23L13.31 8.8C13.6 9.38 14.04 9.87 14.64 10.26C15.23 10.65 15.89 10.85 16.62 10.85C17 10.85 17.32 11 17.6 11.24C17.88 11.5 18 11.83 18 12.24M12 2C13.11 2 14 2.9 14 4C14 5.11 13.11 6 12 6C10.9 6 10 5.11 10 4C10 2.9 10.9 2 12 2Z" /></svg>