<svg xmlns="http://www.w3.org/2000/svg" id="mdi-hvac-off" viewBox="0 0 24 24"><path d="M22.11 21.46L2.39 1.73L1.11 3L3 4.89V21H19.11L20.84 22.73L22.11 21.46M12 18C8.67 18 6 15.33 6 12C6 10.82 6.34 9.73 6.92 8.81L8.43 10.32C8.24 10.69 8.1 11.09 8.06 11.5H9.61L10.61 12.5H8.06C8.11 13.03 8.3 13.55 8.58 14H12.11L13.11 15H9.38C10.08 15.61 10.97 16 12 16C12.63 16 13.19 15.84 13.7 15.59L15.19 17.08C14.27 17.66 13.18 18 12 18M12 8C13.03 8 13.92 8.39 14.63 9H12.2L11.27 8.07C11.5 8.03 11.75 8 12 8M9.67 6.47L6.2 3H21V17.8L17.53 14.33C17.83 13.62 18 12.83 18 12C18 8.67 15.33 6 12 6C11.17 6 10.38 6.17 9.67 6.47M15.94 11.5H14.7L13.2 10H15.42C15.7 10.45 15.89 10.97 15.94 11.5Z" /></svg>