<svg xmlns="http://www.w3.org/2000/svg" id="mdi-image-refresh-outline" viewBox="0 0 24 24"><path d="M14.68 13.25C13.45 14.15 12.54 15.47 12.18 17H6.5L9.25 13.47L11.21 15.83L13.96 12.29L14.68 13.25M5 19V5H19V12.03C19.7 12.09 20.38 12.24 21 12.5V5C21 3.9 20.11 3 19 3H5C3.9 3 3 3.9 3 5V19C3 20.11 3.9 21 5 21H12.5C12.24 20.38 12.09 19.7 12.03 19H5M22 18.5V14.5L20.83 15.67C20.11 14.95 19.11 14.5 18 14.5C15.79 14.5 14 16.29 14 18.5S15.79 22.5 18 22.5C19.68 22.5 21.12 21.47 21.71 20H20C19.54 20.61 18.82 21 18 21C16.62 21 15.5 19.88 15.5 18.5S16.62 16 18 16C18.69 16 19.32 16.28 19.77 16.73L18 18.5H22Z" /></svg>