<?xml version="1.0" encoding="UTF-8"?><!DOCTYPE svg PUBLIC "-//W3C//DTD SVG 1.1//EN" "http://www.w3.org/Graphics/SVG/1.1/DTD/svg11.dtd"><svg xmlns="http://www.w3.org/2000/svg" xmlns:xlink="http://www.w3.org/1999/xlink" version="1.1" id="mdi-image-text" width="24" height="24" viewBox="0 0 24 24"><path d="M22 13H14V11H22V13M22 7H14V9H22V7M14 17H22V15H14V17M12 9V15C12 16.1 11.1 17 10 17H4C2.9 17 2 16.1 2 15V9C2 7.9 2.9 7 4 7H10C11.1 7 12 7.9 12 9M10.5 15L8.3 12L6.5 14.3L5.3 12.8L3.5 15H10.5Z" /></svg>