<svg xmlns="http://www.w3.org/2000/svg" id="mdi-information-variant-box" viewBox="0 0 24 24"><path d="M5 3H19C20.1 3 21 3.89 21 5V19C21 19.53 20.79 20.04 20.41 20.41C20.04 20.79 19.53 21 19 21H5C4.47 21 3.96 20.79 3.59 20.41C3.21 20.04 3 19.53 3 19V5C3 3.89 3.89 3 5 3M12.3 7.29C12.11 7.5 12 7.74 12 8C12 8.27 12.11 8.5 12.3 8.71C12.5 8.9 12.74 9 13 9C13.27 9 13.5 8.9 13.71 8.71C13.9 8.5 14 8.27 14 8C14 7.74 13.9 7.5 13.71 7.29C13.5 7.11 13.27 7 13 7C12.74 7 12.5 7.11 12.3 7.29M9.8 11.97C9.7 12.06 9.7 12.07 9.77 12.17L9.82 12.25L9.85 12.31C9.92 12.44 9.93 12.44 10.04 12.36C10.17 12.27 10.39 12.13 10.76 11.91C11.68 11.32 11.5 12 11.09 13.5C10.87 14.33 10.59 15.39 10.38 16.62C10.14 18.37 11.71 17.47 12.12 17.2C12.5 16.96 13.44 16.3 13.66 16.15L13.7 16.13C13.82 16.04 13.77 16 13.68 15.86L13.62 15.78C13.54 15.67 13.46 15.75 13.46 15.75L13.3 15.86C12.85 16.16 12.23 16.59 12.13 16.25C12.04 16 12.41 14.64 12.79 13.25C12.96 12.64 13.13 12 13.26 11.47L13.28 11.41C13.35 10.97 13.5 10.12 12.77 10.18C11.97 10.25 9.8 11.97 9.8 11.97Z" /></svg>