<?xml version="1.0" encoding="UTF-8"?><!DOCTYPE svg PUBLIC "-//W3C//DTD SVG 1.1//EN" "http://www.w3.org/Graphics/SVG/1.1/DTD/svg11.dtd"><svg xmlns="http://www.w3.org/2000/svg" xmlns:xlink="http://www.w3.org/1999/xlink" version="1.1" id="mdi-kettle-alert" width="24" height="24" viewBox="0 0 24 24"><path d="M9.5 3C4.81 3 1 5.69 1 9C1 10.19 1.5 11.34 2.44 12.33C1.53 13.5 1 14.96 1 16.5V20C1 21.11 1.89 22 3 22H16C17.11 22 18 21.11 18 20V16.5C18 15.28 17.66 14.07 17 13L19 11L16 8L13.9 10.1C12.58 9.38 11.05 9 9.5 9C7.65 9 5.95 9.53 4.55 10.41C4.19 9.97 4 9.5 4 9C4 7.21 6.46 5.75 9.5 5.75C10.93 5.75 12.3 6.08 13.33 6.67L15.35 4.65C13.77 3.59 11.68 3 9.5 3M9.5 11C9.84 11 10.17 11.04 10.5 11.09C7.39 11.57 5 14.25 5 17.5V20H3V17.5C3 13.91 5.91 11 9.5 11M21 12V7H23V12H21M21 16V14H23V16H21Z" /></svg>