<svg xmlns="http://www.w3.org/2000/svg" id="mdi-kite" viewBox="0 0 24 24"><path d="M13.69 3.46C13.35 3.15 12.96 3 12.5 3C12.05 3 11.66 3.15 11.33 3.46L5.54 9.08C5.23 9.38 5.06 9.75 5 10.2C5 10.64 5.08 11.04 5.33 11.4L11.45 19.83C11.2 20.36 10.75 20.62 10.09 20.62C9.29 20.62 8.79 20.25 8.6 19.5C8.4 18.84 8 18.27 7.38 17.8C6.76 17.34 6.1 17.1 5.41 17.1C4.36 17.1 3.5 17.5 2.85 18.3L4.21 19.42C4.5 19.03 4.92 18.84 5.41 18.84C6.21 18.84 6.71 19.21 6.9 19.95C7.09 20.62 7.5 21.19 8.12 21.67C8.74 22.15 9.4 22.4 10.09 22.4C11.33 22.4 12.28 21.83 12.94 20.7L19.68 11.39C19.93 11.04 20.03 10.64 20 10.2C19.95 9.75 19.77 9.38 19.47 9.08L13.69 3.46Z" /></svg>