<?xml version="1.0" encoding="UTF-8"?><!DOCTYPE svg PUBLIC "-//W3C//DTD SVG 1.1//EN" "http://www.w3.org/Graphics/SVG/1.1/DTD/svg11.dtd"><svg xmlns="http://www.w3.org/2000/svg" xmlns:xlink="http://www.w3.org/1999/xlink" version="1.1" id="mdi-language-python-text" width="24" height="24" viewBox="0 0 24 24"><path d="M14.68 6.65Q16 9.32 16 12 16 14.72 14.68 17.35L13.32 16.65Q14.5 14.35 14.5 12 14.5 9.65 13.32 7.31M11.53 7.96Q12.5 9.7 12.5 11.86 12.5 14.07 11.53 15.94L10.22 15.29Q11 13.6 11 11.86 11 10.17 10.22 8.71M8.43 9.56Q9 10.78 9 12.05 9 13.17 8.43 14.44L7.07 13.83Q7.5 13 7.5 12.05 7.5 11.06 7.07 10.17M12 22Q16.13 22 19.07 19.07 22 16.13 22 12 22 7.87 19.07 4.93 16.13 2 12 2 7.87 2 4.93 4.93 2 7.87 2 12 2 16.13 4.93 19.07 7.87 22 12 22Z" /></svg>