<?xml version="1.0" encoding="UTF-8"?><!DOCTYPE svg PUBLIC "-//W3C//DTD SVG 1.1//EN" "http://www.w3.org/Graphics/SVG/1.1/DTD/svg11.dtd"><svg xmlns="http://www.w3.org/2000/svg" xmlns:xlink="http://www.w3.org/1999/xlink" version="1.1" id="mdi-laser-pointer" width="24" height="24" viewBox="0 0 24 24"><path d="M9 13L5 16C4 16.88 3.86 18.12 4 19C4.13 20 4.91 21.22 6 21.68C7.57 22.35 9.09 21.9 10.04 20.92L19 13C20.86 11.62 20 9 18 9H12L19.46 4.61C19.9 4.29 20.08 3.82 20.06 3.37C20 2.67 19.46 2 18.6 2H18.54C18.19 2 17.86 2.11 17.56 2.29L5 9C4.19 9.46 3.94 10.24 4 11C4.05 12.03 4.74 13 6 13M5 18.5C5 17.12 6.12 16 7.5 16S10 17.12 10 18.5 8.88 21 7.5 21 5 19.88 5 18.5Z" /></svg>