<svg xmlns="http://www.w3.org/2000/svg" id="mdi-lasso" viewBox="0 0 24 24"><path d="M22 9C22 5.13 17.5 2 12 2C6.5 2 2 5.13 2 9C2 9.00843 2.00002 9.01685 2.00006 9.02527C2.00952 10.8953 3.06771 12.5956 4.78 13.85C4.78103 13.847 4.78207 13.844 4.7831 13.841C5.18858 14.1369 5.63069 14.408 6.10419 14.6507C6.03614 14.9227 6 15.2072 6 15.5C6 16.76 6.67 17.87 7.67 18.5C7.46 19.11 6.97 20.96 8.3 22.05C9.91 23.38 11.66 22.97 12.56 22.69C12.8116 22.6126 13.0655 22.5076 13.3395 22.3944C14.0563 22.0981 14.9105 21.7451 16.22 21.68C17.6764 21.5995 18.9321 21.8104 19.5651 21.9167C19.7188 21.9425 19.8358 21.9622 19.91 21.97C19.91 21.97 20.86 21.97 20.97 21.04C21.08 20.1 20.03 19.97 20.03 19.97C20.03 19.97 18.43 19.7 16.39 19.71C14.9823 19.7145 13.7447 20.1595 12.703 20.5341C11.4434 20.987 10.4704 21.3368 9.83 20.68C9.18 20 9.39 19.36 9.6 19C11.3416 18.9542 12.7471 17.6481 12.9693 15.9673C13.4921 15.9319 14.0034 15.8699 14.5 15.78C18.6753 15.0244 21.7995 12.4293 21.9907 9.30406C21.9969 9.20324 22 9.10187 22 9ZM20 9C20 10.2554 19.2572 11.4047 18.032 12.2843C16.6998 13.2393 14.7966 13.8752 12.6542 13.9835C12.0881 12.8109 10.887 12 9.5 12C8.57261 12 7.72834 12.3625 7.10143 12.9533C6.61638 12.7181 6.17578 12.4489 5.78883 12.1513L5.79 12.15C4.6875 11.3034 4.02105 10.2243 4.00049 9.05571C4.00016 9.03717 4 9.01859 4 9C4 6.24 7.58 4 12 4C16.42 4 20 6.24 20 9ZM10.9988 15.5603C10.9933 15.6993 10.9689 15.8333 10.9281 15.96C10.7345 16.5641 10.1694 17 9.5 17C8.67 17 8 16.33 8 15.5C8 15.4718 8.00078 15.4437 8.00231 15.4159C8.04595 14.6266 8.69981 14 9.5 14C10.3284 14 11 14.6716 11 15.5C11 15.5202 10.9996 15.5403 10.9988 15.5603Z" /></svg>