<svg xmlns="http://www.w3.org/2000/svg" id="mdi-lightbulb-on-50" viewBox="0 0 24 24"><path d="M1 11H4V13H1V11M10 22C10 22.6 10.4 23 11 23H13C13.6 23 14 22.6 14 22V21H10V22M13 1H11V4H13V1M4.9 3.5L3.5 4.9L5.6 7L7 5.6L4.9 3.5M20 11V13H23V11H20M19.1 3.5L17 5.6L18.4 7L20.5 4.9L19.1 3.5M18 12C18 14.2 16.8 16.2 15 17.2V19C15 19.6 14.6 20 14 20H10C9.4 20 9 19.6 9 19V17.2C7.2 16.2 6 14.2 6 12C6 8.7 8.7 6 12 6S18 8.7 18 12M8 12C8 12.35 8.05 12.68 8.14 13H15.86C15.95 12.68 16 12.35 16 12C16 9.79 14.21 8 12 8S8 9.79 8 12Z" /></svg>