<?xml version="1.0" encoding="UTF-8"?><!DOCTYPE svg PUBLIC "-//W3C//DTD SVG 1.1//EN" "http://www.w3.org/Graphics/SVG/1.1/DTD/svg11.dtd"><svg xmlns="http://www.w3.org/2000/svg" xmlns:xlink="http://www.w3.org/1999/xlink" version="1.1" id="mdi-lightbulb-multiple-outline" width="24" height="24" viewBox="0 0 24 24"><path d="M11 21A1 1 0 0 0 12 22H14A1 1 0 0 0 15 21V20H11M13 7A5 5 0 0 0 10 16V18A1 1 0 0 0 11 19H15A1 1 0 0 0 16 18V16A5 5 0 0 0 13 7M14 14.82V17H12V14.82A3 3 0 1 1 14 14.82M6.68 15H6V16A1 1 0 0 0 7 17H8V16.88A7 7 0 0 1 6.68 15M12.6 5A5 5 0 1 0 5 11V13A1 1 0 0 0 6 14H6.3A6.68 6.68 0 0 1 6 12A7 7 0 0 1 12.6 5Z" /></svg>