<?xml version="1.0" encoding="UTF-8"?><!DOCTYPE svg PUBLIC "-//W3C//DTD SVG 1.1//EN" "http://www.w3.org/Graphics/SVG/1.1/DTD/svg11.dtd"><svg xmlns="http://www.w3.org/2000/svg" xmlns:xlink="http://www.w3.org/1999/xlink" version="1.1" id="mdi-lock-open-alert-outline" width="24" height="24" viewBox="0 0 24 24"><path d="M16 20V10H4V20H16M16 8C17.1 8 18 8.9 18 10V20C18 21.1 17.1 22 16 22H4C2.9 22 2 21.1 2 20V10C2 8.9 2.9 8 4 8H13V6C13 4.3 11.7 3 10 3S7 4.3 7 6H5C5 3.2 7.2 1 10 1S15 3.2 15 6V8H16M10 17C8.9 17 8 16.1 8 15S8.9 13 10 13 12 13.9 12 15 11.1 17 10 17M22 7H20V13H22V7M22 15H20V17H22V15Z" /></svg>