<?xml version="1.0" encoding="UTF-8"?><!DOCTYPE svg PUBLIC "-//W3C//DTD SVG 1.1//EN" "http://www.w3.org/Graphics/SVG/1.1/DTD/svg11.dtd"><svg xmlns="http://www.w3.org/2000/svg" xmlns:xlink="http://www.w3.org/1999/xlink" version="1.1" id="mdi-map-marker-star-outline" width="24" height="24" viewBox="0 0 24 24"><path d="M12 2C15.9 2 19 5.1 19 9C19 14.2 12 22 12 22S5 14.2 5 9C5 5.1 8.1 2 12 2M12 4C9.2 4 7 6.2 7 9C7 10 7 12 12 18.7C17 12 17 10 17 9C17 6.2 14.8 4 12 4M12 11.5L14.4 13L13.8 10.2L16 8.3L13.1 8.1L12 5.4L10.9 8L8 8.3L10.2 10.2L9.5 13L12 11.5Z" /></svg>