<svg xmlns="http://www.w3.org/2000/svg" id="mdi-meditation" viewBox="0 0 24 24"><path d="M12 4C13.11 4 14 4.89 14 6S13.11 8 12 8 10 7.11 10 6 10.9 4 12 4M21 16V14C18.76 14 16.84 13.04 15.4 11.32L14.06 9.72C13.68 9.26 13.12 9 12.53 9H11.5C10.89 9 10.33 9.26 9.95 9.72L8.61 11.32C7.16 13.04 5.24 14 3 14V16C5.77 16 8.19 14.83 10 12.75V15L6.12 16.55C5.45 16.82 5 17.5 5 18.21C5 19.2 5.8 20 6.79 20H9V19.5C9 18.12 10.12 17 11.5 17H14.5C14.78 17 15 17.22 15 17.5S14.78 18 14.5 18H11.5C10.67 18 10 18.67 10 19.5V20H17.21C18.2 20 19 19.2 19 18.21C19 17.5 18.55 16.82 17.88 16.55L14 15V12.75C15.81 14.83 18.23 16 21 16Z" /></svg>