<svg xmlns="http://www.w3.org/2000/svg" id="mdi-menorah-fire" viewBox="0 0 24 24"><path d="M21.5 11.15V10C21.5 9.45 21.05 9 20.5 9H19.5C18.95 9 18.5 9.45 18.5 10V11H17.5V10C17.5 9.45 17.05 9 16.5 9H15.5C14.95 9 14.5 9.45 14.5 10V11H13.5V8C13.5 7.45 13.05 7 12.5 7H11.5C10.95 7 10.5 7.45 10.5 8V11H9.5V10C9.5 9.45 9.05 9 8.5 9H7.5C6.95 9 6.5 9.45 6.5 10V11H5.5V10C5.5 9.45 5.05 9 4.5 9H3.5C2.95 9 2.5 9.45 2.5 10V11.15C2.21 11.33 2 11.63 2 12C2 12.55 2.45 13 3 13H4.25C4.95 14.92 6.94 17.58 11 17.95V20H10C8.9 20 8 20.9 8 22H16C16 20.9 15.11 20 14 20H13V17.95C17.06 17.57 19.05 14.92 19.75 13H21C21.55 13 22 12.55 22 12C22 11.63 21.79 11.33 21.5 11.15M6.45 13H11V15.94C8.34 15.63 7.05 14.11 6.45 13M13 15.94V13H17.55C16.95 14.11 15.66 15.63 13 15.94M12 6C12.83 6 13.5 5.33 13.5 4.5C13.5 3.67 12.83 2 12 2S10.5 3.67 10.5 4.5C10.5 5.33 11.17 6 12 6M12 4.25C12.28 4.25 12.5 4.47 12.5 4.75S12.28 5.25 12 5.25 11.5 5.03 11.5 4.75 11.72 4.25 12 4.25M16 8C16.83 8 17.5 7.33 17.5 6.5C17.5 5.67 16.83 4 16 4S14.5 5.67 14.5 6.5C14.5 7.33 15.17 8 16 8M16 6.25C16.28 6.25 16.5 6.47 16.5 6.75S16.28 7.25 16 7.25 15.5 7.03 15.5 6.75 15.72 6.25 16 6.25M20 8C20.83 8 21.5 7.33 21.5 6.5C21.5 5.67 20.83 4 20 4S18.5 5.67 18.5 6.5C18.5 7.33 19.17 8 20 8M20 6.25C20.28 6.25 20.5 6.47 20.5 6.75S20.28 7.25 20 7.25 19.5 7.03 19.5 6.75 19.72 6.25 20 6.25M4 8C4.83 8 5.5 7.33 5.5 6.5C5.5 5.67 4.83 4 4 4S2.5 5.67 2.5 6.5C2.5 7.33 3.17 8 4 8M4 6.25C4.28 6.25 4.5 6.47 4.5 6.75S4.28 7.25 4 7.25 3.5 7.03 3.5 6.75 3.72 6.25 4 6.25M8 8C8.83 8 9.5 7.33 9.5 6.5C9.5 5.67 8.83 4 8 4S6.5 5.67 6.5 6.5C6.5 7.33 7.17 8 8 8M8 6.25C8.28 6.25 8.5 6.47 8.5 6.75S8.28 7.25 8 7.25 7.5 7.03 7.5 6.75 7.72 6.25 8 6.25Z" /></svg>