<svg xmlns="http://www.w3.org/2000/svg" id="mdi-minus-circle-off-outline" viewBox="0 0 24 24"><path d="M22.1 21.5L2.4 1.7L1.1 3L4.1 6C2.8 7.6 2 9.7 2 12C2 17.5 6.5 22 12 22C14.3 22 16.4 21.2 18 19.9L20.8 22.7L22.1 21.5M12 20C7.6 20 4 16.4 4 12C4 10.3 4.6 8.7 5.5 7.4L9.1 11H7V13H11.1L16.6 18.5C15.3 19.4 13.7 20 12 20M8.2 5L6.7 3.5C8.3 2.6 10.1 2 12 2C17.5 2 22 6.5 22 12C22 13.9 21.4 15.7 20.5 17.3L19 15.8C19.6 14.7 20 13.4 20 12C20 7.6 16.4 4 12 4C10.6 4 9.3 4.4 8.2 5M16.2 13L14.2 11H17V13H16.2Z" /></svg>