<svg xmlns="http://www.w3.org/2000/svg" id="mdi-mosque-outline" viewBox="0 0 24 24"><path d="M24 7C24 5.9 22 4 22 4S20 5.9 20 7C20 7.7 20.4 8.4 21 8.7V13H19V11C19 10.1 18.3 9.3 17.5 9.1C17.8 8.5 18 7.9 18 7.1C18 5.8 17.4 4.6 16.3 3.9L12 1L7.7 3.8C6.7 4.6 6 5.8 6 7.1C6 7.8 6.2 8.5 6.6 9.1C5.7 9.3 5 10.1 5 11V13H3V8.7C3.6 8.4 4 7.7 4 7C4 5.9 2 4 2 4S0 5.9 0 7C0 7.7 .4 8.4 1 8.7V21H11V17C11 16.5 11.4 16 12 16S13 16.5 13 17V21H23V8.7C23.6 8.4 24 7.7 24 7M8.9 5.5L12 3.4L15.1 5.5C15.7 5.9 16 6.4 16 7.1C16 8.1 15.1 9 14.1 9H9.9C8.9 9 8 8.1 8 7.1C8 6.4 8.3 5.9 8.9 5.5M21 19H15V17C15 15.4 13.6 14 12 14S9 15.4 9 17V19H3V15H7V11H17V15H21V19Z" /></svg>