<?xml version="1.0" encoding="UTF-8"?><!DOCTYPE svg PUBLIC "-//W3C//DTD SVG 1.1//EN" "http://www.w3.org/Graphics/SVG/1.1/DTD/svg11.dtd"><svg xmlns="http://www.w3.org/2000/svg" xmlns:xlink="http://www.w3.org/1999/xlink" version="1.1" id="mdi-motion-pause-outline" width="24" height="24" viewBox="0 0 24 24"><path d="M22 12C22 6.46 17.54 2 12 2C10.83 2 9.7 2.19 8.62 2.56L9.32 4.5C10.17 4.16 11.06 3.97 12 3.97C16.41 3.97 20.03 7.59 20.03 12C20.03 16.41 16.41 20.03 12 20.03C7.59 20.03 3.97 16.41 3.97 12C3.97 11.06 4.16 10.12 4.5 9.28L2.56 8.62C2.19 9.7 2 10.83 2 12C2 17.54 6.46 22 12 22C17.54 22 22 17.54 22 12M5.47 7C4.68 7 3.97 6.32 3.97 5.47C3.97 4.68 4.68 3.97 5.47 3.97C6.32 3.97 7 4.68 7 5.47C7 6.32 6.32 7 5.47 7M9 9H11V15H9M13 9H15V15H13" /></svg>