<svg xmlns="http://www.w3.org/2000/svg" id="mdi-movie-open-star-outline" viewBox="0 0 24 24"><path d="M19.65 6.5L16.91 2.96L20.84 2.18L21.62 6.1L19.65 6.5M16.71 7.07L13.97 3.54L12 3.93L14.75 7.46L16.71 7.07M4.16 5.5L3.18 5.69C2.1 5.9 1.39 6.96 1.61 8.04L2 10L6.9 9.03L4.16 5.5M11.81 8.05L9.07 4.5L7.1 4.91L9.85 8.44L11.81 8.05M4 20V12H20V13.09C20.72 13.21 21.39 13.46 22 13.81V10H2V20C2 21.11 2.9 22 4 22H13.81C13.46 21.39 13.22 20.72 13.09 20H4M23 17.89L20.11 17.64L19 15L17.87 17.64L15 17.89L17.18 19.77L16.5 22.58L19 21.09L21.45 22.58L20.8 19.77L23 17.89Z" /></svg>