<?xml version="1.0" encoding="UTF-8"?><!DOCTYPE svg PUBLIC "-//W3C//DTD SVG 1.1//EN" "http://www.w3.org/Graphics/SVG/1.1/DTD/svg11.dtd"><svg xmlns="http://www.w3.org/2000/svg" xmlns:xlink="http://www.w3.org/1999/xlink" version="1.1" id="mdi-movie-open-settings" width="24" height="24" viewBox="0 0 24 24"><path d="M14.75 5.46L12 1.93L13.97 1.54L16.71 5.07L14.75 5.46M21.62 4.1L20.84 .18L16.91 .96L19.65 4.5L21.62 4.1M11.81 6.05L9.07 2.5L7.1 2.91L9.85 6.44L11.81 6.05M2 8V18C2 19.11 2.9 20 4 20H20C21.11 20 22 19.11 22 18V8H2M4.16 3.5L3.18 3.69C2.1 3.91 1.4 4.96 1.61 6.04L2 8L6.9 7.03L4.16 3.5M11 24H13V22H11V24M7 24H9V22H7V24M15 24H17V22H15V24Z" /></svg>