<svg xmlns="http://www.w3.org/2000/svg" id="mdi-movie-open-edit" viewBox="0 0 24 24"><path d="M19.65 6.5L16.91 2.96L20.84 2.18L21.62 6.1L19.65 6.5M16.71 7.07L13.97 3.54L12 3.93L14.75 7.46L16.71 7.07M2 10V20C2 21.11 2.9 22 4 22H11V19.13L20.13 10H2M11.81 8.05L9.07 4.5L7.1 4.91L9.85 8.44L11.81 8.05M4.16 5.5L3.18 5.69C2.1 5.91 1.4 6.96 1.61 8.04L2 10L6.9 9.03L4.16 5.5M13 19.96V22H15.04L21.17 15.88L19.13 13.83L13 19.96M22.85 13.47L21.53 12.15C21.33 11.95 21 11.95 20.81 12.15L19.83 13.13L21.87 15.17L22.85 14.19C23.05 14 23.05 13.67 22.85 13.47Z" /></svg>