<svg xmlns="http://www.w3.org/2000/svg" id="mdi-notebook-heart-outline" viewBox="0 0 24 24"><path d="M19 23.3L18.4 22.8C16.4 20.9 15 19.7 15 18.2C15 17 16 16 17.2 16C17.9 16 18.6 16.3 19 16.8C19.4 16.3 20.1 16 20.8 16C22 16 23 16.9 23 18.2C23 19.7 21.6 20.9 19.6 22.8L19 23.3M17 4V10L15 8L13 10V4H9V20H13.08C13.2 20.72 13.45 21.39 13.8 22H7C5.95 22 5 21.05 5 20V19H3V17H5V13H3V11H5V7H3V5H5V4C5 2.89 5.9 2 7 2H19C20.05 2 21 2.95 21 4V13.34C20.37 13.12 19.7 13 19 13V4H17M5 19H7V17H5V19M5 13H7V11H5V13M5 7H7V5H5V7Z" /></svg>