<?xml version="1.0" encoding="UTF-8"?><!DOCTYPE svg PUBLIC "-//W3C//DTD SVG 1.1//EN" "http://www.w3.org/Graphics/SVG/1.1/DTD/svg11.dtd"><svg xmlns="http://www.w3.org/2000/svg" xmlns:xlink="http://www.w3.org/1999/xlink" version="1.1" id="mdi-notebook-edit-outline" width="24" height="24" viewBox="0 0 24 24"><path d="M19.07 14.88L21.12 16.93L15.06 23H13V20.94L19.07 14.88M21.04 13.13C21.18 13.13 21.31 13.19 21.42 13.3L22.7 14.58C22.92 14.79 22.92 15.14 22.7 15.35L21.7 16.35L19.65 14.3L20.65 13.3C20.76 13.19 20.9 13.13 21.04 13.13M17 4V10L15 8L13 10V4H9V20H11V22H7C5.95 22 5 21.05 5 20V19H3V17H5V13H3V11H5V7H3V5H5V4C5 2.89 5.9 2 7 2H19C20.05 2 21 2.95 21 4V10L19 12V4H17M5 5V7H7V5H5M5 11V13H7V11H5M5 17V19H7V17H5Z" /></svg>