<?xml version="1.0" encoding="UTF-8"?><!DOCTYPE svg PUBLIC "-//W3C//DTD SVG 1.1//EN" "http://www.w3.org/Graphics/SVG/1.1/DTD/svg11.dtd"><svg xmlns="http://www.w3.org/2000/svg" xmlns:xlink="http://www.w3.org/1999/xlink" version="1.1" id="mdi-notebook-remove-outline" width="24" height="24" viewBox="0 0 24 24"><path d="M17 4V10L15 8L13 10V4H9V20H12.1C12.2 20.7 12.5 21.4 12.8 22H7C5.9 22 5 21 5 20V19H3V17H5V13H3V11H5V7H3V5H5V4C5 2.9 5.9 2 7 2H19C20 2 21 3 21 4V13.8C20.4 13.4 19.7 13.2 19 13.1V4H17M5 19H7V17H5V19M5 13H7V11H5V13M5 7H7V5H5V7M20.1 15.5L18 17.6L15.9 15.5L14.5 16.9L16.6 19L14.5 21.1L15.9 22.5L18 20.4L20.1 22.5L21.5 21.1L19.4 19L21.5 16.9L20.1 15.5Z" /></svg>