<?xml version="1.0" encoding="UTF-8"?><!DOCTYPE svg PUBLIC "-//W3C//DTD SVG 1.1//EN" "http://www.w3.org/Graphics/SVG/1.1/DTD/svg11.dtd"><svg xmlns="http://www.w3.org/2000/svg" xmlns:xlink="http://www.w3.org/1999/xlink" version="1.1" id="mdi-orbit-variant" width="24" height="24" viewBox="0 0 24 24"><path d="M19 8L15 12H18C18 15.31 15.31 18 12 18C11 18 10.03 17.75 9.2 17.3L7.74 18.76C8.97 19.54 10.43 20 12 20C16.42 20 20 16.42 20 12H23M6 12C6 8.69 8.69 6 12 6C13 6 13.97 6.25 14.8 6.7L16.26 5.24C15.03 4.46 13.57 4 12 4C7.58 4 4 7.58 4 12H1L5 16L9 12M14 12C14 13.11 13.11 14 12 14S10 13.11 10 12 10.9 10 12 10 14 10.9 14 12Z" /></svg>