<svg xmlns="http://www.w3.org/2000/svg" id="mdi-package-variant-closed-check" viewBox="0 0 24 24"><path d="M12 2C11.8 2 11.6 2.1 11.4 2.2L3.5 6.6C3.2 6.8 3 7.1 3 7.5V16.5C3 16.9 3.2 17.2 3.5 17.4L11.4 21.8C11.6 21.9 11.8 22 12 22S12.4 21.9 12.6 21.8L13.5 21.3C13.2 20.7 13.1 20 13 19.3V12.6L19 9.2V13C19.7 13 20.4 13.1 21 13.3V7.5C21 7.1 20.8 6.8 20.5 6.6L12.6 2.2C12.4 2.1 12.2 2 12 2M12 4.2L18 7.5L16 8.6L10.1 5.2L12 4.2M8.1 6.3L14 9.8L12 10.9L6 7.5L8.1 6.3M5 9.2L11 12.6V19.3L5 15.9V9.2M21.3 15.8L17.7 19.4L16.1 17.8L15 19L17.8 22L22.6 17.2L21.3 15.8Z" /></svg>