<?xml version="1.0" encoding="UTF-8"?><!DOCTYPE svg PUBLIC "-//W3C//DTD SVG 1.1//EN" "http://www.w3.org/Graphics/SVG/1.1/DTD/svg11.dtd"><svg xmlns="http://www.w3.org/2000/svg" xmlns:xlink="http://www.w3.org/1999/xlink" version="1.1" id="mdi-pail-remove-outline" width="24" height="24" viewBox="0 0 24 24"><path d="M4 6H3V4H21V6H20L18.6 13C17.83 13.07 17.11 13.26 16.45 13.58L17.96 6H6.04L6.5 8.22L4.65 9.27L4 6M12.86 8C12.58 7.5 11.97 7.35 11.5 7.63L3.27 12.38C2.79 12.66 2.62 13.27 2.9 13.75C3.18 14.23 3.79 14.39 4.27 14.11L12.5 9.36C12.97 9.09 13.14 8.47 12.86 8M13 19H8.64L7.73 14.43L5.9 15.5L7 21H13.35C13.13 20.37 13 19.7 13 19M21.12 15.46L19 17.59L16.88 15.46L15.46 16.88L17.58 19L15.46 21.12L16.87 22.54L19 20.41L21.12 22.54L22.53 21.12L20.41 19L22.53 16.88L21.12 15.46Z" /></svg>