<svg xmlns="http://www.w3.org/2000/svg" id="mdi-panorama-sphere" viewBox="0 0 24 24"><path d="M22 8.1C21.7 8 21.3 7.8 21 7.7C19.4 4.3 16 2 12 2S4.6 4.3 3 7.7C2.7 7.8 2.3 8 2.1 8.1C1.4 8.5 1 9.2 1 9.9V14.1C1 14.8 1.4 15.5 2 15.9C2.3 16 2.7 16.2 3 16.3C4.6 19.7 8 22 12 22S19.4 19.7 21 16.3C21.3 16.2 21.6 16 21.9 15.8C22.5 15.4 23 14.8 23 14V9.9C23 9.2 22.6 8.5 22 8.1M12 4C14.4 4 16.5 5 18 6.7C16.2 6.2 14.1 6 12 6S7.8 6.2 6.1 6.7C7.5 5 9.6 4 12 4M12 20C9.6 20 7.5 19 6.1 17.3C7.8 17.8 9.9 18 12 18S16.2 17.8 18 17.3C16.5 19 14.4 20 12 20Z" /></svg>