<svg xmlns="http://www.w3.org/2000/svg" id="mdi-passport-alert" viewBox="0 0 24 24"><path d="M10 6C9.59 6.62 9.25 7.29 9.04 8H10.96C10.75 7.29 10.42 6.62 10 6M8.7 6.22C7.78 6.53 7 7.17 6.54 8H8C8.18 7.38 8.4 6.78 8.7 6.22M11.29 6.22C11.59 6.78 11.82 7.38 12 8H13.46C13 7.17 12.21 6.54 11.29 6.22M6.13 9C6.05 9.32 6 9.65 6 10C6 10.35 6.05 10.68 6.13 11H7.82C7.78 10.67 7.75 10.34 7.75 10C7.75 9.66 7.78 9.33 7.82 9H6.13M8.83 9C8.78 9.32 8.75 9.66 8.75 10C8.75 10.34 8.78 10.67 8.83 11H11.17C11.21 10.67 11.25 10.34 11.25 10C11.25 9.66 11.21 9.32 11.17 9H8.83M12.18 9C12.22 9.33 12.25 9.66 12.25 10C12.25 10.34 12.22 10.67 12.18 11H13.87C13.95 10.68 14 10.35 14 10C14 9.65 13.95 9.32 13.87 9H12.18M6.54 12C7 12.83 7.78 13.46 8.7 13.78C8.4 13.22 8.18 12.63 8 12H6.54M9.04 12C9.25 12.72 9.59 13.38 10 14C10.42 13.38 10.75 12.72 10.96 12H9.04M12 12C11.82 12.63 11.59 13.22 11.29 13.78C12.21 13.46 13 12.83 13.46 12H12M4 2C3.47 2 2.96 2.21 2.59 2.59C2.21 2.96 2 3.47 2 4V20C2 20.53 2.21 21.04 2.59 21.41C2.96 21.79 3.47 22 4 22H16C16.53 22 17.04 21.79 17.41 21.41C17.79 21.04 18 20.53 18 20V4C18 3.47 17.79 2.96 17.41 2.59C17.04 2.21 16.53 2 16 2H4M10 5C11.33 5 12.6 5.53 13.54 6.46C14.47 7.4 15 8.67 15 10C15 11.33 14.47 12.6 13.54 13.54C12.6 14.47 11.33 15 10 15C8.67 15 7.4 14.47 6.46 13.54C5.53 12.6 5 11.33 5 10C5 8.67 5.53 7.4 6.46 6.46C7.4 5.53 8.67 5 10 5M15 17V19H5V17H15M20 7H22V13H20V7M22 15H20V17H22V15Z" /></svg>