<svg xmlns="http://www.w3.org/2000/svg" id="mdi-passport-check" viewBox="0 0 24 24"><path d="M12 6C11.59 6.62 11.25 7.29 11.04 8H12.96C12.75 7.29 12.42 6.62 12 6M10.7 6.22C9.78 6.53 9 7.17 8.54 8H10C10.18 7.38 10.4 6.78 10.7 6.22M13.29 6.22C13.59 6.78 13.82 7.38 14 8H15.46C15 7.17 14.21 6.54 13.29 6.22M8.13 9C8.05 9.32 8 9.65 8 10C8 10.35 8.05 10.68 8.13 11H9.82C9.78 10.67 9.75 10.34 9.75 10C9.75 9.66 9.78 9.33 9.82 9H8.13M10.83 9C10.78 9.32 10.75 9.66 10.75 10C10.75 10.34 10.78 10.67 10.83 11H13.17C13.21 10.67 13.25 10.34 13.25 10C13.25 9.66 13.21 9.32 13.17 9H10.83M14.18 9C14.22 9.33 14.25 9.66 14.25 10C14.25 10.34 14.22 10.67 14.18 11H15.87C15.95 10.68 16 10.35 16 10C16 9.65 15.95 9.32 15.87 9H14.18M8.54 12C9 12.83 9.78 13.46 10.7 13.78C10.4 13.22 10.18 12.63 10 12H8.54M11.04 12C11.25 12.72 11.59 13.38 12 14C12.42 13.38 12.75 12.72 12.96 12H11.04M14 12C13.82 12.63 13.59 13.22 13.29 13.78C14.21 13.46 15 12.83 15.46 12H14M6 2C5.47 2 4.96 2.21 4.59 2.59C4.21 2.96 4 3.47 4 4V20C4 20.53 4.21 21.04 4.59 21.41C4.96 21.79 5.47 22 6 22H14.8C14.29 21.12 14 20.09 14 19H7V17H14.34C15.17 14.67 17.39 13 20 13V4C20 3.47 19.79 2.96 19.41 2.59C19.04 2.21 18.53 2 18 2H6M12 5C13.33 5 14.6 5.53 15.54 6.46C16.47 7.4 17 8.67 17 10C17 11.33 16.47 12.6 15.54 13.54C14.6 14.47 13.33 15 12 15C10.67 15 9.4 14.47 8.46 13.54C7.53 12.6 7 11.33 7 10C7 8.67 7.53 7.4 8.46 6.46C9.4 5.53 10.67 5 12 5M18.75 22.16L16 19.16L17.16 18L18.75 19.59L22.34 16L23.5 17.41L18.75 22.16Z" /></svg>