<?xml version="1.0" encoding="UTF-8"?><!DOCTYPE svg PUBLIC "-//W3C//DTD SVG 1.1//EN" "http://www.w3.org/Graphics/SVG/1.1/DTD/svg11.dtd"><svg xmlns="http://www.w3.org/2000/svg" xmlns:xlink="http://www.w3.org/1999/xlink" version="1.1" id="mdi-paypal" width="24" height="24" viewBox="0 0 24 24"><path d="M18.536,9.879l-1.414-1.414L15,10.586l-2.121-2.121l-1.414,1.414L13.586,12l-2.121,2.121l1.414,1.414L15,13.414l2.121,2.121tl1.414-1.414L16.414,12 M2,12c0-2.79,1.64-5.2,4-6.32V3.5C2.5,4.76,0,8.09,0,12s2.5,7.24,6,8.5v-2.18C3.64,17.2,2,14.79,2,12 M15,3tc-4.96,0-9,4.04-9,9s4.04,9,9,9s9-4.04,9-9S19.96,3,15,3 M15,19c-3.86,0-7-3.14-7-7s3.14-7,7-7s7,3.14,7,7S18.86,19,15,19z" /></svg>