<svg xmlns="http://www.w3.org/2000/svg" id="mdi-phone-refresh" viewBox="0 0 24 24"><path d="M6.62 10.79C8.06 13.62 10.38 15.94 13.21 17.38L15.41 15.18C15.69 14.9 16.08 14.82 16.43 14.93C17.55 15.3 18.75 15.5 20 15.5C20.55 15.5 21 15.95 21 16.5V20C21 20.55 20.55 21 20 21C10.61 21 3 13.39 3 4C3 3.45 3.45 3 4 3H7.5C8.05 3 8.5 3.45 8.5 4C8.5 5.25 8.7 6.45 9.07 7.57C9.18 7.92 9.1 8.31 8.82 8.59L6.62 10.79M17 7L18.77 5.23C18.32 4.78 17.69 4.5 17 4.5C15.62 4.5 14.5 5.62 14.5 7S15.62 9.5 17 9.5C17.82 9.5 18.54 9.11 19 8.5H20.71C20.12 9.97 18.68 11 17 11C14.79 11 13 9.21 13 7S14.79 3 17 3C18.11 3 19.11 3.45 19.83 4.17L21 3V7H17Z" /></svg>