<svg xmlns="http://www.w3.org/2000/svg" id="mdi-phone-sync-outline" viewBox="0 0 24 24"><path d="M20 15.5C18.8 15.5 17.5 15.3 16.4 14.9H16.1C15.8 14.9 15.6 15 15.4 15.2L13.2 17.4C10.4 15.9 8 13.6 6.6 10.8L8.8 8.6C9.1 8.3 9.2 7.9 9 7.6C8.7 6.5 8.5 5.2 8.5 4C8.5 3.5 8 3 7.5 3H4C3.5 3 3 3.5 3 4C3 13.4 10.6 21 20 21C20.5 21 21 20.5 21 20V16.5C21 16 20.5 15.5 20 15.5M5 5H6.5C6.6 5.9 6.8 6.8 7 7.6L5.8 8.8C5.4 7.6 5.1 6.3 5 5M19 19C17.7 18.9 16.4 18.6 15.2 18.2L16.4 17C17.2 17.2 18.1 17.4 19 17.4V19M17 3V1.5L14.75 3.75L17 6V4.5C18.38 4.5 19.5 5.62 19.5 7C19.5 7.4 19.41 7.78 19.24 8.12L20.33 9.21C20.75 8.58 21 7.82 21 7C21 4.79 19.21 3 17 3M17 9.5C15.62 9.5 14.5 8.38 14.5 7C14.5 6.6 14.59 6.22 14.76 5.88L13.67 4.79C13.25 5.42 13 6.18 13 7C13 9.21 14.79 11 17 11V12.5L19.25 10.25L17 8V9.5Z" /></svg>