<?xml version="1.0" encoding="UTF-8"?><!DOCTYPE svg PUBLIC "-//W3C//DTD SVG 1.1//EN" "http://www.w3.org/Graphics/SVG/1.1/DTD/svg11.dtd"><svg xmlns="http://www.w3.org/2000/svg" xmlns:xlink="http://www.w3.org/1999/xlink" version="1.1" id="mdi-plus-lock-open" width="24" height="24" viewBox="0 0 24 24"><path d="M11 5V11H5V13H11V19H13V13H19V11H13V5H11M19 15C17.95 15 16.9 15.8 16.9 16.82V18.64C16.45 18.64 16 19.07 16 19.5V22.05C16 22.56 16.45 23 16.9 23H21.03C21.55 23 22 22.56 22 22.13V19.58C22 19.07 21.55 18.64 21.1 18.64H17.88V16.82C17.88 16.24 18.4 15.87 19 15.87S20.13 16.24 20.13 16.82V17.18H21.1V16.82C21.1 15.8 20.05 15 19 15Z" /></svg>