<?xml version="1.0" encoding="UTF-8"?><!DOCTYPE svg PUBLIC "-//W3C//DTD SVG 1.1//EN" "http://www.w3.org/Graphics/SVG/1.1/DTD/svg11.dtd"><svg xmlns="http://www.w3.org/2000/svg" xmlns:xlink="http://www.w3.org/1999/xlink" version="1.1" id="mdi-power-plug-off-outline" width="24" height="24" viewBox="0 0 24 24"><path d="M22.11 21.46L2.39 1.73L1.11 3L6.25 8.14C6.1 8.41 6 8.7 6 9V14.5L9.5 18V21H14.5V18L15.31 17.2L20.84 22.73L22.11 21.46M13.09 16.59L12.67 17H11.33L10.92 16.59L8 13.67V9.89L13.89 15.78L13.09 16.59M12.2 9L10.2 7H14V3H16V7C17 7 18 8 18 9V14.5L17.85 14.65L16 12.8V9.09C16 9.06 15.95 9 15.92 9H12.2M10 6.8L8 4.8V3H10V6.8Z" /></svg>