<svg xmlns="http://www.w3.org/2000/svg" id="mdi-printer-pos-refresh-outline" viewBox="0 0 24 24"><path d="M7 15V13H11V15H7M22 18.5V14.5L20.83 15.67C20.11 14.95 19.11 14.5 18 14.5C15.79 14.5 14 16.29 14 18.5S15.79 22.5 18 22.5C19.68 22.5 21.12 21.47 21.71 20H20C19.54 20.61 18.82 21 18 21C16.62 21 15.5 19.88 15.5 18.5S16.62 16 18 16C18.69 16 19.32 16.28 19.77 16.73L18 18.5H22M12.18 17C12.07 17.5 12 18 12 18.5C12 18.67 12 18.83 12.03 19H4V12C4 10.9 4.89 10 6 10H7V4H17V10H18C19.11 10 20 10.9 20 12H6V17H12.18M9 10H15V6H9V10Z" /></svg>