<?xml version="1.0" encoding="UTF-8"?><!DOCTYPE svg PUBLIC "-//W3C//DTD SVG 1.1//EN" "http://www.w3.org/Graphics/SVG/1.1/DTD/svg11.dtd"><svg xmlns="http://www.w3.org/2000/svg" xmlns:xlink="http://www.w3.org/1999/xlink" version="1.1" id="mdi-printer-alert" width="24" height="24" viewBox="0 0 24 24"><path d="M16 3H4V7H16M17 12C16.4 12 16 11.6 16 11S16.4 10 17 10 18 10.4 18 11 17.6 12 17 12M14 19H6V14H14M17 8H3C1.3 8 0 9.3 0 11V17H4V21H16V17H20V11C20 9.3 18.7 8 17 8M24 13H22V7H24V13M24 17H22V15H24V17Z" /></svg>