<svg xmlns="http://www.w3.org/2000/svg" id="mdi-printer-pos-wrench-outline" viewBox="0 0 24 24"><path d="M7 15V13H11V15H7M13.03 12H6V17H11.1C11.25 17.74 11.58 18.42 12 19H4V12C4 10.9 4.89 10 6 10H7V4H17V10H18C19.11 10 20 10.9 20 12V13.03C19.09 11.8 17.64 11 16 11C14.88 11 13.86 11.38 13.03 12M9 10H15V6H9V10M22.87 21.19L18.76 17.08C19.17 16.04 18.94 14.82 18.08 13.97C17.18 13.06 15.83 12.88 14.74 13.38L16.68 15.32L15.33 16.68L13.34 14.73C12.8 15.82 13.05 17.17 13.93 18.08C14.79 18.94 16 19.16 17.05 18.76L21.16 22.86C21.34 23.05 21.61 23.05 21.79 22.86L22.83 21.83C23.05 21.65 23.05 21.33 22.87 21.19Z" /></svg>