<svg xmlns="http://www.w3.org/2000/svg" id="mdi-printer-pos-sync-outline" viewBox="0 0 24 24"><path d="M7 15V13H11V15H7M13 17.5C13 18 13.07 18.5 13.18 19H4V12C4 10.9 4.89 10 6 10H7V4H17V10H18C18.74 10 19.38 10.41 19.73 11C19.65 11 19.58 11 19.5 11C18.23 11 17.05 11.37 16.05 12H6V17H13.03C13 17.17 13 17.33 13 17.5M9 10H15V6H9V10M19 13.5V12L16.75 14.25L19 16.5V15C20.38 15 21.5 16.12 21.5 17.5C21.5 17.9 21.41 18.28 21.24 18.62L22.33 19.71C22.75 19.08 23 18.32 23 17.5C23 15.29 21.21 13.5 19 13.5M19 20C17.62 20 16.5 18.88 16.5 17.5C16.5 17.1 16.59 16.72 16.76 16.38L15.67 15.29C15.25 15.92 15 16.68 15 17.5C15 19.71 16.79 21.5 19 21.5V23L21.25 20.75L19 18.5V20Z" /></svg>