<svg xmlns="http://www.w3.org/2000/svg" id="mdi-progress-question" viewBox="0 0 24 24"><path d="M 13.0467,18L 11.0467,18L 11.0467,16L 13.0467,16L 13.0467,18 Z M 13.0467,15L 11.0467,15C 11.0467,11.7493 14.0467,12 14.0467,10C 14.0467,8.90001 13.1507,8 12.0467,8C 10.948,8 10.0467,8.90001 10.0467,10L 8.04667,10C 8.04667,7.79067 9.83867,6.00001 12.0467,6.00001C 14.26,6.00001 16.0467,7.79067 16.0467,10C 16.0467,12.5 13.0467,12.7493 13.0467,15 Z M 22,12C 22,17.1854 18.0533,21.4489 13,21.9506L 13,19.9381C 16.9463,19.446 20,16.0796 20,12C 20,7.92039 16.9463,4.554 13,4.0619L 13,2.04938C 18.0533,2.5511 22,6.81466 22,12 Z M 11,2.04939L 11,4.06191C 9.53918,4.24407 8.20067,4.82009 7.0941,5.68035L 5.67102,4.25727C 7.15264,3.04474 8.98866,2.24909 11,2.04939 Z M 4.06189,11L 2.04937,11C 2.24905,8.98889 3.04455,7.15306 4.25685,5.67152L 5.67994,7.09462C 4.8199,8.20109 4.24403,9.53941 4.06189,11 Z M 11,19.9381L 11,21.9506C 8.98877,21.7509 7.15284,20.9554 5.67126,19.7429L 7.09435,18.3199C 8.20087,19.18 9.53928,19.756 11,19.9381 Z M 2.04937,13L 4.06189,13C 4.24404,14.4607 4.81998,15.7991 5.68014,16.9056L 4.25705,18.3287C 3.04463,16.8472 2.24906,15.0112 2.04937,13 Z" /></svg>