<svg xmlns="http://www.w3.org/2000/svg" id="mdi-progress-question" viewBox="0 0 24 24"><path d="M13 18H11V16H13V18M13 15H11C11 11.75 14 12 14 10C14 8.9 13.1 8 12 8C10.9 8 10 8.9 10 10H8C8 7.79 9.79 6 12 6C14.21 6 16 7.79 16 10C16 12.5 13 12.75 13 15M22 12C22 17.18 18.05 21.45 13 21.95V19.94C16.95 19.45 20 16.08 20 12C20 7.92 16.95 4.55 13 4.06V2.05C18.05 2.55 22 6.82 22 12M11 2.05V4.06C9.54 4.24 8.2 4.82 7.09 5.68L5.67 4.26C7.15 3.05 9 2.25 11 2.05M4.06 11H2.05C2.25 9 3.05 7.15 4.26 5.67L5.68 7.1C4.82 8.2 4.24 9.54 4.06 11M11 19.94V21.95C9 21.75 7.15 20.96 5.67 19.74L7.09 18.32C8.2 19.18 9.54 19.76 11 19.94M2.05 13H4.06C4.24 14.46 4.82 15.8 5.68 16.91L4.26 18.33C3.05 16.85 2.25 15 2.05 13Z" /></svg>