<svg xmlns="http://www.w3.org/2000/svg" id="mdi-progress-tag" viewBox="0 0 24 24"><path d="M13 4V2C17.66 2.5 21.33 6.19 21.85 10.85C22.45 16.34 18.5 21.28 13 21.88V19.88C16.64 19.43 19.5 16.56 19.96 12.92C20.5 8.53 17.39 4.54 13 4M5.67 4.2C7.19 2.95 9.04 2.18 11 2V4.06C9.57 4.26 8.22 4.84 7.1 5.74L5.67 4.2M2.05 11C2.24 9.04 3 7.19 4.26 5.67L5.69 7.1C4.8 8.23 4.24 9.58 4.05 11H2.05M4.27 18.33C3.03 16.81 2.26 14.96 2.06 13H4.06C4.24 14.42 4.81 15.77 5.69 16.9L4.27 18.33M5.67 19.74L7.06 18.37H7.1C8.23 19.25 9.58 19.82 11 20V22C9.04 21.79 7.18 21 5.67 19.74M11.6 8C11.8 8 12 8.1 12.2 8.2L15.8 11.8C15.9 12 16 12.2 16 12.4C16 12.7 15.9 12.9 15.8 13L13 15.8C12.8 15.9 12.6 16 12.4 16C12.1 16 11.9 15.9 11.8 15.8L8.2 12.2C8.1 12 8 11.8 8 11.6V8.8C8 8.4 8.4 8 8.8 8H11.6M8.8 9.4C8.8 9.7 9.1 10 9.4 10C9.7 10 10 9.7 10 9.4C10 9.1 9.7 8.8 9.4 8.8C9.1 8.8 8.8 9.1 8.8 9.4Z" /></svg>