<svg xmlns="http://www.w3.org/2000/svg" id="mdi-progress-star" viewBox="0 0 24 24"><path d="M13 2V4C17.39 4.54 20.5 8.53 19.96 12.92C19.5 16.56 16.64 19.43 13 19.88V21.88C18.5 21.28 22.45 16.34 21.85 10.85C21.33 6.19 17.66 2.5 13 2M11 2C9.04 2.18 7.19 2.95 5.67 4.2L7.1 5.74C8.22 4.84 9.57 4.26 11 4.06V2.06M4.26 5.67C3 7.19 2.24 9.04 2.05 11H4.05C4.24 9.58 4.8 8.23 5.69 7.1L4.26 5.67M2.06 13C2.26 14.96 3.03 16.81 4.27 18.33L5.69 16.9C4.81 15.77 4.24 14.42 4.06 13H2.06M7.06 18.37L5.67 19.74C7.18 21 9.04 21.79 11 22V20C9.58 19.82 8.23 19.25 7.1 18.37H7.06M8.58 16.8L9.5 12.91L6.5 10.33L10.45 9.96L12 6.35L13.55 10L17.5 10.33L14.5 12.91L15.42 16.8L12 14.74L8.58 16.8" /></svg>