<svg xmlns="http://www.w3.org/2000/svg" id="mdi-pump-off" viewBox="0 0 24 24"><path d="M22.1 21.5L2.4 1.7L1.1 3L4.8 6.7C3.7 8.2 3 10 3 12C3 13 3.2 14.1 3.5 15H2V21H12C14 21 15.8 20.3 17.3 19.2L20.8 22.7L22.1 21.5M5.9 15.5C5.3 14.5 5 13.3 5 12C5 10.6 5.5 9.2 6.2 8.1L9.2 11.1C9.1 11.3 9 11.7 9 12C9 12.5 9.2 13.1 9.4 13.5L5.9 15.5M12 19H11.3L11.7 15H12C12.3 15 12.6 14.9 12.9 14.8L15.9 17.8C14.8 18.5 13.4 19 12 19M12 8.8L7.4 4.2C8.8 3.5 10.3 3 12 3H22V9H20.5C20.8 9.9 21 11 21 12C21 13.7 20.5 15.2 19.8 16.6L12.2 9C13.3 9.1 14.3 9.8 14.7 10.7L18.3 9C17.3 6.7 14.8 5 12 5V8.8Z" /></svg>