<?xml version="1.0" encoding="UTF-8"?><!DOCTYPE svg PUBLIC "-//W3C//DTD SVG 1.1//EN" "http://www.w3.org/Graphics/SVG/1.1/DTD/svg11.dtd"><svg xmlns="http://www.w3.org/2000/svg" xmlns:xlink="http://www.w3.org/1999/xlink" version="1.1" id="mdi-puzzle-edit" width="24" height="24" viewBox="0 0 24 24"><path d="M21.04 12.13C20.9 12.13 20.76 12.19 20.65 12.3L19.65 13.3L21.7 15.35L22.7 14.35C22.92 14.14 22.92 13.79 22.7 13.58L21.42 12.3C21.31 12.19 21.18 12.13 21.04 12.13M19.07 13.88L13 19.94V22H15.06L21.12 15.93L19.07 13.88M19 11.12L11.91 18.2C11.5 17.95 11 17.8 10.5 17.8C9 17.8 7.8 19 7.8 20.5V22H4C2.9 22 2 21.11 2 20V16.2H3.5C5 16.2 6.2 15 6.2 13.5S5 10.8 3.5 10.8H2V7C2 5.9 2.9 5 4 5H8V3.5C8 2.12 9.12 1 10.5 1S13 2.12 13 3.5V5H17C18.1 5 19 5.89 19 7V11.12Z" /></svg>