<svg xmlns="http://www.w3.org/2000/svg" id="mdi-radioactive-circle-outline" viewBox="0 0 24 24"><path d="M13 12C13 12.6 12.6 13 12 13S11 12.6 11 12 11.4 11 12 11 13 11.4 13 12M12 4C7.6 4 4 7.6 4 12S7.6 20 12 20 20 16.4 20 12 16.4 4 12 4M12 2C17.5 2 22 6.5 22 12S17.5 22 12 22 2 17.5 2 12 6.5 2 12 2M6 12H9.2C9.2 11 9.8 10.1 10.6 9.6C10.1 8.6 9.5 7.7 9 6.8C7.2 7.8 6 9.8 6 12M10.6 14.4C10.1 15.3 9.5 16.3 9 17.2C9.9 17.7 10.9 18 12 18C13.1 18 14.1 17.7 15 17.2C14.5 16.3 13.9 15.3 13.4 14.4C13 14.6 12.5 14.8 12 14.8C11.5 14.8 11 14.6 10.6 14.4M15 6.8C14.5 7.7 13.9 8.6 13.4 9.6C14.2 10.1 14.8 11 14.8 12H18C18 9.8 16.8 7.8 15 6.8Z" /></svg>