<svg xmlns="http://www.w3.org/2000/svg" id="mdi-receipt-text-clock-outline" viewBox="0 0 24 24"><path d="M15 16.69V13H16.5V15.82L18.94 17.23L18.19 18.53L15 16.69M10.58 20.42L9 22L7.5 20.5L6 22L4.5 20.5L3 22V2L4.5 3.5L6 2L7.5 3.5L9 2L10.5 3.5L12 2L13.5 3.5L15 2L16.5 3.5L18 2L19.5 3.5L21 2V11.1C22.28 12.41 23 14.17 23 16C23 19.87 19.86 23 16 23C14.14 23 12.36 22.26 11.05 20.95C10.88 20.78 10.72 20.61 10.58 20.42M9.72 19.09C9.4 18.43 9.18 17.73 9.07 17H6V15H9.07C9.17 14.29 9.38 13.62 9.68 13H6V11H11.1C12.37 9.76 14.1 9 16 9H6V7H18V9H16C17.05 9 18.07 9.24 19 9.68V4.91H5V19.09H9.72M20.85 16C20.85 13.32 18.67 11.15 16 11.15C14.71 11.15 13.5 11.66 12.57 12.57C11.66 13.5 11.15 14.71 11.15 16C11.15 18.68 13.32 20.85 16 20.85C16.64 20.85 17.27 20.73 17.86 20.5C18.44 20.24 19 19.88 19.43 19.43C19.88 19 20.24 18.44 20.5 17.86C20.73 17.27 20.85 16.64 20.85 16Z" /></svg>