<?xml version="1.0" encoding="UTF-8"?><!DOCTYPE svg PUBLIC "-//W3C//DTD SVG 1.1//EN" "http://www.w3.org/Graphics/SVG/1.1/DTD/svg11.dtd"><svg xmlns="http://www.w3.org/2000/svg" xmlns:xlink="http://www.w3.org/1999/xlink" version="1.1" id="mdi-redhat" width="24" height="24" viewBox="0 0 24 24"><path d="M14.2 16.5C14.25 16.56 14.34 16.73 14.23 16.94C14.17 17.06 14.11 17.14 14 17.23C13.85 17.34 13.58 17.47 13.2 17.23C13 17.11 13 17.06 12.7 17.1C12.5 17.12 12.42 16.92 12.5 16.75C12.57 16.59 12.86 16.45 13.23 16.67C13.4 16.76 13.65 16.97 13.88 16.79C13.97 16.71 14.03 16.66 14.16 16.5C14.16 16.5 14.17 16.5 14.18 16.5C14.19 16.5 14.2 16.5 14.2 16.5M13.75 4.53H13.69C13.58 4.53 13.47 4.53 13.36 4.54C12.97 4.58 12.64 4.68 12.42 4.8C12.4 4.8 12.4 4.81 12.4 4.82C12.4 4.84 12.41 4.85 12.43 4.85H12.43C12.5 4.84 12.56 4.83 12.63 4.83C13.25 4.76 13.77 4.87 13.8 5.06C13.82 5.2 13.55 5.35 13.15 5.44C13.13 5.45 13.12 5.47 13.12 5.5C13.12 5.5 13.13 5.5 13.15 5.53C13.32 5.58 13.5 5.61 13.72 5.61C14.36 5.63 14.89 5.4 14.89 5.1C14.9 4.79 14.39 4.54 13.75 4.53M10.97 6.11C10.5 6.11 10.13 6.18 9.83 6.19C9.5 6.19 9.29 5.97 9.18 5.83C9.09 5.72 8.8 5.62 8.65 6C8.5 6.34 8.78 6.73 9 6.78C9 6.78 9.43 7.5 9.73 7.2C9.95 6.97 10.07 6.84 11.22 6.76C11.77 6.72 11.83 6.59 11.81 6.46C11.79 6.3 11.46 6.11 10.97 6.11M12 2C6.5 2 2 6.47 2 12C2 13.11 2.18 14.19 2.5 15.19H3.22C3.83 15.19 4.41 15.04 4.89 14.79C5 14.73 5.15 14.69 5.29 14.69C5.6 14.69 5.86 14.81 6.03 15.08C6.17 15.33 6.31 15.5 6.47 15.58C6.62 15.68 6.81 15.75 7.09 15.74C7.22 15.73 7.42 15.7 7.47 15.56C7.53 15.41 7.46 15.29 7.26 15.21C7 15.09 6.92 14.93 6.78 14.67C6.63 14.42 6.32 14.28 6.27 13.8C6.23 13.33 6.6 12.74 7.33 12.93C7.86 13.06 8.2 13.72 8.33 13.94C8.39 14.06 8.63 14.19 8.82 14C9 13.84 9.19 13.84 9.33 14.07C9.46 14.26 10.35 15.46 11.33 15.5C12.32 15.5 12.85 15.26 13.28 15.28C13.58 15.29 13.73 15.44 13.9 15.47C14.2 15.5 14.42 15.24 14.75 15.26C15 15.27 15.32 15.46 15.62 15.46C15.93 15.46 16.57 15.09 16.56 15.24C16.54 15.5 16.34 16 16.29 16.2C16.25 16.35 16.28 16.72 16.19 17C16.11 17.31 15.83 17.69 15.76 17.8C15.5 18.16 15.34 18.27 15.14 18.66C14.91 19.09 14.55 19.5 14.45 19.61C14.33 19.78 15.14 19.61 15.43 19.33C15.68 19.1 16.11 18.4 16.79 18.25C17.25 18.15 17.34 17.97 17.29 17.81C17.27 17.79 17.27 17.77 17.27 17.75C17.27 17.68 17.31 17.63 17.36 17.6C17.84 17.41 18.5 17.28 19.19 17.28C19.6 17.28 20 17.34 20.39 17.43C21.41 15.86 22 14 22 12C22 6.47 17.5 2 12 2M20.13 11.8C19.65 14.43 15.35 15.31 11.16 14.05C7.17 12.84 3.66 10.43 4.07 9C4.3 8.2 5.61 7.85 7.34 8.04C7.08 8.58 7.1 9.21 8.25 9.91C9.65 10.71 12 11.39 12.67 11.32C12.9 11.3 13.12 11.18 12.9 11.03C12.69 10.89 12.5 10.6 12.38 10.1C12.31 9.82 12.23 9.43 10.73 9.14C7.5 8.53 7.62 7.61 7.71 7.09C7.71 7.09 8 5.8 8.12 5.34C8.24 4.89 8.55 3.84 10.63 4.31C11.84 4.58 12.5 4.25 12.82 4.16C13.72 3.93 14.72 4.09 15.27 4.66C15.84 5.24 16.62 7.05 17 8.4C17.19 9.09 17.14 9.42 17.04 9.65C16.97 9.81 16.93 9.91 16.7 10.31C16.65 10.38 16.69 10.46 16.78 10.41C17.41 10.09 17.55 9.67 17.64 9.34C19.34 9.72 20.35 10.6 20.13 11.8Z" /></svg>