<?xml version="1.0" encoding="UTF-8"?><!DOCTYPE svg PUBLIC "-//W3C//DTD SVG 1.1//EN" "http://www.w3.org/Graphics/SVG/1.1/DTD/svg11.dtd"><svg xmlns="http://www.w3.org/2000/svg" xmlns:xlink="http://www.w3.org/1999/xlink" version="1.1" id="mdi-reiterate" width="24" height="24" viewBox="0 0 24 24"><path d="M10.5 4A6.5 6.5 0 0 0 4 10H1L5 14L9 10H6.03A4.5 4.5 0 0 1 10.5 6A4.5 4.5 0 0 1 15 10.5A4.5 4.5 0 0 1 10.5 15H2V17H10.5A6.5 6.5 0 0 0 17 10.5A6.5 6.5 0 0 0 10.5 4M19 12V15H16.5A7.5 7.5 0 0 1 14.24 17H19V20L23 16Z" /></svg>