<svg xmlns="http://www.w3.org/2000/svg" id="mdi-rickshaw-electric" viewBox="0 0 24 24"><path d="M20 12.05V10.73C20 10.26 19.84 9.8 19.54 9.44L15.6 4.72C15.22 4.26 14.66 4 14.06 4H4C2.9 4 2 4.9 2 6V13C2 14.1 2.9 15 4 15H4.05C4.28 16.14 5.29 17 6.5 17S8.72 16.14 8.95 15H17.05C17.28 16.14 18.29 17 19.5 17C20.88 17 22 15.88 22 14.5C22 13.29 21.14 12.28 20 12.05M3.5 6C3.5 5.73 3.73 5.5 4 5.5H7V10H3.5V6M6.5 15.5C5.95 15.5 5.5 15.05 5.5 14.5S5.95 13.5 6.5 13.5 7.5 13.95 7.5 14.5 7.05 15.5 6.5 15.5M13 13.5H9V12H11V10H9V5.5H13V13.5M15 6.34L18.05 10H15V6.34M19.5 15.5C18.95 15.5 18.5 15.05 18.5 14.5S18.95 13.5 19.5 13.5 20.5 13.95 20.5 14.5 20.05 15.5 19.5 15.5M11 20H7L13 23V21H17L11 18V20Z" /></svg>