<?xml version="1.0" encoding="UTF-8"?><!DOCTYPE svg PUBLIC "-//W3C//DTD SVG 1.1//EN" "http://www.w3.org/Graphics/SVG/1.1/DTD/svg11.dtd"><svg xmlns="http://www.w3.org/2000/svg" xmlns:xlink="http://www.w3.org/1999/xlink" version="1.1" id="mdi-robot-mower-outline" width="24" height="24" viewBox="0 0 24 24"><path d="M23 14C23 16.76 20.76 19 18 19C16.36 19 14.91 18.21 14 17H8.83C8.42 18.17 7.31 19 6 19C4.69 19 3.58 18.17 3.17 17H1V15C1 9.5 5.5 5 11 5H23V14M3 15H13.1C13.03 14.68 13 14.34 13 14C13 11.24 15.24 9 18 9C19.13 9 20.16 9.37 21 10V7H11.5C8.9 7 6.58 8.16 5 10H9V12H3.75C3.33 12.92 3.08 13.94 3 15M18 11C16.34 11 15 12.34 15 14C15 15.66 16.34 17 18 17C19.66 17 21 15.66 21 14C21 12.34 19.66 11 18 11Z" /></svg>