<svg xmlns="http://www.w3.org/2000/svg" id="mdi-robot-off" viewBox="0 0 24 24"><path d="M23 15V18C23 18.5 22.64 18.88 22.17 18.97L18.97 15.77C19 15.68 19 15.59 19 15.5C19 14.12 17.88 13 16.5 13C16.41 13 16.32 13 16.23 13.03L10.2 7H11V5.73C10.4 5.39 10 4.74 10 4C10 2.9 10.9 2 12 2S14 2.9 14 4C14 4.74 13.6 5.39 13 5.73V7H14C17.87 7 21 10.13 21 14H22C22.55 14 23 14.45 23 15M22.11 21.46L20.84 22.73L19.89 21.78C19.62 21.92 19.32 22 19 22H5C3.9 22 3 21.11 3 20V19H2C1.45 19 1 18.55 1 18V15C1 14.45 1.45 14 2 14H3C3 11.53 4.29 9.36 6.22 8.11L1.11 3L2.39 1.73L22.11 21.46M10 15.5C10 14.12 8.88 13 7.5 13S5 14.12 5 15.5 6.12 18 7.5 18 10 16.88 10 15.5M16.07 17.96L14.04 15.93C14.23 16.97 15.04 17.77 16.07 17.96Z" /></svg>