<svg xmlns="http://www.w3.org/2000/svg" id="mdi-rocket-launch" viewBox="0 0 24 24"><path d="M13.16 22.19L11.5 18.35C13.1 17.77 14.57 17 15.93 16.08L13.15 22.19M5.65 12.5L1.81 10.85L7.92 8.07C7 9.43 6.23 10.9 5.65 12.5M21.66 2.35C21.66 2.35 16.7 .216 11 5.89C8.83 8.09 7.5 10.5 6.66 12.62C6.39 13.37 6.57 14.19 7.13 14.75L9.26 16.88C9.81 17.44 10.63 17.62 11.39 17.34C13.53 16.5 15.91 15.17 18.11 13C23.78 7.31 21.66 2.35 21.66 2.35M14.57 9.43C13.79 8.65 13.79 7.38 14.57 6.6C15.35 5.81 16.63 5.81 17.41 6.6C18.18 7.38 18.19 8.65 17.41 9.43C16.63 10.21 15.35 10.21 14.57 9.43M6.26 22L9.9 18.35C9.56 18.26 9.23 18.11 8.93 17.9L4.84 22H6.25M2 22H3.41L8.2 17.23L6.77 15.81L2 20.58V22M2 19.16L6.1 15.07C5.89 14.78 5.74 14.45 5.65 14.1L2 17.75" /></svg>