<svg xmlns="http://www.w3.org/2000/svg" id="mdi-rocket-launch-outline" viewBox="0 0 24 24"><path d="M13.16 22.19L11.5 18.35C13.1 17.77 14.57 17 15.93 16.08L13.15 22.19M5.65 12.5L1.81 10.85L7.92 8.07C7 9.43 6.23 10.91 5.65 12.5M20 4C20.17 5.4 20 8.27 16.7 11.56C15 13.27 12.96 14.58 10.67 15.46L8.5 13.35C9.09 11.81 10.09 9.78 12.45 7.31C14.8 4.83 17.04 3.78 20 4M11 5.9C8.41 8.69 7.5 10.5 6.66 12.62C6.39 13.37 6.57 14.19 7.13 14.75L9.26 16.88C10.24 17.73 11.15 17.43 11.39 17.34C13.53 16.5 15.91 15.17 18.11 13C23.78 7.31 21.66 2.35 21.66 2.35C18 1.08 13.63 3.1 11 5.9M14.57 9.43C13.79 8.65 13.79 7.38 14.57 6.6C15.35 5.81 16.63 5.81 17.41 6.6C18.18 7.38 18.19 8.65 17.41 9.43C16.63 10.21 15.35 10.21 14.57 9.43M6.25 22L9.9 18.35C9.56 18.26 9.23 18.11 8.93 17.9L4.84 22H6.25M2 22H3.41L8.2 17.23L6.77 15.81L2 20.58V22M2 19.17L6.1 15.07C5.89 14.78 5.74 14.45 5.65 14.1L2 17.75" /></svg>