<svg xmlns="http://www.w3.org/2000/svg" id="mdi-sack-outline" viewBox="0 0 24 24"><path d="M19 18.28V18.05C18.95 17.88 18.9 17.63 18.83 17.32C18.69 16.69 18.46 15.85 18.13 14.95C17.5 13.23 16.58 11.74 15.47 11H8.53C7.42 11.74 6.5 13.23 5.87 14.95C5.54 15.85 5.31 16.69 5.17 17.32C5.1 17.63 5.05 17.88 5 18.05V18.29L4.97 18.39L4.95 18.45C4.94 18.5 4.94 18.55 4.94 18.63C4.94 18.79 4.97 18.96 5.04 19.11C5.09 19.21 5.5 20 8 20H16C18.5 20 18.91 19.21 18.96 19.11C19.03 18.96 19.06 18.79 19.06 18.63C19.06 18.55 19.06 18.5 19.05 18.45L19.03 18.39L19 18.29V18.28M3 18C3 18 4 11 8 9H16C20 11 21 18 21 18C21 18 22 22 16 22H8C2 22 3 18 3 18M10 4L12 2L14 4L18 2L16 7H8L6 2L10 4Z" /></svg>