<svg xmlns="http://www.w3.org/2000/svg" id="mdi-sail-boat" viewBox="0 0 24 24"><path d="M3 13.5L11 2.03V13.5H3M12.5 13.5C13.85 9.75 13.67 4.71 12.5 1C17.26 2.54 20.9 8.4 20.96 13.5H12.5M21.1 17.08C20.69 17.72 20.21 18.27 19.65 18.74C19 18.45 18.42 18 17.96 17.5C16.47 19.43 13.46 19.43 11.97 17.5C10.5 19.43 7.47 19.43 6 17.5C5.5 18 4.95 18.45 4.3 18.74C3.16 17.8 2.3 16.46 2 15H21.94C21.78 15.75 21.5 16.44 21.1 17.08M20.96 23C19.9 23 18.9 22.75 17.96 22.25C16.12 23.25 13.81 23.25 11.97 22.25C10.13 23.25 7.82 23.25 6 22.25C4.77 22.94 3.36 23.05 2 23V21C3.41 21.05 4.77 20.9 6 20C7.74 21.25 10.21 21.25 11.97 20C13.74 21.25 16.2 21.25 17.96 20C19.17 20.9 20.54 21.05 21.94 21V23H20.96Z" /></svg>