<svg xmlns="http://www.w3.org/2000/svg" id="mdi-scent" viewBox="0 0 24 24"><path d="M17.5 5.1C18.5 6.4 19 7.6 19 9C19 10.7 18.3 12.3 16.6 14.1C14.7 16.1 13 18.3 13 20.5C13 20.9 13.1 21.3 13.2 21.8C13.2 21.9 13.2 22 13.1 22.1C13 22.2 12.9 22.1 12.9 22C11.9 20.7 11.4 19.5 11.4 18.1C11.4 16.4 12.1 14.8 13.8 13C15.7 11 17.4 8.8 17.4 6.6C17.4 6.2 17.3 5.8 17.2 5.3C17.2 5.2 17.2 5.1 17.3 5C17.4 5 17.4 5 17.5 5.1M9.7 2.1C10.4 3 10.7 4 10.7 4.9C10.7 6.2 10.1 7.4 8.9 8.7C7.5 10.2 6.2 11.9 6.2 13.5C6.2 13.8 6.3 14.2 6.4 14.4C6.4 14.5 6.4 14.5 6.3 14.6C6.2 14.7 6.1 14.6 6.1 14.6C5.3 13.6 5 12.6 5 11.7C5 10.4 5.6 9.2 6.8 7.9C8.2 6.4 9.5 4.7 9.5 3.1C9.5 2.8 9.4 2.4 9.3 2.2V2C9.5 2 9.6 2 9.7 2.1M10.1 9.9C12 7.9 13.7 5.7 13.7 3.5C13.7 3.1 13.6 2.7 13.5 2.2C13.5 2.1 13.5 2 13.6 1.9C13.7 1.8 13.8 1.9 13.8 2C14.8 3.3 15.3 4.5 15.3 5.9C15.3 7.6 14.6 9.2 12.9 11C11 13 9.3 15.2 9.3 17.4C9.3 17.8 9.4 18.2 9.5 18.7C9.5 18.8 9.5 18.9 9.4 19C9.3 19.1 9.2 19 9.2 18.9C8.2 17.6 7.7 16.4 7.7 15C7.7 13.3 8.4 11.7 10.1 9.9Z" /></svg>