<svg xmlns="http://www.w3.org/2000/svg" id="mdi-scent-off" viewBox="0 0 24 24"><path d="M14.6 16.5C13.7 17.8 13 19.2 13 20.5C13 20.9 13.1 21.3 13.2 21.8C13.2 21.9 13.2 22 13.1 22.1C13 22.2 12.9 22.1 12.9 22C11.9 20.7 11.4 19.5 11.4 18.1C11.4 16.9 11.8 15.7 12.6 14.5L11.2 13.1C10.1 14.5 9.4 16 9.4 17.5C9.4 17.9 9.5 18.3 9.6 18.8C9.6 18.9 9.6 19 9.5 19.1C9.4 19.2 9.3 19.1 9.3 19C8.3 17.7 7.8 16.5 7.8 15.1C7.8 13.8 8.3 12.5 9.3 11.1L7.9 9.8C6.9 11 6.2 12.2 6.2 13.4C6.2 13.7 6.3 14.1 6.4 14.3C6.4 14.4 6.4 14.4 6.3 14.5C6.2 14.6 6.1 14.5 6.1 14.5C5.3 13.6 5 12.6 5 11.7C5 10.6 5.5 9.5 6.4 8.4L1.1 3L2.4 1.7L22.1 21.4L20.8 22.7L14.6 16.5M10.2 7C10.6 6.3 10.8 5.6 10.8 4.9C10.8 4 10.5 3 9.7 2.1C9.6 2 9.5 2 9.4 2C9.3 2 9.4 2.1 9.4 2.2C9.5 2.5 9.6 2.8 9.6 3.1C9.6 3.9 9.3 4.7 8.8 5.5L10.2 7M17.3 6.5C17.3 8.2 16.2 10 14.8 11.6L16.8 13.6C18.3 12.1 19 10.6 19 9C19 7.7 18.5 6.4 17.5 5.1C17.4 5 17.4 5 17.3 5C17.2 5.1 17.2 5.2 17.2 5.3C17.2 5.7 17.3 6.1 17.3 6.5M13.5 10.3C14.7 8.8 15.3 7.4 15.3 5.9C15.3 4.6 14.8 3.3 13.8 2H13.6C13.5 2.1 13.5 2.2 13.5 2.3C13.6 2.7 13.7 3.1 13.7 3.6C13.7 5.2 12.8 6.8 11.5 8.4L13.5 10.3Z" /></svg>