<svg xmlns="http://www.w3.org/2000/svg" id="mdi-seed-plus-outline" viewBox="0 0 24 24"><path d="M17.2 5C17.8 5 18.4 5 18.9 5.1C19.04 6.7 19.08 9.42 18.18 12C18.89 12 19.56 12.17 20.18 12.41C21.64 7.9 20.7 3.3 20.7 3.3S19.3 3 17.2 3C11.7 3 1.6 5.1 3.2 20.8C4.3 20.9 5.4 21 6.4 21C8.75 21 10.74 20.69 12.4 20.16C12.16 19.54 12 18.87 12 18.17C10.41 18.72 8.53 19 6.4 19H5.1C4.9 14.4 5.8 10.8 7.9 8.5C10.4 5.6 14.4 5 17.2 5M17 7C7 7 7 17 7 17C11 9 17 7 17 7M17 17H14V19H17V22H19V19H22V17H19V14H17V17Z" /></svg>