<?xml version="1.0" encoding="UTF-8"?><!DOCTYPE svg PUBLIC "-//W3C//DTD SVG 1.1//EN" "http://www.w3.org/Graphics/SVG/1.1/DTD/svg11.dtd"><svg xmlns="http://www.w3.org/2000/svg" xmlns:xlink="http://www.w3.org/1999/xlink" version="1.1" id="mdi-select-arrow-down" width="24" height="24" viewBox="0 0 24 24"><path d="M4 3H5V5H3V4C3 3.4 3.4 3 4 3M20 3C20.6 3 21 3.4 21 4V5H19V3H20M15 5V3H17V5H15M11 5V3H13V5H11M7 5V3H9V5H7M11 21V19H13V21H11M7 21V19H9V21H7M4 21C3.4 21 3 20.6 3 20V19H5V21H4M3 15H5V17H3V15M3 11H5V13H3V11M21 11V13H19V11H21M3 7H5V9H3V7M21 7V9H19V7H21M19 22L22 19H20V15H18V19H16L19 22Z" /></svg>