<svg xmlns="http://www.w3.org/2000/svg" id="mdi-shark-off" viewBox="0 0 24 24"><path d="M11.26 8.06L18.53 15.33C19 15.17 19.46 15 19.87 14.81C19.72 14.63 19.53 14.44 19.28 14.3C18.63 13.91 17.82 13.67 17 13.5C17.82 13.34 18.67 13.22 19.59 13.35C20.05 13.41 20.54 13.54 21 13.86C21.1 13.92 21.17 14 21.24 14.05C22.4 13.26 23 12.44 23 12C23 11.13 19.19 9.5 15.56 9.09C14.66 7.18 12.54 6 11 6C11.25 6.76 11.31 7.45 11.26 8.06M17.23 10.38C17.84 10.5 18.43 10.67 18.97 10.84C19 10.89 19 10.94 19 11C19 11.55 18.55 12 18 12S17 11.55 17 11C17 10.76 17.1 10.55 17.23 10.38M22.11 21.46L20.84 22.73L15.42 17.31C14.88 17.75 14.35 18 14 18V16C11 16 6 14 6 14S4 17 2 17L3 13L1 7C3 7 6 11 6 11S6.96 10.62 8.3 10.19L1.11 3L2.39 1.73L22.11 21.46Z" /></svg>