<?xml version="1.0" encoding="UTF-8"?><!DOCTYPE svg PUBLIC "-//W3C//DTD SVG 1.1//EN" "http://www.w3.org/Graphics/SVG/1.1/DTD/svg11.dtd"><svg xmlns="http://www.w3.org/2000/svg" xmlns:xlink="http://www.w3.org/1999/xlink" version="1.1" id="mdi-shield-account-variant-outline" width="24" height="24" viewBox="0 0 24 24"><path d="M17 14.4C17.6 14.4 18.1 14.9 18.1 15.5S17.6 16.6 17 16.6 15.9 16.1 15.9 15.5 16.4 14.4 17 14.4M17 17.5C16.3 17.5 14.8 17.9 14.8 18.6C15.3 19.3 16.1 19.8 17 19.8S18.7 19.3 19.2 18.6C19.2 17.9 17.7 17.5 17 17.5M18 11.1V6.3L10.5 3L3 6.3V11.2C3 15.7 6.2 20 10.5 21C11.1 20.9 11.6 20.7 12.1 20.5C13.2 22 15 23 17 23C20.3 23 23 20.3 23 17C23 14 20.8 11.6 18 11.1M11 17C11 17.6 11.1 18.1 11.2 18.6C11 18.7 10.7 18.8 10.5 18.9C7.3 17.9 5 14.7 5 11.2V7.6L10.5 5.2L16 7.6V11.1C13.2 11.6 11 14 11 17M17 21C14.8 21 13 19.2 13 17S14.8 13 17 13 21 14.8 21 17 19.2 21 17 21Z" /></svg>