<?xml version="1.0" encoding="UTF-8" standalone="no"?>
<svg
   xmlns:dc="http://purl.org/dc/elements/1.1/"
   xmlns:cc="http://creativecommons.org/ns#"
   xmlns:rdf="http://www.w3.org/1999/02/22-rdf-syntax-ns#"
   xmlns:svg="http://www.w3.org/2000/svg"
   xmlns="http://www.w3.org/2000/svg"
   xmlns:sodipodi="http://sodipodi.sourceforge.net/DTD/sodipodi-0.dtd"
   xmlns:inkscape="http://www.inkscape.org/namespaces/inkscape"
   version="1.1"
   id="mdi-shield-outline"
   width="24"
   height="24"
   viewBox="0 0 24 24"
   sodipodi:docname="shield-outline-numeric-3.svg"
   inkscape:version="0.92.4 (5da689c313, 2019-01-14)">
  <metadata
     id="metadata9">
    <rdf:RDF>
      <cc:Work
         rdf:about="">
        <dc:format>image/svg+xml</dc:format>
        <dc:type
           rdf:resource="http://purl.org/dc/dcmitype/StillImage" />
        <dc:title></dc:title>
      </cc:Work>
    </rdf:RDF>
  </metadata>
  <defs
     id="defs7" />
  <sodipodi:namedview
     pagecolor="#ffffff"
     bordercolor="#666666"
     borderopacity="1"
     objecttolerance="10"
     gridtolerance="10"
     guidetolerance="10"
     inkscape:pageopacity="0"
     inkscape:pageshadow="2"
     inkscape:window-width="958"
     inkscape:window-height="1008"
     id="namedview5"
     showgrid="false"
     inkscape:zoom="34.26"
     inkscape:cx="12"
     inkscape:cy="12"
     inkscape:window-x="2873"
     inkscape:window-y="0"
     inkscape:window-maximized="0"
     inkscape:current-layer="mdi-shield-outline" />
  <path
     d="M21,11C21,16.55 17.16,21.74 12,23C6.84,21.74 3,16.55 3,11V5L12,1L21,5V11M12,21C15.75,20 19,15.54 19,11.22V6.3L12,3.18L5,6.3V11.22C5,15.54 8.25,20 12,21Z"
     id="path2" />
  <path
     inkscape:connector-curvature="0"
     d="m 15.160001,14.724105 v -1.5 a 1.5,1.5 0 0 0 -1.5,-1.5 1.5,1.5 0 0 0 1.5,-1.500001 V 8.7241039 c 0,-1.11 -0.9,-2 -2,-2 H 9.16 v 2 h 4.000001 v 2.0000011 h -2 v 2 h 2 v 2 H 9.16 v 2 h 4.000001 a 2,2 0 0 0 2,-2"
     id="path2-5" />
</svg>
