<svg xmlns="http://www.w3.org/2000/svg" id="mdi-shopping-search-outline" viewBox="0 0 24 24"><path d="M19.31 18.9C20.64 16.8 20 14 17.91 12.69S13.03 12 11.7 14.1 11 19 13.1 20.3C14.56 21.22 16.42 21.23 17.88 20.32L21 23.39L22.39 22M15.5 19C14.12 19 13 17.88 13 16.5S14.12 14 15.5 14 18 15.12 18 16.5 16.88 19 15.5 19M10.03 20H5V8H19V11.03C19.81 11.55 20.5 12.24 21 13.05V8C21 6.9 20.1 6 19 6H17C17 3.2 14.8 1 12 1S7 3.2 7 6H5C3.9 6 3 6.9 3 8V20C3 21.1 3.9 22 5 22H12.05C11.24 21.5 10.55 20.81 10.03 20M12 3C13.7 3 15 4.3 15 6H9C9 4.3 10.3 3 12 3M15 9H17C17 9.4 16.95 9.78 16.86 10.15C16.42 10.05 15.97 10 15.5 10C15.27 10 15.04 10 14.82 10.04C14.93 9.71 15 9.37 15 9M9.76 13.46C8.12 12.65 7 11 7 9H9C9 10.34 9.82 11.42 11 11.82C10.5 12.3 10.08 12.85 9.76 13.46Z" /></svg>