<?xml version="1.0" encoding="UTF-8"?><!DOCTYPE svg PUBLIC "-//W3C//DTD SVG 1.1//EN" "http://www.w3.org/Graphics/SVG/1.1/DTD/svg11.dtd"><svg xmlns="http://www.w3.org/2000/svg" xmlns:xlink="http://www.w3.org/1999/xlink" version="1.1" id="mdi-sim-outline" width="24" height="24" viewBox="0 0 24 24"><path d="M18 4V20H6V8.8L10.8 4H18M18 2H10L4 8V20C4 21.1 4.9 22 6 22H18C19.1 22 20 21.1 20 20V4C20 2.9 19.1 2 18 2M9.5 19H7.5V17H9.5V19M16.5 19H14.5V17H16.5V19M9.5 15H7.5V11H9.5V15M13 19H11V15H13V19M13 13H11V11H13V13M16.5 15H14.5V11H16.5V15Z" /></svg>