<svg xmlns="http://www.w3.org/2000/svg" id="mdi-skateboarding" viewBox="0 0 24 24"><path d="M19.78 18.39C19.93 18.54 20 18.7 20 18.88C20 19 19.94 19.17 19.82 19.32C19.44 19.85 18.96 20.26 18.37 20.56C17.78 20.85 17.15 21 16.47 21H7.53C6.82 21 6.17 20.85 5.59 20.56C5 20.26 4.5 19.85 4.13 19.32C4.04 19.17 4 19.03 4 18.88C4 18.7 4.07 18.54 4.2 18.39S4.5 18.17 4.71 18.17C4.94 18.17 5.13 18.27 5.28 18.5C5.69 19 6.22 19.36 6.87 19.54L9.82 15.96L8.54 12.07C8.36 11.5 8.44 11 8.76 10.5L11 6.86H8.8L7 9.77L5.41 8.76L7.75 5H13.12C13.54 5 13.87 5.12 14.14 5.35C14.4 5.59 14.58 5.8 14.67 5.97L15.15 7.12C15.5 7.89 16 8.5 16.7 9C17.4 9.45 18.18 9.69 19.03 9.69V11.59C17.94 11.59 16.95 11.32 16.03 10.79C15.12 10.26 14.4 9.57 13.87 8.71L12.16 11.41L16.21 13.93V19.59H16.47C16.92 19.59 17.33 19.5 17.73 19.28S18.46 18.81 18.72 18.5C18.87 18.27 19.05 18.17 19.25 18.17S19.63 18.25 19.78 18.39M14.36 15.25L11.05 13.18L12 16.32L9.24 19.59H14.36V15.25M15 1C13.9 1 13 1.9 13 3S13.9 5 15 5 17 4.11 17 3 16.11 1 15 1M8 21.5C7.59 21.5 7.25 21.84 7.25 22.25S7.59 23 8 23C8.41 23 8.75 22.66 8.75 22.25S8.41 21.5 8 21.5M16 21.5C15.59 21.5 15.25 21.84 15.25 22.25S15.59 23 16 23 16.75 22.66 16.75 22.25 16.41 21.5 16 21.5Z" /></svg>