<svg xmlns="http://www.w3.org/2000/svg" id="mdi-sledding" viewBox="0 0 24 24"><path d="M22.91 16.64C22.75 15.95 22.44 15.34 21.97 14.81C21.5 14.28 20.91 13.91 20.2 13.69L19.77 15.14C20.43 15.33 20.91 15.73 21.23 16.36C21.54 17 21.58 17.62 21.37 18.27C21.15 18.93 20.73 19.41 20.12 19.73S18.88 20.08 18.23 19.86L14.9 18.79L15.37 17.38L18.7 18.46L19.16 17L17.2 16.4L15.14 11.91C14.95 11.5 14.66 11.19 14.27 10.97C13.88 10.75 13.45 10.67 13 10.74L10.88 11.11L11.91 7.84C12.06 7.37 12.03 6.91 11.81 6.5C11.6 6.04 11.24 5.74 10.74 5.59C10.33 5.46 9.91 5.5 9.47 5.68L4 8V12.1L2.4 11.58L1.94 13L5.87 14.3L5.4 15.7L1.47 14.44L1 15.84L17.76 21.32C18.45 21.54 19.13 21.57 19.82 21.41C20.5 21.26 21.12 20.94 21.65 20.5C22.18 20 22.55 19.43 22.77 18.74C23 18 23.07 17.32 22.91 16.64M6 9.33L7.93 8.5L6.9 11.67C6.74 12.14 6.79 12.61 7.04 13.08L6 12.75V9.33M13.5 18.32L6.81 16.17L7.27 14.76L13.92 16.92L13.5 18.32M9.47 13.87L13.45 13L14.62 15.56L9.47 13.87M14 3C14 4.11 13.11 5 12 5S10 4.11 10 3 10.9 1 12 1 14 1.9 14 3Z" /></svg>