<svg xmlns="http://www.w3.org/2000/svg" id="mdi-smoke-detector-variant-alert" viewBox="0 0 24 24"><path d="M10 4C14.4 4 18 7.6 18 12S14.4 20 10 20 2 16.4 2 12 5.6 4 10 4M10 2C4.5 2 0 6.5 0 12S4.5 22 10 22 20 17.5 20 12 15.5 2 10 2M10 11C9.4 11 9 11.4 9 12S9.4 13 10 13 11 12.6 11 12 10.6 11 10 11M8.7 9.3C9.1 9.1 9.5 9 10 9S10.9 9.1 11.3 9.3L12 8.6C11.4 8.2 10.7 8 10 8S8.6 8.2 8 8.6L8.7 9.3M13 12C13 12.5 12.9 12.9 12.7 13.3L13.4 14C13.8 13.4 14 12.7 14 12S13.8 10.6 13.4 10L12.7 10.7C12.9 11.1 13 11.5 13 12M7 12C7 11.5 7.1 11.1 7.3 10.7L6.6 10C6.2 10.6 6 11.3 6 12S6.2 13.4 6.6 14L7.3 13.3C7.1 12.9 7 12.5 7 12M11.3 14.7C10.9 14.9 10.5 15 10 15S9.1 14.9 8.7 14.7L8 15.4C8.6 15.8 9.3 16 10 16S11.4 15.8 12 15.4L11.3 14.7M14.9 8.5L14.2 9.2C14.7 10 15 11 15 12S14.7 14 14.2 14.8L14.9 15.5C15.6 14.5 16 13.3 16 12S15.6 9.5 14.9 8.5M7.2 7.8C8 7.3 9 7 10 7S12 7.3 12.8 7.8L13.5 7.1C12.5 6.4 11.3 6 10 6S7.5 6.4 6.5 7.1L7.2 7.8M12.8 16.2C12 16.7 11 17 10 17S8 16.7 7.2 16.2L6.5 16.9C7.5 17.6 8.7 18 10 18S12.5 17.6 13.5 16.9L12.8 16.2M5.8 14.8C5.3 14 5 13 5 12S5.3 10 5.8 9.2L5.1 8.5C4.4 9.5 4 10.7 4 12S4.4 14.5 5.1 15.5L5.8 14.8M24 7H22V13H24V8M24 15H22V17H24V15Z" /></svg>