<svg xmlns="http://www.w3.org/2000/svg" id="mdi-smoke-detector-off-outline" viewBox="0 0 24 24"><path d="M8.2 5L6.2 3H19C20.11 3 21 3.9 21 5V17.8L19 15.8V5H8.2M17.5 14.32C17.82 13.6 18 12.83 18 12C18 8.68 15.31 6 12 6C11.17 6 10.4 6.18 9.68 6.5L11.27 8.07C11.5 8.03 11.75 8 12 8C14.21 8 16 9.79 16 12C16 12.25 15.97 12.5 15.93 12.73L17.5 14.32M22.11 21.46L20.84 22.73L19.1 21C19.07 21 19.03 21 19 21H5C3.89 21 3 20.1 3 19V5C3 4.97 3 4.93 3 4.9L1.11 3L2.39 1.73L22.11 21.46M8 12C8 14.21 9.79 16 12 16C12.62 16 13.19 15.85 13.71 15.6L8.4 10.29C8.15 10.81 8 11.39 8 12M17.11 19L15.19 17.08C14.26 17.66 13.17 18 12 18C8.69 18 6 15.31 6 12C6 10.83 6.34 9.74 6.92 8.81L5 6.89V19H17.11Z" /></svg>