<svg xmlns="http://www.w3.org/2000/svg" id="mdi-smoke" viewBox="0 0 24 24"><path d="M17 19V22H15V19C15 17.9 14.1 17 13 17H10C7.2 17 5 14.8 5 12C5 10.8 5.4 9.8 6.1 8.9C3.8 8.5 2 6.4 2 4C2 3.3 2.2 2.6 2.4 2H4.8C4.3 2.5 4 3.2 4 4C4 5.7 5.3 7 7 7H10V9C8.3 9 7 10.3 7 12S8.3 15 10 15H13C15.2 15 17 16.8 17 19M17.9 8.9C20.2 8.5 22 6.4 22 4C22 3.3 21.8 2.6 21.6 2H19.2C19.7 2.5 20 3.2 20 4C20 5.7 18.7 7 17 7H15.8C15.9 7.3 16 7.6 16 8C16 9.7 14.7 11 13 11V13C15.8 13 18 15.2 18 18V22H20V18C20 15.3 18.5 13 16.2 11.8C17.1 11.1 17.7 10.1 17.9 8.9Z" /></svg>