<svg xmlns="http://www.w3.org/2000/svg" id="mdi-snowflake-thermometer" viewBox="0 0 24 24"><path d="M14.46 9.41L11 7.38V5.12L12.71 3.41L11.29 2L10 3.29L8.71 2L7.29 3.41L9 5.12V7.38L6.5 8.82L4.5 7.69L3.92 5.36L2 5.88L2.47 7.65L.7 8.12L1.22 10.05L3.55 9.43L5.55 10.56V13.45L3.55 14.58L1.22 13.96L.7 15.89L2.47 16.36L2 18.12L3.93 18.64L4.55 16.31L6.55 15.18L9 16.62V18.88L7.29 20.59L8.71 22L10 20.71L11.29 22L12.7 20.59L11 18.88V16.62L14.46 14.61M7.5 10.56L10 9.11L12.5 10.56V13.44L10 14.89L7.5 13.44M19 5C17.89 5 17 5.89 17 7V13.76C16.36 14.33 16 15.15 16 16C16 17.66 17.34 19 19 19S22 17.66 22 16C22 15.15 21.64 14.33 21 13.77V7C21 5.89 20.11 5 19 5M19 6C19.55 6 20 6.45 20 7V8H18V7C18 6.45 18.45 6 19 6" /></svg>