<svg xmlns="http://www.w3.org/2000/svg" id="mdi-snowflake-off" viewBox="0 0 24 24"><path d="M11 5.12L9.29 3.41L10.71 2L12 3.29L13.29 2L14.71 3.41L13 5.12V7.38L15.45 8.82L17.45 7.69L18.07 5.36L20 5.88L19.54 7.65L21.31 8.12L20.79 10.05L18.46 9.43L16.46 10.56V13.26L14.5 11.3V10.56L12.74 9.54L10.73 7.53L11 7.38V5.12M18.46 14.57L16.87 13.67L19.55 16.35L21.3 15.88L20.79 13.95L18.46 14.57M13 16.62V18.88L14.7 20.59L13.29 22L12 20.71L10.71 22L9.29 20.59L11 18.88V16.62L8.55 15.18L6.55 16.31L5.93 18.64L4 18.12L4.47 16.36L2.7 15.89L3.22 13.96L5.55 14.58L7.55 13.45V10.56L5.55 9.43L3.22 10.05L2.7 8.12L4.47 7.65L4 5.89L1.11 3L2.39 1.73L22.11 21.46L20.84 22.73L14.1 16L13 16.62M12 14.89L12.63 14.5L9.5 11.39V13.44L12 14.89Z" /></svg>