<svg xmlns="http://www.w3.org/2000/svg" id="mdi-snowboard" viewBox="0 0 24 24"><path d="M21.87 20.37C21.76 20.2 21.62 20.09 21.43 20.06C21.18 20 20.96 20.05 20.78 20.2C20.43 20.5 20.04 20.73 19.58 20.86C19.13 21 18.66 21 18.16 20.9L17.04 20.62L16 14.46L12.74 11.79L14.5 8.94C15.08 9.85 15.85 10.58 16.83 11.14C17.81 11.7 18.88 12 20.03 12V9.97C19.09 9.97 18.26 9.72 17.53 9.22S16.26 8.07 15.92 7.26L15.36 6.05C15.26 5.86 15.08 5.64 14.82 5.39C14.55 5.14 14.19 5 13.72 5H8.07L5.54 9L7.27 10.06L9.14 7H11.5L9 10.95C8.69 11.42 8.6 11.93 8.72 12.5L9.56 15.95L6.06 18.29L5.59 18.19C5.13 18.1 4.7 17.91 4.33 17.61C3.96 17.31 3.68 16.96 3.5 16.56C3.4 16.31 3.23 16.17 3 16.14C2.76 16.08 2.56 16.11 2.39 16.23S2.12 16.5 2.09 16.7C2.06 16.85 2.07 17 2.13 17.17C2.42 17.79 2.83 18.33 3.37 18.78C3.92 19.23 4.55 19.5 5.27 19.64L17.88 22.35C18.6 22.5 19.29 22.5 19.96 22.3C20.63 22.12 21.23 21.79 21.76 21.32C21.88 21.23 21.96 21.11 22 20.95C22 20.73 22 20.54 21.87 20.37M8.77 18.89L11.81 16.89L11.34 13.57L14.19 15.58L14.94 20.2L8.77 18.89M18 3C18 4.11 17.11 5 16 5S14 4.11 14 3 14.9 1 16 1 18 1.9 18 3Z" /></svg>