<svg xmlns="http://www.w3.org/2000/svg" id="mdi-social-distance-6-feet" viewBox="0 0 24 24"><path d="M6 6C7.1 6 8 5.1 8 4S7.1 2 6 2 4 2.9 4 4 4.9 6 6 6M10 9.43C10 8.62 9.5 7.9 8.78 7.58C7.93 7.21 7 7 6 7S4.07 7.21 3.22 7.58C2.5 7.9 2 8.62 2 9.43V10H10V9.43M18 6C19.1 6 20 5.1 20 4S19.1 2 18 2 16 2.9 16 4 16.9 6 18 6M22 9.43C22 8.62 21.5 7.9 20.78 7.58C19.93 7.21 19 7 18 7S16.07 7.21 15.22 7.58C14.5 7.9 14 8.62 14 9.43V10H22V9.43M19 17V15H5V17L2 14L5 11V13H19V11L22 14L19 17M10 19V18H7.5C7.22 18 7 18.22 7 18.5V21.5C7 21.78 7.22 22 7.5 22H9.5C9.78 22 10 21.78 10 21.5V20C10 19.72 9.78 19.5 9.5 19.5H8V19H10M9 20.5V21H8V20.5H9M17.5 19H16.5V22H15.5V19H14.5V18H17.5V19M12.5 19V19.5H13.5V20.5H12.5V22H11.5V18H14V19H12.5Z" /></svg>