<svg xmlns="http://www.w3.org/2000/svg" id="mdi-sofa-outline" viewBox="0 0 24 24"><path d="M21 9V7C21 5.35 19.65 4 18 4H14C13.23 4 12.53 4.3 12 4.78C11.47 4.3 10.77 4 10 4H6C4.35 4 3 5.35 3 7V9C1.35 9 0 10.35 0 12V17C0 18.65 1.35 20 3 20V22H5V20H19V22H21V20C22.65 20 24 18.65 24 17V12C24 10.35 22.65 9 21 9M14 6H18C18.55 6 19 6.45 19 7V9.78C18.39 10.33 18 11.12 18 12V14H13V7C13 6.45 13.45 6 14 6M5 7C5 6.45 5.45 6 6 6H10C10.55 6 11 6.45 11 7V14H6V12C6 11.12 5.61 10.33 5 9.78V7M22 17C22 17.55 21.55 18 21 18H3C2.45 18 2 17.55 2 17V12C2 11.45 2.45 11 3 11S4 11.45 4 12V16H20V12C20 11.45 20.45 11 21 11S22 11.45 22 12V17Z" /></svg>