<?xml version="1.0" encoding="UTF-8"?><!DOCTYPE svg PUBLIC "-//W3C//DTD SVG 1.1//EN" "http://www.w3.org/Graphics/SVG/1.1/DTD/svg11.dtd"><svg xmlns="http://www.w3.org/2000/svg" xmlns:xlink="http://www.w3.org/1999/xlink" version="1.1" id="mdi-sofa-single-outline" width="24" height="24" viewBox="0 0 24 24"><path d="M19 9V7C19 5.35 17.65 4 16 4H8C6.35 4 5 5.35 5 7V9C3.35 9 2 10.35 2 12V17C2 18.65 3.35 20 5 20V22H7V20H17V22H19V20C20.65 20 22 18.65 22 17V12C22 10.35 20.65 9 19 9M7 7C7 6.45 7.45 6 8 6H16C16.55 6 17 6.45 17 7V9.78C16.39 10.33 16 11.12 16 12V14H8V12C8 11.12 7.61 10.33 7 9.78V7M20 17C20 17.55 19.55 18 19 18H5C4.45 18 4 17.55 4 17V12C4 11.45 4.45 11 5 11S6 11.45 6 12V16H18V12C18 11.45 18.45 11 19 11S20 11.45 20 12V17Z" /></svg>