<svg xmlns="http://www.w3.org/2000/svg" id="mdi-source-branch-sync" viewBox="0 0 24 24"><path d="M13 14C9.64 14 8.54 15.35 8.18 16.24C9.25 16.7 10 17.76 10 19C10 20.66 8.66 22 7 22S4 20.66 4 19C4 17.69 4.83 16.58 6 16.17V7.83C4.83 7.42 4 6.31 4 5C4 3.34 5.34 2 7 2S10 3.34 10 5C10 6.31 9.17 7.42 8 7.83V13.12C8.88 12.47 10.16 12 12 12C14.67 12 15.56 10.66 15.85 9.77C14.77 9.32 14 8.25 14 7C14 5.34 15.34 4 17 4S20 5.34 20 7C20 8.34 19.12 9.5 17.91 9.86C17.65 11.29 16.68 14 13 14M7 18C6.45 18 6 18.45 6 19S6.45 20 7 20 8 19.55 8 19 7.55 18 7 18M7 4C6.45 4 6 4.45 6 5S6.45 6 7 6 8 5.55 8 5 7.55 4 7 4M17 6C16.45 6 16 6.45 16 7S16.45 8 17 8 18 7.55 18 7 17.55 6 17 6M18 13V14.5C20.21 14.5 22 16.29 22 18.5C22 19.32 21.75 20.08 21.33 20.71L20.24 19.62C20.41 19.28 20.5 18.9 20.5 18.5C20.5 17.12 19.38 16 18 16V17.5L15.75 15.25L15.72 15.22C15.78 15.17 15.85 15.13 18 13M18 24V22.5C15.79 22.5 14 20.71 14 18.5C14 17.68 14.25 16.92 14.67 16.29L15.76 17.38C15.59 17.72 15.5 18.1 15.5 18.5C15.5 19.88 16.62 21 18 21V19.5L20.25 21.75L20.28 21.78C20.22 21.83 20.15 21.87 18 24" /></svg>