<svg xmlns="http://www.w3.org/2000/svg" id="mdi-sphere-off" viewBox="0 0 24 24"><path d="M2.39 1.73L1.11 3L4.06 5.95C2.77 7.63 2 9.72 2 12C2 17.5 6.5 22 12 22C14.28 22 16.37 21.23 18.05 19.94L20.84 22.73L22.11 21.46L2.39 1.73M5.5 7.39L6.58 8.47C5.87 8.62 5.18 8.8 4.57 9.05C4.81 8.45 5.13 7.9 5.5 7.39M4 12C4 11.23 5.76 10.56 8.33 10.22L12.11 14L12 14C7.58 14 4 13.11 4 12M12 20C8.63 20 5.75 17.91 4.57 14.95C6.07 15.57 8.39 16 12 16C12.63 16 13.33 16 14.05 15.94L16.63 18.5C15.32 19.45 13.73 20 12 20M8.19 5L6.72 3.5C8.25 2.56 10.06 2 12 2C17.5 2 22 6.5 22 12C22 13.94 21.44 15.75 20.5 17.28L19 15.81C19.17 15.54 19.31 15.25 19.43 14.96C19.13 15.08 18.81 15.18 18.47 15.27L16.8 13.6C18.74 13.23 20 12.65 20 12C20 11 17.06 10.17 13.23 10.03L11.21 8C11.5 8 11.75 8 12 8C15.61 8 17.93 8.43 19.43 9.05C18.25 6.09 15.37 4 12 4C10.61 4 9.32 4.36 8.19 5Z" /></svg>