<svg xmlns="http://www.w3.org/2000/svg" id="mdi-spider-outline" viewBox="0 0 24 24"><path d="M20 22H18V17.46L16.44 16.12C16.32 16.83 16.04 17.5 15.62 18.06C15.42 18.34 15.18 18.59 14.91 18.82C14.1 19.5 13.07 19.89 12 19.89C10.93 19.89 9.9 19.5 9.09 18.82C8.82 18.59 8.58 18.34 8.38 18.06C7.96 17.5 7.68 16.83 7.56 16.12L6 17.46V22H4V16.54L7.87 13.22L5.5 13.89L2.71 16.71L1.29 15.29L4.46 12.16L7.46 11.31L5.6 11L1.4 7.8L2.6 6.2L6.4 9.05L9.09 9.5L5.89 6.31L7 1.76L9 2.24L8.11 5.69L9.24 6.83L9.24 6.83C9.36 6.56 9.5 6.32 9.69 6.1C9.84 5.92 10 5.75 10.2 5.61C10.25 5.57 10.3 5.54 10.35 5.5C10.43 5.45 10.5 5.4 10.59 5.36C11.03 5.13 11.5 5 12 5C12.5 5 12.97 5.13 13.4 5.36C13.5 5.4 13.57 5.45 13.65 5.5C13.69 5.53 13.73 5.56 13.77 5.59C13.97 5.73 14.15 5.9 14.3 6.08C14.5 6.3 14.64 6.56 14.76 6.83L14.76 6.83L15.86 5.69L15 2.24L17 1.76L18.11 6.31L14.91 9.5L17.59 9.05L21.4 6.2L22.6 7.8L22.6 7.8L18.41 11L16.5 11.26L19.5 12.11L22.71 15.29L21.29 16.71L18.5 13.89L16.13 13.22L20 16.54V22M14.47 15.79L15 12.5L12 12L9 12.5L9.53 15.79C9.63 16.38 9.93 16.91 10.38 17.29C10.83 17.68 11.41 17.89 12 17.89C12.59 17.89 13.17 17.68 13.62 17.29C14.07 16.91 14.37 16.38 14.47 15.79M12 9.58L13.23 8.35L12.92 7.61C12.84 7.43 12.72 7.28 12.55 7.17C12.39 7.06 12.2 7 12 7C11.8 7 11.61 7.06 11.45 7.17C11.29 7.28 11.16 7.43 11.08 7.61L10.77 8.35L12 9.58Z" /></svg>