<?xml version="1.0" encoding="UTF-8"?><!DOCTYPE svg PUBLIC "-//W3C//DTD SVG 1.1//EN" "http://www.w3.org/Graphics/SVG/1.1/DTD/svg11.dtd"><svg xmlns="http://www.w3.org/2000/svg" xmlns:xlink="http://www.w3.org/1999/xlink" version="1.1" id="mdi-square-rounded-outline" width="24" height="24" viewBox="0 0 24 24"><path d="M8 3H16C18.76 3 21 5.24 21 8V16C21 18.76 18.76 21 16 21H8C5.24 21 3 18.76 3 16V8C3 5.24 5.24 3 8 3M8 5C6.34 5 5 6.34 5 8V16C5 17.66 6.34 19 8 19H16C17.66 19 19 17.66 19 16V8C19 6.34 17.66 5 16 5H8Z" /></svg>