<svg xmlns="http://www.w3.org/2000/svg" id="mdi-star-four-points-circle-outline" viewBox="0 0 24 24"><path d="M12 17L13.56 13.58L17 12L13.56 10.44L12 7L10.43 10.44L7 12L10.43 13.58L12 17M8.17 2.76C9.39 2.26 10.69 2 12 2C13.31 2 14.61 2.26 15.83 2.76C17.04 3.26 18.14 4 19.07 4.93C20 5.86 20.74 6.96 21.24 8.17C21.74 9.39 22 10.69 22 12C22 14.65 20.95 17.2 19.07 19.07C17.2 20.95 14.65 22 12 22C10.69 22 9.39 21.74 8.17 21.24C6.96 20.74 5.86 20 4.93 19.07C3.05 17.2 2 14.65 2 12C2 9.35 3.05 6.8 4.93 4.93C5.86 4 6.96 3.26 8.17 2.76M6.34 17.66C7.84 19.16 9.88 20 12 20C14.12 20 16.16 19.16 17.66 17.66C19.16 16.16 20 14.12 20 12C20 9.88 19.16 7.84 17.66 6.34C16.16 4.84 14.12 4 12 4C9.88 4 7.84 4.84 6.34 6.34C4.84 7.84 4 9.88 4 12C4 14.12 4.84 16.16 6.34 17.66Z" /></svg>