<svg xmlns="http://www.w3.org/2000/svg" id="mdi-storefront-edit" viewBox="0 0 24 24"><path d="M3.84 3.42C4.22 3.14 4.63 3 5.06 3H18.94C19.38 3 19.77 3.14 20.13 3.42C20.5 3.7 20.73 4.06 20.86 4.5L21.89 8.91C22 9.41 22 9.87 21.95 10.31C21.23 10.03 20.4 10.1 19.73 10.5C20 10.17 20.06 9.79 19.97 9.38L18.89 4.97L16.97 5L17.58 9.84C17.61 10.16 17.73 10.43 17.95 10.66C18.17 10.9 18.44 11 18.75 11C18.91 11 19.06 10.97 19.2 10.92L19.07 11.06L19.06 11.05L17.42 12.69C17.09 12.53 16.8 12.31 16.54 12.05C15.91 12.67 15.17 13 14.3 13C13.45 13 12.68 12.7 12 12.07C11.44 12.63 10.64 13 9.8 13C8.86 13 8.1 12.67 7.47 12.05C6.91 12.59 6.16 13 5.22 13S3.63 12.64 3.04 12.07C2.93 11.97 2.81 11.85 2.69 11.73C2.06 10.92 1.86 10 2.11 8.91L3.14 4.5C3.24 4.06 3.46 3.7 3.84 3.42M7.03 5H5.06L4.03 9.38C3.94 9.81 4.03 10.2 4.31 10.55C4.53 10.86 4.84 11 5.25 11C5.91 11 6.3 10.63 6.42 9.84M11 5H9.05L8.5 9.5V9.66C8.5 10 8.61 10.3 8.84 10.59S9.36 11 9.7 11C10.08 11 10.39 10.88 10.64 10.62C10.89 10.35 11 10.05 11 9.7M14.95 5H13V9.7C13 10.05 13.11 10.35 13.36 10.62C13.61 10.88 13.89 11 14.2 11C14.61 11 14.95 10.87 15.21 10.57C15.5 10.27 15.58 9.92 15.5 9.5M21.11 15.93L19.06 13.88L13 19.94V22H15.06M14.3 15C14.63 15 14.96 14.95 15.27 14.84L11 19.11V21H5C3.89 21 3 20.11 3 19V14.03C3.66 14.65 4.33 15 5.23 15C6.1 15 6.89 14.64 7.47 14.05C8.07 14.65 8.87 15 9.78 15C10.65 15 11.43 14.64 12 14.07C12.6 14.64 13.4 15 14.3 15M22.7 14.35L21.7 15.35L19.65 13.3L20.65 12.3C20.72 12.23 20.81 12.18 20.9 12.16C21.08 12.11 21.28 12.16 21.42 12.3L22.7 13.58C22.91 13.79 22.91 14.14 22.7 14.35Z" /></svg>