<svg xmlns="http://www.w3.org/2000/svg" id="mdi-storefront-edit-outline" viewBox="0 0 24 24"><path d="M5.06 3C4.63 3 4.22 3.14 3.84 3.42S3.24 4.06 3.14 4.5L2.11 8.91C1.86 10 2.06 10.95 2.72 11.77L3 12.05V19C3 19.5 3.2 20 3.61 20.39S4.5 21 5 21H11V19.11L11.11 19H5V13H5.25C6.16 13 6.89 12.67 7.45 12.05C8.08 12.67 8.86 13 9.8 13C10.64 13 11.38 12.67 12 12.05C12.69 12.67 13.45 13 14.3 13C15.17 13 15.92 12.67 16.55 12.05C16.8 12.33 17.09 12.54 17.41 12.7L19.06 11.05L19.07 11.06L19.2 10.92C19.06 10.97 18.91 11 18.75 11C18.44 11 18.17 10.9 17.95 10.66C17.73 10.43 17.61 10.16 17.58 9.84L16.97 5L18.89 4.97L19.97 9.38C20.06 9.79 20 10.16 19.73 10.5C20.4 10.1 21.23 10.03 21.95 10.31C22 9.87 22 9.41 21.89 8.91L20.86 4.5C20.73 4.06 20.5 3.7 20.13 3.42C19.77 3.14 19.38 3 18.94 3M5.06 5H7.03L6.42 9.84C6.3 10.63 5.91 11 5.25 11C4.84 11 4.53 10.86 4.31 10.55C4.03 10.2 3.94 9.81 4.03 9.38M9.05 5H11V9.7C11 10.05 10.89 10.35 10.64 10.62C10.39 10.88 10.08 11 9.7 11C9.36 11 9.07 10.88 8.84 10.59S8.5 10 8.5 9.66V9.5M13 5H14.95L15.5 9.5C15.58 9.92 15.5 10.27 15.21 10.57C14.95 10.87 14.61 11 14.2 11C13.89 11 13.61 10.88 13.36 10.62C13.11 10.35 13 10.05 13 9.7M15.06 22H13V19.94L19.06 13.88L21.11 15.93M20.65 12.3C20.75 12.2 20.87 12.15 21 12.14C21.15 12.14 21.31 12.19 21.42 12.3L22.7 13.58C22.91 13.79 22.91 14.14 22.7 14.35L21.7 15.35L19.65 13.3Z" /></svg>