<svg xmlns="http://www.w3.org/2000/svg" id="mdi-storefront-minus-outline" viewBox="0 0 24 24"><path d="M3.84 3.42C4.22 3.14 4.63 3 5.06 3H18.94C19.38 3 19.77 3.14 20.13 3.42C20.5 3.7 20.73 4.06 20.86 4.5L21.89 8.91C22.14 10 21.94 10.95 21.28 11.77C21.23 11.82 21.18 11.87 21.13 11.92L21 12.06C20.43 12.65 19.76 13 18.81 13S17.11 12.62 16.54 12.05C15.91 12.67 15.17 13 14.3 13C13.45 13 12.68 12.7 12 12.07C11.44 12.63 10.64 13 9.8 13C8.86 13 8.1 12.67 7.47 12.05C6.91 12.59 6.16 13 5.22 13C5.15 13 5.07 13 5 13V19H12.08C12.2 19.72 12.45 20.39 12.8 21H5C4.5 21 4 20.78 3.61 20.39S3 19.5 3 19V12.03C2.9 11.94 2.8 11.84 2.69 11.73C2.06 10.92 1.86 10 2.11 8.91L3.14 4.5C3.24 4.06 3.46 3.7 3.84 3.42M19.97 9.38L18.89 4.97L16.97 5L17.58 9.84C17.61 10.16 17.73 10.43 17.95 10.66C18.17 10.9 18.44 11 18.75 11C19.13 11 19.44 10.86 19.69 10.55C19.97 10.2 20.06 9.81 19.97 9.38M7.03 5H5.06L4.03 9.38C3.94 9.81 4.03 10.2 4.31 10.55C4.53 10.86 4.84 11 5.25 11C5.91 11 6.3 10.63 6.42 9.84L7.03 5M11 5H9.05L8.5 9.5V9.66C8.5 10 8.61 10.3 8.84 10.59S9.36 11 9.7 11C10.08 11 10.39 10.88 10.64 10.62C10.89 10.35 11 10.05 11 9.7V5M14.95 5H13V9.7C13 10.05 13.11 10.35 13.36 10.62C13.61 10.88 13.89 11 14.2 11C14.61 11 14.95 10.87 15.21 10.57C15.5 10.27 15.58 9.92 15.5 9.5L14.95 5M14 17V19H22V17H14Z" /></svg>