<svg xmlns="http://www.w3.org/2000/svg" id="mdi-sun-snowflake-variant" viewBox="0 0 24 24"><path d="M12.92 1.58L11.18 2.58L12.39 4.67L11.8 6.85L9 7.6L7.38 6L7.42 3.59L5.43 3.59L5.43 5.42L3.59 5.42L3.6 7.42L6 7.42L7.65 9.03L6.9 11.82L4.68 12.4L2.59 11.2L1.59 12.93L3.17 13.84L2.26 15.42L4 16.42L5.19 14.33L7.42 13.75L7.92 14.26L9.32 12.86L8.78 12.32L9.53 9.54L12.32 8.78L12.85 9.32L14.26 7.91L13.73 7.37L14.32 5.19L16.41 4L15.41 2.25L13.83 3.16L12.92 1.58M20.72 4L4 20.72L5.27 22L10.16 17.11C10.63 17.43 11.15 17.68 11.71 17.83C14.38 18.55 17.12 16.96 17.83 14.29C18.22 12.86 17.93 11.36 17.11 10.16L22 5.27L20.72 4M18.74 9C19.18 9.63 19.53 10.38 19.75 11.19C19.97 12 20.03 12.81 19.96 13.61L22.65 10.41L18.74 9M19.32 15.95C19 16.67 18.5 17.35 17.93 17.94C17.34 18.53 16.66 19 15.96 19.34L20.05 20.06L19.32 15.95M9 18.71L10.41 22.66L13.59 19.95C12.81 20 12 19.97 11.19 19.76C10.36 19.54 9.62 19.17 9 18.71Z" /></svg>