<?xml version="1.0" encoding="UTF-8"?><!DOCTYPE svg PUBLIC "-//W3C//DTD SVG 1.1//EN" "http://www.w3.org/Graphics/SVG/1.1/DTD/svg11.dtd"><svg xmlns="http://www.w3.org/2000/svg" xmlns:xlink="http://www.w3.org/1999/xlink" version="1.1" id="mdi-sun-clock" width="24" height="24" viewBox="0 0 24 24"><path d="M11 1L8.61 4.42C9.35 4.15 10.16 4 11 4S12.65 4.15 13.39 4.42L11 1M15.5 5.64C16.1 6.15 16.63 6.78 17.05 7.5C17.17 7.7 17.26 7.91 17.35 8.12C17.75 8.18 18.14 8.28 18.53 8.41L19.65 6L15.5 5.64M6.5 5.65L2.34 6L4.11 9.79C4.25 9 4.5 8.24 4.94 7.5C5.36 6.78 5.9 6.16 6.5 5.65M11 6C8.24 6 6 8.24 6 11C6 13.05 7.24 14.81 9 15.58C9 15.72 9 15.86 9 16C9 19.87 12.13 23 16 23S23 19.87 23 16 19.87 9 16 9H15.91C15.8 9 15.69 9 15.59 9C14.82 7.24 13.05 6 11 6M16 11C18.76 11 21 13.24 21 16S18.76 21 16 21 11 18.76 11 16 13.24 11 16 11M15 12V17L18.61 19.16L19.36 17.94L16.5 16.25V12H15M4.12 12.23L2.36 16L6.5 16.37C5.91 15.86 5.37 15.24 4.95 14.5C4.53 13.78 4.26 13 4.12 12.23Z" /></svg>