<?xml version="1.0" encoding="UTF-8"?><!DOCTYPE svg PUBLIC "-//W3C//DTD SVG 1.1//EN" "http://www.w3.org/Graphics/SVG/1.1/DTD/svg11.dtd"><svg xmlns="http://www.w3.org/2000/svg" xmlns:xlink="http://www.w3.org/1999/xlink" version="1.1" id="mdi-sun-thermometer" width="24" height="24" viewBox="0 0 24 24"><path d="M10 7C7.2 7 5 9.2 5 12S7.2 17 10 17 15 14.8 15 12 12.8 7 10 7M10 2L12.4 5.4C11.6 5.2 10.8 5 10 5S8.4 5.2 7.6 5.4L10 2M1.3 7L5.5 6.7C4.9 7.2 4.4 7.8 3.9 8.5C3.5 9.2 3.2 10 3.1 10.8L1.3 7M1.4 17L3.2 13.2C3.3 14 3.5 14.8 4 15.5C4.4 16.2 5 16.9 5.5 17.4L1.4 17M10 22L7.6 18.6C8.3 18.8 9.1 19 10 19C10.8 19 11.6 18.8 12.4 18.6L10 22M20.8 13.6V6.8C20.8 5.8 20 5 19 5S17.2 5.8 17.2 6.8V13.6C16.5 14.1 16 15 16 16C16 17.7 17.3 19 19 19S22 17.7 22 16C22 15 21.5 14.1 20.8 13.6M18.2 6.8C18.2 6.3 18.6 6 19 6S19.8 6.3 19.8 6.8V8H18.3V6.8Z" /></svg>