<svg xmlns="http://www.w3.org/2000/svg" id="mdi-sun-thermometer-outline" viewBox="0 0 24 24"><path d="M10 2L7.6 5.4C8.4 5.2 9.2 5 10 5S11.6 5.2 12.4 5.4L10 2M21 13.8V7C21 5.9 20.1 5 19 5S17 5.9 17 7V13.8C16.4 14.4 16 15.2 16 16C16 17.7 17.3 19 19 19S22 17.7 22 16C22 15.1 21.6 14.3 21 13.8M20 8H18V7C18 6.4 18.4 6 19 6S20 6.4 20 7V8M5.5 6.7L1.3 7L3.1 10.8C3.2 10 3.5 9.2 3.9 8.5C4.4 7.8 4.9 7.2 5.5 6.7M10 7C7.2 7 5 9.2 5 12S7.2 17 10 17 15 14.8 15 12 12.8 7 10 7M10 15C8.3 15 7 13.7 7 12S8.3 9 10 9 13 10.3 13 12 11.7 15 10 15M3.2 13.2L1.4 17L5.5 17.4C5 16.9 4.4 16.2 4 15.5C3.5 14.8 3.3 14 3.2 13.2M7.6 18.6L10 22L12.4 18.6C11.6 18.8 10.8 19 10 19C9.1 19 8.3 18.8 7.6 18.6Z" /></svg>