<svg xmlns="http://www.w3.org/2000/svg" id="mdi-sun-thermometer" viewBox="0 0 24 24"><path d="M10 2L7.6 5.4C8.4 5.2 9.2 5 10 5C10.8 5 11.6 5.2 12.4 5.4M19 5C17.89 5 17 5.89 17 7V13.76C16.36 14.33 16 15.15 16 16C16 17.66 17.34 19 19 19C20.66 19 22 17.66 22 16C22 15.15 21.64 14.33 21 13.77V7C21 5.89 20.11 5 19 5M19 6C19.55 6 20 6.45 20 7V8H18V7C18 6.45 18.45 6 19 6M5.5 6.7L1.3 7L3.1 10.8C3.2 10 3.5 9.2 3.9 8.5C4.4 7.8 4.9 7.2 5.5 6.7M10 7C7.2 7 5 9.2 5 12C5 14.8 7.2 17 10 17C12.8 17 15 14.8 15 12C15 9.2 12.8 7 10 7M3.2 13.2L1.4 17L5.5 17.4C5 16.9 4.4 16.2 4 15.5C3.5 14.8 3.3 14 3.2 13.2M7.6 18.6L10 22L12.4 18.6C11.6 18.8 10.8 19 10 19C9.1 19 8.3 18.8 7.6 18.6Z" /></svg>