<svg xmlns="http://www.w3.org/2000/svg" id="mdi-tag-hidden" viewBox="0 0 24 24"><path d="M13.64 3.81L12.41 2.58C12.04 2.21 11.53 2 11 2H10V4H11L12.23 5.23L13.64 3.81M12.93 5.93L14.35 4.5L16.47 6.64L15.05 8.05L12.93 5.93M4 11L5.23 12.23L3.81 13.64L2.59 12.42C2.4 12.23 2.25 12 2.15 11.77C2.05 11.53 2 11.26 2 11V10H4V11M4.5 14.35L5.93 12.93L8.05 15.05L6.64 16.47L4.5 14.35M9.47 19.3L7.35 17.18L8.76 15.76L10.88 17.88L9.47 19.3M15.76 8.76L17.88 10.88L19.3 9.47L17.18 7.35L15.76 8.76M18.59 11.59L20 10.17L21.41 11.58C21.6 11.77 21.75 12 21.85 12.23C21.95 12.5 22 12.74 22 13C22 13.53 21.79 14.04 21.41 14.41L18.59 11.59M20.7 15.12L19.29 13.71L16.85 16.15L18.26 17.56L20.7 15.12M16.15 16.85L17.56 18.26L15.12 20.7L13.71 19.29L16.15 16.85M14.41 21.41L11.59 18.59L10.17 20L11.59 21.42C11.97 21.79 12.47 22 13 22C13.53 22 14.04 21.79 14.41 21.41M4 9H2V6H4V9M2 5H4V4H5V2H4C3.47 2 2.96 2.21 2.59 2.59C2.21 2.96 2 3.47 2 4V5M6 4V2H9V4H6M6.5 8C7.33 8 8 7.33 8 6.5C8 5.67 7.33 5 6.5 5C5.67 5 5 5.67 5 6.5C5 7.33 5.67 8 6.5 8Z" /></svg>