<svg xmlns="http://www.w3.org/2000/svg" id="mdi-tag-edit" viewBox="0 0 24 24"><path d="M12.41 2.58L21.41 11.58C21.77 11.94 22 12.44 22 13C22 13.55 21.78 14.05 21.41 14.41L14.41 21.41C14.05 21.77 13.55 22 13 22C12.45 22 11.95 21.77 11.58 21.41L9.45 19.28L10.7 18.03L10.7 18.04L13.11 15.62C14.11 14.63 14.11 13 13.11 12L11.83 10.74C10.84 9.75 9.23 9.75 8.24 10.74L8.07 10.91L8.06 10.91L4.57 14.4L2.59 12.41C2.22 12.05 2 11.55 2 11V4C2 2.89 2.89 2 4 2H11C11.55 2 12.05 2.22 12.41 2.58M4.44 6.56C4.72 6.84 5.1 7 5.5 7C5.9 7 6.28 6.84 6.56 6.56C6.84 6.28 7 5.9 7 5.5C7 5.1 6.84 4.72 6.56 4.44C6.28 4.16 5.9 4 5.5 4C5.1 4 4.72 4.16 4.44 4.44C4.16 4.72 4 5.1 4 5.5C4 5.9 4.16 6.28 4.44 6.56M10.7 15.35L11.7 14.35C11.91 14.14 11.91 13.79 11.7 13.58L10.42 12.3C10.21 12.09 9.86 12.09 9.65 12.3L8.65 13.3L10.7 15.35M8.06 13.88L2 19.94V22H4.06L10.11 15.93L8.06 13.88Z" /></svg>