<svg xmlns="http://www.w3.org/2000/svg" id="mdi-thermostat-cog" viewBox="0 0 24 24"><path d="M22 12.66C21.07 12.24 20.07 12 19 12C19 10.43 18.5 9 17.6 7.81L15.43 10C15.79 10.57 16 11.26 16 12C16 12.24 16 12.5 15.94 12.7C13.61 13.84 12 16.23 12 19C12 20.07 12.24 21.07 12.66 22C12.44 22 12.22 22 12 22C10.69 22 9.39 21.74 8.17 21.24C6.96 20.74 5.86 20 4.93 19.07C3.05 17.2 2 14.65 2 12C2 9.35 3.05 6.8 4.93 4.93C5.86 4 6.96 3.26 8.17 2.76C9.39 2.26 10.69 2 12 2C17.5 2 22 6.47 22 12C22 12.22 22 12.44 22 12.66M12 5C10.14 5 8.36 5.74 7.05 7.05C5.74 8.36 5 10.14 5 12C5 13.93 5.78 15.68 7.05 16.95L9.17 14.83C8.45 14.1 8 13.1 8 12C8 10.94 8.42 9.92 9.17 9.17C9.92 8.42 10.94 8 12 8C12.74 8 13.43 8.21 14 8.56L16.19 6.4C15 5.5 13.57 5 12 5M23.83 20.64C23.89 20.53 23.87 20.39 23.77 20.32L22.72 19.5C22.74 19.33 22.75 19.16 22.75 19C22.75 18.84 22.74 18.67 22.72 18.5L23.77 17.68C23.87 17.61 23.89 17.5 23.83 17.36L22.83 15.64C22.77 15.53 22.64 15.5 22.53 15.53L21.28 16L21.14 15.91C20.91 15.77 20.7 15.64 20.44 15.54L20.25 14.21C20.23 14.09 20.13 14 20 14H18C17.88 14 17.77 14.09 17.75 14.21L17.57 15.54C17.3 15.64 17.09 15.78 16.86 15.92L16.72 16L15.5 15.53C15.37 15.5 15.23 15.53 15.17 15.64L14.17 17.36C14.11 17.5 14.14 17.61 14.23 17.68L15.29 18.5L15.29 18.53C15.27 18.69 15.25 18.84 15.25 19C15.25 19.16 15.27 19.31 15.29 19.47C15.29 19.5 15.29 19.5 15.29 19.5L14.23 20.32C14.14 20.39 14.11 20.53 14.17 20.64L15.17 22.37C15.23 22.5 15.37 22.5 15.5 22.5L16.72 21.97C17 22.17 17.25 22.34 17.57 22.47L17.75 23.79C17.77 23.91 17.88 24 18 24H20C20.13 24 20.23 23.91 20.25 23.79L20.44 22.47C20.75 22.34 21 22.17 21.28 21.97L22.53 22.5C22.64 22.5 22.77 22.5 22.83 22.37L23.83 20.64M19 17.25C19.97 17.25 20.75 18.03 20.75 19C20.75 19.97 19.96 20.75 19 20.75C18.04 20.75 17.25 19.97 17.25 19C17.25 18.03 18.03 17.25 19 17.25Z" /></svg>