<?xml version="1.0" encoding="UTF-8"?><!DOCTYPE svg PUBLIC "-//W3C//DTD SVG 1.1//EN" "http://www.w3.org/Graphics/SVG/1.1/DTD/svg11.dtd"><svg xmlns="http://www.w3.org/2000/svg" xmlns:xlink="http://www.w3.org/1999/xlink" version="1.1" id="mdi-thermometer-alert" width="24" height="24" viewBox="0 0 24 24"><path d="M17 13V7H19V13H17M17 17V15H19V17H17M13 13V5C13 3.3 11.7 2 10 2S7 3.3 7 5V13C4.8 14.7 4.3 17.8 6 20S10.8 22.7 13 21 15.7 16.2 14 14C13.7 13.6 13.4 13.3 13 13M10 4C10.6 4 11 4.4 11 5V8H9V5C9 4.4 9.4 4 10 4Z" /></svg>