<svg xmlns="http://www.w3.org/2000/svg" id="mdi-thermostat-auto" viewBox="0 0 24 24"><path d="M12 2C6.5 2 2 6.5 2 12S6.5 22 12 22C12.4 22 12.7 22 13.1 21.9L15.4 15.3L14.8 14.7C15.5 14 16 13 16 11.9C16 11.2 15.8 10.5 15.4 9.9L17.6 7.7C18.5 9 19 10.4 19 12H20C20.3 12 20.6 12.1 20.8 12.2C20.8 12.2 20.9 12.2 20.9 12.3C21.3 12.5 21.7 12.9 21.9 13.4C22 12.9 22 12.5 22 12C22 6.5 17.5 2 12 2M14 8.6C13.4 8.2 12.7 8 12 8C9.8 8 8 9.8 8 12C8 13.1 8.4 14.1 9.2 14.8L7.1 16.9C5.8 15.7 5 13.9 5 12C5 8.1 8.1 5 12 5C13.6 5 15 5.5 16.2 6.4L14 8.6M20 14H18L14.8 23H16.7L17.4 21H20.6L21.3 23H23.2L20 14M17.8 19.7L19 16L20.2 19.7H17.8Z" /></svg>