<?xml version="1.0" encoding="UTF-8"?><!DOCTYPE svg PUBLIC "-//W3C//DTD SVG 1.1//EN" "http://www.w3.org/Graphics/SVG/1.1/DTD/svg11.dtd"><svg xmlns="http://www.w3.org/2000/svg" xmlns:xlink="http://www.w3.org/1999/xlink" version="1.1" id="mdi-timer-settings" width="24" height="24" viewBox="0 0 24 24"><path d="M19 6.4L20.5 5C20 4.5 19.5 4 19 3.6L17.6 5C16 3.7 14.1 3 12 3C7 3 3 7 3 12S7 21 12 21C17 21 21 17 21 12C21 9.9 20.3 7.9 19 6.4M13 13H11V6H13V13M15 0H9V2H15V0M13 24H11V22H13V24M17 24H15V22H17V24M9 24H7V22H9V24Z" /></svg>