<svg xmlns="http://www.w3.org/2000/svg" id="mdi-timer-refresh" viewBox="0 0 24 24"><path d="M15 3H9V1H15V3M12 18.5C12 19.77 12.37 20.94 13 21.94C12.67 22 12.34 22 12 22C7.03 22 3 17.97 3 13S7.03 4 12 4C14.12 4 16.07 4.74 17.62 6L19.04 4.56C19.55 5 20 5.46 20.45 5.97L19.03 7.39C20.16 8.81 20.87 10.57 21 12.5C20.22 12.18 19.38 12 18.5 12C14.91 12 12 14.91 12 18.5M13 7H11V14H13V7M22 18.5V14.5L20.83 15.67C20.11 14.95 19.11 14.5 18 14.5C15.79 14.5 14 16.29 14 18.5S15.79 22.5 18 22.5C19.68 22.5 21.12 21.47 21.71 20H20C19.54 20.61 18.82 21 18 21C16.62 21 15.5 19.88 15.5 18.5S16.62 16 18 16C18.69 16 19.32 16.28 19.77 16.73L18 18.5H22Z" /></svg>