<?xml version="1.0" encoding="UTF-8"?><!DOCTYPE svg PUBLIC "-//W3C//DTD SVG 1.1//EN" "http://www.w3.org/Graphics/SVG/1.1/DTD/svg11.dtd"><svg xmlns="http://www.w3.org/2000/svg" xmlns:xlink="http://www.w3.org/1999/xlink" version="1.1" id="mdi-toolbox-outline" width="24" height="24" viewBox="0 0 24 24"><path d="M20 8H17V6C17 4.9 16.1 4 15 4H9C7.9 4 7 4.9 7 6V8H4C2.9 8 2 8.9 2 10V20H22V10C22 8.9 21.1 8 20 8M9 6H15V8H9V6M20 18H4V15H6V16H8V15H16V16H18V15H20V18M18 13V12H16V13H8V12H6V13H4V10H20V13H18Z" /></svg>