<?xml version="1.0" encoding="UTF-8"?><!DOCTYPE svg PUBLIC "-//W3C//DTD SVG 1.1//EN" "http://www.w3.org/Graphics/SVG/1.1/DTD/svg11.dtd"><svg xmlns="http://www.w3.org/2000/svg" xmlns:xlink="http://www.w3.org/1999/xlink" version="1.1" id="mdi-town-hall" width="24" height="24" viewBox="0 0 24 24"><path d="M21 10H17V8L12.5 6.2V4H15V2H11.5V6.2L7 8V10H3C2.45 10 2 10.45 2 11V22H10V17H14V22H22V11C22 10.45 21.55 10 21 10M8 20H4V17H8V20M8 15H4V12H8V15M12 8C12.55 8 13 8.45 13 9S12.55 10 12 10 11 9.55 11 9 11.45 8 12 8M14 15H10V12H14V15M20 20H16V17H20V20M20 15H16V12H20V15Z" /></svg>