<svg xmlns="http://www.w3.org/2000/svg" id="mdi-transit-connection-horizontal" viewBox="0 0 24 24"><path d="M12 9C10.7 9 9.6 9.8 9.2 11H6.8C6.4 9.8 5.3 9 4 9C2.3 9 1 10.3 1 12S2.3 15 4 15C5.3 15 6.4 14.2 6.8 13H9.2C9.6 14.2 10.7 15 12 15S14.4 14.2 14.8 13H17.2C17.6 14.2 18.7 15 20 15C21.7 15 23 13.7 23 12S21.7 9 20 9C18.7 9 17.6 9.8 17.2 11H14.8C14.4 9.8 13.3 9 12 9M3 12C3 11.4 3.4 11 4 11S5 11.4 5 12 4.6 13 4 13 3 12.6 3 12M21 12C21 12.6 20.6 13 20 13S19 12.6 19 12 19.4 11 20 11 21 11.4 21 12Z" /></svg>