<svg xmlns="http://www.w3.org/2000/svg" id="mdi-transmission-tower-import" viewBox="0 0 24 24"><path d="M11.39 5.45L9.61 4.55L10.87 2H19.34L20.61 4.55L18.83 5.44L18.11 4H12.11L11.39 5.45M21.73 8H17.2L16.41 5H13.81L13 8H8.5L7.21 10.55L9 11.44L9.73 10H20.5L21.21 11.45L23 10.56L21.73 8M20.88 22H18.81L18.57 21.1L15.11 15.9L11.64 21.1L11.41 22H9.34L12.23 11H14.3L13.94 12.35L15.11 14.1L16.27 12.35L15.92 11H18L20.88 22M14.5 15L13.61 13.65L12.43 18.13L14.5 15M17.79 18.12L16.61 13.64L15.71 15L17.79 18.12M9 16L5 12V15H1V17H5V20L9 16Z" /></svg>