<svg xmlns="http://www.w3.org/2000/svg" id="mdi-truck-off-road-off" viewBox="0 0 24 24"><path d="M2.39 1.73L1.11 3L6.96 8.85L.733 9.95L1.6 14.87L3.57 14.53C3.71 15.31 4.15 16 4.81 16.46C5.46 16.92 6.26 17.1 7.05 16.96C7.83 16.82 8.53 16.38 9 15.73C9.44 15.07 9.62 14.27 9.5 13.5L11.28 13.17L14.37 16.26C14.06 16.33 13.76 16.41 13.46 16.5L12.08 16.97C10.04 17.65 7.9 18 5.75 18H5.66C4.6 18 3.58 18.42 2.83 19.17L2 20V22H20.11L20.84 22.73L21.57 22H22V21.57L22.11 21.46L22 21.35V21.35L2.39 1.73M7.39 12.78C7.71 13 7.93 13.35 8 13.74C8.07 14.14 8 14.54 7.75 14.86C7.53 15.19 7.18 15.41 6.79 15.5C6.39 15.55 6 15.46 5.67 15.23C5.34 15 5.12 14.66 5.05 14.26C5 13.87 5.07 13.47 5.3 13.14C5.53 12.82 5.87 12.6 6.27 12.53C6.66 12.46 7.06 12.55 7.39 12.78M22 18.5L19.5 16H22V18.5M18.4 14.92C18.56 14.92 18.71 14.9 18.86 14.88C19.65 14.74 20.34 14.29 20.8 13.64C21.26 13 21.44 12.18 21.3 11.4L23.27 11.05L22.75 8.1C22.55 7 21.5 6.28 20.43 6.5L18.46 6.82L14.81 3.4L9.39 4.36L9.73 6.24L18.4 14.92M11.13 5.58L14.58 4.97L16.94 7.09L11.57 8.04L11.13 5.58M18.08 10.44C18.47 10.37 18.88 10.46 19.2 10.69C19.53 10.92 19.75 11.27 19.82 11.66C19.89 12.05 19.8 12.46 19.57 12.78C19.34 13.11 19 13.33 18.6 13.4C18.21 13.47 17.81 13.38 17.5 13.15C17.16 12.92 16.93 12.57 16.87 12.18C16.8 11.79 16.89 11.39 17.11 11.06C17.34 10.73 17.69 10.5 18.08 10.44Z" /></svg>