<svg xmlns="http://www.w3.org/2000/svg" id="mdi-truck-remove-outline" viewBox="0 0 24 24"><path d="M20 8H17V4H3C1.89 4 1 4.89 1 6V17H3C3 18.66 4.34 20 6 20S9 18.66 9 17H15C15 18.66 16.34 20 18 20S21 18.66 21 17H23V12L20 8M6 18.5C5.17 18.5 4.5 17.83 4.5 17S5.17 15.5 6 15.5 7.5 16.17 7.5 17 6.83 18.5 6 18.5M15 15H8.24C7.69 14.39 6.89 14 6 14S4.31 14.39 3.76 15H3V6H15V15M18 18.5C17.17 18.5 16.5 17.83 16.5 17S17.17 15.5 18 15.5 19.5 16.17 19.5 17 18.83 18.5 18 18.5M17 12V9.5H19.5L21.46 12H17M5.82 11.77L7.59 10L5.82 8.23L7.23 6.82L9 8.59L10.77 6.82L12.18 8.23L10.41 10L12.18 11.77L10.77 13.18L9 11.41L7.23 13.18L5.82 11.77Z" /></svg>