<?xml version="1.0" encoding="UTF-8"?><!DOCTYPE svg PUBLIC "-//W3C//DTD SVG 1.1//EN" "http://www.w3.org/Graphics/SVG/1.1/DTD/svg11.dtd"><svg xmlns="http://www.w3.org/2000/svg" xmlns:xlink="http://www.w3.org/1999/xlink" version="1.1" id="mdi-tune-vertical-variant" width="24" height="24" viewBox="0 0 24 24"><path d="M8 12.14V2H6V12.14C4.28 12.59 3 14.14 3 16S4.28 19.41 6 19.86V22H8V19.86C9.72 19.41 11 17.86 11 16S9.72 12.59 8 12.14M7 14C8.1 14 9 14.9 9 16S8.1 18 7 18C5.9 18 5 17.1 5 16S5.9 14 7 14M18 2H16V4.14C14.28 4.59 13 6.14 13 8S14.28 11.41 16 11.86V22H18V11.86C19.72 11.41 21 9.86 21 8S19.72 4.59 18 4.14V2M17 6C18.1 6 19 6.9 19 8S18.1 10 17 10C15.9 10 15 9.1 15 8S15.9 6 17 6Z" /></svg>