<svg xmlns="http://www.w3.org/2000/svg" id="mdi-virus-off-outline" viewBox="0 0 24 24"><path d="M23 13C23 13.97 22.22 14.75 21.25 14.75C20.66 14.75 20.13 14.45 19.82 14H18.71C18.6 14.38 18.45 14.73 18.28 15.08L16.73 13.53C16.89 13.05 17 12.54 17 12C17 9.24 14.76 7 12 7C11.46 7 10.95 7.11 10.47 7.27L8.92 5.72C9.57 5.41 10.26 5.19 11 5.08V3.68C10.55 3.37 10.25 2.84 10.25 2.25C10.25 1.28 11.03 .5 12 .5S13.75 1.28 13.75 2.25C13.75 2.84 13.45 3.37 13 3.68V5.08C14.19 5.25 15.27 5.71 16.19 6.4L17.53 5.06C17.43 4.5 17.59 3.93 18 3.5C18.35 3.17 18.8 3 19.25 3S20.15 3.17 20.5 3.5C21.17 4.2 21.17 5.31 20.5 6C20.15 6.33 19.7 6.5 19.25 6.5C19.15 6.5 19.05 6.5 18.94 6.47L17.6 7.81C18.5 9 19 10.43 19 12H19.82C20.13 11.55 20.66 11.25 21.25 11.25C22.22 11.25 23 12.03 23 13M22.11 21.46L20.84 22.73L20.1 22C19.7 21.95 19.31 21.79 19 21.5C18.7 21.19 18.54 20.8 18.5 20.4L15.9 17.79C15.57 18 15.22 18.23 14.85 18.39C15.21 18.68 15.46 19.12 15.5 19.62C15.57 20.58 14.85 21.42 13.88 21.5H13.75C12.84 21.5 12.08 20.8 12 19.88C12 19.56 12.05 19.26 12.18 19H12C11.07 19 10.19 18.82 9.38 18.5L8.31 20.47C8.56 20.96 8.57 21.56 8.29 22.08C7.97 22.67 7.37 23 6.75 23C6.47 23 6.18 22.93 5.92 22.79C5.07 22.33 4.75 21.27 5.21 20.42C5.5 19.89 6 19.58 6.55 19.5L7.65 17.5C6.95 16.92 6.35 16.22 5.9 15.43L4.39 15.84C4.21 16.36 3.78 16.78 3.21 16.94C3.05 17 2.9 17 2.75 17C2 17 1.27 16.5 1.06 15.71C.809 14.77 1.36 13.81 2.29 13.56C2.44 13.5 2.6 13.5 2.75 13.5C3.16 13.5 3.56 13.65 3.87 13.91L5.18 13.56C5.07 13.06 5 12.54 5 12C4.64 11.92 4.29 11.77 4 11.5C3.33 10.8 3.33 9.7 4 9C4.35 8.67 4.8 8.5 5.25 8.5C5.46 8.5 5.67 8.54 5.87 8.62C5.97 8.44 6.09 8.27 6.2 8.09L1.11 3L2.39 1.73L22.11 21.46M14.45 16.34L7.66 9.55C7.25 10.28 7 11.11 7 12C7 14.76 9.24 17 12 17C12.9 17 13.73 16.75 14.45 16.34M7.19 2.75C6.84 2.26 6.3 2 5.75 2C5.59 2 5.43 2.03 5.27 2.07L7.42 4.22C7.56 3.73 7.5 3.19 7.19 2.75Z" /></svg>