<svg xmlns="http://www.w3.org/2000/svg" id="mdi-virus-off" viewBox="0 0 24 24"><path d="M7.42 4.22L5.28 2.08C5.97 1.88 6.75 2.12 7.19 2.75C7.5 3.19 7.56 3.73 7.42 4.22M21.25 11.25C20.66 11.25 20.13 11.55 19.82 12H19C19 10.43 18.5 9 17.6 7.81L18.94 6.47C19.5 6.57 20.07 6.41 20.5 6C21.17 5.31 21.17 4.2 20.5 3.5C19.81 2.83 18.7 2.83 18 3.5C17.59 3.93 17.43 4.5 17.53 5.06L16.19 6.4C15.27 5.71 14.19 5.25 13 5.08V3.68C13.45 3.37 13.75 2.84 13.75 2.25C13.75 1.28 12.97 .5 12 .5S10.25 1.28 10.25 2.25C10.25 2.84 10.55 3.37 11 3.68V5.08C10.26 5.19 9.57 5.41 8.92 5.72L18.28 15.08C18.45 14.73 18.6 14.38 18.71 14H19.82C20.13 14.45 20.66 14.75 21.25 14.75C22.22 14.75 23 13.97 23 13S22.22 11.25 21.25 11.25M22.11 21.46L20.84 22.73L20.1 22C19.7 21.96 19.31 21.8 19 21.5C18.7 21.19 18.54 20.8 18.5 20.4L15.9 17.79C15.57 18 15.22 18.23 14.85 18.39C15.21 18.68 15.46 19.12 15.5 19.62C15.57 20.58 14.84 21.43 13.88 21.5S12.08 20.85 12 19.88C12 19.56 12.05 19.26 12.18 19H12C11.07 19 10.19 18.82 9.38 18.5L8.31 20.47C8.56 20.96 8.57 21.56 8.29 22.08C7.83 22.93 6.77 23.25 5.92 22.79C5.07 22.33 4.75 21.27 5.21 20.42C5.5 19.89 6 19.58 6.55 19.5L7.65 17.5C6.95 16.92 6.35 16.22 5.9 15.43L4.39 15.84C4.21 16.36 3.78 16.78 3.21 16.94C2.28 17.19 1.31 16.64 1.06 15.71C.808 14.77 1.36 13.81 2.29 13.56C2.87 13.41 3.45 13.56 3.87 13.91L5.18 13.56C5.07 13.06 5 12.54 5 12C4.64 11.93 4.29 11.77 4 11.5C3.33 10.8 3.33 9.7 4 9C4.5 8.5 5.25 8.38 5.87 8.62C5.97 8.44 6.09 8.27 6.2 8.09L1.11 3L2.39 1.73L22.11 21.46Z" /></svg>