<?xml version="1.0" encoding="UTF-8"?><!DOCTYPE svg PUBLIC "-//W3C//DTD SVG 1.1//EN" "http://www.w3.org/Graphics/SVG/1.1/DTD/svg11.dtd"><svg xmlns="http://www.w3.org/2000/svg" xmlns:xlink="http://www.w3.org/1999/xlink" version="1.1" id="mdi-water-percent-alert" width="24" height="24" viewBox="0 0 24 24"><path d="M20 7V13H18V7H20M18 17H20V15H18V17M10 3.25C10 3.25 4 10 4 14C4 17.32 6.69 20 10 20S16 17.31 16 14C16 10 10 3.25 10 3.25M7.75 10C8.44 10 9 10.56 9 11.25S8.44 12.5 7.75 12.5 6.5 11.94 6.5 11.25 7.06 10 7.75 10M12.25 17C11.56 17 11 16.44 11 15.75S11.56 14.5 12.25 14.5 13.5 15.06 13.5 15.75 12.94 17 12.25 17M7.53 17.03L6.47 15.97L12.47 9.97L13.53 11.03L7.53 17.03Z" /></svg>