<?xml version="1.0" encoding="UTF-8"?><!DOCTYPE svg PUBLIC "-//W3C//DTD SVG 1.1//EN" "http://www.w3.org/Graphics/SVG/1.1/DTD/svg11.dtd"><svg xmlns="http://www.w3.org/2000/svg" xmlns:xlink="http://www.w3.org/1999/xlink" version="1.1" id="mdi-water-opacity" width="24" height="24" viewBox="0 0 24 24"><path d="M16 14V12H17.61C17.85 12.71 18 13.39 18 14H16M15.58 8C15.12 7.29 14.65 6.61 14.2 6H14V8H15.58M16 12V10H14V12H16M16 8.68V10H16.74C16.5 9.56 16.26 9.11 16 8.68M12 16V14H14V12H12V10H14V8H12V6H14V5.73C12.9 4.26 12 3.25 12 3.25S6 10 6 14C6 17.31 8.69 20 12 20V18H14V16H12M14 19.65C14.75 19.39 15.42 19 16 18.46V18H14V19.65M14 16H16V14H14V16M16 18H16.46C17 17.42 17.39 16.75 17.65 16H16V18Z" /></svg>