<?xml version="1.0" encoding="UTF-8"?><!DOCTYPE svg PUBLIC "-//W3C//DTD SVG 1.1//EN" "http://www.w3.org/Graphics/SVG/1.1/DTD/svg11.dtd"><svg xmlns="http://www.w3.org/2000/svg" xmlns:xlink="http://www.w3.org/1999/xlink" version="1.1" id="mdi-water-alert-outline" width="24" height="24" viewBox="0 0 24 24"><path d="M10 3.25C10 3.25 4 10 4 14C4 17.31 6.69 20 10 20S16 17.31 16 14C16 10 10 3.25 10 3.25M10 18C7.79 18 6 16.21 6 14C6 12.23 8 8.96 10 6.39C12 8.95 14 12.23 14 14C14 16.21 12.21 18 10 18M20 7V13H18V7H20M18 17H20V15H18V17Z" /></svg>