<svg xmlns="http://www.w3.org/2000/svg" id="mdi-weather-sunny-off" viewBox="0 0 24 24"><path d="M22.11 21.46L2.39 1.73L1.11 3L4.97 6.86L3.34 7L5.11 10.79C5.25 10 5.5 9.24 5.94 8.5C6 8.36 6.13 8.24 6.22 8.11L7.66 9.55C7.25 10.27 7 11.11 7 12C7 14.76 9.24 17 12 17C12.9 17 13.73 16.75 14.45 16.34L20.84 22.73L22.11 21.46M12 15C10.34 15 9 13.66 9 12C9 11.67 9.07 11.36 9.17 11.06L12.94 14.83C12.64 14.93 12.33 15 12 15M18.05 8.5C17.63 7.78 17.1 7.15 16.5 6.64L20.65 7L18.88 10.79C18.74 10 18.47 9.23 18.05 8.5M12 7C14.76 7 17 9.24 17 12C17 12.54 16.89 13.05 16.74 13.54L15 11.78C14.87 10.3 13.7 9.13 12.22 9L10.47 7.27C10.95 7.11 11.46 7 12 7M12 5C11.16 5 10.35 5.15 9.61 5.42L12 2L14.39 5.42C13.65 5.15 12.84 5 12 5M18.87 13.21L20.64 17L20.24 17.04L18.25 15.05C18.54 14.45 18.76 13.84 18.87 13.21M12 19C12.82 19 13.63 18.83 14.37 18.56L12 22L9.59 18.56C10.33 18.83 11.14 19 12 19M5.95 15.5C6.37 16.24 6.91 16.86 7.5 17.37L3.36 17L5.12 13.23C5.26 14 5.53 14.78 5.95 15.5Z" /></svg>