<svg xmlns="http://www.w3.org/2000/svg" id="mdi-weather-dust" viewBox="0 0 24 24"><path d="M3 5C3 4.4 3.4 4 4 4H5C5.6 4 6 4.4 6 5S5.6 6 5 6H4C3.4 6 3 5.6 3 5M4 13C4 12.4 4.4 12 5 12H6C6.6 12 7 12.4 7 13S6.6 14 6 14H5C4.4 14 4 13.6 4 13M4 16C3.4 16 3 16.4 3 17S3.4 18 4 18H9C9.6 18 10 17.6 10 17S9.6 16 9 16H4M18 5C18 4.4 18.4 4 19 4H21C21.6 4 22 4.4 22 5S21.6 6 21 6H19C18.4 6 18 5.6 18 5M7 20C6.4 20 6 20.4 6 21S6.4 22 7 22H11C11.6 22 12 21.6 12 21S11.6 20 11 20H7M3 10C2.4 10 2 9.6 2 9S2.4 8 3 8H12C13.1 8 14 7.1 14 6S13.1 4 12 4C11.4 4 10.9 4.2 10.6 4.6C10.2 5 9.6 5 9.2 4.6C8.8 4.2 8.8 3.6 9.2 3.2C9.9 2.5 10.9 2 12 2C14.2 2 16 3.8 16 6S14.2 10 12 10H3M19 12C19.6 12 20 11.6 20 11S19.6 10 19 10C18.7 10 18.5 10.1 18.3 10.3C17.9 10.7 17.3 10.7 16.9 10.3C16.5 9.9 16.5 9.3 16.9 8.9C17.4 8.3 18.2 8 19 8C20.7 8 22 9.3 22 11S20.7 14 19 14H10C9.4 14 9 13.6 9 13S9.4 12 10 12H19M18 18H13C12.4 18 12 17.6 12 17S12.4 16 13 16H18C19.7 16 21 17.3 21 19S19.7 22 18 22C17.2 22 16.4 21.7 15.9 21.1C15.5 20.7 15.5 20.1 15.9 19.7C16.3 19.3 16.9 19.3 17.3 19.7C17.5 19.9 17.7 20 18 20C18.6 20 19 19.6 19 19S18.6 18 18 18Z" /></svg>