<svg xmlns="http://www.w3.org/2000/svg" id="mdi-weather-moonset" viewBox="0 0 24 24"><path d="M3 12H7C7 10.67 7.53 9.4 8.46 8.46C9.4 7.53 10.67 7 12 7C13.33 7 14.6 7.53 15.54 8.46C16.47 9.4 17 10.67 17 12H21C21.27 12 21.5 12.11 21.71 12.29C21.9 12.5 22 12.74 22 13C22 13.27 21.9 13.5 21.71 13.71C21.5 13.9 21.27 14 21 14H3C2.74 14 2.5 13.9 2.29 13.71C2.11 13.5 2 13.27 2 13C2 12.74 2.11 12.5 2.29 12.29C2.5 12.11 2.74 12 3 12M5 16H19C19.27 16 19.5 16.11 19.71 16.29C19.9 16.5 20 16.74 20 17C20 17.27 19.9 17.5 19.71 17.71C19.5 17.9 19.27 18 19 18H5C4.74 18 4.5 17.9 4.29 17.71C4.11 17.5 4 17.27 4 17C4 16.74 4.11 16.5 4.29 16.29C4.5 16.11 4.74 16 5 16M17 20C17.27 20 17.5 20.11 17.71 20.29C17.9 20.5 18 20.74 18 21C18 21.27 17.9 21.5 17.71 21.71C17.5 21.9 17.27 22 17 22H7C6.74 22 6.5 21.9 6.29 21.71C6.11 21.5 6 21.27 6 21C6 20.74 6.11 20.5 6.29 20.29C6.5 20.11 6.74 20 7 20H17Z" /></svg>