<svg xmlns="http://www.w3.org/2000/svg" id="mdi-web-sync" viewBox="0 0 24 24"><path d="M16.5 11.74C16.5 11.15 16.43 10.58 16.36 10H19.74C19.82 10.33 19.89 10.67 19.93 11C20.65 11.07 21.34 11.23 22 11.5C21.71 6.21 17.35 2 12 2C6.47 2 2 6.5 2 12C2 17.5 6.5 22 12 22C12.87 22 13.71 21.88 14.5 21.67C13.71 20.71 13.18 19.5 13.04 18.2C12.73 18.81 12.39 19.4 12 19.96C11.17 18.76 10.5 17.43 10.09 16H13.18C13.35 15.28 13.64 14.61 14.03 14H9.66C9.56 13.34 9.5 12.68 9.5 12S9.56 10.65 9.66 10H14.34C14.43 10.65 14.5 11.32 14.5 12C14.5 12.5 14.46 13 14.4 13.5C14.97 12.76 15.68 12.17 16.5 11.74M4.26 14C4.1 13.36 4 12.69 4 12S4.1 10.64 4.26 10H7.64C7.56 10.66 7.5 11.32 7.5 12S7.56 13.34 7.64 14H4.26M5.08 16H8C8.35 17.25 8.8 18.45 9.4 19.56C7.57 18.93 6.03 17.65 5.08 16M8 8H5.08C6.03 6.34 7.57 5.06 9.4 4.44C8.8 5.55 8.35 6.75 8 8M10.09 8C10.5 6.57 11.17 5.23 12 4.03C12.83 5.23 13.5 6.57 13.91 8H10.09M18.92 8H15.97C15.65 6.75 15.19 5.55 14.59 4.44C16.43 5.07 17.96 6.34 18.92 8M23 17.5C23 18.32 22.75 19.08 22.33 19.71L21.24 18.62C21.41 18.28 21.5 17.9 21.5 17.5C21.5 16.12 20.38 15 19 15V16.5L16.75 14.25L19 12V13.5C21.21 13.5 23 15.29 23 17.5M19 18.5L21.25 20.75L19 23V21.5C16.79 21.5 15 19.71 15 17.5C15 16.68 15.25 15.92 15.67 15.29L16.76 16.38C16.59 16.72 16.5 17.1 16.5 17.5C16.5 18.88 17.62 20 19 20V18.5Z" /></svg>