<svg xmlns="http://www.w3.org/2000/svg" id="mdi-web-check" viewBox="0 0 24 24"><path d="M16.5 12C16.5 11.32 16.44 10.66 16.36 10H19.74C19.9 10.64 20 11.31 20 12C20 12.37 19.97 12.73 19.92 13.08C20.61 13.18 21.25 13.4 21.84 13.72C21.94 13.16 22 12.59 22 12C22 6.5 17.5 2 12 2C6.47 2 2 6.5 2 12C2 17.5 6.5 22 12 22C12.59 22 13.16 21.94 13.72 21.84C13.26 21 13 20.03 13 19C13 18.71 13.03 18.43 13.07 18.15C12.75 18.78 12.4 19.39 12 19.96C11.17 18.76 10.5 17.43 10.09 16H13.81C14.41 14.96 15.31 14.12 16.4 13.6C16.46 13.07 16.5 12.54 16.5 12M12 4.03C12.83 5.23 13.5 6.57 13.91 8H10.09C10.5 6.57 11.17 5.23 12 4.03M4.26 14C4.1 13.36 4 12.69 4 12S4.1 10.64 4.26 10H7.64C7.56 10.66 7.5 11.32 7.5 12S7.56 13.34 7.64 14H4.26M5.08 16H8C8.35 17.25 8.8 18.45 9.4 19.56C7.57 18.93 6.03 17.65 5.08 16M8 8H5.08C6.03 6.34 7.57 5.06 9.4 4.44C8.8 5.55 8.35 6.75 8 8M14.34 14H9.66C9.56 13.34 9.5 12.68 9.5 12S9.56 10.65 9.66 10H14.34C14.43 10.65 14.5 11.32 14.5 12S14.43 13.34 14.34 14M14.59 4.44C16.43 5.07 17.96 6.34 18.92 8H15.97C15.65 6.75 15.19 5.55 14.59 4.44M22.5 17.25L17.75 22L15 19L16.16 17.84L17.75 19.43L21.34 15.84L22.5 17.25Z" /></svg>