<?xml version="1.0" encoding="UTF-8"?><!DOCTYPE svg PUBLIC "-//W3C//DTD SVG 1.1//EN" "http://www.w3.org/Graphics/SVG/1.1/DTD/svg11.dtd"><svg xmlns="http://www.w3.org/2000/svg" xmlns:xlink="http://www.w3.org/1999/xlink" version="1.1" id="mdi-wheel-barrow" width="24" height="24" viewBox="0 0 24 24"><path d="M18 15.5C18.83 15.5 19.5 16.17 19.5 17S18.83 18.5 18 18.5 16.5 17.83 16.5 17 17.17 15.5 18 15.5M18 14C16.34 14 15 15.34 15 17S16.34 20 18 20C19.66 20 21 18.66 21 17S19.66 14 18 14M7 8L5 5H2V7H5.13L8 11.3V20H10L12.57 15H14.55C15.25 13.81 16.5 13 18 13C18.88 13 19.69 13.29 20.35 13.78L22 8H7M9.39 19H9V12.8L9.87 14.11C10.23 14.64 10.82 14.96 11.45 15L9.39 19Z" /></svg>