<svg xmlns="http://www.w3.org/2000/svg" id="mdi-wifi-strength-3-lock" viewBox="0 0 24 24"><path d="M19 10C19.68 10 20.32 10.14 20.91 10.39L23.64 7C20.31 4.41 16.2 3 12 3C7.78 3 3.69 4.41 .365 7C4.39 12.06 7.88 16.37 12 21.5L13 20.24V17.2C13 16.24 13.5 15.34 14.2 14.74V14.5C14.2 12.06 16.4 10 19 10M12 8C9 8 6.67 9 5.2 9.84L3.26 7.44C5.9 5.85 8.91 5 12 5S18.08 5.86 20.7 7.45L18.76 9.88C17.25 9 14.87 8 12 8M21.8 16V14.5C21.8 13.1 20.4 12 19 12S16.2 13.1 16.2 14.5V16C15.6 16 15 16.6 15 17.2V20.7C15 21.4 15.6 22 16.2 22H21.7C22.4 22 23 21.4 23 20.8V17.3C23 16.6 22.4 16 21.8 16M20.5 16H17.5V14.5C17.5 13.7 18.2 13.2 19 13.2S20.5 13.7 20.5 14.5V16Z" /></svg>