<svg xmlns="http://www.w3.org/2000/svg" id="mdi-wifi-lock-open" viewBox="0 0 24 24"><path d="M12 6C8.62 6 5.5 7.12 3 9L1.2 6.6C4.21 4.34 7.95 3 12 3S19.79 4.34 22.8 6.6L21 9C18.5 7.12 15.38 6 12 6M16.31 9.81C14.97 9.29 13.5 9 12 9C9.3 9 6.81 9.89 4.8 11.4L6.6 13.8C8.1 12.67 9.97 12 12 12C12.83 12 13.63 12.12 14.39 12.33C14.7 11.3 15.38 10.41 16.31 9.81M8.4 16.2L12 21L13 19.67V17.2C13 16.5 13.27 15.81 13.7 15.26C13.16 15.1 12.59 15 12 15C10.65 15 9.4 15.45 8.4 16.2M21.8 16H17.5V13.5C17.5 12.7 18.2 12.2 19 12.2S20.5 12.7 20.5 13.5V14H21.8V13.5C21.8 12.1 20.4 11 19 11S16.2 12.1 16.2 13.5V16C15.6 16 15 16.6 15 17.2V20.7C15 21.4 15.6 22 16.2 22H21.7C22.4 22 23 21.4 23 20.8V17.3C23 16.6 22.4 16 21.8 16Z" /></svg>