<svg xmlns="http://www.w3.org/2000/svg" id="mdi-wifi-arrow-left-right" viewBox="0 0 24 24"><path d="M12 12C9.97 12 8.1 12.67 6.6 13.8L4.8 11.4C6.81 9.89 9.3 9 12 9S17.19 9.89 19.2 11.4L17.92 13.1C17.55 13.17 17.18 13.27 16.84 13.41C15.44 12.5 13.78 12 12 12M21 9L22.8 6.6C19.79 4.34 16.05 3 12 3S4.21 4.34 1.2 6.6L3 9C5.5 7.12 8.62 6 12 6S18.5 7.12 21 9M12 15C10.65 15 9.4 15.45 8.4 16.2L12 21L13.04 19.61C13 19.41 13 19.21 13 19C13 17.66 13.44 16.43 14.19 15.43C13.5 15.16 12.77 15 12 15M18 18.5L15 21L18 23.5V22H22V20H18V18.5M23 17L20 14.5V16H16V18H20V19.5L23 17Z" /></svg>