<svg xmlns="http://www.w3.org/2000/svg" id="mdi-wifi-strength-1-lock-open" viewBox="0 0 24 24"><path d="M12 13C12.74 13 13.5 13.12 14.22 13.31C14.22 13.38 14.2 13.44 14.2 13.5V14.74C13.5 15.34 13 16.24 13 17.2V20.24L12 21.5C7.88 16.37 4.39 12.06 .365 7C3.69 4.41 7.78 3 12 3C16.2 3 20.31 4.41 23.64 7L21.5 9.69C20.86 9.33 20.16 9.11 19.42 9.04L20.7 7.45C18.08 5.86 15.06 5 12 5S5.9 5.85 3.26 7.44L8.38 13.8C9.5 13.28 10.74 13 12 13M21.8 16H17.5V13.5C17.5 12.7 18.2 12.2 19 12.2S20.5 12.7 20.5 13.5V14H21.8V13.5C21.8 12.1 20.4 11 19 11S16.2 12.1 16.2 13.5V16C15.6 16 15 16.6 15 17.2V20.7C15 21.4 15.6 22 16.2 22H21.7C22.4 22 23 21.4 23 20.8V17.3C23 16.6 22.4 16 21.8 16Z" /></svg>