<svg xmlns="http://www.w3.org/2000/svg" id="mdi-wifi-refresh" viewBox="0 0 24 24"><path d="M12 12C9.97 12 8.1 12.67 6.6 13.8L4.8 11.4C6.81 9.89 9.3 9 12 9S17.19 9.89 19.2 11.4L18.74 12C18.66 12 18.58 12 18.5 12C17.43 12 16.42 12.26 15.53 12.72C14.45 12.26 13.26 12 12 12M21 9L22.8 6.6C19.79 4.34 16.05 3 12 3S4.21 4.34 1.2 6.6L3 9C5.5 7.12 8.62 6 12 6S18.5 7.12 21 9M12 15C10.65 15 9.4 15.45 8.4 16.2L12 21L12.34 20.54C12.13 19.9 12 19.22 12 18.5C12 17.24 12.36 16.08 13 15.08C12.66 15.03 12.33 15 12 15M18 14.5C15.79 14.5 14 16.29 14 18.5S15.79 22.5 18 22.5C19.68 22.5 21.12 21.47 21.71 20H20C19.54 20.61 18.82 21 18 21C16.62 21 15.5 19.88 15.5 18.5S16.62 16 18 16C18.69 16 19.32 16.28 19.77 16.73L18 18.5H22V14.5L20.83 15.67C20.11 14.95 19.11 14.5 18 14.5Z" /></svg>