<?xml version="1.0" encoding="UTF-8" standalone="no"?>
<svg
   xmlns:dc="http://purl.org/dc/elements/1.1/"
   xmlns:cc="http://creativecommons.org/ns#"
   xmlns:rdf="http://www.w3.org/1999/02/22-rdf-syntax-ns#"
   xmlns:svg="http://www.w3.org/2000/svg"
   xmlns="http://www.w3.org/2000/svg"
   xmlns:sodipodi="http://sodipodi.sourceforge.net/DTD/sodipodi-0.dtd"
   xmlns:inkscape="http://www.inkscape.org/namespaces/inkscape"
   version="1.1"
   width="24"
   height="24"
   viewBox="0 0 24 24"
   id="svg4463"
   sodipodi:docname="wifi-connected.svg"
   inkscape:version="0.92.5 (2060ec1f9f, 2020-04-08)">
  <metadata
     id="metadata4469">
    <rdf:RDF>
      <cc:Work
         rdf:about="">
        <dc:format>image/svg+xml</dc:format>
        <dc:type
           rdf:resource="http://purl.org/dc/dcmitype/StillImage" />
        <dc:title></dc:title>
      </cc:Work>
    </rdf:RDF>
  </metadata>
  <defs
     id="defs4467" />
  <sodipodi:namedview
     pagecolor="#ffffff"
     bordercolor="#666666"
     borderopacity="1"
     objecttolerance="10"
     gridtolerance="10"
     guidetolerance="10"
     inkscape:pageopacity="0"
     inkscape:pageshadow="2"
     inkscape:window-width="1528"
     inkscape:window-height="836"
     id="namedview4465"
     showgrid="false"
     inkscape:zoom="9.8333333"
     inkscape:cx="11.105987"
     inkscape:cy="9.8007886"
     inkscape:window-x="1992"
     inkscape:window-y="27"
     inkscape:window-maximized="1"
     inkscape:current-layer="svg4463" />
  <path
     d="M 12 3 C 7.95 3 4.2092188 4.3396094 1.1992188 6.5996094 L 3 9 C 5.5 7.12 8.62 6 12 6 C 15.38 6 18.5 7.12 21 9 L 22.800781 6.5996094 C 19.790781 4.3396094 16.05 3 12 3 z M 12 9 C 9.3 9 6.8107812 9.8903906 4.8007812 11.400391 L 6.5996094 13.800781 C 8.0996094 12.670781 9.97 12 12 12 C 12.590491 12 13.16441 12.063663 13.722656 12.171875 L 16 9.6875 C 14.748031 9.24455 13.403342 9 12 9 z M 12 15 C 10.65 15 9.4003906 15.449219 8.4003906 16.199219 L 12 21 L 14.441406 17.744141 L 14.441406 15.539062 C 13.693175 15.203881 12.872149 15 12 15 z "
     id="path4461" />
  <path
     id="path4535-6"
     d="m 19.839925,13.764595 h -1.666667 v 3.333334 h -2.777777 v -3.333334 h -1.666667 l 3.055556,-3.333333 3.055555,3.333333 m 0.833333,7.777778 3.055556,-3.333333 H 22.062147 V 14.875706 H 19.28437 v 3.333334 h -1.666667 z"
     inkscape:connector-curvature="0"
     style="stroke-width:0.55555558" />
</svg>
