<svg xmlns="http://www.w3.org/2000/svg" id="mdi-wifi-strength-lock-open-outline" viewBox="0 0 24 24"><path d="M23.65 7H23.64C22.92 7.9 22.2 8.79 21.5 9.69C20.87 9.33 20.17 9.11 19.43 9.04L20.71 7.45C18.09 5.86 15.07 5 12 5C8.91 5 5.9 5.85 3.27 7.44L12 18.3L13 17C13 17.08 13 17.14 13 17.2V20.25L12 21.5C8.13 16.66 4.24 11.83 .355 7H.375C3.7 4.41 7.79 3 12 3C16.22 3 20.32 4.41 23.65 7M21.8 16H17.5V13.5C17.5 12.7 18.2 12.2 19 12.2S20.5 12.7 20.5 13.5V14H21.8V13.5C21.8 12.1 20.4 11 19 11S16.2 12.1 16.2 13.5V16C15.6 16 15 16.6 15 17.2V20.7C15 21.4 15.6 22 16.2 22H21.7C22.4 22 23 21.4 23 20.8V17.3C23 16.6 22.4 16 21.8 16Z" /></svg>