<?xml version="1.0" encoding="UTF-8" standalone="no"?>
<svg
   xmlns:dc="http://purl.org/dc/elements/1.1/"
   xmlns:cc="http://creativecommons.org/ns#"
   xmlns:rdf="http://www.w3.org/1999/02/22-rdf-syntax-ns#"
   xmlns:svg="http://www.w3.org/2000/svg"
   xmlns="http://www.w3.org/2000/svg"
   xmlns:sodipodi="http://sodipodi.sourceforge.net/DTD/sodipodi-0.dtd"
   xmlns:inkscape="http://www.inkscape.org/namespaces/inkscape"
   version="1.1"
   width="24"
   height="24"
   viewBox="0 0 24 24"
   id="svg5022"
   sodipodi:docname="wifi.svg"
   inkscape:version="0.92.5 (2060ec1f9f, 2020-04-08)">
  <metadata
     id="metadata5028">
    <rdf:RDF>
      <cc:Work
         rdf:about="">
        <dc:format>image/svg+xml</dc:format>
        <dc:type
           rdf:resource="http://purl.org/dc/dcmitype/StillImage" />
        <dc:title></dc:title>
      </cc:Work>
    </rdf:RDF>
  </metadata>
  <defs
     id="defs5026" />
  <sodipodi:namedview
     pagecolor="#ffffff"
     bordercolor="#666666"
     borderopacity="1"
     objecttolerance="10"
     gridtolerance="10"
     guidetolerance="10"
     inkscape:pageopacity="0"
     inkscape:pageshadow="2"
     inkscape:window-width="1528"
     inkscape:window-height="836"
     id="namedview5024"
     showgrid="false"
     inkscape:zoom="6.9532167"
     inkscape:cx="-22.002725"
     inkscape:cy="4.7032091"
     inkscape:window-x="1992"
     inkscape:window-y="27"
     inkscape:window-maximized="1"
     inkscape:current-layer="svg5022" />
  <path
     d="M 12,3 C 7.95,3 4.2092188,4.3396094 1.1992188,6.5996094 L 3,9 c 2.5,-1.88 5.62,-3 9,-3 3.38,0 6.5,1.12 9,3 L 22.800781,6.5996094 C 19.790781,4.3396094 16.05,3 12,3 Z m 0,6 C 9.3,9 6.8107812,9.8903902 4.8007812,11.400391 l 1.7988282,2.40039 C 8.0996094,12.670781 9.97,12 12,12 c 0.533792,0 1.054652,0.04984 1.5625,0.138672 0.54852,-1.249835 1.788748,-2.124708 3.238281,-2.136719 C 15.32945,9.3582514 13.70764,9 12,9 Z m -0.183594,6.015625 c -1.278372,0.03934 -2.4622844,0.468296 -3.4160154,1.183594 l 3.4160154,4.55664 z"
     id="path5020"
     inkscape:connector-curvature="0"
     sodipodi:nodetypes="sccsccssccsccscccc" />
  <path
     d="m 16.948773,11.558429 c -1.380712,0 -2.5,1.119288 -2.5,2.5 v 0.5 c -0.552285,0 -1,0.447715 -1,1 v 4 c 0,0.552284 0.447715,1 1,1 h 5 c 0.552285,0 1,-0.447716 1,-1 v -4 c 0,-0.552285 -0.447715,-1 -1,-1 v -0.5 c 0,-1.380712 -1.119288,-2.5 -2.5,-2.5 z m 0,0.800781 c 0.94,0 1.701172,0.759219 1.701172,1.699219 v 0.5 h -3.400391 v -0.5 c 0,-0.94 0.759219,-1.699219 1.699219,-1.699219 z"
     id="path5085"
     inkscape:connector-curvature="0" />
</svg>
