<?xml version="1.0" encoding="UTF-8"?><!DOCTYPE svg PUBLIC "-//W3C//DTD SVG 1.1//EN" "http://www.w3.org/Graphics/SVG/1.1/DTD/svg11.dtd"><svg xmlns="http://www.w3.org/2000/svg" xmlns:xlink="http://www.w3.org/1999/xlink" version="1.1" id="mdi-xaml" width="24" height="24" viewBox="0 0 24 24"><path d="M21.91 11.67L17.24 3.61C17.12 3.41 16.91 3.28 16.67 3.28H7.33C7.09 3.28 6.88 3.41 6.76 3.61L2.09 11.67C1.97 11.88 1.97 12.13 2.09 12.33L6.76 20.39C6.88 20.6 7.09 20.72 7.33 20.72H16.67C16.91 20.72 17.12 20.6 17.24 20.39L21.91 12.33C22.03 12.13 22.03 11.88 21.91 11.67M7.35 4H16.14L11.8 11.66H6.97L10.91 4.84C10.95 4.77 10.9 4.68 10.81 4.68L8.26 4.68C8.18 4.68 8.11 4.72 8.07 4.79L4.1 11.65H2.9L7.35 4M7.35 20L2.91 12.35H4.11L8.07 19.21C8.11 19.28 8.19 19.32 8.26 19.32L10.82 19.32C10.91 19.32 10.96 19.23 10.92 19.16L7 12.35H11.8L16.18 20H7.35M16.82 19.73L12.4 12L16.8 4.23L21.3 12L16.82 19.73M15.58 8.88L16.84 6.64C16.89 6.57 17 6.57 17.03 6.64L20 11.79C20.09 11.92 20.09 12.09 20 12.22L17.05 17.34C17 17.42 16.91 17.42 16.86 17.34L15.59 15.11C15.55 15.05 15.55 14.96 15.59 14.9L17.2 12.12C17.24 12.05 17.24 11.97 17.2 11.9L15.58 9.1C15.54 9.03 15.54 8.95 15.58 8.88Z" /></svg>