<?xml version="1.0" encoding="UTF-8"?><!DOCTYPE svg PUBLIC "-//W3C//DTD SVG 1.1//EN" "http://www.w3.org/Graphics/SVG/1.1/DTD/svg11.dtd"><svg xmlns="http://www.w3.org/2000/svg" xmlns:xlink="http://www.w3.org/1999/xlink" version="1.1" id="mdi-xda" width="24" height="24" viewBox="0 0 24 24"><path d="M0 16.7L3.2 12.9L0 9.1L1.5 7.8L4.5 11.3L7.5 7.8L9 9.1L5.8 12.9L9 16.7L7.5 18L4.5 14.4L1.5 18L0 16.7M24 16.9C24 17.4 23.6 17.9 23 17.9H20C18.9 17.9 18 17 18 15.9V13.9C18 12.8 18.9 11.9 20 11.9H22V9.9H18V8H23C23.5 8 24 8.4 24 9M22 14H20V16H22V14M16 16.9C16 17.4 15.6 17.9 15 17.9H12C10.9 17.9 10 17 10 15.9V9.9C10 8.8 10.9 7.9 12 7.9H14V5H16V16.9M14 15.9V9.9H12V15.9H14Z" /></svg>