<?xml version="1.0" encoding="UTF-8"?><!DOCTYPE svg PUBLIC "-//W3C//DTD SVG 1.1//EN" "http://www.w3.org/Graphics/SVG/1.1/DTD/svg11.dtd"><svg xmlns="http://www.w3.org/2000/svg" xmlns:xlink="http://www.w3.org/1999/xlink" version="1.1" id="mdi-youtube-gaming" width="24" height="24" viewBox="0 0 24 24"><path d="M17 4L12 7L7 4L2 7V14L12 20L22 14V7L17 4M10 11H8V13H7V11H5V10H7V8H8V10H10V11M16 12C15.45 12 15 11.55 15 11S15.45 10 16 10 17 10.45 17 11 16.55 12 16 12M18.5 10.5C17.95 10.5 17.5 10.05 17.5 9.5S17.95 8.5 18.5 8.5 19.5 8.95 19.5 9.5 19.05 10.5 18.5 10.5Z" /></svg>