<?xml version="1.0" encoding="UTF-8"?><!DOCTYPE svg PUBLIC "-//W3C//DTD SVG 1.1//EN" "http://www.w3.org/Graphics/SVG/1.1/DTD/svg11.dtd"><svg xmlns="http://www.w3.org/2000/svg" xmlns:xlink="http://www.w3.org/1999/xlink" version="1.1" id="mdi-yurt" width="24" height="24" viewBox="0 0 24 24"><path d="M22 14.87V22H14V16H10V22H2V14.87C2 14.33 2.29 13.83 2.76 13.57L8.66 10.2C8.88 10.07 9.14 10 9.4 10H11.96V9H14V10H14.6C14.86 10 15.12 10.07 15.34 10.2L21.24 13.57C21.71 13.84 22 14.33 22 14.87M9.35 7.7H10.88C11.27 7.7 11.64 7.8 11.96 8H14C13.4 6.95 12.21 6.25 10.88 6.25H9.35C8.35 6.25 7.5 5.27 7.5 4.25S8.35 2.5 9.35 2.5V1C7.5 1 6 2.5 6 4.35C6 6.2 7.5 7.7 9.35 7.7Z" /></svg>