<?xml version="1.0" encoding="UTF-8"?>
<!DOCTYPE svg PUBLIC "-//W3C//DTD SVG 1.1//EN" "http://www.w3.org/Graphics/SVG/1.1/DTD/svg11.dtd">
<svg xmlns="http://www.w3.org/2000/svg" xmlns:xlink="http://www.w3.org/1999/xlink" fill="#000000" version="1.1" id="mdi-surround-sound-5-1-2" width="24" height="24" viewBox="0 0 24 24"><path fill="#000000" d="M2 8V13H5V14H2V16H5C6.11 16 7 15.11 7 14V13C7 11.9 6.11 11 5 11H4V10H7V8H2M10 8V10H11V16H13V8H10M17 8V10H20V11H19C17.9 11 17 11.9 17 13V16H22V14H19V13H20C21.11 13 22 12.11 22 11V10C22 8.9 21.11 8 20 8H17M8 14V16H10V14H8M14 14V16H16V14H14Z"/></svg>
