<?xml version="1.0" encoding="utf-8"?>
<!DOCTYPE svg PUBLIC "-//W3C//DTD SVG 1.1//EN" "http://www.w3.org/Graphics/SVG/1.1/DTD/svg11.dtd">
<svg xmlns="http://www.w3.org/2000/svg" xmlns:xlink="http://www.w3.org/1999/xlink" version="1.1" baseProfile="full" width="24" height="24" viewBox="0 0 24.00 24.00" enable-background="new 0 0 24.00 24.00" xml:space="preserve">
	<path fill="#000000" fill-opacity="1" stroke-width="0.2" stroke-linejoin="miter" d="M 4.9336,3.9336C 3.12247,5.7447 2,8.2445 2,11C 2,13.7555 3.12247,16.2553 4.9336,18.0664L 6.33789,16.6621C 4.89166,15.2159 4,13.2151 4,11C 4,8.78516 4.89166,6.7841 6.33789,5.3379L 4.9336,3.9336 Z M 19.0664,3.9336L 17.6621,5.3379C 19.1083,6.7841 20,8.78516 20,11C 20,13.2151 19.1083,15.2159 17.6621,16.6621L 19.0664,18.0664C 20.8775,16.2553 22,13.7555 22,11C 22,8.2445 20.8775,5.7447 19.0664,3.9336 Z M 7.76172,6.7617C 6.67446,7.849 6,9.3491 6,11C 6,12.651 6.67446,14.151 7.76172,15.2383L 9.16797,13.832C 8.44559,13.1097 8,12.1105 8,11C 8,9.8895 8.44559,8.8903 9.16797,8.168L 7.76172,6.7617 Z M 16.2383,6.7617L 14.832,8.168C 15.5544,8.8903 16,9.8895 16,11C 16,12.1105 15.5544,13.1097 14.832,13.832L 16.2383,15.2383C 17.3255,14.151 18,12.651 18,11C 18,9.3491 17.3255,7.849 16.2383,6.7617 Z M 12,9C 10.8954,9 10,9.8954 10,11C 10,12.1046 10.8954,13 12,13C 13.1046,13 14,12.1046 14,11C 14,9.8954 13.1046,9 12,9 Z M 11,15L 11,19L 10,19C 9.44772,19 9,19.4477 9,20L 2,20L 2,22L 9,22C 9,22.5523 9.44772,23 10,23L 14,23C 14.5523,23 15,22.5523 15,22L 22,22L 22,20L 15,20C 15,19.4477 14.5523,19 14,19L 13,19L 13,15L 11,15 Z "/>
</svg>
