<?xml version="1.0" encoding="utf-8"?>
<!DOCTYPE svg PUBLIC "-//W3C//DTD SVG 1.1//EN" "http://www.w3.org/Graphics/SVG/1.1/DTD/svg11.dtd">
<svg xmlns="http://www.w3.org/2000/svg" xmlns:xlink="http://www.w3.org/1999/xlink" version="1.1" baseProfile="full" width="24" height="24" viewBox="0 0 24.00 24.00" enable-background="new 0 0 24.00 24.00" xml:space="preserve">
	<path fill="#000000" fill-opacity="1" stroke-width="0.2" stroke-linejoin="miter" d="M 4.93359,4.9336C 3.12247,6.7447 2,9.2445 2,12C 2,14.7555 3.12247,17.2553 4.93359,19.0664L 6.33789,17.6621C 4.89166,16.2159 4,14.2151 4,12C 4,9.78516 4.89166,7.7841 6.33789,6.3379L 4.93359,4.9336 Z M 19.0664,4.9336L 17.6621,6.3379C 19.1083,7.7841 20,9.78516 20,12C 20,14.2151 19.1083,16.2159 17.6621,17.6621L 19.0664,19.0664C 20.8775,17.2553 22,14.7555 22,12C 22,9.2445 20.8775,6.7447 19.0664,4.9336 Z M 7.76172,7.7617C 6.67445,8.849 6,10.3491 6,12C 6,13.651 6.67445,15.151 7.76172,16.2383L 9.16797,14.832C 8.44559,14.1097 8,13.1105 8,12C 8,10.8895 8.44559,9.8903 9.16797,9.168L 7.76172,7.7617 Z M 16.2383,7.7617L 14.832,9.168C 15.5544,9.8903 16,10.8895 16,12C 16,13.1105 15.5544,14.1097 14.832,14.832L 16.2383,16.2383C 17.3255,15.151 18,13.651 18,12C 18,10.3491 17.3255,8.849 16.2383,7.7617 Z M 12,10C 10.8954,10 10,10.8954 10,12C 10,13.1046 10.8954,14 12,14C 13.1046,14 14,13.1046 14,12C 14,10.8954 13.1046,10 12,10 Z "/>
</svg>
