<?xml version="1.0" encoding="utf-8"?>
<!DOCTYPE svg PUBLIC "-//W3C//DTD SVG 1.1//EN" "http://www.w3.org/Graphics/SVG/1.1/DTD/svg11.dtd">
<svg xmlns="http://www.w3.org/2000/svg" xmlns:xlink="http://www.w3.org/1999/xlink" version="1.1" baseProfile="full" width="24" height="24" viewBox="0 0 24.00 24.00" enable-background="new 0 0 24.00 24.00" xml:space="preserve">
	<path fill="#000000" fill-opacity="1" stroke-width="0.2" stroke-linejoin="miter" d="M 14.83,13.83C 15.55,13.11 16,12.11 16,11C 16,9.89 15.55,8.89 14.83,8.17L 16.24,6.76C 17.33,7.85 18,9.35 18,11C 18,12.65 17.33,14.15 16.24,15.24L 14.83,13.83 Z M 14,11C 14,9.895 13.105,9 12,9C 11.403,9 10.874,9.267 10.507,9.681L 13.318,12.493C 13.733,12.127 14,11.597 14,11 Z M 17.66,16.66L 19.07,18.07C 20.88,16.26 22,13.76 22,11C 22,8.24 20.88,5.74 19.07,3.93L 17.66,5.34C 19.11,6.78 20,8.79 20,11C 20,13.22 19.11,15.22 17.66,16.66 Z M 22,21.18L 22,20L 20.82,20L 22,21.18 Z M 20.27,22L 21,22.73L 19.73,24L 17.73,22L 15,22C 15,22.552 14.552,23 14,23L 10,23C 9.448,23 9,22.552 9,22L 2,22L 2,20L 9,20C 9,19.448 9.448,19 10,19L 11,19L 11,15.27L 8.343,12.613C 8.544,13.07 8.824,13.484 9.17,13.83L 7.76,15.24C 6.67,14.15 6,12.65 6,11C 6,10.767 6.015,10.537 6.041,10.311L 4.368,8.638C 4.136,9.386 4,10.176 4,11C 4,13.22 4.89,15.22 6.34,16.66L 4.93,18.07C 3.12,16.26 2,13.76 2,11C 2,9.607 2.291,8.283 2.807,7.077L 1,5.27L 2.28,4L 3.701,5.422L 5.15,6.872L 6.626,8.349L 6.626,8.348L 8.173,9.897L 10.275,11.996L 10.987,12.712L 18.271,20L 18.279,20L 20.279,22L 20.27,22 Z M 15.73,20L 13,17.27L 13,19L 14,19C 14.552,19 15,19.448 15,20L 15.73,20 Z "/>
</svg>
