<?xml version="1.0" encoding="utf-8"?>
<!DOCTYPE svg PUBLIC "-//W3C//DTD SVG 1.1//EN" "http://www.w3.org/Graphics/SVG/1.1/DTD/svg11.dtd">
<svg xmlns="http://www.w3.org/2000/svg" xmlns:xlink="http://www.w3.org/1999/xlink" version="1.1" baseProfile="full" width="24" height="24" viewBox="0 0 24.00 24.00" enable-background="new 0 0 24.00 24.00" xml:space="preserve">
	<path fill="#000000" fill-opacity="1" stroke-width="1.33333" stroke-linejoin="miter" d="M 7.5,15C 8.625,15 9.82031,15.2578 11.0859,15.7734C 12.3516,16.2891 12.9844,16.9531 12.9844,17.7656L 12.9844,20.0156L 2.01563,20.0156L 2.01563,17.7656C 2.01563,16.9531 2.64844,16.2891 3.91406,15.7734C 5.17969,15.2578 6.375,15 7.5,15 Z M 12.9844,12.9844L 21.9844,12.9844L 21.9844,15L 12.9844,15L 12.9844,12.9844 Z M 12.9844,9L 21.9844,9L 21.9844,11.0156L 12.9844,11.0156L 12.9844,9 Z M 12.9844,5.0156L 21.9844,5.0156L 21.9844,6.9844L 12.9844,6.9844L 12.9844,5.0156 Z M 7.5,8C 8.88071,8 10,9.11929 10,10.5C 10,11.8807 8.88071,13 7.5,13C 6.11929,13 5,11.8807 5,10.5C 5,9.11929 6.11929,8 7.5,8 Z "/>
</svg>
