<?xml version="1.0" encoding="utf-8"?>
<!DOCTYPE svg PUBLIC "-//W3C//DTD SVG 1.1//EN" "http://www.w3.org/Graphics/SVG/1.1/DTD/svg11.dtd">
<svg xmlns="http://www.w3.org/2000/svg" xmlns:xlink="http://www.w3.org/1999/xlink" version="1.1" baseProfile="full" width="24" height="24" viewBox="0 0 24.00 24.00" enable-background="new 0 0 24.00 24.00" xml:space="preserve">
	<path fill="#000000" fill-opacity="1" stroke-width="0.2" stroke-linejoin="miter" d="M 12,5.5C 13.933,5.5 15.5,7.067 15.5,9C 15.5,10.933 13.933,12.5 12,12.5C 10.067,12.5 8.5,10.933 8.5,9C 8.5,7.067 10.067,5.5 12,5.5 Z M 5,8.00001C 5.55865,8.00001 6.08164,8.15271 6.52951,8.41865C 6.37582,9.85427 6.79964,11.2746 7.66276,12.3833C 7.16268,13.344 6.15795,14 5,14C 3.34314,14 2,12.6569 2,11C 2,9.34315 3.34314,8.00001 5,8.00001 Z M 19,8C 20.6568,8 22,9.34315 22,11C 22,12.6569 20.6568,14 19,14C 17.842,14 16.8373,13.3439 16.3372,12.3833C 17.2004,11.2746 17.6242,9.85426 17.4705,8.41865C 17.9183,8.15271 18.4413,8 19,8 Z M 5.5,18.25C 5.5,16.1789 8.41015,14.5 12,14.5C 15.5898,14.5 18.5,16.1789 18.5,18.25L 18.5,20L 5.5,20L 5.5,18.25 Z M 0,20L 0,18.5C 0,17.1112 1.88732,15.9429 4.44949,15.6011C 3.86277,16.2795 3.5,17.2159 3.5,18.25L 3.5,20L 0,20 Z M 24,20L 20.5,20L 20.5,18.25C 20.5,17.2159 20.1372,16.2795 19.5505,15.6011C 22.1127,15.9429 24,17.1112 24,18.5L 24,20 Z "/>
</svg>
