<?xml version="1.0" encoding="utf-8"?>
<!DOCTYPE svg PUBLIC "-//W3C//DTD SVG 1.1//EN" "http://www.w3.org/Graphics/SVG/1.1/DTD/svg11.dtd">
<svg xmlns="http://www.w3.org/2000/svg" xmlns:xlink="http://www.w3.org/1999/xlink" version="1.1" baseProfile="full" width="24" height="24" viewBox="0 0 24.00 24.00" enable-background="new 0 0 24.00 24.00" xml:space="preserve">
	<path fill="#000000" fill-opacity="1" stroke-width="0.2" stroke-linejoin="round" d="M 10,4C 12.2091,4 14,5.79086 14,8C 14,10.2091 12.2091,12 10,12C 7.79086,12 6,10.2091 6,8C 6,5.79086 7.79086,4 10,4 Z M 10,14C 14.4183,14 18,15.7909 18,18L 18,20L 2,20L 2,18C 2,15.7909 5.58172,14 10,14 Z M 20,12L 20,7L 22,7L 22,12L 20,12 Z M 20,16L 20,14L 22,14L 22,16L 20,16 Z "/>
</svg>
