<?xml version="1.0" encoding="utf-8"?>
<!DOCTYPE svg PUBLIC "-//W3C//DTD SVG 1.1//EN" "http://www.w3.org/Graphics/SVG/1.1/DTD/svg11.dtd">
<svg xmlns="http://www.w3.org/2000/svg" xmlns:xlink="http://www.w3.org/1999/xlink" version="1.1" baseProfile="full" width="24" height="24" viewBox="0 0 24.00 24.00" enable-background="new 0 0 24.00 24.00" xml:space="preserve">
	<path fill="#000000" fill-opacity="1" stroke-width="0.2" stroke-linejoin="round" d="M 12.9997,12.9981C 14.9997,12.9981 18.9997,13.9991 18.9997,15.9981L 18.9997,17.9981L 6.9997,17.9981L 6.9997,15.9981C 6.9997,13.9991 10.9997,12.9981 12.9997,12.9981 Z M 19.6207,13.1582C 21.6257,13.5117 23.9997,14.4571 23.9997,15.9981L 23.9997,17.9981L 20.9997,17.9981L 20.9997,15.9981C 20.9997,14.8161 20.4497,13.8831 19.6207,13.1582 Z M 12.9997,10.9981C 11.3427,10.9981 9.9997,9.65407 9.9997,7.99807C 9.9997,6.34208 11.3427,4.99807 12.9997,4.99807C 14.6567,4.99807 15.9897,6.34208 15.9897,7.99807C 15.9897,9.65407 14.6567,10.9981 12.9997,10.9981 Z M 17.9997,10.9981C 17.6807,10.9981 17.3737,10.9471 17.0847,10.8541C 17.6517,10.0431 17.9897,9.06107 17.9897,7.99807C 17.9897,6.93507 17.6517,5.95308 17.0847,5.14207C 17.3737,5.04908 17.6807,4.99807 17.9997,4.99807C 19.6567,4.99807 20.9897,6.34208 20.9897,7.99807C 20.9897,9.65407 19.6567,10.9981 17.9997,10.9981 Z M 7.9997,9.99807L 7.9997,11.9981L -0.000295003,11.9981L -0.000295003,9.99807L 7.9997,9.99807 Z M 13,6.5C 12.1716,6.5 11.5,7.17158 11.5,8C 11.5,8.82843 12.1716,9.5 13,9.5C 13.8284,9.5 14.5,8.82843 14.5,8C 14.5,7.17158 13.8284,6.5 13,6.5 Z M 8.5,16.5L 17.5,16.5L 17.5,16C 17.5,15.1716 15.4853,14.5 13,14.5C 10.5147,14.5 8.5,15.1716 8.5,16L 8.5,16.5 Z "/>
</svg>
