<?xml version="1.0" encoding="utf-8"?>
<!DOCTYPE svg PUBLIC "-//W3C//DTD SVG 1.1//EN" "http://www.w3.org/Graphics/SVG/1.1/DTD/svg11.dtd">
<svg xmlns="http://www.w3.org/2000/svg" xmlns:xlink="http://www.w3.org/1999/xlink" version="1.1" baseProfile="full" width="24" height="24" viewBox="0 0 24.00 24.00" enable-background="new 0 0 24.00 24.00" xml:space="preserve">
	<path fill="#000000" fill-opacity="1" stroke-width="0.2" stroke-linejoin="round" d="M 20.5,14.5L 20.5,16L 19,16L 19,14.5L 20.5,14.5 Z M 18.5,9.50001L 17,9.50001L 17,9.00001C 17,7.34311 18.3431,6.00001 20,6.00001C 21.6569,6.00001 23,7.34311 23,9.00001C 23,9.97101 22.514,10.875 21.706,11.408L 21.413,11.601C 20.8429,11.9773 20.4999,12.6149 20.5,13.298L 20.5,13.5L 19,13.5L 19,13.298C 19,12.111 19.596,11.003 20.587,10.349L 20.88,10.156C 21.267,9.90001 21.5,9.46701 21.5,9.00301C 21.5008,8.17461 20.8299,7.50231 20.0015,7.5015C 19.1731,7.50071 18.5008,8.17161 18.5,9.00001L 18.5,9.50001 Z M 9,13C 11.667,13 17,14.335 17,17L 17,20L 1,20L 1,17C 1,14.335 6.33301,13 9,13 Z M 9,4C 11.208,4 13,5.79199 13,8C 13,10.207 11.208,12 9,12C 6.79199,12 5,10.207 5,8C 5,5.79199 6.79199,4 9,4 Z M 9,14.9C 6.026,14.9 2.89998,16.357 2.89998,17L 2.89998,18.1L 15.1,18.1L 15.1,17C 15.1,16.357 11.974,14.9 9,14.9 Z M 9,5.90001C 7.842,5.90001 6.89998,6.84201 6.89998,8C 6.89998,9.158 7.842,10.1 9,10.1C 10.158,10.1 11.1,9.158 11.1,8C 11.1,6.84201 10.158,5.90001 9,5.90001 Z "/>
</svg>
