<?xml version="1.0" encoding="utf-8"?>
<!DOCTYPE svg PUBLIC "-//W3C//DTD SVG 1.1//EN" "http://www.w3.org/Graphics/SVG/1.1/DTD/svg11.dtd">
<svg xmlns="http://www.w3.org/2000/svg" xmlns:xlink="http://www.w3.org/1999/xlink" version="1.1" baseProfile="full" width="24" height="24" viewBox="0 0 24.00 24.00" enable-background="new 0 0 24.00 24.00" xml:space="preserve">
	<path fill="#000000" fill-opacity="1" stroke-width="1.33333" stroke-linejoin="miter" d="M 12,10C 13.933,10 15.5,8.433 15.5,6.5C 15.5,4.567 13.933,3 12,3C 10.067,3 8.5,4.567 8.5,6.5C 8.5,8.433 10.067,10 12,10 Z M 12,5C 12.827,5 13.5,5.673 13.5,6.5C 13.5,7.327 12.827,8 12,8C 11.173,8 10.5,7.327 10.5,6.5C 10.5,5.673 11.173,5 12,5 Z M 15,20C 15,19.448 14.552,19 14,19L 13,19L 13,17L 19,17L 19,15.5C 19,13.57 15.87,12 12,12C 8.13,12 5,13.57 5,15.5L 5,17L 11,17L 11,19L 10,19C 9.448,19 9,19.448 9,20L 2,20L 2,22L 9,22C 9,22.552 9.448,23 10,23L 14,23C 14.552,23 15,22.552 15,22L 22,22L 22,20L 15,20 Z M 7.61,15C 8.394,14.529 9.891,14 12,14C 14.109,14 15.606,14.529 16.39,15L 7.61,15 Z "/>
</svg>
