<?xml version="1.0" encoding="utf-8"?>
<!DOCTYPE svg PUBLIC "-//W3C//DTD SVG 1.1//EN" "http://www.w3.org/Graphics/SVG/1.1/DTD/svg11.dtd">
<svg xmlns="http://www.w3.org/2000/svg" xmlns:xlink="http://www.w3.org/1999/xlink" version="1.1" baseProfile="full" width="24" height="24" viewBox="0 0 24.00 24.00" enable-background="new 0 0 24.00 24.00" xml:space="preserve">
	<path fill="#000000" fill-opacity="1" stroke-width="0.2" stroke-linejoin="miter" d="M 13,8C 13,10.2091 11.2091,12 9,12C 6.79086,12 5,10.2091 5,8C 5,5.7909 6.79086,4 9,4C 11.2091,4 13,5.7909 13,8 Z M 17,18L 17,20L 1,20L 1,18C 1,15.79 4.58,14 9,14C 13.42,14 17,15.79 17,18 Z M 20.5,14.5L 20.5,16L 19,16L 19,14.5L 20.5,14.5 Z M 18.5,9.5L 17,9.5L 17,9C 17,7.3431 18.3431,6 20,6C 21.6569,6 23,7.3431 23,9C 23,9.971 22.5137,10.875 21.706,11.408L 21.4131,11.601C 20.8429,11.9773 20.4999,12.6149 20.5,13.298L 20.5,13.5L 19,13.5L 19,13.298C 19,12.111 19.596,11.003 20.5869,10.349L 20.88,10.156C 21.2666,9.9 21.5,9.467 21.5,9.003C 21.5008,8.1746 20.8299,7.5023 20.0015,7.5015C 19.1731,7.5007 18.5008,8.1716 18.5,9L 18.5,9.5 Z "/>
</svg>
