<?xml version="1.0" encoding="utf-8"?>
<!DOCTYPE svg PUBLIC "-//W3C//DTD SVG 1.1//EN" "http://www.w3.org/Graphics/SVG/1.1/DTD/svg11.dtd">
<svg xmlns="http://www.w3.org/2000/svg" xmlns:xlink="http://www.w3.org/1999/xlink" version="1.1" baseProfile="full" width="24" height="24" viewBox="0 0 24.00 24.00" enable-background="new 0 0 24.00 24.00" xml:space="preserve">
	<path fill="#000000" fill-opacity="1" stroke-width="1.33333" stroke-linejoin="miter" d="M 15,14C 12.3,14 7,15.3 7,18L 7,20L 23,20L 23,18C 23,15.3 17.7,14 15,14M 15,12C 17.2,12 19,10.2 19,8C 19,5.8 17.2,4 15,4C 12.8,4 11,5.8 11,8C 11,10.2 12.8,12 15,12M 5,15L 4.4,14.5C 2.4,12.6 1,11.4 1,9.9C 1,8.7 2,7.7 3.2,7.7C 3.9,7.7 4.6,8 5,8.5C 5.4,8 6.1,7.7 6.8,7.7C 8,7.7 9,8.6 9,9.9C 9,11.4 7.6,12.6 5.6,14.5L 5,15 Z "/>
</svg>
