<?xml version="1.0" encoding="utf-8"?>
<!DOCTYPE svg PUBLIC "-//W3C//DTD SVG 1.1//EN" "http://www.w3.org/Graphics/SVG/1.1/DTD/svg11.dtd">
<svg xmlns="http://www.w3.org/2000/svg" xmlns:xlink="http://www.w3.org/1999/xlink" version="1.1" baseProfile="full" width="24" height="24" viewBox="0 0 24.00 24.00" enable-background="new 0 0 24.00 24.00" xml:space="preserve">
	<path fill="#050708" fill-opacity="1" stroke-width="0.2" stroke-linejoin="round" d="M 11.9992,19.1982C 9.4952,19.1982 7.2922,17.9193 6.0012,15.9783C 6.0272,13.9913 10.0052,12.8983 11.9992,12.8983C 13.9932,12.8983 17.9712,13.9913 17.9972,15.9783C 16.7062,17.9193 14.5032,19.1982 11.9992,19.1982 Z M 11.9992,4.99823C 13.6552,4.99823 14.9992,6.34222 14.9992,7.99823C 14.9992,9.65625 13.6552,10.9982 11.9992,10.9982C 10.3432,10.9982 8.9992,9.65625 8.9992,7.99823C 8.9992,6.34222 10.3432,4.99823 11.9992,4.99823 Z M 11.9992,1.99823C 6.4762,1.99823 1.9992,6.47424 1.9992,11.9982C 1.9992,17.5212 6.4762,21.9982 11.9992,21.9982C 17.5222,21.9982 21.9992,17.5212 21.9992,11.9982C 21.9992,6.47424 17.5222,1.99823 11.9992,1.99823 Z "/>
</svg>
