<?xml version="1.0" encoding="utf-8"?>
<!DOCTYPE svg PUBLIC "-//W3C//DTD SVG 1.1//EN" "http://www.w3.org/Graphics/SVG/1.1/DTD/svg11.dtd">
<svg xmlns="http://www.w3.org/2000/svg" xmlns:xlink="http://www.w3.org/1999/xlink" version="1.1" baseProfile="full" width="24" height="24" viewBox="0 0 24.00 24.00" enable-background="new 0 0 24.00 24.00" xml:space="preserve">
	<path fill="#000000" fill-opacity="1" stroke-width="0.2" stroke-linejoin="round" d="M 10.0218,13C 9.64594,13.5871 9.36187,14.2386 9.18983,14.9342C 6.48489,15.1575 3.89998,16.4153 3.89998,17L 3.89998,18.1L 9.1984,18.1C 9.37123,18.7828 9.65212,19.4226 10.0218,20L 2,20L 2,17C 2,14.335 7.33301,13 10.0218,13 Z M 10,4C 12.208,4 14,5.792 14,8C 14,8.912 13.694,9.75329 13.1791,10.4266C 12.3215,10.7545 11.5511,11.2589 10.9123,11.8953L 10,12C 7.79199,12 6,10.207 6,8C 6,5.792 7.79199,4 10,4 Z M 10,5.90001C 8.842,5.90001 7.89998,6.84201 7.89998,8C 7.89998,9.158 8.842,10.1 10,10.1C 11.158,10.1 12.1,9.158 12.1,8C 12.1,6.84201 11.158,5.90001 10,5.90001 Z M 15.5,12C 17.9853,12 20,14.0147 20,16.5C 20,17.3826 19.7459,18.2059 19.3069,18.9006L 22.3906,21.9844L 20.9844,23.3906L 17.8763,20.3221C 17.1867,20.7518 16.3723,21 15.5,21C 13.0147,21 11,18.9853 11,16.5C 11,14.0147 13.0147,12 15.5,12 Z M 15.5,14C 14.1193,14 13,15.1193 13,16.5C 13,17.8807 14.1193,19 15.5,19C 16.8807,19 18,17.8807 18,16.5C 18,15.1193 16.8807,14 15.5,14 Z "/>
</svg>
