<?xml version="1.0" encoding="utf-8"?>
<!DOCTYPE svg PUBLIC "-//W3C//DTD SVG 1.1//EN" "http://www.w3.org/Graphics/SVG/1.1/DTD/svg11.dtd">
<svg xmlns="http://www.w3.org/2000/svg" xmlns:xlink="http://www.w3.org/1999/xlink" version="1.1" baseProfile="full" width="24" height="24" viewBox="0 0 24.00 24.00" enable-background="new 0 0 24.00 24.00" xml:space="preserve">
	<path fill="#000000" fill-opacity="1" stroke-width="0.2" stroke-linejoin="round" d="M 13,14C 15,14 19,15.001 19,17L 19,19L 7,19L 7,17C 7,15.001 11,14 13,14 Z M 19.621,14.1602C 21.626,14.5137 24,15.459 24,17L 24,19L 21,19L 21,17C 21,15.818 20.45,14.885 19.621,14.1602 Z M 13,12C 11.343,12 10,10.656 10,9C 10,7.34401 11.343,6.00001 13,6.00001C 14.657,6.00001 15.99,7.34401 15.99,9C 15.99,10.656 14.657,12 13,12 Z M 18,12C 17.681,12 17.374,11.949 17.085,11.856C 17.652,11.045 17.99,10.063 17.99,9C 17.99,7.937 17.652,6.95501 17.085,6.144C 17.374,6.05101 17.681,6.00001 18,6.00001C 19.657,6.00001 20.99,7.34401 20.99,9C 20.99,10.656 19.657,12 18,12 Z M 8,11L 8,13L 5,13L 5,16L 3,16L 3,13L 3.81472e-006,13L 3.81472e-006,11L 3,11L 3,8L 5,8L 5,11L 8,11 Z M 13.0003,7.50194C 12.1719,7.50194 11.5003,8.17351 11.5003,9.00194C 11.5003,9.83036 12.1719,10.5019 13.0003,10.5019C 13.8287,10.5019 14.5003,9.83036 14.5003,9.00194C 14.5003,8.17351 13.8287,7.50194 13.0003,7.50194 Z M 8.5,17.5L 17.5,17.5L 17.5,17C 17.5,16.1716 15.4853,15.5 13,15.5C 10.5147,15.5 8.5,16.1716 8.5,17L 8.5,17.5 Z "/>
</svg>
