<?xml version="1.0" encoding="utf-8"?>
<!DOCTYPE svg PUBLIC "-//W3C//DTD SVG 1.1//EN" "http://www.w3.org/Graphics/SVG/1.1/DTD/svg11.dtd">
<svg xmlns="http://www.w3.org/2000/svg" xmlns:xlink="http://www.w3.org/1999/xlink" version="1.1" baseProfile="full" width="24" height="24" viewBox="0 0 24.00 24.00" enable-background="new 0 0 24.00 24.00" xml:space="preserve">
	<path fill="#000000" fill-opacity="1" stroke-width="1.33333" stroke-linejoin="miter" d="M 11.99,2C 6.47,2 1.99,6.48 1.99,12C 1.99,17.52 6.47,22 11.99,22C 17.51,22 21.99,17.52 21.99,12C 21.99,6.48 17.51,2 11.99,2 Z M 15.6,8.34C 16.67,8.34 17.53,9.2 17.53,10.27C 17.53,11.34 16.67,12.2 15.6,12.2C 14.53,12.2 13.67,11.34 13.67,10.27C 13.66,9.2 14.53,8.34 15.6,8.34 Z M 9.6,6.76C 10.9,6.76 11.96,7.82 11.96,9.12C 11.96,10.42 10.9,11.48 9.6,11.48C 8.3,11.48 7.24,10.42 7.24,9.12C 7.24,7.81 8.29,6.76 9.6,6.76 Z M 9.6,15.89L 9.6,19.64C 7.2,18.89 5.3,17.04 4.46,14.68C 5.51,13.56 8.13,12.99 9.6,12.99C 10.13,12.99 10.8,13.07 11.5,13.21C 9.86,14.08 9.6,15.23 9.6,15.89 Z M 11.99,20C 11.72,20 11.46,19.99 11.2,19.96L 11.2,15.89C 11.2,14.47 14.14,13.76 15.6,13.76C 16.67,13.76 18.52,14.15 19.44,14.91C 18.27,17.88 15.38,20 11.99,20 Z "/>
</svg>
