<?xml version="1.0" encoding="utf-8"?>
<!DOCTYPE svg PUBLIC "-//W3C//DTD SVG 1.1//EN" "http://www.w3.org/Graphics/SVG/1.1/DTD/svg11.dtd">
<svg xmlns="http://www.w3.org/2000/svg" xmlns:xlink="http://www.w3.org/1999/xlink" version="1.1" baseProfile="full" width="24" height="24" viewBox="0 0 24.00 24.00" enable-background="new 0 0 24.00 24.00" xml:space="preserve">
	<path fill="#000000" fill-opacity="1" stroke-width="0.2" stroke-linejoin="round" d="M 8.99875,3.99875C 6.7925,3.99875 5,5.79125 5,7.9975C 5,10.21 6.7925,12.0025 8.99875,12.0025C 11.2113,12.0025 12.9975,10.21 12.9975,7.9975C 12.9975,5.79125 11.2113,3.99875 8.99875,3.99875 Z M 8.99875,13.9987C 6.32875,13.9987 1.00125,15.3325 1.00125,17.9975L 1.00125,20L 12.08,20C 12.0262,19.6675 12.0025,19.3362 12.0025,18.9988C 12.0025,17.485 12.495,16.0113 13.4087,14.8C 11.88,14.2775 10.1813,13.9987 8.99875,13.9987 Z M 17.9887,13.9987C 17.8712,13.9987 17.7588,14.0912 17.7388,14.2087L 17.5487,15.5275C 17.2512,15.6588 16.9575,15.82 16.6988,16.02L 15.4587,15.5175C 15.3512,15.4787 15.22,15.5225 15.1512,15.63L 14.15,17.3587C 14.0913,17.4713 14.1112,17.5975 14.2087,17.6812L 15.2688,18.5113C 15.2487,18.6712 15.2388,18.8275 15.2388,18.9988C 15.2388,19.17 15.2487,19.3312 15.2688,19.4925L 14.2087,20.3225C 14.1212,20.4 14.0913,20.5325 14.15,20.64L 15.1512,22.3687C 15.21,22.48 15.3413,22.52 15.4587,22.48L 16.6988,21.9825C 16.9575,22.1825 17.2412,22.3488 17.5487,22.4713L 17.7388,23.7888C 17.7588,23.9113 17.8612,23.9988 17.9887,23.9988L 19.99,23.9988C 20.1123,23.9988 20.22,23.9113 20.2393,23.7888L 20.4297,22.4713C 20.7275,22.3387 21.0205,22.1825 21.27,21.9825L 22.52,22.48C 22.6312,22.52 22.7588,22.48 22.8325,22.3687L 23.8288,20.64C 23.8913,20.5325 23.8575,20.4 23.77,20.3225L 22.7002,19.4925C 22.72,19.3312 22.7393,19.17 22.7393,18.9988C 22.7393,18.8275 22.7295,18.6712 22.7002,18.5113L 23.76,17.6812C 23.8475,17.5975 23.8812,17.4713 23.8188,17.3587L 22.8225,15.63C 22.7588,15.5225 22.6312,15.4787 22.51,15.5175L 21.27,16.02C 21.0107,15.82 20.7275,15.65 20.42,15.5275L 20.2295,14.2087C 20.22,14.0912 20.1123,13.9987 19.99,13.9987M 18.9888,17.5C 19.8188,17.5 20.4888,18.1687 20.4888,18.9988C 20.4888,19.8288 19.8188,20.4975 18.9888,20.4975C 18.1588,20.4975 17.49,19.8288 17.49,18.9988C 17.49,18.1687 18.1588,17.5 18.9888,17.5 Z "/>
</svg>
