<?xml version="1.0" encoding="utf-8"?>
<!DOCTYPE svg PUBLIC "-//W3C//DTD SVG 1.1//EN" "http://www.w3.org/Graphics/SVG/1.1/DTD/svg11.dtd">
<svg xmlns="http://www.w3.org/2000/svg" xmlns:xlink="http://www.w3.org/1999/xlink" version="1.1" baseProfile="full" width="24" height="24" viewBox="0 0 24.00 24.00" enable-background="new 0 0 24.00 24.00" xml:space="preserve">
	<path fill="#000000" fill-opacity="1" stroke-width="1.33333" stroke-linejoin="miter" d="M 22.5898,7.91987L 23.75,9.33012L 19,14.0801L 16.25,11.0801L 17.4102,9.91987L 19,11.5098L 22.5898,7.91987 Z M 6,5C 7.65688,5 9,6.34313 9,8C 9,9.65688 7.65688,11 6,11C 4.34315,11 3,9.65688 3,8C 3,6.34313 4.34315,5 6,5 Z M 11,5.00001C 12.6569,5.00001 14,6.34313 14,8C 14,9.65688 12.6569,11 11,11C 10.68,11 10.3701,10.9496 10.0801,10.8496C 10.6501,10.0396 11,9.06001 11,8C 11,6.94 10.6501,5.95063 10.0801,5.14063C 10.3701,5.05063 10.68,5.00001 11,5.00001 Z M 6,13C 8,13 12,14 12,16L 12,18L 0,18L 0,16C 0,14 4,13 6,13 Z M 12.6191,13.1601C 14.6291,13.5001 17,14.46 17,16L 17,18L 14,18L 14,16C 14,14.82 13.4491,13.8801 12.6191,13.1601 Z "/>
</svg>
