<?xml version="1.0" encoding="utf-8"?>
<!DOCTYPE svg PUBLIC "-//W3C//DTD SVG 1.1//EN" "http://www.w3.org/Graphics/SVG/1.1/DTD/svg11.dtd">
<svg xmlns="http://www.w3.org/2000/svg" xmlns:xlink="http://www.w3.org/1999/xlink" version="1.1" baseProfile="full" width="24" height="24" viewBox="0 0 24.00 24.00" enable-background="new 0 0 24.00 24.00" xml:space="preserve">
	<path fill="#000000" fill-opacity="1" stroke-width="1.33333" stroke-linejoin="miter" d="M 12,12C 12.8284,12 13.5,12.6716 13.5,13.5C 13.5,14.3284 12.8284,15 12,15C 11.1716,15 10.5,14.3284 10.5,13.5C 10.5,12.6716 11.1716,12 12,12 Z M 12,2C 17.5228,2 22,6.47715 22,12C 22,17.5228 17.5228,22 12,22C 6.47715,22 2,17.5228 2,12C 2,6.47715 6.47715,2 12,2 Z M 12,15.9844C 12.7188,15.9844 13.3984,16.1484 14.0391,16.4766C 14.6797,16.8047 15,17.2031 15,17.6719L 15,19.4063C 16.3437,18.8125 17.0156,18.0781 17.0156,17.2031L 17.0156,12.7969C 17.0156,12.0156 16.4922,11.3516 15.4453,10.8047C 14.3984,10.2578 13.25,9.9844 12,9.9844C 10.75,9.9844 9.60156,10.2578 8.55469,10.8047C 7.50781,11.3516 6.98438,12.0156 6.98438,12.7969L 6.98438,17.2031C 6.98438,18.0156 7.53125,18.6875 8.625,19.2188C 9.71875,19.75 10.8437,20.0156 12,20.0156L 12.9844,19.9219L 12.9844,17.9063L 12,18C 11,18 10.0156,17.7969 9.04688,17.3906C 9.17188,17.0156 9.53125,16.6875 10.125,16.4063C 10.7188,16.125 11.3438,15.9844 12,15.9844 Z M 12,4C 10.6193,4 9.5,5.11929 9.5,6.5C 9.5,7.88072 10.6193,9 12,9C 13.3807,9 14.5,7.88072 14.5,6.5C 14.5,5.11929 13.3807,4 12,4 Z "/>
</svg>
