<?xml version="1.0" encoding="utf-8"?>
<!DOCTYPE svg PUBLIC "-//W3C//DTD SVG 1.1//EN" "http://www.w3.org/Graphics/SVG/1.1/DTD/svg11.dtd">
<svg xmlns="http://www.w3.org/2000/svg" xmlns:xlink="http://www.w3.org/1999/xlink" version="1.1" baseProfile="full" width="24" height="24" viewBox="0 0 24.00 24.00" enable-background="new 0 0 24.00 24.00" xml:space="preserve">
	<path fill="#000000" fill-opacity="1" stroke-width="1.33333" stroke-linejoin="miter" d="M 15,4C 12.79,4 11,5.79 11,8C 11,10.21 12.79,12 15,12C 17.21,12 19,10.21 19,8C 19,5.79 17.21,4 15,4M 15,5.9C 16.16,5.9 17.1,6.84 17.1,8C 17.1,9.16 16.16,10.1 15,10.1C 13.84,10.1 12.9,9.16 12.9,8C 12.9,6.84 13.84,5.9 15,5.9M 1,10L 1,12L 9,12L 9,10L 1,10M 15,13C 12.33,13 7,14.33 7,17L 7,20L 23,20L 23,17C 23,14.33 17.67,13 15,13M 15,14.9C 17.97,14.9 21.1,16.36 21.1,17L 21.1,18.1L 8.9,18.1L 8.9,17C 8.9,16.36 12,14.9 15,14.9 Z "/>
</svg>
