<?xml version="1.0" encoding="utf-8"?>
<!DOCTYPE svg PUBLIC "-//W3C//DTD SVG 1.1//EN" "http://www.w3.org/Graphics/SVG/1.1/DTD/svg11.dtd">
<svg xmlns="http://www.w3.org/2000/svg" xmlns:xlink="http://www.w3.org/1999/xlink" version="1.1" baseProfile="full" width="24" height="24" viewBox="0 0 24.00 24.00" enable-background="new 0 0 24.00 24.00" xml:space="preserve">
	<path fill="#000000" fill-opacity="1" stroke-width="0.2" stroke-linejoin="round" d="M 9,4C 11.208,4 13,5.79199 13,8C 13,10.207 11.208,12 9,12C 6.79199,12 5,10.207 5,8C 5,5.79199 6.79199,4 9,4 Z M 9.00004,6.00001C 7.89722,6.00001 7.00004,6.89716 7.00004,8.00001C 7.00004,9.10286 7.89722,10 9.00004,10C 10.1029,10 11,9.10286 11,8.00001C 11,6.89716 10.1029,6.00001 9.00004,6.00001 Z M 9,13C 11.667,13 17,14.335 17,17L 17,20L 1,20L 1,17C 1,14.335 6.33301,13 9,13 Z M 9,14.9C 6.026,14.9 2.89998,16.357 2.89998,17L 2.89998,18.1L 15.1,18.1L 15.1,17C 15.1,16.357 11.974,14.9 9,14.9 Z M 15,4C 17.208,4 19,5.792 19,8C 19,10.207 17.208,12 15,12C 14.5325,12 14.0836,11.9196 13.6664,11.7719C 14.5004,10.7414 15,9.42903 15,8C 15,6.57094 14.5004,5.25856 13.6663,4.22801C 14.0835,4.08036 14.5324,4 15,4 Z M 23,17L 23,20L 19,20L 19,16.5C 19,15.2522 18.2445,14.1015 16.9714,13.1786C 19.6819,13.6233 23,14.8979 23,17 Z "/>
</svg>
