<?xml version="1.0" encoding="utf-8"?>
<!DOCTYPE svg PUBLIC "-//W3C//DTD SVG 1.1//EN" "http://www.w3.org/Graphics/SVG/1.1/DTD/svg11.dtd">
<svg xmlns="http://www.w3.org/2000/svg" xmlns:xlink="http://www.w3.org/1999/xlink" version="1.1" baseProfile="full" width="24" height="24" viewBox="0 0 24.00 24.00" enable-background="new 0 0 24.00 24.00" xml:space="preserve">
	<path fill="#000000" fill-opacity="1" stroke-width="1.33333" stroke-linejoin="miter" d="M 12,6C 10.3431,6 9,7.3431 9,9C 9,10.6569 10.3431,12 12,12C 13.6569,12 15,10.6569 15,9C 15,7.3431 13.6569,6 12,6 Z M 6,8.166C 4.61929,8.166 3.5,9.2853 3.5,10.666C 3.5,12.0467 4.61929,13.166 6,13.166C 6.87884,13.166 7.64797,12.7111 8.09375,12.0254C 7.42312,11.1843 7,10.1485 7,9C 7,8.7969 7.01685,8.5975 7.04102,8.4004C 6.72315,8.254 6.3729,8.166 6,8.166 Z M 18,8.166C 17.6271,8.166 17.2768,8.254 16.959,8.4004C 16.9832,8.5975 17,8.7969 17,9C 17,10.1485 16.5769,11.1843 15.9063,12.0254C 16.352,12.7111 17.1212,13.166 18,13.166C 19.3807,13.166 20.5,12.0467 20.5,10.666C 20.5,9.2853 19.3807,8.166 18,8.166 Z M 12,14C 10,14 6,15 6,17L 6,19L 18,19L 18,17C 18,15 14,14 12,14 Z M 4.67383,14.9668C 2.99708,15.2574 1,16.0423 1,17.334L 1,19L 4,19L 4,17C 4,16.2209 4.28799,15.5321 4.67383,14.9668 Z M 19.3262,14.9668C 19.712,15.5321 20,16.2209 20,17L 20,19L 23,19L 23,17.334C 23,16.0423 21.0029,15.2574 19.3262,14.9668 Z "/>
</svg>
