<?xml version="1.0" encoding="utf-8"?>
<!DOCTYPE svg PUBLIC "-//W3C//DTD SVG 1.1//EN" "http://www.w3.org/Graphics/SVG/1.1/DTD/svg11.dtd">
<svg xmlns="http://www.w3.org/2000/svg" xmlns:xlink="http://www.w3.org/1999/xlink" version="1.1" baseProfile="full" width="24" height="24" viewBox="0 0 24.00 24.00" enable-background="new 0 0 24.00 24.00" xml:space="preserve">
	<path fill="#000000" fill-opacity="1" stroke-width="0.2" stroke-linejoin="round" d="M 21.0994,12.4981L 22.4994,13.9081L 15.9694,20.4981L 12.4994,16.9981L 13.8994,15.5881L 15.9694,17.6681L 21.0994,12.4981 Z M 11,4C 13.208,4 15,5.79199 15,8C 15,10.207 13.208,12 11,12C 8.79199,12 7,10.207 7,8C 7,5.79199 8.79199,4 11,4 Z M 11,6.00002C 9.89721,6.00002 9.00004,6.89716 9.00004,8.00001C 9.00004,9.10286 9.89721,10 11,10C 12.1029,10 13,9.10286 13,8.00001C 13,6.89716 12.1029,6.00002 11,6.00002 Z M 11,13C 11.6766,13 12.5247,13.0859 13.4139,13.2577L 11.7427,14.9289L 11,14.9C 8.026,14.9 4.89998,16.357 4.89998,17L 4.89998,18.1L 11.1,18.1L 13,20L 3,20L 3,17C 3,14.335 8.333,13 11,13 Z "/>
</svg>
