<?xml version="1.0" encoding="utf-8"?>
<!DOCTYPE svg PUBLIC "-//W3C//DTD SVG 1.1//EN" "http://www.w3.org/Graphics/SVG/1.1/DTD/svg11.dtd">
<svg xmlns="http://www.w3.org/2000/svg" xmlns:xlink="http://www.w3.org/1999/xlink" version="1.1" baseProfile="full" width="24" height="24" viewBox="0 0 24.00 24.00" enable-background="new 0 0 24.00 24.00" xml:space="preserve">
	<path fill="#000000" fill-opacity="1" stroke-width="0.2" stroke-linejoin="round" d="M 15.5,12C 17.9853,12 20,14.0147 20,16.5C 20,17.3826 19.7459,18.2059 19.3069,18.9006L 22.3906,21.9844L 20.9844,23.3906L 17.8763,20.3221C 17.1867,20.7518 16.3723,21 15.5,21C 13.0147,21 11,18.9853 11,16.5C 11,14.0147 13.0147,12 15.5,12 Z M 15.5,14C 14.1193,14 13,15.1193 13,16.5C 13,17.8807 14.1193,19 15.5,19C 16.8807,19 18,17.8807 18,16.5C 18,15.1193 16.8807,14 15.5,14 Z M 10,4C 12.2091,4 14,5.79086 14,8C 14,8.91221 13.6946,9.7531 13.1806,10.426C 12.3222,10.754 11.5512,11.2587 10.9121,11.8956L 10,12C 7.79086,12 6,10.2091 6,8C 6,5.79086 7.79086,4 10,4 Z M 2,20L 2,18C 2,15.8757 5.31194,14.1381 9.49489,14.0078C 9.17602,14.7753 9,15.6171 9,16.5C 9,17.7886 9.375,18.9897 10.0218,20L 2,20 Z "/>
</svg>
