<?xml version="1.0" encoding="utf-8"?>
<!DOCTYPE svg PUBLIC "-//W3C//DTD SVG 1.1//EN" "http://www.w3.org/Graphics/SVG/1.1/DTD/svg11.dtd">
<svg xmlns="http://www.w3.org/2000/svg" xmlns:xlink="http://www.w3.org/1999/xlink" version="1.1" baseProfile="full" width="24" height="24" viewBox="0 0 24.00 24.00" enable-background="new 0 0 24.00 24.00" xml:space="preserve">
	<path fill="#000000" fill-opacity="1" stroke-width="0.2" stroke-linejoin="round" d="M 16,14L 17.5,14L 17.5,16.82L 19.94,18.23L 19.19,19.53L 16,17.69L 16,14 Z M 17,12C 14.2386,12 12,14.2386 12,17C 12,19.7614 14.2386,22 17,22C 19.7614,22 22,19.7614 22,17C 22,14.2386 19.7614,12 17,12 Z M 17,10C 20.866,10 24,13.134 24,17C 24,20.866 20.866,24 17,24C 14.2076,24 11.7971,22.3649 10.6736,20L 1,20L 1,17C 1,14.335 6.33301,13 9,13C 9.60111,13 10.3376,13.0678 11.118,13.2034C 12.3648,11.2757 14.5334,10 17,10 Z M 10,17C 10,16.2996 10.1029,15.6232 10.2943,14.9851C 9.86636,14.9307 9.43158,14.9 9,14.9C 6.026,14.9 2.89998,16.357 2.89998,17L 2.89998,18.1L 10.0859,18.1C 10.0294,17.7416 10,17.3743 10,17 Z M 9,4C 11.208,4 13,5.792 13,8C 13,10.207 11.208,12 9,12C 6.79199,12 5,10.207 5,8C 5,5.792 6.79199,4 9,4 Z M 9,5.90001C 7.842,5.90001 6.89998,6.84201 6.89998,8C 6.89998,9.158 7.842,10.1 9,10.1C 10.158,10.1 11.1,9.158 11.1,8C 11.1,6.84201 10.158,5.90001 9,5.90001 Z "/>
</svg>
