<?xml version="1.0" encoding="utf-8"?>
<!DOCTYPE svg PUBLIC "-//W3C//DTD SVG 1.1//EN" "http://www.w3.org/Graphics/SVG/1.1/DTD/svg11.dtd">
<svg xmlns="http://www.w3.org/2000/svg" xmlns:xlink="http://www.w3.org/1999/xlink" version="1.1" baseProfile="full" width="24" height="24" viewBox="0 0 24.00 24.00" enable-background="new 0 0 24.00 24.00" xml:space="preserve">
	<path fill="#000000" fill-opacity="1" stroke-width="1.33333" stroke-linejoin="miter" d="M 12,2C 6.48,2 2,6.48 2,12C 2,17.52 6.48,22 12,22C 17.52,22 22,17.52 22,12C 22,6.48 17.52,2 12,2 Z M 7.07,18.28C 7.5,17.38 10.12,16.5 12,16.5C 13.88,16.5 16.51,17.38 16.93,18.28C 15.57,19.36 13.86,20 12,20C 10.14,20 8.43,19.36 7.07,18.28 Z M 18.36,16.83C 16.93,15.09 13.46,14.5 12,14.5C 10.54,14.5 7.07,15.09 5.64,16.83C 4.62,15.49 4,13.82 4,12C 4,7.59 7.59,4 12,4C 16.41,4 20,7.59 20,12C 20,13.82 19.38,15.49 18.36,16.83 Z M 12,6C 10.06,6 8.5,7.56 8.5,9.5C 8.5,11.44 10.06,13 12,13C 13.94,13 15.5,11.44 15.5,9.5C 15.5,7.56 13.94,6 12,6 Z M 12,11C 11.17,11 10.5,10.33 10.5,9.5C 10.5,8.67 11.17,8 12,8C 12.83,8 13.5,8.67 13.5,9.5C 13.5,10.33 12.83,11 12,11 Z "/>
</svg>
