<?xml version="1.0" encoding="utf-8"?>
<!DOCTYPE svg PUBLIC "-//W3C//DTD SVG 1.1//EN" "http://www.w3.org/Graphics/SVG/1.1/DTD/svg11.dtd">
<svg xmlns="http://www.w3.org/2000/svg" xmlns:xlink="http://www.w3.org/1999/xlink" version="1.1" baseProfile="full" width="24" height="24" viewBox="0 0 24.00 24.00" enable-background="new 0 0 24.00 24.00" xml:space="preserve">
	<path fill="#000000" fill-opacity="1" stroke-width="1.33333" stroke-linejoin="miter" d="M 12,2C 13.6569,2 15,3.34315 15,5C 15,6.65685 13.6569,8 12,8C 10.3431,8 9,6.65685 9,5C 9,3.34315 10.3431,2 12,2 Z M 12,9C 13.625,9 15.1172,9.3516 16.4766,10.0547C 17.8359,10.7578 18.5156,11.6094 18.5156,12.6094L 18.5156,18.375C 18.5156,19.5 17.6406,20.4375 15.8906,21.1875L 15.8906,18.9844C 15.8906,18.0469 15.0312,17.375 13.3125,16.9688C 12.75,16.8438 12.3125,16.7813 12,16.7813C 11.125,16.7813 10.3047,16.9531 9.53906,17.2969C 8.77344,17.6406 8.3125,18.0781 8.15625,18.6094C 9.5,19.1406 10.7813,19.4063 12,19.4063L 12.9844,19.3125L 12.9844,21.9375L 12,21.9844C 10.625,21.9844 9.32813,21.7187 8.10938,21.1875C 6.35938,20.4375 5.48438,19.5 5.48438,18.375L 5.48438,12.6094C 5.48438,11.6094 6.16406,10.7578 7.52344,10.0547C 8.88281,9.3516 10.375,9 12,9 Z M 12,11C 10.8954,11 10,11.8954 10,13C 10,14.1046 10.8954,15 12,15C 13.1046,15 14,14.1046 14,13C 14,11.8954 13.1046,11 12,11 Z "/>
</svg>
