<?xml version="1.0" encoding="utf-8"?>
<!DOCTYPE svg PUBLIC "-//W3C//DTD SVG 1.1//EN" "http://www.w3.org/Graphics/SVG/1.1/DTD/svg11.dtd">
<svg xmlns="http://www.w3.org/2000/svg" xmlns:xlink="http://www.w3.org/1999/xlink" version="1.1" baseProfile="full" width="24" height="24" viewBox="0 0 24.00 24.00" enable-background="new 0 0 24.00 24.00" xml:space="preserve">
	<path fill="#000000" fill-opacity="1" stroke-width="0.2" stroke-linejoin="round" d="M 12.9997,12.9981C 10.9997,12.9981 6.9997,13.9991 6.9997,15.9981L 6.9997,17.9981L 18.9997,17.9981L 18.9997,15.9981C 18.9997,13.9991 14.9997,12.9981 12.9997,12.9981 Z M 19.6207,13.1582C 20.4497,13.8831 20.9997,14.8161 20.9997,15.9981L 20.9997,17.9981L 23.9997,17.9981L 23.9997,15.9981C 23.9997,14.4571 21.6257,13.5117 19.6207,13.1582 Z M 12.9997,10.9981C 14.6567,10.9981 15.9897,9.65407 15.9897,7.99807C 15.9897,6.34207 14.6567,4.99807 12.9997,4.99807C 11.3427,4.99807 9.99971,6.34207 9.99971,7.99807C 9.99971,9.65407 11.3427,10.9981 12.9997,10.9981 Z M 17.9997,10.9981C 19.6567,10.9981 20.9897,9.65407 20.9897,7.99807C 20.9897,6.34207 19.6567,4.99807 17.9997,4.99807C 17.6807,4.99807 17.3737,5.04907 17.0847,5.14207C 17.6517,5.95307 17.9897,6.93506 17.9897,7.99807C 17.9897,9.06107 17.6517,10.0431 17.0847,10.8541C 17.3737,10.9471 17.6807,10.9981 17.9997,10.9981 Z M 7.9997,9.99807L -0.000295003,9.99807L -0.000295003,11.9981L 7.9997,11.9981L 7.9997,9.99807 Z "/>
</svg>
