<?xml version="1.0" encoding="utf-8"?>
<!DOCTYPE svg PUBLIC "-//W3C//DTD SVG 1.1//EN" "http://www.w3.org/Graphics/SVG/1.1/DTD/svg11.dtd">
<svg xmlns="http://www.w3.org/2000/svg" xmlns:xlink="http://www.w3.org/1999/xlink" version="1.1" baseProfile="full" width="24" height="24" viewBox="0 0 24.00 24.00" enable-background="new 0 0 24.00 24.00" xml:space="preserve">
	<path fill="#000000" fill-opacity="1" stroke-width="0.2" stroke-linejoin="round" d="M 18,20.99L 15,18L 18,15L 18,17L 22,17L 22,18.99L 18,18.99L 18,20.99 Z M 13,18C 13,18.7111 13.1484,19.3875 13.416,20L 2,20L 2,17C 2,14.7909 5.58172,13 10,13C 11.0032,13 11.9633,13.0923 12.8481,13.2609C 13.6759,13.4186 14.4377,13.6431 15.1074,13.9211C 13.8321,14.8272 13,16.3164 13,18 Z M 4,17L 4,18L 11,18C 11,16.956 11.2285,15.9654 11.6383,15.0755L 9.99999,15C 6.68629,15 4,15.8954 4,17 Z M 10,4C 12.2091,4 14,5.79086 14,8C 14,10.2091 12.2091,12 10,12C 7.79086,12 6,10.2091 6,8C 6,5.79086 7.79086,4 10,4 Z M 10,6.00001C 8.89543,6.00001 8,6.89544 8,8.00001C 8,9.10458 8.89543,10 10,10C 11.1046,10 12,9.10458 12,8.00001C 12,6.89544 11.1046,6.00001 10,6.00001 Z "/>
</svg>
