<?xml version="1.0" encoding="utf-8"?>
<!DOCTYPE svg PUBLIC "-//W3C//DTD SVG 1.1//EN" "http://www.w3.org/Graphics/SVG/1.1/DTD/svg11.dtd">
<svg xmlns="http://www.w3.org/2000/svg" xmlns:xlink="http://www.w3.org/1999/xlink" version="1.1" baseProfile="full" width="24" height="24" viewBox="0 0 24.00 24.00" enable-background="new 0 0 24.00 24.00" xml:space="preserve">
	<path fill="#000000" fill-opacity="1" stroke-width="0.2" stroke-linejoin="miter" d="M 1.46447,8.87868L 2.87868,7.46447L 5,9.58579L 7.12132,7.46446L 8.53553,8.87868L 6.41421,11L 8.53553,13.1213L 7.12132,14.5355L 5,12.4142L 2.87868,14.5355L 1.46447,13.1213L 3.58579,11L 1.46447,8.87868 Z M 15,4C 17.2091,4 19,5.7909 19,8C 19,10.2091 17.2091,12 15,12C 12.7909,12 11,10.2091 11,8C 11,5.7909 12.7909,4 15,4 Z M 15,5.9004C 13.8405,5.9006 12.9006,6.8405 12.9004,8C 12.9006,9.1595 13.8405,10.0994 15,10.0996C 16.1595,10.0994 17.0994,9.1595 17.0996,8C 17.0994,6.8405 16.1595,5.9006 15,5.9004 Z M 15,13C 17.6699,13 23,14.33 23,17L 23,20L 7,20L 7,17C 7,14.33 12.33,13 15,13 Z M 15,14.9004C 12,14.9004 8.90039,16.36 8.90039,17L 8.90039,18.0996L 21.0996,18.0996L 21.0996,17C 21.0996,16.36 17.97,14.9004 15,14.9004 Z "/>
</svg>
