<?xml version="1.0" encoding="utf-8"?>
<!DOCTYPE svg PUBLIC "-//W3C//DTD SVG 1.1//EN" "http://www.w3.org/Graphics/SVG/1.1/DTD/svg11.dtd">
<svg xmlns="http://www.w3.org/2000/svg" xmlns:xlink="http://www.w3.org/1999/xlink" version="1.1" baseProfile="full" width="24" height="24" viewBox="0 0 24.00 24.00" enable-background="new 0 0 24.00 24.00" xml:space="preserve">
	<path fill="#000000" fill-opacity="1" stroke-width="0.2" stroke-linejoin="round" d="M 20,12L 20,7L 22,7L 22,12L 20,12 Z M 20,16L 20,14L 22,14L 22,16L 20,16 Z M 10,13C 12.667,13 18,14.335 18,17L 18,20L 2,20L 2,17C 2,14.335 7.33301,13 10,13 Z M 10,4C 12.208,4 14,5.79199 14,8C 14,10.207 12.208,12 10,12C 7.79199,12 6,10.207 6,8C 6,5.79199 7.79199,4 10,4 Z M 10,14.9C 7.026,14.9 3.89998,16.357 3.89998,17L 3.89998,18.1L 16.1,18.1L 16.1,17C 16.1,16.357 12.974,14.9 10,14.9 Z M 10,5.90001C 8.842,5.90001 7.89998,6.84201 7.89998,8C 7.89998,9.158 8.842,10.1 10,10.1C 11.158,10.1 12.1,9.158 12.1,8C 12.1,6.84201 11.158,5.90001 10,5.90001 Z "/>
</svg>
