<?xml version="1.0" encoding="utf-8"?>
<!DOCTYPE svg PUBLIC "-//W3C//DTD SVG 1.1//EN" "http://www.w3.org/Graphics/SVG/1.1/DTD/svg11.dtd">
<svg xmlns="http://www.w3.org/2000/svg" xmlns:xlink="http://www.w3.org/1999/xlink" version="1.1" baseProfile="full" width="24" height="24" viewBox="0 0 24.00 24.00" enable-background="new 0 0 24.00 24.00" xml:space="preserve">
	<path fill="#000000" fill-opacity="1" stroke-width="0.2" stroke-linejoin="round" d="M 11.9994,3.99807C 14.2074,3.99807 15.9994,5.79006 15.9994,7.99807C 15.9994,10.2051 14.2074,11.9981 11.9994,11.9981C 9.79138,11.9981 7.99939,10.2051 7.99939,7.99807C 7.99939,5.79006 9.79138,3.99807 11.9994,3.99807 Z M 11.9994,5.99808C 10.8966,5.99808 9.99943,6.89522 9.99943,7.99807C 9.99943,9.10092 10.8966,9.99806 11.9994,9.99806C 13.1023,9.99806 13.9994,9.10092 13.9994,7.99807C 13.9994,6.89522 13.1023,5.99808 11.9994,5.99808 Z M 11.9994,12.9981C 14.6664,12.9981 19.9994,14.3331 19.9994,16.9981L 19.9994,19.9981L 3.99939,19.9981L 3.99939,16.9981C 3.99939,14.3331 9.3324,12.9981 11.9994,12.9981 Z M 11.9994,14.8981C 9.02539,14.8981 5.89937,16.3551 5.89937,16.9981L 5.89937,18.0981L 18.0994,18.0981L 18.0994,16.9981C 18.0994,16.3551 14.9734,14.8981 11.9994,14.8981 Z "/>
</svg>
