<?xml version="1.0" encoding="utf-8"?>
<!DOCTYPE svg PUBLIC "-//W3C//DTD SVG 1.1//EN" "http://www.w3.org/Graphics/SVG/1.1/DTD/svg11.dtd">
<svg xmlns="http://www.w3.org/2000/svg" xmlns:xlink="http://www.w3.org/1999/xlink" version="1.1" baseProfile="full" width="24" height="24" viewBox="0 0 24.00 24.00" enable-background="new 0 0 24.00 24.00" xml:space="preserve">
	<path fill="#000000" fill-opacity="1" stroke-linejoin="round" d="M 16,9C 18.333,9 23,10.168 23,12.5L 23,15L 17,15L 17,12.5C 17,11.017 16.194,9.891 15.035,9.054L 16,9 Z M 8,9C 10.333,9 15,10.168 15,12.5L 15,15L 1,15L 1,12.5C 1,10.168 5.66601,9 8,9 Z M 8,7C 6.34302,7 5,5.656 5,4C 5,2.34401 6.34302,1.00001 8,1.00001C 9.65702,1.00001 10.99,2.34401 10.99,4C 10.99,5.656 9.65702,7 8,7 Z M 16,7C 14.343,7 13,5.656 13,4C 13,2.34401 14.343,1.00001 16,1.00001C 17.657,1.00001 18.99,2.34401 18.99,4C 18.99,5.656 17.657,7 16,7 Z M 9,16.75L 9,19L 15,19L 15,16.75L 18.25,20L 15,23.25L 15,21L 9,21L 9,23.25L 5.75,20L 9,16.75 Z "/>
</svg>
