<?xml version="1.0" encoding="utf-8"?>
<!DOCTYPE svg PUBLIC "-//W3C//DTD SVG 1.1//EN" "http://www.w3.org/Graphics/SVG/1.1/DTD/svg11.dtd">
<svg xmlns="http://www.w3.org/2000/svg" xmlns:xlink="http://www.w3.org/1999/xlink" version="1.1" baseProfile="full" width="24" height="24" viewBox="0 0 24.00 24.00" enable-background="new 0 0 24.00 24.00" xml:space="preserve">
	<path fill="#000000" fill-opacity="1" stroke-width="1.33333" stroke-linejoin="miter" d="M 13.5,5C 11.567,5 10,6.567 10,8.5C 10,10.433 11.567,12 13.5,12C 14.2468,12 14.9356,11.7618 15.5039,11.3633C 16.0705,11.7605 16.7555,12 17.5,12C 19.433,12 21,10.433 21,8.5C 21,6.567 19.433,5 17.5,5C 16.7571,5 16.0831,5.2509 15.5176,5.6465C 14.9467,5.242 14.2529,5 13.5,5 Z M 13.5,6.5C 14.6046,6.5 15.5,7.3954 15.5,8.5C 15.5,9.6046 14.6046,10.5 13.5,10.5C 12.3954,10.5 11.5,9.6046 11.5,8.5C 11.5,7.3954 12.3954,6.5 13.5,6.5 Z M 17.5,6.5C 18.6046,6.5 19.5,7.3954 19.5,8.5C 19.5,9.6046 18.6046,10.5 17.5,10.5C 17.1425,10.5 16.8124,10.3986 16.5234,10.2324C 16.8179,9.7198 17,9.1336 17,8.5C 17,7.8664 16.8179,7.2802 16.5234,6.7676C 16.8124,6.6014 17.1425,6.5 17.5,6.5 Z M 3,8L 3,11L 1.27157e-006,11L 1.27157e-006,13L 3,13L 3,16L 5,16L 5,13L 8,13L 8,11L 5,11L 5,8L 3,8 Z M 13.5,13C 11.33,13 7,14.08 7,16.25L 7,19L 24,19L 24,16.25C 24,14.08 19.67,13 17.5,13C 16.9453,13 16.2484,13.0806 15.5234,13.2246C 14.7793,13.0777 14.0656,13 13.5,13 Z M 13.5,14.5C 15.94,14.5 18.5,15.71 18.5,16.25L 18.5,17.5L 8.5,17.5L 8.5,16.25C 8.5,15.71 11.06,14.5 13.5,14.5 Z M 19.084,14.6602C 20.9324,15.0031 22.5,15.8279 22.5,16.25L 22.5,17.5L 20,17.5L 20,16.25C 20,15.6301 19.6394,15.1024 19.084,14.6602 Z "/>
</svg>
