<?xml version="1.0" encoding="utf-8"?>
<!DOCTYPE svg PUBLIC "-//W3C//DTD SVG 1.1//EN" "http://www.w3.org/Graphics/SVG/1.1/DTD/svg11.dtd">
<svg xmlns="http://www.w3.org/2000/svg" xmlns:xlink="http://www.w3.org/1999/xlink" version="1.1" baseProfile="full" width="24" height="24" viewBox="0 0 24.00 24.00" enable-background="new 0 0 24.00 24.00" xml:space="preserve">
	<path fill="#000000" fill-opacity="1" stroke-width="0.2" stroke-linejoin="round" d="M 21.0994,12.4981L 22.4994,13.9081L 15.9694,20.4981L 12.4994,16.9981L 13.8994,15.5881L 15.9694,17.6681L 21.0994,12.4981 Z M 10,17L 13,20L 3,20L 3,18C 3,15.7909 6.58172,14 11,14L 12.888,14.112L 10,17 Z M 11,4.00001C 13.2091,4.00001 15,5.79086 15,8.00001C 15,10.2091 13.2091,12 11,12C 8.79086,12 7,10.2091 7,8.00001C 7,5.79086 8.79086,4.00001 11,4.00001 Z "/>
</svg>
