<?xml version="1.0" encoding="utf-8"?>
<!DOCTYPE svg PUBLIC "-//W3C//DTD SVG 1.1//EN" "http://www.w3.org/Graphics/SVG/1.1/DTD/svg11.dtd">
<svg xmlns="http://www.w3.org/2000/svg" xmlns:xlink="http://www.w3.org/1999/xlink" version="1.1" baseProfile="full" width="24" height="24" viewBox="0 0 24.00 24.00" enable-background="new 0 0 24.00 24.00" xml:space="preserve">
	<path fill="#000000" fill-opacity="1" stroke-width="0.2" stroke-linejoin="round" d="M 14.9994,13.998C 17.6664,13.998 22.9994,15.333 22.9994,17.998L 22.9994,19.998L 6.99939,19.998L 6.99939,17.998C 6.99939,15.333 12.3324,13.998 14.9994,13.998 Z M 14.9993,11.998C 12.7913,11.998 10.9993,10.205 10.9993,7.99798C 10.9993,5.78998 12.7913,3.99798 14.9993,3.99798C 17.2074,3.99798 18.9993,5.78998 18.9993,7.99798C 18.9993,10.205 17.2074,11.998 14.9993,11.998 Z M 4.99995,9.58583L 7.12129,7.46449L 8.5355,8.8787L 6.41416,11L 8.53548,13.1214L 7.12128,14.5356L 4.99996,12.4142L 2.87864,14.5356L 1.46443,13.1213L 3.58574,11L 1.46442,8.87871L 2.87863,7.4645L 4.99995,9.58583 Z "/>
</svg>
