<?xml version="1.0" encoding="utf-8"?>
<!DOCTYPE svg PUBLIC "-//W3C//DTD SVG 1.1//EN" "http://www.w3.org/Graphics/SVG/1.1/DTD/svg11.dtd">
<svg xmlns="http://www.w3.org/2000/svg" xmlns:xlink="http://www.w3.org/1999/xlink" version="1.1" baseProfile="full" width="24" height="24" viewBox="0 0 24.00 24.00" enable-background="new 0 0 24.00 24.00" xml:space="preserve">
	<path fill="#000000" fill-opacity="1" stroke-width="0.2" stroke-linejoin="miter" d="M 10.626,14.102C 12.226,10.582 16.3765,9.0255 19.8965,10.6255C 23.4165,12.2255 24.973,16.376 23.373,19.896C 22.237,22.3952 19.7452,23.9998 17,24C 14.2957,24.0006 11.833,22.4433 10.674,20L 1,20L 1,17.988C 1.062,16.865 1.842,15.93 3.34,15.181C 4.836,14.433 6.723,14.043 9,14.011C 9.566,14.019 10.108,14.049 10.626,14.101L 10.626,14.102 Z M 9,4C 10.123,4.03125 11.058,4.421 11.807,5.16992C 12.556,5.918 12.93,6.862 12.93,8C 12.93,9.138 12.556,10.082 11.807,10.83C 11.058,11.579 10.123,11.953 9,11.953C 7.877,11.953 6.942,11.579 6.193,10.83C 5.444,10.082 5.07,9.138 5.07,8C 5.07,6.862 5.444,5.918 6.193,5.16992C 6.942,4.41992 7.877,4.03 9,4 Z M 17,22C 19.7614,22 22,19.7614 22,17C 22,14.2386 19.7614,12 17,12C 14.2386,12 12,14.2386 12,17C 12,19.7614 14.2386,22 17,22 Z M 16,14L 17.5,14L 17.5,16.82L 19.94,18.23L 19.19,19.53L 16,17.69L 16,14 Z "/>
</svg>
