<?xml version="1.0" encoding="utf-8"?>
<!DOCTYPE svg PUBLIC "-//W3C//DTD SVG 1.1//EN" "http://www.w3.org/Graphics/SVG/1.1/DTD/svg11.dtd">
<svg xmlns="http://www.w3.org/2000/svg" xmlns:xlink="http://www.w3.org/1999/xlink" version="1.1" baseProfile="full" width="24" height="24" viewBox="0 0 24.00 24.00" enable-background="new 0 0 24.00 24.00" xml:space="preserve">
	<path fill="#000000" fill-opacity="1" stroke-width="0.2" stroke-linejoin="round" d="M 12,4C 14.2091,4 16,5.79086 16,8C 16,9.95192 14.6019,11.5773 12.7525,11.9293L 8.07079,7.24691C 8.42307,5.39779 10.0483,4 12,4 Z M 12.2799,14.0024L 18.2775,20L 20,21.7225L 18.73,23.0025L 15.7286,20L 4,20L 4,18C 4,16.159 6.48748,14.6085 9.87364,14.1428L 2.78094,7.04749L 4.05296,5.77547L 12.2799,14.0024 Z M 20,18L 20,19.178L 15.1434,14.3206C 17.999,14.9313 20,16.3488 20,18 Z "/>
</svg>
