<?xml version="1.0" encoding="utf-8"?>
<!DOCTYPE svg PUBLIC "-//W3C//DTD SVG 1.1//EN" "http://www.w3.org/Graphics/SVG/1.1/DTD/svg11.dtd">
<svg xmlns="http://www.w3.org/2000/svg" xmlns:xlink="http://www.w3.org/1999/xlink" version="1.1" baseProfile="full" width="24" height="24" viewBox="0 0 24.00 24.00" enable-background="new 0 0 24.00 24.00" xml:space="preserve">
	<path fill="#000000" fill-opacity="1" stroke-width="0.2" stroke-linejoin="round" d="M 2.75,7.01849L 4.02711,5.75001L 13.2576,14.9805L 20,21.7229L 18.7315,23L 15.7315,20L 4,20L 4,17C 4,15.1353 6.61087,13.9218 9.09257,13.3611L 2.75,7.01849 Z M 20,17L 20,19.1773L 18.1,17.2773L 18.1,17C 18.1,16.7421 17.597,16.3531 16.8025,15.9798L 14.0072,13.1846C 16.7111,13.6345 20,14.9072 20,17 Z M 5.89998,17L 5.89998,18.1L 13.8315,18.1L 10.7154,14.9839C 8.19043,15.3028 5.89998,16.4496 5.89998,17 Z M 12,4.00002C 14.208,4.00002 16,5.79201 16,8.00001C 16,9.9501 14.6009,11.577 12.752,11.9293L 8.07068,7.24799C 8.42285,5.39908 10.049,4.00002 12,4.00002 Z M 12,6.00001C 10.8954,6.00001 10,6.89544 10,8C 10,9.10458 10.8954,10 12,10C 13.1046,10 14,9.10458 14,8C 14,6.89544 13.1046,6.00001 12,6.00001 Z "/>
</svg>
