<?xml version="1.0" encoding="utf-8"?>
<!DOCTYPE svg PUBLIC "-//W3C//DTD SVG 1.1//EN" "http://www.w3.org/Graphics/SVG/1.1/DTD/svg11.dtd">
<svg xmlns="http://www.w3.org/2000/svg" xmlns:xlink="http://www.w3.org/1999/xlink" version="1.1" baseProfile="full" width="24" height="24" viewBox="0 0 24.00 24.00" enable-background="new 0 0 24.00 24.00" xml:space="preserve">
	<path fill="#000000" fill-opacity="1" stroke-width="1.33333" stroke-linejoin="miter" d="M 5.83,10C 5.42,8.83 4.31,8 3,8C 1.34,8 1.27157e-006,9.34 1.27157e-006,11C 1.27157e-006,12.66 1.34,14 3,14C 4.31,14 5.42,13.17 5.83,12L 8,12L 8,14L 10,14L 10,12L 11,12L 11,10L 5.83,10 Z M 3,12C 2.45,12 2,11.55 2,11C 2,10.45 2.45,10 3,10C 3.55,10 4,10.45 4,11C 4,11.55 3.55,12 3,12 Z M 16,4C 13.79,4 12,5.79 12,8C 12,10.21 13.79,12 16,12C 18.21,12 20,10.21 20,8C 20,5.79 18.21,4 16,4 Z M 16,10.1C 14.84,10.1 13.9,9.16 13.9,8C 13.9,6.84 14.84,5.9 16,5.9C 17.16,5.9 18.1,6.84 18.1,8C 18.1,9.16 17.16,10.1 16,10.1 Z M 16,13C 13.33,13 8,14.33 8,17L 8,20L 24,20L 24,17C 24,14.33 18.67,13 16,13 Z M 22.1,18.1L 9.9,18.1L 9.9,17C 9.9,16.36 13,14.9 16,14.9C 18.97,14.9 22.1,16.36 22.1,17L 22.1,18.1 Z "/>
</svg>
