<?xml version="1.0" encoding="utf-8"?>
<!DOCTYPE svg PUBLIC "-//W3C//DTD SVG 1.1//EN" "http://www.w3.org/Graphics/SVG/1.1/DTD/svg11.dtd">
<svg xmlns="http://www.w3.org/2000/svg" xmlns:xlink="http://www.w3.org/1999/xlink" version="1.1" baseProfile="full" width="24" height="24" viewBox="0 0 24.00 24.00" enable-background="new 0 0 24.00 24.00" xml:space="preserve">
	<path fill="#000000" fill-opacity="1" stroke-width="1.33333" stroke-linejoin="miter" d="M 12,5C 10.07,5 8.5,6.57 8.5,8.5C 8.5,10.43 10.07,12 12,12C 13.93,12 15.5,10.43 15.5,8.5C 15.5,6.57 13.93,5 12,5 Z M 12,7C 12.83,7 13.5,7.67 13.5,8.5C 13.5,9.33 12.83,10 12,10C 11.17,10 10.5,9.33 10.5,8.5C 10.5,7.67 11.17,7 12,7 Z M 5.5,8C 4.12,8 3,9.12 3,10.5C 3,11.44 3.52906,12.2497 4.28906,12.6797C 4.64906,12.8797 5.06,13 5.5,13C 5.94,13 6.35094,12.8797 6.71094,12.6797C 7.0792,12.4713 7.38934,12.1708 7.61523,11.8125C 6.8932,10.859 6.50168,9.6961 6.5,8.5C 6.50216,8.4061 6.50672,8.3124 6.51367,8.2187C 6.20332,8.0805 5.8615,8 5.5,8 Z M 18.5,8C 18.1401,8 17.7995,8.0797 17.4902,8.2168C 17.4959,8.3111 17.4992,8.4055 17.5,8.5C 17.4973,9.6956 17.1051,10.8578 16.3828,11.8105C 16.4958,11.9902 16.631,12.1545 16.7832,12.3008C 16.9354,12.4471 17.1045,12.5753 17.2891,12.6797C 17.6491,12.8797 18.06,13 18.5,13C 18.94,13 19.3509,12.8797 19.7109,12.6797C 20.4709,12.2497 21,11.44 21,10.5C 21,9.12 19.88,8 18.5,8 Z M 12,14C 9.66,14 5,15.17 5,17.5L 5,19L 19,19L 19,17.5C 19,15.17 14.34,14 12,14 Z M 4.71484,14.5508C 2.7824,14.776 1.27157e-006,15.7649 1.27157e-006,17.5L 1.27157e-006,19L 3,19L 3,17.0723C 3,16.0597 3.69243,15.2221 4.71484,14.5508 Z M 19.2852,14.5508C 20.3076,15.2221 21,16.0597 21,17.0723L 21,19L 24,19L 24,17.5C 24,15.7649 21.2176,14.776 19.2852,14.5508 Z M 12,16C 13.53,16 15.2405,16.5 16.2305,17L 7.76953,17C 8.75953,16.5 10.47,16 12,16 Z "/>
</svg>
