<?xml version="1.0" encoding="utf-8"?>
<!DOCTYPE svg PUBLIC "-//W3C//DTD SVG 1.1//EN" "http://www.w3.org/Graphics/SVG/1.1/DTD/svg11.dtd">
<svg xmlns="http://www.w3.org/2000/svg" xmlns:xlink="http://www.w3.org/1999/xlink" version="1.1" baseProfile="full" width="24" height="24" viewBox="0 0 24.00 24.00" enable-background="new 0 0 24.00 24.00" xml:space="preserve">
	<path fill="#000000" fill-opacity="1" stroke-width="0.2" stroke-linejoin="round" d="M 15,14C 17.667,14 23,15.335 23,18L 23,20L 7,20L 7,18C 7,15.335 12.333,14 15,14 Z M 15,12C 12.792,12 11,10.207 11,8C 11,5.79201 12.792,4 15,4C 17.208,4 19,5.79201 19,8C 19,10.207 17.208,12 15,12 Z M 2.75736,14.6569C 2.36683,15.0474 1.73367,15.0474 1.34314,14.6569C 0.952621,14.2663 0.95262,13.6332 1.34314,13.2426L 3.29237,11.2934C 3.10495,10.9018 3,10.4631 3,10C 3,8.34315 4.34314,7 6,7C 7.65685,7 9,8.34315 9,10C 9,11.6569 7.65685,13 6,13C 5.53685,13 5.09822,12.8951 4.70658,12.7076L 2.75736,14.6569 Z M 6,9C 5.44771,9 5,9.44772 5,10C 5,10.5523 5.44771,11 6,11C 6.55228,11 7,10.5523 7,10C 7,9.44772 6.55228,9 6,9 Z "/>
</svg>
