<?xml version="1.0" encoding="utf-8"?>
<!DOCTYPE svg PUBLIC "-//W3C//DTD SVG 1.1//EN" "http://www.w3.org/Graphics/SVG/1.1/DTD/svg11.dtd">
<svg xmlns="http://www.w3.org/2000/svg" xmlns:xlink="http://www.w3.org/1999/xlink" version="1.1" baseProfile="full" width="24" height="24" viewBox="0 0 24.00 24.00" enable-background="new 0 0 24.00 24.00" xml:space="preserve">
	<path fill="#000000" fill-opacity="1" stroke-width="0.2" stroke-linejoin="round" d="M 9,5C 10.933,5 12.5,6.567 12.5,8.5C 12.5,10.433 10.933,12 9,12C 7.06701,12 5.5,10.433 5.5,8.5C 5.5,6.567 7.06701,5 9,5 Z M 9,13.75C 12.866,13.75 16,15.317 16,17.25L 16,19L 2,19L 2,17.25C 2,15.317 5.13401,13.75 9,13.75 Z M 17,12.6642L 14.25,9.66421L 15.4142,8.5L 17,10.0858L 20.5858,6.5L 21.75,7.91421L 17,12.6642 Z "/>
</svg>
