<?xml version="1.0" encoding="utf-8"?>
<!DOCTYPE svg PUBLIC "-//W3C//DTD SVG 1.1//EN" "http://www.w3.org/Graphics/SVG/1.1/DTD/svg11.dtd">
<svg xmlns="http://www.w3.org/2000/svg" xmlns:xlink="http://www.w3.org/1999/xlink" version="1.1" baseProfile="full" width="24" height="24" viewBox="0 0 24.00 24.00" enable-background="new 0 0 24.00 24.00" xml:space="preserve">
	<path fill="#000000" fill-opacity="1" stroke-linejoin="round" d="M 9,13.7493C 6.66133,13.7493 2,14.9213 2,17.2507L 2,19L 16,19L 16,17.2507C 16,14.9213 11.3387,13.7493 9,13.7493 Z M 4.33867,17C 5.18267,16.4213 7.208,15.7493 9,15.7493C 10.792,15.7493 12.8173,16.4213 13.6613,17M 9,12C 10.932,12 12.5,10.432 12.5,8.5C 12.5,6.568 10.932,5 9,5C 7.068,5 5.5,6.568 5.5,8.5C 5.5,10.432 7.068,12 9,12 Z M 9,7C 9.828,7 10.5,7.672 10.5,8.5C 10.5,9.328 9.828,10 9,10C 8.172,10 7.5,9.328 7.5,8.5C 7.5,7.672 8.172,7 9,7 Z M 16.0413,13.812C 17.1973,14.6507 18,15.7707 18,17.2507L 18,19L 22,19L 22,17.2507C 22,15.2293 18.5,14.0787 16.0413,13.812 Z M 15,12C 16.932,12 18.5,10.432 18.5,8.5C 18.5,6.568 16.932,5 15,5C 14.4587,5 13.9587,5.13067 13.5,5.34933C 14.1307,6.24 14.5,7.328 14.5,8.5C 14.5,9.672 14.1307,10.76 13.5,11.6507C 13.9587,11.8693 14.4587,12 15,12 Z "/>
</svg>
