<?xml version="1.0" encoding="utf-8"?>
<!DOCTYPE svg PUBLIC "-//W3C//DTD SVG 1.1//EN" "http://www.w3.org/Graphics/SVG/1.1/DTD/svg11.dtd">
<svg xmlns="http://www.w3.org/2000/svg" xmlns:xlink="http://www.w3.org/1999/xlink" version="1.1" baseProfile="full" width="24" height="24" viewBox="0 0 24.00 24.00" enable-background="new 0 0 24.00 24.00" xml:space="preserve">
	<path fill="#000000" fill-opacity="1" stroke-linejoin="round" d="M 13,12C 14.932,12 16.5,10.432 16.5,8.5C 16.5,6.568 14.932,5 13,5C 11.068,5 9.5,6.568 9.5,8.5C 9.5,10.432 11.068,12 13,12 Z M 13,7C 13.828,7 14.5,7.672 14.5,8.5C 14.5,9.328 13.828,10 13,10C 12.172,10 11.5,9.328 11.5,8.5C 11.5,7.672 12.172,7 13,7 Z M 17.26,11.9733C 18.036,11.0267 18.5,9.81733 18.5,8.5C 18.5,7.18267 18.036,5.97333 17.26,5.02667C 17.344,5.02133 17.416,5 17.5,5C 19.432,5 21,6.568 21,8.5C 21,10.432 19.432,12 17.5,12C 17.416,12 17.344,11.9787 17.26,11.9733 Z M 5,13L 5,16L 3,16L 3,13L 5.08626e-006,13L 5.08626e-006,11L 3,11L 3,8L 5,8L 5,11L 8,11L 8,13M 24,17.2507L 24,19L 20.9587,19L 20.9587,17.2507C 20.9587,15.7707 20.1613,14.6507 19,13.812C 21.4587,14.0787 24,15.2293 24,17.2507 Z M 13,13.7493C 10.6613,13.7493 7,14.9213 7,17.2507L 7,19L 19,19L 19,17.2507C 19,14.9213 15.3387,13.7493 13,13.7493 Z M 9.33867,17C 10.1827,16.4213 11.208,15.7493 13,15.7493C 14.792,15.7493 15.8173,16.4213 16.6613,17"/>
</svg>
