<?xml version="1.0" encoding="utf-8"?>
<!DOCTYPE svg PUBLIC "-//W3C//DTD SVG 1.1//EN" "http://www.w3.org/Graphics/SVG/1.1/DTD/svg11.dtd">
<svg xmlns="http://www.w3.org/2000/svg" xmlns:xlink="http://www.w3.org/1999/xlink" version="1.1" baseProfile="full" width="24" height="24" viewBox="0 0 24.00 24.00" enable-background="new 0 0 24.00 24.00" xml:space="preserve">
	<path fill="#000000" fill-opacity="1" stroke-width="1.33333" stroke-linejoin="miter" d="M 17.5236,15.6132C 17.3254,15.3749 9.53231,5.40398 9.26897,5.07556C 9.00563,4.74513 9.08173,4.649 9.12779,4.59393C 9.21791,4.4898 9.36209,4.49781 9.92983,4.4938C 10.2603,4.4918 13.5866,4.47578 13.938,4.47378C 14.6649,4.47178 14.7751,4.53085 14.8522,4.55789C 14.9293,4.58492 15.1255,4.74513 15.2607,4.91535C 15.3338,5.00747 22.3188,13.3593 22.3929,13.4474C 22.464,13.5355 22.5892,13.6947 22.6743,13.8409C 22.7604,13.9861 22.7684,14.1813 22.6392,14.2514C 22.5551,14.2965 18.6951,15.8925 18.587,15.9346C 18.4769,15.9776 18.2726,16.0627 18.1094,16.0387C 18.0073,16.0217 17.774,15.9176 17.5236,15.6132M 21.4677,15.4219L 21.7511,15.473C 21.7511,15.473 22.6753,15.6522 22.7734,15.6732C 22.8695,15.6933 22.9567,15.7634 22.9526,15.7934C 22.9446,15.8725 22.8976,15.9055 22.8325,15.9546C 22.7654,16.0037 18.576,18.577 18.5039,18.6201C 18.4328,18.6631 18.3287,18.7182 18.1084,18.7482C 17.6979,18.8303 16.9088,18.611 16.6615,18.561C 16.4142,18.5099 6.15395,16.227 6.06283,16.1959C 5.97071,16.1669 5.90963,16.1609 5.90363,16.0758C 5.89161,15.9366 6.10989,15.8815 6.28312,15.8144C 6.45634,15.7473 11.2846,14.0041 11.4518,13.931C 11.619,13.8579 11.8433,13.8389 11.9494,13.8309C 12.0556,13.8249 12.7314,13.931 13.0348,13.972C 13.3392,14.0131 14.1983,14.1513 14.1983,14.1513L 16.1619,16.6956C 16.5023,17.0871 16.7246,17.2503 17.015,17.2773C 17.1542,17.2893 17.3134,17.2483 17.4235,17.1982C 17.5106,17.1562 21.4677,15.4219 21.4677,15.4219M 10.2522,9.18386L 11.9564,11.3677L 12.0155,11.4468L 12.0155,11.4858C 11.9564,11.5389 8.93054,14.3245 8.90951,14.3505L 5.72439,15.512C 5.72439,15.512 5.63228,15.5491 5.58321,15.5811C 5.53415,15.6142 5.46506,15.6732 5.48308,15.8174C 5.48909,15.8685 5.50311,16.5944 5.4961,16.7867L 1.55601,18.0353C 1.36877,18.1024 0.993283,18.2255 0.954233,18.1945C 0.879136,18.1354 0.974259,18.0293 1.01331,17.9742C 1.05636,17.9131 9.07773,10.0199 9.38813,9.69953C 9.83971,9.23893 10.2522,9.18386 10.2522,9.18386"/>
</svg>
