<?xml version="1.0" encoding="utf-8"?>
<!DOCTYPE svg PUBLIC "-//W3C//DTD SVG 1.1//EN" "http://www.w3.org/Graphics/SVG/1.1/DTD/svg11.dtd">
<svg xmlns="http://www.w3.org/2000/svg" xmlns:xlink="http://www.w3.org/1999/xlink" version="1.1" baseProfile="full" width="24" height="24" viewBox="0 0 24.00 24.00" enable-background="new 0 0 24.00 24.00" xml:space="preserve">
	<path fill="#000000" fill-opacity="1" stroke-linejoin="round" d="M 9,9C 9.55228,9 10,9.44772 10,10C 10,10.5523 9.55228,11 9,11C 8.44771,11 8,10.5523 8,10C 8,9.44772 8.44772,9 9,9 Z M 5,2C 7,3 20,10.25 20,10.25C 20,10.25 21.4583,11.0625 21.25,12.25C 21.0875,13.1759 19.5,14 19.5,14L 10.5,19C 10.5,19 8,20 8,18L 8,13C 8,13 8,12 9,12C 10,12 10,13 10,13L 10,16.5L 16.5,13C 16.5,13 17.3125,12.6458 17.3125,12.1458C 17.3125,11.6458 16,11 16,11L 6,5C 6,5 4.5,4.00001 4.5,6.00001L 4.5,18C 4.5,18 4.52954,19.4164 5.45833,18.9375C 6.79167,18.25 7.10522,18.4263 7.4375,19.1042C 7.95833,20.1667 6.95833,20.7083 6.95833,20.7083L 4,22.25C 4,22.25 2,23 2,21L 2,4C 2,1.00001 5,2.00001 5,2 Z "/>
</svg>
