<?xml version="1.0" encoding="utf-8"?>
<!DOCTYPE svg PUBLIC "-//W3C//DTD SVG 1.1//EN" "http://www.w3.org/Graphics/SVG/1.1/DTD/svg11.dtd">
<svg xmlns="http://www.w3.org/2000/svg" xmlns:xlink="http://www.w3.org/1999/xlink" version="1.1" baseProfile="full" width="24" height="24" viewBox="0 0 24.00 24.00" enable-background="new 0 0 24.00 24.00" xml:space="preserve">
	<path fill="#000000" fill-opacity="1" stroke-width="1.33333" stroke-linejoin="miter" d="M 19,18.306L 19,20.004C 19,21.102 18.102,22 17.004,22L 6.996,22C 5.898,22 5,21.102 5,20.004L 5,16.303C 4.541,16.119 3.954,16 3,16C 2.448,16 2,15.553 2,15C 2,14.447 2.448,14 3,14C 3.824,14 4.47,14.081 5,14.208L 5,12.303C 4.541,12.119 3.954,12 3,12C 2.448,12 2,11.552 2,11C 2,10.448 2.448,10 3,10C 3.824,10 4.47,10.081 5,10.208L 5,8.303C 4.541,8.119 3.954,8 3,8C 2.448,8 2,7.552 2,7C 2,6.448 2.448,6 3,6C 3.824,6 4.47,6.081 5,6.208L 5,3.996C 5,2.898 5.898,2 6.996,2L 17.004,2C 18.102,2 19,2.898 19,3.996L 19,6.162C 20.78,6.47 21.543,7.129 21.707,7.293C 22.098,7.684 22.098,8.316 21.707,8.707C 21.316,9.098 20.797,9.094 20.293,8.707L 20.293,8.707C 20.29,8.708 19.254,8 17.001,8C 15.737,8 14.908,8.415 13.948,8.895C 12.911,9.413 11.736,10 10,10C 9.639,10 9.312,9.982 9,9.959L 9,7.95C 9.302,7.979 9.627,8 10,8C 11.264,8 12.094,7.585 13.054,7.105C 14.091,6.587 15.265,6 17,6L 17,4L 6.996,4L 7,20.004L 17.004,20L 17.004,18C 18.517,18 18.971,18.288 19,18.306 Z M 17.001,10C 15.266,10 14.091,10.587 13.054,11.105C 12.094,11.585 11.264,12 10,12C 9.627,12 9.302,11.979 9,11.95L 9,13.958C 9.312,13.982 9.639,14 10,14C 11.736,14 12.911,13.413 13.948,12.895C 14.908,12.415 15.737,12 17.001,12C 19.254,12 20.29,12.708 20.293,12.708L 20.293,12.708C 20.797,13.095 21.316,13.099 21.707,12.708C 22.098,12.317 22.098,11.685 21.707,11.294C 21.491,11.077 20.25,10 17.001,10 Z M 17.001,14C 15.266,14 14.091,14.587 13.054,15.105C 12.094,15.585 11.264,16 10,16C 9.627,16 9.302,15.979 9,15.95L 9,17.958C 9.312,17.982 9.639,18 10,18C 11.736,18 12.911,17.413 13.948,16.895C 14.908,16.415 15.737,16 17.001,16C 19.254,16 20.29,16.708 20.293,16.708L 20.293,16.708C 20.797,17.095 21.316,17.099 21.707,16.708C 22.098,16.317 22.098,15.685 21.707,15.294C 21.491,15.077 20.25,14 17.001,14 Z "/>
</svg>
