<?xml version="1.0" encoding="utf-8"?>
<!DOCTYPE svg PUBLIC "-//W3C//DTD SVG 1.1//EN" "http://www.w3.org/Graphics/SVG/1.1/DTD/svg11.dtd">
<svg xmlns="http://www.w3.org/2000/svg" xmlns:xlink="http://www.w3.org/1999/xlink" version="1.1" baseProfile="full" width="24" height="24" viewBox="0 0 24.00 24.00" enable-background="new 0 0 24.00 24.00" xml:space="preserve">
	<path fill="#000000" fill-opacity="1" stroke-width="1.33333" stroke-linejoin="miter" d="M 19,2.8L 19,6L 19,9.2C 19,9.5 18.7,9.8 18.4,9.7C 18.4,9.7 14.5,7.1 10,7.1L 10,9.5L 10.2,9.5C 10.7,9.5 11.2,9.7 11.4,10.1L 12.7,11.9C 12.9,12.1 13,12.4 13,12.6L 13,20.6C 13,21.3 12.3,22 11.5,22L 6.5,22C 5.7,22 5,21.4 5,20.6L 5,12.6C 5,12.3 5.1,12.1 5.3,11.9L 6.6,10.1C 6.9,9.7 7.3,9.5 7.8,9.5L 8,9.5L 8,8C 7.6,8.5 7,8.8 6.4,8.8C 5.1,8.8 4,7.5 4,6C 4,4.5 5.1,3.2 6.4,3.2C 7,3.3 7.6,3.6 8,4L 8,2.6L 10,2.6L 10,5C 14.5,5 18.4,2.4 18.4,2.4C 18.7,2.3 19,2.5 19,2.8 Z "/>
</svg>
