<?xml version="1.0" encoding="utf-8"?>
<!DOCTYPE svg PUBLIC "-//W3C//DTD SVG 1.1//EN" "http://www.w3.org/Graphics/SVG/1.1/DTD/svg11.dtd">
<svg xmlns="http://www.w3.org/2000/svg" xmlns:xlink="http://www.w3.org/1999/xlink" version="1.1" baseProfile="full" width="24" height="24" viewBox="0 0 24.00 24.00" enable-background="new 0 0 24.00 24.00" xml:space="preserve">
	<path fill="#000000" fill-opacity="1" stroke-width="1.33333" stroke-linejoin="miter" d="M 11,9C 13.2091,9 15,10.7909 15,13C 15,15.2091 13.2091,17 11,17C 8.79086,17 7,15.2091 7,13C 7,10.7909 8.79086,9 11,9 Z M 11,11C 9.89543,11 9,11.8954 9,13C 9,14.1046 9.89543,15 11,15C 12.1046,15 13,14.1046 13,13C 13,11.8954 12.1046,11 11,11 Z M 6.99999,4.00002L 14,4.00002C 16.2091,4.00002 18,5.79088 18,8.00002L 18,9L 16,9L 16,8.00001C 16,6.89544 15.1046,6.00001 14,6.00001L 6.99999,6.00001C 5.89543,6.00001 5,6.89544 5,8.00001L 5,20L 16,20L 16,18L 18,18L 18,22L 3,22L 3,8.00002C 3,5.79088 4.79086,4.00002 6.99999,4.00002 Z M 16,11C 18.5,11 18.5,9.00001 21,9.00001L 21,11C 18.5,11 18.5,13 16,13L 16,11 Z M 16,15C 18.5,15 18.5,13 21,13L 21,15C 18.5,15 18.5,17 16,17L 16,15 Z "/>
</svg>
