<?xml version="1.0" encoding="utf-8"?>
<!DOCTYPE svg PUBLIC "-//W3C//DTD SVG 1.1//EN" "http://www.w3.org/Graphics/SVG/1.1/DTD/svg11.dtd">
<svg xmlns="http://www.w3.org/2000/svg" xmlns:xlink="http://www.w3.org/1999/xlink" version="1.1" baseProfile="full" width="24" height="24" viewBox="0 0 24.00 24.00" enable-background="new 0 0 24.00 24.00" xml:space="preserve">
	<path fill="#000000" fill-opacity="1" stroke-linejoin="round" d="M 11,23C 9.89543,23 9,22.1046 9,21L 9,19L 15,19L 15,21C 15,22.1046 14.1046,23 13,23L 11,23 Z M 12,1C 12.7069,1 13.3924,1.09169 14.0452,1.26382C 15.2158,2.83393 16,5.71092 16,9C 16,11.2825 15.6224,13.3666 15,16C 15,17.1046 14.1046,18 13,18L 11,18C 9.89543,18 9,17.1046 9,16C 8.37764,13.3666 8,11.2825 8,9C 8,5.71093 8.78415,2.83393 9.95476,1.26382C 10.6076,1.09169 11.2931,1 12,1 Z M 20,8.00001C 20,11.1779 18.1471,15.923 15.4627,17.2138C 16.4102,15.3941 17,11.8348 17,9C 17,6.16522 16.4102,3.60593 15.4627,1.78618C 18.1471,3.07705 20,4.82215 20,8.00001 Z M 4,8.00001C 4,4.82215 5.85292,3.07705 8.5373,1.78618C 7.58977,3.60593 7,6.16522 7,9C 7,11.8348 7.58977,15.3941 8.53731,17.2138C 5.85291,15.923 4,11.1779 4,8.00001 Z "/>
</svg>
