<?xml version="1.0" encoding="utf-8"?>
<!DOCTYPE svg PUBLIC "-//W3C//DTD SVG 1.1//EN" "http://www.w3.org/Graphics/SVG/1.1/DTD/svg11.dtd">
<svg xmlns="http://www.w3.org/2000/svg" xmlns:xlink="http://www.w3.org/1999/xlink" version="1.1" baseProfile="full" width="24" height="24" viewBox="0 0 24.00 24.00" enable-background="new 0 0 24.00 24.00" xml:space="preserve">
	<path fill="#000000" fill-opacity="1" stroke-width="1.33333" stroke-linejoin="miter" d="M 14,8C 14,10.761 11.761,13 9,13C 6.239,13 4,10.761 4,8C 4,5.239 6.239,3 9,3C 11.761,3 14,5.239 14,8 Z M 10.462,15.551L 12.982,18.031L 10.982,18.047L 7.51,21.575L 6,20.087L 10.462,15.551M 16.984,2C 18.084,1.991 18.992,2.884 19,3.984C 19.008,5.084 18.116,5.992 17.016,6C 15.916,6.009 15.008,5.116 15,4.016C 14.993,2.916 15.885,2.008 16.984,2M 14.414,15L 11.586,15L 17.293,20.707L 18.707,19.293L 14.414,15 Z M 15.121,14.292L 19.414,18.585L 19.625,18.796C 19.858,18.417 20,17.975 20,17.5L 20,9.5C 20,8.125 18.875,7 17.5,7C 16.125,7 15,8.125 15,9.5L 15,14.172L 15.121,14.292 Z "/>
</svg>
