<?xml version="1.0" encoding="utf-8"?>
<!DOCTYPE svg PUBLIC "-//W3C//DTD SVG 1.1//EN" "http://www.w3.org/Graphics/SVG/1.1/DTD/svg11.dtd">
<svg xmlns="http://www.w3.org/2000/svg" xmlns:xlink="http://www.w3.org/1999/xlink" version="1.1" baseProfile="full" width="24" height="24" viewBox="0 0 24.00 24.00" enable-background="new 0 0 24.00 24.00" xml:space="preserve">
	<path fill="#000000" fill-opacity="1" stroke-width="0.2" stroke-linejoin="round" d="M 3.1464,5.27132L 8.1324,10.2573L 2.1464,13.9983L 2.1464,15.9983L 10.1464,13.4983L 10.1464,18.9983L 8.1464,20.4983L 8.1464,21.9983L 11.6464,20.9983L 15.1464,21.9983L 15.1464,20.4983L 13.1464,18.9983L 13.1464,15.2713L 18.8734,20.9983L 20.1454,19.7253L 4.4194,3.99834M 13.1464,8.99834L 13.1464,3.49834C 13.1464,2.66933 12.4744,1.99834 11.6464,1.99834C 10.8184,1.99834 10.1464,2.66933 10.1464,3.49834L 10.1464,7.18032L 17.9734,15.0063L 21.1464,15.9983L 21.1464,13.9983L 13.1464,8.99834 Z "/>
</svg>
