<?xml version="1.0" encoding="utf-8"?>
<!DOCTYPE svg PUBLIC "-//W3C//DTD SVG 1.1//EN" "http://www.w3.org/Graphics/SVG/1.1/DTD/svg11.dtd">
<svg xmlns="http://www.w3.org/2000/svg" xmlns:xlink="http://www.w3.org/1999/xlink" version="1.1" baseProfile="full" width="24" height="24" viewBox="0 0 24.00 24.00" enable-background="new 0 0 24.00 24.00" xml:space="preserve">
	<g>
		<defs>
			<rect id="SVG_CLIPPER1_" x="1.27157e-006" y="0" width="24" height="24"/>
		</defs>
		<clipPath id="SVG_CLIPPER2_">
			<use xlink:href="#SVG_CLIPPER1_" overflow="visible"/>
		</clipPath>
		<g clip-path="url(#SVG_CLIPPER2_)">
			<path fill="#000000" fill-opacity="1" stroke-width="1.33333" stroke-linejoin="miter" d="M 2.5,19L 21.5,19L 21.5,21L 2.5,21L 2.5,19 Z M 22.07,9.64C 21.86,8.84 21.03,8.36 20.23,8.58L 14.92,10L 8.02,3.57L 6.09,4.08L 10.23,11.25L 5.26,12.58L 3.29,11.04L 1.84,11.43L 3.66,14.59L 4.43,15.92L 6.03,15.49L 11.34,14.07L 15.69,12.91L 21,11.49C 21.81,11.26 22.28,10.44 22.07,9.64 Z "/>
		</g>
	</g>
	<g>
		<defs>
			<rect id="SVG_CLIPPER3_" x="1.27157e-006" y="0" width="24" height="24"/>
		</defs>
		<clipPath id="SVG_CLIPPER4_">
			<use xlink:href="#SVG_CLIPPER3_" overflow="visible"/>
		</clipPath>
		<g clip-path="url(#SVG_CLIPPER4_)"/>
	</g>
</svg>
