<?xml version="1.0" encoding="utf-8"?>
<!DOCTYPE svg PUBLIC "-//W3C//DTD SVG 1.1//EN" "http://www.w3.org/Graphics/SVG/1.1/DTD/svg11.dtd">
<svg xmlns="http://www.w3.org/2000/svg" xmlns:xlink="http://www.w3.org/1999/xlink" version="1.1" baseProfile="full" width="24" height="24" viewBox="0 0 24.00 24.00" enable-background="new 0 0 24.00 24.00" xml:space="preserve">
	<path fill="#000000" fill-opacity="1" stroke-width="0.2" stroke-linejoin="round" d="M 9.292,3.25101L 5.161,6.71622L 4,5.339L 8.14,1.87401L 9.292,3.25101 Z M 22,5.34801L 20.839,6.72501L 16.699,3.25101L 17.86,1.87401L 22,5.34801 Z M 13,4.00001C 17.4183,4.00001 21,7.58173 21,12C 21,16.4183 17.4183,20 13,20C 8.58172,20 5,16.4183 5,12C 5,7.58173 8.58172,4.00001 13,4.00001 Z M 13,6.00001C 9.68629,6.00001 7,8.6863 7,12C 7,15.3137 9.68629,18 13,18C 16.3137,18 19,15.3137 19,12C 19,8.6863 16.3137,6.00001 13,6.00001 Z M 12,7.5L 13.5,7.5L 13.5,12.0344L 16.7172,13.4977L 16.0962,14.8631L 12,13L 12,7.5 Z M 1.00001,14C 1.00001,11.5159 2.13225,9.29616 3.90883,7.82882C 3.32536,9.09841 3.00002,10.5112 3.00002,12L 3.06292,13.1279L 3,14C 3,16.2779 4.26942,18.2594 6.13944,19.2755C 7.44123,20.5035 9.0725,21.3859 10.8867,21.7763C 10.2817,21.9225 9.6499,22 9,22C 4.58172,22 1.00001,18.4183 1.00001,14 Z "/>
</svg>
