<?xml version="1.0" encoding="utf-8"?>
<!DOCTYPE svg PUBLIC "-//W3C//DTD SVG 1.1//EN" "http://www.w3.org/Graphics/SVG/1.1/DTD/svg11.dtd">
<svg xmlns="http://www.w3.org/2000/svg" xmlns:xlink="http://www.w3.org/1999/xlink" version="1.1" baseProfile="full" width="24" height="24" viewBox="0 0 24.00 24.00" enable-background="new 0 0 24.00 24.00" xml:space="preserve">
	<path fill="#000000" fill-opacity="1" stroke-width="1.33333" stroke-linejoin="miter" d="M 15,18.66L 15,22L 5,22L 5,18.66C 8.09401,20.4463 11.906,20.4463 15,18.66 Z M 22,4C 22,2.8954 21.1046,2 20,2C 19.6939,1.9969 19.3917,2.069 19.12,2.21C 18.8169,2.356 18.5555,2.5761 18.36,2.85C 17.7249,3.7537 17.9426,5.0012 18.8463,5.6363C 19.1841,5.8737 19.5871,6.0008 20,6C 20.0797,6.0096 20.1603,6.0096 20.24,6C 21.9717,10.4261 20.6649,15.4638 17,18.49C 16.6817,18.7533 16.3478,18.9971 16,19.22L 16,21L 17,21L 17,19.74C 20.1369,17.4871 21.9978,13.8621 22,10C 22.0039,8.5005 21.7222,7.0141 21.17,5.62C 21.6906,5.2445 21.9993,4.6419 22,4 Z M 18,10C 18,14.4183 14.4183,18 10,18C 5.58172,18 2,14.4183 2,10C 2,5.5817 5.58172,2 10,2C 14.4183,2 18,5.5817 18,10 Z "/>
</svg>
