<?xml version="1.0" encoding="utf-8"?>
<!DOCTYPE svg PUBLIC "-//W3C//DTD SVG 1.1//EN" "http://www.w3.org/Graphics/SVG/1.1/DTD/svg11.dtd">
<svg xmlns="http://www.w3.org/2000/svg" xmlns:xlink="http://www.w3.org/1999/xlink" version="1.1" baseProfile="full" width="24" height="24" viewBox="0 0 24.00 24.00" enable-background="new 0 0 24.00 24.00" xml:space="preserve">
	<path fill="#000000" fill-opacity="1" stroke-width="1.33333" stroke-linejoin="miter" d="M 19,13L 19,15.8L 20,16.8L 20,15L 23,15L 23,13L 19,13 Z M 2.38,1.73L 1.11,3L 3,4.88L 2,5.71L 3.29,7.24L 4.41,6.3L 5.21,7.1C 1.95152,10.8535 2.35281,16.5378 6.10632,19.7963C 7.74175,21.2161 9.83429,21.9985 12,22C 12.3342,22.0002 12.6682,21.9802 13,21.94L 13,19.94C 12.6692,19.9905 12.3345,20.0106 12,20C 8.13401,20 5,16.866 5,13C 4.99555,11.3607 5.57319,9.7731 6.63,8.52L 11.41,13.3L 7.5,15.62L 8.25,16.85L 12.44,14.33L 16.38,18.27C 15.1428,18.883 14.6368,20.3828 15.2497,21.62C 15.8627,22.8572 17.3625,23.3632 18.5997,22.7503C 19.09,22.5073 19.4871,22.1103 19.73,21.62L 20.84,22.73L 22.11,21.46L 2.38,1.73 Z M 12,6C 15.0963,5.9992 17.8253,8.0327 18.71,11L 20.78,11C 19.8462,6.9032 16.2019,3.9976 12,4C 10.6481,3.9965 9.31361,4.3044 8.1,4.9L 9.62,6.42C 10.3826,6.1415 11.1882,5.9993 12,6 Z M 11.5,8.3L 13,9.8L 13,8L 11.5,8L 11.5,8.3 Z M 7.88,3.39L 6.6,1.86L 5.76,2.56L 7.18,4L 7.88,3.39 Z M 17.4,1.86L 16.11,3.39L 20.71,7.25L 22,5.72L 17.4,1.86 Z "/>
</svg>
