<?xml version="1.0" encoding="utf-8"?>
<!DOCTYPE svg PUBLIC "-//W3C//DTD SVG 1.1//EN" "http://www.w3.org/Graphics/SVG/1.1/DTD/svg11.dtd">
<svg xmlns="http://www.w3.org/2000/svg" xmlns:xlink="http://www.w3.org/1999/xlink" version="1.1" baseProfile="full" width="24" height="24" viewBox="0 0 24.00 24.00" enable-background="new 0 0 24.00 24.00" xml:space="preserve">
	<path fill="#000000" fill-opacity="1" stroke-width="1.33333" stroke-linejoin="miter" d="M 6,6.9L 3.87,4.78L 5.28,3.37L 7.4,5.49L 6,6.9 Z M 13,1.00001L 13,4.00001L 11,4.00001L 11,1.00001L 13,1.00001 Z M 20.13,4.78001L 18,6.90001L 16.6,5.49001L 18.72,3.37001L 20.13,4.78001 Z M 4.5,10.5L 4.5,12.5L 1.5,12.5L 1.5,10.5L 4.5,10.5 Z M 19.5,10.5L 22.5,10.5L 22.5,12.5L 19.5,12.5L 19.5,10.5 Z M 6,20L 18,20C 19.1046,20 20,20.8954 20,22L 4.00001,22C 4.00001,20.8954 4.89544,20 6,20 Z M 12,5.00007C 15.3137,5.00007 17.9999,7.68635 17.9999,11L 17.9999,19L 5.99999,19L 5.99999,11C 5.99999,7.68635 8.68627,5.00007 12,5.00007 Z "/>
</svg>
