<?xml version="1.0" encoding="utf-8"?>
<!DOCTYPE svg PUBLIC "-//W3C//DTD SVG 1.1//EN" "http://www.w3.org/Graphics/SVG/1.1/DTD/svg11.dtd">
<svg xmlns="http://www.w3.org/2000/svg" xmlns:xlink="http://www.w3.org/1999/xlink" version="1.1" baseProfile="full" width="24" height="24" viewBox="0 0 24.00 24.00" enable-background="new 0 0 24.00 24.00" xml:space="preserve">
	<path fill="#000000" fill-opacity="1" stroke-width="1.33333" stroke-linejoin="miter" d="M 17.4,1.86L 16.11,3.39L 20.71,7.25L 22,5.72L 17.4,1.86 Z M 6.6,1.86L 2,5.71L 3.29,7.24L 7.88,3.39L 6.6,1.86 Z M 12,4C 7.02944,4 3,8.0294 3,13C 3,17.9706 7.02944,22 12,22C 12.3342,22.0002 12.6682,21.9802 13,21.94L 13,19.94C 12.6692,19.9905 12.3345,20.0106 12,20C 8.13401,19.999 5.0008,16.8642 5.0018,12.9982C 5.00279,9.1322 8.1376,5.999 12.0036,6C 15.0986,6.0008 17.8257,8.034 18.71,11L 20.78,11C 19.8462,6.9032 16.2019,3.9976 12,4 Z M 23,15L 20,15L 20,20.5C 20,21.8807 18.8807,23 17.5,23C 16.1193,23 15,21.8807 15,20.5C 15,19.1193 16.1193,18 17.5,18C 18.0409,18 18.5673,18.1754 19,18.5L 19,13L 23,13L 23,15M 11.5,8L 11.5,13.25L 7.5,15.62L 8.25,16.85L 13,14L 13,8L 11.5,8 Z "/>
</svg>
