<?xml version="1.0" encoding="utf-8"?>
<!DOCTYPE svg PUBLIC "-//W3C//DTD SVG 1.1//EN" "http://www.w3.org/Graphics/SVG/1.1/DTD/svg11.dtd">
<svg xmlns="http://www.w3.org/2000/svg" xmlns:xlink="http://www.w3.org/1999/xlink" version="1.1" baseProfile="full" width="24" height="24" viewBox="0 0 24.00 24.00" enable-background="new 0 0 24.00 24.00" xml:space="preserve">
	<path fill="#000000" fill-opacity="1" stroke-linejoin="round" d="M 12,11C 11.45,11 11,11.45 11,12C 11,12.55 11.45,13 12,13C 12.55,13 13,12.55 13,12C 13,11.45 12.55,11 12,11 Z M 12,16.5C 9.51,16.5 7.5,14.49 7.5,12C 7.5,9.51 9.51,7.5 12,7.5C 14.49,7.5 16.5,9.51 16.5,12C 16.5,14.49 14.49,16.5 12,16.5 Z M 12,2C 6.48,2 2,6.48 2,12C 2,17.52 6.48,22 12,22C 17.52,22 22,17.52 22,12C 22,6.48 17.52,2 12,2 Z "/>
</svg>
