<?xml version="1.0" encoding="utf-8"?>
<!DOCTYPE svg PUBLIC "-//W3C//DTD SVG 1.1//EN" "http://www.w3.org/Graphics/SVG/1.1/DTD/svg11.dtd">
<svg xmlns="http://www.w3.org/2000/svg" xmlns:xlink="http://www.w3.org/1999/xlink" version="1.1" baseProfile="full" width="24" height="24" viewBox="0 0 24.00 24.00" enable-background="new 0 0 24.00 24.00" xml:space="preserve">
	<path fill="#000000" fill-opacity="1" stroke-width="1.33333" stroke-linejoin="miter" d="M 23,12L 20.56,14.78L 20.9,18.46L 17.29,19.28L 15.4,22.46L 12,21L 8.6,22.47L 6.71,19.29L 3.1,18.47L 3.44,14.78L 1,12L 3.44,9.21L 3.1,5.53L 6.71,4.72L 8.6,1.54L 12,3L 15.4,1.54L 17.29,4.72L 20.9,5.54L 20.56,9.22L 23,12M 20.33,12L 18.5,9.89L 18.74,7.1L 16,6.5L 14.58,4.07L 12,5.18L 9.42,4.07L 8,6.5L 5.26,7.09L 5.5,9.88L 3.67,12L 5.5,14.1L 5.26,16.9L 8,17.5L 9.42,19.93L 12,18.81L 14.58,19.92L 16,17.5L 18.74,16.89L 18.5,14.1L 20.33,12 Z M 11,15L 13,15L 13,17L 11,17L 11,15M 11,7L 13,7L 13,13L 11,13L 11,7"/>
</svg>
