<?xml version="1.0" encoding="utf-8"?>
<!DOCTYPE svg PUBLIC "-//W3C//DTD SVG 1.1//EN" "http://www.w3.org/Graphics/SVG/1.1/DTD/svg11.dtd">
<svg xmlns="http://www.w3.org/2000/svg" xmlns:xlink="http://www.w3.org/1999/xlink" version="1.1" baseProfile="full" width="24" height="24" viewBox="0 0 24.00 24.00" enable-background="new 0 0 24.00 24.00" xml:space="preserve">
	<path fill="#000000" fill-opacity="1" stroke-linejoin="round" d="M 12,3C 16.9706,3 21,6.58172 21,11C 21,15.4183 15,21 12,21C 9,21 3,15.4183 3,11C 3,6.58172 7.02944,3 12,3 Z M 10.3104,10.9284C 9.28607,9.28911 7.46679,8.57815 6.24693,9.34041C 5.02707,10.1027 4.86856,12.0495 5.89289,13.6888C 6.91722,15.328 8.7365,16.039 9.95636,15.2767C 11.1762,14.5145 11.3347,12.5677 10.3104,10.9284 Z M 13.6896,10.9284C 12.6653,12.5677 12.8238,14.5145 14.0436,15.2767C 15.2635,16.039 17.0828,15.328 18.1071,13.6888C 19.1314,12.0495 18.9729,10.1027 17.7531,9.3404C 16.5332,8.57815 14.7139,9.28911 13.6896,10.9284 Z M 12,17.75C 10.019,17.75 9.50815,17.0149 9.50004,17.0002C 9.50548,17.0256 10.0129,19 12,19C 13.998,19 14.5,17.004 14.5,17C 14.5,17.0028 13.9972,17.75 12,17.75 Z "/>
</svg>
