<?xml version="1.0" encoding="utf-8"?>
<!DOCTYPE svg PUBLIC "-//W3C//DTD SVG 1.1//EN" "http://www.w3.org/Graphics/SVG/1.1/DTD/svg11.dtd">
<svg xmlns="http://www.w3.org/2000/svg" xmlns:xlink="http://www.w3.org/1999/xlink" version="1.1" baseProfile="full" width="24" height="24" viewBox="0 0 24.00 24.00" enable-background="new 0 0 24.00 24.00" xml:space="preserve">
	<path fill="#000000" fill-opacity="1" stroke-width="1.33333" stroke-linejoin="miter" d="M 21.9844,12L 21.9844,21C 21.9844,21.5 21.7578,21.8203 21.3047,21.9609C 20.8516,22.1016 20.4844,21.9687 20.2031,21.5625L 18.6563,19.4531C 16.7813,21.1406 14.5625,21.9844 12,21.9844C 9.25,21.9844 6.89844,21.0078 4.94531,19.0547C 2.99219,17.1016 2.01563,14.75 2.01563,12C 2.01563,9.25 2.99219,6.8984 4.94531,4.9453C 6.89844,2.9922 9.25,2.0156 12,2.0156C 14.75,2.0156 17.1016,2.9922 19.0547,4.9453C 21.0078,6.8984 21.9844,9.25 21.9844,12 Z "/>
</svg>
