<?xml version="1.0" encoding="utf-8"?>
<!DOCTYPE svg PUBLIC "-//W3C//DTD SVG 1.1//EN" "http://www.w3.org/Graphics/SVG/1.1/DTD/svg11.dtd">
<svg xmlns="http://www.w3.org/2000/svg" xmlns:xlink="http://www.w3.org/1999/xlink" version="1.1" baseProfile="full" width="24" height="24" viewBox="0 0 24.00 24.00" enable-background="new 0 0 24.00 24.00" xml:space="preserve">
	<path fill="#050708" fill-opacity="1" stroke-width="0.2" stroke-linejoin="round" d="M 15,10.5C 15,11.3 14.3,12 13.5,12C 14.3,12 15,12.7 15,13.5L 15,15C 15,16.1 14.1,17 13,17L 9,17L 9,7L 13,7C 14.1,7 15,7.9 15,9L 15,10.5 Z M 13,15L 13,13L 11,13L 11,15L 13,15 Z M 13,11L 13,9L 11,9L 11,11L 13,11 Z M 3,5C 3,3.896 3.894,3 5,3L 19,3C 20.1035,3 21,3.896 21,5L 21,19C 21,20.104 20.1035,21 19,21L 5,21C 3.894,21 3,20.104 3,19L 3,5 Z M 4.99999,5.00001L 4.99999,19L 19,19L 19,5.00001L 4.99999,5.00001 Z "/>
</svg>
