<?xml version="1.0" encoding="utf-8"?>
<!DOCTYPE svg PUBLIC "-//W3C//DTD SVG 1.1//EN" "http://www.w3.org/Graphics/SVG/1.1/DTD/svg11.dtd">
<svg xmlns="http://www.w3.org/2000/svg" xmlns:xlink="http://www.w3.org/1999/xlink" version="1.1" baseProfile="full" width="24" height="24" viewBox="0 0 24.00 24.00" enable-background="new 0 0 24.00 24.00" xml:space="preserve">
	<path fill="#050708" fill-opacity="1" stroke-width="0.2" stroke-linejoin="round" d="M 5,4L 19,4C 20.1046,4 21,4.89543 21,6L 21,20C 21,21.1046 20.1046,22 19,22L 5,22C 3.89543,22 3,21.1046 3,20L 3,6C 3,4.89543 3.89543,4 5,4 Z M 5,6.00001L 5,20L 19,20L 19,6.00001L 5,6.00001 Z M 11,7L 13,7C 14.1046,7 15,7.8954 15,9L 15,15C 15,16.1046 14.1046,17 13,17L 13,19L 11,19L 11,17C 9.89543,17 9,16.1046 9,15L 9,9C 9,7.8954 9.89543,7 11,7 Z M 11,9L 11,15L 13,15L 13,9L 11,9 Z "/>
</svg>
