<?xml version="1.0" encoding="utf-8"?>
<!DOCTYPE svg PUBLIC "-//W3C//DTD SVG 1.1//EN" "http://www.w3.org/Graphics/SVG/1.1/DTD/svg11.dtd">
<svg xmlns="http://www.w3.org/2000/svg" xmlns:xlink="http://www.w3.org/1999/xlink" version="1.1" baseProfile="full" width="24" height="24" viewBox="0 0 24.00 24.00" enable-background="new 0 0 24.00 24.00" xml:space="preserve">
	<path fill="#000000" fill-opacity="1" stroke-width="0.2" stroke-linejoin="round" d="M 11,7L 13,7C 14.1046,7 15,7.8954 15,9L 15,17L 13,17L 13,13L 11,13L 11,17L 9,17L 9,9C 9,7.8954 9.89543,7 11,7 Z M 11,9L 11,11L 13,11L 13,9L 11,9 Z M 12,20C 16.418,20 20,16.418 20,12C 20,7.58203 16.418,4.00003 12,4.00003C 7.58199,4.00003 4,7.58203 4,12C 4,16.418 7.58199,20 12,20 Z M 12,2.00003C 17.523,2.00003 22,6.47703 22,12C 22,17.523 17.523,22 12,22C 6.47699,22 2,17.523 2,12C 2,6.47703 6.47699,2.00003 12,2.00003 Z "/>
</svg>
