<?xml version="1.0" encoding="utf-8"?>
<!DOCTYPE svg PUBLIC "-//W3C//DTD SVG 1.1//EN" "http://www.w3.org/Graphics/SVG/1.1/DTD/svg11.dtd">
<svg xmlns="http://www.w3.org/2000/svg" xmlns:xlink="http://www.w3.org/1999/xlink" version="1.1" baseProfile="full" width="24" height="24" viewBox="0 0 24.00 24.00" enable-background="new 0 0 24.00 24.00" xml:space="preserve">
	<path fill="#000000" fill-opacity="1" stroke-width="0.2" stroke-linejoin="miter" d="M 3,5C 3,3.896 3.894,3 5,3L 19,3C 20.1035,3 21,3.896 21,5L 21,19C 21,20.104 20.1035,21 19,21L 5,21C 3.894,21 3,20.104 3,19L 3,5 Z M 4.99999,5.00001L 4.99999,19L 19,19L 19,5.00001L 4.99999,5.00001 Z M 11,7L 13,7C 14.1046,7 15,7.8954 15,9L 15,10L 13,10L 13,9L 11,9L 11,15L 13,15L 13,14L 15,14L 15,15C 15,16.1046 14.1046,17 13,17L 11,17C 9.89543,17 9,16.1046 9,15L 9,9C 9,7.8954 9.89543,7 11,7 Z "/>
</svg>
