<?xml version="1.0" encoding="utf-8"?>
<!DOCTYPE svg PUBLIC "-//W3C//DTD SVG 1.1//EN" "http://www.w3.org/Graphics/SVG/1.1/DTD/svg11.dtd">
<svg xmlns="http://www.w3.org/2000/svg" xmlns:xlink="http://www.w3.org/1999/xlink" version="1.1" baseProfile="full" width="24" height="24" viewBox="0 0 24.00 24.00" enable-background="new 0 0 24.00 24.00" xml:space="preserve">
	<path fill="#000000" fill-opacity="1" stroke-width="1.33333" stroke-linejoin="miter" d="M 14,22L 10,22L 10,21L 14,21L 14,22 Z M 13,10L 13,7L 11,7L 11,10L 10,11.5L 10,20L 14,20L 14,11.5L 13,10 Z M 12,2C 12,2 11,3 11,5L 11,6L 13,6L 13,5C 13,5 13,3 12,2 Z M 8,22L 4,22L 4,21L 8,21L 8,22 Z M 7,10L 7,7L 5,7L 5,10L 4,11.5L 4,20L 8,20L 8,11.5L 7,10 Z M 6,2C 6,2 5,3 5,5L 5,6L 7,6L 7,5C 7,5 7,3 6,2 Z M 20,22L 16,22L 16,21L 20,21L 20,22 Z M 19,10L 19,7L 17,7L 17,10L 16,11.5L 16,20L 20,20L 20,11.5L 19,10 Z M 18,2C 18,2 17,3 17,5L 17,6L 19,6L 19,5C 19,5 19,3 18,2 Z "/>
</svg>
