<?xml version="1.0" encoding="utf-8"?>
<!DOCTYPE svg PUBLIC "-//W3C//DTD SVG 1.1//EN" "http://www.w3.org/Graphics/SVG/1.1/DTD/svg11.dtd">
<svg xmlns="http://www.w3.org/2000/svg" xmlns:xlink="http://www.w3.org/1999/xlink" version="1.1" baseProfile="full" width="24" height="24" viewBox="0 0 24.00 24.00" enable-background="new 0 0 24.00 24.00" xml:space="preserve">
	<path fill="#000000" fill-opacity="1" stroke-width="1.33333" stroke-linejoin="miter" d="M 8,11.5C 7.30964,11.5 6.75,12.0596 6.75,12.75C 6.75,13.4404 7.30964,14 8,14C 8.69036,14 9.25,13.4404 9.25,12.75C 9.25,12.0596 8.69035,11.5 8,11.5 Z M 16,11.5C 15.3096,11.5 14.75,12.0596 14.75,12.75C 14.75,13.4404 15.3096,14 16,14C 16.6904,14 17.25,13.4404 17.25,12.75C 17.25,12.0596 16.6903,11.5 16,11.5 Z M 12,7.00001C 13.4903,7.00001 14.9045,7.32603 16.1751,7.91064L 18.3358,5.75001C 18.7263,5.35948 19.3595,5.35948 19.75,5.75001C 20.1405,6.14053 20.1405,6.7737 19.75,7.16422L 17.9513,8.96292C 20.4079,10.785 22,13.7066 22,17L 2,17C 2,13.7066 3.59213,10.785 6.0487,8.96292L 4.25,7.16422C 3.85947,6.77369 3.85947,6.14053 4.25,5.75001C 4.64052,5.35948 5.27369,5.35948 5.66421,5.75001L 7.82485,7.91064C 9.09546,7.32603 10.5097,7.00001 12,7.00001 Z "/>
</svg>
