<?xml version="1.0" encoding="utf-8"?>
<!DOCTYPE svg PUBLIC "-//W3C//DTD SVG 1.1//EN" "http://www.w3.org/Graphics/SVG/1.1/DTD/svg11.dtd">
<svg xmlns="http://www.w3.org/2000/svg" xmlns:xlink="http://www.w3.org/1999/xlink" version="1.1" baseProfile="full" width="24" height="24" viewBox="0 0 24.00 24.00" enable-background="new 0 0 24.00 24.00" xml:space="preserve">
	<path fill="#000000" fill-opacity="1" stroke-linejoin="round" d="M 20,20L 7,20C 5.89543,20 5,19.1046 5,18L 5,8.93924L 2.23395,5.64279C 2.08795,5.46897 2,5.24476 2,5C 2,4.44772 2.44772,4 3,4L 20,4C 21.1046,4 22,4.89543 22,6L 22,18C 22,19.1046 21.1046,20 20,20 Z M 8.5,7.00001C 8.22385,7.00001 8,7.22387 8,7.50001L 8,8.50001C 8,8.77615 8.22385,9.00001 8.5,9.00001L 18.5,9.00001C 18.7761,9.00001 19,8.77615 19,8.50001L 19,7.50001C 19,7.22387 18.7761,7.00001 18.5,7.00001L 8.5,7.00001 Z M 8.5,11C 8.22386,11 8,11.2239 8,11.5L 8,12.5C 8,12.7761 8.22386,13 8.5,13L 18.5,13C 18.7761,13 19,12.7761 19,12.5L 19,11.5C 19,11.2239 18.7761,11 18.5,11L 8.5,11 Z M 8.5,15C 8.22386,15 8,15.2239 8,15.5L 8,16.5C 8,16.7761 8.22386,17 8.5,17L 13.5,17C 13.7761,17 14,16.7761 14,16.5L 14,15.5C 14,15.2239 13.7761,15 13.5,15L 8.5,15 Z "/>
</svg>
