<?xml version="1.0" encoding="utf-8"?>
<!DOCTYPE svg PUBLIC "-//W3C//DTD SVG 1.1//EN" "http://www.w3.org/Graphics/SVG/1.1/DTD/svg11.dtd">
<svg xmlns="http://www.w3.org/2000/svg" xmlns:xlink="http://www.w3.org/1999/xlink" version="1.1" baseProfile="full" width="24" height="24" viewBox="0 0 24.00 24.00" enable-background="new 0 0 24.00 24.00" xml:space="preserve">
	<path fill="#000000" fill-opacity="1" stroke-width="1.33333" stroke-linejoin="miter" d="M 22.7813,17.9062C 22.9375,18.1562 23.0156,18.4219 23.0156,18.7031C 23.0156,19.0781 22.8672,19.3906 22.5703,19.6406C 22.2734,19.8906 21.9375,20.0156 21.5625,20.0156L 19.0781,20.0156L 12.4219,8.0156L 11.5781,8.0156L 4.92188,20.0156L 2.39063,20.0156C 1.92188,20.0156 1.53125,19.8047 1.21875,19.3828C 0.906251,18.9609 0.890626,18.5 1.17188,18L 10.7813,1.6875C 11.0938,1.2187 11.5,0.984398 12,0.984398C 12.5313,0.984398 12.9219,1.2187 13.1719,1.6875L 22.7813,17.9062 Z M 4.78125,22.3125L 12,9.375L 19.2188,22.3125L 18.5156,23.0156L 12,20.3437L 5.4375,23.0156L 4.78125,22.3125 Z "/>
</svg>
