<?xml version="1.0" encoding="utf-8"?>
<!DOCTYPE svg PUBLIC "-//W3C//DTD SVG 1.1//EN" "http://www.w3.org/Graphics/SVG/1.1/DTD/svg11.dtd">
<svg xmlns="http://www.w3.org/2000/svg" xmlns:xlink="http://www.w3.org/1999/xlink" version="1.1" baseProfile="full" width="24" height="24" viewBox="0 0 24.00 24.00" enable-background="new 0 0 24.00 24.00" xml:space="preserve">
	<path fill="#000000" fill-opacity="1" stroke-width="1.33333" stroke-linejoin="miter" d="M 4,2C 2.892,2 2,2.892 2,4L 2,14L 4,14L 4,4L 14,4L 14,2L 4,2 Z M 8,6C 6.892,6 6,6.892 6,8L 6,18L 8,18L 8,8L 18,8L 18,6L 8,6 Z M 12,10C 10.892,10 10,10.892 10,12L 10,20C 10,21.108 10.892,22 12,22L 20,22C 21.108,22 22,21.108 22,20L 22,12C 22,10.892 21.108,10 20,10L 12,10 Z "/>
</svg>
