<?xml version="1.0" encoding="utf-8"?>
<!DOCTYPE svg PUBLIC "-//W3C//DTD SVG 1.1//EN" "http://www.w3.org/Graphics/SVG/1.1/DTD/svg11.dtd">
<svg xmlns="http://www.w3.org/2000/svg" xmlns:xlink="http://www.w3.org/1999/xlink" version="1.1" baseProfile="full" width="24" height="24" viewBox="0 0 24.00 24.00" enable-background="new 0 0 24.00 24.00" xml:space="preserve">
	<path fill="#000000" fill-opacity="1" stroke-width="1.33333" stroke-linejoin="miter" d="M 5,3L 19,3C 20.1046,3 21,3.89543 21,5L 21,19C 21,20.1046 20.1046,21 19,21L 5,21C 3.89543,21 3,20.1046 3,19L 3,5C 3,3.89543 3.89543,3 5,3 Z M 6.984,6.984L 6.984,9L 9,9L 9,6.984L 6.984,6.984 Z M 11.016,6.984L 11.016,9L 12.984,9L 12.984,6.984L 11.016,6.984 Z M 15,6.984L 15,9L 17.016,9L 17.016,6.984L 15,6.984 Z M 6.984,11.016L 6.984,12.984L 9,12.984L 9,11.016L 6.984,11.016 Z M 11.016,11.016L 11.016,12.984L 12.984,12.984L 12.984,11.016L 11.016,11.016 Z M 15,11.016L 15,12.984L 17.016,12.984L 17.016,11.016L 15,11.016 Z M 6.984,15L 6.984,17.016L 9,17.016L 9,15L 6.984,15 Z M 11.016,15L 11.016,17.016L 12.984,17.016L 12.984,15L 11.016,15 Z M 15,15L 15,17.016L 17.016,17.016L 17.016,15L 15,15 Z "/>
</svg>
