<?xml version="1.0" encoding="utf-8"?>
<!DOCTYPE svg PUBLIC "-//W3C//DTD SVG 1.1//EN" "http://www.w3.org/Graphics/SVG/1.1/DTD/svg11.dtd">
<svg xmlns="http://www.w3.org/2000/svg" xmlns:xlink="http://www.w3.org/1999/xlink" version="1.1" baseProfile="full" width="24" height="24" viewBox="0 0 24.00 24.00" enable-background="new 0 0 24.00 24.00" xml:space="preserve">
	<path fill="#000000" fill-opacity="1" stroke-width="1.33333" stroke-linejoin="miter" d="M 11.9981,2C 11.1079,4.1825 10.571,5.6101 9.5799,7.7277C 10.1876,8.3718 10.9335,9.122 12.1448,9.9692C 10.8425,9.4333 9.95417,8.8953 9.29031,8.337C 8.02189,10.9837 6.03464,14.7539 2.00186,22C 5.17149,20.1701 7.62853,19.042 9.91837,18.6115C 9.82004,18.1886 9.76414,17.7312 9.76794,17.2538L 9.77174,17.1523C 9.82203,15.1216 10.8784,13.56 12.1298,13.666C 13.3811,13.7721 14.3538,15.5052 14.3035,17.5359C 14.294,17.918 14.251,18.2856 14.1757,18.6265C 16.4406,19.0696 18.8714,20.1949 21.9981,22C 21.3816,20.8649 20.8313,19.8417 20.3058,18.8672C 19.478,18.2256 18.6146,17.3906 16.8533,16.4866C 18.0639,16.8012 18.9307,17.1641 19.6063,17.5698C 14.2631,7.6217 13.8304,6.2999 11.9981,2 Z "/>
</svg>
