<?xml version="1.0" encoding="utf-8"?>
<!DOCTYPE svg PUBLIC "-//W3C//DTD SVG 1.1//EN" "http://www.w3.org/Graphics/SVG/1.1/DTD/svg11.dtd">
<svg xmlns="http://www.w3.org/2000/svg" xmlns:xlink="http://www.w3.org/1999/xlink" version="1.1" baseProfile="full" width="24" height="24" viewBox="0 0 24.00 24.00" enable-background="new 0 0 24.00 24.00" xml:space="preserve">
	<path fill="#000000" fill-opacity="1" stroke-width="0.2" stroke-linejoin="round" d="M 2,2L 11,2.00001L 11,11L 2,11L 2,2 Z M 9,4.00001L 4,4.00001L 4,9.00001L 9,9L 9,4.00001 Z M 22,13L 22,22L 13,22L 13,13L 22,13 Z M 15,20L 20,20L 20,15L 15,15L 15,20 Z M 16,8L 16,11L 13,11L 13,8L 16,8 Z M 11,16L 8,16L 8,13L 11,13L 11,16 Z "/>
</svg>
