<?xml version="1.0" encoding="utf-8"?>
<!DOCTYPE svg PUBLIC "-//W3C//DTD SVG 1.1//EN" "http://www.w3.org/Graphics/SVG/1.1/DTD/svg11.dtd">
<svg xmlns="http://www.w3.org/2000/svg" xmlns:xlink="http://www.w3.org/1999/xlink" version="1.1" baseProfile="full" width="24" height="24" viewBox="0 0 24.00 24.00" enable-background="new 0 0 24.00 24.00" xml:space="preserve">
	<path fill="#050708" fill-opacity="1" stroke-width="0.2" stroke-linejoin="round" d="M 17,12L 12,17L 12,14L 7.99998,14L 7.99998,9.99997L 12,9.99997L 12,6.99998L 17,12 Z M 2.99999,19L 2.99999,5.00001C 2.99999,3.89544 3.89542,3.00001 4.99999,3.00001L 19,3.00001C 20.1046,3.00001 21,3.89544 21,5.00001L 21,19C 21,20.1046 20.1046,21 19,21L 4.99999,21C 3.89542,21 2.99999,20.1046 2.99999,19 Z M 4.99999,19L 19,19L 19,5.00002L 4.99999,5.00002L 4.99999,19 Z "/>
</svg>
