<?xml version="1.0" encoding="utf-8"?>
<!DOCTYPE svg PUBLIC "-//W3C//DTD SVG 1.1//EN" "http://www.w3.org/Graphics/SVG/1.1/DTD/svg11.dtd">
<svg xmlns="http://www.w3.org/2000/svg" xmlns:xlink="http://www.w3.org/1999/xlink" version="1.1" baseProfile="full" width="24" height="24" viewBox="0 0 24.00 24.00" enable-background="new 0 0 24.00 24.00" xml:space="preserve">
	<g>
		<path fill="#000000" fill-opacity="1" stroke-width="1.33333" stroke-linejoin="miter" d="M 9.64,13.4C 8.62637,12.5243 7.33921,12.0292 6,12L 6,15L 2,11L 6,7L 6,10C 7.67496,10.0137 9.30003,10.5717 10.63,11.59C 10.2219,12.1472 9.88904,12.7558 9.64,13.4 Z M 18,15L 18,12C 17.52,12 13.52,12.16 13.05,16.2C 14.6121,16.7523 15.4307,18.4663 14.8784,20.0284C 14.3261,21.5905 12.6121,22.4091 11.05,21.8569C 9.4879,21.3046 8.66929,19.5905 9.22157,18.0284C 9.52363,17.1741 10.1957,16.5021 11.05,16.2C 11.3415,12.6101 14.4002,9.8815 18,10L 18,7L 22,11L 18,15 Z M 13,19C 13,18.4477 12.5523,18 12,18C 11.4477,18 11,18.4477 11,19C 11,19.5523 11.4477,20 12,20C 12.5523,20 13,19.5523 13,19 Z M 11,11.12C 11.5769,10.4583 12.2513,9.8885 13,9.43L 13,5L 16,5L 12,1L 8,5L 11,5L 11,11.12 Z "/>
	</g>
</svg>
