<?xml version="1.0" encoding="utf-8"?>
<!DOCTYPE svg PUBLIC "-//W3C//DTD SVG 1.1//EN" "http://www.w3.org/Graphics/SVG/1.1/DTD/svg11.dtd">
<svg xmlns="http://www.w3.org/2000/svg" xmlns:xlink="http://www.w3.org/1999/xlink" version="1.1" baseProfile="full" width="24" height="24" viewBox="0 0 24.00 24.00" enable-background="new 0 0 24.00 24.00" xml:space="preserve">
	<path fill="#000000" fill-opacity="1" stroke-width="0.2" stroke-linejoin="round" d="M 19.4926,3.09314L 20.9068,4.50735L 16.4142,9L 20,9L 20,11L 13,11L 13,4L 15,4L 15,7.58579L 19.4926,3.09314 Z M 20.9069,19.4927L 19.4926,20.9069L 15,16.4142L 15,20L 13,20L 13,13L 20,13L 20,15L 16.4142,15L 20.9069,19.4927 Z M 4.50737,3.09314L 9,7.58579L 9,4.00001L 11,4.00001L 11,11L 4,11L 4,9L 7.58579,9L 3.09316,4.50735L 4.50737,3.09314 Z M 3.09314,19.4927L 7.58578,15L 4,15L 4,13L 11,13L 11,20L 9,20L 9,16.4142L 4.50735,20.9069L 3.09314,19.4927 Z "/>
</svg>
