<?xml version="1.0" encoding="utf-8"?>
<!DOCTYPE svg PUBLIC "-//W3C//DTD SVG 1.1//EN" "http://www.w3.org/Graphics/SVG/1.1/DTD/svg11.dtd">
<svg xmlns="http://www.w3.org/2000/svg" xmlns:xlink="http://www.w3.org/1999/xlink" version="1.1" baseProfile="full" width="24" height="24" viewBox="0 0 24.00 24.00" enable-background="new 0 0 24.00 24.00" xml:space="preserve">
	<g>
		<path fill="#000000" fill-opacity="1" stroke-width="1.33333" stroke-linejoin="miter" d="M 19,15L 19,12C 18.52,12 14.52,12.16 14.05,16.2C 15.6121,16.7523 16.4307,18.4663 15.8784,20.0284C 15.3261,21.5905 13.6121,22.4091 12.05,21.8569C 10.4879,21.3046 9.66929,19.5905 10.2216,18.0284C 10.5236,17.1741 11.1957,16.5021 12.05,16.2C 12.3415,12.6101 15.4002,9.8815 19,10L 19,7L 23,11L 19,15 Z M 14,19C 14,18.4477 13.5523,18 13,18C 12.4477,18 12,18.4477 12,19C 12,19.5523 12.4477,20 13,20C 13.5523,20 14,19.5523 14,19 Z M 12,11.12C 12.5769,10.4583 13.2513,9.8885 14,9.43L 14,5L 17,5L 13,1L 9,5L 12,5L 12,11.12 Z M 7.2,6L 5.2,6L 2,15L 3.9,15L 4.6,13L 7.8,13L 8.5,15L 10.4,15L 7.2,6 Z M 5.05,11.65L 6.2,8L 7.35,11.65L 5.05,11.65 Z "/>
	</g>
</svg>
