<?xml version="1.0" encoding="utf-8"?>
<!DOCTYPE svg PUBLIC "-//W3C//DTD SVG 1.1//EN" "http://www.w3.org/Graphics/SVG/1.1/DTD/svg11.dtd">
<svg xmlns="http://www.w3.org/2000/svg" xmlns:xlink="http://www.w3.org/1999/xlink" version="1.1" baseProfile="full" width="24" height="24" viewBox="0 0 24.00 24.00" enable-background="new 0 0 24.00 24.00" xml:space="preserve">
	<g>
		<path fill="#000000" fill-opacity="1" stroke-width="1.33333" stroke-linejoin="miter" d="M 11,5L 8,5L 12,1L 16,5L 13,5L 13,9.43C 12.2513,9.8885 11.5769,10.4583 11,11.12L 11,5 Z M 22,11L 18,7L 18,10C 14.3919,9.8532 11.3073,12.572 11,16.17C 9.4379,16.7223 8.61929,18.4363 9.17157,19.9984C 9.72386,21.5605 11.4379,22.3791 13,21.8268C 14.5621,21.2746 15.3807,19.5605 14.8284,17.9984C 14.5264,17.1441 13.8543,16.4721 13,16.17C 13.47,12.17 17.47,11.97 17.95,11.97L 17.95,14.97L 22,11 Z M 10.63,11.59C 9.30003,10.5717 7.67496,10.0137 6,10L 6,7L 2,11L 6,15L 6,12C 7.33921,12.0292 8.62637,12.5243 9.64,13.4C 9.88904,12.7558 10.2219,12.1472 10.63,11.59 Z "/>
	</g>
</svg>
