<?xml version="1.0" encoding="utf-8"?>
<!DOCTYPE svg PUBLIC "-//W3C//DTD SVG 1.1//EN" "http://www.w3.org/Graphics/SVG/1.1/DTD/svg11.dtd">
<svg xmlns="http://www.w3.org/2000/svg" xmlns:xlink="http://www.w3.org/1999/xlink" version="1.1" baseProfile="full" width="24" height="24" viewBox="0 0 24.00 24.00" enable-background="new 0 0 24.00 24.00" xml:space="preserve">
	<path fill="#000000" fill-opacity="1" stroke-width="1.33333" stroke-linejoin="miter" d="M 12,2C 6.47715,2 2,6.4772 2,12C 2,17.5228 6.47715,22 12,22C 17.5228,22 22,17.5228 22,12C 22,6.4772 17.5228,2 12,2 Z M 12,4C 16.4183,4 20,7.5817 20,12C 20,16.4183 16.4183,20 12,20C 7.58172,20 4,16.4183 4,12C 4,7.5817 7.58172,4 12,4 Z M 7,10L 12,15L 17,10L 7,10 Z "/>
</svg>
