<?xml version="1.0" encoding="utf-8"?>
<!DOCTYPE svg PUBLIC "-//W3C//DTD SVG 1.1//EN" "http://www.w3.org/Graphics/SVG/1.1/DTD/svg11.dtd">
<svg xmlns="http://www.w3.org/2000/svg" xmlns:xlink="http://www.w3.org/1999/xlink" version="1.1" baseProfile="full" width="24" height="24" viewBox="0 0 24.00 24.00" enable-background="new 0 0 24.00 24.00" xml:space="preserve">
	<path fill="#000000" fill-opacity="1" stroke-width="0.2" stroke-linejoin="round" d="M 13,11L 18,11L 16.5,9.50001L 17.9194,8.08057L 21.8388,12L 17.9194,15.9194L 16.5,14.5L 18.0104,13L 13,13L 13,18L 14.5,16.5L 15.9194,17.9195L 12,21.8388L 8.08062,17.9194L 9.5,16.5L 11,18L 11,13L 6,13L 7.5,14.5L 6.08055,15.9194L 2.16116,12L 6.08056,8.08061L 7.5,9.50001L 6,11L 11,11L 11,6L 9.5,7.50001L 8.08056,6.08055L 12,2.16116L 15.9194,6.08055L 14.5,7.50001L 13,6L 13,11 Z "/>
</svg>
