<?xml version="1.0" encoding="utf-8"?>
<!DOCTYPE svg PUBLIC "-//W3C//DTD SVG 1.1//EN" "http://www.w3.org/Graphics/SVG/1.1/DTD/svg11.dtd">
<svg xmlns="http://www.w3.org/2000/svg" xmlns:xlink="http://www.w3.org/1999/xlink" version="1.1" baseProfile="full" width="24" height="24" viewBox="0 0 24.00 24.00" enable-background="new 0 0 24.00 24.00" xml:space="preserve">
	<path fill="#000000" fill-opacity="1" stroke-width="0.2" stroke-linejoin="miter" d="M 11,4C 13.208,4 15,5.79199 15,8C 15,10.207 13.208,12 11,12C 8.79199,12 7,10.207 7,8C 7,5.79199 8.79199,4 11,4 Z M 11,6.00001C 9.89721,6.00001 9.00004,6.89716 9.00004,8.00001C 9.00004,9.10286 9.89721,10 11,10C 12.1029,10 13,9.10286 13,8.00001C 13,6.89716 12.1029,6.00001 11,6.00001 Z M 11,13C 12.1033,13 13.6628,13.2285 15.1123,13.685C 14.4972,14.0708 13.982,14.6012 13.6145,15.2286C 12.7875,15.0296 11.887,14.9 11,14.9C 8.026,14.9 4.89998,16.357 4.89998,17L 4.89998,18.1L 13.0396,18.1C 13.1324,18.7963 13.3844,19.4422 13.7578,20L 3,20L 3,17C 3,14.335 8.333,13 11,13 Z M 18.5,10L 20,10L 22,10L 22,12L 20,12L 20,17.5C 20,18.8807 18.8807,20 17.5,20C 16.1193,20 15,18.8807 15,17.5C 15,16.1193 16.1193,15 17.5,15C 17.8555,15 18.1938,15.0742 18.5,15.208L 18.5,10 Z "/>
</svg>
