<?xml version="1.0" encoding="utf-8"?>
<!DOCTYPE svg PUBLIC "-//W3C//DTD SVG 1.1//EN" "http://www.w3.org/Graphics/SVG/1.1/DTD/svg11.dtd">
<svg xmlns="http://www.w3.org/2000/svg" xmlns:xlink="http://www.w3.org/1999/xlink" version="1.1" baseProfile="full" width="24" height="24" viewBox="0 0 24.00 24.00" enable-background="new 0 0 24.00 24.00" xml:space="preserve">
	<path fill="#000000" fill-opacity="1" stroke-width="0.2" stroke-linejoin="miter" d="M 11.0156,14.0156C 11.9844,14.0156 13.0469,14.1562 14.2031,14.4375C 13.3906,15.3125 12.9844,16.3281 12.9844,17.4844C 12.9844,18.3906 13.25,19.2344 13.7813,20.0156L 3,20.0156L 3,18C 3,16.8125 3.91406,15.8516 5.74219,15.1172C 7.57031,14.3828 9.32813,14.0156 11.0156,14.0156 Z M 18.5156,9.9844L 21.9844,9.9844L 21.9844,12L 20.0156,12L 20.0156,17.4844C 20.0156,18.1719 19.7656,18.7656 19.2656,19.2656C 18.7656,19.7656 18.1719,20.0156 17.4844,20.0156C 16.7969,20.0156 16.2109,19.7656 15.7266,19.2656C 15.2422,18.7656 15,18.1719 15,17.4844C 15,16.7969 15.2422,16.2109 15.7266,15.7266C 16.2109,15.2422 16.7969,15 17.4844,15C 17.7969,15 18.1406,15.0781 18.5156,15.2344L 18.5156,9.9844 Z M 11.0156,12C 9.92188,12 8.97656,11.6094 8.17969,10.8281C 7.38281,10.0469 6.98438,9.1094 6.98438,8.0156C 6.98438,6.9219 7.38281,5.9766 8.17969,5.1797C 8.97656,4.3828 9.92188,3.9844 11.0156,3.9844C 12.1094,3.9844 13.0469,4.3828 13.8281,5.1797C 14.6094,5.9766 15,6.9219 15,8.0156C 15,9.1094 14.6094,10.0469 13.8281,10.8281C 13.0469,11.6094 12.1094,12 11.0156,12 Z "/>
</svg>
