<?xml version="1.0" encoding="utf-8"?>
<!DOCTYPE svg PUBLIC "-//W3C//DTD SVG 1.1//EN" "http://www.w3.org/Graphics/SVG/1.1/DTD/svg11.dtd">
<svg xmlns="http://www.w3.org/2000/svg" xmlns:xlink="http://www.w3.org/1999/xlink" version="1.1" baseProfile="full" width="24" height="24" viewBox="0 0 24.00 24.00" enable-background="new 0 0 24.00 24.00" xml:space="preserve">
	<path fill="#000000" fill-opacity="1" stroke-width="1.33333" stroke-linejoin="miter" d="M 19,12L 17,12L 17,15L 14,15L 14,17L 19,17L 19,12 Z M 7,9L 10,9L 10,7L 5,7L 5,12L 7,12L 7,9 Z M 21,3L 3,3C 1.9,3 1,3.9 1,5L 1,19C 1,20.1 1.9,21 3,21L 21,21C 22.1,21 23,20.1 23,19L 23,5C 23,3.9 22.1,3 21,3 Z M 21,19.01L 3,19.01L 3,4.99L 21,4.99L 21,19.01 Z "/>
</svg>
