<?xml version="1.0" encoding="utf-8"?>
<!DOCTYPE svg PUBLIC "-//W3C//DTD SVG 1.1//EN" "http://www.w3.org/Graphics/SVG/1.1/DTD/svg11.dtd">
<svg xmlns="http://www.w3.org/2000/svg" xmlns:xlink="http://www.w3.org/1999/xlink" version="1.1" baseProfile="full" width="24" height="24" viewBox="0 0 24.00 24.00" enable-background="new 0 0 24.00 24.00" xml:space="preserve">
	<path fill="#000000" fill-opacity="1" stroke-width="1.33333" stroke-linejoin="miter" d="M 12,15C 12.8125,15 13.5156,14.7031 14.1094,14.1094C 14.7031,13.5156 15,12.8125 15,12C 15,11.1875 14.7031,10.4844 14.1094,9.8906C 13.5156,9.2969 12.8125,9 12,9C 11.1875,9 10.4844,9.2969 9.89063,9.8906C 9.29687,10.4844 9,11.1875 9,12C 9,12.8125 9.29687,13.5156 9.89063,14.1094C 10.4844,14.7031 11.1875,15 12,15 Z M 12,2.0156C 14.75,2.0156 17.1016,2.9922 19.0547,4.9453C 21.0078,6.8984 21.9844,9.25 21.9844,12L 21.9844,13.4531C 21.9844,14.4531 21.6484,15.2969 20.9766,15.9844C 20.3047,16.6719 19.4844,17.0156 18.5156,17.0156C 17.2969,17.0156 16.3125,16.5156 15.5625,15.5156C 14.5625,16.5156 13.375,17.0156 12,17.0156C 10.625,17.0156 9.44531,16.5234 8.46094,15.5391C 7.47656,14.5547 6.98438,13.375 6.98438,12C 6.98438,10.625 7.47656,9.4453 8.46094,8.4609C 9.44531,7.4766 10.625,6.9844 12,6.9844C 13.375,6.9844 14.5547,7.4766 15.5391,8.4609C 16.5234,9.4453 17.0156,10.625 17.0156,12L 17.0156,13.4531C 17.0156,13.8594 17.1641,14.2187 17.4609,14.5312C 17.7578,14.8437 18.1094,15 18.5156,15C 18.9219,15 19.2734,14.8437 19.5703,14.5312C 19.8672,14.2187 20.0156,13.8594 20.0156,13.4531L 20.0156,12C 20.0156,9.8125 19.2266,7.9297 17.6484,6.3516C 16.0703,4.7734 14.1875,3.9844 12,3.9844C 9.8125,3.9844 7.92969,4.7734 6.35156,6.3516C 4.77344,7.9297 3.98438,9.8125 3.98438,12C 3.98438,14.1875 4.77344,16.0703 6.35156,17.6484C 7.92969,19.2266 9.8125,20.0156 12,20.0156L 17.0156,20.0156L 17.0156,21.9844L 12,21.9844C 9.25,21.9844 6.89844,21.0078 4.94531,19.0547C 2.99219,17.1016 2.01563,14.75 2.01563,12C 2.01563,9.25 2.99219,6.8984 4.94531,4.9453C 6.89844,2.9922 9.25,2.0156 12,2.0156 Z "/>
</svg>
