<?xml version="1.0" encoding="utf-8"?>
<!DOCTYPE svg PUBLIC "-//W3C//DTD SVG 1.1//EN" "http://www.w3.org/Graphics/SVG/1.1/DTD/svg11.dtd">
<svg xmlns="http://www.w3.org/2000/svg" xmlns:xlink="http://www.w3.org/1999/xlink" version="1.1" baseProfile="full" width="24" height="24" viewBox="0 0 24.00 24.00" enable-background="new 0 0 24.00 24.00" xml:space="preserve">
	<path fill="#000000" fill-opacity="1" stroke-linejoin="round" d="M 17.4226,15C 17.7928,14.0907 18,13.0736 18,12C 18,8.13401 15.3137,5.00001 12,5.00001C 8.68629,5.00001 6,8.13401 6,12C 6,15.866 8.68629,19 12,19C 13.5367,19 15,19 16,18.2176L 16,20.546C 15,21 13.4571,21 12,21C 7.58172,21 4,16.9706 4,12C 4,7.02944 7.58172,3 12,3C 16.4183,3 20,7.02944 20,12C 20,13.8501 19.5038,15.5699 18.6528,17L 14,17L 14,15.4993C 13.3647,16.4254 12.4793,17 11.5,17C 9.567,17 8,14.7614 8,12C 8,9.23858 9.567,7 11.5,7C 12.4793,7 13.3647,7.57462 14,8.50073L 14,8L 16,8L 16,15L 17.4226,15 Z M 12,9C 10.8954,9 10,10.3431 10,12C 10,13.6569 10.8954,15 12,15C 13.1046,15 14,13.6569 14,12C 14,10.3431 13.1046,9 12,9 Z "/>
</svg>
