<?xml version="1.0" encoding="utf-8"?>
<!DOCTYPE svg PUBLIC "-//W3C//DTD SVG 1.1//EN" "http://www.w3.org/Graphics/SVG/1.1/DTD/svg11.dtd">
<svg xmlns="http://www.w3.org/2000/svg" xmlns:xlink="http://www.w3.org/1999/xlink" version="1.1" baseProfile="full" width="24" height="24" viewBox="0 0 24.00 24.00" enable-background="new 0 0 24.00 24.00" xml:space="preserve">
	<g>
		<path fill="#000000" fill-opacity="1" stroke-width="1.33333" stroke-linejoin="miter" d="M 7.93,11.24C 7.74024,10.9888 7.38279,10.939 7.13,11.13C 7.05986,11.1879 7.00205,11.2593 6.96,11.34L 2.06,21.15C 1.91478,21.44 2.03091,21.7929 2.32,21.94C 2.40475,21.9788 2.49677,21.9993 2.59,22L 9.41,22C 9.63493,22.0096 9.84372,21.8835 9.94,21.68C 11.41,18.63 10.52,14 7.93,11.24 Z M 11.53,2.31C 9.05118,6.1414 8.76273,10.9919 10.77,15.09L 14.06,21.68C 14.1654,21.8751 14.3683,21.9976 14.59,22L 21.41,22C 21.7358,22.0002 22.0002,21.7362 22.0004,21.4104C 22.0004,21.3201 21.9798,21.231 21.94,21.15C 21.94,21.15 12.76,2.77 12.52,2.31C 12.3864,2.0372 12.057,1.9243 11.78,2.06C 11.6695,2.1109 11.5809,2.1995 11.53,2.31 Z "/>
	</g>
</svg>
