<?xml version="1.0" encoding="utf-8"?>
<!DOCTYPE svg PUBLIC "-//W3C//DTD SVG 1.1//EN" "http://www.w3.org/Graphics/SVG/1.1/DTD/svg11.dtd">
<svg xmlns="http://www.w3.org/2000/svg" xmlns:xlink="http://www.w3.org/1999/xlink" version="1.1" baseProfile="full" width="24" height="24" viewBox="0 0 24.00 24.00" enable-background="new 0 0 24.00 24.00" xml:space="preserve">
	<path fill="#000000" fill-opacity="1" stroke-width="1.33333" stroke-linejoin="miter" d="M 8,9L 8,10.5L 10.25,10.5L 10.25,15L 11.75,15L 11.75,10.5L 14,10.5L 14,9L 8,9 Z M 6,9L 3,9C 2.45,9 2,9.45 2,10L 2,15L 3.5,15L 3.5,13.5L 5.5,13.5L 5.5,15L 7,15L 7,10C 7,9.45 6.55,9 6,9 Z M 5.5,12L 3.5,12L 3.5,10.5L 5.5,10.5L 5.5,12 Z M 21,9L 16.5,9C 15.95,9 15.5,9.45 15.5,10L 15.5,15L 17,15L 17,10.5L 18,10.5L 18,14L 19.5,14L 19.5,10.49L 20.5,10.49L 20.5,15L 22,15L 22,10C 22,9.45 21.55,9 21,9 Z "/>
</svg>
