<?xml version="1.0" encoding="utf-8"?>
<!DOCTYPE svg PUBLIC "-//W3C//DTD SVG 1.1//EN" "http://www.w3.org/Graphics/SVG/1.1/DTD/svg11.dtd">
<svg xmlns="http://www.w3.org/2000/svg" xmlns:xlink="http://www.w3.org/1999/xlink" version="1.1" baseProfile="full" width="24" height="24" viewBox="0 0 24.00 24.00" enable-background="new 0 0 24.00 24.00" xml:space="preserve">
	<path fill="#000000" fill-opacity="1" stroke-width="1.33333" stroke-linejoin="miter" d="M 12,11C 12.5523,11 13,11.4477 13,12C 13,12.5523 12.5523,13 12,13C 11.4477,13 11,12.5523 11,12C 11,11.4477 11.4477,11 12,11 Z M 4.22182,4.22183C 5.65252,2.79113 8.75428,3.42847 12,5.56116C 15.2457,3.42847 18.3475,2.79114 19.7782,4.22183C 21.2089,5.65252 20.5715,8.75428 18.4388,12C 20.5715,15.2457 21.2089,18.3475 19.7782,19.7782C 18.3475,21.2089 15.2457,20.5715 12,18.4388C 8.75428,20.5715 5.65252,21.2089 4.22182,19.7782C 2.79113,18.3475 3.42847,15.2457 5.56116,12C 3.42847,8.75428 2.79113,5.65252 4.22182,4.22183 Z M 15.5355,8.46447C 16.1496,9.07855 16.7147,9.70835 17.2266,10.3425C 18.607,8.20717 19.1128,6.38489 18.364,5.63605C 17.6151,4.8872 15.7928,5.39304 13.6575,6.7734C 14.2917,7.28528 14.9215,7.85039 15.5355,8.46447 Z M 8.46447,15.5355C 7.85039,14.9215 7.28528,14.2917 6.77339,13.6575C 5.39304,15.7928 4.88719,17.6151 5.63604,18.364C 6.38489,19.1128 8.20717,18.607 10.3425,17.2266C 9.70834,16.7147 9.07854,16.1496 8.46447,15.5355 Z M 5.63604,5.63605C 4.88719,6.38489 5.39303,8.20717 6.77339,10.3425C 7.28528,9.70835 7.85039,9.07855 8.46446,8.46447C 9.07854,7.8504 9.70834,7.28529 10.3425,6.7734C 8.20716,5.39304 6.38488,4.8872 5.63604,5.63605 Z M 9.87868,14.1213C 10.5822,14.8248 11.2971,15.4636 12,16.026C 12.7029,15.4636 13.4178,14.8248 14.1213,14.1213C 14.8248,13.4178 15.4636,12.7029 16.026,12C 15.4636,11.2971 14.8248,10.5822 14.1213,9.87869C 13.4178,9.17519 12.7029,8.5364 12,7.97399C 11.2971,8.5364 10.5822,9.17518 9.87868,9.87868C 9.17518,10.5822 8.53639,11.2971 7.97399,12C 8.53639,12.7029 9.17518,13.4178 9.87868,14.1213 Z M 18.364,18.364C 19.1128,17.6151 18.607,15.7928 17.2266,13.6575C 16.7147,14.2917 16.1496,14.9215 15.5355,15.5355C 14.9215,16.1496 14.2917,16.7147 13.6575,17.2266C 15.7928,18.607 17.6151,19.1128 18.364,18.364 Z "/>
</svg>
