<?xml version="1.0" encoding="utf-8"?>
<!DOCTYPE svg PUBLIC "-//W3C//DTD SVG 1.1//EN" "http://www.w3.org/Graphics/SVG/1.1/DTD/svg11.dtd">
<svg xmlns="http://www.w3.org/2000/svg" xmlns:xlink="http://www.w3.org/1999/xlink" version="1.1" baseProfile="full" width="24" height="24" viewBox="0 0 24.00 24.00" enable-background="new 0 0 24.00 24.00" xml:space="preserve">
	<path fill="#000000" fill-opacity="1" stroke-width="1.33333" stroke-linejoin="miter" d="M 18.364,2.63601C 20.0208,2.63601 21.364,3.97916 21.364,5.63601C 21.364,7.29286 20.0208,8.63601 18.364,8.63601C 16.7071,8.63601 15.364,7.29286 15.364,5.63601C 15.364,5.34444 15.4056,5.06259 15.4832,4.79606C 14.4302,4.286 13.2485,4 12,4C 7.58172,4 4,7.58173 4,12L 4.04319,12.8363L 2.05398,13.0454L 2,12C 2,6.47716 6.47715,2 12,2C 13.6883,2 15.2789,2.41839 16.6737,3.15714C 17.1551,2.82831 17.7371,2.63601 18.364,2.63601 Z M 18.364,4.63602C 17.8117,4.63602 17.364,5.08373 17.364,5.63602C 17.364,6.1883 17.8117,6.63602 18.364,6.63602C 18.9163,6.63602 19.364,6.1883 19.364,5.63602C 19.364,5.08373 18.9163,4.63602 18.364,4.63602 Z M 5.63607,15.3639C 7.29292,15.3639 8.63607,16.7071 8.63607,18.3639C 8.63607,18.6555 8.59447,18.9374 8.51687,19.204C 9.56982,19.714 10.7515,20 12,20C 16.4183,20 20,16.4183 20,12L 19.9568,11.1637L 21.946,10.9546L 22,12C 22,17.5229 17.5228,22 12,22C 10.3117,22 8.72109,21.5816 7.32624,20.8429C 6.84493,21.1717 6.26296,21.3639 5.63607,21.3639C 3.97922,21.3639 2.63607,20.0208 2.63607,18.3639C 2.63607,16.7071 3.97922,15.3639 5.63607,15.3639 Z M 5.63607,17.3639C 5.08378,17.3639 4.63607,17.8117 4.63607,18.3639C 4.63607,18.9162 5.08378,19.3639 5.63607,19.3639C 6.18835,19.3639 6.63607,18.9162 6.63607,18.3639C 6.63607,17.8117 6.18835,17.3639 5.63607,17.3639 Z M 12,8C 14.2091,8 16,9.79086 16,12C 16,14.2091 14.2091,16 12,16C 9.79086,16 8,14.2091 8,12C 8,9.79086 9.79086,8 12,8 Z "/>
</svg>
