<?xml version="1.0" encoding="utf-8"?>
<!DOCTYPE svg PUBLIC "-//W3C//DTD SVG 1.1//EN" "http://www.w3.org/Graphics/SVG/1.1/DTD/svg11.dtd">
<svg xmlns="http://www.w3.org/2000/svg" xmlns:xlink="http://www.w3.org/1999/xlink" version="1.1" baseProfile="full" width="24" height="24" viewBox="0 0 24.00 24.00" enable-background="new 0 0 24.00 24.00" xml:space="preserve">
	<path fill="#050708" fill-opacity="1" stroke-width="0.2" stroke-linejoin="round" d="M 17.9994,21.998L 5.99938,21.998C 4.89586,21.998 3.99938,21.1021 3.99938,19.998L 3.99938,3.99805C 3.99938,2.89404 4.89586,1.99805 5.99938,1.99805L 6.99938,1.99805L 6.99938,8.99805L 9.49938,7.49805L 11.9994,8.99805L 11.9994,1.99805L 17.9994,1.99805C 19.1044,1.99805 19.9994,2.89404 19.9994,3.99805L 19.9994,19.998C 19.9994,21.1021 19.1044,21.998 17.9994,21.998 Z M 13,15C 11.8954,15 11,15.8954 11,17C 11,18.1046 11.8954,19 13,19C 14.1046,19 15,18.1046 15,17L 15,12L 18,12L 18,10L 14,10L 14,15.2676C 13.7058,15.0974 13.3643,15 13,15 Z "/>
</svg>
