<?xml version="1.0" encoding="utf-8"?>
<!DOCTYPE svg PUBLIC "-//W3C//DTD SVG 1.1//EN" "http://www.w3.org/Graphics/SVG/1.1/DTD/svg11.dtd">
<svg xmlns="http://www.w3.org/2000/svg" xmlns:xlink="http://www.w3.org/1999/xlink" version="1.1" baseProfile="full" width="24" height="24" viewBox="0 0 24.00 24.00" enable-background="new 0 0 24.00 24.00" xml:space="preserve">
	<path fill="#000000" fill-opacity="1" stroke-width="1.33333" stroke-linejoin="miter" d="M 20,7L 4,7C 2.9,7 2,7.9 2,9L 2,15C 2,16.1 2.9,17 4,17L 5,17L 5,18C 5,18.6 5.4,19 6,19L 8,19C 8.6,19 9,18.6 9,18L 9,17L 15,17L 15,18C 15,18.6 15.4,19 16,19L 18,19C 18.6,19 19,18.6 19,18L 19,17L 20,17C 21.1,17 22,16.1 22,15L 22,9C 22,7.9 21.1,7 20,7 Z M 14,12L 4,12L 4,10L 14,10L 14,12 Z M 18,13C 16.9,13 16,12.1 16,11C 16,9.9 16.9,9 18,9C 19.1,9 20,9.9 20,11C 20,12.1 19.1,13 18,13 Z M 6,15L 4,15L 4,14L 6,14L 6,15 Z M 10,15L 8,15L 8,14L 10,14L 10,15 Z M 14,15L 12,15L 12,14L 14,14L 14,15 Z "/>
</svg>
