<?xml version="1.0" encoding="utf-8"?>
<!DOCTYPE svg PUBLIC "-//W3C//DTD SVG 1.1//EN" "http://www.w3.org/Graphics/SVG/1.1/DTD/svg11.dtd">
<svg xmlns="http://www.w3.org/2000/svg" xmlns:xlink="http://www.w3.org/1999/xlink" version="1.1" baseProfile="full" width="24" height="24" viewBox="0 0 24.00 24.00" enable-background="new 0 0 24.00 24.00" xml:space="preserve">
	<path fill="#000000" fill-opacity="1" stroke-width="0.2" stroke-linejoin="round" d="M 12.0025,6.00125L 12.0025,8.99875L 16.0012,5L 12.0025,1.00073L 12.0025,3.99875C 7.57875,3.99875 3.99875,7.5775 3.99875,12.0025C 3.99875,13.5687 4.4575,15.0287 5.23875,16.26L 6.69875,14.8C 6.25,13.97 6.00125,13.0075 6.00125,12.0025C 6.00125,8.69125 8.69125,6.00125 12.0025,6.00125 Z M 18.76,7.73875L 17.3,9.19875C 17.7388,10.0388 17.9975,10.9913 17.9975,12.0025C 17.9975,15.3075 15.3075,17.9975 12.0025,17.9975L 12.0025,15L 7.9975,18.9988L 12.0025,22.9975L 12.0025,20C 16.4213,20 20,16.4212 20,12.0025C 20,10.43 19.5413,8.97 18.76,7.73875 Z "/>
</svg>
