<?xml version="1.0" encoding="utf-8"?>
<!DOCTYPE svg PUBLIC "-//W3C//DTD SVG 1.1//EN" "http://www.w3.org/Graphics/SVG/1.1/DTD/svg11.dtd">
<svg xmlns="http://www.w3.org/2000/svg" xmlns:xlink="http://www.w3.org/1999/xlink" version="1.1" baseProfile="full" width="24" height="24" viewBox="0 0 24.00 24.00" enable-background="new 0 0 24.00 24.00" xml:space="preserve">
	<path fill="#000000" fill-opacity="1" stroke-width="0.2" stroke-linejoin="round" d="M 7.49936,5.59817L 4.99936,6.99815L 6.39936,4.49815L 4.99936,1.99815L 7.49936,3.39815L 9.99936,1.99815L 8.59936,4.49815L 9.99936,6.99815L 7.49936,5.59817 Z M 19.4994,15.398L 21.9994,13.998L 20.5994,16.498L 21.9994,18.998L 19.4994,17.598L 16.9994,18.998L 18.3994,16.498L 16.9994,13.998L 19.4994,15.398 Z M 21.9994,1.99807L 20.5994,4.49807L 21.9994,6.99807L 19.4994,5.59809L 16.9994,6.99807L 18.3994,4.49807L 16.9994,1.99807L 19.4994,3.39805L 21.9994,1.99807 Z M 13.3424,12.7764L 15.7774,10.3414L 13.6564,8.21936L 11.2214,10.6554L 13.3424,12.7764 Z M 14.3704,7.29136L 16.7064,9.62738C 17.0974,10.0174 17.0974,10.6504 16.7064,11.0414L 5.04236,22.7054C 4.65136,23.0954 4.01836,23.0954 3.62836,22.7054L 1.29236,20.3694C 0.901362,19.9784 0.901362,19.3454 1.29236,18.9554L 12.9564,7.29136C 13.3474,6.90037 13.9804,6.90037 14.3704,7.29136 Z "/>
</svg>
