<?xml version="1.0" encoding="utf-8"?>
<!DOCTYPE svg PUBLIC "-//W3C//DTD SVG 1.1//EN" "http://www.w3.org/Graphics/SVG/1.1/DTD/svg11.dtd">
<svg xmlns="http://www.w3.org/2000/svg" xmlns:xlink="http://www.w3.org/1999/xlink" version="1.1" baseProfile="full" width="24" height="24" viewBox="0 0 24.00 24.00" enable-background="new 0 0 24.00 24.00" xml:space="preserve">
	<path fill="#000000" fill-opacity="1" stroke-width="1.33333" stroke-linejoin="miter" d="M 7.636,10.384C 7.636,10.63 7.663,10.83 7.709,10.976C 7.762,11.122 7.829,11.282 7.922,11.455C 7.955,11.508 7.969,11.561 7.969,11.608C 7.969,11.675 7.929,11.741 7.843,11.808L 7.424,12.087C 7.364,12.127 7.304,12.147 7.251,12.147C 7.184,12.147 7.118,12.114 7.051,12.054C 6.958,11.954 6.878,11.848 6.812,11.741C 6.745,11.628 6.679,11.502 6.606,11.349C 6.087,11.961 5.435,12.267 4.65,12.267C 4.091,12.267 3.646,12.107 3.32,11.788C 2.994,11.469 2.828,11.043 2.828,10.511C 2.828,9.946 3.028,9.487 3.433,9.141C 3.838,8.795 4.378,8.622 5.063,8.622C 5.289,8.622 5.522,8.642 5.768,8.675C 6.014,8.708 6.267,8.761 6.533,8.821L 6.533,8.335C 6.533,7.829 6.427,7.477 6.22,7.271C 6.007,7.064 5.647,6.965 5.135,6.965C 4.902,6.965 4.663,6.992 4.417,7.051C 4.171,7.111 3.931,7.184 3.699,7.277C 3.592,7.324 3.512,7.35 3.466,7.364C 3.419,7.377 3.386,7.384 3.36,7.384C 3.267,7.384 3.22,7.317 3.22,7.178L 3.22,6.852C 3.22,6.746 3.233,6.666 3.267,6.619C 3.3,6.572 3.36,6.526 3.453,6.479C 3.685,6.359 3.964,6.26 4.29,6.18C 4.616,6.094 4.962,6.054 5.328,6.054C 6.12,6.054 6.698,6.234 7.071,6.593C 7.437,6.952 7.623,7.498 7.623,8.229L 7.623,10.384L 7.636,10.384 Z M 4.936,11.395C 5.156,11.395 5.382,11.355 5.621,11.275C 5.86,11.195 6.073,11.049 6.253,10.849C 6.359,10.723 6.439,10.583 6.479,10.423C 6.519,10.263 6.546,10.07 6.546,9.844L 6.546,9.566C 6.352,9.519 6.146,9.479 5.933,9.452C 5.72,9.425 5.514,9.412 5.308,9.412C 4.862,9.412 4.536,9.498 4.317,9.678C 4.097,9.858 3.991,10.11 3.991,10.443C 3.991,10.756 4.071,10.988 4.237,11.148C 4.397,11.315 4.63,11.395 4.936,11.395 Z M 10.277,12.113C 10.157,12.113 10.077,12.093 10.024,12.046C 9.971,12.006 9.924,11.913 9.884,11.787L 8.321,6.645C 8.281,6.512 8.261,6.425 8.261,6.379C 8.261,6.273 8.314,6.213 8.421,6.213L 9.073,6.213C 9.199,6.213 9.286,6.233 9.332,6.28C 9.385,6.32 9.425,6.413 9.465,6.539L 10.583,10.942L 11.621,6.539C 11.654,6.406 11.694,6.319 11.747,6.28C 11.8,6.24 11.893,6.213 12.013,6.213L 12.545,6.213C 12.671,6.213 12.758,6.233 12.811,6.28C 12.864,6.32 12.911,6.413 12.937,6.539L 13.988,10.996L 15.139,6.539C 15.179,6.406 15.225,6.319 15.272,6.28C 15.325,6.24 15.412,6.213 15.531,6.213L 16.15,6.213C 16.256,6.213 16.316,6.266 16.316,6.379C 16.316,6.412 16.309,6.446 16.303,6.485C 16.297,6.524 16.283,6.578 16.256,6.651L 14.653,11.793C 14.613,11.926 14.567,12.013 14.513,12.052C 14.46,12.092 14.373,12.119 14.26,12.119L 13.688,12.119C 13.562,12.119 13.475,12.099 13.422,12.052C 13.369,12.005 13.322,11.919 13.296,11.786L 12.265,7.496L 11.241,11.78C 11.208,11.913 11.168,12 11.115,12.046C 11.062,12.092 10.969,12.113 10.849,12.113L 10.277,12.113 Z M 18.825,12.293C 18.479,12.293 18.133,12.253 17.801,12.173C 17.468,12.093 17.209,12.007 17.036,11.907C 16.93,11.847 16.856,11.781 16.83,11.721C 16.803,11.661 16.79,11.595 16.79,11.535L 16.79,11.196C 16.79,11.056 16.843,10.99 16.943,10.99C 16.983,10.99 17.023,10.997 17.063,11.01C 17.103,11.023 17.163,11.05 17.229,11.077C 17.455,11.177 17.701,11.257 17.961,11.31C 18.227,11.363 18.486,11.39 18.753,11.39C 19.172,11.39 19.498,11.317 19.724,11.17C 19.95,11.024 20.07,10.811 20.07,10.538C 20.07,10.352 20.01,10.199 19.89,10.072C 19.77,9.946 19.544,9.833 19.218,9.726L 18.253,9.427C 17.767,9.274 17.408,9.048 17.189,8.749C 16.969,8.456 16.856,8.13 16.856,7.784C 16.856,7.505 16.916,7.259 17.036,7.046C 17.156,6.833 17.315,6.647 17.515,6.501C 17.715,6.348 17.941,6.235 18.207,6.155C 18.473,6.075 18.752,6.042 19.045,6.042C 19.191,6.042 19.344,6.049 19.491,6.069C 19.644,6.089 19.784,6.116 19.923,6.142C 20.056,6.175 20.182,6.209 20.302,6.248C 20.422,6.288 20.515,6.328 20.581,6.368C 20.674,6.421 20.741,6.474 20.781,6.534C 20.821,6.587 20.841,6.66 20.841,6.754L 20.841,7.067C 20.841,7.207 20.788,7.28 20.688,7.28C 20.635,7.28 20.548,7.253 20.435,7.2C 20.056,7.027 19.63,6.941 19.158,6.941C 18.779,6.941 18.48,7.001 18.273,7.127C 18.067,7.253 17.96,7.446 17.96,7.719C 17.96,7.905 18.027,8.065 18.16,8.191C 18.293,8.317 18.539,8.444 18.892,8.557L 19.837,8.856C 20.316,9.009 20.662,9.222 20.868,9.495C 21.074,9.768 21.174,10.08 21.174,10.426C 21.174,10.712 21.114,10.971 21.001,11.198C 20.881,11.424 20.722,11.624 20.515,11.783C 20.309,11.949 20.063,12.069 19.777,12.155C 19.476,12.246 19.164,12.293 18.825,12.293 Z M 20.082,15.526C 17.893,17.142 14.714,18 11.98,18C 8.149,18 4.696,16.583 2.089,14.228C 1.883,14.042 2.069,13.789 2.315,13.935C 5.135,15.571 8.614,16.562 12.213,16.562C 14.641,16.562 17.308,16.056 19.763,15.019C 20.128,14.854 20.441,15.259 20.082,15.526 Z M 20.993,14.488C 20.714,14.129 19.144,14.315 18.432,14.402C 18.219,14.429 18.186,14.242 18.379,14.103C 19.63,13.225 21.685,13.478 21.924,13.77C 22.163,14.069 21.857,16.125 20.687,17.109C 20.507,17.262 20.334,17.182 20.414,16.983C 20.68,16.324 21.272,14.84 20.993,14.488 Z "/>
</svg>
