<?xml version="1.0" encoding="utf-8"?>
<!DOCTYPE svg PUBLIC "-//W3C//DTD SVG 1.1//EN" "http://www.w3.org/Graphics/SVG/1.1/DTD/svg11.dtd">
<svg xmlns="http://www.w3.org/2000/svg" xmlns:xlink="http://www.w3.org/1999/xlink" version="1.1" baseProfile="full" width="24" height="24" viewBox="0 0 24.00 24.00" enable-background="new 0 0 24.00 24.00" xml:space="preserve">
	<path fill="#000000" fill-opacity="1" stroke-width="0.2" stroke-linejoin="miter" d="M 12,14L 14.9055,14C 14.5724,17.4505 13.3979,20 12,20C 10.4165,20 9.11958,16.7285 9.00781,12.5819L 7.00806,11.4273L 7,12C 7,17.5228 9.23858,22 12,22C 14.419,22 16.4367,18.5645 16.9,14L 20,14L 16,10L 12,14 Z M 12,2C 10.1158,2 8.47498,4.0845 7.62268,7.16335L 9.36557,8.16962C 9.87463,5.68518 10.8635,4 12,4C 13.271,4 14.3574,6.10783 14.7945,9.08418L 16,7.87867L 16.6996,8.57831C 16.0009,4.74056 14.1605,2 12,2 Z M 2.10769,5.13398L 1.10769,6.86603L 1.06224,6.94476L 11.1245,12.7542L 12.7217,11.157L 2.15315,5.05525L 2.10769,5.13398 Z M 21.8923,18.866L 22.8923,17.134L 19.1961,15L 17.7741,15L 17.5152,16.3389L 21.8923,18.866 Z "/>
</svg>
