<?xml version="1.0" encoding="utf-8"?>
<!DOCTYPE svg PUBLIC "-//W3C//DTD SVG 1.1//EN" "http://www.w3.org/Graphics/SVG/1.1/DTD/svg11.dtd">
<svg xmlns="http://www.w3.org/2000/svg" xmlns:xlink="http://www.w3.org/1999/xlink" version="1.1" baseProfile="full" width="24" height="24" viewBox="0 0 24.00 24.00" enable-background="new 0 0 24.00 24.00" xml:space="preserve">
	<path fill="#000000" fill-opacity="1" stroke-width="0.2" stroke-linejoin="miter" d="M 12,9.99999L 14.9055,9.99999C 14.5724,6.54954 13.3979,4 12,4C 10.4165,4 9.11958,7.2715 9.00781,11.4181L 7.00806,12.5727L 7,12C 7,6.47715 9.23858,2 12,2C 14.419,2 16.4367,5.43552 16.9,9.99999L 20,9.99999L 16,14L 12,9.99999 Z M 12,22C 10.1158,22 8.47498,19.9155 7.62268,16.8366L 9.36557,15.8304C 9.87463,18.3148 10.8635,20 12,20C 13.271,20 14.3574,17.8922 14.7945,14.9158L 16,16.1213L 16.6996,15.4217C 16.0009,19.2594 14.1605,22 12,22 Z M 2.10769,18.866L 1.10769,17.134L 1.06224,17.0552L 11.1245,11.2458L 12.7217,12.843L 2.15315,18.9448L 2.10769,18.866 Z M 21.8923,5.13398L 22.8923,6.86603L 19.1961,9.00001L 17.7741,9.00001L 17.5152,7.6611L 21.8923,5.13398 Z "/>
</svg>
