<?xml version="1.0" encoding="utf-8"?>
<!DOCTYPE svg PUBLIC "-//W3C//DTD SVG 1.1//EN" "http://www.w3.org/Graphics/SVG/1.1/DTD/svg11.dtd">
<svg xmlns="http://www.w3.org/2000/svg" xmlns:xlink="http://www.w3.org/1999/xlink" version="1.1" baseProfile="full" width="24" height="24" viewBox="0 0 24.00 24.00" enable-background="new 0 0 24.00 24.00" xml:space="preserve">
	<path fill="#000000" fill-opacity="1" stroke-width="0.2" stroke-linejoin="miter" d="M 21.8,5C 22.4,5 23,5.6 23,6.3L 23,9.8C 23,10.4 22.4,11 21.7,11L 16.2,11C 15.6,11 15,10.4 15,9.7L 15,6.2C 15,5.6 15.6,5 16.2,5L 16.2,3.5C 16.2,2.1 17.6,1 19,1C 20.4,1 21.8,2.1 21.8,3.5L 21.8,5 Z M 20.5,5.00001L 20.5,3.50001C 20.5,2.70001 19.8,2.20002 19,2.20002C 18.2,2.20002 17.5,2.70001 17.5,3.50001L 17.5,5.00001L 20.5,5.00001 Z M 1.74167,19.25L 3.20577,13.7859L 4.68016,16.3396L 9,13.8456L 9,3L 11,3L 11,13.8455L 17.5274,17.6141L 19.0196,15.0296L 20.4837,20.4936L 15.0196,21.9577L 16.5274,19.3462L 10,15.5776L 5.68016,18.0717L 7.20577,20.7141L 1.74167,19.25 Z "/>
</svg>
