<?xml version="1.0" encoding="utf-8"?>
<!DOCTYPE svg PUBLIC "-//W3C//DTD SVG 1.1//EN" "http://www.w3.org/Graphics/SVG/1.1/DTD/svg11.dtd">
<svg xmlns="http://www.w3.org/2000/svg" xmlns:xlink="http://www.w3.org/1999/xlink" version="1.1" baseProfile="full" width="24" height="24" viewBox="0 0 24.00 24.00" enable-background="new 0 0 24.00 24.00" xml:space="preserve">
	<path fill="#000000" fill-opacity="1" stroke-width="0.2" stroke-linejoin="miter" d="M 21.8,5C 22.4,5 23,5.6 23,6.3L 23,9.8C 23,10.4 22.4,11 21.7,11L 16.2,11C 15.6,11 15,10.4 15,9.7L 15,6.2C 15,5.6 15.6,5 16.2,5L 16.2,3.5C 16.2,2.1 17.6,1 19,1C 20.4,1 21.8,2.1 21.8,3.5L 21.8,5 Z M 20.5,5.00002L 20.5,3.50002C 20.5,2.70001 19.8,2.20003 19,2.20003C 18.3066,2.20003 17.6883,2.57563 17.5359,3.19662C 17.5124,3.29211 17.5,3.3934 17.5,3.50002L 17.5,5.00002L 20.5,5.00002 Z M 1.74167,19.25L 3.20577,13.7859L 4.67085,16.3235L 8.99999,13.8241L 9,3.00001L 11,3.00001L 11,13.824L 20.3923,19.2467L 19.3923,20.9787L 9.99999,15.5561L 5.67084,18.0555L 7.20577,20.7141L 1.74167,19.25 Z "/>
</svg>
