<?xml version="1.0" encoding="utf-8"?>
<!DOCTYPE svg PUBLIC "-//W3C//DTD SVG 1.1//EN" "http://www.w3.org/Graphics/SVG/1.1/DTD/svg11.dtd">
<svg xmlns="http://www.w3.org/2000/svg" xmlns:xlink="http://www.w3.org/1999/xlink" version="1.1" baseProfile="full" width="24" height="24" viewBox="0 0 24.00 24.00" enable-background="new 0 0 24.00 24.00" xml:space="preserve">
	<path fill="#000000" fill-opacity="1" stroke-width="0.2" stroke-linejoin="miter" d="M 12,10L 16,14L 20,10L 16.9,10C 16.4367,5.43553 14.419,2.00001 12,2.00001C 10.1158,2.00001 8.47498,4.0845 7.62268,7.16336L 9.36558,8.16962C 9.87464,5.68519 10.8635,4.00001 12,4.00001C 13.3979,4.00001 14.5724,6.54955 14.9055,10L 12,10 Z M 1.1077,6.86603L 13.8946,14.2485L 13.9566,13.4566L 10.5,10L 10.5359,10L 2.1077,5.13398L 1.1077,6.86603 Z M 21.8923,18.866L 22.8923,17.134L 17.8758,14.2377C 17.7935,14.9671 17.6719,15.6701 17.5152,16.3389L 21.8923,18.866 Z M 12,22C 14.2969,22 16.2321,18.9023 16.8182,14.6818L 16,15.5L 14.8666,14.3666C 14.4882,17.6295 13.3479,20 12,20C 10.4165,20 9.11958,16.7285 9.00781,12.5819L 7.00806,11.4273L 7,12C 7,17.5229 9.23857,22 12,22 Z "/>
</svg>
