<?xml version="1.0" encoding="utf-8"?>
<!DOCTYPE svg PUBLIC "-//W3C//DTD SVG 1.1//EN" "http://www.w3.org/Graphics/SVG/1.1/DTD/svg11.dtd">
<svg xmlns="http://www.w3.org/2000/svg" xmlns:xlink="http://www.w3.org/1999/xlink" version="1.1" baseProfile="full" width="24" height="24" viewBox="0 0 24.00 24.00" enable-background="new 0 0 24.00 24.00" xml:space="preserve">
	<path fill="#000000" fill-opacity="1" stroke-width="0.2" stroke-linejoin="miter" d="M 10,12L 14,16L 10,20L 10,16.9C 5.43552,16.4367 2,14.419 2,12C 2,9.58105 5.43552,7.56329 10,7.10002L 10,9.09452C 6.54955,9.42755 4,10.6021 4,12C 4,13.3979 6.54955,14.5725 10,14.9055L 10,12 Z M 20,12C 20,10.6021 17.4505,9.42755 14,9.09452L 14,7.10002C 18.5645,7.56329 22,9.58105 22,12C 22,14.1605 19.2594,16.0009 15.4217,16.6996L 16.1213,16L 14.9158,14.7945C 17.8922,14.3574 20,13.271 20,12 Z M 11,2.00001L 13,2.00001L 13,13L 11,11L 11,2.00001 Z M 11,22L 11,21L 13,19L 13,22L 11,22 Z "/>
</svg>
