<?xml version="1.0" encoding="utf-8"?>
<!DOCTYPE svg PUBLIC "-//W3C//DTD SVG 1.1//EN" "http://www.w3.org/Graphics/SVG/1.1/DTD/svg11.dtd">
<svg xmlns="http://www.w3.org/2000/svg" xmlns:xlink="http://www.w3.org/1999/xlink" version="1.1" baseProfile="full" width="24" height="24" viewBox="0 0 24.00 24.00" enable-background="new 0 0 24.00 24.00" xml:space="preserve">
	<path fill="#000000" fill-opacity="1" stroke-width="0.2" stroke-linejoin="miter" d="M 12,14L 16,10L 20,14L 16.9,14C 16.4367,18.5645 14.419,22 12,22C 10.1158,22 8.47498,19.9155 7.62268,16.8366L 9.36558,15.8304C 9.87464,18.3148 10.8635,20 12,20C 13.3979,20 14.5725,17.4505 14.9055,14L 12,14 Z M 1.1077,17.134L 13.8946,9.75146L 13.9566,10.5434L 10.5,14L 10.5359,14L 2.1077,18.866L 1.1077,17.134 Z M 21.8923,5.13398L 22.8923,6.86603L 17.8758,9.76233C 17.7935,9.03291 17.6719,8.3299 17.5152,7.66111L 21.8923,5.13398 Z M 12,2C 14.2969,2 16.2321,5.09766 16.8182,9.31816L 16,8.5L 14.8666,9.63344C 14.4882,6.3705 13.3479,4 12,4C 10.4165,4 9.11958,7.2715 9.00781,11.4181L 7.00806,12.5727L 7,12C 7,6.47716 9.23857,2 12,2 Z "/>
</svg>
