<?xml version="1.0" encoding="utf-8"?>
<!DOCTYPE svg PUBLIC "-//W3C//DTD SVG 1.1//EN" "http://www.w3.org/Graphics/SVG/1.1/DTD/svg11.dtd">
<svg xmlns="http://www.w3.org/2000/svg" xmlns:xlink="http://www.w3.org/1999/xlink" version="1.1" baseProfile="full" width="24" height="24" viewBox="0 0 24.00 24.00" enable-background="new 0 0 24.00 24.00" xml:space="preserve">
	<path fill="#000000" fill-opacity="1" stroke-width="0.2" stroke-linejoin="miter" d="M 14,12L 10,16L 14,20L 14,16.9C 18.5645,16.4367 22,14.419 22,12C 22,9.58104 18.5645,7.56329 14,7.10002L 14,9.09452C 17.4504,9.42755 20,10.6021 20,12C 20,13.3979 17.4504,14.5725 14,14.9055L 14,12 Z M 4,12C 4,10.6021 6.54954,9.42755 10,9.09452L 10,7.10002C 5.43552,7.56329 2,9.58105 2,12C 2,14.1605 4.74057,16.0009 8.57833,16.6996L 7.87868,16L 9.08418,14.7945C 6.10784,14.3574 4,13.271 4,12 Z M 13,2.00001L 11,2.00001L 11,13L 13,11L 13,2.00001 Z M 13,22L 13,21L 11,19L 11,22L 13,22 Z "/>
</svg>
