<?xml version="1.0" encoding="utf-8"?>
<!DOCTYPE svg PUBLIC "-//W3C//DTD SVG 1.1//EN" "http://www.w3.org/Graphics/SVG/1.1/DTD/svg11.dtd">
<svg xmlns="http://www.w3.org/2000/svg" xmlns:xlink="http://www.w3.org/1999/xlink" version="1.1" baseProfile="full" width="24" height="24" viewBox="0 0 24.00 24.00" enable-background="new 0 0 24.00 24.00" xml:space="preserve">
	<path fill="#000000" fill-opacity="1" stroke-width="1.33333" stroke-linejoin="miter" d="M 18.2274,11.4894C 18.2036,11.3386 17.763,10.7909 16.9097,9.84625C 16.8938,9.66367 17.1955,9.39775 17.8107,9.05244L 19.5491,7.52436C 19.9381,7.02426 20.1683,6.22251 20.2437,5.11912L 20.2199,4.86113C 20.1524,4.0832 19.5888,3.45609 18.5291,2.97187C 17.902,2.54718 16.7748,2.32095 15.1474,2.28522C 13.798,2.40033 12.0357,2.88058 9.86862,3.71805C 9.27327,4.15067 8.59456,4.57933 7.8325,5.00402L 7.84441,5.13897L 8.04683,5.05959C 8.13415,5.05165 8.18178,5.09134 8.18972,5.17072L 8.32467,5.09531L 8.39214,5.09134L 8.39611,5.15484C 8.40008,5.21835 7.92776,5.58747 6.63782,6.48447L 6.58226,6.61545C 6.27267,6.64323 5.97102,6.8655 5.67335,7.28622L 5.74876,7.40529L 6.01468,7.31797L 6.17741,7.56405C 6.49097,7.22668 6.83628,6.93694 7.21333,6.69483C 7.39988,6.74245 7.4991,6.80199 7.64596,6.85359C 8.66997,6.0955 9.68208,5.54778 10.6862,5.21041L 10.6982,5.34536C 10.5116,5.62319 10.3846,5.76607 10.3171,5.77401L 10.4164,6.02406C 10.4322,6.19473 7.86507,13.0221 3.7563,20.4436L 3.83965,20.6341C 4.19289,20.5508 4.41516,20.4634 4.58583,20.3721L 4.59773,20.5071L 5.00258,20.4714L 4.33181,22.2336L 4.46676,22.2852C 5.0383,21.6462 5.47092,21.0191 5.7686,20.4079C 7.4356,19.9197 8.70569,19.4394 9.58682,18.9671C 10.4719,18.8917 11.1467,18.6575 11.6071,18.2725L 12.5318,17.7962C 13.798,16.8199 14.7545,16.1292 15.4015,15.7204C 16.7311,14.744 17.5963,13.7915 17.9893,12.8667L 18.2274,11.4894 Z M 14.7664,13.8113L 13.0161,15.2005C 11.7142,16.0538 11.0157,16.4825 10.9125,16.4904C 8.84064,17.6295 7.5507,18.2209 7.0506,18.2646L 6.97519,18.2725C 7.0387,18.0384 7.95951,16.1531 9.74558,12.6047C 10.5315,12.5373 11.7698,12.1721 13.4566,11.5053L 13.8694,11.4696C 14.7228,11.3942 15.3618,11.5609 15.7825,11.9578L 15.8063,12.2158C 15.4928,13.1247 15.1435,13.6565 14.7664,13.8113 Z M 15.8619,8.02843C 15.6793,8.24673 15.1792,8.61982 14.3616,9.14373C 14.0917,9.16755 13.0875,9.55651 11.3491,10.3186L 11.0712,10.2709L 11.0593,10.1479C 11.0395,9.89785 11.1506,9.58429 11.3967,9.20327C 11.5317,8.48884 11.6785,8.08003 11.8412,7.9808L 13.2899,4.72222C 13.2741,4.5198 13.5836,4.36501 14.2187,4.25784L 14.4251,4.238L 14.441,4.42454L 15.6039,4.26181C 16.7549,4.16258 17.3542,4.39676 17.4019,4.95639L 17.5328,4.94448L 17.5051,4.61505L 17.6479,4.60315C 17.9853,4.78969 18.1679,5.01593 18.1917,5.28185C 18.2076,5.46443 18.1084,5.69067 17.898,5.96056C 17.8107,5.9685 17.7591,5.90499 17.7511,5.77798L 17.6083,5.78989L 17.5765,6.1868C 16.9931,7.05998 16.5684,7.50849 16.3064,7.5323L 15.8619,8.02843 Z "/>
</svg>
