<?xml version="1.0" encoding="utf-8"?>
<!DOCTYPE svg PUBLIC "-//W3C//DTD SVG 1.1//EN" "http://www.w3.org/Graphics/SVG/1.1/DTD/svg11.dtd">
<svg xmlns="http://www.w3.org/2000/svg" xmlns:xlink="http://www.w3.org/1999/xlink" version="1.1" baseProfile="full" width="24" height="24" viewBox="0 0 24.00 24.00" enable-background="new 0 0 24.00 24.00" xml:space="preserve">
	<path fill="#000000" fill-opacity="1" stroke-width="0.2" stroke-linejoin="miter" d="M 1.00001,12C 1.00001,10.1888 2.20384,8.6587 3.85502,8.16628C 5.29466,5.11301 8.40057,3.00001 12,3.00001C 15.5994,3.00001 18.7054,5.11302 20.145,8.16628C 21.7962,8.65871 23,10.1888 23,12C 23,13.8112 21.7962,15.3413 20.145,15.8337C 18.7053,18.887 15.5994,21 12,21C 8.40057,21 5.29466,18.887 3.85502,15.8337C 2.20383,15.3413 1.00001,13.8112 1.00001,12 Z M 14.5,9.25C 13.8096,9.25 13.25,9.8096 13.25,10.5C 13.25,11.1904 13.8096,11.75 14.5,11.75C 15.1904,11.75 15.75,11.1904 15.75,10.5C 15.75,9.8096 15.1904,9.25 14.5,9.25 Z M 9.5,9.25001C 8.80964,9.25001 8.25,9.80961 8.25,10.5C 8.25,11.1904 8.80964,11.75 9.5,11.75C 10.1904,11.75 10.75,11.1904 10.75,10.5C 10.75,9.80961 10.1904,9.25001 9.5,9.25001 Z M 7.5,14C 8.26,15.77 9.99,17 12,17C 14.01,17 15.74,15.77 16.5,14L 7.5,14 Z M 3,12C 3,12.8249 3.49941,13.5332 4.21237,13.8389C 4.07348,13.2485 4,12.6328 4,12C 4,11.3672 4.07348,10.7515 4.21237,10.1611C 3.49941,10.4668 3,11.1751 3,12 Z M 21,12C 21,11.1751 20.5006,10.4668 19.7876,10.1611C 19.9265,10.7515 20,11.3672 20,12C 20,12.6328 19.9265,13.2485 19.7876,13.8389C 20.5006,13.5332 21,12.8249 21,12 Z "/>
</svg>
