<?xml version="1.0" encoding="utf-8"?>
<!DOCTYPE svg PUBLIC "-//W3C//DTD SVG 1.1//EN" "http://www.w3.org/Graphics/SVG/1.1/DTD/svg11.dtd">
<svg xmlns="http://www.w3.org/2000/svg" xmlns:xlink="http://www.w3.org/1999/xlink" version="1.1" baseProfile="full" width="24" height="24" viewBox="0 0 24.00 24.00" enable-background="new 0 0 24.00 24.00" xml:space="preserve">
	<path fill="#000000" fill-opacity="1" stroke-width="1.33333" stroke-linejoin="miter" d="M 14.5,9.25C 15.1904,9.25 15.75,9.8096 15.75,10.5C 15.75,11.1904 15.1904,11.75 14.5,11.75C 13.8096,11.75 13.25,11.1904 13.25,10.5C 13.25,9.8096 13.8096,9.25 14.5,9.25 Z M 9.5,9.25C 10.1904,9.25 10.75,9.8096 10.75,10.5C 10.75,11.1904 10.1904,11.75 9.5,11.75C 8.80964,11.75 8.25,11.1904 8.25,10.5C 8.25,9.8096 8.80964,9.25 9.5,9.25 Z M 7.5,14L 16.5,14C 15.74,15.77 14.01,17 12,17C 9.99,17 8.26,15.77 7.5,14 Z M 1,12C 1,10.1888 2.20383,8.6587 3.85502,8.16628C 5.29465,5.11301 8.40057,3 12,3C 15.5994,3 18.7053,5.11301 20.145,8.16628C 21.7962,8.6587 23,10.1888 23,12C 23,13.8112 21.7962,15.3413 20.145,15.8337C 18.7053,18.887 15.5994,21 12,21C 8.40057,21 5.29465,18.887 3.85501,15.8337C 2.20383,15.3413 1,13.8112 1,12 Z M 12,5.00001C 8.82167,5.00001 6.13808,7.11825 5.28396,10.02L 5,10C 3.89543,10 3,10.8954 3,12C 3,13.1046 3.89543,14 5,14L 5.28396,13.98C 6.13808,16.8818 8.82167,19 12,19C 15.1783,19 17.8619,16.8818 18.716,13.98L 19,14C 20.1046,14 21,13.1046 21,12C 21,10.8954 20.1046,10 19,10L 18.716,10.02C 17.8619,7.11825 15.1783,5.00001 12,5.00001 Z "/>
</svg>
