<?xml version="1.0" encoding="utf-8"?>
<!DOCTYPE svg PUBLIC "-//W3C//DTD SVG 1.1//EN" "http://www.w3.org/Graphics/SVG/1.1/DTD/svg11.dtd">
<svg xmlns="http://www.w3.org/2000/svg" xmlns:xlink="http://www.w3.org/1999/xlink" version="1.1" baseProfile="full" width="24" height="24" viewBox="0 0 24.00 24.00" enable-background="new 0 0 24.00 24.00" xml:space="preserve">
	<path fill="#000000" fill-opacity="1" stroke-linejoin="round" d="M 12,3C 7.03,3 3,7.03 3,12L 0,12L 4,16L 8,12L 5,12C 5,8.13 8.13,5 12,5C 15.87,5 19,8.13 19,12C 19,15.87 15.87,19 12,19C 10.49,19 9.09,18.51 7.94,17.7L 6.52,19.14C 8.04,20.3 9.94,21 12,21C 16.97,21 21,16.97 21,12C 21,7.03 16.97,3 12,3 Z M 14,12C 14,10.9 13.1,10 12,10C 10.9,10 10,10.9 10,12C 10,13.1 10.9,14 12,14C 13.1,14 14,13.1 14,12 Z "/>
</svg>
