<?xml version="1.0" encoding="utf-8"?>
<!DOCTYPE svg PUBLIC "-//W3C//DTD SVG 1.1//EN" "http://www.w3.org/Graphics/SVG/1.1/DTD/svg11.dtd">
<svg xmlns="http://www.w3.org/2000/svg" xmlns:xlink="http://www.w3.org/1999/xlink" version="1.1" baseProfile="full" width="24" height="24" viewBox="0 0 24.00 24.00" enable-background="new 0 0 24.00 24.00" xml:space="preserve">
	<path fill="#000000" fill-opacity="1" stroke-width="0.2" stroke-linejoin="round" d="M 5.00062,15.5917L 6.41187,17.003L 10.0006,13.4092L 13.5894,17.003L 15.0006,15.5917L 11.4119,12.003L 15.0006,8.40923L 13.5894,7.00298L 10.0006,10.5917L 6.41187,7.00298L 5.00062,8.40923L 8.58937,12.003L 5.00062,15.5917 Z M 1.99688,2.99828C 0.899377,2.99828 0.000627041,3.90173 0.000627041,5.00048L 0.000627041,18.9992C 0.000627041,20.098 0.899377,21.0017 1.99688,21.0017L 16.9969,21.0017C 17.6906,21.0017 18.2281,20.6405 18.5894,20.113L 23.9994,12.003L 18.5894,3.88173C 18.2281,3.35048 17.6906,2.99828 16.9969,2.99828L 1.99688,2.99828 Z M 1.99938,5.00048L 16.9994,5.00048L 21.7209,12.0005L 16.9994,19.0005L 1.99938,19.0005L 1.99938,5.00048 Z "/>
</svg>
