<?xml version="1.0" encoding="utf-8"?>
<!DOCTYPE svg PUBLIC "-//W3C//DTD SVG 1.1//EN" "http://www.w3.org/Graphics/SVG/1.1/DTD/svg11.dtd">
<svg xmlns="http://www.w3.org/2000/svg" xmlns:xlink="http://www.w3.org/1999/xlink" version="1.1" baseProfile="full" width="24" height="24" viewBox="0 0 24.00 24.00" enable-background="new 0 0 24.00 24.00" xml:space="preserve">
	<path fill="#000000" fill-opacity="1" stroke-linejoin="round" d="M 21,16C 21,15.5107 20.9533,15.0787 20.88,14.6773L 22.448,13.896L 21.552,12.104L 20.1773,12.792C 19.6307,11.964 18.912,11.516 18.292,11.276L 18.948,9.31733L 17.052,8.68267L 16.292,10.964C 14.964,10.8333 14.172,10.3227 13.704,9.76533L 15.448,8.896L 14.552,7.104L 12.9893,7.88533C 12.9747,7.588 12.86,6.71867 12.2813,5.87467L 13.828,3.552L 12.1667,2.44267L 10.756,4.56267C 10.276,4.328 9.69867,4.15067 9,4.06267L 9,2L 7,2L 7,4.104C 6.28667,4.25067 5.73467,4.54133 5.32267,4.912L 2.704,2.292L 1.292,3.708L 4.24,6.65067C 4,7.39067 4,8 4,8L 2,8L 2,10L 4.04133,10C 4.09867,10.6307 4.20933,11.364 4.396,12.1453L 1.68267,13.052L 2.31333,14.948L 5.02133,14.0467C 5.24,14.5627 5.50533,15.0787 5.82267,15.584L 3.44267,17.1667L 4.552,18.8333L 7.068,17.1507C 7.62533,17.7133 8.28667,18.2133 9.05733,18.64L 8.104,20.552L 9.89067,21.448L 10.8907,19.448L 10.7347,19.364C 11.6827,19.6827 12.7613,19.896 14,19.9693L 14,22L 16,22L 16,19.9267C 16.756,19.8387 17.8133,19.636 18.7707,19.188L 20.292,20.708L 21.704,19.292L 20.3653,17.9533C 20.7507,17.4373 21,16.8027 21,16 Z M 8.5,11C 7.672,11 7,10.328 7,9.5C 7,8.672 7.672,8 8.5,8C 9.328,8 10,8.672 10,9.5C 10,10.328 9.328,11 8.5,11 Z M 11,14C 10.448,14 10,13.552 10,13C 10,12.448 10.448,12 11,12C 11.552,12 12,12.448 12,13C 12,13.552 11.552,14 11,14 Z M 15.5,17C 14.672,17 14,16.328 14,15.5C 14,14.672 14.672,14 15.5,14C 16.328,14 17,14.672 17,15.5C 17,16.328 16.328,17 15.5,17 Z "/>
</svg>
