<?xml version="1.0" encoding="utf-8"?>
<!DOCTYPE svg PUBLIC "-//W3C//DTD SVG 1.1//EN" "http://www.w3.org/Graphics/SVG/1.1/DTD/svg11.dtd">
<svg xmlns="http://www.w3.org/2000/svg" xmlns:xlink="http://www.w3.org/1999/xlink" version="1.1" baseProfile="full" width="24" height="24" viewBox="0 0 24.00 24.00" enable-background="new 0 0 24.00 24.00" xml:space="preserve">
	<path fill="#000000" fill-opacity="1" stroke-width="1.33333" stroke-linejoin="miter" d="M 12.3008,1.9961C 11.3347,2.0287 10.578,2.8382 10.6106,3.8042C 10.6185,4.0381 10.6732,4.2681 10.7715,4.4805L 11.0645,5.1367L 11.0645,5.1406C 11.1023,5.2734 11.0253,5.4118 10.8925,5.4496C 10.801,5.4756 10.7026,5.4475 10.6328,5.3691L 10.2051,4.8223C 9.8819,4.3966 9.38196,4.142 8.84766,4.1309C 7.88126,4.1111 7.08182,4.8785 7.06206,5.8449C 7.05365,6.2556 7.19002,6.6562 7.44727,6.9766L 7.87305,7.5215L 7.875,7.5234C 7.95693,7.6346 7.93325,7.7911 7.8221,7.873C 7.73389,7.9381 7.61361,7.9381 7.52539,7.873L 6.97852,7.4473C 6.65706,7.1884 6.25445,7.0514 5.8418,7.0605C 4.87543,7.0814 4.10891,7.8817 4.12973,8.848C 4.14125,9.3824 4.39631,9.8822 4.82227,10.2051L 5.39258,10.6504C 5.48706,10.7511 5.48202,10.9093 5.38132,11.0038C 5.30987,11.0708 5.20586,11.09 5.11523,11.0527L 5.11328,11.0547L 4.48242,10.7734C 4.26952,10.6752 4.03905,10.6207 3.80469,10.6133C 2.83858,10.5827 2.03058,11.3411 1.99998,12.3072C 1.9772,13.0266 2.39721,13.6866 3.05859,13.9707L 14.4492,19.043L 19.043,14.4492L 13.9707,3.0566C 13.6864,2.3923 13.023,1.971 12.3008,1.9961 Z M 13.1348,6.0996C 13.5469,6.0856 13.9254,6.326 14.0879,6.7051L 17.1367,13.5547L 13.1895,9.6074L 12.2598,7.5195C 11.9586,6.8694 12.4187,6.1229 13.1348,6.0996 Z M 9.8457,8.8457C 10.1157,8.8457 10.3742,8.9549 10.5625,9.1484L 15.3711,13.957C 15.7695,14.3396 15.7824,14.9727 15.3999,15.3711C 15.0173,15.7695 14.3842,15.7824 13.957,15.3711L 9.14844,10.5625C 8.75262,10.1773 8.74403,9.5441 9.12927,9.1483C 9.31748,8.9549 9.57585,8.8458 9.8457,8.8457 Z M 7.13086,12.1699C 7.26461,12.1743 7.39611,12.2056 7.51758,12.2617L 9.62695,13.2012L 13.5703,17.1445L 6.70508,14.0879C 5.69246,13.6511 6.02853,12.1372 7.13086,12.1699 Z M 20.2813,16.0391L 16.0391,20.2812L 16.8887,21.1309C 17.6462,21.8815 18.7466,22.1746 19.7773,21.8984C 20.8126,21.621 21.621,20.8126 21.8984,19.7773C 22.1746,18.7466 21.8815,17.6462 21.1309,16.8887L 20.2813,16.0391 Z "/>
</svg>
