<?xml version="1.0" encoding="utf-8"?>
<!DOCTYPE svg PUBLIC "-//W3C//DTD SVG 1.1//EN" "http://www.w3.org/Graphics/SVG/1.1/DTD/svg11.dtd">
<svg xmlns="http://www.w3.org/2000/svg" xmlns:xlink="http://www.w3.org/1999/xlink" version="1.1" baseProfile="full" width="24" height="24" viewBox="0 0 24.00 24.00" enable-background="new 0 0 24.00 24.00" xml:space="preserve">
	<path fill="#000000" fill-opacity="1" stroke-width="1.33333" stroke-linejoin="miter" d="M 14.4093,15.3767L 13.1227,16.9087L 12.368,15.5711C 12.2287,16.4071 11.9423,17.2647 11.3535,17.8535C 10.8428,18.3643 10.1587,18.4678 9.60889,18.5508C 8.74805,18.6816 8.5,18.752 8.5,19.5C 8.5,21.4775 6.36475,22 5.5,22L 5.49707,21C 5.74805,20.9971 7.5,20.9111 7.5,19.5C 7.5,17.8594 8.6792,17.6807 9.45898,17.5625C 9.92676,17.4912 10.3682,17.4248 10.6465,17.1465C 11.1612,16.6318 11.3655,15.7412 11.4466,14.9166C 9.4911,14.355 7,11.0576 7,8.03846C 7,4.72523 9.23867,3 12,3C 14.7613,3 17,4.72523 17,8.03846C 17,10.9162 14.7367,14.0469 12.8313,14.82L 14.4093,15.3767 Z "/>
</svg>
