<?xml version="1.0" encoding="utf-8"?>
<!DOCTYPE svg PUBLIC "-//W3C//DTD SVG 1.1//EN" "http://www.w3.org/Graphics/SVG/1.1/DTD/svg11.dtd">
<svg xmlns="http://www.w3.org/2000/svg" xmlns:xlink="http://www.w3.org/1999/xlink" version="1.1" baseProfile="full" width="24" height="24" viewBox="0 0 24.00 24.00" enable-background="new 0 0 24.00 24.00" xml:space="preserve">
	<path fill="#000000" fill-opacity="1" stroke-width="0.2" stroke-linejoin="miter" d="M 19,12L 19,13.5C 21.2091,13.5 23,15.2909 23,17.5C 23,18.3179 22.7545,19.0784 22.3333,19.712L 21.2376,18.6162C 21.4055,18.2803 21.5,17.9012 21.5,17.5C 21.5,16.1193 20.3807,15 19,15L 19,16.5L 16.75,14.25L 19,12 Z M 19,23L 19,21.5C 16.7909,21.5 15,19.7091 15,17.5C 15,16.6821 15.2455,15.9216 15.6667,15.2881L 16.7624,16.3838C 16.5945,16.7197 16.5,17.0988 16.5,17.5C 16.5,18.8807 17.6193,20 19,20L 19,18.5L 21.25,20.75L 19,23 Z M 10,17L 7,17L 7,14L 10,14L 10,17 Z M 10,7.00001L 10,10L 7,10L 7,7.00001L 10,7.00001 Z M 5,21C 3.9,21 3,20.1 3,19L 3,5.00001C 3,3.9 3.9,3.00001 5,3.00001L 19,3.00001C 20.1,3.00001 21,3.9 21,5.00001L 21,11.1739C 20.5185,11.0602 20.0163,11 19.5,11C 15.9101,11 13,13.9102 13,17.5C 13,18.7886 13.375,19.9897 14.0218,21L 5,21 Z M 13,9.5L 18,9.5L 18,7.50001L 13,7.50001L 13,9.5 Z M 11,13L 6,13L 6,18L 11,18L 11,13 Z M 11,6.00001L 6,6.00001L 6,11L 11,11L 11,6.00001 Z "/>
</svg>
