<?xml version="1.0" encoding="utf-8"?>
<!DOCTYPE svg PUBLIC "-//W3C//DTD SVG 1.1//EN" "http://www.w3.org/Graphics/SVG/1.1/DTD/svg11.dtd">
<svg xmlns="http://www.w3.org/2000/svg" xmlns:xlink="http://www.w3.org/1999/xlink" version="1.1" baseProfile="full" width="24" height="24" viewBox="0 0 24.00 24.00" enable-background="new 0 0 24.00 24.00" xml:space="preserve">
	<path fill="#000000" fill-opacity="1" stroke-width="1.33333" stroke-linejoin="miter" d="M 10,17L 7,17L 7,14L 10,14L 10,17 Z M 10,7L 7,7L 7,10L 10,10L 10,7 Z M 12.81,21L 5,21C 3.9,21 3,20.1 3,19L 3,5C 3,3.9 3.9,3 5,3L 19,3C 20.1,3 21,3.9 21,5L 21,12.81C 20.12,12.3 19.09,12 18,12C 14.69,12 12,14.69 12,18C 12,19.09 12.3,20.12 12.81,21 Z M 13,9.5L 18,9.5L 18,7.5L 13,7.5L 13,9.5 Z M 11,13L 6,13L 6,18L 11,18L 11,13 Z M 11,6L 6,6L 6,11L 11,11L 11,6 Z M 18,21.5C 16.34,21.5 15,20.16 15,18.5C 15,18 15.12,17.51 15.35,17.1L 14.62,16.37C 14.23,16.99 14,17.72 14,18.5C 14,20.71 15.79,22.5 18,22.5L 18,24L 20,22L 18,20M 18,14.5L 18,13L 16,15L 18,17L 18,15.5C 19.66,15.5 21,16.84 21,18.5C 21,19 20.88,19.49 20.65,19.9L 21.38,20.63C 21.77,20.01 22,19.28 22,18.5C 22,16.29 20.21,14.5 18,14.5 Z "/>
</svg>
