<?xml version="1.0" encoding="utf-8"?>
<!DOCTYPE svg PUBLIC "-//W3C//DTD SVG 1.1//EN" "http://www.w3.org/Graphics/SVG/1.1/DTD/svg11.dtd">
<svg xmlns="http://www.w3.org/2000/svg" xmlns:xlink="http://www.w3.org/1999/xlink" version="1.1" baseProfile="full" width="24" height="24" viewBox="0 0 24.00 24.00" enable-background="new 0 0 24.00 24.00" xml:space="preserve">
	<path fill="#000000" fill-opacity="1" stroke-width="1.33333" stroke-linejoin="miter" d="M 13,7.5L 18,7.5L 18,9.5L 13,9.5L 13,7.5 Z M 13,14.5L 18,14.5L 18,16.5L 13,16.5L 13,14.5 Z M 19,3C 20.1,3 21,3.9 21,5L 21,19C 21,20.1 20.1,21 19,21L 5,21C 3.9,21 3,20.1 3,19L 3,5C 3,3.9 3.9,3 5,3L 19,3 Z M 19,19L 19,5L 5,5L 5,19L 19,19 Z M 11,6L 11,11L 6,11L 6,6L 11,6 Z M 10,10L 10,7L 7,7L 7,10L 10,10 Z M 11,13L 11,18L 6,18L 6,13L 11,13 Z M 10,17L 10,14L 7,14L 7,17L 10,17 Z "/>
</svg>
