<?xml version="1.0" encoding="utf-8"?>
<!DOCTYPE svg PUBLIC "-//W3C//DTD SVG 1.1//EN" "http://www.w3.org/Graphics/SVG/1.1/DTD/svg11.dtd">
<svg xmlns="http://www.w3.org/2000/svg" xmlns:xlink="http://www.w3.org/1999/xlink" version="1.1" baseProfile="full" width="24" height="24" viewBox="0 0 24.00 24.00" enable-background="new 0 0 24.00 24.00" xml:space="preserve">
	<path fill="#000000" fill-opacity="1" stroke-width="1.33333" stroke-linejoin="miter" d="M 17.73,12.02L 21.71,8.04C 22.1,7.65 22.1,7.02 21.71,6.63L 17.37,2.29C 16.98,1.9 16.35,1.9 15.96,2.29L 11.98,6.27L 8,2.29C 7.8,2.1 7.55,2 7.29,2C 7.04,2 6.78,2.1 6.59,2.29L 2.25,6.63C 1.86,7.02 1.86,7.65 2.25,8.04L 6.23,12.02L 2.25,16C 1.86,16.39 1.86,17.02 2.25,17.41L 6.59,21.75C 6.98,22.14 7.61,22.14 8,21.75L 11.98,17.77L 15.96,21.75C 16.16,21.95 16.41,22.04 16.67,22.04C 16.93,22.04 17.18,21.94 17.38,21.75L 21.72,17.41C 22.11,17.02 22.11,16.39 21.72,16L 17.73,12.02 Z M 12,9C 12.55,9 13,9.45 13,10C 13,10.55 12.55,11 12,11C 11.45,11 11,10.55 11,10C 11,9.45 11.45,9 12,9 Z M 7.29,10.96L 3.66,7.34L 7.29,3.71L 10.91,7.33L 7.29,10.96 Z M 10,13C 9.45,13 9,12.55 9,12C 9,11.45 9.45,11 10,11C 10.55,11 11,11.45 11,12C 11,12.55 10.55,13 10,13 Z M 12,15C 11.45,15 11,14.55 11,14C 11,13.45 11.45,13 12,13C 12.55,13 13,13.45 13,14C 13,14.55 12.55,15 12,15 Z M 14,11C 14.55,11 15,11.45 15,12C 15,12.55 14.55,13 14,13C 13.45,13 13,12.55 13,12C 13,11.45 13.45,11 14,11 Z M 16.66,20.34L 13.03,16.72L 16.66,13.09L 20.28,16.71L 16.66,20.34 Z "/>
</svg>
