<?xml version="1.0" encoding="utf-8"?>
<!DOCTYPE svg PUBLIC "-//W3C//DTD SVG 1.1//EN" "http://www.w3.org/Graphics/SVG/1.1/DTD/svg11.dtd">
<svg xmlns="http://www.w3.org/2000/svg" xmlns:xlink="http://www.w3.org/1999/xlink" version="1.1" baseProfile="full" width="24" height="24" viewBox="0 0 24.00 24.00" enable-background="new 0 0 24.00 24.00" xml:space="preserve">
	<path fill="#000000" fill-opacity="1" stroke-width="0.2" stroke-linejoin="round" d="M 14,17L 22,17L 22,19L 14,19L 14,17 Z M 11.5,1L 21,6L 21,8L 2,8L 2,6L 11.5,1 Z M 16,10L 19,10L 19,12.083L 18,12C 17.2987,12 16.6256,12.1203 16,12.3414L 16,10 Z M 2,22L 2,19L 12.083,19C 12.2745,20.1416 12.7884,21.1738 13.5278,22L 2,22 Z M 10,10L 13,10L 13,14.6822C 12.5436,15.3686 12.2248,16.1543 12.083,17L 10,17L 10,10 Z M 4,10L 7,10L 7,17L 4,17L 4,10 Z "/>
</svg>
