<?xml version="1.0" encoding="utf-8"?>
<!DOCTYPE svg PUBLIC "-//W3C//DTD SVG 1.1//EN" "http://www.w3.org/Graphics/SVG/1.1/DTD/svg11.dtd">
<svg xmlns="http://www.w3.org/2000/svg" xmlns:xlink="http://www.w3.org/1999/xlink" version="1.1" baseProfile="full" width="24" height="24" viewBox="0 0 24.00 24.00" enable-background="new 0 0 24.00 24.00" xml:space="preserve">
	<path fill="#000000" fill-opacity="1" stroke-width="0.2" stroke-linejoin="miter" d="M 2,15L 2,12L 5,12L 5,10L 9,13.5L 5,17L 5,15L 2,15 Z M 22,8.7L 22,10L 10,10L 10,8.7L 16,5.00001L 22,8.7 Z M 10,17L 22,17L 22,19L 10,19L 10,17 Z M 15,11L 17,11L 17,16L 15,16L 15,11 Z M 11,11L 13,11L 13,16L 11,16L 11,11 Z M 19,11L 21,11L 21,16L 19,16L 19,11 Z "/>
</svg>
