<?xml version="1.0" encoding="utf-8"?>
<!DOCTYPE svg PUBLIC "-//W3C//DTD SVG 1.1//EN" "http://www.w3.org/Graphics/SVG/1.1/DTD/svg11.dtd">
<svg xmlns="http://www.w3.org/2000/svg" xmlns:xlink="http://www.w3.org/1999/xlink" version="1.1" baseProfile="full" width="24" height="24" viewBox="0 0 24.00 24.00" enable-background="new 0 0 24.00 24.00" xml:space="preserve">
	<path fill="#000000" fill-opacity="1" stroke-width="1.33333" stroke-linejoin="miter" d="M 6.5,10L 4.5,10L 4.5,17L 6.5,17L 6.5,10 Z M 12.5,10L 10.5,10L 10.5,17L 12.5,17L 12.5,10 Z M 21,19L 2,19L 2,21L 21,21L 21,19 Z M 18.5,10L 16.5,10L 16.5,17L 18.5,17L 18.5,10 Z M 11.5,3.26L 16.71,6L 6.29,6L 11.5,3.26M 11.5,1L 2,6L 2,8L 21,8L 21,6L 11.5,1 Z "/>
</svg>
