<?xml version="1.0" encoding="utf-8"?>
<!DOCTYPE svg PUBLIC "-//W3C//DTD SVG 1.1//EN" "http://www.w3.org/Graphics/SVG/1.1/DTD/svg11.dtd">
<svg xmlns="http://www.w3.org/2000/svg" xmlns:xlink="http://www.w3.org/1999/xlink" version="1.1" baseProfile="full" width="24" height="24" viewBox="0 0 24.00 24.00" enable-background="new 0 0 24.00 24.00" xml:space="preserve">
	<path fill="#000000" fill-opacity="1" stroke-width="0.2" stroke-linejoin="miter" d="M 15,15L 15,12L 18,12L 18,10L 22,13.5L 18,17L 18,15L 15,15 Z M 14,8.7L 14,10L 2,10L 2,8.7L 8,5.00001L 14,8.7 Z M 2,17L 14,17L 14,19L 2,19L 2,17 Z M 7,11L 9,11L 9,16L 7,16L 7,11 Z M 3,11L 5,11L 5,16L 3,16L 3,11 Z M 11,11L 13,11L 13,16L 11,16L 11,11 Z "/>
</svg>
