<?xml version="1.0" encoding="utf-8"?>
<!DOCTYPE svg PUBLIC "-//W3C//DTD SVG 1.1//EN" "http://www.w3.org/Graphics/SVG/1.1/DTD/svg11.dtd">
<svg xmlns="http://www.w3.org/2000/svg" xmlns:xlink="http://www.w3.org/1999/xlink" version="1.1" baseProfile="full" width="24" height="24" viewBox="0 0 24.00 24.00" enable-background="new 0 0 24.00 24.00" xml:space="preserve">
	<path fill="#000000" fill-opacity="1" stroke-width="1.33333" stroke-linejoin="miter" d="M 11.9609,1.2109C 11.3009,2.7609 10.6404,4.3103 10.6504,5.8203C 10.6604,6.4203 10.7695,6.9991 10.9395,7.6191C 10.8595,7.4591 10.7699,7.3099 10.6699,7.1699C 9.82992,5.9999 8.17,5 6.5,4C 6.5,4.7961 6.50365,5.5949 6.68164,6.3574L 13,12.6758L 13,10.6992C 14.5,9.7992 15.9199,8.8801 16.6699,7.8301C 17.4999,6.6701 17.5,5.33 17.5,4C 15.83,5 14.1701,5.9999 13.3301,7.1699C 13.2301,7.3099 13.1503,7.4498 13.0703,7.5898C 13.2503,6.9598 13.3596,6.3195 13.3496,5.6895C 13.3396,4.1795 12.6509,2.6909 11.9609,1.2109 Z M 3.27734,5.5L 2,6.7676L 6.64063,11.4082C 6.7531,11.9903 6.95387,12.5543 7.33008,13.0801C 8.08008,14.1301 9.5,15.0492 11,15.9492L 11,18.2305L 10.6699,17.6699C 9.82992,16.4999 8.17,15.5 6.5,14.5C 6.5,15.83 6.50008,17.1701 7.33008,18.3301C 8.08008,19.3801 9.5,20.2992 11,21.1992L 11,23L 13,23L 13,21.1992C 13.7378,20.7565 14.4464,20.3071 15.0742,19.8418L 18.7324,23.5L 20,22.2227C 14.0061,16.2287 9.09541,11.3181 3.27734,5.5 Z M 17.5,9.25C 15.83,10.25 14.1701,11.2499 13.3301,12.4199L 13.1172,12.793L 14.9844,14.6602C 15.6746,14.1581 16.2705,13.6392 16.6699,13.0801C 17.4999,11.9201 17.5,10.58 17.5,9.25 Z M 17.5,14.5C 16.934,14.8389 16.3818,15.1799 15.8496,15.5254L 17.293,16.9687C 17.4982,16.1731 17.5,15.3348 17.5,14.5 Z "/>
</svg>
