<?xml version="1.0" encoding="utf-8"?>
<!DOCTYPE svg PUBLIC "-//W3C//DTD SVG 1.1//EN" "http://www.w3.org/Graphics/SVG/1.1/DTD/svg11.dtd">
<svg xmlns="http://www.w3.org/2000/svg" xmlns:xlink="http://www.w3.org/1999/xlink" version="1.1" baseProfile="full" width="24" height="24" viewBox="0 0 24.00 24.00" enable-background="new 0 0 24.00 24.00" xml:space="preserve">
	<path fill="#000000" fill-opacity="1" stroke-linejoin="round" d="M 18,19L 19,19L 19,21L 5,21L 5,19L 6,19L 6,13L 5,13L 5,11L 6,11L 6,5L 5,5L 5,3L 19,3L 19,5L 18,5L 18,11L 19,11L 19,13L 18,13L 18,19 Z M 9,13C 9,14.6569 10.3431,16 12,16C 13.6569,16 15,14.6569 15,13C 15,11 12,7.62501 12,7.62501C 12,7.62501 9,11 9,13 Z "/>
</svg>
