<?xml version="1.0" encoding="utf-8"?>
<!DOCTYPE svg PUBLIC "-//W3C//DTD SVG 1.1//EN" "http://www.w3.org/Graphics/SVG/1.1/DTD/svg11.dtd">
<svg xmlns="http://www.w3.org/2000/svg" xmlns:xlink="http://www.w3.org/1999/xlink" version="1.1" baseProfile="full" width="24" height="24" viewBox="0 0 24.00 24.00" enable-background="new 0 0 24.00 24.00" xml:space="preserve">
	<path fill="#000000" fill-opacity="1" stroke-width="0.2" stroke-linejoin="round" d="M 2,16.25C 2,16.25 4,3.75 12,3.75C 20,3.75 22,16.25 22,16.25C 22,16.25 20,20.25 12,20.25C 4,20.25 2,16.25 2,16.25 Z M 3.35,15.65C 3.35,15.65 4.3,19 12,19C 17,19 20,17.8 20.65,15.85C 21.2999,13.9 15.65,7.60002 14.65,7.60002C 13.65,7.60002 11.2,12 10.45,12C 8.45,12 8.89999,10 7.14999,10C 5.4,10 3.35,15.65 3.35,15.65 Z "/>
</svg>
