<?xml version="1.0" encoding="utf-8"?>
<!DOCTYPE svg PUBLIC "-//W3C//DTD SVG 1.1//EN" "http://www.w3.org/Graphics/SVG/1.1/DTD/svg11.dtd">
<svg xmlns="http://www.w3.org/2000/svg" xmlns:xlink="http://www.w3.org/1999/xlink" version="1.1" baseProfile="full" width="24" height="24" viewBox="0 0 24.00 24.00" enable-background="new 0 0 24.00 24.00" xml:space="preserve">
	<path fill="#000000" fill-opacity="1" stroke-width="1.33333" stroke-linejoin="miter" d="M 19.9844,2C 19.7246,2.0041 19.4766,2.1092 19.293,2.293L 9.79297,11.793C 9.75378,11.8316 9.71785,11.8734 7.23438,15.3516L 4,18.5859L 3.70703,18.293C 3.51876,18.0994 3.26024,17.9902 2.99023,17.9902C 2.43789,17.9904 1.99025,18.4383 1.9904,18.9906C 1.99047,19.2604 2.09959,19.5188 2.29297,19.707L 4.29297,21.707C 4.67551,22.1055 5.30861,22.1183 5.70703,21.7358C 6.10546,21.3532 6.11833,20.7202 5.70703,20.293L 5.41406,20L 8.64453,16.7695L 12.207,14.207L 21.707,4.707C 22.0974,4.3165 22.0974,3.6835 21.707,3.293L 20.707,2.293C 20.5157,2.1016 20.255,1.9959 19.9844,2 Z M 18.5,13C 17.1193,13 16,14.1193 16,15.5C 16,16.8807 17.1193,18 18.5,18C 19.8807,18 21,16.8807 21,15.5C 21,14.1193 19.8807,13 18.5,13 Z "/>
</svg>
