<?xml version="1.0" encoding="utf-8"?>
<!DOCTYPE svg PUBLIC "-//W3C//DTD SVG 1.1//EN" "http://www.w3.org/Graphics/SVG/1.1/DTD/svg11.dtd">
<svg xmlns="http://www.w3.org/2000/svg" xmlns:xlink="http://www.w3.org/1999/xlink" version="1.1" baseProfile="full" width="24" height="24" viewBox="0 0 24.00 24.00" enable-background="new 0 0 24.00 24.00" xml:space="preserve">
	<path fill="#000000" fill-opacity="1" stroke-width="1.33333" stroke-linejoin="miter" d="M 12,2C 9.5,2 7.25,2.9004 5.5,4.4004C 5.97848,4.8096 6.41068,5.2692 6.80469,5.7617L 7.89258,5.1348L 8.89258,6.8652L 7.89063,7.4434C 8.44863,8.5303 8.81869,9.728 8.94531,11L 10,11L 10,12L 10,13L 8.94531,13C 8.81869,14.272 8.44863,15.4697 7.89063,16.5566L 8.89258,17.1348L 7.89258,18.8652L 6.80469,18.2383C 6.41068,18.7308 5.97848,19.1904 5.5,19.5996C 7.25,21.0996 9.5,22 12,22C 14.5,22 16.75,21.0996 18.5,19.5996C 18.0208,19.1898 17.5878,18.7297 17.1934,18.2363L 16.1055,18.8652L 15.1055,17.1348L 16.1094,16.5547C 15.5519,15.4682 15.1812,14.2713 15.0547,13L 13.998,13L 13.998,11L 15.0547,11C 15.1812,9.7287 15.5519,8.5318 16.1094,7.4453L 15.1055,6.8652L 16.1055,5.1348L 17.1934,5.7637C 17.5878,5.2703 18.0208,4.8102 18.5,4.4004C 16.75,2.9004 14.5,2 12,2 Z M 4.11914,5.8496C 2.78914,7.5496 2,9.68 2,12C 2,14.32 2.78914,16.4504 4.11914,18.1504C 4.45517,17.8697 4.76085,17.5539 5.04688,17.2227L 4.42773,16.8652L 5.42773,15.1348L 6.16016,15.5586C 6.55304,14.7695 6.82,13.9101 6.93359,13L 6,13L 6,12L 6,11L 6.93359,11C 6.82011,10.0908 6.55435,9.2318 6.16211,8.4434L 5.42969,8.8652L 4.42969,7.1348L 5.04688,6.7773C 4.76085,6.4461 4.45517,6.1303 4.11914,5.8496 Z M 19.8809,5.8496C 19.5445,6.1306 19.2394,6.4476 18.9531,6.7793L 19.5684,7.1348L 18.5684,8.8652L 17.8379,8.4434C 17.4457,9.2318 17.1799,10.0908 17.0664,11L 17.998,11L 17.998,13L 17.0664,13C 17.1799,13.9092 17.4457,14.7682 17.8379,15.5566L 18.5703,15.1348L 19.5703,16.8652L 18.9531,17.2227C 19.2392,17.5539 19.5448,17.8697 19.8809,18.1504C 21.2109,16.4504 22,14.32 22,12C 22,9.68 21.2109,7.5496 19.8809,5.8496 Z "/>
</svg>
