<?xml version="1.0" encoding="utf-8"?>
<!DOCTYPE svg PUBLIC "-//W3C//DTD SVG 1.1//EN" "http://www.w3.org/Graphics/SVG/1.1/DTD/svg11.dtd">
<svg xmlns="http://www.w3.org/2000/svg" xmlns:xlink="http://www.w3.org/1999/xlink" version="1.1" baseProfile="full" width="24" height="24" viewBox="0 0 24.00 24.00" enable-background="new 0 0 24.00 24.00" xml:space="preserve">
	<path fill="#000000" fill-opacity="1" stroke-width="1.33333" stroke-linejoin="miter" d="M 21,2L 3,2C 1.89543,2 1,2.8954 1,4L 1,16C 1,17.1046 1.89543,18 3,18L 5,18L 5,14L 19,14L 19,18L 21,18C 22.1046,18 23,17.1046 23,16L 23,4C 23,2.8954 22.1046,2 21,2 Z M 17,12L 15,12L 15,9L 9,9L 9,12L 7,12L 7,9C 7,7.8954 7.89543,7 9,7L 15,7C 16.1046,7 17,7.8954 17,9L 17,12 Z M 7,16L 7,19.5L 8,23L 10,21L 12,23L 14,21L 16,23L 17,19.5L 17,16L 7,16 Z "/>
</svg>
