<?xml version="1.0" encoding="utf-8"?>
<!DOCTYPE svg PUBLIC "-//W3C//DTD SVG 1.1//EN" "http://www.w3.org/Graphics/SVG/1.1/DTD/svg11.dtd">
<svg xmlns="http://www.w3.org/2000/svg" xmlns:xlink="http://www.w3.org/1999/xlink" version="1.1" baseProfile="full" width="24" height="24" viewBox="0 0 24.00 24.00" enable-background="new 0 0 24.00 24.00" xml:space="preserve">
	<path fill="#000000" fill-opacity="1" stroke-width="1.33333" stroke-linejoin="miter" d="M 2.34375,14.625C 2.9375,14.4062 3.5625,14.2969 4.21875,14.2969C 5.5625,14.2969 6.73438,14.7187 7.73438,15.5625L 4.59375,18.7031C 3.53125,17.4844 2.78125,16.125 2.34375,14.625 Z M 15.5625,9.7969C 17.5313,11.2656 19.6563,11.625 21.9375,10.875C 21.9687,11.0937 21.9844,11.4687 21.9844,12C 21.9844,13.0312 21.75,14.1797 21.2813,15.4453C 20.8125,16.7109 20.2344,17.7344 19.5469,18.5156L 13.2188,12.1875L 15.5625,9.7969 Z M 8.76563,16.6406C 9.82813,18.1719 10.0469,19.8437 9.42188,21.6562C 7.98437,21.25 6.73438,20.6094 5.67188,19.7344L 8.76563,16.6406 Z M 12.1875,13.2187L 18.5156,19.5469C 16.3281,21.4531 13.7813,22.25 10.875,21.9375C 11.0938,21.2812 11.2031,20.5625 11.2031,19.7812C 11.2031,19.1562 11.0625,18.4297 10.7813,17.6016C 10.5,16.7734 10.1719,16.0937 9.79688,15.5625L 12.1875,13.2187 Z M 8.8125,14.4844C 7.875,13.6719 6.79688,13.1484 5.57813,12.9141C 4.35938,12.6797 3.1875,12.75 2.0625,13.125C 2.03125,12.9062 2.01563,12.5312 2.01563,12C 2.01563,10.9687 2.25,9.8203 2.71875,8.5547C 3.1875,7.2891 3.76563,6.2656 4.45313,5.4844L 11.1094,12.1875L 8.8125,14.4844 Z M 15.5625,7.7344C 14.2188,6.0781 13.9062,4.2813 14.625,2.3437C 15.25,2.5 15.9609,2.8047 16.7578,3.2578C 17.5547,3.7109 18.2031,4.1562 18.7031,4.5937L 15.5625,7.7344 Z M 21.6563,9.375C 21.0625,9.5937 20.4375,9.7031 19.7813,9.7031C 18.6875,9.7031 17.6406,9.375 16.6406,8.7187L 19.7344,5.6719C 20.6094,6.7656 21.25,8 21.6563,9.375 Z M 12.1875,11.1094L 5.48438,4.4531C 7.67188,2.5469 10.2188,1.75 13.125,2.0625C 12.9063,2.7187 12.7969,3.4375 12.7969,4.2187C 12.7969,4.9375 12.9609,5.75 13.2891,6.6562C 13.6172,7.5625 14.0156,8.2812 14.4844,8.8125L 12.1875,11.1094 Z "/>
</svg>
