<?xml version="1.0" encoding="utf-8"?>
<!DOCTYPE svg PUBLIC "-//W3C//DTD SVG 1.1//EN" "http://www.w3.org/Graphics/SVG/1.1/DTD/svg11.dtd">
<svg xmlns="http://www.w3.org/2000/svg" xmlns:xlink="http://www.w3.org/1999/xlink" version="1.1" baseProfile="full" width="24" height="24" viewBox="0 0 24.00 24.00" enable-background="new 0 0 24.00 24.00" xml:space="preserve">
	<path fill="#000000" fill-opacity="1" stroke-width="0.2" stroke-linejoin="round" d="M 11.667,4C 12.4033,4 13,4.59701 13,5.33301L 13,20.667C 13,21.403 12.4033,22 11.667,22L 2.33299,22C 1.59668,22 1,21.403 1,20.667L 1,5.33301C 1,4.59701 1.59668,4 2.33299,4L 4,4L 4.0006,2.00196L 10,2L 10,4L 11.667,4 Z M 15.0006,12.002L 23.0006,12.002L 23.0006,14.002L 15.0006,14.002L 15.0006,12.002 Z M 3,13L 11,13L 11,6L 3,6L 3,13 Z "/>
</svg>
