<?xml version="1.0" encoding="utf-8"?>
<!DOCTYPE svg PUBLIC "-//W3C//DTD SVG 1.1//EN" "http://www.w3.org/Graphics/SVG/1.1/DTD/svg11.dtd">
<svg xmlns="http://www.w3.org/2000/svg" xmlns:xlink="http://www.w3.org/1999/xlink" version="1.1" baseProfile="full" width="24" height="24" viewBox="0 0 24.00 24.00" enable-background="new 0 0 24.00 24.00" xml:space="preserve">
	<path fill="#000000" fill-opacity="1" stroke-width="0.2" stroke-linejoin="round" d="M 16.6664,3.99805C 17.4027,3.99805 17.9994,4.59505 17.9994,5.33105L 17.9994,20.665C 17.9994,21.401 17.4027,21.998 16.6664,21.998L 7.33239,21.998C 6.59608,21.998 5.9994,21.401 5.9994,20.665L 5.9994,5.33105C 5.9994,4.59505 6.59608,3.99805 7.33239,3.99805L 8.9994,3.99805L 9,2L 14.9994,1.99805L 14.9994,3.99805L 16.6664,3.99805 Z M 16,14.0001L 16,12.0001L 13,12L 13,9.00008L 11,9.00008L 11,12L 8,12.0001L 8,14.0001L 11,14L 11,17.0001L 13,17.0001L 13,14L 16,14.0001 Z "/>
</svg>
