<?xml version="1.0" encoding="utf-8"?>
<!DOCTYPE svg PUBLIC "-//W3C//DTD SVG 1.1//EN" "http://www.w3.org/Graphics/SVG/1.1/DTD/svg11.dtd">
<svg xmlns="http://www.w3.org/2000/svg" xmlns:xlink="http://www.w3.org/1999/xlink" version="1.1" baseProfile="full" width="24" height="24" viewBox="0 0 24.00 24.00" enable-background="new 0 0 24.00 24.00" xml:space="preserve">
	<path fill="#000000" fill-opacity="1" stroke-width="1.33333" stroke-linejoin="miter" d="M 5,2L 5,4L 3.33008,4C 2.59554,4 2.00004,4.5954 2,5.3301L 2,20.6699C 2,21.3999 2.60008,22 3.33008,22L 12.6699,22C 13.4045,22 14,21.4046 14,20.6699L 14,5.3301C 14,4.6001 13.3999,4 12.6699,4L 11,4L 11,2L 5,2 Z M 19,8L 19,11.7891L 16.7109,9.5L 16,10.2109L 18.7891,13L 16,15.7891L 16.7109,16.5L 19,14.2109L 19,18L 19.5,18L 22.3496,15.1406L 20.2109,13L 22.3496,10.8496L 19.5,8L 19,8 Z M 20,9.9102L 20.9395,10.8496L 20,11.7891L 20,9.9102 Z M 20,14.2109L 20.9395,15.1406L 20,16.0801L 20,14.2109 Z "/>
</svg>
