<?xml version="1.0" encoding="utf-8"?>
<!DOCTYPE svg PUBLIC "-//W3C//DTD SVG 1.1//EN" "http://www.w3.org/Graphics/SVG/1.1/DTD/svg11.dtd">
<svg xmlns="http://www.w3.org/2000/svg" xmlns:xlink="http://www.w3.org/1999/xlink" version="1.1" baseProfile="full" width="24" height="24" viewBox="0 0 24.00 24.00" enable-background="new 0 0 24.00 24.00" xml:space="preserve">
	<path fill="#000000" fill-opacity="1" stroke-width="1.33333" stroke-linejoin="miter" d="M 20.07,4.93L 18.66,6.34C 21.7859,9.4625 21.7887,14.5278 18.66,17.66L 20.07,19.07C 23.9738,15.165 23.9738,8.835 20.07,4.93 Z M 17.24,7.76L 15.83,9.17C 17.393,10.7312 17.3944,13.2639 15.83,14.83L 17.24,16.24C 19.5796,13.8975 19.5796,10.1025 17.24,7.76 Z M 13,4L 11,4L 11,2L 5,2L 5,4L 3,4C 2.44772,4 2,4.4477 2,5L 2,21C 2,21.5523 2.44772,22 3,22L 13,22C 13.5523,22 14,21.5523 14,21L 14,5C 14,4.4477 13.5523,4 13,4 Z M 12,16L 4,16L 4,6L 12,6L 12,16 Z "/>
</svg>
