<?xml version="1.0" encoding="utf-8"?>
<!DOCTYPE svg PUBLIC "-//W3C//DTD SVG 1.1//EN" "http://www.w3.org/Graphics/SVG/1.1/DTD/svg11.dtd">
<svg xmlns="http://www.w3.org/2000/svg" xmlns:xlink="http://www.w3.org/1999/xlink" version="1.1" baseProfile="full" width="24" height="24" viewBox="0 0 24.00 24.00" enable-background="new 0 0 24.00 24.00" xml:space="preserve">
	<path fill="#000000" fill-opacity="1" stroke-width="1.33333" stroke-linejoin="miter" d="M 5,2L 5,4L 3.33008,4C 2.59554,4 2.00004,4.5954 2,5.3301L 2,20.6602C 2,21.4002 2.60008,22 3.33008,22L 12.6699,22C 13.3999,22 14,21.4002 14,20.6602L 14,5.3301C 14,4.5901 13.3999,4 12.6699,4L 11,4L 11,2L 5,2 Z M 8,6C 10.2091,6 12,7.7909 12,10C 12,10.88 11.6403,11.68 11.0703,12.25L 10.1699,13.1699C 9.62992,13.7099 9.24984,14.18 9.08984,15L 7.05078,15C 7.16078,14.1 7.55992,13.2799 8.16992,12.6699L 9.41016,11.4102C 9.78016,11.0502 10,10.55 10,10C 10,8.89 9.1,8 8,8C 6.89543,8 6,8.8954 6,10L 4,10C 4,7.7909 5.79086,6 8,6 Z M 19,8L 19,11.7891L 16.7109,9.5L 16,10.2109L 18.7891,13L 16,15.7891L 16.7109,16.5L 19,14.2109L 19,18L 19.5,18L 22.3496,15.1406L 20.2109,13L 22.3496,10.8496L 19.5,8L 19,8 Z M 20,9.9102L 20.9395,10.8496L 20,11.7891L 20,9.9102 Z M 20,14.2109L 20.9395,15.1406L 20,16.0801L 20,14.2109 Z M 7,17L 9,17L 9,19L 7,19L 7,17 Z "/>
</svg>
