<?xml version="1.0" encoding="utf-8"?>
<!DOCTYPE svg PUBLIC "-//W3C//DTD SVG 1.1//EN" "http://www.w3.org/Graphics/SVG/1.1/DTD/svg11.dtd">
<svg xmlns="http://www.w3.org/2000/svg" xmlns:xlink="http://www.w3.org/1999/xlink" version="1.1" baseProfile="full" width="24" height="24" viewBox="0 0 24.00 24.00" enable-background="new 0 0 24.00 24.00" xml:space="preserve">
	<path fill="#000000" fill-opacity="1" stroke-width="0.2" stroke-linejoin="round" d="M 15.066,12.252L 14.171,13.17C 13.634,13.7069 13.251,14.179 13.087,14.998L 11.05,14.998C 11.164,14.0959 11.559,13.2809 12.171,12.67L 13.414,11.412C 13.775,11.05 13.999,10.55 13.999,9.99796C 13.999,8.89395 13.104,7.99796 11.999,7.99796C 10.895,7.99796 9.99896,8.89395 9.99896,9.99796L 7.99899,9.99796C 7.99899,7.78894 9.78998,5.99796 11.999,5.99796C 14.209,5.99796 15.999,7.78894 15.999,9.99796C 15.999,10.878 15.643,11.675 15.066,12.252 Z M 12.999,18.998L 10.999,18.998L 10.999,16.998L 12.999,16.998M 16.666,3.99796L 14.999,3.99796L 14.999,1.99796L 8.99896,1.99796L 8.99896,3.99796L 7.33298,3.99796C 6.59598,3.99796 5.99899,4.59494 5.99899,5.33194L 5.99899,20.6649C 5.99899,21.4009 6.59598,21.998 7.33298,21.998L 16.666,21.998C 17.402,21.998 17.999,21.4009 17.999,20.6649L 17.999,5.33194C 17.999,4.59494 17.402,3.99796 16.666,3.99796 Z "/>
</svg>
