<?xml version="1.0" encoding="utf-8"?>
<!DOCTYPE svg PUBLIC "-//W3C//DTD SVG 1.1//EN" "http://www.w3.org/Graphics/SVG/1.1/DTD/svg11.dtd">
<svg xmlns="http://www.w3.org/2000/svg" xmlns:xlink="http://www.w3.org/1999/xlink" version="1.1" baseProfile="full" width="24" height="24" viewBox="0 0 24.00 24.00" enable-background="new 0 0 24.00 24.00" xml:space="preserve">
	<path fill="#000000" fill-opacity="1" stroke-width="1.33333" stroke-linejoin="miter" d="M 19.9209,10.7552C 19.9209,10.7552 22.4865,12.242 22.4865,13.8888C 22.4865,15.4843 19.4844,16.0625 16.1783,15.9026C 16.1783,15.9026 14.7735,17.8693 13.4241,18.704C 14.876,21.4377 15.9793,22.5 15.965,22.5C 15.965,22.5 15.2344,22.6875 12.9785,19.0442C 11.6562,19.8906 10.1719,20.2344 9.55629,19.7027C 8.94071,19.1711 9.42187,18.2813 9.68002,17.8487C 9.40876,18.0056 7.98625,18.825 6.74877,18.825C 5.26401,18.825 5.05483,17.7176 5.05483,17.1536C 5.05483,15.0167 7.11996,12.0225 7.11996,12.0225C 7.11996,12.0225 6.15677,9.87511 6.05356,8.2245C 4.17299,8.06044 2.02377,8.39266 1.53402,8.54218C 1.39756,8.54245 1.84434,8.22186 1.99301,8.17938C 2.15092,8.13427 3.91049,7.66669 6.00024,7.66669C 6.00024,5.92968 6.34887,4.32802 7.40707,4.32802C 8.131,4.32802 8.70727,5.44774 8.70727,5.44774C 8.70727,5.44774 8.69701,1.49999 10.7396,1.49999C 12.7986,1.49999 14.9888,6.11014 14.9888,6.11014C 14.9888,6.11014 17.2242,6.32343 18.8525,7.08632C 19.5053,5.72665 20.0907,5.10838 20.811,3.00731C 20.9844,3.70313 20.2031,5.51563 19.3508,7.30165L 19.35,7.30128L 19.3488,7.3037C 19.3488,7.3037 21.6477,8.49931 21.6477,9.82616C 21.6477,10.8413 19.9209,10.7552 19.9209,10.7552 Z M 10.6781,18.583C 11.3594,18.6875 12.4089,18.1011 12.3966,18.1011L 11.5756,16.5693L 10.3969,17.3979C 10.3899,17.4087 9.64062,18.375 10.6781,18.583 Z M 20.1465,9.76259C 20.1465,9.09609 18.9468,8.3455 18.8135,8.26757L 17.8866,9.74824L 19.1704,10.3655C 19.5908,10.3389 20.1465,10.345 20.1465,9.76259 Z M 8.00385,5.62822C 7.70443,5.62822 7.0933,6.07323 7.0933,7.63593L 8.82621,7.69951L 8.71957,6.30292C 8.59858,5.99325 8.30326,5.62822 8.00385,5.62822 Z M 10.1818,15.7775C 8.92187,15.125 8.15625,14.0625 7.54037,12.9003C 7.54037,12.9003 5.95614,15.5545 6.97026,16.2225C 7.98437,16.8906 9.64062,16.1563 10.1818,15.7775 Z M 12.9708,17.7627C 14.1094,16.8906 17.1875,14.7344 17.4477,11.0812C 14.5746,9.43652 10.6247,8.70849 10.6247,8.70849C 10.6247,8.70849 10.6145,8.21015 10.6965,7.86152C 11.6418,7.97223 14.5857,8.47451 17.0259,9.42982C 16.3464,8.28397 15.8358,7.84716 15.3662,7.49442C 16.531,7.76103 17.3575,9.25605 17.3575,9.25605L 18.2824,7.962C 18.2824,7.962 13.9062,5.60938 10.192,7.42265C 10.1108,10.304 11.5866,14.5594 11.5866,14.5594L 10.8237,14.8895C 10.3008,13.8439 9.63246,12.091 8.98864,8.67172C 8.70312,9.07813 8.17187,9.54688 8.16243,11.0887C 7.70312,9.79688 8.66405,8.4321 8.6724,8.41728L 7.07485,8.26347C 7.17187,9.92188 8.04687,14.2031 10.6781,15.5314C 12.9893,14.2107 15.4851,11.5406 16.127,10.7675L 16.8243,11.2761L 12.3474,15.9724C 13.5898,15.9889 14.324,15.7209 14.8206,15.5027C 14.0953,16.2531 12.8629,16.3215 12.2698,16.3176C 12.2801,16.3431 12.574,17.0677 12.9708,17.7627 Z M 14.0339,6.04851C 13.9865,5.97072 12.6562,3.6875 11.4747,3.86236C 10.6875,4.1085 10.2448,5.43132 10.225,6.8659C 10.7578,6.55576 12,6 14.0339,6.04851 Z M 16.7115,15.0741C 16.7115,15.0741 20,15 19.8984,13.7575C 19.8984,12.5599 17.9194,11.3335 17.9195,11.3466C 17.9348,13.4709 16.7115,15.0741 16.7115,15.0741 Z "/>
</svg>
