<?xml version="1.0" encoding="utf-8"?>
<!DOCTYPE svg PUBLIC "-//W3C//DTD SVG 1.1//EN" "http://www.w3.org/Graphics/SVG/1.1/DTD/svg11.dtd">
<svg xmlns="http://www.w3.org/2000/svg" xmlns:xlink="http://www.w3.org/1999/xlink" version="1.1" baseProfile="full" width="24" height="24" viewBox="0 0 24.00 24.00" enable-background="new 0 0 24.00 24.00" xml:space="preserve">
	<path fill="#000000" fill-opacity="1" stroke-width="0.2" stroke-linejoin="round" d="M 19.9983,13.9991L 17.9983,13.9991L 17.9983,8.99915L 19.9983,8.99915M 19.9983,17.9991L 17.9983,17.9991L 17.9983,15.9991L 19.9983,15.9991M 14.6664,3.99805L 12.9994,3.99805L 12.9994,1.99805L 6.99939,1.99805L 6.99939,3.99805L 5.3324,3.99805C 4.59637,3.99805 3.99939,4.59503 3.99939,5.33105L 3.99939,20.665C 3.99939,21.4011 4.59637,21.998 5.3324,21.998L 14.6664,21.998C 15.4024,21.998 15.9994,21.4011 15.9994,20.665L 15.9994,5.33105C 15.9994,4.59503 15.4024,3.99805 14.6664,3.99805 Z "/>
</svg>
