<?xml version="1.0" encoding="utf-8"?>
<!DOCTYPE svg PUBLIC "-//W3C//DTD SVG 1.1//EN" "http://www.w3.org/Graphics/SVG/1.1/DTD/svg11.dtd">
<svg xmlns="http://www.w3.org/2000/svg" xmlns:xlink="http://www.w3.org/1999/xlink" version="1.1" baseProfile="full" width="24" height="24" viewBox="0 0 24.00 24.00" enable-background="new 0 0 24.00 24.00" xml:space="preserve">
	<path fill="#000000" fill-opacity="1" stroke-width="0.2" stroke-linejoin="round" d="M 23.0503,10.998L 20.0503,10.998L 20.0503,3.99805L 15.0503,13.998L 18.0503,13.998L 18.0503,21.998M 12.0503,16.998L 4.05029,16.998L 4.05029,5.99805L 12.0503,5.99805M 12.7173,3.99805L 11.0503,3.99805L 11.0503,1.99805L 5.05029,1.99805L 5.05029,3.99805L 3.3833,3.99805C 2.64728,3.99805 2.05029,4.59503 2.05029,5.33105L 2.05029,20.665C 2.05029,21.4011 2.64728,21.998 3.3833,21.998L 12.7173,21.998C 13.4533,21.998 14.0503,21.4011 14.0503,20.665L 14.0503,5.33105C 14.0503,4.59503 13.4533,3.99805 12.7173,3.99805 Z "/>
</svg>
