<?xml version="1.0" encoding="utf-8"?>
<!DOCTYPE svg PUBLIC "-//W3C//DTD SVG 1.1//EN" "http://www.w3.org/Graphics/SVG/1.1/DTD/svg11.dtd">
<svg xmlns="http://www.w3.org/2000/svg" xmlns:xlink="http://www.w3.org/1999/xlink" version="1.1" baseProfile="full" width="24" height="24" viewBox="0 0 24.00 24.00" enable-background="new 0 0 24.00 24.00" xml:space="preserve">
	<path fill="#000000" fill-opacity="1" stroke-width="1.33333" stroke-linejoin="miter" d="M 3,3L 3,5C 4.1,5 5,5.9 5,7L 5,19C 5,20.1 5.9,21 7,21L 17,21C 18.1,21 19,20.1 19,19L 19,7C 19,5.9 19.9,5 21,5L 21,3L 3,3 Z M 7,9L 10,9L 10,10L 7,10L 7,9 Z M 7,11L 10,11L 10,12L 7,12L 7,11 Z M 10,16L 7,16L 7,15L 10,15L 10,16 Z M 12,14L 7,14L 7,13L 12,13L 12,14 Z M 12,8L 7,8L 7,7L 12,7L 12,8 Z "/>
</svg>
