<?xml version="1.0" encoding="utf-8"?>
<!DOCTYPE svg PUBLIC "-//W3C//DTD SVG 1.1//EN" "http://www.w3.org/Graphics/SVG/1.1/DTD/svg11.dtd">
<svg xmlns="http://www.w3.org/2000/svg" xmlns:xlink="http://www.w3.org/1999/xlink" version="1.1" baseProfile="full" width="24" height="24" viewBox="0 0 24.00 24.00" enable-background="new 0 0 24.00 24.00" xml:space="preserve">
	<path fill="#000000" fill-opacity="1" stroke-width="1.33333" stroke-linejoin="miter" d="M 12,2C 6.47716,2 2,6.47716 2,12C 2,17.5228 6.47716,22 12,22C 17.5228,22 22,17.5228 22,12C 22,6.47716 17.5228,2 12,2 Z M 21.3649,12.8171C 16.6239,11.1558 12.8509,7.39538 11.1828,2.63516C 17.0058,2.13366 21.8666,6.98992 21.3649,12.8171 Z M 9.17158,9.17158C 10.7337,7.60948 13.2663,7.60948 14.8284,9.17158C 16.3905,10.7337 16.3905,13.2663 14.8284,14.8284C 13.2663,16.3905 10.7337,16.3905 9.17158,14.8284C 7.60948,13.2663 7.60948,10.7337 9.17158,9.17158 Z M 2.63516,11.1828C 7.37622,12.8442 11.1491,16.6046 12.8171,21.3649C 6.98694,21.8669 2.13392,17.0031 2.63516,11.1828 Z "/>
</svg>
