<?xml version="1.0" encoding="utf-8"?>
<!DOCTYPE svg PUBLIC "-//W3C//DTD SVG 1.1//EN" "http://www.w3.org/Graphics/SVG/1.1/DTD/svg11.dtd">
<svg xmlns="http://www.w3.org/2000/svg" xmlns:xlink="http://www.w3.org/1999/xlink" version="1.1" baseProfile="full" width="24" height="24" viewBox="0 0 24.00 24.00" enable-background="new 0 0 24.00 24.00" xml:space="preserve">
	<path fill="#000000" fill-opacity="1" stroke-width="1.33333" stroke-linejoin="miter" d="M 7,12C 7,14.7614 9.23857,17 12,17C 14.7614,17 17,14.7614 17,12C 17,9.23858 14.7614,7 12,7C 10.8744,7 9.83566,7.37195 9,7.99963L 9,2.4578C 9.94704,2.16035 10.9548,2 12,2C 17.5228,2 22,6.47716 22,12C 22,17.5228 17.5228,22 12,22C 6.47715,22 2,17.5228 2,12C 2,8.29859 4.01099,5.06687 7,3.33782L 7,12 Z M 12,9C 13.6569,9 15,10.3431 15,12C 15,13.6569 13.6569,15 12,15C 10.3431,15 9,13.6569 9,12C 9,10.3431 10.3431,9 12,9 Z "/>
</svg>
