<?xml version="1.0" encoding="utf-8"?>
<!DOCTYPE svg PUBLIC "-//W3C//DTD SVG 1.1//EN" "http://www.w3.org/Graphics/SVG/1.1/DTD/svg11.dtd">
<svg xmlns="http://www.w3.org/2000/svg" xmlns:xlink="http://www.w3.org/1999/xlink" version="1.1" baseProfile="full" width="24" height="24" viewBox="0 0 24.00 24.00" enable-background="new 0 0 24.00 24.00" xml:space="preserve">
	<path fill="#000000" fill-opacity="1" stroke-width="0.2" stroke-linejoin="round" d="M 11.4994,21.9981C 11.6374,21.9981 11.7724,21.9844 11.9024,21.9581C 12.5534,21.8242 13.0894,21.3751 13.3424,20.7764C 13.4434,20.5371 13.4994,20.2741 13.4994,19.9981L 9.49939,19.9981C 9.49939,21.1016 10.3954,21.9981 11.4994,21.9981 Z M 17.9994,10.4981C 17.9994,7.42507 15.8644,4.85707 12.9994,4.17907L 12.9994,3.49807C 12.9994,2.67006 12.3274,1.99807 11.4994,1.99807C 10.6714,1.99807 9.99939,2.67006 9.99939,3.49807L 9.99939,4.17907C 7.1344,4.85707 4.99939,7.42507 4.99939,10.4981L 4.99939,15.9981L 2.99939,17.9981L 2.99939,18.9981L 19.9994,18.9981L 19.9994,17.9981L 17.9994,15.9981M 19.9744,9.99807L 21.9744,9.99807C 21.8224,6.79407 20.2424,3.97207 17.8484,2.14907L 16.4214,3.57607C 18.4564,5.02639 19.8194,7.34807 19.9744,9.99807 Z M 6.57739,3.57607L 5.15039,2.14907C 2.75638,3.97207 1.17639,6.79407 1.02438,9.99807L 3.02438,9.99807C 3.17938,7.34807 4.54239,5.02639 6.57739,3.57607 Z "/>
</svg>
