<?xml version="1.0" encoding="utf-8"?>
<!DOCTYPE svg PUBLIC "-//W3C//DTD SVG 1.1//EN" "http://www.w3.org/Graphics/SVG/1.1/DTD/svg11.dtd">
<svg xmlns="http://www.w3.org/2000/svg" xmlns:xlink="http://www.w3.org/1999/xlink" version="1.1" baseProfile="full" width="24" height="24" viewBox="0 0 24.00 24.00" enable-background="new 0 0 24.00 24.00" xml:space="preserve">
	<path fill="#000000" fill-opacity="1" stroke-width="1.33333" stroke-linejoin="miter" d="M 21,19L 21,20L 3,20L 3,19L 5,17L 5,11C 4.99921,7.9037 7.03273,5.1747 10,4.29C 9.99508,4.1934 9.99508,4.0966 10,4C 10,2.8954 10.8954,2 12,2C 13.1046,2 14,2.8954 14,4C 14.0049,4.0966 14.0049,4.1934 14,4.29C 16.9673,5.1747 19.0008,7.9037 19,11L 19,17L 21,19 Z M 14,21C 14,22.1046 13.1046,23 12,23C 10.8954,23 10,22.1046 10,21M 19.75,3.19L 18.33,4.61C 20.0367,6.2986 20.9979,8.5991 21,11L 23,11C 23.0077,8.0662 21.8367,5.2522 19.75,3.19 Z M 1,11L 3,11C 3.00207,8.5991 3.96332,6.2986 5.67,4.61L 4.25,3.19C 2.16328,5.2522 0.992297,8.0662 1,11 Z "/>
</svg>
