<?xml version="1.0" encoding="utf-8"?>
<!DOCTYPE svg PUBLIC "-//W3C//DTD SVG 1.1//EN" "http://www.w3.org/Graphics/SVG/1.1/DTD/svg11.dtd">
<svg xmlns="http://www.w3.org/2000/svg" xmlns:xlink="http://www.w3.org/1999/xlink" version="1.1" baseProfile="full" width="24" height="24" viewBox="0 0 24.00 24.00" enable-background="new 0 0 24.00 24.00" xml:space="preserve">
	<path fill="#000000" fill-opacity="1" stroke-width="1.33333" stroke-linejoin="miter" d="M 20,18.69L 7.84,6.14L 5.27,3.49L 4,4.76L 6.8,7.56L 6.8,7.57C 6.28,8.56 6,9.73 6,10.99L 6,15.99L 4,17.99L 4,18.99L 17.73,18.99L 19.73,20.99L 21,19.72L 20,18.69 Z M 12,22C 13.11,22 14,21.11 14,20L 10,20C 10,21.11 10.89,22 12,22 Z M 18,14.68L 18,11C 18,7.92 16.36,5.36 13.5,4.68L 13.5,4C 13.5,3.17 12.83,2.5 12,2.5C 11.17,2.5 10.5,3.17 10.5,4L 10.5,4.68C 10.35,4.71 10.21,4.76 10.08,4.8C 9.98,4.83 9.88,4.87 9.78,4.91L 9.75,4.92C 9.52,5.01 9.29,5.12 9.06,5.24L 18,14.68 Z "/>
</svg>
