<?xml version="1.0" encoding="utf-8"?>
<!DOCTYPE svg PUBLIC "-//W3C//DTD SVG 1.1//EN" "http://www.w3.org/Graphics/SVG/1.1/DTD/svg11.dtd">
<svg xmlns="http://www.w3.org/2000/svg" xmlns:xlink="http://www.w3.org/1999/xlink" version="1.1" baseProfile="full" width="24" height="24" viewBox="0 0 24.00 24.00" enable-background="new 0 0 24.00 24.00" xml:space="preserve">
	<path fill="#000000" fill-opacity="1" stroke-width="1.33333" stroke-linejoin="miter" d="M 22.11,21.46L 2.39,1.73L 1.11,3L 5.83,7.72C 5.28929,8.729 5.0043,9.8552 5,11L 5,17L 3,19L 3,20L 18.11,20L 20.84,22.73L 22.11,21.46 Z M 7,18L 7,11C 6.99884,10.3937 7.11427,9.7928 7.34,9.23L 16.11,18L 7,18 Z M 10,21L 14,21C 14,22.1046 13.1046,23 12,23C 10.8954,23 10,22.1046 10,21 Z M 8.29,5.09C 8.82047,4.7459 9.3959,4.4767 10,4.29C 9.99508,4.1934 9.99508,4.0966 10,4C 10,2.8954 10.8954,2 12,2C 13.1046,2 14,2.8954 14,4C 14.0049,4.0966 14.0049,4.1934 14,4.29C 16.9673,5.1747 19.0008,7.9037 19,11L 19,15.8L 17,13.8L 17,11C 17,8.2386 14.7614,6 12,6C 11.219,6.0028 10.4504,6.195 9.76,6.56L 8.29,5.09 Z "/>
</svg>
