<?xml version="1.0" encoding="utf-8"?>
<!DOCTYPE svg PUBLIC "-//W3C//DTD SVG 1.1//EN" "http://www.w3.org/Graphics/SVG/1.1/DTD/svg11.dtd">
<svg xmlns="http://www.w3.org/2000/svg" xmlns:xlink="http://www.w3.org/1999/xlink" version="1.1" baseProfile="full" width="24" height="24" viewBox="0 0 24.00 24.00" enable-background="new 0 0 24.00 24.00" xml:space="preserve">
	<path fill="#000000" fill-opacity="1" stroke-width="1.33333" stroke-linejoin="miter" d="M 12,22C 13.1,22 14,21.1 14,20L 10,20C 10,21.1 10.89,22 12,22 Z M 18,16L 18,11C 18,7.93 16.36,5.36 13.5,4.68L 13.5,4C 13.5,3.17 12.83,2.5 12,2.5C 11.17,2.5 10.5,3.17 10.5,4L 10.5,4.68C 7.63,5.36 6,7.92 6,11L 6,16L 4,18L 4,19L 20,19L 20,18L 18,16 Z "/>
</svg>
