<?xml version="1.0" encoding="utf-8"?>
<!DOCTYPE svg PUBLIC "-//W3C//DTD SVG 1.1//EN" "http://www.w3.org/Graphics/SVG/1.1/DTD/svg11.dtd">
<svg xmlns="http://www.w3.org/2000/svg" xmlns:xlink="http://www.w3.org/1999/xlink" version="1.1" baseProfile="full" width="24" height="24" viewBox="0 0 24.00 24.00" enable-background="new 0 0 24.00 24.00" xml:space="preserve">
	<path fill="#000000" fill-opacity="1" stroke-width="1.33333" stroke-linejoin="miter" d="M 9.99938,21L 13.9994,21C 13.9994,22.1046 13.104,23 11.9994,23C 10.8948,23 9.99938,22.1046 9.99938,21 Z M 20.9994,19L 20.9994,20L 2.99938,20L 2.99938,19L 4.99938,17L 4.99938,11C 4.99859,7.9037 7.03211,5.1747 9.99938,4.29C 9.99446,4.1934 9.99446,4.0966 9.99938,4C 9.99938,2.8954 10.8948,2 11.9994,2C 13.104,2 13.9994,2.8954 13.9994,4C 14.0043,4.0966 14.0043,4.1934 13.9994,4.29C 16.9667,5.1747 19.0002,7.9037 18.9994,11L 18.9994,17L 20.9994,19 Z M 15.9994,11L 12.9994,11L 12.9994,8L 10.9994,8L 10.9994,11L 7.99938,11L 7.99938,13L 10.9994,13L 10.9994,16L 12.9994,16L 12.9994,13L 15.9994,13L 15.9994,11 Z "/>
</svg>
