<?xml version="1.0" encoding="utf-8"?>
<!DOCTYPE svg PUBLIC "-//W3C//DTD SVG 1.1//EN" "http://www.w3.org/Graphics/SVG/1.1/DTD/svg11.dtd">
<svg xmlns="http://www.w3.org/2000/svg" xmlns:xlink="http://www.w3.org/1999/xlink" version="1.1" baseProfile="full" width="24" height="24" viewBox="0 0 24.00 24.00" enable-background="new 0 0 24.00 24.00" xml:space="preserve">
	<path fill="#000000" fill-opacity="1" stroke-width="0.2" stroke-linejoin="miter" d="M 12,2C 17.5228,2 22,6.47715 22,12C 22,17.5228 17.5228,22 12,22C 6.47715,22 2,17.5228 2,12C 2,6.47715 6.47715,2 12,2 Z M 17.0156,15.9844L 17.0156,15L 15.9844,14.0156L 15.9844,11.3906C 15.9844,10.2969 15.7266,9.3438 15.2109,8.5312C 14.6981,7.72306 13.9611,7.20865 13,6.98795L 13,6.5C 13,5.94772 12.5523,5.5 12,5.5C 11.4477,5.5 11,5.94772 11,6.5L 11,6.98795C 10.0389,7.20865 9.30192,7.72307 8.78906,8.5312C 8.27344,9.3438 8.01563,10.2969 8.01563,11.3906L 8.01563,14.0156L 6.98438,15L 6.98438,15.9844L 17.0156,15.9844 Z M 13.5,17L 10.5,17C 10.5,17.8284 11.1716,18.5 12,18.5C 12.8284,18.5 13.5,17.8284 13.5,17 Z "/>
</svg>
