<?xml version="1.0" encoding="utf-8"?>
<!DOCTYPE svg PUBLIC "-//W3C//DTD SVG 1.1//EN" "http://www.w3.org/Graphics/SVG/1.1/DTD/svg11.dtd">
<svg xmlns="http://www.w3.org/2000/svg" xmlns:xlink="http://www.w3.org/1999/xlink" version="1.1" baseProfile="full" width="24" height="24" viewBox="0 0 24.00 24.00" enable-background="new 0 0 24.00 24.00" xml:space="preserve">
	<path fill="#000000" fill-opacity="1" stroke-width="0.2" stroke-linejoin="round" d="M 15.9994,16.9981L 6.99939,16.9981L 6.99939,10.4981C 6.99939,8.01315 9.0144,5.99815 11.4994,5.99815C 13.9844,5.99815 15.9994,8.01315 15.9994,10.4981M 17.9994,15.9981L 17.9994,10.4981C 17.9994,7.42515 15.8644,4.85715 12.9994,4.17915L 12.9994,3.49815C 12.9994,2.67015 12.3274,1.99815 11.4994,1.99815C 10.6714,1.99815 9.99939,2.67015 9.99939,3.49815L 9.99939,4.17915C 7.1344,4.85715 4.99939,7.42515 4.99939,10.4981L 4.99939,15.9981L 2.99939,17.9981L 2.99939,18.9981L 19.9994,18.9981L 19.9994,17.9981M 11.4994,21.9981C 12.6044,21.9981 13.4994,21.1017 13.4994,19.9981L 9.49939,19.9981C 9.49939,21.1017 10.3954,21.9981 11.4994,21.9981 Z "/>
</svg>
