<?xml version="1.0" encoding="utf-8"?>
<!DOCTYPE svg PUBLIC "-//W3C//DTD SVG 1.1//EN" "http://www.w3.org/Graphics/SVG/1.1/DTD/svg11.dtd">
<svg xmlns="http://www.w3.org/2000/svg" xmlns:xlink="http://www.w3.org/1999/xlink" version="1.1" baseProfile="full" width="24" height="24" viewBox="0 0 24.00 24.00" enable-background="new 0 0 24.00 24.00" xml:space="preserve">
	<path fill="#000000" fill-opacity="1" stroke-width="1.33333" stroke-linejoin="miter" d="M 20.84,22.73L 18.11,20L 3,20L 3,19L 5,17L 5,11C 5.0043,9.8552 5.28929,8.729 5.83,7.72L 1.11,3L 2.39,1.73L 22.11,21.46L 20.84,22.73 Z M 19,15.8L 19,11C 19.0008,7.9037 16.9673,5.1747 14,4.29C 14.0049,4.1934 14.0049,4.0966 14,4C 14,2.8954 13.1046,2 12,2C 10.8954,2 10,2.8954 10,4C 9.99508,4.0966 9.99508,4.1934 10,4.29C 9.38549,4.4741 8.7998,4.7434 8.26,5.09L 19,15.8 Z M 12,23C 13.1046,23 14,22.1046 14,21L 10,21C 10,22.1046 10.8954,23 12,23 Z "/>
</svg>
