<?xml version="1.0" encoding="utf-8"?>
<!DOCTYPE svg PUBLIC "-//W3C//DTD SVG 1.1//EN" "http://www.w3.org/Graphics/SVG/1.1/DTD/svg11.dtd">
<svg xmlns="http://www.w3.org/2000/svg" xmlns:xlink="http://www.w3.org/1999/xlink" version="1.1" baseProfile="full" width="24" height="24" viewBox="0 0 24.00 24.00" enable-background="new 0 0 24.00 24.00" xml:space="preserve">
	<path fill="#000000" fill-opacity="1" stroke-width="1.33333" stroke-linejoin="miter" d="M 17.0156,15.9844L 6.98438,15.9844L 6.98438,15L 8.01563,14.0156L 8.01563,11.3906C 8.01563,10.2969 8.27344,9.3438 8.78906,8.5312C 9.30192,7.72307 10.0389,7.20865 11,6.98795L 11,6.5C 11,5.94772 11.4477,5.5 12,5.5C 12.5523,5.5 13,5.94772 13,6.5L 13,6.98795C 13.9611,7.20865 14.6981,7.72307 15.2109,8.5312C 15.7266,9.3438 15.9844,10.2969 15.9844,11.3906L 15.9844,14.0156L 17.0156,15L 17.0156,15.9844 Z M 13.5,17C 13.5,17.8284 12.8284,18.5 12,18.5C 11.1716,18.5 10.5,17.8284 10.5,17L 13.5,17 Z M 12,2C 17.5228,2 22,6.47715 22,12C 22,17.5228 17.5228,22 12,22C 6.47715,22 2,17.5228 2,12C 2,6.47715 6.47715,2 12,2 Z M 12,4C 7.58172,4 4,7.58173 4,12C 4,16.4183 7.58172,20 12,20C 16.4183,20 20,16.4183 20,12C 20,7.58173 16.4183,4 12,4 Z "/>
</svg>
