<?xml version="1.0" encoding="utf-8"?>
<!DOCTYPE svg PUBLIC "-//W3C//DTD SVG 1.1//EN" "http://www.w3.org/Graphics/SVG/1.1/DTD/svg11.dtd">
<svg xmlns="http://www.w3.org/2000/svg" xmlns:xlink="http://www.w3.org/1999/xlink" version="1.1" baseProfile="full" width="24" height="24" viewBox="0 0 24.00 24.00" enable-background="new 0 0 24.00 24.00" xml:space="preserve">
	<path fill="#000000" fill-opacity="1" stroke-width="1.33333" stroke-linejoin="miter" d="M 4,5C 2.89543,5 2,5.8954 2,7L 2,17C 2,18.1046 2.89543,19 4,19L 20,19C 21.1046,19 22,18.1046 22,17L 22,7C 22,5.8954 21.1046,5 20,5L 4,5 Z M 8,9C 10.2091,9 12,10.7909 12,13C 12,15.2091 10.2091,17 8,17C 5.79086,17 4,15.2091 4,13C 4,10.7909 5.79086,9 8,9 Z M 13,9L 20,9L 20,17L 13,17L 13,9 Z M 8,11C 6.89543,11 6,11.8954 6,13C 6,14.1046 6.89543,15 8,15C 9.10457,15 10,14.1046 10,13C 10,11.8954 9.10457,11 8,11 Z "/>
</svg>
