<?xml version="1.0" encoding="utf-8"?>
<!DOCTYPE svg PUBLIC "-//W3C//DTD SVG 1.1//EN" "http://www.w3.org/Graphics/SVG/1.1/DTD/svg11.dtd">
<svg xmlns="http://www.w3.org/2000/svg" xmlns:xlink="http://www.w3.org/1999/xlink" version="1.1" baseProfile="full" width="24" height="24" viewBox="0 0 24.00 24.00" enable-background="new 0 0 24.00 24.00" xml:space="preserve">
	<path fill="#000000" fill-opacity="1" stroke-width="1.33333" stroke-linejoin="miter" d="M 12.88,3.64C 13.653,3.64 14.28,4.267 14.28,5.04C 14.28,5.813 13.653,6.44 12.88,6.44C 12.107,6.44 11.48,5.813 11.48,5.04C 11.48,4.267 12.107,3.64 12.88,3.64 Z M 15,13L 16.5,13L 16.5,19L 15,19L 15,13 Z M 15,8.5L 16.5,8.5L 16.5,10L 15,10L 15,8.5 Z M 10.04,2.6L 7.99,2.04001L 6.06,8.58L 3.9,11.42L 7.17,12.37L 10.04,2.6 Z M 19.67,18.55C 19.308,18.928 18.877,19.484 18.4,19.7C 17.909,19.92 17.538,19.99 17,20L 13.5,20L 13.43,17C 13.422,16.83 13.37,16.665 13.28,16.52L 10.88,12.24L 11.76,9.49C 12.34,10.55 12.98,11.73 13.06,11.83C 13.213,12.021 13.445,12.132 13.69,12.13L 15.9,12.13C 16.347,12.13 16.71,11.767 16.71,11.32C 16.706,10.901 16.378,10.556 15.96,10.53L 14.29,10.4L 12.4,7C 12.4,7 12.0091,6.42 11.14,6.42C 10.2709,6.42 10.001,6.836 9.83,7.42L 6,20L 3,20L 3,22L 17,22C 18.374,22.001 19.531,21.344 20.5,20.37L 19.67,18.55 Z M 9.75,14.39L 11.62,17.39L 11.75,20L 7.75,20L 9.75,14.39 Z "/>
</svg>
