<?xml version="1.0" encoding="utf-8"?>
<!DOCTYPE svg PUBLIC "-//W3C//DTD SVG 1.1//EN" "http://www.w3.org/Graphics/SVG/1.1/DTD/svg11.dtd">
<svg xmlns="http://www.w3.org/2000/svg" xmlns:xlink="http://www.w3.org/1999/xlink" version="1.1" baseProfile="full" width="24" height="24" viewBox="0 0 24.00 24.00" enable-background="new 0 0 24.00 24.00" xml:space="preserve">
	<path fill="#000000" fill-opacity="1" stroke-width="1.33333" stroke-linejoin="miter" d="M 5.8125,2L 7,2L 7,9L 9.5,7.5L 12,9L 12,2L 18,2C 19.1,2 20,2.89 20,4L 20,20C 20,21.0472 19.0472,22 18,22L 6,22C 4.9528,22 4,21.0472 4,20L 4,4C 3.99565,3.0125 4.8293,2.0926 5.8125,2 Z M 13,10L 13,13L 10,13L 10,15L 13,15L 13,20L 15,20L 15,15L 18,15L 18,13L 15,13L 15,10L 13,10 Z "/>
</svg>
