<?xml version="1.0" encoding="utf-8"?>
<!DOCTYPE svg PUBLIC "-//W3C//DTD SVG 1.1//EN" "http://www.w3.org/Graphics/SVG/1.1/DTD/svg11.dtd">
<svg xmlns="http://www.w3.org/2000/svg" xmlns:xlink="http://www.w3.org/1999/xlink" version="1.1" baseProfile="full" width="24" height="24" viewBox="0 0 24.00 24.00" enable-background="new 0 0 24.00 24.00" xml:space="preserve">
	<path fill="#000000" fill-opacity="1" stroke-width="1.33333" stroke-linejoin="miter" d="M 20.3107,16.4358L 14.5432,6.47471C 13.7198,5.04439 11.8929,4.55232 10.4625,5.3757C 10.0056,5.63867 9.62644,6.01779 9.36345,6.47471L 3.59598,16.4358C 2.77077,17.8651 3.26047,19.6927 4.68977,20.5179C 5.14169,20.7789 5.65406,20.9169 6.1759,20.9183L 17.7308,20.9183C 19.3811,20.9138 20.7155,19.5723 20.711,17.9219C 20.7096,17.4001 20.5716,16.8877 20.3107,16.4358 Z M 5.36905,17.4319L 11.1066,7.47082C 11.3779,6.99219 11.9858,6.82404 12.4644,7.09538C 12.6212,7.18423 12.751,7.31403 12.8399,7.47082L 18.5775,17.4319C 18.8526,17.9083 18.6893,18.5175 18.2129,18.7926C 18.0632,18.879 17.8936,18.925 17.7208,18.9261L 6.20579,18.9261C 5.65566,18.9228 5.21238,18.4741 5.21568,17.924C 5.21673,17.7512 5.26271,17.5816 5.34913,17.4319L 5.36905,17.4319 Z M 11.9733,13.4475C 10.873,13.4475 9.98104,12.5556 9.98104,11.4552C 9.98104,10.3549 10.873,9.46303 11.9733,9.46303C 13.0736,9.46303 13.9655,10.3549 13.9655,11.4552C 13.9656,12.5556 13.0737,13.4475 11.9533,13.4475L 11.9733,13.4475 Z M 9.46306,17.93C 8.36279,17.93 7.47084,17.038 7.47084,15.9377C 7.47084,14.8375 8.36279,13.9455 9.46306,13.9455C 10.5634,13.9455 11.4553,14.8375 11.4553,15.9377C 11.4553,17.038 10.5634,17.93 9.46306,17.93 Z M 14.4436,17.93C 13.3433,17.93 12.4514,17.038 12.4514,15.9377C 12.4514,14.8375 13.3433,13.9455 14.4436,13.9455C 15.5439,13.9455 16.4358,14.8375 16.4358,15.9377C 16.4358,17.038 15.5439,17.93 14.4436,17.93 Z "/>
</svg>
