<?xml version="1.0" encoding="utf-8"?>
<!DOCTYPE svg PUBLIC "-//W3C//DTD SVG 1.1//EN" "http://www.w3.org/Graphics/SVG/1.1/DTD/svg11.dtd">
<svg xmlns="http://www.w3.org/2000/svg" xmlns:xlink="http://www.w3.org/1999/xlink" version="1.1" baseProfile="full" width="24" height="24" viewBox="0 0 24.00 24.00" enable-background="new 0 0 24.00 24.00" xml:space="preserve">
	<path fill="#000000" fill-opacity="1" stroke-width="0.2" stroke-linejoin="round" d="M 17,12L 20,12C 21.1046,12 22,12.8954 22,14L 22,17C 22,18.1046 21.1046,19 20,19L 17,19C 15.8954,19 15,18.1046 15,17L 15,14C 15,12.8954 15.8954,12 17,12 Z M 17,14L 17,17L 20,17L 20,14L 17,14 Z M 2,7.00001L 7,7.00001C 8.10457,7.00001 9,7.89544 9,9L 9,11C 9,12.1046 8.10457,13 7,13C 8.10457,13 9,13.8954 9,15L 9,17C 9,18.1046 8.10457,19 7,19L 2,19L 2,13L 2,7.00001 Z M 4,9.00001L 4,12L 7,12L 7,9.00001L 4,9.00001 Z M 4,17L 7,17L 7,14L 4,14L 4,17 Z M 11,13L 13,13L 13,19L 11,19L 11,13 Z M 11,9L 13,9L 13,11L 11,11L 11,9 Z "/>
</svg>
