<?xml version="1.0" encoding="utf-8"?>
<!DOCTYPE svg PUBLIC "-//W3C//DTD SVG 1.1//EN" "http://www.w3.org/Graphics/SVG/1.1/DTD/svg11.dtd">
<svg xmlns="http://www.w3.org/2000/svg" xmlns:xlink="http://www.w3.org/1999/xlink" version="1.1" baseProfile="full" width="24" height="24" viewBox="0 0 24.00 24.00" enable-background="new 0 0 24.00 24.00" xml:space="preserve">
	<path fill="#000000" fill-opacity="1" stroke-width="0.2" stroke-linejoin="miter" d="M 19,5L 17.8,5L 18,2L 4,2L 5,4L 6,4L 6.938,16.188L 5,22L 19,22L 17.056,16.167L 17.2,14L 19,14C 20.2988,14 21,12.97 21,12L 21,7C 21,5.70117 19.97,5 19,5 Z M 12,20C 11.172,20 10.5,19.328 10.5,18.5C 10.5,17.672 11.172,17 12,17C 12.828,17 13.5,17.672 13.5,18.5C 13.5,19.328 12.828,20 12,20 Z M 15.129,15L 8.852,15L 8.698,13L 13,13L 13,12L 8.621,12L 8.467,10L 13,10L 13,9L 8.391,9L 8.237,7L 13,7L 13,6L 8.16,6L 8.006,4L 15.862,4L 15.129,15 Z M 19,12L 17.333,12L 17.666,7L 19,7L 19,12 Z "/>
</svg>
