<?xml version="1.0" encoding="utf-8"?>
<!DOCTYPE svg PUBLIC "-//W3C//DTD SVG 1.1//EN" "http://www.w3.org/Graphics/SVG/1.1/DTD/svg11.dtd">
<svg xmlns="http://www.w3.org/2000/svg" xmlns:xlink="http://www.w3.org/1999/xlink" version="1.1" baseProfile="full" width="24" height="24" viewBox="0 0 24.00 24.00" enable-background="new 0 0 24.00 24.00" xml:space="preserve">
	<path fill="#000000" fill-opacity="1" stroke-width="1.33333" stroke-linejoin="miter" d="M 12.582,3.1211L 12.582,3.1289C 12.2741,3.1293 11.9607,3.2169 11.7129,3.3906C 11.2112,3.741 11.1538,4.3212 11.5996,4.6875L 14.4648,7.0195L 5.72852,7.0293L 5.7168,7.0293C 4.99465,7.0296 4.29909,7.5024 4.16211,8.1016C 4.02047,8.7116 4.51086,9.2184 5.26172,9.2207L 9.68945,9.2109L 1.75781,15.2988C 1.01239,15.8693 0.770706,16.8196 1.24023,17.4199C 1.71636,18.0311 2.73119,18.0327 3.48438,17.4199L 7.79688,13.8906C 7.79688,13.8906 7.73324,14.3663 7.73828,14.6523C 7.74334,14.9399 7.83529,15.4978 7.97266,15.9336C 8.26136,16.856 8.74985,17.7085 9.43164,18.4609C 10.1309,19.2335 10.9918,19.8545 11.9863,20.2949C 13.0313,20.7582 14.1653,20.9941 15.3418,20.9922C 16.5168,20.9922 17.648,20.7496 18.6934,20.2832C 19.6879,19.8385 20.5496,19.2148 21.248,18.4414C 21.9287,17.6867 22.4179,16.8324 22.707,15.9101C 22.8529,15.4436 22.9436,14.9711 22.9805,14.4961C 23.0169,14.0285 23.0019,13.5597 22.9355,13.0918C 22.8059,12.1795 22.4893,11.3249 22.0039,10.5449C 21.5595,9.8286 20.9891,9.1998 20.3086,8.6719L 20.3066,8.6719L 13.418,3.3809C 13.1923,3.2076 12.8899,3.1207 12.582,3.1211 Z M 15.3398,9.2109C 16.4912,9.2109 17.5909,9.5879 18.4551,10.2891C 18.8951,10.6476 19.2506,11.0703 19.5098,11.541C 19.7748,12.0199 19.9394,12.5482 19.9883,13.1055C 20.0368,13.6728 19.962,14.2348 19.7695,14.7656C 19.5724,15.3069 19.2545,15.8131 18.8203,16.2559C 17.9313,17.1612 16.6883,17.675 15.3418,17.6777C 13.9937,17.6777 12.7503,17.1713 11.8613,16.2676C 11.4271,15.8271 11.1069,15.3195 10.9102,14.7793C 10.7177,14.2492 10.6437,13.6873 10.6934,13.1191C 10.7407,12.5635 10.9057,12.0343 11.1699,11.5547C 11.4291,11.084 11.7854,10.657 12.2266,10.2969C 13.09,9.593 14.1893,9.2125 15.3398,9.2109 Z M 15.4395,10.6133C 14.6583,10.6133 13.9422,10.8897 13.4102,11.3398C 12.8685,11.7981 12.5099,12.4443 12.4688,13.1777C 12.4276,13.9313 12.7301,14.6312 13.2617,15.1504C 13.8038,15.6785 14.5757,16.0098 15.4395,16.0098C 16.3028,16.0098 17.0731,15.6785 17.6152,15.1504C 18.1472,14.6312 18.4493,13.9301 18.4082,13.1758C 18.3667,12.4432 18.0089,11.7981 17.4668,11.3398C 16.9352,10.8897 16.2194,10.6133 15.4395,10.6133 Z "/>
</svg>
