<?xml version="1.0" encoding="utf-8"?>
<!DOCTYPE svg PUBLIC "-//W3C//DTD SVG 1.1//EN" "http://www.w3.org/Graphics/SVG/1.1/DTD/svg11.dtd">
<svg xmlns="http://www.w3.org/2000/svg" xmlns:xlink="http://www.w3.org/1999/xlink" version="1.1" baseProfile="full" width="24" height="24" viewBox="0 0 24.00 24.00" enable-background="new 0 0 24.00 24.00" xml:space="preserve">
	<path fill="#000000" fill-opacity="1" stroke-width="1.33333" stroke-linejoin="miter" d="M 21,7C 20,7 20,6 20,6L 20,5L 18,5L 18,7L 16,7L 16,6C 16,4.271 14.746,1 10,1C 5.254,1 4,4.271 4,6L 4,19C 4,19.334 3.904,21 2,21L 2,23C 4.935,23 6,20.607 6,19L 6,6C 6,5.877 6.045,3 10,3C 13.834,3 13.994,5.701 14,6.009L 14,7L 12,7L 12,5L 10,5L 10,6C 10,6 10,7 9,7C 8,7 8,8 8,8L 8,20C 8,20 8,22 13,22C 13.24,22 14.13,22 17,22C 22,22 22,20 22,20L 22,8C 22,8 22,7 21,7 Z M 15,19.4C 13.34,19.4 12,18.06 12,16.4C 12,14.4 15,11 15,11C 15,11 18,14.4 18,16.4C 18,18.06 16.66,19.4 15,19.4 Z "/>
</svg>
