<?xml version="1.0" encoding="utf-8"?>
<!DOCTYPE svg PUBLIC "-//W3C//DTD SVG 1.1//EN" "http://www.w3.org/Graphics/SVG/1.1/DTD/svg11.dtd">
<svg xmlns="http://www.w3.org/2000/svg" xmlns:xlink="http://www.w3.org/1999/xlink" version="1.1" baseProfile="full" width="24" height="24" viewBox="0 0 24.00 24.00" enable-background="new 0 0 24.00 24.00" xml:space="preserve">
	<path fill="#000000" fill-opacity="1" stroke-linejoin="round" d="M 14.7067,7.707L 10.4137,12L 14.7067,16.293L 8.99965,22L 7.99965,22L 7.99965,14.414L 3.41365,19L 1.99965,17.586L 7.58565,12L 1.99965,6.414L 3.41365,5L 7.99965,9.586L 7.99965,2L 8.99965,2L 14.7067,7.707 Z M 9.99965,5.828L 9.99965,9.586L 11.8786,7.707L 9.99965,5.828 Z M 11.8786,16.293L 9.99965,14.414L 9.99965,18.172L 11.8786,16.293 Z M 22.0003,8.0019L 20.0003,8.0019L 20.0003,11.0019L 18.0003,11.0019L 18.0003,8.0019L 16.0003,8.0019L 19.0003,4.0019L 22.0003,8.0019 Z M 22.0003,16.0019L 19.0003,20.0019L 16.0003,16.0019L 18.0003,16.0019L 18.0003,13.0019L 20.0003,13.0019L 20.0003,16.0019L 22.0003,16.0019 Z "/>
</svg>
