<?xml version="1.0" encoding="utf-8"?>
<!DOCTYPE svg PUBLIC "-//W3C//DTD SVG 1.1//EN" "http://www.w3.org/Graphics/SVG/1.1/DTD/svg11.dtd">
<svg xmlns="http://www.w3.org/2000/svg" xmlns:xlink="http://www.w3.org/1999/xlink" version="1.1" baseProfile="full" width="24" height="24" viewBox="0 0 24.00 24.00" enable-background="new 0 0 24.00 24.00" xml:space="preserve">
	<path fill="#000000" fill-opacity="1" stroke-linejoin="round" d="M 3,13.5C 2.72,13.5 2.5,13.72 2.5,14C 2.5,14.28 2.72,14.5 3,14.5C 3.28,14.5 3.5,14.28 3.5,14C 3.5,13.72 3.28,13.5 3,13.5 Z M 6,17C 5.45,17 5,17.45 5,18C 5,18.55 5.45,19 6,19C 6.55,19 7,18.55 7,18C 7,17.45 6.55,17 6,17 Z M 10,20.5C 9.72,20.5 9.5,20.72 9.5,21C 9.5,21.28 9.72,21.5 10,21.5C 10.28,21.5 10.5,21.28 10.5,21C 10.5,20.72 10.28,20.5 10,20.5 Z M 3,9.5C 2.72,9.5 2.5,9.72 2.5,10C 2.5,10.28 2.72,10.5 3,10.5C 3.28,10.5 3.5,10.28 3.5,10C 3.5,9.72 3.28,9.5 3,9.5 Z M 6,13C 5.45,13 5,13.45 5,14C 5,14.55 5.45,15 6,15C 6.55,15 7,14.55 7,14C 7,13.45 6.55,13 6,13 Z M 21,13.5C 20.72,13.5 20.5,13.72 20.5,14C 20.5,14.28 20.72,14.5 21,14.5C 21.28,14.5 21.5,14.28 21.5,14C 21.5,13.72 21.28,13.5 21,13.5 Z M 10,17C 9.45,17 9,17.45 9,18C 9,18.55 9.45,19 10,19C 10.55,19 11,18.55 11,18C 11,17.45 10.55,17 10,17 Z M 2.5,5.27L 6.28,9.05L 6,9C 5.45,9 5,9.45 5,10C 5,10.55 5.45,11 6,11C 6.55,11 7,10.55 7,10C 7,9.9 6.97,9.81 6.94,9.72L 9.75,12.53C 9.04,12.64 8.5,13.26 8.5,14C 8.5,14.83 9.17,15.5 10,15.5C 10.74,15.5 11.36,14.96 11.47,14.25L 14.28,17.06C 14.19,17.03 14.1,17 14,17C 13.45,17 13,17.45 13,18C 13,18.55 13.45,19 14,19C 14.55,19 15,18.55 15,18C 15,17.9 14.97,17.81 14.94,17.72L 18.72,21.5L 20,20.23L 3.77,4L 2.5,5.27 Z M 14,20.5C 13.72,20.5 13.5,20.72 13.5,21C 13.5,21.28 13.72,21.5 14,21.5C 14.28,21.5 14.5,21.28 14.5,21C 14.5,20.72 14.28,20.5 14,20.5 Z M 18,7C 18.55,7 19,6.55 19,6C 19,5.45 18.55,5 18,5C 17.45,5 17,5.45 17,6C 17,6.55 17.45,7 18,7 Z M 18,11C 18.55,11 19,10.55 19,10C 19,9.45 18.55,9 18,9C 17.45,9 17,9.45 17,10C 17,10.55 17.45,11 18,11 Z M 18,15C 18.55,15 19,14.55 19,14C 19,13.45 18.55,13 18,13C 17.45,13 17,13.45 17,14C 17,14.55 17.45,15 18,15 Z M 10,7C 10.55,7 11,6.55 11,6C 11,5.45 10.55,5 10,5C 9.45,5 9,5.45 9,6C 9,6.55 9.45,7 10,7 Z M 21,10.5C 21.28,10.5 21.5,10.28 21.5,10C 21.5,9.72 21.28,9.5 21,9.5C 20.72,9.5 20.5,9.72 20.5,10C 20.5,10.28 20.72,10.5 21,10.5 Z M 10,3.5C 10.28,3.5 10.5,3.28 10.5,3C 10.5,2.72 10.28,2.5 10,2.5C 9.72,2.5 9.5,2.72 9.5,3C 9.5,3.28 9.72,3.5 10,3.5 Z M 14,3.5C 14.28,3.5 14.5,3.28 14.5,3C 14.5,2.72 14.28,2.5 14,2.5C 13.72,2.5 13.5,2.72 13.5,3C 13.5,3.28 13.72,3.5 14,3.5 Z M 13.8,11.48L 14,11.5C 14.83,11.5 15.5,10.83 15.5,10C 15.5,9.17 14.83,8.5 14,8.5C 13.17,8.5 12.5,9.17 12.5,10L 12.52,10.2C 12.61,10.87 13.13,11.39 13.8,11.48 Z M 14,7C 14.55,7 15,6.55 15,6C 15,5.45 14.55,5 14,5C 13.45,5 13,5.45 13,6C 13,6.55 13.45,7 14,7 Z "/>
</svg>
