<?xml version="1.0" encoding="utf-8"?>
<!DOCTYPE svg PUBLIC "-//W3C//DTD SVG 1.1//EN" "http://www.w3.org/Graphics/SVG/1.1/DTD/svg11.dtd">
<svg xmlns="http://www.w3.org/2000/svg" xmlns:xlink="http://www.w3.org/1999/xlink" version="1.1" baseProfile="full" width="24" height="24" viewBox="0 0 24.00 24.00" enable-background="new 0 0 24.00 24.00" xml:space="preserve">
	<path fill="#000000" fill-opacity="1" stroke-linejoin="round" d="M 14,13C 13.45,13 13,13.45 13,14C 13,14.55 13.45,15 14,15C 14.55,15 15,14.55 15,14C 15,13.45 14.55,13 14,13 Z M 14,16.5C 13.72,16.5 13.5,16.72 13.5,17C 13.5,17.28 13.72,17.5 14,17.5C 14.28,17.5 14.5,17.28 14.5,17C 14.5,16.72 14.28,16.5 14,16.5 Z M 12,20C 7.58,20 4,16.42 4,12C 4,7.58 7.58,4 12,4C 16.42,4 20,7.58 20,12C 20,16.42 16.42,20 12,20 Z M 12,2C 6.48,2 2,6.48 2,12C 2,17.52 6.48,22 12,22C 17.52,22 22,17.52 22,12C 22,6.48 17.52,2 12,2 Z M 17,9.5C 16.72,9.5 16.5,9.72 16.5,10C 16.5,10.28 16.72,10.5 17,10.5C 17.28,10.5 17.5,10.28 17.5,10C 17.5,9.72 17.28,9.5 17,9.5 Z M 17,13.5C 16.72,13.5 16.5,13.72 16.5,14C 16.5,14.28 16.72,14.5 17,14.5C 17.28,14.5 17.5,14.28 17.5,14C 17.5,13.72 17.28,13.5 17,13.5 Z M 14,7.5C 14.28,7.5 14.5,7.28 14.5,7C 14.5,6.72 14.28,6.5 14,6.5C 13.72,6.5 13.5,6.72 13.5,7C 13.5,7.28 13.72,7.5 14,7.5 Z M 14,9C 13.45,9 13,9.45 13,10C 13,10.55 13.45,11 14,11C 14.55,11 15,10.55 15,10C 15,9.45 14.55,9 14,9 Z M 10,7.5C 10.28,7.5 10.5,7.28 10.5,7C 10.5,6.72 10.28,6.5 10,6.5C 9.72,6.5 9.5,6.72 9.5,7C 9.5,7.28 9.72,7.5 10,7.5 Z M 7,13.5C 6.72,13.5 6.5,13.72 6.5,14C 6.5,14.28 6.72,14.5 7,14.5C 7.28,14.5 7.5,14.28 7.5,14C 7.5,13.72 7.28,13.5 7,13.5 Z M 10,16.5C 9.72,16.5 9.5,16.72 9.5,17C 9.5,17.28 9.72,17.5 10,17.5C 10.28,17.5 10.5,17.28 10.5,17C 10.5,16.72 10.28,16.5 10,16.5 Z M 7,9.5C 6.72,9.5 6.5,9.72 6.5,10C 6.5,10.28 6.72,10.5 7,10.5C 7.28,10.5 7.5,10.28 7.5,10C 7.5,9.72 7.28,9.5 7,9.5 Z M 10,13C 9.45,13 9,13.45 9,14C 9,14.55 9.45,15 10,15C 10.55,15 11,14.55 11,14C 11,13.45 10.55,13 10,13 Z M 10,9C 9.45,9 9,9.45 9,10C 9,10.55 9.45,11 10,11C 10.55,11 11,10.55 11,10C 11,9.45 10.55,9 10,9 Z "/>
</svg>
