<?xml version="1.0" encoding="utf-8"?>
<!DOCTYPE svg PUBLIC "-//W3C//DTD SVG 1.1//EN" "http://www.w3.org/Graphics/SVG/1.1/DTD/svg11.dtd">
<svg xmlns="http://www.w3.org/2000/svg" xmlns:xlink="http://www.w3.org/1999/xlink" version="1.1" baseProfile="full" width="24" height="24" viewBox="0 0 24.00 24.00" enable-background="new 0 0 24.00 24.00" xml:space="preserve">
	<path fill="#000000" fill-opacity="1" stroke-linejoin="round" d="M 13,17C 13.55,17 14,16.55 14,16C 14,15.45 13.55,15 13,15C 12.45,15 12,15.45 12,16C 12,16.55 12.45,17 13,17 Z M 13,13C 13.55,13 14,12.55 14,12C 14,11.45 13.55,11 13,11C 12.45,11 12,11.45 12,12C 12,12.55 12.45,13 13,13 Z M 13,9C 13.55,9 14,8.55 14,8C 14,7.45 13.55,7 13,7C 12.45,7 12,7.45 12,8C 12,8.55 12.45,9 13,9 Z M 17,12.5C 17.28,12.5 17.5,12.28 17.5,12C 17.5,11.72 17.28,11.5 17,11.5C 16.72,11.5 16.5,11.72 16.5,12C 16.5,12.28 16.72,12.5 17,12.5 Z M 17,8.5C 17.28,8.5 17.5,8.28 17.5,8C 17.5,7.72 17.28,7.5 17,7.5C 16.72,7.5 16.5,7.72 16.5,8C 16.5,8.28 16.72,8.5 17,8.5 Z M 3,3L 3,5L 21,5L 21,3M 17,16.5C 17.28,16.5 17.5,16.28 17.5,16C 17.5,15.72 17.28,15.5 17,15.5C 16.72,15.5 16.5,15.72 16.5,16C 16.5,16.28 16.72,16.5 17,16.5 Z M 9,17C 9.55,17 10,16.55 10,16C 10,15.45 9.55,15 9,15C 8.45,15 8,15.45 8,16C 8,16.55 8.45,17 9,17 Z M 5,13.5C 5.83,13.5 6.5,12.83 6.5,12C 6.5,11.17 5.83,10.5 5,10.5C 4.17,10.5 3.5,11.17 3.5,12C 3.5,12.83 4.17,13.5 5,13.5 Z M 5,9.5C 5.83,9.5 6.5,8.83 6.5,8C 6.5,7.17 5.83,6.5 5,6.5C 4.17,6.5 3.5,7.17 3.5,8C 3.5,8.83 4.17,9.5 5,9.5 Z M 3,21L 21,21L 21,19L 3,19M 9,9C 9.55,9 10,8.55 10,8C 10,7.45 9.55,7 9,7C 8.45,7 8,7.45 8,8C 8,8.55 8.45,9 9,9 Z M 9,13C 9.55,13 10,12.55 10,12C 10,11.45 9.55,11 9,11C 8.45,11 8,11.45 8,12C 8,12.55 8.45,13 9,13 Z M 5,17.5C 5.83,17.5 6.5,16.83 6.5,16C 6.5,15.17 5.83,14.5 5,14.5C 4.17,14.5 3.5,15.17 3.5,16C 3.5,16.83 4.17,17.5 5,17.5 Z "/>
</svg>
