<?xml version="1.0" encoding="utf-8"?>
<!DOCTYPE svg PUBLIC "-//W3C//DTD SVG 1.1//EN" "http://www.w3.org/Graphics/SVG/1.1/DTD/svg11.dtd">
<svg xmlns="http://www.w3.org/2000/svg" xmlns:xlink="http://www.w3.org/1999/xlink" version="1.1" baseProfile="full" width="24" height="24" viewBox="0 0 24.00 24.00" enable-background="new 0 0 24.00 24.00" xml:space="preserve">
	<path fill="#000000" fill-opacity="1" stroke-width="1.33333" stroke-linejoin="miter" d="M 22,7L 21.5,6.5C 19.933,8.014 18.474,9.401 16.931,10.178C 15.487,10.906 14.436,10.912 13,11C 13.088,9.564 13.094,8.513 13.822,7.069C 14.599,5.526 15.986,4.067 17.5,2.5L 17,2C 15.316,3.234 13.641,3.834 12,3.834C 10.359,3.834 8.684,3.234 7,2L 6.5,2.5C 8.014,4.067 9.401,5.526 10.178,7.069C 10.906,8.513 10.912,9.564 11,11C 9.564,10.912 8.513,10.906 7.069,10.178C 5.526,9.401 4.057,8.012 2.49,6.498L 2,7C 3.234,8.684 3.834,10.359 3.834,12C 3.834,13.641 3.234,15.316 2,17L 2.498,17.502C 4.065,15.988 5.526,14.599 7.069,13.822C 8.513,13.094 9.564,13.088 11,13C 10.912,14.436 10.906,15.487 10.178,16.931C 9.401,18.474 8.014,19.933 6.5,21.5L 7,22C 8.684,20.766 10.359,20.166 12,20.166C 13.641,20.166 15.316,20.766 17,22L 17.5,21.5C 15.986,19.933 14.599,18.474 13.822,16.931C 13.094,15.487 13.088,14.436 13,13C 14.436,13.088 15.487,13.094 16.931,13.822C 18.474,14.599 19.934,15.987 21.5,17.5L 22,17C 20.766,15.316 20.166,13.641 20.166,12C 20.166,10.359 20.766,8.684 22,7 Z "/>
</svg>
