<?xml version="1.0" encoding="utf-8"?>
<!DOCTYPE svg PUBLIC "-//W3C//DTD SVG 1.1//EN" "http://www.w3.org/Graphics/SVG/1.1/DTD/svg11.dtd">
<svg xmlns="http://www.w3.org/2000/svg" xmlns:xlink="http://www.w3.org/1999/xlink" version="1.1" baseProfile="full" width="24" height="24" viewBox="0 0 24.00 24.00" enable-background="new 0 0 24.00 24.00" xml:space="preserve">
	<path fill="#000000" fill-opacity="1" stroke-width="1.33333" stroke-linejoin="miter" d="M 14,17.7L 14,21L 10,21L 10,20.3L 14,17.7 Z M 17,3L 7,3L 7,6L 17,6L 17,3 Z M 15,7L 14,7.7L 14,7L 10,7L 10,10.3L 9,11L 9,12L 15,8.1L 15,7 Z M 15,11L 14,11.7L 14,9.7L 10,12.4L 10,14.4L 9,15L 9,16L 15,12.1L 15,11 Z M 15,15L 14,15.7L 14,13.7L 10,16.4L 10,18.4L 9,19L 9,20L 15,16.1L 15,15 Z "/>
</svg>
