<?xml version="1.0" encoding="utf-8"?>
<!DOCTYPE svg PUBLIC "-//W3C//DTD SVG 1.1//EN" "http://www.w3.org/Graphics/SVG/1.1/DTD/svg11.dtd">
<svg xmlns="http://www.w3.org/2000/svg" xmlns:xlink="http://www.w3.org/1999/xlink" version="1.1" baseProfile="full" width="24" height="24" viewBox="0 0 24.00 24.00" enable-background="new 0 0 24.00 24.00" xml:space="preserve">
	<path fill="#000000" fill-opacity="1" stroke-width="1.33333" stroke-linejoin="miter" d="M 14.4956,2.74953C 12.7017,2.74953 11.247,4.20427 11.247,5.99817L 9.99734,5.99817L 9.99734,7.28695C 9.30782,7.49252 8.66652,7.80856 8.08379,8.20283L 17.7944,17.9127C 18.5766,16.757 18.994,15.3926 18.9952,13.9965C 18.9952,10.8273 16.8851,8.1466 13.9965,7.28695L 13.9965,5.99817L 12.7469,5.99817C 12.7469,5.0323 13.5298,4.24876 14.4956,4.24876C 15.4621,4.24876 16.2457,5.0323 16.2457,5.99817C 16.2457,7.24046 17.2525,8.24794 18.4948,8.24794C 19.7371,8.24794 20.744,7.24046 20.744,5.99817L 20.744,5.24887L 19.2454,5.24887L 19.2454,5.99817C 19.2454,6.41856 18.9146,6.74809 18.4948,6.74809C 18.0751,6.74809 17.7455,6.41856 17.7455,5.99817C 17.7455,4.20427 16.2908,2.74953 14.4956,2.74953 Z M 3.4134,6.35945L 1.99959,7.7732L 5.5454,11.319C 5.19759,12.1434 4.99867,13.0446 4.99867,13.9965C 4.99867,17.8615 8.13199,20.9942 11.9969,20.9942C 12.9177,20.993 13.8293,20.8087 14.68,20.4536L 18.2252,24L 19.6395,22.5856L 3.4134,6.35945 Z "/>
</svg>
