<?xml version="1.0" encoding="utf-8"?>
<!DOCTYPE svg PUBLIC "-//W3C//DTD SVG 1.1//EN" "http://www.w3.org/Graphics/SVG/1.1/DTD/svg11.dtd">
<svg xmlns="http://www.w3.org/2000/svg" xmlns:xlink="http://www.w3.org/1999/xlink" version="1.1" baseProfile="full" width="24" height="24" viewBox="0 0 24.00 24.00" enable-background="new 0 0 24.00 24.00" xml:space="preserve">
	<path fill="#000000" fill-opacity="1" stroke-width="1.33333" stroke-linejoin="miter" d="M 11.25,6C 11.25,4.2051 12.7051,2.75 14.5,2.75C 16.2947,2.75 17.75,4.2056 17.75,6C 17.75,6.4158 18.0842,6.75 18.5,6.75C 18.9158,6.75 19.25,6.4158 19.25,6L 19.25,5.25L 20.75,5.25L 20.75,6C 20.75,7.2442 19.7442,8.25 18.5,8.25C 17.2558,8.25 16.25,7.2442 16.25,6C 16.25,5.0339 15.4662,4.25 14.5,4.25C 13.5335,4.25 12.75,5.0335 12.75,6L 14,6L 14,7.2899C 16.8915,8.1504 19,10.829 19,14C 19,17.866 15.866,21 12,21C 8.13401,21 5,17.866 5,14C 5,10.829 7.10851,8.1504 10,7.2899L 10,6L 11.25,6 Z M 22,6L 24,6L 24,7L 22,7L 22,6 Z M 19,4L 19,2L 20,2L 20,4L 19,4 Z M 20.9142,4.3787L 22.3284,2.9645L 23.0355,3.6716L 21.6213,5.0858L 20.9142,4.3787 Z "/>
</svg>
