<?xml version="1.0" encoding="utf-8"?>
<!DOCTYPE svg PUBLIC "-//W3C//DTD SVG 1.1//EN" "http://www.w3.org/Graphics/SVG/1.1/DTD/svg11.dtd">
<svg xmlns="http://www.w3.org/2000/svg" xmlns:xlink="http://www.w3.org/1999/xlink" version="1.1" baseProfile="full" width="24" height="24" viewBox="0 0 24.00 24.00" enable-background="new 0 0 24.00 24.00" xml:space="preserve">
	<path fill="#000000" fill-opacity="1" stroke-width="0.2" stroke-linejoin="round" d="M 8,14C 8,15.6569 6.65685,17 5,17C 3.34315,17 2,15.6569 2,14C 2,13.2316 2.28885,12.5308 2.7639,12C 2.28885,11.4692 2,10.7684 2,10C 2,8.34315 3.34315,7 5,7C 6.65685,7 8,8.34315 8,10C 9.33333,10.0833 10.6667,10.1667 12,10.1667C 13.3333,10.1667 14.6667,10.0833 16,10C 16,8.34315 17.3431,7 19,7C 20.6569,7 22,8.34315 22,10C 22,10.7684 21.7111,11.4692 21.2361,12C 21.7111,12.5308 22,13.2316 22,14C 22,15.6569 20.6569,17 19,17C 17.3431,17 16,15.6569 16,14C 14.6667,13.9167 13.3333,13.8333 12,13.8333C 10.6667,13.8333 9.33333,13.9167 8,14 Z "/>
</svg>
