<?xml version="1.0" encoding="utf-8"?>
<!DOCTYPE svg PUBLIC "-//W3C//DTD SVG 1.1//EN" "http://www.w3.org/Graphics/SVG/1.1/DTD/svg11.dtd">
<svg xmlns="http://www.w3.org/2000/svg" xmlns:xlink="http://www.w3.org/1999/xlink" version="1.1" baseProfile="full" width="24" height="24" viewBox="0 0 24.00 24.00" enable-background="new 0 0 24.00 24.00" xml:space="preserve">
	<path fill="#000000" fill-opacity="1" stroke-width="0.2" stroke-linejoin="miter" d="M 5.99938,21.998C 4.89586,21.998 3.99938,21.1021 3.99938,19.998L 3.99938,3.99805C 3.99938,2.89404 4.89586,1.99805 5.99938,1.99805L 6.99938,1.99805L 6.99938,8.99805L 9.49938,7.49805L 11.9994,8.99805L 11.9994,1.99805L 17.9994,1.99805C 19.1044,1.99805 19.9994,2.89404 19.9994,3.99805L 19.9994,11.4979C 19.23,11.1771 18.3857,11 17.5,11C 13.9102,11 11,13.9102 11,17.5C 11,19.2455 11.688,20.8303 12.8077,21.998L 5.99938,21.998 Z M 17.5,13C 19.9853,13 22,15.0147 22,17.5C 22,19.9853 19.9853,22 17.5,22C 15.0147,22 13,19.9853 13,17.5C 13,15.0147 15.0147,13 17.5,13 Z M 16.0714,15L 16.0714,20L 20,17.5L 16.0714,15 Z "/>
</svg>
