<?xml version="1.0" encoding="utf-8"?>
<!DOCTYPE svg PUBLIC "-//W3C//DTD SVG 1.1//EN" "http://www.w3.org/Graphics/SVG/1.1/DTD/svg11.dtd">
<svg xmlns="http://www.w3.org/2000/svg" xmlns:xlink="http://www.w3.org/1999/xlink" version="1.1" baseProfile="full" width="24" height="24" viewBox="0 0 24.00 24.00" enable-background="new 0 0 24.00 24.00" xml:space="preserve">
	<path fill="#050708" fill-opacity="1" stroke-width="0.2" stroke-linejoin="round" d="M 16.9994,2.99805C 18.1044,2.99805 18.9994,3.89404 18.9994,4.99805L 18.9994,20.998L 11.9994,17.998L 4.9994,20.998L 5.0104,4.99805C 5.0104,3.89404 5.89541,2.99805 6.9994,2.99805L 16.9994,2.99805 Z M 11,11C 9.89543,11 9,11.8954 9,13C 9,14.1046 9.89543,15 11,15C 12.1046,15 13,14.1046 13,13L 13,8L 16,8L 16,6L 12,6L 12,11.2676C 11.7058,11.0974 11.3643,11 11,11 Z "/>
</svg>
