<?xml version="1.0" encoding="utf-8"?>
<!DOCTYPE svg PUBLIC "-//W3C//DTD SVG 1.1//EN" "http://www.w3.org/Graphics/SVG/1.1/DTD/svg11.dtd">
<svg xmlns="http://www.w3.org/2000/svg" xmlns:xlink="http://www.w3.org/1999/xlink" version="1.1" baseProfile="full" width="24" height="24" viewBox="0 0 24.00 24.00" enable-background="new 0 0 24.00 24.00" xml:space="preserve">
	<path fill="#050708" fill-opacity="1" stroke-width="0.2" stroke-linejoin="round" d="M 15.5,12C 17.9853,12 20,14.0147 20,16.5C 20,17.3826 19.7459,18.2059 19.3069,18.9006L 22.3906,21.9844L 20.9844,23.3906L 17.8763,20.3221C 17.1867,20.7518 16.3723,21 15.5,21C 13.0147,21 11,18.9853 11,16.5C 11,14.0147 13.0147,12 15.5,12 Z M 15.5,14C 14.1193,14 13,15.1193 13,16.5C 13,17.8807 14.1193,19 15.5,19C 16.8807,19 18,17.8807 18,16.5C 18,15.1193 16.8807,14 15.5,14 Z M 5.99938,21.998C 4.89586,21.998 3.99938,21.1021 3.99938,19.998L 3.99938,3.99805C 3.99938,2.89404 4.89586,1.99805 5.99938,1.99805L 6.99938,1.99805L 6.99938,8.99805L 9.49938,7.49805L 11.9994,8.99805L 11.9994,1.99805L 17.9994,1.99805C 19.1044,1.99805 19.9994,2.89404 19.9994,3.99805L 19.9994,11.809C 18.8315,10.6886 17.2462,10 15.5,10C 11.9101,10 9,12.9101 9,16.5C 9,18.8145 10.2097,20.8464 12.0312,21.998L 5.99938,21.998 Z "/>
</svg>
