<?xml version="1.0" encoding="utf-8"?>
<!DOCTYPE svg PUBLIC "-//W3C//DTD SVG 1.1//EN" "http://www.w3.org/Graphics/SVG/1.1/DTD/svg11.dtd">
<svg xmlns="http://www.w3.org/2000/svg" xmlns:xlink="http://www.w3.org/1999/xlink" version="1.1" baseProfile="full" width="24" height="24" viewBox="0 0 24.00 24.00" enable-background="new 0 0 24.00 24.00" xml:space="preserve">
	<path fill="#000000" fill-opacity="1" stroke-width="0.2" stroke-linejoin="miter" d="M 17,16L 22,19L 17,22L 17,16 Z M 18,2C 19.1,2 20,2.9 20,4L 20,15.4227L 18,14.268L 18,4L 13,4.00001L 13,12L 10.5,9.75001L 7.99999,12L 8,4.00001L 6,4L 6,20L 15,20L 15,22L 6,22C 4.9,22 4,21.1 4,20L 4,4C 4,2.9 4.9,2 6,2L 18,2 Z "/>
</svg>
