<?xml version="1.0" encoding="utf-8"?>
<!DOCTYPE svg PUBLIC "-//W3C//DTD SVG 1.1//EN" "http://www.w3.org/Graphics/SVG/1.1/DTD/svg11.dtd">
<svg xmlns="http://www.w3.org/2000/svg" xmlns:xlink="http://www.w3.org/1999/xlink" version="1.1" baseProfile="full" width="24" height="24" viewBox="0 0 24.00 24.00" enable-background="new 0 0 24.00 24.00" xml:space="preserve">
	<path fill="#000000" fill-opacity="1" stroke-width="1.33333" stroke-linejoin="miter" d="M 9,2C 7.89543,2 7,2.8954 7,4L 7,16C 7,17.1046 7.89543,18 9,18L 19,18C 20.1046,18 21,17.1046 21,16L 21,4C 21,2.8954 20.1046,2 19,2L 14,2L 14,7L 12,5.5L 10,7L 10,2L 9,2 Z M 3,6L 3,20C 3,21.1046 3.89543,22 5,22L 17,22L 17,20L 5,20L 5,6L 3,6 Z M 14.5859,10.1719L 16,11.5859L 17.4141,10.1719L 18.8281,11.5859L 17.4141,13L 18.8281,14.4141L 17.4141,15.8281L 16,14.4141L 14.5859,15.8281L 13.1719,14.4141L 14.5859,13L 13.1719,11.5859L 14.5859,10.1719 Z "/>
</svg>
