<?xml version="1.0" encoding="utf-8"?>
<!DOCTYPE svg PUBLIC "-//W3C//DTD SVG 1.1//EN" "http://www.w3.org/Graphics/SVG/1.1/DTD/svg11.dtd">
<svg xmlns="http://www.w3.org/2000/svg" xmlns:xlink="http://www.w3.org/1999/xlink" version="1.1" baseProfile="full" width="24" height="24" viewBox="0 0 24.00 24.00" enable-background="new 0 0 24.00 24.00" xml:space="preserve">
	<path fill="#050708" fill-opacity="1" stroke-width="0.2" stroke-linejoin="round" d="M 9,1.00001L 19,1.00001C 20.1046,1.00001 21,1.89544 21,3L 21,19L 19,18.1304L 19,3L 7,3C 7,1.89544 7.89543,1.00001 9,1.00001 Z M 15,20L 15,7L 5,7L 5,20L 10,17.824L 15,20 Z M 15,5C 16.105,5 17,5.896 17,7L 17,23L 10,20L 3,23L 3.01101,7C 3.01101,5.896 3.89601,5 5,5L 15,5 Z "/>
</svg>
