<?xml version="1.0" encoding="utf-8"?>
<!DOCTYPE svg PUBLIC "-//W3C//DTD SVG 1.1//EN" "http://www.w3.org/Graphics/SVG/1.1/DTD/svg11.dtd">
<svg xmlns="http://www.w3.org/2000/svg" xmlns:xlink="http://www.w3.org/1999/xlink" version="1.1" baseProfile="full" width="24" height="24" viewBox="0 0 24.00 24.00" enable-background="new 0 0 24.00 24.00" xml:space="preserve">
	<path fill="#050708" fill-opacity="1" stroke-width="1.33333" stroke-linejoin="miter" d="M 18,2L 12,2L 12,9L 9.5,7.5L 7,9L 7,2L 6,2C 4.89543,2 4,2.8954 4,4L 4,20C 4,21.1046 4.89543,22 6,22L 18,22C 19.1046,22 20,21.1046 20,20L 20,4C 20,2.8954 19.1046,2 18,2 Z M 18,20L 10,20L 10,16L 11,16L 11,14C 11,12.3431 12.3431,11 14,11C 15.6569,11 17,12.3431 17,14L 15,14C 15,13.4477 14.5523,13 14,13C 13.4477,13 13,13.4477 13,14L 13,16L 18,16L 18,20 Z "/>
</svg>
