<?xml version="1.0" encoding="utf-8"?>
<!DOCTYPE svg PUBLIC "-//W3C//DTD SVG 1.1//EN" "http://www.w3.org/Graphics/SVG/1.1/DTD/svg11.dtd">
<svg xmlns="http://www.w3.org/2000/svg" xmlns:xlink="http://www.w3.org/1999/xlink" version="1.1" baseProfile="full" width="24" height="24" viewBox="0 0 24.00 24.00" enable-background="new 0 0 24.00 24.00" xml:space="preserve">
	<path fill="#000000" fill-opacity="1" stroke-width="1.33333" stroke-linejoin="miter" d="M 20,9L 8.22,9C 7.10562,7.7739 5.20829,7.6833 3.98218,8.7977C 3.36118,9.3621 3.00497,10.1608 3,11L 3,20C 2.44772,20 2,20.4477 2,21L 2,22L 10,22L 10,21C 10,20.4477 9.55229,20 9,20L 9,13L 20,13C 21.1046,13 22,12.1046 22,11C 22,9.8954 21.1046,9 20,9 Z M 6,12.5C 5.17157,12.5 4.5,11.8284 4.5,11C 4.5,10.1716 5.17157,9.5 6,9.5C 6.82843,9.5 7.5,10.1716 7.5,11C 7.5,11.8284 6.82843,12.5 6,12.5 Z M 10.5,12L 9,10L 10.5,10L 12,12L 10.5,12 Z M 14.5,12L 13,10L 14.5,10L 16,12L 14.5,12 Z M 18.5,12L 17,10L 18.5,10L 20,12L 18.5,12 Z "/>
</svg>
