<?xml version="1.0" encoding="utf-8"?>
<!DOCTYPE svg PUBLIC "-//W3C//DTD SVG 1.1//EN" "http://www.w3.org/Graphics/SVG/1.1/DTD/svg11.dtd">
<svg xmlns="http://www.w3.org/2000/svg" xmlns:xlink="http://www.w3.org/1999/xlink" version="1.1" baseProfile="full" width="24" height="24" viewBox="0 0 24.00 24.00" enable-background="new 0 0 24.00 24.00" xml:space="preserve">
	<path fill="#000000" fill-opacity="1" stroke-width="1.33333" stroke-linejoin="miter" d="M 19.86,3C 19.3088,2.0428 18.086,1.7137 17.12,2.27L 6.92,8.16C 6.62436,8.0559 6.31343,8.0018 6,8C 4.34315,8 3,9.3431 3,11L 3,20C 2.44772,20 2,20.4477 2,21L 2,22L 10,22L 10,21C 10,20.4477 9.55229,20 9,20L 9,11.58L 19.12,5.73C 20.0782,5.1805 20.4095,3.9583 19.86,3 Z M 6,12.5C 5.17157,12.5 4.5,11.8284 4.5,11C 4.5,10.1716 5.17157,9.5 6,9.5C 6.82843,9.5 7.5,10.1716 7.5,11C 7.5,11.8284 6.82843,12.5 6,12.5 Z M 10.4,9.62L 8.1,8.62L 9.4,7.87L 11.7,8.87L 10.4,9.62 Z M 13.86,7.62L 11.56,6.62L 12.86,5.87L 15.16,6.87L 13.86,7.62 Z M 17.33,5.62L 15.03,4.62L 16.33,3.87L 18.62,4.87L 17.33,5.62 Z M 17,20L 12,15L 15,15L 15,11L 19,11L 19,15L 22,15L 17,20"/>
</svg>
