<?xml version="1.0" encoding="utf-8"?>
<!DOCTYPE svg PUBLIC "-//W3C//DTD SVG 1.1//EN" "http://www.w3.org/Graphics/SVG/1.1/DTD/svg11.dtd">
<svg xmlns="http://www.w3.org/2000/svg" xmlns:xlink="http://www.w3.org/1999/xlink" version="1.1" baseProfile="full" width="24" height="24" viewBox="0 0 24.00 24.00" enable-background="new 0 0 24.00 24.00" xml:space="preserve">
	<path fill="#000000" fill-opacity="1" stroke-width="0.2" stroke-linejoin="round" d="M 19.86,3C 20.4095,3.9583 20.0782,5.1805 19.12,5.73L 9,11.58L 9,20C 9.55229,20 10,20.4477 10,21L 10,22L 2,22L 2,21C 2,20.4477 2.44772,20 3,20L 3,11C 3,9.3431 4.34315,8 6,8C 6.31343,8.0018 6.62436,8.0559 6.92,8.16L 17.12,2.27C 18.086,1.7137 19.3088,2.0428 19.86,3 Z M 7.5,20L 7.5,13.6C 6.5718,14.1359 5.4282,14.1359 4.5,13.6L 4.5,20L 7.5,20 Z M 6,12.5C 6.82843,12.5 7.5,11.8284 7.5,11C 7.5,10.1716 6.82843,9.5 6,9.5C 5.17157,9.5 4.5,10.1716 4.5,11C 4.5,11.8284 5.17157,12.5 6,12.5 Z M 10.4,9.62L 11.7,8.87L 9.4,7.87L 8.1,8.62L 10.4,9.62 Z M 13.86,7.62L 15.16,6.87L 12.86,5.87L 11.56,6.62L 13.86,7.62 Z M 17.33,5.62L 18.62,4.87L 16.33,3.87L 15.03,4.62L 17.33,5.62 Z M 16,20L 16,14.9896L 13,15L 17,11.1612L 21,15L 18,14.9896L 18,20L 16,20 Z "/>
</svg>
