<?xml version="1.0" encoding="utf-8"?>
<!DOCTYPE svg PUBLIC "-//W3C//DTD SVG 1.1//EN" "http://www.w3.org/Graphics/SVG/1.1/DTD/svg11.dtd">
<svg xmlns="http://www.w3.org/2000/svg" xmlns:xlink="http://www.w3.org/1999/xlink" version="1.1" baseProfile="full" width="24" height="24" viewBox="0 0 24.00 24.00" enable-background="new 0 0 24.00 24.00" xml:space="preserve">
	<path fill="#000000" fill-opacity="1" stroke-width="1.33333" stroke-linejoin="miter" d="M 7,5L 5,7L 5,8L 3,8C 2.446,8 2,8.446 2,9L 2,17C 2,17.554 2.446,18 3,18L 21,18C 21.554,18 22,17.554 22,17L 22,9C 22,8.446 21.554,8 21,8L 19,8L 19,7L 17,5L 7,5 Z M 7,7L 17,7L 17,8L 7,8L 7,7 Z M 11,9L 13,9C 13.277,9 13.5,9.223 13.5,9.5C 13.5,9.777 13.277,10 13,10L 11,10C 10.723,10 10.5,9.777 10.5,9.5C 10.5,9.223 10.723,9 11,9 Z M 7.5,10.5C 9.15685,10.5 10.5,11.8431 10.5,13.5C 10.5,15.1569 9.15685,16.5 7.5,16.5C 5.84315,16.5 4.5,15.1569 4.5,13.5C 4.5,11.8431 5.84315,10.5 7.5,10.5 Z M 16.5,10.5C 18.1569,10.5 19.5,11.8431 19.5,13.5C 19.5,15.1569 18.1569,16.5 16.5,16.5C 14.8431,16.5 13.5,15.1569 13.5,13.5C 13.5,11.8431 14.8431,10.5 16.5,10.5 Z M 7.5,12C 6.67157,12 6,12.6716 6,13.5C 6,14.3284 6.67157,15 7.5,15C 8.32843,15 9,14.3284 9,13.5C 9,12.6716 8.32843,12 7.5,12 Z M 16.5,12C 15.6716,12 15,12.6716 15,13.5C 15,14.3284 15.6716,15 16.5,15C 17.3284,15 18,14.3284 18,13.5C 18,12.6716 17.3284,12 16.5,12 Z "/>
</svg>
