<?xml version="1.0" encoding="utf-8"?>
<!DOCTYPE svg PUBLIC "-//W3C//DTD SVG 1.1//EN" "http://www.w3.org/Graphics/SVG/1.1/DTD/svg11.dtd">
<svg xmlns="http://www.w3.org/2000/svg" xmlns:xlink="http://www.w3.org/1999/xlink" version="1.1" baseProfile="full" width="24" height="24" viewBox="0 0 24.00 24.00" enable-background="new 0 0 24.00 24.00" xml:space="preserve">
	<path fill="#050708" fill-opacity="1" stroke-width="0.2" stroke-linejoin="round" d="M 3,5C 3,3.896 3.894,3 5,3L 19,3C 20.1035,3 21,3.896 21,5L 21,19C 21,20.104 20.1035,21 19,21L 5,21C 3.894,21 3,20.104 3,19L 3,5 Z M 7.5,6.00001L 7.5,18L 12.5,18C 14.75,18 16.5,16.75 16.5,14.4999C 16.5,12.5 14.7688,11.5 13.25,11.5C 14.7688,11.5 16,10.2688 16,8.75C 16,7.23122 14.2688,6.00001 12.75,6.00001L 7.5,6.00001 Z M 10,11L 10,8.00001L 11.5,8.00001C 12.3284,8.00001 13,8.67158 13,9.50001C 13,10.3284 12.3284,11 11.5,11L 10,11 Z M 10,13L 12,13C 12.8284,13 13.5,13.6716 13.5,14.5C 13.5,15.3284 12.8284,16 12,16L 10,16L 10,13 Z "/>
</svg>
