<?xml version="1.0" encoding="utf-8"?>
<!DOCTYPE svg PUBLIC "-//W3C//DTD SVG 1.1//EN" "http://www.w3.org/Graphics/SVG/1.1/DTD/svg11.dtd">
<svg xmlns="http://www.w3.org/2000/svg" xmlns:xlink="http://www.w3.org/1999/xlink" version="1.1" baseProfile="full" width="24" height="24" viewBox="0 0 24.00 24.00" enable-background="new 0 0 24.00 24.00" xml:space="preserve">
	<path fill="#000000" fill-opacity="1" stroke-width="0.2" stroke-linejoin="round" d="M 10.9994,4.99805L 12.9994,4.99805L 12.9994,2.99805L 10.9994,2.99805M 14.9994,4.99808L 16.9994,4.99808L 16.9994,2.99808L 14.9994,2.99808M 14.9994,20.9981L 16.9994,20.9981L 16.9994,18.9981L 14.9994,18.9981M 18.9994,20.9981L 20.9994,20.9981L 20.9994,2.99808L 18.9994,2.99808M 2.99942,8.99808L 4.99942,8.99808L 4.99942,6.99808L 2.99942,6.99808M 2.99942,16.9981L 4.99942,16.9981L 4.99942,14.9981L 2.99942,14.9981M 2.99942,12.9981L 4.99942,12.9981L 4.99942,10.9981L 2.99942,10.9981M 10.9994,20.9981L 12.9994,20.9981L 12.9994,18.9981L 10.9994,18.9981M 2.99942,20.9981L 4.99942,20.9981L 4.99942,18.9981L 2.99942,18.9981M 6.99942,4.99808L 8.99942,4.99808L 8.99942,2.99808L 6.99942,2.99808M 2.99942,4.99808L 4.99942,4.99808L 4.99942,2.99808L 2.99942,2.99808M 6.99942,20.9981L 8.99942,20.9981L 8.99942,18.9981L 6.99942,18.9981L 6.99942,20.9981 Z "/>
</svg>
