<?xml version="1.0" encoding="utf-8"?>
<!DOCTYPE svg PUBLIC "-//W3C//DTD SVG 1.1//EN" "http://www.w3.org/Graphics/SVG/1.1/DTD/svg11.dtd">
<svg xmlns="http://www.w3.org/2000/svg" xmlns:xlink="http://www.w3.org/1999/xlink" version="1.1" baseProfile="full" width="24" height="24" viewBox="0 0 24.00 24.00" enable-background="new 0 0 24.00 24.00" xml:space="preserve">
	<path fill="#000000" fill-opacity="1" stroke-width="0.2" stroke-linejoin="round" d="M 15,21.0012L 17.0025,21.0012L 17.0025,18.9988L 15,18.9988M 18.9988,21.0012L 21.0013,21.0012L 21.0013,18.9988L 18.9988,18.9988M 7.0025,21.0012L 8.99875,21.0012L 8.99875,18.9988L 7.0025,18.9988M 11.0013,21.0012L 12.9975,21.0012L 12.9975,18.9988L 11.0013,18.9988M 18.9988,17.0025L 21.0013,17.0025L 21.0013,15L 18.9988,15M 18.9988,12.9975L 21.0013,12.9975L 21.0013,11.0012L 18.9988,11.0012M 2.9975,2.9978L 2.9975,21.0012L 5,21.0012L 5,5L 21.0013,5L 21.0013,2.9978M 18.9988,8.99875L 21.0013,8.99875L 21.0013,7.0025L 18.9988,7.0025"/>
</svg>
