<?xml version="1.0" encoding="utf-8"?>
<!DOCTYPE svg PUBLIC "-//W3C//DTD SVG 1.1//EN" "http://www.w3.org/Graphics/SVG/1.1/DTD/svg11.dtd">
<svg xmlns="http://www.w3.org/2000/svg" xmlns:xlink="http://www.w3.org/1999/xlink" version="1.1" baseProfile="full" width="24" height="24" viewBox="0 0 24.00 24.00" enable-background="new 0 0 24.00 24.00" xml:space="preserve">
	<path fill="#000000" fill-opacity="1" stroke-linejoin="round" d="M 3,3.00001L 18,3.00001L 18,18L 3,18L 3,3.00001 Z M 19,19L 21,19L 21,21L 19,21L 19,19 Z M 19,16L 21,16L 21,18L 19,18L 19,16 Z M 19,13L 21,13L 21,15L 19,15L 19,13 Z M 19,10L 21,10L 21,12L 19,12L 19,10 Z M 19,7.00001L 21,7.00001L 21,9.00001L 19,9.00001L 19,7.00001 Z M 16,19L 18,19L 18,21L 16,21L 16,19 Z M 13,19L 15,19L 15,21L 13,21L 13,19 Z M 10,19L 12,19L 12,21L 10,21L 10,19 Z M 6.99999,19L 8.99999,19L 8.99999,21L 6.99999,21L 6.99999,19 Z "/>
</svg>
