<?xml version="1.0" encoding="utf-8"?>
<!DOCTYPE svg PUBLIC "-//W3C//DTD SVG 1.1//EN" "http://www.w3.org/Graphics/SVG/1.1/DTD/svg11.dtd">
<svg xmlns="http://www.w3.org/2000/svg" xmlns:xlink="http://www.w3.org/1999/xlink" version="1.1" baseProfile="full" width="24" height="24" viewBox="0 0 24.00 24.00" enable-background="new 0 0 24.00 24.00" xml:space="preserve">
	<path fill="#000000" fill-opacity="1" stroke-width="0.2" stroke-linejoin="miter" d="M 7.22185,11.9059C 6.89199,12.2358 6.7091,12.6504 6.657,13.0785L 12.1716,15.4415L 20.6569,6.95615C 21.4404,6.17275 21.4404,4.91125 20.6569,4.12775L 19.2427,2.71355C 18.4592,1.93005 17.1977,1.93005 16.4142,2.71355L 7.22185,11.9059 Z M 5,16L 5,21.75L 10.8125,16.5312L 5.8125,14.5312L 5,16 Z M 17.1213,4.83485C 17.5119,4.44435 18.145,4.44435 18.5356,4.83485C 18.9261,5.22535 18.9261,5.85855 18.5356,6.24905C 18.145,6.63965 17.5119,6.63965 17.1213,6.24905C 16.7308,5.85855 16.7308,5.22535 17.1213,4.83485 Z "/>
</svg>
