<?xml version="1.0" encoding="utf-8"?>
<!DOCTYPE svg PUBLIC "-//W3C//DTD SVG 1.1//EN" "http://www.w3.org/Graphics/SVG/1.1/DTD/svg11.dtd">
<svg xmlns="http://www.w3.org/2000/svg" xmlns:xlink="http://www.w3.org/1999/xlink" version="1.1" baseProfile="full" width="24" height="24" viewBox="0 0 24.00 24.00" enable-background="new 0 0 24.00 24.00" xml:space="preserve">
	<path fill="#000000" fill-opacity="1" stroke-width="1.33333" stroke-linejoin="miter" d="M 21.33,12.91C 21.4186,14.4636 20.7053,15.9542 19.44,16.86L 20.21,18.35C 20.4443,18.8005 20.4663,19.3317 20.27,19.8C 20.0811,20.2731 19.6933,20.639 19.21,20.8L 18.42,21.05C 18.246,21.109 18.0637,21.1394 17.88,21.14C 17.3701,21.1379 16.8871,20.9111 16.56,20.52L 14.44,18C 13.546,17.8481 12.7058,17.4694 12,16.9C 11.5204,17.048 11.0219,17.1254 10.52,17.13C 9.61833,17.1348 8.73754,16.8587 8,16.34C 7.47352,16.4915 6.92781,16.5656 6.38,16.56C 5.59075,16.5675 4.80822,16.4144 4.08,16.11C 2.64714,15.4694 1.70425,14.0686 1.65,12.5C 1.56559,11.7777 1.68691,11.0463 2,10.39C 1.7095,9.6445 1.68478,8.8216 1.93,8.06C 2.30177,7.1136 2.98642,6.3231 3.87,5.82C 4.4491,4.1264 6.08276,3.0237 7.87,3.12C 9.47393,1.6163 11.9188,1.4612 13.7,2.75C 14.1244,2.6388 14.5612,2.5817 15,2.58C 16.357,2.5452 17.6507,3.1531 18.49,4.22C 20.5428,4.7532 22.0023,6.5705 22.08,8.69C 22.1319,9.7981 21.8307,10.894 21.22,11.82C 21.2943,12.1785 21.3312,12.5438 21.33,12.91 Z M 16.33,11.5C 16.9023,11.57 17.35,12.0177 17.35,12.57C 17.35,13.1223 16.9023,13.57 16.35,13.57L 15.72,13.57C 15.4037,14.4693 14.8427,15.2624 14.1,15.86C 14.351,15.9494 14.6084,16.0196 14.87,16.07C 20,16 19.4002,12.8651 19.3984,12.8177C 19.343,11.3884 18.1393,10.2746 16.71,10.33C 16.1577,10.33 15.71,9.8823 15.71,9.33C 15.71,8.7777 16.1577,8.33 16.71,8.33C 17.9379,8.3605 19.1163,8.8205 20.04,9.63C 20.0911,9.336 20.1178,9.0384 20.12,8.74C 20.0625,7.4884 19.5,6.42 17.25,6.21C 16,3.25 12.85,4.89 12.85,5.81L 12.85,5.81C 12.8241,6.0374 13.0598,6.5343 13.1,6.56C 13.6523,6.56 14.1,7.0077 14.1,7.56C 14.1,8.1123 13.6523,8.56 13.1,8.56L 13.1,8.56C 12.5737,8.5403 12.0697,8.3429 11.67,8C 11.1885,8.3107 10.6401,8.5026 10.07,8.56L 10.07,8.56C 9.51772,8.6125 9.02747,8.2073 8.975,7.655C 8.92253,7.1027 9.32772,6.6125 9.88,6.56C 10.04,6.54 10.82,6.42 10.82,5.79L 10.82,5.79C 10.8231,5.129 11.0686,4.4921 11.51,4C 10.5807,3.7544 9.59428,4.0845 8.59,5.29C 6.75,5 6,5.25 5.45,7.2C 4.50594,7.6657 4,8 3.78,9C 4.85569,8.7822 5.97081,8.8688 7,9.25C 7.51915,9.4433 7.7833,10.0209 7.59,10.54C 7.3967,11.0591 6.81915,11.3233 6.3,11.13C 5.5701,10.8126 4.74546,10.7911 4,11.07C 3.68,11.34 3.68,11.9 3.68,12.34C 3.67538,13.0816 4.05334,13.7733 4.68,14.17C 5.20909,14.4401 5.79598,14.5774 6.39,14.57C 6.23759,14.3114 6.10713,14.0404 6,13.76C 5.81222,13.2188 6.09876,12.6278 6.64,12.44C 7.18124,12.2522 7.77222,12.5388 7.96,13.08C 8.35747,14.2168 9.381,15.0176 10.58,15.13C 11.9483,15.0604 13.1705,14.252 13.77,13.02C 13.99,11.62 15.11,11.5 16.33,11.5 Z M 18.33,18.97L 17.71,17.67L 17.01,17.83L 18.01,19.08L 18.33,18.97 Z M 13.68,10.36C 13.698,9.8296 13.2986,9.3775 12.77,9.33C 12.0634,9.2897 11.3696,9.5306 10.84,10C 10.2714,10.5826 9.97385,11.3773 10.02,12.19C 10.02,12.7423 10.4677,13.19 11.02,13.19C 11.5723,13.19 12.02,12.7423 12.02,12.19C 11.9946,11.9195 12.0693,11.6491 12.23,11.43C 12.3526,11.3335 12.504,11.2807 12.66,11.28C 13.2053,11.3145 13.6774,10.9048 13.68,10.36 Z "/>
</svg>
