<?xml version="1.0" encoding="utf-8"?>
<!DOCTYPE svg PUBLIC "-//W3C//DTD SVG 1.1//EN" "http://www.w3.org/Graphics/SVG/1.1/DTD/svg11.dtd">
<svg xmlns="http://www.w3.org/2000/svg" xmlns:xlink="http://www.w3.org/1999/xlink" version="1.1" baseProfile="full" width="24" height="24" viewBox="0 0 24.00 24.00" enable-background="new 0 0 24.00 24.00" xml:space="preserve">
	<path fill="#000000" fill-opacity="1" stroke-width="1.33333" stroke-linejoin="miter" d="M 7,8C 7,7.4477 7.44772,7 8,7C 8.55229,7 9,7.4477 9,8L 9,12.47L 10.21,12.6L 15.15,14.79C 15.6741,15.0337 16.0067,15.562 16,16.14L 16,20.5C 15.974,21.3174 15.3174,21.974 14.5,22L 8,22C 7.62109,22.0034 7.25821,21.8473 7,21.57L 2.1,17.37L 2.84,16.6C 3.03083,16.3942 3.29936,16.2781 3.58,16.28L 3.8,16.28L 7,18L 7,8M 19.5,2C 18.6716,2 18,2.6716 18,3.5C 18,4.3284 18.6716,5 19.5,5C 20.3284,5 21,4.3284 21,3.5C 21,2.6716 20.3284,2 19.5,2 Z M 19.5,7C 18.6716,7 18,7.6716 18,8.5C 18,9.3284 18.6716,10 19.5,10C 20.3284,10 21,9.3284 21,8.5C 21,7.6716 20.3284,7 19.5,7 Z M 14.5,7C 13.6716,7 13,7.6716 13,8.5C 13,9.3284 13.6716,10 14.5,10C 15.3284,10 16,9.3284 16,8.5C 16,7.6716 15.3284,7 14.5,7 Z M 19.5,12C 18.6716,12 18,12.6716 18,13.5C 18,14.3284 18.6716,15 19.5,15C 20.3284,15 21,14.3284 21,13.5C 21,12.6716 20.3284,12 19.5,12 Z "/>
</svg>
