<?xml version="1.0" encoding="utf-8"?>
<!DOCTYPE svg PUBLIC "-//W3C//DTD SVG 1.1//EN" "http://www.w3.org/Graphics/SVG/1.1/DTD/svg11.dtd">
<svg xmlns="http://www.w3.org/2000/svg" xmlns:xlink="http://www.w3.org/1999/xlink" version="1.1" baseProfile="full" width="24" height="24" viewBox="0 0 24.00 24.00" enable-background="new 0 0 24.00 24.00" xml:space="preserve">
	<path fill="#000000" fill-opacity="1" stroke-width="1.33333" stroke-linejoin="miter" d="M 7,14L 7,10.9096C 6.28444,10.5771 5.61422,10.1754 5,9.71425L 5,14L 7,14 Z M 5,18L 3,18L 3,16L 1,16L 1,14L 3,14L 3,7L 5,7L 5,8.4273C 6.80375,10.0187 9.27454,11 12,11C 14.7254,11 17.1962,10.0187 19,8.42729L 19,7L 21,7L 21,14L 23,14L 23,16L 21,16L 21,18L 19,18L 19,16L 5,16L 5,18 Z M 17,10.9096L 17,14L 19,14L 19,9.71425C 18.3858,10.1754 17.7156,10.5771 17,10.9096 Z M 16,14L 16,11.3183C 15.3603,11.5454 14.6914,11.7196 14,11.8351L 14,14L 16,14 Z M 13,14L 13,11.9592L 12,12L 11,11.9592L 11,14L 13,14 Z M 10,14L 10,11.8351C 9.30854,11.7196 8.63971,11.5454 8,11.3183L 8,14L 10,14 Z "/>
</svg>
