<?xml version="1.0" encoding="utf-8"?>
<!DOCTYPE svg PUBLIC "-//W3C//DTD SVG 1.1//EN" "http://www.w3.org/Graphics/SVG/1.1/DTD/svg11.dtd">
<svg xmlns="http://www.w3.org/2000/svg" xmlns:xlink="http://www.w3.org/1999/xlink" version="1.1" baseProfile="full" width="24" height="24" viewBox="0 0 24.00 24.00" enable-background="new 0 0 24.00 24.00" xml:space="preserve">
	<path fill="#000000" fill-opacity="1" stroke-width="1.33333" stroke-linejoin="miter" d="M 20.0156,6C 20.5781,6 21.0469,6.1953 21.4219,6.5859C 21.7969,6.9766 21.9844,7.4531 21.9844,8.0156L 21.9844,18.9844C 21.9844,19.5469 21.7969,20.0234 21.4219,20.4141C 21.0469,20.8047 20.5781,21 20.0156,21L 3.98438,21C 3.42188,21 2.95313,20.8047 2.57813,20.4141C 2.20313,20.0234 2.01563,19.5469 2.01563,18.9844L 2.01563,8.0156C 2.01563,7.4531 2.20313,6.9766 2.57813,6.5859C 2.95313,6.1953 3.42188,6 3.98438,6L 8.01563,6L 8.01563,3.9844C 8.01563,3.4219 8.20313,2.9531 8.57813,2.5781C 8.95313,2.2031 9.42188,2.0156 9.98438,2.0156L 14.0156,2.0156C 14.5781,2.0156 15.0469,2.2031 15.4219,2.5781C 15.7969,2.9531 15.9844,3.4219 15.9844,3.9844L 15.9844,6L 20.0156,6 Z M 3.98438,8.0156L 3.98438,18.9844L 20.0156,18.9844L 20.0156,8.0156L 3.98438,8.0156 Z M 14.0156,6L 14.0156,3.9844L 9.98438,3.9844L 9.98438,6L 14.0156,6 Z "/>
	<path fill="#000000" fill-opacity="0.717647" stroke-width="1.33333" stroke-linejoin="miter" d="M 10,2L 14,2C 15.1046,2 16,2.89543 16,4L 16,6L 20,6C 21.1046,6 22,6.89543 22,8L 22,19C 22,20.1046 21.1046,21 20,21L 4,21C 2.89543,21 2,20.1046 2,19L 2,8C 2,6.89543 2.89543,6 4,6L 8,6L 8,4C 8,2.89543 8.89543,2 10,2 Z M 14,6L 14,4L 10,4L 10,6L 14,6 Z M 4,8L 4,19L 20,19L 20,8L 4,8 Z "/>
</svg>
