<?xml version="1.0" encoding="utf-8"?>
<!DOCTYPE svg PUBLIC "-//W3C//DTD SVG 1.1//EN" "http://www.w3.org/Graphics/SVG/1.1/DTD/svg11.dtd">
<svg xmlns="http://www.w3.org/2000/svg" xmlns:xlink="http://www.w3.org/1999/xlink" version="1.1" baseProfile="full" width="24" height="24" viewBox="0 0 24.00 24.00" enable-background="new 0 0 24.00 24.00" xml:space="preserve">
	<path fill="#000000" fill-opacity="1" stroke-width="1.33333" stroke-linejoin="miter" d="M 10,2L 14,2C 15.1046,2 16,2.89543 16,4L 16,6L 20,6C 21.1046,6 22,6.89543 22,8L 22,13.5278C 21.4229,13.0113 20.7452,12.6048 20,12.3414L 20,8L 4,8L 4,19L 12.083,19C 12.2034,19.7179 12.4513,20.3926 12.8027,21L 4,21C 2.89543,21 2,20.1046 2,19L 2,8C 2,6.89543 2.89543,6 4,6L 8,6L 8,4C 8,2.89543 8.89543,2 10,2 Z M 14,6L 14,4.00001L 10,4.00001L 10,6L 14,6 Z M 14,17L 22,17L 22,19L 14,19L 14,17 Z "/>
</svg>
