<?xml version="1.0" encoding="utf-8"?>
<!DOCTYPE svg PUBLIC "-//W3C//DTD SVG 1.1//EN" "http://www.w3.org/Graphics/SVG/1.1/DTD/svg11.dtd">
<svg xmlns="http://www.w3.org/2000/svg" xmlns:xlink="http://www.w3.org/1999/xlink" version="1.1" baseProfile="full" width="24" height="24" viewBox="0 0 24.00 24.00" enable-background="new 0 0 24.00 24.00" xml:space="preserve">
	<path fill="#000000" fill-opacity="1" stroke-width="1.33333" stroke-linejoin="miter" d="M 20,6L 16,6L 16,4C 16,2.9 15.1,2 14,2L 10,2C 8.89,2 8,2.89 8,4L 8,6L 4,6C 2.89,6 2,6.89 2,8L 2,19C 2,20.1 2.89,21 4,21L 20,21C 21.1,21 22,20.1 22,19L 22,8C 22,6.9 21.1,6 20,6 Z M 10,4L 14,4L 14,6L 10,6L 10,4 Z M 12,9C 13.381,9 14.5,10.119 14.5,11.5C 14.5,12.881 13.381,14 12,14C 10.619,14 9.5,12.881 9.5,11.5C 9.5,10.119 10.619,9 12,9 Z M 17,19L 7,19L 7,17.75C 7,16.369 9.237,15.25 12,15.25C 14.763,15.25 17,16.369 17,17.75L 17,19 Z "/>
</svg>
