<?xml version="1.0" encoding="utf-8"?>
<!DOCTYPE svg PUBLIC "-//W3C//DTD SVG 1.1//EN" "http://www.w3.org/Graphics/SVG/1.1/DTD/svg11.dtd">
<svg xmlns="http://www.w3.org/2000/svg" xmlns:xlink="http://www.w3.org/1999/xlink" version="1.1" baseProfile="full" width="24" height="24" viewBox="0 0 24.00 24.00" enable-background="new 0 0 24.00 24.00" xml:space="preserve">
	<path fill="#000000" fill-opacity="1" stroke-width="0.2" stroke-linejoin="miter" d="M 22,17L 22,19L 14,19L 14,17L 22,17 Z M 9.99939,1.99805L 13.9994,1.99805C 15.104,1.99805 15.9994,2.89348 15.9994,3.99805L 15.9994,5.99805L 19.9994,5.99805C 21.104,5.99805 21.9994,6.89348 21.9994,7.99805L 21.9994,13.5272C 20.9379,12.5775 19.5364,12 18,12C 14.6863,12 12,14.6863 12,18C 12,19.0921 12.2918,20.116 12.8016,20.998L 3.99939,20.998C 2.89482,20.998 1.99939,20.1026 1.99939,18.998L 1.99939,7.99805C 1.99939,6.89348 2.89482,5.99805 3.99939,5.99805L 7.99939,5.99805L 7.99939,3.99805C 7.99939,2.89348 8.89482,1.99805 9.99939,1.99805 Z M 13.9994,5.99805L 13.9994,3.99805L 9.99939,3.99805L 9.99939,5.99805L 13.9994,5.99805 Z "/>
</svg>
