<?xml version="1.0" encoding="utf-8"?>
<!DOCTYPE svg PUBLIC "-//W3C//DTD SVG 1.1//EN" "http://www.w3.org/Graphics/SVG/1.1/DTD/svg11.dtd">
<svg xmlns="http://www.w3.org/2000/svg" xmlns:xlink="http://www.w3.org/1999/xlink" version="1.1" baseProfile="full" width="24" height="24" viewBox="0 0 24.00 24.00" enable-background="new 0 0 24.00 24.00" xml:space="preserve">
	<path fill="#000000" fill-opacity="1" stroke-width="1.33333" stroke-linejoin="miter" d="M 9.99939,1.99805L 13.9994,1.99805C 15.104,1.99805 15.9994,2.89348 15.9994,3.99805L 15.9994,5.99805L 19.9994,5.99805C 21.104,5.99805 21.9994,6.89348 21.9994,7.99805L 21.9994,13.0333C 21.4888,12.2251 20.8049,11.5372 20,11.0218L 20,8L 4,8L 4,19L 10.4982,19C 10.8096,19.7468 11.2563,20.423 11.8077,20.998L 3.99939,20.998C 2.89482,20.998 1.99939,20.1026 1.99939,18.998L 1.99939,7.99805C 1.99939,6.89348 2.89482,5.99805 3.99939,5.99805L 7.99939,5.99805L 7.99939,3.99805C 7.99939,2.89348 8.89482,1.99805 9.99939,1.99805 Z M 13.9994,5.99805L 13.9994,3.99805L 9.99939,3.99805L 9.99939,5.99805L 13.9994,5.99805 Z M 20.31,18.9L 23.39,22L 22,23.39L 18.88,20.32C 18.19,20.75 17.37,21 16.5,21C 14,21 12,19 12,16.5C 12,14 14,12 16.5,12C 19,12 21,14 21,16.5C 21,17.38 20.75,18.21 20.31,18.9 Z M 16.5,19C 17.88,19 19,17.88 19,16.5C 19,15.12 17.88,14 16.5,14C 15.12,14 14,15.12 14,16.5C 14,17.88 15.12,19 16.5,19 Z "/>
</svg>
