<?xml version="1.0" encoding="utf-8"?>
<!DOCTYPE svg PUBLIC "-//W3C//DTD SVG 1.1//EN" "http://www.w3.org/Graphics/SVG/1.1/DTD/svg11.dtd">
<svg xmlns="http://www.w3.org/2000/svg" xmlns:xlink="http://www.w3.org/1999/xlink" version="1.1" baseProfile="full" width="24" height="24" viewBox="0 0 24.00 24.00" enable-background="new 0 0 24.00 24.00" xml:space="preserve">
	<path fill="#000000" fill-opacity="1" stroke-width="0.2" stroke-linejoin="miter" d="M 9.99939,1.99805L 13.9994,1.99805C 15.104,1.99805 15.9994,2.89348 15.9994,3.99805L 15.9994,5.99805L 19.9994,5.99805C 21.104,5.99805 21.9994,6.89348 21.9994,7.99805L 21.9994,18.998C 21.9994,20.1026 21.104,20.998 19.9994,20.998L 3.99939,20.998C 2.89482,20.998 1.99939,20.1026 1.99939,18.998L 1.99939,7.99805C 1.99939,6.89348 2.89482,5.99805 3.99939,5.99805L 7.99939,5.99805L 7.99939,3.99805C 7.99939,2.89348 8.89482,1.99805 9.99939,1.99805 Z M 13.9994,5.99805L 13.9994,3.99805L 9.99939,3.99805L 9.99939,5.99805L 13.9994,5.99805 Z "/>
</svg>
