<?xml version="1.0" encoding="utf-8"?>
<!DOCTYPE svg PUBLIC "-//W3C//DTD SVG 1.1//EN" "http://www.w3.org/Graphics/SVG/1.1/DTD/svg11.dtd">
<svg xmlns="http://www.w3.org/2000/svg" xmlns:xlink="http://www.w3.org/1999/xlink" version="1.1" baseProfile="full" width="24" height="24" viewBox="0 0 24.00 24.00" enable-background="new 0 0 24.00 24.00" xml:space="preserve">
	<path fill="#000000" fill-opacity="1" stroke-width="0.2" stroke-linejoin="miter" d="M 9.99939,1.99807L 13.9994,1.99807C 15.104,1.99807 15.9994,2.8935 15.9994,3.99807L 15.9994,5.99807L 19.9994,5.99807C 21.104,5.99807 21.9994,6.8935 21.9994,7.99807L 21.9994,18.9981C 21.9994,20.1026 21.104,20.9981 19.9994,20.9981L 3.99939,20.9981C 2.89482,20.9981 1.99939,20.1026 1.99939,18.9981L 1.99939,7.99807C 1.99939,6.8935 2.89482,5.99807 3.99939,5.99807L 7.99939,5.99807L 7.99939,3.99807C 7.99939,2.8935 8.89482,1.99807 9.99939,1.99807 Z M 13.9994,5.99807L 13.9994,3.99807L 9.99939,3.99807L 9.99939,5.99807L 13.9994,5.99807 Z M 11.9994,18.9981L 16.9994,13.9981L 13.9994,13.9981L 13.9994,9.99807L 9.99939,9.99807L 9.99939,13.9981L 6.99939,13.9981L 11.9994,18.9981 Z "/>
</svg>
