<?xml version="1.0" encoding="utf-8"?>
<!DOCTYPE svg PUBLIC "-//W3C//DTD SVG 1.1//EN" "http://www.w3.org/Graphics/SVG/1.1/DTD/svg11.dtd">
<svg xmlns="http://www.w3.org/2000/svg" xmlns:xlink="http://www.w3.org/1999/xlink" version="1.1" baseProfile="full" width="24" height="24" viewBox="0 0 24.00 24.00" enable-background="new 0 0 24.00 24.00" xml:space="preserve">
	<path fill="#000000" fill-opacity="1" stroke-width="0.2" stroke-linejoin="miter" d="M 16.5,12C 18.9853,12 21,14.0147 21,16.5C 21,17.3826 20.7459,18.2059 20.3069,18.9006L 23.3906,21.9844L 21.9844,23.3906L 18.8763,20.3221C 18.1867,20.7518 17.3723,21 16.5,21C 14.0147,21 12,18.9853 12,16.5C 12,14.0147 14.0147,12 16.5,12 Z M 16.5,14C 15.1193,14 14,15.1193 14,16.5C 14,17.8807 15.1193,19 16.5,19C 17.8807,19 19,17.8807 19,16.5C 19,15.1193 17.8807,14 16.5,14 Z M 9.99939,1.99805L 13.9994,1.99805C 15.104,1.99805 15.9994,2.89348 15.9994,3.99805L 15.9994,5.99805L 19.9994,5.99805C 21.104,5.99805 21.9994,6.89348 21.9994,7.99805L 21.9994,13.0333C 20.848,11.2106 18.8154,10 16.5,10C 12.9101,10 10,12.9101 10,16.5C 10,18.2455 10.688,19.8303 11.8077,20.998L 3.99939,20.998C 2.89482,20.998 1.99939,20.1026 1.99939,18.998L 1.99939,7.99805C 1.99939,6.89348 2.89482,5.99805 3.99939,5.99805L 7.99939,5.99805L 7.99939,3.99805C 7.99939,2.89348 8.89482,1.99805 9.99939,1.99805 Z M 13.9994,5.99805L 13.9994,3.99805L 9.99939,3.99805L 9.99939,5.99805L 13.9994,5.99805 Z "/>
</svg>
