<?xml version="1.0" encoding="utf-8"?>
<!DOCTYPE svg PUBLIC "-//W3C//DTD SVG 1.1//EN" "http://www.w3.org/Graphics/SVG/1.1/DTD/svg11.dtd">
<svg xmlns="http://www.w3.org/2000/svg" xmlns:xlink="http://www.w3.org/1999/xlink" version="1.1" baseProfile="full" width="24" height="24" viewBox="0 0 24.00 24.00" enable-background="new 0 0 24.00 24.00" xml:space="preserve">
	<path fill="#000000" fill-opacity="1" stroke-width="0.2" stroke-linejoin="round" d="M 10.5,17.5L 7,14L 8.414,12.586L 10.5,14.672L 15.676,9.496L 17.09,10.91M 10,4L 14,4L 14,6L 10,6M 20,6L 16,6L 16,4L 14,2L 10,2L 8,4L 8,6L 4,6C 2.89401,6 2.01099,6.89499 2.01099,8L 2,19C 2,20.105 2.89401,21 4,21L 20,21C 21.105,21 22,20.105 22,19L 22,8C 22,6.89499 21.105,6 20,6 Z "/>
</svg>
