<?xml version="1.0" encoding="utf-8"?>
<!DOCTYPE svg PUBLIC "-//W3C//DTD SVG 1.1//EN" "http://www.w3.org/Graphics/SVG/1.1/DTD/svg11.dtd">
<svg xmlns="http://www.w3.org/2000/svg" xmlns:xlink="http://www.w3.org/1999/xlink" version="1.1" baseProfile="full" width="24" height="24" viewBox="0 0 24.00 24.00" enable-background="new 0 0 24.00 24.00" xml:space="preserve">
	<path fill="#000000" fill-opacity="1" stroke-width="1.33333" stroke-linejoin="miter" d="M 20,6C 20.58,6 21.05,6.2 21.42,6.59C 21.8,7 22,7.45 22,8L 22,19C 22,19.55 21.8,20 21.42,20.41C 21.05,20.8 20.58,21 20,21L 4,21C 3.42,21 2.95,20.8 2.58,20.41C 2.2,20 2,19.55 2,19L 2,8C 2,7.45 2.2,7 2.58,6.59C 2.95,6.2 3.42,6 4,6L 8,6L 8,4C 8,3.42 8.2,2.95 8.58,2.58C 8.95,2.2 9.42,2 10,2L 14,2C 14.58,2 15.05,2.2 15.42,2.58C 15.8,2.95 16,3.42 16,4L 16,6L 20,6M 4,8L 4,19L 20,19L 20,8L 4,8M 14,6L 14,4L 10,4L 10,6L 14,6 Z M 12,9C 13.243,9 14.25,10.007 14.25,11.25C 14.25,12.493 13.243,13.5 12,13.5C 10.757,13.5 9.75,12.493 9.75,11.25C 9.75,10.007 10.757,9 12,9 Z M 16.5,18L 7.5,18L 7.5,16.875C 7.5,15.632 9.514,14.625 12,14.625C 14.486,14.625 16.5,15.632 16.5,16.875L 16.5,18 Z "/>
</svg>
