<?xml version="1.0" encoding="utf-8"?>
<!DOCTYPE svg PUBLIC "-//W3C//DTD SVG 1.1//EN" "http://www.w3.org/Graphics/SVG/1.1/DTD/svg11.dtd">
<svg xmlns="http://www.w3.org/2000/svg" xmlns:xlink="http://www.w3.org/1999/xlink" version="1.1" baseProfile="full" width="24" height="24" viewBox="0 0 24.00 24.00" enable-background="new 0 0 24.00 24.00" xml:space="preserve">
	<path fill="#000000" fill-opacity="1" stroke-width="1.33333" stroke-linejoin="miter" d="M 20.0377,8.70639L 20.0377,4.00754L 15.3389,4.00754L 12.0226,0.691299L 8.7064,4.00754L 4.00755,4.00754L 4.00755,8.70639L 0.691307,12.0226L 4.00755,15.3389L 4.00755,20.0377L 8.7064,20.0377L 12.0226,23.354L 15.3389,20.0377L 20.0377,20.0377L 20.0377,15.3389L 23.354,12.0226L 20.0377,8.70639 Z M 8.82663,7.05328C 9.80848,7.05328 10.6,7.84477 10.6,8.82662C 10.6,9.80847 9.80848,10.6 8.82663,10.6C 7.84478,10.6 7.05329,9.80847 7.05329,8.82662C 7.05329,7.84477 7.84478,7.05328 8.82663,7.05328 Z M 15.2187,16.992C 14.2368,16.992 13.4453,16.2005 13.4453,15.2187C 13.4453,14.2368 14.2368,13.4453 15.2187,13.4453C 16.2005,13.4453 16.992,14.2368 16.992,15.2187C 16.992,16.2005 16.2005,16.992 15.2187,16.992 Z M 8.51604,17.0321L 7.01321,15.5292L 15.5293,7.0132L 17.0321,8.51603L 8.51604,17.0321 Z "/>
</svg>
