<?xml version="1.0" encoding="utf-8"?>
<!DOCTYPE svg PUBLIC "-//W3C//DTD SVG 1.1//EN" "http://www.w3.org/Graphics/SVG/1.1/DTD/svg11.dtd">
<svg xmlns="http://www.w3.org/2000/svg" xmlns:xlink="http://www.w3.org/1999/xlink" version="1.1" baseProfile="full" width="24" height="24" viewBox="0 0 24.00 24.00" enable-background="new 0 0 24.00 24.00" xml:space="preserve">
	<path fill="#000000" fill-opacity="1" stroke-linejoin="round" d="M 14.3,16L 13.6,14L 10.4,14L 9.7,16L 7.8,16L 11,7L 13,7L 16.2,16L 14.3,16 Z M 20,8.69L 20,4L 15.31,4L 12,0.690002L 8.69,4L 4,4L 4,8.69L 0.69,12L 4,15.31L 4,20L 8.69,20L 12,23.31L 15.31,20L 20,20L 20,15.31L 23.31,12L 20,8.69 Z M 10.85,12.65L 13.15,12.65L 12,9L 10.85,12.65 Z "/>
</svg>
