<?xml version="1.0" encoding="utf-8"?>
<!DOCTYPE svg PUBLIC "-//W3C//DTD SVG 1.1//EN" "http://www.w3.org/Graphics/SVG/1.1/DTD/svg11.dtd">
<svg xmlns="http://www.w3.org/2000/svg" xmlns:xlink="http://www.w3.org/1999/xlink" version="1.1" baseProfile="full" width="24" height="24" viewBox="0 0 24.00 24.00" enable-background="new 0 0 24.00 24.00" xml:space="preserve">
	<path fill="#000000" fill-opacity="1" stroke-width="1.33333" stroke-linejoin="miter" d="M 11,2L 11,3C 9.27,3.2 7.69,3.9 6.4,4.94L 5.64,4.18L 4.22,5.6L 4.98,6.35C 3.89699,7.6837 3.21088,9.295 3,11L 2,11L 2,13L 3,13C 3.21347,14.6772 3.90026,16.2589 4.98,17.56L 4.22,18.32L 5.64,19.74L 6.39,18.98C 7.70591,20.0738 9.30384,20.774 11,21L 11,22L 13,22L 13,21C 14.6927,20.7722 16.2869,20.0721 17.6,18.98L 18.36,19.74L 19.78,18.32L 19.02,17.57C 20.101,16.2658 20.7878,14.6806 21,13L 22,13L 22,11L 21,11C 20.7873,9.2985 20.1013,7.6909 19.02,6.36L 19.78,5.6L 18.36,4.18L 17.61,4.94C 16.2881,3.8698 14.6894,3.197 13,3L 13,2L 11,2 Z M 11,5L 11,8L 10,8.5L 7.81,6.35C 8.72,5.67 9.81,5.17 11,5 Z M 13,5C 14.162,5.1781 15.2615,5.642 16.2,6.35L 14,8.5L 13,8L 13,5 Z M 6.4,7.76L 8.5,10L 8,11L 5,11C 5.16,9.84 5.7,8.7 6.39,7.75L 6.4,7.76 Z M 17.6,7.76C 18.3305,8.7058 18.8118,9.8199 19,11L 16,11L 15.5,10L 17.61,7.76L 17.6,7.76 Z M 12,10C 13.12,10 14,10.88 14,12C 14,13.12 13.12,14 12,14C 10.88,14 10,13.12 10,12C 10,10.88 10.88,10 12,10 Z M 5,13L 8,13L 8.57,14L 6.39,16.15C 5.66984,15.237 5.19174,14.1569 5,13.01L 5,13 Z M 16,13L 19,13C 18.8111,14.1538 18.3329,15.241 17.61,16.16L 15.5,14L 16,13 Z M 10,15.5L 11,16L 11,19C 9.83109,18.7966 8.73129,18.3051 7.8,17.57L 10,15.5 Z M 14,15.5L 16.19,17.57C 15.28,18.25 14.19,18.83 13,19L 13,16L 14,15.5 Z "/>
</svg>
