<?xml version="1.0" encoding="utf-8"?>
<!DOCTYPE svg PUBLIC "-//W3C//DTD SVG 1.1//EN" "http://www.w3.org/Graphics/SVG/1.1/DTD/svg11.dtd">
<svg xmlns="http://www.w3.org/2000/svg" xmlns:xlink="http://www.w3.org/1999/xlink" version="1.1" baseProfile="full" width="24" height="24" viewBox="0 0 24.00 24.00" enable-background="new 0 0 24.00 24.00" xml:space="preserve">
	<path fill="#000000" fill-opacity="1" stroke-width="0.2" stroke-linejoin="miter" d="M 20,8L 17.19,8C 16.7434,7.2035 16.121,6.5195 15.37,6L 17,4.41015L 15.59,3L 13.42,5.16992C 12.9551,5.0569 12.4784,4.9999 12,5C 11.5248,4.9993 11.0514,5.0564 10.59,5.16992L 8.41,3L 7,4.41015L 8.62,6C 7.87407,6.5222 7.25541,7.2058 6.81,8L 4,8L 4,10L 6.09001,10C 6.03481,10.3306 6.00472,10.6649 6,11L 6,12L 4,12L 4,14L 6,14L 6,15C 6.00472,15.3351 6.03481,15.6694 6.09001,16L 4,16L 4,18L 6.81,18C 8.47272,20.8664 12.1443,21.8421 15.0106,20.1794C 15.9145,19.6551 16.6657,18.9038 17.19,18L 20,18L 20,16L 17.9102,16C 17.9652,15.6694 17.9953,15.3351 18,15L 18,14L 20,14L 20,12L 18,12L 18,11C 17.9953,10.6649 17.9652,10.3306 17.9102,10L 20,10L 20,8 Z M 16,15C 16,17.2091 14.2091,19 12,19C 9.79086,19 8,17.2091 8,15L 8,11C 8,8.7909 9.79086,7 12,7C 14.2091,7 16,8.7909 16,11L 16,15 Z M 14,10L 14,12L 10,12L 10,10L 14,10 Z M 10,14L 14,14L 14,16L 10,16L 10,14 Z "/>
</svg>
