<?xml version="1.0" encoding="utf-8"?>
<!DOCTYPE svg PUBLIC "-//W3C//DTD SVG 1.1//EN" "http://www.w3.org/Graphics/SVG/1.1/DTD/svg11.dtd">
<svg xmlns="http://www.w3.org/2000/svg" xmlns:xlink="http://www.w3.org/1999/xlink" version="1.1" baseProfile="full" width="24" height="24" viewBox="0 0 24.00 24.00" enable-background="new 0 0 24.00 24.00" xml:space="preserve">
	<path fill="#000000" fill-opacity="1" stroke-width="1.33333" stroke-linejoin="miter" d="M 18,7L 15.19,7C 14.7434,6.2035 14.121,5.5195 13.37,5L 15,3.41L 13.59,2L 11.42,4.17C 10.9551,4.0569 10.4784,3.9999 10,4C 9.52485,3.9993 9.05137,4.0564 8.59,4.17L 6.41,2L 5,3.41L 6.62,5C 5.87407,5.5222 5.25541,6.2058 4.81,7L 2,7L 2,9L 4.09,9C 4.03481,9.3306 4.00472,9.6649 4,10L 4,11L 2,11L 2,13L 4,13L 4,14C 4.00472,14.3351 4.03481,14.6694 4.09,15L 2,15L 2,17L 4.81,17C 6.25705,19.498 9.27791,20.6114 12,19.65C 11.9848,19.4336 11.9848,19.2164 12,19C 12.0023,18.4276 12.0865,17.8585 12.25,17.31C 11.5862,17.7604 10.8022,18.0008 10,18C 7.79086,18 6,16.2091 6,14L 6,10C 6,7.7909 7.79086,6 10,6C 12.2091,6 14,7.7909 14,10L 14,14C 14.0037,14.1945 13.9869,14.3889 13.95,14.58C 14.5439,14.0366 15.2411,13.6183 16,13.35L 16,13L 18,13L 18,11L 16,11L 16,10C 15.9953,9.6649 15.9652,9.3306 15.91,9L 18,9L 18,7 Z M 21.34,16L 17.75,19.59L 16.16,18L 15,19.16L 17.75,22.16L 22.5,17.41L 21.34,16 Z M 12,9L 12,11L 8,11L 8,9L 12,9 Z M 12,13L 12,15L 8,15L 8,13L 12,13 Z "/>
</svg>
