<?xml version="1.0" encoding="utf-8"?>
<!DOCTYPE svg PUBLIC "-//W3C//DTD SVG 1.1//EN" "http://www.w3.org/Graphics/SVG/1.1/DTD/svg11.dtd">
<svg xmlns="http://www.w3.org/2000/svg" xmlns:xlink="http://www.w3.org/1999/xlink" version="1.1" baseProfile="full" width="24" height="24" viewBox="0 0 24.00 24.00" enable-background="new 0 0 24.00 24.00" xml:space="preserve">
	<path fill="#000000" fill-opacity="1" stroke-width="1.33333" stroke-linejoin="miter" d="M 21,6C 21,11 12,11 12,11C 12,11 6,11 5,11C 4,11 3,10 3,10L 2,10L 2,14L 3,14C 3,14 4,13 5,13C 5.2,13 5.7,13 6.3,13C 5.5,13.5 5,14.2 5,15C 5,16.8 7.3,18 10.5,18C 13.7,18 16,16.8 16,15C 16,14.4 15.7,13.8 15.2,13.3C 17.8,13.8 21,15 21,18L 22,18L 22,6L 21,6 Z M 10.5,16.7C 8.2,16.7 6.4,15.9 6.4,15C 6.4,14.1 8.2,13.3 10.5,13.3C 12.8,13.3 14.6,14.1 14.6,15C 14.6,15.9 12.8,16.7 10.5,16.7 Z "/>
</svg>
