<?xml version="1.0" encoding="utf-8"?>
<!DOCTYPE svg PUBLIC "-//W3C//DTD SVG 1.1//EN" "http://www.w3.org/Graphics/SVG/1.1/DTD/svg11.dtd">
<svg xmlns="http://www.w3.org/2000/svg" xmlns:xlink="http://www.w3.org/1999/xlink" version="1.1" baseProfile="full" width="24" height="24" viewBox="0 0 24.00 24.00" enable-background="new 0 0 24.00 24.00" xml:space="preserve">
	<path fill="#000000" fill-opacity="1" stroke-width="1.33333" stroke-linejoin="miter" d="M 12,8L 4,8C 2.89543,8 2,8.8954 2,10L 2,14C 2,15.1046 2.89543,16 4,16L 5,16L 5,20C 5,20.5523 5.44772,21 6,21L 8,21C 8.55229,21 9,20.5523 9,20L 9,16L 12,16L 17,20L 17,4L 12,8 Z M 15,15.6L 13,14L 4,14L 4,10L 13,10L 15,8.4L 15,15.6 Z M 21.5,12C 21.5121,13.7051 20.538,15.2637 19,16L 19,8C 20.5279,8.7475 21.4976,10.299 21.5,12 Z "/>
</svg>
