<?xml version="1.0" encoding="utf-8"?>
<!DOCTYPE svg PUBLIC "-//W3C//DTD SVG 1.1//EN" "http://www.w3.org/Graphics/SVG/1.1/DTD/svg11.dtd">
<svg xmlns="http://www.w3.org/2000/svg" xmlns:xlink="http://www.w3.org/1999/xlink" version="1.1" baseProfile="full" width="24" height="24" viewBox="0 0 24.00 24.00" enable-background="new 0 0 24.00 24.00" xml:space="preserve">
	<path fill="#000000" fill-opacity="1" stroke-width="1.33333" stroke-linejoin="miter" d="M 12,2C 6.47715,2 2,6.4772 2,12C 2,17.5228 6.47715,22 12,22C 17.5228,22 22,17.5228 22,12C 21.9954,10.8425 21.7899,9.6946 21.3926,8.6074L 19.7871,10.2129C 19.9251,10.7987 19.9965,11.3982 20,12C 20,16.4183 16.4183,20 12,20C 7.58172,20 4,16.4183 4,12C 4,7.5817 7.58172,4 12,4C 12.6024,4.0027 13.2026,4.0735 13.7891,4.2109L 15.3965,2.6035C 14.3078,2.2071 13.1586,2.0029 12,2 Z M 19,2L 15,6L 15,7.5L 12.4473,10.0527C 12.3006,10.0184 12.1506,10.0007 12,10C 10.8954,10 10,10.8954 10,12C 10,13.1046 10.8954,14 12,14C 13.1046,14 14,13.1046 14,12C 13.9993,11.8494 13.9816,11.6994 13.9473,11.5527L 16.5,9L 18,9L 22,5L 19,5L 19,2 Z M 12,6C 8.68629,6 6,8.6863 6,12C 6,15.3137 8.68629,18 12,18C 15.3137,18 18,15.3137 18,12L 16,12C 16,14.2091 14.2091,16 12,16C 9.79086,16 8,14.2091 8,12C 8,9.7909 9.79086,8 12,8L 12,6 Z "/>
</svg>
