<?xml version="1.0" encoding="utf-8"?>
<!DOCTYPE svg PUBLIC "-//W3C//DTD SVG 1.1//EN" "http://www.w3.org/Graphics/SVG/1.1/DTD/svg11.dtd">
<svg xmlns="http://www.w3.org/2000/svg" xmlns:xlink="http://www.w3.org/1999/xlink" version="1.1" baseProfile="full" width="24" height="24" viewBox="0 0 24.00 24.00" enable-background="new 0 0 24.00 24.00" xml:space="preserve">
	<path fill="#000000" fill-opacity="1" stroke-linejoin="round" d="M 12.039,2.49999L 9.52789,5L 14.5279,4.99999L 12.039,2.49999 Z M 4,7L 4,20L 20,20L 20,7L 4,7 Z M 12,0L 16.9999,5L 17,5L 20,5C 21.1,5 22,5.9 22,7L 22,20C 22,21.1 21.1,22 20,22L 4,22C 2.9,22 2,21.1 2,20L 2,7C 2,5.9 2.9,5 4,5L 6.9999,5L 7,5L 12,0 Z M 6.9999,18L 6.9999,14L 11.9999,14L 11.9999,18L 6.9999,18 Z M 13.9999,17L 13.9999,10L 17.9999,10L 17.9999,17L 13.9999,17 Z M 5.9999,12L 5.9999,9L 10.9999,9L 10.9999,12L 5.9999,12 Z "/>
</svg>
