<?xml version="1.0" encoding="utf-8"?>
<!DOCTYPE svg PUBLIC "-//W3C//DTD SVG 1.1//EN" "http://www.w3.org/Graphics/SVG/1.1/DTD/svg11.dtd">
<svg xmlns="http://www.w3.org/2000/svg" xmlns:xlink="http://www.w3.org/1999/xlink" version="1.1" baseProfile="full" width="24" height="24" viewBox="0 0 24.00 24.00" enable-background="new 0 0 24.00 24.00" xml:space="preserve">
	<path fill="#000000" fill-opacity="1" stroke-width="1.33333" stroke-linejoin="miter" d="M 4,3.9997C 3.44772,3.9997 3,4.4474 3,4.9997L 3,9.9997C 2.54212,10.0001 2.14304,10.3115 2.03125,10.7555L 2.03125,13.9723L 2.28711,13.9723C 2.64775,13.3699 3.29788,13.0008 4,12.9997L 13,12.9997C 13.7021,13.0007 14.3523,13.3699 14.713,13.9723L 16.0316,13.9723L 16.0082,10.9997L 16.0004,10.9997C 16.0004,10.4474 15.5527,9.9997 15.0004,9.9997L 13,9.9997L 13,7.9997C 13,7.4474 12.5523,6.9997 12,6.9997C 11.4477,6.9997 11,7.4474 11,7.9997L 11,9.9997L 9,9.9997L 9,4.9997C 9,4.4474 8.55228,3.9997 8,3.9997L 4,3.9997 Z M 5,5.9997L 7,5.9997L 7,9.9997L 7,10.9997L 5,10.9997L 5,5.9997 Z M 17,11L 17,19L 22,19L 22,18L 19,17L 18,11L 17,11 Z M 4,15C 2.89543,15 2,15.8954 2,17C 2,18.1046 2.89543,19 4,19L 13,19C 14.1046,19 15,18.1046 15,17C 15,15.8954 14.1046,15 13,15L 4,15 Z "/>
</svg>
