<?xml version="1.0" encoding="utf-8"?>
<!DOCTYPE svg PUBLIC "-//W3C//DTD SVG 1.1//EN" "http://www.w3.org/Graphics/SVG/1.1/DTD/svg11.dtd">
<svg xmlns="http://www.w3.org/2000/svg" xmlns:xlink="http://www.w3.org/1999/xlink" version="1.1" baseProfile="full" width="24" height="24" viewBox="0 0 24.00 24.00" enable-background="new 0 0 24.00 24.00" xml:space="preserve">
	<path fill="#000000" fill-opacity="1" stroke-width="1.33333" stroke-linejoin="miter" d="M 21.5,6.0003L 20,7.5L 21.5,9L 20,10.5L 21.5,12L 20,13.5L 21.5,15.0002L 12.5,15.0002C 12.5,16.6571 11.1569,18.0002 9.5,18.0002C 7.84315,18.0002 6.5,16.6571 6.5,15.0002L 2.5,15.0002L 2.5,8.0003C 2.5,6.8903 3.39028,5.9752 4.5,6.0003L 21.5,6.0003 Z M 18.5,7.5003L 15,7.5003L 15,10L 18.5,10L 18.5,7.5003 Z M 13.5,7.5003L 9.5,7.5L 9.5,10L 13.5,10L 13.5,7.5003 Z M 8,7.5003L 4,7.5003L 4,10L 8,10L 8,7.5003 Z M 9.5,13.5003C 8.67157,13.5003 8,14.1718 8,15.0002C 8,15.8287 8.67157,16.5002 9.5,16.5002C 10.3284,16.5002 11,15.8287 11,15.0002C 11,14.1718 10.3284,13.5003 9.5,13.5003 Z "/>
</svg>
