<?xml version="1.0" encoding="utf-8"?>
<!DOCTYPE svg PUBLIC "-//W3C//DTD SVG 1.1//EN" "http://www.w3.org/Graphics/SVG/1.1/DTD/svg11.dtd">
<svg xmlns="http://www.w3.org/2000/svg" xmlns:xlink="http://www.w3.org/1999/xlink" version="1.1" baseProfile="full" width="24" height="24" viewBox="0 0 24.00 24.00" enable-background="new 0 0 24.00 24.00" xml:space="preserve">
	<path fill="#000000" fill-opacity="1" stroke-width="1.33333" stroke-linejoin="miter" d="M 1,6.0003L 2.5,7.5L 1,9L 2.5,10.5L 1,12L 2.5,13.5L 1,15.0002L 3,15.0002C 3,16.6571 4.34315,18.0002 6,18.0002C 7.65685,18.0002 9,16.6571 9,15.0002L 15,15.0002C 15,16.6571 16.3431,18.0002 18,18.0002C 19.6569,18.0002 21,16.6571 21,15.0002L 23,15.0002L 23,8.0003C 23,6.8903 22.1097,5.9752 21,6.0003L 1,6.0003 Z M 4,7.5003L 6.5,7.5003L 6.5,10L 4,10L 4,7.5003 Z M 8,7.5003L 12,7.5003L 12,10L 8,10L 8,7.5003 Z M 13.5,7.5003L 17.5,7.5003L 17.5,10L 13.5,10L 13.5,7.5003 Z M 19,7.5003L 21.5,7.5003L 21.5,13L 19,11L 19,7.5003 Z M 6,13.5003C 6.82843,13.5003 7.5,14.1718 7.5,15.0002C 7.5,15.8287 6.82843,16.5002 6,16.5002C 5.17157,16.5002 4.5,15.8287 4.5,15.0002C 4.5,14.1718 5.17157,13.5003 6,13.5003 Z M 18,13.5003C 18.8284,13.5003 19.5,14.1718 19.5,15.0002C 19.5,15.8287 18.8284,16.5002 18,16.5002C 17.1716,16.5002 16.5,15.8287 16.5,15.0002C 16.5,14.1718 17.1716,13.5003 18,13.5003 Z "/>
</svg>
