<?xml version="1.0" encoding="utf-8"?>
<!DOCTYPE svg PUBLIC "-//W3C//DTD SVG 1.1//EN" "http://www.w3.org/Graphics/SVG/1.1/DTD/svg11.dtd">
<svg xmlns="http://www.w3.org/2000/svg" xmlns:xlink="http://www.w3.org/1999/xlink" version="1.1" baseProfile="full" width="24" height="24" viewBox="0 0 24.00 24.00" enable-background="new 0 0 24.00 24.00" xml:space="preserve">
	<path fill="#000000" fill-opacity="1" stroke-width="1.33333" stroke-linejoin="miter" d="M 16,1C 19.866,1 23,4.13401 23,8C 23,11.5292 20.3883,14.4483 16.9922,14.9302L 16.9922,18C 16.9922,18.8438 16.6485,19.5781 15.961,20.2031L 15.961,21.9844C 15.961,22.2656 15.8672,22.5078 15.6797,22.7109C 15.4922,22.9141 15.2578,23.0156 14.9766,23.0156L 13.9922,23.0156C 13.711,23.0156 13.4688,22.9141 13.2656,22.7109C 13.0625,22.5078 12.961,22.2656 12.961,21.9844L 12.961,21L 5.03904,21L 5.03904,21.9844C 5.03904,22.2656 4.93747,22.5078 4.73435,22.7109C 4.53122,22.914 4.28904,23.0156 4.00779,23.0156L 3.02341,23.0156C 2.74216,23.0156 2.5078,22.914 2.3203,22.7109C 2.1328,22.5078 2.03905,22.2656 2.03905,21.9844L 2.03905,20.2031C 1.35155,19.5781 1.00779,18.8437 1.00779,18L 1.00779,8.01559C 1.00779,6.42189 1.6953,5.35159 3.07029,4.80469C 4.44115,4.25944 6.41772,3.98604 9,3.9844L 10.2312,4.03386C 11.4935,2.2013 13.6065,1 16,1 Z M 16,3.00001C 13.2386,3.00001 11,5.23858 11,8.00001C 11,10.7614 13.2386,13 16,13C 18.7614,13 21,10.7614 21,8.00001C 21,5.23858 18.7614,3.00001 16,3.00001 Z M 15,10L 17,10L 17,12L 15,12L 15,10 Z M 15,4L 17,4L 17,9L 15,9L 15,4 Z M 3.02341,12.9844L 11.0851,12.9844C 9.80133,11.7184 9.00426,9.96009 9.00002,8.0156L 3.02341,8.01559L 3.02341,12.9844 Z M 4.52341,16C 3.69499,16 3.02341,16.6716 3.02341,17.5C 3.02341,18.3284 3.69499,19 4.52341,19C 5.35184,19 6.02341,18.3284 6.02341,17.5C 6.02341,16.6716 5.35184,16 4.52341,16 Z M 13.4766,16C 12.6482,16 11.9766,16.6716 11.9766,17.5C 11.9766,18.3284 12.6482,19 13.4766,19C 14.305,19 14.9766,18.3284 14.9766,17.5C 14.9766,16.6716 14.305,16 13.4766,16 Z "/>
</svg>
