<?xml version="1.0" encoding="utf-8"?>
<!DOCTYPE svg PUBLIC "-//W3C//DTD SVG 1.1//EN" "http://www.w3.org/Graphics/SVG/1.1/DTD/svg11.dtd">
<svg xmlns="http://www.w3.org/2000/svg" xmlns:xlink="http://www.w3.org/1999/xlink" version="1.1" baseProfile="full" width="24" height="24" viewBox="0 0 24.00 24.00" enable-background="new 0 0 24.00 24.00" xml:space="preserve">
	<path fill="#000000" fill-opacity="1" stroke-width="1.33333" stroke-linejoin="miter" d="M 16.5,3.9844L 16.5,8.25L 19.3594,9.9375L 18.6094,11.1562L 15,9L 15,3.9844L 16.5,3.9844 Z M 15.9844,12.9844C 17.3594,12.9844 18.5391,12.5 19.5234,11.5312C 20.5078,10.5625 21,9.3906 21,8.0156C 21,6.6406 20.5078,5.4609 19.5234,4.4766C 18.5391,3.4922 17.3594,3 15.9844,3C 14.6094,3 13.4375,3.4922 12.4688,4.4766C 11.5,5.4609 11.0156,6.6406 11.0156,8.0156C 11.0156,9.3906 11.5,10.5625 12.4688,11.5312C 13.4375,12.5 14.6094,12.9844 15.9844,12.9844 Z M 13.5,18.9844C 13.9375,18.9844 14.2969,18.8359 14.5781,18.5391C 14.8594,18.2422 15,17.8906 15,17.4844C 15,17.0781 14.8594,16.7266 14.5781,16.4297C 14.2969,16.1328 13.9375,15.9844 13.5,15.9844C 13.0625,15.9844 12.7031,16.1328 12.4219,16.4297C 12.1406,16.7266 12,17.0781 12,17.4844C 12,17.8906 12.1406,18.2422 12.4219,18.5391C 12.7031,18.8359 13.0625,18.9844 13.5,18.9844 Z M 3,12.9844L 11.1094,12.9844C 9.70313,11.6406 9,9.9844 9,8.0156L 3,8.0156L 3,12.9844 Z M 4.5,18.9844C 4.9375,18.9844 5.29688,18.8359 5.57813,18.5391C 5.85938,18.2422 6,17.8906 6,17.4844C 6,17.0781 5.85938,16.7266 5.57813,16.4297C 5.29688,16.1328 4.9375,15.9844 4.5,15.9844C 4.0625,15.9844 3.70313,16.1328 3.42188,16.4297C 3.14063,16.7266 3,17.0781 3,17.4844C 3,17.8906 3.14063,18.2422 3.42188,18.5391C 3.70313,18.8359 4.0625,18.9844 4.5,18.9844 Z M 15.9844,0.984398C 17.9219,0.984398 19.5781,1.6719 20.9531,3.0469C 22.3281,4.4219 23.0156,6.0781 23.0156,8.0156C 23.0156,9.7656 22.4375,11.2891 21.2813,12.5859C 20.125,13.8828 18.7031,14.6562 17.0156,14.9062L 17.0156,18C 17.0156,18.8437 16.6719,19.5781 15.9844,20.2031L 15.9844,21.9844C 15.9844,22.2656 15.8906,22.5078 15.7031,22.7109C 15.5156,22.9141 15.2813,23.0156 15,23.0156L 14.0156,23.0156C 13.7344,23.0156 13.4922,22.9141 13.2891,22.7109C 13.0859,22.5078 12.9844,22.2656 12.9844,21.9844L 12.9844,21L 5.01563,21L 5.01563,21.9844C 5.01563,22.2656 4.91406,22.5078 4.71094,22.7109C 4.50781,22.9141 4.26563,23.0156 3.98438,23.0156L 3,23.0156C 2.71875,23.0156 2.48438,22.9141 2.29688,22.7109C 2.10938,22.5078 2.01563,22.2656 2.01563,21.9844L 2.01563,20.2031C 1.32813,19.5781 0.984376,18.8437 0.984376,18L 0.984376,8.0156C 0.984376,6.4219 1.67188,5.3516 3.04688,4.8047C 4.42188,4.2578 6.40625,3.9844 9,3.9844C 9.125,3.9844 9.32813,3.9922 9.60938,4.0078C 9.89063,4.0234 10.0937,4.0312 10.2188,4.0312C 11.625,2 13.5469,0.984398 15.9844,0.984398 Z "/>
</svg>
