<?xml version="1.0" encoding="utf-8"?>
<!DOCTYPE svg PUBLIC "-//W3C//DTD SVG 1.1//EN" "http://www.w3.org/Graphics/SVG/1.1/DTD/svg11.dtd">
<svg xmlns="http://www.w3.org/2000/svg" xmlns:xlink="http://www.w3.org/1999/xlink" version="1.1" baseProfile="full" width="24" height="24" viewBox="0 0 24.00 24.00" enable-background="new 0 0 24.00 24.00" xml:space="preserve">
	<path fill="#000000" fill-opacity="1" stroke-width="1.33333" stroke-linejoin="miter" d="M 3,4C 1.89001,3.9966 1,4.89 1,6L 1,17L 3,17C 3,18.6568 4.34315,20 6,20C 7.65685,20 9,18.6568 9,17L 15,17C 15,18.6568 16.3431,20 18,20C 19.6569,20 21,18.6568 21,17L 23,17L 23,14C 23,12.89 22.11,12 21,12L 19,12L 19,9.5L 23,9.5L 23,6C 23,4.89 22.1097,3.975 21,4L 3,4 Z M 2.5,5.5L 6.5,5.5L 6.5,8L 2.5,8L 2.5,5.5 Z M 8,5.5L 12,5.5L 12,8L 8,8L 8,5.5 Z M 13.5,5.5L 17.5,5.5L 17.5,8L 13.5,8L 13.5,5.5 Z M 19,5.5L 21.5,5.5L 21.5,8L 19,8L 19,5.5 Z M 13.5,9.5L 17.5,9.5L 17.5,12L 13.5,12L 13.5,9.5 Z M 2.5,9.5L 6.5,9.5L 6.5,12L 2.5,12L 2.5,9.5 Z M 8,9.5L 12,9.5L 12,12L 8,12L 8,9.5 Z M 6,15.5C 6.82843,15.5 7.5,16.1716 7.5,17C 7.5,17.8284 6.82843,18.5 6,18.5C 5.17157,18.5 4.5,17.8284 4.5,17C 4.5,16.1716 5.17157,15.5 6,15.5 Z M 18,15.5C 18.8284,15.5 19.5,16.1716 19.5,17C 19.5,17.8284 18.8284,18.5 18,18.5C 17.1716,18.5 16.5,17.8284 16.5,17C 16.5,16.1716 17.1716,15.5 18,15.5 Z "/>
</svg>
