<?xml version="1.0" encoding="utf-8"?>
<!DOCTYPE svg PUBLIC "-//W3C//DTD SVG 1.1//EN" "http://www.w3.org/Graphics/SVG/1.1/DTD/svg11.dtd">
<svg xmlns="http://www.w3.org/2000/svg" xmlns:xlink="http://www.w3.org/1999/xlink" version="1.1" baseProfile="full" width="24" height="24" viewBox="0 0 24.00 24.00" enable-background="new 0 0 24.00 24.00" xml:space="preserve">
	<path fill="#000000" fill-opacity="1" stroke-width="0.2" stroke-linejoin="round" d="M 18.9988,7.9975L 15,12.0025L 17.9975,12.0025C 17.9975,15.3075 15.3075,17.9975 12.0025,17.9975C 10.9912,17.9975 10.0288,17.7488 9.19875,17.3L 7.73875,18.76C 8.97,19.5412 10.43,20 12.0025,20C 16.4213,20 20,16.4212 20,12.0025L 22.9975,12.0025M 6.00125,12.0025C 6.00125,8.69125 8.69125,6.00125 12.0025,6.00125C 13.0075,6.00125 13.97,6.25 14.8,6.69875L 16.26,5.23875C 15.0288,4.4575 13.5687,3.99875 12.0025,3.99875C 7.57875,3.99875 3.99875,7.5775 3.99875,12.0025L 1.00125,12.0025L 5,16.0012L 8.99875,12.0025"/>
</svg>
