<?xml version="1.0" encoding="utf-8"?>
<!DOCTYPE svg PUBLIC "-//W3C//DTD SVG 1.1//EN" "http://www.w3.org/Graphics/SVG/1.1/DTD/svg11.dtd">
<svg xmlns="http://www.w3.org/2000/svg" xmlns:xlink="http://www.w3.org/1999/xlink" version="1.1" baseProfile="full" width="24" height="24" viewBox="0 0 24.00 24.00" enable-background="new 0 0 24.00 24.00" xml:space="preserve">
	<path fill="#000000" fill-opacity="1" stroke-width="0.2" stroke-linejoin="round" d="M 20.9994,20.9981L 20.9994,16.9981C 20.9994,15.8931 20.1044,14.9981 18.9994,14.9981L 17.9994,14.9981L 17.9994,11.9981C 17.9994,10.8931 17.1044,9.99807 15.9994,9.99807L 12.9994,9.99807L 12.9994,7.99807L 10.9994,7.99807L 10.9994,9.99807L 7.99938,9.99807C 6.89438,9.99807 5.99938,10.8931 5.99938,11.9981L 5.99938,14.9981L 4.99938,14.9981C 3.89438,14.9981 2.99938,15.8931 2.99938,16.9981L 2.99938,20.9981L 0.999382,20.9981L 0.999382,22.9981L 22.9994,22.9981L 22.9994,20.9981M 11.9994,6.99807C 13.1044,6.99807 13.9994,6.10206 13.9994,4.99807C 13.9994,4.62207 13.8954,4.26907 13.7144,3.96907L 11.9994,0.998068L 10.2844,3.96907C 10.1034,4.26907 9.99938,4.62207 9.99938,4.99807C 9.99938,6.10206 10.8944,6.99807 11.9994,6.99807 Z "/>
</svg>
