<?xml version="1.0" encoding="utf-8"?>
<!DOCTYPE svg PUBLIC "-//W3C//DTD SVG 1.1//EN" "http://www.w3.org/Graphics/SVG/1.1/DTD/svg11.dtd">
<svg xmlns="http://www.w3.org/2000/svg" xmlns:xlink="http://www.w3.org/1999/xlink" version="1.1" baseProfile="full" width="24" height="24" viewBox="0 0 24.00 24.00" enable-background="new 0 0 24.00 24.00" xml:space="preserve">
	<path fill="#000000" fill-opacity="1" stroke-width="1.33333" stroke-linejoin="miter" d="M 9,2L 4,2C 2.89543,2 2,2.8954 2,4L 2,9C 2,10.1046 2.89543,11 4,11L 9,11C 10.1046,11 11,10.1046 11,9L 11,4C 11,2.8954 10.1046,2 9,2 Z M 9,7L 4,7L 4,6L 9,6L 9,7 Z M 20,13L 15,13C 13.8954,13 13,13.8954 13,15L 13,20C 13,21.1046 13.8954,22 15,22L 20,22C 21.1046,22 22,21.1046 22,20L 22,15C 22,13.8954 21.1046,13 20,13 Z M 20,19L 15,19L 15,18L 20,18L 20,19 Z M 20,17L 15,17L 15,16L 20,16L 20,17 Z M 20,2L 15,2C 13.8954,2 13,2.8954 13,4L 13,9C 13,10.1046 13.8954,11 15,11L 20,11C 21.1046,11 22,10.1046 22,9L 22,4C 22,2.8954 21.1046,2 20,2 Z M 20,7L 18,7L 18,9L 17,9L 17,7L 15,7L 15,6L 17,6L 17,4L 18,4L 18,6L 20,6L 20,7 Z M 9,13L 4,13C 2.89543,13 2,13.8954 2,15L 2,20C 2,21.1046 2.89543,22 4,22L 9,22C 10.1046,22 11,21.1046 11,20L 11,15C 11,13.8954 10.1046,13 9,13 Z M 8.62,18.91L 7.91,19.62L 6.5,18.21L 5.09,19.62L 4.38,18.91L 5.79,17.5L 4.38,16.09L 5.09,15.38L 6.5,16.79L 7.91,15.38L 8.62,16.09L 7.21,17.5L 8.62,18.91 Z "/>
</svg>
