<?xml version="1.0" encoding="utf-8"?>
<!DOCTYPE svg PUBLIC "-//W3C//DTD SVG 1.1//EN" "http://www.w3.org/Graphics/SVG/1.1/DTD/svg11.dtd">
<svg xmlns="http://www.w3.org/2000/svg" xmlns:xlink="http://www.w3.org/1999/xlink" version="1.1" baseProfile="full" width="24" height="24" viewBox="0 0 24.00 24.00" enable-background="new 0 0 24.00 24.00" xml:space="preserve">
	<path fill="#000000" fill-opacity="1" stroke-width="0.2" stroke-linejoin="round" d="M 21,17L 21,8.00001L 7,8.00001L 7,17L 21,17 Z M 21,3.00001C 22.1,3.00001 23,3.90001 23,5.00001L 23,17C 23,18.1 22.1,19 21,19L 7,19C 5.89,19 5,18.1 5,17L 5.01,5.00001C 5.01,3.90001 5.89,3.00001 7,3.00001L 8,3.00001L 8,1.00001L 9.99999,1.00001L 9.99999,3.00001L 18,3.00001L 18,1.00001L 20,1.00001L 20,3.00001L 21,3.00001 Z M 17.53,11.06L 13.09,15.5L 10.41,12.82L 11.47,11.76L 13.09,13.38L 16.47,10L 17.53,11.06 Z M 3,21L 17,21L 17,23L 3,23C 1.89,23 1,22.1 1,21L 1.01,9L 3,9L 3,21 Z "/>
</svg>
