<?xml version="1.0" encoding="utf-8"?>
<!DOCTYPE svg PUBLIC "-//W3C//DTD SVG 1.1//EN" "http://www.w3.org/Graphics/SVG/1.1/DTD/svg11.dtd">
<svg xmlns="http://www.w3.org/2000/svg" xmlns:xlink="http://www.w3.org/1999/xlink" version="1.1" baseProfile="full" width="24" height="24" viewBox="0 0 24.00 24.00" enable-background="new 0 0 24.00 24.00" xml:space="preserve">
	<path fill="#000000" fill-opacity="1" stroke-width="1.33333" stroke-linejoin="miter" d="M 6,1L 8,1L 8,3L 16,3L 16,1L 18,1L 18,3L 19,3C 20.1,3 21,3.9 21,5L 21,19C 21,20.1 20.1,21 19,21L 5,21C 3.89,21 3,20.1 3,19L 3,5C 3,3.89 3.89,3 5,3L 6,3L 6,1 Z M 5,7L 5,19L 19,19L 19,7L 5,7 Z M 7,9L 17,9L 17,11L 7,11L 7,9 Z "/>
</svg>
