<?xml version="1.0" encoding="utf-8"?>
<!DOCTYPE svg PUBLIC "-//W3C//DTD SVG 1.1//EN" "http://www.w3.org/Graphics/SVG/1.1/DTD/svg11.dtd">
<svg xmlns="http://www.w3.org/2000/svg" xmlns:xlink="http://www.w3.org/1999/xlink" version="1.1" baseProfile="full" width="24" height="24" viewBox="0 0 24.00 24.00" enable-background="new 0 0 24.00 24.00" xml:space="preserve">
	<path fill="#000000" fill-opacity="1" stroke-width="0.2" stroke-linejoin="miter" d="M 9,10L 7,10L 7,12L 9,12L 9,10 Z M 13,10L 11,10L 11,12L 13,12L 13,10 Z M 17,10L 15,10L 15,12L 17,12L 17,10 Z M 19,3L 18,3L 18,0.999998L 16,0.999998L 16,3L 8,3L 8,0.999998L 6,0.999998L 6,3L 5,3C 3.89,3 3.01,3.9 3.01,5L 3,19C 3,20.1 3.89,21 5,21L 19,21C 20.1,21 21,20.1 21,19L 21,5C 21,3.9 20.1,3 19,3 Z M 19,19L 5,19L 5,8L 19,8L 19,19 Z "/>
</svg>
