<?xml version="1.0" encoding="utf-8"?>
<!DOCTYPE svg PUBLIC "-//W3C//DTD SVG 1.1//EN" "http://www.w3.org/Graphics/SVG/1.1/DTD/svg11.dtd">
<svg xmlns="http://www.w3.org/2000/svg" xmlns:xlink="http://www.w3.org/1999/xlink" version="1.1" baseProfile="full" width="24" height="24" viewBox="0 0 24.00 24.00" enable-background="new 0 0 24.00 24.00" xml:space="preserve">
	<path fill="#000000" fill-opacity="1" stroke-width="1.33333" stroke-linejoin="miter" d="M 12,22L 16,18L 13,18L 13,12L 11,12L 11,18L 8,18M 19,4L 18,4L 18,2L 16,2L 16,4L 8,4L 8,2L 6,2L 6,4L 5,4C 3.89543,4 3,4.8954 3,6L 3,20C 3,21.1046 3.89543,22 5,22L 8,22L 8,20L 5,20L 5,9L 19,9L 19,20L 16,20L 16,22L 19,22C 20.1046,22 21,21.1046 21,20L 21,6C 21,4.8954 20.1046,4 19,4 Z "/>
</svg>
