<?xml version="1.0" encoding="utf-8"?>
<!DOCTYPE svg PUBLIC "-//W3C//DTD SVG 1.1//EN" "http://www.w3.org/Graphics/SVG/1.1/DTD/svg11.dtd">
<svg xmlns="http://www.w3.org/2000/svg" xmlns:xlink="http://www.w3.org/1999/xlink" version="1.1" baseProfile="full" width="24" height="24" viewBox="0 0 24.00 24.00" enable-background="new 0 0 24.00 24.00" xml:space="preserve">
	<path fill="#000000" fill-opacity="1" stroke-width="1.33333" stroke-linejoin="miter" d="M 6,1L 6,3L 5,3C 3.89,3 3,3.9 3,5L 3,19C 3,20.1 3.9,21 5,21L 19,21C 20.1,21 21,20.1 21,19L 21,5C 21,3.9 20.1,3 19,3L 18,3L 18,1L 16,1L 16,3L 8,3L 8,1L 6,1 Z M 5,8L 19,8L 19,19L 5,19L 5,8 Z M 12.1875,9C 11.3182,9 10.6165,9.1979 10.084,9.5937C 9.55535,9.9858 9.29685,10.5733 9.30859,11.3574L 9.32031,11.3926L 11.2539,11.3926C 11.2617,11.0872 11.3531,10.8577 11.5293,10.7031C 11.7055,10.5486 11.9251,10.4707 12.1875,10.4707C 12.5125,10.4707 12.7632,10.5654 12.9395,10.7539C 13.1157,10.9424 13.2031,11.195 13.2031,11.5117C 13.2031,11.8171 13.1273,12.0866 12.9746,12.3203C 12.8258,12.5541 12.6198,12.7499 12.3574,12.9082C 11.8484,13.2513 11.4985,13.5545 11.3066,13.8184C 11.1148,14.0823 11.0156,14.476 11.0117,15L 12.998,15C 12.998,14.6871 13.0408,14.4407 13.127,14.2598C 13.217,14.075 13.3881,13.9025 13.6387,13.7441C 14.089,13.5179 14.4583,13.2064 14.748,12.8105C 15.0417,12.4147 15.1895,11.983 15.1895,11.5117C 15.1895,10.7426 14.9212,10.1301 14.3848,9.6777C 13.8522,9.2253 13.1195,9 12.1875,9 Z M 11,16L 11,18L 13,18L 13,16L 11,16 Z "/>
</svg>
