<?xml version="1.0" encoding="utf-8"?>
<!DOCTYPE svg PUBLIC "-//W3C//DTD SVG 1.1//EN" "http://www.w3.org/Graphics/SVG/1.1/DTD/svg11.dtd">
<svg xmlns="http://www.w3.org/2000/svg" xmlns:xlink="http://www.w3.org/1999/xlink" version="1.1" baseProfile="full" width="24" height="24" viewBox="0 0 24.00 24.00" enable-background="new 0 0 24.00 24.00" xml:space="preserve">
	<path fill="#000000" fill-opacity="1" stroke-linejoin="round" d="M 19,19L 5,19L 5,8L 19,8M 19,3L 18,3L 18,1L 16,1L 16,3L 8,3L 8,1L 6,1L 6,3L 5,3C 3.89,3 3.01,3.9 3.01,5L 3,19C 3,20.1 3.89,21 5,21L 19,21C 20.1,21 21,20.1 21,19L 21,5C 21,3.9 20.1,3 19,3 Z M 9.31,17L 11.75,14.56L 14.19,17L 15.25,15.94L 12.81,13.5L 15.25,11.06L 14.19,10L 11.75,12.44L 9.31,10L 8.25,11.06L 10.69,13.5L 8.25,15.94L 9.31,17 Z "/>
</svg>
