<?xml version="1.0" encoding="utf-8"?>
<!DOCTYPE svg PUBLIC "-//W3C//DTD SVG 1.1//EN" "http://www.w3.org/Graphics/SVG/1.1/DTD/svg11.dtd">
<svg xmlns="http://www.w3.org/2000/svg" xmlns:xlink="http://www.w3.org/1999/xlink" version="1.1" baseProfile="full" width="24" height="24" viewBox="0 0 24.00 24.00" enable-background="new 0 0 24.00 24.00" xml:space="preserve">
	<path fill="#000000" fill-opacity="1" stroke-width="1.33333" stroke-linejoin="miter" d="M 6,1L 6,3L 5,3C 3.89,3 3,3.89 3,5L 3,19C 3,20.1 3.89,21 5,21L 19,21C 20.1,21 21,20.1 21,19L 21,5C 21,3.9 20.1,3 19,3L 18,3L 18,1L 16,1L 16,3L 8,3L 8,1L 6,1 Z M 5,7L 19,7L 19,19L 5,19L 5,7 Z M 11,8L 11,13L 13,13L 13,8L 11,8 Z M 11,15L 11,17L 13,17L 13,15L 11,15 Z "/>
</svg>
