<?xml version="1.0" encoding="utf-8"?>
<!DOCTYPE svg PUBLIC "-//W3C//DTD SVG 1.1//EN" "http://www.w3.org/Graphics/SVG/1.1/DTD/svg11.dtd">
<svg xmlns="http://www.w3.org/2000/svg" xmlns:xlink="http://www.w3.org/1999/xlink" version="1.1" baseProfile="full" width="24" height="24" viewBox="0 0 24.00 24.00" enable-background="new 0 0 24.00 24.00" xml:space="preserve">
	<path fill="#000000" fill-opacity="1" stroke-width="0.2" stroke-linejoin="miter" d="M 19,4L 18,4L 18,2L 16,2L 16,4L 8,4L 8,2L 6,2L 6,4L 5,4C 3.89,4 3.01,4.9 3.01,6L 3,20C 3,21.1 3.89,22 5,22L 19,22C 20.1,22 21,21.1 21,20L 21,6C 21,4.9 20.1,4 19,4 Z M 19,20L 5,20L 5,10L 19,10L 19,20 Z M 19,8L 5,8L 5,6L 19,6L 19,8 Z "/>
</svg>
