<?xml version="1.0" encoding="utf-8"?>
<!DOCTYPE svg PUBLIC "-//W3C//DTD SVG 1.1//EN" "http://www.w3.org/Graphics/SVG/1.1/DTD/svg11.dtd">
<svg xmlns="http://www.w3.org/2000/svg" xmlns:xlink="http://www.w3.org/1999/xlink" version="1.1" baseProfile="full" width="24" height="24" viewBox="0 0 24.00 24.00" enable-background="new 0 0 24.00 24.00" xml:space="preserve">
	<path fill="#000000" fill-opacity="1" stroke-width="0.2" stroke-linejoin="round" d="M 19,20L 19,9L 5,9L 5,20L 19,20 Z M 16,2L 18,2L 18,4L 19,4C 20.1046,4 21,4.8954 21,6L 21,20C 21,21.1046 20.1046,22 19,22L 5,22C 3.89543,22 3,21.1046 3,20L 3,6C 3,4.8954 3.89543,4 5,4L 6,4L 6,2L 8,2L 8,4L 16,4L 16,2 Z M 12,18.1705L 11.4204,17.6436C 9.3608,15.7748 7.99999,14.54 7.99999,13.0296C 7.99999,11.796 8.96639,10.8296 10.2,10.8296C 10.8964,10.8296 11.5636,11.1529 12,11.664C 12.4364,11.1529 13.1036,10.8296 13.8,10.8296C 15.0336,10.8296 16,11.796 16,13.0296C 16,14.54 14.6392,15.7748 12.5796,17.6436L 12,18.1705 Z "/>
</svg>
