<?xml version="1.0" encoding="utf-8"?>
<!DOCTYPE svg PUBLIC "-//W3C//DTD SVG 1.1//EN" "http://www.w3.org/Graphics/SVG/1.1/DTD/svg11.dtd">
<svg xmlns="http://www.w3.org/2000/svg" xmlns:xlink="http://www.w3.org/1999/xlink" version="1.1" baseProfile="full" width="24" height="24" viewBox="0 0 24.00 24.00" enable-background="new 0 0 24.00 24.00" xml:space="preserve">
	<path fill="#000000" fill-opacity="1" stroke-width="1.33333" stroke-linejoin="miter" d="M 7,12L 9,12L 9,14L 7,14L 7,12 Z M 21,6L 21,20C 21,21.1 20.1,22 19,22L 5,22C 3.89,22 3,21.1 3,20L 3.01,6C 3.01,4.9 3.89,4 5,4L 6,4L 6,2L 8,2L 8,4L 16,4L 16,2L 18,2L 18,4L 19,4C 20.1,4 21,4.9 21,6 Z M 5,8L 19,8L 19,6L 5,6L 5,8 Z M 19,20L 19,10L 5,10L 5,20L 19,20 Z M 15,14L 17,14L 17,12L 15,12L 15,14 Z M 11,14L 13,14L 13,12L 11,12L 11,14 Z "/>
</svg>
