<?xml version="1.0" encoding="utf-8"?>
<!DOCTYPE svg PUBLIC "-//W3C//DTD SVG 1.1//EN" "http://www.w3.org/Graphics/SVG/1.1/DTD/svg11.dtd">
<svg xmlns="http://www.w3.org/2000/svg" xmlns:xlink="http://www.w3.org/1999/xlink" version="1.1" baseProfile="full" width="24" height="24" viewBox="0 0 24.00 24.00" enable-background="new 0 0 24.00 24.00" xml:space="preserve">
	<path fill="#000000" fill-opacity="1" stroke-width="0.2" stroke-linejoin="round" d="M 18.9994,18.9981L 18.9994,7.99807L 4.9994,7.99807L 4.9994,18.9981L 18.9994,18.9981 Z M 15.9994,0.998087L 17.9994,0.998087L 17.9994,2.99808L 18.9994,2.99808C 20.1024,2.99808 20.9994,3.89307 20.9994,4.99808L 20.9994,18.9981C 20.9994,20.1021 20.1024,20.9981 18.9994,20.9981L 4.99936,20.9981C 3.89336,20.9981 2.99936,20.1021 2.99936,18.9981L 3.00937,4.99808C 3.00937,3.89307 3.89336,2.99808 4.99936,2.99808L 5.99936,2.99808L 5.99936,0.998087L 7.99936,0.998087L 7.99936,2.99808L 15.9994,2.99808L 15.9994,0.998087 Z M 7,10L 9,10L 9,12L 7,12L 7,10 Z M 15,10L 17,10L 17,12L 15,12L 15,10 Z M 11,14L 13,14L 13,16L 11,16L 11,14 Z M 15,14L 17,14L 17,16L 15,16L 15,14 Z "/>
</svg>
