<?xml version="1.0" encoding="utf-8"?>
<!DOCTYPE svg PUBLIC "-//W3C//DTD SVG 1.1//EN" "http://www.w3.org/Graphics/SVG/1.1/DTD/svg11.dtd">
<svg xmlns="http://www.w3.org/2000/svg" xmlns:xlink="http://www.w3.org/1999/xlink" version="1.1" baseProfile="full" width="24" height="24" viewBox="0 0 24.00 24.00" enable-background="new 0 0 24.00 24.00" xml:space="preserve">
	<path fill="#000000" fill-opacity="1" stroke-width="0.2" stroke-linejoin="round" d="M 11.9994,16.9981C 10.3694,16.9981 8.93539,16.2061 8.02139,14.9981L 11.9994,14.9981C 13.6564,14.9981 14.9994,13.6551 14.9994,11.9981C 14.9994,11.6451 14.9274,11.3121 14.8154,10.9981L 16.8984,10.9981C 16.9644,11.3211 16.9994,11.6551 16.9994,11.9981C 16.9994,14.7591 14.7604,16.9981 11.9994,16.9981 Z M 11.9994,6.99807C 13.6294,6.99807 15.0634,7.79006 15.9774,8.99807L 11.9994,8.99807C 10.3424,8.99807 8.99939,10.3411 8.99939,11.9981C 8.99939,12.3511 9.07138,12.6841 9.18338,12.9981L 7.1004,12.9981C 7.03439,12.6751 6.99939,12.3411 6.99939,11.9981C 6.99939,9.23707 9.2384,6.99807 11.9994,6.99807 Z M 19.9994,3.99807L 16.8274,3.99807L 14.9994,1.99807L 8.99939,1.99807L 7.17139,3.99807L 3.99939,3.99807C 2.89539,3.99807 1.99939,4.89306 1.99939,5.99807L 1.99939,17.9981C 1.99939,19.1016 2.89539,19.9981 3.99939,19.9981L 19.9994,19.9981C 21.1034,19.9981 21.9994,19.1016 21.9994,17.9981L 21.9994,5.99807C 21.9994,4.89306 21.1034,3.99807 19.9994,3.99807 Z "/>
</svg>
