<?xml version="1.0" encoding="utf-8"?>
<!DOCTYPE svg PUBLIC "-//W3C//DTD SVG 1.1//EN" "http://www.w3.org/Graphics/SVG/1.1/DTD/svg11.dtd">
<svg xmlns="http://www.w3.org/2000/svg" xmlns:xlink="http://www.w3.org/1999/xlink" version="1.1" baseProfile="full" width="24" height="24" viewBox="0 0 24.00 24.00" enable-background="new 0 0 24.00 24.00" xml:space="preserve">
	<path fill="#000000" fill-opacity="1" stroke-linejoin="round" d="M 3.99999,4.00009L 19.9998,4.00009C 21.1044,4.00009 21.9998,4.89552 21.9998,6.00009L 21.9998,18C 21.9998,19.1046 21.1044,20 19.9998,20L 3.99999,20C 2.89542,20 1.99999,19.1046 1.99999,18L 1.99999,6.00009C 1.99999,4.89552 2.89542,4.00009 3.99999,4.00009 Z M 4,6.00001L 4,18L 20,18L 20,6.00001L 4,6.00001 Z M 12,7.5C 14.1416,7.5 15.9338,8.99601 16.3885,11L 14.8293,11C 14.4174,9.83481 13.3062,9.00001 12,9.00001C 10.6938,9.00001 9.58254,9.83481 9.1707,11L 7.61151,11C 8.06624,8.99601 9.85841,7.5 12,7.5 Z M 12,16.5C 9.85841,16.5 8.06624,15.004 7.61151,13L 9.1707,13C 9.58254,14.1652 10.6938,15 12,15C 13.3062,15 14.4175,14.1652 14.8293,13L 16.3885,13C 15.9338,15.004 14.1416,16.5 12,16.5 Z "/>
</svg>
