<?xml version="1.0" encoding="utf-8"?>
<!DOCTYPE svg PUBLIC "-//W3C//DTD SVG 1.1//EN" "http://www.w3.org/Graphics/SVG/1.1/DTD/svg11.dtd">
<svg xmlns="http://www.w3.org/2000/svg" xmlns:xlink="http://www.w3.org/1999/xlink" version="1.1" baseProfile="full" width="24" height="24" viewBox="0 0 24.00 24.00" enable-background="new 0 0 24.00 24.00" xml:space="preserve">
	<path fill="#000000" fill-opacity="1" stroke-width="0.2" stroke-linejoin="round" d="M 14.9994,15.4981L 14.9994,12.9981L 8.99943,12.9981L 8.99943,15.4981L 5.49943,11.9981L 8.99943,8.49807L 8.99943,10.9981L 14.9994,10.9981L 14.9994,8.49807L 18.4994,11.9981M 19.9994,3.99807L 16.8274,3.99807L 14.9994,1.99807L 8.99943,1.99807L 7.17143,3.99807L 3.99943,3.99807C 2.89543,3.99807 1.99943,4.89406 1.99943,5.99807L 1.99943,17.9981C 1.99943,19.1031 2.89543,19.9981 3.99943,19.9981L 19.9994,19.9981C 21.1034,19.9981 21.9994,19.1031 21.9994,17.9981L 21.9994,5.99807C 21.9994,4.89406 21.1034,3.99807 19.9994,3.99807 Z "/>
</svg>
