<?xml version="1.0" encoding="utf-8"?>
<!DOCTYPE svg PUBLIC "-//W3C//DTD SVG 1.1//EN" "http://www.w3.org/Graphics/SVG/1.1/DTD/svg11.dtd">
<svg xmlns="http://www.w3.org/2000/svg" xmlns:xlink="http://www.w3.org/1999/xlink" version="1.1" baseProfile="full" width="24" height="24" viewBox="0 0 24.00 24.00" enable-background="new 0 0 24.00 24.00" xml:space="preserve">
	<path fill="#000000" fill-opacity="1" stroke-linejoin="round" d="M 7,2L 17,2L 17,12.5C 17,10.83 13.67,10 12,10C 10.33,10 7,10.83 7,12.5M 17,1.90735e-006L 7,1.90735e-006C 5.9,1.90735e-006 5,0.900002 5,2L 5,16C 5,17.1 5.9,18 7,18L 17,18C 18.1,18 19,17.1 19,16L 19,2C 19,0.900002 18.1,1.90735e-006 17,1.90735e-006 Z M 12,8C 13.1,8 14,7.1 14,6C 14,4.9 13.1,4 12,4C 10.9,4 10.01,4.9 10.01,6C 10.01,7.1 10.9,8 12,8 Z M 14,20L 14,22L 19,22L 19,20M 10,20L 5,20L 5,22L 10,22L 10,24L 13,21L 10,18L 10,20 Z "/>
</svg>
