<?xml version="1.0" encoding="utf-8"?>
<!DOCTYPE svg PUBLIC "-//W3C//DTD SVG 1.1//EN" "http://www.w3.org/Graphics/SVG/1.1/DTD/svg11.dtd">
<svg xmlns="http://www.w3.org/2000/svg" xmlns:xlink="http://www.w3.org/1999/xlink" version="1.1" baseProfile="full" width="24" height="24" viewBox="0 0 24.00 24.00" enable-background="new 0 0 24.00 24.00" xml:space="preserve">
	<path fill="#000000" fill-opacity="1" stroke-width="1.33333" stroke-linejoin="miter" d="M 9,12C 9,11.1875 9.29687,10.4844 9.89063,9.8906C 10.4844,9.2969 11.1875,9 12,9C 12.8125,9 13.5156,9.2969 14.1094,9.8906C 14.7031,10.4844 15,11.1875 15,12C 15,12.8125 14.7031,13.5156 14.1094,14.1094C 13.5156,14.7031 12.8125,15 12,15C 11.1875,15 10.4844,14.7031 9.89063,14.1094C 9.29687,13.5156 9,12.8125 9,12 Z M 5.53125,8.4375L 7.3125,10.2187L 5.53125,12L 7.3125,13.7812L 5.53125,15.5625L 2.01563,12L 5.53125,8.4375 Z M 8.4375,18.4687L 10.2188,16.6875L 12,18.4687L 13.7813,16.6875L 15.5625,18.4687L 12,21.9844L 8.4375,18.4687 Z M 18.4688,15.5625L 16.6875,13.7812L 18.4688,12L 16.6875,10.2187L 18.4688,8.4375L 21.9844,12L 18.4688,15.5625 Z M 15.5625,5.5312L 13.7813,7.3125L 12,5.5312L 10.2188,7.3125L 8.4375,5.5312L 12,2.0156L 15.5625,5.5312 Z "/>
</svg>
