<?xml version="1.0" encoding="utf-8"?>
<!DOCTYPE svg PUBLIC "-//W3C//DTD SVG 1.1//EN" "http://www.w3.org/Graphics/SVG/1.1/DTD/svg11.dtd">
<svg xmlns="http://www.w3.org/2000/svg" xmlns:xlink="http://www.w3.org/1999/xlink" version="1.1" baseProfile="full" width="24" height="24" viewBox="0 0 24.00 24.00" enable-background="new 0 0 24.00 24.00" xml:space="preserve">
	<path fill="#000000" fill-opacity="1" stroke-width="1.33333" stroke-linejoin="miter" d="M 1,5L 3,5L 3,19L 1,19L 1,5 Z M 5,5L 7,5L 7,19L 5,19L 5,5 Z M 22,5L 10,5C 9.45,5 9,5.45 9,6L 9,18C 9,18.55 9.45,19 10,19L 22,19C 22.55,19 23,18.55 23,18L 23,6C 23,5.45 22.55,5 22,5 Z M 11,17L 13.5,13.85L 15.29,16L 17.79,12.78L 21,17L 11,17 Z "/>
</svg>
