<?xml version="1.0" encoding="utf-8"?>
<!DOCTYPE svg PUBLIC "-//W3C//DTD SVG 1.1//EN" "http://www.w3.org/Graphics/SVG/1.1/DTD/svg11.dtd">
<svg xmlns="http://www.w3.org/2000/svg" xmlns:xlink="http://www.w3.org/1999/xlink" version="1.1" baseProfile="full" width="24" height="24" viewBox="0 0 24.00 24.00" enable-background="new 0 0 24.00 24.00" xml:space="preserve">
	<path fill="#000000" fill-opacity="1" stroke-width="0.2" stroke-linejoin="round" d="M 4.9363,6.3462C 4.54577,5.95568 4.54577,5.32251 4.9363,4.93199C 5.32682,4.54146 5.95999,4.54146 6.35051,4.93199L 13.0736,10.3104L 13.4216,10.5888C 14.2026,11.3699 14.2026,12.6362 13.4216,13.4173C 12.6405,14.1983 11.3742,14.1983 10.5931,13.4173L 10.3148,13.0693L 4.9363,6.3462 Z M 11.9994,19.9981C 16.4174,19.9981 19.9994,16.4171 19.9994,11.9981C 19.9994,9.78941 19.1046,7.78983 17.6578,6.34221L 19.0718,4.92822C 20.8807,6.73775 21.9994,9.23722 21.9994,11.9981C 21.9994,17.5211 17.5224,21.9981 11.9994,21.9981C 6.47702,21.9981 2.00043,17.5221 1.99939,12L 3.99939,12C 4.00043,16.4181 7.58202,19.9981 11.9994,19.9981 Z M 12,1.00001C 13.1046,1.00001 14,1.89544 14,3C 14,4.10457 13.1046,5 12,5C 10.8954,5 10,4.10457 10,3C 10,1.89544 10.8954,1.00001 12,1.00001 Z "/>
</svg>
