<?xml version="1.0" encoding="utf-8"?>
<!DOCTYPE svg PUBLIC "-//W3C//DTD SVG 1.1//EN" "http://www.w3.org/Graphics/SVG/1.1/DTD/svg11.dtd">
<svg xmlns="http://www.w3.org/2000/svg" xmlns:xlink="http://www.w3.org/1999/xlink" version="1.1" baseProfile="full" width="24" height="24" viewBox="0 0 24.00 24.00" enable-background="new 0 0 24.00 24.00" xml:space="preserve">
	<path fill="#000000" fill-opacity="1" stroke-width="0.2" stroke-linejoin="round" d="M 4.00002,5.00001L 7.00002,5L 9.00002,3L 15,3L 17,5L 20,5.00001C 21.1046,5.00001 22,5.89544 22,7.00001L 22,19C 22,20.1046 21.1046,21 20,21L 4.00002,21C 2.89545,21 2.00002,20.1046 2.00002,19L 2.00002,7.00001C 2.00002,5.89544 2.89545,5.00001 4.00002,5.00001 Z M 16,17L 16,16C 16,14.668 13.333,14 12,14C 10.667,14 8,14.668 8,16L 8,17L 16,17 Z M 12,9C 10.8965,9 10,9.896 10,11C 10,12.103 10.8965,13 12,13C 13.1035,13 14,12.103 14,11C 14,9.896 13.1035,9 12,9 Z "/>
</svg>
