<?xml version="1.0" encoding="utf-8"?>
<!DOCTYPE svg PUBLIC "-//W3C//DTD SVG 1.1//EN" "http://www.w3.org/Graphics/SVG/1.1/DTD/svg11.dtd">
<svg xmlns="http://www.w3.org/2000/svg" xmlns:xlink="http://www.w3.org/1999/xlink" version="1.1" baseProfile="full" width="24" height="24" viewBox="0 0 24.00 24.00" enable-background="new 0 0 24.00 24.00" xml:space="preserve">
	<path fill="#000000" fill-opacity="1" stroke-width="1.33333" stroke-linejoin="miter" d="M 20,9L 20,20L 4,20L 4,8L 8.05,8L 9.88,6L 15,6L 15,4L 9,4L 7.17,6L 4,6C 2.9,6 2,6.9 2,8L 2,20C 2,21.1 2.9,22 4,22L 20,22C 21.1,22 22,21.1 22,20L 22,9L 20,9 Z M 20.67,7.99L 22,7.99C 21.99,4.68 19.31,2 16,2L 16,3.33C 18.58,3.33 20.66,5.41 20.67,7.99 Z M 18,7.99L 19.33,7.99C 19.32,6.15 17.84,4.67 16,4.67L 16,6C 17.11,6 17.99,6.89 18,7.99 Z M 7,14C 7,16.76 9.24,19 12,19C 14.76,19 17,16.76 17,14C 17,11.24 14.76,9 12,9C 9.24,9 7,11.24 7,14 Z M 15,14C 15,15.65 13.65,17 12,17C 10.35,17 9,15.65 9,14C 9,12.35 10.35,11 12,11C 13.65,11 15,12.34 15,14 Z "/>
</svg>
