<?xml version="1.0" encoding="utf-8"?>
<!DOCTYPE svg PUBLIC "-//W3C//DTD SVG 1.1//EN" "http://www.w3.org/Graphics/SVG/1.1/DTD/svg11.dtd">
<svg xmlns="http://www.w3.org/2000/svg" xmlns:xlink="http://www.w3.org/1999/xlink" version="1.1" baseProfile="full" width="24" height="24" viewBox="0 0 24.00 24.00" enable-background="new 0 0 24.00 24.00" xml:space="preserve">
	<path fill="#000000" fill-opacity="1" stroke-linejoin="round" d="M 4,4L 20,4C 21.1046,4 22,4.89543 22,6L 22,18C 22,19.1046 21.1046,20 20,20L 4,20C 2.89543,20 2,19.1046 2,18L 2,6C 2,4.89543 2.89543,4 4,4 Z M 4,6.00001L 4,18L 20,18L 20,6.00001L 4,6.00001 Z M 5.5,7.50001L 11,7.50001L 11,9.17071C 10.1476,9.47199 9.47199,10.1476 9.1707,11L 5.5,11L 5.5,7.50001 Z M 18.5,7.50001L 18.5,11L 14.8293,11C 14.528,10.1476 13.8524,9.472 13,9.17071L 13,7.50001L 18.5,7.50001 Z M 18.5,16.5L 13,16.5L 13,14.8293C 13.8524,14.528 14.528,13.8524 14.8293,13L 18.5,13L 18.5,16.5 Z M 5.5,16.5L 5.5,13L 9.1707,13C 9.47199,13.8524 10.1476,14.528 11,14.8293L 11,16.5L 5.5,16.5 Z M 12,10.5C 12.8284,10.5 13.5,11.1716 13.5,12C 13.5,12.8284 12.8284,13.5 12,13.5C 11.1716,13.5 10.5,12.8284 10.5,12C 10.5,11.1716 11.1716,10.5 12,10.5 Z "/>
</svg>
