<?xml version="1.0" encoding="utf-8"?>
<!DOCTYPE svg PUBLIC "-//W3C//DTD SVG 1.1//EN" "http://www.w3.org/Graphics/SVG/1.1/DTD/svg11.dtd">
<svg xmlns="http://www.w3.org/2000/svg" xmlns:xlink="http://www.w3.org/1999/xlink" version="1.1" baseProfile="full" width="24" height="24" viewBox="0 0 24.00 24.00" enable-background="new 0 0 24.00 24.00" xml:space="preserve">
	<path fill="#000000" fill-opacity="1" stroke-width="0.2" stroke-linejoin="miter" d="M -5.08626e-006,2C -5.08626e-006,0.895399 0.895426,0 2,0L 6,0L 6,2L 2,2L 2,6L -5.08626e-006,6L -5.08626e-006,2 Z M 24,22C 24,23.1046 23.1046,24 22,24L 18,24L 18,22L 22,22L 22,18L 24,18L 24,22 Z M 2,24C 0.895426,24 -5.08626e-006,23.1046 -5.08626e-006,22L -5.08626e-006,18L 2,18L 2,22L 5.99999,22L 5.99999,24L 2,24 Z M 22,1.52588e-005C 23.1046,1.52588e-005 24,0.895414 24,2.00002L 24,6.00001L 22,6.00001L 22,2.00002L 18,2.00002L 18,1.52588e-005L 22,1.52588e-005 Z M 17,9.00001L 23,9.00001L 23,15L 17,15L 17,9.00001 Z M 18.5,10.5L 18.5,13.5L 21.5,13.5L 21.5,10.5L 18.5,10.5 Z M 9,1.00001L 15,1.00001L 15,7.00001L 9,7.00001L 9,1.00001 Z M 10.5,2.50001L 10.5,5.50001L 13.5,5.50001L 13.5,2.50001L 10.5,2.50001 Z M 9,9L 15,9L 15,15L 9,15L 9,9 Z M 10.5,10.5L 10.5,13.5L 13.5,13.5L 13.5,10.5L 10.5,10.5 Z M 1,9L 7,9L 7,15L 1,15L 1,9 Z M 2.5,10.5L 2.5,13.5L 5.5,13.5L 5.5,10.5L 2.5,10.5 Z M 9,17L 15,17L 15,23L 9,23L 9,17 Z M 10.5,18.5L 10.5,21.5L 13.5,21.5L 13.5,18.5L 10.5,18.5 Z "/>
</svg>
