<?xml version="1.0" encoding="utf-8"?>
<!DOCTYPE svg PUBLIC "-//W3C//DTD SVG 1.1//EN" "http://www.w3.org/Graphics/SVG/1.1/DTD/svg11.dtd">
<svg xmlns="http://www.w3.org/2000/svg" xmlns:xlink="http://www.w3.org/1999/xlink" version="1.1" baseProfile="full" width="24" height="24" viewBox="0 0 24.00 24.00" enable-background="new 0 0 24.00 24.00" xml:space="preserve">
	<path fill="#000000" fill-opacity="1" stroke-linejoin="round" d="M 6,1.90735e-006L 18,1.90735e-006C 19.1046,1.90735e-006 20,0.895433 20,2L 20,22C 20,23.1046 19.1046,24 18,24L 6,24C 4.89543,24 4,23.1046 4,22L 4,2C 4,0.895433 4.89543,1.90735e-006 6,1.90735e-006 Z M 12,2.00001C 10.8954,2.00001 10,2.89544 10,4.00001C 10,5.10457 10.8954,6.00001 12,6.00001C 13.1046,6.00001 14,5.10457 14,4.00001C 14,2.89544 13.1046,2.00001 12,2.00001 Z M 13,18L 9,18L 9,20L 13,20L 13,22L 16,19L 13,16L 13,18 Z "/>
</svg>
