<?xml version="1.0" encoding="utf-8"?>
<!DOCTYPE svg PUBLIC "-//W3C//DTD SVG 1.1//EN" "http://www.w3.org/Graphics/SVG/1.1/DTD/svg11.dtd">
<svg xmlns="http://www.w3.org/2000/svg" xmlns:xlink="http://www.w3.org/1999/xlink" version="1.1" baseProfile="full" width="24" height="24" viewBox="0 0 24.00 24.00" enable-background="new 0 0 24.00 24.00" xml:space="preserve">
	<path fill="#000000" fill-opacity="1" stroke-width="0.2" stroke-linejoin="round" d="M 3.99999,4.00009L 19.9998,4.00009C 21.1044,4.00009 21.9998,4.89552 21.9998,6.00009L 21.9998,18C 21.9998,19.1046 21.1044,20 19.9998,20L 3.99999,20C 2.89542,20 1.99999,19.1046 1.99999,18L 1.99999,6.00009C 1.99999,4.89552 2.89542,4.00009 3.99999,4.00009 Z M 4,6.00001L 4,18L 20,18L 20,6.00001L 4,6.00001 Z M 12,10.5C 12.8284,10.5 13.5,11.1716 13.5,12C 13.5,12.8284 12.8284,13.5 12,13.5C 11.1716,13.5 10.5,12.8284 10.5,12C 10.5,11.1716 11.1716,10.5 12,10.5 Z "/>
</svg>
