<?xml version="1.0" encoding="utf-8"?>
<!DOCTYPE svg PUBLIC "-//W3C//DTD SVG 1.1//EN" "http://www.w3.org/Graphics/SVG/1.1/DTD/svg11.dtd">
<svg xmlns="http://www.w3.org/2000/svg" xmlns:xlink="http://www.w3.org/1999/xlink" version="1.1" baseProfile="full" width="24" height="24" viewBox="0 0 24.00 24.00" enable-background="new 0 0 24.00 24.00" xml:space="preserve">
	<path fill="#000000" fill-opacity="1" stroke-linejoin="round" d="M 15.9013,18.5L 21.9013,20.0987L 21.5,22L 12.0987,19.5L 2.69733,22L 2.19733,20.0987L 8.19733,18.5L 2.09867,16.9013L 2.59867,15L 12,17.5L 21.4013,15L 21.9013,16.9013L 15.9013,18.5 Z M 16.072,7.92134C 15.9053,7.70267 15.7133,7.516 15.52,7.328C 15.052,6.896 14.5107,6.588 14.0573,6.13067C 13.0053,5.07867 12.7867,3.33867 13.4427,2C 12.7867,2.16667 12.1773,2.54134 11.672,2.95334C 9.83867,4.45867 9.11467,7.104 9.984,9.38C 10.0107,9.45333 10.0413,9.52667 10.0413,9.62C 10.0413,9.78133 9.932,9.92133 9.78666,9.97867C 9.62933,10.052 9.45866,10.0107 9.328,9.896C 9.28133,9.86 9.25467,9.82267 9.21867,9.77067C 8.42133,8.74 8.292,7.26 8.83867,6.07334C 7.65067,7.05734 7.01067,8.71867 7.10933,10.2867C 7.13467,10.6453 7.18133,11.0053 7.30133,11.364C 7.40533,11.8027 7.59333,12.2347 7.82267,12.6147C 8.572,13.864 9.896,14.76 11.3173,14.9427C 12.8387,15.136 14.4627,14.8547 15.6253,13.7867C 16.9267,12.588 17.396,10.6667 16.708,9.02133L 16.6147,8.83333C 16.468,8.5 16.276,8.20267 16.036,7.932L 16.072,7.92134 Z M 13.8333,12.4733C 13.6293,12.6453 13.3067,12.8333 13.052,12.9067C 12.26,13.1933 11.4627,12.792 10.9787,12.312C 11.8387,12.1147 12.344,11.4733 12.4893,10.8333C 12.6093,10.2547 12.3853,9.78133 12.292,9.224C 12.208,8.688 12.224,8.23467 12.4213,7.73467C 12.5467,8.01067 12.692,8.28134 12.8587,8.5C 13.4053,9.224 14.2653,9.54134 14.448,10.5213C 14.4733,10.6253 14.4893,10.724 14.4893,10.8333C 14.5107,11.4267 14.26,12.0733 13.8227,12.4733"/>
</svg>
