<?xml version="1.0" encoding="utf-8"?>
<!DOCTYPE svg PUBLIC "-//W3C//DTD SVG 1.1//EN" "http://www.w3.org/Graphics/SVG/1.1/DTD/svg11.dtd">
<svg xmlns="http://www.w3.org/2000/svg" xmlns:xlink="http://www.w3.org/1999/xlink" version="1.1" baseProfile="full" width="24" height="24" viewBox="0 0 24.00 24.00" enable-background="new 0 0 24.00 24.00" xml:space="preserve">
	<path fill="#000000" fill-opacity="1" stroke-width="1.33333" stroke-linejoin="miter" d="M 12.5,2C 10.8431,2 9.5,5.3431 9.5,7C 9.5,8.6569 10.8431,10 12.5,10C 14.1569,10 15.5,8.6569 15.5,7C 15.5,5.3431 14.1569,2 12.5,2 Z M 12.5,6.5C 13.0523,6.5 13.5,6.9477 13.5,7.5C 13.5,8.0523 13.0523,8.5 12.5,8.5C 11.9477,8.5 11.5,8.0523 11.5,7.5C 11.5,6.9477 11.9477,6.5 12.5,6.5 Z M 10,11C 9.446,11 9,11.446 9,12L 9,20L 7,20C 6.44772,20 6,19.5523 6,19L 6,18C 6,17.446 5.554,17 5,17C 4.446,17 4,17.446 4,18L 4,19C 4,20.6568 5.34315,22 7,22L 19,22C 19.554,22 20,21.554 20,21C 20,20.446 19.554,20 19,20L 16,20L 16,12C 16,11.446 15.554,11 15,11L 10,11 Z "/>
</svg>
