<?xml version="1.0" encoding="utf-8"?>
<!DOCTYPE svg PUBLIC "-//W3C//DTD SVG 1.1//EN" "http://www.w3.org/Graphics/SVG/1.1/DTD/svg11.dtd">
<svg xmlns="http://www.w3.org/2000/svg" xmlns:xlink="http://www.w3.org/1999/xlink" version="1.1" baseProfile="full" width="24" height="24" viewBox="0 0 24.00 24.00" enable-background="new 0 0 24.00 24.00" xml:space="preserve">
	<path fill="#000000" fill-opacity="1" stroke-linejoin="round" d="M 10,10C 10,11.1046 9.10457,12 8,12C 6.89543,12 6,11.1046 6,10L 6,8C 6,7.37389 6.0959,6.77018 6.27382,6.20275L 10,9.92894L 10,10 Z M 12,2.00001C 12.7365,2.00001 13.4421,2.13272 14.094,2.37554L 11.9691,6.00024C 11.1441,6.01274 10.4403,6.52468 10.1466,7.24708L 7.24273,4.34324C 8.33971,2.91823 10.0626,2.00001 12,2.00001 Z M 17.7592,6.31183L 14,10.0711L 14,8C 14,7.62473 13.8966,7.2736 13.7168,6.97352L 15.8251,3.37721C 16.735,4.13092 17.4187,5.14811 17.7592,6.31183 Z M 18,13.0858L 14,17.0858L 14,12.8995L 18,8.89949L 18,13.0858 Z M 18,20C 18,21.1046 17.1046,22 16,22C 14.8954,22 14,21.1046 14,20L 14,19.9142L 18,15.9142L 18,20 Z "/>
</svg>
