<?xml version="1.0" encoding="utf-8"?>
<!DOCTYPE svg PUBLIC "-//W3C//DTD SVG 1.1//EN" "http://www.w3.org/Graphics/SVG/1.1/DTD/svg11.dtd">
<svg xmlns="http://www.w3.org/2000/svg" xmlns:xlink="http://www.w3.org/1999/xlink" version="1.1" baseProfile="full" width="24" height="24" viewBox="0 0 24.00 24.00" enable-background="new 0 0 24.00 24.00" xml:space="preserve">
	<path fill="#000000" fill-opacity="1" stroke-linejoin="round" d="M 11.5,22L 11.5,17.3505C 11.0025,18.1296 10.0101,19.0933 8.03126,19.8078C 8.03126,19.8078 8.53441,18.1027 9.94427,16.9527C 8.63547,17.2294 6.67721,17.1899 3.99999,16C 3.99999,16 6.47193,14.5875 9.27575,14.9725C 7.68978,14.0194 5.69859,12.0756 4.17374,8.11102C 4.17374,8.11103 8.67213,9.33786 10.9072,13.1439C 8.87935,8.2413 12,2.00001 12,2.00001C 14.4323,7.47269 13.9066,11.0966 13.1208,13.0966C 15.3652,9.32768 19.8263,8.11103 19.8263,8.11103C 18.3014,12.0756 16.3102,14.0194 14.7243,14.9725C 17.5281,14.5875 20,16 20,16C 17.3228,17.1899 15.3645,17.2294 14.0557,16.9527C 15.4656,18.1027 15.9687,19.8078 15.9687,19.8078C 13.9899,19.0933 12.9975,18.1296 12.5,17.3505L 12.5,22L 11.5,22 Z "/>
</svg>
