<?xml version="1.0" encoding="utf-8"?>
<!DOCTYPE svg PUBLIC "-//W3C//DTD SVG 1.1//EN" "http://www.w3.org/Graphics/SVG/1.1/DTD/svg11.dtd">
<svg xmlns="http://www.w3.org/2000/svg" xmlns:xlink="http://www.w3.org/1999/xlink" version="1.1" baseProfile="full" width="24" height="24" viewBox="0 0 24.00 24.00" enable-background="new 0 0 24.00 24.00" xml:space="preserve">
	<path fill="#000000" fill-opacity="1" stroke-width="1.33333" stroke-linejoin="miter" d="M 9.96,13.714L 12,8.289L 14.031,13.715M 11.143,6L 6.429,18L 8.358,18L 9.318,15.429L 14.675,15.429L 15.643,18L 17.572,18L 12.857,6L 11.143,6 Z M 20,2L 4,2C 2.89,2 2,2.89 2,4L 2,20C 2,21.105 2.895,22 4,22L 20,22C 21.105,22 22,21.105 22,20L 22,4C 22,2.89 21.1,2 20,2 Z M 20,20L 4,20L 4,4L 20,4L 20,20 Z "/>
</svg>
