<?xml version="1.0" encoding="utf-8"?>
<!DOCTYPE svg PUBLIC "-//W3C//DTD SVG 1.1//EN" "http://www.w3.org/Graphics/SVG/1.1/DTD/svg11.dtd">
<svg xmlns="http://www.w3.org/2000/svg" xmlns:xlink="http://www.w3.org/1999/xlink" version="1.1" baseProfile="full" width="24" height="24" viewBox="0 0 24.00 24.00" enable-background="new 0 0 24.00 24.00" xml:space="preserve">
	<path fill="#000000" fill-opacity="1" stroke-width="1.33333" stroke-linejoin="miter" d="M 24,12C 24,15.314 22.657,18.314 20.485,20.485L 19.421,19.421C 21.322,17.52 22.5,14.895 22.5,12C 22.5,9.105 21.322,6.48 19.421,4.579L 20.485,3.515C 22.657,5.686 24,8.686 24,12 Z M 20,9.6L 20,8L 16.8,8C 15.92,8 15.2,8.72 15.2,9.6L 15.2,11.2C 15.2,12.08 15.92,12.8 16.8,12.8L 18.4,12.8L 18.4,14.4L 15.2,14.4L 15.2,16L 18.4,16C 19.28,16 20,15.28 20,14.4L 20,12.8C 20,11.92 19.28,11.2 18.4,11.2L 16.8,11.2L 16.8,9.6L 20,9.6 Z M 8.418,6C 9.467,5.37 10.689,5 12,5C 13.311,5 14.533,5.37 15.582,6L 18.693,6C 17.046,4.163 14.662,3 12,3C 9.338,3 6.954,4.163 5.307,6L 8.418,6 Z M 13.2,12C 13.84,12 14.4,12.56 14.4,13.2L 14.4,14.4C 14.4,15.28 13.68,16 12.8,16L 9.6,16L 9.6,8L 12.8,8C 13.68,8 14.4,8.72 14.4,9.6L 14.4,10.8C 14.4,11.44 13.84,12 13.2,12 Z M 12.8,12.8L 11.2,12.8L 11.2,14.4L 12.8,14.4L 12.8,12.8 Z M 12.8,9.6L 11.2,9.6L 11.2,11.2L 12.8,11.2L 12.8,9.6 Z M 4.579,4.579L 3.515,3.515C 1.343,5.686 1.27157e-006,8.686 1.27157e-006,12C 1.27157e-006,15.314 1.343,18.314 3.515,20.485L 4.579,19.421C 2.678,17.52 1.5,14.895 1.5,12C 1.5,9.105 2.678,6.48 4.579,4.579 Z M 7.2,16L 7.2,12.8L 5.6,12.8L 5.6,16L 4,16L 4,9.6C 4,8.72 4.72,8 5.6,8L 7.2,8C 8.08,8 8.8,8.72 8.8,9.6L 8.8,16L 7.2,16 Z M 7.2,11.2L 7.2,9.6L 5.6,9.6L 5.6,11.2L 7.2,11.2 Z M 15.582,18C 14.533,18.63 13.31,19 12,19C 10.69,19 9.467,18.63 8.418,18L 5.307,18C 6.954,19.837 9.338,21 12,21C 14.662,21 17.046,19.837 18.693,18L 15.582,18 Z "/>
</svg>
