<?xml version="1.0" encoding="utf-8"?>
<!DOCTYPE svg PUBLIC "-//W3C//DTD SVG 1.1//EN" "http://www.w3.org/Graphics/SVG/1.1/DTD/svg11.dtd">
<svg xmlns="http://www.w3.org/2000/svg" xmlns:xlink="http://www.w3.org/1999/xlink" version="1.1" baseProfile="full" width="24" height="24" viewBox="0 0 24.00 24.00" enable-background="new 0 0 24.00 24.00" xml:space="preserve">
	<path fill="#000000" fill-opacity="1" stroke-width="1.33333" stroke-linejoin="miter" d="M 9.5,11L 10.5,11C 10.8,11 11,10.8 11,10.5L 11,9L 19,9L 19,10.5C 19,10.8 19.2,11 19.5,11L 20.5,11C 20.8,11 21,10.8 21,10.5L 21,9L 21,8.5L 21,6L 19.6,1.7C 19.5,1.3 19.1,1 18.7,1L 11.4,1C 11,1 10.6,1.3 10.5,1.7L 9,6L 9,8.5L 9,9L 9,10.5C 9,10.8 9.2,11 9.5,11 Z M 11.3,2L 18.6,2L 19.5,5L 10.4,5L 11.3,2 Z M 12,23L 10,23C 10,22.2 8.1,21.5 6.6,20.9C 4.5,20.1 2,19.2 2,17C 2,14.7 4.3,14.1 6.2,13.5C 7.9,13.1 9,12.7 9,12L 11,12C 11,14.3 8.7,14.9 6.8,15.5C 5.1,15.9 4,16.3 4,17C 4,17.8 5.9,18.5 7.4,19.1C 9.5,19.9 12,20.8 12,23 Z M 22,23L 20,23C 20,22.2 18.1,21.5 16.6,20.9C 14.5,20.1 12,19.2 12,17C 12,14.7 14.3,14.1 16.2,13.5C 17.8,13 19,12.7 19,12L 21,12C 21,14.3 18.7,14.9 16.8,15.5C 15.2,15.9 14,16.3 14,17C 14,17.8 15.9,18.5 17.4,19.1C 19.5,19.9 22,20.8 22,23 Z "/>
</svg>
