<?xml version="1.0" encoding="utf-8"?>
<!DOCTYPE svg PUBLIC "-//W3C//DTD SVG 1.1//EN" "http://www.w3.org/Graphics/SVG/1.1/DTD/svg11.dtd">
<svg xmlns="http://www.w3.org/2000/svg" xmlns:xlink="http://www.w3.org/1999/xlink" version="1.1" baseProfile="full" width="24" height="24" viewBox="0 0 24.00 24.00" enable-background="new 0 0 24.00 24.00" xml:space="preserve">
	<path fill="#000000" fill-opacity="1" stroke-width="1.33333" stroke-linejoin="miter" d="M 12,8.5L 7,8.5L 4,11L 3,11C 1.89,11 1,11.89 1,13L 1,16L 3.17383,16C 3.59733,17.1979 4.72948,17.999 6,18C 7.2698,17.9982 8.40095,17.1972 8.82422,16L 15.1738,16C 15.5973,17.1979 16.7295,17.999 18,18C 19.2698,17.9982 20.401,17.1972 20.8242,16L 23,16L 23,15C 23,13.89 21.9745,13.5315 21,13L 12,8.5 Z M 5.25,12L 7.5,10L 11.5,10L 15.5,12L 5.25,12 Z M 6,13.5C 6.82843,13.5 7.5,14.1716 7.5,15C 7.5,15.8284 6.82843,16.5 6,16.5C 5.17157,16.5 4.5,15.8284 4.5,15C 4.5,14.1716 5.17157,13.5 6,13.5 Z M 18,13.5C 18.8284,13.5 19.5,14.1716 19.5,15C 19.5,15.8284 18.8284,16.5 18,16.5C 17.1716,16.5 16.5,15.8284 16.5,15C 16.5,14.1716 17.1716,13.5 18,13.5 Z "/>
</svg>
