<?xml version="1.0" encoding="utf-8"?>
<!DOCTYPE svg PUBLIC "-//W3C//DTD SVG 1.1//EN" "http://www.w3.org/Graphics/SVG/1.1/DTD/svg11.dtd">
<svg xmlns="http://www.w3.org/2000/svg" xmlns:xlink="http://www.w3.org/1999/xlink" version="1.1" baseProfile="full" width="24" height="24" viewBox="0 0 24.00 24.00" enable-background="new 0 0 24.00 24.00" xml:space="preserve">
	<path fill="#000000" fill-opacity="1" stroke-width="1.33333" stroke-linejoin="miter" d="M 22,15C 22,17.6 20.8,19.9 18.9,21.3L 18.4,20.8L 16.3,18.7L 17.7,17.3L 18.9,18.5C 19.4,17.8 19.8,16.9 19.9,16L 18,16L 18,14L 19.9,14C 19.7,13.1 19.4,12.3 18.9,11.5L 17.7,12.7L 16.3,11.3L 17.5,10.1C 16.8,9.6 15.9,9.2 15,9.1L 15,11L 13,11L 13,9.1C 12.1,9.3 11.3,9.6 10.5,10.1L 13.5,13.1C 13.7,13.1 13.8,13 14,13C 15.1,13 16,13.9 16,15C 16,16.1 15.1,17 14,17C 12.9,17 12,16.1 12,15C 12,14.8 12,14.7 12.1,14.5L 9.1,11.5C 8.6,12.2 8.2,13.1 8.1,14L 10,14L 10,16L 8.1,16C 8.3,16.9 8.6,17.7 9.1,18.5L 10.3,17.3L 11.7,18.7L 9.1,21.3C 7.2,19.9 6,17.6 6,15C 6,10.6 9.6,7 14,7C 18.4,7 22,10.6 22,15 Z M 6.7,5.3L 3.4,2L 2,3.4L 5.3,6.7L 4,8L 8,8L 8,4L 6.7,5.3 Z "/>
</svg>
