<?xml version="1.0" encoding="utf-8"?>
<!DOCTYPE svg PUBLIC "-//W3C//DTD SVG 1.1//EN" "http://www.w3.org/Graphics/SVG/1.1/DTD/svg11.dtd">
<svg xmlns="http://www.w3.org/2000/svg" xmlns:xlink="http://www.w3.org/1999/xlink" version="1.1" baseProfile="full" width="24" height="24" viewBox="0 0 24.00 24.00" enable-background="new 0 0 24.00 24.00" xml:space="preserve">
	<path fill="#000000" fill-opacity="1" stroke-width="1.33333" stroke-linejoin="miter" d="M 10,18.3C 10,20.5 7.9,22.5 7.7,22.7C 7.5,22.9 7.2,23 7,23C 6.7,23 6.5,22.9 6.2,22.6C 5.9,22.2 5.9,21.6 6.3,21.2C 6.8,20.8 8,19.4 8,18.3C 8,17.7 7.6,17.1 7.2,16.4C 6.6,15.6 6,14.6 6,13.4C 6,11.1 7.3,10.2 7.5,10.1C 7.9,9.9 8.6,10 8.8,10.4C 9.1,10.9 9,11.5 8.5,11.8C 8.5,11.8 8,12.2 8,13.4C 8,14.1 8.4,14.7 8.8,15.3C 9.4,16.1 10,17.1 10,18.3 Z M 12,13.4C 12,12.2 12.5,11.8 12.5,11.8C 13,11.5 13.1,10.9 12.8,10.4C 12.5,9.9 11.9,9.8 11.4,10.1C 11.2,10.2 9.9,11.1 9.9,13.4C 9.9,14.6 10.5,15.6 11.1,16.4C 11.5,17.1 11.9,17.7 11.9,18.3C 11.9,19.4 10.7,20.8 10.2,21.2C 9.8,21.6 9.8,22.2 10.1,22.6C 10.3,22.8 10.6,22.9 10.8,22.9C 11.2,23 11.5,22.9 11.7,22.7C 11.9,22.5 14,20.5 14,18.3C 14,17.1 13.4,16.1 12.8,15.3C 12.4,14.6 12,14 12,13.4 Z M 20,3L 4,3C 2.9,3 2,3.9 2,5L 2,16C 2,17.1 2.9,18 4,18L 5,18L 5,16L 4,16L 4,5L 20,5L 20,16L 19,16L 19,18L 20,18C 21.1,18 22,17.1 22,16L 22,5C 22,3.9 21.1,3 20,3 Z M 16.2,13.5C 16.2,12.3 16.7,11.9 16.7,11.9C 17.1,11.6 17.3,11 17,10.5C 16.7,10.1 16.1,9.9 15.6,10.2C 15.4,10.3 14.1,11.2 14.1,13.5C 14.1,14.7 14.8,15.7 15.3,16.5C 15.7,17.2 16.1,17.8 16.1,18.4C 16.1,19.5 14.9,20.9 14.4,21.3C 14,21.7 13.9,22.3 14.3,22.7C 14.5,22.9 14.7,23 15,23C 15.2,23 15.5,22.9 15.9,22.8C 16.1,22.6 18.2,20.6 18.2,18.4C 18.2,17.2 17.5,16.2 17,15.4C 16.6,14.7 16.2,14.1 16.2,13.5 Z "/>
</svg>
