<?xml version="1.0" encoding="utf-8"?>
<!DOCTYPE svg PUBLIC "-//W3C//DTD SVG 1.1//EN" "http://www.w3.org/Graphics/SVG/1.1/DTD/svg11.dtd">
<svg xmlns="http://www.w3.org/2000/svg" xmlns:xlink="http://www.w3.org/1999/xlink" version="1.1" baseProfile="full" width="24" height="24" viewBox="0 0 24.00 24.00" enable-background="new 0 0 24.00 24.00" xml:space="preserve">
	<path fill="#000000" fill-opacity="1" stroke-width="1.33333" stroke-linejoin="miter" d="M 16,6L 19,10L 21,10C 22.11,10 23,10.89 23,12L 23,15L 21,15C 21,16.6568 19.6569,18 18,18C 16.3431,18 15,16.6568 15,15L 9,15C 9,16.6568 7.65685,18 6,18C 4.34315,18 3,16.6568 3,15L 1,15L 1,12C 1,10.89 1.89,10 3,10L 6,6L 16,6 Z M 10.5,7.5L 6.74787,7.5L 4.86398,10L 10.5,10L 10.5,7.5 Z M 12,7.5L 12,10L 17.136,10L 15.2521,7.5L 12,7.5 Z M 6,13.5C 5.17157,13.5 4.5,14.1716 4.5,15C 4.5,15.8284 5.17157,16.5 6,16.5C 6.82843,16.5 7.5,15.8284 7.5,15C 7.5,14.1716 6.82843,13.5 6,13.5 Z M 18,13.5C 17.1716,13.5 16.5,14.1716 16.5,15C 16.5,15.8284 17.1716,16.5 18,16.5C 18.8284,16.5 19.5,15.8284 19.5,15C 19.5,14.1716 18.8284,13.5 18,13.5 Z "/>
</svg>
