<?xml version="1.0" encoding="utf-8"?>
<!DOCTYPE svg PUBLIC "-//W3C//DTD SVG 1.1//EN" "http://www.w3.org/Graphics/SVG/1.1/DTD/svg11.dtd">
<svg xmlns="http://www.w3.org/2000/svg" xmlns:xlink="http://www.w3.org/1999/xlink" version="1.1" baseProfile="full" width="24" height="24" viewBox="0 0 24.00 24.00" enable-background="new 0 0 24.00 24.00" xml:space="preserve">
	<path fill="#000000" fill-opacity="1" stroke-width="1.33333" stroke-linejoin="miter" d="M 13,4.8C 9,4.8 9,19.2 13,19.2C 17,19.2 22,16.5 22,12C 22,7.5 17,4.8 13,4.8 Z M 13.1,17.2C 12.7,16.8 12,15 12,12C 12,9 12.7,7.2 13.1,6.8C 16,6.9 20,8.7 20,12C 20,15.3 15.9,17.1 13.1,17.2 Z M 8,10.5C 8,11 7.9,11.5 7.9,12C 7.9,12.2 7.9,12.4 7.9,12.6L 2.4,14L 1.9,12.1L 8,10.5 Z M 2,7L 9.4,5.1C 9.2,5.4 9,5.8 8.9,6.3C 8.8,6.6 8.7,7 8.6,7.4L 2.5,8.9L 2,7 Z M 8.2,15.5C 8.3,16.2 8.5,16.9 8.7,17.4L 2.4,19L 1.9,17.1L 8.2,15.5 Z "/>
</svg>
