<?xml version="1.0" encoding="utf-8"?>
<!DOCTYPE svg PUBLIC "-//W3C//DTD SVG 1.1//EN" "http://www.w3.org/Graphics/SVG/1.1/DTD/svg11.dtd">
<svg xmlns="http://www.w3.org/2000/svg" xmlns:xlink="http://www.w3.org/1999/xlink" version="1.1" baseProfile="full" width="24" height="24" viewBox="0 0 24.00 24.00" enable-background="new 0 0 24.00 24.00" xml:space="preserve">
	<path fill="#000000" fill-opacity="1" stroke-width="1.33333" stroke-linejoin="miter" d="M 5,13L 6.5,8.5L 17.5,8.5L 19,13M 17.5,18C 16.6716,18 16,17.3284 16,16.5C 16,15.6716 16.6716,15 17.5,15C 18.3284,15 19,15.6716 19,16.5C 19,17.3284 18.3284,18 17.5,18M 6.5,18C 5.67157,18 5,17.3284 5,16.5C 5,15.6716 5.67157,15 6.5,15C 7.32843,15 8,15.6716 8,16.5C 8,17.3284 7.32843,18 6.5,18M 18.92,8C 18.7074,7.3987 18.1378,6.9975 17.5,7L 6.5,7C 5.8622,6.9975 5.2926,7.3987 5.08,8L 3,14L 3,22C 3,22.5523 3.44772,23 4,23L 5,23C 5.55228,23 6,22.5523 6,22L 6,21L 18,21L 18,22C 18,22.5523 18.4477,23 19,23L 20,23C 20.5523,23 21,22.5523 21,22L 21,14M 11,6L 11,4L 7,4L 13,1L 13,3L 17,3L 11,6 Z "/>
</svg>
