<?xml version="1.0" encoding="utf-8"?>
<!DOCTYPE svg PUBLIC "-//W3C//DTD SVG 1.1//EN" "http://www.w3.org/Graphics/SVG/1.1/DTD/svg11.dtd">
<svg xmlns="http://www.w3.org/2000/svg" xmlns:xlink="http://www.w3.org/1999/xlink" version="1.1" baseProfile="full" width="24" height="24" viewBox="0 0 24.00 24.00" enable-background="new 0 0 24.00 24.00" xml:space="preserve">
	<path fill="#000000" fill-opacity="1" stroke-width="1.33333" stroke-linejoin="miter" d="M 12,3C 7,3 3,7 3,12C 3,17 7,21 12,21C 17,21 21,17 21,12C 21,7 17,3 12,3 Z M 12,19C 8.1,19 5,15.9 5,12C 5,8.1 8.1,5 12,5C 15.9,5 19,8.1 19,12C 19,15.9 15.9,19 12,19 Z M 20.5,20.5C 22.7,18.3 24,15.3 24,12C 24,8.7 22.7,5.7 20.5,3.5L 19.4,4.6C 21.3,6.5 22.5,9.1 22.5,12C 22.5,14.9 21.3,17.5 19.4,19.4L 20.5,20.5M 4.6,19.4C 2.7,17.5 1.5,14.9 1.5,12C 1.5,9.1 2.7,6.5 4.6,4.6L 3.5,3.5C 1.3,5.7 1.27157e-006,8.7 1.27157e-006,12C 1.27157e-006,15.3 1.3,18.3 3.5,20.5L 4.6,19.4 Z M 9,7L 9,17L 11,17L 11,13L 13,13L 13,17L 15,17L 15,7L 13,7L 13,11L 11,11L 11,7L 9,7 Z "/>
</svg>
