<?xml version="1.0" encoding="utf-8"?>
<!DOCTYPE svg PUBLIC "-//W3C//DTD SVG 1.1//EN" "http://www.w3.org/Graphics/SVG/1.1/DTD/svg11.dtd">
<svg xmlns="http://www.w3.org/2000/svg" xmlns:xlink="http://www.w3.org/1999/xlink" version="1.1" baseProfile="full" width="24" height="24" viewBox="0 0 24.00 24.00" enable-background="new 0 0 24.00 24.00" xml:space="preserve">
	<path fill="#000000" fill-opacity="1" stroke-width="1.33333" stroke-linejoin="miter" d="M 7.3,9.2C 8.1,9.6 9,10.5 9,12C 9,13.5 8.1,14.4 7.3,14.8C 6.9,13.4 6.9,10.6 7.3,9.2M 6.5,7C 4.5,7 4.5,17 6.5,17C 8.5,17 11,15.1 11,12C 11,8.9 8.5,7 6.5,7 Z M 16.7,9.2C 17,10.6 17,13.4 16.7,14.8C 15.9,14.4 15,13.5 15,12C 15,10.5 15.9,9.6 16.7,9.2M 17.5,7C 15.5,7 13,8.9 13,12C 13,15.1 15.5,17 17.5,17C 19.5,17 19.5,7 17.5,7 Z M 4.9,6.2L 2.5,4.6L 1.4,6.3L 4,8C 4.2,7.3 4.5,6.6 4.9,6.2 Z M 20,8L 22.6,6.3L 21.5,4.6L 19.1,6.2C 19.4,6.6 19.8,7.2 20,8 Z M 4,16L 1.4,17.7L 2.5,19.4L 4.9,17.8C 4.6,17.4 4.2,16.8 4,16 Z M 20.5,11C 20.5,11.3 20.5,11.7 20.5,12C 20.5,12.3 20.5,12.6 20.5,13L 24,13L 24,11L 20.5,11 Z M 19.1,17.8L 21.5,19.4L 22.6,17.7L 20,16C 19.8,16.7 19.5,17.4 19.1,17.8 Z M 3.5,12C 3.5,11.7 3.5,11.4 3.5,11L 1.27157e-006,11L 1.27157e-006,13L 3.5,13C 3.5,12.7 3.5,12.3 3.5,12 Z "/>
</svg>
