<?xml version="1.0" encoding="utf-8"?>
<!DOCTYPE svg PUBLIC "-//W3C//DTD SVG 1.1//EN" "http://www.w3.org/Graphics/SVG/1.1/DTD/svg11.dtd">
<svg xmlns="http://www.w3.org/2000/svg" xmlns:xlink="http://www.w3.org/1999/xlink" version="1.1" baseProfile="full" width="24" height="24" viewBox="0 0 24.00 24.00" enable-background="new 0 0 24.00 24.00" xml:space="preserve">
	<path fill="#000000" fill-opacity="1" stroke-width="0.2" stroke-linejoin="round" d="M 4.9994,12.9981L 6.4994,8.49807L 17.4994,8.49807L 18.9994,12.9981M 17.4994,17.9981C 16.6714,17.9981 15.9994,17.3261 15.9994,16.4981C 15.9994,15.6701 16.6714,14.9981 17.4994,14.9981C 18.3284,14.9981 18.9994,15.6701 18.9994,16.4981C 18.9994,17.3261 18.3284,17.9981 17.4994,17.9981 Z M 6.4994,17.9981C 5.6714,17.9981 4.9994,17.3261 4.9994,16.4981C 4.9994,15.6701 5.6714,14.9981 6.4994,14.9981C 7.3284,14.9981 7.9994,15.6701 7.9994,16.4981C 7.9994,17.3261 7.3284,17.9981 6.4994,17.9981 Z M 18.9184,8.00907C 18.7154,7.42006 18.1564,6.99807 17.4994,6.99807L 6.4994,6.99807C 5.8424,6.99807 5.2844,7.42006 5.0814,8.00907L 2.9994,13.9981L 2.9994,21.9981C 2.9994,22.5501 3.4474,22.9981 3.9994,22.9981L 4.9994,22.9981C 5.5524,22.9981 5.9994,22.5501 5.9994,21.9981L 5.9994,20.9981L 17.9994,20.9981L 17.9994,21.9981C 17.9994,22.5501 18.4474,22.9981 18.9994,22.9981L 19.9994,22.9981C 20.5524,22.9981 20.9994,22.5501 20.9994,21.9981L 20.9994,13.9981M 6.9994,4.99807C 7.8284,4.99807 8.4994,4.32706 8.4994,3.49807C 8.4994,2.49807 6.9994,0.798071 6.9994,0.798071C 6.9994,0.798071 5.4994,2.49807 5.4994,3.49807C 5.4994,4.32706 6.1704,4.99807 6.9994,4.99807 Z M 11.9994,4.99807C 12.8284,4.99807 13.4994,4.32706 13.4994,3.49807C 13.4994,2.49807 11.9994,0.798071 11.9994,0.798071C 11.9994,0.798071 10.4994,2.49807 10.4994,3.49807C 10.4994,4.32706 11.1704,4.99807 11.9994,4.99807 Z M 16.9994,4.99807C 17.8284,4.99807 18.4994,4.32706 18.4994,3.49807C 18.4994,2.49807 16.9994,0.798071 16.9994,0.798071C 16.9994,0.798071 15.4994,2.49807 15.4994,3.49807C 15.4994,4.32706 16.1704,4.99807 16.9994,4.99807 Z "/>
</svg>
