<?xml version="1.0" encoding="utf-8"?>
<!DOCTYPE svg PUBLIC "-//W3C//DTD SVG 1.1//EN" "http://www.w3.org/Graphics/SVG/1.1/DTD/svg11.dtd">
<svg xmlns="http://www.w3.org/2000/svg" xmlns:xlink="http://www.w3.org/1999/xlink" version="1.1" baseProfile="full" width="24" height="24" viewBox="0 0 24.00 24.00" enable-background="new 0 0 24.00 24.00" xml:space="preserve">
	<path fill="#000000" fill-opacity="1" stroke-width="1.33333" stroke-linejoin="miter" d="M 20.5,19.85L 6.41,5.76L 2.41,1.76L 1.11,3L 4.57,6.46L 3,11L 3,19C 3,19.5523 3.44772,20 4,20L 5,20C 5.55228,20 6,19.5523 6,19L 6,18L 16.11,18L 20.84,22.73L 22.11,21.46L 20.5,19.85 Z M 6.5,15C 5.67157,15 5,14.3284 5,13.5C 5,12.6716 5.67157,12 6.5,12C 7.32843,12 8,12.6716 8,13.5C 8,14.3284 7.32843,15 6.5,15 Z M 5,10L 5.78,7.67L 8.11,10L 5,10 Z M 17.5,5.5L 19,10L 13.2,10L 16.12,12.92C 16.477,12.1725 17.3725,11.8559 18.12,12.2129C 18.8675,12.5699 19.1841,13.4653 18.8271,14.2129C 18.6792,14.5225 18.4296,14.7721 18.12,14.92L 21,17.8L 21,11L 18.92,5C 18.7074,4.3987 18.1378,3.9975 17.5,4L 7.2,4L 8.7,5.5L 17.5,5.5 Z "/>
</svg>
