<?xml version="1.0" encoding="utf-8"?>
<!DOCTYPE svg PUBLIC "-//W3C//DTD SVG 1.1//EN" "http://www.w3.org/Graphics/SVG/1.1/DTD/svg11.dtd">
<svg xmlns="http://www.w3.org/2000/svg" xmlns:xlink="http://www.w3.org/1999/xlink" version="1.1" baseProfile="full" width="24" height="24" viewBox="0 0 24.00 24.00" enable-background="new 0 0 24.00 24.00" xml:space="preserve">
	<path fill="#000000" fill-opacity="1" stroke-width="1.33333" stroke-linejoin="miter" d="M 11,15L 13,15L 13,17L 11,17L 11,15M 11,7L 13,7L 13,13L 11,13L 11,7M 12,3C 7.029,3 3,7.029 3,12C 3,16.971 7.029,21 12,21C 16.971,21 21,16.971 21,12C 21,7.029 16.971,3 12,3 Z M 12,19C 8.14,19 5,15.86 5,12C 5,8.14 8.14,5 12,5C 15.86,5 19,8.14 19,12C 19,15.86 15.86,19 12,19 Z M 20.485,20.485C 22.657,18.314 24,15.314 24,12C 24,8.686 22.657,5.686 20.485,3.515L 19.421,4.579C 21.322,6.48 22.5,9.105 22.5,12C 22.5,14.895 21.322,17.52 19.421,19.421L 20.485,20.485 Z M 4.579,19.421C 2.678,17.52 1.5,14.895 1.5,12C 1.5,9.105 2.678,6.48 4.579,4.579L 3.515,3.515C 1.343,5.686 1.27157e-006,8.686 1.27157e-006,12C 1.27157e-006,15.314 1.343,18.314 3.515,20.485L 4.579,19.421 Z "/>
</svg>
