<?xml version="1.0" encoding="utf-8"?>
<!DOCTYPE svg PUBLIC "-//W3C//DTD SVG 1.1//EN" "http://www.w3.org/Graphics/SVG/1.1/DTD/svg11.dtd">
<svg xmlns="http://www.w3.org/2000/svg" xmlns:xlink="http://www.w3.org/1999/xlink" version="1.1" baseProfile="full" width="24" height="24" viewBox="0 0 24.00 24.00" enable-background="new 0 0 24.00 24.00" xml:space="preserve">
	<path fill="#000000" fill-opacity="1" stroke-width="1.33333" stroke-linejoin="miter" d="M 9.5,0C 7.84315,0 6.5,1.3431 6.5,3C 6.5,4.6569 7.84315,6 9.5,6C 10.81,6 11.9201,5.17 12.3301,4L 14.5,4L 14.5,6L 16.5,6L 16.5,4L 17.5,4L 17.5,2L 12.3301,2C 11.9201,0.83 10.81,0 9.5,0 Z M 9.5,2C 10.0523,2 10.5,2.4477 10.5,3C 10.5,3.5523 10.0523,4 9.5,4C 8.94771,4 8.5,3.5523 8.5,3C 8.5,2.4477 8.94771,2 9.5,2 Z M 6.5,8C 5.84,8 5.28008,8.42 5.08008,9L 3,15L 3,23C 3,23.5523 3.44772,24 4,24L 5,24C 5.55228,24 6,23.5523 6,23L 6,22L 18,22L 18,23C 18,23.5523 18.4477,24 19,24L 20,24C 20.5523,24 21,23.5523 21,23L 21,15L 18.9199,9C 18.7199,8.42 18.16,8 17.5,8L 6.5,8 Z M 6.5,9.5L 17.5,9.5L 19,14L 5,14L 6.5,9.5 Z M 6.5,16C 7.32843,16 8,16.6716 8,17.5C 8,18.3284 7.32843,19 6.5,19C 5.67157,19 5,18.3284 5,17.5C 5,16.6716 5.67157,16 6.5,16 Z M 17.5,16C 18.3284,16 19,16.6716 19,17.5C 19,18.3284 18.3284,19 17.5,19C 16.6716,19 16,18.3284 16,17.5C 16,16.6716 16.6716,16 17.5,16 Z "/>
</svg>
