<?xml version="1.0" encoding="utf-8"?>
<!DOCTYPE svg PUBLIC "-//W3C//DTD SVG 1.1//EN" "http://www.w3.org/Graphics/SVG/1.1/DTD/svg11.dtd">
<svg xmlns="http://www.w3.org/2000/svg" xmlns:xlink="http://www.w3.org/1999/xlink" version="1.1" baseProfile="full" width="24" height="24" viewBox="0 0 24.00 24.00" enable-background="new 0 0 24.00 24.00" xml:space="preserve">
	<g>
		<path fill="#000000" fill-opacity="1" stroke-width="1.33333" stroke-linejoin="miter" d="M 8,11L 9.5,6.5L 18.5,6.5L 20,11M 18.5,16C 17.6716,16 17,15.3284 17,14.5C 17,13.6716 17.6716,13 18.5,13C 19.3284,13 20,13.6716 20,14.5C 20,15.3284 19.3284,16 18.5,16 Z M 9.5,16C 8.67157,16 8,15.3284 8,14.5C 8,13.6716 8.67157,13 9.5,13C 10.3284,13 11,13.6716 11,14.5C 11,15.3284 10.3284,16 9.5,16 Z M 19.92,6C 19.71,5.3967 19.1388,4.9945 18.5,5L 9.5,5C 8.86125,4.9945 8.29004,5.3967 8.08,6L 6,12L 6,20C 6,20.5523 6.44772,21 7,21L 8,21C 8.55229,21 9,20.5523 9,20L 9,19L 19,19L 19,20C 19,20.5523 19.4477,21 20,21L 21,21C 21.5523,21 22,20.5523 22,20L 22,12L 19.92,6 Z M 14.92,3C 14.71,2.3967 14.1388,1.9945 13.5,2L 4.5,2C 3.86125,1.9945 3.29004,2.3967 3.08,3L 1,9L 1,17C 1,17.5523 1.44772,18 2,18L 3,18C 3.55228,18 4,17.5523 4,17L 4,12.91C 3.22125,12.6274 2.81902,11.7671 3.10159,10.9883C 3.31542,10.399 3.87314,10.0049 4.5,10L 4.57,10L 5.27,8L 3,8L 4.5,3.5L 15.09,3.5L 14.92,3 Z "/>
	</g>
</svg>
