<?xml version="1.0" encoding="utf-8"?>
<!DOCTYPE svg PUBLIC "-//W3C//DTD SVG 1.1//EN" "http://www.w3.org/Graphics/SVG/1.1/DTD/svg11.dtd">
<svg xmlns="http://www.w3.org/2000/svg" xmlns:xlink="http://www.w3.org/1999/xlink" version="1.1" baseProfile="full" width="24" height="24" viewBox="0 0 24.00 24.00" enable-background="new 0 0 24.00 24.00" xml:space="preserve">
	<path fill="#000000" fill-opacity="1" stroke-width="0.2" stroke-linejoin="round" d="M 5,13.9987L 18.9988,13.9987L 17.5,9.4975L 6.49875,9.4975L 5,13.9987 Z M 17.5,18.9988C 18.33,18.9988 18.9987,18.325 18.9987,17.5C 18.9987,16.67 18.33,15.9963 17.5,15.9963C 16.67,15.9963 16.0012,16.67 16.0012,17.5C 16.0012,18.325 16.67,18.9988 17.5,18.9988 Z M 6.49875,18.9988C 7.32875,18.9988 7.9975,18.325 7.9975,17.5C 7.9975,16.67 7.32875,15.9963 6.49875,15.9963C 5.67375,15.9963 5,16.67 5,17.5C 5,18.325 5.67375,18.9988 6.49875,18.9988 Z M 18.9163,9.00875L 21.0012,15L 21.0012,22.9975C 21.0012,23.55 20.5518,23.9988 20,23.9988L 18.9987,23.9988C 18.4475,23.9988 17.9975,23.55 17.9975,22.9975L 17.9975,21.9975L 6.00125,21.9975L 6.00125,22.9975C 6.00125,23.55 5.55125,23.9988 5,23.9988L 3.99875,23.9988C 3.4475,23.9988 2.9975,23.55 2.9975,22.9975L 2.9975,15L 5.0825,9.00875C 5.28374,8.4175 5.845,7.9975 6.49875,7.9975L 17.5,7.9975C 18.1538,7.9975 18.7162,8.4175 18.9163,9.00875 Z M 12.0025,0.0205097C 14.1162,0.0205097 16.1475,0.858751 17.6462,2.35375L 16.23,3.77051C 15.1075,2.65125 13.5837,2.02124 12.0025,2.01636C 10.415,2.01636 8.89125,2.64624 7.76875,3.77051L 6.3575,2.35375C 7.85125,0.858751 9.8825,0.0205097 12.0025,0.0205097 Z M 12.0025,4.01875C 13.0562,4.01875 14.0675,4.43875 14.8187,5.18125L 13.4037,6.59625C 13.0325,6.225 12.525,6.02 12.0025,6.015C 11.475,6.02 10.9712,6.225 10.5962,6.59625L 9.18,5.18125C 9.93125,4.43875 10.9425,4.01875 12.0025,4.01875 Z "/>
</svg>
