<?xml version="1.0" encoding="utf-8"?>
<!DOCTYPE svg PUBLIC "-//W3C//DTD SVG 1.1//EN" "http://www.w3.org/Graphics/SVG/1.1/DTD/svg11.dtd">
<svg xmlns="http://www.w3.org/2000/svg" xmlns:xlink="http://www.w3.org/1999/xlink" version="1.1" baseProfile="full" width="24" height="24" viewBox="0 0 24.00 24.00" enable-background="new 0 0 24.00 24.00" xml:space="preserve">
	<path fill="#000000" fill-opacity="1" stroke-width="1.33333" stroke-linejoin="miter" d="M 4,3L 4,6L 1,6L 1,20L 23,20L 23,6L 20,6L 20,3L 14,3L 14,6L 10,6L 10,3L 4,3 Z M 3,8L 21,8L 21,18L 3,18L 3,8 Z M 15,10L 15,12L 13,12L 13,14L 15,14L 15,16L 17,16L 17,14L 19,14L 19,12L 17,12L 17,10L 15,10 Z M 5,12L 5,14L 11,14L 11,12L 5,12 Z "/>
</svg>
