<?xml version="1.0" encoding="utf-8"?>
<!DOCTYPE svg PUBLIC "-//W3C//DTD SVG 1.1//EN" "http://www.w3.org/Graphics/SVG/1.1/DTD/svg11.dtd">
<svg xmlns="http://www.w3.org/2000/svg" xmlns:xlink="http://www.w3.org/1999/xlink" version="1.1" baseProfile="full" width="24" height="24" viewBox="0 0 24.00 24.00" enable-background="new 0 0 24.00 24.00" xml:space="preserve">
	<path fill="#000000" fill-opacity="1" stroke-width="1.33333" stroke-linejoin="miter" d="M 18.919,5.01078C 18.7158,4.4224 18.1572,4.00004 17.5,4.00004L 6.50002,4.00004C 5.84328,4.00004 5.28517,4.4224 5.08205,5.01078L 3.00002,11L 3.00002,19C 3.00002,19.5523 3.44826,20 4.00002,20L 5.00002,20C 5.55275,20 6.00002,19.5523 6.00002,19L 6.00002,18L 18,18L 18,19C 18,19.5523 18.4483,20 19,20L 20,20C 20.5528,20 21,19.5523 21,19L 21,11L 18.919,5.01078 Z M 6.50002,15C 5.67226,15 5.00002,14.3283 5.00002,13.5C 5.00002,12.6718 5.67226,12 6.50002,12C 7.32912,12 8.00002,12.6718 8.00002,13.5C 8.00002,14.3283 7.32912,15 6.50002,15 Z M 17.5,15C 16.6723,15 16,14.3283 16,13.5C 16,12.6718 16.6723,12 17.5,12C 18.3291,12 19,12.6718 19,13.5C 19,14.3283 18.3291,15 17.5,15 Z M 5.00002,10L 6.50002,5.50004L 17.5,5.50004L 19,10L 5.00002,10 Z "/>
</svg>
