<?xml version="1.0" encoding="utf-8"?>
<!DOCTYPE svg PUBLIC "-//W3C//DTD SVG 1.1//EN" "http://www.w3.org/Graphics/SVG/1.1/DTD/svg11.dtd">
<svg xmlns="http://www.w3.org/2000/svg" xmlns:xlink="http://www.w3.org/1999/xlink" version="1.1" baseProfile="full" width="24" height="24" viewBox="0 0 24.00 24.00" enable-background="new 0 0 24.00 24.00" xml:space="preserve">
	<path fill="#000000" fill-opacity="1" stroke-width="1.33333" stroke-linejoin="miter" d="M 4,4C 2.89543,4 2,4.8954 2,6L 2,17L 4,17C 4,18.6568 5.34315,20 7,20C 8.65685,20 10,18.6568 10,17L 22,17L 22,15L 19,15L 19,6C 19,4.8954 18.1046,4 17,4L 4,4 Z M 5,9L 9,9L 9,12L 5,12L 5,9 Z M 12,9L 16,9L 16,15L 12,15L 12,9 Z M 7,16C 7.55228,16 8,16.4477 8,17C 8,17.5523 7.55228,18 7,18C 6.44772,18 6,17.5523 6,17C 6,16.4477 6.44772,16 7,16 Z "/>
</svg>
