<?xml version="1.0" encoding="utf-8"?>
<!DOCTYPE svg PUBLIC "-//W3C//DTD SVG 1.1//EN" "http://www.w3.org/Graphics/SVG/1.1/DTD/svg11.dtd">
<svg xmlns="http://www.w3.org/2000/svg" xmlns:xlink="http://www.w3.org/1999/xlink" version="1.1" baseProfile="full" width="24" height="24" viewBox="0 0 24.00 24.00" enable-background="new 0 0 24.00 24.00" xml:space="preserve">
	<path fill="#000000" fill-opacity="1" stroke-width="1.33333" stroke-linejoin="miter" d="M 5,7C 3.9,7 3,7.9 3,9L 3,15C 3,16.1 3.9,17 5,17L 7,17C 7,18.66 8.34,20 10,20C 11.66,20 13,18.66 13,17L 21,17L 21,15L 19,15L 19,9C 19,7.9 18.1,7 17,7L 5,7 Z M 5,9L 10,9L 10,12L 5,12L 5,9 Z M 13,9L 17,9L 17,12L 13,12L 13,9 Z M 10,16C 10.55,16 11,16.45 11,17C 11,17.55 10.55,18 10,18C 9.45,18 9,17.55 9,17C 9,16.45 9.45,16 10,16 Z "/>
</svg>
