<?xml version="1.0" encoding="utf-8"?>
<!DOCTYPE svg PUBLIC "-//W3C//DTD SVG 1.1//EN" "http://www.w3.org/Graphics/SVG/1.1/DTD/svg11.dtd">
<svg xmlns="http://www.w3.org/2000/svg" xmlns:xlink="http://www.w3.org/1999/xlink" version="1.1" baseProfile="full" width="24" height="24" viewBox="0 0 24.00 24.00" enable-background="new 0 0 24.00 24.00" xml:space="preserve">
	<path fill="#000000" fill-opacity="1" stroke-width="0.2" stroke-linejoin="round" d="M 21.47,4.35L 20.1275,3.79375L 20.1275,12.8225L 22.5588,6.9625C 22.9688,5.9425 22.48,4.77 21.47,4.35 Z M 1.9675,8.05125L 6.92875,20.025C 7.23625,20.7712 7.96875,21.235 8.74,21.255C 8.99875,21.255 9.2675,21.2112 9.52625,21.1037L 16.9,18.0512C 17.6462,17.7438 18.11,17.0212 18.13,16.255C 18.14,15.9812 18.0912,15.7125 17.9788,15.4538L 13.0175,3.48125C 12.71,2.725 11.9675,2.26125 11.1862,2.25073C 10.9275,2.25073 10.6688,2.305 10.42,2.4021L 3.05625,5.45375C 2.04125,5.87375 1.5475,7.04125 1.9675,8.05125 Z M 18.12,4.2525C 18.12,3.15405 17.2163,2.25073 16.1187,2.25073L 14.6675,2.25073L 18.12,10.5913"/>
</svg>
