<?xml version="1.0" encoding="utf-8"?>
<!DOCTYPE svg PUBLIC "-//W3C//DTD SVG 1.1//EN" "http://www.w3.org/Graphics/SVG/1.1/DTD/svg11.dtd">
<svg xmlns="http://www.w3.org/2000/svg" xmlns:xlink="http://www.w3.org/1999/xlink" version="1.1" baseProfile="full" width="24" height="24" viewBox="0 0 24.00 24.00" enable-background="new 0 0 24.00 24.00" xml:space="preserve">
	<path fill="#000000" fill-opacity="1" stroke-linejoin="round" d="M 5,2L 19,2C 19.5523,2 20,2.44772 20,3L 20,13C 20,13.5523 19.5523,14 19,14L 5,14C 4.44771,14 4,13.5523 4,13L 4,3C 4,2.44772 4.44771,2 5,2 Z M 6,4.00001L 6,12L 18,12L 18,4.00001L 6,4.00001 Z M 20,17C 20,17.5523 19.5523,18 19,18L 5,18C 4.44771,18 4,17.5523 4,17L 4,16L 20,16L 20,17 Z M 20,21C 20,21.5523 19.5523,22 19,22L 5,22C 4.44771,22 4,21.5523 4,21L 4,20L 20,20L 20,21 Z "/>
</svg>
