<?xml version="1.0" encoding="utf-8"?>
<!DOCTYPE svg PUBLIC "-//W3C//DTD SVG 1.1//EN" "http://www.w3.org/Graphics/SVG/1.1/DTD/svg11.dtd">
<svg xmlns="http://www.w3.org/2000/svg" xmlns:xlink="http://www.w3.org/1999/xlink" version="1.1" baseProfile="full" width="24" height="24" viewBox="0 0 24.00 24.00" enable-background="new 0 0 24.00 24.00" xml:space="preserve">
	<path fill="#000000" fill-opacity="1" stroke-width="1.33333" stroke-linejoin="miter" d="M 9,22L 9,24L 7,24L 7,22L 9,22 Z M 13,22L 13,24L 11,24L 11,22L 13,22 Z M 17,22L 17,24L 15,24L 15,22L 17,22 Z M 20,20L 4,20C 2.896,20 2,19.104 2,18L 2,6C 2,4.896 2.896,4 4,4L 20,4C 21.104,4 22,4.896 22,6L 22,18C 22,19.104 21.104,20 20,20 Z M 11,13L 9,13L 9,15L 11,15L 11,13 Z M 19,13L 13,13L 13,15L 19,15L 19,13 Z M 7,9L 5,9L 5,11L 7,11L 7,9 Z M 19,9L 9,9L 9,11L 19,11L 19,9 Z "/>
</svg>
