<?xml version="1.0" encoding="utf-8"?>
<!DOCTYPE svg PUBLIC "-//W3C//DTD SVG 1.1//EN" "http://www.w3.org/Graphics/SVG/1.1/DTD/svg11.dtd">
<svg xmlns="http://www.w3.org/2000/svg" xmlns:xlink="http://www.w3.org/1999/xlink" version="1.1" baseProfile="full" width="24" height="24" viewBox="0 0 24.00 24.00" enable-background="new 0 0 24.00 24.00" xml:space="preserve">
	<path fill="#000000" fill-opacity="1" stroke-width="1.33333" stroke-linejoin="miter" d="M 12,2C 14.3,2 16.3,4 16.3,6.2C 16.2081,8.77425 14.3411,9.82705 14.0407,9.98008C 15.0401,9.5 16.5,9.5 16.5,9.5C 19,9.5 21,11.3 21,13.8C 21,16.3 19,18 16.5,18C 16.5,18 15,18 13,17C 13,17 12.7,19 15,22L 9,22C 11.3,19 11,17 11,17C 9,18 7.5,18 7.5,18C 5,18 3,16.3 3,13.8C 3,11.3 5,9.5 7.5,9.5C 7.5,9.5 8.95989,9.5 9.95935,9.98008C 9.65889,9.82704 7.79193,8.77424 7.7,6.2C 7.7,4 9.7,2 12,2 Z "/>
</svg>
