<?xml version="1.0" encoding="utf-8"?>
<!DOCTYPE svg PUBLIC "-//W3C//DTD SVG 1.1//EN" "http://www.w3.org/Graphics/SVG/1.1/DTD/svg11.dtd">
<svg xmlns="http://www.w3.org/2000/svg" xmlns:xlink="http://www.w3.org/1999/xlink" version="1.1" baseProfile="full" width="24" height="24" viewBox="0 0 24.00 24.00" enable-background="new 0 0 24.00 24.00" xml:space="preserve">
	<path fill="#000000" fill-opacity="1" fill-rule="evenodd" stroke-width="0.2" stroke-linejoin="round" d="M 11.1913,2.25073C 11.9675,2.26125 12.71,2.725 13.0175,3.48125L 17.9788,15.4538C 18.0912,15.7125 18.14,15.9812 18.13,16.25C 18.11,17.0212 17.6462,17.7438 16.9,18.0512L 9.53125,21.1037C 9.2675,21.2163 8.99875,21.25 8.74,21.25C 7.96875,21.23 7.24125,20.7712 6.92875,20.025L 1.9675,8.05125C 1.5475,7.04125 2.04125,5.87375 3.05625,5.45375L 10.42,2.4021C 10.6688,2.305 10.9275,2.25073 11.1913,2.25073 Z M 14.6675,2.25073L 16.1187,2.25073C 17.2163,2.25073 18.12,3.15405 18.12,4.2525L 18.12,10.5963L 14.6675,2.25073 Z M 20.1275,3.79375L 21.47,4.355C 22.48,4.77501 22.9687,5.9425 22.5587,6.96251L 20.1275,12.8225L 20.1275,3.79375 Z M 11.1913,4.22375L 3.79875,7.285L 8.77499,19.2962L 16.1675,16.235L 11.1913,4.22375 Z M 8.6475,8.54L 11.875,10.9525L 11.435,14.9563L 8.2075,12.5438L 8.6475,8.54 Z "/>
</svg>
