<?xml version="1.0" encoding="utf-8"?>
<!DOCTYPE svg PUBLIC "-//W3C//DTD SVG 1.1//EN" "http://www.w3.org/Graphics/SVG/1.1/DTD/svg11.dtd">
<svg xmlns="http://www.w3.org/2000/svg" xmlns:xlink="http://www.w3.org/1999/xlink" version="1.1" baseProfile="full" width="24" height="24" viewBox="0 0 24.00 24.00" enable-background="new 0 0 24.00 24.00" xml:space="preserve">
	<path fill="#000000" fill-opacity="1" stroke-linejoin="round" d="M 16,10L 15.8,11L 13.5,11C 13.2239,11 13,11.2239 13,11.5C 13,11.7761 13.2239,12 13.5,12L 15.6,12L 14.6,17L 12.5,17C 12.2239,17 12,17.2239 12,17.5C 12,17.7761 12.2239,18 12.5,18L 14.4,18L 14,20C 14,21.1046 13.1046,22 12,22C 10.8954,22 10,21.1046 10,20L 9,15L 10.5,15C 10.7761,15 11,14.7761 11,14.5C 11,14.2239 10.7761,14 10.5,14L 8.8,14L 8,10C 8,8.80286 8.93494,7.7695 10.2871,7.28822L 8.89977,5.27691C 8.5862,4.82228 8.70054,4.19953 9.15517,3.88595C 9.6098,3.57237 10.2325,3.68672 10.5461,4.14134L 11,4.79938L 11,3C 11,2.44772 11.4477,2 12,2C 12.5523,2 13,2.44772 13,3L 13,5.28444L 14.4773,3.54192C 14.8344,3.12065 15.4654,3.06866 15.8867,3.4258C 16.308,3.78294 16.3599,4.41397 16.0028,4.83524L 13.8723,7.34827C 15.138,7.852 16,8.8505 16,10 Z "/>
</svg>
