<?xml version="1.0" encoding="utf-8"?>
<!DOCTYPE svg PUBLIC "-//W3C//DTD SVG 1.1//EN" "http://www.w3.org/Graphics/SVG/1.1/DTD/svg11.dtd">
<svg xmlns="http://www.w3.org/2000/svg" xmlns:xlink="http://www.w3.org/1999/xlink" version="1.1" baseProfile="full" width="24" height="24" viewBox="0 0 24.00 24.00" enable-background="new 0 0 24.00 24.00" xml:space="preserve">
	<path fill="#000000" fill-opacity="1" stroke-width="0.2" stroke-linejoin="round" d="M 1.00008,2L 4.15476,2L 5.88681,5.00002L 20.9999,5.00002L 16.9999,13L 8.15473,13L 7.00003,15L 18.9999,15L 18.9999,17L 6.99996,17C 5.89536,17 4.99996,16.1046 4.99996,15C 4.99996,14.6227 5.10446,14.2698 5.28606,13.9686L 7.02077,10.964L 3.00008,4.00001L 1.00008,4.00001L 1.00008,2 Z M 17.2501,18C 18.3547,18 19.2501,18.8954 19.2501,20C 19.2501,21.1046 18.3547,22 17.2501,22C 16.1456,22 15.2501,21.1046 15.2501,20C 15.2501,18.8954 16.1456,18 17.2501,18 Z M 7.25018,18C 8.35476,18 9.25018,18.8954 9.25018,20C 9.25018,21.1046 8.35476,22 7.25018,22C 6.14561,22 5.25018,21.1046 5.25018,20C 5.25018,18.8954 6.14561,18 7.25018,18 Z "/>
</svg>
