<?xml version="1.0" encoding="utf-8"?>
<!DOCTYPE svg PUBLIC "-//W3C//DTD SVG 1.1//EN" "http://www.w3.org/Graphics/SVG/1.1/DTD/svg11.dtd">
<svg xmlns="http://www.w3.org/2000/svg" xmlns:xlink="http://www.w3.org/1999/xlink" version="1.1" baseProfile="full" width="24" height="24" viewBox="0 0 24.00 24.00" enable-background="new 0 0 24.00 24.00" xml:space="preserve">
	<path fill="#000000" fill-opacity="1" stroke-width="1.33333" stroke-linejoin="miter" d="M 22.73,22.73L 1.27,1.27L 1.27157e-006,2.54L 4.39,6.93L 6.6,11.59L 5.25,14.04C 5.09,14.32 5,14.65 5,15C 5,16.1 5.9,17 7,17L 14.46,17L 15.84,18.38C 15.34,18.74 15.01,19.33 15.01,20C 15.01,21.1 15.9,22 17,22C 17.67,22 18.26,21.67 18.62,21.16L 21.46,24L 22.73,22.73 Z M 7.42,15C 7.28,15 7.17,14.89 7.17,14.75L 7.2,14.63L 8.1,13L 10.46,13L 12.46,15L 7.42,15 Z M 15.55,13C 16.3,13 16.96,12.59 17.3,11.97L 20.88,5.48C 20.96,5.34 21,5.17 21,5C 21,4.45 20.55,4 20,4L 6.54,4L 15.55,13 Z M 7,18C 5.9,18 5.01,18.9 5.01,20C 5.01,21.1 5.9,22 7,22C 8.1,22 9,21.1 9,20C 9,18.9 8.1,18 7,18 Z "/>
</svg>
