<?xml version="1.0" encoding="utf-8"?>
<!DOCTYPE svg PUBLIC "-//W3C//DTD SVG 1.1//EN" "http://www.w3.org/Graphics/SVG/1.1/DTD/svg11.dtd">
<svg xmlns="http://www.w3.org/2000/svg" xmlns:xlink="http://www.w3.org/1999/xlink" version="1.1" baseProfile="full" width="24" height="24" viewBox="0 0 24.00 24.00" enable-background="new 0 0 24.00 24.00" xml:space="preserve">
	<path fill="#000000" fill-opacity="1" stroke-width="0.2" stroke-linejoin="round" d="M 14.1213,8.53325L 12.0018,6.41369L 9.8778,8.53766L 8.46182,7.12168L 10.5858,4.99771L 8.46587,2.87779L 9.87743,1.46623L 11.9973,3.58615L 14.1213,1.46218L 15.5373,2.87816L 13.4133,5.00213L 15.5329,7.12168L 14.1213,8.53325 Z M 7.00249,17.9975C 8.1,17.9975 8.99874,18.9012 8.99874,20C 8.99874,21.0988 8.1,22.0025 7.00249,22.0025C 5.89875,22.0025 5.01,21.0988 5.01,20C 5.01,18.9012 5.89875,17.9975 7.00249,17.9975 Z M 17.0025,17.9975C 18.1,17.9975 18.9987,18.9012 18.9987,20C 18.9987,21.0988 18.1,22.0025 17.0025,22.0025C 15.8988,22.0025 15.01,21.0988 15.01,20C 15.01,18.9012 15.8988,17.9975 17.0025,17.9975 Z M 7.1675,14.7512C 7.1675,14.8875 7.29,15 7.4225,15L 18.9987,15L 18.9987,17.0025L 7.0025,17.0025C 5.89875,17.0025 5,16.0988 5,15C 5,14.6487 5.0875,14.3212 5.24875,14.0375L 6.60125,11.5912L 2.9975,3.99875L 1.00125,3.99875L 1.00125,2.0025L 4.2675,2.0025L 5.21,3.99875L 6.1625,6.00125L 8.39875,10.7325L 8.53,11.0012L 15.5513,11.0012L 18.31,6.00125L 19.4087,3.99875L 19.4188,3.99875L 21.1625,4.96125L 17.3,11.9675C 16.9575,12.5875 16.2987,12.9975 15.5513,12.9975L 8.1,12.9975L 7.2025,14.6287L 7.1675,14.7512 Z "/>
</svg>
