<?xml version="1.0" encoding="utf-8"?>
<!DOCTYPE svg PUBLIC "-//W3C//DTD SVG 1.1//EN" "http://www.w3.org/Graphics/SVG/1.1/DTD/svg11.dtd">
<svg xmlns="http://www.w3.org/2000/svg" xmlns:xlink="http://www.w3.org/1999/xlink" version="1.1" baseProfile="full" width="24" height="24" viewBox="0 0 24.00 24.00" enable-background="new 0 0 24.00 24.00" xml:space="preserve">
	<path fill="#000000" fill-opacity="1" stroke-width="1.33333" stroke-linejoin="miter" d="M 9,20C 9,21.1046 8.10457,22 7,22C 5.89543,22 5,21.1046 5,20C 5,18.8954 5.89543,18 7,18C 8.10457,18 9,18.8954 9,20 Z M 17,18C 15.8954,18 15,18.8954 15,20C 15,21.1046 15.8954,22 17,22C 18.1046,22 19,21.1046 19,20C 19,18.8954 18.1046,18 17,18 Z M 7.2,14.63C 7.18833,14.6691 7.18833,14.7108 7.2,14.75C 7.2,14.8881 7.31193,15 7.45,15L 19,15L 19,17L 7,17C 5.89543,17 5,16.1046 5,15C 4.99147,14.6514 5.0742,14.3067 5.24,14L 6.6,11.59L 3,4L 1,4L 1,2L 4.27,2L 5.21,4L 20,4C 20.5523,4 21,4.4477 21,5C 20.9948,5.1731 20.9539,5.3434 20.88,5.5L 17.3,12C 16.9395,12.6244 16.2709,13.0065 15.55,13L 8.1,13L 7.2,14.63 Z M 9,9.5L 13,9.5L 13,11.5L 16,8.5L 13,5.5L 13,7.5L 9,7.5L 9,9.5 Z "/>
</svg>
