<?xml version="1.0" encoding="utf-8"?>
<!DOCTYPE svg PUBLIC "-//W3C//DTD SVG 1.1//EN" "http://www.w3.org/Graphics/SVG/1.1/DTD/svg11.dtd">
<svg xmlns="http://www.w3.org/2000/svg" xmlns:xlink="http://www.w3.org/1999/xlink" version="1.1" baseProfile="full" width="24" height="24" viewBox="0 0 24.00 24.00" enable-background="new 0 0 24.00 24.00" xml:space="preserve">
	<path fill="#000000" fill-opacity="1" stroke-width="1.33333" stroke-linejoin="miter" d="M 3,11L 21,11L 21,23L 3,23L 3,11 Z M 12,15C 13.1046,15 14,15.8954 14,17C 14,18.1046 13.1046,19 12,19C 10.8954,19 10,18.1046 10,17C 10,15.8954 10.8954,15 12,15 Z M 7,13C 7,14.1046 6.10458,15 5,15L 5,19C 6.10458,19 7,19.8954 7,21L 17,21C 17,19.8954 17.8954,19 19,19L 19,15C 17.8954,15 17,14.1046 17,13L 7,13 Z M 17,5L 17,10L 15.5,10L 15.5,6.5L 9.875,6.5L 12.3,8.93L 11.24,10L 7,5.75L 11.24,1.51L 12.3,2.57L 9.875,5L 17,5 Z "/>
</svg>
