<?xml version="1.0" encoding="utf-8"?>
<!DOCTYPE svg PUBLIC "-//W3C//DTD SVG 1.1//EN" "http://www.w3.org/Graphics/SVG/1.1/DTD/svg11.dtd">
<svg xmlns="http://www.w3.org/2000/svg" xmlns:xlink="http://www.w3.org/1999/xlink" version="1.1" baseProfile="full" width="24" height="24" viewBox="0 0 24.00 24.00" enable-background="new 0 0 24.00 24.00" xml:space="preserve">
	<path fill="#000000" fill-opacity="1" fill-rule="evenodd" stroke-width="1.33333" stroke-linejoin="miter" d="M 2,17L 22,17L 22,21L 2,21L 2,17 Z M 6.25,7.00002L 9,7.00001L 9,6.00001L 6,6.00002L 6,3.00002L 14,3.00002L 14,6.00002L 11,6.00001L 11,7.00001L 17.8,7.00002C 18.8,7.00002 19.8,8.00002 20,9L 20.5,16L 3.5,16L 4.05,9.00001C 4.05,8.00002 5.05,7.00002 6.25,7.00002 Z M 13,9.00001L 13,11L 18,11L 18,9.00001L 13,9.00001 Z M 6,9.00001L 6,10L 8,10L 8,9.00001L 6,9.00001 Z M 9,9.00001L 9,10L 11,10L 11,9.00001L 9,9.00001 Z M 6,11L 6,12L 8,12L 8,11L 6,11 Z M 9,11L 9,12L 11,12L 11,11L 9,11 Z M 6,13L 6,14L 8,14L 8,13L 6,13 Z M 9,13L 9,14L 11,14L 11,13L 9,13 Z M 7,4.00002L 7,5.00002L 13,5.00002L 13,4.00002L 7,4.00002 Z "/>
</svg>
