<?xml version="1.0" encoding="utf-8"?>
<!DOCTYPE svg PUBLIC "-//W3C//DTD SVG 1.1//EN" "http://www.w3.org/Graphics/SVG/1.1/DTD/svg11.dtd">
<svg xmlns="http://www.w3.org/2000/svg" xmlns:xlink="http://www.w3.org/1999/xlink" version="1.1" baseProfile="full" width="24" height="24" viewBox="0 0 24.00 24.00" enable-background="new 0 0 24.00 24.00" xml:space="preserve">
	<path fill="#000000" fill-opacity="1" stroke-width="0.2" stroke-linejoin="round" d="M 2,5L 22,5L 22,20L 2,20L 2,5 Z M 20,18L 20,7L 4,7L 4,18L 20,18 Z M 17,8C 17,9.10457 17.8954,10 19,10L 19,15C 17.8954,15 17,15.8954 17,17L 7,17C 7,15.8954 6.10457,15 5,15L 5,10C 6.10457,10 7,9.10457 7,8L 17,8 Z M 17,13L 17,12C 17,10.8954 16.3284,10 15.5,10C 14.6716,10 14,10.8954 14,12L 14,13C 14,14.1046 14.6716,15 15.5,15C 16.3284,15 17,14.1046 17,13 Z M 15.5,11C 15.7761,11 16,11.2239 16,11.5L 16,13.5C 16,13.7761 15.7761,14 15.5,14C 15.2238,14 15,13.7761 15,13.5L 15,11.5C 15,11.2239 15.2238,11 15.5,11 Z M 13,13L 13,12C 13,10.8954 12.3284,10 11.5,10C 10.6716,10 10,10.8954 10,12L 10,13C 10,14.1046 10.6716,15 11.5,15C 12.3284,15 13,14.1046 13,13 Z M 11.5,11C 11.7761,11 12,11.2239 12,11.5L 12,13.5C 12,13.7761 11.7761,14 11.5,14C 11.2238,14 11,13.7761 11,13.5L 11,11.5C 11,11.2239 11.2238,11 11.5,11 Z M 8,15L 9,15L 9,10L 8,10L 7,10.5L 7,11.5L 8,11L 8,15 Z "/>
</svg>
