<?xml version="1.0" encoding="utf-8"?>
<!DOCTYPE svg PUBLIC "-//W3C//DTD SVG 1.1//EN" "http://www.w3.org/Graphics/SVG/1.1/DTD/svg11.dtd">
<svg xmlns="http://www.w3.org/2000/svg" xmlns:xlink="http://www.w3.org/1999/xlink" version="1.1" baseProfile="full" width="24" height="24" viewBox="0 0 24.00 24.00" enable-background="new 0 0 24.00 24.00" xml:space="preserve">
	<path fill="#000000" fill-opacity="1" stroke-width="0.2" stroke-linejoin="round" d="M 19.9994,17.9981L 3.9994,17.9981L 3.9994,5.99807L 19.9994,5.99807M 19.9994,3.99807L 3.9994,3.99807C 2.8934,3.99807 2.00917,4.89307 2.00917,5.99807L 1.9994,17.9981C 1.9994,19.1031 2.8934,19.9981 3.9994,19.9981L 19.9994,19.9981C 21.1044,19.9981 21.9994,19.1031 21.9994,17.9981L 21.9994,5.99807C 21.9994,4.89307 21.1044,3.99807 19.9994,3.99807 Z M 10.9994,16.9981L 12.9994,16.9981L 12.9994,15.9981L 13.9994,15.9981C 14.5514,15.9981 14.9994,15.5501 14.9994,14.9981L 14.9994,11.9981C 14.9994,11.4461 14.5514,10.9981 13.9994,10.9981L 10.9994,10.9981L 10.9994,9.99807L 14.9994,9.99807L 14.9994,7.99807L 12.9994,7.99807L 12.9994,6.99807L 10.9994,6.99807L 10.9994,7.99807L 9.9994,7.99807C 9.4474,7.99807 8.9994,8.44606 8.9994,8.99807L 8.9994,11.9981C 8.9994,12.5501 9.4474,12.9981 9.9994,12.9981L 12.9994,12.9981L 12.9994,13.9981L 8.9994,13.9981L 8.9994,15.9981L 10.9994,15.9981L 10.9994,16.9981 Z "/>
</svg>
