<?xml version="1.0" encoding="utf-8"?>
<!DOCTYPE svg PUBLIC "-//W3C//DTD SVG 1.1//EN" "http://www.w3.org/Graphics/SVG/1.1/DTD/svg11.dtd">
<svg xmlns="http://www.w3.org/2000/svg" xmlns:xlink="http://www.w3.org/1999/xlink" version="1.1" baseProfile="full" width="24" height="24" viewBox="0 0 24.00 24.00" enable-background="new 0 0 24.00 24.00" xml:space="preserve">
	<path fill="#000000" fill-opacity="1" stroke-width="0.2" stroke-linejoin="round" d="M 5,6L 23,6L 23,18L 5,18L 5,6 Z M 14,9.00001C 15.6568,9.00001 17,10.3432 17,12C 17,13.6569 15.6568,15 14,15C 12.3431,15 11,13.6569 11,12C 11,10.3432 12.3431,9.00001 14,9.00001 Z M 9,8C 9,9.10458 8.10457,10 7,10L 7,14C 8.10456,14 8.99999,14.8954 8.99999,16L 19,16C 19,14.8954 19.8954,14 21,14L 21,10C 19.8954,10 19,9.10458 19,8.00001L 9,8 Z M 1,10L 3,10L 3,20L 19,20L 19,22L 1,22L 1,10 Z "/>
</svg>
