<?xml version="1.0" encoding="utf-8"?>
<!DOCTYPE svg PUBLIC "-//W3C//DTD SVG 1.1//EN" "http://www.w3.org/Graphics/SVG/1.1/DTD/svg11.dtd">
<svg xmlns="http://www.w3.org/2000/svg" xmlns:xlink="http://www.w3.org/1999/xlink" version="1.1" baseProfile="full" width="24" height="24" viewBox="0 0 24.00 24.00" enable-background="new 0 0 24.00 24.00" xml:space="preserve">
	<path fill="#000000" fill-opacity="1" stroke-width="1.33333" stroke-linejoin="miter" d="M 4,5C 2.89543,5 2,5.8954 2,7L 2,17C 2,18.1046 2.89543,19 4,19L 6,19L 7,17L 17,17L 18,19L 20,19C 21.1046,19 22,18.1046 22,17L 22,7C 22,5.8954 21.1046,5 20,5L 4,5 Z M 6.5,10C 7.32843,10 8,10.6716 8,11.5C 8,12.3284 7.32843,13 6.5,13C 5.67157,13 5,12.3284 5,11.5C 5,10.6716 5.67157,10 6.5,10 Z M 9,10L 15,10L 15,13L 9,13L 9,10 Z M 17.5,10C 18.3284,10 19,10.6716 19,11.5C 19,12.3284 18.3284,13 17.5,13C 16.6716,13 16,12.3284 16,11.5C 16,10.6716 16.6716,10 17.5,10 Z "/>
</svg>
