<?xml version="1.0" encoding="utf-8"?>
<!DOCTYPE svg PUBLIC "-//W3C//DTD SVG 1.1//EN" "http://www.w3.org/Graphics/SVG/1.1/DTD/svg11.dtd">
<svg xmlns="http://www.w3.org/2000/svg" xmlns:xlink="http://www.w3.org/1999/xlink" version="1.1" baseProfile="full" width="24" height="24" viewBox="0 0 24.00 24.00" enable-background="new 0 0 24.00 24.00" xml:space="preserve">
	<path fill="#000000" fill-opacity="1" stroke-width="0.2" stroke-linejoin="round" d="M 20.9994,2.99807L 2.9994,2.99807C 1.8944,2.99807 0.9994,3.89406 0.9994,4.99807L 0.9994,7.99807L 2.9994,7.99807L 2.9994,4.99807L 20.9994,4.99807L 20.9994,18.9981L 13.9994,18.9981L 13.9994,20.9981L 20.9994,20.9981C 22.1029,20.9981 22.9994,20.1021 22.9994,18.9981L 22.9994,4.99807C 22.9994,3.89406 22.1029,2.99807 20.9994,2.99807 Z M 0.9994,9.99807L 0.9994,11.9981C 5.9704,11.9981 9.9994,16.0271 9.9994,20.9981L 11.9994,20.9981C 11.9994,14.9231 7.0734,9.99807 0.9994,9.99807 Z M 18.9994,6.99807L 4.9994,6.99807L 4.9994,8.63207C 8.9594,9.91207 12.0854,13.0381 13.3654,16.9981L 18.9994,16.9981M 0.9994,13.9981L 0.9994,15.9981C 3.7614,15.9981 5.9994,18.2361 5.9994,20.9981L 7.9994,20.9981C 7.9994,17.1321 4.86463,13.9981 0.9994,13.9981 Z M 0.9994,17.9981L 0.9994,20.9981L 3.9994,20.9981C 3.9994,19.3421 2.65565,17.9981 0.9994,17.9981 Z "/>
</svg>
