<?xml version="1.0" encoding="utf-8"?>
<!DOCTYPE svg PUBLIC "-//W3C//DTD SVG 1.1//EN" "http://www.w3.org/Graphics/SVG/1.1/DTD/svg11.dtd">
<svg xmlns="http://www.w3.org/2000/svg" xmlns:xlink="http://www.w3.org/1999/xlink" version="1.1" baseProfile="full" width="24" height="24" viewBox="0 0 24.00 24.00" enable-background="new 0 0 24.00 24.00" xml:space="preserve">
	<path fill="#000000" fill-opacity="1" stroke-linejoin="round" d="M 2,13L 4,13L 4,15L 6,15L 6,13L 8,13L 8,15L 10,15L 10,13L 12,13L 12,15L 14,15L 14,10L 17,7L 17,1.00001L 19,1.00001L 23,3L 19,5L 19,7L 22,10L 22,22L 11,22L 11,19C 11,17.8954 10.1046,17 9,17C 7.89543,17 7,17.8954 7,19L 7,22L 2,22L 2,13 Z M 18,10C 17.4477,10 17,10.5373 17,11.2L 17,13L 19,13L 19,11.2C 19,10.5373 18.5523,10 18,10 Z "/>
</svg>
