<?xml version="1.0" encoding="utf-8"?>
<!DOCTYPE svg PUBLIC "-//W3C//DTD SVG 1.1//EN" "http://www.w3.org/Graphics/SVG/1.1/DTD/svg11.dtd">
<svg xmlns="http://www.w3.org/2000/svg" xmlns:xlink="http://www.w3.org/1999/xlink" version="1.1" baseProfile="full" width="24" height="24" viewBox="0 0 24.00 24.00" enable-background="new 0 0 24.00 24.00" xml:space="preserve">
	<path fill="#000000" fill-opacity="1" stroke-width="0.2" stroke-linejoin="round" d="M 1.59625,1.27051L 0.253754,2.74875L 1.41125,3.79875C 1.1575,4.13125 1.00125,4.54625 1.00125,5L 1.00125,7.9975L 2.9975,7.9975L 2.9975,5.23375L 18.1987,18.9988L 13.9987,18.9988L 13.9987,20.9963L 20.41,20.9963L 22.31,22.72L 23.6525,21.235M 6.48875,2.9978L 8.69625,5L 21.0013,5L 21.0013,16.1375L 22.9975,17.9487L 22.9975,5C 22.9975,3.89136 22.1045,2.9978 21.0013,2.9978M 1.00125,10L 1.00125,11.9975C 5.97125,11.9975 10,16.025 10,20.9963L 12.0025,20.9963C 12.0025,14.9212 7.075,10 1.00125,10 Z M 1.00125,13.9987L 1.00125,15.9963C 3.76,15.9963 6.00125,18.2375 6.00125,20.9963L 7.9975,20.9963C 7.9975,17.1337 4.86375,13.9987 1.00125,13.9987 Z M 1.00125,17.9975L 1.00125,20.9963L 3.99875,20.9963C 3.99875,19.3413 2.65625,17.9975 1.00125,17.9975 Z "/>
</svg>
