<?xml version="1.0" encoding="utf-8"?>
<!DOCTYPE svg PUBLIC "-//W3C//DTD SVG 1.1//EN" "http://www.w3.org/Graphics/SVG/1.1/DTD/svg11.dtd">
<svg xmlns="http://www.w3.org/2000/svg" xmlns:xlink="http://www.w3.org/1999/xlink" version="1.1" baseProfile="full" width="24" height="24" viewBox="0 0 24.00 24.00" enable-background="new 0 0 24.00 24.00" xml:space="preserve">
	<path fill="#000000" fill-opacity="1" stroke-width="0.2" stroke-linejoin="round" d="M 12,8L 10.6687,8.08959C 9.80876,7.06936 7.40438,4.5 5,4.5C 5,4.5 3.02867,7.457 4.95746,11.4139C 4.40888,12.2385 4.07331,12.6705 4.01069,13.6611L 2.06643,13.9511L 2.27787,14.9286L 4.04257,14.6746L 4.18115,15.3818L 2.60897,16.3243L 3.08176,17.211L 4.52537,16.3216C 5.67562,18.7649 8.58842,20 12,20C 15.4116,20 18.3244,18.7649 19.4746,16.3216L 20.9182,17.211L 21.391,16.3243L 19.8188,15.3818L 19.9574,14.6746L 21.7221,14.9286L 21.9336,13.9511L 19.9893,13.6611C 19.9267,12.6705 19.5911,12.2385 19.0425,11.4139C 20.9713,7.45701 19,4.50001 19,4.5C 16.5956,4.5 14.1912,7.06936 13.3313,8.0896L 12,8 Z M 9,11C 9.55228,11 10,11.4477 10,12C 10,12.5523 9.55228,13 9,13C 8.44771,13 7.99999,12.5523 7.99999,12C 7.99999,11.4477 8.44771,11 9,11 Z M 15,11C 15.5523,11 16,11.4477 16,12C 16,12.5523 15.5523,13 15,13C 14.4477,13 14,12.5523 14,12C 14,11.4477 14.4477,11 15,11 Z M 11,14L 13,14L 12.3025,15.3949C 12.4759,16.0318 13.0583,16.5 13.75,16.5C 14.5784,16.5 15.25,15.8284 15.25,15L 15.75,15C 15.75,16.1046 14.8546,17 13.75,17C 13.003,17 12.3516,16.5904 12.0082,15.9836L 12,16L 11.9918,15.9836C 11.6484,16.5904 10.997,17 10.25,17C 9.14543,17 8.25,16.1046 8.25,15L 8.75,15C 8.75,15.8284 9.42157,16.5 10.25,16.5C 10.9417,16.5 11.5241,16.0318 11.6975,15.3949L 11,14 Z "/>
</svg>
