<?xml version="1.0" encoding="utf-8"?>
<!DOCTYPE svg PUBLIC "-//W3C//DTD SVG 1.1//EN" "http://www.w3.org/Graphics/SVG/1.1/DTD/svg11.dtd">
<svg xmlns="http://www.w3.org/2000/svg" xmlns:xlink="http://www.w3.org/1999/xlink" version="1.1" baseProfile="full" width="24" height="24" viewBox="0 0 24.00 24.00" enable-background="new 0 0 24.00 24.00" xml:space="preserve">
	<path fill="#000000" fill-opacity="1" stroke-width="1.33333" stroke-linejoin="miter" d="M 18.1512,4.93968C 17.7667,4.91293 17.3724,4.99593 17.0123,5.20343L 8.35208,10.2034C 7.39261,10.7575 7.06608,11.9764 7.61966,12.9359L 9.11989,15.5335C 9.67348,16.4929 10.8923,16.8201 11.8524,16.2659L 13.6492,15.2283C 13.9153,15.691 14.3231,16.0559 14.8113,16.2696L 14.8113,18.0396C 14.8113,19.126 15.7037,20 16.8108,20L 22,20L 22,18.0396L 16.8108,18.0396L 16.8108,16.2683C 17.7203,15.8704 18.3099,14.9732 18.311,13.9808C 18.3099,13.5419 18.1939,13.1104 17.9729,12.7308L 20.512,11.266C 21.4715,10.7117 21.7961,9.49288 21.2431,8.53339L 19.7429,5.9358C 19.3963,5.33643 18.7908,4.98493 18.1512,4.93968 Z M 6.21526,13.1702L 2.00083,13.8715L 2.75095,15.1697L 4.75043,18.6328L 5.50054,19.9316L 8.21537,16.6333L 6.21526,13.1702 Z "/>
</svg>
