<?xml version="1.0" encoding="utf-8"?>
<!DOCTYPE svg PUBLIC "-//W3C//DTD SVG 1.1//EN" "http://www.w3.org/Graphics/SVG/1.1/DTD/svg11.dtd">
<svg xmlns="http://www.w3.org/2000/svg" xmlns:xlink="http://www.w3.org/1999/xlink" version="1.1" baseProfile="full" width="24" height="24" viewBox="0 0 24.00 24.00" enable-background="new 0 0 24.00 24.00" xml:space="preserve">
	<path fill="#000000" fill-opacity="1" stroke-linejoin="round" d="M 23,8L 17,8C 16.45,8 16,8.45 16,9L 16,13.18L 18,15.18L 18,10L 22,10L 22,17L 19.82,17L 22.82,20L 23,20C 23.55,20 24,19.55 24,19L 24,9C 24,8.45 23.55,8 23,8 Z M 4,6.27L 14.73,17L 4,17L 4,6.27 Z M 1.92,1.65L 0.65,2.92L 2.47,4.74C 2.18,5.08 2,5.52 2,6L 2,17L 0,17L 0,20L 17.73,20L 20.08,22.35L 21.35,21.08L 3.89,3.62L 1.92,1.65 Z M 22,6L 22,4L 6.82,4L 8.82,6L 22,6 Z "/>
</svg>
