<?xml version="1.0" encoding="utf-8"?>
<!DOCTYPE svg PUBLIC "-//W3C//DTD SVG 1.1//EN" "http://www.w3.org/Graphics/SVG/1.1/DTD/svg11.dtd">
<svg xmlns="http://www.w3.org/2000/svg" xmlns:xlink="http://www.w3.org/1999/xlink" version="1.1" baseProfile="full" width="24" height="24" viewBox="0 0 24.00 24.00" enable-background="new 0 0 24.00 24.00" xml:space="preserve">
	<path fill="#000000" fill-opacity="1" stroke-width="0.2" stroke-linejoin="round" d="M 15.9994,17.9981L 6.99939,17.9981L 6.99939,3.99807L 15.9994,3.99807M 11.4994,21.9981C 10.6714,21.9981 9.99939,21.3261 9.99939,20.4981C 9.99939,19.6701 10.6714,18.9981 11.4994,18.9981C 12.3274,18.9981 12.9994,19.6701 12.9994,20.4981C 12.9994,21.3261 12.3274,21.9981 11.4994,21.9981 Z M 15.4994,0.998068L 7.49939,0.998068C 6.11839,0.998068 4.99939,2.11706 4.99939,3.49807L 4.99939,20.4981C 4.99939,21.8791 6.11839,22.9981 7.49939,22.9981L 15.4994,22.9981C 16.8804,22.9981 17.9994,21.8791 17.9994,20.4981L 17.9994,3.49807C 17.9994,2.11706 16.8804,0.998068 15.4994,0.998068 Z "/>
</svg>
