<?xml version="1.0" encoding="utf-8"?>
<!DOCTYPE svg PUBLIC "-//W3C//DTD SVG 1.1//EN" "http://www.w3.org/Graphics/SVG/1.1/DTD/svg11.dtd">
<svg xmlns="http://www.w3.org/2000/svg" xmlns:xlink="http://www.w3.org/1999/xlink" version="1.1" baseProfile="full" width="24" height="24" viewBox="0 0 24.00 24.00" enable-background="new 0 0 24.00 24.00" xml:space="preserve">
	<path fill="#000000" fill-opacity="1" stroke-width="1.33333" stroke-linejoin="miter" d="M 11,8.2L 10,7.2L 6,11.2L 2,7.2L 1,8.2L 5,12.2L 1,16.2L 2,17.2L 6,13.2L 10,17.2L 11,16.2L 7,12.2L 11,8.2 Z M 17,1L 7,1C 5.9,1 5,1.9 5,3L 5,6L 7,6L 7,4L 17,4L 17,20L 7,20L 7,18L 5,18L 5,21C 5,22.1 5.9,23 7,23L 17,23C 18.1,23 19,22.1 19,21L 19,3C 19,1.9 18.1,1 17,1 Z "/>
</svg>
