<?xml version="1.0" encoding="utf-8"?>
<!DOCTYPE svg PUBLIC "-//W3C//DTD SVG 1.1//EN" "http://www.w3.org/Graphics/SVG/1.1/DTD/svg11.dtd">
<svg xmlns="http://www.w3.org/2000/svg" xmlns:xlink="http://www.w3.org/1999/xlink" version="1.1" baseProfile="full" width="24" height="24" viewBox="0 0 24.00 24.00" enable-background="new 0 0 24.00 24.00" xml:space="preserve">
	<path fill="#000000" fill-opacity="1" stroke-width="1.33333" stroke-linejoin="miter" d="M 7,1C 5.9,1 5,1.9 5,3L 5,21C 5,22.1 5.9,23 7,23L 17,23C 18.1,23 19,22.1 19,21L 19,3C 19,1.9 18.1,1 17,1L 7,1 Z M 7,4L 17,4L 17,20L 7,20L 7,4 Z M 9,6L 9,10L 10.5,10L 10.5,7.5L 13,7.5L 13,6L 9,6 Z M 13.5,14L 13.5,16.5L 11,16.5L 11,18L 15,18L 15,14L 13.5,14 Z "/>
</svg>
