<?xml version="1.0" encoding="utf-8"?>
<!DOCTYPE svg PUBLIC "-//W3C//DTD SVG 1.1//EN" "http://www.w3.org/Graphics/SVG/1.1/DTD/svg11.dtd">
<svg xmlns="http://www.w3.org/2000/svg" xmlns:xlink="http://www.w3.org/1999/xlink" version="1.1" baseProfile="full" width="24" height="24" viewBox="0 0 24.00 24.00" enable-background="new 0 0 24.00 24.00" xml:space="preserve">
	<path fill="#000000" fill-opacity="1" stroke-width="1.33333" stroke-linejoin="miter" d="M 20.07,4.93C 21.88,6.74 23,9.24 23,12C 23,14.76 21.88,17.26 20.07,19.07L 18.66,17.66C 20.11,16.22 21,14.22 21,12C 21,9.79 20.11,7.78 18.66,6.34L 20.07,4.93 Z M 17.24,7.76C 18.33,8.85001 19,10.35 19,12C 19,13.65 18.33,15.15 17.24,16.24L 15.83,14.83C 16.55,14.11 17,13.11 17,12C 17,10.89 16.55,9.89 15.83,9.17L 17.24,7.76 Z M 13,10C 14.1046,10 15,10.8954 15,12C 15,13.1046 14.1046,14 13,14C 11.8954,14 11,13.1046 11,12C 11,10.8954 11.8954,10 13,10 Z M 11.5,1C 12.8807,1 14,2.1193 14,3.5L 14,8L 12,8L 12,4L 3,4L 3,19L 12,19L 12,16L 14,16L 14,20.5C 14,21.8807 12.8807,23 11.5,23L 3.5,23C 2.11929,23 0.999999,21.8807 0.999999,20.5L 0.999999,3.5C 0.999999,2.1193 2.11929,1 3.5,1L 11.5,1 Z "/>
</svg>
