<?xml version="1.0" encoding="utf-8"?>
<!DOCTYPE svg PUBLIC "-//W3C//DTD SVG 1.1//EN" "http://www.w3.org/Graphics/SVG/1.1/DTD/svg11.dtd">
<svg xmlns="http://www.w3.org/2000/svg" xmlns:xlink="http://www.w3.org/1999/xlink" version="1.1" baseProfile="full" width="24" height="24" viewBox="0 0 24.00 24.00" enable-background="new 0 0 24.00 24.00" xml:space="preserve">
	<path fill="#000000" fill-opacity="1" stroke-width="1.33333" stroke-linejoin="miter" d="M 17,1.01L 7,1C 5.9,1 5,1.9 5,3L 5,21C 5,22.1 5.9,23 7,23L 17,23C 18.1,23 19,22.1 19,21L 19,3C 19,1.9 18.1,1.01 17,1.01 Z M 17,19L 7,19L 7,5L 17,5L 17,19 Z M 16,13L 13,13L 13,8L 11,8L 11,13L 8,13L 12,17L 16,13 Z "/>
</svg>
