<?xml version="1.0" encoding="utf-8"?>
<!DOCTYPE svg PUBLIC "-//W3C//DTD SVG 1.1//EN" "http://www.w3.org/Graphics/SVG/1.1/DTD/svg11.dtd">
<svg xmlns="http://www.w3.org/2000/svg" xmlns:xlink="http://www.w3.org/1999/xlink" version="1.1" baseProfile="full" width="24" height="24" viewBox="0 0 24.00 24.00" enable-background="new 0 0 24.00 24.00" xml:space="preserve">
	<path fill="#000000" fill-opacity="1" stroke-width="1.33333" stroke-linejoin="miter" d="M 9.82079,12.49C 9.84079,12.33 9.86079,12.17 9.86079,12C 9.86079,11.83 9.84079,11.67 9.82079,11.51L 10.9008,10.69C 11.0008,10.62 11.0208,10.48 10.9608,10.37L 9.93079,8.64C 9.87078,8.53 9.73079,8.49 9.62078,8.53L 8.34079,9.03C 8.07078,8.83 7.78079,8.67 7.47079,8.54L 7.27079,7.21C 7.27079,7.09 7.16079,7 7.03079,7L 4.98079,7C 4.85079,7 4.74079,7.09 4.72079,7.21L 4.52079,8.53C 4.21079,8.65 3.92079,8.83 3.65079,9.02L 2.37079,8.52C 2.25079,8.47 2.12079,8.52 2.06079,8.63L 1.03079,10.36C 0.970787,10.48 1.00079,10.61 1.10079,10.69L 2.18079,11.51C 2.16079,11.67 2.15079,11.84 2.15079,12C 2.15079,12.17 2.17079,12.33 2.19079,12.49L 1.10079,13.32C 1.00079,13.39 0.980787,13.53 1.04079,13.64L 2.07079,15.37C 2.13079,15.48 2.27079,15.52 2.38079,15.48L 3.66079,14.98C 3.93079,15.18 4.22079,15.34 4.53079,15.47L 4.73079,16.79C 4.74079,16.91 4.85079,17 4.98079,17L 7.04079,17C 7.17079,17 7.28079,16.91 7.29079,16.79L 7.49079,15.47C 7.80079,15.35 8.09079,15.17 8.36079,14.98L 9.64079,15.48C 9.76079,15.53 9.89079,15.48 9.95079,15.37L 10.9808,13.64C 11.0408,13.53 11.0208,13.4 10.9208,13.32L 9.82079,12.49 Z M 6,13.75C 5.01,13.75 4.2,12.97 4.2,12C 4.2,11.03 5.01,10.25 6,10.25C 6.99,10.25 7.8,11.03 7.8,12C 7.8,12.97 7,13.75 6,13.75 Z M 17,1.01L 7,1C 5.9,1 5,1.9 5,3L 5,6L 7,6L 7,4L 17,4L 17,20L 7,20L 7,18L 5,18L 5,21C 5,22.1 5.9,23 7,23L 17,23C 18.1,23 19,22.1 19,21L 19,3C 19,1.9 18.1,1.01 17,1.01 Z "/>
</svg>
