<?xml version="1.0" encoding="utf-8"?>
<!DOCTYPE svg PUBLIC "-//W3C//DTD SVG 1.1//EN" "http://www.w3.org/Graphics/SVG/1.1/DTD/svg11.dtd">
<svg xmlns="http://www.w3.org/2000/svg" xmlns:xlink="http://www.w3.org/1999/xlink" version="1.1" baseProfile="full" width="24" height="24" viewBox="0 0 24.00 24.00" enable-background="new 0 0 24.00 24.00" xml:space="preserve">
	<path fill="#000000" fill-opacity="1" stroke-width="0.2" stroke-linejoin="miter" d="M 16.9994,18.9981L 16.9994,4.99807L 6.99939,4.99807L 6.99939,18.9981L 16.9994,18.9981 Z M 16.9994,1.00808C 18.1034,1.00808 18.9994,1.89407 18.9994,2.99807L 18.9994,20.9981C 18.9994,22.1021 18.1034,22.9981 16.9994,22.9981L 6.99939,22.9981C 5.89437,22.9981 4.99939,22.1021 4.99939,20.9981L 4.99939,2.99807C 4.99939,1.89407 5.89437,0.998072 6.99939,0.998072L 16.9994,1.00808 Z M 9,7L 15,7L 15,9L 9,9L 9,7 Z M 9,11L 13,11L 13,13L 9,13L 9,11 Z "/>
</svg>
