<?xml version="1.0" encoding="utf-8"?>
<!DOCTYPE svg PUBLIC "-//W3C//DTD SVG 1.1//EN" "http://www.w3.org/Graphics/SVG/1.1/DTD/svg11.dtd">
<svg xmlns="http://www.w3.org/2000/svg" xmlns:xlink="http://www.w3.org/1999/xlink" version="1.1" baseProfile="full" width="24" height="24" viewBox="0 0 24.00 24.00" enable-background="new 0 0 24.00 24.00" xml:space="preserve">
	<path fill="#000000" fill-opacity="1" stroke-linejoin="round" d="M 22,17L 18,17L 18,10L 22,10M 23,8L 17,8C 16.45,8 16,8.45 16,9L 16,19C 16,19.55 16.45,20 17,20L 23,20C 23.55,20 24,19.55 24,19L 24,9C 24,8.45 23.55,8 23,8 Z M 4,6L 22,6L 22,4L 4,4C 2.9,4 2,4.9 2,6L 2,17L 0,17L 0,20L 14,20L 14,17L 4,17L 4,6 Z "/>
</svg>
