<?xml version="1.0" encoding="utf-8"?>
<!DOCTYPE svg PUBLIC "-//W3C//DTD SVG 1.1//EN" "http://www.w3.org/Graphics/SVG/1.1/DTD/svg11.dtd">
<svg xmlns="http://www.w3.org/2000/svg" xmlns:xlink="http://www.w3.org/1999/xlink" version="1.1" baseProfile="full" width="24" height="24" viewBox="0 0 24.00 24.00" enable-background="new 0 0 24.00 24.00" xml:space="preserve">
	<path fill="#000000" fill-opacity="1" stroke-width="1.33333" stroke-linejoin="miter" d="M 17,1L 7,1C 5.9,1 5,1.9 5,3L 5,6L 7,6L 7,4L 17,4L 17,20L 7,20L 7,18L 5,18L 5,21C 5,22.1 5.9,23 7,23L 17,23C 18.1,23 19,22.1 19,21L 19,3C 19,1.9 18.1,1 17,1 Z M 8.8,11L 8.8,9.5C 8.8,8.1 7.4,7 6,7C 4.6,7 3.2,8.1 3.2,9.5L 3.2,11C 2.6,11 2,11.6 2,12.2L 2,15.7C 2,16.4 2.6,17 3.2,17L 8.7,17C 9.4,17 10,16.4 10,15.8L 10,12.3C 10,11.6 9.4,11 8.8,11 Z M 7.5,11L 4.5,11L 4.5,9.5C 4.5,8.7 5.2,8.2 6,8.2C 6.8,8.2 7.5,8.7 7.5,9.5L 7.5,11 Z "/>
</svg>
