<?xml version="1.0" encoding="utf-8"?>
<!DOCTYPE svg PUBLIC "-//W3C//DTD SVG 1.1//EN" "http://www.w3.org/Graphics/SVG/1.1/DTD/svg11.dtd">
<svg xmlns="http://www.w3.org/2000/svg" xmlns:xlink="http://www.w3.org/1999/xlink" version="1.1" baseProfile="full" width="24" height="24" viewBox="0 0 24.00 24.00" enable-background="new 0 0 24.00 24.00" xml:space="preserve">
	<path fill="#000000" fill-opacity="1" stroke-width="1.33333" stroke-linejoin="miter" d="M 17.802,8C 17.259,5.894 15.606,4.24 13.5,3.697L 13.5,2L 10.5,2L 10.5,3.697C 8.394,4.24 6.74,5.894 6.197,8L 4,8L 4,11L 6.197,11C 6.74,13.106 8.394,14.759 10.5,15.302L 10.5,22L 13.5,22L 13.5,15.302C 15.605,14.759 17.259,13.105 17.802,11L 19.969,11L 19.969,8L 17.802,8 Z M 12.039,9.525L 14.492,11L 15.756,11C 15.345,12.028 14.528,12.844 13.5,13.255L 13.5,12L 12.061,9.563L 12,9.502L 11.939,9.563L 10.5,12L 10.5,13.255C 9.472,12.844 8.656,12.028 8.244,11L 9.508,11L 11.961,9.525L 11.984,9.502L 11.961,9.479L 9.502,8L 8.244,8C 8.655,6.972 9.472,6.155 10.5,5.743L 10.5,7L 11.939,9.441L 12,9.502L 12.061,9.441L 13.5,7L 13.5,5.743C 14.528,6.155 15.345,6.972 15.756,8L 14.498,8L 12.038,9.479L 12.015,9.502L 12.039,9.525 Z "/>
</svg>
