<?xml version="1.0" encoding="utf-8"?>
<!DOCTYPE svg PUBLIC "-//W3C//DTD SVG 1.1//EN" "http://www.w3.org/Graphics/SVG/1.1/DTD/svg11.dtd">
<svg xmlns="http://www.w3.org/2000/svg" xmlns:xlink="http://www.w3.org/1999/xlink" version="1.1" baseProfile="full" width="24" height="24" viewBox="0 0 24.00 24.00" enable-background="new 0 0 24.00 24.00" xml:space="preserve">
	<path fill="#000000" fill-opacity="1" stroke-linejoin="round" d="M 22,5L 22,7L 17.0089,7L 13.5326,12L 16,12L 16,14L 14.4632,14L 18.1691,22L 15.965,22L 15.0385,20L 6.38418,20L 5.35074,22L 3.09952,22L 7.23328,14L 7,14C 6.55086,14 6.17087,13.7039 6.04461,13.2962L 2.86808,3.83882L 3.81604,3.52042C 4.33958,3.34458 4.90655,3.62644 5.08239,4.14998L 7.71903,12L 12.0967,12L 15.573,7L 12,7L 12,5L 22,5 Z M 9.4845,14L 7.41762,18L 14.112,18L 12.2591,14L 9.4845,14 Z "/>
</svg>
