<?xml version="1.0" encoding="utf-8"?>
<!DOCTYPE svg PUBLIC "-//W3C//DTD SVG 1.1//EN" "http://www.w3.org/Graphics/SVG/1.1/DTD/svg11.dtd">
<svg xmlns="http://www.w3.org/2000/svg" xmlns:xlink="http://www.w3.org/1999/xlink" version="1.1" baseProfile="full" width="24" height="24" viewBox="0 0 24.00 24.00" enable-background="new 0 0 24.00 24.00" xml:space="preserve">
	<path fill="#000000" fill-opacity="1" stroke-width="0.2" stroke-linejoin="round" d="M 22,21L 2,21L 2,3L 4,3L 4,19L 6,19L 6,17L 10,17L 10,19L 12,19L 12,16L 16,16L 16,19L 18,19L 18,17L 22,17L 22,21 Z M 18,14L 22,14L 22,16L 18,16L 18,14 Z M 12,6.00001L 16,6.00001L 16,9L 12,9L 12,6.00001 Z M 16,15L 12,15L 12,10L 16,10L 16,15 Z M 6,10L 10,10L 10,12L 6,12L 6,10 Z M 10,16L 6,16L 6,13L 10,13L 10,16 Z "/>
</svg>
