<?xml version="1.0" encoding="utf-8"?>
<!DOCTYPE svg PUBLIC "-//W3C//DTD SVG 1.1//EN" "http://www.w3.org/Graphics/SVG/1.1/DTD/svg11.dtd">
<svg xmlns="http://www.w3.org/2000/svg" xmlns:xlink="http://www.w3.org/1999/xlink" version="1.1" baseProfile="full" width="24" height="24" viewBox="0 0 24.00 24.00" enable-background="new 0 0 24.00 24.00" xml:space="preserve">
	<path fill="#000000" fill-opacity="1" stroke-width="1.33333" stroke-linejoin="miter" d="M 12.75,3.9375C 13.75,3.2188 14.9063,2.8594 16.2188,2.8594C 16.9375,2.8594 17.7266,3.0547 18.586,3.4453C 19.4454,3.836 20.1251,4.2969 20.6251,4.8281C 21.6564,6.1094 22.0939,7.6016 21.9376,9.3047C 21.7813,11.0079 21.2188,12.3282 20.2501,13.2656L 12.6563,20.8594C 12.4688,21.0469 12.2344,21.1407 11.9532,21.1407C 11.6719,21.1407 11.4376,21.0469 11.2501,20.8594C 11.0626,20.6719 10.9688,20.4376 10.9688,20.1563C 10.9688,19.8751 11.0626,19.6407 11.2501,19.4532L 15.8439,14.8594C 16.0939,14.6407 16.0939,14.4063 15.8439,14.1563C 15.5939,13.9063 15.3595,13.9063 15.1407,14.1563L 10.5469,18.7501C 10.3594,18.9376 10.1251,19.0313 9.84382,19.0313C 9.56257,19.0313 9.3282,18.9376 9.1407,18.7501C 8.9532,18.5626 8.85945,18.3282 8.85945,18.047C 8.85945,17.7657 8.9532,17.5313 9.1407,17.3438L 13.7345,12.75C 13.9845,12.5 13.9845,12.25 13.7345,12C 13.5157,11.75 13.2814,11.75 13.0314,12L 8.43758,16.6406C 8.25008,16.8281 8.0157,16.9219 7.73446,16.9219C 7.45321,16.9219 7.21102,16.8281 7.0079,16.6406C 6.80477,16.4531 6.70321,16.2188 6.70321,15.9375C 6.70321,15.6563 6.81258,15.4063 7.03133,15.1875L 11.6251,10.5937C 11.8751,10.3437 11.8751,10.1094 11.6251,9.8906C 11.3751,9.6719 11.1408,9.6719 10.922,9.8906L 6.28141,14.4844C 6.06266,14.7031 5.82829,14.8125 5.57829,14.8125C 5.29703,14.8125 5.06266,14.711 4.87516,14.5078C 4.68766,14.3047 4.59391,14.0625 4.59391,13.7813C 4.59391,13.5 4.68766,13.2657 4.87516,13.0782C 7.9377,10.0156 9.82833,8.1406 10.5471,7.4532L 14.1096,10.9688C 14.4846,11.3438 14.9533,11.5313 15.5158,11.5313C 16.2032,11.5313 16.7501,11.25 17.1564,10.6875C 17.4376,10.2813 17.5392,9.8281 17.4611,9.3281C 17.3829,8.8281 17.172,8.4062 16.8282,8.0625L 12.75,3.9375 Z M 14.8125,10.2656L 10.5469,6L 3.4688,13.0781C 2.62507,12.2344 2.1485,10.9297 2.0391,9.164C 1.9297,7.3983 2.40627,5.8749 3.4688,4.5937C 4.65627,3.4062 6.07813,2.8125 7.7344,2.8125C 9.39067,2.8125 10.7969,3.4062 11.9532,4.5937L 16.2188,8.8593C 16.4063,9.0468 16.5,9.2812 16.5,9.5624C 16.5,9.8437 16.4063,10.078 16.2188,10.2655C 16.0313,10.453 15.7969,10.5468 15.5157,10.5468C 15.2344,10.5468 15.0001,10.453 14.8126,10.2655L 14.8125,10.2656 Z "/>
</svg>
