<?xml version="1.0" encoding="utf-8"?>
<!DOCTYPE svg PUBLIC "-//W3C//DTD SVG 1.1//EN" "http://www.w3.org/Graphics/SVG/1.1/DTD/svg11.dtd">
<svg xmlns="http://www.w3.org/2000/svg" xmlns:xlink="http://www.w3.org/1999/xlink" version="1.1" baseProfile="full" width="24" height="24" viewBox="0 0 24.00 24.00" enable-background="new 0 0 24.00 24.00" xml:space="preserve">
	<path fill="#000000" fill-opacity="1" stroke-width="0.2" stroke-linejoin="round" d="M 16.1761,19.5993L 14.1692,16.1232C 15.1534,15.397 15.8311,14.2793 15.9725,13L 19.9855,13C 19.8255,15.7589 18.3496,18.1648 16.1761,19.5993 Z M 13,7.02748L 13,3.01447C 17.2962,3.26369 20.7363,6.70376 20.9855,11L 16.9725,11C 16.7419,8.9142 15.0858,7.25805 13,7.02748 Z M 7,12.5C 7,13.1414 7.13419,13.7515 7.37602,14.3036L 3.89992,16.3106C 3.32414,15.1644 3,13.8701 3,12.5C 3,7.97343 6.53831,4.27327 11,4.01446L 11,8.02747C 8.75002,8.27619 7,10.1837 7,12.5 Z M 11.5,21C 8.5331,21 5.92124,19.4799 4.40071,17.1761L 7.87676,15.1692C 8.69621,16.2797 10.014,17 11.5,17C 12.1414,17 12.7514,16.8658 13.3036,16.624L 15.3106,20.1001C 14.1644,20.6759 12.8701,21 11.5,21 Z "/>
</svg>
