<?xml version="1.0" encoding="utf-8"?>
<!DOCTYPE svg PUBLIC "-//W3C//DTD SVG 1.1//EN" "http://www.w3.org/Graphics/SVG/1.1/DTD/svg11.dtd">
<svg xmlns="http://www.w3.org/2000/svg" xmlns:xlink="http://www.w3.org/1999/xlink" version="1.1" baseProfile="full" width="24" height="24" viewBox="0 0 24.00 24.00" enable-background="new 0 0 24.00 24.00" xml:space="preserve">
	<path fill="#000000" fill-opacity="1" stroke-width="0.2" stroke-linejoin="round" d="M 3,18C 3.55228,18 4,18.4477 4,19C 4,19.5523 3.55228,20 3,20C 2.44771,20 2,19.5523 2,19C 2,18.4477 2.44771,18 3,18 Z M 21,4.00002C 21.5522,4.00002 22,4.44773 22,5.00002C 22,5.5523 21.5522,6.00002 21,6.00002C 20.4477,6.00002 20,5.5523 20,5.00002C 20,4.44773 20.4477,4.00002 21,4.00002 Z M 7.99999,9.00002C 8.55227,9.00002 8.99999,9.44774 8.99999,10C 8.99999,10.5523 8.55227,11 7.99999,11C 7.4477,11 6.99999,10.5523 6.99999,10C 6.99999,9.44774 7.4477,9.00002 7.99999,9.00002 Z M 16,13C 16.5523,13 17,13.4477 17,14C 17,14.5523 16.5523,15 16,15C 15.4477,15 15,14.5523 15,14C 15,13.4477 15.4477,13 16,13 Z M 5.24589,17.011C 4.80037,16.5083 4.18867,16.1563 3.49687,16.041L 5.74722,11.9812C 6.19112,12.4856 6.80171,12.8396 7.49287,12.9573L 5.24589,17.011 Z M 13.9149,11.843C 13.4336,12.3084 13.1076,12.9334 13.0223,13.6327L 10.0773,12.1645C 10.5604,11.7007 10.8886,11.0767 10.9764,10.3779L 13.9149,11.843 Z M 18.7472,6.98122C 19.1911,7.48557 19.8017,7.83965 20.4929,7.95732L 18.2459,12.011C 17.8004,11.5083 17.1887,11.1563 16.4969,11.041L 18.7472,6.98122 Z "/>
</svg>
