<?xml version="1.0" encoding="utf-8"?>
<!DOCTYPE svg PUBLIC "-//W3C//DTD SVG 1.1//EN" "http://www.w3.org/Graphics/SVG/1.1/DTD/svg11.dtd">
<svg xmlns="http://www.w3.org/2000/svg" xmlns:xlink="http://www.w3.org/1999/xlink" version="1.1" baseProfile="full" width="24" height="24" viewBox="0 0 24.00 24.00" enable-background="new 0 0 24.00 24.00" xml:space="preserve">
	<path fill="#000000" fill-opacity="1" stroke-width="1.33333" stroke-linejoin="miter" d="M 22,6.92L 20.59,5.51L 17.74,8.72C 15.68,6.4 12.83,5 9.61,5C 6.72,5 4.07,6.16 2,8L 3.42,9.42C 5.12,7.93 7.27,7 9.61,7C 12.35,7 14.7,8.26 16.38,10.24L 13.5,13.48L 9.5,9.48L 2,16.99L 3.5,18.49L 9.5,12.48L 13.5,16.48L 17.55,11.93C 18.3,13.28 18.8,14.83 18.99,16.48L 21,16.48C 20.78,14.18 20.05,12.09 18.96,10.34L 22,6.92 Z "/>
</svg>
