<?xml version="1.0" encoding="utf-8"?>
<!DOCTYPE svg PUBLIC "-//W3C//DTD SVG 1.1//EN" "http://www.w3.org/Graphics/SVG/1.1/DTD/svg11.dtd">
<svg xmlns="http://www.w3.org/2000/svg" xmlns:xlink="http://www.w3.org/1999/xlink" version="1.1" baseProfile="full" width="24" height="24" viewBox="0 0 24.00 24.00" enable-background="new 0 0 24.00 24.00" xml:space="preserve">
	<path fill="#000000" fill-opacity="1" stroke-linejoin="round" d="M 2,2L 4,2L 4,20L 22,20L 22,22L 2,22L 2,2 Z M 9,10C 10.656,10 12,11.344 12,13C 12,14.656 10.656,16 9,16C 7.344,16 6,14.656 6,13C 6,11.344 7.344,10 9,10 Z M 13,2C 14.656,2 16,3.344 16,5C 16,6.656 14.656,8 13,8C 11.344,8 10,6.656 10,5C 10,3.344 11.344,2 13,2 Z M 18,12C 19.656,12 21,13.344 21,15C 21,16.656 19.656,18 18,18C 16.344,18 15,16.656 15,15C 15,13.344 16.344,12 18,12 Z "/>
</svg>
