<?xml version="1.0" encoding="utf-8"?>
<!DOCTYPE svg PUBLIC "-//W3C//DTD SVG 1.1//EN" "http://www.w3.org/Graphics/SVG/1.1/DTD/svg11.dtd">
<svg xmlns="http://www.w3.org/2000/svg" xmlns:xlink="http://www.w3.org/1999/xlink" version="1.1" baseProfile="full" width="24" height="24" viewBox="0 0 24.00 24.00" enable-background="new 0 0 24.00 24.00" xml:space="preserve">
	<path fill="#000000" fill-opacity="1" stroke-width="1.33333" stroke-linejoin="miter" d="M 7.2,11.2C 8.96731,11.2 10.4,12.6327 10.4,14.4C 10.4,16.1673 8.96731,17.6 7.2,17.6C 5.43269,17.6 4,16.1673 4,14.4C 4,12.6327 5.43269,11.2 7.2,11.2 Z M 14.8,16C 15.9046,16 16.8,16.8954 16.8,18C 16.8,19.1046 15.9046,20 14.8,20C 13.6954,20 12.8,19.1046 12.8,18C 12.8,16.8954 13.6954,16 14.8,16 Z M 15.2,4C 17.851,4 20,6.149 20,8.8C 20,11.451 17.851,13.6 15.2,13.6C 12.549,13.6 10.4,11.451 10.4,8.8C 10.4,6.149 12.549,4 15.2,4 Z "/>
</svg>
