<?xml version="1.0" encoding="utf-8"?>
<!DOCTYPE svg PUBLIC "-//W3C//DTD SVG 1.1//EN" "http://www.w3.org/Graphics/SVG/1.1/DTD/svg11.dtd">
<svg xmlns="http://www.w3.org/2000/svg" xmlns:xlink="http://www.w3.org/1999/xlink" version="1.1" baseProfile="full" width="24" height="24" viewBox="0 0 24.00 24.00" enable-background="new 0 0 24.00 24.00" xml:space="preserve">
	<path fill="#000000" fill-opacity="1" stroke-width="1.33333" stroke-linejoin="miter" d="M 13,2.05C 18.05,2.55 22,6.82 22,12C 22,13.45 21.68,14.83 21.12,16.07L 18.52,14.54C 18.82,13.75 19,12.9 19,12C 19,8.47 16.39,5.57 13,5.08L 13,2.05 Z M 12,19C 14.21,19 16.17,17.98 17.45,16.38L 20.05,17.91C 18.23,20.39 15.3,22 11.99,22C 6.47,22 2,17.52 2,12C 2,6.81 5.94,2.55 11,2.05L 11,5.08C 7.61,5.57 5,8.47 5,12C 5,15.87 8.13,19 12,19 Z M 12,6C 15.3137,6 18,8.68629 18,12C 18,14.973 15.8377,17.441 13,17.917L 13,14.8293C 14.1652,14.4175 15,13.3062 15,12C 15,10.3432 13.6569,9 12,9L 11.4515,9.05003L 9.90716,6.3751C 10.5588,6.13256 11.2639,6 12,6 Z M 6,12C 6,10.1396 6.84673,8.47693 8.17585,7.37639L 9.71973,10.0505C 9.27101,10.5748 9,11.2558 9,12C 9,13.3062 9.83481,14.4175 11,14.8293L 11,17.917C 8.16229,17.441 6,14.973 6,12 Z "/>
</svg>
