<?xml version="1.0" encoding="utf-8"?>
<!DOCTYPE svg PUBLIC "-//W3C//DTD SVG 1.1//EN" "http://www.w3.org/Graphics/SVG/1.1/DTD/svg11.dtd">
<svg xmlns="http://www.w3.org/2000/svg" xmlns:xlink="http://www.w3.org/1999/xlink" version="1.1" baseProfile="full" width="24" height="24" viewBox="0 0 24.00 24.00" enable-background="new 0 0 24.00 24.00" xml:space="preserve">
	<path fill="#000000" fill-opacity="1" stroke-width="1.33333" stroke-linejoin="miter" d="M 2,5L 10,5L 10,2L 12,2L 12,22L 10,22L 10,18L 6,18L 6,15L 10,15L 10,13L 4,13L 4,10L 10,10L 10,8L 2,8L 2,5 Z M 14,5.00001L 17,5.00001L 17,8.00001L 14,8.00001L 14,5.00001 Z M 14,10L 19,10L 19,13L 14,13L 14,10 Z M 14,15L 22,15L 22,18L 14,18L 14,15 Z "/>
</svg>
