<?xml version="1.0" encoding="utf-8"?>
<!DOCTYPE svg PUBLIC "-//W3C//DTD SVG 1.1//EN" "http://www.w3.org/Graphics/SVG/1.1/DTD/svg11.dtd">
<svg xmlns="http://www.w3.org/2000/svg" xmlns:xlink="http://www.w3.org/1999/xlink" version="1.1" baseProfile="full" width="24" height="24" viewBox="0 0 24.00 24.00" enable-background="new 0 0 24.00 24.00" xml:space="preserve">
	<path fill="#000000" fill-opacity="1" stroke-width="0.2" stroke-linejoin="round" d="M 3,16C 3.55228,16 4,16.4477 4,17C 4,17.5523 3.55228,18 3,18C 2.44771,18 2,17.5523 2,17C 2,16.4477 2.44771,16 3,16 Z M 21,2.00002C 21.5522,2.00002 22,2.44774 22,3.00002C 22,3.5523 21.5522,4.00002 21,4.00002C 20.4477,4.00002 20,3.5523 20,3.00002C 20,2.44774 20.4477,2.00002 21,2.00002 Z M 7.99999,7.00002C 8.55227,7.00002 8.99999,7.44774 8.99999,8.00002C 8.99999,8.55231 8.55227,9.00002 7.99999,9.00002C 7.4477,9.00002 6.99999,8.55231 6.99999,8.00002C 6.99999,7.44774 7.4477,7.00002 7.99999,7.00002 Z M 16,11C 16.5523,11 17,11.4477 17,12C 17,12.5523 16.5523,13 16,13C 15.4477,13 15,12.5523 15,12C 15,11.4477 15.4477,11 16,11 Z M 5.24589,15.011C 4.80036,14.5083 4.18867,14.1563 3.49687,14.041L 5.74722,9.98122C 6.19112,10.4856 6.80171,10.8396 7.49287,10.9573L 5.24589,15.011 Z M 13.9149,9.84303C 13.4336,10.3084 13.1076,10.9334 13.0223,11.6328L 10.0773,10.1645C 10.5604,9.70067 10.8886,9.0767 10.9764,8.37794L 13.9149,9.84303 Z M 18.7472,4.98122C 19.1911,5.48557 19.8017,5.83965 20.4929,5.95732L 18.2459,10.011C 17.8004,9.5083 17.1887,9.15627 16.4969,9.04096L 18.7472,4.98122 Z M 3,20C 4.15049,20 5.14972,19.3524 5.65302,18.4018L 9.24352,11.9244L 14.5853,14.6462C 15.0068,14.872 15.4884,15 16,15C 17.1503,15 18.1494,14.3526 18.6528,13.4022L 21,9.16777L 21,21L 3,21L 3,20 Z "/>
</svg>
