<?xml version="1.0" encoding="utf-8"?>
<!DOCTYPE svg PUBLIC "-//W3C//DTD SVG 1.1//EN" "http://www.w3.org/Graphics/SVG/1.1/DTD/svg11.dtd">
<svg xmlns="http://www.w3.org/2000/svg" xmlns:xlink="http://www.w3.org/1999/xlink" version="1.1" baseProfile="full" width="24" height="24" viewBox="0 0 24.00 24.00" enable-background="new 0 0 24.00 24.00" xml:space="preserve">
	<path fill="#000000" fill-opacity="1" stroke-width="1.33333" stroke-linejoin="miter" d="M 3,14L 3.51804,14.0677L 8.06787,9.51791C 7.88969,8.85068 8.06232,8.10925 8.58578,7.58579C 9.36683,6.80474 10.6332,6.80474 11.4142,7.58579C 11.9377,8.10925 12.1103,8.85068 11.9321,9.51791L 14.482,12.0677L 15,12C 15.1792,12 15.3528,12.0236 15.518,12.0677L 19.0677,8.51805C 19.0236,8.35282 19,8.17916 19,8C 19,6.89544 19.8954,6.00001 21,6.00001C 22.1046,6.00001 23,6.89544 23,8C 23,9.10458 22.1046,10 21,10C 20.8208,10 20.6472,9.97645 20.482,9.93226L 16.9323,13.482C 16.9764,13.6472 17,13.8208 17,14C 17,15.1046 16.1046,16 15,16C 13.8954,16 13,15.1046 13,14L 13.0677,13.482L 10.5179,10.9321C 10.179,11.0226 9.82098,11.0226 9.48209,10.9321L 4.93226,15.482L 5,16C 5,17.1046 4.10457,18 3,18C 1.89543,18 1,17.1046 1,16C 1,14.8954 1.89543,14 3,14 Z "/>
</svg>
