<?xml version="1.0" encoding="utf-8"?>
<!DOCTYPE svg PUBLIC "-//W3C//DTD SVG 1.1//EN" "http://www.w3.org/Graphics/SVG/1.1/DTD/svg11.dtd">
<svg xmlns="http://www.w3.org/2000/svg" xmlns:xlink="http://www.w3.org/1999/xlink" version="1.1" baseProfile="full" width="24" height="24" viewBox="0 0 24.00 24.00" enable-background="new 0 0 24.00 24.00" xml:space="preserve">
	<path fill="#000000" fill-opacity="1" stroke-width="0.2" stroke-linejoin="round" d="M 11,16L 6.5,11.5L 7.91422,10.0858L 11,13.1716L 19.5858,4.58578L 21,6L 11,16 Z M 12,2.00001C 13.3557,2.00001 14.6483,2.26977 15.8272,2.75854L 14.2616,4.32417C 13.5445,4.1132 12.7854,4.00001 12,4.00001C 7.58172,4.00001 4,7.58173 4,12C 4,16.4183 7.58172,20 12,20C 16.4183,20 20,16.4183 20,12L 22,12C 22,17.5229 17.5228,22 12,22C 6.47715,22 2,17.5229 2,12C 2,6.47716 6.47715,2.00001 12,2.00001 Z "/>
</svg>
