<?xml version="1.0" encoding="utf-8"?>
<!DOCTYPE svg PUBLIC "-//W3C//DTD SVG 1.1//EN" "http://www.w3.org/Graphics/SVG/1.1/DTD/svg11.dtd">
<svg xmlns="http://www.w3.org/2000/svg" xmlns:xlink="http://www.w3.org/1999/xlink" version="1.1" baseProfile="full" width="24" height="24" viewBox="0 0 24.00 24.00" enable-background="new 0 0 24.00 24.00" xml:space="preserve">
	<path fill="#000000" fill-opacity="1" stroke-width="1.33333" stroke-linejoin="miter" d="M 20,2L 8,2C 6.89543,2 6,2.8954 6,4L 6,16C 6,17.1046 6.89543,18 8,18L 20,18C 21.1046,18 22,17.1046 22,16L 22,4C 22,2.8954 21.1046,2 20,2 Z M 20,16L 8,16L 8,4L 20,4L 20,16 Z M 16,20L 16,22L 4,22C 2.89543,22 2,21.1046 2,20L 2,7L 4,7L 4,20L 16,20 Z M 18.53,8.06L 17.47,7L 12.59,11.88L 10.47,9.76L 9.41,10.82L 12.59,14L 18.53,8.06 Z "/>
</svg>
