<?xml version="1.0" encoding="utf-8"?>
<!DOCTYPE svg PUBLIC "-//W3C//DTD SVG 1.1//EN" "http://www.w3.org/Graphics/SVG/1.1/DTD/svg11.dtd">
<svg xmlns="http://www.w3.org/2000/svg" xmlns:xlink="http://www.w3.org/1999/xlink" version="1.1" baseProfile="full" width="24" height="24" viewBox="0 0 24.00 24.00" enable-background="new 0 0 24.00 24.00" xml:space="preserve">
	<path fill="#000000" fill-opacity="1" stroke-width="1.33333" stroke-linejoin="miter" d="M 12,2C 6.5,2 2,6.5 2,12C 2,17.5 6.5,22 12,22C 17.5,22 22,17.5 22,12C 22,6.5 17.5,2 12,2 Z M 12,20C 7.59,20 4,16.41 4,12C 4,7.59 7.59,4 12,4C 16.41,4 20,7.59 20,12C 20,16.41 16.41,20 12,20 Z M 7,15L 17,15L 17,17L 7,17L 7,15 Z M 10.3,11.2L 8.4,9.3L 7,10.7L 10.3,14L 17,7.3L 15.6,5.9L 10.3,11.2 Z "/>
</svg>
