<?xml version="1.0" encoding="utf-8"?>
<!DOCTYPE svg PUBLIC "-//W3C//DTD SVG 1.1//EN" "http://www.w3.org/Graphics/SVG/1.1/DTD/svg11.dtd">
<svg xmlns="http://www.w3.org/2000/svg" xmlns:xlink="http://www.w3.org/1999/xlink" version="1.1" baseProfile="full" width="24" height="24" viewBox="0 0 24.00 24.00" enable-background="new 0 0 24.00 24.00" xml:space="preserve">
	<path fill="#000000" fill-opacity="1" stroke-width="0.2" stroke-linejoin="round" d="M 13.9987,2.0025C 9.58,2.0025 6.00125,5.58125 6.00125,10C 6.00125,14.4187 9.58,17.9975 13.9987,17.9975C 18.4175,17.9975 22.0025,14.4187 22.0025,10C 22.0025,5.58125 18.4175,2.0025 13.9987,2.0025 Z M 4.92625,5.82C 3.07625,7.33875 2.0025,9.605 2.0025,12.0025C 2.0025,16.4162 5.58125,20 10,20C 10.635,19.995 11.265,19.9175 11.88,19.765C 10.1175,19.38 8.49125,18.525 7.1725,17.29C 5.22,16.245 3.99875,14.2137 3.99875,12.0025C 4.00375,11.7038 4.02875,11.4063 4.0725,11.1088C 4.02875,10.7425 4.00375,10.3713 3.99875,10C 4.00375,8.555 4.32125,7.12875 4.92625,5.82 Z "/>
</svg>
