<?xml version="1.0" encoding="utf-8"?>
<!DOCTYPE svg PUBLIC "-//W3C//DTD SVG 1.1//EN" "http://www.w3.org/Graphics/SVG/1.1/DTD/svg11.dtd">
<svg xmlns="http://www.w3.org/2000/svg" xmlns:xlink="http://www.w3.org/1999/xlink" version="1.1" baseProfile="full" width="24" height="24" viewBox="0 0 24.00 24.00" enable-background="new 0 0 24.00 24.00" xml:space="preserve">
	<g>
		<path fill="#000000" fill-opacity="1" stroke-width="1.33333" stroke-linejoin="miter" d="M 15,20C 15,19.4477 14.5523,19 14,19L 13,19L 13,17L 17,17C 18.1046,17 19,16.1046 19,15L 19,5C 19,3.8954 18.1046,3 17,3L 7,3C 5.89543,3 5,3.8954 5,5L 5,15C 5,16.1046 5.89543,17 7,17L 11,17L 11,19L 10,19C 9.44771,19 9,19.4477 9,20L 2,20L 2,22L 9,22C 9,22.5523 9.44771,23 10,23L 14,23C 14.5523,23 15,22.5523 15,22L 22,22L 22,20L 15,20 Z M 8.25,10.08L 9.41,8.92L 11,10.51L 14.59,6.92L 15.75,8.33L 11,13.08L 8.25,10.08 Z "/>
	</g>
</svg>
