<?xml version="1.0" encoding="utf-8"?>
<!DOCTYPE svg PUBLIC "-//W3C//DTD SVG 1.1//EN" "http://www.w3.org/Graphics/SVG/1.1/DTD/svg11.dtd">
<svg xmlns="http://www.w3.org/2000/svg" xmlns:xlink="http://www.w3.org/1999/xlink" version="1.1" baseProfile="full" width="24" height="24" viewBox="0 0 24.00 24.00" enable-background="new 0 0 24.00 24.00" xml:space="preserve">
	<path fill="#000000" fill-opacity="1" stroke-width="0.2" stroke-linejoin="round" d="M 19.9993,15.9981L 20,4L 7.99928,3.99808L 7.99939,15.9991L 19.9993,15.9981 Z M 21.9993,15.9981C 21.9993,17.1031 21.1033,17.9981 19.9993,17.9981L 7.99939,17.9981C 6.89439,17.9981 5.9994,17.1031 5.9994,15.9981L 5.99928,3.99808C 5.99928,2.89308 6.89427,1.99809 7.99927,1.99809L 20,2.00001C 21.1046,2.00001 22,2.89543 22,4L 21.9993,15.9981 Z M 16,20L 16,22L 4.00002,22C 2.89502,22 2.00002,21.105 2.00002,20L 1.99996,7.00002L 3.99996,7.00002L 4.00002,20.001L 16,20 Z "/>
</svg>
