<?xml version="1.0" encoding="utf-8"?>
<!DOCTYPE svg PUBLIC "-//W3C//DTD SVG 1.1//EN" "http://www.w3.org/Graphics/SVG/1.1/DTD/svg11.dtd">
<svg xmlns="http://www.w3.org/2000/svg" xmlns:xlink="http://www.w3.org/1999/xlink" version="1.1" baseProfile="full" width="24" height="24" viewBox="0 0 24.00 24.00" enable-background="new 0 0 24.00 24.00" xml:space="preserve">
	<path fill="#000000" fill-opacity="1" stroke-width="0.2" stroke-linejoin="round" d="M 11.0009,7.82707C 9.83341,7.41562 8.99875,6.30495 8.99875,5C 8.99875,3.34448 10.3413,2.0025 12.0025,2.0025C 13.6575,2.0025 15,3.34448 15,5C 15,6.30592 14.1641,7.41726 12.9984,7.82798L 12.9975,10.6416C 12.6821,10.5478 12.3481,10.4975 12.0025,10.4975C 11.6546,10.4975 11.3185,10.5482 11.0012,10.6427L 11.0009,7.82707 Z M 18.2962,21.1038C 17.1642,20.4535 16.6185,19.175 16.8445,17.9593L 14.3976,16.5481C 14.8849,16.0884 15.2406,15.4902 15.4016,14.8163L 17.8439,16.2257C 18.7819,15.4233 20.1625,15.2574 21.2939,15.9088C 22.7295,16.7388 23.2225,18.5737 22.3925,20.005C 21.5625,21.44 19.7262,21.9338 18.2962,21.1038 Z M 2.7,15.9038C 3.83334,15.2518 5.21187,15.4186 6.15136,16.2237L 8.59595,14.811C 8.7558,15.484 9.10988,16.0817 9.59569,16.5416L 7.15017,17.9539C 7.37644,19.1694 6.83015,20.4494 5.69874,21.1038C 4.2625,21.9288 2.43125,21.44 1.60125,20.005C 0.771246,18.5688 1.265,16.7337 2.7,15.9038 Z M 13.9987,13.9988C 13.9987,15.1025 13.105,16.0012 12.0025,16.0012C 10.8938,16.0012 10,15.1025 10,13.9988C 10,12.895 10.8938,12.0025 12.0025,12.0025C 13.105,12.0025 13.9987,12.895 13.9987,13.9988 Z M 17.0025,13.9988L 16.9704,14.5683L 15.4859,13.7117C 15.3991,12.6408 14.8309,11.7062 13.9987,11.1249L 13.9987,9.41405C 15.7657,10.1856 17.0025,11.9494 17.0025,13.9988 Z M 14.9658,18.0262C 14.1362,18.6376 13.1111,18.9988 12.0025,18.9988C 10.89,18.9988 9.86298,18.6364 9.03288,18.0232L 10.5115,17.1676C 10.9638,17.3808 11.4692,17.5 12.0025,17.5C 12.5312,17.5 13.0327,17.3822 13.4822,17.1714L 14.9658,18.0262 Z M 7.03329,14.5575L 7.00249,13.9988C 7.00249,11.951 8.23461,10.1884 10,9.41585L 10,11.1263C 9.16973,11.7062 8.6026,12.6368 8.51353,13.7034L 7.03329,14.5575 Z "/>
</svg>
