<?xml version="1.0" encoding="utf-8"?>
<!DOCTYPE svg PUBLIC "-//W3C//DTD SVG 1.1//EN" "http://www.w3.org/Graphics/SVG/1.1/DTD/svg11.dtd">
<svg xmlns="http://www.w3.org/2000/svg" xmlns:xlink="http://www.w3.org/1999/xlink" version="1.1" baseProfile="full" width="24" height="24" viewBox="0 0 24.00 24.00" enable-background="new 0 0 24.00 24.00" xml:space="preserve">
	<path fill="#000000" fill-opacity="1" stroke-width="0.2" stroke-linejoin="miter" d="M 18,3C 19.1046,3 20,3.89543 20,5C 20,5.8096 19.519,6.50685 18.8271,6.8215L 17,13.15L 17,18L 7,18L 7,13.15L 5.17281,6.82146C 4.481,6.50678 4,5.80956 4,5C 4,3.89543 4.89543,3 6,3C 7.10457,3 8,3.89543 8,5C 8,5.49814 7.81788,5.95375 7.51659,6.30388L 10.3,9.35L 10.8274,5.62038C 10.3261,5.25696 10,4.66656 10,4C 10,2.89543 10.8954,2.00001 12,2.00001C 13.1046,2.00001 14,2.89543 14,4C 14,4.66656 13.6739,5.25696 13.1726,5.62038L 13.7,9.35L 16.4714,6.28976C 16.1773,5.94155 16,5.49148 16,5C 16,3.89543 16.8954,3 18,3 Z M 5,20L 19,20L 19,22L 5,22L 5,20 Z "/>
</svg>
