<?xml version="1.0" encoding="utf-8"?>
<!DOCTYPE svg PUBLIC "-//W3C//DTD SVG 1.1//EN" "http://www.w3.org/Graphics/SVG/1.1/DTD/svg11.dtd">
<svg xmlns="http://www.w3.org/2000/svg" xmlns:xlink="http://www.w3.org/1999/xlink" version="1.1" baseProfile="full" width="24" height="24" viewBox="0 0 24.00 24.00" enable-background="new 0 0 24.00 24.00" xml:space="preserve">
	<g>
		<path fill="#000000" fill-opacity="1" stroke-width="1.33333" stroke-linejoin="miter" d="M 5,20L 19,20L 19,22L 5,22L 5,20 Z M 18.84,3.21C 17.7967,2.8472 16.6568,3.3988 16.294,4.4421C 16.0881,5.0342 16.1717,5.6887 16.52,6.21L 13.7,9.35L 13.14,5.64C 14.0476,5.0104 14.2729,3.7643 13.6433,2.8567C 13.0137,1.9491 11.7676,1.7238 10.86,2.3534C 9.95244,2.983 9.72711,4.2291 10.3567,5.1367C 10.493,5.3332 10.6635,5.5037 10.86,5.64L 10.3,9.35L 7.48,6.24C 8.13395,5.3498 7.94244,4.0981 7.05226,3.4441C 6.16207,2.7902 4.91031,2.9817 4.25636,3.8718C 3.85379,4.4198 3.75722,5.1348 4,5.77C 4.22159,6.3688 4.71575,6.8258 5.33,7L 7,13.15L 7,18L 17,18L 17,13.15L 18.67,7C 19.2843,6.8258 19.7784,6.3688 20,5.77C 20.3791,4.743 19.8621,3.602 18.84,3.21 Z "/>
	</g>
</svg>
