<?xml version="1.0" encoding="utf-8"?>
<!DOCTYPE svg PUBLIC "-//W3C//DTD SVG 1.1//EN" "http://www.w3.org/Graphics/SVG/1.1/DTD/svg11.dtd">
<svg xmlns="http://www.w3.org/2000/svg" xmlns:xlink="http://www.w3.org/1999/xlink" version="1.1" baseProfile="full" width="24" height="24" viewBox="0 0 24.00 24.00" enable-background="new 0 0 24.00 24.00" xml:space="preserve">
	<path fill="#000000" fill-opacity="1" stroke-width="0.2" stroke-linejoin="miter" d="M 19,22L 5,22L 5,20L 19,20L 19,22 Z M 17.1602,8.26C 18.2162,9.6303 18.855,11.276 19,13C 19,15.76 15.87,18 12,18C 8.13,18 5,15.76 5,13C 5,10.62 7.33,6.39 10.46,5.27C 10.164,4.9128 10.0014,4.4639 10,4C 10,2.8954 10.8954,2 12,2C 13.1046,2 14,2.8954 14,4C 13.9986,4.4639 13.836,4.9128 13.54,5.27C 14.3997,5.5965 15.1827,6.0969 15.84,6.74023L 11.29,11.29L 12.71,12.71L 17.1602,8.26 Z "/>
</svg>
