<?xml version="1.0" encoding="utf-8"?>
<!DOCTYPE svg PUBLIC "-//W3C//DTD SVG 1.1//EN" "http://www.w3.org/Graphics/SVG/1.1/DTD/svg11.dtd">
<svg xmlns="http://www.w3.org/2000/svg" xmlns:xlink="http://www.w3.org/1999/xlink" version="1.1" baseProfile="full" width="24" height="24" viewBox="0 0 24.00 24.00" enable-background="new 0 0 24.00 24.00" xml:space="preserve">
	<path fill="#000000" fill-opacity="1" stroke-linejoin="round" d="M 17.75,9.00001L 18.9503,8.23977C 19.5754,8.57795 20,9.2394 20,10L 20,21.75C 20,21.75 12,20 12,11L 12,10C 12,9.27043 12.3907,8.6321 12.9742,8.28276L 14.427,9L 15.9893,8.00001L 17.75,9.00001 Z M 14,2.00001C 15.5345,2.00001 16.8,3.15216 16.9784,4.63861C 17.9895,4.93241 18.8117,5.66998 19.2202,6.62648L 17.75,7.50001L 15.9893,6.5L 14.427,7.5L 12.7598,6.67423C 13.1506,5.72005 13.9507,4.97683 14.9417,4.66284C 14.8034,4.27645 14.434,4.00001 14,4.00001L 14,2.00001 Z M 10,10C 10,18 13.6304,19.8356 16,21.75C 16,21.75 8,20 8,11L 8,10C 8,9.27042 8.39065,8.63209 8.97419,8.28276L 10.3041,8.93934C 10.1114,9.24679 10,9.61039 10,10 Z M 10.427,7.49999L 8.75981,6.67422C 9.15064,5.72004 9.9507,4.97682 10.9417,4.66284C 10.8034,4.27644 10.434,4 9.99999,4L 9.99999,2.00001C 10.7683,2.00001 11.4692,2.28886 12,2.7639L 12,4.00001C 12.434,4.00001 12.8034,4.27645 12.9417,4.66284C 11.9507,4.97682 11.1506,5.72004 10.427,7.49999 Z M 6,10C 6,18 9.63041,19.8356 12,21.75C 12,21.75 4,20 4,11L 4,10C 4,9.27042 4.39065,8.63208 4.97419,8.28275L 6.30411,8.93933C 6.11141,9.24679 6,9.61038 6,10 Z M 6.42697,7.49999L 4.75981,6.67422C 5.15064,5.72003 5.9507,4.97681 6.94172,4.66283C 6.80337,4.27644 6.43396,4 5.99999,4L 5.99999,2C 6.76835,2 7.46923,2.28886 7.99999,2.76389L 7.99999,4C 8.43396,4 8.80337,4.27644 8.94172,4.66283C 7.9507,4.97682 7.15064,5.72004 6.42697,7.49999 Z "/>
</svg>
