<?xml version="1.0" encoding="utf-8"?>
<!DOCTYPE svg PUBLIC "-//W3C//DTD SVG 1.1//EN" "http://www.w3.org/Graphics/SVG/1.1/DTD/svg11.dtd">
<svg xmlns="http://www.w3.org/2000/svg" xmlns:xlink="http://www.w3.org/1999/xlink" version="1.1" baseProfile="full" width="24" height="24" viewBox="0 0 24.00 24.00" enable-background="new 0 0 24.00 24.00" xml:space="preserve">
	<path fill="#000000" fill-opacity="1" stroke-width="0.2" stroke-linejoin="round" d="M 13.75,9.00001L 14.9503,8.23977C 15.5754,8.57795 16,9.2394 16,10L 16,21.75C 16,21.75 8.00001,20 8,11L 8,10C 8,9.27043 8.39065,8.6321 8.97419,8.28276L 10.427,9L 11.9893,8.00001L 13.75,9.00001 Z M 10,2.00001C 11.5345,2.00001 12.8,3.15216 12.9785,4.63861C 13.9895,4.9324 14.8117,5.66998 15.2202,6.62647L 13.75,7.5L 11.9893,6.5L 10.427,7.5L 8.75982,6.67423C 9.15065,5.72004 9.95071,4.97682 10.9417,4.66284C 10.8034,4.27645 10.434,4.00001 10,4.00001L 10,2.00001 Z "/>
</svg>
