<?xml version="1.0" encoding="utf-8"?>
<!DOCTYPE svg PUBLIC "-//W3C//DTD SVG 1.1//EN" "http://www.w3.org/Graphics/SVG/1.1/DTD/svg11.dtd">
<svg xmlns="http://www.w3.org/2000/svg" xmlns:xlink="http://www.w3.org/1999/xlink" version="1.1" baseProfile="full" width="24" height="24" viewBox="0 0 24.00 24.00" enable-background="new 0 0 24.00 24.00" xml:space="preserve">
	<path fill="#000000" fill-opacity="1" stroke-width="0.2" stroke-linejoin="round" d="M 15.75,9.00001L 16.9503,8.23977C 17.5754,8.57795 18,9.2394 18,10L 18,21.75C 18,21.75 10,20 10,11L 10,10C 10,9.27043 10.3907,8.6321 10.9742,8.28276L 12.427,9L 13.9893,8.00001L 15.75,9.00001 Z M 12,2.00001C 13.5345,2.00001 14.8,3.15216 14.9785,4.63861C 15.9895,4.9324 16.8117,5.66998 17.2202,6.62648L 15.75,7.50001L 13.9893,6.5L 12.427,7.5L 10.7598,6.67423C 11.1506,5.72005 11.9507,4.97683 12.9417,4.66284C 12.8034,4.27645 12.434,4.00001 12,4.00001L 12,2.00001 Z M 8,10C 8,18 11.6304,19.8356 14,21.75C 14,21.75 6,20 6,11L 6,10C 6,9.27042 6.39065,8.63209 6.97419,8.28275L 8.30411,8.93934C 8.11141,9.24679 8,9.61039 8,10 Z M 8.42697,7.49999L 6.75981,6.67422C 7.15064,5.72004 7.9507,4.97682 8.94172,4.66284C 8.80337,4.27644 8.43396,4 7.99999,4L 7.99999,2.00001C 8.76835,2.00001 9.46924,2.28886 9.99999,2.7639L 9.99999,4C 10.434,4 10.8034,4.27645 10.9417,4.66284C 9.9507,4.97682 9.15064,5.72004 8.42697,7.49999 Z "/>
</svg>
