<?xml version="1.0" encoding="utf-8"?>
<!DOCTYPE svg PUBLIC "-//W3C//DTD SVG 1.1//EN" "http://www.w3.org/Graphics/SVG/1.1/DTD/svg11.dtd">
<svg xmlns="http://www.w3.org/2000/svg" xmlns:xlink="http://www.w3.org/1999/xlink" version="1.1" baseProfile="full" width="24" height="24" viewBox="0 0 24.00 24.00" enable-background="new 0 0 24.00 24.00" xml:space="preserve">
	<path fill="#000000" fill-opacity="1" stroke-width="1.33333" stroke-linejoin="miter" d="M 13,11C 13.552,11 14,11.448 14,12C 14,12.552 13.552,13 13,13C 12.448,13 12,12.552 12,12C 12,11.448 12.448,11 13,11 Z M 7.862,6.24801C 9.141,4.86601 10.97,4.00001 13,4.00001C 16.524,4.00001 19.443,6.61001 19.929,10L 22,10L 22,12L 16,12C 16,10.344 14.656,9.00001 13,9.00001C 11.344,9.00001 10,10.344 10,12L 2,12L 2,10L 2.045,10C 2.25,7.73201 3.144,5.66101 4.517,4.00001L 7.862,6.24801 Z M 6.728,7.89001L 5.057,6.76701C 4.532,7.75001 4.183,8.84201 4.055,10L 6.071,10C 6.178,9.25201 6.404,8.54201 6.728,7.89001 Z M 7.4,15.4L 6,14L 11.7888,14C 12.0318,14.4177 12.4845,14.7 13,14.7C 13.5155,14.7 13.9682,14.4177 14.2112,14L 20,14L 20,15.4C 18.39,14.42 18.46,15.75 18.46,15.75L 18.46,17.71L 16.5,19.67C 16.01,17.92 15.1,18.9 15.1,18.9L 13.7,20.3L 10.9,20.3C 11.88,18.69 10.55,18.76 10.55,18.76L 8.59,18.76L 6.63,16.8C 8.38,16.31 7.4,15.4 7.4,15.4 Z "/>
</svg>
