<?xml version="1.0" encoding="utf-8"?>
<!DOCTYPE svg PUBLIC "-//W3C//DTD SVG 1.1//EN" "http://www.w3.org/Graphics/SVG/1.1/DTD/svg11.dtd">
<svg xmlns="http://www.w3.org/2000/svg" xmlns:xlink="http://www.w3.org/1999/xlink" version="1.1" baseProfile="full" width="24" height="24" viewBox="0 0 24.00 24.00" enable-background="new 0 0 24.00 24.00" xml:space="preserve">
	<path fill="#000000" fill-opacity="1" stroke-width="1.33333" stroke-linejoin="miter" d="M 12,2C 6.47715,2 2,6.4772 2,12C 2,17.5228 6.47715,22 12,22C 17.5228,22 22,17.5228 22,12L 20,12C 20,16.4183 16.4183,20 12,20C 7.58172,20 4,16.4183 4,12C 4,7.5817 7.58172,4 12,4L 12,2 Z M 18.7813,3C 18.6096,3 18.4347,3.0653 18.3047,3.1953L 17.0781,4.4141L 19.5781,6.9141L 20.8047,5.6953C 21.0646,5.4353 21.0646,5.0005 20.8047,4.7539L 19.2461,3.1953C 19.1228,3.0653 18.9529,3 18.7813,3 Z M 16.373,5.1211L 9,12.5L 9,15L 11.5,15L 18.8711,7.6211L 16.373,5.1211 Z "/>
</svg>
