<?xml version="1.0" encoding="utf-8"?>
<!DOCTYPE svg PUBLIC "-//W3C//DTD SVG 1.1//EN" "http://www.w3.org/Graphics/SVG/1.1/DTD/svg11.dtd">
<svg xmlns="http://www.w3.org/2000/svg" xmlns:xlink="http://www.w3.org/1999/xlink" version="1.1" baseProfile="full" width="24" height="24" viewBox="0 0 24.00 24.00" enable-background="new 0 0 24.00 24.00" xml:space="preserve">
	<path fill="#000000" fill-opacity="1" stroke-linejoin="round" d="M 16,4L 20,8L 20,4M 20,16L 16,20L 20,20M 8,20L 4,16L 4,20M 4,8L 8,4L 4,4M 16.948,7.052C 14.2187,4.31734 9.78133,4.31734 7.052,7.052C 4.31733,9.78133 4.31733,14.2187 7.052,16.948C 9.78133,19.6827 14.2187,19.6827 16.948,16.948C 19.6827,14.2187 19.6827,9.792 16.948,7.052 Z M 15.8493,15.8493C 13.7187,17.9787 10.2813,17.9787 8.15067,15.8493C 6.02133,13.7187 6.02133,10.2813 8.15067,8.15067C 10.2813,6.02133 13.7187,6.02133 15.8493,8.15067C 17.9787,10.2813 17.9787,13.7187 15.8493,15.8493 Z "/>
</svg>
