<?xml version="1.0" encoding="utf-8"?>
<!DOCTYPE svg PUBLIC "-//W3C//DTD SVG 1.1//EN" "http://www.w3.org/Graphics/SVG/1.1/DTD/svg11.dtd">
<svg xmlns="http://www.w3.org/2000/svg" xmlns:xlink="http://www.w3.org/1999/xlink" version="1.1" baseProfile="full" width="24" height="24" viewBox="0 0 24.00 24.00" enable-background="new 0 0 24.00 24.00" xml:space="preserve">
	<path fill="#000000" fill-opacity="1" stroke-width="1.33333" stroke-linejoin="miter" d="M 12,2C 17.5,2 22,6.5 22,12C 22,17.5 17.5,22 12,22C 6.5,22 2,17.5 2,12C 2,6.5 6.5,2 12,2 Z M 12,4C 7.6,4 4,7.6 4,12C 4,16.4 7.6,20 12,20C 16.4,20 20,16.4 20,12C 20,7.6 16.4,4 12,4 Z M 12,19C 10.1,19 8.3,18.2 7.1,16.9C 5.9,15.6 5,13.9 5,12C 5,10.1 5.8,8.3 7.1,7.1C 8.4,5.9 10.1,5 12,5C 13.9,5 15.7,5.8 16.9,7.1C 18.1,8.4 19,10.1 19,12C 19,13.9 18.2,15.7 16.9,16.9C 15.6,18.1 13.9,19 12,19 Z "/>
</svg>
