<?xml version="1.0" encoding="utf-8"?>
<!DOCTYPE svg PUBLIC "-//W3C//DTD SVG 1.1//EN" "http://www.w3.org/Graphics/SVG/1.1/DTD/svg11.dtd">
<svg xmlns="http://www.w3.org/2000/svg" xmlns:xlink="http://www.w3.org/1999/xlink" version="1.1" baseProfile="full" width="24" height="24" viewBox="0 0 24.00 24.00" enable-background="new 0 0 24.00 24.00" xml:space="preserve">
	<path fill="#000000" fill-opacity="1" stroke-linejoin="round" d="M 12,2C 6.5,2 2,6.5 2,12C 2,17.5 6.5,22 12,22C 17.5,22 22,17.5 22,12C 22,6.5 17.5,2 12,2 Z M 12,4C 16.4013,4 20,7.59867 20,12C 20,16.4013 16.4013,20 12,20C 7.59866,20 4,16.4013 4,12C 4,7.59867 7.59866,4 12,4 Z M 12,6C 8.69733,6 6,8.69733 6,12C 6,15.3027 8.69733,18 12,18C 15.3027,18 18,15.3027 18,12C 18,8.69733 15.3027,6 12,6 Z M 12,8C 14.1973,8 16,9.80267 16,12C 16,14.1973 14.1973,16 12,16C 9.80266,16 8,14.1973 8,12C 8,9.80267 9.80266,8 12,8 Z "/>
</svg>
