<?xml version="1.0" encoding="utf-8"?>
<!DOCTYPE svg PUBLIC "-//W3C//DTD SVG 1.1//EN" "http://www.w3.org/Graphics/SVG/1.1/DTD/svg11.dtd">
<svg xmlns="http://www.w3.org/2000/svg" xmlns:xlink="http://www.w3.org/1999/xlink" version="1.1" baseProfile="full" width="24" height="24" viewBox="0 0 24.00 24.00" enable-background="new 0 0 24.00 24.00" xml:space="preserve">
	<path fill="#000000" fill-opacity="1" stroke-width="1.33333" stroke-linejoin="miter" d="M 19,9L 19,7C 19,5.8954 18.1046,5 17,5L 16,5L 16,2L 14,2L 14,5L 13,5C 11.8954,5 11,5.8954 11,7L 11,9C 9.89543,9 9,9.8954 9,11L 9,12L 5,12C 3.89543,12 3,12.8954 3,14L 3,22L 6,22L 6,20L 8,20L 8,22L 12,22L 12,20L 14,20L 14,22L 16,22L 16,20L 18,20L 18,22L 21,22L 21,11C 21,9.8954 20.1046,9 19,9 Z M 8,18L 6,18L 6,16L 8,16L 8,18 Z M 14,18L 12,18L 12,16L 14,16L 14,18 Z M 14,14L 12,14L 12,12L 14,12L 14,14 Z M 13,9L 13,7L 17,7L 17,9L 13,9 Z M 18,18L 16,18L 16,16L 18,16L 18,18 Z M 18,14L 16,14L 16,12L 18,12L 18,14 Z "/>
</svg>
