<?xml version="1.0" encoding="utf-8"?>
<!DOCTYPE svg PUBLIC "-//W3C//DTD SVG 1.1//EN" "http://www.w3.org/Graphics/SVG/1.1/DTD/svg11.dtd">
<svg xmlns="http://www.w3.org/2000/svg" xmlns:xlink="http://www.w3.org/1999/xlink" version="1.1" baseProfile="full" width="24" height="24" viewBox="0 0 24.00 24.00" enable-background="new 0 0 24.00 24.00" xml:space="preserve">
	<path fill="#000000" fill-opacity="1" stroke-width="1.33333" stroke-linejoin="miter" d="M 15,23L 13,23L 13,21L 15,21L 15,23 Z M 19,21L 17,21L 17,23L 19,23L 19,21 Z M 15,17L 13,17L 13,19L 15,19L 15,17 Z M 7,21L 5,21L 5,23L 7,23L 7,21 Z M 7,17L 5,17L 5,19L 7,19L 7,17 Z M 19,17L 17,17L 17,19L 19,19L 19,17 Z M 15,13L 13,13L 13,15L 15,15L 15,13 Z M 19,13L 17,13L 17,15L 19,15L 19,13 Z M 21,9C 22.1046,9 23,9.8954 23,11L 23,23L 21,23L 21,11L 11,11L 11,23L 9,23L 9,15L 3,15L 3,23L 1,23L 1,15C 1,13.8954 1.89543,13 3,13L 9,13L 9,11C 9,9.8954 9.89543,9 11,9L 11,7C 11,5.8954 11.8954,5 13,5L 15,5L 15,1L 17,1L 17,5L 19,5C 20.1046,5 21,5.8954 21,7L 21,9 Z M 19,9L 19,7L 13,7L 13,9L 19,9 Z "/>
</svg>
