<?xml version="1.0" encoding="utf-8"?>
<!DOCTYPE svg PUBLIC "-//W3C//DTD SVG 1.1//EN" "http://www.w3.org/Graphics/SVG/1.1/DTD/svg11.dtd">
<svg xmlns="http://www.w3.org/2000/svg" xmlns:xlink="http://www.w3.org/1999/xlink" version="1.1" baseProfile="full" width="24" height="24" viewBox="0 0 24.00 24.00" enable-background="new 0 0 24.00 24.00" xml:space="preserve">
	<g>
		<path fill="#000000" fill-opacity="1" stroke-width="1.33333" stroke-linejoin="miter" d="M 19,4L 14.82,4C 14.2547,2.4426 12.5339,1.6382 10.9765,2.2035C 10.1411,2.5067 9.48319,3.1647 9.18,4L 5,4C 3.89543,4 3,4.8954 3,6L 3,20C 3,21.1046 3.89543,22 5,22L 19,22C 20.1046,22 21,21.1046 21,20L 21,6C 21,4.8954 20.1046,4 19,4 Z M 12,4C 12.5523,4 13,4.4477 13,5C 13,5.5523 12.5523,6 12,6C 11.4477,6 11,5.5523 11,5C 11,4.4477 11.4477,4 12,4 Z M 10,17L 8,17L 8,10L 5,10L 9,6L 13,10L 10,10L 10,17 Z M 15,20L 11,16L 14,16L 14,9L 16,9L 16,16L 19,16L 15,20 Z "/>
	</g>
</svg>
