<?xml version="1.0" encoding="utf-8"?>
<!DOCTYPE svg PUBLIC "-//W3C//DTD SVG 1.1//EN" "http://www.w3.org/Graphics/SVG/1.1/DTD/svg11.dtd">
<svg xmlns="http://www.w3.org/2000/svg" xmlns:xlink="http://www.w3.org/1999/xlink" version="1.1" baseProfile="full" width="24" height="24" viewBox="0 0 24.00 24.00" enable-background="new 0 0 24.00 24.00" xml:space="preserve">
	<path fill="#000000" fill-opacity="1" stroke-width="0.2" stroke-linejoin="round" d="M 9.00012,3.99997C 9.00012,2.34313 10.3432,0.999949 12.0001,0.999949C 13.6569,0.999949 15.0001,2.34313 15.0001,3.99997L 18.9998,4.00009C 20.1044,4.00009 20.9998,4.89551 20.9998,6.00006L 20.9998,19C 20.9998,20.1046 20.1044,21 18.9998,21L 5,21C 3.89543,21 3,20.1046 3,19L 3,6.00006C 3,4.89551 3.89543,4.00009 5,4.00009L 9.00012,3.99997 Z M 12.0001,2.99993C 11.4477,2.99993 11.0001,3.44761 11.0001,3.99995C 11.0001,4.55223 11.4478,4.99994 12.0001,4.99994C 12.5523,4.99994 13.0001,4.55223 13.0001,3.99995C 13.0001,3.44761 12.5524,2.99993 12.0001,2.99993 Z M 13,12L 13,9.00001L 11,9.00001L 11,12L 8,12L 8,14L 11,14L 11,17L 13,17L 13,14L 16,14L 16,12L 13,12 Z "/>
</svg>
