<?xml version="1.0" encoding="utf-8"?>
<!DOCTYPE svg PUBLIC "-//W3C//DTD SVG 1.1//EN" "http://www.w3.org/Graphics/SVG/1.1/DTD/svg11.dtd">
<svg xmlns="http://www.w3.org/2000/svg" xmlns:xlink="http://www.w3.org/1999/xlink" version="1.1" baseProfile="full" width="24" height="24" viewBox="0 0 24.00 24.00" enable-background="new 0 0 24.00 24.00" xml:space="preserve">
	<path fill="#000000" fill-opacity="1" stroke-width="0.2" stroke-linejoin="miter" d="M 19,3C 20.1,3 21,3.9 21,5L 21,19C 21,20.1 20.1,21 19,21L 5,21C 3.9,21 3,20.1 3,19L 3,5C 3,3.9 3.9,3 5,3L 9.18,3C 9.6,1.83984 10.7,1 12,1C 13.3,1 14.4,1.83984 14.82,3L 19,3 Z M 12,3C 11.45,3 11,3.45 11,4C 11,4.55 11.45,5 12,5C 12.55,5 13,4.55 13,4C 13,3.45 12.55,3 12,3 Z M 7,7L 7,5L 5,5L 5,19L 19,19L 19,5L 17,5L 17,7L 7,7 Z M 12,9C 13.1046,9 14,9.89544 14,11C 14,12.1046 13.1046,13 12,13C 10.8954,13 10,12.1046 10,11C 10,9.89544 10.8954,9 12,9 Z M 8,17L 8,16C 8,14.8954 9.79086,14 12,14C 14.2091,14 16,14.8954 16,16L 16,17L 8,17 Z "/>
</svg>
