<?xml version="1.0" encoding="utf-8"?>
<!DOCTYPE svg PUBLIC "-//W3C//DTD SVG 1.1//EN" "http://www.w3.org/Graphics/SVG/1.1/DTD/svg11.dtd">
<svg xmlns="http://www.w3.org/2000/svg" xmlns:xlink="http://www.w3.org/1999/xlink" version="1.1" baseProfile="full" width="24" height="24" viewBox="0 0 24.00 24.00" enable-background="new 0 0 24.00 24.00" xml:space="preserve">
	<path fill="#000000" fill-opacity="1" stroke-width="0.2" stroke-linejoin="miter" d="M 19,3L 14.82,3C 14.2547,1.4426 12.5339,0.638199 10.9765,1.2035C 10.1411,1.5067 9.48319,2.1647 9.18,3L 5,3C 3.89543,3 3,3.8954 3,5L 3,19C 3,20.1046 3.89543,21 5,21L 19,21C 20.1046,21 21,20.1046 21,19L 21,5C 21,3.8954 20.1046,3 19,3M 12,3C 12.5523,3 13,3.4477 13,4C 13,4.5523 12.5523,5 12,5C 11.4477,5 11,4.5523 11,4C 11,3.4477 11.4477,3 12,3M 7,7L 17,7L 17,5L 19,5L 19,19L 5,19L 5,5L 7,5L 7,7 Z M 17,11L 7,11L 7,9L 17,9L 17,11 Z M 15,15L 7,15L 7,13L 15,13L 15,15 Z "/>
</svg>
