<?xml version="1.0" encoding="utf-8"?>
<!DOCTYPE svg PUBLIC "-//W3C//DTD SVG 1.1//EN" "http://www.w3.org/Graphics/SVG/1.1/DTD/svg11.dtd">
<svg xmlns="http://www.w3.org/2000/svg" xmlns:xlink="http://www.w3.org/1999/xlink" version="1.1" baseProfile="full" width="24" height="24" viewBox="0 0 24.00 24.00" enable-background="new 0 0 24.00 24.00" xml:space="preserve">
	<path fill="#000000" fill-opacity="1" stroke-width="0.2" stroke-linejoin="round" d="M 5,16.0204L 5,20L 19,20L 19,16.0204L 15.8889,16.0204L 14.074,14.2055L 10.3792,18.9176L 9.61954,13.1473L 8.11111,16.0204L 5,16.0204 Z M 19,14.4648L 19,7L 5,7L 5,14.4648L 7.17089,14.4648L 10.5217,8.08244L 11.4384,15.0457L 13.9328,11.8645L 16.5332,14.4648L 19,14.4648 Z M 9.00021,4.99998C 9.00021,3.34314 10.3433,1.99996 12.0002,1.99996C 13.657,1.99996 15.0002,3.34314 15.0002,4.99998L 18.9999,5.0001C 20.1045,5.0001 20.9999,5.89552 20.9999,7.00007L 20.9999,20C 20.9999,21.1046 20.1045,22 18.9999,22L 5.00009,22C 3.89552,22 3.00009,21.1046 3.00009,20L 3.00009,7.00007C 3.00009,5.89552 3.89552,5.0001 5.00009,5.0001L 9.00021,4.99998 Z M 12.0002,3.99994C 11.4478,3.99994 11.0002,4.44763 11.0002,4.99997C 11.0002,5.55224 11.4479,5.99996 12.0002,5.99996C 12.5524,5.99996 13.0001,5.55224 13.0001,4.99997C 13.0001,4.44763 12.5525,3.99994 12.0002,3.99994 Z "/>
</svg>
