<?xml version="1.0" encoding="utf-8"?>
<!DOCTYPE svg PUBLIC "-//W3C//DTD SVG 1.1//EN" "http://www.w3.org/Graphics/SVG/1.1/DTD/svg11.dtd">
<svg xmlns="http://www.w3.org/2000/svg" xmlns:xlink="http://www.w3.org/1999/xlink" version="1.1" baseProfile="full" width="24" height="24" viewBox="0 0 24.00 24.00" enable-background="new 0 0 24.00 24.00" xml:space="preserve">
	<path fill="#000000" fill-opacity="1" stroke-width="1.33333" stroke-linejoin="miter" d="M 19,3.00001C 20.1046,3.00001 21,3.8954 21,5L 21,13.34C 20.3567,13.1125 19.6792,12.9965 18.9969,12.9969C 15.6831,12.9986 12.9983,15.6863 13,19C 12.9975,19.6843 13.1144,20.3608 13.3427,21L 5,21C 3.89543,21 3,20.1046 3,19L 3,5C 3,3.8954 3.89543,3.00001 5,3.00001L 9.18,3.00001C 9.48319,2.16471 10.1411,1.50671 10.9765,1.20351C 12.5339,0.638208 14.2547,1.44261 14.82,3.00001L 19,3.00001 Z M 12,3.00001C 11.4477,3.00001 11,3.44771 11,4.00001C 11,4.55231 11.4477,5.00001 12,5.00001C 12.5523,5.00001 13,4.55231 13,4.00001C 13,3.44771 12.5523,3.00001 12,3.00001 Z M 11,17L 11,15L 7,15L 7,17L 11,17 Z M 13,13L 13,11L 7,11L 7,13L 13,13 Z M 17,9.00001L 17,7.00001L 7,7.00001L 7,9.00001L 17,9.00001 Z M 17,16L 22,19L 17,22L 17,16 Z "/>
</svg>
