<?xml version="1.0" encoding="utf-8"?>
<!DOCTYPE svg PUBLIC "-//W3C//DTD SVG 1.1//EN" "http://www.w3.org/Graphics/SVG/1.1/DTD/svg11.dtd">
<svg xmlns="http://www.w3.org/2000/svg" xmlns:xlink="http://www.w3.org/1999/xlink" version="1.1" baseProfile="full" width="24" height="24" viewBox="0 0 24.00 24.00" enable-background="new 0 0 24.00 24.00" xml:space="preserve">
	<path fill="#000000" fill-opacity="1" stroke-width="1.33333" stroke-linejoin="miter" d="M 19,4L 14.82,4C 14.2547,2.4426 12.5339,1.6382 10.9765,2.2035C 10.1411,2.5067 9.48319,3.1647 9.18,4L 5,4C 3.89543,4 3,4.8954 3,6L 3,20C 3,21.1046 3.89543,22 5,22L 19,22C 20.1046,22 21,21.1046 21,20L 21,6C 21,4.8954 20.1046,4 19,4M 12,4C 12.5523,4 13,4.4477 13,5C 13,5.5523 12.5523,6 12,6C 11.4477,6 11,5.5523 11,5C 11,4.4477 11.4477,4 12,4M 7,8L 17,8L 17,6L 19,6L 19,20L 5,20L 5,6L 7,6L 7,8 Z M 17,12L 7,12L 7,10L 17,10L 17,12 Z M 15,16L 7,16L 7,14L 15,14L 15,16 Z "/>
</svg>
