<?xml version="1.0" encoding="utf-8"?>
<!DOCTYPE svg PUBLIC "-//W3C//DTD SVG 1.1//EN" "http://www.w3.org/Graphics/SVG/1.1/DTD/svg11.dtd">
<svg xmlns="http://www.w3.org/2000/svg" xmlns:xlink="http://www.w3.org/1999/xlink" version="1.1" baseProfile="full" width="24" height="24" viewBox="0 0 24.00 24.00" enable-background="new 0 0 24.00 24.00" xml:space="preserve">
	<path fill="#000000" fill-opacity="1" stroke-linejoin="round" d="M 18,19L 6,19L 6,17.6C 6,15.6 10,14.5 12,14.5C 14,14.5 18,15.6 18,17.6M 12,7C 13.66,7 15,8.34 15,10C 15,11.66 13.66,13 12,13C 10.34,13 9,11.66 9,10C 9,8.34 10.34,7 12,7 Z M 12,3C 12.55,3 13,3.45 13,4C 13,4.55 12.55,5 12,5C 11.45,5 11,4.55 11,4C 11,3.45 11.45,3 12,3 Z M 19,3L 14.82,3C 14.4,1.84 13.3,1 12,1C 10.7,1 9.6,1.84 9.18,3L 5,3C 3.9,3 3,3.9 3,5L 3,19C 3,20.1 3.9,21 5,21L 19,21C 20.1,21 21,20.1 21,19L 21,5C 21,3.9 20.1,3 19,3 Z "/>
</svg>
