<?xml version="1.0" encoding="utf-8"?>
<!DOCTYPE svg PUBLIC "-//W3C//DTD SVG 1.1//EN" "http://www.w3.org/Graphics/SVG/1.1/DTD/svg11.dtd">
<svg xmlns="http://www.w3.org/2000/svg" xmlns:xlink="http://www.w3.org/1999/xlink" version="1.1" baseProfile="full" width="24" height="24" viewBox="0 0 24.00 24.00" enable-background="new 0 0 24.00 24.00" xml:space="preserve">
	<path fill="#000000" fill-opacity="1" stroke-width="0.2" stroke-linejoin="miter" d="M 19,3C 20.1,3 21,3.90001 21,5L 21,19C 21,20.1 20.1,21 19,21L 5,21C 3.9,21 3,20.1 3,19L 3,5C 3,3.90001 3.9,3 5,3L 9.18,3C 9.6,1.83985 10.7,1.00001 12,1.00001C 13.3,1.00001 14.4,1.83985 14.82,3L 19,3 Z M 12,8.00001L 7,13L 10,13L 10,17L 14,17L 14,13L 17,13L 12,8.00001 Z M 12,3.00001C 11.45,3.00001 11,3.45001 11,4.00001C 11,4.55 11.45,5.00001 12,5.00001C 12.55,5.00001 13,4.55 13,4.00001C 13,3.45001 12.55,3.00001 12,3.00001 Z "/>
</svg>
