<?xml version="1.0" encoding="utf-8"?>
<!DOCTYPE svg PUBLIC "-//W3C//DTD SVG 1.1//EN" "http://www.w3.org/Graphics/SVG/1.1/DTD/svg11.dtd">
<svg xmlns="http://www.w3.org/2000/svg" xmlns:xlink="http://www.w3.org/1999/xlink" version="1.1" baseProfile="full" width="24" height="24" viewBox="0 0 24.00 24.00" enable-background="new 0 0 24.00 24.00" xml:space="preserve">
	<path fill="#000000" fill-opacity="1" stroke-width="1.33333" stroke-linejoin="miter" d="M 11.9941,1.998C 6.46709,1.998 2,6.475 2,11.998C 2,17.5211 6.46709,21.998 11.9941,21.998C 14.2511,21.998 16.3262,21.2422 18,19.9824L 18,17.2773C 16.5342,18.9418 14.3933,19.998 12,19.998C 7.57999,19.998 4,16.4161 4,11.998C 4,7.58 7.57999,3.998 12,3.998C 15.3584,3.998 18.2275,6.0686 19.4141,9L 21.541,9C 20.267,4.9415 16.4753,1.998 11.9941,1.998 Z M 11,6.998L 11,12.998L 16.2461,16.1484L 17,14.918L 12.5,12.248L 12.5,6.998L 11,6.998 Z M 20,11L 20,18L 22,18L 22,11L 20,11 Z M 20,20L 20,22L 22,22L 22,20L 20,20 Z "/>
</svg>
