<?xml version="1.0" encoding="utf-8"?>
<!DOCTYPE svg PUBLIC "-//W3C//DTD SVG 1.1//EN" "http://www.w3.org/Graphics/SVG/1.1/DTD/svg11.dtd">
<svg xmlns="http://www.w3.org/2000/svg" xmlns:xlink="http://www.w3.org/1999/xlink" version="1.1" baseProfile="full" width="24" height="24" viewBox="0 0 24.00 24.00" enable-background="new 0 0 24.00 24.00" xml:space="preserve">
	<path fill="#000000" fill-opacity="1" stroke-width="0.2" stroke-linejoin="round" d="M 2.2075,0.79125L 0.791254,2.20801L 4.795,6.20625L 2.9975,7.9975L 7.9975,7.9975L 7.9975,2.9978L 6.20625,4.795M 12.0025,7.9975C 8.135,7.9975 5,11.1325 5,15C 5,18.8675 8.135,22.0025 12.0025,22.0025C 15.8638,22.0025 18.9988,18.8675 18.9988,15C 18.9988,11.1325 15.8638,7.9975 12.0025,7.9975 Z M 11.9975,10.1512C 14.6725,10.1512 16.8462,12.3238 16.8462,15C 16.8462,17.6812 14.6725,19.8537 11.9975,19.8537C 9.31625,19.8537 7.14875,17.6812 7.14875,15C 7.14875,12.3238 9.31625,10.1512 11.9975,10.1512 Z M 11.0013,12.0025L 11.0013,15.6887L 14.19,17.5287L 14.9362,16.23L 12.5,14.8237L 12.5,12.0025"/>
</svg>
