<?xml version="1.0" encoding="utf-8"?>
<!DOCTYPE svg PUBLIC "-//W3C//DTD SVG 1.1//EN" "http://www.w3.org/Graphics/SVG/1.1/DTD/svg11.dtd">
<svg xmlns="http://www.w3.org/2000/svg" xmlns:xlink="http://www.w3.org/1999/xlink" version="1.1" baseProfile="full" width="24" height="24" viewBox="0 0 24.00 24.00" enable-background="new 0 0 24.00 24.00" xml:space="preserve">
	<path fill="#000000" fill-opacity="1" stroke-width="0.2" stroke-linejoin="miter" d="M 11.7003,6.00073L 11.0003,6.00073L 11.0003,12.8L 16.0006,16.0005L 16.4007,15.4005L 12.5352,12.0006L 11.7003,6.00073M 12.0001,20.0004C 7.5804,20.0004 4.00033,16.4185 4.00033,12.0006C 4.00033,7.58264 7.5804,4.00024 12.0001,4.00024C 16.4202,4.00024 20.0003,7.58264 20.0003,12.0006C 20.0003,16.4185 16.4202,20.0004 12.0001,20.0004M 11.995,2.00037C 6.46859,2.00037 2.00033,6.47778 2.00033,12.0006C 2.00033,17.5234 6.46859,22.0002 11.995,22.0002C 17.5211,22.0002 22.0003,17.5234 22.0003,12.0006C 22.0003,6.47778 17.5211,2.00037 11.995,2.00037"/>
</svg>
