<?xml version="1.0" encoding="utf-8"?>
<!DOCTYPE svg PUBLIC "-//W3C//DTD SVG 1.1//EN" "http://www.w3.org/Graphics/SVG/1.1/DTD/svg11.dtd">
<svg xmlns="http://www.w3.org/2000/svg" xmlns:xlink="http://www.w3.org/1999/xlink" version="1.1" baseProfile="full" width="24" height="24" viewBox="0 0 24.00 24.00" enable-background="new 0 0 24.00 24.00" xml:space="preserve">
	<path fill="#000000" fill-opacity="1" stroke-width="1.33333" stroke-linejoin="miter" d="M 3,21L 19,21L 19,23L 3,23C 1.89543,23 1,22.1046 1,21L 1,5L 3,5L 3,21 Z M 23,3L 23,17C 23,18.1046 22.1046,19 21,19L 7,19C 5.89543,19 5,18.1046 5,17L 5,3C 5,1.8954 5.89543,1 7,1L 21,1C 22.1046,1 23,1.8954 23,3 Z M 15.4,10L 19,6.4L 17.6,5L 14,8.6L 10.4,5L 9,6.4L 12.6,10L 9,13.6L 10.4,15L 14,11.4L 17.6,15L 19,13.6L 15.4,10 Z "/>
</svg>
