<?xml version="1.0" encoding="utf-8"?>
<!DOCTYPE svg PUBLIC "-//W3C//DTD SVG 1.1//EN" "http://www.w3.org/Graphics/SVG/1.1/DTD/svg11.dtd">
<svg xmlns="http://www.w3.org/2000/svg" xmlns:xlink="http://www.w3.org/1999/xlink" version="1.1" baseProfile="full" width="24" height="24" viewBox="0 0 24.00 24.00" enable-background="new 0 0 24.00 24.00" xml:space="preserve">
	<path fill="#000000" fill-opacity="1" stroke-linejoin="round" d="M 12,20C 7.59,20 4,16.41 4,12C 4,7.59 7.59,4 12,4C 16.41,4 20,7.59 20,12C 20,16.41 16.41,20 12,20 Z M 12,2C 6.47,2 2,6.47 2,12C 2,17.53 6.47,22 12,22C 17.53,22 22,17.53 22,12C 22,6.47 17.53,2 12,2 Z M 14.59,8L 12,10.59L 9.41,8L 8,9.41L 10.59,12L 8,14.59L 9.41,16L 12,13.41L 14.59,16L 16,14.59L 13.41,12L 16,9.41L 14.59,8 Z "/>
</svg>
