<?xml version="1.0" encoding="utf-8"?>
<!DOCTYPE svg PUBLIC "-//W3C//DTD SVG 1.1//EN" "http://www.w3.org/Graphics/SVG/1.1/DTD/svg11.dtd">
<svg xmlns="http://www.w3.org/2000/svg" xmlns:xlink="http://www.w3.org/1999/xlink" version="1.1" baseProfile="full" width="24" height="24" viewBox="0 0 24.00 24.00" enable-background="new 0 0 24.00 24.00" xml:space="preserve">
	<path fill="#000000" fill-opacity="1" stroke-width="1.33333" stroke-linejoin="miter" d="M 5.01563,3.9844C 4.45313,3.9844 3.97656,4.1797 3.58594,4.5703C 3.19531,4.9609 3,5.4375 3,6L 3,18C 3,18.5625 3.19531,19.0391 3.58594,19.4297C 3.97656,19.8203 4.45313,20.0156 5.01563,20.0156L 18.9844,20.0156C 19.5156,20.0156 19.9844,19.8125 20.3906,19.4062C 20.7969,19 21,18.5312 21,18L 21,6C 21,5.4687 20.7969,5 20.3906,4.5937C 19.9844,4.1875 19.5156,3.9844 18.9844,3.9844L 5.01563,3.9844 Z M 4.5,5.4844L 19.5,5.4844L 19.5,18.5156L 4.5,18.5156L 4.5,5.4844 Z M 6.98438,9C 6.70313,9 6.46875,9.0937 6.28125,9.2812C 6.09375,9.4687 6,9.7031 6,9.9844L 6,14.0156C 6,14.2969 6.09375,14.5312 6.28125,14.7187C 6.46875,14.9062 6.70313,15 6.98438,15L 9.98438,15C 10.2656,15 10.5078,14.9062 10.7109,14.7187C 10.9141,14.5312 11.0156,14.2969 11.0156,14.0156L 11.0156,12.9844L 9.51562,12.9844L 9.51562,13.5L 7.5,13.5L 7.5,10.5L 9.51563,10.5L 9.51563,11.0156L 11.0156,11.0156L 11.0156,9.9844C 11.0156,9.7031 10.9141,9.4687 10.7109,9.2812C 10.5078,9.0937 10.2656,9 9.98438,9L 6.98438,9 Z M 14.0156,9C 13.7344,9 13.4922,9.0937 13.2891,9.2812C 13.0859,9.4687 12.9844,9.7031 12.9844,9.9844L 12.9844,14.0156C 12.9844,14.2969 13.0859,14.5312 13.2891,14.7187C 13.4922,14.9062 13.7344,15 14.0156,15L 17.0156,15C 17.2969,15 17.5313,14.9062 17.7188,14.7187C 17.9063,14.5312 18,14.2969 18,14.0156L 18,12.9844L 16.5,12.9844L 16.5,13.5L 14.4844,13.5L 14.4844,10.5L 16.5,10.5L 16.5,11.0156L 18,11.0156L 18,9.9844C 18,9.7031 17.9063,9.4687 17.7188,9.2812C 17.5313,9.0937 17.2969,9 17.0156,9L 14.0156,9 Z "/>
</svg>
