<?xml version="1.0" encoding="utf-8"?>
<!DOCTYPE svg PUBLIC "-//W3C//DTD SVG 1.1//EN" "http://www.w3.org/Graphics/SVG/1.1/DTD/svg11.dtd">
<svg xmlns="http://www.w3.org/2000/svg" xmlns:xlink="http://www.w3.org/1999/xlink" version="1.1" baseProfile="full" width="24" height="24" viewBox="0 0 24.00 24.00" enable-background="new 0 0 24.00 24.00" xml:space="preserve">
	<path fill="#000000" fill-opacity="1" stroke-width="0.2" stroke-linejoin="round" d="M 6,20C 2.68629,20 0,17.3137 0,14C 0,10.9071 2.34023,8.36077 5.34658,8.03517C 6.59795,5.63709 9.10779,4 12,4C 15.6328,4 18.6623,6.58278 19.3524,10.0122C 21.9494,10.1931 24,12.3571 24,15C 24,17.7614 21.7614,20 19,20L 6,20 Z M 18.5,12L 18,12C 17.4477,12 17,11.5523 17,11L 17,10C 17,8.89545 16.1046,8.00002 15,8.00002L 13.5,8.00003L 13.5,10L 15,10L 15,11C 15,12.1046 15.8954,13 17,13C 15.8954,13 15,13.8954 15,15L 15,16L 13.5,16L 13.5,18L 15,18C 16.1045,18 17,17.1046 17,16L 17,15C 17,14.4477 17.4477,14 18,14L 18.5,14L 18.5,12 Z M 5.5,12L 5.5,14L 6,14C 6.55227,14 6.99999,14.4477 6.99999,15L 6.99999,16C 6.99999,17.1046 7.89542,18 8.99999,18L 10.5,18L 10.5,16L 8.99999,16L 8.99999,15C 8.99998,13.8954 8.10455,13 6.99998,13C 8.10455,13 8.99999,12.1046 8.99999,11L 9,10L 10.5,10L 10.5,8.00002L 8.99998,8C 7.89541,8 6.99999,8.89544 6.99999,10L 6.99999,11C 6.99998,11.5523 6.55226,12 5.99998,12L 5.5,12 Z "/>
</svg>
