<?xml version="1.0" encoding="utf-8"?>
<!DOCTYPE svg PUBLIC "-//W3C//DTD SVG 1.1//EN" "http://www.w3.org/Graphics/SVG/1.1/DTD/svg11.dtd">
<svg xmlns="http://www.w3.org/2000/svg" xmlns:xlink="http://www.w3.org/1999/xlink" version="1.1" baseProfile="full" width="24" height="24" viewBox="0 0 24.00 24.00" enable-background="new 0 0 24.00 24.00" xml:space="preserve">
	<path fill="#000000" fill-opacity="1" stroke-width="0.2" stroke-linejoin="round" d="M 12.0025,3.99875C 15.64,3.99875 18.6725,6.5875 19.35,10.0388C 21.9482,10.22 23.9987,12.3588 23.9987,15C 23.9987,17.7587 21.7578,20 18.9988,20L 6.00125,20C 2.69,20 0,17.31 0,13.9987C 0,10.9087 2.33875,8.35875 5.35125,8.0375C 6.60125,5.64 9.11125,3.99875 12.0025,3.99875 Z M 7.485,9.6925C 6.055,11.4838 6.20125,14.0625 7.8175,15.6838C 8.6625,16.5237 9.81,16.9975 11.0012,16.9925L 11.0012,18.8625L 13.8287,16.035L 11.0012,13.2075L 11.0012,14.995C 10.3375,15 9.7025,14.7362 9.23375,14.2675C 8.39375,13.4275 8.26125,12.1137 8.91625,11.1225L 7.485,9.6925 Z M 9.17,8.965L 10.62,10.415L 12.0025,11.7925L 12.0025,10.005C 12.6612,10 13.3012,10.2638 13.77,10.7325C 14.605,11.5725 14.7362,12.8863 14.0825,13.8775L 15.5125,15.3075C 16.9438,13.515 16.8013,10.9375 15.1812,9.31625C 14.3363,8.47625 13.1937,8.0025 12.0025,8.0075L 12.0025,6.1375L 9.17,8.965 Z "/>
</svg>
