<?xml version="1.0" encoding="utf-8"?>
<!DOCTYPE svg PUBLIC "-//W3C//DTD SVG 1.1//EN" "http://www.w3.org/Graphics/SVG/1.1/DTD/svg11.dtd">
<svg xmlns="http://www.w3.org/2000/svg" xmlns:xlink="http://www.w3.org/1999/xlink" version="1.1" baseProfile="full" width="24" height="24" viewBox="0 0 24.00 24.00" enable-background="new 0 0 24.00 24.00" xml:space="preserve">
	<path fill="#000000" fill-opacity="1" stroke-width="0.2" stroke-linejoin="round" d="M 6,20C 2.68629,20 -6.35783e-007,17.3137 -6.35783e-007,14C -6.35783e-007,10.9071 2.34024,8.36077 5.34658,8.03517C 6.59795,5.63709 9.1078,4 12,4C 15.6328,4 18.6623,6.58278 19.3524,10.0122C 21.9494,10.1931 24,12.3571 24,15C 24,17.7614 21.7614,20 19,20L 6,20 Z M 16.5254,10.5345L 15.5341,9.52602L 9.98236,14.9833L 7.50099,12.4995L 6.50149,13.498L 10,17L 10.9995,16.0015L 10.9819,15.9838L 16.5254,10.5345 Z "/>
</svg>
