<?xml version="1.0" encoding="utf-8"?>
<!DOCTYPE svg PUBLIC "-//W3C//DTD SVG 1.1//EN" "http://www.w3.org/Graphics/SVG/1.1/DTD/svg11.dtd">
<svg xmlns="http://www.w3.org/2000/svg" xmlns:xlink="http://www.w3.org/1999/xlink" version="1.1" baseProfile="full" width="24" height="24" viewBox="0 0 24.00 24.00" enable-background="new 0 0 24.00 24.00" xml:space="preserve">
	<path fill="#000000" fill-opacity="1" stroke-width="0.2" stroke-linejoin="round" d="M 16.4994,15.9981L 7.9994,15.9981C 6.3424,15.9981 4.9994,14.6551 4.9994,12.9981C 4.9994,11.3411 6.3424,9.99807 7.9994,9.99807C 8.0464,9.99807 8.0904,10.0101 8.1364,10.0121C 8.5774,8.28206 10.1324,6.99807 11.9994,6.99807C 14.2084,6.99807 15.9994,8.78905 15.9994,10.9981L 16.4994,10.9981C 17.8804,10.9981 18.9994,12.1171 18.9994,13.4981C 18.9994,14.8791 17.8804,15.9981 16.4994,15.9981 Z M 11.9994,1.99807C 6.4764,1.99807 1.9994,6.47506 1.9994,11.9981C 1.9994,17.5211 6.4764,21.9981 11.9994,21.9981C 17.5224,21.9981 21.9994,17.5211 21.9994,11.9981C 21.9994,6.47506 17.5224,1.99807 11.9994,1.99807 Z "/>
</svg>
