<?xml version="1.0" encoding="utf-8"?>
<!DOCTYPE svg PUBLIC "-//W3C//DTD SVG 1.1//EN" "http://www.w3.org/Graphics/SVG/1.1/DTD/svg11.dtd">
<svg xmlns="http://www.w3.org/2000/svg" xmlns:xlink="http://www.w3.org/1999/xlink" version="1.1" baseProfile="full" width="24" height="24" viewBox="0 0 24.00 24.00" enable-background="new 0 0 24.00 24.00" xml:space="preserve">
	<path fill="#000000" fill-opacity="1" stroke-width="1.33333" stroke-linejoin="miter" d="M 19.35,10.03C 18.67,6.59 15.64,4 12,4C 9.11,4 6.6,5.64 5.35,8.03C 2.34,8.36 1.27157e-006,10.9 1.27157e-006,14C 1.27157e-006,17.314 2.686,20 6,20L 19,20C 21.761,20 24,17.761 24,15C 24,12.36 21.95,10.22 19.35,10.03 Z M 13.006,17L 11.006,17L 11.006,15L 13.006,15L 13.006,17 Z M 14.796,11.8182C 14.506,12.2109 14.126,12.5164 13.666,12.7455C 13.406,12.9091 13.236,13.0727 13.146,13.2582C 13.056,13.4545 13.006,13.6945 13.006,14L 11.006,14C 11.006,13.4545 11.106,13.0836 11.296,12.8218C 11.506,12.56 11.846,12.2545 12.366,11.9055C 12.626,11.7527 12.836,11.5564 13.006,11.3164C 13.146,11.0873 13.226,10.8145 13.226,10.5091C 13.226,10.1818 13.136,9.94182 12.956,9.75636C 12.776,9.56 12.506,9.47273 12.196,9.47273C 11.926,9.47273 11.706,9.54909 11.506,9.70182C 11.346,9.85455 11.246,10.0836 11.246,10.3891L 9.276,10.3891C 9.226,9.63636 9.506,8.98182 10.056,8.58909C 10.596,8.19637 11.306,8 12.196,8C 13.136,8 13.886,8.22909 14.426,8.67636C 14.966,9.13455 15.236,9.74546 15.236,10.5091C 15.236,10.9891 15.086,11.4145 14.796,11.8182 Z "/>
</svg>
