<?xml version="1.0" encoding="utf-8"?>
<!DOCTYPE svg PUBLIC "-//W3C//DTD SVG 1.1//EN" "http://www.w3.org/Graphics/SVG/1.1/DTD/svg11.dtd">
<svg xmlns="http://www.w3.org/2000/svg" xmlns:xlink="http://www.w3.org/1999/xlink" version="1.1" baseProfile="full" width="24" height="24" viewBox="0 0 24.00 24.00" enable-background="new 0 0 24.00 24.00" xml:space="preserve">
	<path fill="#000000" fill-opacity="1" stroke-width="0.2" stroke-linejoin="round" d="M 18.9997,17.9981L 5.9997,17.9981C 3.79071,17.9981 1.9997,16.2071 1.9997,13.9981C 1.9997,11.7891 3.79071,9.99807 5.9997,9.99807L 6.7117,9.99807C 7.3657,7.69106 9.48271,5.99807 11.9997,5.99807C 15.0367,5.99807 17.4997,8.46007 17.4997,11.4981L 17.4997,11.9981L 18.9997,11.9981C 20.6567,11.9981 21.9997,13.3411 21.9997,14.9981C 21.9997,16.6551 20.6567,17.9981 18.9997,17.9981 Z M 19.3547,10.0341C 18.6737,6.59307 15.6407,3.99807 11.9997,3.99807C 9.10771,3.99807 6.6027,5.63708 5.3507,8.03408C 2.34271,8.35805 -0.000295003,10.9031 -0.000295003,13.9981C -0.000295003,17.3121 2.6857,19.9981 5.9997,19.9981L 18.9997,19.9981C 21.7607,19.9981 23.9997,17.7601 23.9997,14.9981C 23.9997,12.3581 21.9467,10.2191 19.3547,10.0341 Z "/>
</svg>
