<?xml version="1.0" encoding="utf-8"?>
<!DOCTYPE svg PUBLIC "-//W3C//DTD SVG 1.1//EN" "http://www.w3.org/Graphics/SVG/1.1/DTD/svg11.dtd">
<svg xmlns="http://www.w3.org/2000/svg" xmlns:xlink="http://www.w3.org/1999/xlink" version="1.1" baseProfile="full" width="24" height="24" viewBox="0 0 24.00 24.00" enable-background="new 0 0 24.00 24.00" xml:space="preserve">
	<path fill="#000000" fill-opacity="1" stroke-width="0.2" stroke-linejoin="round" d="M 7.72655,9.99807L 15.7265,17.9981L 5.99955,17.9981C 3.79055,17.9981 1.99955,16.2071 1.99955,13.9981C 1.99955,11.7891 3.79055,9.99807 5.99955,9.99807M 2.99955,5.27108L 5.74955,8.01107C 2.55755,8.14806 -0.000450134,10.7721 -0.000450134,13.9981C -0.000450134,17.3121 2.68655,19.9981 5.99955,19.9981L 17.7265,19.9981L 19.7265,21.9981L 20.9995,20.7261L 4.27254,3.99807M 19.3545,10.0341C 18.6735,6.59307 15.6405,3.99807 11.9995,3.99807C 10.5225,3.99807 9.14954,4.43206 7.98955,5.17006L 9.45155,6.63207C 10.2135,6.23107 11.0785,5.99807 11.9995,5.99807C 15.0375,5.99807 17.4995,8.46007 17.4995,11.4981L 17.4995,11.9981L 18.9995,11.9981C 20.6565,11.9981 21.9995,13.3411 21.9995,14.9981C 21.9995,16.1311 21.3635,17.1061 20.4365,17.6161L 21.8876,19.0681C 23.1625,18.1621 23.9995,16.6811 23.9995,14.9981C 23.9995,12.3581 21.9475,10.2191 19.3545,10.0341 Z "/>
</svg>
