<?xml version="1.0" encoding="utf-8"?>
<!DOCTYPE svg PUBLIC "-//W3C//DTD SVG 1.1//EN" "http://www.w3.org/Graphics/SVG/1.1/DTD/svg11.dtd">
<svg xmlns="http://www.w3.org/2000/svg" xmlns:xlink="http://www.w3.org/1999/xlink" version="1.1" baseProfile="full" width="24" height="24" viewBox="0 0 24.00 24.00" enable-background="new 0 0 24.00 24.00" xml:space="preserve">
	<path fill="#000000" fill-opacity="1" stroke-width="1.33333" stroke-linejoin="miter" d="M 12,2C 9.11,2 6.59961,3.6391 5.34961,6.0391C 2.33961,6.3591 1.27157e-006,8.91 1.27157e-006,12C 1.27157e-006,15.31 2.69,18 6,18L 6,22L 18,22L 18,18L 19,18C 21.76,18 24,15.76 24,13C 24,10.36 21.9496,8.2191 19.3496,8.0391C 18.6696,4.5891 15.64,2 12,2 Z M 8,13L 16,13L 16,20L 8,20L 8,13 Z M 9,14L 9,15L 15,15L 15,14L 9,14 Z M 9,16L 9,17L 15,17L 15,16L 9,16 Z M 9,18L 9,19L 15,19L 15,18L 9,18 Z "/>
</svg>
