<?xml version="1.0" encoding="utf-8"?>
<!DOCTYPE svg PUBLIC "-//W3C//DTD SVG 1.1//EN" "http://www.w3.org/Graphics/SVG/1.1/DTD/svg11.dtd">
<svg xmlns="http://www.w3.org/2000/svg" xmlns:xlink="http://www.w3.org/1999/xlink" version="1.1" baseProfile="full" width="24" height="24" viewBox="0 0 24.00 24.00" enable-background="new 0 0 24.00 24.00" xml:space="preserve">
	<path fill="#000000" fill-opacity="1" stroke-width="1.33333" stroke-linejoin="miter" d="M 19.35,10.04C 18.67,6.59 15.64,4 12,4C 9.11,4 6.6,5.64 5.35,8.04C 2.34,8.36 1.27157e-006,10.91 1.27157e-006,14C 1.27157e-006,17.31 2.69,20 6,20L 19,20C 21.76,20 24,17.76 24,15C 24,12.36 21.95,10.22 19.35,10.04 Z M 19,18L 6,18C 3.79,18 2,16.21 2,14C 2,11.95 3.53,10.24 5.56,10.03L 6.63,9.92L 7.13,8.97C 8.08,7.14 9.94,6 12,6C 14.62,6 16.88,7.86 17.39,10.43L 17.69,11.93L 19.22,12.04C 20.78,12.14 22,13.45 22,15C 22,16.65 20.65,18 19,18 Z M 8,13L 10.55,13L 10.55,16L 13.45,16L 13.45,13L 16,13L 12,9L 8,13 Z "/>
</svg>
