<?xml version="1.0" encoding="utf-8"?>
<!DOCTYPE svg PUBLIC "-//W3C//DTD SVG 1.1//EN" "http://www.w3.org/Graphics/SVG/1.1/DTD/svg11.dtd">
<svg xmlns="http://www.w3.org/2000/svg" xmlns:xlink="http://www.w3.org/1999/xlink" version="1.1" baseProfile="full" width="24" height="24" viewBox="0 0 24.00 24.00" enable-background="new 0 0 24.00 24.00" xml:space="preserve">
	<path fill="#000000" fill-opacity="1" stroke-width="0.2" stroke-linejoin="round" d="M 6,20C 2.68629,20 0,17.3137 0,14C 0,10.9071 2.34023,8.36077 5.34658,8.03517C 6.59795,5.63709 9.10779,4 12,4C 15.6328,4 18.6623,6.58278 19.3524,10.0122C 21.9494,10.1931 24,12.3571 24,15C 24,17.7614 21.7614,20 19,20L 6,20 Z M 9.09177,8.40425L 4.49412,13.0001L 9.09177,17.5958L 10.5058,16.1817L 7.32225,13.0001L 10.5058,9.81835L 9.09177,8.40425 Z M 14.9082,8.40425L 13.4941,9.81835L 16.6777,13.0001L 13.4941,16.1817L 14.9082,17.5958L 19.5059,13.0001L 14.9082,8.40425 Z "/>
</svg>
