<?xml version="1.0" encoding="utf-8"?>
<!DOCTYPE svg PUBLIC "-//W3C//DTD SVG 1.1//EN" "http://www.w3.org/Graphics/SVG/1.1/DTD/svg11.dtd">
<svg xmlns="http://www.w3.org/2000/svg" xmlns:xlink="http://www.w3.org/1999/xlink" version="1.1" baseProfile="full" width="24" height="24" viewBox="0 0 24.00 24.00" enable-background="new 0 0 24.00 24.00" xml:space="preserve">
	<path fill="#000000" fill-opacity="1" stroke-width="0.2" stroke-linejoin="round" d="M 15.5,12C 17.9853,12 20,14.0147 20,16.5C 20,17.3826 19.7459,18.2059 19.3069,18.9006L 22.3906,21.9844L 20.9844,23.3906L 17.8763,20.3221C 17.1867,20.7518 16.3723,21 15.5,21C 13.0147,21 11,18.9853 11,16.5C 11,14.0147 13.0147,12 15.5,12 Z M 15.5,14C 14.1193,14 13,15.1193 13,16.5C 13,17.8807 14.1193,19 15.5,19C 16.8807,19 18,17.8807 18,16.5C 18,15.1193 16.8807,14 15.5,14 Z M 19.3547,8.03388C 21.9467,8.21885 23.9997,10.3579 23.9997,12.9979C 23.9997,14.6427 23.2056,16.1018 21.9801,17.0129L 22,16.5C 22,12.9101 19.0898,10 15.5,10C 11.9101,10 9,12.9101 9,16.5C 9,17.0155 9.06001,17.517 9.17343,17.9979L 5.99968,17.9979C 2.68568,17.9979 -0.000320435,15.3119 -0.000320435,11.9979C -0.000320435,8.90387 2.34268,6.35785 5.35027,6.03485C 6.60268,3.63686 9.10768,1.99787 11.9997,1.99787C 15.6407,1.99787 18.6735,4.59288 19.3547,8.03388 Z "/>
</svg>
