<?xml version="1.0" encoding="utf-8"?>
<!DOCTYPE svg PUBLIC "-//W3C//DTD SVG 1.1//EN" "http://www.w3.org/Graphics/SVG/1.1/DTD/svg11.dtd">
<svg xmlns="http://www.w3.org/2000/svg" xmlns:xlink="http://www.w3.org/1999/xlink" version="1.1" baseProfile="full" width="24" height="24" viewBox="0 0 24.00 24.00" enable-background="new 0 0 24.00 24.00" xml:space="preserve">
	<path fill="#000000" fill-opacity="1" stroke-width="1.33333" stroke-linejoin="miter" d="M 7.9997,12.9981L 10.5497,12.9981L 10.5497,9.99807L 13.4497,9.99807L 13.4497,12.9981L 15.9997,12.9981L 11.9997,16.9981L 7.9997,12.9981 Z M 19.3497,10.0381C 21.9497,10.2181 23.9997,12.3581 23.9997,14.9981C 23.9997,17.7581 21.7597,19.9981 18.9997,19.9981L 5.9997,19.9981C 2.6897,19.9981 -0.000299454,17.3081 -0.000299454,13.9981C -0.000299454,10.9081 2.3397,8.35807 5.3497,8.03807C 6.5997,5.63807 9.1097,3.99807 11.9997,3.99807C 15.6397,3.99807 18.6697,6.58807 19.3497,10.0381 Z M 18.9997,17.9981C 20.6497,17.9981 21.9997,16.6481 21.9997,14.9981C 21.9997,13.4481 20.7797,12.1381 19.2197,12.0381L 17.6897,11.9281L 17.3897,10.4281C 16.8797,7.85807 14.6197,5.99807 11.9997,5.99807C 9.9397,5.99807 8.0797,7.13807 7.1297,8.96807L 6.6297,9.91807L 5.5597,10.0281C 3.5297,10.2381 1.9997,11.9481 1.9997,13.9981C 1.9997,16.2081 3.7897,17.9981 5.9997,17.9981L 18.9997,17.9981 Z "/>
</svg>
