<?xml version="1.0" encoding="utf-8"?>
<!DOCTYPE svg PUBLIC "-//W3C//DTD SVG 1.1//EN" "http://www.w3.org/Graphics/SVG/1.1/DTD/svg11.dtd">
<svg xmlns="http://www.w3.org/2000/svg" xmlns:xlink="http://www.w3.org/1999/xlink" version="1.1" baseProfile="full" width="24" height="24" viewBox="0 0 24.00 24.00" enable-background="new 0 0 24.00 24.00" xml:space="preserve">
	<path fill="#000000" fill-opacity="1" stroke-width="0.2" stroke-linejoin="round" d="M 15.5,12C 17.9853,12 20,14.0147 20,16.5C 20,17.3826 19.7459,18.2058 19.3069,18.9006L 22.3906,21.9843L 20.9844,23.3906L 17.8763,20.3221C 17.1867,20.7518 16.3723,21 15.5,21C 13.0147,21 11,18.9853 11,16.5C 11,14.0147 13.0147,12 15.5,12 Z M 15.5,14C 14.1193,14 13,15.1193 13,16.5C 13,17.8807 14.1193,19 15.5,19C 16.8807,19 18,17.8807 18,16.5C 18,15.1193 16.8807,14 15.5,14 Z M 22,13C 22,11.343 20.657,9.99998 19,9.99998L 17.5,9.99998L 17.5,9.49998C 17.5,6.46198 15.037,3.99998 12,3.99998C 9.48301,3.99998 7.36601,5.69297 6.71201,7.99998L 6.00001,7.99998C 3.79101,7.99998 2.00001,9.79096 2.00001,12C 2.00001,14.209 3.79101,16 6.00001,16L 9.01895,16L 9.00001,16.5C 9.00001,17.0162 9.0602,17.5185 9.17394,18L 6.00001,18C 2.686,18 1.01725e-005,15.314 1.01725e-005,12C 1.01725e-005,8.90497 2.34301,6.35997 5.351,6.03599C 6.60301,3.63898 9.10801,1.99998 12,1.99998C 15.641,1.99998 18.674,4.59499 19.355,8.03599C 21.947,8.22101 24,10.36 24,13C 24,14.6451 23.2057,16.1043 21.9799,17.0154L 22,16.5C 22,15.7654 21.8782,15.0594 21.6536,14.4008C 21.8748,13.9827 22,13.506 22,13 Z "/>
</svg>
