<?xml version="1.0" encoding="utf-8"?>
<!DOCTYPE svg PUBLIC "-//W3C//DTD SVG 1.1//EN" "http://www.w3.org/Graphics/SVG/1.1/DTD/svg11.dtd">
<svg xmlns="http://www.w3.org/2000/svg" xmlns:xlink="http://www.w3.org/1999/xlink" version="1.1" baseProfile="full" width="24" height="24" viewBox="0 0 24.00 24.00" enable-background="new 0 0 24.00 24.00" xml:space="preserve">
	<g>
		<path fill="#000000" fill-opacity="1" stroke-width="1.33333" stroke-linejoin="miter" d="M 12,11.18C 15.3,8.18 17,6.64 17,4.6897C 16.9833,3.1875 15.7521,1.9833 14.25,2C 13.3915,1.996 12.5724,2.3601 12,3C 11.4276,2.3601 10.6085,1.996 9.68967,2C 8.18754,2.0167 6.98334,3.2479 7,4.75C 7,6.64 8.7,8.18 12,11.18 Z M 11.18,12C 8.18,8.7 6.64,7 4.68967,7C 3.18754,7.0167 1.98334,8.2479 2,9.75C 1.99602,10.6085 2.36007,11.4276 3,12C 2.36007,12.5724 1.99602,13.3915 2,14.3103C 2.01666,15.8125 3.24788,17.0167 4.75,17C 6.64,17 8.18,15.3 11.18,12 Z M 12.83,12C 15.82,15.3 17.36,17 19.3103,17C 20.8125,16.9833 22.0167,15.7521 22,14.25C 22.004,13.3915 21.6399,12.5724 21,12C 21.6399,11.4276 22.004,10.6085 22,9.6897C 21.9833,8.1875 20.7521,6.9833 19.25,7C 17.36,7 15.82,8.7 12.83,12 Z M 12.01,12.82C 8.7,15.82 7,17.36 7,19.3103C 7.01666,20.8125 8.24788,22.0167 9.75,22C 10.6085,22.004 11.4276,21.6399 12,21C 12.5724,21.6399 13.3915,22.004 14.3103,22C 15.8125,21.9833 17.0167,20.7521 17,19.25C 17,17.36 15.3,15.82 12.01,12.82 Z "/>
	</g>
</svg>
