<?xml version="1.0" encoding="utf-8"?>
<!DOCTYPE svg PUBLIC "-//W3C//DTD SVG 1.1//EN" "http://www.w3.org/Graphics/SVG/1.1/DTD/svg11.dtd">
<svg xmlns="http://www.w3.org/2000/svg" xmlns:xlink="http://www.w3.org/1999/xlink" version="1.1" baseProfile="full" width="24" height="24" viewBox="0 0 24.00 24.00" enable-background="new 0 0 24.00 24.00" xml:space="preserve">
	<path fill="#000000" fill-opacity="1" stroke-linejoin="round" d="M 19.453,13.2942L 17.518,11.9998L 19.453,10.7055M 12.7735,18.7809L 12.7735,15.1733L 16.1268,12.9306L 18.8337,14.741M 12.0001,13.8297L 9.26434,11.9998L 12.0001,10.17L 14.7356,11.9998M 11.2265,18.7809L 5.16621,14.741L 7.87337,12.9306L 11.2265,15.1733M 4.54699,10.7055L 6.48215,11.9998L 4.54699,13.2942M 11.2265,5.21874L 11.2265,8.82637L 7.87337,11.0695L 5.16621,9.2586M 12.7735,5.21874L 18.8337,9.2586L 16.1268,11.0695L 12.7735,8.82637M 20.9931,9.15683C 20.9914,9.14547 20.9886,9.13461 20.9867,9.12325C 20.9829,9.10141 20.9789,9.07962 20.9732,9.05834C 20.9699,9.04556 20.9651,9.03327 20.9612,9.02098C 20.955,9.00199 20.9488,8.98306 20.9412,8.96463C 20.936,8.95185 20.9299,8.93906 20.924,8.92678C 20.9159,8.90921 20.9074,8.89215 20.8977,8.87564C 20.8906,8.86329 20.883,8.85144 20.8757,8.83965C 20.8653,8.82351 20.8546,8.80787 20.8429,8.79273C 20.8345,8.78137 20.8255,8.77002 20.8165,8.75909C 20.8042,8.74494 20.7914,8.73073 20.7779,8.71745C 20.7678,8.70709 20.7577,8.69666 20.7471,8.68717C 20.7329,8.67439 20.7183,8.66204 20.7033,8.65024C 20.6918,8.64125 20.6803,8.63225 20.6683,8.62374C 20.6638,8.62089 20.6598,8.6171 20.6555,8.61425L 12.429,3.12993C 12.1692,2.95667 11.8308,2.95667 11.5709,3.12993L 3.34443,8.61425C 3.34015,8.6171 3.33612,8.62089 3.33165,8.62374C 3.31955,8.63225 3.30819,8.64125 3.29683,8.65024C 3.28169,8.66204 3.26698,8.67439 3.25308,8.68717C 3.24216,8.69666 3.23223,8.70709 3.22205,8.71745C 3.20859,8.73073 3.1958,8.74494 3.1837,8.75909C 3.17446,8.77002 3.16546,8.78137 3.15696,8.79273C 3.1456,8.80787 3.13468,8.82351 3.1245,8.83965C 3.11668,8.85144 3.10936,8.86329 3.10228,8.87564C 3.09279,8.89215 3.08429,8.90921 3.07597,8.92678C 3.07007,8.93906 3.06393,8.95185 3.05872,8.96463C 3.05115,8.98306 3.045,9.00199 3.0388,9.02098C 3.03476,9.03327 3.0303,9.04556 3.02676,9.05834C 3.02105,9.07962 3.01726,9.10141 3.01323,9.12325C 3.01137,9.13461 3.00851,9.14547 3.00709,9.15683C 3.00256,9.18996 3.00001,9.2236 3.00001,9.25767L 3.00001,14.742C 3.00001,14.7761 3.00256,14.8097 3.00709,14.8433C 3.00851,14.8543 3.01137,14.8655 3.01323,14.8764C 3.01726,14.8982 3.02105,14.92 3.02676,14.9413C 3.0303,14.9541 3.03476,14.9664 3.0388,14.9787C 3.045,14.9976 3.05115,15.0166 3.05872,15.0355C 3.06393,15.0484 3.07007,15.0607 3.07597,15.0729C 3.08429,15.0904 3.09279,15.1074 3.10228,15.1245C 3.10936,15.1364 3.11668,15.1482 3.1245,15.16C 3.13468,15.1761 3.1456,15.1918 3.15696,15.2069C 3.16546,15.2188 3.17446,15.2296 3.1837,15.2405C 3.1958,15.2547 3.20859,15.2689 3.22205,15.2822C 3.23223,15.2926 3.24216,15.303 3.25308,15.3124C 3.26698,15.3253 3.28169,15.3376 3.29683,15.3494C 3.30819,15.3585 3.31955,15.3674 3.33165,15.3759C 3.33612,15.3788 3.34015,15.3826 3.34443,15.3853L 11.5709,20.8697C 11.7009,20.9564 11.8505,20.9999 12.0001,20.9999C 12.1495,20.9999 12.299,20.9564 12.429,20.8697L 20.6555,15.3853C 20.6598,15.3826 20.6638,15.3788 20.6683,15.3759C 20.6803,15.3674 20.6918,15.3585 20.7033,15.3494C 20.7183,15.3376 20.7329,15.3253 20.7471,15.3124C 20.7577,15.303 20.7678,15.2926 20.7779,15.2822C 20.7914,15.2689 20.8042,15.2547 20.8165,15.2405C 20.8255,15.2296 20.8345,15.2188 20.8429,15.2069C 20.8546,15.1918 20.8653,15.1761 20.8757,15.16C 20.883,15.1482 20.8906,15.1364 20.8977,15.1245C 20.9074,15.1074 20.9159,15.0904 20.924,15.0729C 20.9299,15.0607 20.936,15.0484 20.9412,15.0355C 20.9488,15.0166 20.955,14.9976 20.9612,14.9787C 20.9651,14.9664 20.9699,14.9541 20.9732,14.9413C 20.9789,14.92 20.9829,14.8982 20.9867,14.8764C 20.9886,14.8655 20.9914,14.8543 20.9931,14.8433C 20.9973,14.8097 21,14.7761 21,14.742L 21,9.25767C 21,9.2236 20.9973,9.18996 20.9931,9.15683 Z "/>
</svg>
