<?xml version="1.0" encoding="utf-8"?>
<!DOCTYPE svg PUBLIC "-//W3C//DTD SVG 1.1//EN" "http://www.w3.org/Graphics/SVG/1.1/DTD/svg11.dtd">
<svg xmlns="http://www.w3.org/2000/svg" xmlns:xlink="http://www.w3.org/1999/xlink" version="1.1" baseProfile="full" width="24" height="24" viewBox="0 0 24.00 24.00" enable-background="new 0 0 24.00 24.00" xml:space="preserve">
	<path fill="#0D0E0E" fill-opacity="1" stroke-linejoin="round" d="M 11,6.50195L 11,9.33008L 8.3281,12.002L 11,14.6738L 11,17.502L 5.5,12.002M 13,6.43164L 18.5703,12.002L 13,17.5723L 13,14.7441L 15.7422,12.002L 13,9.25977M 5,3C 3.894,3 3,3.896 3,5L 3,19C 3,20.104 3.894,21 5,21L 19,21C 20.103,21 21,20.104 21,19L 21,5C 21,3.896 20.103,3 19,3L 5,3 Z "/>
</svg>
