<?xml version="1.0" encoding="utf-8"?>
<!DOCTYPE svg PUBLIC "-//W3C//DTD SVG 1.1//EN" "http://www.w3.org/Graphics/SVG/1.1/DTD/svg11.dtd">
<svg xmlns="http://www.w3.org/2000/svg" xmlns:xlink="http://www.w3.org/1999/xlink" version="1.1" baseProfile="full" width="24" height="24" viewBox="0 0 24.00 24.00" enable-background="new 0 0 24.00 24.00" xml:space="preserve">
	<path fill="#000000" fill-opacity="1" stroke-width="0.2" stroke-linejoin="round" d="M 15.0887,12.0008L 12,14.0841L 12,14.0912L 8.91133,12.0079L 12,9.92457L 12,9.91745L 15.0887,12.0008 Z M 12,2.00859C 11.8404,2.01504 11.6784,2.06003 11.5342,2.1549L 2.48715,8.10534C 2.2661,8.22222 2.09025,8.42595 2,8.67457L 2,14.9246C 2,15.3341 2,15.3341 2.14525,15.528L 11.5302,21.8582C 11.6744,21.9555 11.8382,22.0017 12,21.9937C 12.1618,21.9945 12.3256,21.9484 12.4698,21.8511L 21.8547,15.5209C 22,15.3341 22,15.3341 22,14.9174L 22,8.66745C 21.9097,8.41882 21.7339,8.2151 21.5128,8.09821L 12.4658,2.14778C 12.3216,2.0529 12.1596,2.00791 12,2.00859 Z M 16.5789,13.006L 19.5909,15.0376L 12.8333,19.5956L 12.8333,15.5324L 16.5789,13.006 Z M 19.6922,8.89563L 16.5789,10.9956L 12.8333,8.46918L 12.8333,4.38433L 19.6922,8.89563 Z M 20.3333,10.4736L 20.3333,13.528L 18.0691,12.0008L 20.3333,10.4736 Z M 7.42109,13.0131L 11.1667,15.5395L 11.1667,19.6027L 4.40914,15.0447L 7.42109,13.0131 Z M 4.30775,8.90275L 11.1667,4.39145L 11.1667,8.47631L 7.4211,11.0027L 4.30775,8.90275 Z M 3.66668,10.4807L 5.93085,12.0079L 3.66668,13.5351L 3.66668,10.4807 Z "/>
</svg>
