<?xml version="1.0" encoding="utf-8"?>
<!DOCTYPE svg PUBLIC "-//W3C//DTD SVG 1.1//EN" "http://www.w3.org/Graphics/SVG/1.1/DTD/svg11.dtd">
<svg xmlns="http://www.w3.org/2000/svg" xmlns:xlink="http://www.w3.org/1999/xlink" version="1.1" baseProfile="full" width="24" height="24" viewBox="0 0 24.00 24.00" enable-background="new 0 0 24.00 24.00" xml:space="preserve">
	<path fill="#050708" fill-opacity="1" stroke-width="0.2" stroke-linejoin="round" d="M 2.9994,5C 2.9994,3.896 3.8934,3 4.9994,3L 18.9994,3C 20.1029,3 20.9994,3.896 20.9994,5L 20.9994,19C 20.9994,20.104 20.1029,21 18.9994,21L 4.9994,21C 3.8934,21 2.9994,20.104 2.9994,19L 2.9994,5 Z M 6,6.00001L 6,18L 10,18L 10,16L 8,16L 8,8L 10,8L 10,6.00001L 6,6.00001 Z M 16,16L 14,16L 14,18L 18,18L 18,6.00001L 14,6L 14,8L 16,8L 16,16 Z "/>
</svg>
