<?xml version="1.0" encoding="utf-8"?>
<!DOCTYPE svg PUBLIC "-//W3C//DTD SVG 1.1//EN" "http://www.w3.org/Graphics/SVG/1.1/DTD/svg11.dtd">
<svg xmlns="http://www.w3.org/2000/svg" xmlns:xlink="http://www.w3.org/1999/xlink" version="1.1" baseProfile="full" width="24" height="24" viewBox="0 0 24.00 24.00" enable-background="new 0 0 24.00 24.00" xml:space="preserve">
	<path fill="#000000" fill-opacity="1" stroke-width="0.2" stroke-linejoin="round" d="M 1.9994,20.9981L 1.9994,18.9981L 19.9994,18.9981L 19.9994,20.9981L 1.9994,20.9981 Z M 19.9994,7.99807L 19.9994,4.99807L 17.9994,4.99807L 17.9994,7.99807L 19.9994,7.99807 Z M 19.9994,2.99807C 21.1044,2.99807 21.9994,3.89307 21.9994,4.99807L 21.9994,7.99807C 21.9994,9.10307 21.1044,9.99807 19.9994,9.99807L 17.9994,9.99807L 17.9994,12.9981C 17.9994,15.2071 16.2084,16.9981 13.9994,16.9981L 7.9994,16.9981C 5.79039,16.9981 3.9994,15.2071 3.9994,12.9981L 3.9994,2.99807L 19.9994,2.99807 Z M 16,5L 6,5L 6,13C 6,14.1046 6.89543,15 8,15L 14,15C 15.1046,15 16,14.1046 16,13L 16,5 Z "/>
</svg>
