<?xml version="1.0" encoding="utf-8"?>
<!DOCTYPE svg PUBLIC "-//W3C//DTD SVG 1.1//EN" "http://www.w3.org/Graphics/SVG/1.1/DTD/svg11.dtd">
<svg xmlns="http://www.w3.org/2000/svg" xmlns:xlink="http://www.w3.org/1999/xlink" version="1.1" baseProfile="full" width="24" height="24" viewBox="0 0 24.00 24.00" enable-background="new 0 0 24.00 24.00" xml:space="preserve">
	<path fill="#000000" fill-opacity="1" stroke-width="0.2" stroke-linejoin="round" d="M 3.00001,19.0002L 3.00001,17.0002L 17.0104,17.0001L 15.2553,15.2449L 16.6695,13.8307L 20.8388,18.0001L 16.6695,22.1695L 15.2553,20.7553L 17.0104,19.0001L 3.00001,19.0002 Z M 17.0001,8L 17.0001,5L 15.0001,5L 15.0001,8L 17.0001,8 Z M 17.0001,3C 18.1051,3 19.0001,3.895 19.0001,5L 19.0001,8C 19.0001,9.105 18.1051,10 17.0001,10L 15.0001,10L 15.0002,10.9999C 15.0002,13.2089 13.2092,14.9999 11.0002,14.9999L 7.00012,15C 4.79112,15 3.00012,13.209 3.00012,11L 3,3.00012L 17.0001,3 Z "/>
</svg>
