<?xml version="1.0" encoding="utf-8"?>
<!DOCTYPE svg PUBLIC "-//W3C//DTD SVG 1.1//EN" "http://www.w3.org/Graphics/SVG/1.1/DTD/svg11.dtd">
<svg xmlns="http://www.w3.org/2000/svg" xmlns:xlink="http://www.w3.org/1999/xlink" version="1.1" baseProfile="full" width="24" height="24" viewBox="0 0 24.00 24.00" enable-background="new 0 0 24.00 24.00" xml:space="preserve">
	<path fill="#000000" fill-opacity="1" stroke-width="0.2" stroke-linejoin="round" d="M 15.8974,18.4481C 17.2505,18.4481 18.3474,17.3512 18.3474,15.9981C 18.3474,14.645 17.2505,13.5481 15.8974,13.5481C 14.5443,13.5481 13.4474,14.645 13.4474,15.9981C 13.4474,17.3512 14.5443,18.4481 15.8974,18.4481 Z M 21.0977,16.6813L 22.5768,17.8384C 22.7084,17.9455 22.7469,18.1345 22.6594,18.2857L 21.2594,20.7105C 21.1726,20.8617 20.9892,20.9233 20.831,20.8624L 19.088,20.1596C 18.7268,20.4375 18.3313,20.6713 17.9057,20.8484L 17.6432,22.7034C 17.6166,22.87 17.4717,22.9981 17.2974,22.9981L 14.4974,22.9981C 14.3224,22.9981 14.1782,22.87 14.1516,22.7034L 13.8891,20.8484C 13.4628,20.672 13.0673,20.4375 12.7061,20.1603L 10.9638,20.8624C 10.8056,20.9233 10.6222,20.8617 10.5354,20.7105L 9.13538,18.2857C 9.04789,18.1345 9.08638,17.9455 9.218,17.8384L 10.6964,16.6813L 10.6474,15.9981L 10.6964,15.3149L 9.218,14.1571C 9.08638,14.0507 9.04789,13.8617 9.13538,13.7105L 10.5354,11.2857C 10.6222,11.1345 10.8056,11.0729 10.9638,11.1338L 12.7054,11.8359C 13.0666,11.5587 13.4621,11.3242 13.8891,11.1471L 14.1516,9.29281C 14.1782,9.12618 14.3224,8.99809 14.4974,8.99809L 17.2974,8.99809C 17.4717,8.99809 17.6166,9.12618 17.6432,9.29281L 17.9057,11.1478C 18.332,11.3242 18.7275,11.5587 19.0887,11.8359L 20.831,11.1338C 20.9892,11.0729 21.1726,11.1345 21.2594,11.2857L 22.6594,13.7105C 22.7469,13.8617 22.7084,14.0507 22.5768,14.1571L 21.0977,15.3149L 21.1467,15.9981L 21.0977,16.6813 Z M 6.68694,8.07491C 7.5568,8.07491 8.26194,7.36975 8.26194,6.49992C 8.26194,5.63007 7.5568,4.92491 6.68694,4.92491C 5.81709,4.92491 5.11194,5.63007 5.11194,6.49992C 5.11194,7.36975 5.81709,8.07491 6.68694,8.07491 Z M 10.03,6.93913L 10.9808,7.68299C 11.0654,7.75181 11.0902,7.87331 11.0339,7.97052L 10.1339,9.52932C 10.0781,9.62651 9.96023,9.66612 9.85854,9.62695L 8.73805,9.17517L 7.97799,9.61798L 7.80923,10.8104C 7.79213,10.9176 7.69898,10.9999 7.58694,10.9999L 5.78695,10.9999C 5.67444,10.9999 5.58175,10.9176 5.56465,10.8104L 5.39589,9.61798L 4.6354,9.1756L 3.51534,9.62695C 3.41365,9.66612 3.29574,9.62651 3.23994,9.52932L 2.33995,7.97052C 2.28369,7.87331 2.30844,7.75181 2.39305,7.68299L 3.34344,6.93913L 3.31194,6.49992L 3.34344,6.06071L 2.39305,5.31643C 2.30844,5.24803 2.28369,5.12653 2.33995,5.02932L 3.23994,3.47052C 3.29574,3.37331 3.41365,3.33372 3.51534,3.37287L 4.63495,3.82424L 5.39589,3.38141L 5.56465,2.18939C 5.58175,2.08226 5.67444,1.9999 5.78695,1.9999L 7.58694,1.9999C 7.69898,1.9999 7.79213,2.08226 7.80923,2.18939L 7.97799,3.38186L 8.73848,3.82424L 9.85854,3.37287C 9.96023,3.33372 10.0781,3.37331 10.1339,3.47052L 11.0339,5.02932C 11.0902,5.12653 11.0654,5.24803 10.9808,5.31643L 10.03,6.06071L 10.0615,6.49992L 10.03,6.93913 Z "/>
</svg>
