<?xml version="1.0" encoding="utf-8"?>
<!DOCTYPE svg PUBLIC "-//W3C//DTD SVG 1.1//EN" "http://www.w3.org/Graphics/SVG/1.1/DTD/svg11.dtd">
<svg xmlns="http://www.w3.org/2000/svg" xmlns:xlink="http://www.w3.org/1999/xlink" version="1.1" baseProfile="full" width="24" height="24" viewBox="0 0 24.00 24.00" enable-background="new 0 0 24.00 24.00" xml:space="preserve">
	<path fill="#000000" fill-opacity="1" stroke-width="1.33333" stroke-linejoin="miter" d="M 4,2C 2.9,2 2,2.9 2,4L 2,14L 4,14L 4,4L 14,4L 14,2L 4,2M 8,6C 6.9,6 6,6.9 6,8L 6,18L 8,18L 8,8L 18,8L 18,6L 8,6M 20,12L 20,20L 12,20L 12,12L 20,12M 20,10L 12,10C 10.9,10 10,10.9 10,12L 10,20C 10,21.1 10.9,22 12,22L 20,22C 21.1,22 22,21.1 22,20L 22,12C 22,10.9 21.1,10 20,10 Z M 19,17L 13,17L 13,15L 19,15L 19,17 Z "/>
</svg>
