<?xml version="1.0" encoding="utf-8"?>
<!DOCTYPE svg PUBLIC "-//W3C//DTD SVG 1.1//EN" "http://www.w3.org/Graphics/SVG/1.1/DTD/svg11.dtd">
<svg xmlns="http://www.w3.org/2000/svg" xmlns:xlink="http://www.w3.org/1999/xlink" version="1.1" baseProfile="full" width="24" height="24" viewBox="0 0 24.00 24.00" enable-background="new 0 0 24.00 24.00" xml:space="preserve">
	<path fill="#000000" fill-opacity="1" stroke-width="1.33333" stroke-linejoin="miter" d="M 15.5,2C 17.9853,2 20,4.01472 20,6.5C 20,7.37855 19.7482,8.1983 19.3129,8.89103L 22.4063,11.9844L 21,13.3906L 17.8893,10.314C 17.1969,10.7487 16.3778,11 15.5,11C 13.0147,11 11,8.98528 11,6.5C 11,4.01472 13.0147,2 15.5,2 Z M 15.5,4C 14.1193,4 13,5.11929 13,6.5C 13,7.88072 14.1193,9 15.5,9C 16.8807,9 18,7.88072 18,6.5C 18,5.11929 16.8807,4 15.5,4 Z M 4,4L 9.51758,4C 9.18684,4.792 9.01624,5.6417 9.01563,6.5C 9.01563,10.0899 11.9258,13 15.5156,13C 16.1752,12.997 16.8305,12.8936 17.459,12.6934L 20,15.2344L 20,16C 20,17.1046 19.1046,18 18,18L 13.9004,18L 10.1992,21.7109C 9.99922,21.8909 9.76,22 9.5,22L 9,22C 8.44771,22 8,21.5523 8,21L 8,18L 4,18C 2.89543,18 2,17.1046 2,16L 2,6C 2,4.8954 2.89543,4 4,4 Z "/>
</svg>
