<?xml version="1.0" encoding="utf-8"?>
<!DOCTYPE svg PUBLIC "-//W3C//DTD SVG 1.1//EN" "http://www.w3.org/Graphics/SVG/1.1/DTD/svg11.dtd">
<svg xmlns="http://www.w3.org/2000/svg" xmlns:xlink="http://www.w3.org/1999/xlink" version="1.1" baseProfile="full" width="24" height="24" viewBox="0 0 24.00 24.00" enable-background="new 0 0 24.00 24.00" xml:space="preserve">
	<path fill="#000000" fill-opacity="1" stroke-width="1.33333" stroke-linejoin="miter" d="M 4,2C 2.895,2 2,2.895 2,4L 2,16C 2,17.105 2.895,18 4,18L 8,18L 8,21C 8,21.552 8.448,22 9,22L 9.5,22L 9.5,22C 9.75,22 10,21.9 10.2,21.71L 13.9,18L 20,18C 21.105,18 22,17.105 22,16L 22,4C 22,2.89 21.1,2 20,2L 4,2M 4,4L 20,4L 20,16L 13.08,16L 10,19.08L 10,16L 4,16L 4,4M 8,9.053L 8,11.116L 12.642,11.116L 10.837,12.921L 12.085,14.169L 16.17,10.084L 12.085,6L 10.837,7.248L 12.642,9.053L 8,9.053 Z "/>
</svg>
