<?xml version="1.0" encoding="utf-8"?>
<!DOCTYPE svg PUBLIC "-//W3C//DTD SVG 1.1//EN" "http://www.w3.org/Graphics/SVG/1.1/DTD/svg11.dtd">
<svg xmlns="http://www.w3.org/2000/svg" xmlns:xlink="http://www.w3.org/1999/xlink" version="1.1" baseProfile="full" width="24" height="24" viewBox="0 0 24.00 24.00" enable-background="new 0 0 24.00 24.00" xml:space="preserve">
	<path fill="#000000" fill-opacity="1" stroke-width="1.33333" stroke-linejoin="miter" d="M 9,22C 8.44771,22 8,21.5523 8,21L 8,18L 4,18C 2.89543,18 2,17.1046 2,16L 2,4C 2,2.89 2.9,2 4,2L 20,2C 21.1046,2 22,2.8954 22,4L 22,16C 22,17.1046 21.1046,18 20,18L 13.9,18L 10.2,21.71C 10,21.9 9.75,22 9.5,22L 9,22 Z M 11,6L 11,9L 8,9L 8,11L 11,11L 11,14L 13,14L 13,11L 16,11L 16,9L 13,9L 13,6L 11,6 Z "/>
</svg>
