<?xml version="1.0" encoding="utf-8"?>
<!DOCTYPE svg PUBLIC "-//W3C//DTD SVG 1.1//EN" "http://www.w3.org/Graphics/SVG/1.1/DTD/svg11.dtd">
<svg xmlns="http://www.w3.org/2000/svg" xmlns:xlink="http://www.w3.org/1999/xlink" version="1.1" baseProfile="full" width="24" height="24" viewBox="0 0 24.00 24.00" enable-background="new 0 0 24.00 24.00" xml:space="preserve">
	<path fill="#000000" fill-opacity="1" stroke-width="0.2" stroke-linejoin="round" d="M 9,22C 8.44772,22 8,21.5523 8,21L 8,20L 8,17L 4,17C 2.89543,17 2,16.1046 2,15L 2.0094,3.99807C 2.0094,2.89307 2.89539,1.99807 3.99939,1.99807L 19.9994,1.99807C 21.1034,1.99807 21.9994,2.89307 21.9994,3.99807L 21.9994,14.9981C 21.9994,16.1021 21.1034,16.9981 19.9994,16.9981L 14.904,16.9997L 10.1979,21.7058C 10.0053,21.8984 9.75368,21.996 9.50124,21.9986L 9.5,22L 9,22 Z "/>
</svg>
