<?xml version="1.0" encoding="utf-8"?>
<!DOCTYPE svg PUBLIC "-//W3C//DTD SVG 1.1//EN" "http://www.w3.org/Graphics/SVG/1.1/DTD/svg11.dtd">
<svg xmlns="http://www.w3.org/2000/svg" xmlns:xlink="http://www.w3.org/1999/xlink" version="1.1" baseProfile="full" width="24" height="24" viewBox="0 0 24.00 24.00" enable-background="new 0 0 24.00 24.00" xml:space="preserve">
	<path fill="#000000" fill-opacity="1" stroke-width="1.33333" stroke-linejoin="miter" d="M 16,6C 16.56,6 17,6.44 17,7C 17,7.56 16.56,8 16,8C 15.44,8 15,7.56 15,7C 15,6.44 15.44,6 16,6M 16,3C 18.73,3 21.06,4.66 22,7C 21.06,9.34 18.73,11 16,11C 13.27,11 10.94,9.34 10,7C 10.94,4.66 13.27,3 16,3M 16,4.5C 14.619,4.5 13.5,5.619 13.5,7C 13.5,8.381 14.619,9.5 16,9.5C 17.381,9.5 18.5,8.381 18.5,7C 18.5,5.619 17.381,4.5 16,4.5M 18,12.754L 18,16L 13.08,16L 10,19.08L 10,16L 4,16L 4,6L 8.271,6C 8.594,5.272 9.001,4.601 9.5,4L 4,4C 2.9,4 2,4.89 2,6L 2,16C 2,17.105 2.895,18 4,18L 8,18L 8,21C 8,21.552 8.448,22 9,22L 9.5,22C 9.75,22 10,21.9 10.2,21.71L 13.9,18L 18,18C 19.105,18 20,17.105 20,16L 20,11.998C 19.373,12.329 18.701,12.583 18,12.754 Z "/>
</svg>
