<?xml version="1.0" encoding="utf-8"?>
<!DOCTYPE svg PUBLIC "-//W3C//DTD SVG 1.1//EN" "http://www.w3.org/Graphics/SVG/1.1/DTD/svg11.dtd">
<svg xmlns="http://www.w3.org/2000/svg" xmlns:xlink="http://www.w3.org/1999/xlink" version="1.1" baseProfile="full" width="24" height="24" viewBox="0 0 24.00 24.00" enable-background="new 0 0 24.00 24.00" xml:space="preserve">
	<path fill="#000000" fill-opacity="1" stroke-width="0.2" stroke-linejoin="round" d="M 0.999999,3.51849L 2.27711,2.25002L 21.75,21.7229L 20.4815,23L 17.6994,20.2179C 16.0825,21.3414 14.1181,22 12,22C 6.47715,22 2,17.5228 2,12C 2,9.88185 2.65855,7.91751 3.78207,6.30057L 0.999999,3.51849 Z M 7,17L 9.39408,11.9126L 5.22508,7.74357C 4.44897,8.9763 4,10.4357 4,12C 4,16.4183 7.58172,20 12,20C 13.5643,20 15.0237,19.551 16.2564,18.7749L 12.0874,14.6059L 7,17 Z M 17,7.00001L 14.6233,12.0506L 11.9494,9.37674L 17,7.00001 Z M 12,2.00001C 17.5228,2.00001 22,6.47716 22,12C 22,14.1042 21.3501,16.0566 20.2401,17.6674L 18.7958,16.2231C 19.5591,14.9974 20,13.5502 20,12C 20,7.58173 16.4183,4.00001 12,4.00001C 10.4498,4.00001 9.00257,4.44093 7.7769,5.20421L 6.3326,3.75991C 7.94342,2.6499 9.89581,2.00001 12,2.00001 Z "/>
</svg>
