<?xml version="1.0" encoding="utf-8"?>
<!DOCTYPE svg PUBLIC "-//W3C//DTD SVG 1.1//EN" "http://www.w3.org/Graphics/SVG/1.1/DTD/svg11.dtd">
<svg xmlns="http://www.w3.org/2000/svg" xmlns:xlink="http://www.w3.org/1999/xlink" version="1.1" baseProfile="full" width="24" height="24" viewBox="0 0 24.00 24.00" enable-background="new 0 0 24.00 24.00" xml:space="preserve">
	<path fill="#000000" fill-opacity="1" stroke-width="0.2" stroke-linejoin="round" d="M 7,17L 10.2,10.2L 17,7L 13.8,13.8L 7,17 Z M 12,11.1C 11.5029,11.1 11.1,11.5029 11.1,12C 11.1,12.4971 11.5029,12.9 12,12.9C 12.4971,12.9 12.9,12.4971 12.9,12C 12.9,11.5029 12.4971,11.1 12,11.1 Z M 12,2.00001C 17.5228,2.00001 22,6.47715 22,12C 22,17.5228 17.5228,22 12,22C 6.47715,22 2,17.5228 2,12C 2,6.47715 6.47715,2.00001 12,2.00001 Z M 12,4C 7.58172,4 4,7.58172 4,12C 4,16.4183 7.58172,20 12,20C 16.4183,20 20,16.4183 20,12C 20,7.58172 16.4183,4 12,4 Z "/>
</svg>
