<?xml version="1.0" encoding="utf-8"?>
<!DOCTYPE svg PUBLIC "-//W3C//DTD SVG 1.1//EN" "http://www.w3.org/Graphics/SVG/1.1/DTD/svg11.dtd">
<svg xmlns="http://www.w3.org/2000/svg" xmlns:xlink="http://www.w3.org/1999/xlink" version="1.1" baseProfile="full" width="24" height="24" viewBox="0 0 24.00 24.00" enable-background="new 0 0 24.00 24.00" xml:space="preserve">
	<path fill="#050708" fill-opacity="1" stroke-width="0.2" stroke-linejoin="round" d="M 0.999999,3.51849L 2.27711,2.25002L 21.75,21.7229L 20.4815,23L 17.6983,20.2168C 16.0816,21.34 14.1176,21.9985 11.9998,21.9985C 6.47679,21.9985 1.9998,17.5204 1.9998,11.9985C 1.9998,9.88059 2.6581,7.91654 3.78126,6.29976L 0.999999,3.51849 Z M 5.9998,17.9985L 12.4716,14.9901L 9.00737,11.5259L 5.9998,17.9985 Z M 17.9998,5.99846L 11.5624,8.98968L 6.33154,3.75886C 7.94251,2.64854 9.89521,1.99846 11.9998,1.99846C 17.5228,1.99846 21.9998,6.47543 21.9998,11.9985C 21.9998,14.1028 21.3496,16.0555 20.2392,17.6665L 15.0078,12.4351L 17.9998,5.99846 Z "/>
</svg>
