<?xml version="1.0" encoding="utf-8"?>
<!DOCTYPE svg PUBLIC "-//W3C//DTD SVG 1.1//EN" "http://www.w3.org/Graphics/SVG/1.1/DTD/svg11.dtd">
<svg xmlns="http://www.w3.org/2000/svg" xmlns:xlink="http://www.w3.org/1999/xlink" version="1.1" baseProfile="full" width="24" height="24" viewBox="0 0 24.00 24.00" enable-background="new 0 0 24.00 24.00" xml:space="preserve">
	<path fill="#000000" fill-opacity="1" stroke-width="0.2" stroke-linejoin="round" d="M 17.5,7C 20.5376,7 23,9.46244 23,12.5C 23,15.5376 20.5376,18 17.5,18C 15.7921,18 14.266,17.2215 13.2572,16L 10.7428,16C 9.73405,17.2215 8.20794,18 6.5,18C 3.46244,18 1.00001,15.5376 1.00001,12.5C 1.00001,9.46244 3.46244,7 6.5,7L 17.5,7 Z M 6.5,9C 4.56701,9 3,10.567 3,12.5C 3,14.433 4.56701,16 6.5,16C 7.8962,16 9.10145,15.1825 9.66318,14L 14.3368,14C 14.8985,15.1825 16.1038,16 17.5,16C 19.433,16 21,14.433 21,12.5C 21,10.567 19.433,9 17.5,9L 6.5,9 Z M 5.75,10.25L 7.25,10.25L 7.25,11.75L 8.75,11.75L 8.75,13.25L 7.25,13.25L 7.25,14.75L 5.75,14.75L 5.75,13.25L 4.25,13.25L 4.25,11.75L 5.75,11.75L 5.75,10.25 Z M 16.75,12.5C 17.3023,12.5 17.75,12.9477 17.75,13.5C 17.75,14.0523 17.3023,14.5 16.75,14.5C 16.1977,14.5 15.75,14.0523 15.75,13.5C 15.75,12.9477 16.1977,12.5 16.75,12.5 Z M 18.75,10.5C 19.3023,10.5 19.75,10.9477 19.75,11.5C 19.75,12.0523 19.3023,12.5 18.75,12.5C 18.1977,12.5 17.75,12.0523 17.75,11.5C 17.75,10.9477 18.1977,10.5 18.75,10.5 Z "/>
</svg>
