<?xml version="1.0" encoding="utf-8"?>
<!DOCTYPE svg PUBLIC "-//W3C//DTD SVG 1.1//EN" "http://www.w3.org/Graphics/SVG/1.1/DTD/svg11.dtd">
<svg xmlns="http://www.w3.org/2000/svg" xmlns:xlink="http://www.w3.org/1999/xlink" version="1.1" baseProfile="full" width="24" height="24" viewBox="0 0 24.00 24.00" enable-background="new 0 0 24.00 24.00" xml:space="preserve">
	<path fill="#000000" fill-opacity="1" stroke-width="0.2" stroke-linejoin="round" d="M 15,8L 15,4L 5,4L 5,8L 15,8 Z M 12,18C 13.66,18 15,16.66 15,15C 15,13.34 13.66,12 12,12C 10.34,12 9,13.34 9,15C 9,16.66 10.34,18 12,18 Z M 17,2.00001L 21,6.00001L 21,18C 21,19.1 20.1,20 19,20L 5,20C 3.89,20 3,19.1 3,18L 3,4.00001C 3,2.9 3.89,2.00001 5,2.00001L 17,2.00001 Z M 11,22L 13,22L 13,24L 11,24L 11,22 Z M 7,22L 9,22L 9,24L 7,24L 7,22 Z M 15,22L 17,22L 17,24L 15,24L 15,22 Z "/>
</svg>
