<?xml version="1.0" encoding="utf-8"?>
<!DOCTYPE svg PUBLIC "-//W3C//DTD SVG 1.1//EN" "http://www.w3.org/Graphics/SVG/1.1/DTD/svg11.dtd">
<svg xmlns="http://www.w3.org/2000/svg" xmlns:xlink="http://www.w3.org/1999/xlink" version="1.1" baseProfile="full" width="24" height="24" viewBox="0 0 24.00 24.00" enable-background="new 0 0 24.00 24.00" xml:space="preserve">
	<path fill="#000000" fill-opacity="1" stroke-linejoin="round" d="M 19,20L 5,20L 5,4L 7,4L 7,7L 17,7L 17,4L 19,4M 12,2C 12.55,2 13,2.45 13,3C 13,3.55 12.55,4 12,4C 11.45,4 11,3.55 11,3C 11,2.45 11.45,2 12,2 Z M 19,2L 14.82,2C 14.4,0.840004 13.3,1.90735e-006 12,1.90735e-006C 10.7,1.90735e-006 9.6,0.840004 9.18,2L 5,2C 3.9,2 3,2.9 3,4L 3,20C 3,21.1 3.9,22 5,22L 19,22C 20.1,22 21,21.1 21,20L 21,4C 21,2.9 20.1,2 19,2 Z "/>
</svg>
