<?xml version="1.0" encoding="utf-8"?>
<!DOCTYPE svg PUBLIC "-//W3C//DTD SVG 1.1//EN" "http://www.w3.org/Graphics/SVG/1.1/DTD/svg11.dtd">
<svg xmlns="http://www.w3.org/2000/svg" xmlns:xlink="http://www.w3.org/1999/xlink" version="1.1" baseProfile="full" width="24" height="24" viewBox="0 0 24.00 24.00" enable-background="new 0 0 24.00 24.00" xml:space="preserve">
	<path fill="#000000" fill-opacity="1" stroke-width="0.2" stroke-linejoin="round" d="M 16.9994,15.4981L 11.9994,15.4981L 11.9994,16.9981L 16.9994,16.9981M 18.9994,18.9981L 4.99939,18.9991L 18.9994,4.99807M 5.49939,7.49807L 7.49939,7.49807L 7.49939,5.49807L 8.99939,5.49807L 8.99939,7.49807L 10.9994,7.49807L 10.9994,8.99807L 8.99939,8.99807L 8.99939,10.9981L 7.49939,10.9981L 7.49939,8.99807L 5.49939,8.99807M 18.9994,2.99807L 4.99939,2.99807C 3.89439,2.99807 2.99939,3.89307 2.99939,4.99807L 2.99939,18.9981C 2.99939,20.1031 3.89439,20.9981 4.99939,20.9981L 18.9994,20.9981C 20.1034,20.9981 20.9994,20.1031 20.9994,18.9981L 20.9994,4.99807C 20.9994,3.89307 20.1034,2.99807 18.9994,2.99807 Z "/>
</svg>
