<?xml version="1.0" encoding="utf-8"?>
<!DOCTYPE svg PUBLIC "-//W3C//DTD SVG 1.1//EN" "http://www.w3.org/Graphics/SVG/1.1/DTD/svg11.dtd">
<svg xmlns="http://www.w3.org/2000/svg" xmlns:xlink="http://www.w3.org/1999/xlink" version="1.1" baseProfile="full" width="24" height="24" viewBox="0 0 24.00 24.00" enable-background="new 0 0 24.00 24.00" xml:space="preserve">
	<path fill="#000000" fill-opacity="1" stroke-width="0.2" stroke-linejoin="round" d="M 11,17L 4,17C 2.9,17 2,16.1 2,15L 2,3C 2,1.9 2.9,1.00001 4,1.00001L 16,1.00001L 16,3L 4,3L 4,15L 11,15L 11,13L 15,16L 11,19L 11,17 Z M 19,21L 19,7L 8,7L 8,13L 6,13L 6,7C 6,5.9 6.9,5 8,5L 19,5C 20.1,5 21,5.9 21,7L 21,21C 21,22.1 20.1,23 19,23L 8,23C 6.9,23 6,22.1 6,21L 6,19L 8,19L 8,21L 19,21 Z "/>
</svg>
