<?xml version="1.0" encoding="utf-8"?>
<!DOCTYPE svg PUBLIC "-//W3C//DTD SVG 1.1//EN" "http://www.w3.org/Graphics/SVG/1.1/DTD/svg11.dtd">
<svg xmlns="http://www.w3.org/2000/svg" xmlns:xlink="http://www.w3.org/1999/xlink" version="1.1" baseProfile="full" width="24" height="24" viewBox="0 0 24.00 24.00" enable-background="new 0 0 24.00 24.00" xml:space="preserve">
	<path fill="#000000" fill-opacity="1" stroke-width="1.33333" stroke-linejoin="miter" d="M 17,3L 5,3C 3.89543,3 3,3.8954 3,5L 3,19C 3,20.1046 3.89543,21 5,21L 11.81,21C 11.2749,20.0911 10.9951,19.0547 11,18C 10.9948,17.9134 10.9948,17.8266 11,17.74C 10.039,17.1954 9.70141,15.9749 10.246,15.0139C 10.6035,14.3829 11.2747,13.9949 12,14C 12.1619,13.999 12.3233,14.0192 12.48,14.06C 12.972,13.4947 13.5656,13.0267 14.23,12.68C 12.396,11.4484 9.91089,11.9367 8.67929,13.7707C 8.23661,14.4299 8.00014,15.2059 8,16C 7.98832,17.1496 8.48186,18.2463 9.35,19L 5,19L 5,9L 15,9L 15,5L 16.17,5L 19,7.83L 19,12.35C 19.744,12.5992 20.426,13.005 21,13.54L 21,7L 17,3 Z M 13,7L 5,7L 5,5L 13,5L 13,7 Z M 13,17L 17,17L 17,14L 22,18.5L 17,23L 17,20L 13,20L 13,17"/>
</svg>
