<?xml version="1.0" encoding="utf-8"?>
<!DOCTYPE svg PUBLIC "-//W3C//DTD SVG 1.1//EN" "http://www.w3.org/Graphics/SVG/1.1/DTD/svg11.dtd">
<svg xmlns="http://www.w3.org/2000/svg" xmlns:xlink="http://www.w3.org/1999/xlink" version="1.1" baseProfile="full" width="24" height="24" viewBox="0 0 24.00 24.00" enable-background="new 0 0 24.00 24.00" xml:space="preserve">
	<path fill="#000000" fill-opacity="1" stroke-width="0.2" stroke-linejoin="round" stroke="#FFFFFF" stroke-opacity="1" d="M 12,6.05882C 13.7255,6.05882 18.6863,1.7451 21.2745,6.92157C 23.8627,12.098 23.2157,19 21.4902,19C 17.1765,19 19.7647,14.6863 12,14.6863C 4.23529,14.6863 6.82353,19 2.5098,19C 0.784311,19 0.137256,12.098 2.72549,6.92157C 5.31373,1.7451 10.2745,6.05882 12,6.05882 Z M 12,7.5C 11.1716,7.5 10.5,8.17157 10.5,9C 10.5,9.82843 11.1716,10.5 12,10.5C 12.8284,10.5 13.5,9.82843 13.5,9C 13.5,8.17157 12.8284,7.5 12,7.5 Z "/>
</svg>
