<?xml version="1.0" encoding="utf-8"?>
<!DOCTYPE svg PUBLIC "-//W3C//DTD SVG 1.1//EN" "http://www.w3.org/Graphics/SVG/1.1/DTD/svg11.dtd">
<svg xmlns="http://www.w3.org/2000/svg" xmlns:xlink="http://www.w3.org/1999/xlink" version="1.1" baseProfile="full" width="24" height="24" viewBox="0 0 24.00 24.00" enable-background="new 0 0 24.00 24.00" xml:space="preserve">
	<path fill="#000000" fill-opacity="1" stroke-width="1.33333" stroke-linejoin="miter" d="M 16.79,23C 16.3701,22.8275 16.0707,22.4484 16,22C 15.95,21.74 16,21.56 16.4,20.84C 17.8999,18.1376 18.6685,15.0905 18.63,12C 18.6709,9.0131 17.9444,6.0657 16.52,3.44C 16.2892,3.0209 16.0951,2.5826 15.94,2.13C 15.9817,1.7478 16.1903,1.4036 16.51,1.19C 16.9548,0.946501 17.5001,0.981598 17.91,1.28C 18.1858,1.6362 18.4269,2.0179 18.63,2.42C 19.7116,4.4785 20.4449,6.7019 20.8,9C 21.0289,10.8146 21.0591,12.6488 20.89,14.47C 20.5846,16.8064 19.8882,19.0747 18.83,21.18C 18.19,22.46 17.83,22.99 17.45,22.99C 17.367,22.9802 17.283,22.9802 17.2,22.99C 17.0645,23.0157 16.9255,23.0157 16.79,22.99L 16.79,23 Z M 12.43,20.79C 11.8598,20.625 11.5089,20.0531 11.62,19.47C 11.62,19.35 11.93,18.8 12.21,18.24C 13.3919,15.9701 13.8986,13.409 13.67,10.86C 13.5325,9.0305 13.0076,7.2512 12.13,5.64C 11.49,4.38 11.46,4.18 11.83,3.64C 12.2725,3.1494 13.0188,3.0839 13.54,3.49C 14.2558,4.5618 14.8306,5.7213 15.25,6.94C 16.5278,10.7295 16.3278,14.8616 14.69,18.51C 13.85,20.39 13.26,21 12.43,20.74L 12.43,20.79 Z M 7.93,18.56C 7.56938,18.3981 7.30113,18.0821 7.2,17.7C 7.2,17.48 7.2,17.24 7.65,16.44C 9.13741,13.7378 9.13741,10.4622 7.65,7.76C 7,6.49 6.98,6.24 7.53,5.76C 7.72289,5.5419 8.01116,5.4333 8.3,5.47C 8.94,5.47 9.3,5.78 9.84,6.91C 10.6866,8.4725 11.1268,10.2229 11.12,12C 11.1619,13.8149 10.7238,15.6087 9.85,17.2C 9.31,18.25 9.04,18.52 8.51,18.59C 8.313,18.6143 8.11307,18.5867 7.93,18.51L 7.93,18.56 Z M 3.72,16.43C 3.38819,16.2728 3.13014,15.9933 3,15.65C 2.9,15.3 3,15.02 3.4,14.36C 3.89754,13.6776 4.14154,12.843 4.09,12C 4.16023,11.1518 3.93016,10.3058 3.44,9.61C 3.27451,9.3576 3.12746,9.0936 3,8.82C 2.89019,8.1888 3.31284,7.5881 4,7.47C 4.54,7.37 4.92,7.6 5.42,8.36C 6.86968,10.5665 6.86968,13.4235 5.42,15.63C 4.91,16.4 4.33,16.63 3.73,16.43L 3.72,16.43 Z "/>
</svg>
