<?xml version="1.0" encoding="utf-8"?>
<!DOCTYPE svg PUBLIC "-//W3C//DTD SVG 1.1//EN" "http://www.w3.org/Graphics/SVG/1.1/DTD/svg11.dtd">
<svg xmlns="http://www.w3.org/2000/svg" xmlns:xlink="http://www.w3.org/1999/xlink" version="1.1" baseProfile="full" width="24" height="24" viewBox="0 0 24.00 24.00" enable-background="new 0 0 24.00 24.00" xml:space="preserve">
	<path fill="#000000" fill-opacity="1" stroke-width="1.33333" stroke-linejoin="miter" d="M 15,4L 15,8L 5,8L 5,18L 9.35,18C 8.5,17.27 8,16.19 8,15C 8,12.7909 9.79086,11 12,11C 14.2091,11 16,12.7909 16,15C 16,16.19 15.5,17.27 14.65,18L 19,18L 19,6.83L 16.17,4L 15,4 Z M 5,6L 13,6L 13,4L 5,4L 5,6 Z M 17,2.00001L 21,6L 21,18C 21,19.1046 20.1046,20 19,20L 5,20C 3.89,20 3,19.1 3,18L 3,4C 3,2.8954 3.89543,2.00001 5,2.00001L 17,2.00001 Z M 12,13C 10.8954,13 10,13.8954 10,15C 10,16.1046 10.8954,17 12,17C 13.1046,17 14,16.1046 14,15C 14,13.8954 13.1046,13 12,13 Z M 7,22L 9,22L 9,24L 7,24L 7,22 Z M 11,22L 13,22L 13,24L 11,24L 11,22 Z M 15,22L 17,22L 17,24L 15,24L 15,22 Z "/>
</svg>
