<?xml version="1.0" encoding="utf-8"?>
<!DOCTYPE svg PUBLIC "-//W3C//DTD SVG 1.1//EN" "http://www.w3.org/Graphics/SVG/1.1/DTD/svg11.dtd">
<svg xmlns="http://www.w3.org/2000/svg" xmlns:xlink="http://www.w3.org/1999/xlink" version="1.1" baseProfile="full" width="24" height="24" viewBox="0 0 24.00 24.00" enable-background="new 0 0 24.00 24.00" xml:space="preserve">
	<path fill="#000000" fill-opacity="1" stroke-width="0.2" stroke-linejoin="round" d="M 15,5L 15,9L 5,9L 5,19L 9.35418,19C 8.52376,18.2671 8,17.1947 8,16C 8,13.7909 9.79086,12 12,12C 14.2091,12 16,13.7909 16,16C 16,17.1947 15.4762,18.2671 14.6458,19L 19,19L 19,7.82843L 16.1716,5L 15,5 Z M 5,7L 13,7L 13,5L 5,5.00001L 5,7 Z M 17,3.00001L 21,7.00001L 21,19C 21,20.1 20.1,21 19,21L 5,21C 3.89,21 3,20.1 3,19L 3,5.00001C 3,3.90001 3.89,3.00001 5,3.00001L 17,3.00001 Z M 12,14C 10.8954,14 10,14.8954 10,16C 10,17.1046 10.8954,18 12,18C 13.1046,18 14,17.1046 14,16C 14,14.8954 13.1046,14 12,14 Z "/>
</svg>
