<?xml version="1.0" encoding="utf-8"?>
<!DOCTYPE svg PUBLIC "-//W3C//DTD SVG 1.1//EN" "http://www.w3.org/Graphics/SVG/1.1/DTD/svg11.dtd">
<svg xmlns="http://www.w3.org/2000/svg" xmlns:xlink="http://www.w3.org/1999/xlink" version="1.1" baseProfile="full" width="24" height="24" viewBox="0 0 24.00 24.00" enable-background="new 0 0 24.00 24.00" xml:space="preserve">
	<path fill="#000000" fill-opacity="1" stroke-width="0.2" stroke-linejoin="round" d="M 11.9993,19.9981C 9.7903,19.9981 7.7903,19.1031 6.34231,17.6551L 17.6563,6.34107C 19.1043,7.78806 19.9993,9.78907 19.9993,11.9981C 19.9993,16.4171 16.4173,19.9981 11.9993,19.9981 Z M 5.9993,7.99807L 7.9993,7.99807L 7.9993,5.99807L 9.4993,5.99807L 9.4993,7.99807L 11.4993,7.99807L 11.4993,9.49807L 9.4993,9.49807L 9.4993,11.4981L 7.9993,11.4981L 7.9993,9.49807L 5.9993,9.49807M 11.9993,1.99807C 6.47631,1.99807 1.9993,6.47507 1.9993,11.9981C 1.9993,17.5211 6.47631,21.9981 11.9993,21.9981C 17.5223,21.9981 21.9993,17.5211 21.9993,11.9981C 21.9993,6.47507 17.5223,1.99807 11.9993,1.99807 Z M 11.9993,15.9981L 16.9993,15.9981L 16.9993,14.4981L 11.9993,14.4981L 11.9993,15.9981 Z "/>
</svg>
