<?xml version="1.0" encoding="utf-8"?>
<!DOCTYPE svg PUBLIC "-//W3C//DTD SVG 1.1//EN" "http://www.w3.org/Graphics/SVG/1.1/DTD/svg11.dtd">
<svg xmlns="http://www.w3.org/2000/svg" xmlns:xlink="http://www.w3.org/1999/xlink" version="1.1" baseProfile="full" width="24" height="24" viewBox="0 0 24.00 24.00" enable-background="new 0 0 24.00 24.00" xml:space="preserve">
	<path fill="#000000" fill-opacity="1" stroke-width="1.33333" stroke-linejoin="miter" d="M 20,0L 4,0L 4,2L 20,2L 20,0 Z M 4,24L 20,24L 20,22L 4,22L 4,24 Z M 20,4L 4,4C 2.9,4 2,4.9 2,6L 2,18C 2,19.1 2.9,20 4,20L 20,20C 21.1,20 22,19.1 22,18L 22,6C 22,4.9 21.1,4 20,4 Z M 12,6.75C 13.24,6.75 14.25,7.76 14.25,9C 14.25,10.24 13.24,11.25 12,11.25C 10.76,11.25 9.75,10.24 9.75,9C 9.75,7.76 10.76,6.75 12,6.75 Z M 17,17L 7,17L 7,15.5C 7,13.83 10.33,13 12,13C 13.67,13 17,13.83 17,15.5L 17,17 Z "/>
</svg>
