<?xml version="1.0" encoding="utf-8"?>
<!DOCTYPE svg PUBLIC "-//W3C//DTD SVG 1.1//EN" "http://www.w3.org/Graphics/SVG/1.1/DTD/svg11.dtd">
<svg xmlns="http://www.w3.org/2000/svg" xmlns:xlink="http://www.w3.org/1999/xlink" version="1.1" baseProfile="full" width="24" height="24" viewBox="0 0 24.00 24.00" enable-background="new 0 0 24.00 24.00" xml:space="preserve">
	<path fill="#000000" fill-opacity="1" stroke-width="1.33333" stroke-linejoin="miter" d="M 22,3L 2,3C 0.900001,3 1.27157e-006,3.9 1.27157e-006,5L 1.27157e-006,19C 1.27157e-006,20.1 0.900001,21 2,21L 22,21C 23.1,21 23.99,20.1 23.99,19L 24,5C 24,3.9 23.1,3 22,3 Z M 8,6C 9.66,6 11,7.34 11,9C 11,10.66 9.66,12 8,12C 6.34,12 5,10.66 5,9C 5,7.34 6.34,6 8,6 Z M 14,18L 2,18L 2,17C 2,15 6,13.9 8,13.9C 10,13.9 14,15 14,17L 14,18 Z M 17.85,14L 19.49,14L 21,16L 19.01,17.99C 17.7,17.01 16.73,15.61 16.28,14C 16.1,13.36 16,12.69 16,12C 16,11.31 16.1,10.64 16.28,10C 16.73,8.38 17.7,6.99 19.01,6.01L 21,8L 19.49,10L 17.85,10C 17.63,10.63 17.5,11.3 17.5,12C 17.5,12.7 17.63,13.37 17.85,14 Z "/>
</svg>
