<?xml version="1.0" encoding="utf-8"?>
<!DOCTYPE svg PUBLIC "-//W3C//DTD SVG 1.1//EN" "http://www.w3.org/Graphics/SVG/1.1/DTD/svg11.dtd">
<svg xmlns="http://www.w3.org/2000/svg" xmlns:xlink="http://www.w3.org/1999/xlink" version="1.1" baseProfile="full" width="24" height="24" viewBox="0 0 24.00 24.00" enable-background="new 0 0 24.00 24.00" xml:space="preserve">
	<path fill="#000000" fill-opacity="1" stroke-linejoin="round" d="M 15,5L 15,9L 5,9L 5,19L 7.99963,19C 7.37194,18.1643 7,17.1256 7,16C 7,13.2386 9.23857,11 12,11C 14.7614,11 17,13.2386 17,16C 17,17.1256 16.628,18.1643 16.0004,19L 19,19L 19,7.82843L 16.1716,5L 15,5 Z M 5,7L 13,7L 13,5L 5,5L 5,7 Z M 17,3.00001L 21,7.00001L 21,19C 21,20.1 20.1,21 19,21L 5,21C 3.89,21 3,20.1 3,19L 3,5.00001C 3,3.90001 3.89,3.00001 5,3.00001L 17,3.00001 Z M 12,13C 10.3431,13 9,14.3432 9,16C 9,17.6569 10.3431,19 12,19L 12,19C 13.6568,19 15,17.6569 15,16C 15,14.3432 13.6568,13 12,13 Z "/>
</svg>
