<?xml version="1.0" encoding="utf-8"?>
<!DOCTYPE svg PUBLIC "-//W3C//DTD SVG 1.1//EN" "http://www.w3.org/Graphics/SVG/1.1/DTD/svg11.dtd">
<svg xmlns="http://www.w3.org/2000/svg" xmlns:xlink="http://www.w3.org/1999/xlink" version="1.1" baseProfile="full" width="24" height="24" viewBox="0 0 24.00 24.00" enable-background="new 0 0 24.00 24.00" xml:space="preserve">
	<path fill="#000000" fill-opacity="1" stroke-width="0.2" stroke-linejoin="round" d="M 6,7L 18,7C 20.7614,7 23,9.23858 23,12C 23,14.7614 20.7614,17 18,17C 16.3642,17 14.9118,16.2144 13.9996,15L 10.0004,15C 9.08816,16.2144 7.63582,17 6,17C 3.23858,17 1,14.7614 1,12C 1,9.23858 3.23858,7 6,7 Z M 19.75,9.50001C 19.0596,9.50001 18.5,10.0597 18.5,10.75C 18.5,11.4404 19.0596,12 19.75,12C 20.4404,12 21,11.4404 21,10.75C 21,10.0597 20.4403,9.50001 19.75,9.50001 Z M 17.25,12C 16.5596,12 16,12.5596 16,13.25C 16,13.9404 16.5596,14.5 17.25,14.5C 17.9404,14.5 18.5,13.9404 18.5,13.25C 18.5,12.5596 17.9403,12 17.25,12 Z M 5,9L 5,11L 3,11L 3,13L 5,13L 5,15L 7,15L 7,13L 9,13L 9,11L 7,11L 7,9L 5,9 Z "/>
</svg>
