<?xml version="1.0" encoding="utf-8"?>
<!DOCTYPE svg PUBLIC "-//W3C//DTD SVG 1.1//EN" "http://www.w3.org/Graphics/SVG/1.1/DTD/svg11.dtd">
<svg xmlns="http://www.w3.org/2000/svg" xmlns:xlink="http://www.w3.org/1999/xlink" version="1.1" baseProfile="full" width="24" height="24" viewBox="0 0 24.00 24.00" enable-background="new 0 0 24.00 24.00" xml:space="preserve">
	<path fill="#000000" fill-opacity="1" stroke-width="1.33333" stroke-linejoin="miter" d="M 22,3L 2,3C 0.900001,3 1.27157e-006,3.9 1.27157e-006,5L 1.27157e-006,19C 1.27157e-006,20.1 0.900001,21 2,21L 22,21C 23.1,21 23.99,20.1 23.99,19L 24,5C 24,3.9 23.1,3 22,3 Z M 22,19L 2,19L 2,5L 22,5L 22,19 Z M 19.01,17.99L 21,16L 19.49,14L 17.85,14C 17.63,13.37 17.5,12.7 17.5,12C 17.5,11.3 17.63,10.63 17.85,10L 19.49,10L 21,8L 19.01,6.01C 17.7,6.99 16.73,8.38 16.28,10C 16.1,10.64 16,11.31 16,12C 16,12.69 16.1,13.36 16.28,14C 16.73,15.61 17.7,17.01 19.01,17.99 Z M 9,12C 10.65,12 12,10.65 12,9C 12,7.35 10.65,6 9,6C 7.35,6 6,7.35 6,9C 6,10.65 7.35,12 9,12 Z M 9,8C 9.55,8 10,8.45 10,9C 10,9.55 9.55,10 9,10C 8.45,10 8,9.55 8,9C 8,8.45 8.45,8 9,8 Z M 15,16.59C 15,14.09 11.03,13.01 9,13.01C 6.97,13.01 3,14.09 3,16.59L 3,18L 15,18L 15,16.59 Z M 5.48,16C 6.22,15.5 7.7,15 9,15C 10.3,15 11.77,15.49 12.52,16L 5.48,16 Z "/>
</svg>
