<?xml version="1.0" encoding="utf-8"?>
<!DOCTYPE svg PUBLIC "-//W3C//DTD SVG 1.1//EN" "http://www.w3.org/Graphics/SVG/1.1/DTD/svg11.dtd">
<svg xmlns="http://www.w3.org/2000/svg" xmlns:xlink="http://www.w3.org/1999/xlink" version="1.1" baseProfile="full" width="24" height="24" viewBox="0 0 24.00 24.00" enable-background="new 0 0 24.00 24.00" xml:space="preserve">
	<path fill="#000000" fill-opacity="1" stroke-width="1.33333" stroke-linejoin="miter" d="M 20.1818,21.5455L 16.9432,21.5455L 17.1705,18.8181L 15.5795,18.8181L 15.3523,21.5455L 8.64772,21.5455L 8.42038,18.8181L 6.82959,18.8181L 7.05694,21.5455L 3.8181,21.5455L 1.99997,9.7272L 6.54545,2.4545L 17.4545,2.4545L 22,9.7272L 20.1818,21.5455 Z M 16.5455,6.0908L 13.6234,6.0908L 13.8182,7.4545L 10.1818,7.4545L 10.3766,6.0908L 7.45452,6.0908L 5.63631,9.7273L 6.54545,16.9999L 17.4545,16.9999L 18.3637,9.7273L 16.5455,6.0908 Z M 14.9545,14.5863C 14.7035,14.5863 14.5,13.8293 14.5,12.8955C 14.5,11.9616 14.7035,11.2045 14.9545,11.2045C 15.2056,11.2045 15.4091,11.9616 15.4091,12.8955C 15.4091,13.8293 15.2056,14.5863 14.9545,14.5863 Z M 9.21593,14.7273C 8.96491,14.7273 8.76132,13.9702 8.76132,13.0363C 8.76132,12.1025 8.96491,11.3455 9.21593,11.3455C 9.46695,11.3455 9.67046,12.1025 9.67046,13.0363C 9.67046,13.9702 9.46695,14.7273 9.21593,14.7273 Z "/>
</svg>
