<?xml version="1.0" encoding="utf-8"?>
<!DOCTYPE svg PUBLIC "-//W3C//DTD SVG 1.1//EN" "http://www.w3.org/Graphics/SVG/1.1/DTD/svg11.dtd">
<svg xmlns="http://www.w3.org/2000/svg" xmlns:xlink="http://www.w3.org/1999/xlink" version="1.1" baseProfile="full" width="24" height="24" viewBox="0 0 24.00 24.00" enable-background="new 0 0 24.00 24.00" xml:space="preserve">
	<path fill="#000000" fill-opacity="1" stroke-width="0.2" stroke-linejoin="miter" d="M 11,12L 8.81828,12C 9.62124,12.5023 10.3518,13.0733 11,13.6818L 11,12 Z M 7,11C 7.26696,5.87904 9.36528,2.00001 12,2.00001C 14.6551,2.00001 16.7654,5.9392 16.9817,11.1189C 18.4802,10.4266 20.1698,10 22,10C 16.2475,12.5715 18.25,22 12,22C 6,22 7.92593,12.5715 2,10C 3.81667,10 5.49888,10.396 7,11 Z M 11,11L 11,9L 8.2378,9L 8.02578,11L 11,11 Z M 11,8L 11,6L 9.04739,6C 8.80494,6.60135 8.5972,7.27403 8.43216,8L 11,8 Z M 11,5L 11,3.29738C 10.4549,3.62657 9.95138,4.21602 9.51871,5L 11,5 Z M 12,3L 12,5L 13,5L 13,6L 12,6L 12,8L 14,8L 14,9L 12,9L 12,11L 15,11L 15,12L 12,12L 12,14L 14,14L 14,15L 12.2329,15C 13.4173,16.4483 14.1519,17.9766 14.3231,19.2345C 15.3104,17.5588 15.9634,14.8435 15.9985,11.762C 15.9402,6.98828 14.1326,3 12,3 Z "/>
</svg>
