<?xml version="1.0" encoding="utf-8"?>
<!DOCTYPE svg PUBLIC "-//W3C//DTD SVG 1.1//EN" "http://www.w3.org/Graphics/SVG/1.1/DTD/svg11.dtd">
<svg xmlns="http://www.w3.org/2000/svg" xmlns:xlink="http://www.w3.org/1999/xlink" version="1.1" baseProfile="full" width="24" height="24" viewBox="0 0 24.00 24.00" enable-background="new 0 0 24.00 24.00" xml:space="preserve">
	<path fill="#000000" fill-opacity="1" stroke-linejoin="round" d="M 4,4.00001L 20,4.00001C 21.1046,4.00001 22,4.89544 22,6.00001L 22,18C 22,19.1046 21.1046,20 20,20L 4,20C 2.89543,20 2,19.1046 2,18L 2,6.00001C 2,4.89544 2.89543,4.00001 4,4.00001 Z M 4,6.00001L 4,18L 11,18L 11,6.00001L 4,6.00001 Z M 20,18L 20,6.00001L 18.7571,6.00001C 18.996,6.54263 18.9501,7.07495 18.9453,7.12655C 18.8828,7.79842 18.4141,8.50155 18.2422,8.75155L 15.9141,11.2984L 19.2266,11.2828L 19.2422,12.4859L 14.0391,12.4703L 14.0078,11.4703C 14.0078,11.4703 17.0547,8.23592 17.1953,7.95467C 17.3359,7.67342 17.9141,5.98592 16.5234,6.01717C 15.2738,6.04526 15.4141,7.29842 15.4141,7.29842L 13.8672,7.31405C 13.8672,7.31405 13.8798,6.64712 14.2458,6.00001L 13,6.00001L 13,18L 15.5827,18L 15.5703,17.1422L 16.5391,17.1265C 16.5391,17.1265 17.4453,16.9703 17.4609,16.0797C 17.4785,15.0797 16.6484,15.0797 16.5078,15.0797C 16.3672,15.0797 15.4297,15.1265 15.4297,15.9547L 13.9141,15.9547C 13.9141,15.9547 13.9453,13.8922 16.5234,13.8922C 19.1016,13.8922 18.9609,15.9078 18.9609,15.9078C 18.9609,15.9078 19.0078,17.1578 17.8516,17.6265L 18.3725,18L 20,18 Z M 8.92166,16L 7.41666,16L 7.41666,10.1983L 5.62,10.755L 5.62,9.53167L 8.76,8.40667L 8.92166,8.40667L 8.92166,16 Z "/>
</svg>
