<?xml version="1.0" encoding="utf-8"?>
<!DOCTYPE svg PUBLIC "-//W3C//DTD SVG 1.1//EN" "http://www.w3.org/Graphics/SVG/1.1/DTD/svg11.dtd">
<svg xmlns="http://www.w3.org/2000/svg" xmlns:xlink="http://www.w3.org/1999/xlink" version="1.1" baseProfile="full" width="24" height="24" viewBox="0 0 24.00 24.00" enable-background="new 0 0 24.00 24.00" xml:space="preserve">
	<path fill="#000000" fill-opacity="1" fill-rule="evenodd" stroke-linejoin="round" d="M 20,22L 4,22L 4,20C 4,17.792 7.57867,16 12,16C 16.4213,16 20,17.792 20,20M 8,9L 16,9L 16,10C 16,12.1933 14.1933,14 12,14C 9.80667,14 8,12.1933 8,10M 7.5,6C 7.5,5.99467 8.016,5.02133 8.5,3.98933C 8.984,2.95333 9.40133,2 10.5,2L 10.516,2C 11.104,2.00533 11.636,2.26533 12,2.67733L 12.0107,2.66666C 12.3693,2.26 12.9013,2.00533 13.484,2L 13.5107,2C 14.604,2.00533 15.016,2.95866 15.5,3.98933C 15.984,5.02133 16.5,5.99467 16.5,6L 18,6C 18,6 18,5.5 18,5C 18,4.448 18.448,4 19,4C 19.552,4 20,4.448 20,5C 20,5.30666 20,5.65066 20,6C 20,7.104 19.104,8 18,8C 14.9267,8 9.07333,8 6,8C 4.896,8 4,7.104 4,6C 4,5.65066 4,5.30666 4,5C 4,4.448 4.448,4 5,4C 5.552,4 6,4.448 6,5C 6,5.5 6,6 6,6"/>
</svg>
