<?xml version="1.0" encoding="utf-8"?>
<!DOCTYPE svg PUBLIC "-//W3C//DTD SVG 1.1//EN" "http://www.w3.org/Graphics/SVG/1.1/DTD/svg11.dtd">
<svg xmlns="http://www.w3.org/2000/svg" xmlns:xlink="http://www.w3.org/1999/xlink" version="1.1" baseProfile="full" width="24" height="24" viewBox="0 0 24.00 24.00" enable-background="new 0 0 24.00 24.00" xml:space="preserve">
	<path fill="#000000" fill-opacity="1" stroke-width="1.33333" stroke-linejoin="miter" d="M 20,6L 20,5C 20,4.448 19.552,4 19,4L 9,4L 9,3L 6,3L 6,4L 5,4L 5,6L 6,6L 6,15L 5,15L 5,13L 3,13L 3,15L 2,15L 2,17L 3,17L 3,21L 5,21L 5,17L 10,17L 10,21L 12,21L 12,19.917L 12,17L 13,17L 13,15L 12,15L 12,13L 10,13L 10,15L 9,15L 9,6L 17,6L 17,10.616C 16.529,10.788 16.187,11.231 16.187,11.761C 16.187,12.197 16.427,12.598 16.802,12.815L 16.802,14.007L 17.417,14.007C 17.756,14.007 18.032,14.283 18.032,14.622C 18.032,14.961 17.756,15.237 17.417,15.237C 17.198,15.237 16.994,15.119 16.885,14.928C 16.712,14.635 16.335,14.537 16.046,14.705C 15.753,14.874 15.652,15.251 15.82,15.546C 16.149,16.114 16.761,16.467 17.417,16.467C 18.434,16.467 19.261,15.64 19.261,14.623C 19.261,13.837 18.757,13.141 18.031,12.884L 18.031,12.816C 18.406,12.599 18.646,12.198 18.646,11.762C 18.646,11.299 18.379,10.91 17.999,10.7L 17.999,6L 20,6 Z M 8,13.657L 7,14.657L 7,13.243L 8,12.243L 8,13.657 Z M 8,10.707L 7,11.707L 7,10.293L 8,9.293L 8,10.707 Z M 7,8.707L 7,7.293L 8,6.293L 8,7.707L 7,8.707 Z "/>
</svg>
