<?xml version="1.0" encoding="utf-8"?>
<!DOCTYPE svg PUBLIC "-//W3C//DTD SVG 1.1//EN" "http://www.w3.org/Graphics/SVG/1.1/DTD/svg11.dtd">
<svg xmlns="http://www.w3.org/2000/svg" xmlns:xlink="http://www.w3.org/1999/xlink" version="1.1" baseProfile="full" width="24" height="24" viewBox="0 0 24.00 24.00" enable-background="new 0 0 24.00 24.00" xml:space="preserve">
	<path fill="#000000" fill-opacity="1" stroke-width="1.33333" stroke-linejoin="miter" d="M 11.893,10.34L 10.553,11.037C 10.41,10.74 10.235,10.531 10.026,10.412C 9.818,10.293 9.624,10.234 9.445,10.234C 8.552,10.234 8.106,10.823 8.106,12.002C 8.106,12.538 8.219,12.966 8.445,13.287C 8.671,13.609 9.005,13.77 9.445,13.77C 10.028,13.77 10.439,13.484 10.678,12.913L 11.91,13.538C 11.648,14.026 11.285,14.41 10.821,14.69C 10.357,14.97 9.845,15.11 9.285,15.11C 8.392,15.11 7.672,14.837 7.124,14.288C 6.576,13.74 6.303,12.979 6.303,12.003C 6.303,11.05 6.58,10.295 7.133,9.735C 7.686,9.176 8.386,8.896 9.231,8.896C 10.47,8.893 11.357,9.375 11.893,10.34 Z M 17.661,10.34L 16.339,11.037C 16.196,10.74 16.02,10.531 15.812,10.412C 15.603,10.293 15.404,10.234 15.214,10.234C 14.321,10.234 13.874,10.823 13.874,12.002C 13.874,12.538 13.987,12.966 14.213,13.287C 14.439,13.608 14.772,13.77 15.213,13.77C 15.796,13.77 16.207,13.484 16.445,12.913L 17.695,13.538C 17.422,14.026 17.052,14.41 16.588,14.69C 16.124,14.97 15.618,15.11 15.07,15.11C 14.165,15.11 13.442,14.837 12.901,14.288C 12.358,13.74 12.088,12.979 12.088,12.003C 12.088,11.05 12.365,10.295 12.919,9.735C 13.472,9.176 14.172,8.896 15.017,8.896C 16.256,8.893 17.137,9.375 17.661,10.34 Z M 12,3.5C 16.687,3.5 20.5,7.313 20.5,12C 20.5,16.687 16.687,20.5 12,20.5C 7.313,20.5 3.5,16.687 3.5,12C 3.5,7.313 7.313,3.5 12,3.5M 12,2C 6.477,2 2,6.477 2,12C 2,17.523 6.477,22 12,22C 17.523,22 22,17.523 22,12C 22,6.477 17.523,2 12,2 Z "/>
</svg>
