<?xml version="1.0" encoding="utf-8"?>
<!DOCTYPE svg PUBLIC "-//W3C//DTD SVG 1.1//EN" "http://www.w3.org/Graphics/SVG/1.1/DTD/svg11.dtd">
<svg xmlns="http://www.w3.org/2000/svg" xmlns:xlink="http://www.w3.org/1999/xlink" version="1.1" baseProfile="full" width="24" height="24" viewBox="0 0 24.00 24.00" enable-background="new 0 0 24.00 24.00" xml:space="preserve">
	<path fill="#000000" fill-opacity="1" stroke-width="0.2" stroke-linejoin="round" d="M 21,18L 24,18L 24,20L 21,20L 21,23L 19,23L 19,20L 16,20L 16,18L 19,18L 19,15L 21,15L 21,18 Z M 18.9994,7.99805L 18.9994,5.99805L 2.99939,5.99805L 2.99939,7.99805L 18.9994,7.99805 Z M 18.9994,11.9981L 2.99939,11.9981L 2.99939,17.998L 14,17.998L 14,19.998L 2.99939,19.998C 1.89437,19.998 0.999389,19.1041 0.999389,17.998L 1.0094,5.99805C 1.0094,4.89201 1.89437,3.99805 2.99939,3.99805L 18.9994,3.99805C 20.1044,3.99805 20.9994,4.89201 20.9994,5.99805L 20.9994,13L 18.9994,13L 18.9994,11.9981 Z "/>
</svg>
