<?xml version="1.0" encoding="utf-8"?>
<!DOCTYPE svg PUBLIC "-//W3C//DTD SVG 1.1//EN" "http://www.w3.org/Graphics/SVG/1.1/DTD/svg11.dtd">
<svg xmlns="http://www.w3.org/2000/svg" xmlns:xlink="http://www.w3.org/1999/xlink" version="1.1" baseProfile="full" width="24" height="24" viewBox="0 0 24.00 24.00" enable-background="new 0 0 24.00 24.00" xml:space="preserve">
	<path fill="#000000" fill-opacity="1" stroke-width="1.33333" stroke-linejoin="miter" d="M 20,8L 4,8L 4,6L 20,6M 20,18L 4,18L 4,12L 20,12M 20,4L 4,4C 2.89,4 2,4.89 2,6L 2,18C 2,19.1046 2.89543,20 4,20L 20,20C 21.1046,20 22,19.1046 22,18L 22,6C 22,4.89 21.1,4 20,4 Z M 7,22L 9,22L 9,24L 7,24L 7,22M 11,22L 13,22L 13,24L 11,24L 11,22M 15,22L 17,22L 17,24L 15,24L 15,22 Z "/>
</svg>
