<?xml version="1.0" encoding="utf-8"?>
<!DOCTYPE svg PUBLIC "-//W3C//DTD SVG 1.1//EN" "http://www.w3.org/Graphics/SVG/1.1/DTD/svg11.dtd">
<svg xmlns="http://www.w3.org/2000/svg" xmlns:xlink="http://www.w3.org/1999/xlink" version="1.1" baseProfile="full" width="24" height="24" viewBox="0 0 24.00 24.00" enable-background="new 0 0 24.00 24.00" xml:space="preserve">
	<path fill="#000000" fill-opacity="1" stroke-width="0.2" stroke-linejoin="round" d="M 20.9989,7.99902L 20.9989,5.99902L 6.99915,5.99854L 6.99915,7.99854L 20.9989,7.99902 Z M 20.9991,15.9985L 20.9988,10.9993L 6.99902,10.9988L 6.99939,15.998L 20.9991,15.9985 Z M 20.9989,3.99903C 22.1039,3.99903 22.9989,4.89299 22.9989,5.99903L 22.9991,15.9985C 22.9991,17.1046 22.1042,17.9985 20.9991,17.9985L 6.99939,17.998C 5.89437,17.998 4.99939,17.1041 4.99939,15.998L 5.00915,5.99854C 5.00915,4.8925 5.89412,3.99854 6.99915,3.99854L 20.9989,3.99903 Z M 3,20L 18,20L 18,22L 3.00024,21.9995C 1.89522,21.9995 1.00024,21.1055 1.00024,19.9995L 1,9L 3,9L 3,20 Z "/>
</svg>
