<?xml version="1.0" encoding="utf-8"?>
<!DOCTYPE svg PUBLIC "-//W3C//DTD SVG 1.1//EN" "http://www.w3.org/Graphics/SVG/1.1/DTD/svg11.dtd">
<svg xmlns="http://www.w3.org/2000/svg" xmlns:xlink="http://www.w3.org/1999/xlink" version="1.1" baseProfile="full" width="24" height="24" viewBox="0 0 24.00 24.00" enable-background="new 0 0 24.00 24.00" xml:space="preserve">
	<path fill="#000000" fill-opacity="1" stroke-width="0.2" stroke-linejoin="round" d="M 16,14L 17.5,14L 17.5,16.82L 19.94,18.23L 19.19,19.53L 16,17.69L 16,14 Z M 24,17C 24,20.866 20.866,24 17,24C 14.2068,24 11.7958,22.364 10.6727,19.998L 3.99935,19.998C 2.89433,19.998 1.99935,19.1041 1.99935,17.9981L 2.00936,5.99805C 2.00936,4.89202 2.89433,3.99805 3.99935,3.99805L 19.9993,3.99805C 21.1044,3.99805 21.9993,4.89202 21.9993,5.99805L 21.9993,12.1003C 23.2369,13.3629 24,15.0924 24,17 Z M 17,12C 14.2386,12 12,14.2386 12,17C 12,19.7614 14.2386,22 17,22C 19.7614,22 22,19.7614 22,17C 22,14.2386 19.7614,12 17,12 Z M 19.9993,9.99806L 19.9993,6.99805L 3.99935,6.99805L 3.99935,9.99806L 19.9993,9.99806 Z "/>
</svg>
