<?xml version="1.0" encoding="utf-8"?>
<!DOCTYPE svg PUBLIC "-//W3C//DTD SVG 1.1//EN" "http://www.w3.org/Graphics/SVG/1.1/DTD/svg11.dtd">
<svg xmlns="http://www.w3.org/2000/svg" xmlns:xlink="http://www.w3.org/1999/xlink" version="1.1" baseProfile="full" width="24" height="24" viewBox="0 0 24.00 24.00" enable-background="new 0 0 24.00 24.00" xml:space="preserve">
	<path fill="#000000" fill-opacity="1" stroke-width="1.33333" stroke-linejoin="miter" d="M 13.5,18L 4,18L 4,12L 14.3,12C 15.3,10.8 16.8,10 18.5,10C 19.8,10 21,10.5 22,11.3L 22,6C 22,4.9 21.1,4 20,4L 4,4C 2.9,4 2,4.9 2,6L 2,18C 2,19.1 2.9,20 4,20L 14.6,20C 14.2,19.4 13.8,18.7 13.5,18 Z M 4,6L 20,6L 20,8L 4,8L 4,6 Z M 18.5,12C 16.6,12 15,13.6 15,15.5C 15,18.1 18.5,22 18.5,22C 18.5,22 22,18.1 22,15.5C 22,13.6 20.4,12 18.5,12 Z M 18.5,16.8C 17.8,16.8 17.3,16.2 17.3,15.6C 17.3,14.9 17.9,14.4 18.5,14.4C 19.1,14.4 19.7,15 19.7,15.6C 19.8,16.2 19.2,16.8 18.5,16.8 Z "/>
</svg>
