<?xml version="1.0" encoding="utf-8"?>
<!DOCTYPE svg PUBLIC "-//W3C//DTD SVG 1.1//EN" "http://www.w3.org/Graphics/SVG/1.1/DTD/svg11.dtd">
<svg xmlns="http://www.w3.org/2000/svg" xmlns:xlink="http://www.w3.org/1999/xlink" version="1.1" baseProfile="full" width="24" height="24" viewBox="0 0 24.00 24.00" enable-background="new 0 0 24.00 24.00" xml:space="preserve">
	<path fill="#000000" fill-opacity="1" stroke-width="1.33333" stroke-linejoin="miter" d="M 18,11L 6,11C 4.89543,11 4,11.8954 4,13L 4,21C 4,22.1046 4.89543,23 6,23L 18,23C 19.1046,23 20,22.1046 20,21L 20,13C 20,11.8954 19.1046,11 18,11M 18,21L 6,21L 6,17L 18,17L 18,21M 18,15L 6,15L 6,13L 18,13L 18,15M 4.93,4.92L 6.34,6.33C 9.46246,3.2041 14.5278,3.2013 17.66,6.33L 19.07,4.92C 15.165,1.0162 8.835,1.0162 4.93,4.92M 7.76,7.75L 9.17,9.16C 10.7312,7.597 13.2639,7.5956 14.83,9.16L 16.24,7.75C 13.8975,5.4104 10.1025,5.4104 7.76,7.75 Z "/>
</svg>
