<?xml version="1.0" encoding="utf-8"?>
<!DOCTYPE svg PUBLIC "-//W3C//DTD SVG 1.1//EN" "http://www.w3.org/Graphics/SVG/1.1/DTD/svg11.dtd">
<svg xmlns="http://www.w3.org/2000/svg" xmlns:xlink="http://www.w3.org/1999/xlink" version="1.1" baseProfile="full" width="24" height="24" viewBox="0 0 24.00 24.00" enable-background="new 0 0 24.00 24.00" xml:space="preserve">
	<path fill="#000000" fill-opacity="1" stroke-width="1.33333" stroke-linejoin="miter" d="M 7.47,21.49C 4.2,19.93 1.86,16.76 1.5,13L 1.27157e-006,13C 0.510001,19.16 5.66,24 11.95,24C 12.18,24 12.39,23.98 12.61,23.97L 8.8,20.15L 7.47,21.49 Z M 12.05,0C 11.82,0 11.61,0.0199986 11.39,0.039999L 15.2,3.85L 16.53,2.52C 19.8,4.07 22.14,7.24 22.5,11L 24,11C 23.49,4.84 18.34,0 12.05,0 Z M 16,14L 18,14L 18,8C 18,6.89 17.1,6 16,6L 10,6L 10,8L 16,8L 16,14 Z M 8,16L 8,4L 6,4L 6,6L 4,6L 4,8L 6,8L 6,16C 6,17.1 6.89,18 8,18L 16,18L 16,20L 18,20L 18,18L 20,18L 20,16L 8,16 Z "/>
</svg>
