<?xml version="1.0" encoding="utf-8"?>
<!DOCTYPE svg PUBLIC "-//W3C//DTD SVG 1.1//EN" "http://www.w3.org/Graphics/SVG/1.1/DTD/svg11.dtd">
<svg xmlns="http://www.w3.org/2000/svg" xmlns:xlink="http://www.w3.org/1999/xlink" version="1.1" baseProfile="full" width="24" height="24" viewBox="0 0 24.00 24.00" enable-background="new 0 0 24.00 24.00" xml:space="preserve">
	<path fill="#000000" fill-opacity="1" stroke-width="0.2" stroke-linejoin="round" d="M 3.05493,13L 1,13L 1,11L 3.05493,11C 3.51608,6.82839 6.82838,3.51608 11,3.05494L 11,1.00001L 13,1.00001L 13,3.05494C 17.1716,3.51609 20.4839,6.82839 20.9451,11L 23,11L 23,13L 20.9451,13C 20.4839,17.1716 17.1716,20.4839 13,20.9451L 13,23L 11,23L 11,20.9451C 6.82838,20.4839 3.51607,17.1716 3.05493,13 Z M 12,5.00001C 8.134,5.00001 5,8.13402 5,12C 5,15.866 8.134,19 12,19C 15.866,19 19,15.866 19,12C 19,8.13402 15.866,5.00001 12,5.00001 Z "/>
</svg>
