<?xml version="1.0" encoding="utf-8"?>
<!DOCTYPE svg PUBLIC "-//W3C//DTD SVG 1.1//EN" "http://www.w3.org/Graphics/SVG/1.1/DTD/svg11.dtd">
<svg xmlns="http://www.w3.org/2000/svg" xmlns:xlink="http://www.w3.org/1999/xlink" version="1.1" baseProfile="full" width="24" height="24" viewBox="0 0 24.00 24.00" enable-background="new 0 0 24.00 24.00" xml:space="preserve">
	<path fill="#000000" fill-opacity="1" stroke-width="1.33333" stroke-linejoin="miter" d="M 23.0328,12.4047 Z M 23.0308,12.4803L 23.0283,12.4803C 22.9781,13.0216 20.9136,15.2272 17.8238,16.2429C 14.0491,17.4832 7.97453,17.0315 7.97453,12.3011C 7.97453,10.081 9.78411,8.27498 12.0056,8.27498C 14.2485,8.27498 16.0484,10.0904 16.0484,12.3108C 16.0484,13.3926 15.5811,14.4409 14.8732,15.1817C 15.5356,15.1703 17.9428,14.9933 20.2132,13.1242C 20.4634,12.8798 20.6244,12.6751 20.6918,12.5492C 20.709,12.5158 20.7357,12.4589 20.7318,12.403C 20.7318,11.922 18.1229,8.19061 12.7249,7.12495C 19.215,7.46308 22.9927,11.3174 23.0326,12.4018L 23.0307,12.4803L 23.0308,12.4803 Z M 12.0024,10.014C 10.7378,10.014 9.71294,11.0381 9.71294,12.3022C 9.71294,13.5659 10.7377,14.5904 12.0024,14.5904C 13.2664,14.5904 14.2915,13.5659 14.2915,12.3022C 14.2915,11.0382 13.2664,10.014 12.0024,10.014 Z M 3.30512,12.337C 3.30512,12.3445 3.30752,12.3092 3.30855,12.4232L 3.30977,12.4232C 3.40652,12.936 4.81785,15.4075 10.2757,16.8761C 3.95788,16.3744 1.12312,13.2782 1.03689,12.4232L 1.03457,12.4232C 1.03392,12.3092 1.03282,12.3614 1.03282,12.3539C 1.03282,11.4824 4.95765,7.57726 10.9173,7.14959C 6.14101,8.26112 3.30515,11.8685 3.30515,12.3369L 3.30512,12.337 Z "/>
</svg>
