<?xml version="1.0" encoding="utf-8"?>
<!DOCTYPE svg PUBLIC "-//W3C//DTD SVG 1.1//EN" "http://www.w3.org/Graphics/SVG/1.1/DTD/svg11.dtd">
<svg xmlns="http://www.w3.org/2000/svg" xmlns:xlink="http://www.w3.org/1999/xlink" version="1.1" baseProfile="full" width="24" height="24" viewBox="0 0 24.00 24.00" enable-background="new 0 0 24.00 24.00" xml:space="preserve">
	<path fill="#000000" fill-opacity="1" stroke-linejoin="round" d="M 9.37868,8.37868L 11.5,9.34292L 13.6213,8.37868L 12.6571,10.5L 13.6213,12.6213L 11.5,11.6571L 9.37868,12.6213L 10.3429,10.5L 9.37868,8.37868 Z M 16.5,2.50001L 17.5909,5.4091L 20.5,6.50001L 17.5909,7.59091L 16.5,10.5L 15.4091,7.59091L 12.5,6.50001L 15.4091,5.4091L 16.5,2.50001 Z M 6,19L 7,19L 7,18C 7,17.4477 7.44771,17 8,17L 8.25583,17C 6.01086,15.7041 4.5,13.2785 4.5,10.5C 4.5,6.35787 7.85786,3 12,3C 13.0512,3 14.0519,3.21626 14.96,3.60672L 14.5909,4.59091L 13.1684,5.12436C 12.7918,5.0429 12.4009,5.00001 12,5.00001C 8.96243,5.00001 6.5,7.46244 6.5,10.5C 6.5,13.5376 8.96243,16 12,16C 14.9149,16 17.3001,13.7325 17.4881,10.8652L 18.4091,8.40909L 19.1218,8.14184C 19.3672,8.88337 19.5,9.67617 19.5,10.5C 19.5,13.2785 17.9891,15.7041 15.7442,17L 16,17C 16.5523,17 17,17.4477 17,18L 17,19L 18,19C 19.1046,19 20,19.8954 20,21L 20,22L 4,22L 4,21C 4,19.8954 4.89543,19 6,19 Z "/>
</svg>
