<?xml version="1.0" encoding="utf-8"?>
<!DOCTYPE svg PUBLIC "-//W3C//DTD SVG 1.1//EN" "http://www.w3.org/Graphics/SVG/1.1/DTD/svg11.dtd">
<svg xmlns="http://www.w3.org/2000/svg" xmlns:xlink="http://www.w3.org/1999/xlink" version="1.1" baseProfile="full" width="24" height="24" viewBox="0 0 24.00 24.00" enable-background="new 0 0 24.00 24.00" xml:space="preserve">
	<path fill="#000000" fill-opacity="1" stroke-width="1.33333" stroke-linejoin="miter" d="M 17.0156,21.9844L 17.0156,20.0156L 20.0156,20.0156L 20.0156,17.0156L 21.9844,17.0156L 21.9844,20.4844C 21.9844,20.8906 21.8359,21.2422 21.5391,21.5391C 21.2422,21.8359 20.8906,21.9844 20.4844,21.9844L 17.0156,21.9844 Z M 6.98438,21.9844L 3.51563,21.9844C 3.10938,21.9844 2.75781,21.8359 2.46094,21.5391C 2.16406,21.2422 2.01563,20.8906 2.01563,20.4844L 2.01563,17.0156L 3.98438,17.0156L 3.98438,20.0156L 6.98438,20.0156L 6.98438,21.9844 Z M 17.0156,2.0156L 20.4844,2.0156C 20.8906,2.0156 21.2422,2.1641 21.5391,2.4609C 21.8359,2.7578 21.9844,3.1094 21.9844,3.5156L 21.9844,6.9844L 20.0156,6.9844L 20.0156,3.9844L 17.0156,3.9844L 17.0156,2.0156 Z M 6.98438,2.0156L 6.98438,3.9844L 3.98438,3.9844L 3.98438,6.9844L 2.01563,6.9844L 2.01563,3.5156C 2.01563,3.1094 2.16406,2.7578 2.46094,2.4609C 2.75781,2.1641 3.10938,2.0156 3.51563,2.0156L 6.98438,2.0156 Z M 12.9844,17.25L 17.0156,14.9531L 17.0156,10.3594L 12.9844,12.6562L 12.9844,17.25 Z M 12,10.9219L 15.9844,8.625L 12,6.2812L 8.01563,8.625L 12,10.9219 Z M 6.98438,14.9531L 11.0156,17.25L 11.0156,12.6562L 6.98438,10.3594L 6.98438,14.9531 Z M 18.2344,7.5937C 18.7344,7.9062 18.9844,8.3437 18.9844,8.9062L 18.9844,15.2344C 18.9844,15.7969 18.7344,16.2344 18.2344,16.5469L 12.75,19.7344C 12.25,20.0469 11.75,20.0469 11.25,19.7344L 5.76563,16.5469C 5.26563,16.2344 5.01563,15.7969 5.01563,15.2344L 5.01563,8.9062C 5.01563,8.3437 5.26563,7.9062 5.76563,7.5937L 11.25,4.4062C 11.5,4.2813 11.75,4.2187 12,4.2187C 12.25,4.2187 12.5,4.2813 12.75,4.4062L 18.2344,7.5937 Z "/>
</svg>
