<?xml version="1.0" encoding="utf-8"?>
<!DOCTYPE svg PUBLIC "-//W3C//DTD SVG 1.1//EN" "http://www.w3.org/Graphics/SVG/1.1/DTD/svg11.dtd">
<svg xmlns="http://www.w3.org/2000/svg" xmlns:xlink="http://www.w3.org/1999/xlink" version="1.1" baseProfile="full" width="24" height="24" viewBox="0 0 24.00 24.00" enable-background="new 0 0 24.00 24.00" xml:space="preserve">
	<path fill="#000000" fill-opacity="1" stroke-width="0.2" stroke-linejoin="round" d="M 16.0012,3.99875L 8.99875,8.0425L 8.99875,15.9575L 16.0012,20L 22.9975,15.9575L 22.9975,8.0425M 16.0012,6.30875L 19.795,8.50125L 16.0012,10.6887L 12.2075,8.50125M 0,7.0025L 0,8.99875L 7.0025,8.99875L 7.0025,7.0025M 11.0013,10.1125L 15,12.4213L 15,17.1087L 11.0013,14.805M 21.0013,10.1125L 21.0013,14.805L 17.0025,17.1087L 17.0025,12.4213M 2.0025,11.0012L 2.0025,12.9975L 7.0025,12.9975L 7.0025,11.0012M 3.99875,15L 3.99875,17.0025L 7.0025,17.0025L 7.0025,15"/>
</svg>
