<?xml version="1.0" encoding="utf-8"?>
<!DOCTYPE svg PUBLIC "-//W3C//DTD SVG 1.1//EN" "http://www.w3.org/Graphics/SVG/1.1/DTD/svg11.dtd">
<svg xmlns="http://www.w3.org/2000/svg" xmlns:xlink="http://www.w3.org/1999/xlink" version="1.1" baseProfile="full" width="24" height="24" viewBox="0 0 24.00 24.00" enable-background="new 0 0 24.00 24.00" xml:space="preserve">
	<path fill="#000000" fill-opacity="1" stroke-width="1.33333" stroke-linejoin="miter" d="M 12,1.5C 13.3807,1.5 14.5,2.61929 14.5,4C 14.5,5.38071 13.3807,6.5 12,6.5C 10.6193,6.5 9.5,5.38071 9.5,4C 9.5,2.61929 10.6193,1.5 12,1.5 Z M 15.874,5C 18,5 20,7 20,9C 22.7,9 22.7,13 20,13L 4,13C 1.3,13 1.3,9 4,9C 4,7 6,5 8.12602,5C 8.57006,6.72523 10.1362,8 12,8C 13.8638,8 15.4299,6.72523 15.874,5 Z M 5,15L 8,15L 9,22L 7,22L 5,15 Z M 10,15L 14,15L 13,22L 11,22L 10,15 Z M 16,15L 19,15L 17,22L 15,22L 16,15 Z "/>
</svg>
