<?xml version="1.0" encoding="utf-8"?>
<!DOCTYPE svg PUBLIC "-//W3C//DTD SVG 1.1//EN" "http://www.w3.org/Graphics/SVG/1.1/DTD/svg11.dtd">
<svg xmlns="http://www.w3.org/2000/svg" xmlns:xlink="http://www.w3.org/1999/xlink" version="1.1" baseProfile="full" width="24" height="24" viewBox="0 0 24.00 24.00" enable-background="new 0 0 24.00 24.00" xml:space="preserve">
	<path fill="#000000" fill-opacity="1" stroke-width="1.33333" stroke-linejoin="miter" d="M 10,3L 10,5C 12.5,5 13.8952,5.048 14.7188,5.4141C 15.2595,5.6544 15.7341,6.2071 16.248,7L 5,7L 5,9L 19.6172,9L 18.8945,7.5527C 17.8647,5.4931 16.9577,4.2199 15.5313,3.5859C 14.1048,2.952 12.5,3 10,3 Z M 6,11C 3.784,11 2,12.784 2,15L 2,18C 2,20.216 3.784,22 6,22L 18,22C 20.216,22 22,20.216 22,18L 22,15C 22,12.784 20.216,11 18,11L 6,11 Z "/>
</svg>
