<?xml version="1.0" encoding="utf-8"?>
<!DOCTYPE svg PUBLIC "-//W3C//DTD SVG 1.1//EN" "http://www.w3.org/Graphics/SVG/1.1/DTD/svg11.dtd">
<svg xmlns="http://www.w3.org/2000/svg" xmlns:xlink="http://www.w3.org/1999/xlink" version="1.1" baseProfile="full" width="24" height="24" viewBox="0 0 24.00 24.00" enable-background="new 0 0 24.00 24.00" xml:space="preserve">
	<path fill="#000000" fill-opacity="1" stroke-linejoin="round" d="M 11.8,10.9C 9.53,10.31 8.8,9.7 8.8,8.75C 8.8,7.66 9.81,6.9 11.5,6.9C 13.28,6.9 13.94,7.75 14,9L 16.21,9C 16.14,7.28 15.09,5.7 13,5.19L 13,3L 10,3L 10,5.16C 8.06,5.58 6.5,6.84 6.5,8.77C 6.5,11.08 8.41,12.23 11.2,12.9C 13.7,13.5 14.2,14.38 14.2,15.31C 14.2,16 13.71,17.1 11.5,17.1C 9.44,17.1 8.63,16.18 8.52,15L 6.32,15C 6.44,17.19 8.08,18.42 10,18.83L 10,21L 13,21L 13,18.85C 14.95,18.48 16.5,17.35 16.5,15.3C 16.5,12.46 14.07,11.49 11.8,10.9 Z "/>
</svg>
