<?xml version="1.0" encoding="utf-8"?>
<!DOCTYPE svg PUBLIC "-//W3C//DTD SVG 1.1//EN" "http://www.w3.org/Graphics/SVG/1.1/DTD/svg11.dtd">
<svg xmlns="http://www.w3.org/2000/svg" xmlns:xlink="http://www.w3.org/1999/xlink" version="1.1" baseProfile="full" width="24" height="24" viewBox="0 0 24.00 24.00" enable-background="new 0 0 24.00 24.00" xml:space="preserve">
	<path fill="#000000" fill-opacity="1" stroke-width="1.33333" stroke-linejoin="miter" d="M 5,2L 5,6L 3,6L 3,8L 5,8L 5,10L 3,10L 3,12L 5,12L 5,22L 7,22L 7,16L 13,16C 15.7021,15.9982 18.1619,14.4414 19.32,12L 22,12L 22,10L 19.92,10C 20.0267,9.3376 20.0267,8.6624 19.92,8L 22,8L 22,6L 19.32,6C 18.1619,3.5586 15.7021,2.0018 13,2M 7,4L 13,4C 14.5738,4 16.0557,4.741 17,6L 7,6L 7,4 Z M 13,14L 7,14L 7,12L 17,12C 16.0557,13.259 14.5738,14 13,14 Z M 18,9C 17.9974,9.3357 17.9639,9.6704 17.9,10L 7,10L 7,8L 17.9,8C 17.9639,8.3296 17.9974,8.6643 18,9 Z "/>
</svg>
