<?xml version="1.0" encoding="utf-8"?>
<!DOCTYPE svg PUBLIC "-//W3C//DTD SVG 1.1//EN" "http://www.w3.org/Graphics/SVG/1.1/DTD/svg11.dtd">
<svg xmlns="http://www.w3.org/2000/svg" xmlns:xlink="http://www.w3.org/1999/xlink" version="1.1" baseProfile="full" width="24" height="24" viewBox="0 0 24.00 24.00" enable-background="new 0 0 24.00 24.00" xml:space="preserve">
	<path fill="#000000" fill-opacity="1" stroke-width="0.2" stroke-linejoin="round" d="M 7.07089,11L 7,12L 7.07089,13L 17.3462,13L 16.5,15L 7.67363,15C 8.79709,17.3649 11.2076,19 14,19C 16.231,19 18.2182,17.9563 19.5,16.3306L 19.5,19.1245C 17.9791,20.3003 16.0712,21 14,21C 10.0813,21 6.74763,18.4956 5.51212,15L 2,15L 3,13L 5.05493,13L 5,12L 5.05493,11L 2,11L 3,9L 5.51212,9C 6.74763,5.50442 10.0813,3 14,3C 16.5203,3 18.7986,4.03593 20.4324,5.70522L 19.5656,7.75396C 18.2866,6.07995 16.2694,5 14,5C 11.2076,5 8.7971,6.63505 7.67363,9L 19.0385,9L 18.1923,11L 7.07089,11 Z "/>
</svg>
