<?xml version="1.0" encoding="utf-8"?>
<!DOCTYPE svg PUBLIC "-//W3C//DTD SVG 1.1//EN" "http://www.w3.org/Graphics/SVG/1.1/DTD/svg11.dtd">
<svg xmlns="http://www.w3.org/2000/svg" xmlns:xlink="http://www.w3.org/1999/xlink" version="1.1" baseProfile="full" width="24" height="24" viewBox="0 0 24.00 24.00" enable-background="new 0 0 24.00 24.00" xml:space="preserve">
	<path fill="#000000" fill-opacity="1" stroke-width="1.33333" stroke-linejoin="miter" d="M 2,3L 4,3L 5.33333,9L 9.33357,9L 10.667,3L 13.333,3L 14.6663,9L 18.6667,9L 20,3L 22,3L 20.6667,9L 22,9L 22,11L 20.2222,11L 19.7778,13L 22,13L 22,15L 19.3333,15L 18,21L 15.333,21L 13.9997,15L 10.0001,15L 8.6667,21L 6,21L 4.66667,15L 2,15L 2,13L 4.22222,13L 3.77778,11L 2,11L 2,9L 3.33333,9L 2,3 Z M 13.1108,11L 10.8891,11L 10.4446,13L 13.5552,13L 13.1108,11 Z M 7.33337,18.0002L 8.00013,15L 6.66667,15L 7.33337,18.0002 Z M 8.88909,11L 5.77778,11L 6.22222,13L 8.44461,13L 8.88909,11 Z M 16.6665,18.0007L 17.3333,15L 15.9997,15L 16.6665,18.0007 Z M 18.2222,11L 15.1108,11L 15.5552,13L 17.7778,13L 18.2222,11 Z M 12,6.00139L 11.3336,9L 12.6663,9L 12,6.00139 Z "/>
</svg>
