<?xml version="1.0" encoding="utf-8"?>
<!DOCTYPE svg PUBLIC "-//W3C//DTD SVG 1.1//EN" "http://www.w3.org/Graphics/SVG/1.1/DTD/svg11.dtd">
<svg xmlns="http://www.w3.org/2000/svg" xmlns:xlink="http://www.w3.org/1999/xlink" version="1.1" baseProfile="full" width="24" height="24" viewBox="0 0 24.00 24.00" enable-background="new 0 0 24.00 24.00" xml:space="preserve">
	<path fill="#000000" fill-opacity="1" stroke-width="1.33333" stroke-linejoin="miter" d="M 3,4.26848L 4.27711,3L 21,19.7229L 19.7315,21L 16.0618,17.3303C 15.4374,18.025 14.5417,18.5536 13.5,18.8162L 13.5,21L 10.5,21L 10.5,18.8162C 8.47363,18.3054 7,16.788 7,15L 9,15C 9,16.084 10.374,17 12,17C 13.1323,17 14.1425,16.5558 14.6515,15.9199L 11.6832,12.9517C 9.57675,12.4248 7,11.7485 7,9C 7,8.77424 7.0235,8.55279 7.06865,8.33713L 3,4.26848 Z M 10.5,5.18386L 10.5,3L 13.5,3L 13.5,5.18387C 15.5263,5.69478 17,7.21232 17,9L 15,9C 15,7.916 13.626,7 12,7C 11.6341,7 11.2809,7.04639 10.9533,7.13064L 9.40481,5.58213L 10.5,5.18386 Z "/>
</svg>
