<?xml version="1.0" encoding="utf-8"?>
<!DOCTYPE svg PUBLIC "-//W3C//DTD SVG 1.1//EN" "http://www.w3.org/Graphics/SVG/1.1/DTD/svg11.dtd">
<svg xmlns="http://www.w3.org/2000/svg" xmlns:xlink="http://www.w3.org/1999/xlink" version="1.1" baseProfile="full" width="24" height="24" viewBox="0 0 24.00 24.00" enable-background="new 0 0 24.00 24.00" xml:space="preserve">
	<path fill="#000000" fill-opacity="1" stroke-width="0.2" stroke-linejoin="round" d="M 6,4L 8,4L 8,2L 10,2L 10,4L 12,4L 12,2.00001L 14,2.00001L 14,4.02746C 16.25,4.27619 18,6.18372 18,8.5C 18,9.8033 17.4459,10.9772 16.5605,11.799C 17.7325,12.6113 18.5,13.966 18.5,15.5C 18.5,17.9853 16.4853,20 14,20L 14,22L 12,22L 12,20L 10,20L 10,22L 8,22L 8,20L 6,20L 6.5,18L 8,18L 8,6L 6,6L 6,4 Z M 10,13L 10,18L 14,18C 15.3807,18 16.5,16.8807 16.5,15.5C 16.5,14.1193 15.3807,13 14,13L 10,13 Z M 10,5.99998L 10,11L 13.5,11C 14.8807,11 16,9.88069 16,8.49998C 16,7.11935 14.8808,6.00011 13.5002,5.99998L 13.5,5.99998L 10,5.99998 Z "/>
</svg>
