<?xml version="1.0" encoding="utf-8"?>
<!DOCTYPE svg PUBLIC "-//W3C//DTD SVG 1.1//EN" "http://www.w3.org/Graphics/SVG/1.1/DTD/svg11.dtd">
<svg xmlns="http://www.w3.org/2000/svg" xmlns:xlink="http://www.w3.org/1999/xlink" version="1.1" baseProfile="full" width="24" height="24" viewBox="0 0 24.00 24.00" enable-background="new 0 0 24.00 24.00" xml:space="preserve">
	<path fill="#000000" fill-opacity="1" stroke-linejoin="round" d="M 12,15L 14,15C 14,16.084 15.374,17 17,17C 18.626,17 20,16.084 20,15C 20,13.9014 18.9619,13.5215 16.7573,12.9702C 14.6377,12.4404 12,11.7808 12,9C 12,7.21231 13.4736,5.69477 15.5,5.18386L 15.5,3L 18.5,3L 18.5,5.18386C 20.5264,5.69477 22,7.21232 22,9L 20,9C 20,7.916 18.626,7 17,7C 15.374,7 14,7.916 14,9C 14,10.0991 15.0386,10.479 17.2427,11.0298C 19.3623,11.5596 22,12.2192 22,15C 22,16.788 20.5264,18.3054 18.5,18.8162L 18.5,21L 15.5,21L 15.5,18.8162C 13.4736,18.3054 12,16.788 12,15 Z M 2,3L 5.49999,3.00001C 8.53756,3.00001 11,5.46244 11,8.50001C 11,10.6945 9.71475,12.5888 7.85593,13.4713L 11.6387,21L 9.40043,21L 5.87693,13.9873L 5.49999,14L 4,14L 4,21L 2,21L 2,3 Z M 5.49999,12C 7.43299,12 8.99999,10.433 8.99999,8.50001C 8.99999,6.56701 7.43299,5.00001 5.49999,5.00001L 4,5.00001L 4,12L 5.49999,12 Z "/>
</svg>
