<?xml version="1.0" encoding="utf-8"?>
<!DOCTYPE svg PUBLIC "-//W3C//DTD SVG 1.1//EN" "http://www.w3.org/Graphics/SVG/1.1/DTD/svg11.dtd">
<svg xmlns="http://www.w3.org/2000/svg" xmlns:xlink="http://www.w3.org/1999/xlink" version="1.1" baseProfile="full" width="24" height="24" viewBox="0 0 24.00 24.00" enable-background="new 0 0 24.00 24.00" xml:space="preserve">
	<path fill="#000000" fill-opacity="1" stroke-width="1.33333" stroke-linejoin="miter" d="M 12.5,6.9C 14.28,6.9 14.94,7.75 15,9L 17.21,9C 17.14,7.28 16.09,5.7 14,5.19L 14,3L 11,3L 11,5.16C 10.47,5.28 9.97,5.46 9.52,5.7L 10.99,7.17C 11.4,7 11.9,6.9 12.5,6.9 Z M 5.33,4.06L 4.06,5.33L 7.5,8.77C 7.5,10.85 9.06,11.98 11.41,12.68L 14.92,16.19C 14.58,16.67 13.87,17.1 12.5,17.1C 10.44,17.1 9.63,16.18 9.52,15L 7.32,15C 7.44,17.19 9.08,18.42 11,18.83L 11,21L 14,21L 14,18.85C 14.96,18.67 15.82,18.3 16.45,17.73L 18.67,19.95L 19.94,18.68L 5.33,4.06 Z "/>
</svg>
