<?xml version="1.0" encoding="utf-8"?>
<!DOCTYPE svg PUBLIC "-//W3C//DTD SVG 1.1//EN" "http://www.w3.org/Graphics/SVG/1.1/DTD/svg11.dtd">
<svg xmlns="http://www.w3.org/2000/svg" xmlns:xlink="http://www.w3.org/1999/xlink" version="1.1" baseProfile="full" width="24" height="24" viewBox="0 0 24.00 24.00" enable-background="new 0 0 24.00 24.00" xml:space="preserve">
	<g>
		<path fill="#000000" fill-opacity="1" stroke-width="1.33333" stroke-linejoin="miter" d="M 18.09,10.5L 18.09,9L 9.59,9L 9.59,4.5C 9.59,3.6716 8.91843,3 8.09,3C 7.26157,3 6.59,3.6716 6.59,4.5C 6.59,5.3284 7.26157,6 8.09,6L 8.09,9L 5.09,9L 5.09,10.5L 8.09,10.5L 8.09,16.7C 8.08984,19.0554 9.98472,20.9726 12.34,21C 14.6758,20.9617 16.5384,19.037 16.5,16.7C 16.4883,15.1067 15.7523,13.6052 14.5,12.62C 14.2835,12.4396 14.0489,12.2821 13.8,12.15C 13.5787,12.0549 13.3409,12.0039 13.1,12C 12.3934,12.0078 11.7433,12.388 11.39,13C 11.204,13.3007 11.1037,13.6465 11.1,14C 11.1073,15.1045 12.0086,15.9941 13.1131,15.9868C 13.7322,15.9827 14.3145,15.6922 14.69,15.2C 14.896,15.6732 15.0015,16.1839 15,16.7C 15.0445,18.2016 13.8634,19.4549 12.34,19.5C 10.8109,19.4781 9.58436,18.2293 9.59,16.7L 9.59,10.5L 18.09,10.5 Z "/>
	</g>
</svg>
