<?xml version="1.0" encoding="utf-8"?>
<!DOCTYPE svg PUBLIC "-//W3C//DTD SVG 1.1//EN" "http://www.w3.org/Graphics/SVG/1.1/DTD/svg11.dtd">
<svg xmlns="http://www.w3.org/2000/svg" xmlns:xlink="http://www.w3.org/1999/xlink" version="1.1" baseProfile="full" width="24" height="24" viewBox="0 0 24.00 24.00" enable-background="new 0 0 24.00 24.00" xml:space="preserve">
	<g>
		<path fill="#000000" fill-opacity="1" stroke-width="1.33333" stroke-linejoin="miter" d="M 22,12C 21.9906,9.8593 21.289,7.7791 20,6.07L 22,4.07L 19.94,1.94L 17.94,3.94C 14.398,1.3556 9.58564,1.3799 6.07,4L 4.07,2L 1.94,4.06L 3.94,6.06C 1.35558,9.602 1.37991,14.4144 4,17.93L 2,19.93L 4.12,22.05L 6.12,20.05C 9.64673,22.6473 14.4533,22.6473 17.98,20.05L 19.98,22.05L 22.1,19.93L 20.1,17.93C 21.3534,16.2085 22.0196,14.1294 22,12 Z M 12,19C 8.13401,19 5,15.866 5,12C 5,8.134 8.13401,5 12,5C 15.866,5 19,8.134 19,12C 19,15.866 15.866,19 12,19 Z "/>
	</g>
</svg>
