<?xml version="1.0" encoding="utf-8"?>
<!DOCTYPE svg PUBLIC "-//W3C//DTD SVG 1.1//EN" "http://www.w3.org/Graphics/SVG/1.1/DTD/svg11.dtd">
<svg xmlns="http://www.w3.org/2000/svg" xmlns:xlink="http://www.w3.org/1999/xlink" version="1.1" baseProfile="full" width="24" height="24" viewBox="0 0 24.00 24.00" enable-background="new 0 0 24.00 24.00" xml:space="preserve">
	<path fill="#000000" fill-opacity="1" stroke-width="1.33333" stroke-linejoin="miter" d="M 10,0.999998C 5.58,0.999998 2,2.79 2,5C 2,7.0642 5.13474,8.742 9.14844,8.957C 10.4519,7.7022 12.1907,7.0008 14,7C 14.799,7.0026 15.5917,7.142 16.3438,7.4121C 17.3685,6.7398 18,5.911 18,5C 18,2.79 14.42,0.999998 10,0.999998 Z M 2,7L 2,10C 2,11.6815 4.07739,13.1133 7.01563,13.7051C 7.05773,12.701 7.31552,11.7178 7.77148,10.8223C 4.44428,10.3376 2,8.8206 2,7 Z M 13.9277,8.9434C 12.7462,8.947 11.5254,9.4003 10.4629,10.4629C 6.21268,14.7131 11.7096,21.4954 16.75,18.1699L 21.2891,22.7109L 22.7109,21.2891L 18.1699,16.75C 20.664,12.9697 17.4723,8.9325 13.9277,8.9434 Z M 13.9043,10.9941C 15.473,10.9548 17,12.1624 17,14C 17,15.6568 15.6569,17 14,17C 11.3271,17 9.98911,13.7687 11.8789,11.8789C 12.4695,11.2883 13.1913,11.012 13.9043,10.9941 Z M 2,12L 2,15C 2,17.0488 5.08809,18.7178 9.05859,18.9531C 8.1699,18.0655 7.53643,16.955 7.22461,15.7383C 4.17931,15.1729 2,13.72 2,12 Z "/>
</svg>
