<?xml version="1.0" encoding="utf-8"?>
<!DOCTYPE svg PUBLIC "-//W3C//DTD SVG 1.1//EN" "http://www.w3.org/Graphics/SVG/1.1/DTD/svg11.dtd">
<svg xmlns="http://www.w3.org/2000/svg" xmlns:xlink="http://www.w3.org/1999/xlink" version="1.1" baseProfile="full" width="24" height="24" viewBox="0 0 24.00 24.00" enable-background="new 0 0 24.00 24.00" xml:space="preserve">
	<g>
		<path fill="#000000" fill-opacity="1" stroke-width="1.33333" stroke-linejoin="miter" d="M 14.22,19L 17.05,16.17L 14.93,14L 22,14L 22,21.07L 19.88,19L 17.05,21.83L 14.22,19 Z M 11.39,19L 12.39,18L 12,18C 7.58,18 4,16.21 4,14L 4,17C 4,19.21 7.58,21 12,21C 12.4733,21 12.9333,20.98 13.38,20.94L 11.39,19 Z M 17.29,12L 20,12L 20,9C 20,10.2 19,11.27 17.29,12 Z M 4,9L 4,12C 4,14.21 7.58,16 12,16C 12.6689,16.0045 13.3373,15.9611 14,15.87L 11.07,13C 7.09,12.74 4,11.05 4,9 Z M 12,3C 7.58,3 4,4.79 4,7C 4,9.21 7.58,11 12,11C 16.42,11 20,9.21 20,7C 20,4.79 16.42,3 12,3 Z "/>
	</g>
</svg>
