<?xml version="1.0" encoding="utf-8"?>
<!DOCTYPE svg PUBLIC "-//W3C//DTD SVG 1.1//EN" "http://www.w3.org/Graphics/SVG/1.1/DTD/svg11.dtd">
<svg xmlns="http://www.w3.org/2000/svg" xmlns:xlink="http://www.w3.org/1999/xlink" version="1.1" baseProfile="full" width="24" height="24" viewBox="0 0 24.00 24.00" enable-background="new 0 0 24.00 24.00" xml:space="preserve">
	<path fill="#000000" fill-opacity="1" stroke-width="1.33333" stroke-linejoin="miter" d="M 13,17.705L 13,20.705C 12.053,20.8977 11.0346,21 10,21C 5.58,21 2,19.21 2,17L 2,14C 2,16.21 5.58,18 10,18C 11.0346,18 12.053,17.8977 13,17.705 Z M 2,9C 2,11.21 5.58,13 10,13C 14.42,13 18,11.21 18,9L 18,12C 18,14.21 14.42,16 10,16C 5.58,16 2,14.21 2,12L 2,9 Z M 10,3C 14.42,3 18,4.79 18,7C 18,9.21 14.42,11 10,11C 5.58,11 2,9.21 2,7C 2,4.79 5.58,3 10,3 Z M 23.5,17L 18.5,21.9979L 15,18.5L 16.5,17L 18.5,19L 22,15.5L 23.5,17 Z "/>
</svg>
