<?xml version="1.0" encoding="utf-8"?>
<!DOCTYPE svg PUBLIC "-//W3C//DTD SVG 1.1//EN" "http://www.w3.org/Graphics/SVG/1.1/DTD/svg11.dtd">
<svg xmlns="http://www.w3.org/2000/svg" xmlns:xlink="http://www.w3.org/1999/xlink" version="1.1" baseProfile="full" width="24" height="24" viewBox="0 0 24.00 24.00" enable-background="new 0 0 24.00 24.00" xml:space="preserve">
	<path fill="#000000" fill-opacity="1" stroke-width="0.2" stroke-linejoin="miter" d="M 15.461,15.8789L 16.877,14.4629L 19.001,16.5869L 21.1205,14.4673L 22.5321,15.8789L 20.4125,17.9984L 22.5365,20.1224L 21.1205,21.5384L 18.9965,19.4144L 16.877,21.5339L 15.4654,20.1224L 17.585,18.0028L 15.461,15.8789 Z M 12,3C 16.4183,3 20,4.7909 20,7C 20,9.2091 16.4183,11 12,11C 7.58172,11 4,9.2091 4,7C 4,4.7909 7.58172,3 12,3 Z M 4,9C 4,11.2091 7.58172,13 12,13C 16.4168,13 19.9976,11.2103 20,9.00222L 19.9983,12.0827L 19,12C 16.4092,12 14.2019,13.6421 13.3622,15.9422L 12,16C 7.58172,16 4,14.2091 4,12L 4,9 Z M 4,14C 4,16.2091 7.58172,18 12,18L 13,18C 13,19.0535 13.2715,20.0437 13.7484,20.9042L 12,21C 7.58172,21 4,19.2091 4,17L 4,14 Z "/>
</svg>
