<?xml version="1.0" encoding="utf-8"?>
<!DOCTYPE svg PUBLIC "-//W3C//DTD SVG 1.1//EN" "http://www.w3.org/Graphics/SVG/1.1/DTD/svg11.dtd">
<svg xmlns="http://www.w3.org/2000/svg" xmlns:xlink="http://www.w3.org/1999/xlink" version="1.1" baseProfile="full" width="24" height="24" viewBox="0 0 24.00 24.00" enable-background="new 0 0 24.00 24.00" xml:space="preserve">
	<path fill="#000000" fill-opacity="1" stroke-width="0.2" stroke-linejoin="miter" d="M 12,3C 7.58172,3 4,4.7909 4,7C 4,9.2091 7.58172,11 12,11C 16.4183,11 20,9.2091 20,7C 20,4.7909 16.4183,3 12,3 Z M 4,9L 4,12C 4,14.2091 7.58172,16 12,16C 16.4183,16 20,14.2091 20,12L 20,9C 20,11.2091 16.4183,13 12,13C 7.58172,13 4,11.2091 4,9 Z M 4,14L 4,17C 4,19.2091 7.58172,21 12,21C 16.4183,21 20,19.2091 20,17L 20,14C 20,16.2091 16.4183,18 12,18C 7.58172,18 4,16.2091 4,14 Z "/>
</svg>
