<?xml version="1.0" encoding="utf-8"?>
<!DOCTYPE svg PUBLIC "-//W3C//DTD SVG 1.1//EN" "http://www.w3.org/Graphics/SVG/1.1/DTD/svg11.dtd">
<svg xmlns="http://www.w3.org/2000/svg" xmlns:xlink="http://www.w3.org/1999/xlink" version="1.1" baseProfile="full" width="24" height="24" viewBox="0 0 24.00 24.00" enable-background="new 0 0 24.00 24.00" xml:space="preserve">
	<path fill="#000000" fill-opacity="1" stroke-linejoin="round" d="M 12,3C 7.57867,3 4,4.792 4,7C 4,9.208 7.57867,11 12,11C 12.516,11 13.0107,10.9693 13.5,10.9213L 13.5,9.5L 16.3907,9.5L 15.3853,8.49467L 18.9013,4.97867C 17.5107,3.79733 14.9427,3 12,3 Z M 18.9213,7.07867L 17.5,8.5L 20,11L 15,11L 15,13L 20,13L 17.5,15.5L 18.9213,16.9213L 23.8387,12M 4,9L 4,12C 4,14.208 7.57867,16 12,16C 13.172,16 14.26,15.8547 15.2547,15.6253L 16.38,14.5L 13.5,14.5L 13.5,12.9213C 13.016,12.9693 12.516,13 12,13C 7.57867,13 4,11.208 4,9 Z M 4,14L 4,17C 4,19.208 7.57867,21 12,21C 14.9427,21 17.5107,20.2027 18.9013,19.0213L 16.984,17.104C 15.6147,17.656 13.896,18 12,18C 7.57867,18 4,16.208 4,14 Z "/>
</svg>
