<?xml version="1.0" encoding="utf-8"?>
<!DOCTYPE svg PUBLIC "-//W3C//DTD SVG 1.1//EN" "http://www.w3.org/Graphics/SVG/1.1/DTD/svg11.dtd">
<svg xmlns="http://www.w3.org/2000/svg" xmlns:xlink="http://www.w3.org/1999/xlink" version="1.1" baseProfile="full" width="24" height="24" viewBox="0 0 24.00 24.00" enable-background="new 0 0 24.00 24.00" xml:space="preserve">
	<path fill="#000000" fill-opacity="1" stroke-width="0.2" stroke-linejoin="round" d="M 8.99875,2.9978C 4.58,2.9978 1.00125,4.79 1.00125,7.0025C 1.00125,9.20875 4.58,11.0012 8.99875,11.0012C 13.4175,11.0012 17.0025,9.20875 17.0025,7.0025C 17.0025,4.79 13.4175,2.9978 8.99875,2.9978 Z M 1.00125,8.99875L 1.00125,12.0025C 1.00125,14.2087 4.58,16.0012 8.99875,16.0012C 13.4175,16.0012 17.0025,14.2087 17.0025,12.0025L 17.0025,8.99875C 17.0025,11.2112 13.4175,12.9975 8.99875,12.9975C 4.58,12.9975 1.00125,11.2112 1.00125,8.99875 Z M 1.00125,13.9987L 1.00125,17.0025C 1.00125,19.2087 4.58,21.0012 8.99875,21.0012C 10.405,20.9963 11.7875,20.81 12.9975,20.4587L 12.9975,17.4562C 11.7875,17.8125 10.405,17.9975 8.99875,17.9975C 4.58,17.9975 1.00125,16.2112 1.00125,13.9987 Z M 15,17.0025L 15,18.9988L 22.9975,18.9988L 22.9975,17.0025"/>
</svg>
