<?xml version="1.0" encoding="utf-8"?>
<!DOCTYPE svg PUBLIC "-//W3C//DTD SVG 1.1//EN" "http://www.w3.org/Graphics/SVG/1.1/DTD/svg11.dtd">
<svg xmlns="http://www.w3.org/2000/svg" xmlns:xlink="http://www.w3.org/1999/xlink" version="1.1" baseProfile="full" width="24" height="24" viewBox="0 0 24.00 24.00" enable-background="new 0 0 24.00 24.00" xml:space="preserve">
	<g>
		<path fill="#000000" fill-opacity="1" stroke-width="1.33333" stroke-linejoin="miter" d="M 17.05,14.22L 19.88,17.05L 22,14.93L 22,22L 14.93,22L 17.05,19.88L 14.22,17.05L 17.05,14.22 Z M 12.33,18L 12,18C 7.58,18 4,16.21 4,14L 4,17C 4,19.21 7.58,21 12,21C 12.39,21 12.77,21 13.14,21L 14.22,19.92L 12.33,18 Z M 17.54,11.89L 19.29,13.64C 19.729,13.2051 19.9833,12.6177 20,12L 20,9C 20,10.13 19.06,11.16 17.54,11.88L 17.54,11.89 Z M 4,9L 4,12C 4,14.21 7.58,16 12,16L 12.45,16L 16,12.47C 14.6982,12.8337 13.3516,13.0121 12,13C 7.58,13 4,11.21 4,9 Z M 12,3C 7.58,3 4,4.79 4,7C 4,9.21 7.58,11 12,11C 16.42,11 20,9.21 20,7C 20,4.79 16.42,3 12,3 Z "/>
	</g>
</svg>
