<?xml version="1.0" encoding="utf-8"?>
<!DOCTYPE svg PUBLIC "-//W3C//DTD SVG 1.1//EN" "http://www.w3.org/Graphics/SVG/1.1/DTD/svg11.dtd">
<svg xmlns="http://www.w3.org/2000/svg" xmlns:xlink="http://www.w3.org/1999/xlink" version="1.1" baseProfile="full" width="24" height="24" viewBox="0 0 24.00 24.00" enable-background="new 0 0 24.00 24.00" xml:space="preserve">
	<path fill="#000000" fill-opacity="1" stroke-width="1.33333" stroke-linejoin="miter" d="M 4,14L 4,17C 4,19 7.05,20.72 11,21L 11,18.11L 11.13,17.98C 7.12,17.76 4,16.06 4,14 Z M 12,13C 7.58,13 4,11.21 4,9L 4,12C 4,14.21 7.58,16 12,16C 12.3864,16.0204 12.7736,16.0204 13.16,16L 17,12.12C 15.4029,12.723 13.707,13.0214 12,13 Z M 12,3C 7.58,3 4,4.79 4,7C 4,9.21 7.58,11 12,11C 16.42,11 20,9.21 20,7C 20,4.79 16.42,3 12,3 Z M 21,11.13C 20.8527,11.1332 20.7126,11.1942 20.61,11.3L 19.61,12.3L 21.66,14.3L 22.66,13.3C 22.8726,13.0988 22.8819,12.7634 22.66,12.53L 21.42,11.3C 21.3218,11.1939 21.1846,11.1325 21.04,11.13M 19.04,12.88L 13,18.94L 13,21L 15.06,21L 21.12,14.93L 19.04,12.88 Z "/>
</svg>
