<?xml version="1.0" encoding="utf-8"?>
<!DOCTYPE svg PUBLIC "-//W3C//DTD SVG 1.1//EN" "http://www.w3.org/Graphics/SVG/1.1/DTD/svg11.dtd">
<svg xmlns="http://www.w3.org/2000/svg" xmlns:xlink="http://www.w3.org/1999/xlink" version="1.1" baseProfile="full" width="24" height="24" viewBox="0 0 24.00 24.00" enable-background="new 0 0 24.00 24.00" xml:space="preserve">
	<g>
		<path fill="#000000" fill-opacity="1" stroke-width="1.33333" stroke-linejoin="miter" d="M 18.68,12.32C 16.9205,10.5648 14.0712,10.5683 12.316,12.3279C 10.5609,14.0874 10.5644,16.9366 12.3239,18.6918C 13.8069,20.1712 16.1146,20.4316 17.89,19.32L 21,22.39L 22.39,21L 19.3,17.89C 20.4274,16.1182 20.1694,13.8005 18.68,12.32 Z M 17.27,17.27C 16.2925,18.2451 14.7095,18.2431 13.7345,17.2655C 12.7594,16.288 12.7614,14.7051 13.7389,13.73C 14.7147,12.7567 16.2942,12.7567 17.27,13.73C 18.2383,14.7113 18.2383,16.2887 17.27,17.27 Z M 10.9,20.1C 10.245,19.4425 9.74013,18.6511 9.42,17.78C 6.27,17.25 4,15.76 4,14L 4,17C 4,19.21 7.58,21 12,21L 12,21C 11.5995,20.7439 11.2303,20.4418 10.9,20.1 Z M 4,9L 4,12C 4,13.68 6.07,15.12 9,15.7C 8.99502,15.6334 8.99502,15.5666 9,15.5C 8.99726,14.572 9.19511,13.6544 9.58,12.81C 6.34,12.3 4,10.79 4,9 Z M 12,3C 7.58,3 4,4.79 4,7C 4,9 7,10.68 10.85,11L 10.9,11C 12.1033,9.7438 13.7606,9.0232 15.5,9C 16.4099,8.9963 17.31,9.1872 18.14,9.56C 19.1655,9.0912 19.871,8.1201 20,7C 20,4.79 16.42,3 12,3 Z "/>
	</g>
</svg>
