<?xml version="1.0" encoding="utf-8"?>
<!DOCTYPE svg PUBLIC "-//W3C//DTD SVG 1.1//EN" "http://www.w3.org/Graphics/SVG/1.1/DTD/svg11.dtd">
<svg xmlns="http://www.w3.org/2000/svg" xmlns:xlink="http://www.w3.org/1999/xlink" version="1.1" baseProfile="full" width="24" height="24" viewBox="0 0 24.00 24.00" enable-background="new 0 0 24.00 24.00" xml:space="preserve">
	<path fill="#000000" fill-opacity="1" stroke-width="0.2" stroke-linejoin="miter" d="M 7,22L 9,22L 9,24L 7,24L 7,22 Z M 11,22L 13,22L 13,24L 11,24L 11,22 Z M 15,22L 17,22L 17,24L 15,24L 15,22 Z M 12,3C 16.4183,3 20,4.7909 20,7C 20,9.2091 16.4183,11 12,11C 7.58172,11 4,9.2091 4,7C 4,4.7909 7.58172,3 12,3 Z M 4,9C 4,11.2091 7.58172,13 12,13C 16.4183,13 20,11.2091 20,9L 20,12C 20,14.2091 16.4183,16 12,16C 7.58172,16 4,14.2091 4,12L 4,9 Z M 4,14C 4,16.2091 7.58172,18 12,18C 16.4183,18 20,16.2091 20,14L 20,17C 20,18.1947 18.9525,19.2671 17.2916,20L 6.70836,20C 5.04751,19.2671 4,18.1947 4,17L 4,14 Z "/>
</svg>
