<?xml version="1.0" encoding="utf-8"?>
<!DOCTYPE svg PUBLIC "-//W3C//DTD SVG 1.1//EN" "http://www.w3.org/Graphics/SVG/1.1/DTD/svg11.dtd">
<svg xmlns="http://www.w3.org/2000/svg" xmlns:xlink="http://www.w3.org/1999/xlink" version="1.1" baseProfile="full" width="24" height="24" viewBox="0 0 24.00 24.00" enable-background="new 0 0 24.00 24.00" xml:space="preserve">
	<path fill="#000000" fill-opacity="1" stroke-linejoin="round" d="M 12,3C 8.588,3 5.688,4.068 4.536,5.57333L 9.78667,10.8227C 10.4947,10.9267 11.224,11 12,11C 16.4213,11 20,9.208 20,7C 20,4.792 16.4213,3 12,3 Z M 3.92133,7.07867L 2.5,8.5L 5,11L -1.98682e-008,11L -1.98682e-008,13L 5,13L 2.5,15.5L 3.92133,16.9213L 8.83867,12M 20,9C 20,11.208 16.4213,13 12,13C 11.3387,13 10.7027,12.948 10.088,12.8693L 7.62,15.344C 8.88,15.7547 10.38,16 12,16C 16.4213,16 20,14.208 20,12M 20,14C 20,16.208 16.4213,18 12,18C 9.71867,18 7.66667,17.516 6.21333,16.7493L 4.53067,18.4267C 5.68267,19.932 8.588,21 12,21C 16.4213,21 20,19.208 20,17"/>
</svg>
