<?xml version="1.0" encoding="utf-8"?>
<!DOCTYPE svg PUBLIC "-//W3C//DTD SVG 1.1//EN" "http://www.w3.org/Graphics/SVG/1.1/DTD/svg11.dtd">
<svg xmlns="http://www.w3.org/2000/svg" xmlns:xlink="http://www.w3.org/1999/xlink" version="1.1" baseProfile="full" width="24" height="24" viewBox="0 0 24.00 24.00" enable-background="new 0 0 24.00 24.00" xml:space="preserve">
	<path fill="#000000" fill-opacity="1" stroke-width="0.2" stroke-linejoin="miter" d="M 19,12L 19,13.5C 21.2091,13.5 23,15.2909 23,17.5C 23,18.3179 22.7545,19.0784 22.3333,19.7119L 21.2376,18.6162C 21.4055,18.2803 21.5,17.9012 21.5,17.5C 21.5,16.1193 20.3807,15 19,15L 19,16.5L 16.75,14.25L 19,12 Z M 19,23L 19,21.5C 16.7909,21.5 15,19.7091 15,17.5C 15,16.6821 15.2455,15.9216 15.6667,15.288L 16.7624,16.3837C 16.5945,16.7197 16.5,17.0988 16.5,17.5C 16.5,18.8807 17.6193,20 19,20L 19,18.5L 21.25,20.75L 19,23 Z M 12,3C 16.4183,3 20,4.7909 20,7C 20,9.2091 16.4183,11 12,11C 7.58172,11 4,9.2091 4,7C 4,4.7909 7.58172,3 12,3 Z M 4,9C 4,11.2091 7.58172,13 12,13C 13.114,13 14.1749,12.8861 15.1385,12.6804C 14.1905,13.5388 13.4969,14.6731 13.1844,15.9565L 12,16C 7.58172,16 4,14.2091 4,12L 4,9 Z M 20,9L 20,11.0189L 19.5,11L 18.8976,11.0275C 19.5981,10.433 20,9.73997 20,9 Z M 4,14C 4,16.2091 7.58172,18 12,18L 13.0166,17.968C 13.0921,19.0297 13.4226,20.0209 13.9472,20.8807L 12,21C 7.58172,21 4,19.2091 4,17L 4,14 Z "/>
</svg>
