<?xml version="1.0" encoding="utf-8"?>
<!DOCTYPE svg PUBLIC "-//W3C//DTD SVG 1.1//EN" "http://www.w3.org/Graphics/SVG/1.1/DTD/svg11.dtd">
<svg xmlns="http://www.w3.org/2000/svg" xmlns:xlink="http://www.w3.org/1999/xlink" version="1.1" baseProfile="full" width="24" height="24" viewBox="0 0 24.00 24.00" enable-background="new 0 0 24.00 24.00" xml:space="preserve">
	<path fill="#000000" fill-opacity="1" stroke-width="0.2" stroke-linejoin="miter" d="M 17.75,22.16L 15,19.16L 16.1602,18L 17.75,19.59L 21.3398,16L 22.5,17.41L 17.75,22.16 Z M 12,3C 16.4183,3 20,4.7909 20,7C 20,9.2091 16.4183,11 12,11C 7.58172,11 4,9.2091 4,7C 4,4.7909 7.58172,3 12,3 Z M 4,9C 4,11.2091 7.58172,13 12,13C 16.4183,13 20,11.2091 20,9L 20,12C 20,12.4259 19.8668,12.8363 19.6202,13.2213C 19.1048,13.0771 18.5614,13 18,13C 15.7876,13 13.8549,14.1974 12.8146,15.9795L 12,16C 7.58172,16 4,14.2091 4,12L 4,9 Z M 4,14C 4,16.2091 7.58172,18 12.083,17.9998L 12,19C 12,19.6999 12.1198,20.3719 12.3402,20.9964L 12,21C 7.58172,21 4,19.2091 4,17L 4,14 Z "/>
</svg>
