<?xml version="1.0" encoding="utf-8"?>
<!DOCTYPE svg PUBLIC "-//W3C//DTD SVG 1.1//EN" "http://www.w3.org/Graphics/SVG/1.1/DTD/svg11.dtd">
<svg xmlns="http://www.w3.org/2000/svg" xmlns:xlink="http://www.w3.org/1999/xlink" version="1.1" baseProfile="full" width="24" height="24" viewBox="0 0 24.00 24.00" enable-background="new 0 0 24.00 24.00" xml:space="preserve">
	<path fill="#000000" fill-opacity="1" stroke-width="1.33333" stroke-linejoin="miter" d="M 11,3C 15.42,3 19,4.79 19,7C 19,9.21 15.42,11 11,11C 6.58,11 3,9.21 3,7C 3,4.79 6.58,3 11,3 Z M 18.9998,12.0275C 17.109,12.2366 15.5713,13.6172 15.1286,15.4273C 13.9235,15.7909 12.5108,16 11,16C 6.58,16 3,14.21 3,12L 3,9C 3,11.21 6.58,13 11,13C 15.4198,13 18.9997,11.2102 19,9.00027L 18.9998,12.0275 Z M 14,17.7095L 14,20.7095C 13.0737,20.8968 12.061,21 11,21C 6.58,21 3,19.21 3,17L 3,14C 3,16.21 6.58,18 11,18C 12.061,18 13.0737,17.8969 14,17.7095 Z M 19.5,14C 20.8807,14 22,15.1193 22,16.5L 22,17C 22.5523,17 23,17.4477 23,18L 23,22C 23,22.5523 22.5523,23 22,23L 17,23C 16.4477,23 16,22.5523 16,22L 16,18C 16,17.4477 16.4477,17 17,17L 17,16.5C 17,15.1193 18.1193,14 19.5,14 Z M 19.5,15C 18.6716,15 18,15.6716 18,16.5L 18,17L 21,17L 21,16.5C 21,15.6716 20.3284,15 19.5,15 Z "/>
</svg>
