<?xml version="1.0" encoding="utf-8"?>
<!DOCTYPE svg PUBLIC "-//W3C//DTD SVG 1.1//EN" "http://www.w3.org/Graphics/SVG/1.1/DTD/svg11.dtd">
<svg xmlns="http://www.w3.org/2000/svg" xmlns:xlink="http://www.w3.org/1999/xlink" version="1.1" baseProfile="full" width="24" height="24" viewBox="0 0 24.00 24.00" enable-background="new 0 0 24.00 24.00" xml:space="preserve">
	<path fill="#000000" fill-opacity="1" stroke-width="1.33333" stroke-linejoin="miter" d="M 2.05,13L 21.95,13C 21.448,18.053 17.186,22 12,22C 6.815,22 2.552,18.053 2.05,13 Z M 21.95,11L 2.05,11C 2.552,5.947 6.815,2 12,2C 17.185,2 21.448,5.947 21.95,11 Z M 12,6.75C 12,5.369 10.881,4.25 9.5,4.25C 8.119,4.25 7,5.369 7,6.75C 7,8.131 8.119,9.25 9.5,9.25C 10.881,9.25 12,8.131 12,6.75 Z "/>
</svg>
