<?xml version="1.0" encoding="utf-8"?>
<!DOCTYPE svg PUBLIC "-//W3C//DTD SVG 1.1//EN" "http://www.w3.org/Graphics/SVG/1.1/DTD/svg11.dtd">
<svg xmlns="http://www.w3.org/2000/svg" xmlns:xlink="http://www.w3.org/1999/xlink" version="1.1" baseProfile="full" width="24" height="24" viewBox="0 0 24.00 24.00" enable-background="new 0 0 24.00 24.00" xml:space="preserve">
	<path fill="#000000" fill-opacity="1" stroke-width="1.33333" stroke-linejoin="miter" d="M 12,2L 1,21L 23,21L 12,2 Z M 12.75,11.47C 14.5615,11.8725 15.7037,13.6673 15.3012,15.4788C 15.0182,16.7524 14.0236,17.747 12.75,18.03L 12.75,11.47 Z M 11.25,18C 9.43851,17.5975 8.29631,15.8027 8.69884,13.9912C 8.98183,12.7176 9.97645,11.723 11.25,11.44L 11.25,18 Z M 16.88,14.72C 16.8345,12.3516 15.0914,10.3595 12.75,10L 12.75,6.29L 20.4,19.5L 13.07,19.5C 15.2932,19.0004 16.8747,17.0287 16.88,14.75L 16.88,14.72 Z M 11.25,6.29L 11.25,10C 8.59637,10.4033 6.7721,12.8814 7.17539,15.535C 7.47715,17.5206 8.96912,19.116 10.93,19.55L 3.6,19.55L 11.25,6.29 Z "/>
</svg>
