<?xml version="1.0" encoding="utf-8"?>
<!DOCTYPE svg PUBLIC "-//W3C//DTD SVG 1.1//EN" "http://www.w3.org/Graphics/SVG/1.1/DTD/svg11.dtd">
<svg xmlns="http://www.w3.org/2000/svg" xmlns:xlink="http://www.w3.org/1999/xlink" version="1.1" baseProfile="full" width="24" height="24" viewBox="0 0 24.00 24.00" enable-background="new 0 0 24.00 24.00" xml:space="preserve">
	<path fill="#000000" fill-opacity="1" stroke-width="1.33333" stroke-linejoin="miter" d="M 13.6393,12.5951C 13.9294,12.6216 14.2172,12.6201 14.5001,12.5508L 14.1594,12.8443C 13.705,12.7744 13.2913,12.6001 13.6393,12.5951 Z M 15.5069,12.1296C 15.5322,11.8838 14.929,12.2363 15.6283,11.3559C 15.5674,11.6041 14.9781,12.2566 15.6286,11.8472C 15.7467,11.6369 15.8719,11.4375 15.9184,11.2067C 15.8651,11.5304 15.7142,11.8437 15.5069,12.1296 Z M 16.1964,10.3358C 16.1337,10.5881 16.0821,10.18 16.0174,10.1463C 16.0731,9.90715 16.2384,9.70912 16.1964,10.3358 Z M 12.3198,1.77092C 12.94,1.78856 12.8938,1.82972 12.6907,1.87424L 12.6817,1.89051L 12.5595,1.90122L 12.6907,1.87424C 12.7211,1.82982 12.5054,1.80431 12.3198,1.77092 Z M 18.4817,10.5734L 18.3042,10.9433C 18.5626,10.1611 18.4136,9.3098 18.45,8.57343L 18.378,8.55411C 18.3149,6.70191 16.714,4.73348 15.2888,4.06736C 14.0609,3.50004 12.17,3.40292 11.2966,3.83027C 11.417,3.72369 11.896,3.67896 11.7517,3.59696C 10.3841,3.73293 10.6893,4.07387 9.64107,4.34162C 9.35351,4.61934 10.4805,4.11891 9.87397,4.47896C 9.31167,4.63404 9.04966,4.38089 8.21639,5.24325C 8.29063,5.36327 8.74539,4.88846 8.36587,5.36495C 7.58288,5.26782 5.89199,7.15667 5.53297,7.78279L 5.72083,7.81523C 5.41251,8.5875 5.00727,9.07985 4.95202,9.54248C 4.87255,10.6802 4.47508,12.7543 5.02684,13.3922L 4.97345,13.9248L 5.20036,14.3717L 5.07753,14.3815C 5.65798,16.212 5.701,14.4155 6.46721,16.3168C 6.35602,16.2792 6.24375,16.2385 6.08187,16.0198C 6.06246,16.1863 6.31756,16.687 6.62098,17.0773L 6.4926,17.224C 6.66148,17.5307 6.81719,17.5979 6.93436,17.7051C 6.30381,17.3609 7.5192,18.8391 7.62895,19.0277L 7.72579,18.855C 7.71178,19.1032 7.90369,19.4232 8.26388,19.8677L 8.56361,19.8559C 8.68718,20.1002 9.1389,20.5413 9.41298,20.562L 9.23077,20.7999C 9.91852,21.0177 9.56491,21.0888 10.4102,21.388L 10.2397,21.0866C 10.6707,21.4607 10.8042,21.7879 11.4128,22.0745C 12.2563,22.3687 12.3683,22.2523 13.2344,22.5C 12.5003,22.4786 11.6374,22.4866 11.057,22.2792C 7.0976,21.207 3.4753,16.5623 3.74025,11.7787C 3.67927,10.81 3.83668,9.5997 3.67538,9.35862C 3.9018,8.62163 4.1638,7.72293 4.69127,6.65341C 4.65306,6.58179 4.77799,6.86288 5.04624,6.40592C 5.20888,6.04871 5.34156,5.65517 5.54664,5.30793L 5.652,5.28347C 5.75752,4.67079 7.08181,3.73104 7.47593,3.25802L 7.503,3.43862C 8.36292,2.63233 9.89552,2.0919 10.7588,1.70644C 10.5323,1.95718 11.2663,1.68146 11.7953,1.64932L 11.3066,1.92505C 11.9413,1.77375 11.9109,1.98722 12.5596,1.90154C 12.3319,1.93461 12.0556,2.02491 12.0997,2.05935C 12.8249,2.14335 12.9356,1.83517 13.6064,2.05861L 13.5641,1.86048C 14.4962,2.19711 14.6913,2.13988 15.704,2.67705C 16.06,2.69427 16.0952,2.45824 16.6325,2.67674C 16.7271,2.84264 16.6111,2.87319 17.2707,3.266C 17.3443,3.23681 17.1394,3.05033 16.977,2.90186C 18.3034,3.61093 19.7451,5.12208 20.1847,6.7394C 19.7731,5.98078 20.1423,7.12633 20.0007,7.06689C 20.1843,7.56166 20.3344,8.073 20.4274,8.60084C 20.3057,8.16792 20.0402,7.12265 19.5746,6.44823C 19.5367,6.88336 18.9748,6.14783 19.2819,7.10585C 19.5158,7.4451 19.3295,6.76166 19.618,7.36467C 19.6226,7.65133 19.7319,7.93608 19.7954,8.30967C 19.6967,8.2934 19.5753,7.89681 19.5027,8.00717C 19.6028,8.47704 19.7673,8.7219 19.83,8.75792C 19.7979,8.83656 19.7145,8.68442 19.7089,9.00404C 19.7474,9.73967 19.9152,9.42929 19.9943,9.46436C 19.9142,9.82629 19.5901,10.2524 19.7499,10.875L 19.5464,10.3178C 19.4833,10.8496 19.6642,10.9532 19.4185,11.5975C 19.5956,11.0167 19.5761,10.4924 19.4095,10.745C 19.4833,11.5707 18.7563,12.2046 18.8348,12.7267L 18.6233,12.4354C 18.0508,13.2657 18.6103,12.8927 18.2201,13.5217C 18.3631,13.2747 18.1453,13.4199 18.3313,13.1401C 18.2078,13.1472 17.7804,13.6658 17.3888,13.9706C 15.8506,15.2039 14.0137,15.3651 12.2355,14.7008L 12.2348,14.7014C 12.2441,14.6599 12.2279,14.6138 12.1085,14.5333C 10.6014,13.3783 9.71058,12.3964 10.0197,10.1237C 10.2496,9.95019 10.3109,9.00215 10.8383,8.66993C 11.1598,7.95981 12.1229,7.30545 13.1527,7.28918C 14.2038,7.23133 15.0906,7.84999 15.5361,8.43368C 14.7249,7.67768 13.3975,7.44752 12.2648,8.00822C 11.1072,8.52891 10.4207,9.80424 10.5208,11.0739C 10.5638,11.0106 10.602,11.0496 10.6228,10.8931C 10.5872,13.3608 13.282,15.1694 15.2223,14.2568L 15.2453,14.308C 16.0317,14.0933 15.9303,13.9165 16.4446,13.5631C 16.4046,13.6461 16.0982,13.8576 16.2807,13.8615C 16.5309,13.7951 17.3126,13.0679 17.6969,12.7264C 17.8731,12.3462 17.6031,12.5206 17.8494,12.0426L 18.15,11.8924C 18.3171,11.4091 18.5025,11.1361 18.4817,10.5734 Z M 12.2278,14.7234C 12.2395,14.814 12.5807,15.0748 12.8379,15.2071C 13.5153,15.4575 14.2812,15.4674 14.884,15.4452C 13.5811,15.9901 11.093,14.8917 10.2793,13.4345C 10.4634,13.4746 11.0942,14.4587 11.5663,14.6187C 11.2872,14.395 11.0713,14.1104 10.8712,13.8174C 11.2482,14.2508 11.7068,14.6049 12.2075,14.8393L 12.2278,14.7234 Z M 9.84116,13.0728L 10.4945,14.2069C 10.2024,13.9641 10.021,13.6275 9.79241,13.3168L 9.84116,13.0728 Z M 10.3818,13.0516L 10.4889,13.3673C 10.3426,13.1207 10.1856,12.8782 10.1089,12.5961L 10.3818,13.0516 Z M 19.9486,10.9723L 19.9482,10.9734C 19.8553,11.6871 19.6335,12.3916 19.2911,13.0357C 19.6014,12.4249 19.8038,11.7662 19.8976,11.1005L 19.9482,10.9734L 19.9483,10.9723L 19.9486,10.9723 Z M 12.3885,1.60406L 12.2476,1.58474L 13.2164,1.5C 12.9668,1.55681 12.6238,1.51785 12.3885,1.60406 Z M 4.13139,6.02581C 4.16332,6.16045 4.46364,5.82303 4.22437,6.36202C 3.7605,6.68627 4.16598,6.50567 4.13139,6.02581 Z M 3.57256,8.31912C 3.60435,8.05714 3.44172,7.97503 3.74295,7.58989L 3.57256,8.31912 Z "/>
</svg>
