<?xml version="1.0" encoding="utf-8"?>
<!DOCTYPE svg PUBLIC "-//W3C//DTD SVG 1.1//EN" "http://www.w3.org/Graphics/SVG/1.1/DTD/svg11.dtd">
<svg xmlns="http://www.w3.org/2000/svg" xmlns:xlink="http://www.w3.org/1999/xlink" version="1.1" baseProfile="full" width="24" height="24" viewBox="0 0 24.00 24.00" enable-background="new 0 0 24.00 24.00" xml:space="preserve">
	<path fill="#000000" fill-opacity="1" stroke-width="1.33333" stroke-linejoin="miter" d="M 18.5,10.57L 18.3,10.94C 18.56,10.16 18.41,9.31 18.45,8.57L 18.38,8.55C 18.31,6.7 16.71,4.73 15.29,4.07C 14.06,3.5 12.17,3.4 11.3,3.83C 11.42,3.72 11.9,3.68 11.75,3.6C 10.38,3.73 10.69,4.07 9.64,4.34C 9.35,4.62 10.5,4.12 9.87,4.5C 9.31,4.63 9.05,4.38 8.22,5.24C 8.29,5.36 8.75,4.89 8.37,5.36C 7.58,5.27 5.89,7.16 5.53,7.78L 5.72,7.82C 5.41,8.59 5,9.08 4.95,9.54C 4.87,10.68 4.5,12.75 5.03,13.39L 4.97,13.92L 5.2,14.37L 5.08,14.38C 5.66,16.21 5.7,14.42 6.47,16.32C 6.36,16.28 6.24,16.24 6.08,16C 6.06,16.19 6.32,16.69 6.62,17.08L 6.5,17.22C 6.66,17.53 6.82,17.6 6.93,17.71C 6.3,17.36 7.5,18.84 7.63,19.03L 7.73,18.86C 7.71,19.1 7.9,19.42 8.26,19.87L 8.56,19.86C 8.69,20.1 9.14,20.54 9.41,20.56L 9.23,20.8C 9.92,21 9.56,21.09 10.41,21.39L 10.24,21.09C 10.67,21.46 10.8,21.79 11.41,22.07C 12.26,22.37 12.37,22.25 13.23,22.5C 12.5,22.5 11.64,22.5 11.06,22.28C 7.1,21.21 3.5,16.56 3.74,11.78C 3.68,10.81 3.84,9.6 3.68,9.36C 3.9,8.62 4.16,7.72 4.69,6.65C 4.65,6.58 4.78,6.86 5.05,6.41C 5.21,6.05 5.34,5.66 5.55,5.31L 5.65,5.28C 5.76,4.67 7.08,3.73 7.5,3.26L 7.5,3.44C 8.36,2.63 9.9,2.09 10.76,1.71C 10.53,1.96 11.27,1.68 11.8,1.65L 11.31,1.93C 11.94,1.77 11.91,2 12.56,1.9C 12.33,1.93 12.06,2 12.1,2.06C 12.82,2.14 12.94,1.84 13.61,2.06L 13.56,1.86C 14.5,2.2 14.69,2.14 15.7,2.68C 16.06,2.69 16.1,2.46 16.63,2.68C 16.73,2.84 16.61,2.87 17.27,3.27C 17.34,3.24 17.14,3.05 17,2.9C 18.3,3.61 19.75,5.12 20.18,6.74C 19.77,6 20.14,7.13 20,7.07C 20.18,7.56 20.33,8.07 20.43,8.6C 20.31,8.17 20.04,7.12 19.57,6.45C 19.54,6.88 18.97,6.15 19.28,7.11C 19.5,7.45 19.33,6.76 19.62,7.36C 19.62,7.65 19.73,7.94 19.8,8.31C 19.7,8.29 19.58,7.9 19.5,8C 19.6,8.5 19.77,8.72 19.83,8.76C 19.8,8.84 19.71,8.68 19.71,9C 19.75,9.74 19.92,9.43 20,9.46C 19.91,9.83 19.59,10.25 19.75,10.88L 19.55,10.32C 19.5,10.85 19.66,10.95 19.42,11.6C 19.6,11 19.58,10.5 19.41,10.75C 19.5,11.57 18.76,12.2 18.83,12.73L 18.62,12.44C 18.05,13.27 18.61,12.89 18.22,13.5C 18.36,13.27 18.15,13.42 18.33,13.14C 18.21,13.15 17.78,13.67 17.39,13.97C 15.85,15.2 14,15.37 12.24,14.7L 12.23,14.7C 12.24,14.66 12.23,14.61 12.11,14.53C 10.6,13.38 9.71,12.4 10,10.12C 10.25,9.95 10.31,9 10.84,8.67C 11.16,7.96 12.12,7.31 13.15,7.29C 14.2,7.23 15.09,7.85 15.54,8.43C 14.72,7.68 13.4,7.45 12.26,8C 11.11,8.53 10.42,9.8 10.5,11.07C 10.56,11 10.6,11.05 10.62,10.89C 10.59,13.36 13.28,15.17 15.22,14.26L 15.25,14.31C 16.03,14.09 15.93,13.92 16.44,13.56C 16.4,13.65 16.1,13.86 16.28,13.86C 16.53,13.8 17.31,13.07 17.7,12.73C 17.87,12.35 17.6,12.5 17.85,12.04L 18.15,11.89C 18.32,11.41 18.5,11.14 18.5,10.57"/>
</svg>
