<?xml version="1.0" encoding="utf-8"?>
<!DOCTYPE svg PUBLIC "-//W3C//DTD SVG 1.1//EN" "http://www.w3.org/Graphics/SVG/1.1/DTD/svg11.dtd">
<svg xmlns="http://www.w3.org/2000/svg" xmlns:xlink="http://www.w3.org/1999/xlink" version="1.1" baseProfile="full" width="24" height="24" viewBox="0 0 24.00 24.00" enable-background="new 0 0 24.00 24.00" xml:space="preserve">
	<path fill="#000000" fill-opacity="1" stroke-width="0.2" stroke-linejoin="round" d="M 12,14C 13.1046,14 14,14.8954 14,16C 14,17.1046 13.1046,18 12,18C 10.8954,18 10,17.1046 10,16C 10,14.8954 10.8954,14 12,14 Z M 23.4613,8.86483L 21.8706,15.7547L 14.9808,14.164L 18.7972,11.7792C 17.3853,9.5103 14.869,8 12,8C 8.05024,8 4.76903,10.8624 4.11755,14.6259L 2.14761,14.2786C 2.96352,9.57603 7.06414,6 12,6C 15.5843,6 18.7281,7.88575 20.4936,10.7192L 23.4613,8.86483 Z "/>
</svg>
