<?xml version="1.0" encoding="utf-8"?>
<!DOCTYPE svg PUBLIC "-//W3C//DTD SVG 1.1//EN" "http://www.w3.org/Graphics/SVG/1.1/DTD/svg11.dtd">
<svg xmlns="http://www.w3.org/2000/svg" xmlns:xlink="http://www.w3.org/1999/xlink" version="1.1" baseProfile="full" width="24" height="24" viewBox="0 0 24.00 24.00" enable-background="new 0 0 24.00 24.00" xml:space="preserve">
	<path fill="#000000" fill-opacity="1" stroke-width="0.2" stroke-linejoin="miter" d="M 23,12L 20.56,14.78L 20.9,18.46L 17.29,19.28L 15.4,22.46L 12,21L 8.6,22.47L 6.71,19.29L 3.1,18.47L 3.44,14.78L 1,12L 3.44,9.21L 3.1,5.53L 6.71,4.72L 8.6,1.54L 12,3L 15.4,1.54L 17.29,4.72L 20.9,5.54L 20.56,9.22L 23,12 Z M 20.333,11.9962L 18.4846,9.89024L 18.7422,7.10247L 16.0074,6.48129L 14.5757,4.07229L 12,5.17831L 9.42435,4.07229L 7.99259,6.48129L 5.25785,7.0949L 5.51542,9.88266L 3.667,11.9962L 5.51542,14.1022L 5.25785,16.8975L 7.99259,17.5187L 9.42435,19.9277L 12,18.8141L 14.5757,19.9201L 16.0074,17.5111L 18.7422,16.89L 18.4846,14.1022L 20.333,11.9962 Z "/>
</svg>
