<?xml version="1.0" encoding="utf-8"?>
<!DOCTYPE svg PUBLIC "-//W3C//DTD SVG 1.1//EN" "http://www.w3.org/Graphics/SVG/1.1/DTD/svg11.dtd">
<svg xmlns="http://www.w3.org/2000/svg" xmlns:xlink="http://www.w3.org/1999/xlink" version="1.1" baseProfile="full" width="24" height="24" viewBox="0 0 24.00 24.00" enable-background="new 0 0 24.00 24.00" xml:space="preserve">
	<path fill="#000000" fill-opacity="1" stroke-linejoin="round" d="M 22,17L 19,20L 19,18L 13,18L 13,16L 19,16L 19,14L 22,17 Z M 8.99999,5.00001C 10.6568,5.00001 12,6.34316 12,8.00001L 12,11C 12,12.6569 10.6568,14 9,14C 7.34314,14 6,12.6569 6,11L 5.99999,8.00001C 5.99999,6.34316 7.34314,5.00001 8.99999,5.00001 Z M 8.99999,7.00001C 8.44771,7.00001 7.99999,7.44773 7.99999,8.00001L 8,11C 8,11.5523 8.44771,12 9,12C 9.55228,12 10,11.5523 10,11L 9.99999,8.00001C 9.99999,7.44773 9.55228,7.00001 8.99999,7.00001 Z M 16,5.00001C 17.6569,5.00001 19,6.34315 19,8L 19,11C 19,12.6569 17.6569,14 16,14C 14.3431,14 13,12.6569 13,11L 13,8C 13,6.34315 14.3431,5.00001 16,5.00001 Z M 16,7C 15.4477,7 15,7.44772 15,8L 15,11C 15,11.5523 15.4477,12 16,12C 16.5523,12 17,11.5523 17,11L 17,8C 17,7.44772 16.5523,7 16,7 Z M 4,12C 4.55228,12 5,12.4477 5,13C 5,13.5523 4.55228,14 4,14C 3.44772,14 3,13.5523 3,13C 3,12.4477 3.44772,12 4,12 Z "/>
</svg>
