<?xml version="1.0" encoding="utf-8"?>
<!DOCTYPE svg PUBLIC "-//W3C//DTD SVG 1.1//EN" "http://www.w3.org/Graphics/SVG/1.1/DTD/svg11.dtd">
<svg xmlns="http://www.w3.org/2000/svg" xmlns:xlink="http://www.w3.org/1999/xlink" version="1.1" baseProfile="full" width="24" height="24" viewBox="0 0 24.00 24.00" enable-background="new 0 0 24.00 24.00" xml:space="preserve">
	<path fill="#000000" fill-opacity="1" stroke-width="1.33333" stroke-linejoin="miter" d="M 12,2.00001C 17.5,2.00001 22,6.50001 22,12C 22,17.5 17.5,22 12,22C 6.5,22 2,17.5 2,12C 2,6.50001 6.5,2.00001 12,2.00001 Z M 12,4.00001C 7.6,4.00001 4,7.60001 4,12C 4,16.4 7.6,20 12,20C 16.4,20 20,16.4 20,12C 20,7.60001 16.4,4.00001 12,4.00001 Z M 16,10L 16,17C 16,17.549 15.549,18 15,18L 9,18C 8.451,18 8,17.549 8,17L 8,10L 16,10 Z M 13.5,6.00001L 14.5,7.00001L 17,7.00001L 17,9.00001L 7,9.00001L 7,7.00001L 9.5,7.00001L 10.5,6.00001L 13.5,6.00001 Z "/>
</svg>
