<?xml version="1.0" encoding="utf-8"?>
<!DOCTYPE svg PUBLIC "-//W3C//DTD SVG 1.1//EN" "http://www.w3.org/Graphics/SVG/1.1/DTD/svg11.dtd">
<svg xmlns="http://www.w3.org/2000/svg" xmlns:xlink="http://www.w3.org/1999/xlink" version="1.1" baseProfile="full" width="24" height="24" viewBox="0 0 24.00 24.00" enable-background="new 0 0 24.00 24.00" xml:space="preserve">
	<path fill="#000000" fill-opacity="1" stroke-width="1.33333" stroke-linejoin="miter" d="M 15,16L 19,16L 19,18L 15,18L 15,16 Z M 15,8L 22,8L 22,10L 15,10L 15,8 Z M 15,12L 21,12L 21,14L 15,14L 15,12 Z M 3,18C 3,19.1 3.9,20 5,20L 11,20C 12.1,20 13,19.1 13,18L 13,8L 3,8L 3,18 Z M 14,5L 11,5L 10,4L 6,4L 5,5L 2,5L 2,7L 14,7L 14,5 Z "/>
</svg>
