<?xml version="1.0" encoding="utf-8"?>
<!DOCTYPE svg PUBLIC "-//W3C//DTD SVG 1.1//EN" "http://www.w3.org/Graphics/SVG/1.1/DTD/svg11.dtd">
<svg xmlns="http://www.w3.org/2000/svg" xmlns:xlink="http://www.w3.org/1999/xlink" version="1.1" baseProfile="full" width="24" height="24" viewBox="0 0 24.00 24.00" enable-background="new 0 0 24.00 24.00" xml:space="preserve">
	<path fill="#000000" fill-opacity="1" stroke-width="0.2" stroke-linejoin="round" d="M 12,2C 17.53,2 22,6.47 22,12C 22,17.53 17.53,22 12,22C 6.47,22 2,17.53 2,12C 2,6.47 6.47,2 12,2 Z M 17,7.00004L 14.5,7.00003L 13.5,6.00003L 10.5,6.00003L 9.49998,7.00003L 6.99999,7.00004L 6.99999,9.00004L 17,9.00004L 17,7.00004 Z M 8.99999,18L 15,18C 15.5523,18 16,17.5523 16,17L 16,10L 7.99999,10L 7.99999,17C 7.99999,17.5523 8.44771,18 8.99999,18 Z "/>
</svg>
