<?xml version="1.0" encoding="utf-8"?>
<!DOCTYPE svg PUBLIC "-//W3C//DTD SVG 1.1//EN" "http://www.w3.org/Graphics/SVG/1.1/DTD/svg11.dtd">
<svg xmlns="http://www.w3.org/2000/svg" xmlns:xlink="http://www.w3.org/1999/xlink" version="1.1" baseProfile="full" width="24" height="24" viewBox="0 0 24.00 24.00" enable-background="new 0 0 24.00 24.00" xml:space="preserve">
	<path fill="#000000" fill-opacity="1" stroke-width="1.33333" stroke-linejoin="miter" d="M 20.9994,13.9981L 20.9994,3.99807L 2.99941,3.99807L 2.99941,13.9981L 20.9994,13.9981 Z M 20.9994,1.99808C 22.1034,1.99808 22.9994,2.89407 22.9994,3.99807L 22.9994,15.9981C 22.9994,17.1031 22.1034,17.9981 20.9994,17.9981L 13.9994,17.9981L 15.9994,20.9981L 15.9994,21.9981L 7.99941,21.9981L 7.99941,20.9981L 9.99941,17.9981L 2.99941,17.9981C 1.89441,17.9981 0.99941,17.1031 0.99941,15.9981L 0.99941,3.99807C 0.99941,2.89407 1.89441,1.99808 2.99941,1.99808L 20.9994,1.99808 Z M 4,5.00001L 15,5L 15,10L 4,10L 4,5.00001 Z M 16,5.00001L 20,5.00001L 20,7.00001L 16,7.00001L 16,5.00001 Z M 20,8.00001L 20,13L 16,13L 16,8.00001L 20,8.00001 Z M 4,11L 9,11L 9,13L 4,13L 4,11 Z M 10,11L 15,11L 15,13L 10,13L 10,11 Z "/>
</svg>
