<?xml version="1.0" encoding="utf-8"?>
<!DOCTYPE svg PUBLIC "-//W3C//DTD SVG 1.1//EN" "http://www.w3.org/Graphics/SVG/1.1/DTD/svg11.dtd">
<svg xmlns="http://www.w3.org/2000/svg" xmlns:xlink="http://www.w3.org/1999/xlink" version="1.1" baseProfile="full" width="24" height="24" viewBox="0 0 24.00 24.00" enable-background="new 0 0 24.00 24.00" xml:space="preserve">
	<path fill="#000000" fill-opacity="1" stroke-width="1.33333" stroke-linejoin="miter" d="M 10.8496,2L 9.18359,4.4941L 10.3203,5.2539L 7.14453,10.0078C 7.09646,10.0035 7.04826,10.0009 7,10C 5.89543,10 5,10.8954 5,12C 5.00068,12.9407 5.65683,13.7538 6.57617,13.9531L 10.6152,20L 7,20L 7,22L 17,22L 17,20L 13.0215,20L 8.5332,13.2832C 8.83452,12.9235 8.99975,12.4693 9,12C 8.99924,11.6988 8.93047,11.4017 8.79883,11.1309L 11.9824,6.3652C 11.7783,8.0454 12.7524,9.8855 14.4453,11.0176L 18.8906,4.3652C 17.1971,3.2353 15.124,3.0399 13.6504,3.8711L 10.8496,2 Z M 18.334,7L 16.666,9.4941C 17.3548,9.9544 18.2858,9.7689 18.7461,9.0801C 19.2063,8.3913 19.0228,7.4602 18.334,7 Z "/>
</svg>
