<?xml version="1.0" encoding="utf-8"?>
<!DOCTYPE svg PUBLIC "-//W3C//DTD SVG 1.1//EN" "http://www.w3.org/Graphics/SVG/1.1/DTD/svg11.dtd">
<svg xmlns="http://www.w3.org/2000/svg" xmlns:xlink="http://www.w3.org/1999/xlink" version="1.1" baseProfile="full" width="24" height="24" viewBox="0 0 24.00 24.00" enable-background="new 0 0 24.00 24.00" xml:space="preserve">
	<path fill="#000000" fill-opacity="1" stroke-width="1.33333" stroke-linejoin="miter" d="M 22,9L 22,7L 20,7L 20,5C 20,3.9 19.1,3 18,3L 4,3C 2.9,3 2,3.9 2,5L 2,19C 2,20.1 2.9,21 4,21L 18,21C 19.1,21 20,20.1 20,19L 20,17L 22,17L 22,15L 20,15L 20,13L 22,13L 22,11L 20,11L 20,9L 22,9 Z M 18,19L 4,19L 4,5L 18,5L 18,19 Z M 6,13L 11,13L 11,17L 6,17L 6,13 Z M 12,7L 16,7L 16,10L 12,10L 12,7 Z M 6,7L 11,7L 11,12L 6,12L 6,7 Z M 12,11L 16,11L 16,17L 12,17L 12,11 Z "/>
</svg>
