<?xml version="1.0" encoding="utf-8"?>
<!DOCTYPE svg PUBLIC "-//W3C//DTD SVG 1.1//EN" "http://www.w3.org/Graphics/SVG/1.1/DTD/svg11.dtd">
<svg xmlns="http://www.w3.org/2000/svg" xmlns:xlink="http://www.w3.org/1999/xlink" version="1.1" baseProfile="full" width="24" height="24" viewBox="0 0 24.00 24.00" enable-background="new 0 0 24.00 24.00" xml:space="preserve">
	<path fill="#000000" fill-opacity="1" stroke-width="1.33333" stroke-linejoin="miter" d="M 4.15454,21.461L 5.47374,19.577C 3.34658,17.7432 2,15.0289 2,12C 2,6.47715 6.47715,2 12,2C 13.7758,2 15.4434,2.46285 16.8889,3.27449L 18.2072,1.39181L 19.8455,2.53896L 18.5263,4.42298C 20.6534,6.2568 22,8.97115 22,12C 22,17.5228 17.5228,22 12,22C 10.2242,22 8.55659,21.5371 7.11111,20.7255L 5.79284,22.6082L 4.15454,21.461 Z M 12,4C 7.58172,4 4,7.58172 4,12C 4,14.3507 5.01387,16.4646 6.62819,17.9283L 15.7344,4.92328C 14.6196,4.33379 13.3488,4 12,4 Z M 12,20C 16.4183,20 20,16.4183 20,12C 20,9.64929 18.9861,7.53538 17.3718,6.07171L 8.2656,19.0767C 9.38037,19.6662 10.6512,20 12,20 Z "/>
</svg>
