<?xml version="1.0" encoding="utf-8"?>
<!DOCTYPE svg PUBLIC "-//W3C//DTD SVG 1.1//EN" "http://www.w3.org/Graphics/SVG/1.1/DTD/svg11.dtd">
<svg xmlns="http://www.w3.org/2000/svg" xmlns:xlink="http://www.w3.org/1999/xlink" version="1.1" baseProfile="full" width="24" height="24" viewBox="0 0 24.00 24.00" enable-background="new 0 0 24.00 24.00" xml:space="preserve">
	<path fill="#000000" fill-opacity="1" stroke-linejoin="round" d="M 5,3L 19,3C 20.1046,3 21,3.89543 21,5L 21,19C 21,20.1046 20.1046,21 19,21L 5,21C 3.89543,21 3,20.1046 3,19L 3,5C 3,3.89543 3.89543,3 5,3 Z M 6.99999,5.00001C 5.89542,5.00001 5,5.89544 5,7.00001C 5,8.10458 5.89542,9.00001 6.99999,9.00001C 8.10456,9.00001 8.99999,8.10458 8.99999,7.00001C 8.99999,5.89544 8.10456,5.00001 6.99999,5.00001 Z M 17,15C 15.8954,15 15,15.8954 15,17C 15,18.1046 15.8954,19 17,19C 18.1046,19 19,18.1046 19,17C 19,15.8954 18.1046,15 17,15 Z M 17,5.00001C 15.8954,5.00001 15,5.89544 15,7.00001C 15,8.10458 15.8954,9.00001 17,9.00001C 18.1046,9.00001 19,8.10458 19,7.00001C 19,5.89544 18.1046,5.00001 17,5.00001 Z M 12,10C 10.8954,10 10,10.8954 10,12C 10,13.1046 10.8954,14 12,14C 13.1046,14 14,13.1046 14,12C 14,10.8954 13.1046,10 12,10 Z M 7,15C 5.89543,15 5,15.8954 5,17C 5,18.1046 5.89543,19 7,19C 8.10457,19 9,18.1046 9,17C 9,15.8954 8.10457,15 7,15 Z "/>
</svg>
