<?xml version="1.0" encoding="utf-8"?>
<!DOCTYPE svg PUBLIC "-//W3C//DTD SVG 1.1//EN" "http://www.w3.org/Graphics/SVG/1.1/DTD/svg11.dtd">
<svg xmlns="http://www.w3.org/2000/svg" xmlns:xlink="http://www.w3.org/1999/xlink" version="1.1" baseProfile="full" width="24" height="24" viewBox="0 0 24.00 24.00" enable-background="new 0 0 24.00 24.00" xml:space="preserve">
	<path fill="#000000" fill-opacity="1" stroke-width="0.2" stroke-linejoin="round" d="M 21,16.5C 21,16.8812 20.7867,17.2125 20.473,17.3813L 12.5664,21.8243C 12.4054,21.9351 12.2103,22 12,22C 11.7897,22 11.5946,21.9351 11.4336,21.8243L 3.52716,17.3814C 3.21335,17.2127 3,16.8812 3,16.5L 3,7.5C 3,7.11876 3.21334,6.78735 3.52716,6.61864L 11.4336,2.17575C 11.5946,2.0649 11.7897,2.00001 12,2.00001C 12.2103,2.00001 12.4053,2.06489 12.5664,2.17574L 20.473,6.61872C 20.7867,6.78746 21,7.11883 21,7.5L 21,16.5 Z M 12.0009,4.15093L 5,8.08514L 5,15.9149L 12.0009,19.8491L 19,15.9149L 19,8.08506L 12.0009,4.15093 Z M 14.9323,8.26825C 16.3518,8.26825 17.5026,9.41902 17.5026,10.8386L 17.5026,13.4792C 17.5026,14.8987 16.3518,16.0495 14.9323,16.0495C 13.5127,16.0495 12.362,14.8987 12.362,13.4792L 12.362,10.8386C 12.362,9.41902 13.5127,8.26825 14.9323,8.26825 Z M 14.9245,9.70574C 14.3377,9.70574 13.862,10.1814 13.862,10.7682L 13.862,13.5339C 13.862,14.1207 14.3377,14.5964 14.9245,14.5964C 15.5113,14.5964 15.987,14.1207 15.987,13.5339L 15.987,10.7682C 15.987,10.1814 15.5113,9.70574 14.9245,9.70574 Z M 11.4505,14.7578L 11.4505,15.9609L 6.30989,15.9297L 6.30989,14.9141C 6.30989,14.9141 9.74219,11.5807 9.74739,10.5703C 9.75377,9.33437 8.73177,9.46094 8.73177,9.46094C 8.73177,9.46094 7.7474,9.50781 7.63802,10.7109L 6.13802,10.7578C 6.13802,10.7578 6.18489,8.25782 8.82552,8.25782C 11.2005,8.25782 11.2318,10.0391 11.2318,10.4766C 11.2318,12.1797 8.15364,14.7734 8.15364,14.7734L 11.4505,14.7578 Z "/>
</svg>
