<?xml version="1.0" encoding="utf-8"?>
<!DOCTYPE svg PUBLIC "-//W3C//DTD SVG 1.1//EN" "http://www.w3.org/Graphics/SVG/1.1/DTD/svg11.dtd">
<svg xmlns="http://www.w3.org/2000/svg" xmlns:xlink="http://www.w3.org/1999/xlink" version="1.1" baseProfile="full" width="24" height="24" viewBox="0 0 24.00 24.00" enable-background="new 0 0 24.00 24.00" xml:space="preserve">
	<path fill="#000000" fill-opacity="1" stroke-width="0.2" stroke-linejoin="round" d="M 16.5625,12.6567C 16.5625,13.2256 16.5008,13.7142 16.3775,14.1225C 16.2542,14.5308 16.0806,14.8669 15.8567,15.1308C 15.6328,15.3947 15.3636,15.5881 15.0492,15.7108C 14.7347,15.8336 14.3869,15.895 14.0058,15.895C 13.6236,15.895 13.2753,15.8336 12.9608,15.7108C 12.6464,15.5881 12.3764,15.3947 12.1508,15.1308C 11.9253,14.8669 11.75,14.5308 11.625,14.1225C 11.5,13.7142 11.4375,13.2256 11.4375,12.6567L 11.4375,11.3383C 11.4375,10.7694 11.4992,10.2808 11.6225,9.8725C 11.7458,9.46417 11.9203,9.12889 12.1458,8.86667C 12.3714,8.60445 12.6406,8.41167 12.9533,8.28833C 13.2661,8.165 13.6131,8.10334 13.9942,8.10334C 14.3764,8.10334 14.7247,8.165 15.0392,8.28833C 15.3536,8.41167 15.6236,8.60445 15.8492,8.86667C 16.0747,9.12889 16.25,9.46417 16.375,9.8725C 16.5,10.2808 16.5625,10.7694 16.5625,11.3383L 16.5625,12.6567 Z M 15.0575,11.125L 14.9867,10.2758L 14.7783,9.72084C 14.6867,9.58028 14.5747,9.47889 14.4425,9.41667L 13.9942,9.32334L 13.5492,9.41667C 13.4192,9.47889 13.3089,9.58028 13.2183,9.72084L 13.0125,10.2758L 12.9425,11.125L 12.9425,12.8533L 13.0158,13.7133L 13.2242,14.2783C 13.3142,14.4228 13.4253,14.5261 13.5575,14.5883L 14.0058,14.6817L 14.4533,14.5883C 14.585,14.5261 14.695,14.4228 14.7833,14.2783L 14.9867,13.7133L 15.0575,12.8533L 15.0575,11.125 Z M 21.5,10.8C 22.1,11.5 22.1,12.5 21.5,13.2L 13.2,21.5C 12.5,22.2 11.5,22.2 10.8,21.5L 2.5,13.2C 1.8,12.5 1.8,11.5 2.5,10.8L 10.8,2.50001C 11.5,1.80001 12.5,1.80001 13.2,2.50001L 21.5,10.8 Z M 20.3,12L 12,3.70001L 3.7,12L 12,20.3L 20.3,12 Z M 10.3817,15.7917L 8.87666,15.7917L 8.87666,9.99L 7.08,10.5467L 7.08,9.32333L 10.22,8.19833L 10.3817,8.19833L 10.3817,15.7917 Z "/>
</svg>
