<?xml version="1.0" encoding="utf-8"?>
<!DOCTYPE svg PUBLIC "-//W3C//DTD SVG 1.1//EN" "http://www.w3.org/Graphics/SVG/1.1/DTD/svg11.dtd">
<svg xmlns="http://www.w3.org/2000/svg" xmlns:xlink="http://www.w3.org/1999/xlink" version="1.1" baseProfile="full" width="24" height="24" viewBox="0 0 24.00 24.00" enable-background="new 0 0 24.00 24.00" xml:space="preserve">
	<path fill="#000000" fill-opacity="0.882353" stroke-width="0.2" stroke-linejoin="round" d="M 5,3L 19,3C 20.1046,3 21,3.89543 21,5L 21,19C 21,20.1046 20.1046,21 19,21L 5,21C 3.89543,21 3,20.1046 3,19L 3,5C 3,3.89543 3.89543,3 5,3 Z M 5,5.00001L 5,19L 19,19L 19,5.00001L 5,5.00001 Z M 13.3932,9.53076C 10.8932,9.49951 10.862,11.5308 10.862,11.5308C 10.862,11.5308 11.4089,10.8745 12.5339,10.8745C 13.1901,10.8745 14.4902,11.4505 14.5495,13.4058C 14.612,15.4683 12.7682,16 12.7682,16C 12.7682,16 9.26823,16.8589 9.29948,12.6558C 9.33456,7.93691 13.3932,8.32764 13.3932,8.32764L 13.3932,9.53076 Z M 11.95,12.1C 11.2057,12 10.8307,12.7808 10.8307,12.7808L 10.85,13.5C 10.85,14.2732 11.3925,14.8276 12,14.8276C 12.6075,14.8276 13.05,14.2732 13.05,13.5C 13.05,12.7268 12.5575,12.1 11.95,12.1 Z "/>
</svg>
