<?xml version="1.0" encoding="utf-8"?>
<!DOCTYPE svg PUBLIC "-//W3C//DTD SVG 1.1//EN" "http://www.w3.org/Graphics/SVG/1.1/DTD/svg11.dtd">
<svg xmlns="http://www.w3.org/2000/svg" xmlns:xlink="http://www.w3.org/1999/xlink" version="1.1" baseProfile="full" width="24" height="24" viewBox="0 0 24.00 24.00" enable-background="new 0 0 24.00 24.00" xml:space="preserve">
	<path fill="#000000" fill-opacity="1" stroke-width="0.2" stroke-linejoin="miter" d="M 12,8.25C 13.3117,8.25 14.375,9.2014 14.375,10.375C 14.375,11.0651 14.0073,11.6784 13.4376,12.0666C 14.1382,12.4607 14.6,13.1347 14.6,13.9C 14.6,15.115 13.4359,16.1 12,16.1C 10.5641,16.1 9.4,15.115 9.4,13.9C 9.4,13.1347 9.86176,12.4607 10.5624,12.0666C 9.9927,11.6784 9.625,11.0651 9.625,10.375C 9.625,9.2014 10.6883,8.25 12,8.25 Z M 12,12.65C 11.3925,12.65 10.9,13.1425 10.9,13.75C 10.9,14.3575 11.3925,14.85 12,14.85C 12.6075,14.85 13.1,14.3575 13.1,13.75C 13.1,13.1425 12.6075,12.65 12,12.65 Z M 12,9.50001C 11.5029,9.50001 11.1,9.94772 11.1,10.5C 11.1,11.0523 11.5029,11.5 12,11.5C 12.4971,11.5 12.9,11.0523 12.9,10.5C 12.9,9.94772 12.4971,9.50001 12,9.50001 Z M 21.5375,10.8C 22.1375,11.5 22.1375,12.5 21.5375,13.2L 13.2375,21.5C 12.5375,22.2 11.5375,22.2 10.8375,21.5L 2.5375,13.2C 1.8375,12.5 1.8375,11.5 2.5375,10.8L 10.8375,2.50001C 11.5375,1.80001 12.5375,1.80001 13.2375,2.50001L 21.5375,10.8 Z M 20.3375,12L 12.0375,3.70001L 3.7375,12L 12.0375,20.3L 20.3375,12 Z "/>
</svg>
