<?xml version="1.0" encoding="utf-8"?>
<!DOCTYPE svg PUBLIC "-//W3C//DTD SVG 1.1//EN" "http://www.w3.org/Graphics/SVG/1.1/DTD/svg11.dtd">
<svg xmlns="http://www.w3.org/2000/svg" xmlns:xlink="http://www.w3.org/1999/xlink" version="1.1" baseProfile="full" width="24" height="24" viewBox="0 0 24.00 24.00" enable-background="new 0 0 24.00 24.00" xml:space="preserve">
	<path fill="#000000" fill-opacity="1" stroke-width="1.33333" stroke-linejoin="miter" d="M 19.78,3L 11.22,3C 10.5462,3 10,3.5462 10,4.22L 10,8L 16,8L 16,14L 19.78,14C 20.4538,14 21,13.4538 21,12.78L 21,4.22C 21,3.5462 20.4538,3 19.78,3 Z M 12.44,6.67C 11.7607,6.67 11.21,6.1193 11.21,5.44C 11.21,4.7607 11.7607,4.21 12.44,4.21C 13.1193,4.21 13.67,4.7607 13.67,5.44C 13.67,6.1193 13.1193,6.67 12.44,6.67 Z M 18.56,12.78C 17.8807,12.7855 17.3256,12.2393 17.3201,11.56C 17.3146,10.8807 17.8608,10.3256 18.5401,10.3201C 19.2194,10.3146 19.7745,10.8608 19.78,11.56C 19.7746,12.2315 19.2315,12.7746 18.56,12.78 Z M 18.56,6.67C 17.8807,6.6755 17.3256,6.1293 17.32,5.45C 17.3145,4.7708 17.8607,4.2156 18.54,4.2101C 19.2193,4.2046 19.7744,4.7508 19.78,5.44C 19.78,6.1154 19.2354,6.6645 18.56,6.67 Z M 4.22,10L 12.78,10C 13.4538,10 14,10.5462 14,11.22L 14,19.78C 14,20.4538 13.4538,21 12.78,21L 4.22,21C 3.54621,21 3,20.4538 3,19.78L 3,11.22C 3,10.5462 3.54621,10 4.22,10 Z M 8.5,14.28C 7.82621,14.28 7.28,14.8262 7.28,15.5C 7.28,16.1738 7.82621,16.72 8.5,16.72C 9.17379,16.72 9.72,16.1738 9.72,15.5C 9.72,14.8262 9.17379,14.28 8.5,14.28 Z M 5.44,11.22C 4.76621,11.22 4.22,11.7662 4.22,12.44C 4.22,13.1138 4.76621,13.66 5.44,13.66C 6.11379,13.66 6.66,13.1138 6.66,12.44L 6.66,12.44C 6.66,11.7662 6.11379,11.22 5.44,11.22 Z M 11.55,17.33C 10.8762,17.33 10.33,17.8762 10.33,18.55C 10.33,19.2238 10.8762,19.77 11.55,19.77C 12.2238,19.77 12.77,19.2238 12.77,18.55L 12.77,18.55C 12.77,17.8801 12.2299,17.3355 11.56,17.33L 11.55,17.33 Z "/>
</svg>
