<?xml version="1.0" encoding="utf-8"?>
<!DOCTYPE svg PUBLIC "-//W3C//DTD SVG 1.1//EN" "http://www.w3.org/Graphics/SVG/1.1/DTD/svg11.dtd">
<svg xmlns="http://www.w3.org/2000/svg" xmlns:xlink="http://www.w3.org/1999/xlink" version="1.1" baseProfile="full" width="24" height="24" viewBox="0 0 24.00 24.00" enable-background="new 0 0 24.00 24.00" xml:space="preserve">
	<path fill="#000000" fill-opacity="1" stroke-width="0.2" stroke-linejoin="round" d="M 21.5,10.8C 22.1,11.5 22.1,12.5 21.5,13.2L 13.2,21.5C 12.5,22.2 11.5,22.2 10.8,21.5L 2.5,13.2C 1.8,12.5 1.8,11.5 2.5,10.8L 10.8,2.50001C 11.5,1.80001 12.5,1.80001 13.2,2.50001L 21.5,10.8 Z M 20.3,12L 12,3.70001L 3.7,12L 12,20.3L 20.3,12 Z M 10.3817,15.7917L 8.87666,15.7917L 8.87666,9.99L 7.08,10.5467L 7.08,9.32333L 10.22,8.19833L 10.3817,8.19833L 10.3817,15.7917 Z M 13.9297,8C 15.3492,8 16.5,9.15077 16.5,10.5703L 16.5,13.2109C 16.5,14.6305 15.3492,15.7812 13.9297,15.7812C 12.5101,15.7812 11.3594,14.6305 11.3594,13.2109L 11.3594,10.5703C 11.3594,9.15077 12.5101,8 13.9297,8 Z M 13.9219,9.43749C 13.3351,9.43749 12.8594,9.91319 12.8594,10.5L 12.8594,13.2656C 12.8594,13.8524 13.3351,14.3281 13.9219,14.3281C 14.5087,14.3281 14.9844,13.8524 14.9844,13.2656L 14.9844,10.5C 14.9844,9.91319 14.5087,9.43749 13.9219,9.43749 Z "/>
</svg>
