<?xml version="1.0" encoding="utf-8"?>
<!DOCTYPE svg PUBLIC "-//W3C//DTD SVG 1.1//EN" "http://www.w3.org/Graphics/SVG/1.1/DTD/svg11.dtd">
<svg xmlns="http://www.w3.org/2000/svg" xmlns:xlink="http://www.w3.org/1999/xlink" version="1.1" baseProfile="full" width="24" height="24" viewBox="0 0 24.00 24.00" enable-background="new 0 0 24.00 24.00" xml:space="preserve">
	<path fill="#000000" fill-opacity="1" stroke-linejoin="round" d="M 3,4L 7,4C 7.55228,4 8,4.44772 8,5L 8,19C 8,19.5523 7.55228,20 7,20L 3,20C 2.44772,20 2,19.5523 2,19L 2,5C 2,4.44772 2.44772,4 3,4 Z M 10,4.00001L 14,4.00001C 14.5523,4.00001 15,4.44773 15,5.00001L 15,19C 15,19.5523 14.5523,20 14,20L 10,20C 9.44771,20 9,19.5523 9,19L 9,5.00001C 9,4.44773 9.44771,4.00001 10,4.00001 Z M 17,4.00001L 21,4.00001C 21.5523,4.00001 22,4.44772 22,5.00001L 22,19C 22,19.5523 21.5523,20 21,20L 17,20C 16.4477,20 16,19.5523 16,19L 16,5.00001C 16,4.44772 16.4477,4.00001 17,4.00001 Z M 4,18L 6,18L 6,13L 4,13L 4,18 Z M 11,11L 13,11L 13,6L 11,6L 11,11 Z M 18,18L 20,18L 20,13L 18,13L 18,18 Z "/>
</svg>
