<?xml version="1.0" encoding="utf-8"?>
<!DOCTYPE svg PUBLIC "-//W3C//DTD SVG 1.1//EN" "http://www.w3.org/Graphics/SVG/1.1/DTD/svg11.dtd">
<svg xmlns="http://www.w3.org/2000/svg" xmlns:xlink="http://www.w3.org/1999/xlink" version="1.1" baseProfile="full" width="24" height="24" viewBox="0 0 24.00 24.00" enable-background="new 0 0 24.00 24.00" xml:space="preserve">
	<path fill="#000000" fill-opacity="1" stroke-width="1.33333" stroke-linejoin="miter" d="M 14.0156,15.9844C 14.0156,16.5469 13.8203,17.0234 13.4297,17.4141C 13.0391,17.8047 12.5625,18 12,18C 11.4375,18 10.9609,17.8047 10.5703,17.4141C 10.1797,17.0234 9.98438,16.5469 9.98438,15.9844C 9.98438,15.6719 10.1484,15.1797 10.4766,14.5078C 10.8047,13.8359 11.1406,13.25 11.4844,12.75L 12,12C 13.3437,13.9375 14.0156,15.2656 14.0156,15.9844 Z M 17,6C 17.5523,6 18,6.44772 18,7C 18,7.55229 17.5523,8 17,8C 16.4477,8 16,7.55229 16,7C 16,6.44772 16.4477,6 17,6 Z M 5,3L 19,3C 20.1046,3 21,3.89543 21,5L 21,19C 21,20.1046 20.1046,21 19,21L 5,21C 3.89543,21 3,20.1046 3,19L 3,5C 3,3.89543 3.89543,3 5,3 Z M 5,5.00001L 5,9L 19,9L 19,5.00001L 5,5.00001 Z M 5,11L 5,19L 19,19L 19,11L 5,11 Z "/>
</svg>
