<?xml version="1.0" encoding="utf-8"?>
<!DOCTYPE svg PUBLIC "-//W3C//DTD SVG 1.1//EN" "http://www.w3.org/Graphics/SVG/1.1/DTD/svg11.dtd">
<svg xmlns="http://www.w3.org/2000/svg" xmlns:xlink="http://www.w3.org/1999/xlink" version="1.1" baseProfile="full" width="24" height="24" viewBox="0 0 24.00 24.00" enable-background="new 0 0 24.00 24.00" xml:space="preserve">
	<path fill="#000000" fill-opacity="1" stroke-width="1.33333" stroke-linejoin="miter" d="M 18,2L 6,2C 4.89543,2 4,2.8954 4,4L 4,20C 4,21.1046 4.89543,22 6,22L 18,22C 19.1046,22 20,21.1046 20,20L 20,4C 20,2.8954 19.1046,2 18,2 Z M 10,4C 10.5523,4 11,4.4477 11,5C 11,5.5523 10.5523,6 10,6C 9.44771,6 9,5.5523 9,5C 9,4.4477 9.44771,4 10,4 Z M 7,4C 7.55228,4 8,4.4477 8,5C 8,5.5523 7.55228,6 7,6C 6.44772,6 6,5.5523 6,5C 6,4.4477 6.44772,4 7,4 Z M 18,20L 6,20L 6,8L 18,8L 18,20 Z M 14.67,15.33C 14.6862,16.0346 14.4113,16.7147 13.91,17.21C 12.856,18.2649 11.1465,18.2656 10.09,17.21C 9.58869,16.7147 9.31376,16.0346 9.33,15.33C 9.40359,14.6222 9.63235,13.9393 10,13.33C 10.3668,12.5121 10.8122,11.7317 11.33,11L 12,10C 13.79,12.59 14.67,14.36 14.67,15.33"/>
</svg>
