<?xml version="1.0" encoding="utf-8"?>
<!DOCTYPE svg PUBLIC "-//W3C//DTD SVG 1.1//EN" "http://www.w3.org/Graphics/SVG/1.1/DTD/svg11.dtd">
<svg xmlns="http://www.w3.org/2000/svg" xmlns:xlink="http://www.w3.org/1999/xlink" version="1.1" baseProfile="full" width="24" height="24" viewBox="0 0 24.00 24.00" enable-background="new 0 0 24.00 24.00" xml:space="preserve">
	<path fill="#000000" fill-opacity="1" stroke-width="0.2" stroke-linejoin="miter" d="M 14.4989,10.3743C 15.5372,10.3743 16.3751,9.53175 16.3751,8.49824C 16.3751,7.46355 15.5372,6.62573 14.4989,6.62573C 13.4641,6.62573 12.6262,7.46355 12.6262,8.49824C 12.6262,9.53175 13.4641,10.3743 14.4989,10.3743 Z M 14.4989,1.00001C 18.6415,1.00001 22.0012,4.35482 22.0012,8.49825C 22.0012,10.6718 21.0762,12.6298 19.5984,14L 9.40236,14C 7.92505,12.6298 7,10.6718 7,8.49825C 7,4.35482 10.3598,1.00001 14.4989,1.00001 Z M 6,21L 6,22L 4,22L 4,21L 2,21L 2,15L 22,15L 22,21L 20,21L 20,22L 18,22L 18,21L 6,21 Z M 4,18L 4,19L 13,19L 13,18L 4,18 Z M 15,17L 15,19L 17,19L 17,17L 15,17 Z M 19,17C 18.4477,17 18,17.4477 18,18C 18,18.5523 18.4477,19 19,19C 19.5523,19 20,18.5523 20,18C 20,17.4477 19.5523,17 19,17 Z "/>
</svg>
