<?xml version="1.0" encoding="utf-8"?>
<!DOCTYPE svg PUBLIC "-//W3C//DTD SVG 1.1//EN" "http://www.w3.org/Graphics/SVG/1.1/DTD/svg11.dtd">
<svg xmlns="http://www.w3.org/2000/svg" xmlns:xlink="http://www.w3.org/1999/xlink" version="1.1" baseProfile="full" width="24" height="24" viewBox="0 0 24.00 24.00" enable-background="new 0 0 24.00 24.00" xml:space="preserve">
	<path fill="#000000" fill-opacity="1" stroke-width="1.33333" stroke-linejoin="miter" d="M 12,15C 13.3062,15 14.4175,15.8348 14.8293,17L 18,17C 20.2091,17 22,18.7909 22,21L 22,22L 20,22L 20,21C 20,19.8954 19.1046,19 18,19L 14.8293,19C 14.4175,20.1652 13.3062,21 12,21C 10.3431,21 9,19.6569 9,18C 9,16.3431 10.3431,15 12,15 Z M 12,17C 11.4477,17 11,17.4477 11,18C 11,18.5523 11.4477,19 12,19C 12.5523,19 13,18.5523 13,18C 13,17.4477 12.5523,17 12,17 Z M 18,3C 19.1046,3 20,3.8954 20,5L 20,10C 20,11.1046 19.1046,12 18,12L 14.85,12C 14.4329,11.9913 14.0543,12.2424 13.9,12.63C 13.7016,13.2336 13.2281,13.7071 12.6245,13.9055C 11.5752,14.2504 10.4449,13.6793 10.1,12.63C 9.94574,12.2424 9.56707,11.9913 9.15,12L 6,12C 4.89543,12 4,11.1046 4,10L 4,5C 4,3.8954 4.89543,3 6,3L 18,3 Z M 18,10L 18,5L 6,5L 6,10L 10.65,10C 10.9045,9.4619 11.4111,9.0866 12,9C 12.5889,9.0866 13.0955,9.4619 13.35,10L 18,10 Z "/>
</svg>
