<?xml version="1.0" encoding="utf-8"?>
<!DOCTYPE svg PUBLIC "-//W3C//DTD SVG 1.1//EN" "http://www.w3.org/Graphics/SVG/1.1/DTD/svg11.dtd">
<svg xmlns="http://www.w3.org/2000/svg" xmlns:xlink="http://www.w3.org/1999/xlink" version="1.1" baseProfile="full" width="24" height="24" viewBox="0 0 24.00 24.00" enable-background="new 0 0 24.00 24.00" xml:space="preserve">
	<path fill="#000000" fill-opacity="1" stroke-width="1.33333" stroke-linejoin="miter" d="M 22,18.5C 22,19.8807 20.8807,21 19.5,21C 18.1193,21 17,19.8807 17,18.5C 17,17.4748 17.617,16.5938 18.5,16.208L 18.5,6L 14,6L 14,7.35C 15.2191,7.9256 15.9977,9.1518 16,10.5L 16,22L 2,22L 2,10.5C 2.0023,9.1518 2.78088,7.9256 4,7.35L 4,6L 2,6L 2,4L 4,4L 4,3.5C 4,2.6716 4.67157,2 5.5,2C 6.32843,2 7,2.6716 7,3.5L 7,4L 11,4L 11,3.5C 11,2.6716 11.6716,2 12.5,2C 13.3284,2 14,2.6716 14,3.5L 14,4L 18.5,4C 19.6046,4 20.5,4.8954 20.5,6L 20.5,16.208C 21.3829,16.5938 22,17.4748 22,18.5 Z M 11,7.35L 11,6L 7,6L 7,7.35C 8.21912,7.9256 8.9977,9.1518 9,10.5C 9.0023,9.1518 9.78088,7.9256 11,7.35 Z "/>
</svg>
