<?xml version="1.0" encoding="utf-8"?>
<!DOCTYPE svg PUBLIC "-//W3C//DTD SVG 1.1//EN" "http://www.w3.org/Graphics/SVG/1.1/DTD/svg11.dtd">
<svg xmlns="http://www.w3.org/2000/svg" xmlns:xlink="http://www.w3.org/1999/xlink" version="1.1" baseProfile="full" width="24" height="24" viewBox="0 0 24.00 24.00" enable-background="new 0 0 24.00 24.00" xml:space="preserve">
	<path fill="#000000" fill-opacity="1" stroke-width="1.33333" stroke-linejoin="miter" d="M 16,3L 4,3C 2.89543,3 2,3.8954 2,5L 2,10C 2,11.1046 2.89543,12 4,12L 7.15,12C 7.56708,11.9913 7.94574,12.2424 8.1,12.63C 8.4449,13.6793 9.57516,14.2504 10.6245,13.9055C 11.2281,13.7071 11.7016,13.2336 11.9,12.63C 12.0543,12.2424 12.4329,11.9913 12.85,12L 16,12C 17.1046,12 18,11.1046 18,10L 18,5C 18,3.8954 17.1046,3 16,3 Z M 16,10L 11.35,10C 11.0955,9.4619 10.5889,9.0866 10,9C 9.4111,9.0866 8.90449,9.4619 8.65,10L 4,10L 4,5L 16,5L 16,10 Z M 22,2L 22,15.5C 21.9988,19.0898 19.0876,21.999 15.4978,21.9978C 13.7874,21.9972 12.1462,21.3225 10.93,20.12C 8.94503,20.5791 6.88002,19.7879 5.71,18.12L 7.62,17.29C 8.48379,18.2165 9.83643,18.5006 11,18C 11.1987,17.9118 11.3866,17.8011 11.56,17.67C 12.4041,17.0533 12.8663,16.0418 12.78,15L 14.69,14.17C 15.1009,16.042 14.4056,17.9841 12.9,19.17C 13.6577,19.7134 14.5676,20.0038 15.5,20C 17.983,19.9945 19.9945,17.983 20,15.5L 20,2L 22,2 Z "/>
</svg>
