<?xml version="1.0" encoding="utf-8"?>
<!DOCTYPE svg PUBLIC "-//W3C//DTD SVG 1.1//EN" "http://www.w3.org/Graphics/SVG/1.1/DTD/svg11.dtd">
<svg xmlns="http://www.w3.org/2000/svg" xmlns:xlink="http://www.w3.org/1999/xlink" version="1.1" baseProfile="full" width="24" height="24" viewBox="0 0 24.00 24.00" enable-background="new 0 0 24.00 24.00" xml:space="preserve">
	<path fill="#000000" fill-opacity="1" stroke-width="1.33333" stroke-linejoin="miter" d="M 20.28,3.66C 19.28,3.44 18.54,2.25 17.57,2.04C 16.6,1.83 15.4,2.59 14.42,2.37C 13.3753,2.007 12.2228,2.1318 11.28,2.71L 11.21,17L 11,18C 10.6438,19.6182 11.6668,21.2188 13.285,21.575C 14.9032,21.9312 16.5038,20.9082 16.86,19.29L 17.07,18.29L 23,5.28C 22.389,4.3522 21.3868,3.7554 20.28,3.66 Z M 14.91,18.86C 14.7913,19.4123 14.2473,19.7637 13.695,19.645C 13.1427,19.5263 12.7913,18.9823 12.91,18.43L 13.77,14.52C 13.8585,13.9748 14.3721,13.6046 14.9173,13.6931C 15.4624,13.7816 15.8326,14.2952 15.7442,14.8404C 15.7382,14.8773 15.7301,14.9139 15.72,14.95L 14.91,18.86 Z M 9.72,21.34C 9.33238,20.7343 9.07998,20.0521 8.98,19.34L 8.24,16C 8.09569,15.4669 8.41087,14.9178 9,14.76C 9.073,14.7501 9.147,14.7501 9.22,14.76L 9.22,3.43C 8.31,3.43 7.22,2.86 6.38,3.06C 5.54,3.26 4.69,4.44 3.72,4.66C 2.61321,4.7554 1.61102,5.3522 1,6.28L 6.93,19.28L 7.14,20.28C 7.49391,21.8979 9.0919,22.9229 10.71,22.57L 10.81,22.57C 10.3796,22.2247 10.011,21.8088 9.72,21.34 Z "/>
</svg>
