<?xml version="1.0" encoding="utf-8"?>
<!DOCTYPE svg PUBLIC "-//W3C//DTD SVG 1.1//EN" "http://www.w3.org/Graphics/SVG/1.1/DTD/svg11.dtd">
<svg xmlns="http://www.w3.org/2000/svg" xmlns:xlink="http://www.w3.org/1999/xlink" version="1.1" baseProfile="full" width="24" height="24" viewBox="0 0 24.00 24.00" enable-background="new 0 0 24.00 24.00" xml:space="preserve">
	<path fill="#000000" fill-opacity="1" stroke-width="1.33333" stroke-linejoin="miter" d="M 16,12C 16,14.2091 14.2091,16 12,16C 9.79086,16 8,14.2091 8,12C 8,9.7909 9.79086,8 12,8C 14.2091,8 16,9.7909 16,12 Z M 19.45,7.89L 18.07,8.58L 18.32,9L 20,9L 20,15L 18.3264,15C 17.8379,16.0283 17.106,16.9186 16.2053,17.5966C 17.8537,18.1069 19.1039,18.9082 19.6687,19.8571C 18.6852,21.0964 15.624,22 12,22C 8.37598,22 5.31477,21.0964 4.33129,19.8571C 4.89612,18.9082 6.14626,18.1069 7.79474,17.5966C 6.89398,16.9187 6.16213,16.0283 5.67363,15L 4,15L 4,9L 5.68,9C 6.37145,7.5441 7.54412,6.3715 9,5.68L 9,4L 15,4L 15,5.68C 15.6769,6.014 16.2923,6.4603 16.82,7L 18.55,6.14C 19.93,5.42 20,4.1 20,2.00001L 22,2.00001C 22,4.06 22,6.62 19.45,7.89 Z M 17,12C 17,9.2386 14.7614,7 12,7C 9.23858,7 7,9.2386 7,12C 7,14.7614 9.23857,17 12,17C 14.7614,17 17,14.7614 17,12 Z "/>
</svg>
