<?xml version="1.0" encoding="utf-8"?>
<!DOCTYPE svg PUBLIC "-//W3C//DTD SVG 1.1//EN" "http://www.w3.org/Graphics/SVG/1.1/DTD/svg11.dtd">
<svg xmlns="http://www.w3.org/2000/svg" xmlns:xlink="http://www.w3.org/1999/xlink" version="1.1" baseProfile="full" width="24" height="24" viewBox="0 0 24.00 24.00" enable-background="new 0 0 24.00 24.00" xml:space="preserve">
	<path fill="#000000" fill-opacity="1" stroke-width="1.33333" stroke-linejoin="miter" d="M 21.3787,12.557L 12.85,12.557C 11.9742,12.557 11.0984,12.9631 10.6071,13.611L 10.6071,13.599C 10.1159,14.2778 9.32205,14.7228 8.41472,14.7228C 6.91962,14.7228 5.7093,13.5105 5.7093,12.0154C 5.7093,10.5184 6.91962,9.30612 8.41472,9.30612C 9.32238,9.30612 10.1159,9.75313 10.6071,10.4342L 10.6071,10.4222C 11.0984,11.0701 11.9742,11.4826 12.85,11.4826L 21.2906,11.4826C 21.4464,11.4784 22.0176,11.4046 21.998,10.666C 21.2607,6.42841 17.0983,3.17748 12.06,3.17748C 8.9599,3.17748 6.19011,4.41023 4.34229,6.34649C 4.04581,6.78536 4.35464,6.9206 4.63357,6.95961L 10.1403,6.95961C 11.0161,6.95961 11.8919,6.54317 12.3841,5.89298L 12.3841,5.90956C 12.8773,5.22849 13.6731,4.77921 14.5765,4.77921C 16.0716,4.77921 17.2839,5.99343 17.2839,7.48853C 17.2839,8.98396 16.0716,10.1979 14.5765,10.1979C 13.6731,10.1979 12.8773,9.75085 12.3841,9.07206L 12.3841,9.08409C 11.8919,8.43618 11.0161,8.03014 10.1403,8.03014L 4.1261,8.03014L 4.14853,8.03209C 4.14853,8.03209 3.25843,7.98072 2.71683,8.74794C 2.30266,9.41666 2,10.8506 2,12.0011C 2,13.1598 2.16612,14.2101 2.72496,15.2725C 3.19341,16.0274 4.14821,15.9803 4.14821,15.9803L 4.11342,15.9845L 10.1403,15.9845C 11.0161,15.9845 11.8919,15.5762 12.3841,14.9283L 12.3841,14.9426C 12.8773,14.2615 13.6731,13.8145 14.5765,13.8145C 16.0716,13.8145 17.2839,15.0284 17.2839,16.5215C 17.2839,18.0189 16.0716,19.2312 14.5765,19.2312C 13.6731,19.2312 12.8773,18.7839 12.3841,18.1028L 12.3841,18.1174C 11.8919,17.4692 11.0161,17.0547 10.1403,17.0547L 4.63877,17.0547C 4.36277,17.0879 4.05621,17.2189 4.32278,17.6373C 6.16963,19.5836 8.94982,20.8225 12.06,20.8225C 17.1074,20.8225 21.276,17.5654 22,13.3139C 21.9961,12.7228 21.591,12.5837 21.3787,12.557"/>
</svg>
