<?xml version="1.0" encoding="utf-8"?>
<!DOCTYPE svg PUBLIC "-//W3C//DTD SVG 1.1//EN" "http://www.w3.org/Graphics/SVG/1.1/DTD/svg11.dtd">
<svg xmlns="http://www.w3.org/2000/svg" xmlns:xlink="http://www.w3.org/1999/xlink" version="1.1" baseProfile="full" width="24" height="24" viewBox="0 0 24.00 24.00" enable-background="new 0 0 24.00 24.00" xml:space="preserve">
	<path fill="#000000" fill-opacity="1" stroke-width="1.33333" stroke-linejoin="miter" d="M 4,2L 6,2L 6,4C 6,5.4424 6.68252,6.6062 7.88477,7.7773C 8.7437,8.6141 9.88799,9.4098 11.0918,10.2031L 9.25586,11.3926C 8.26578,10.7158 7.31121,10.0087 6.49023,9.209C 5.06748,7.823 4,6.1009 4,4L 4,2 Z M 18,2L 20,2L 20,4C 20,6.1009 18.9325,7.823 17.5098,9.209C 16.087,10.5949 14.2871,11.7296 12.5371,12.8437C 10.7871,13.9579 9.08701,15.0515 7.88477,16.2227C 6.68252,17.3938 6,18.5576 6,20L 6,22L 4,22L 4,20C 4,17.8991 5.06748,16.1769 6.49023,14.791C 7.91299,13.4051 9.71289,12.2704 11.4629,11.1562C 13.2129,10.0421 14.913,8.9485 16.1152,7.7773C 17.3175,6.6062 18,5.4424 18,4L 18,2 Z M 14.7441,12.6074C 15.7342,13.2842 16.6888,13.9913 17.5098,14.791C 18.9325,16.1769 20,17.8991 20,20L 20,22L 18,22L 18,20C 18,18.5576 17.3175,17.3938 16.1152,16.2227C 15.2563,15.3859 14.112,14.5902 12.9082,13.7969L 14.7441,12.6074 Z M 7,3L 17,3L 17,4L 16.9434,4.5L 7.05664,4.5L 7,4L 7,3 Z M 7.67773,6L 16.3223,6C 16.0834,6.3421 15.801,6.6875 15.418,7.0605L 14.9102,7.5L 9.07422,7.5L 8.58203,7.0605C 8.19905,6.6875 7.91658,6.3421 7.67773,6 Z M 9.08984,16.5L 14.9258,16.5L 15.418,16.9394C 15.801,17.3125 16.0834,17.6579 16.3223,18L 7.67773,18C 7.91658,17.6579 8.19905,17.3125 8.58203,16.9394L 9.08984,16.5 Z M 7.05664,19.5L 16.9434,19.5L 17,20L 17,21L 7,21L 7,20L 7.05664,19.5 Z "/>
</svg>
