<?xml version="1.0" encoding="utf-8"?>
<!DOCTYPE svg PUBLIC "-//W3C//DTD SVG 1.1//EN" "http://www.w3.org/Graphics/SVG/1.1/DTD/svg11.dtd">
<svg xmlns="http://www.w3.org/2000/svg" xmlns:xlink="http://www.w3.org/1999/xlink" version="1.1" baseProfile="full" width="24" height="24" viewBox="0 0 24.00 24.00" enable-background="new 0 0 24.00 24.00" xml:space="preserve">
	<path fill="#000000" fill-opacity="1" stroke-linejoin="round" d="M 7,9C 5.9,9 5,8.1 5,7C 5,5.9 5.9,5 7,5C 8.1,5 9,5.9 9,7C 9,8.1 8.1,9 7,9 Z M 20,3L 4,3C 3.45,3 3,3.45 3,4L 3,10C 3,10.55 3.45,11 4,11L 20,11C 20.55,11 21,10.55 21,10L 21,4C 21,3.45 20.55,3 20,3 Z M 7,19C 5.9,19 5,18.1 5,17C 5,15.9 5.9,15 7,15C 8.1,15 9,15.9 9,17C 9,18.1 8.1,19 7,19 Z M 20,13L 4,13C 3.45,13 3,13.45 3,14L 3,20C 3,20.55 3.45,21 4,21L 20,21C 20.55,21 21,20.55 21,20L 21,14C 21,13.45 20.55,13 20,13 Z "/>
</svg>
