<?xml version="1.0" encoding="utf-8"?>
<!DOCTYPE svg PUBLIC "-//W3C//DTD SVG 1.1//EN" "http://www.w3.org/Graphics/SVG/1.1/DTD/svg11.dtd">
<svg xmlns="http://www.w3.org/2000/svg" xmlns:xlink="http://www.w3.org/1999/xlink" version="1.1" baseProfile="full" width="24" height="24" viewBox="0 0 24.00 24.00" enable-background="new 0 0 24.00 24.00" xml:space="preserve">
	<path fill="#000000" fill-opacity="1" stroke-width="1.33333" stroke-linejoin="miter" d="M 2.1998,9.7585L 4.4441,9.7585L 4.4441,11.9407L 2.1998,11.9407L 2.1998,9.75924L 2.1998,9.7585 Z M 4.95426,9.7585L 7.19855,9.7585L 7.19855,11.9407L 4.95426,11.9407L 4.95426,9.75924L 4.95426,9.7585 Z M 4.95426,6.96131L 7.19855,6.96131L 7.19855,9.14243L 4.95426,9.14243L 4.95426,6.96131 Z M 7.70761,9.7585L 9.95301,9.7585L 9.95301,11.9407L 7.70761,11.9407L 7.70761,9.75924L 7.70761,9.7585 Z M 7.70761,6.96131L 9.95301,6.96131L 9.95301,9.14243L 7.70761,9.14243L 7.70761,6.96131 Z M 10.4621,9.7585L 12.7071,9.7585L 12.7071,11.9407L 10.4621,11.9407L 10.4621,9.75924L 10.4621,9.7585 Z M 10.4621,6.96131L 12.7071,6.96131L 12.7071,9.14243L 10.4621,9.14243L 10.4621,6.96131 Z M 13.2162,9.7585L 15.4612,9.7585L 15.4612,11.9407L 13.2162,11.9407L 13.2162,9.75924L 13.2162,9.7585 Z M 10.4621,4.16263L 12.7071,4.16263L 12.7071,6.3445L 10.4621,6.3445L 10.4621,4.16263 Z M 5.33475,15.0913C 5.67957,15.0913 5.96011,15.364 5.96011,15.6996C 5.96011,16.0347 5.67957,16.3067 5.33475,16.3067C 4.98956,16.3067 4.70903,16.0343 4.70903,15.6992C 4.70903,15.3637 4.98919,15.0913 5.33475,15.0913 Z M 22.6912,10.8873L 22.6908,10.8873L 23,11.0605L 22.8376,11.3689C 22.2004,12.5776 20.8683,12.9522 19.5659,12.886C 17.617,17.6042 13.3741,19.8374 8.22929,19.8374C 5.57181,19.8374 3.13319,18.872 1.74463,16.5794L 1.72159,16.5423L 1.51946,16.1417C 1.04979,15.1336 0.894102,14.0282 1,12.9239L 1.03158,12.5932L 15.7993,12.5932C 16.3251,12.5932 16.8657,12.5022 17.3636,12.3387L 18.1235,12.0043C 17.8058,11.6015 17.6442,11.0917 17.5959,10.5901C 17.5316,9.90787 17.6728,9.01907 18.1484,8.48475L 18.3855,8.21871L 18.6671,8.43905C 19.3768,8.9938 19.9739,9.76779 20.0791,10.651C 20.9337,10.4065 21.9369,10.4645 22.6912,10.8873 Z M 5.33512,16.8533L 5.33512,16.8529C 5.9902,16.8529 6.52267,16.3349 6.52267,15.6988C 6.52267,15.0623 5.98983,14.5447 5.33475,14.5447C 4.67967,14.5447 4.14684,15.0627 4.14684,15.6992C 4.14684,16.3353 4.67967,16.8533 5.33512,16.8533 Z "/>
</svg>
