<?xml version="1.0" encoding="utf-8"?>
<!DOCTYPE svg PUBLIC "-//W3C//DTD SVG 1.1//EN" "http://www.w3.org/Graphics/SVG/1.1/DTD/svg11.dtd">
<svg xmlns="http://www.w3.org/2000/svg" xmlns:xlink="http://www.w3.org/1999/xlink" version="1.1" baseProfile="full" width="24" height="24" viewBox="0 0 24.00 24.00" enable-background="new 0 0 24.00 24.00" xml:space="preserve">
	<path fill="#000000" fill-opacity="1" stroke-width="1.33333" stroke-linejoin="miter" d="M 14.844,16.26C 17.859,16.833 20,18.291 20,20L 20,22L 4.00001,22L 4.00001,20C 4.00001,18.291 6.14102,16.833 9.15602,16.26L 12,21L 14.844,16.26 Z M 8.00001,8L 16,8L 16,10C 16,12.208 14.208,14 12,14C 9.79201,14 8.00001,12.208 8.00001,10L 8.00001,8 Z M 8.00001,7L 8.41001,2.9C 8.46101,2.389 8.89102,2 9.40501,2L 14.595,2C 15.109,2 15.539,2.389 15.59,2.9L 16,7L 8.00001,7 Z M 12,3L 11,3L 11,4L 10,4L 10,5L 11,5L 11,6L 12,6L 12,5L 13,5L 13,4L 12,4L 12,3 Z "/>
</svg>
