<?xml version="1.0" encoding="utf-8"?>
<!DOCTYPE svg PUBLIC "-//W3C//DTD SVG 1.1//EN" "http://www.w3.org/Graphics/SVG/1.1/DTD/svg11.dtd">
<svg xmlns="http://www.w3.org/2000/svg" xmlns:xlink="http://www.w3.org/1999/xlink" version="1.1" baseProfile="full" width="24" height="24" viewBox="0 0 24.00 24.00" enable-background="new 0 0 24.00 24.00" xml:space="preserve">
	<path fill="#000000" fill-opacity="1" stroke-width="1.33333" stroke-linejoin="miter" d="M 14,8L 17,11L 17,21L 15,21L 15,15L 8,15L 6,18L 6,21L 4,21L 4,15L 5,14L 5,11L 2,8L 3,7L 5,9L 7,9L 7,12C 7,12.5523 7.44772,13 8,13L 12,13C 12.5523,13 13,12.5523 13,12L 13,9L 14,8 Z M 19,5L 19,3L 15,7L 18,10L 19,9L 20,10L 22,8L 19,5 Z M 11.5,9.5L 4.5,2.5C 4.22944,2.2239 3.78624,2.2193 3.5,2.5L 3.5,2.5C 3.22386,2.7706 3.21933,3.2138 3.5,3.5L 10.5,10.5C 10.7706,10.7761 11.2138,10.7807 11.5,10.5L 11.5,10.5C 11.7761,10.2294 11.7807,9.7862 11.5,9.5 Z "/>
</svg>
