<?xml version="1.0" encoding="utf-8"?>
<!DOCTYPE svg PUBLIC "-//W3C//DTD SVG 1.1//EN" "http://www.w3.org/Graphics/SVG/1.1/DTD/svg11.dtd">
<svg xmlns="http://www.w3.org/2000/svg" xmlns:xlink="http://www.w3.org/1999/xlink" version="1.1" baseProfile="full" width="24" height="24" viewBox="0 0 24.00 24.00" enable-background="new 0 0 24.00 24.00" xml:space="preserve">
	<path fill="#000000" fill-opacity="1" stroke-width="1.33333" stroke-linejoin="miter" d="M 18,4.007C 16.291,4.007 15.248,4.33 14.652,4.609C 13.881,4.232 13.005,4.007 12,4.007C 10.995,4.007 10.119,4.232 9.348,4.609C 8.752,4.33 7.709,4.007 6,4.007C 3,4.007 1,12.007 1,14.007C 1,14.834 2.322,15.589 4.135,15.902C 4.782,18.135 7.798,19.849 11.5,19.993L 11.5,15.72C 10.908,15.353 10,14.684 10,14.007C 10,13.007 12,13.007 12,13.007C 12,13.007 14,13.007 14,14.007C 14,14.684 13.092,15.353 12.5,15.72L 12.5,19.993C 16.202,19.85 19.218,18.136 19.865,15.902C 21.678,15.589 23,14.834 23,14.007C 23,12.007 21,4.007 18,4.007 Z M 4.15,13.866C 3.646,13.754 3.256,13.614 3.023,13.496C 3.254,10.73 5.198,6.396 6.051,6.008C 6.59,6.01 7.013,6.055 7.373,6.113C 5.267,8.422 4.444,12.038 4.15,13.866 Z M 9,12.007C 8.448,12.007 8,11.559 8,11.007C 8,10.455 8.448,10.007 9,10.007C 9.552,10.007 10,10.455 10,11.007C 10,11.559 9.552,12.007 9,12.007 Z M 15,12.007C 14.448,12.007 14,11.559 14,11.007C 14,10.455 14.448,10.007 15,10.007C 15.552,10.007 16,10.455 16,11.007C 16,11.559 15.552,12.007 15,12.007 Z M 19.85,13.866C 19.555,12.038 18.732,8.422 16.627,6.113C 16.987,6.055 17.409,6.01 17.949,6.008C 18.802,6.396 20.746,10.73 20.977,13.496C 20.745,13.614 20.355,13.753 19.85,13.866 Z "/>
</svg>
