<?xml version="1.0" encoding="utf-8"?>
<!DOCTYPE svg PUBLIC "-//W3C//DTD SVG 1.1//EN" "http://www.w3.org/Graphics/SVG/1.1/DTD/svg11.dtd">
<svg xmlns="http://www.w3.org/2000/svg" xmlns:xlink="http://www.w3.org/1999/xlink" version="1.1" baseProfile="full" width="24" height="24" viewBox="0 0 24.00 24.00" enable-background="new 0 0 24.00 24.00" xml:space="preserve">
	<path fill="#000000" fill-opacity="1" stroke-linejoin="round" d="M 11.9693,19.88C 10.9267,20.26 9.78133,19.724 9.40133,18.688C 9.02133,17.6453 9.54667,16.5053 10.588,16.1253C 11.6307,15.7453 12.776,16.276 13.156,17.312C 13.536,18.3493 13.0053,19.5 11.9693,19.88 Z M 9.90133,14.2453C 7.828,15.0053 6.76,17.3027 7.52133,19.38C 8.28133,21.4533 10.584,22.516 12.656,21.7547C 14.7293,20.9947 15.792,18.6973 15.036,16.6253C 14.276,14.552 11.9733,13.484 9.90133,14.2453 Z M 15.9427,4.57866L 9.36933,6.984L 10.7453,10.74L 17.3173,8.33333M 20.3227,13.62L 15.536,15.3747C 15.708,15.656 15.8547,15.9587 15.9733,16.2813C 16.0933,16.5987 16.172,16.9267 16.224,17.2547L 21.0107,15.5M 19.5413,8.584L 11.0933,11.6827L 11.584,13.016C 12.8333,13.0933 14.0213,13.64 14.8853,14.5467L 20.9173,12.3387M 2,2L 2,4.00533L 5.088,4.00533L 8.656,13.7453C 8.93733,13.5733 9.24,13.4267 9.55733,13.3067C 9.88,13.188 10.208,13.1093 10.5307,13.0573L 6.484,2"/>
</svg>
