<?xml version="1.0" encoding="utf-8"?>
<!DOCTYPE svg PUBLIC "-//W3C//DTD SVG 1.1//EN" "http://www.w3.org/Graphics/SVG/1.1/DTD/svg11.dtd">
<svg xmlns="http://www.w3.org/2000/svg" xmlns:xlink="http://www.w3.org/1999/xlink" version="1.1" baseProfile="full" width="24" height="24" viewBox="0 0 24.00 24.00" enable-background="new 0 0 24.00 24.00" xml:space="preserve">
	<path fill="#000000" fill-opacity="1" stroke-linejoin="round" d="M 18,15L 16,15L 16,17L 18,17M 18,11L 16,11L 16,13L 18,13M 20,19L 12,19L 12,17L 14,17L 14,15L 12,15L 12,13L 14,13L 14,11L 12,11L 12,9L 20,9M 10,7L 8,7L 8,5L 10,5M 10,11L 8,11L 8,9L 10,9M 10,15L 8,15L 8,13L 10,13M 10,19L 8,19L 8,17L 10,17M 6,7L 4,7L 4,5L 6,5M 6,11L 4,11L 4,9L 6,9M 6,15L 4,15L 4,13L 6,13M 6,19L 4,19L 4,17L 6,17M 12,7L 12,3L 2,3L 2,21L 22,21L 22,7L 12,7 Z "/>
</svg>
