<?xml version="1.0" encoding="utf-8"?>
<!DOCTYPE svg PUBLIC "-//W3C//DTD SVG 1.1//EN" "http://www.w3.org/Graphics/SVG/1.1/DTD/svg11.dtd">
<svg xmlns="http://www.w3.org/2000/svg" xmlns:xlink="http://www.w3.org/1999/xlink" version="1.1" baseProfile="full" width="24" height="24" viewBox="0 0 24.00 24.00" enable-background="new 0 0 24.00 24.00" xml:space="preserve">
	<path fill="#000000" fill-opacity="1" stroke-width="1.33333" stroke-linejoin="miter" d="M 12,18.9844L 15.9844,18.9844L 14.0156,17.0156L 12,17.0156L 12,18.9844 Z M 9.98438,15L 9.98438,12.9844L 8.01563,12.9844L 8.01563,15L 9.98438,15 Z M 9.98438,18.9844L 9.98438,17.0156L 8.01563,17.0156L 8.01563,18.9844L 9.98438,18.9844 Z M 6,11.0156L 6,9L 3.98438,9L 3.98438,11.0156L 6,11.0156 Z M 6,15L 6,12.9844L 3.98438,12.9844L 3.98438,15L 6,15 Z M 6,18.9844L 6,17.0156L 3.98438,17.0156L 3.98438,18.9844L 6,18.9844 Z M 1.3125,1.7812L 22.3125,22.6875L 21,24L 18,21L 2.01563,21L 2.01563,5.0156L 0.0937513,3.0937L 1.3125,1.7812 Z M 15.9844,11.0156L 18,11.0156L 18,12.9844L 15.9844,12.9844L 15.9844,11.0156 Z M 8.01563,5.0156L 8.01563,5.9062L 5.10938,3L 12,3L 12,6.9844L 21.9844,6.9844L 21.9844,19.9219L 20.0156,17.9062L 20.0156,9L 12,9L 12,9.8906L 9.09375,6.9844L 9.98438,6.9844L 9.98438,5.0156L 8.01563,5.0156 Z "/>
</svg>
