<?xml version="1.0" encoding="utf-8"?>
<!DOCTYPE svg PUBLIC "-//W3C//DTD SVG 1.1//EN" "http://www.w3.org/Graphics/SVG/1.1/DTD/svg11.dtd">
<svg xmlns="http://www.w3.org/2000/svg" xmlns:xlink="http://www.w3.org/1999/xlink" version="1.1" baseProfile="full" width="24" height="24" viewBox="0 0 24.00 24.00" enable-background="new 0 0 24.00 24.00" xml:space="preserve">
	<path fill="#000000" fill-opacity="1" stroke-width="1.33333" stroke-linejoin="miter" d="M 7.96809,1.99203C 6.86251,1.99203 5.97606,2.87848 5.97606,3.98405L 5.97606,19.9203C 5.97606,21.0258 6.86251,21.9123 7.96809,21.9123L 15.9362,21.9123C 17.0418,21.9123 17.9282,21.0258 17.9282,19.9203L 17.9282,3.98405C 17.9282,2.87848 17.0418,1.99203 15.9362,1.99203L 7.96809,1.99203 Z M 11.9521,5.47807C 12.7772,5.47807 13.4462,6.147 13.4462,6.97209C 13.4462,7.79719 12.7772,8.46611 11.9521,8.46611C 11.127,8.46611 10.4581,7.79719 10.4581,6.97209C 10.4581,6.147 11.127,5.47807 11.9521,5.47807 Z M 7.96809,9.96013L 15.9362,9.96013L 15.9362,19.9203L 7.96809,19.9203L 7.96809,9.96013 Z M 12.0027,12.9812C 10.9025,12.9812 10.0107,13.8731 10.0107,14.9733C 10.0107,16.0734 10.9025,16.9653 12.0027,16.9653C 13.1029,16.9653 13.9948,16.0734 13.9948,14.9733C 13.9948,13.8731 13.1029,12.9812 12.0027,12.9812 Z "/>
</svg>
