<?xml version="1.0" encoding="utf-8"?>
<!DOCTYPE svg PUBLIC "-//W3C//DTD SVG 1.1//EN" "http://www.w3.org/Graphics/SVG/1.1/DTD/svg11.dtd">
<svg xmlns="http://www.w3.org/2000/svg" xmlns:xlink="http://www.w3.org/1999/xlink" version="1.1" baseProfile="full" width="24" height="24" viewBox="0 0 24.00 24.00" enable-background="new 0 0 24.00 24.00" xml:space="preserve">
	<path fill="#000000" fill-opacity="1" stroke-width="0.2" stroke-linejoin="round" d="M 12,16C 13.1046,16 14,16.8954 14,18C 14,19.1046 13.1046,20 12,20C 10.8954,20 10,19.1046 10,18C 10,16.8954 10.8954,16 12,16 Z M 12,10C 13.1046,10 14,10.8954 14,12C 14,13.1046 13.1046,14 12,14C 10.8954,14 10,13.1046 10,12C 10,10.8954 10.8954,10 12,10 Z M 12,4C 13.1046,4 14,4.89544 14,6C 14,7.10457 13.1046,8 12,8C 10.8954,8 10,7.10457 10,6C 10,4.89543 10.8954,4 12,4 Z "/>
</svg>
