<?xml version="1.0" encoding="utf-8"?>
<!DOCTYPE svg PUBLIC "-//W3C//DTD SVG 1.1//EN" "http://www.w3.org/Graphics/SVG/1.1/DTD/svg11.dtd">
<svg xmlns="http://www.w3.org/2000/svg" xmlns:xlink="http://www.w3.org/1999/xlink" version="1.1" baseProfile="full" width="24" height="24" viewBox="0 0 24.00 24.00" enable-background="new 0 0 24.00 24.00" xml:space="preserve">
	<path fill="#000000" fill-opacity="1" stroke-width="0.2" stroke-linejoin="round" d="M 10.5,12C 10.5,11.1716 11.1716,10.5 12,10.5C 12.8284,10.5 13.5,11.1716 13.5,12C 13.5,12.8284 12.8284,13.5 12,13.5C 11.1716,13.5 10.5,12.8284 10.5,12 Z M 10.5,16.5C 10.5,15.6716 11.1716,15 12,15C 12.8284,15 13.5,15.6716 13.5,16.5C 13.5,17.3284 12.8284,18 12,18C 11.1716,18 10.5,17.3284 10.5,16.5 Z M 10.5,7.50001C 10.5,6.67158 11.1716,6.00001 12,6.00001C 12.8284,6.00001 13.5,6.67158 13.5,7.50001C 13.5,8.32843 12.8284,9 12,9C 11.1716,9 10.5,8.32843 10.5,7.50001 Z M 12,2C 17.5228,2 22,6.47716 22,12C 22,17.5229 17.5228,22 12,22C 6.47715,22 2,17.5229 2,12C 2,6.47716 6.47715,2 12,2 Z M 12,4.00001C 7.58172,4.00001 4,7.58173 4,12C 4,16.4183 7.58172,20 12,20C 16.4183,20 20,16.4183 20,12C 20,7.58173 16.4183,4.00001 12,4.00001 Z "/>
</svg>
