<?xml version="1.0" encoding="utf-8"?>
<!DOCTYPE svg PUBLIC "-//W3C//DTD SVG 1.1//EN" "http://www.w3.org/Graphics/SVG/1.1/DTD/svg11.dtd">
<svg xmlns="http://www.w3.org/2000/svg" xmlns:xlink="http://www.w3.org/1999/xlink" version="1.1" baseProfile="full" width="24" height="24" viewBox="0 0 24.00 24.00" enable-background="new 0 0 24.00 24.00" xml:space="preserve">
	<path fill="#000000" fill-opacity="1" stroke-width="0.2" stroke-linejoin="round" d="M 2,12C 2,6.47716 6.47715,2 12,2C 17.5228,2 22,6.47715 22,12C 22,17.5228 17.5228,22 12,22C 6.47715,22 2,17.5228 2,12 Z M 10.5,12C 10.5,12.8284 11.1716,13.5 12,13.5C 12.8284,13.5 13.5,12.8284 13.5,12C 13.5,11.1716 12.8284,10.5 12,10.5C 11.1716,10.5 10.5,11.1716 10.5,12 Z M 10.5,17.5C 10.5,18.3284 11.1716,19 12,19C 12.8284,19 13.5,18.3284 13.5,17.5C 13.5,16.6716 12.8284,16 12,16C 11.1716,16 10.5,16.6716 10.5,17.5 Z M 10.5,6.5C 10.5,7.32843 11.1716,8 12,8C 12.8284,8 13.5,7.32843 13.5,6.5C 13.5,5.67158 12.8284,5 12,5C 11.1716,5 10.5,5.67158 10.5,6.5 Z "/>
</svg>
