<?xml version="1.0" encoding="utf-8"?>
<!DOCTYPE svg PUBLIC "-//W3C//DTD SVG 1.1//EN" "http://www.w3.org/Graphics/SVG/1.1/DTD/svg11.dtd">
<svg xmlns="http://www.w3.org/2000/svg" xmlns:xlink="http://www.w3.org/1999/xlink" version="1.1" baseProfile="full" width="24" height="24" viewBox="0 0 24.00 24.00" enable-background="new 0 0 24.00 24.00" xml:space="preserve">
	<path fill="#000000" fill-opacity="1" stroke-width="1.33333" stroke-linejoin="miter" d="M 22.6667,12.0107L 18.1827,16.4933L 15.672,13.984L 17.6453,12.0107L 15.672,10.0373L 18.1827,7.52667L 22.6667,12.0107 Z M 11.9893,1.33334L 16.4733,5.81734L 13.9627,8.328L 11.9893,6.35467L 10.016,8.328L 7.50667,5.81734L 11.9893,1.33334 Z M 12.0107,22.6667L 7.52667,18.1827L 10.0373,15.672L 12.0107,17.6453L 13.984,15.672L 16.4933,18.1827L 12.0107,22.6667 Z M 1.33333,11.9893L 5.81733,7.50667L 8.328,10.016L 6.35467,11.9893L 8.328,13.9627L 5.81733,16.4733L 1.33333,11.9893 Z M 12,10C 13.1046,10 14,10.8954 14,12C 14,13.1046 13.1046,14 12,14C 10.8954,14 10,13.1046 10,12C 10,10.8954 10.8954,10 12,10 Z "/>
</svg>
