<?xml version="1.0" encoding="utf-8"?>
<!DOCTYPE svg PUBLIC "-//W3C//DTD SVG 1.1//EN" "http://www.w3.org/Graphics/SVG/1.1/DTD/svg11.dtd">
<svg xmlns="http://www.w3.org/2000/svg" xmlns:xlink="http://www.w3.org/1999/xlink" version="1.1" baseProfile="full" width="24" height="24" viewBox="0 0 24.00 24.00" enable-background="new 0 0 24.00 24.00" xml:space="preserve">
	<path fill="#000000" fill-opacity="1" stroke-width="0.2" stroke-linejoin="round" d="M 7,19L 7,17L 9,17L 9,19L 7,19 Z M 11,19L 11,17L 13,17L 13,19L 11,19 Z M 15,19L 15,17L 17,17L 17,19L 15,19 Z M 7,15L 7,13L 9,13L 9,15L 7,15 Z M 11,15L 11,13L 13,13L 13,15L 11,15 Z M 15,15L 15,13L 17,13L 17,15L 15,15 Z M 7,11L 7,9.00001L 9,9.00001L 9,11L 7,11 Z M 11,11L 11,9.00001L 13,9.00001L 13,11L 11,11 Z M 15,11L 15,9.00001L 17,9.00001L 17,11L 15,11 Z M 7,7.00001L 7,5.00001L 9,5.00001L 9,7.00001L 7,7.00001 Z M 11,7.00001L 11,5.00001L 13,5.00001L 13,7.00001L 11,7.00001 Z M 15,7.00001L 15,5.00001L 17,5.00001L 17,7.00001L 15,7.00001 Z "/>
</svg>
