<?xml version="1.0" encoding="utf-8"?>
<!DOCTYPE svg PUBLIC "-//W3C//DTD SVG 1.1//EN" "http://www.w3.org/Graphics/SVG/1.1/DTD/svg11.dtd">
<svg xmlns="http://www.w3.org/2000/svg" xmlns:xlink="http://www.w3.org/1999/xlink" version="1.1" baseProfile="full" width="24" height="24" viewBox="0 0 24.00 24.00" enable-background="new 0 0 24.00 24.00" xml:space="preserve">
	<path fill="#000000" fill-opacity="1" fill-rule="evenodd" stroke-width="0.2" stroke-linejoin="miter" d="M 8.11192,19.455C 5.94402,18.6478 4.22135,16.7836 3.70538,14.3536L 2.04513,6.53914C 1.81211,5.46144 2.50285,4.40037 3.58055,4.17152L 13.3507,2.09516L 13.3756,2.091C 14.445,1.87879 15.4894,2.56536 15.7183,3.63474L 16.072,5.30332L 20.4203,6.22707L 20.4452,6.23123C 21.5063,6.47257 22.1845,7.52531 21.9557,8.5947L 20.2954,16.4091C 19.4923,20.1832 15.7807,22.5966 12.0066,21.7935C 10.4213,21.4565 9.07728,20.6076 8.11192,19.455L 8.11192,19.455 Z M 20.0042,8.17859L 10.234,6.10224L 8.57379,13.9167L 8.56547,13.9499C 8.01622,16.6338 9.73472,19.2677 12.4186,19.8378C 15.1149,20.412 17.7697,18.6894 18.3439,15.993L 20.0042,8.17859 Z M 16.0137,16.5215C 15.3688,17.57 14.1121,18.1568 12.8347,17.8863C 11.5614,17.6158 10.646,16.5672 10.4879,15.3439L 16.0137,16.5215 Z M 8.46561,5.17433L 3.99666,6.1272L 5.65691,13.9416L 5.66523,13.9708C 5.81919,14.6823 6.11878,15.3231 6.52657,15.8723C 6.4267,15.1026 6.45167,14.3036 6.62227,13.5006L 7.0467,11.4908C 6.5973,11.42 6.20617,11.1704 5.98563,10.8084C 6.06469,10.1967 6.56402,9.66408 7.25475,9.51845C 7.32965,9.5018 7.40038,9.48932 7.47528,9.48516L 8.28252,5.68613C 8.31997,5.50305 8.38239,5.33245 8.46561,5.17433 Z M 15.0317,12.2273C 15.3521,11.703 16.0262,11.4159 16.7169,11.5657C 17.4077,11.7113 17.907,12.2439 17.9902,12.8556C 17.6657,13.3799 16.9916,13.6628 16.3008,13.5172C 15.6101,13.3716 15.1108,12.839 15.0317,12.2273 Z M 10.1467,11.187C 10.4671,10.6627 11.1412,10.3798 11.8319,10.5254C 12.5226,10.6711 13.0261,11.2078 13.1052,11.8153C 12.7848,12.3438 12.1065,12.6267 11.4199,12.4811C 10.7292,12.3313 10.2257,11.7987 10.1467,11.187 Z M 11.9734,4.4295L 13.9332,4.8456L 13.7668,4.05085L 11.9734,4.4295 Z "/>
</svg>
