<?xml version="1.0" encoding="utf-8"?>
<!DOCTYPE svg PUBLIC "-//W3C//DTD SVG 1.1//EN" "http://www.w3.org/Graphics/SVG/1.1/DTD/svg11.dtd">
<svg xmlns="http://www.w3.org/2000/svg" xmlns:xlink="http://www.w3.org/1999/xlink" version="1.1" baseProfile="full" width="24" height="24" viewBox="0 0 24.00 24.00" enable-background="new 0 0 24.00 24.00" xml:space="preserve">
	<path fill="#000000" fill-opacity="1" stroke-width="0.2" stroke-linejoin="round" d="M 17.9994,17.9981L 11.9994,17.9981L 11.9994,12.2101C 11.3404,12.8181 10.4664,13.1981 9.49939,13.1981C 7.45538,13.1981 5.79939,11.5411 5.79939,9.49807C 5.79939,7.45507 7.45538,5.79806 9.49939,5.79806C 11.5424,5.79806 13.1994,7.45507 13.1994,9.49807C 13.1994,10.4651 12.8194,11.3391 12.2114,11.9981L 17.9994,11.9981M 18.9994,2.99807L 4.99939,2.99807C 3.89439,2.99807 2.99939,3.89406 2.99939,4.99807L 2.99939,18.9981C 2.99939,20.1021 3.89439,20.9981 4.99939,20.9981L 18.9994,20.9981C 20.1034,20.9981 20.9994,20.1021 20.9994,18.9981L 20.9994,4.99807C 20.9994,3.89406 20.1034,2.99807 18.9994,2.99807 Z "/>
</svg>
