<?xml version="1.0" encoding="utf-8"?>
<!DOCTYPE svg PUBLIC "-//W3C//DTD SVG 1.1//EN" "http://www.w3.org/Graphics/SVG/1.1/DTD/svg11.dtd">
<svg xmlns="http://www.w3.org/2000/svg" xmlns:xlink="http://www.w3.org/1999/xlink" version="1.1" baseProfile="full" width="24" height="24" viewBox="0 0 24.00 24.00" enable-background="new 0 0 24.00 24.00" xml:space="preserve">
	<path fill="#000000" fill-opacity="1" stroke-width="0.2" stroke-linejoin="round" d="M 16.4156,18.4171C 16.02,16.48 15.5222,14.7333 14.9756,13.1744C 15.4822,13.102 16.0134,13.0607 16.5756,13.0607L 16.5956,13.0607L 16.5978,13.0607L 16.5978,13.0607C 17.5289,13.0607 18.5511,13.1765 19.66,13.4285C 19.2756,15.4913 18.0822,17.268 16.4156,18.4171 Z M 12,19.8025C 10.2644,19.8025 8.66222,19.2282 7.36445,18.2647C 7.64001,17.81 8.23335,16.938 9.17557,16.0362C 10.1445,15.1073 11.4822,14.1513 13.2289,13.5822C 13.8222,15.2467 14.36,17.1496 14.7689,19.2913C 13.9067,19.6198 12.9756,19.8025 12,19.8025 Z M 4.19779,12.0005C 4.19779,11.9638 4.20001,11.9262 4.20224,11.8878C 4.42446,11.896 4.70888,11.9033 5.05334,11.9033L 5.05556,11.9033C 6.62446,11.8929 9.36223,11.7618 12.1378,10.886C 12.2889,11.2165 12.4378,11.5609 12.5867,11.9187C 10.7333,12.5385 9.27333,13.5258 8.19334,14.5091C 7.15555,15.4558 6.45335,16.3931 6.04221,17.0193C 4.89557,15.6598 4.19779,13.9134 4.19779,12.0005 Z M 8.55334,5.01155C 9.09557,5.65133 10.18,7.05799 11.3378,9.2549C 8.98224,9.95599 6.61112,10.1204 5.17557,10.12C 5.13556,10.12 5.09557,10.12 5.05556,10.1196L 5.05334,10.1196C 4.81112,10.1196 4.60444,10.116 4.4311,10.1105C 4.99111,7.87068 6.52445,6.01556 8.55334,5.01155 Z M 12,4.19845C 13.84,4.19845 15.5289,4.84179 16.8645,5.91289C 15.8422,7.13712 14.4911,8.02424 13.0333,8.65022C 12.0089,6.66867 11.0178,5.25113 10.3422,4.38446C 10.8778,4.26578 11.4311,4.19845 12,4.19845 Z M 18.1267,7.18467C 19.1022,8.42355 19.7133,9.95778 19.7911,11.6331C 18.6622,11.3938 17.5956,11.2771 16.6,11.2771L 16.6,11.2767L 16.5933,11.2767C 15.7933,11.2767 15.0422,11.3493 14.3333,11.4749C 14.16,11.0531 13.9867,10.6482 13.8111,10.2602C 15.3889,9.56824 16.9022,8.58357 18.1267,7.18467 Z M 12,1.99999C 6.47556,2.00046 2.00001,6.47734 2.00001,12.0005C 2.00001,17.5227 6.47556,22 12,22C 17.5222,22 22,17.5227 22,12.0005C 22,6.47734 17.5222,2.00046 12,1.99999 Z "/>
</svg>
