<?xml version="1.0" encoding="utf-8"?>
<!DOCTYPE svg PUBLIC "-//W3C//DTD SVG 1.1//EN" "http://www.w3.org/Graphics/SVG/1.1/DTD/svg11.dtd">
<svg xmlns="http://www.w3.org/2000/svg" xmlns:xlink="http://www.w3.org/1999/xlink" version="1.1" baseProfile="full" width="24" height="24" viewBox="0 0 24.00 24.00" enable-background="new 0 0 24.00 24.00" xml:space="preserve">
	<path fill="#000000" fill-opacity="1" stroke-linejoin="round" d="M 22,11L 21,11L 20,9L 13.75,9L 16,12.5L 14,12.5L 10.75,9L 4,9C 3.44772,9 2,8.55229 2,8C 2,7.44772 3.49999,5.50004 5.49999,5.50002C 7.5,5.50001 7.66666,6.50001 9,7L 21,7C 21.5523,7 22,7.44772 22,8L 22,9L 22,11 Z M 10.75,6.50002L 14,3.00001L 16,3.00001L 13.75,6.50002L 10.75,6.50002 Z M 18,11L 18,9.50001L 19.75,9.50002L 19,11L 18,11 Z M 3,19C 2.44771,19 2,18.5523 2,18C 2,17.4477 2.44771,17 3,17C 5.20914,17 6.99999,18.7909 6.99999,21C 6.99999,21.5523 6.55228,22 5.99999,22C 5.44771,22 5,21.5523 5,21C 5,19.8954 4.10457,19 3,19 Z M 11,21C 11,21.5523 10.5523,22 9.99999,22C 9.44771,22 8.99999,21.5523 8.99999,21C 8.99999,17.6863 6.3137,15 3,15C 2.44771,15 2,14.5523 2,14C 2,13.4477 2.44771,13 3,13C 7.41827,13 11,16.5817 11,21 Z "/>
</svg>
