<?xml version="1.0" encoding="utf-8"?>
<!DOCTYPE svg PUBLIC "-//W3C//DTD SVG 1.1//EN" "http://www.w3.org/Graphics/SVG/1.1/DTD/svg11.dtd">
<svg xmlns="http://www.w3.org/2000/svg" xmlns:xlink="http://www.w3.org/1999/xlink" version="1.1" baseProfile="full" width="24" height="24" viewBox="0 0 24.00 24.00" enable-background="new 0 0 24.00 24.00" xml:space="preserve">
	<path fill="#000000" fill-opacity="1" stroke-linejoin="round" d="M 8.5,5C 7.67157,5 7,5.67158 7,6.5C 7,7.32843 7.67157,8 8.5,8C 9.32843,8 10,7.32843 10,6.5C 10,5.67158 9.32843,5 8.5,5 Z M 10,2.00001C 12.7614,2.00001 15,4.23858 15,7.00001C 15,8.6969 14.1547,10.1964 12.8622,11.1003C 14.435,11.2471 16.2175,11.6088 18,12.5C 21,14 22,12 22,12C 22,12 21,21 15,21L 9,21C 9,21 4,21 4,16C 4,13.0007 6.99854,12.0005 6.00072,10.0015C 2,10 2,6.50001 2,6.50001C 3,7.00001 4.24326,6.98521 5.01213,6.64903C 5.19225,4.05137 7.35656,2.00001 10,2.00001 Z "/>
</svg>
