<?xml version="1.0" encoding="utf-8"?>
<!DOCTYPE svg PUBLIC "-//W3C//DTD SVG 1.1//EN" "http://www.w3.org/Graphics/SVG/1.1/DTD/svg11.dtd">
<svg xmlns="http://www.w3.org/2000/svg" xmlns:xlink="http://www.w3.org/1999/xlink" version="1.1" baseProfile="full" width="24" height="24" viewBox="0 0 24.00 24.00" enable-background="new 0 0 24.00 24.00" xml:space="preserve">
	<path fill="#000000" fill-opacity="1" stroke-width="1.33333" stroke-linejoin="miter" d="M 20.57,14.86L 22,13.43L 20.57,12L 17,15.57L 8.43,7L 12,3.43L 10.57,2L 9.14,3.43L 7.71,2L 5.57,4.14L 4.14,2.71L 2.71,4.14L 4.14,5.57L 2,7.71L 3.43,9.14L 2,10.57L 3.43,12L 7,8.43L 15.57,17L 12,20.57L 13.43,22L 14.86,20.57L 16.29,22L 18.43,19.86L 19.86,21.29L 21.29,19.86L 19.86,18.43L 22,16.29L 20.57,14.86 Z "/>
</svg>
