<?xml version="1.0" encoding="utf-8"?>
<!DOCTYPE svg PUBLIC "-//W3C//DTD SVG 1.1//EN" "http://www.w3.org/Graphics/SVG/1.1/DTD/svg11.dtd">
<svg xmlns="http://www.w3.org/2000/svg" xmlns:xlink="http://www.w3.org/1999/xlink" version="1.1" baseProfile="full" width="24" height="24" viewBox="0 0 24.00 24.00" enable-background="new 0 0 24.00 24.00" xml:space="preserve">
	<path fill="#000000" fill-opacity="1" stroke-width="1.33333" stroke-linejoin="miter" d="M 20,8L 19,8L 17,8L 15,8L 15,14L 2,14L 2,17L 3,17C 3,18.66 4.34,20 6,20C 7.66,20 9,18.66 9,17L 15,17C 15,18.66 16.34,20 18,20C 19.66,20 21,18.66 21,17L 23,17L 23,12L 20,8 Z M 6,18.5C 5.17,18.5 4.5,17.83 4.5,17C 4.5,16.17 5.17,15.5 6,15.5C 6.83,15.5 7.5,16.17 7.5,17C 7.5,17.83 6.83,18.5 6,18.5 Z M 18,18.5C 17.17,18.5 16.5,17.83 16.5,17C 16.5,16.17 17.17,15.5 18,15.5C 18.83,15.5 19.5,16.17 19.5,17C 19.5,17.83 18.83,18.5 18,18.5 Z M 17,12L 17,9.5L 19.5,9.5L 21.46,12L 17,12 Z M 18,7L 14,7L 14,13L 3,13L 1.571,8L 1,8L 1,6L 13,6L 14,5L 18,5L 18,7 Z "/>
</svg>
