<?xml version="1.0" encoding="utf-8"?>
<!DOCTYPE svg PUBLIC "-//W3C//DTD SVG 1.1//EN" "http://www.w3.org/Graphics/SVG/1.1/DTD/svg11.dtd">
<svg xmlns="http://www.w3.org/2000/svg" xmlns:xlink="http://www.w3.org/1999/xlink" version="1.1" baseProfile="full" width="24" height="24" viewBox="0 0 24.00 24.00" enable-background="new 0 0 24.00 24.00" xml:space="preserve">
	<path fill="#000000" fill-opacity="1" stroke-width="1.33333" stroke-linejoin="miter" d="M 17,20C 16.71,20 16.44,19.94 16.24,19.85C 15.53,19.48 15.03,18.97 14.53,17.47C 14.02,15.91 13.06,15.18 12.14,14.47C 11.35,13.86 10.53,13.23 9.82,11.94C 9.29,10.98 9,9.93 9,9C 9,6.2 11.2,4 14,4C 16.8,4 19,6.2 19,9L 21,9C 21,5.07 17.93,2 14,2C 10.07,2 7,5.07 7,9C 7,10.26 7.38,11.65 8.07,12.9C 8.98,14.55 10.05,15.38 10.92,16.05C 11.73,16.67 12.31,17.12 12.63,18.1C 13.23,19.92 14,20.94 15.36,21.65C 15.87,21.88 16.43,22 17,22C 19.21,22 21,20.21 21,18L 19,18C 19,19.1 18.1,20 17,20 Z M 7.64,2.64L 6.22,1.22C 4.23,3.21 3,5.96 3,9C 3,12.04 4.23,14.79 6.22,16.78L 7.63,15.37C 6.01,13.74 5,11.49 5,9C 5,6.51 6.01,4.26 7.64,2.64 Z M 11.5,9C 11.5,10.38 12.62,11.5 14,11.5C 15.38,11.5 16.5,10.38 16.5,9C 16.5,7.62 15.38,6.5 14,6.5C 12.62,6.5 11.5,7.62 11.5,9 Z "/>
</svg>
