<?xml version="1.0" encoding="utf-8"?>
<!DOCTYPE svg PUBLIC "-//W3C//DTD SVG 1.1//EN" "http://www.w3.org/Graphics/SVG/1.1/DTD/svg11.dtd">
<svg xmlns="http://www.w3.org/2000/svg" xmlns:xlink="http://www.w3.org/1999/xlink" version="1.1" baseProfile="full" width="24" height="24" viewBox="0 0 24.00 24.00" enable-background="new 0 0 24.00 24.00" xml:space="preserve">
	<path fill="#000000" fill-opacity="1" stroke-width="0.2" stroke-linejoin="miter" d="M 0.999999,4.26849L 2.27711,3.00001L 20,20.7229L 18.7315,22L 12.9111,16.1796C 12.189,16.7365 11.6673,17.1895 11.37,18.1C 10.77,19.92 10,20.94 8.64,21.65C 8.13,21.88 7.57,22 7,22C 4.79,22 3,20.21 3,18L 5,18C 5,19.1 5.9,20 7,20C 7.29,20 7.56,19.94 7.75976,19.85C 8.47,19.48 8.97,18.97 9.47,17.47C 9.91174,16.1188 10.6911,15.3903 11.4896,14.7581L 5.04491,8.31339C 5.01528,8.53747 5,8.76665 5,9L 3,9C 3,8.17353 3.13577,7.38509 3.38676,6.65524L 0.999999,4.26849 Z M 14.18,11.94C 14.71,10.98 15,9.93 15,9C 15,6.2 12.8,4 10,4C 8.81366,4 7.73502,4.39494 6.8858,5.06311L 5.45511,3.63243C 6.66914,2.60928 8.24923,2.00001 10,2.00001C 13.93,2.00001 17,5.07 17,9C 17,10.26 16.62,11.65 15.93,12.9L 15.4711,13.6484L 14.0274,12.2047L 14.18,11.94 Z M 16.36,2.64001L 17.78,1.22001C 19.77,3.21 21,5.96 21,9C 21,11.8305 19.9337,14.4095 18.1805,16.3578L 16.7669,14.9442C 18.1533,13.3585 19,11.2798 19,9C 19,6.50977 17.99,4.25977 16.36,2.64001 Z M 12.5,9C 12.5,9.47937 12.3649,9.92736 12.1306,10.3079L 8.69207,6.86938C 9.07264,6.63515 9.52063,6.5 10,6.5C 11.38,6.5 12.5,7.62 12.5,9 Z "/>
</svg>
