<?xml version="1.0" encoding="utf-8"?>
<!DOCTYPE svg PUBLIC "-//W3C//DTD SVG 1.1//EN" "http://www.w3.org/Graphics/SVG/1.1/DTD/svg11.dtd">
<svg xmlns="http://www.w3.org/2000/svg" xmlns:xlink="http://www.w3.org/1999/xlink" version="1.1" baseProfile="full" width="24" height="24" viewBox="0 0 24.00 24.00" enable-background="new 0 0 24.00 24.00" xml:space="preserve">
	<path fill="#000000" fill-opacity="1" stroke-width="0.2" stroke-linejoin="miter" d="M 5,3C 3.89,3 3,3.89 3,5L 3,19C 3,20.1046 3.89543,21 5,21L 19,21C 20.1046,21 21,20.1046 21,19L 21,5C 21,3.89 20.1,3 19,3L 5,3 Z M 15.7793,5L 19,5L 19,17.1836C 18.7402,16.3836 17.6908,15.793 16.8008,15.793L 15.8008,15.793L 15.8008,12.793C 15.8008,12.2407 15.3531,11.793 14.8008,11.793L 8.80078,11.793L 8.80078,9.793L 10.8008,9.793C 11.3531,9.793 11.8008,9.3453 11.8008,8.793L 11.8008,6.793L 13.8008,6.793C 14.8346,6.793 15.6746,6.0062 15.7793,5 Z M 5,10.2891L 9.80078,14.793L 9.80078,15.793C 9.80078,16.8975 10.6962,17.793 11.8008,17.793L 11.8008,19L 5,19L 5,10.2891 Z "/>
</svg>
