<?xml version="1.0" encoding="utf-8"?>
<!DOCTYPE svg PUBLIC "-//W3C//DTD SVG 1.1//EN" "http://www.w3.org/Graphics/SVG/1.1/DTD/svg11.dtd">
<svg xmlns="http://www.w3.org/2000/svg" xmlns:xlink="http://www.w3.org/1999/xlink" version="1.1" baseProfile="full" width="24" height="24" viewBox="0 0 24.00 24.00" enable-background="new 0 0 24.00 24.00" xml:space="preserve">
	<path fill="#000000" fill-opacity="1" stroke-width="1.33333" stroke-linejoin="miter" d="M 23,4.26848L 21,6.2685L 21,19C 21,20.1046 20.1046,21 19,21L 6.26851,21L 4.26851,23L 3.00003,21.7229L 21.7229,3.00001L 23,4.26848 Z M 5,3L 19.1773,3L 17.1773,5L 15.7793,5C 15.6746,6.0062 14.8346,6.793 13.8008,6.793L 11.8008,6.793L 11.8008,8.793C 11.8008,9.3453 11.3531,9.793 10.8008,9.793L 8.80078,9.793L 8.80078,11.793L 10.3843,11.793L 8.55401,13.6233L 5,10.2891L 5,17.1773L 3,19.1773L 3,5C 3,3.89 3.89,3 5,3 Z M 11.8008,19L 11.8008,17.793C 11.1656,17.793 10.5996,17.4969 10.2333,17.0352L 8.26851,19L 11.8008,19 Z M 15.8008,12.793L 15.8008,15.793L 16.8008,15.793C 17.6908,15.793 18.74,16.3836 19,17.1836L 19,8.26851L 15.3264,11.9421C 15.6111,12.1183 15.8008,12.4335 15.8008,12.793 Z "/>
</svg>
