<?xml version="1.0" encoding="utf-8"?>
<!DOCTYPE svg PUBLIC "-//W3C//DTD SVG 1.1//EN" "http://www.w3.org/Graphics/SVG/1.1/DTD/svg11.dtd">
<svg xmlns="http://www.w3.org/2000/svg" xmlns:xlink="http://www.w3.org/1999/xlink" version="1.1" baseProfile="full" width="24" height="24" viewBox="0 0 24.00 24.00" enable-background="new 0 0 24.00 24.00" xml:space="preserve">
	<path fill="#000000" fill-opacity="1" stroke-width="0.2" stroke-linejoin="round" d="M 22,5.26847L 20.5152,6.75325C 21.4565,8.27815 21.9996,10.0749 21.9996,11.9986C 21.9996,17.5206 17.5226,21.9986 11.9996,21.9986C 10.076,21.9986 8.27929,21.4554 6.75443,20.514L 5.26847,22L 4,20.7229L 20.7229,4L 22,5.26847 Z M 17.8956,17.3916C 19.1986,15.9686 19.9996,14.0796 19.9996,11.9986C 19.9996,10.6305 19.6558,9.34348 19.0501,8.21832L 14.829,12.4395C 14.9367,12.599 14.9996,12.7913 14.9996,12.9986L 14.9996,15.9986L 15.9996,15.9986C 16.8906,15.9986 17.6376,16.5856 17.8956,17.3916 Z M 10.9996,19.9286L 10.9996,17.9986C 10.516,17.9986 10.0727,17.827 9.72699,17.5415L 8.22325,19.0452C 9.06922,19.4985 10.0062,19.8044 10.9996,19.9286 Z M 14.9996,4.58557L 14.9996,4.99857C 14.9996,6.10257 14.1036,6.99857 12.9996,6.99857L 10.9996,6.99857L 10.9996,8.99857C 10.9996,9.55057 10.5516,9.99857 9.99959,9.99857L 7.99959,9.99857L 7.99959,11.9986L 10.1787,11.9986L 8.08917,14.0881L 4.2076,10.2066C 4.0756,10.7836 3.99959,11.3816 3.99959,11.9986C 3.99959,13.7433 4.55878,15.3564 5.50761,16.6697L 4.07674,18.1006C 2.7743,16.412 1.99959,14.2956 1.99959,11.9986C 1.99959,6.47557 6.4766,1.99857 11.9996,1.99857C 14.2969,1.99857 16.4133,2.7732 18.1018,4.07553L 16.6695,5.50782C 16.1552,5.1376 15.5951,4.82684 14.9996,4.58557 Z "/>
</svg>
