<?xml version="1.0" encoding="utf-8"?>
<!DOCTYPE svg PUBLIC "-//W3C//DTD SVG 1.1//EN" "http://www.w3.org/Graphics/SVG/1.1/DTD/svg11.dtd">
<svg xmlns="http://www.w3.org/2000/svg" xmlns:xlink="http://www.w3.org/1999/xlink" version="1.1" baseProfile="full" width="24" height="24" viewBox="0 0 24.00 24.00" enable-background="new 0 0 24.00 24.00" xml:space="preserve">
	<path fill="#000000" fill-opacity="1" stroke-width="1.33333" stroke-linejoin="miter" d="M 6.89,6.36C 8.23,3.91 10,2 12,2C 14,2 15.77,3.91 17.11,6.36C 16.2635,6.5689 15.5169,7.0678 15,7.77C 13.7852,6.1131 11.4572,5.7548 9.80036,6.9696C 9.49431,7.194 9.2244,7.4639 9,7.77C 8.48308,7.0678 7.73652,6.5689 6.89,6.36 Z M 15,18.06L 12,15.06L 9,18.06L 6,15.06L 4.73,16.33C 5.74793,20.3451 9.82801,22.7748 13.8431,21.7569C 16.5107,21.0806 18.5937,18.9976 19.27,16.33L 18,15.06L 15,18.06 Z M 9,15.94L 12,12.94L 15,15.94L 18,12.94L 19.5,14.44C 19.3706,12.1255 18.7968,9.8576 17.81,7.76C 16.6459,7.8587 15.751,8.8318 15.75,10L 14.25,10C 14.25,8.7574 13.2426,7.75 12,7.75C 10.7574,7.75 9.75,8.7574 9.75,10L 8.25,10C 8.24898,8.8318 7.35406,7.8587 6.19,7.76C 5.20318,9.8576 4.6294,12.1255 4.5,14.44L 6,12.94L 9,15.94 Z "/>
</svg>
