<?xml version="1.0" encoding="utf-8"?>
<!DOCTYPE svg PUBLIC "-//W3C//DTD SVG 1.1//EN" "http://www.w3.org/Graphics/SVG/1.1/DTD/svg11.dtd">
<svg xmlns="http://www.w3.org/2000/svg" xmlns:xlink="http://www.w3.org/1999/xlink" version="1.1" baseProfile="full" width="24" height="24" viewBox="0 0 24.00 24.00" enable-background="new 0 0 24.00 24.00" xml:space="preserve">
	<path fill="#000000" fill-opacity="1" stroke-width="1.33333" stroke-linejoin="miter" d="M 0.999999,11L 3.17071,11C 3.58254,9.83481 4.69378,9 6,9C 6.65024,9 7.25216,9.20687 7.74354,9.55839L 14.4371,4.87151L 15.5843,6.50981L 8.89115,11.1964C 8.96209,11.4521 9,11.7216 9,12C 9,13.6569 7.65685,15 6,15C 4.69378,15 3.58254,14.1652 3.17071,13L 0.999999,13L 0.999999,11 Z M 23,11L 23,13L 20.8293,13C 20.4175,14.1652 19.3062,15 18,15C 16.3431,15 15,13.6569 15,12C 15,10.3431 16.3431,9 18,9C 19.3062,9 20.4175,9.83481 20.8293,11L 23,11 Z M 6,11C 5.44771,11 5,11.4477 5,12C 5,12.5523 5.44771,13 6,13C 6.55228,13 7,12.5523 7,12C 7,11.4477 6.55228,11 6,11 Z M 18,11C 17.4477,11 17,11.4477 17,12C 17,12.5523 17.4477,13 18,13C 18.5523,13 19,12.5523 19,12C 19,11.4477 18.5523,11 18,11 Z "/>
</svg>
