<?xml version="1.0" encoding="utf-8"?>
<!DOCTYPE svg PUBLIC "-//W3C//DTD SVG 1.1//EN" "http://www.w3.org/Graphics/SVG/1.1/DTD/svg11.dtd">
<svg xmlns="http://www.w3.org/2000/svg" xmlns:xlink="http://www.w3.org/1999/xlink" version="1.1" baseProfile="full" width="24" height="24" viewBox="0 0 24.00 24.00" enable-background="new 0 0 24.00 24.00" xml:space="preserve">
	<path fill="#000000" fill-opacity="1" stroke-width="0.2" stroke-linejoin="round" d="M 7,2L 11,6L 8,6L 8,9.99999L 6,9.99999L 6,6L 3,6L 7,2 Z M 17,10L 13,6.00001L 16,6.00001L 16,2.00002L 18,2.00002L 18,6.00001L 21,6.00001L 17,10 Z M 7,12L 17,12C 18.1046,12 19,12.8954 19,14L 19,20C 19,21.1046 18.1046,22 17,22L 7,22C 5.89543,22 5,21.1046 5,20L 5,14C 5,12.8954 5.89543,12 7,12 Z M 7,14L 7,20L 17,20L 17,14L 7,14 Z "/>
</svg>
