<?xml version="1.0" encoding="utf-8"?>
<!DOCTYPE svg PUBLIC "-//W3C//DTD SVG 1.1//EN" "http://www.w3.org/Graphics/SVG/1.1/DTD/svg11.dtd">
<svg xmlns="http://www.w3.org/2000/svg" xmlns:xlink="http://www.w3.org/1999/xlink" version="1.1" baseProfile="full" width="24" height="24" viewBox="0 0 24.00 24.00" enable-background="new 0 0 24.00 24.00" xml:space="preserve">
	<path fill="#000000" fill-opacity="1" stroke-width="1.33333" stroke-linejoin="miter" d="M 21,13.3414C 20.3744,13.1203 19.7013,13 19,13C 15.6863,13 13,15.6863 13,19C 13,19.3407 13.0284,19.6748 13.083,20L 3,20C 1.89543,20 1,19.1046 1,18L 1,6C 1,4.89 1.89,4 3,4L 19,4C 20.1,4 21,4.89 21,6L 21,13.3414 Z M 23.5,17L 18.5,21.9979L 15,18.5L 16.5,17L 18.5,19L 22,15.5L 23.5,17 Z M 3,6L 3,8L 11,13L 19,8L 19,6L 11,11L 3,6 Z "/>
</svg>
