<?xml version="1.0" encoding="utf-8"?>
<!DOCTYPE svg PUBLIC "-//W3C//DTD SVG 1.1//EN" "http://www.w3.org/Graphics/SVG/1.1/DTD/svg11.dtd">
<svg xmlns="http://www.w3.org/2000/svg" xmlns:xlink="http://www.w3.org/1999/xlink" version="1.1" baseProfile="full" width="24" height="24" viewBox="0 0 24.00 24.00" enable-background="new 0 0 24.00 24.00" xml:space="preserve">
	<path fill="#000000" fill-opacity="1" stroke-width="0.2" stroke-linejoin="round" d="M 21.9994,5.99807L 21.9994,3.99807L 13.9994,8.99807L 5.9994,3.99807L 5.9994,5.99807L 13.9994,10.9981L 21.9994,5.99807 Z M 21.9994,1.99807C 23.1034,1.99807 23.9994,2.89307 23.9994,3.99807L 23.9994,15.9981C 23.9994,17.1021 23.1034,17.9981 21.9994,17.9981L 5.9994,17.9981C 4.8944,17.9981 3.9994,17.1021 3.9994,15.9981L 4.00939,3.99807C 4.00939,2.89307 4.8944,1.99807 5.9994,1.99807L 21.9994,1.99807 Z M 2,6L 2.00001,20L 20,20L 20,22L 2.00001,22C 0.900008,22 6.67572e-006,21.1 6.67572e-006,20L 1.58946e-007,6L 2,6 Z "/>
</svg>
