<?xml version="1.0" encoding="utf-8"?>
<!DOCTYPE svg PUBLIC "-//W3C//DTD SVG 1.1//EN" "http://www.w3.org/Graphics/SVG/1.1/DTD/svg11.dtd">
<svg xmlns="http://www.w3.org/2000/svg" xmlns:xlink="http://www.w3.org/1999/xlink" version="1.1" baseProfile="full" width="24" height="24" viewBox="0 0 24.00 24.00" enable-background="new 0 0 24.00 24.00" xml:space="preserve">
	<path fill="#000000" fill-opacity="1" stroke-width="0.2" stroke-linejoin="miter" d="M 3,4C 1.89,4 1,4.89 1,6L 1,18C 1,19.1046 1.89543,20 3,20L 14.0859,20C 14.0294,19.6696 14.0007,19.3351 14,19C 14,15.6863 16.6863,13 20,13C 20.3353,13.002 20.6698,13.032 21,13.0898L 21,6C 21,4.89 20.1,4 19,4L 3,4 Z M 3,6L 11,11L 19,6L 19,8L 11,13L 3,8L 3,6 Z M 16,18L 16,20L 24,20L 24,18L 16,18 Z "/>
</svg>
