<?xml version="1.0" encoding="utf-8"?>
<!DOCTYPE svg PUBLIC "-//W3C//DTD SVG 1.1//EN" "http://www.w3.org/Graphics/SVG/1.1/DTD/svg11.dtd">
<svg xmlns="http://www.w3.org/2000/svg" xmlns:xlink="http://www.w3.org/1999/xlink" version="1.1" baseProfile="full" width="24" height="24" viewBox="0 0 24.00 24.00" enable-background="new 0 0 24.00 24.00" xml:space="preserve">
	<path fill="#000000" fill-opacity="1" stroke-width="1.33333" stroke-linejoin="miter" d="M 23.5,17L 18.5,21.9979L 15,18.5L 16.5,17L 18.5,19L 22,15.5L 23.5,17 Z M 1,6L 1,18C 1,19.1046 1.89543,20 3,20L 13,20L 13,18L 3,18L 3,8.37L 11,13.36L 19,8.37L 19,13L 21,13L 21,6C 21,4.8954 20.1046,4 19,4L 3,4C 1.89,4 1,4.89 1,6 Z M 3,6L 19,6L 11,11L 3,6 Z "/>
</svg>
