<?xml version="1.0" encoding="utf-8"?>
<!DOCTYPE svg PUBLIC "-//W3C//DTD SVG 1.1//EN" "http://www.w3.org/Graphics/SVG/1.1/DTD/svg11.dtd">
<svg xmlns="http://www.w3.org/2000/svg" xmlns:xlink="http://www.w3.org/1999/xlink" version="1.1" baseProfile="full" width="24" height="24" viewBox="0 0 24.00 24.00" enable-background="new 0 0 24.00 24.00" xml:space="preserve">
	<path fill="#000000" fill-opacity="1" stroke-width="0.2" stroke-linejoin="miter" d="M 3,4L 19,4C 20.1,4 21,4.89 21,6L 21,10.8203C 19.9914,9.8504 18.6968,9.2319 17.3086,9.0566L 19,8L 19,6L 11,11L 3,6L 3,8L 10.6152,12.7598C 10.2129,13.6174 10.0029,14.5527 10,15.5C 10.0008,17.1777 10.6502,18.7901 11.8125,20L 3,20C 1.89543,20 1,19.1046 1,18L 1,6C 1,4.89 1.89,4 3,4 Z M 16.5,11C 18.9853,11 21,13.0147 21,15.5C 21,16.3826 20.7459,17.2059 20.3069,17.9006L 23.3906,20.9844L 21.9844,22.3906L 18.8763,19.3221C 18.1867,19.7518 17.3723,20 16.5,20C 14.0147,20 12,17.9853 12,15.5C 12,13.0147 14.0147,11 16.5,11 Z M 16.5,13C 15.1193,13 14,14.1193 14,15.5C 14,16.8807 15.1193,18 16.5,18C 17.8807,18 19,16.8807 19,15.5C 19,14.1193 17.8807,13 16.5,13 Z "/>
</svg>
