<?xml version="1.0" encoding="utf-8"?>
<!DOCTYPE svg PUBLIC "-//W3C//DTD SVG 1.1//EN" "http://www.w3.org/Graphics/SVG/1.1/DTD/svg11.dtd">
<svg xmlns="http://www.w3.org/2000/svg" xmlns:xlink="http://www.w3.org/1999/xlink" version="1.1" baseProfile="full" width="24" height="24" viewBox="0 0 24.00 24.00" enable-background="new 0 0 24.00 24.00" xml:space="preserve">
	<path fill="#000000" fill-opacity="1" stroke-linejoin="round" d="M 21,12.1307C 20.8547,12.136 20.7133,12.1933 20.6093,12.3027L 19.6093,13.3027L 21.6613,15.3027L 22.6613,14.3027C 22.88,14.0933 22.88,13.74 22.6613,13.5307L 21.4213,12.3027C 21.3227,12.1933 21.1827,12.136 21.0413,12.1307M 19.0413,13.88L 13,19.9427L 13,22L 15.0627,22L 21.12,15.932M 20,4L 4,4C 2.896,4 2,4.896 2,6L 2,18C 2,19.104 2.896,20 4,20L 11,20L 11,19.1093L 19.24,10.8907C 19.7133,10.4013 20.36,10.1307 21.0413,10.1307C 21.38,10.1253 21.724,10.1933 22.0413,10.3227L 22.0413,6C 22.0413,4.88 21.12,3.97867 20,4 Z M 20,8L 12,13L 4,8L 4,6L 12,11L 20,6"/>
</svg>
