<?xml version="1.0" encoding="utf-8"?>
<!DOCTYPE svg PUBLIC "-//W3C//DTD SVG 1.1//EN" "http://www.w3.org/Graphics/SVG/1.1/DTD/svg11.dtd">
<svg xmlns="http://www.w3.org/2000/svg" xmlns:xlink="http://www.w3.org/1999/xlink" version="1.1" baseProfile="full" width="24" height="24" viewBox="0 0 24.00 24.00" enable-background="new 0 0 24.00 24.00" xml:space="preserve">
	<path fill="#000000" fill-opacity="1" stroke-width="1.33333" stroke-linejoin="miter" d="M 22,14.2153C 22,14.2153 17.6094,17.3514 14.7241,17.3932C 11.8389,17.4351 12.1316,15.5637 12.1316,15.5637C 12.1316,15.5637 22.7109,11.9416 19.8256,4.79105C 18.5293,2.95117 17.024,2.37359 14.8914,2.4154C 12.7588,2.45722 10.1747,3.75751 8.46029,7.60452C 7.64194,9.44064 7.40639,11.1807 7.23913,12.4995L 7.23913,12.4991C 7.23913,12.4991 5.32413,12.8772 4.32056,12.0409C 3.31699,11.2046 2.76916,12.0409 2.76916,12.0409C 2.76916,12.0409 1.03169,14.2047 2.74613,14.8738C 4.46056,15.5428 7.12082,15.8243 7.12082,15.8243L 7.11895,15.8243C 7.36477,16.9951 8.07988,19.0151 10.1671,20.6015C 13.3033,22.985 19.3243,20.3982 19.3243,20.3982M 11.6298,12.3336C 11.7552,7.35755 15.0168,5.18315 16.1458,6.27035C 17.2749,7.35755 16.8567,9.69921 14.7241,11.1628C 12.5915,12.6263 11.6298,12.3336 11.6298,12.3336 Z "/>
</svg>
