<?xml version="1.0" encoding="utf-8"?>
<!DOCTYPE svg PUBLIC "-//W3C//DTD SVG 1.1//EN" "http://www.w3.org/Graphics/SVG/1.1/DTD/svg11.dtd">
<svg xmlns="http://www.w3.org/2000/svg" xmlns:xlink="http://www.w3.org/1999/xlink" version="1.1" baseProfile="full" width="24" height="24" viewBox="0 0 24.00 24.00" enable-background="new 0 0 24.00 24.00" xml:space="preserve">
	<path fill="#000000" fill-opacity="1" stroke-width="1.33333" stroke-linejoin="miter" d="M 12,2C 6.477,2 2,6.477 2,12C 2,17.523 6.477,22 12,22C 17.523,22 22,17.523 22,12C 22,6.477 17.523,2 12,2 Z M 12,20C 7.582,20 4,16.418 4,12C 4,7.582 7.582,4 12,4C 16.418,4 20,7.582 20,12C 20,16.418 16.418,20 12,20 Z M 12,14C 13.75,14 15.29,14.72 16.19,15.81L 14.77,17.23C 14.32,16.5 13.25,16 12,16C 10.75,16 9.68,16.5 9.23,17.23L 7.81,15.81C 8.71,14.72 10.25,14 12,14 Z M 10,9.5C 10,10.3 9.3,11 8.5,11C 7.7,11 7,10.3 7,9.5L 7,8L 10,9.5M 17,9.5C 17,10.3 16.3,11 15.5,11C 14.7,11 14,10.3 14,9.5L 17,8L 17,9.5"/>
</svg>
