<?xml version="1.0" encoding="utf-8"?>
<!DOCTYPE svg PUBLIC "-//W3C//DTD SVG 1.1//EN" "http://www.w3.org/Graphics/SVG/1.1/DTD/svg11.dtd">
<svg xmlns="http://www.w3.org/2000/svg" xmlns:xlink="http://www.w3.org/1999/xlink" version="1.1" baseProfile="full" width="24" height="24" viewBox="0 0 24.00 24.00" enable-background="new 0 0 24.00 24.00" xml:space="preserve">
	<path fill="#000000" fill-opacity="1" stroke-width="0.2" stroke-linejoin="round" d="M 1.50075,2.08664C 2.40331,2.97878 3.86674,3.72943 5.68573,4.24524C 7.40745,2.84165 9.60544,2.00001 12,2.00001C 14.3945,2.00001 16.5925,2.84165 18.3143,4.24525C 20.1332,3.72944 21.5967,2.97879 22.4992,2.08665C 22.471,3.71791 21.6456,5.21488 20.2831,6.39554C 21.3669,7.99417 22,9.92315 22,12C 22,17.5228 17.5228,22 12,22C 6.47715,22 2,17.5228 2,12C 2,9.92315 2.63312,7.99417 3.71689,6.39553C 2.3544,5.21487 1.52902,3.7179 1.50075,2.08664 Z M 20,12C 20,7.58172 16.4183,4 12,4C 7.58172,4 4,7.58172 4,12C 4,16.4183 7.58172,20 12,20C 16.4183,20 20,16.4183 20,12 Z M 10.5,10C 10.5,10.8 9.79999,11.5 8.99999,11.5C 8.19999,11.5 7.49999,10.8 7.49999,10L 7.49999,8.50001L 10.5,10 Z M 16.5,10C 16.5,10.8 15.8,11.5 15,11.5C 14.2,11.5 13.5,10.8 13.5,10L 16.5,8.50001L 16.5,10 Z M 12,17.2303C 10.2476,17.2303 8.7057,16.509 7.81291,15.4173L 9.23025,14C 9.68254,14.7225 10.7523,15.2302 12,15.2302C 13.2477,15.2302 14.3175,14.7225 14.7697,14L 16.1871,15.4173C 15.2943,16.509 13.7524,17.2303 12,17.2303 Z "/>
</svg>
