<?xml version="1.0" encoding="utf-8"?>
<!DOCTYPE svg PUBLIC "-//W3C//DTD SVG 1.1//EN" "http://www.w3.org/Graphics/SVG/1.1/DTD/svg11.dtd">
<svg xmlns="http://www.w3.org/2000/svg" xmlns:xlink="http://www.w3.org/1999/xlink" version="1.1" baseProfile="full" width="24" height="24" viewBox="0 0 24.00 24.00" enable-background="new 0 0 24.00 24.00" xml:space="preserve">
	<path fill="#000000" fill-opacity="1" stroke-width="1.33333" stroke-linejoin="miter" d="M 12,2C 6.477,2 2,6.477 2,12C 2,17.5 6.47,22 12,22C 17.523,22 22,17.523 22,12C 22,6.477 17.523,2 12,2 Z M 12,20C 7.582,20 4,16.418 4,12C 4,7.582 7.582,4 12,4C 16.418,4 20,7.582 20,12C 20,16.418 16.418,20 12,20 Z M 9,10C 8.26,10 7.61,10.4 7.27,11C 7.1,10.71 7,10.36 7,10C 7,8.895 7.895,8 9,8C 10.105,8 11,8.895 11,10C 11,10.36 10.9,10.71 10.73,11C 10.39,10.4 9.74,10 9,10 Z M 17,10C 17,10.36 16.9,10.71 16.73,11C 16.39,10.4 15.74,10 15,10C 14.26,10 13.61,10.4 13.27,11C 13.1,10.71 13,10.36 13,10C 13,8.895 13.895,8 15,8C 16.105,8 17,8.895 17,10 Z M 16,13L 16,15L 15,15C 15,17 14.1,18 13,18C 11.9,18 11,17 11,15L 8,15L 8,13L 16,13 Z "/>
</svg>
