<?xml version="1.0" encoding="utf-8"?>
<!DOCTYPE svg PUBLIC "-//W3C//DTD SVG 1.1//EN" "http://www.w3.org/Graphics/SVG/1.1/DTD/svg11.dtd">
<svg xmlns="http://www.w3.org/2000/svg" xmlns:xlink="http://www.w3.org/1999/xlink" version="1.1" baseProfile="full" width="24" height="24" viewBox="0 0 24.00 24.00" enable-background="new 0 0 24.00 24.00" xml:space="preserve">
	<path fill="#000000" fill-opacity="1" stroke-width="1.33333" stroke-linejoin="miter" d="M 11.3552,2.0007C 11.1528,1.9891 10.8689,2.1235 10.5693,2.3243C 10.0092,2.6977 8.84848,3.8971 8.40105,5.0981C 8.05958,6.0182 8.05129,6.8153 8.18586,7.4343C 7.63245,7.5268 7.21689,7.7137 7.05538,7.7793C 6.54907,7.9878 5.4692,8.96 5.37164,10.4453C 5.338,10.9735 5.40683,11.5067 5.57336,12.0029C 4.91062,12.1879 4.52714,12.4302 4.52041,12.4352C 4.18399,12.5614 3.64902,12.9316 3.48586,13.1301C 3.15449,13.5304 2.92398,14.0064 2.78773,14.506C 2.49,15.5926 2.59958,16.8289 3.12776,17.8314C 3.42044,18.3882 3.82082,18.9802 4.26153,19.4327C 5.69972,20.9112 8.18231,21.4699 10.1419,21.7929C 12.5288,22.1865 15.0284,22.0484 17.2622,21.125C 20.6129,19.7423 21.5044,17.5186 21.6356,16.8912C 21.93,15.4933 21.5735,14.1865 21.4204,13.8719C 21.2001,13.4144 20.8383,12.9417 20.2479,12.6389C 19.8493,12.39 19.4792,12.262 19.237,12.1964C 19.4944,11.2544 19.1295,10.5041 18.6164,9.944C 17.8544,9.1231 17.0569,9.0037 17.0569,9.0037L 17.0553,9.0037C 17.3177,8.494 17.4171,7.9036 17.2843,7.3233C 17.116,6.6067 16.7308,6.1561 16.2228,5.8551C 15.703,5.5472 15.0604,5.3956 14.401,5.2778C 14.0848,5.2206 12.751,5.0339 12.1976,4.2686C 11.7518,3.6479 11.7382,2.5312 11.6171,2.1965C 11.5685,2.0672 11.4766,2.0077 11.3552,2.0007 Z M 16.0036,9.6108C 16.0651,9.613 16.1264,9.6175 16.1876,9.6243C 17.6187,9.7836 18.6405,11.1559 18.4699,12.6895C 18.2993,14.2232 17.0008,15.3374 15.5696,15.1782L 15.5696,15.1782C 14.1385,15.0189 13.1166,13.6466 13.2873,12.113C 13.4494,10.6555 14.6354,9.563 16.0036,9.6108 Z M 8.61525,9.6115C 9.95475,9.6542 11.0567,10.7762 11.1646,12.2072C 11.2808,13.746 10.2109,15.0813 8.77507,15.1897L 8.77492,15.1897C 7.33902,15.2981 6.08083,14.1386 5.96467,12.5999L 5.96464,12.5995C 5.84866,11.0608 6.91868,9.7256 8.35459,9.6174L 8.35472,9.6174C 8.44137,9.6108 8.52832,9.6088 8.61525,9.6115 Z M 8.6366,11.3087C 8.60208,11.3096 8.56713,11.3122 8.53213,11.3166C 7.97031,11.3889 7.56827,11.8953 7.63556,12.4487C 7.69948,13.0005 8.20751,13.3923 8.76933,13.32C 9.32946,13.2494 9.73146,12.7433 9.66754,12.1898C 9.60604,11.6726 9.15437,11.2956 8.6366,11.3087 Z M 15.9428,11.3291C 15.4234,11.3498 14.9926,11.7536 14.9579,12.2756C 14.9192,12.8307 15.3464,13.31 15.9116,13.342C 16.4751,13.3756 16.9646,12.9516 17.0033,12.3965C 17.042,11.8414 16.6128,11.362 16.0476,11.3301C 16.0123,11.328 15.9774,11.3277 15.9428,11.3291 Z M 8.71282,16.1487C 8.97849,16.1434 9.26003,16.2288 9.5197,16.2824C 10.6803,16.5212 11.6979,16.5311 12.1873,16.5311C 12.6768,16.5311 13.6944,16.5213 14.855,16.2824C 15.2705,16.1966 15.7415,16.0301 16.115,16.2824C 16.5893,16.6037 16.2395,17.7524 15.496,18.5295C 15.0435,18.9988 13.9686,19.9104 12.189,19.9104C 10.4076,19.9104 9.33282,18.9988 8.88202,18.5295C 8.13517,17.7524 7.78542,16.602 8.25977,16.2824C 8.39981,16.1878 8.55342,16.1518 8.71282,16.1487 Z "/>
</svg>
