<?xml version="1.0" encoding="utf-8"?>
<!DOCTYPE svg PUBLIC "-//W3C//DTD SVG 1.1//EN" "http://www.w3.org/Graphics/SVG/1.1/DTD/svg11.dtd">
<svg xmlns="http://www.w3.org/2000/svg" xmlns:xlink="http://www.w3.org/1999/xlink" version="1.1" baseProfile="full" width="24" height="24" viewBox="0 0 24.00 24.00" enable-background="new 0 0 24.00 24.00" xml:space="preserve">
	<path fill="#000000" fill-opacity="1" stroke-width="1.33333" stroke-linejoin="miter" d="M 5.142,17.571C 5.142,16.514 6.32,14.519 7.571,12.805C 8.822,14.519 10,16.514 10,17.571C 10,18.911 8.911,20 7.571,20C 6.232,20 5.142,18.911 5.142,17.571 Z M 22,12C 22,17.523 17.523,22 12,22C 11.075,22 10.184,21.864 9.334,21.629C 10.9,20.946 12,19.386 12,17.571C 12,17.119 11.889,16.595 11.689,16.015C 11.791,16.009 11.894,16 12,16C 13.25,16 14.32,16.5 14.77,17.23L 16.19,15.81C 15.29,14.72 13.75,14 12,14C 11.59,14 11.192,14.043 10.811,14.117C 10.383,13.356 9.845,12.528 9.187,11.626L 8.713,10.977C 9.42,10.866 10,10.228 10,9.5C 10,8.7 9.3,8 8.5,8C 7.7,8 7,8.7 7,9.5C 7,9.689 7.042,9.872 7.112,10.041L 5.956,11.625C 4.404,13.751 3.499,15.485 3.233,16.809C 2.448,15.382 2,13.744 2,12C 2,6.477 6.477,2 12,2C 17.523,2 22,6.477 22,12 Z M 17,9.5C 17,8.7 16.3,8 15.5,8C 14.7,8 14,8.7 14,9.5C 14,10.3 14.7,11 15.5,11C 16.3,11 17,10.3 17,9.5 Z "/>
</svg>
