<?xml version="1.0" encoding="utf-8"?>
<!DOCTYPE svg PUBLIC "-//W3C//DTD SVG 1.1//EN" "http://www.w3.org/Graphics/SVG/1.1/DTD/svg11.dtd">
<svg xmlns="http://www.w3.org/2000/svg" xmlns:xlink="http://www.w3.org/1999/xlink" version="1.1" baseProfile="full" width="24" height="24" viewBox="0 0 24.00 24.00" enable-background="new 0 0 24.00 24.00" xml:space="preserve">
	<path fill="#000000" fill-opacity="1" stroke-width="1.33333" stroke-linejoin="miter" d="M 11.99,2C 6.47,2 2,6.47 2,12C 2,17.53 6.47,22 11.99,22C 17.51,22 22,17.53 22,12C 22,6.47 17.52,2 11.99,2 Z M 12,20C 7.58,20 4,16.42 4,12C 4,7.58 7.58,4 12,4C 16.42,4 20,7.58 20,12C 20,16.42 16.42,20 12,20 Z M 13,9.94L 14.06,11L 15.12,9.94L 16.18,11L 17.24,9.94L 15.12,7.82L 13,9.94 Z M 8.88,9.94L 9.94,11L 11,9.94L 8.88,7.82L 6.76,9.94L 7.82,11L 8.88,9.94 Z M 12,17.5C 14.33,17.5 16.31,16.04 17.11,14L 6.89,14C 7.69,16.04 9.67,17.5 12,17.5 Z "/>
</svg>
