<?xml version="1.0" encoding="utf-8"?>
<!DOCTYPE svg PUBLIC "-//W3C//DTD SVG 1.1//EN" "http://www.w3.org/Graphics/SVG/1.1/DTD/svg11.dtd">
<svg xmlns="http://www.w3.org/2000/svg" xmlns:xlink="http://www.w3.org/1999/xlink" version="1.1" baseProfile="full" width="24" height="24" viewBox="0 0 24.00 24.00" enable-background="new 0 0 24.00 24.00" xml:space="preserve">
	<path fill="#000000" fill-opacity="1" stroke-width="1.33333" stroke-linejoin="miter" d="M 11.9994,1.99808C 6.47636,1.99808 1.99936,6.47508 1.99936,11.9981C 1.99936,17.4981 6.46936,21.9981 11.9994,21.9981C 17.5224,21.9981 21.9994,17.5211 21.9994,11.9981C 21.9994,6.47508 17.5224,1.99808 11.9994,1.99808 Z M 7.26936,10.9981C 7.09936,10.7081 6.99936,10.3581 6.99936,9.99808C 6.99936,8.89308 7.89436,7.99808 8.99936,7.99808C 10.1044,7.99808 10.9994,8.89308 10.9994,9.99808C 10.9994,10.3581 10.8994,10.7081 10.7294,10.9981C 10.3894,10.3981 9.73936,9.99808 8.99936,9.99808C 8.25936,9.99808 7.60936,10.3981 7.26936,10.9981 Z M 15.9994,14.9981L 14.9994,14.9981C 14.9994,16.9981 14.0994,17.9981 12.9994,17.9981C 11.8994,17.9981 10.9994,16.9981 10.9994,14.9981L 7.99936,14.9981L 7.99936,12.9981L 15.9994,12.9981L 15.9994,14.9981 Z M 16.7294,10.9981C 16.3894,10.3981 15.7394,9.99808 14.9994,9.99808C 14.2594,9.99808 13.6094,10.3981 13.2694,10.9981C 13.0994,10.7081 12.9994,10.3581 12.9994,9.99808C 12.9994,8.89308 13.8944,7.99808 14.9994,7.99808C 16.1044,7.99808 16.9994,8.89308 16.9994,9.99808C 16.9994,10.3581 16.8994,10.7081 16.7294,10.9981 Z "/>
</svg>
