<?xml version="1.0" encoding="utf-8"?>
<!DOCTYPE svg PUBLIC "-//W3C//DTD SVG 1.1//EN" "http://www.w3.org/Graphics/SVG/1.1/DTD/svg11.dtd">
<svg xmlns="http://www.w3.org/2000/svg" xmlns:xlink="http://www.w3.org/1999/xlink" version="1.1" baseProfile="full" width="24" height="24" viewBox="0 0 24.00 24.00" enable-background="new 0 0 24.00 24.00" xml:space="preserve">
	<path fill="#000000" fill-opacity="1" stroke-width="1.33333" stroke-linejoin="miter" d="M 11.99,2C 6.47,2 2,6.47 2,12C 2,17.53 6.47,22 11.99,22C 17.51,22 22,17.53 22,12C 22,6.47 17.52,2 11.99,2 Z M 12,20C 7.58,20 4,16.42 4,12C 4,7.58 7.58,4 12,4C 16.42,4 20,7.58 20,12C 20,16.42 16.42,20 12,20 Z M 16.18,7.76L 15.12,8.82L 14.06,7.76L 13,8.82L 14.06,9.88L 13,10.94L 14.06,12L 15.12,10.94L 16.18,12L 17.24,10.94L 16.18,9.88L 17.24,8.82L 16.18,7.76 Z M 7.82,12L 8.88,10.94L 9.94,12L 11,10.94L 9.94,9.88L 11,8.82L 9.94,7.76L 8.88,8.82L 7.82,7.76L 6.76,8.82L 7.82,9.88L 6.76,10.94L 7.82,12 Z M 12,14C 9.67,14 7.69,15.46 6.89,17.5L 17.11,17.5C 16.31,15.46 14.33,14 12,14 Z "/>
</svg>
