<?xml version="1.0" encoding="utf-8"?>
<!DOCTYPE svg PUBLIC "-//W3C//DTD SVG 1.1//EN" "http://www.w3.org/Graphics/SVG/1.1/DTD/svg11.dtd">
<svg xmlns="http://www.w3.org/2000/svg" xmlns:xlink="http://www.w3.org/1999/xlink" version="1.1" baseProfile="full" width="24" height="24" viewBox="0 0 24.00 24.00" enable-background="new 0 0 24.00 24.00" xml:space="preserve">
	<path fill="#000000" fill-opacity="1" stroke-width="1.33333" stroke-linejoin="miter" d="M 9,9.5C 9,10.3 8.3,11 7.5,11C 6.7,11 6,10.3 6,9.5C 6,8.7 6.7,8 7.5,8C 8.3,8 9,8.7 9,9.5M 16,9.5C 16,10.3 15.3,11 14.5,11C 13.7,11 13,10.3 13,9.5C 13,8.7 13.7,8 14.5,8C 15.3,8 16,8.7 16,9.5M 14,14.12L 11.88,12L 10.82,13.06L 11.88,14.12L 10.82,15.18L 11.88,16.24L 10.82,17.3L 11.88,18.36L 14,16.24L 12.94,15.18L 14,14.12 Z M 16.85,13C 15.72,13 14.8,13.92 14.8,15.05C 14.8,15.62 15.03,16.12 15.4,16.5L 18.9,20L 22.4,16.5C 22.77,16.13 23,15.61 23,15.05C 23,13.92 22.08,13 20.95,13C 20.4,13 19.87,13.23 19.5,13.6L 18.9,14.2L 18.3,13.61C 17.93,13.23 17.4,13 16.85,13 Z M 14.995,18.924C 13.819,19.604 12.457,20 11,20C 6.582,20 3,16.418 3,12C 3,7.582 6.582,4 11,4C 15.256,4 18.727,7.327 18.976,11.521C 19.576,11.186 20.257,11 20.95,11C 20.448,5.947 16.185,2 11,2C 5.477,2 1,6.477 1,12C 1,17.523 5.477,22 11,22C 13.012,22 14.881,21.4 16.45,20.378L 14.995,18.924 Z "/>
</svg>
