<?xml version="1.0" encoding="utf-8"?>
<!DOCTYPE svg PUBLIC "-//W3C//DTD SVG 1.1//EN" "http://www.w3.org/Graphics/SVG/1.1/DTD/svg11.dtd">
<svg xmlns="http://www.w3.org/2000/svg" xmlns:xlink="http://www.w3.org/1999/xlink" version="1.1" baseProfile="full" width="24" height="24" viewBox="0 0 24.00 24.00" enable-background="new 0 0 24.00 24.00" xml:space="preserve">
	<path fill="#000000" fill-opacity="1" stroke-width="0.2" stroke-linejoin="round" d="M 20,12C 20,7.58172 16.4183,4 12,4C 7.58172,4 4,7.58172 4,12C 4,16.4183 7.58172,20 12,20C 16.4183,20 20,16.4183 20,12 Z M 22,12C 22,17.5228 17.5228,22 12,22C 6.47715,22 2,17.5228 2,12C 2,6.47715 6.47715,2.00001 12,2.00001C 17.5228,2.00001 22,6.47715 22,12 Z M 10,9.5C 10,10.3 9.3,11 8.5,11C 7.7,11 7,10.3 7,9.5C 7,8.7 7.7,8 8.5,8C 9.3,8 10,8.7 10,9.5 Z M 17,9.5C 17,10.3 16.3,11 15.5,11C 14.7,11 14,10.3 14,9.5C 14,8.7 14.7,8 15.5,8C 16.3,8 17,8.7 17,9.5 Z M 12,17.2303C 10.2476,17.2303 8.7057,16.509 7.81291,15.4173L 9.23025,14C 9.68254,14.7225 10.7523,15.2302 12,15.2302C 13.2477,15.2302 14.3175,14.7225 14.7697,14L 16.1871,15.4173C 15.2943,16.509 13.7524,17.2303 12,17.2303 Z "/>
</svg>
