<?xml version="1.0" encoding="utf-8"?>
<!DOCTYPE svg PUBLIC "-//W3C//DTD SVG 1.1//EN" "http://www.w3.org/Graphics/SVG/1.1/DTD/svg11.dtd">
<svg xmlns="http://www.w3.org/2000/svg" xmlns:xlink="http://www.w3.org/1999/xlink" version="1.1" baseProfile="full" width="24" height="24" viewBox="0 0 24.00 24.00" enable-background="new 0 0 24.00 24.00" xml:space="preserve">
	<path fill="#000000" fill-opacity="1" stroke-width="0.2" stroke-linejoin="round" d="M 20,12C 20,7.6 16.4,4 12,4C 7.6,4 4,7.6 4,12C 4,16.4 7.6,20 12,20C 16.4,20 20,16.4 20,12 Z M 22,12C 22,17.5 17.5,22 12,22C 6.5,22 2,17.5 2,12C 2,6.5 6.5,2.00001 12,2.00001C 17.5,2.00001 22,6.5 22,12 Z M 15.5,8C 16.3,8 17,8.7 17,9.5C 17,10.3 16.3,11 15.5,11C 14.7,11 14,10.3 14,9.5C 14,8.7 14.7,8 15.5,8 Z M 10,9.5C 10,10.3 9.3,11 8.5,11C 7.7,11 7,10.3 7,9.5C 7,8.7 7.7,8 8.5,8C 9.3,8 10,8.7 10,9.5 Z M 12,14C 13.7524,14 15.2943,14.7212 16.1871,15.8129L 14.7697,17.2302C 14.3175,16.5078 13.2477,16 12,16C 10.7523,16 9.68254,16.5078 9.23024,17.2302L 7.81291,15.8129C 8.7057,14.7212 10.2476,14 12,14 Z "/>
</svg>
