<?xml version="1.0" encoding="utf-8"?>
<!DOCTYPE svg PUBLIC "-//W3C//DTD SVG 1.1//EN" "http://www.w3.org/Graphics/SVG/1.1/DTD/svg11.dtd">
<svg xmlns="http://www.w3.org/2000/svg" xmlns:xlink="http://www.w3.org/1999/xlink" version="1.1" baseProfile="full" width="24" height="24" viewBox="0 0 24.00 24.00" enable-background="new 0 0 24.00 24.00" xml:space="preserve">
	<path fill="#000000" fill-opacity="1" stroke-width="1.33333" stroke-linejoin="miter" d="M 1.5,2.09C 2.4,3 3.87,3.73 5.69,4.25C 7.41,2.84 9.61,2 12,2C 14.39,2 16.59,2.84 18.31,4.25C 20.13,3.73 21.6,3 22.5,2.09C 22.47,3.72 21.65,5.21 20.28,6.4C 21.37,8 22,9.92 22,12C 22,17.5228 17.5228,22 12,22C 6.47715,22 2,17.5228 2,12C 2,9.92 2.63,8 3.72,6.4C 2.35,5.21 1.53,3.72 1.5,2.09M 20,12C 20,7.5817 16.4183,4 12,4C 7.58172,4 4,7.5817 4,12C 4,16.4183 7.58172,20 12,20C 16.4183,20 20,16.4183 20,12M 10.5,10C 10.5,10.8 9.8,11.5 9,11.5C 8.2,11.5 7.5,10.8 7.5,10L 7.5,8.5L 10.5,10M 16.5,10C 16.5,10.8 15.8,11.5 15,11.5C 14.2,11.5 13.5,10.8 13.5,10L 16.5,8.5L 16.5,10M 12,17.23C 10.25,17.23 8.71,16.5 7.81,15.42L 9.23,14C 9.68,14.72 10.75,15.23 12,15.23C 13.25,15.23 14.32,14.72 14.77,14L 16.19,15.42C 15.29,16.5 13.75,17.23 12,17.23 Z "/>
</svg>
