<?xml version="1.0" encoding="utf-8"?>
<!DOCTYPE svg PUBLIC "-//W3C//DTD SVG 1.1//EN" "http://www.w3.org/Graphics/SVG/1.1/DTD/svg11.dtd">
<svg xmlns="http://www.w3.org/2000/svg" xmlns:xlink="http://www.w3.org/1999/xlink" version="1.1" baseProfile="full" width="24" height="24" viewBox="0 0 24.00 24.00" enable-background="new 0 0 24.00 24.00" xml:space="preserve">
	<path fill="#000000" fill-opacity="1" stroke-width="1.33333" stroke-linejoin="miter" d="M 12,2C 6.47,2 2,6.47 2,12C 2,17.53 6.47,22 12,22C 17.523,22 22,17.523 22,12C 22,6.47 17.5,2 12,2 Z M 8.88,7.82L 11,9.94L 9.94,11L 8.88,9.94L 7.82,11L 6.76,9.94L 8.88,7.82 Z M 12,17.5C 9.67,17.5 7.69,16.04 6.89,14L 17.11,14C 16.31,16.04 14.33,17.5 12,17.5 Z M 16.18,11L 15.12,9.94L 14.06,11L 13,9.94L 15.12,7.82L 17.24,9.94L 16.18,11 Z "/>
</svg>
