<?xml version="1.0" encoding="utf-8"?>
<!DOCTYPE svg PUBLIC "-//W3C//DTD SVG 1.1//EN" "http://www.w3.org/Graphics/SVG/1.1/DTD/svg11.dtd">
<svg xmlns="http://www.w3.org/2000/svg" xmlns:xlink="http://www.w3.org/1999/xlink" version="1.1" baseProfile="full" width="24" height="24" viewBox="0 0 24.00 24.00" enable-background="new 0 0 24.00 24.00" xml:space="preserve">
	<path fill="#000000" fill-opacity="1" stroke-width="1.33333" stroke-linejoin="miter" d="M 3.217,7.217C 4.913,4.109 8.21,2 12,2C 15.79,2 19.087,4.109 20.783,7.217L 20,8L 4,8L 3.217,7.217 Z M 21.396,8.604C 21.78,9.666 22,10.806 22,12C 22,17.523 17.523,22 12,22C 6.477,22 2,17.523 2,12C 2,10.806 2.22,9.666 2.604,8.604L 4,10L 5,10C 5,11.38 7.12,12.5 8.5,12.5C 9.88,12.5 11.25,11.38 11.25,10L 12.75,10C 12.75,11.38 14.12,12.5 15.5,12.5C 16.88,12.5 19,11.38 19,10L 20,10L 21.396,8.604 Z M 16.19,15.42L 14.77,14C 14.32,14.72 13.25,15.23 12,15.23C 10.75,15.23 9.68,14.72 9.23,14L 7.81,15.42C 8.71,16.5 10.25,17.23 12,17.23C 13.75,17.23 15.29,16.5 16.19,15.42 Z "/>
</svg>
