<?xml version="1.0" encoding="utf-8"?>
<!DOCTYPE svg PUBLIC "-//W3C//DTD SVG 1.1//EN" "http://www.w3.org/Graphics/SVG/1.1/DTD/svg11.dtd">
<svg xmlns="http://www.w3.org/2000/svg" xmlns:xlink="http://www.w3.org/1999/xlink" version="1.1" baseProfile="full" width="24" height="24" viewBox="0 0 24.00 24.00" enable-background="new 0 0 24.00 24.00" xml:space="preserve">
	<path fill="#000000" fill-opacity="1" stroke-width="1.33333" stroke-linejoin="miter" d="M 18.9,18.939L 15.937,15.976C 15.76,15.794 15.549,15.487 15.549,15.049C 15.549,14.332 16.132,13.749 16.849,13.749C 17.187,13.749 17.528,13.893 17.774,14.145L 18.905,15.256L 20.029,14.13C 20.268,13.892 20.612,13.749 20.95,13.749C 21.667,13.749 22.25,14.332 22.25,15.049C 22.25,15.392 22.111,15.727 21.87,15.969L 18.9,18.939 Z M 17.463,19.623C 15.72,21.103 13.466,22 11,22C 5.477,22 1,17.523 1,12C 1,6.477 5.477,2 11,2C 16.523,2 21,6.477 21,12C 21,12.086 20.989,12.169 20.95,12.25C 20.214,12.25 19.492,12.549 18.97,13.069L 18.896,13.143L 18.837,13.086C 18.318,12.554 17.595,12.249 16.85,12.249C 15.306,12.249 14.05,13.505 14.05,15.049C 14.05,15.783 14.339,16.485 14.87,17.029L 17.463,19.623 Z M 13,9.5C 13,10.3 13.7,11 14.5,11C 15.3,11 16,10.3 16,9.5C 16,8.7 15.3,8 14.5,8C 13.7,8 13,8.7 13,9.5 Z M 9,9.5C 9,8.7 8.3,8 7.5,8C 6.7,8 6,8.7 6,9.5C 6,10.3 6.7,11 7.5,11C 8.3,11 9,10.3 9,9.5 Z M 12.94,15.18L 14,14.12L 11.88,12L 10.82,13.06L 11.88,14.12L 10.82,15.18L 11.88,16.24L 10.82,17.3L 11.88,18.36L 14,16.24L 12.94,15.18 Z "/>
</svg>
