<?xml version="1.0" encoding="utf-8"?>
<!DOCTYPE svg PUBLIC "-//W3C//DTD SVG 1.1//EN" "http://www.w3.org/Graphics/SVG/1.1/DTD/svg11.dtd">
<svg xmlns="http://www.w3.org/2000/svg" xmlns:xlink="http://www.w3.org/1999/xlink" version="1.1" baseProfile="full" width="24" height="24" viewBox="0 0 24.00 24.00" enable-background="new 0 0 24.00 24.00" xml:space="preserve">
	<path fill="#000000" fill-opacity="1" stroke-width="1.33333" stroke-linejoin="miter" d="M 12,2C 6.477,2 2,6.477 2,12C 2,17.523 6.477,22 12,22C 17.523,22 22,17.523 22,12C 22,6.477 17.523,2 12,2 Z M 7,9.5C 7,8.7 7.7,8 8.5,8C 9.3,8 10,8.7 10,9.5C 10,10.3 9.3,11 8.5,11C 7.7,11 7,10.3 7,9.5 Z M 12,17.23C 10.25,17.23 8.71,16.5 7.81,15.42L 9.23,14C 9.68,14.72 10.75,15.23 12,15.23C 13.25,15.23 14.32,14.72 14.77,14L 16.19,15.42C 15.29,16.5 13.75,17.23 12,17.23 Z M 17,10L 13,10L 13,9L 17,9L 17,10 Z "/>
</svg>
