<?xml version="1.0" encoding="utf-8"?>
<!DOCTYPE svg PUBLIC "-//W3C//DTD SVG 1.1//EN" "http://www.w3.org/Graphics/SVG/1.1/DTD/svg11.dtd">
<svg xmlns="http://www.w3.org/2000/svg" xmlns:xlink="http://www.w3.org/1999/xlink" version="1.1" baseProfile="full" width="24" height="24" viewBox="0 0 24.00 24.00" enable-background="new 0 0 24.00 24.00" xml:space="preserve">
	<path fill="#000000" fill-opacity="1" stroke-width="1.33333" stroke-linejoin="miter" d="M 12,2C 6.47,2 2,6.5 2,12C 2,17.523 6.477,22 12,22C 17.523,22 22,17.523 22,12C 22,6.477 17.523,2 12,2 Z M 15.5,8C 16.328,8 17,8.672 17,9.5C 17,10.328 16.328,11 15.5,11C 14.672,11 14,10.328 14,9.5C 14,8.672 14.672,8 15.5,8 Z M 8.5,8C 9.328,8 10,8.672 10,9.5C 10,10.328 9.328,11 8.5,11C 7.672,11 7,10.328 7,9.5C 7,8.672 7.672,8 8.5,8 Z M 12,17.5C 9.67,17.5 7.69,16.04 6.89,14L 17.11,14C 16.3,16.04 14.33,17.5 12,17.5 Z "/>
</svg>
