<?xml version="1.0" encoding="utf-8"?>
<!DOCTYPE svg PUBLIC "-//W3C//DTD SVG 1.1//EN" "http://www.w3.org/Graphics/SVG/1.1/DTD/svg11.dtd">
<svg xmlns="http://www.w3.org/2000/svg" xmlns:xlink="http://www.w3.org/1999/xlink" version="1.1" baseProfile="full" width="24" height="24" viewBox="0 0 24.00 24.00" enable-background="new 0 0 24.00 24.00" xml:space="preserve">
	<path fill="#000000" fill-opacity="1" stroke-width="1.33333" stroke-linejoin="miter" d="M 7.571,20C 6.232,20 5.142,18.911 5.142,17.571C 5.142,16.514 6.32,14.519 7.571,12.805C 8.822,14.519 10,16.514 10,17.571C 10,18.911 8.911,20 7.571,20 Z M 12,2C 6.477,2 2,6.477 2,12C 2,13.745 2.449,15.384 3.235,16.812C 3.403,15.988 3.805,15.072 4.307,14.172C 4.112,13.481 4,12.754 4,12C 4,7.582 7.582,4 12,4C 16.418,4 20,7.582 20,12C 20,16.418 16.418,20 12,20C 11.761,20 11.525,19.985 11.291,19.964C 10.82,20.696 10.144,21.28 9.338,21.63C 10.187,21.865 11.077,22 12,22C 17.523,22 22,17.523 22,12C 22,6.477 17.523,2 12,2 Z M 12,14C 11.588,14 11.189,14.043 10.806,14.118C 11.164,14.754 11.471,15.398 11.686,16.015C 11.789,16.009 11.893,16 12,16C 13.25,16 14.32,16.5 14.77,17.23L 16.19,15.81C 15.29,14.72 13.75,14 12,14 Z M 15.5,8C 14.7,8 14,8.7 14,9.5C 14,10.3 14.7,11 15.5,11C 16.3,11 17,10.3 17,9.5C 17,8.7 16.3,8 15.5,8M 10,9.5C 10,8.7 9.3,8 8.5,8C 7.7,8 7,8.7 7,9.5C 7,10.3 7.7,11 8.5,11C 9.3,11 10,10.3 10,9.5"/>
</svg>
