<?xml version="1.0" encoding="utf-8"?>
<!DOCTYPE svg PUBLIC "-//W3C//DTD SVG 1.1//EN" "http://www.w3.org/Graphics/SVG/1.1/DTD/svg11.dtd">
<svg xmlns="http://www.w3.org/2000/svg" xmlns:xlink="http://www.w3.org/1999/xlink" version="1.1" baseProfile="full" width="24" height="24" viewBox="0 0 24.00 24.00" enable-background="new 0 0 24.00 24.00" xml:space="preserve">
	<path fill="#000000" fill-opacity="1" stroke-width="1.33333" stroke-linejoin="miter" d="M 21.42,13.87C 21.2,13.41 20.84,12.94 20.25,12.64C 19.85,12.39 19.5,12.26 19.24,12.2C 19.5,11.25 19.13,10.5 18.62,9.94C 17.85,9.12 17.06,9 17.06,9C 17.32,8.5 17.42,7.9 17.28,7.32C 17.12,6.61 16.73,6.16 16.22,5.86C 15.7,5.55 15.06,5.4 14.4,5.28C 14.08,5.22 12.75,5.03 12.2,4.27C 11.75,3.65 11.74,2.53 11.62,2.2C 11.57,2.07 11.5,2 11.36,2C 11.15,2 10.87,2.12 10.57,2.32C 10,2.7 8.85,3.9 8.4,5.1C 8.06,6 8.05,6.82 8.19,7.43C 7.63,7.53 7.22,7.71 7.06,7.78C 6.55,8 5.47,8.96 5.37,10.45C 5.344,10.894 5.406,11.342 5.52,11.775C 5.505,11.86 5.485,11.944 5.476,12.031C 4.879,12.216 4.528,12.431 4.5,12.44C 4.18,12.56 3.65,12.93 3.5,13.13C 3.15,13.53 2.92,14 2.79,14.5C 2.5,15.59 2.6,16.83 3.13,17.83C 3.42,18.39 3.82,19 4.26,19.43C 5.7,20.91 8.18,21.47 10.14,21.79C 10.962,21.928 11.798,22.001 12.631,22.001C 14.219,22.001 15.798,21.733 17.26,21.13C 20.61,19.74 21.5,17.5 21.64,16.89C 21.93,15.5 21.57,14.19 21.42,13.87 Z M 16.05,11.33C 16.61,11.36 17.04,11.84 17,12.4C 16.96,12.95 16.5,13.38 15.91,13.34C 15.35,13.31 14.92,12.83 14.96,12.28C 15,11.75 15.42,11.35 15.94,11.33C 16,11.33 16,11.33 16.05,11.33 Z M 20.178,16.554C 20.174,16.573 19.701,18.492 16.688,19.743C 15.469,20.246 14.104,20.501 12.631,20.501C 11.899,20.501 11.144,20.437 10.382,20.309C 8.763,20.045 6.478,19.557 5.309,18.357C 5.035,18.089 4.718,17.634 4.456,17.127C 4.117,16.488 4.037,15.65 4.242,14.877C 4.32,14.578 4.45,14.322 4.629,14.117L 4.65,14.094C 4.741,14.015 4.947,13.879 5.027,13.844L 5.027,13.843L 5.144,13.799L 5.261,13.735C 5.318,13.704 5.46,13.628 5.672,13.547C 6.129,14.81 7.275,15.697 8.594,15.697C 8.669,15.697 8.744,15.694 8.82,15.688C 9.652,15.625 10.406,15.219 10.943,14.548C 11.473,13.886 11.728,13.041 11.66,12.174C 11.543,10.503 10.215,9.157 8.637,9.109L 8.62,9.109C 8.511,9.109 8.402,9.11 8.312,9.121C 8.01,9.145 7.728,9.227 7.459,9.335C 7.55,9.242 7.63,9.171 7.663,9.153C 7.785,9.1 8.071,8.975 8.454,8.907L 10.005,8.63L 9.652,7.094C 9.606,6.895 9.53,6.354 9.805,5.627C 9.964,5.202 10.269,4.755 10.577,4.383C 10.678,4.647 10.81,4.908 10.985,5.149C 11.765,6.226 13.115,6.575 14.063,6.743L 14.132,6.755C 14.603,6.841 15.128,6.954 15.46,7.152C 15.669,7.275 15.762,7.405 15.822,7.671C 15.87,7.87 15.836,8.102 15.729,8.307L 15.209,9.203C 13.951,9.516 12.949,10.638 12.792,12.055C 12.592,13.868 13.784,15.458 15.514,15.676C 15.624,15.689 15.736,15.695 15.845,15.695C 16.56,15.695 17.25,15.435 17.818,14.948C 18.234,14.59 18.538,14.132 18.737,13.623L 18.903,13.661C 18.975,13.678 19.174,13.736 19.455,13.911L 19.511,13.946L 19.57,13.976C 19.782,14.084 19.944,14.26 20.054,14.488C 20.127,14.668 20.376,15.603 20.178,16.554 Z M 7.64,12.45C 7.57,11.9 7.97,11.39 8.53,11.32C 8.57,11.31 8.6,11.31 8.64,11.31C 9.15,11.3 9.61,11.67 9.67,12.19C 9.73,12.74 9.33,13.25 8.77,13.32C 8.21,13.39 7.7,13 7.64,12.45 Z M 8.71,16.15C 9,16.14 9.26,16.23 9.5,16.28C 10.68,16.5 11.7,16.53 12.19,16.53C 12.68,16.53 13.69,16.5 14.86,16.28C 15.27,16.2 15.74,16.03 16.11,16.28C 16.59,16.6 16.24,17.75 15.5,18.53C 15.04,19 13.97,19.91 12.19,19.91C 10.41,19.91 9.33,19 8.88,18.53C 8.14,17.75 7.79,16.6 8.26,16.28C 8.4,16.19 8.55,16.15 8.71,16.15 Z "/>
</svg>
