<?xml version="1.0" encoding="utf-8"?>
<!DOCTYPE svg PUBLIC "-//W3C//DTD SVG 1.1//EN" "http://www.w3.org/Graphics/SVG/1.1/DTD/svg11.dtd">
<svg xmlns="http://www.w3.org/2000/svg" xmlns:xlink="http://www.w3.org/1999/xlink" version="1.1" baseProfile="full" width="24" height="24" viewBox="0 0 24.00 24.00" enable-background="new 0 0 24.00 24.00" xml:space="preserve">
	<path fill="#000000" fill-opacity="1" stroke-width="1.33333" stroke-linejoin="miter" d="M 2.5,3.77001L 6.865,8.135L 5,10L 5,13L 3,13L 3,10L 1,10L 1,18L 3,18L 3,15L 5,15L 5,18L 8,18L 10,20L 18,20L 18,19.271L 21.23,22.5L 22.5,21.22L 3.78,2.50001L 2.5,3.77001 Z M 16,18L 11,18L 9,16L 7,16L 7,11L 8,10L 8.729,10L 16,17.271L 16,18 Z M 23,9L 23,19L 22.821,19L 16,12.179L 16,10L 13.821,10L 7.821,4L 15,4L 15,6L 12,6L 12,8L 18,8L 18,12L 20,12L 20,9L 23,9 Z "/>
</svg>
