<?xml version="1.0" encoding="utf-8"?>
<!DOCTYPE svg PUBLIC "-//W3C//DTD SVG 1.1//EN" "http://www.w3.org/Graphics/SVG/1.1/DTD/svg11.dtd">
<svg xmlns="http://www.w3.org/2000/svg" xmlns:xlink="http://www.w3.org/1999/xlink" version="1.1" baseProfile="full" width="24" height="24" viewBox="0 0 24.00 24.00" enable-background="new 0 0 24.00 24.00" xml:space="preserve">
	<path fill="#000000" fill-opacity="1" stroke-linejoin="round" d="M 7,4L 7,6L 10,6L 10,8L 7,8L 5,10L 5,13L 3,13L 3,10L 1,10L 1,18L 3,18L 3,15L 5,15L 5,18L 8,18L 10,20L 18,20L 18,16L 20,16L 20,19L 23,19L 23,9L 20,9L 20,12L 18,12L 18,8L 12,8L 12,6L 15,6L 15,4L 7,4 Z "/>
</svg>
