<?xml version="1.0" encoding="utf-8"?>
<!DOCTYPE svg PUBLIC "-//W3C//DTD SVG 1.1//EN" "http://www.w3.org/Graphics/SVG/1.1/DTD/svg11.dtd">
<svg xmlns="http://www.w3.org/2000/svg" xmlns:xlink="http://www.w3.org/1999/xlink" version="1.1" baseProfile="full" width="24" height="24" viewBox="0 0 24.00 24.00" enable-background="new 0 0 24.00 24.00" xml:space="preserve">
	<path fill="#000000" fill-opacity="1" stroke-width="1.33333" stroke-linejoin="miter" d="M 15,21L 9,21L 9,3L 15,3L 15,21 Z M 11,19L 13,19L 13,5L 11,5L 11,19 Z M 8,21L 2,21L 2,11L 8,11L 8,21 Z M 4,19L 6,19L 6,13L 4,13L 4,19 Z M 22,21L 16,21L 16,8L 22,8L 22,21 Z M 18,19L 20,19L 20,10L 18,10L 18,19 Z "/>
</svg>
