<?xml version="1.0" encoding="utf-8"?>
<!DOCTYPE svg PUBLIC "-//W3C//DTD SVG 1.1//EN" "http://www.w3.org/Graphics/SVG/1.1/DTD/svg11.dtd">
<svg xmlns="http://www.w3.org/2000/svg" xmlns:xlink="http://www.w3.org/1999/xlink" version="1.1" baseProfile="full" width="24" height="24" viewBox="0 0 24.00 24.00" enable-background="new 0 0 24.00 24.00" xml:space="preserve">
	<path fill="#000000" fill-opacity="1" stroke-width="1.33333" stroke-linejoin="miter" d="M 7.9507,9.55111L 11.8426,7.30417C 11.9399,7.24792 12.06,7.24792 12.1574,7.30417L 16.0493,9.55111C 16.1466,9.60736 16.2068,9.71127 16.2068,9.82377L 16.2068,14.3177C 16.2068,14.4301 16.1466,14.5341 16.0493,14.5904L 12.1574,16.8373C 12.06,16.8936 11.9399,16.8936 11.8426,16.8373L 7.9507,14.5904C 7.85331,14.5341 7.79328,14.4302 7.79328,14.3177L 7.79328,9.82377C 7.79336,9.71127 7.85339,9.60736 7.9507,9.55111 Z M 22.1189,11.598C 22.2879,11.8905 22.2879,12.2334 22.1188,12.5259L 17.4688,20.5624C 17.2999,20.855 16.9878,21 16.6501,21L 7.34995,21C 7.01213,21 6.70002,20.8505 6.53111,20.558L 1.88108,12.5345C 1.71217,12.242 1.71217,11.8727 1.88108,11.5801L 6.53111,3.50826C 6.70002,3.21576 7.01213,3 7.34995,3L 16.6502,3C 16.9879,3 17.2999,3.21576 17.4688,3.50826L 22.1189,11.598 Z M 18.2684,15.4881L 18.2684,8.65329C 18.2684,8.53428 18.1958,8.42435 18.0927,8.3648L 12.1646,4.94745C 12.0616,4.88791 11.9327,4.88791 11.8297,4.94745L 5.90681,8.3648C 5.80372,8.42435 5.73268,8.53428 5.73268,8.65329L 5.73268,15.4881C 5.73268,15.6071 5.80476,15.717 5.90778,15.7765L 11.8355,19.1939C 11.9385,19.2534 12.0676,19.2534 12.1706,19.1939L 18.0937,15.7765C 18.1968,15.717 18.2684,15.607 18.2684,15.4881 Z "/>
</svg>
