<?xml version="1.0" encoding="utf-8"?>
<!DOCTYPE svg PUBLIC "-//W3C//DTD SVG 1.1//EN" "http://www.w3.org/Graphics/SVG/1.1/DTD/svg11.dtd">
<svg xmlns="http://www.w3.org/2000/svg" xmlns:xlink="http://www.w3.org/1999/xlink" version="1.1" baseProfile="full" width="24" height="24" viewBox="0 0 24.00 24.00" enable-background="new 0 0 24.00 24.00" xml:space="preserve">
	<path fill="#000000" fill-opacity="1" stroke-width="1.33333" stroke-linejoin="miter" d="M 23,8.781L 21.708,7.219C 21.447,7.422 20.53,8 19.771,8C 19.26,8 18.301,7.752 17.454,7.534C 16.39,7.259 15.385,7 14.604,7C 14.007,7 13.431,7.151 12.934,7.347C 12.621,5.451 10.986,4 9,4C 4.582,4 2,7.582 2,12C 2,16.418 5.582,19 10,19C 12.057,19 13.925,18.433 15.342,17.388L 15,21.292L 16.992,21.466L 18.018,9.737C 18.664,9.887 19.267,10 19.771,10C 21.378,10 22.839,8.906 23,8.781 Z M 9,6C 10.103,6 11,6.897 11,8C 11,9.103 10.103,10 9,10L 4.232,10C 4.795,7.673 6.394,6 9,6 Z M 10,17C 6.692,17 4,15.308 4,12L 9,12C 10.596,12 11.831,11.165 12.5,9.911L 12.5,9.911C 12.762,9.709 13.845,9 14.604,9C 14.943,9 15.483,9.112 16.053,9.249L 15.647,13.887C 14.82,15.947 12.604,17 10,17 Z "/>
</svg>
