<?xml version="1.0" encoding="utf-8"?>
<!DOCTYPE svg PUBLIC "-//W3C//DTD SVG 1.1//EN" "http://www.w3.org/Graphics/SVG/1.1/DTD/svg11.dtd">
<svg xmlns="http://www.w3.org/2000/svg" xmlns:xlink="http://www.w3.org/1999/xlink" version="1.1" baseProfile="full" width="24" height="24" viewBox="0 0 24.00 24.00" enable-background="new 0 0 24.00 24.00" xml:space="preserve">
	<path fill="#000000" fill-opacity="1" stroke-width="1.33333" stroke-linejoin="miter" d="M 7,15L 9,15L 9,18L 11,18L 11,15L 13,15L 13,18L 15,18L 15,15L 17,15L 17,18L 19,18L 19,9L 15,9L 15,6L 9,6L 9,9L 5,9L 5,18L 7,18L 7,15 Z M 4.37502,3L 19.625,3C 20.9367,3 22,4.0634 22,5.375L 22,19.625C 22,20.9366 20.9367,22 19.625,22L 4.37502,22C 3.06333,22 2,20.9366 2,19.625L 2,5.375C 2,4.0634 3.06333,3 4.37502,3 Z "/>
</svg>
