<?xml version="1.0" encoding="utf-8"?>
<!DOCTYPE svg PUBLIC "-//W3C//DTD SVG 1.1//EN" "http://www.w3.org/Graphics/SVG/1.1/DTD/svg11.dtd">
<svg xmlns="http://www.w3.org/2000/svg" xmlns:xlink="http://www.w3.org/1999/xlink" version="1.1" baseProfile="full" width="24" height="24" viewBox="0 0 24.00 24.00" enable-background="new 0 0 24.00 24.00" xml:space="preserve">
	<path fill="#000000" fill-opacity="1" stroke-width="1.33333" stroke-linejoin="miter" d="M 22,6.23C 21.9948,4.8774 21.1372,3.6752 19.86,3.23C 18.91,2.92 5.34,2 4.89,2C 4.04178,2.0892 3.26601,2.5186 2.74,3.19C 2.2615,3.7464 1.99887,4.4562 2,5.19C 2,9.6967 2,14.2033 2,18.71C 1.9762,19.7676 2.47336,20.7694 3.33,21.39C 3.87638,21.8052 4.54375,22.03 5.23,22.03C 5.71,22.03 18.02,21.03 18.83,20.97C 19.6469,20.9201 20.418,20.5754 21,20C 21.6229,19.4532 21.9861,18.6688 22,17.84C 22,15.88 22,8.15 22,6.23 Z M 17.61,7.48C 17.5645,7.6261 17.5111,7.7697 17.45,7.91C 17.3154,8.2901 16.942,8.5322 16.54,8.5C 15.44,8.5 11.95,8.5 11.31,8.45C 11.13,8.45 11.06,8.5 11.03,8.69C 10.9,9.38 10.74,10.07 10.58,10.8L 14.46,10.8C 14.5664,10.7884 14.6737,10.7884 14.78,10.8C 15.36,10.93 15.52,11.11 15.47,11.7C 15.4307,12.0124 15.3323,12.3144 15.18,12.59C 15.0118,12.8612 14.7086,13.0186 14.39,13L 14.13,13L 10.3,13C 10.17,13 10.09,13 10.06,13.16L 9.59,15.44L 9.59,15.54L 9.86,15.54L 14.93,15.54C 15.3214,15.4972 15.689,15.7353 15.81,16.11C 15.96,16.8059 15.6291,17.5167 15,17.85C 14.844,17.8969 14.6827,17.9238 14.52,17.93C 13.82,17.93 8.32,18.07 7.93,18.07C 7.59894,18.0831 7.27259,17.9883 7,17.8C 6.69442,17.5657 6.55052,17.1768 6.63,16.8C 6.73,16.14 8.29,8.52 8.57,7.33C 8.64274,6.5214 9.3572,5.9249 10.19,6C 11.19,6 16.01,6.1 16.75,6.14C 17.49,6.18 17.85,6.64 17.61,7.48 Z "/>
</svg>
