<?xml version="1.0" encoding="utf-8"?>
<!DOCTYPE svg PUBLIC "-//W3C//DTD SVG 1.1//EN" "http://www.w3.org/Graphics/SVG/1.1/DTD/svg11.dtd">
<svg xmlns="http://www.w3.org/2000/svg" xmlns:xlink="http://www.w3.org/1999/xlink" version="1.1" baseProfile="full" width="24" height="24" viewBox="0 0 24.00 24.00" enable-background="new 0 0 24.00 24.00" xml:space="preserve">
	<path fill="#000000" fill-opacity="1" stroke-width="1.33333" stroke-linejoin="miter" d="M 12,17.5C 10.1456,17.497 8.41844,16.5563 7.41,15L 17.41,12.75L 22.08,11.75C 22.0501,10.3235 21.7089,8.9208 21.08,7.64C 18.6573,2.6094 12.6152,0.4953 7.58456,2.918C 2.55395,5.3407 0.43984,11.3828 2.86255,16.4134C 5.28527,21.444 11.3274,23.5581 16.358,21.1354C 18.5248,20.0919 20.2487,18.3101 21.22,16.11L 16.61,15C 15.6003,16.5651 13.8625,17.5075 12,17.5 Z M 12,6.5C 13.7597,6.4955 15.4133,7.3409 16.44,8.77L 6.57,11.19C 6.96271,8.4943 9.27589,6.4964 12,6.5 Z "/>
</svg>
