<?xml version="1.0" encoding="utf-8"?>
<!DOCTYPE svg PUBLIC "-//W3C//DTD SVG 1.1//EN" "http://www.w3.org/Graphics/SVG/1.1/DTD/svg11.dtd">
<svg xmlns="http://www.w3.org/2000/svg" xmlns:xlink="http://www.w3.org/1999/xlink" version="1.1" baseProfile="full" width="24" height="24" viewBox="0 0 24.00 24.00" enable-background="new 0 0 24.00 24.00" xml:space="preserve">
	<path fill="#000000" fill-opacity="1" stroke-width="0.2" stroke-linejoin="miter" d="M 13.344,8.16605C 12.4128,8.16605 11.651,7.40425 11.651,6.47302C 11.651,5.54186 12.4128,4.78 13.344,4.78C 14.2752,4.78 15.037,5.54186 15.037,6.47302C 15.037,7.40425 14.2752,8.16605 13.344,8.16605 Z M 10.2965,19.9326L 4.37096,18.7474L 4.70957,17.0544L 8.85747,17.9009L 10.2119,11.0442L 8.68817,11.6367L 8.68817,14.5149L 6.99515,14.5149L 6.99515,10.5363L 11.397,8.67402L 12.0742,8.5893C 12.6668,8.5893 13.1747,8.92791 13.5133,9.43581L 14.3598,10.7902C 15.037,11.9754 16.3913,12.8219 18,12.8219L 18,14.5149C 16.1375,14.5149 14.4445,13.6684 13.344,12.3986L 12.8361,14.9381L 14.6138,16.6312L 14.6138,22.98L 12.9207,22.98L 12.9207,17.9009L 11.1431,16.2079L 10.2965,19.9326 Z M 21,23L 19,23L 19,3L 6,3L 6,16.1147L 4,15.6896L 4,1L 21,1L 21,23 Z M 6,23L 4,23L 4,19.779L 6,20.2041L 6,23 Z "/>
</svg>
