<?xml version="1.0" encoding="utf-8"?>
<!DOCTYPE svg PUBLIC "-//W3C//DTD SVG 1.1//EN" "http://www.w3.org/Graphics/SVG/1.1/DTD/svg11.dtd">
<svg xmlns="http://www.w3.org/2000/svg" xmlns:xlink="http://www.w3.org/1999/xlink" version="1.1" baseProfile="full" width="24" height="24" viewBox="0 0 24.00 24.00" enable-background="new 0 0 24.00 24.00" xml:space="preserve">
	<path fill="#000000" fill-opacity="1" stroke-width="1.33333" stroke-linejoin="miter" d="M 18,8L 8,8L 8,18L 6,18L 6,8C 6,6.9 6.9,6 8,6L 18,6L 18,8 Z M 14,2L 4,2C 2.9,2 2,2.9 2,4L 2,14L 4,14L 4,4L 14,4L 14,2 Z M 22,12L 22,20C 22,21.1 21.1,22 20,22L 12,22C 10.9,22 10,21.1 10,20L 10,12C 10,10.9 10.9,10 12,10L 20,10C 21.1,10 22,10.9 22,12 Z M 20,15L 17,15L 17,12L 15,12L 15,15L 12,15L 12,17L 15,17L 15,20L 17,20L 17,17L 20,17L 20,15 Z "/>
</svg>
