<?xml version="1.0" encoding="utf-8"?>
<!DOCTYPE svg PUBLIC "-//W3C//DTD SVG 1.1//EN" "http://www.w3.org/Graphics/SVG/1.1/DTD/svg11.dtd">
<svg xmlns="http://www.w3.org/2000/svg" xmlns:xlink="http://www.w3.org/1999/xlink" version="1.1" baseProfile="full" width="24" height="24" viewBox="0 0 24.00 24.00" enable-background="new 0 0 24.00 24.00" xml:space="preserve">
	<path fill="#000000" fill-opacity="1" stroke-width="1.33333" stroke-linejoin="miter" d="M 5,3C 3.89,3 3,3.89 3,5L 3,19C 3,20.1046 3.89543,21 5,21L 19,21C 20.1046,21 21,20.1046 21,19L 21,5C 21,3.8954 20.1046,3 19,3L 5,3 Z M 13.756,6L 15.386,6L 16.5,8.596L 17.586,6L 19.238,6C 19.238,6 17.502,10.571 16.463,12.318C 16.083,12.888 15.345,13.265 14.486,13.25L 14.514,11.75C 14.957,11.758 15.246,11.518 15.508,11.127C 15.608,10.977 15.683,10.803 15.744,10.639L 13.756,6 Z M 6.414,9.586L 9.207,12.379L 12,9.586L 13.414,11L 10.621,13.793L 13.414,16.586L 12,18L 9.207,15.207L 6.414,18L 5,16.586L 7.793,13.793L 5,11L 6.414,9.586 Z "/>
</svg>
