<?xml version="1.0" encoding="utf-8"?>
<!DOCTYPE svg PUBLIC "-//W3C//DTD SVG 1.1//EN" "http://www.w3.org/Graphics/SVG/1.1/DTD/svg11.dtd">
<svg xmlns="http://www.w3.org/2000/svg" xmlns:xlink="http://www.w3.org/1999/xlink" version="1.1" baseProfile="full" width="24" height="24" viewBox="0 0 24.00 24.00" enable-background="new 0 0 24.00 24.00" xml:space="preserve">
	<path fill="#050708" fill-opacity="1" stroke-width="0.2" stroke-linejoin="round" d="M 23.5,17L 18.5,21.9979L 15,18.5L 16.5,17L 18.5,19L 22,15.5L 23.5,17 Z M 12,8.99992C 13.657,8.99992 15,10.3429 15,11.9999C 15,13.6569 13.657,14.9999 12,14.9999C 10.343,14.9999 9,13.6569 9,11.9999C 9,10.3429 10.343,8.99992 12,8.99992 Z M 12,4.50001C 17.0029,4.50001 21.272,7.61101 22.9999,12C 22.7457,12.6458 22.4364,13.2639 22.0779,13.8485C 21.5001,13.5026 20.8592,13.2511 20.1767,13.1153L 20.8164,12C 19.1732,8.64454 15.7591,6.50001 12,6.50001C 8.23961,6.50001 4.82554,8.64454 3.18297,12C 4.82554,15.3555 8.23896,17.5 12,17.5L 13.2087,17.4256C 13.0726,17.9273 13,18.4552 13,19L 13.0171,19.4568L 12,19.5C 6.99796,19.5 2.72797,16.389 0.999979,12C 2.72797,7.61101 6.99796,4.50001 12,4.50001 Z "/>
</svg>
