<?xml version="1.0" encoding="utf-8"?>
<!DOCTYPE svg PUBLIC "-//W3C//DTD SVG 1.1//EN" "http://www.w3.org/Graphics/SVG/1.1/DTD/svg11.dtd">
<svg xmlns="http://www.w3.org/2000/svg" xmlns:xlink="http://www.w3.org/1999/xlink" version="1.1" baseProfile="full" width="24" height="24" viewBox="0 0 24.00 24.00" enable-background="new 0 0 24.00 24.00" xml:space="preserve">
	<path fill="#050708" fill-opacity="1" stroke-width="0.2" stroke-linejoin="round" d="M 23.5,17L 18.5,21.9979L 15,18.5L 16.5,17L 18.5,19L 22,15.5L 23.5,17 Z M 11.9994,8.99813C 13.6564,8.99813 14.9994,10.3411 14.9994,11.9981C 14.9994,13.6551 13.6564,14.9981 11.9994,14.9981C 10.3424,14.9981 8.99941,13.6551 8.99941,11.9981C 8.99941,10.3411 10.3424,8.99813 11.9994,8.99813 Z M 11.9994,16.9981C 12.4924,16.9981 12.9687,16.9268 13.4186,16.7938C 13.1485,17.4767 13,18.221 13,19L 13.017,19.4549L 11.9994,19.4981C 6.99741,19.4981 2.7274,16.3871 0.99941,11.9981C 2.7274,7.60913 6.99741,4.49813 11.9994,4.49813C 17.0024,4.49813 21.2714,7.60913 22.9994,11.9981C 22.745,12.6443 22.4355,13.2629 22.0767,13.8478C 21.177,13.3094 20.1247,13 19,13C 18.2214,13 17.4774,13.1483 16.7948,13.4182C 16.9279,12.968 16.9994,12.4914 16.9994,11.9981C 16.9994,9.23715 14.7604,6.99813 11.9994,6.99813C 9.2384,6.99813 6.99941,9.23715 6.99941,11.9981C 6.99941,14.7591 9.2384,16.9981 11.9994,16.9981 Z "/>
</svg>
