<?xml version="1.0" encoding="utf-8"?>
<!DOCTYPE svg PUBLIC "-//W3C//DTD SVG 1.1//EN" "http://www.w3.org/Graphics/SVG/1.1/DTD/svg11.dtd">
<svg xmlns="http://www.w3.org/2000/svg" xmlns:xlink="http://www.w3.org/1999/xlink" version="1.1" baseProfile="full" width="24" height="24" viewBox="0 0 24.00 24.00" enable-background="new 0 0 24.00 24.00" xml:space="preserve">
	<path fill="#000000" fill-opacity="1" stroke-width="1.33333" stroke-linejoin="miter" d="M 12,22C 6.47715,22 2,17.5228 2,12C 2,6.4772 6.47715,2 12,2C 17.5228,2 22,6.4772 22,12C 22,17.5228 17.5228,22 12,22M 12,20C 16.4183,20 20,16.4183 20,12C 20,7.5817 16.4183,4 12,4C 7.58172,4 4,7.5817 4,12C 4,16.4183 7.58172,20 12,20 Z M 12,11C 12.5523,11 13,11.4477 13,12C 13,12.5523 12.5523,13 12,13C 11.4477,13 11,12.5523 11,12C 11,11.4477 11.4477,11 12,11M 12,8C 14.6282,7.9864 17.0017,9.5688 18,12C 16.6193,15.3137 12.8137,16.8807 9.5,15.5C 7.9174,14.8406 6.65942,13.5826 6,12C 6.99827,9.5688 9.37184,7.9864 12,8M 12,9.5C 10.6193,9.5 9.5,10.6193 9.5,12C 9.5,13.3807 10.6193,14.5 12,14.5C 13.3807,14.5 14.5,13.3807 14.5,12C 14.5,10.6193 13.3807,9.5 12,9.5"/>
</svg>
