<?xml version="1.0" encoding="utf-8"?>
<!DOCTYPE svg PUBLIC "-//W3C//DTD SVG 1.1//EN" "http://www.w3.org/Graphics/SVG/1.1/DTD/svg11.dtd">
<svg xmlns="http://www.w3.org/2000/svg" xmlns:xlink="http://www.w3.org/1999/xlink" version="1.1" baseProfile="full" width="24" height="24" viewBox="0 0 24.00 24.00" enable-background="new 0 0 24.00 24.00" xml:space="preserve">
	<path fill="#000000" fill-opacity="1" stroke-width="1.33333" stroke-linejoin="miter" d="M 12,4.5C 7,4.5 2.73,7.61 1,12C 2.73,16.39 7,19.5 12,19.5C 12.3641,19.5 12.7224,19.4795 13.0781,19.4473C 13.0271,19.1341 13.001,18.8173 13,18.5C 13.0013,17.9382 13.0815,17.3793 13.2383,16.8398C 12.8338,16.9448 12.4178,16.9986 12,17C 9.23858,17 7,14.7614 7,12C 7,9.2386 9.23858,7 12,7C 14.7614,7 17,9.2386 17,12C 16.9985,12.2942 16.9711,12.5876 16.918,12.877C 17.5842,12.629 18.2891,12.5013 19,12.5C 20.1684,12.5017 21.3108,12.8445 22.2871,13.4863C 22.5569,13.0097 22.7971,12.5148 23,12C 21.27,7.61 17,4.5 12,4.5 Z M 12,9C 10.3431,9 9,10.3431 9,12C 9,13.6569 10.3431,15 12,15C 13.6569,15 15,13.6569 15,12C 15,10.3431 13.6569,9 12,9 Z M 18,14.5L 18,17.5L 15,17.5L 15,19.5L 18,19.5L 18,22.5L 20,22.5L 20,19.5L 23,19.5L 23,17.5L 20,17.5L 20,14.5L 18,14.5 Z "/>
</svg>
