<?xml version="1.0" encoding="utf-8"?>
<!DOCTYPE svg PUBLIC "-//W3C//DTD SVG 1.1//EN" "http://www.w3.org/Graphics/SVG/1.1/DTD/svg11.dtd">
<svg xmlns="http://www.w3.org/2000/svg" xmlns:xlink="http://www.w3.org/1999/xlink" version="1.1" baseProfile="full" width="24" height="24" viewBox="0 0 24.00 24.00" enable-background="new 0 0 24.00 24.00" xml:space="preserve">
	<g>
		<path fill="#050708" fill-opacity="1" stroke-width="1.33333" stroke-linejoin="miter" d="M 12,9C 13.6569,9 15,10.3431 15,12C 15,13.6569 13.6569,15 12,15C 10.3431,15 9,13.6569 9,12C 9,10.3431 10.3431,9 12,9 Z M 12,4.5C 16.859,4.5037 21.2215,7.4782 23,12C 20.6109,18.0751 13.7494,21.0633 7.67422,18.6742C 4.61919,17.4728 2.2014,15.055 1,12C 2.77847,7.4782 7.14103,4.5037 12,4.5 Z M 3.18,12C 5.56444,16.8711 11.4463,18.887 16.3174,16.5026C 18.2767,15.5435 19.8609,13.9593 20.82,12C 18.4356,7.1288 12.5537,5.113 7.68259,7.4974C 5.72328,8.4565 4.13909,10.0407 3.18,12 Z M 9,22L 7,22L 7,24L 9,24L 9,22 Z M 13,22L 11,22L 11,24L 13,24L 13,22 Z M 17,22L 15,22L 15,24L 17,24L 17,22 Z "/>
	</g>
</svg>
