<?xml version="1.0" encoding="utf-8"?>
<!DOCTYPE svg PUBLIC "-//W3C//DTD SVG 1.1//EN" "http://www.w3.org/Graphics/SVG/1.1/DTD/svg11.dtd">
<svg xmlns="http://www.w3.org/2000/svg" xmlns:xlink="http://www.w3.org/1999/xlink" version="1.1" baseProfile="full" width="24" height="24" viewBox="0 0 24.00 24.00" enable-background="new 0 0 24.00 24.00" xml:space="preserve">
	<path fill="#050708" fill-opacity="1" stroke-width="2" stroke-linejoin="round" d="M 2,5.26848L 3.27711,4L 20,20.7229L 18.7315,22L 15.6548,18.9233C 14.5043,19.2976 13.276,19.5 12,19.5C 6.998,19.5 2.72801,16.389 1.00002,12C 1.69276,10.2405 2.79404,8.68635 4.18725,7.45572L 2,5.26848 Z M 12,8.99992C 13.657,8.99992 15,10.3429 15,11.9999C 15,12.3524 14.9393,12.6907 14.8276,13.0049L 10.995,9.17236C 11.3092,9.0607 11.6475,8.99992 12,8.99992 Z M 12,4.50001C 17.003,4.50001 21.272,7.61101 23,12C 22.1796,14.0838 20.7863,15.8796 19.0137,17.191L 17.5813,15.7586C 18.9398,14.8196 20.0639,13.5368 20.8165,12C 19.1733,8.64454 15.7591,6.50001 12.0001,6.50001C 10.9069,6.50001 9.84304,6.68123 8.84343,7.02075L 7.29703,5.47434C 8.73783,4.8476 10.328,4.50001 12,4.50001 Z M 3.18301,12C 4.82558,15.3555 8.239,17.5 12.0001,17.5C 12.6884,17.5 13.3651,17.4281 14.0215,17.29L 11.7184,14.9869C 10.2862,14.8536 9.1464,13.7137 9.01308,12.2816L 5.60221,8.87069C 4.60802,9.72469 3.77893,10.7827 3.18301,12 Z "/>
</svg>
