<?xml version="1.0" encoding="utf-8"?>
<!DOCTYPE svg PUBLIC "-//W3C//DTD SVG 1.1//EN" "http://www.w3.org/Graphics/SVG/1.1/DTD/svg11.dtd">
<svg xmlns="http://www.w3.org/2000/svg" xmlns:xlink="http://www.w3.org/1999/xlink" version="1.1" baseProfile="full" width="24" height="24" viewBox="0 0 24.00 24.00" enable-background="new 0 0 24.00 24.00" xml:space="preserve">
	<g>
		<path fill="#050708" fill-opacity="1" stroke-width="1.33333" stroke-linejoin="miter" d="M 12,9C 10.3431,9 9,10.3431 9,12C 9,13.6569 10.3431,15 12,15C 13.6569,15 15,13.6569 15,12C 15,10.3431 13.6569,9 12,9 Z M 12,17C 9.23858,17 7,14.7614 7,12C 7,9.2386 9.23858,7 12,7C 14.7614,7 17,9.2386 17,12C 17,14.7614 14.7614,17 12,17 Z M 12,4.5C 7.14103,4.5037 2.77847,7.4782 1,12C 3.38906,18.0751 10.2506,21.0633 16.3258,18.6742C 19.3808,17.4728 21.7986,15.055 23,12C 21.2215,7.4782 16.859,4.5037 12,4.5 Z M 7,22L 9,22L 9,24L 7,24L 7,22 Z M 11,22L 13,22L 13,24L 11,24L 11,22 Z M 15,22L 17,22L 17,24L 15,24L 15,22 Z "/>
	</g>
</svg>
