<?xml version="1.0" encoding="utf-8"?>
<!DOCTYPE svg PUBLIC "-//W3C//DTD SVG 1.1//EN" "http://www.w3.org/Graphics/SVG/1.1/DTD/svg11.dtd">
<svg xmlns="http://www.w3.org/2000/svg" xmlns:xlink="http://www.w3.org/1999/xlink" version="1.1" baseProfile="full" width="24" height="24" viewBox="0 0 24.00 24.00" enable-background="new 0 0 24.00 24.00" xml:space="preserve">
	<path fill="#000000" fill-opacity="1" stroke-width="1.33333" stroke-linejoin="miter" d="M 12,9.5C 10.6193,9.5 9.5,10.6193 9.5,12C 9.5,13.3807 10.6193,14.5 12,14.5C 13.3807,14.5 14.5,13.3807 14.5,12C 14.5,10.6193 13.3807,9.5 12,9.5 Z M 12,13C 11.4477,13 11,12.5523 11,12C 11,11.4477 11.4477,11 12,11C 12.5523,11 13,11.4477 13,12C 13,12.5523 12.5523,13 12,13 Z M 12,9.5C 10.6193,9.5 9.5,10.6193 9.5,12C 9.5,13.3807 10.6193,14.5 12,14.5C 13.3807,14.5 14.5,13.3807 14.5,12C 14.5,10.6193 13.3807,9.5 12,9.5 Z M 12,13C 11.4477,13 11,12.5523 11,12C 11,11.4477 11.4477,11 12,11C 12.5523,11 13,11.4477 13,12C 13,12.5523 12.5523,13 12,13 Z M 12,2C 6.47715,2 2,6.4772 2,12C 2,17.5228 6.47715,22 12,22C 17.5228,22 22,17.5228 22,12C 22,6.4772 17.5228,2 12,2 Z M 12,16C 9.37184,16.0136 6.99827,14.4312 6,12C 7.38071,8.6863 11.1863,7.1193 14.5,8.5C 16.0826,9.1594 17.3406,10.4174 18,12C 17.0017,14.4312 14.6282,16.0136 12,16 Z M 12,9.5C 10.6193,9.5 9.5,10.6193 9.5,12C 9.5,13.3807 10.6193,14.5 12,14.5C 13.3807,14.5 14.5,13.3807 14.5,12C 14.5,10.6193 13.3807,9.5 12,9.5 Z M 12,13C 11.4477,13 11,12.5523 11,12C 11,11.4477 11.4477,11 12,11C 12.5523,11 13,11.4477 13,12C 13,12.5523 12.5523,13 12,13 Z "/>
</svg>
