<?xml version="1.0" encoding="utf-8"?>
<!DOCTYPE svg PUBLIC "-//W3C//DTD SVG 1.1//EN" "http://www.w3.org/Graphics/SVG/1.1/DTD/svg11.dtd">
<svg xmlns="http://www.w3.org/2000/svg" xmlns:xlink="http://www.w3.org/1999/xlink" version="1.1" baseProfile="full" width="24" height="24" viewBox="0 0 24.00 24.00" enable-background="new 0 0 24.00 24.00" xml:space="preserve">
	<path fill="#000000" fill-opacity="1" stroke-width="1.33333" stroke-linejoin="miter" d="M 19.686,16.117C 19.424,16.43 18.946,16.916 18.191,16.916C 17.126,16.916 16.782,16.15 16.458,15.34L 14.859,11.407L 13.264,15.34C 12.99,16.012 12.698,16.917 11.53,16.917C 10.362,16.917 10.066,16.012 9.794,15.34L 7.105,8.723L 9.372,8.723L 11.529,14.171L 13.136,10.201C 13.391,9.573 13.693,8.624 14.855,8.624C 16.017,8.624 16.321,9.573 16.577,10.201L 18.326,14.499C 19.224,13.141 19.599,11.503 19.381,9.89C 19.164,8.277 18.368,6.797 17.143,5.726C 15.917,4.655 14.344,4.064 12.717,4.064C 11.034,4.053 9.39,4.577 8.024,5.561C 6.658,6.546 5.64,7.939 5.118,9.54C 4.596,11.14 4.597,12.866 5.12,14.466C 5.643,16.066 6.662,17.459 8.028,18.442C 9.395,19.425 11.039,19.949 12.723,19.936C 13.448,19.936 14.169,19.837 14.868,19.643L 14.868,21.75C 14.163,21.905 13.444,21.983 12.723,21.983C 10.606,21.997 8.539,21.338 6.821,20.101C 5.104,18.863 3.823,17.112 3.166,15.099C 2.509,13.087 2.508,10.917 3.164,8.905C 3.82,6.893 5.099,5.14 6.816,3.902C 8.533,2.664 10.6,2.003 12.717,2.015C 17.563,2.015 21.489,5.944 21.489,10.788C 21.492,12.714 20.858,14.588 19.686,16.116L 19.686,16.117 Z "/>
</svg>
