<?xml version="1.0" encoding="utf-8"?>
<!DOCTYPE svg PUBLIC "-//W3C//DTD SVG 1.1//EN" "http://www.w3.org/Graphics/SVG/1.1/DTD/svg11.dtd">
<svg xmlns="http://www.w3.org/2000/svg" xmlns:xlink="http://www.w3.org/1999/xlink" version="1.1" baseProfile="full" width="24" height="24" viewBox="0 0 24.00 24.00" enable-background="new 0 0 24.00 24.00" xml:space="preserve">
	<path fill="#000000" fill-opacity="1" stroke-width="0.2" stroke-linejoin="round" d="M 12.0025,2.0025C 6.48,2.0025 2.0025,6.48 2.0025,12.0025C 2.0025,17.52 6.48,22.0025 12.0025,22.0025C 17.52,22.0025 22.0025,17.52 22.0025,12.0025C 22.0025,6.48 17.52,2.0025 12.0025,2.0025 Z M 12.0025,8.38875C 13.565,9.4 15.42,10 17.4225,10C 18.1987,10 18.95,9.9125 19.6675,9.74125C 19.8775,10.4488 20,11.2112 20,12.0025C 20,16.4113 16.4112,20 12.0025,20C 9.00375,20 6.38625,18.34 5.015,15.8888L 6.7475,13.9987L 6.7475,12.9975C 6.7475,12.31 7.31,11.7475 7.9975,11.7475C 8.69125,11.7475 9.2475,12.31 9.2475,12.9975L 9.2475,13.9987L 12.0025,13.9987M 16.0012,11.7475C 15.3075,11.7475 14.7513,12.31 14.7513,12.9975C 14.7513,13.6913 15.3075,14.2475 16.0012,14.2475C 16.69,14.2475 17.2512,13.6913 17.2512,12.9975C 17.2512,12.31 16.69,11.7475 16.0012,11.7475 Z "/>
</svg>
