<?xml version="1.0" encoding="utf-8"?>
<!DOCTYPE svg PUBLIC "-//W3C//DTD SVG 1.1//EN" "http://www.w3.org/Graphics/SVG/1.1/DTD/svg11.dtd">
<svg xmlns="http://www.w3.org/2000/svg" xmlns:xlink="http://www.w3.org/1999/xlink" version="1.1" baseProfile="full" width="24" height="24" viewBox="0 0 24.00 24.00" enable-background="new 0 0 24.00 24.00" xml:space="preserve">
	<path fill="#000000" fill-opacity="1" stroke-width="1.33333" stroke-linejoin="miter" d="M 10.25,13C 10.25,13.69 9.69,14.25 9,14.25C 8.31,14.25 7.75,13.69 7.75,13C 7.75,12.31 8.31,11.75 9,11.75C 9.69,11.75 10.25,12.31 10.25,13 Z M 15,11.75C 14.31,11.75 13.75,12.31 13.75,13C 13.75,13.69 14.31,14.25 15,14.25C 15.69,14.25 16.25,13.69 16.25,13C 16.25,12.31 15.69,11.75 15,11.75 Z M 22,12C 22,17.52 17.52,22 12,22C 6.48,22 2,17.52 2,12C 2,6.48 6.48,2 12,2C 17.52,2 22,6.48 22,12 Z M 10.66,4.12C 12.06,6.44 14.6,8 17.5,8C 17.96,8 18.41,7.95 18.84,7.88C 17.44,5.56 14.9,4 12,4C 11.54,4 11.09,4.05 10.66,4.12 Z M 4.42,9.47C 6.13,8.5 7.45,6.92 8.08,5.03C 6.37,6 5.05,7.58 4.42,9.47 Z M 20,12C 20,11.22 19.88,10.47 19.67,9.76C 18.97,9.91 18.25,10 17.5,10C 14.37,10 11.58,8.56 9.74,6.31C 8.69,8.87 6.6,10.88 4,11.86C 4.01,11.9 4,11.95 4,12C 4,16.41 7.59,20 12,20C 16.41,20 20,16.41 20,12 Z "/>
</svg>
