<?xml version="1.0" encoding="utf-8"?>
<!DOCTYPE svg PUBLIC "-//W3C//DTD SVG 1.1//EN" "http://www.w3.org/Graphics/SVG/1.1/DTD/svg11.dtd">
<svg xmlns="http://www.w3.org/2000/svg" xmlns:xlink="http://www.w3.org/1999/xlink" version="1.1" baseProfile="full" width="24" height="24" viewBox="0 0 24.00 24.00" enable-background="new 0 0 24.00 24.00" xml:space="preserve">
	<path fill="#000000" fill-opacity="1" stroke-linejoin="round" d="M 12,2C 6.364,2 2,6.12533 2,11.6973C 2,14.6147 3.19333,17.136 5.14,18.8747C 5.30267,19.0213 5.40133,19.224 5.412,19.4427L 5.464,21.224C 5.484,21.792 6.068,22.1613 6.588,21.932L 8.57333,21.0573C 8.74,20.984 8.92667,20.9693 9.104,21.016C 10.016,21.2653 10.9893,21.4013 12,21.4013C 17.636,21.4013 22,17.2707 22,11.6973C 22,6.12533 17.636,2 12,2 Z M 18.0053,9.464L 15.068,14.1253C 14.5987,14.864 13.5987,15.0467 12.9013,14.5213L 10.5627,12.7707C 10.3493,12.6093 10.052,12.6093 9.83867,12.7707L 6.68267,15.1667C 6.26,15.4893 5.71333,14.984 5.99467,14.536L 8.932,9.87467C 9.40133,9.136 10.4013,8.948 11.104,9.47333L 13.4373,11.2293C 13.656,11.3907 13.948,11.3853 14.1613,11.2293L 17.3173,8.83333C 17.74,8.51066 18.2867,9.016 18.0053,9.464 Z "/>
</svg>
