<?xml version="1.0" encoding="utf-8"?>
<!DOCTYPE svg PUBLIC "-//W3C//DTD SVG 1.1//EN" "http://www.w3.org/Graphics/SVG/1.1/DTD/svg11.dtd">
<svg xmlns="http://www.w3.org/2000/svg" xmlns:xlink="http://www.w3.org/1999/xlink" version="1.1" baseProfile="full" width="24" height="24" viewBox="0 0 24.00 24.00" enable-background="new 0 0 24.00 24.00" xml:space="preserve">
	<g>
		<path fill="#000000" fill-opacity="1" stroke-width="1.33333" stroke-linejoin="miter" d="M 9,11.75C 8.30964,11.75 7.75,12.3096 7.75,13C 7.75,13.6903 8.30964,14.25 9,14.25C 9.69036,14.25 10.25,13.6903 10.25,13C 10.25,12.3096 9.69036,11.75 9,11.75M 15,11.75C 14.3096,11.75 13.75,12.3096 13.75,13C 13.75,13.6903 14.3096,14.25 15,14.25C 15.6904,14.25 16.25,13.6903 16.25,13C 16.25,12.3096 15.6904,11.75 15,11.75M 12,2C 6.47715,2 2,6.4771 2,12C 2,17.5228 6.47715,22 12,22C 17.5228,22 22,17.5228 22,12C 22,6.4771 17.5228,2 12,2M 12,20C 7.58172,20 4,16.4183 4,12C 3.97485,11.7139 3.97485,11.4261 4,11.14C 6.38134,10.0969 8.26641,8.1724 9.26,5.77C 11.1325,8.4205 14.1748,9.9976 17.42,10C 18.1775,10.0009 18.9326,9.9137 19.67,9.74C 20.9182,13.9783 18.4942,18.426 14.2559,19.6741C 13.5233,19.8899 12.7637,19.9996 12,20 Z M -5.08626e-006,2C -5.08626e-006,0.895395 0.895426,-1.90735e-006 2,-1.90735e-006L 6,-1.90735e-006L 6,2L 2,2L 2,6L -5.08626e-006,6L -5.08626e-006,2 Z M 24,22C 24,23.1046 23.1046,24 22,24L 18,24L 18,22L 22,22L 22,18L 24,18L 24,22 Z M 2,24C 0.895426,24 -5.08626e-006,23.1046 -5.08626e-006,22L -5.08626e-006,18L 2,18L 2,22L 6,22L 6,24L 2,24 Z M 22,-1.90735e-006C 23.1046,-1.90735e-006 24,0.895395 24,2L 24,6L 22,6L 22,2L 18,2L 18,-1.90735e-006L 22,-1.90735e-006 Z "/>
	</g>
</svg>
