<?xml version="1.0" encoding="utf-8"?>
<!DOCTYPE svg PUBLIC "-//W3C//DTD SVG 1.1//EN" "http://www.w3.org/Graphics/SVG/1.1/DTD/svg11.dtd">
<svg xmlns="http://www.w3.org/2000/svg" xmlns:xlink="http://www.w3.org/1999/xlink" version="1.1" baseProfile="full" width="24" height="24" viewBox="0 0 24.00 24.00" enable-background="new 0 0 24.00 24.00" xml:space="preserve">
	<path fill="#000000" fill-opacity="1" stroke-width="0.2" stroke-linejoin="round" d="M 5,3L 19,3C 20.1046,3 21,3.89543 21,5L 21,19C 21,20.1046 20.1046,21 19,21L 5,21C 3.89543,21 3,20.1046 3,19L 3,5C 3,3.89543 3.89543,3 5,3 Z M 17.9994,4.99807L 15.4994,4.99807C 13.5664,4.99807 11.9994,6.56407 11.9994,8.49807L 11.9994,10.9981L 9.99939,10.9981L 9.99939,13.9981L 11.9994,13.9981L 11.9994,20.9981L 14.9994,20.9981L 14.9994,13.9981L 17.9994,13.9981L 17.9994,10.9981L 14.9994,10.9981L 14.9994,8.99807C 14.9994,8.44507 15.4474,7.99807 15.9994,7.99807L 17.9994,7.99807L 17.9994,4.99807 Z "/>
</svg>
