<?xml version="1.0" encoding="utf-8"?>
<!DOCTYPE svg PUBLIC "-//W3C//DTD SVG 1.1//EN" "http://www.w3.org/Graphics/SVG/1.1/DTD/svg11.dtd">
<svg xmlns="http://www.w3.org/2000/svg" xmlns:xlink="http://www.w3.org/1999/xlink" version="1.1" baseProfile="full" width="24" height="24" viewBox="0 0 24.00 24.00" enable-background="new 0 0 24.00 24.00" xml:space="preserve">
	<path fill="#000000" fill-opacity="1" stroke-width="0.2" stroke-linejoin="round" d="M 4,18L 4,20L 8,20L 8,18L 4,18 Z M 4,14L 4,16L 14,16L 14,14L 4,14 Z M 10,18L 10,20L 14,20L 14,18L 10,18 Z M 16,14L 16,16L 20,16L 20,14L 16,14 Z M 16,18L 16,20L 20,20L 20,18L 16,18 Z M 2,22L 2,8.00001L 7,12L 7,8.00001L 12,12L 12,8.00001L 17,12L 18,2.00001L 21,2L 22,12L 22,22L 2,22 Z "/>
</svg>
