<?xml version="1.0" encoding="utf-8"?>
<!DOCTYPE svg PUBLIC "-//W3C//DTD SVG 1.1//EN" "http://www.w3.org/Graphics/SVG/1.1/DTD/svg11.dtd">
<svg xmlns="http://www.w3.org/2000/svg" xmlns:xlink="http://www.w3.org/1999/xlink" version="1.1" baseProfile="full" width="24" height="24" viewBox="0 0 24.00 24.00" enable-background="new 0 0 24.00 24.00" xml:space="preserve">
	<path fill="#000000" fill-opacity="1" stroke-width="1.33333" stroke-linejoin="miter" d="M 12.5,2C 9.6429,2 8.57449,4.552 9.29102,7.4668L 14.9883,13.1641C 15.8669,13.3748 16.8143,13.8099 17.2793,14.7305C 18.4593,17.1005 22.0293,17 22.0293,12.5C 22.0293,8.92 18.0496,8.1309 14.3496,10.1309C 14.0296,9.7309 13.6109,9.4207 13.1309,9.2207C 13.3209,8.2907 13.76,7.24 14.75,6.75C 17.11,5.57 17,2 12.5,2 Z M 3.27734,4L 2,5.2676L 4.4668,7.7344C 3.21922,7.7443 2,8.8672 2,11.5C 2,15.07 5.96039,15.8491 9.65039,13.8691C 9.97039,14.2691 10.4006,14.5891 10.8906,14.7891C 10.6906,15.7091 10.2495,16.7502 9.26953,17.2402C 6.90953,18.4202 7,22 11.5,22C 13.7997,22 14.9416,20.3588 14.9414,18.209L 18.7324,22L 20,20.7227L 3.27734,4 Z "/>
</svg>
