<?xml version="1.0" encoding="utf-8"?>
<!DOCTYPE svg PUBLIC "-//W3C//DTD SVG 1.1//EN" "http://www.w3.org/Graphics/SVG/1.1/DTD/svg11.dtd">
<svg xmlns="http://www.w3.org/2000/svg" xmlns:xlink="http://www.w3.org/1999/xlink" version="1.1" baseProfile="full" width="24" height="24" viewBox="0 0 24.00 24.00" enable-background="new 0 0 24.00 24.00" xml:space="preserve">
	<path fill="#000000" fill-opacity="1" stroke-width="0.2" stroke-linejoin="round" d="M 10,12L 10,22L 8,22L 8,14L 6,14L 6,12L 10,12 Z M 18,14L 18,20C 18,21.105 17.105,22 16,22L 14,22C 12.895,22 12,21.105 12,20L 12,14C 12,12.895 12.895,12 14,12L 16,12C 17.105,12 18,12.895 18,14 Z M 14,14L 14,20L 16,20L 16,14L 14,14 Z M 11.5,3.00001C 14.15,3.00001 16.55,3.99 18.4,5.60001L 21,3.00001L 21,10L 14,10L 16.62,7.38C 15.23,6.22001 13.46,5.50001 11.5,5.50001C 7.96001,5.50001 4.95002,7.81001 3.90002,11L 1.53002,10.22C 2.91994,6.03 6.85002,3.00001 11.5,3.00001 Z "/>
</svg>
