<?xml version="1.0" encoding="utf-8"?>
<!DOCTYPE svg PUBLIC "-//W3C//DTD SVG 1.1//EN" "http://www.w3.org/Graphics/SVG/1.1/DTD/svg11.dtd">
<svg xmlns="http://www.w3.org/2000/svg" xmlns:xlink="http://www.w3.org/1999/xlink" version="1.1" baseProfile="full" width="24" height="24" viewBox="0 0 24.00 24.00" enable-background="new 0 0 24.00 24.00" xml:space="preserve">
	<path fill="#000000" fill-opacity="1" stroke-width="0.2" stroke-linejoin="round" d="M 11.5,3.00001C 6.85001,3.00001 2.91993,6.03001 1.53001,10.22L 3.90001,11C 4.95001,7.81001 7.96,5.50001 11.5,5.50001C 13.46,5.50001 15.23,6.22001 16.62,7.38001L 14,10L 21,10L 21,3.00001L 18.4,5.60001C 16.55,3.99001 14.15,3.00001 11.5,3.00001 Z M 19,14L 19,20C 19,21.105 18.105,22 17,22L 15,22C 13.895,22 13,21.105 13,20L 13,14C 13,12.895 13.895,12 15,12L 17,12C 18.105,12 19,12.895 19,14 Z M 15,14L 15,20L 17,20L 17,14L 15,14 Z M 11,20C 11,21.11 10.1,22 9,22L 5,22L 5,20L 9,20L 9,18L 7,18L 7,16L 9,16L 9,14L 5,14L 5,12L 9,12C 10.1,12 11,12.89 11,14L 11,15.5C 11,16.33 10.3301,17 9.5,17C 10.3301,17 11,17.67 11,18.5L 11,20 Z "/>
</svg>
