<?xml version="1.0" encoding="utf-8"?>
<!DOCTYPE svg PUBLIC "-//W3C//DTD SVG 1.1//EN" "http://www.w3.org/Graphics/SVG/1.1/DTD/svg11.dtd">
<svg xmlns="http://www.w3.org/2000/svg" xmlns:xlink="http://www.w3.org/1999/xlink" version="1.1" baseProfile="full" width="24" height="24" viewBox="0 0 24.00 24.00" enable-background="new 0 0 24.00 24.00" xml:space="preserve">
	<path fill="#000000" fill-opacity="1" stroke-width="1.33333" stroke-linejoin="miter" d="M 6,2C 5.44772,2 5,2.4477 5,3L 5,7L 6,7L 6,5L 8,5L 8,4L 6,4L 6,3L 8,3L 8,2L 6,2 Z M 11,2C 10.4477,2 10,2.4477 10,3L 10,7L 11,7L 11,5L 12,5L 12,7L 13,7L 13,3C 13,2.4477 12.5523,2 12,2L 11,2 Z M 14.9785,2L 16.4219,4.5L 14.9785,7L 16.1348,7L 17,5.5L 17.8652,7L 19.0215,7L 17.5781,4.5L 19.0215,2L 17.8652,2L 17,3.5L 16.1348,2L 14.9785,2 Z M 11,3L 12,3L 12,4L 11,4L 11,3 Z M 5,9C 3.34,9 2,10.34 2,12L 2,18L 6,18L 6,22L 18,22L 18,18L 22,18L 22,12C 22,10.34 20.66,9 19,9L 5,9 Z M 19,11C 19.55,11 20,11.45 20,12C 20,12.55 19.55,13 19,13C 18.45,13 18,12.55 18,12C 18,11.45 18.45,11 19,11 Z M 8,15L 16,15L 16,20L 8,20L 8,15 Z "/>
</svg>
