<?xml version="1.0" encoding="utf-8"?>
<!DOCTYPE svg PUBLIC "-//W3C//DTD SVG 1.1//EN" "http://www.w3.org/Graphics/SVG/1.1/DTD/svg11.dtd">
<svg xmlns="http://www.w3.org/2000/svg" xmlns:xlink="http://www.w3.org/1999/xlink" version="1.1" baseProfile="full" width="24" height="24" viewBox="0 0 24.00 24.00" enable-background="new 0 0 24.00 24.00" xml:space="preserve">
	<path fill="#000000" fill-opacity="1" stroke-width="0.2" stroke-linejoin="miter" d="M 11,6L 16,6L 16,8L 11,8L 11,6 Z M 7.99999,9.00001L 7.99999,3.00001L 19,3.00001L 19,9C 20.6602,9 22,10.34 22,12L 22,18L 19,18L 19,21L 7.99999,21L 7.99999,18L 6.99999,18L 6.99999,9.00002L 7.99999,9.00001 Z M 9.99999,5.00002L 9.99999,9.00002L 17,9.00001L 17,5.00001L 9.99999,5.00002 Z M 9.99998,15L 9.99998,19L 17,19L 17,15L 9.99998,15 Z M 19,11C 18.4477,11 18,11.4477 18,12C 18,12.5523 18.4477,13 19,13C 19.5523,13 20,12.5523 20,12C 20,11.4477 19.5523,11 19,11 Z M 4,9L 4.99999,9.00002C 5.55228,9.00001 5.99999,9.44773 5.99999,10L 5.99999,17C 5.99999,17.5523 5.55228,18 4.99999,18L 4,18C 2.89543,18 2,17.1046 2,16L 2,11C 2,9.89543 2.89543,9 4,9 Z "/>
</svg>
