<?xml version="1.0" encoding="utf-8"?>
<!DOCTYPE svg PUBLIC "-//W3C//DTD SVG 1.1//EN" "http://www.w3.org/Graphics/SVG/1.1/DTD/svg11.dtd">
<svg xmlns="http://www.w3.org/2000/svg" xmlns:xlink="http://www.w3.org/1999/xlink" version="1.1" baseProfile="full" width="24" height="24" viewBox="0 0 24.00 24.00" enable-background="new 0 0 24.00 24.00" xml:space="preserve">
	<path fill="#000000" fill-opacity="1" stroke-width="1.33333" stroke-linejoin="miter" d="M 15.5,2C 13,2 11,4 11,6.5C 11,9 13,11 15.5,11C 16.4,11 17.2004,10.7008 17.9004,10.3008L 21,13.4004L 22.4004,12L 19.3008,8.9004C 19.7008,8.2004 20,7.4 20,6.5C 20,4 18,2 15.5,2 Z M 4,4C 2.9,4 2,4.9 2,6L 2,20C 2,21.1 2.9,22 4,22L 18,22C 19.1,22 20,21.1 20,20L 20,15L 18,13L 18,20L 4,20L 4,6L 9.02734,6C 9.08596,5.2988 9.25698,4.6481 9.5,4L 4,4 Z M 15.5,4C 16.9,4 18,5.1 18,6.5C 18,7.9 16.9,9 15.5,9C 14.1,9 13,7.9 13,6.5C 13,5.1 14.1,4 15.5,4 Z "/>
</svg>
