<?xml version="1.0" encoding="utf-8"?>
<!DOCTYPE svg PUBLIC "-//W3C//DTD SVG 1.1//EN" "http://www.w3.org/Graphics/SVG/1.1/DTD/svg11.dtd">
<svg xmlns="http://www.w3.org/2000/svg" xmlns:xlink="http://www.w3.org/1999/xlink" version="1.1" baseProfile="full" width="24" height="24" viewBox="0 0 24.00 24.00" enable-background="new 0 0 24.00 24.00" xml:space="preserve">
	<path fill="#000000" fill-opacity="1" stroke-width="1.33333" stroke-linejoin="miter" d="M 22,2C 22,2 14.362,1.6333 8.33823,9.8824C 3.72059,16.2059 2,22 2,22L 3.94118,21.0147C 5.37758,18.4858 6.13235,17.4706 7.54412,16C 10.0738,16.7393 12.7095,16.6474 15,14C 13.0158,13.4376 11.4001,13.5735 9.04412,13.8088C 11.6912,12 13.4779,11.6029 16,12L 17,10C 15.2024,9.6628 14.0216,9.6314 12.2206,10.0441C 14.1906,8.6497 15.5583,7.8674 18,8L 19.2132,6.0662C 17.6471,5.9559 16.7084,6.1259 14.9191,6.5735C 16.5286,5.1063 18.0211,4.4519 20.1397,4.3235C 20.1397,4.3235 21.1912,2.4338 22,2 Z "/>
</svg>
