<?xml version="1.0" encoding="utf-8"?>
<!DOCTYPE svg PUBLIC "-//W3C//DTD SVG 1.1//EN" "http://www.w3.org/Graphics/SVG/1.1/DTD/svg11.dtd">
<svg xmlns="http://www.w3.org/2000/svg" xmlns:xlink="http://www.w3.org/1999/xlink" version="1.1" baseProfile="full" width="24" height="24" viewBox="0 0 24.00 24.00" enable-background="new 0 0 24.00 24.00" xml:space="preserve">
	<path fill="#000000" fill-opacity="1" stroke-width="1.33333" stroke-linejoin="miter" d="M 20,20C 20,21.1 19.1,22 18,22L 4,22C 2.9,22 2,21.1 2,20L 2,6C 2,4.9 2.9,4 4,4L 9.5,4C 9.2,4.8 9,5.6 9,6.5C 9,10.1 11.9,13 15.5,13C 16.3,13 17,12.9 17.6,12.6L 20,15L 20,20 Z M 19.3,8.9C 19.7,8.2 20,7.4 20,6.5C 20,4 18,2 15.5,2C 13,2 11,4 11,6.5C 11,9 13,11 15.5,11C 16.4,11 17.2,10.7 17.9,10.3L 21,13.4L 22.4,12L 19.3,8.9 Z M 15.5,9C 14.1,9 13,7.9 13,6.5C 13,5.1 14.1,4 15.5,4C 16.9,4 18,5.1 18,6.5C 18,7.9 16.9,9 15.5,9 Z "/>
</svg>
