<?xml version="1.0" encoding="utf-8"?>
<!DOCTYPE svg PUBLIC "-//W3C//DTD SVG 1.1//EN" "http://www.w3.org/Graphics/SVG/1.1/DTD/svg11.dtd">
<svg xmlns="http://www.w3.org/2000/svg" xmlns:xlink="http://www.w3.org/1999/xlink" version="1.1" baseProfile="full" width="24" height="24" viewBox="0 0 24.00 24.00" enable-background="new 0 0 24.00 24.00" xml:space="preserve">
	<path fill="#000000" fill-opacity="1" stroke-width="1.33333" stroke-linejoin="miter" d="M 11.9999,2C 6.47938,2 2.00392,6.4737 2,11.9934L 2,19.7321C 2.003,20.9854 3.0194,22 4.27347,22L 12.004,22C 17.5251,21.998 22,17.522 22,12.0004C 22,6.4774 17.5228,2 11.9999,2 Z M 14.9359,4.3706C 15.3291,4.3706 15.6087,4.415 15.9727,4.5101C 16.5035,4.649 16.9373,5.0842 16.9375,5.5904C 16.9375,6.2022 16.4934,6.6473 15.8295,6.6473C 15.5135,6.6473 15.3988,6.5866 14.9359,6.5866C 13.5694,6.5866 12.461,7.6935 12.4586,9.0601L 12.4586,11.2126C 12.4586,11.4055 12.6153,11.5618 12.8085,11.5618L 14.436,11.5621C 15.0424,11.5621 15.5323,12.0456 15.5323,12.6536C 15.5326,13.2654 15.0373,13.7471 14.4244,13.7471L 12.4588,13.7471L 12.4588,16.2348C 12.4588,18.8266 10.3573,20.9281 7.76541,20.9281C 7.37217,20.9281 7.09259,20.8837 6.72858,20.7886C 6.1978,20.6497 5.76412,20.2146 5.76394,19.7084C 5.76394,19.0965 6.20804,18.6514 6.87192,18.6514C 7.18789,18.6514 7.30251,18.712 7.76541,18.712C 9.13191,18.712 10.2403,17.6053 10.2427,16.2387L 10.2427,14.0862C 10.2427,13.8933 10.086,13.737 9.89275,13.737L 8.2654,13.7367C 7.65905,13.7367 7.16901,13.253 7.16901,12.645C 7.16869,12.0332 7.66409,11.5516 8.27699,11.5516L 10.2425,11.5516L 10.2425,9.0639C 10.2425,6.472 12.3439,4.3707 14.9359,4.3707L 14.9359,4.3706 Z "/>
</svg>
