<?xml version="1.0" encoding="utf-8"?>
<!DOCTYPE svg PUBLIC "-//W3C//DTD SVG 1.1//EN" "http://www.w3.org/Graphics/SVG/1.1/DTD/svg11.dtd">
<svg xmlns="http://www.w3.org/2000/svg" xmlns:xlink="http://www.w3.org/1999/xlink" version="1.1" baseProfile="full" width="24" height="24" viewBox="0 0 24.00 24.00" enable-background="new 0 0 24.00 24.00" xml:space="preserve">
	<path fill="#000000" fill-opacity="1" stroke-width="1.33333" stroke-linejoin="miter" d="M 4.4,22C 3.07452,22 2,20.9255 2,19.6L 2,12C 2,6.47716 6.47715,2 12,2C 17.5228,2 22,6.47716 22,12C 22,17.5228 17.5228,22 12,22L 4.4,22 Z M 14.9,4.40001C 12.3043,4.40001 10.2,6.50427 10.2,9.10001L 10.2,11.6L 8.29999,11.6C 7.69249,11.6 7.2,12.0925 7.2,12.7C 7.2,13.3075 7.69248,13.8 8.29999,13.8L 9.79999,13.8C 10.0209,13.8 10.2,13.9791 10.2,14.2L 10.2,16.3C 10.2,17.6807 9.0807,18.8 7.7,18.8C 7.55264,18.8 7.40826,18.7873 7.26789,18.7628C 7.18645,18.7436 7.10151,18.7334 7.0142,18.7334C 6.40669,18.7334 5.9142,19.2259 5.9142,19.8334C 5.9142,20.3688 6.29667,20.8148 6.80328,20.9132L 6.80303,20.9145C 7.09338,20.9706 7.39326,21 7.7,21C 10.2957,21 12.4,18.8957 12.4,16.3L 12.4,13.8L 14.3,13.8C 14.9075,13.8 15.4,13.3075 15.4,12.7C 15.4,12.0925 14.9075,11.6 14.3,11.6L 12.8,11.6C 12.5791,11.6 12.4,11.4209 12.4,11.2L 12.4,9.10002C 12.4,7.71931 13.5193,6.60002 14.9,6.60002C 15.0511,6.60002 15.1991,6.61343 15.3429,6.63912C 15.4215,6.65698 15.5033,6.6664 15.5874,6.6664C 16.1949,6.6664 16.6874,6.17392 16.6874,5.5664C 16.6874,5.0305 16.3042,4.5841 15.7968,4.48631L 15.797,4.4855C 15.5066,4.42939 15.2067,4.40001 14.9,4.40001 Z M 6.8,12.7C 6.8,12.5773 6.81474,12.458 6.84255,12.3438L 6.30826,11.8095C 6.09785,11.8746 5.89376,11.9541 5.69714,12.0469L 6.90653,13.2563C 6.8378,13.0843 6.8,12.8965 6.8,12.7 Z M 6.54044,18.5154L 6.47093,18.4775L 6.51733,18.5239L 6.54044,18.5154 Z M 5.6134,19.8335C 5.6134,19.6016 5.66977,19.3829 5.76954,19.1904L 3.00156,16.4224C 3.01013,16.7576 3.0538,17.0841 3.12904,17.3984L 5.61428,19.8836L 5.6134,19.8335 Z M 5.85896,20.6257C 5.77458,20.503 5.70926,20.3662 5.66728,20.2195L 3.24273,17.7949C 3.67042,19.0706 4.63045,20.1022 5.85896,20.6257 Z M 15.8,12.7C 15.8,12.8228 15.7852,12.9421 15.7574,13.0563L 16.2917,13.5905C 16.5021,13.5254 16.7062,13.4459 16.9028,13.3531L 15.6935,12.1438C 15.7622,12.3158 15.8,12.5035 15.8,12.7 Z M 16.0595,6.88461L 16.129,6.92247L 16.0827,6.87608L 16.0595,6.88461 Z M 16.9866,5.56651C 16.9866,5.79838 16.9302,6.01708 16.8304,6.20966L 19.5984,8.97764C 19.5899,8.6424 19.5462,8.31589 19.471,8.00164L 16.9857,5.5164L 16.9866,5.56651 Z M 16.741,4.77428C 16.8254,4.897 16.8907,5.03384 16.9327,5.18054L 19.3573,7.60509C 18.9296,6.32936 17.9695,5.2978 16.741,4.77428 Z M 16.0712,13.6529L 15.688,13.2697C 15.6092,13.4615 15.4918,13.6334 15.3455,13.7756L 15.3487,13.7789C 15.5956,13.7555 15.837,13.713 16.0712,13.6529 Z M 18.2296,12.4172L 16.674,10.8615C 16.532,11.0045 16.3728,11.1304 16.1998,11.2359L 17.7791,12.8152C 17.9377,12.6921 18.0882,12.5591 18.2296,12.4172 Z M 17.6168,12.9357L 16.0178,11.3368C 15.8205,11.4356 15.6083,11.509 15.3854,11.5529L 17.0914,13.2589C 17.274,13.1625 17.4494,13.0544 17.6168,12.9357 Z M 18.746,11.8022L 17.145,10.2012C 17.0541,10.3862 16.9411,10.5582 16.8093,10.714L 18.3678,12.2725C 18.5036,12.1241 18.63,11.9671 18.746,11.8022 Z M 19.1611,11.0859L 17.3908,9.31563C 17.3702,9.55669 17.3154,9.78798 17.2313,10.0046L 18.8597,11.633C 18.9718,11.4582 19.0726,11.2755 19.1611,11.0859 Z M 19.5973,9.2594L 16.7227,6.38476C 16.6045,6.54857 16.4518,6.68579 16.2752,6.78575L 19.5099,10.0205C 19.559,9.77322 19.5887,9.51898 19.5973,9.2594 Z M 19.4579,10.2514L 17.0775,7.87096C 17.2738,8.21796 17.3895,8.61653 17.3993,9.04128L 19.2474,10.8893C 19.3322,10.6836 19.4027,10.4706 19.4579,10.2514 Z M 4.82086,12.5848C 4.66229,12.7079 4.51182,12.8409 4.37036,12.9829L 5.926,14.5385C 6.06799,14.3955 6.22715,14.2696 6.40013,14.1641L 4.82086,12.5848 Z M 5.50853,12.1411C 5.32597,12.2375 5.15053,12.3456 4.9832,12.4643L 6.58213,14.0632C 6.77946,13.9644 6.99168,13.891 7.21453,13.8471L 5.50853,12.1411 Z M 7.25129,11.6211C 7.00438,11.6445 6.76303,11.687 6.52874,11.7471L 6.91195,12.1303C 6.99076,11.9385 7.10817,11.7666 7.25452,11.6244L 7.25129,11.6211 Z M 3.0901,15.3795C 3.041,15.6268 3.0113,15.881 3.00265,16.1406L 5.87728,19.0152C 5.99547,18.8514 6.14821,18.7142 6.32482,18.6143L 3.0901,15.3795 Z M 3.74029,13.767C 3.62823,13.9418 3.52743,14.1245 3.43891,14.3141L 5.20916,16.0844C 5.22975,15.8433 5.28455,15.612 5.36868,15.3954L 3.74029,13.767 Z M 3.3526,14.5107C 3.26783,14.7164 3.19724,14.9295 3.14205,15.1486L 5.52247,17.5291C 5.32619,17.1821 5.21046,16.7835 5.20067,16.3587L 3.3526,14.5107 Z M 4.2322,13.1275C 4.09642,13.2759 3.97003,13.4329 3.85397,13.5978L 5.45496,15.1988C 5.54585,15.0139 5.65892,14.8418 5.79071,14.686L 4.2322,13.1275 Z "/>
</svg>
