<?xml version="1.0" encoding="utf-8"?>
<!DOCTYPE svg PUBLIC "-//W3C//DTD SVG 1.1//EN" "http://www.w3.org/Graphics/SVG/1.1/DTD/svg11.dtd">
<svg xmlns="http://www.w3.org/2000/svg" xmlns:xlink="http://www.w3.org/1999/xlink" version="1.1" baseProfile="full" width="24" height="24" viewBox="0 0 24.00 24.00" enable-background="new 0 0 24.00 24.00" xml:space="preserve">
	<path fill="#000000" fill-opacity="1" stroke-width="0.2" stroke-linejoin="round" d="M 5.99939,5.99807L 17.9994,5.99807L 17.9994,9.96306L 11.9994,7.99807L 5.99939,9.96306M 3.9444,18.9981L 3.99939,18.9981C 5.60138,18.9981 7.02136,18.1161 7.99939,16.9981C 8.97638,18.1161 10.3964,18.9981 11.9994,18.9981C 13.6014,18.9981 15.0214,18.1161 15.9994,16.9981C 16.9764,18.1161 18.3964,18.9981 19.9994,18.9981L 20.0544,18.9981L 21.9484,12.3141C 22.0334,12.0581 22.0114,11.7771 21.8874,11.5371C 21.7624,11.2971 21.5464,11.1181 21.2864,11.0401L 19.9994,10.6181L 19.9994,5.99807C 19.9994,4.89307 19.1034,3.99807 17.9994,3.99807L 14.9994,3.99807L 14.9994,0.998068L 8.99939,0.998068L 8.99939,3.99807L 5.99939,3.99807C 4.89539,3.99807 3.99939,4.89307 3.99939,5.99807L 3.99939,10.6181L 2.7124,11.0401C 2.45239,11.1181 2.23639,11.2971 2.11139,11.5371C 1.98737,11.7771 1.96539,12.0581 2.05042,12.3141M 19.9994,20.9981C 18.6084,20.9981 17.2184,20.5281 15.9994,19.6741C 13.5614,21.3831 10.4364,21.3831 7.99939,19.6741C 6.7804,20.5281 5.39038,20.9981 3.99939,20.9981L 1.99939,20.9981L 1.99939,22.9981L 3.99939,22.9981C 5.37439,22.9981 6.73938,22.6514 7.99939,22.0041C 10.5184,23.2991 13.4794,23.2991 15.9994,22.0041C 17.2594,22.6514 18.6244,22.9981 19.9994,22.9981L 21.9994,22.9981L 21.9994,20.9981L 19.9994,20.9981 Z "/>
</svg>
