<?xml version="1.0" encoding="utf-8"?>
<!DOCTYPE svg PUBLIC "-//W3C//DTD SVG 1.1//EN" "http://www.w3.org/Graphics/SVG/1.1/DTD/svg11.dtd">
<svg xmlns="http://www.w3.org/2000/svg" xmlns:xlink="http://www.w3.org/1999/xlink" version="1.1" baseProfile="full" width="24" height="24" viewBox="0 0 24.00 24.00" enable-background="new 0 0 24.00 24.00" xml:space="preserve">
	<path fill="#000000" fill-opacity="1" stroke-width="1.33333" stroke-linejoin="miter" d="M 12,19C 12.8558,19 13.586,19.5375 13.8716,20.2933C 14.4216,20.1697 14.9515,19.9928 15.4555,19.7682L 13.6962,15.6236C 13.1812,15.8651 12.6064,16 12,16C 11.3936,16 10.8188,15.8651 10.3038,15.6236L 8.54452,19.7682C 9.04852,19.9928 9.57839,20.1697 10.1284,20.2933C 10.414,19.5375 11.1442,19 12,19 Z M 18.2498,17.7612C 17.9753,17.4188 17.8111,16.9841 17.8111,16.5111C 17.8111,15.4065 18.7065,14.5111 19.8111,14.5111L 20.1158,14.5342C 20.3655,13.7338 20.5,12.8826 20.5,12C 20.5,11.1213 20.3667,10.2736 20.1191,9.47632L 19.8059,9.50071C 18.7013,9.50071 17.8059,8.60528 17.8059,7.50071C 17.8059,7.02341 17.9731,6.58515 18.2521,6.24133C 17.1028,4.99417 15.585,4.09173 13.8716,3.70671C 13.586,4.46252 12.8558,5.00001 12,5.00001C 11.1442,5.00001 10.414,4.46252 10.1284,3.70672C 8.41442,4.09186 6.89624,4.99476 5.74679,6.24257C 6.02962,6.58755 6.19935,7.02881 6.19935,7.50973C 6.19935,8.6143 5.30393,9.50973 4.19936,9.50973L 3.8785,9.48413C 3.63248,10.2792 3.5,11.1241 3.5,12C 3.5,12.8866 3.63575,13.7416 3.8876,14.5451L 4.20455,14.5201C 5.30912,14.5201 6.20455,15.4156 6.20455,16.5201C 6.20455,16.9951 6.03901,17.4314 5.76247,17.7744C 6.08458,18.1222 6.43542,18.443 6.81122,18.733L 8.70581,14.2696C 8.26068,13.6248 8,12.8428 8,12C 8,9.79086 9.79086,8 12,8C 14.2091,8 16,9.79086 16,12C 16,12.8428 15.7393,13.6248 15.2942,14.2697L 17.1888,18.733C 17.5693,18.4393 17.9243,18.1141 18.2498,17.7612 Z M 12,23C 10.9952,23 10.1634,22.259 10.0214,21.2937C 9.37182,21.156 8.74676,20.9521 8.15363,20.6891L 7.17272,23L 5,23L 6.40875,19.6812C 5.88059,19.2961 5.39366,18.8578 4.95583,18.3742C 4.72387,18.4683 4.47027,18.5201 4.20455,18.5201C 3.09998,18.5201 2.20455,17.6247 2.20455,16.5201C 2.20455,15.883 2.5025,15.3154 2.96666,14.9492C 2.66377,14.0208 2.5,13.0295 2.5,12C 2.5,10.9805 2.6606,9.99846 2.95789,9.07787C 2.49577,8.71153 2.19936,8.14524 2.19936,7.50973C 2.19936,6.40516 3.09479,5.50973 4.19936,5.50973C 4.45898,5.50973 4.70705,5.5592 4.93465,5.64922C 6.25304,4.18346 8.02098,3.13013 10.0214,2.70634C 10.1635,1.741 10.9952,1.00002 12,1.00002C 13.0048,1.00002 13.8365,1.741 13.9786,2.70634C 15.9767,3.12963 17.7428,4.18101 19.0607,5.64411C 19.291,5.55161 19.5425,5.50071 19.8058,5.50071C 20.9104,5.50071 21.8058,6.39614 21.8058,7.50071C 21.8058,8.13919 21.5067,8.70779 21.0408,9.07396C 21.3389,9.99568 21.5,10.979 21.5,12C 21.5,13.0233 21.3382,14.0087 21.0388,14.9322C 21.5088,15.2982 21.811,15.8694 21.811,16.5111C 21.811,17.6157 20.9156,18.5111 19.8111,18.5111C 19.5433,18.5111 19.2878,18.4585 19.0543,18.363C 18.6139,18.851 18.1235,19.2931 17.5912,19.6812L 19,23L 16.8273,23L 15.8464,20.6891C 15.2532,20.9521 14.6282,21.156 13.9786,21.2937C 13.8365,22.259 13.0048,23 12,23 Z "/>
</svg>
