<?xml version="1.0" encoding="utf-8"?>
<!DOCTYPE svg PUBLIC "-//W3C//DTD SVG 1.1//EN" "http://www.w3.org/Graphics/SVG/1.1/DTD/svg11.dtd">
<svg xmlns="http://www.w3.org/2000/svg" xmlns:xlink="http://www.w3.org/1999/xlink" version="1.1" baseProfile="full" width="24" height="24" viewBox="0 0 24.00 24.00" enable-background="new 0 0 24.00 24.00" xml:space="preserve">
	<path fill="#000000" fill-opacity="1" stroke-width="1.33333" stroke-linejoin="miter" d="M 6,2C 4.9,2 4.00977,2.9 4.00977,4L 4,20C 4,21.1 4.89023,22 5.99023,22L 18,22C 19.1,22 20,21.1 20,20L 20,8L 14,2L 6,2 Z M 6,4L 13,4L 13,9L 18,9L 18,20L 6,20L 6,4 Z M 8,12L 8,14L 16,14L 16,12L 8,12 Z M 8,16L 8,18L 13,18L 13,16L 8,16 Z "/>
</svg>
