<?xml version="1.0" encoding="utf-8"?>
<!DOCTYPE svg PUBLIC "-//W3C//DTD SVG 1.1//EN" "http://www.w3.org/Graphics/SVG/1.1/DTD/svg11.dtd">
<svg xmlns="http://www.w3.org/2000/svg" xmlns:xlink="http://www.w3.org/1999/xlink" version="1.1" baseProfile="full" width="24" height="24" viewBox="0 0 24.00 24.00" enable-background="new 0 0 24.00 24.00" xml:space="preserve">
	<path fill="#000000" fill-opacity="1" stroke-width="0.2" stroke-linejoin="round" d="M 9.79924,13.398L 12.2992,13.398C 13.7992,13.398 14.4602,13.1249 15.0992,12.578C 15.7382,12.0309 15.9992,11.249 15.9992,10.23C 15.9992,9.25795 15.7502,8.47699 15.0992,7.88495C 14.4492,7.29397 13.8272,6.99799 12.2992,6.99799L 7.99923,6.99799L 7.99923,16.998L 9.79924,16.998L 9.79924,13.398 Z M 18.9992,2.99799C 20.1042,2.99799 20.9992,3.89398 20.9992,4.99799L 20.9992,18.998C 20.9992,20.103 20.1042,20.998 18.9992,20.998L 4.99923,20.998C 3.89526,20.998 2.99923,20.103 2.99923,18.998L 2.99923,4.99799C 2.99923,3.89398 3.89526,2.99799 4.99923,2.99799L 18.9992,2.99799 Z M 9.79923,11.9981L 9.79923,8.39805L 12.0992,8.39805C 12.7603,8.39805 13.2722,8.6461 13.5992,8.99807C 13.9272,9.35004 14.0992,9.71605 14.0992,10.2431C 14.0992,10.798 13.9182,11.1911 13.5992,11.4981C 13.2802,11.8061 12.9022,11.9981 12.2222,11.9981L 9.79923,11.9981 Z "/>
</svg>
