<?xml version="1.0" encoding="utf-8"?>
<!DOCTYPE svg PUBLIC "-//W3C//DTD SVG 1.1//EN" "http://www.w3.org/Graphics/SVG/1.1/DTD/svg11.dtd">
<svg xmlns="http://www.w3.org/2000/svg" xmlns:xlink="http://www.w3.org/1999/xlink" version="1.1" baseProfile="full" width="24" height="24" viewBox="0 0 24.00 24.00" enable-background="new 0 0 24.00 24.00" xml:space="preserve">
	<path fill="#000000" fill-opacity="1" stroke-width="1.33333" stroke-linejoin="miter" d="M 14,2L 6,2C 4.9,2 4.01,2.9 4.01,4L 4,20C 4,21.1 4.89,22 5.99,22L 18,22C 19.1,22 20,21.1 20,20L 20,8L 14,2 Z M 6,4L 13,4L 18,9L 18,17.58L 16.16,15.74C 17.44,13.8 17.23,11.17 15.52,9.46C 14.55,8.49 13.28,8 12,8C 10.72,8 9.45,8.49 8.47,9.46C 6.52,11.41 6.52,14.57 8.47,16.51C 9.44,17.48 10.72,17.97 12,17.97C 12.96,17.97 13.92,17.69 14.75,17.14L 17.6,20L 6,20L 6,4 Z M 14.11,15.1C 13.55,15.66 12.8,15.98 12,15.98C 11.2,15.98 10.45,15.67 9.89,15.1C 9.33,14.54 9.01,13.79 9.01,12.99C 9.01,12.19 9.32,11.44 9.89,10.88C 10.45,10.31 11.2,10 12,10C 12.8,10 13.55,10.31 14.11,10.88C 14.67,11.44 14.99,12.19 14.99,12.99C 14.99,13.79 14.68,14.54 14.11,15.1 Z "/>
</svg>
