<?xml version="1.0" encoding="utf-8"?>
<!DOCTYPE svg PUBLIC "-//W3C//DTD SVG 1.1//EN" "http://www.w3.org/Graphics/SVG/1.1/DTD/svg11.dtd">
<svg xmlns="http://www.w3.org/2000/svg" xmlns:xlink="http://www.w3.org/1999/xlink" version="1.1" baseProfile="full" width="24" height="24" viewBox="0 0 24.00 24.00" enable-background="new 0 0 24.00 24.00" xml:space="preserve">
	<path fill="#000000" fill-opacity="1" stroke-width="1.33333" stroke-linejoin="miter" d="M 6,2C 4.89498,2 4.00977,2.896 4.00977,4L 4,20C 4,21.104 4.88623,22 5.99023,22L 18,22C 19.104,22 20,21.104 20,20L 20,8L 14,2L 6,2 Z M 13,3.5L 18.5,9L 13,9L 13,3.5 Z M 12,11.0176C 13.6569,11.0176 15,12.3608 15,14.0176L 15,15.0176L 16,15.0176L 16,19.0176L 8,19.0176L 8,15.0176L 9,15.0176L 9,14.0176C 9,12.3608 10.3431,11.0176 12,11.0176 Z M 12,13.0176C 11.4477,13.0176 11,13.4653 11,14.0176L 11,15.0176L 13,15.0176L 13,14.0176C 13,13.4653 12.5523,13.0176 12,13.0176 Z "/>
</svg>
