<?xml version="1.0" encoding="utf-8"?>
<!DOCTYPE svg PUBLIC "-//W3C//DTD SVG 1.1//EN" "http://www.w3.org/Graphics/SVG/1.1/DTD/svg11.dtd">
<svg xmlns="http://www.w3.org/2000/svg" xmlns:xlink="http://www.w3.org/1999/xlink" version="1.1" baseProfile="full" width="24" height="24" viewBox="0 0 24.00 24.00" enable-background="new 0 0 24.00 24.00" xml:space="preserve">
	<path fill="#000000" fill-opacity="1" stroke-width="1.33333" stroke-linejoin="miter" d="M 6,2.00001C 4.89,2.00001 4,2.89 4,4L 4,20C 4,21.1046 4.89543,22 6,22L 18,22C 19.1046,22 20,21.1046 20,20L 20,8L 14,2.00001L 6,2.00001 Z M 13,3.5L 18.5,9L 13,9L 13,3.5 Z M 12,11C 13.6569,11 15,12.3431 15,14C 15,15.875 12.75,16.0625 12.75,17.75L 11.25,17.75C 11.25,15.3125 13.5,15.5 13.5,14C 13.5,13.1716 12.8284,12.5 12,12.5C 11.1716,12.5 10.5,13.1716 10.5,14L 9,14C 9,12.3431 10.3431,11 12,11 Z M 11.25,18.5L 12.75,18.5L 12.75,20L 11.25,20L 11.25,18.5 Z "/>
</svg>
