<?xml version="1.0" encoding="utf-8"?>
<!DOCTYPE svg PUBLIC "-//W3C//DTD SVG 1.1//EN" "http://www.w3.org/Graphics/SVG/1.1/DTD/svg11.dtd">
<svg xmlns="http://www.w3.org/2000/svg" xmlns:xlink="http://www.w3.org/1999/xlink" version="1.1" baseProfile="full" width="24" height="24" viewBox="0 0 24.00 24.00" enable-background="new 0 0 24.00 24.00" xml:space="preserve">
	<path fill="#000000" fill-opacity="1" stroke-width="1.33333" stroke-linejoin="miter" d="M 10,18L 6,18L 6,16L 10,16L 10,18 Z M 10,14L 6,14L 6,12L 10,12L 10,14 Z M 10,1L 10,2L 6,2C 4.89,2 4,2.89 4,4L 4,20C 4,21.1 4.89,22 6,22L 10,22L 10,23L 12,23L 12,1L 10,1 Z M 20,8L 20,20C 20,21.105 19.105,22 18,22L 14,22L 14,20L 18,20L 18,11L 14,11L 14,9L 18.5,9L 14,4.5L 14,2L 20,8 Z M 16,14L 14,14L 14,12L 16,12L 16,14 Z M 16,18L 14,18L 14,16L 16,16L 16,18 Z "/>
</svg>
