<?xml version="1.0" encoding="utf-8"?>
<!DOCTYPE svg PUBLIC "-//W3C//DTD SVG 1.1//EN" "http://www.w3.org/Graphics/SVG/1.1/DTD/svg11.dtd">
<svg xmlns="http://www.w3.org/2000/svg" xmlns:xlink="http://www.w3.org/1999/xlink" version="1.1" baseProfile="full" width="24" height="24" viewBox="0 0 24.00 24.00" enable-background="new 0 0 24.00 24.00" xml:space="preserve">
	<path fill="#000000" fill-opacity="1" stroke-linejoin="round" d="M 12,14L 12,11L 10,11L 10,14L 7,14L 7,16L 10,16L 10,19L 12,19L 12,16L 15,16L 15,14M 14,2L 6,2C 4.896,2 4,2.896 4,4L 4,20C 4,21.104 4.896,22 6,22L 18,22C 19.104,22 20,21.104 20,20L 20,8L 14,2 Z M 18,20L 6,20L 6,4L 13,4L 13,9L 18,9"/>
</svg>
