<?xml version="1.0" encoding="utf-8"?>
<!DOCTYPE svg PUBLIC "-//W3C//DTD SVG 1.1//EN" "http://www.w3.org/Graphics/SVG/1.1/DTD/svg11.dtd">
<svg xmlns="http://www.w3.org/2000/svg" xmlns:xlink="http://www.w3.org/1999/xlink" version="1.1" baseProfile="full" width="24" height="24" viewBox="0 0 24.00 24.00" enable-background="new 0 0 24.00 24.00" xml:space="preserve">
	<path fill="#000000" fill-opacity="1" stroke-width="0.2" stroke-linejoin="round" d="M 13.9994,1.99807L 19.9994,7.99807L 19.9994,19.9981C 19.9994,21.0981 19.0994,21.9981 17.9994,21.9981L 5.99939,21.9981C 4.89939,21.9981 3.99939,21.0981 3.99939,19.9981L 3.99939,3.99807C 3.99939,2.89807 4.89939,1.99807 5.99939,1.99807L 13.9994,1.99807 Z M 17.9994,19.9981L 17.9994,8.99807L 12.9994,8.99807L 12.9994,3.99808L 5.99939,3.99808L 5.99939,19.9981L 17.9994,19.9981 Z M 11.1973,18.4603L 8.44726,15.4603L 9.61148,14.2961L 11.1973,15.8819L 14.7831,12.2961L 15.9473,13.7103L 11.1973,18.4603 Z "/>
</svg>
