<?xml version="1.0" encoding="utf-8"?>
<!DOCTYPE svg PUBLIC "-//W3C//DTD SVG 1.1//EN" "http://www.w3.org/Graphics/SVG/1.1/DTD/svg11.dtd">
<svg xmlns="http://www.w3.org/2000/svg" xmlns:xlink="http://www.w3.org/1999/xlink" version="1.1" baseProfile="full" width="24" height="24" viewBox="0 0 24.00 24.00" enable-background="new 0 0 24.00 24.00" xml:space="preserve">
	<path fill="#000000" fill-opacity="1" stroke-width="1.33333" stroke-linejoin="miter" d="M 14,2L 6,2C 4.89543,2 4,2.8954 4,4L 4,20C 4,21.1046 4.89543,22 6,22L 18,22C 19.1046,22 20,21.1046 20,20L 20,8L 14,2 Z M 10,19L 7,19L 7,17L 10,17L 10,19 Z M 10,16L 7,16L 7,14L 10,14L 10,16 Z M 10,13L 7,13L 7,11L 10,11L 10,13 Z M 14,19L 11,19L 11,17L 14,17L 14,19 Z M 14,16L 11,16L 11,14L 14,14L 14,16 Z M 14,13L 11,13L 11,11L 14,11L 14,13 Z M 13,9L 13,3.5L 18.5,9L 13,9 Z "/>
</svg>
