<?xml version="1.0" encoding="utf-8"?>
<!DOCTYPE svg PUBLIC "-//W3C//DTD SVG 1.1//EN" "http://www.w3.org/Graphics/SVG/1.1/DTD/svg11.dtd">
<svg xmlns="http://www.w3.org/2000/svg" xmlns:xlink="http://www.w3.org/1999/xlink" version="1.1" baseProfile="full" width="24" height="24" viewBox="0 0 24.00 24.00" enable-background="new 0 0 24.00 24.00" xml:space="preserve">
	<path fill="#000000" fill-opacity="1" stroke-width="1.33333" stroke-linejoin="miter" d="M 16,15L 9,15L 9,13L 16,13L 16,15 Z M 19,11L 9,11L 9,9L 19,9L 19,11 Z M 19,7L 9,7L 9,5L 19,5L 19,7 Z M 3,5L 3,21L 19,21L 19,23L 3,23C 1.895,23 1,22.105 1,21L 1,5L 3,5 Z M 21,1C 22.1,1 23,1.89 23,3L 23,17C 23,18.105 22.105,19 21,19L 7,19C 5.895,19 5,18.105 5,17L 5,3C 5,1.89 5.89,1 7,1L 21,1 Z M 7,3L 7,17L 21,17L 21,3L 7,3 Z "/>
</svg>
