<?xml version="1.0" encoding="utf-8"?>
<!DOCTYPE svg PUBLIC "-//W3C//DTD SVG 1.1//EN" "http://www.w3.org/Graphics/SVG/1.1/DTD/svg11.dtd">
<svg xmlns="http://www.w3.org/2000/svg" xmlns:xlink="http://www.w3.org/1999/xlink" version="1.1" baseProfile="full" width="24" height="24" viewBox="0 0 24.00 24.00" enable-background="new 0 0 24.00 24.00" xml:space="preserve">
	<path fill="#000000" fill-opacity="1" stroke-width="1.33333" stroke-linejoin="miter" d="M 17,18C 17.56,18 18,18.44 18,19C 18,19.56 17.56,20 17,20C 16.44,20 16,19.56 16,19C 16,18.44 16.44,18 17,18M 17,15C 14.27,15 11.94,16.66 11,19C 11.94,21.34 14.27,23 17,23C 19.73,23 22.06,21.34 23,19C 22.06,16.66 19.73,15 17,15 Z M 17,21.5C 15.62,21.5 14.5,20.38 14.5,19C 14.5,17.62 15.62,16.5 17,16.5C 18.38,16.5 19.5,17.62 19.5,19C 19.5,20.38 18.38,21.5 17,21.5 Z M 9.144,19.745L 8.845,19L 9.144,18.255C 10.426,15.062 13.51,13 17,13C 18.053,13 19.059,13.208 20,13.558L 20,8L 14,2L 6,2C 4.89,2 4,2.89 4,4L 4,20C 4,21.1 4.9,22 6,22L 10.504,22C 9.946,21.335 9.48,20.582 9.144,19.745 Z M 13,3.5L 18.5,9L 13,9L 13,3.5 Z "/>
</svg>
