<?xml version="1.0" encoding="utf-8"?>
<!DOCTYPE svg PUBLIC "-//W3C//DTD SVG 1.1//EN" "http://www.w3.org/Graphics/SVG/1.1/DTD/svg11.dtd">
<svg xmlns="http://www.w3.org/2000/svg" xmlns:xlink="http://www.w3.org/1999/xlink" version="1.1" baseProfile="full" width="24" height="24" viewBox="0 0 24.00 24.00" enable-background="new 0 0 24.00 24.00" xml:space="preserve">
	<path fill="#000000" fill-opacity="1" stroke-linejoin="round" d="M 13.9994,1.99807L 19.9994,7.99807L 19.9994,19.9981C 19.9994,21.0981 19.0994,21.9981 17.9994,21.9981L 5.99939,21.9981C 4.89939,21.9981 3.99939,21.0981 3.99939,19.9981L 3.99939,3.99807C 3.99939,2.89807 4.89939,1.99807 5.99939,1.99807L 13.9994,1.99807 Z M 17.9994,19.9981L 17.9994,8.99807L 12.9994,8.99807L 12.9994,3.99808L 5.99939,3.99808L 5.99939,19.9981L 17.9994,19.9981 Z M 11.5,10C 13.9853,10 16,12.0147 16,14.5C 16,16.9853 13.9853,19 11.5,19C 9.01472,19 7,16.9853 7,14.5C 7,12.0147 9.01472,10 11.5,10 Z M 11.5,11.5C 10.9436,11.5 10.4227,11.6514 9.97602,11.9154L 14.0846,16.024C 14.3485,15.5773 14.5,15.0564 14.5,14.5C 14.5,12.8431 13.1568,11.5 11.5,11.5 Z M 8.5,14.5C 8.5,16.1569 9.84314,17.5 11.5,17.5C 12.0564,17.5 12.5773,17.3486 13.024,17.0846L 8.91536,12.976C 8.65144,13.4227 8.5,13.9436 8.5,14.5 Z "/>
</svg>
