<?xml version="1.0" encoding="utf-8"?>
<!DOCTYPE svg PUBLIC "-//W3C//DTD SVG 1.1//EN" "http://www.w3.org/Graphics/SVG/1.1/DTD/svg11.dtd">
<svg xmlns="http://www.w3.org/2000/svg" xmlns:xlink="http://www.w3.org/1999/xlink" version="1.1" baseProfile="full" width="24" height="24" viewBox="0 0 24.00 24.00" enable-background="new 0 0 24.00 24.00" xml:space="preserve">
	<path fill="#000000" fill-opacity="1" stroke-width="0.2" stroke-linejoin="round" d="M 6,2L 14,2.00001L 20,8L 20,20C 20,21.1046 19.1046,22 18,22L 6,22C 4.89543,22 4,21.1046 4,20L 4,4C 4,2.89543 4.89543,2 6,2 Z M 13,3.50002L 13,9.00002L 18.5,9.00002L 13,3.50002 Z M 7,13L 8.49999,20L 10.5,20L 12,17L 13.5,20L 15.5,20L 17,13L 18,13L 18,11L 14,11L 14,13L 15,13L 14.1,17.2L 13,15L 13,15L 11,15L 11,15L 9.89999,17.2L 9,13L 10,13L 10,11L 6,11L 6,13L 7,13 Z "/>
</svg>
