<?xml version="1.0" encoding="utf-8"?>
<!DOCTYPE svg PUBLIC "-//W3C//DTD SVG 1.1//EN" "http://www.w3.org/Graphics/SVG/1.1/DTD/svg11.dtd">
<svg xmlns="http://www.w3.org/2000/svg" xmlns:xlink="http://www.w3.org/1999/xlink" version="1.1" baseProfile="full" width="24" height="24" viewBox="0 0 24.00 24.00" enable-background="new 0 0 24.00 24.00" xml:space="preserve">
	<path fill="#000000" fill-opacity="1" stroke-width="0.2" stroke-linejoin="round" d="M 12.9994,8.99807L 18.4994,8.99807L 12.9994,3.49807L 12.9994,8.99807 Z M 5.99939,1.99807L 13.9994,1.99807L 19.9994,7.99807L 19.9994,19.9981C 19.9994,21.1021 19.1034,21.9981 17.9994,21.9981L 5.98938,21.9981C 4.88538,21.9981 3.99939,21.1021 3.99939,19.9981L 4.0094,3.99807C 4.0094,2.89407 4.89437,1.99807 5.99939,1.99807 Z M 12.1553,14.3102C 10.6019,14.3102 9.19492,14.8906 8.1104,15.8344L 6,13.724L 6,19L 11.276,19L 9.15388,16.8779C 9.96874,16.1979 11.0064,15.7758 12.1553,15.7758C 14.2306,15.7758 15.9951,17.1299 16.6107,19L 18,18.5427C 17.1852,16.0865 14.8813,14.3102 12.1553,14.3102 Z "/>
</svg>
