<?xml version="1.0" encoding="utf-8"?>
<!DOCTYPE svg PUBLIC "-//W3C//DTD SVG 1.1//EN" "http://www.w3.org/Graphics/SVG/1.1/DTD/svg11.dtd">
<svg xmlns="http://www.w3.org/2000/svg" xmlns:xlink="http://www.w3.org/1999/xlink" version="1.1" baseProfile="full" width="24" height="24" viewBox="0 0 24.00 24.00" enable-background="new 0 0 24.00 24.00" xml:space="preserve">
	<path fill="#000000" fill-opacity="1" stroke-width="1.33333" stroke-linejoin="miter" d="M 14,2L 6,2C 4.9,2 4.01,2.9 4.01,4L 4,20C 4,21.1 4.89,22 5.99,22L 18,22C 19.1,22 20,21.1 20,20L 20,8L 14,2 Z M 12,18C 9.95,18 8.19,16.76 7.42,15L 9.13,15C 9.76,15.9 10.81,16.5 12,16.5C 13.93,16.5 15.5,14.93 15.5,13C 15.5,11.07 13.93,9.5 12,9.5C 10.65,9.5 9.48,10.28 8.9,11.4L 10.5,13L 6.5,13L 6.5,9L 7.8,10.3C 8.69,8.92 10.23,8 12,8C 14.76,8 17,10.24 17,13C 17,15.76 14.76,18 12,18 Z "/>
</svg>
