<?xml version="1.0" encoding="utf-8"?>
<!DOCTYPE svg PUBLIC "-//W3C//DTD SVG 1.1//EN" "http://www.w3.org/Graphics/SVG/1.1/DTD/svg11.dtd">
<svg xmlns="http://www.w3.org/2000/svg" xmlns:xlink="http://www.w3.org/1999/xlink" version="1.1" baseProfile="full" width="24" height="24" viewBox="0 0 24.00 24.00" enable-background="new 0 0 24.00 24.00" xml:space="preserve">
	<path fill="#000000" fill-opacity="1" stroke-width="1.33333" stroke-linejoin="miter" d="M 12.6,12.3L 10.6,12.3L 10.6,15.5L 12.7,15.5C 13.3,15.5 13.6,15.3 13.9,15C 14.2,14.7 14.3,14.4 14.3,13.9C 14.3,13.4 14.2,13.1 13.9,12.8C 13.6,12.5 13.2,12.3 12.6,12.3 Z M 14,2L 6,2C 4.9,2 4,2.9 4,4L 4,20C 4,21.1 4.9,22 6,22L 18,22C 19.1,22 20,21.1 20,20L 20,8L 14,2 Z M 15.2,16C 14.6,16.5 14.1,16.7 12.8,16.7L 10.6,16.7L 10.6,20L 9,20L 9,11L 12.8,11C 14.1,11 14.7,11.3 15.2,11.8C 15.8,12.4 16,13 16,13.9C 16,14.8 15.8,15.5 15.2,16 Z M 13,9L 13,3.5L 18.5,9L 13,9 Z "/>
</svg>
