<?xml version="1.0" encoding="utf-8"?>
<!DOCTYPE svg PUBLIC "-//W3C//DTD SVG 1.1//EN" "http://www.w3.org/Graphics/SVG/1.1/DTD/svg11.dtd">
<svg xmlns="http://www.w3.org/2000/svg" xmlns:xlink="http://www.w3.org/1999/xlink" version="1.1" baseProfile="full" width="24" height="24" viewBox="0 0 24.00 24.00" enable-background="new 0 0 24.00 24.00" xml:space="preserve">
	<path fill="#000000" fill-opacity="1" stroke-width="0.2" stroke-linejoin="round" d="M 11.4325,10.9351C 11.2005,11.6821 10.8675,12.4741 10.4165,13.3431C 10.2195,13.7221 10.0275,14.0781 9.92349,14.3791L 10.0325,14.3371L 10.0325,14.3381C 11.3015,13.8481 12.5015,13.5681 13.3735,13.4131C 13.2215,13.3061 13.0805,13.1971 12.9555,13.0891C 12.3645,12.5801 11.8425,11.8401 11.4325,10.9351 Z M 17.9065,14.7481C 17.7445,14.9421 17.4375,15.0471 17.0075,15.0471C 16.2415,15.0471 15.0295,14.8181 14.0225,14.3081C 12.2775,14.4891 10.9905,14.7271 9.97449,15.0581C 9.92148,15.0781 9.85748,15.1021 9.7905,15.1291C 8.54749,17.2511 7.62949,18.1981 6.8165,18.1981C 6.66348,18.1981 6.5155,18.1631 6.3775,18.0941L 5.89749,17.7791L 5.87448,17.7271C 5.7955,17.5541 5.78149,17.3821 5.8215,17.1881C 5.92749,16.6591 6.47549,15.8231 7.70349,15.0701C 7.89349,14.9311 8.18848,14.7671 8.59348,14.5801C 8.8895,14.0581 9.2095,13.4521 9.5455,12.7751C 10.0575,11.7501 10.3755,10.7311 10.6325,9.85106L 10.6285,9.83907C 10.2605,8.62807 10.0385,7.90008 10.4095,6.57406C 10.5185,6.18807 10.8275,5.79806 11.2045,5.79806L 11.4405,5.80007C 11.6745,5.80007 11.8855,5.88405 12.0475,6.04406C 12.7065,6.70305 12.4045,8.31106 12.0695,9.63906C 12.0535,9.70406 12.0425,9.74807 12.0345,9.78008C 12.4285,10.9081 12.9935,11.8151 13.6305,12.3371C 13.8855,12.5391 14.1755,12.7361 14.4925,12.9221C 14.9485,12.8721 15.3845,12.8481 15.7905,12.8481C 17.0305,12.8481 17.7755,13.0721 18.0685,13.5351C 18.1745,13.7001 18.2175,13.8911 18.1915,14.0861C 18.1835,14.3401 18.0865,14.5681 17.9065,14.7481 Z M 18.9995,2.99807L 4.99948,2.99807C 3.8945,2.99807 2.99948,3.89306 2.99948,4.99807L 2.99948,18.9981C 2.99948,20.1021 3.8945,20.9981 4.99948,20.9981L 18.9995,20.9981C 20.1035,20.9981 20.9995,20.1021 20.9995,18.9981L 20.9995,4.99807C 20.9995,3.89306 20.1035,2.99807 18.9995,2.99807 Z M 17.5125,14.0421C 17.4015,13.9351 16.9915,13.6861 15.5955,13.6861C 15.5265,13.6861 15.4565,13.6861 15.3665,13.7861C 16.1045,14.1071 16.8135,14.2981 17.2685,14.2981C 17.3385,14.2981 17.4035,14.2931 17.4635,14.2841L 17.4975,14.2771C 17.5455,14.2611 17.5775,14.2461 17.5875,14.1481C 17.5725,14.1231 17.5495,14.0841 17.5125,14.0421 Z M 8.3295,15.4961C 8.11749,15.6201 7.95349,15.7281 7.85349,15.8111C 7.13748,16.4601 6.69348,17.1161 6.63849,17.5041C 7.0925,17.3471 7.68149,16.6911 8.3295,15.4961 Z M 11.3455,8.59105L 11.3995,8.55306C 11.4725,8.22905 11.5205,7.95208 11.5605,7.73006L 11.5905,7.56707C 11.6875,7.02608 11.6745,6.71407 11.4935,6.47207L 11.3455,6.42208C 11.3265,6.45107 11.2975,6.49407 11.2785,6.54006C 11.1115,6.95507 11.1175,7.68908 11.3455,8.59105 Z "/>
</svg>
