<?xml version="1.0" encoding="utf-8"?>
<!DOCTYPE svg PUBLIC "-//W3C//DTD SVG 1.1//EN" "http://www.w3.org/Graphics/SVG/1.1/DTD/svg11.dtd">
<svg xmlns="http://www.w3.org/2000/svg" xmlns:xlink="http://www.w3.org/1999/xlink" version="1.1" baseProfile="full" width="24" height="24" viewBox="0 0 24.00 24.00" enable-background="new 0 0 24.00 24.00" xml:space="preserve">
	<path fill="#000000" fill-opacity="1" stroke-width="0.2" stroke-linejoin="round" d="M 14,17L 18,17L 18,14L 23,18.5L 18,23L 18,20L 14,20L 14,17 Z M 13,9L 18.5,9L 13,3.5L 13,9 Z M 6,2.00001L 14,2.00001L 20,8L 20,12.3414C 19.3744,12.1203 18.7013,12 18,12C 14.6863,12 12,14.6863 12,18C 12,19.5367 12.5777,20.9385 13.5278,22L 5.98999,22C 4.88599,22 4,21.104 4,20L 4.01001,4C 4.01001,2.896 4.89498,2.00001 6,2.00001 Z "/>
</svg>
