<?xml version="1.0" encoding="utf-8"?>
<!DOCTYPE svg PUBLIC "-//W3C//DTD SVG 1.1//EN" "http://www.w3.org/Graphics/SVG/1.1/DTD/svg11.dtd">
<svg xmlns="http://www.w3.org/2000/svg" xmlns:xlink="http://www.w3.org/1999/xlink" version="1.1" baseProfile="full" width="24" height="24" viewBox="0 0 24.00 24.00" enable-background="new 0 0 24.00 24.00" xml:space="preserve">
	<path fill="#000000" fill-opacity="1" stroke-width="1.33333" stroke-linejoin="miter" d="M 13,9L 18.5,9L 13,3.5L 13,9M 6,2L 14,2L 20,8L 20,20C 20,21.105 19.105,22 18,22L 6,22C 4.89,22 4,21.1 4,20L 4,4C 4,2.89 4.89,2 6,2M 11,4L 6,4L 6,20L 11,20L 18,20L 18,11L 11,11L 11,4 Z M 12,19L 15.889,15.111L 13.556,15.111L 13.556,12L 10.445,12L 10.445,15.111L 8.111,15.111L 12,19 Z "/>
</svg>
