<?xml version="1.0" encoding="utf-8"?>
<!DOCTYPE svg PUBLIC "-//W3C//DTD SVG 1.1//EN" "http://www.w3.org/Graphics/SVG/1.1/DTD/svg11.dtd">
<svg xmlns="http://www.w3.org/2000/svg" xmlns:xlink="http://www.w3.org/1999/xlink" version="1.1" baseProfile="full" width="24" height="24" viewBox="0 0 24.00 24.00" enable-background="new 0 0 24.00 24.00" xml:space="preserve">
	<path fill="#000000" fill-opacity="1" stroke-width="1.33333" stroke-linejoin="miter" d="M 13.9994,1.99807L 19.9994,7.99807L 19.9994,19.9981C 19.9994,21.0981 19.0994,21.9981 17.9994,21.9981L 5.99939,21.9981C 4.89939,21.9981 3.99939,21.0981 3.99939,19.9981L 3.99939,3.99807C 3.99939,2.89807 4.89939,1.99807 5.99939,1.99807L 13.9994,1.99807 Z M 17.9994,19.9981L 17.9994,8.99807L 12.9994,8.99807L 12.9994,3.99808L 5.99939,3.99808L 5.99939,19.9981L 17.9994,19.9981 Z M 10.9177,12.3144C 10.6762,11.54 10.1515,9.08337 11.5505,9.04173C 12.9496,9.00009 12.0335,12.1562 12.0335,12.1562C 12.4166,13.6468 14.0488,14.721 14.0488,14.721C 14.5484,14.5711 17.4047,14.238 16.9883,15.7203C 16.572,17.2026 13.4825,15.8119 13.4825,15.8119C 11.5505,15.9535 10.0933,16.4698 10.0933,16.4698C 8.96072,18.5766 7.63667,19.476 7.10371,18.6099C 6.43189,17.5182 9.2272,16.0701 9.2272,16.0701C 10.6845,13.7217 10.8997,12.3481 10.9177,12.3144 Z M 11.5651,13.1513C 11.1654,14.4504 10.366,15.8369 10.366,15.8369C 11.2154,15.4871 13.0765,15.1124 13.0765,15.1124C 11.9399,14.1131 11.5875,13.1566 11.5651,13.1513 Z M 14.7066,15.3206C 14.7066,15.3206 16.4616,15.9743 16.5137,15.7078C 16.5657,15.4413 15.173,15.204 14.7066,15.3206 Z M 9.05233,16.8112C 8.27788,17.111 7.53674,18.3851 7.71994,18.3934C 7.90314,18.4017 8.62763,17.7855 9.05233,16.8112 Z M 11.5671,11.2562C 11.5656,11.2149 11.9969,9.58263 11.5672,9.53305C 11.2726,9.49906 11.5605,11.2173 11.5671,11.2562 Z "/>
</svg>
