<?xml version="1.0" encoding="utf-8"?>
<!DOCTYPE svg PUBLIC "-//W3C//DTD SVG 1.1//EN" "http://www.w3.org/Graphics/SVG/1.1/DTD/svg11.dtd">
<svg xmlns="http://www.w3.org/2000/svg" xmlns:xlink="http://www.w3.org/1999/xlink" version="1.1" baseProfile="full" width="24" height="24" viewBox="0 0 24.00 24.00" enable-background="new 0 0 24.00 24.00" xml:space="preserve">
	<path fill="#000000" fill-opacity="1" stroke-width="1.33333" stroke-linejoin="miter" d="M 14,2L 20,8L 20,20C 20,21.1046 19.1046,22 18,22L 6,22C 4.89543,22 4,21.1046 4,20L 4,4C 4,2.8954 4.89543,2 6,2L 14,2 Z M 7.37,20L 15,12.35L 13.65,11L 6,18.65L 7.37,20 Z M 13,9L 18.5,9L 13,3.50001L 13,9 Z M 7.5,11C 6.67157,11 6,11.6716 6,12.5C 6,13.3284 6.67157,14 7.5,14C 8.32843,14 9,13.3284 9,12.5C 9,11.6716 8.32843,11 7.5,11 Z M 13.5,17C 12.6716,17 12,17.6716 12,18.5C 12,19.3284 12.6716,20 13.5,20C 14.3284,20 15,19.3284 15,18.5C 15,17.6716 14.3284,17 13.5,17 Z "/>
</svg>
