<?xml version="1.0" encoding="utf-8"?>
<!DOCTYPE svg PUBLIC "-//W3C//DTD SVG 1.1//EN" "http://www.w3.org/Graphics/SVG/1.1/DTD/svg11.dtd">
<svg xmlns="http://www.w3.org/2000/svg" xmlns:xlink="http://www.w3.org/1999/xlink" version="1.1" baseProfile="full" width="24" height="24" viewBox="0 0 24.00 24.00" enable-background="new 0 0 24.00 24.00" xml:space="preserve">
	<path fill="#000000" fill-opacity="1" stroke-width="0.2" stroke-linejoin="round" d="M 6,2L 14,2.00001L 20,8L 20,20C 20,21.1046 19.1046,22 18,22L 6,22C 4.89543,22 4,21.1046 4,20L 4,4C 4,2.89543 4.89543,2 6,2 Z M 13,3.50003L 13,9.00003L 18.5,9.00003L 13,3.50003 Z M 17,11L 13,11L 13,13L 14,13L 12,14.6667L 10,13L 11,13L 11,11L 7,11L 7,13L 8,13L 11,15.5L 8,18L 7,18L 7,20L 11,20L 11,18L 10,18L 12,16.3333L 14,18L 13,18L 13,20L 17,20L 17,18L 16,18L 13,15.5L 16,13L 17,13L 17,11 Z "/>
</svg>
