<?xml version="1.0" encoding="utf-8"?>
<!DOCTYPE svg PUBLIC "-//W3C//DTD SVG 1.1//EN" "http://www.w3.org/Graphics/SVG/1.1/DTD/svg11.dtd">
<svg xmlns="http://www.w3.org/2000/svg" xmlns:xlink="http://www.w3.org/1999/xlink" version="1.1" baseProfile="full" width="24" height="24" viewBox="0 0 24.00 24.00" enable-background="new 0 0 24.00 24.00" xml:space="preserve">
	<path fill="#000000" fill-opacity="1" stroke-width="0.2" stroke-linejoin="round" d="M 18.9995,2.99807C 20.1035,2.99807 20.9995,3.89305 20.9995,4.99807L 20.9995,18.9981C 20.9995,20.1021 20.1035,20.9981 18.9995,20.9981L 4.99947,20.9981C 3.89449,20.9981 2.99947,20.1021 2.99947,18.9981L 2.99947,4.99807C 2.99947,3.89305 3.89449,2.99807 4.99947,2.99807L 18.9995,2.99807 Z M 10.5909,10.0834C 10.5685,10.1255 10.2999,11.8402 8.48069,14.7716C 8.48069,14.7716 4.99125,16.5794 5.8299,17.9422C 6.49519,19.0233 8.14804,17.9006 9.56179,15.2706C 9.56179,15.2706 11.381,14.6261 13.7927,14.4494C 13.7927,14.4494 17.6493,16.1854 18.1691,14.335C 18.6888,12.4847 15.1232,12.9005 14.4995,13.0876C 14.4995,13.0876 12.4621,11.7466 11.9839,9.88588C 11.9839,9.88588 13.1274,5.94609 11.381,5.99807C 9.63456,6.05004 10.2895,9.11664 10.5909,10.0834 Z M 11.3991,11.1281C 11.427,11.1347 11.8669,12.3288 13.2859,13.5762C 13.2859,13.5762 10.9625,14.044 9.90224,14.4806C 9.90224,14.4806 10.9002,12.7498 11.3991,11.1281 Z M 15.3207,13.8361C 15.9029,13.6905 17.6415,13.9868 17.5765,14.3195C 17.5115,14.6521 15.3207,13.8361 15.3207,13.8361 Z M 8.26238,15.6968C 7.73222,16.9131 6.82784,17.6823 6.59915,17.6719C 6.37045,17.6615 7.29563,16.0711 8.26238,15.6968 Z M 11.4016,8.76237C 11.3934,8.71392 11.034,6.56896 11.4017,6.61139C 11.9382,6.67328 11.3997,8.71092 11.4016,8.76237 Z "/>
</svg>
