<?xml version="1.0" encoding="utf-8"?>
<!DOCTYPE svg PUBLIC "-//W3C//DTD SVG 1.1//EN" "http://www.w3.org/Graphics/SVG/1.1/DTD/svg11.dtd">
<svg xmlns="http://www.w3.org/2000/svg" xmlns:xlink="http://www.w3.org/1999/xlink" version="1.1" baseProfile="full" width="24" height="24" viewBox="0 0 24.00 24.00" enable-background="new 0 0 24.00 24.00" xml:space="preserve">
	<path fill="#000000" fill-opacity="1" stroke-width="0.2" stroke-linejoin="round" d="M 22,17L 22,19L 14,19L 14,17L 22,17 Z M 12,17L 12,15L 6.99939,14.9981L 6.99939,16.9981L 12,17 Z M 17.0094,10.9981L 6.99939,10.9981L 6.99939,12.9981L 14.6851,12.9981C 13.0668,14.0727 12,15.9118 12,18C 12,19.0921 12.2918,20.116 12.8016,20.9981L 4.99939,20.9981C 3.89439,20.9981 2.99939,20.1021 2.99939,18.9981L 2.99939,4.99807C 2.99939,3.89407 3.89439,2.99807 4.99939,2.99807L 18.9994,2.99807C 20.1034,2.99807 20.9994,3.89407 20.9994,4.99807L 20.9994,12.8023C 20.117,12.2921 19.0926,12 18,12L 17.0094,12.0814L 17.0094,10.9981 Z M 17.0094,8.99807L 17.0094,6.99807L 6.99939,6.99807L 6.99939,8.99807L 17.0094,8.99807 Z "/>
</svg>
