<?xml version="1.0" encoding="utf-8"?>
<!DOCTYPE svg PUBLIC "-//W3C//DTD SVG 1.1//EN" "http://www.w3.org/Graphics/SVG/1.1/DTD/svg11.dtd">
<svg xmlns="http://www.w3.org/2000/svg" xmlns:xlink="http://www.w3.org/1999/xlink" version="1.1" baseProfile="full" width="24" height="24" viewBox="0 0 24.00 24.00" enable-background="new 0 0 24.00 24.00" xml:space="preserve">
	<path fill="#000000" fill-opacity="1" stroke-linejoin="round" d="M 17,21L 14.2507,18L 15.412,16.844L 17,18.432L 20.588,14.844L 21.7493,16.2507M 12.8027,21L 5,21C 3.89067,21 3,20.1093 3,19L 3,5C 3,3.89067 3.89067,3 5,3L 19,3C 20.1093,3 21,3.89067 21,5L 21,12.8027C 20.3907,12.448 19.7187,12.1973 19,12.0787L 19,5L 5,5L 5,19L 12.0787,19C 12.1973,19.7187 12.448,20.3907 12.8027,21 Z M 12,17L 7,17L 7,15L 12,15M 14.6827,13L 7,13L 7,11L 17,11L 17,12.0787C 16.1507,12.2187 15.3693,12.5413 14.6827,13 Z M 17,9L 7,9L 7,7L 17,7"/>
</svg>
