<?xml version="1.0" encoding="utf-8"?>
<!DOCTYPE svg PUBLIC "-//W3C//DTD SVG 1.1//EN" "http://www.w3.org/Graphics/SVG/1.1/DTD/svg11.dtd">
<svg xmlns="http://www.w3.org/2000/svg" xmlns:xlink="http://www.w3.org/1999/xlink" version="1.1" baseProfile="full" width="24" height="24" viewBox="0 0 24.00 24.00" enable-background="new 0 0 24.00 24.00" xml:space="preserve">
	<path fill="#000000" fill-opacity="1" stroke-width="1.33333" stroke-linejoin="miter" d="M 14,2L 6,2C 4.89543,2 4,2.8954 4,4L 4,20C 4,21.1046 4.89543,22 6,22L 13,22C 12.5855,21.7465 12.2028,21.4443 11.86,21.1C 9.21905,18.6684 9.0493,14.5564 11.4809,11.9154C 13.6891,9.517 17.3326,9.1255 20,11L 20,8L 14,2 Z M 13,9L 13,3.5L 18.5,9L 13,9 Z M 20.31,18.9C 21.6406,16.7944 21.0124,14.0088 18.9068,12.6782C 16.8012,11.3475 14.0156,11.9758 12.685,14.0813C 11.3543,16.1869 11.9826,18.9725 14.0882,20.3032C 15.5501,21.2271 17.4116,21.2336 18.88,20.32L 22,23.39L 23.39,22L 20.31,18.9 Z M 16.5,19C 15.1193,19 14,17.8807 14,16.5C 14,15.1193 15.1193,14 16.5,14C 17.8807,14 19,15.1193 19,16.5C 19,17.8807 17.8807,19 16.5,19 Z "/>
</svg>
