<?xml version="1.0" encoding="utf-8"?>
<!DOCTYPE svg PUBLIC "-//W3C//DTD SVG 1.1//EN" "http://www.w3.org/Graphics/SVG/1.1/DTD/svg11.dtd">
<svg xmlns="http://www.w3.org/2000/svg" xmlns:xlink="http://www.w3.org/1999/xlink" version="1.1" baseProfile="full" width="24" height="24" viewBox="0 0 24.00 24.00" enable-background="new 0 0 24.00 24.00" xml:space="preserve">
	<path fill="#000000" fill-opacity="1" stroke-width="0.2" stroke-linejoin="round" d="M 14,9.00002L 19.5,9.00002L 14,3.50002L 14,9.00002 Z M 7,2.00002L 15,2.00002L 21,8.00002L 21,20C 21,21.104 20.104,22 19,22L 6.98999,22C 5.88598,22 5,21.104 5,20L 5.01001,4.00002C 5.01001,2.89602 5.89498,2.00002 7,2.00002 Z M 11.9325,12.4351C 12.3425,13.3401 12.8645,14.0801 13.4555,14.5891L 13.8735,14.9131C 13.0015,15.0681 11.8015,15.3481 10.5325,15.8381L 10.5325,15.8371L 10.4235,15.8791L 10.9165,14.8431C 11.3675,13.9741 11.7005,13.1821 11.9325,12.4351 Z M 18.4065,16.2481C 18.5865,16.0681 18.6835,15.8401 18.6914,15.5861C 18.7175,15.3911 18.6745,15.2001 18.5684,15.0351C 18.2754,14.5721 17.5305,14.3481 16.2905,14.3481L 14.9925,14.4221L 14.1305,13.8371C 13.4934,13.3151 12.9285,12.4081 12.5345,11.2801L 12.5695,11.1391C 12.9045,9.8111 13.2065,8.20307 12.5474,7.54409C 12.3855,7.3841 12.1745,7.30011 11.9405,7.30011L 11.7045,7.29808C 11.3274,7.29808 11.0185,7.68809 10.9095,8.07408C 10.5385,9.40009 10.7605,10.1281 11.1285,11.3391L 11.1324,11.3511C 10.8754,12.2311 10.5575,13.2501 10.0454,14.2751L 9.09346,16.0801L 8.20345,16.5701C 6.97546,17.3231 6.42745,18.1591 6.32149,18.6881C 6.28145,18.8821 6.29545,19.0541 6.37447,19.2271L 6.39746,19.2791L 6.87748,19.5941L 7.31645,19.6981C 8.12943,19.6981 9.04744,18.7511 10.2905,16.6291L 10.4744,16.5581C 11.4904,16.2271 12.7775,15.9891 14.5225,15.8081C 15.5295,16.3181 16.7415,16.5471 17.5074,16.5471C 17.9375,16.5471 18.2444,16.4421 18.4065,16.2481 Z M 18.0124,15.5421L 18.0874,15.6481C 18.0774,15.7461 18.0454,15.7611 17.9975,15.7771L 17.9635,15.7841L 17.7685,15.7981C 17.3134,15.7981 16.6044,15.6071 15.8665,15.2861C 15.9565,15.1861 16.0264,15.1861 16.0955,15.1861C 17.4915,15.1861 17.9014,15.4351 18.0124,15.5421 Z M 8.82947,16.9961C 8.18144,18.1911 7.59249,18.8471 7.13847,19.0041C 7.19344,18.6161 7.63745,17.9601 8.35347,17.3111L 8.82947,16.9961 Z M 11.8455,10.0911C 11.6175,9.18911 11.6114,8.4551 11.7785,8.0401L 11.8455,7.9221L 11.9934,7.97211C 12.1745,8.21409 12.1875,8.5261 12.0905,9.06708L 12.0605,9.23008L 11.8995,10.0531L 11.8455,10.0911 Z "/>
</svg>
