<?xml version="1.0" encoding="utf-8"?>
<!DOCTYPE svg PUBLIC "-//W3C//DTD SVG 1.1//EN" "http://www.w3.org/Graphics/SVG/1.1/DTD/svg11.dtd">
<svg xmlns="http://www.w3.org/2000/svg" xmlns:xlink="http://www.w3.org/1999/xlink" version="1.1" baseProfile="full" width="24" height="24" viewBox="0 0 24.00 24.00" enable-background="new 0 0 24.00 24.00" xml:space="preserve">
	<path fill="#000000" fill-opacity="1" stroke-width="0.2" stroke-linejoin="miter" d="M 14,3L 12,1L 4,1C 2.89543,1 2,1.8954 2,3L 2,15C 2,16.1046 2.89543,17 4,17L 11,17L 11,19L 15,16L 11,13L 11,15L 4,15L 4,3L 14,3 Z M 21,10L 21,21C 21,22.1046 20.1046,23 19,23L 8,23C 6.89543,23 6,22.1046 6,21L 6,19L 8,19L 8,21L 19,21L 19,12L 14,12L 14,7L 8,7L 8,13L 6,13L 6,7C 6,5.8954 6.89543,5 8,5L 16,5L 21,10 Z "/>
</svg>
