<?xml version="1.0" encoding="utf-8"?>
<!DOCTYPE svg PUBLIC "-//W3C//DTD SVG 1.1//EN" "http://www.w3.org/Graphics/SVG/1.1/DTD/svg11.dtd">
<svg xmlns="http://www.w3.org/2000/svg" xmlns:xlink="http://www.w3.org/1999/xlink" version="1.1" baseProfile="full" width="24" height="24" viewBox="0 0 24.00 24.00" enable-background="new 0 0 24.00 24.00" xml:space="preserve">
	<path fill="#000000" fill-opacity="1" stroke-width="0.2" stroke-linejoin="miter" d="M 15.5,12C 17.9853,12 20,14.0147 20,16.5C 20,17.3826 19.7459,18.2059 19.3069,18.9006L 22.3906,21.9844L 20.9844,23.3906L 17.8763,20.3221C 17.1867,20.7518 16.3723,21 15.5,21C 13.0147,21 11,18.9853 11,16.5C 11,14.0147 13.0147,12 15.5,12 Z M 15.5,14C 14.1193,14 13,15.1193 13,16.5C 13,17.8807 14.1193,19 15.5,19C 16.8807,19 18,17.8807 18,16.5C 18,15.1193 16.8807,14 15.5,14 Z M 5,3L 19,3C 20.11,3 21,3.89 21,5L 21,13.0343C 20.4894,12.2256 19.8053,11.5374 19,11.0218L 19,5L 5,5L 5,19L 9.49816,19C 9.80993,19.7476 10.2573,20.4245 10.8096,21L 5,21C 3.89,21 3,20.11 3,19L 3,5C 3,3.89 3.89,3 5,3 Z M 7,7L 17,7L 17,9L 7,9L 7,7 Z M 7,11L 12.0343,11C 11.2256,11.5107 10.5374,12.1947 10.0218,13L 7,13L 7,11 Z M 7,15L 9.17393,15C 9.06019,15.4815 9,15.9837 9,16.5L 9.01894,17L 7,17L 7,15 Z "/>
</svg>
