<?xml version="1.0" encoding="utf-8"?>
<!DOCTYPE svg PUBLIC "-//W3C//DTD SVG 1.1//EN" "http://www.w3.org/Graphics/SVG/1.1/DTD/svg11.dtd">
<svg xmlns="http://www.w3.org/2000/svg" xmlns:xlink="http://www.w3.org/1999/xlink" version="1.1" baseProfile="full" width="24" height="24" viewBox="0 0 24.00 24.00" enable-background="new 0 0 24.00 24.00" xml:space="preserve">
	<path fill="#000000" fill-opacity="1" stroke-linejoin="round" d="M 6,2C 4.896,2 4,2.896 4,4L 4,20C 4,21.104 4.896,22 6,22L 18,22C 19.104,22 20,21.104 20,20L 20,8L 14,2M 13,3.5L 18.5,9L 13,9M 9.88,9.25067L 11.12,9.25067L 11.12,10.188C 11.812,10.1827 12.38,10.7453 12.38,11.4373L 12.38,13.5L 12.26,13.6307L 13.1507,15.172C 13.464,14.672 13.6253,14.088 13.62,13.5L 14.88,13.5C 14.8747,14.5413 14.5053,15.552 13.828,16.3493L 15.5,19.2507L 15.5,20.5L 14.4213,19.88L 12.8693,17.188C 12.1667,17.6453 11.3387,17.8907 10.5,17.8907C 9.66133,17.8853 8.83867,17.6453 8.13067,17.188L 6.57867,19.88L 5.5,20.5L 5.5,19.2507L 8.74,13.6307L 8.62,13.5L 8.62,11.4373C 8.62,10.7453 9.188,10.1827 9.88,10.188M 10.5,11.4373C 9.80667,11.4373 9.45866,12.2813 9.948,12.7707C 10.4373,13.26 11.2813,12.9173 11.2813,12.2187C 11.2813,11.792 10.932,11.4373 10.5,11.4373 Z M 9.66133,14.5413L 8.76,16.1093C 9.812,16.8173 11.188,16.8173 12.24,16.1093L 11.3387,14.5413C 10.8693,14.984 10.1307,14.984 9.66133,14.5413 Z "/>
</svg>
