<?xml version="1.0" encoding="utf-8"?>
<!DOCTYPE svg PUBLIC "-//W3C//DTD SVG 1.1//EN" "http://www.w3.org/Graphics/SVG/1.1/DTD/svg11.dtd">
<svg xmlns="http://www.w3.org/2000/svg" xmlns:xlink="http://www.w3.org/1999/xlink" version="1.1" baseProfile="full" width="24" height="24" viewBox="0 0 24.00 24.00" enable-background="new 0 0 24.00 24.00" xml:space="preserve">
	<path fill="#000000" fill-opacity="1" stroke-width="0.2" stroke-linejoin="round" d="M 15.5,12C 17.9853,12 20,14.0147 20,16.5C 20,17.3826 19.7459,18.2059 19.3069,18.9006L 22.3906,21.9844L 20.9844,23.3906L 17.8763,20.3221C 17.1867,20.7518 16.3723,21 15.5,21C 13.0147,21 11,18.9853 11,16.5C 11,14.0147 13.0147,12 15.5,12 Z M 15.5,14C 14.1193,14 13,15.1193 13,16.5C 13,17.8807 14.1193,19 15.5,19C 16.8807,19 18,17.8807 18,16.5C 18,15.1193 16.8807,14 15.5,14 Z M 6.99939,14.9981L 6.99939,16.9981L 9.0188,16.9981C 9.13609,18.546 9.79554,19.9425 10.8077,20.9981L 4.99939,20.9981C 3.89439,20.9981 2.99939,20.1021 2.99939,18.9981L 2.99939,4.99807C 2.99939,3.89407 3.89439,2.99807 4.99939,2.99807L 18.9994,2.99807C 20.1034,2.99807 20.9994,3.89407 20.9994,4.99807L 20.9994,13.0333C 19.848,11.2106 17.8154,10 15.5,10C 14.2272,10 13.0399,10.3658 12.0374,10.9981L 6.99939,10.9981L 6.99939,12.9981L 10.0231,12.9981C 9.6351,13.6036 9.3448,14.2776 9.17439,14.9981L 6.99939,14.9981 Z M 17.0094,8.99807L 17.0094,6.99807L 6.99939,6.99807L 6.99939,8.99807L 17.0094,8.99807 Z "/>
</svg>
