<?xml version="1.0" encoding="utf-8"?>
<!DOCTYPE svg PUBLIC "-//W3C//DTD SVG 1.1//EN" "http://www.w3.org/Graphics/SVG/1.1/DTD/svg11.dtd">
<svg xmlns="http://www.w3.org/2000/svg" xmlns:xlink="http://www.w3.org/1999/xlink" version="1.1" baseProfile="full" width="24" height="24" viewBox="0 0 24.00 24.00" enable-background="new 0 0 24.00 24.00" xml:space="preserve">
	<path fill="#000000" fill-opacity="1" stroke-width="1.33333" stroke-linejoin="miter" d="M 8,12L 16,12L 16,14L 8,14L 8,12 Z M 10,20L 6,20L 6,4L 13,4L 13,9L 18,9L 18,12.1L 20,10.1L 20,8L 14,2L 6,2C 4.9,2 4,2.9 4,4L 4,20C 4,21.1 4.9,22 6,22L 10,22L 10,20 Z M 8,18L 12.1,18L 13,17.1L 13,16L 8,16L 8,18 Z M 20.2,13C 20.3,13 20.5,13.1 20.6,13.2L 21.9,14.5C 22.1,14.7 22.1,15.1 21.9,15.3L 20.9,16.3L 18.8,14.2L 19.8,13.2C 19.9,13.1 20,13 20.2,13M 20.2,16.9L 14.1,23L 12,23L 12,20.9L 18.1,14.8L 20.2,16.9 Z "/>
</svg>
