<?xml version="1.0" encoding="utf-8"?>
<!DOCTYPE svg PUBLIC "-//W3C//DTD SVG 1.1//EN" "http://www.w3.org/Graphics/SVG/1.1/DTD/svg11.dtd">
<svg xmlns="http://www.w3.org/2000/svg" xmlns:xlink="http://www.w3.org/1999/xlink" version="1.1" baseProfile="full" width="24" height="24" viewBox="0 0 24.00 24.00" enable-background="new 0 0 24.00 24.00" xml:space="preserve">
	<path fill="#000000" fill-opacity="1" stroke-width="1.33333" stroke-linejoin="miter" d="M 14,8L 10,8L 10,6L 14,6L 14,8 Z M 20,4L 20,20C 20,21.105 19.105,22 18,22L 6,22C 4.895,22 4,21.105 4,20L 4,4C 4,2.895 4.895,2 6,2L 18,2C 19.105,2 20,2.895 20,4 Z M 18,13L 6,13L 6,20L 18,20L 18,13 Z M 18,4L 6,4L 6,11L 18,11L 18,4 Z M 14,15L 10,15L 10,17L 14,17L 14,15 Z "/>
</svg>
