<?xml version="1.0" encoding="utf-8"?>
<!DOCTYPE svg PUBLIC "-//W3C//DTD SVG 1.1//EN" "http://www.w3.org/Graphics/SVG/1.1/DTD/svg11.dtd">
<svg xmlns="http://www.w3.org/2000/svg" xmlns:xlink="http://www.w3.org/1999/xlink" version="1.1" baseProfile="full" width="24" height="24" viewBox="0 0 24.00 24.00" enable-background="new 0 0 24.00 24.00" xml:space="preserve">
	<path fill="#000000" fill-opacity="1" stroke-width="0.2" stroke-linejoin="round" d="M 6,2L 14,2.00001L 20,8L 20,20C 20,21.1046 19.1046,22 18,22L 6,22C 4.89543,22 4,21.1046 4,20L 4,4C 4,2.89543 4.89543,2 6,2 Z M 13,3.5L 13,9L 18.5,9L 13,3.5 Z M 8,11L 8,13L 9,13L 9,19L 8,19L 8,20L 12,20L 12,19L 11,19L 11,17L 13,17C 14.6568,17 16,15.6569 16,14C 16,12.3432 14.6568,11 13,11L 8,11 Z M 13,13C 13.5523,13 14,13.4477 14,14C 14,14.5523 13.5523,15 13,15L 11,15L 11,13L 13,13 Z "/>
</svg>
