<?xml version="1.0" encoding="utf-8"?>
<!DOCTYPE svg PUBLIC "-//W3C//DTD SVG 1.1//EN" "http://www.w3.org/Graphics/SVG/1.1/DTD/svg11.dtd">
<svg xmlns="http://www.w3.org/2000/svg" xmlns:xlink="http://www.w3.org/1999/xlink" version="1.1" baseProfile="full" width="24" height="24" viewBox="0 0 24.00 24.00" enable-background="new 0 0 24.00 24.00" xml:space="preserve">
	<path fill="#000000" fill-opacity="1" stroke-width="1.33333" stroke-linejoin="miter" d="M 14,2L 6,2C 4.9,2 4,2.9 4,4L 4,20C 4,21.1 4.9,22 6,22L 18,22C 19.1,22 20,21.1 20,20L 20,8L 14,2 Z M 13,13L 11,13L 11,18C 11,19.1 10.1,20 9,20C 7.9,20 7,19.1 7,18C 7,16.9 7.9,16 9,16C 9.4,16 9.7,16.1 10,16.3L 10,11L 13,11L 13,13 Z M 13,9L 13,3.5L 18.5,9L 13,9 Z "/>
</svg>
