<?xml version="1.0" encoding="utf-8"?>
<!DOCTYPE svg PUBLIC "-//W3C//DTD SVG 1.1//EN" "http://www.w3.org/Graphics/SVG/1.1/DTD/svg11.dtd">
<svg xmlns="http://www.w3.org/2000/svg" xmlns:xlink="http://www.w3.org/1999/xlink" version="1.1" baseProfile="full" width="24" height="24" viewBox="0 0 24.00 24.00" enable-background="new 0 0 24.00 24.00" xml:space="preserve">
	<path fill="#000000" fill-opacity="1" stroke-width="0.2" stroke-linejoin="round" d="M 15.4994,16.9981L 13.9994,16.9981L 11.9994,9.49807L 9.99943,16.9981L 8.49943,16.9981L 6.09944,6.99807L 7.79942,6.99807L 9.34144,14.5051L 11.2994,6.99807L 12.6994,6.99807L 14.6714,14.5051L 16.1994,6.99807L 17.8994,6.99807M 18.9994,2.99807L 4.99943,2.99807C 3.89442,2.99807 2.99943,3.89406 2.99943,4.99807L 2.99943,18.9981C 2.99943,20.1021 3.89442,20.9981 4.99943,20.9981L 18.9994,20.9981C 20.1034,20.9981 20.9994,20.1021 20.9994,18.9981L 20.9994,4.99807C 20.9994,3.89406 20.1034,2.99807 18.9994,2.99807 Z "/>
</svg>
