<?xml version="1.0" encoding="utf-8"?>
<!DOCTYPE svg PUBLIC "-//W3C//DTD SVG 1.1//EN" "http://www.w3.org/Graphics/SVG/1.1/DTD/svg11.dtd">
<svg xmlns="http://www.w3.org/2000/svg" xmlns:xlink="http://www.w3.org/1999/xlink" version="1.1" baseProfile="full" width="24" height="24" viewBox="0 0 24.00 24.00" enable-background="new 0 0 24.00 24.00" xml:space="preserve">
	<path fill="#000000" fill-opacity="1" stroke-width="0.2" stroke-linejoin="round" d="M 12.9994,8.99807L 18.4994,8.99807L 12.9994,3.49807L 12.9994,8.99807 Z M 5.99939,1.99807L 13.9994,1.99807L 19.9994,7.99807L 19.9994,19.9981C 19.9994,21.1021 19.1034,21.9981 17.9994,21.9981L 5.98938,21.9981C 4.88538,21.9981 3.99939,21.1021 3.99939,19.9981L 4.0094,3.99807C 4.0094,2.89407 4.89437,1.99807 5.99939,1.99807 Z M 10.5,11C 8.01472,11 6,13.0147 6,15.5C 6,17.9853 8.01472,20 10.5,20C 12.9853,20 15,17.9853 15,15.5C 15,13.0147 12.9853,11 10.5,11 Z M 10.5,12.5C 12.1568,12.5 13.5,13.8431 13.5,15.5C 13.5,16.0564 13.3485,16.5773 13.0846,17.024L 8.97602,12.9154C 9.42266,12.6515 9.94364,12.5 10.5,12.5 Z M 7.5,15.5C 7.5,14.9436 7.65145,14.4227 7.91536,13.976L 12.024,18.0846C 11.5773,18.3486 11.0564,18.5 10.5,18.5C 8.84315,18.5 7.5,17.1569 7.5,15.5 Z "/>
</svg>
