<?xml version="1.0" encoding="utf-8"?>
<!DOCTYPE svg PUBLIC "-//W3C//DTD SVG 1.1//EN" "http://www.w3.org/Graphics/SVG/1.1/DTD/svg11.dtd">
<svg xmlns="http://www.w3.org/2000/svg" xmlns:xlink="http://www.w3.org/1999/xlink" version="1.1" baseProfile="full" width="24" height="24" viewBox="0 0 24.00 24.00" enable-background="new 0 0 24.00 24.00" xml:space="preserve">
	<path fill="#000000" fill-opacity="1" stroke-width="1.33333" stroke-linejoin="miter" d="M 13,9L 18.5,9L 13,3.5L 13,9 Z M 6,2.00001L 14,2.00001L 20,8L 20,20C 20,21.1 19.1,22 18,22L 6,22C 4.9,22 4,21.1 4,20L 4,4.00001C 4,2.90001 4.9,2.00001 6,2.00001 Z M 10.1016,11.3958C 10.0791,11.438 9.80989,13.1563 7.98697,16.0938C 7.98697,16.0938 4.49034,17.9052 5.33072,19.2708C 5.99739,20.3542 7.65364,19.2292 9.0703,16.5938C 9.0703,16.5938 10.8932,15.9479 13.3099,15.7708C 13.3099,15.7708 17.1745,17.5104 17.6953,15.6563C 18.2161,13.8021 14.6432,14.2188 14.0182,14.4063C 14.0182,14.4063 11.9766,13.0625 11.4974,11.1979C 11.4974,11.1979 12.6432,7.25001 10.8932,7.30209C 9.14322,7.35418 9.79947,10.4271 10.1016,11.3958 Z M 10.9115,12.4427C 10.9394,12.4493 11.3802,13.6458 12.8021,14.8958C 12.8021,14.8958 10.474,15.3646 9.41145,15.8021C 9.41145,15.8021 10.4115,14.0677 10.9115,12.4427 Z M 14.8411,15.1563C 15.4245,15.0104 17.1667,15.3073 17.1015,15.6406C 17.0364,15.974 14.8411,15.1563 14.8411,15.1563 Z M 7.76822,17.0208C 7.23697,18.2396 6.33072,19.0104 6.10155,19C 5.87239,18.9896 6.79947,17.3958 7.76822,17.0208 Z M 10.9139,10.0721C 10.9057,10.0235 10.5456,7.87416 10.9141,7.91668C 11.4516,7.9787 10.912,10.0205 10.9139,10.0721 Z "/>
</svg>
