<?xml version="1.0" encoding="utf-8"?>
<!DOCTYPE svg PUBLIC "-//W3C//DTD SVG 1.1//EN" "http://www.w3.org/Graphics/SVG/1.1/DTD/svg11.dtd">
<svg xmlns="http://www.w3.org/2000/svg" xmlns:xlink="http://www.w3.org/1999/xlink" version="1.1" baseProfile="full" width="24" height="24" viewBox="0 0 24.00 24.00" enable-background="new 0 0 24.00 24.00" xml:space="preserve">
	<path fill="#000000" fill-opacity="1" stroke-linejoin="round" d="M 5,3C 3.896,3 3,3.896 3,5L 3,19C 3,20.104 3.896,21 5,21L 19,21C 20.104,21 21,20.104 21,19L 21,5C 21,3.896 20.104,3 19,3M 11.2507,5.25067L 12.7493,5.25067L 12.7493,6.38C 13.5787,6.38 14.2507,7.052 14.2507,7.88L 14.2507,10.3693L 14.1093,10.5L 15.1827,12.36C 15.552,11.76 15.7493,11.068 15.7493,10.36L 17.2507,10.36C 17.2547,11.6093 16.8067,12.8173 16,13.7707L 18,17.2507L 18,18.7493L 16.6973,18L 14.8387,14.7813C 13.1147,15.9067 10.8853,15.9067 9.16133,14.7813L 7.30267,18L 6,18.7493L 6,17.2507L 9.89067,10.5L 9.74933,10.3693L 9.74933,7.88C 9.74933,7.052 10.4213,6.38 11.2507,6.38M 12,7.88C 11.1613,7.88 10.74,8.896 11.3387,9.48934C 11.9373,10.0787 12.948,9.65067 12.9373,8.812C 12.9373,8.292 12.516,7.87467 12,7.88 Z M 11,11.5987L 9.912,13.5C 11.172,14.3547 12.828,14.3547 14.088,13.5L 13,11.5987C 12.432,12.1093 11.568,12.1093 11,11.5987 Z "/>
</svg>
