<?xml version="1.0" encoding="utf-8"?>
<!DOCTYPE svg PUBLIC "-//W3C//DTD SVG 1.1//EN" "http://www.w3.org/Graphics/SVG/1.1/DTD/svg11.dtd">
<svg xmlns="http://www.w3.org/2000/svg" xmlns:xlink="http://www.w3.org/1999/xlink" version="1.1" baseProfile="full" width="24" height="24" viewBox="0 0 24.00 24.00" enable-background="new 0 0 24.00 24.00" xml:space="preserve">
	<path fill="#000000" fill-opacity="1" stroke-linejoin="round" d="M 19,11.5C 19,11.5 17,13.667 17,15C 17,16.104 17.896,17 19,17C 20.104,17 21,16.104 21,15C 21,13.667 19,11.5 19,11.5 Z M 14.7187,9.97917L 5.207,10L 10,5.208L 14.7187,9.97917 Z M 16.561,8.939L 7.621,0L 6.207,1.414L 8.586,3.793L 3.439,8.939C 2.854,9.525 2.854,10.475 3.439,11.061L 8.939,16.561C 9.232,16.854 9.616,17 10,17C 10.384,17 10.768,16.854 11.061,16.561L 16.561,11.061C 17.146,10.475 17.146,9.525 16.561,8.939 Z "/>
	<rect x="0" y="20" fill="#000000" fill-opacity="1" stroke-linejoin="round" width="24" height="4"/>
</svg>
