<?xml version="1.0" encoding="utf-8"?>
<!DOCTYPE svg PUBLIC "-//W3C//DTD SVG 1.1//EN" "http://www.w3.org/Graphics/SVG/1.1/DTD/svg11.dtd">
<svg xmlns="http://www.w3.org/2000/svg" xmlns:xlink="http://www.w3.org/1999/xlink" version="1.1" baseProfile="full" width="24" height="24" viewBox="0 0 24.00 24.00" enable-background="new 0 0 24.00 24.00" xml:space="preserve">
	<path fill="#000000" fill-opacity="1" stroke-width="0.2" stroke-linejoin="round" d="M 17.9994,8.99805L 15.9994,8.99805L 15.9994,6.99805L 17.9994,6.99805M 17.9994,12.998L 15.9994,12.998L 15.9994,10.998L 17.9994,10.998M 17.9994,16.998L 15.9994,16.998L 15.9994,14.998L 17.9994,14.998M 7.99939,8.99805L 5.99939,8.99805L 5.99939,6.99805L 7.99939,6.99805M 7.99939,12.998L 5.99939,12.998L 5.99939,10.998L 7.99939,10.998M 7.99939,16.998L 5.99939,16.998L 5.99939,14.998L 7.99939,14.998M 17.9994,2.99805L 17.9994,4.99805L 15.9994,4.99805L 15.9994,2.99805L 7.99939,2.99805L 7.99939,4.99805L 5.99939,4.99805L 5.99939,2.99805L 3.99939,2.99805L 3.99939,20.998L 5.99939,20.998L 5.99939,18.998L 7.99939,18.998L 7.99939,20.998L 15.9994,20.998L 15.9994,18.998L 17.9994,18.998L 17.9994,20.998L 19.9994,20.998L 19.9994,2.99805L 17.9994,2.99805 Z "/>
</svg>
