<?xml version="1.0" encoding="utf-8"?>
<!DOCTYPE svg PUBLIC "-//W3C//DTD SVG 1.1//EN" "http://www.w3.org/Graphics/SVG/1.1/DTD/svg11.dtd">
<svg xmlns="http://www.w3.org/2000/svg" xmlns:xlink="http://www.w3.org/1999/xlink" version="1.1" baseProfile="full" width="24" height="24" viewBox="0 0 24.00 24.00" enable-background="new 0 0 24.00 24.00" xml:space="preserve">
	<path fill="#000000" fill-opacity="1" stroke-linejoin="round" d="M 3.5,3L 5,3L 5,1.80001C 5,1.35818 5.35817,1.00001 5.8,1.00001L 10.2,1.00001C 10.6418,1.00001 11,1.35818 11,1.80001L 11,3L 12.5,3C 13.3284,3 14,3.67158 14,4.5L 14,5L 22,5L 22,20L 14,20L 14,20.5C 14,21.3284 13.3284,22 12.5,22L 3.5,22C 2.67157,22 2,21.3284 2,20.5L 2,4.5C 2,3.67158 2.67157,3 3.5,3 Z M 18,7.00001L 18,9.00001L 20,9.00001L 20,7.00001L 18,7.00001 Z M 14,7.00001L 14,9L 16,9L 16,7.00001L 14,7.00001 Z M 10,7.00001L 10,9L 12,9L 12,7.00001L 10,7.00001 Z M 14,16L 14,18L 16,18L 16,16L 14,16 Z M 18,16L 18,18L 20,18L 20,16L 18,16 Z M 10,16L 10,18L 12,18L 12,16L 10,16 Z "/>
</svg>
