<?xml version="1.0" encoding="utf-8"?>
<!DOCTYPE svg PUBLIC "-//W3C//DTD SVG 1.1//EN" "http://www.w3.org/Graphics/SVG/1.1/DTD/svg11.dtd">
<svg xmlns="http://www.w3.org/2000/svg" xmlns:xlink="http://www.w3.org/1999/xlink" version="1.1" baseProfile="full" width="24" height="24" viewBox="0 0 24.00 24.00" enable-background="new 0 0 24.00 24.00" xml:space="preserve">
	<path fill="#000000" fill-opacity="1" stroke-width="0.2" stroke-linejoin="miter" d="M 14.7574,20.8284L 17.6036,17.9822L 14.7574,15.1716L 16.1716,13.7574L 19.0178,16.568L 21.8284,13.7574L 23.2426,15.1716L 20.432,17.9822L 23.2426,20.8284L 21.8284,22.2426L 19.0178,19.3964L 16.1716,22.2426L 14.7574,20.8284 Z M 12,12L 12,19.8832C 12.0361,20.1782 11.941,20.4862 11.7146,20.7127C 11.324,21.1032 10.6909,21.1032 10.3004,20.7127L 8.2851,18.6974C 8.05799,18.4703 7.96296,18.1611 8,17.8653L 8,12L 7.97408,12L 2.21004,4.62237C 1.87002,4.18716 1.94719,3.55872 2.38239,3.21869C 2.56593,3.0753 2.78385,3.0061 3,3.00666L 3,3L 17,3L 17,3.00666C 17.2161,3.0061 17.4341,3.0753 17.6176,3.21869C 18.0528,3.55871 18.13,4.18716 17.79,4.62237L 12.0259,12L 12,12 Z "/>
</svg>
