<?xml version="1.0" encoding="utf-8"?>
<!DOCTYPE svg PUBLIC "-//W3C//DTD SVG 1.1//EN" "http://www.w3.org/Graphics/SVG/1.1/DTD/svg11.dtd">
<svg xmlns="http://www.w3.org/2000/svg" xmlns:xlink="http://www.w3.org/1999/xlink" version="1.1" baseProfile="full" width="24" height="24" viewBox="0 0 24.00 24.00" enable-background="new 0 0 24.00 24.00" xml:space="preserve">
	<path fill="#000000" fill-opacity="1" stroke-width="0.2" stroke-linejoin="miter" d="M 15,17L 23,17L 23,19L 15,19L 15,17 Z M 13,19.8832C 13.0361,20.1782 12.941,20.4862 12.7146,20.7127C 12.324,21.1032 11.6909,21.1032 11.3003,20.7127L 7.2851,16.6974C 7.05799,16.4703 6.96296,16.1611 6.99999,15.8654L 7,10.7532L 2.21005,4.62237C 1.87003,4.18716 1.94719,3.55872 2.3824,3.2187C 2.56594,3.0753 2.78385,3.0061 3,3.00667L 3,3L 17,3L 17,3.00667C 17.2161,3.0061 17.4341,3.0753 17.6176,3.2187C 18.0528,3.55872 18.13,4.18716 17.79,4.62237L 13,10.7532L 13,19.8832 Z M 5.04312,5.00002L 9,10.0646L 8.99999,15.5839L 11,17.5839L 11,10.0486L 14.9569,5.00002L 5.04312,5.00002 Z "/>
</svg>
