<?xml version="1.0" encoding="utf-8"?>
<!DOCTYPE svg PUBLIC "-//W3C//DTD SVG 1.1//EN" "http://www.w3.org/Graphics/SVG/1.1/DTD/svg11.dtd">
<svg xmlns="http://www.w3.org/2000/svg" xmlns:xlink="http://www.w3.org/1999/xlink" version="1.1" baseProfile="full" width="24" height="24" viewBox="0 0 24.00 24.00" enable-background="new 0 0 24.00 24.00" xml:space="preserve">
	<path fill="#000000" fill-opacity="1" stroke-width="0.2" stroke-linejoin="miter" d="M 14.7322,20.8284L 17.5784,17.9822L 14.7322,15.1716L 16.1464,13.7574L 18.9926,16.568L 21.8033,13.7574L 23.2175,15.1716L 20.4069,17.9822L 23.2175,20.8284L 21.8033,22.2426L 18.9926,19.3964L 16.1464,22.2426L 14.7322,20.8284 Z M 13,19.8832C 13.0361,20.1782 12.941,20.4862 12.7146,20.7127C 12.324,21.1032 11.6909,21.1032 11.3003,20.7127L 7.28509,16.6974C 7.05799,16.4703 6.96295,16.1611 6.99999,15.8654L 7,10.7532L 2.21004,4.62237C 1.87002,4.18716 1.94719,3.55872 2.38239,3.21869C 2.56593,3.0753 2.78385,3.0061 3,3.00666L 3,3L 17,3L 17,3.00666C 17.2161,3.0061 17.4341,3.0753 17.6176,3.21869C 18.0528,3.55871 18.13,4.18716 17.79,4.62237L 13,10.7532L 13,19.8832 Z M 5.04311,5.00002L 9,10.0646L 8.99999,15.5839L 11,17.5839L 11,10.0486L 14.9569,5.00001L 5.04311,5.00002 Z "/>
</svg>
