<?xml version="1.0" encoding="utf-8"?>
<!DOCTYPE svg PUBLIC "-//W3C//DTD SVG 1.1//EN" "http://www.w3.org/Graphics/SVG/1.1/DTD/svg11.dtd">
<svg xmlns="http://www.w3.org/2000/svg" xmlns:xlink="http://www.w3.org/1999/xlink" version="1.1" baseProfile="full" width="24" height="24" viewBox="0 0 24.00 24.00" enable-background="new 0 0 24.00 24.00" xml:space="preserve">
	<path fill="#000000" fill-opacity="1" stroke-width="0.2" stroke-linejoin="miter" d="M 15,19.8832C 15.0361,20.1782 14.941,20.4862 14.7146,20.7127C 14.324,21.1032 13.6909,21.1032 13.3003,20.7127L 9.28509,16.6974C 9.05799,16.4703 8.96295,16.1611 8.99999,15.8654L 9,10.7532L 4.21004,4.62237C 3.87002,4.18716 3.94719,3.55871 4.38239,3.21869C 4.56593,3.07529 4.78385,3.0061 5,3.00666L 5,3L 19,3L 19,3.00666C 19.2161,3.0061 19.4341,3.07529 19.6176,3.21869C 20.0528,3.55871 20.13,4.18716 19.79,4.62237L 15,10.7532L 15,19.8832 Z M 7.04311,5.00001L 11,10.0646L 11,15.5839L 13,17.5839L 13,10.0486L 16.9569,5.00001L 7.04311,5.00001 Z "/>
</svg>
