<?xml version="1.0" encoding="utf-8"?>
<!DOCTYPE svg PUBLIC "-//W3C//DTD SVG 1.1//EN" "http://www.w3.org/Graphics/SVG/1.1/DTD/svg11.dtd">
<svg xmlns="http://www.w3.org/2000/svg" xmlns:xlink="http://www.w3.org/1999/xlink" version="1.1" baseProfile="full" width="24" height="24" viewBox="0 0 24.00 24.00" enable-background="new 0 0 24.00 24.00" xml:space="preserve">
	<path fill="#000000" fill-opacity="1" stroke-linejoin="round" d="M 3,13L 7,13L 7,23L 3,23L 3,13 Z M 10,14L 14,14L 14,23L 10,23L 10,14 Z M 17,9.00001L 21,9.00001L 21,23L 17,23L 17,9.00001 Z M 17,1.00001L 21,1.00001L 21,5.00001L 20,5.00001L 20,3.06067L 11.9697,11.091L 8,7.12132L 3.40381,11.7175L 2.34315,10.6569L 8,5L 11.9697,8.96967L 18.9393,2.00001L 17,2.00001L 17,1.00001 Z "/>
</svg>
