<?xml version="1.0" encoding="utf-8"?>
<!DOCTYPE svg PUBLIC "-//W3C//DTD SVG 1.1//EN" "http://www.w3.org/Graphics/SVG/1.1/DTD/svg11.dtd">
<svg xmlns="http://www.w3.org/2000/svg" xmlns:xlink="http://www.w3.org/1999/xlink" version="1.1" baseProfile="full" width="24" height="24" viewBox="0 0 24.00 24.00" enable-background="new 0 0 24.00 24.00" xml:space="preserve">
	<path fill="#000000" fill-opacity="1" stroke-width="1.33333" stroke-linejoin="miter" d="M 11,6C 12.38,6 13.63,6.56 14.54,7.46L 12,10L 18,10L 18,4L 15.95,6.05C 14.68,4.78 12.93,4 11,4C 7.47,4 4.57,6.61 4.08,10L 6.1,10C 6.56,7.72 8.58,6 11,6 Z M 16.64,15.14C 17.3,14.24 17.76,13.17 17.92,12L 15.9,12C 15.44,14.28 13.42,16 11,16C 9.62,16 8.37,15.44 7.46,14.54L 10,12L 4,12L 4,18L 6.05,15.95C 7.32,17.22 9.07,18 11,18C 12.55,18 13.98,17.49 15.14,16.64L 20,21.49L 21.49,20L 16.64,15.14 Z "/>
</svg>
