<?xml version="1.0" encoding="utf-8"?>
<!DOCTYPE svg PUBLIC "-//W3C//DTD SVG 1.1//EN" "http://www.w3.org/Graphics/SVG/1.1/DTD/svg11.dtd">
<svg xmlns="http://www.w3.org/2000/svg" xmlns:xlink="http://www.w3.org/1999/xlink" version="1.1" baseProfile="full" width="24" height="24" viewBox="0 0 24.00 24.00" enable-background="new 0 0 24.00 24.00" xml:space="preserve">
	<path fill="#000000" fill-opacity="1" stroke-width="1.33333" stroke-linejoin="miter" d="M 17.8075,4.4675C 17.73,4.4675 17.6513,4.4488 17.5787,4.4088C 15.6587,3.4175 13.9987,2.9978 12.0113,2.9978C 10.0288,2.9978 8.15,3.4713 6.44,4.4088C 6.20125,4.5413 5.89875,4.4488 5.76125,4.2087C 5.63,3.9695 5.7175,3.6625 5.9625,3.53C 7.8225,2.5205 9.85875,2.0025 12.0113,2.0025C 14.1412,2.0025 16.0012,2.4713 18.0425,3.52C 18.2913,3.6521 18.3788,3.95 18.2525,4.19C 18.1588,4.37 17.9887,4.4675 17.8075,4.4675 Z M 3.50125,9.7212C 3.39875,9.7212 3.30125,9.6925 3.2075,9.6287C 2.97875,9.4675 2.93,9.16 3.09125,8.9312C 4.0825,7.5287 5.34125,6.4313 6.84125,5.6588C 9.98,4.0375 13.9987,4.0287 17.1488,5.65C 18.6525,6.4212 19.9125,7.51 20.8984,8.9012C 21.06,9.1213 21.0107,9.4388 20.7813,9.6C 20.5518,9.7612 20.2393,9.7125 20.0787,9.4825C 19.18,8.2175 18.0425,7.2312 16.69,6.5375C 13.8188,5.0687 10.1512,5.0687 7.29,6.5475C 5.9275,7.2512 4.79,8.2525 3.89125,9.5112C 3.80875,9.6488 3.6625,9.7212 3.50125,9.7212 Z M 9.75125,21.7925C 9.61875,21.7925 9.4925,21.7388 9.4,21.64C 8.53,20.7712 8.06125,20.21 7.3875,18.9988C 6.69875,17.7687 6.3375,16.27 6.3375,14.6588C 6.3375,11.69 8.88125,9.2675 12.0025,9.2675C 15.1225,9.2675 17.6612,11.69 17.6612,14.6588C 17.6612,14.9412 17.4413,15.1613 17.1587,15.1613C 16.88,15.1613 16.66,14.9412 16.66,14.6588C 16.66,12.2413 14.57,10.2688 12.0025,10.2688C 9.42875,10.2688 7.33875,12.2413 7.33875,14.6588C 7.33875,16.0988 7.66125,17.4313 8.27125,18.5113C 8.91125,19.6588 9.35,20.1512 10.1225,20.9275C 10.3075,21.1275 10.3075,21.44 10.1225,21.64C 10.01,21.7388 9.8775,21.7925 9.75125,21.7925 Z M 16.9188,19.9412C 15.7325,19.9412 14.6775,19.6388 13.8188,19.0475C 12.3287,18.0425 11.44,16.4012 11.44,14.6588C 11.44,14.38 11.66,14.16 11.9388,14.16C 12.2212,14.16 12.4413,14.38 12.4413,14.6588C 12.4413,16.0687 13.1587,17.4025 14.38,18.2175C 15.0875,18.7013 15.9175,18.9312 16.9188,18.9312C 17.1587,18.9312 17.5587,18.9012 17.9587,18.8275C 18.2325,18.7787 18.4912,18.96 18.54,19.2388C 18.5888,19.5112 18.4087,19.77 18.13,19.8187C 17.5587,19.9313 17.06,19.9412 16.9188,19.9412 Z M 14.9125,22.0025C 14.8688,22.0025 14.8187,21.9925 14.78,21.9825C 13.1888,21.5375 12.1488,20.9525 11.06,19.8775C 9.65875,18.4913 8.89125,16.64 8.89125,14.6588C 8.89125,13.0425 10.2688,11.7188 11.9675,11.7188C 13.6725,11.7188 15.0487,13.0425 15.0487,14.6588C 15.0487,15.7325 15.9813,16.6013 17.1288,16.6013C 18.2813,16.6013 19.2087,15.7325 19.2087,14.6588C 19.2087,10.8887 15.9625,7.8325 11.9575,7.8325C 9.12125,7.8325 6.51875,9.4087 5.35125,11.86C 4.96125,12.6713 4.76125,13.6187 4.76125,14.6588C 4.76125,15.44 4.82875,16.67 5.43,18.2712C 5.5325,18.53 5.4,18.8188 5.14125,18.9113C 4.8775,19.0087 4.59,18.8725 4.5025,18.6187C 4.00875,17.31 3.77,16.0113 3.77,14.6588C 3.77,13.4625 3.99875,12.3687 4.44875,11.4213C 5.78125,8.6275 8.73,6.8212 11.9575,6.8212C 16.5088,6.8212 20.21,10.3325 20.21,14.6487C 20.21,16.27 18.8287,17.5875 17.1288,17.5875C 15.43,17.5875 14.0475,16.27 14.0475,14.6487C 14.0475,13.5788 13.12,12.71 11.9675,12.71C 10.82,12.71 9.8875,13.5788 9.8875,14.6487C 9.8875,16.3625 10.5513,17.9587 11.7575,19.16C 12.71,20.0975 13.6188,20.62 15.0288,21.0113C 15.2975,21.0788 15.4488,21.3625 15.3813,21.6213C 15.3325,21.85 15.1225,22.0025 14.9125,22.0025 Z "/>
</svg>
