<?xml version="1.0" encoding="utf-8"?>
<!DOCTYPE svg PUBLIC "-//W3C//DTD SVG 1.1//EN" "http://www.w3.org/Graphics/SVG/1.1/DTD/svg11.dtd">
<svg xmlns="http://www.w3.org/2000/svg" xmlns:xlink="http://www.w3.org/1999/xlink" version="1.1" baseProfile="full" width="24" height="24" viewBox="0 0 24.00 24.00" enable-background="new 0 0 24.00 24.00" xml:space="preserve">
	<path fill="#000000" fill-opacity="1" stroke-width="0.2" stroke-linejoin="miter" d="M 1.5,4.76848L 2.77711,3.50001L 20.5,21.2229L 19.2315,22.5L 16.6682,19.9366C 15.5837,19.8968 14.6165,19.5968 13.8188,19.0475C 12.3429,18.0521 11.457,16.4325 11.4402,14.7087L 10.2659,13.5343C 10.0275,13.8497 9.8875,14.2341 9.8875,14.6487C 9.8875,16.3625 10.5513,17.9587 11.7575,19.16C 12.71,20.0975 13.6188,20.62 15.0288,21.0113C 15.2975,21.0788 15.4488,21.3625 15.3813,21.6213C 15.3325,21.85 15.1225,22.0025 14.9125,22.0025L 14.78,21.9825C 13.1888,21.5375 12.1488,20.9525 11.06,19.8775C 9.65875,18.4913 8.89125,16.64 8.89125,14.6588C 8.89125,13.9692 9.14199,13.3329 9.56144,12.8299L 8.49763,11.7661C 7.77634,12.5396 7.33875,13.5526 7.33875,14.6588C 7.33875,16.0988 7.66125,17.4313 8.27125,18.5113C 8.91125,19.6588 9.35,20.1512 10.1225,20.9275C 10.3075,21.1275 10.3075,21.44 10.1225,21.64C 10.01,21.7388 9.8775,21.7925 9.75125,21.7925C 9.61875,21.7925 9.4925,21.7388 9.4,21.64C 8.53,20.7712 8.06125,20.21 7.3875,18.9988C 6.69876,17.7687 6.3375,16.27 6.3375,14.6588C 6.3375,13.2778 6.88792,12.015 7.79084,11.0593L 6.69825,9.96673C 6.14826,10.513 5.68952,11.1498 5.35125,11.86C 4.96125,12.6713 4.76126,13.6187 4.76126,14.6588C 4.76126,15.44 4.82875,16.67 5.43,18.2712C 5.5325,18.53 5.4,18.8188 5.14125,18.9113C 4.8775,19.0087 4.59001,18.8725 4.5025,18.6187C 4.00875,17.31 3.77,16.0113 3.77,14.6588C 3.77,13.4625 3.99875,12.3687 4.44876,11.4213C 4.83602,10.6093 5.3598,9.88079 5.98727,9.25574L 4.96971,8.23818C 4.57888,8.62695 4.21918,9.05194 3.89125,9.5112C 3.80875,9.6488 3.6625,9.7212 3.50125,9.7212L 3.2075,9.6287C 2.97875,9.4675 2.93,9.16 3.09125,8.9312C 3.44852,8.42571 3.84054,7.95985 4.26607,7.53455L 1.5,4.76848 Z M 17.8075,4.4675L 17.5787,4.4088C 15.6587,3.4175 13.9987,2.9978 12.0113,2.9978C 10.0288,2.9978 8.15,3.4713 6.44,4.4088L 6.28554,4.46285L 5.70782,3.88513C 5.73301,3.73979 5.82177,3.60611 5.9625,3.53C 7.8225,2.5205 9.85875,2.0025 12.0113,2.0025C 14.1412,2.0025 16.0012,2.4713 18.0425,3.52C 18.2913,3.6521 18.3788,3.95 18.2525,4.19C 18.1588,4.37 17.9887,4.4675 17.8075,4.4675 Z M 17.1488,5.65C 18.6525,6.4212 19.9125,7.50977 20.8984,8.9012C 21.06,9.1213 21.0107,9.4388 20.7813,9.6C 20.5518,9.7612 20.2393,9.7125 20.0787,9.4825C 19.18,8.2175 18.0425,7.2312 16.69,6.5375C 14.0604,5.19228 10.7627,5.0791 8.02834,6.20565L 7.2717,5.44902C 10.3412,4.04003 14.141,4.10192 17.1488,5.65 Z M 12.0025,9.2675C 15.1225,9.2675 17.6612,11.69 17.6612,14.6588C 17.6612,14.9412 17.4413,15.1613 17.1587,15.1613L 16.9296,15.1069L 16.7158,14.8931L 16.6602,14.6588C 16.6602,12.2695 14.6186,10.315 12.0923,10.2696L 11.1511,9.32843L 12.0025,9.2675 Z M 14.38,18.2175C 14.7132,18.4453 15.0735,18.6168 15.4661,18.7346L 12.6304,15.8988C 12.9187,16.8244 13.5262,17.6477 14.38,18.2175 Z M 19.2087,14.6588C 19.2087,10.8887 15.9625,7.8325 11.9575,7.8325C 11.2615,7.8325 10.5796,7.92741 9.92955,8.10687L 9.12354,7.30085C 10.0171,6.9888 10.9744,6.8212 11.9575,6.8212C 16.5088,6.8212 20.21,10.3325 20.21,14.6487C 20.21,15.6477 19.6855,16.5314 18.8852,17.0626L 18.1665,16.3438C 18.7904,16.0086 19.2087,15.3799 19.2087,14.6588 Z "/>
</svg>
