<?xml version="1.0" encoding="utf-8"?>
<!DOCTYPE svg PUBLIC "-//W3C//DTD SVG 1.1//EN" "http://www.w3.org/Graphics/SVG/1.1/DTD/svg11.dtd">
<svg xmlns="http://www.w3.org/2000/svg" xmlns:xlink="http://www.w3.org/1999/xlink" version="1.1" baseProfile="full" width="24" height="24" viewBox="0 0 24.00 24.00" enable-background="new 0 0 24.00 24.00" xml:space="preserve">
	<path fill="#000000" fill-opacity="1" stroke-width="1.33333" stroke-linejoin="miter" d="M 20,18.6894L 12.7,22.7394C 12.2,23.0061 11.7,23.0061 11.2,22.7394L 3.99999,18.6894L 17.05,5.5394L 17.4,5.4394C 17.7,5.4394 17.8667,5.57274 17.9,5.8394L 20,18.6894 Z M 9.34999,5.7394L 4.79999,13.2894L 6.69999,1.33941C 6.73333,1.07274 6.89999,0.939407 7.19999,0.939407C 7.39999,0.939407 7.53333,1.02274 7.59999,1.18941L 9.74999,5.1394L 9.34999,5.7394 Z M 13.85,6.9894L 4.29999,16.5894L 11.55,4.2894C 11.65,4.0894 11.8,3.9894 12,3.9894C 12.2,3.9894 12.3333,4.0894 12.4,4.2894L 13.85,6.9894 Z "/>
</svg>
