<?xml version="1.0" encoding="utf-8"?>
<!DOCTYPE svg PUBLIC "-//W3C//DTD SVG 1.1//EN" "http://www.w3.org/Graphics/SVG/1.1/DTD/svg11.dtd">
<svg xmlns="http://www.w3.org/2000/svg" xmlns:xlink="http://www.w3.org/1999/xlink" version="1.1" baseProfile="full" width="24" height="24" viewBox="0 0 24.00 24.00" enable-background="new 0 0 24.00 24.00" xml:space="preserve">
	<path fill="#000000" fill-opacity="1" stroke-width="0.2" stroke-linejoin="miter" d="M 22,22L 2,22L 2,20L 22,20L 22,22 Z M 22,6L 2,6L 2,3L 22,3L 22,6 Z M 20,7L 20,19L 17,19L 17,11C 17,11 14.5,10 12,10C 9.5,10 7,11 7,11L 7,19L 4,19L 4,7L 20,7 Z M 14.4795,14.665L 14.4663,14.6694L 14.8102,15.2204L 14.8675,15.3351C 15.2863,16.349 14.9997,17.5128 14.2062,18.2446C 13.4964,18.8971 12.5045,19.069 11.5787,18.95C 10.7102,18.8398 9.90348,18.2931 9.445,17.5305C 9.30393,17.2968 9.18931,17.0323 9.12759,16.7678L 9.00856,16.1065C 8.95566,15.1499 9.3392,14.1359 10.0622,13.5364C 9.73155,14.2594 9.81091,15.1631 10.2958,15.7935L 10.362,15.8685C 10.4413,15.939 10.5471,15.9654 10.6441,15.9214C 10.7323,15.8861 10.7984,15.7979 10.7984,15.701L 10.7631,15.5555C 10.2341,14.1668 10.675,12.5489 11.7947,11.6319C 12.1033,11.3806 12.4781,11.1514 12.8748,11.05C 12.4648,11.8656 12.6059,12.928 13.2495,13.5717L 14.1445,14.3035L 14.4795,14.665 Z M 13.1129,17.4423L 13.1085,17.4379C 13.373,17.1998 13.5273,16.8031 13.5141,16.4416L 13.4876,16.252C 13.3774,15.6525 12.8528,15.4585 12.5177,15.0176L 12.262,14.5503C 12.1298,14.8545 12.121,15.1323 12.1739,15.4585C 12.2312,15.7979 12.3678,16.0889 12.2929,16.4416C 12.2047,16.8339 11.8961,17.2219 11.3671,17.3453C 11.6669,17.6363 12.1518,17.8743 12.6368,17.7068L 13.1129,17.4423 Z "/>
</svg>
