<?xml version="1.0" encoding="utf-8"?>
<!DOCTYPE svg PUBLIC "-//W3C//DTD SVG 1.1//EN" "http://www.w3.org/Graphics/SVG/1.1/DTD/svg11.dtd">
<svg xmlns="http://www.w3.org/2000/svg" xmlns:xlink="http://www.w3.org/1999/xlink" version="1.1" baseProfile="full" width="24" height="24" viewBox="0 0 24.00 24.00" enable-background="new 0 0 24.00 24.00" xml:space="preserve">
	<path fill="#000000" fill-opacity="1" stroke-width="1.33333" stroke-linejoin="miter" d="M 17.5527,11.2003C 17.3227,10.9003 17.0527,10.6403 16.7927,10.3803C 16.1427,9.7803 15.3927,9.3503 14.7627,8.7203C 13.3027,7.2603 12.9827,4.8503 13.9127,3.0003C 13.0127,3.2303 12.1627,3.7503 11.4627,4.3203C 8.92267,6.4003 7.92267,10.0703 9.12267,13.2203C 9.16267,13.3203 9.20267,13.4203 9.20267,13.5503C 9.20267,13.7703 9.05267,13.9703 8.85266,14.0503C 8.63266,14.1503 8.39266,14.0903 8.21266,13.9303C 8.15266,13.8803 8.11266,13.8303 8.06266,13.7603C 6.96267,12.3303 6.78267,10.2803 7.53267,8.6403C 5.89267,10.0003 5.02267,12.3003 5.14266,14.4703C 5.18266,14.9703 5.24266,15.4703 5.41266,15.9703C 5.55266,16.5703 5.81266,17.1703 6.13266,17.7003C 7.17266,19.4303 9.00266,20.6703 10.9727,20.9203C 13.0727,21.1903 15.3227,20.8003 16.9327,19.3203C 18.7327,17.6603 19.3827,15.0203 18.4327,12.7203L 18.3027,12.4603C 18.1027,12.0103 17.8327,11.5903 17.5227,11.2103L 17.5527,11.2003 Z M 14.4527,17.5003C 14.1727,17.7403 13.7227,18.0003 13.3727,18.1003C 12.2727,18.4803 11.1727,17.9403 10.4927,17.2803C 11.6927,17.0003 12.3927,16.1203 12.5927,15.2303C 12.7627,14.4303 12.4527,13.7703 12.3227,13.0003C 12.2027,12.2603 12.2227,11.6303 12.5227,10.9403C 12.6727,11.3203 12.8727,11.7003 13.1027,12.0003C 13.8627,13.0003 15.0527,13.4403 15.3027,14.8003C 15.3427,14.9403 15.3627,15.0803 15.3627,15.2303C 15.3927,16.0503 15.0427,16.9503 14.4427,17.4903L 14.4527,17.5003 Z "/>
</svg>
