<?xml version="1.0" encoding="utf-8"?>
<!DOCTYPE svg PUBLIC "-//W3C//DTD SVG 1.1//EN" "http://www.w3.org/Graphics/SVG/1.1/DTD/svg11.dtd">
<svg xmlns="http://www.w3.org/2000/svg" xmlns:xlink="http://www.w3.org/1999/xlink" version="1.1" baseProfile="full" width="24" height="24" viewBox="0 0 24.00 24.00" enable-background="new 0 0 24.00 24.00" xml:space="preserve">
	<path fill="#000000" fill-opacity="1" fill-rule="evenodd" stroke-width="1.33333" stroke-linejoin="miter" d="M 5.79539,16.5881L 4.48269,15.2753L 12.259,7.49908L 16.501,11.7411L 8.72474,19.5174L 7.29306,18.0857C 7.03912,18.1587 6.80017,18.2817 6.63221,18.4886C 6.56922,18.5656 6.52023,18.6526 6.47924,18.7436C 6.42425,18.8785 6.37826,19.0185 6.32428,19.1545C 6.2133,19.4244 6.08833,19.6884 5.92536,19.9313C 5.81139,20.1003 5.68042,20.2572 5.52945,20.3942C 5.41748,20.4972 5.2945,20.5882 5.16253,20.6642C 5.07755,20.7141 4.98957,20.7571 4.89859,20.7941C 4.29973,21.0401 3.63287,20.9981 3.00001,20.9961L 3.00801,18.9965C 3.22996,18.9975 3.82783,18.9915 3.90381,18.9865C 3.9848,18.9795 4.08377,18.9765 4.15676,18.9355C 4.17575,18.9245 4.19175,18.9085 4.20675,18.8925C 4.28273,18.8056 4.33772,18.7006 4.38671,18.5966C 4.46969,18.4226 4.53267,18.2407 4.59866,18.0597L 4.64165,17.9557C 4.75862,17.6948 4.89959,17.4489 5.08055,17.2269C 5.18453,17.0989 5.2985,16.98 5.42148,16.871C 5.53945,16.767 5.66442,16.673 5.79539,16.5881 Z M 21,3.00008L 19.8793,11.1903L 12.8098,4.12083L 21,3.00008 Z "/>
</svg>
