<?xml version="1.0" encoding="utf-8"?>
<!DOCTYPE svg PUBLIC "-//W3C//DTD SVG 1.1//EN" "http://www.w3.org/Graphics/SVG/1.1/DTD/svg11.dtd">
<svg xmlns="http://www.w3.org/2000/svg" xmlns:xlink="http://www.w3.org/1999/xlink" version="1.1" baseProfile="full" width="24" height="24" viewBox="0 0 24.00 24.00" enable-background="new 0 0 24.00 24.00" xml:space="preserve">
	<path fill="#000000" fill-opacity="1" stroke-width="0.2" stroke-linejoin="round" d="M 11.7116,18.9981C 9.9306,18.9981 8.48758,17.5931 8.48758,15.8601C 8.48758,14.2371 9.53259,13.0971 11.3006,12.7391C 13.0676,12.3821 14.8996,11.5332 15.9166,10.1631C 16.3076,11.4541 16.5116,12.8111 16.5116,14.1981C 16.5116,16.8447 14.3586,18.9981 11.7116,18.9981 Z M 13.4996,0.667067C 13.4996,0.667067 14.2396,3.31507 14.2396,5.46507C 14.2396,7.52707 12.8876,9.19807 10.8266,9.19807C 8.76358,9.19807 7.19958,7.52707 7.19958,5.46507L 7.22659,5.10407C 5.21259,7.51174 3.9996,10.6131 3.9996,13.9981C 3.9996,18.4161 7.5816,21.9981 11.9996,21.9981C 16.4176,21.9981 19.9996,18.4161 19.9996,13.9981C 19.9996,8.60407 17.4066,3.79507 13.4996,0.667067 Z "/>
</svg>
