<?xml version="1.0" encoding="utf-8"?>
<!DOCTYPE svg PUBLIC "-//W3C//DTD SVG 1.1//EN" "http://www.w3.org/Graphics/SVG/1.1/DTD/svg11.dtd">
<svg xmlns="http://www.w3.org/2000/svg" xmlns:xlink="http://www.w3.org/1999/xlink" version="1.1" baseProfile="full" width="24" height="24" viewBox="0 0 24.00 24.00" enable-background="new 0 0 24.00 24.00" xml:space="preserve">
	<path fill="#000000" fill-opacity="1" stroke-width="1.33333" stroke-linejoin="miter" d="M 17.04,2C 16.8504,1.9945 16.6631,2.0431 16.5,2.14L 5.59,8.5L 9.55,8.5L 17.5,3.86C 17.9756,3.5793 18.1336,2.9661 17.8528,2.4905C 17.6817,2.2006 17.3762,2.0163 17.04,2 Z M 16,8L 16,10L 3,10C 1.89543,10 1,10.8954 1,12L 2,12L 2,15L 1,15L 1,19L 3,19C 3,20.6568 4.34315,22 6,22C 7.65685,22 9,20.6568 9,19L 15,19C 15,20.6568 16.3431,22 18,22C 19.6569,22 21,20.6568 21,19L 23,19L 23,12.5L 19.5,8L 16,8 Z M 18,9.5L 19,9.5L 21.5,12.5L 21.5,13.5L 18,13.5L 18,9.5 Z M 4,12L 7,12L 7,15L 4,15L 4,12 Z M 9,12L 12,12L 12,15L 9,15L 9,12 Z M 14,12L 16,12L 16,15L 14,15L 14,12 Z M 6,17.5C 6.82843,17.5 7.5,18.1716 7.5,19C 7.5,19.8284 6.82843,20.5 6,20.5C 5.17157,20.5 4.5,19.8284 4.5,19C 4.5,18.1716 5.17157,17.5 6,17.5 Z M 18,17.5C 18.8284,17.5 19.5,18.1716 19.5,19C 19.5,19.8284 18.8284,20.5 18,20.5C 17.1716,20.5 16.5,19.8284 16.5,19C 16.5,18.1716 17.1716,17.5 18,17.5 Z "/>
</svg>
