<?xml version="1.0" encoding="utf-8"?>
<!DOCTYPE svg PUBLIC "-//W3C//DTD SVG 1.1//EN" "http://www.w3.org/Graphics/SVG/1.1/DTD/svg11.dtd">
<svg xmlns="http://www.w3.org/2000/svg" xmlns:xlink="http://www.w3.org/1999/xlink" version="1.1" baseProfile="full" width="24" height="24" viewBox="0 0 24.00 24.00" enable-background="new 0 0 24.00 24.00" xml:space="preserve">
	<path fill="#000000" fill-opacity="1" stroke-linejoin="round" d="M 19.1093,5L 21,5L 21,3L 3,3L 3,5L 4.89067,5C 3.11467,6.80267 2,9.26533 2,12C 2,15.9693 4.312,19.3853 7.66133,21L 16.3387,21C 19.688,19.3853 22,15.9693 22,12C 22,9.26533 20.8853,6.80267 19.1093,5 Z M 13.2507,17C 12.088,17 11.0627,16.64 10.328,16.1667C 9.672,17 8.328,17 7,17C 8.09867,17 8.5,15.88 8.5,14.5C 8.5,13.12 8.09867,12 7,12C 8.328,12 9.672,12 10.3747,12.912C 11.0627,12.36 12.088,12 13.2507,12C 15.3227,12 17,13.12 17,14.5C 17,15.88 15.3227,17 13.2507,17 Z M 16,7C 13.5627,8.708 10.4373,8.708 8,7C 7.05733,7.66133 6.016,8.088 4.948,8.25067C 5.30667,7.584 5.76533,6.964 6.31733,6.40667L 7.70267,5L 16.2973,5L 17.6827,6.40667C 18.2347,6.964 18.6933,7.584 19.052,8.25067C 17.984,8.088 16.9427,7.66133 16,7 Z "/>
</svg>
