<?xml version="1.0" encoding="utf-8"?>
<!DOCTYPE svg PUBLIC "-//W3C//DTD SVG 1.1//EN" "http://www.w3.org/Graphics/SVG/1.1/DTD/svg11.dtd">
<svg xmlns="http://www.w3.org/2000/svg" xmlns:xlink="http://www.w3.org/1999/xlink" version="1.1" baseProfile="full" width="24" height="24" viewBox="0 0 24.00 24.00" enable-background="new 0 0 24.00 24.00" xml:space="preserve">
	<path fill="#000000" fill-opacity="1" stroke-linejoin="round" d="M 20.0053,2L 3.99467,2C 2.89067,2 2,2.89067 2,3.99467L 2,20.0053C 2,21.1093 2.89067,22 3.99467,22L 20.0053,22C 21.1093,22 22,21.1093 22,20.0053L 22,3.99467C 22,2.89067 21.1093,2 20.0053,2 Z M 12,4L 15,7L 13,7L 13,9L 11,9L 11,7L 9,7M 7,15L 4,12L 7,9L 7,11L 9,11L 9,13L 7,13M 12,20L 9,17L 11,17L 11,15L 13,15L 13,17L 15,17M 17,15L 17,13L 15,13L 15,11L 17,11L 17,9L 20,12"/>
</svg>
