<?xml version="1.0" encoding="utf-8"?>
<!DOCTYPE svg PUBLIC "-//W3C//DTD SVG 1.1//EN" "http://www.w3.org/Graphics/SVG/1.1/DTD/svg11.dtd">
<svg xmlns="http://www.w3.org/2000/svg" xmlns:xlink="http://www.w3.org/1999/xlink" version="1.1" baseProfile="full" width="24" height="24" viewBox="0 0 24.00 24.00" enable-background="new 0 0 24.00 24.00" xml:space="preserve">
	<path fill="#000000" fill-opacity="1" stroke-width="0.2" stroke-linejoin="round" d="M 6,3C 6.55229,3 7,3.44771 7,4L 7,4.875C 8.0625,4.4375 9.5,4 11,4C 14,4 14,6 16,6C 19,6 20,4 20,4L 20,12C 20,12 19,14 16,14C 13,14 13,12 11,12C 8,12 7,14 7,14L 7,21L 5,21L 5,4C 5,3.44771 5.44771,3 6,3 Z M 7,7.25001L 7,11.5C 7,11.5 9,10 11,10C 13,10 14,12 16,12C 18,12 18,11 18,11L 18,7.5C 18,7.5 17,8 16,8C 14,8 13,6 11,6C 9,6 7,7.25001 7,7.25001 Z "/>
</svg>
