<?xml version="1.0" encoding="utf-8"?>
<!DOCTYPE svg PUBLIC "-//W3C//DTD SVG 1.1//EN" "http://www.w3.org/Graphics/SVG/1.1/DTD/svg11.dtd">
<svg xmlns="http://www.w3.org/2000/svg" xmlns:xlink="http://www.w3.org/1999/xlink" version="1.1" baseProfile="full" width="24" height="24" viewBox="0 0 24.00 24.00" enable-background="new 0 0 24.00 24.00" xml:space="preserve">
	<path fill="#000000" fill-opacity="1" stroke-width="0.2" stroke-linejoin="round" d="M 14.4,6L 20,6L 20,16L 13,16L 12.6,14L 7,14L 7,21L 5,21L 5,4L 14,4L 14.4,6 Z M 14,14L 16,14L 16,12L 18,12L 18,10L 16,10L 16,8.00001L 14,8.00001L 14,10L 13,8.00001L 13,6L 11,6L 11,8L 9,8L 9,6.00001L 7,6.00001L 7,8L 9,8L 9,10L 7,10L 7,12L 9,12L 9,10L 11,10L 11,12L 13,12L 13,10L 14,12L 14,14 Z M 11,10L 11,8L 13,8.00001L 13,10L 11,10 Z M 14,10L 16,10L 16,12L 14,12L 14,10 Z "/>
</svg>
