<?xml version="1.0" encoding="utf-8"?>
<!DOCTYPE svg PUBLIC "-//W3C//DTD SVG 1.1//EN" "http://www.w3.org/Graphics/SVG/1.1/DTD/svg11.dtd">
<svg xmlns="http://www.w3.org/2000/svg" xmlns:xlink="http://www.w3.org/1999/xlink" version="1.1" baseProfile="full" width="24" height="24" viewBox="0 0 24.00 24.00" enable-background="new 0 0 24.00 24.00" xml:space="preserve">
	<path fill="#000000" fill-opacity="1" stroke-width="1.33333" stroke-linejoin="miter" d="M 7,11L 1,11L 1,13L 7,13L 7,11 Z M 9.17,7.76L 7.05,5.64L 5.64,7.05L 7.76,9.17L 9.17,7.76 Z M 13,1L 11,1L 11,7L 13,7L 13,1 Z M 18.36,7.05L 16.95,5.64L 14.83,7.76L 16.24,9.17L 18.36,7.05 Z M 17,11L 17,13L 23,13L 23,11L 17,11 Z M 12,9C 10.34,9 9,10.34 9,12C 9,13.66 10.34,15 12,15C 13.66,15 15,13.66 15,12C 15,10.34 13.66,9 12,9 Z M 14.83,16.24L 16.95,18.36L 18.36,16.95L 16.24,14.83L 14.83,16.24 Z M 5.64,16.95L 7.05,18.36L 9.17,16.24L 7.76,14.83L 5.64,16.95 Z M 11,23L 13,23L 13,17L 11,17L 11,23 Z "/>
</svg>
