<?xml version="1.0" encoding="utf-8"?>
<!DOCTYPE svg PUBLIC "-//W3C//DTD SVG 1.1//EN" "http://www.w3.org/Graphics/SVG/1.1/DTD/svg11.dtd">
<svg xmlns="http://www.w3.org/2000/svg" xmlns:xlink="http://www.w3.org/1999/xlink" version="1.1" baseProfile="full" width="24" height="24" viewBox="0 0 24.00 24.00" enable-background="new 0 0 24.00 24.00" xml:space="preserve">
	<path fill="#000000" fill-opacity="1" stroke-width="0.2" stroke-linejoin="round" d="M 6,22C 4.34315,22 3,20.6569 3,19C 3,18.3969 3.17796,17.8354 3.48423,17.3651L 9,7.81147L 9,6.00001C 8.44771,6.00001 8,5.55229 8,5L 8,4.00001C 8,2.89544 8.89543,2.00001 10,2.00001L 14,2C 15.1046,2 16,2.89543 16,4L 16,4.99999C 16,5.55228 15.5523,6 15,6L 15,7.81146L 20.5158,17.3651C 20.822,17.8354 21,18.3969 21,19C 21,20.6568 19.6569,22 18,22L 6,22 Z M 5,19C 5,19.5523 5.44771,20 6,20L 18,20C 18.5523,20 19,19.5523 19,19C 19,18.7862 18.9329,18.5881 18.8186,18.4255L 16.5331,14.4669L 14,17L 8.93099,11.931L 5.18138,18.4255C 5.0671,18.5881 5,18.7862 5,19 Z M 13,10C 12.4477,10 12,10.4477 12,11C 12,11.5523 12.4477,12 13,12C 13.5523,12 14,11.5523 14,11C 14,10.4477 13.5523,10 13,10 Z "/>
</svg>
