<?xml version="1.0" encoding="utf-8"?>
<!DOCTYPE svg PUBLIC "-//W3C//DTD SVG 1.1//EN" "http://www.w3.org/Graphics/SVG/1.1/DTD/svg11.dtd">
<svg xmlns="http://www.w3.org/2000/svg" xmlns:xlink="http://www.w3.org/1999/xlink" version="1.1" baseProfile="full" width="24" height="24" viewBox="0 0 24.00 24.00" enable-background="new 0 0 24.00 24.00" xml:space="preserve">
	<path fill="#000000" fill-opacity="1" stroke-width="1.33333" stroke-linejoin="miter" d="M 11.4844,20.0156L 16.3594,10.2656L 12.9844,10.2656L 12.9844,3.9844L 8.01563,13.7344L 11.4844,13.7344L 11.4844,20.0156 Z M 12,2.0156C 14.75,2.0156 17.1016,2.9922 19.0547,4.9453C 21.0078,6.8984 21.9844,9.25 21.9844,12C 21.9844,14.75 21.0078,17.1016 19.0547,19.0547C 17.1016,21.0078 14.75,21.9844 12,21.9844C 9.25,21.9844 6.89844,21.0078 4.94531,19.0547C 2.99219,17.1016 2.01563,14.75 2.01563,12C 2.01563,9.25 2.99219,6.8984 4.94531,4.9453C 6.89844,2.9922 9.25,2.0156 12,2.0156 Z "/>
</svg>
