<?xml version="1.0" encoding="utf-8"?>
<!DOCTYPE svg PUBLIC "-//W3C//DTD SVG 1.1//EN" "http://www.w3.org/Graphics/SVG/1.1/DTD/svg11.dtd">
<svg xmlns="http://www.w3.org/2000/svg" xmlns:xlink="http://www.w3.org/1999/xlink" version="1.1" baseProfile="full" width="24" height="24" viewBox="0 0 24.00 24.00" enable-background="new 0 0 24.00 24.00" xml:space="preserve">
	<path fill="#000000" fill-opacity="1" stroke-width="1.33333" stroke-linejoin="miter" d="M 16,4.98C 15.436,4.98 14.98,5.436 14.98,6C 14.98,6.564 15.437,7.02 16,7.02C 16.564,7.02 17.02,6.564 17.02,6C 17.02,5.437 16.564,4.98 16,4.98 Z M 16,2C 13.273,2 10.944,3.658 10,6C 10.944,8.342 13.273,10 16,10C 18.727,10 21.056,8.342 22,6C 21.056,3.658 18.727,2 16,2 Z M 16,3.5C 17.38,3.5 18.5,4.618 18.5,6C 18.5,7.38 17.38,8.5 16,8.5C 14.62,8.5 13.5,7.38 13.5,6C 13.5,4.618 14.62,3.5 16,3.5 Z M 3,2L 3,14L 6,14L 6,23L 13,11L 9,11L 10.12,8.475C 9.44,7.757 8.875,6.93 8.5,6C 9.19,4.288 10.483,2.884 12.11,2L 3,2 Z "/>
</svg>
