<?xml version="1.0" encoding="utf-8"?>
<!DOCTYPE svg PUBLIC "-//W3C//DTD SVG 1.1//EN" "http://www.w3.org/Graphics/SVG/1.1/DTD/svg11.dtd">
<svg xmlns="http://www.w3.org/2000/svg" xmlns:xlink="http://www.w3.org/1999/xlink" version="1.1" baseProfile="full" width="24" height="24" viewBox="0 0 24.00 24.00" enable-background="new 0 0 24.00 24.00" xml:space="preserve">
	<path fill="#000000" fill-opacity="1" stroke-width="1.33333" stroke-linejoin="miter" d="M 21,12C 21,16.9706 16.9706,21 12,21L 4.5,21L 9.74264,15.7573L 11.1569,17.1716L 9.32841,19L 12,19C 15.866,19 19,15.866 19,12L 19,7L 21,5L 21,12 Z M 3,12C 3,7.02944 7.02944,3.00001 12,3.00001L 19.5,3L 14.2574,8.24266L 12.8431,6.82845L 14.6716,5L 12,5C 8.134,5 4.99999,8.13401 4.99999,12L 5,17L 3,19L 3,12 Z "/>
</svg>
