<?xml version="1.0" encoding="utf-8"?>
<!DOCTYPE svg PUBLIC "-//W3C//DTD SVG 1.1//EN" "http://www.w3.org/Graphics/SVG/1.1/DTD/svg11.dtd">
<svg xmlns="http://www.w3.org/2000/svg" xmlns:xlink="http://www.w3.org/1999/xlink" version="1.1" baseProfile="full" width="24" height="24" viewBox="0 0 24.00 24.00" enable-background="new 0 0 24.00 24.00" xml:space="preserve">
	<path fill="#000000" fill-opacity="1" stroke-linejoin="round" d="M 21,9.00001L 21,15C 21,18.3137 18.3137,21 15,21L 4.41484,21L 11.0669,14.3479C 11.3779,14.0369 11.689,13.7259 11.8445,13.7508C 12,13.7757 12,14.1366 12,14.4974L 12,17L 14,17C 15.6569,17 17,15.6569 17,14L 17,8.41484L 21,4.41485L 21,9.00001 Z M 3,15L 3,9C 3,5.68629 5.68629,3 9,3L 19.5851,3L 12.9331,9.65208C 12.6221,9.9631 12.311,10.2741 12.1555,10.2492C 12,10.2243 12,9.86343 12,9.50256L 12,7L 9.99999,7C 8.34314,7 6.99999,8.34315 6.99999,10L 6.99999,15.5852L 3,19.5852L 3,15 Z "/>
</svg>
