<?xml version="1.0" encoding="utf-8"?>
<!DOCTYPE svg PUBLIC "-//W3C//DTD SVG 1.1//EN" "http://www.w3.org/Graphics/SVG/1.1/DTD/svg11.dtd">
<svg xmlns="http://www.w3.org/2000/svg" xmlns:xlink="http://www.w3.org/1999/xlink" version="1.1" baseProfile="full" width="24" height="24" viewBox="0 0 24.00 24.00" enable-background="new 0 0 24.00 24.00" xml:space="preserve">
	<path fill="#000000" fill-opacity="1" stroke-width="1.33333" stroke-linejoin="miter" d="M 12,3L 2,12L 5,12L 5,20L 19,20L 19,12L 22,12L 12,3 Z M 9,8L 13,8C 14.1,8 15,8.89 15,10L 15,11.5C 15,12.3284 14.3284,13 13.5,13C 14.3284,13 15,13.6716 15,14.5L 15,16C 15,17.1046 14.1046,18 13,18L 9,18L 9,8 Z M 11,10L 11,12L 13,12L 13,10L 11,10 Z M 11,14L 11,16L 13,16L 13,14L 11,14 Z "/>
</svg>
