<?xml version="1.0" encoding="utf-8"?>
<!DOCTYPE svg PUBLIC "-//W3C//DTD SVG 1.1//EN" "http://www.w3.org/Graphics/SVG/1.1/DTD/svg11.dtd">
<svg xmlns="http://www.w3.org/2000/svg" xmlns:xlink="http://www.w3.org/1999/xlink" version="1.1" baseProfile="full" width="24" height="24" viewBox="0 0 24.00 24.00" enable-background="new 0 0 24.00 24.00" xml:space="preserve">
	<path fill="#000000" fill-opacity="1" stroke-width="1.33333" stroke-linejoin="miter" d="M 10,5L 10,10L 9,10L 9,5L 5,5L 5,13L 9,13L 9,12L 10,12L 10,17L 9,17L 9,14L 5,14L 5,19L 12,19L 12,17L 13,17L 13,19L 19,19L 19,17L 21,17L 21,21L 3,21L 3,3L 21,3L 21,15L 19,15L 19,10L 13,10L 13,15L 12,15L 12,9L 19,9L 19,5L 10,5 Z "/>
</svg>
