<?xml version="1.0" encoding="utf-8"?>
<!DOCTYPE svg PUBLIC "-//W3C//DTD SVG 1.1//EN" "http://www.w3.org/Graphics/SVG/1.1/DTD/svg11.dtd">
<svg xmlns="http://www.w3.org/2000/svg" xmlns:xlink="http://www.w3.org/1999/xlink" version="1.1" baseProfile="full" width="24" height="24" viewBox="0 0 24.00 24.00" enable-background="new 0 0 24.00 24.00" xml:space="preserve">
	<path fill="#000000" fill-opacity="1" stroke-width="1.33333" stroke-linejoin="miter" d="M 5,3C 3.89543,3 3,3.8954 3,5L 3,19C 3,20.1046 3.89543,21 5,21L 19,21C 20.1046,21 21,20.1046 21,19L 21,5.5L 18.5,3L 17,3L 17,9C 17,9.5523 16.5523,10 16,10L 8,10C 7.44772,10 7,9.5523 7,9L 7,3L 5,3 Z M 12,4L 12,9L 15,9L 15,4L 12,4 Z M 7,12L 17,12C 17.5523,12 18,12.4477 18,13L 18,19L 6,19L 6,13C 6,12.4477 6.44772,12 7,12 Z "/>
</svg>
