<?xml version="1.0" encoding="utf-8"?>
<!DOCTYPE svg PUBLIC "-//W3C//DTD SVG 1.1//EN" "http://www.w3.org/Graphics/SVG/1.1/DTD/svg11.dtd">
<svg xmlns="http://www.w3.org/2000/svg" xmlns:xlink="http://www.w3.org/1999/xlink" version="1.1" baseProfile="full" width="24" height="24" viewBox="0 0 24.00 24.00" enable-background="new 0 0 24.00 24.00" xml:space="preserve">
	<path fill="#000000" fill-opacity="1" stroke-linejoin="round" d="M 4.5,22L 2,19.5L 2,4.00001C 2,2.89544 2.89543,2.00001 4,2.00001L 20,2.00001C 21.1046,2.00001 22,2.89544 22,4.00001L 22,20C 22,21.1046 21.1046,22 20,22L 17,22L 17,15C 17,14.4477 16.5523,14 16,14L 7,14C 6.44771,14 6,14.4477 6,15L 6,22L 4.5,22 Z M 5,4.00001L 5,10C 5,10.5523 5.44771,11 5.99999,11L 18,11C 18.5523,11 19,10.5523 19,10L 19,4.00001L 5,4.00001 Z M 7.99999,16L 11,16L 11,20L 7.99999,20L 7.99999,16 Z M 20,4L 20,5L 21,5L 21,4L 20,4 Z "/>
</svg>
