<?xml version="1.0" encoding="utf-8"?>
<!DOCTYPE svg PUBLIC "-//W3C//DTD SVG 1.1//EN" "http://www.w3.org/Graphics/SVG/1.1/DTD/svg11.dtd">
<svg xmlns="http://www.w3.org/2000/svg" xmlns:xlink="http://www.w3.org/1999/xlink" version="1.1" baseProfile="full" width="24" height="24" viewBox="0 0 24.00 24.00" enable-background="new 0 0 24.00 24.00" xml:space="preserve">
	<path fill="#000000" fill-opacity="1" stroke-width="1.33333" stroke-linejoin="miter" d="M 18.5,12C 20.433,12 22,10.433 22,8.5C 22,4.91 19.09,2 15.5,2C 13.567,2 12,3.567 12,5.5C 12,3.567 10.433,2 8.5,2C 4.91,2 2,4.91 2,8.5C 2,10.433 3.567,12 5.5,12C 3.567,12 2,13.567 2,15.5C 2,19.09 4.91,22 8.5,22C 10.433,22 12,20.433 12,18.5C 12,20.433 13.567,22 15.5,22C 19.09,22 22,19.09 22,15.5C 22,13.567 20.433,12 18.5,12 Z M 12,16C 9.791,16 8,14.209 8,12C 8,9.791 9.791,8 12,8C 14.209,8 16,9.791 16,12C 16,14.209 14.209,16 12,16 Z M 14.5,12C 14.5,13.381 13.381,14.5 12,14.5C 10.619,14.5 9.5,13.381 9.5,12C 9.5,10.619 10.619,9.5 12,9.5C 13.381,9.5 14.5,10.619 14.5,12 Z "/>
</svg>
