<?xml version="1.0" encoding="utf-8"?>
<!DOCTYPE svg PUBLIC "-//W3C//DTD SVG 1.1//EN" "http://www.w3.org/Graphics/SVG/1.1/DTD/svg11.dtd">
<svg xmlns="http://www.w3.org/2000/svg" xmlns:xlink="http://www.w3.org/1999/xlink" version="1.1" baseProfile="full" width="24" height="24" viewBox="0 0 24.00 24.00" enable-background="new 0 0 24.00 24.00" xml:space="preserve">
	<path fill="#000000" fill-opacity="1" stroke-width="1.33333" stroke-linejoin="miter" d="M 8.66,13.07C 6.92,13.07 5.51,11.66 5.51,9.93C 5.51,9.22 5.76,8.54 6.19,8C 5.77,7.46 5.52,6.78 5.52,6.07C 5.52,4.34 6.93,2.93 8.66,2.93L 9.09,2.96C 9.56,1.81 10.69,1 12,1C 13.31,1 14.44,1.81 14.91,2.96L 15.34,2.93C 17.07,2.93 18.48,4.34 18.48,6.07C 18.48,6.78 18.24,7.46 17.81,8C 18.23,8.54 18.48,9.22 18.48,9.93C 18.48,11.66 17.07,13.07 15.34,13.07L 14.91,13.04C 14.44,14.19 13.31,15 12,15C 10.69,15 9.56,14.19 9.09,13.04L 8.66,13.07 Z M 12,13C 12.62,13 13.12,12.51 13.14,11.9L 13.03,10.81C 12.71,10.93 12.36,11 12,11C 11.64,11 11.3,10.93 10.98,10.81L 10.86,11.9C 10.88,12.51 11.38,13 12,13 Z M 15.34,11.07C 15.97,11.07 16.49,10.56 16.49,9.92C 16.49,9.48 16.23,9.08 15.83,8.89L 14.95,8.47C 14.83,9.21 14.44,9.85 13.89,10.3L 14.7,10.87C 14.88,11 15.1,11.07 15.34,11.07 Z M 14.69,5.13L 13.87,5.69C 14.43,6.14 14.82,6.78 14.94,7.52L 15.82,7.1C 16.23,6.9 16.48,6.51 16.48,6.07C 16.48,5.44 15.97,4.93 15.34,4.93C 15.11,4.93 14.89,5 14.69,5.13 Z M 12,3C 11.38,3 10.88,3.49 10.86,4.1L 10.98,5.19C 11.3,5.07 11.64,5 12,5C 12.36,5 12.71,5.07 13.03,5.19L 13.14,4.1C 13.12,3.49 12.62,3 12,3 Z M 8.66,4.93C 8.03,4.93 7.51,5.44 7.51,6.07C 7.51,6.51 7.77,6.9 8.17,7.1L 9.05,7.52C 9.17,6.78 9.56,6.14 10.11,5.69L 9.3,5.13C 9.12,5 8.9,4.93 8.66,4.93 Z M 8.17,8.9C 7.77,9.1 7.51,9.49 7.52,9.92C 7.52,10.55 8.03,11.06 8.66,11.06C 8.89,11.06 9.11,10.99 9.31,10.86L 10.12,10.31C 9.56,9.86 9.17,9.22 9.05,8.48L 8.17,8.9 Z M 12,22C 7.03,22 3,17.97 3,13C 7.97,13 12,17.03 12,22C 12,17.03 16.03,13 21,13C 21,17.97 16.97,22 12,22 Z M 14.44,19.56C 16.34,18.85 17.85,17.34 18.56,15.44C 16.66,16.14 15.15,17.66 14.44,19.56 Z M 5.44,15.44C 6.15,17.34 7.66,18.85 9.56,19.56C 8.86,17.66 7.34,16.15 5.44,15.44 Z "/>
</svg>
