<?xml version="1.0" encoding="utf-8"?>
<!DOCTYPE svg PUBLIC "-//W3C//DTD SVG 1.1//EN" "http://www.w3.org/Graphics/SVG/1.1/DTD/svg11.dtd">
<svg xmlns="http://www.w3.org/2000/svg" xmlns:xlink="http://www.w3.org/1999/xlink" version="1.1" baseProfile="full" width="24" height="24" viewBox="0 0 24.00 24.00" enable-background="new 0 0 24.00 24.00" xml:space="preserve">
	<path fill="#000000" fill-opacity="1" stroke-width="1.33333" stroke-linejoin="miter" d="M 3,13C 3,17.9706 7.02944,22 12,22C 12,17.0294 7.97056,13 3,13 Z M 5.44,15.44C 7.3468,16.1494 8.85064,17.6532 9.56,19.56C 7.6532,18.8506 6.14936,17.3468 5.44,15.44 Z M 12,22C 16.9706,22 21,17.9706 21,13C 16.0294,13 12,17.0294 12,22 Z M 14.42,19.57C 15.1143,17.6364 16.6364,16.1143 18.57,15.42C 17.8614,17.3445 16.3445,18.8614 14.42,19.57 Z M 12,14C 15.3137,14 18,11.3137 18,8L 18,3C 17.2615,2.9881 16.5277,3.1206 15.84,3.39C 15.2914,3.6171 14.7972,3.9579 14.39,4.39L 12,2L 9.61,4.39C 9.20278,3.9579 8.70858,3.6171 8.16,3.39C 7.47228,3.1206 6.73853,2.9881 6,3L 6,8C 6,11.3137 8.68629,14 12,14 Z M 8,5.61L 9.57,7.26L 12,4.83L 14.43,7.26L 16,5.61L 16,8C 16,10.2091 14.2091,12 12,12C 9.79086,12 8,10.2091 8,8L 8,5.61 Z "/>
</svg>
