<?xml version="1.0" encoding="utf-8"?>
<!DOCTYPE svg PUBLIC "-//W3C//DTD SVG 1.1//EN" "http://www.w3.org/Graphics/SVG/1.1/DTD/svg11.dtd">
<svg xmlns="http://www.w3.org/2000/svg" xmlns:xlink="http://www.w3.org/1999/xlink" version="1.1" baseProfile="full" width="24" height="24" viewBox="0 0 24.00 24.00" enable-background="new 0 0 24.00 24.00" xml:space="preserve">
	<path fill="#000000" fill-opacity="1" stroke-width="0.2" stroke-linejoin="round" d="M 19.9994,17.9981L 19.9994,7.99807L 3.99939,7.99807L 3.99939,17.9981L 19.9994,17.9981 Z M 19.9994,5.99807C 21.1034,5.99807 21.9994,6.89407 21.9994,7.99807L 21.9994,17.9981C 21.9994,19.1021 21.1034,19.9981 19.9994,19.9981L 3.99939,19.9981C 2.89437,19.9981 1.99939,19.1021 1.99939,17.9981L 2.0094,5.99807C 2.0094,4.89407 2.89437,3.99807 3.99939,3.99807L 9.99939,3.99807L 11.9994,5.99807L 19.9994,5.99807 Z M 9,16L 9,13L 10,13L 10,12C 10,10.8954 10.8954,10 12,10C 13.1046,10 14,10.8954 14,12L 14,13L 15,13L 15,16L 9,16 Z M 13,13L 13,12C 13,11.4477 12.5523,11 12,11C 11.4477,11 11,11.4477 11,12L 11,13L 13,13 Z "/>
</svg>
