<?xml version="1.0" encoding="utf-8"?>
<!DOCTYPE svg PUBLIC "-//W3C//DTD SVG 1.1//EN" "http://www.w3.org/Graphics/SVG/1.1/DTD/svg11.dtd">
<svg xmlns="http://www.w3.org/2000/svg" xmlns:xlink="http://www.w3.org/1999/xlink" version="1.1" baseProfile="full" width="24" height="24" viewBox="0 0 24.00 24.00" enable-background="new 0 0 24.00 24.00" xml:space="preserve">
	<path fill="#000000" fill-opacity="1" stroke-width="1.33333" stroke-linejoin="miter" d="M 3,4C 1.89,4 1,4.89 1,6L 1,18C 1,19.1046 1.89543,20 3,20L 11,20L 11,18.1094L 21,8.1113L 21,8C 21,6.89 20.1,6 19,6L 11,6L 9,4L 3,4 Z M 21.0352,11.1348C 20.8952,11.1348 20.7554,11.1908 20.6504,11.3008L 19.6504,12.3008L 21.6992,14.3496L 22.6992,13.3496C 22.9192,13.1396 22.9192,12.7901 22.6992,12.5801L 21.4199,11.3008C 21.3149,11.1908 21.1752,11.1348 21.0352,11.1348 Z M 19.0703,12.8809L 13,18.9394L 13,21L 15.0605,21L 21.1191,14.9297L 19.0703,12.8809 Z "/>
</svg>
