<?xml version="1.0" encoding="utf-8"?>
<!DOCTYPE svg PUBLIC "-//W3C//DTD SVG 1.1//EN" "http://www.w3.org/Graphics/SVG/1.1/DTD/svg11.dtd">
<svg xmlns="http://www.w3.org/2000/svg" xmlns:xlink="http://www.w3.org/1999/xlink" version="1.1" baseProfile="full" width="24" height="24" viewBox="0 0 24.00 24.00" enable-background="new 0 0 24.00 24.00" xml:space="preserve">
	<path fill="#000000" fill-opacity="1" stroke-width="1.33333" stroke-linejoin="miter" d="M 15,12L 16.5,12L 16.5,16.25L 19.3594,17.9394L 18.6094,19.1602L 15,17L 15,12 Z M 19,8L 3,8L 3,18L 9.28988,18C 9.10128,17.3663 9,16.695 9,16C 9,12.134 12.134,9 16,9C 17.0736,9 18.0907,9.24169 19,9.67363L 19,8 Z M 3,20C 1.89498,20 1,19.104 1,18L 1.01001,6C 1.01001,4.896 1.89498,4 3,4L 9,4L 11,6L 19,6C 20.104,6 21,6.896 21,8L 21,11.101C 22.2372,12.3636 23,14.0927 23,16C 23,19.866 19.866,23 16,23C 13.6213,23 11.5196,21.8135 10.2547,20L 3,20 Z M 16,11C 13.2386,11 11,13.2386 11,16C 11,18.7614 13.2386,21 16,21C 18.7614,21 21,18.7614 21,16C 21,13.2386 18.7614,11 16,11 Z "/>
</svg>
