<?xml version="1.0" encoding="utf-8"?>
<!DOCTYPE svg PUBLIC "-//W3C//DTD SVG 1.1//EN" "http://www.w3.org/Graphics/SVG/1.1/DTD/svg11.dtd">
<svg xmlns="http://www.w3.org/2000/svg" xmlns:xlink="http://www.w3.org/1999/xlink" version="1.1" baseProfile="full" width="24" height="24" viewBox="0 0 24.00 24.00" enable-background="new 0 0 24.00 24.00" xml:space="preserve">
	<path fill="#000000" fill-opacity="1" stroke-width="1.33333" stroke-linejoin="miter" d="M 21.0223,11.1118C 20.9222,11.1118 20.722,11.2119 20.6219,11.312L 19.6208,12.3131L 21.7231,14.4153L 22.7241,13.4143C 22.9244,13.2141 22.9244,12.8136 22.7241,12.6134L 21.4228,11.312C 21.3227,11.2119 21.2226,11.1118 21.0223,11.1118M 19.1203,12.9137L 13.0138,18.9201L 13.0138,21.0224L 15.1161,21.0224L 21.2226,14.9159L 19.1203,12.9137 Z M 21.0223,8.00852L 21.0223,8.10863L 19.0202,10.1108L 19.0202,8.00852L 3.00319,8.00852L 3.00319,18.0192L 11.0117,18.0192L 11.0117,20.0213L 3.00319,20.0213C 1.90202,20.0213 1.00107,19.1203 1.00107,18.0192L 1.00107,6.0064C 1.00107,4.90523 1.90202,4.00427 3.00319,4.00427L 9.00957,4.00427L 11.0117,6.0064L 19.0202,6.0064C 20.1214,6.0064 21.0223,6.90735 21.0223,8.00852 Z "/>
</svg>
