<?xml version="1.0" encoding="utf-8"?>
<!DOCTYPE svg PUBLIC "-//W3C//DTD SVG 1.1//EN" "http://www.w3.org/Graphics/SVG/1.1/DTD/svg11.dtd">
<svg xmlns="http://www.w3.org/2000/svg" xmlns:xlink="http://www.w3.org/1999/xlink" version="1.1" baseProfile="full" width="24" height="24" viewBox="0 0 24.00 24.00" enable-background="new 0 0 24.00 24.00" xml:space="preserve">
	<path fill="#000000" fill-opacity="1" stroke-width="1.33333" stroke-linejoin="miter" d="M 15.25,13L 17.25,13L 16.75,15L 14.75,15L 15.25,13 Z M 22,8L 22,18C 22,19.1 21.1,20 20,20L 4,20C 2.9,20 2,19.1 2,18L 2,6C 2,4.89 2.89,4 4,4L 10,4L 12,6L 20,6C 21.1,6 22,6.89 22,8 Z M 20,12L 18.5,12L 19,10L 18,10L 17.5,12L 15.5,12L 16,10L 15,10L 14.5,12L 13,12L 13,13L 14.25,13L 13.75,15L 12,15L 12,16L 13.5,16L 13,18L 14,18L 14.5,16L 16.5,16L 16,18L 17,18L 17.5,16L 19,16L 19,15L 17.75,15L 18.25,13L 20,13L 20,12 Z "/>
</svg>
