<?xml version="1.0" encoding="utf-8"?>
<!DOCTYPE svg PUBLIC "-//W3C//DTD SVG 1.1//EN" "http://www.w3.org/Graphics/SVG/1.1/DTD/svg11.dtd">
<svg xmlns="http://www.w3.org/2000/svg" xmlns:xlink="http://www.w3.org/1999/xlink" version="1.1" baseProfile="full" width="24" height="24" viewBox="0 0 24.00 24.00" enable-background="new 0 0 24.00 24.00" xml:space="preserve">
	<path fill="#000000" fill-opacity="1" stroke-width="0.2" stroke-linejoin="miter" d="M 6.00195,4.998C 4.89321,4.998 4.00781,5.8923 4.00781,6.9961L 3.99805,14.998C 3.99805,16.1018 4.89321,16.9961 6.00195,16.9961L 11.002,16.9961L 11.002,18.998L 10,18.998C 9.44875,18.998 8.99805,19.4467 8.99805,19.998L 2.00195,19.998L 2.00195,22.002L 8.99805,22.002C 8.99805,22.5533 9.44875,23.002 10,23.002L 13.998,23.002C 14.5505,23.002 15,22.5533 15,22.002L 22.002,22.002L 22.002,19.998L 15,19.998C 15,19.4467 14.5505,18.998 13.998,18.998L 12.998,18.998L 12.998,16.9961L 17.998,16.9961C 19.1017,16.9961 20,16.1018 20,14.998L 20,8.998C 20,7.8955 19.1017,6.9961 17.998,6.9961L 12.002,6.9961L 10,4.998L 6.00195,4.998 Z M 9.00195,9C 10.3058,9 11.4169,9.8345 11.8281,11.002L 16.998,11.002L 16.998,12.998L 15.998,12.998L 15.998,15.0019L 14.002,15.0019L 14.002,12.998L 11.8281,12.998C 11.4169,14.1655 10.3058,15.0019 9.00195,15.0019C 7.342,15.0019 5.99805,13.6593 5.99805,11.998C 5.99805,10.343 7.342,9 9.00195,9 Z M 9.00195,11.002C 8.4495,11.002 8,11.4467 8,11.998C 8,12.5555 8.4495,12.998 9.00195,12.998C 9.55325,12.998 10.002,12.5555 10.002,11.998C 10.002,11.4467 9.55325,11.002 9.00195,11.002 Z "/>
</svg>
