<?xml version="1.0" encoding="utf-8"?>
<!DOCTYPE svg PUBLIC "-//W3C//DTD SVG 1.1//EN" "http://www.w3.org/Graphics/SVG/1.1/DTD/svg11.dtd">
<svg xmlns="http://www.w3.org/2000/svg" xmlns:xlink="http://www.w3.org/1999/xlink" version="1.1" baseProfile="full" width="24" height="24" viewBox="0 0 24.00 24.00" enable-background="new 0 0 24.00 24.00" xml:space="preserve">
	<path fill="#000000" fill-opacity="1" stroke-width="1.33333" stroke-linejoin="miter" d="M 11.4645,10.8787L 12.8787,9.46447L 15,11.5858L 17.1213,9.46447L 18.5355,10.8787L 16.4142,13L 18.5355,15.1213L 17.1213,16.5355L 15,14.4142L 12.8787,16.5355L 11.4645,15.1213L 13.5858,13L 11.4645,10.8787 Z M 19.9994,5.99807C 21.0994,5.99807 21.9994,6.89807 21.9994,7.99807L 21.9994,17.9981C 21.9994,19.0981 21.0994,19.9981 19.9994,19.9981L 3.99936,19.9981C 2.89936,19.9981 1.99936,19.0981 1.99936,17.9981L 1.99936,5.99807C 1.99936,4.89807 2.89936,3.99807 3.99936,3.99807L 9.99936,3.99807L 11.9994,5.99807L 19.9994,5.99807 Z M 19.9994,17.9981L 19.9994,7.99807L 11.1694,7.99807L 9.16936,5.99807L 3.99936,5.99807L 3.99936,17.9981L 19.9994,17.9981 Z "/>
</svg>
