<?xml version="1.0" encoding="utf-8"?>
<!DOCTYPE svg PUBLIC "-//W3C//DTD SVG 1.1//EN" "http://www.w3.org/Graphics/SVG/1.1/DTD/svg11.dtd">
<svg xmlns="http://www.w3.org/2000/svg" xmlns:xlink="http://www.w3.org/1999/xlink" version="1.1" baseProfile="full" width="24" height="24" viewBox="0 0 24.00 24.00" enable-background="new 0 0 24.00 24.00" xml:space="preserve">
	<path fill="#000000" fill-opacity="1" stroke-width="0.2" stroke-linejoin="round" d="M 9.99936,3.99807L 11.9994,5.99807L 19.9994,5.99807C 21.1029,5.99807 21.9994,6.89406 21.9994,7.99807L 21.9994,11.4979C 21.2299,11.1771 20.3857,11 19.5,11C 15.9101,11 13,13.9102 13,17.5C 13,18.3852 13.1769,19.229 13.4974,19.9981L 3.99936,19.9981C 2.89436,19.9981 1.99936,19.1021 1.99936,17.9981L 2.00936,5.99807C 2.00936,4.89406 2.89436,3.99807 3.99936,3.99807L 9.99936,3.99807 Z M 19,12L 19,13.5C 21.2091,13.5 23,15.2909 23,17.5C 23,18.3179 22.7545,19.0784 22.3333,19.712L 21.2376,18.6162C 21.4055,18.2803 21.5,17.9012 21.5,17.5C 21.5,16.1193 20.3807,15 19,15L 19,16.5L 16.75,14.25L 19,12 Z M 19,23L 19,21.5C 16.7909,21.5 15,19.7091 15,17.5C 15,16.6821 15.2455,15.9216 15.6667,15.288L 16.7624,16.3837C 16.5945,16.7197 16.5,17.0988 16.5,17.5C 16.5,18.8807 17.6193,20 19,20L 19,18.5L 21.25,20.75L 19,23 Z "/>
</svg>
