<?xml version="1.0" encoding="utf-8"?>
<!DOCTYPE svg PUBLIC "-//W3C//DTD SVG 1.1//EN" "http://www.w3.org/Graphics/SVG/1.1/DTD/svg11.dtd">
<svg xmlns="http://www.w3.org/2000/svg" xmlns:xlink="http://www.w3.org/1999/xlink" version="1.1" baseProfile="full" width="24" height="24" viewBox="0 0 24.00 24.00" enable-background="new 0 0 24.00 24.00" xml:space="preserve">
	<path fill="#000000" fill-opacity="1" stroke-width="0.2" stroke-linejoin="round" d="M 9.99936,3.99807L 11.9994,5.99807L 19.9994,5.99807C 21.1029,5.99807 21.9994,6.89406 21.9994,7.99807L 21.9994,17.9981C 21.9994,19.1021 21.1029,19.9981 19.9994,19.9981L 3.99936,19.9981C 2.89436,19.9981 1.99936,19.1021 1.99936,17.9981L 2.00936,5.99807C 2.00936,4.89406 2.89436,3.99807 3.99936,3.99807L 9.99936,3.99807 Z M 12.4645,10.8787L 14.5858,13L 12.4645,15.1213L 13.8787,16.5355L 16,14.4142L 18.1213,16.5355L 19.5355,15.1213L 17.4142,13L 19.5355,10.8787L 18.1213,9.46447L 16,11.5858L 13.8787,9.46447L 12.4645,10.8787 Z "/>
</svg>
