<?xml version="1.0" encoding="utf-8"?>
<!DOCTYPE svg PUBLIC "-//W3C//DTD SVG 1.1//EN" "http://www.w3.org/Graphics/SVG/1.1/DTD/svg11.dtd">
<svg xmlns="http://www.w3.org/2000/svg" xmlns:xlink="http://www.w3.org/1999/xlink" version="1.1" baseProfile="full" width="24" height="24" viewBox="0 0 24.00 24.00" enable-background="new 0 0 24.00 24.00" xml:space="preserve">
	<path fill="#000000" fill-opacity="1" stroke-width="0.2" stroke-linejoin="round" d="M 18.9994,16.9981L 10.9994,16.9981L 10.9994,15.9981C 10.9994,14.6661 13.6664,13.9981 14.9994,13.9981C 16.3324,13.9981 18.9994,14.6661 18.9994,15.9981M 14.9994,8.99807C 16.1029,8.99807 16.9994,9.89406 16.9994,10.9981C 16.9994,12.1011 16.1029,12.9981 14.9994,12.9981C 13.8959,12.9981 12.9994,12.1011 12.9994,10.9981C 12.9994,9.89406 13.8959,8.99807 14.9994,8.99807 Z M 19.9994,5.99807L 11.9994,5.99807L 9.9994,3.99807L 3.9994,3.99807C 2.8944,3.99807 2.00917,4.89406 2.00917,5.99807L 1.9994,17.9981C 1.9994,19.1021 2.8944,19.9981 3.9994,19.9981L 19.9994,19.9981C 21.1029,19.9981 21.9994,19.1021 21.9994,17.9981L 21.9994,7.99807C 21.9994,6.89406 21.1029,5.99807 19.9994,5.99807 Z "/>
</svg>
