<?xml version="1.0" encoding="utf-8"?>
<!DOCTYPE svg PUBLIC "-//W3C//DTD SVG 1.1//EN" "http://www.w3.org/Graphics/SVG/1.1/DTD/svg11.dtd">
<svg xmlns="http://www.w3.org/2000/svg" xmlns:xlink="http://www.w3.org/1999/xlink" version="1.1" baseProfile="full" width="24" height="24" viewBox="0 0 24.00 24.00" enable-background="new 0 0 24.00 24.00" xml:space="preserve">
	<path fill="#000000" fill-opacity="1" stroke-width="1.33333" stroke-linejoin="miter" d="M 18.9994,16.9981L 10.9994,16.9981L 10.9994,15.9981C 10.9994,14.6661 13.6664,13.9981 14.9994,13.9981C 16.3324,13.9981 18.9994,14.6661 18.9994,15.9981L 18.9994,16.9981 Z M 14.9994,8.99807C 16.1029,8.99807 16.9994,9.89407 16.9994,10.9981C 16.9994,12.1011 16.1029,12.9981 14.9994,12.9981C 13.8959,12.9981 12.9994,12.1011 12.9994,10.9981C 12.9994,9.89407 13.8959,8.99807 14.9994,8.99807 Z M 19.9994,5.99807C 21.0994,5.99807 21.9994,6.89807 21.9994,7.99807L 21.9994,17.9981C 21.9994,19.0981 21.0994,19.9981 19.9994,19.9981L 3.9994,19.9981C 2.8994,19.9981 1.9994,19.0981 1.9994,17.9981L 1.9994,5.99807C 1.9994,4.89807 2.8994,3.99807 3.9994,3.99807L 9.9994,3.99807L 11.9994,5.99807L 19.9994,5.99807 Z M 19.9994,17.9981L 19.9994,7.99807L 11.1694,7.99807L 9.1694,5.99807L 3.9994,5.99807L 3.9994,17.9981L 19.9994,17.9981 Z "/>
</svg>
