<?xml version="1.0" encoding="utf-8"?>
<!DOCTYPE svg PUBLIC "-//W3C//DTD SVG 1.1//EN" "http://www.w3.org/Graphics/SVG/1.1/DTD/svg11.dtd">
<svg xmlns="http://www.w3.org/2000/svg" xmlns:xlink="http://www.w3.org/1999/xlink" version="1.1" baseProfile="full" width="24" height="24" viewBox="0 0 24.00 24.00" enable-background="new 0 0 24.00 24.00" xml:space="preserve">
	<path fill="#000000" fill-opacity="1" stroke-width="0.2" stroke-linejoin="round" d="M 15,12L 17,12L 17,17L 15,17L 15,12 Z M 15,18L 17,18L 17,20L 15,20L 15,18 Z M 23,16C 23,19.866 19.866,23 16,23C 13.6204,23 11.5181,21.8126 10.2533,19.9981L 2.99936,19.9981C 1.89436,19.9981 0.999362,19.1021 0.999362,17.9981L 1.00936,5.99807C 1.00936,4.89406 1.89436,3.99807 2.99936,3.99807L 8.99936,3.99807L 10.9994,5.99807L 18.9994,5.99807C 20.1029,5.99807 20.9994,6.89406 20.9994,7.99807L 20.9994,11.1004C 22.2369,12.363 23,14.0924 23,16 Z M 16,11C 13.2386,11 11,13.2386 11,16C 11,18.7614 13.2386,21 16,21C 18.7614,21 21,18.7614 21,16C 21,13.2386 18.7614,11 16,11 Z "/>
</svg>
