<?xml version="1.0" encoding="utf-8"?>
<!DOCTYPE svg PUBLIC "-//W3C//DTD SVG 1.1//EN" "http://www.w3.org/Graphics/SVG/1.1/DTD/svg11.dtd">
<svg xmlns="http://www.w3.org/2000/svg" xmlns:xlink="http://www.w3.org/1999/xlink" version="1.1" baseProfile="full" width="24" height="24" viewBox="0 0 24.00 24.00" enable-background="new 0 0 24.00 24.00" xml:space="preserve">
	<path fill="#000000" fill-opacity="1" stroke-width="1.33333" stroke-linejoin="miter" d="M 3.99875,3.9987C 2.895,3.9987 2.01125,4.8925 2.01125,5.9963L 2.0025,17.9975C 2.0025,19.1013 2.895,20 3.99875,20L 20,20C 21.1038,20 22.0025,19.1013 22.0025,17.9975L 22.0025,7.9975C 22.0025,6.895 21.1038,5.9963 20,5.9963L 12.0025,5.9963L 10,3.9987M 11.0012,10C 12.305,10 13.4175,10.835 13.8287,12.0025L 18.9988,12.0025L 18.9988,13.9987L 17.9975,13.9987L 17.9975,16.0012L 16.0012,16.0012L 16.0012,13.9987L 13.8287,13.9987C 13.4175,15.1662 12.305,16.0012 11.0012,16.0012C 9.34125,16.0012 7.9975,14.6588 7.9975,12.9975C 7.9975,11.3425 9.34125,10 11.0012,10 Z M 11.0012,12.0025C 10.4487,12.0025 10,12.4462 10,12.9975C 10,13.555 10.4487,13.9987 11.0012,13.9987C 11.5525,13.9987 12.0025,13.555 12.0025,12.9975C 12.0025,12.4462 11.5525,12.0025 11.0012,12.0025 Z "/>
</svg>
