<?xml version="1.0" encoding="utf-8"?>
<!DOCTYPE svg PUBLIC "-//W3C//DTD SVG 1.1//EN" "http://www.w3.org/Graphics/SVG/1.1/DTD/svg11.dtd">
<svg xmlns="http://www.w3.org/2000/svg" xmlns:xlink="http://www.w3.org/1999/xlink" version="1.1" baseProfile="full" width="24" height="24" viewBox="0 0 24.00 24.00" enable-background="new 0 0 24.00 24.00" xml:space="preserve">
	<path fill="#000000" fill-opacity="1" stroke-width="1.33333" stroke-linejoin="miter" d="M 20,6L 12,6L 10,4L 4,4C 2.9,4 2,4.9 2,6L 2,18C 2,19.1 2.9,20 4,20L 20,20C 21.1,20 22,19.1 22,18L 22,8C 22,6.9 21.1,6 20,6 Z M 17.94,17L 15,15.28L 12.06,17L 12.84,13.67L 10.25,11.43L 13.66,11.14L 15,8L 16.34,11.14L 19.75,11.43L 17.16,13.67L 17.94,17 Z "/>
</svg>
