<?xml version="1.0" encoding="utf-8"?>
<!DOCTYPE svg PUBLIC "-//W3C//DTD SVG 1.1//EN" "http://www.w3.org/Graphics/SVG/1.1/DTD/svg11.dtd">
<svg xmlns="http://www.w3.org/2000/svg" xmlns:xlink="http://www.w3.org/1999/xlink" version="1.1" baseProfile="full" width="24" height="24" viewBox="0 0 24.00 24.00" enable-background="new 0 0 24.00 24.00" xml:space="preserve">
	<path fill="#000000" fill-opacity="1" stroke-width="0.2" stroke-linejoin="miter" d="M 3,15L 3,5C 3,3.8954 3.89543,3 5,3L 11,3L 13,5L 19,5C 20.1046,5 21,5.8954 21,7L 21,15C 21,16.1046 20.1046,17 19,17L 13,17L 13,19L 14,19C 14.5523,19 15,19.4477 15,20L 22,20L 22,22L 15,22C 15,22.5523 14.5523,23 14,23L 10,23C 9.44771,23 9,22.5523 9,22L 2,22L 2,20L 9,20C 9,19.4477 9.44771,19 10,19L 11,19L 11,17L 5,17C 3.89543,17 3,16.1046 3,15 Z "/>
</svg>
