<?xml version="1.0" encoding="utf-8"?>
<!DOCTYPE svg PUBLIC "-//W3C//DTD SVG 1.1//EN" "http://www.w3.org/Graphics/SVG/1.1/DTD/svg11.dtd">
<svg xmlns="http://www.w3.org/2000/svg" xmlns:xlink="http://www.w3.org/1999/xlink" version="1.1" baseProfile="full" width="24" height="24" viewBox="0 0 24.00 24.00" enable-background="new 0 0 24.00 24.00" xml:space="preserve">
	<path fill="#000000" fill-opacity="1" stroke-width="1.33333" stroke-linejoin="miter" d="M 6,3C 7.38071,3 8.5,4.11929 8.5,5.5C 8.5,6.52516 7.88295,7.4062 7,7.79198L 7,8.66147C 8.11133,8.362 9.71947,8 11,8C 12.1471,8 12.8855,8.222 13.5377,8.41733C 14.1328,8.5964 14.6472,8.75067 15.5,8.75067C 17.1261,8.75067 18.3973,8.17863 18.5423,8.11066C 18.6794,8.03993 18.8351,8 19,8C 19.5523,8 20,8.44772 20,9L 20,17C 20,17.3789 19.7864,17.724 19.4479,17.8945C 19.3776,17.9297 17.7109,18.7513 15.5,18.7513C 14.3932,18.7513 13.4519,18.5495 12.5404,18.3529C 11.6933,18.1719 10.8939,18 10,18C 8.85187,18 7.67027,18.3907 7,18.6556L 7,22L 5,22L 5,7.79198C 4.11705,7.4062 3.5,6.52516 3.5,5.5C 3.5,4.11929 4.61929,3 6,3 Z "/>
</svg>
