<?xml version="1.0" encoding="utf-8"?>
<!DOCTYPE svg PUBLIC "-//W3C//DTD SVG 1.1//EN" "http://www.w3.org/Graphics/SVG/1.1/DTD/svg11.dtd">
<svg xmlns="http://www.w3.org/2000/svg" xmlns:xlink="http://www.w3.org/1999/xlink" version="1.1" baseProfile="full" width="24" height="24" viewBox="0 0 24.00 24.00" enable-background="new 0 0 24.00 24.00" xml:space="preserve">
	<path fill="#000000" fill-opacity="1" stroke-width="1.33333" stroke-linejoin="miter" d="M 20,10C 18.576,7.5698 15.4929,6.6889 13,8L 13,3L 11,3L 11,8C 8.50712,6.6889 5.42395,7.5698 4,10C 2,13 7,22 9,22C 11,22 11,21 12,21C 13,21 13,22 15,22C 17,22 22,13 20,10 Z M 18.25,13.38C 17.6324,15.8463 16.4127,18.1209 14.7,20C 14.4777,19.9858 14.2666,19.8978 14.1,19.75C 12.8738,18.7634 11.1262,18.7634 9.9,19.75C 9.73342,19.8978 9.52226,19.9858 9.3,20C 7.585,18.1264 6.36479,15.8544 5.75,13.39C 5.48135,12.6618 5.44985,11.8672 5.66,11.12C 6.23896,10.0877 7.31698,9.4349 8.5,9.4C 9.05938,9.4056 9.61007,9.539 10.11,9.79L 11,10.24L 13,10.24L 13.89,9.79C 14.3899,9.539 14.9406,9.4056 15.5,9.4C 16.681,9.4328 17.7585,10.0816 18.34,11.11C 18.5502,11.8572 18.5187,12.6518 18.25,13.38 Z M 11,5C 5.38,8.07 4.11,3.78 4.11,3.78C 4.11,3.78 6.77,0.190001 11,5 Z "/>
</svg>
