<?xml version="1.0" encoding="utf-8"?>
<!DOCTYPE svg PUBLIC "-//W3C//DTD SVG 1.1//EN" "http://www.w3.org/Graphics/SVG/1.1/DTD/svg11.dtd">
<svg xmlns="http://www.w3.org/2000/svg" xmlns:xlink="http://www.w3.org/1999/xlink" version="1.1" baseProfile="full" width="24" height="24" viewBox="0 0 24.00 24.00" enable-background="new 0 0 24.00 24.00" xml:space="preserve">
	<path fill="#000000" fill-opacity="1" stroke-linejoin="round" d="M 20,10C 22,13 17,22 15,22C 13,22 13,21 12,21C 11,21 11,22 9,22C 7,22 2,13 4,10C 5.99999,7.00001 8.99999,7.00001 11,8.00001L 11,4.99999C 5.38138,8.07099 4.10636,3.78446 4.10636,3.78446C 4.10636,3.78446 6.77057,0.192522 11,4.99999L 11,3L 13,3L 13,8.00001C 15,7.00001 18,7.00001 20,10 Z "/>
</svg>
