<?xml version="1.0" encoding="utf-8"?>
<!DOCTYPE svg PUBLIC "-//W3C//DTD SVG 1.1//EN" "http://www.w3.org/Graphics/SVG/1.1/DTD/svg11.dtd">
<svg xmlns="http://www.w3.org/2000/svg" xmlns:xlink="http://www.w3.org/1999/xlink" version="1.1" baseProfile="full" width="24" height="24" viewBox="0 0 24.00 24.00" enable-background="new 0 0 24.00 24.00" xml:space="preserve">
	<path fill="#000000" fill-opacity="1" stroke-width="1.33333" stroke-linejoin="miter" d="M 6,4L 6,11L 4,11C 2.89,11 2,11.89 2,13L 2,17C 2,18.6568 3.34315,20 5,20C 6.65685,20 8,18.6568 8,17L 10,17C 10,18.6568 11.3431,20 13,20C 14.6569,20 16,18.6568 16,17L 16,13L 12,4L 6,4 Z M 17,5L 17,19L 22,19L 22,17.5L 18.5,17.5L 18.5,5L 17,5 Z M 7.5,5.5L 11.1992,5.5L 14.5,13L 7.5,13L 7.5,5.5 Z M 5,15.5C 5.82843,15.5 6.5,16.1716 6.5,17C 6.5,17.8284 5.82843,18.5 5,18.5C 4.17157,18.5 3.5,17.8284 3.5,17C 3.5,16.1716 4.17157,15.5 5,15.5 Z M 13,15.5C 13.8284,15.5 14.5,16.1716 14.5,17C 14.5,17.8284 13.8284,18.5 13,18.5C 12.1716,18.5 11.5,17.8284 11.5,17C 11.5,16.1716 12.1716,15.5 13,15.5 Z "/>
</svg>
