<?xml version="1.0" encoding="utf-8"?>
<!DOCTYPE svg PUBLIC "-//W3C//DTD SVG 1.1//EN" "http://www.w3.org/Graphics/SVG/1.1/DTD/svg11.dtd">
<svg xmlns="http://www.w3.org/2000/svg" xmlns:xlink="http://www.w3.org/1999/xlink" version="1.1" baseProfile="full" width="24" height="24" viewBox="0 0 24.00 24.00" enable-background="new 0 0 24.00 24.00" xml:space="preserve">
	<path fill="#000000" fill-opacity="1" stroke-width="0.2" stroke-linejoin="round" d="M 3,4L 5,4L 5,10L 9,10L 9,4L 11,4L 11,18L 9,18L 9,12L 5,12L 5,18L 3,18L 3,4 Z M 21,18L 15,18C 13.8954,18 13,17.1046 13,16C 13,15.4728 13.204,14.9933 13.5373,14.636L 18.4142,9.41422C 18.7761,9.05229 19,8.55229 19,8C 19,6.89544 18.1046,6.00001 17,6.00001C 15.8954,6.00001 15,6.89544 15,8L 13,8C 13,5.79086 14.7909,4 17,4C 19.2091,4 21,5.79086 21,8C 21,9.10457 20.5523,10.1046 19.8284,10.8284L 15,16L 21,16L 21,18 Z "/>
</svg>
