<?xml version="1.0" encoding="utf-8"?>
<!DOCTYPE svg PUBLIC "-//W3C//DTD SVG 1.1//EN" "http://www.w3.org/Graphics/SVG/1.1/DTD/svg11.dtd">
<svg xmlns="http://www.w3.org/2000/svg" xmlns:xlink="http://www.w3.org/1999/xlink" version="1.1" baseProfile="full" width="24" height="24" viewBox="0 0 24.00 24.00" enable-background="new 0 0 24.00 24.00" xml:space="preserve">
	<path fill="#000000" fill-opacity="1" stroke-width="0.2" stroke-linejoin="round" d="M 16,7.41002L 11.41,12L 16,16.59L 14.59,18L 10,13.41L 5.41,18L 4,16.59L 8.59,12L 4,7.41002L 5.41,6.00002L 10,10.59L 14.59,6.00002L 16,7.41002 Z M 21.8484,21.03L 16.9655,21.03L 16.9655,20.0339L 17.8616,19.2301C 18.6176,18.5829 19.183,18.039 19.5577,17.5982C 19.9324,17.1575 20.1244,16.7459 20.1337,16.3636C 20.1361,16.0817 20.0459,15.8484 19.863,15.6637C 19.6801,15.4791 19.3899,15.3834 18.9923,15.3767C 18.6918,15.3832 18.4154,15.4429 18.1629,15.556L 17.5095,15.9378L 17.0508,14.7665C 17.3155,14.556 17.6422,14.3808 18.0309,14.241C 18.4196,14.1012 18.8503,14.0287 19.323,14.0233C 20.1018,14.037 20.6953,14.2481 21.1036,14.6567C 21.5119,15.0653 21.7175,15.5893 21.7204,16.2286C 21.7065,16.7905 21.528,17.3076 21.1848,17.78C 20.8415,18.2523 20.4165,18.7045 19.9097,19.1366L 19.2696,19.6559L 19.2696,19.6767L 21.8484,19.6767L 21.8484,21.03 Z "/>
</svg>
