<?xml version="1.0" encoding="utf-8"?>
<!DOCTYPE svg PUBLIC "-//W3C//DTD SVG 1.1//EN" "http://www.w3.org/Graphics/SVG/1.1/DTD/svg11.dtd">
<svg xmlns="http://www.w3.org/2000/svg" xmlns:xlink="http://www.w3.org/1999/xlink" version="1.1" baseProfile="full" width="24" height="24" viewBox="0 0 24.00 24.00" enable-background="new 0 0 24.00 24.00" xml:space="preserve">
	<path fill="#000000" fill-opacity="1" stroke-width="1.33333" stroke-linejoin="miter" d="M 5,9.5L 7.5,14L 2.5,14L 5,9.5 Z M 3,4L 7,4L 7,8L 3,8L 3,4 Z M 5,20C 6.1,20 7,19.1 7,18C 7,16.9 6.1,16 5,16C 3.9,16 3,16.9 3,18C 3,19.1 3.9,20 5,20 Z M 9,5L 9,7L 21,7L 21,5L 9,5 Z M 9,19L 21,19L 21,17L 9,17L 9,19 Z M 9,13L 21,13L 21,11L 9,11L 9,13 Z "/>
</svg>
