<?xml version="1.0" encoding="utf-8"?>
<!DOCTYPE svg PUBLIC "-//W3C//DTD SVG 1.1//EN" "http://www.w3.org/Graphics/SVG/1.1/DTD/svg11.dtd">
<svg xmlns="http://www.w3.org/2000/svg" xmlns:xlink="http://www.w3.org/1999/xlink" version="1.1" baseProfile="full" width="24" height="24" viewBox="0 0 24.00 24.00" enable-background="new 0 0 24.00 24.00" xml:space="preserve">
	<path fill="#000000" fill-opacity="1" stroke-width="1.33333" stroke-linejoin="miter" d="M 17,8L 20,8L 20,20L 21,20L 21,21L 17,21L 17,20L 18,20L 18,17L 14,17L 12.5,20L 14,20L 14,21L 10,21L 10,20L 11,20L 17,8 Z M 18,9L 14.5,16L 18,16L 18,9 Z M 5,3L 10,3C 11.108,3 12,3.892 12,5L 12,16L 9,16L 9,11L 6,11L 6,16L 3,16L 3,5C 3,3.892 3.892,3 5,3 Z M 6,5L 6,9L 9,9L 9,5L 6,5 Z "/>
</svg>
