<?xml version="1.0" encoding="utf-8"?>
<!DOCTYPE svg PUBLIC "-//W3C//DTD SVG 1.1//EN" "http://www.w3.org/Graphics/SVG/1.1/DTD/svg11.dtd">
<svg xmlns="http://www.w3.org/2000/svg" xmlns:xlink="http://www.w3.org/1999/xlink" version="1.1" baseProfile="full" width="24" height="24" viewBox="0 0 24.00 24.00" enable-background="new 0 0 24.00 24.00" xml:space="preserve">
	<path fill="#000000" fill-opacity="1" stroke-width="1.33333" stroke-linejoin="miter" d="M 3,3L 11,3L 11,5L 3,5L 3,3 Z M 13,3L 21,3L 21,5L 13,5L 13,3 Z M 3,7L 11,7L 11,9L 3,9L 3,7 Z M 13,7L 21,7L 21,9L 13,9L 13,7 Z M 3,11L 11,11L 11,13L 3,13L 3,11 Z M 13,11L 21,11L 21,13L 13,13L 13,11 Z M 3,15L 11,15L 11,17L 3,17L 3,15 Z M 13,15L 21,15L 21,17L 13,17L 13,15 Z M 3,19L 11,19L 11,21L 3,21L 3,19 Z M 13,19L 21,19L 21,21L 13,21L 13,19 Z "/>
</svg>
