<?xml version="1.0" encoding="utf-8"?>
<!DOCTYPE svg PUBLIC "-//W3C//DTD SVG 1.1//EN" "http://www.w3.org/Graphics/SVG/1.1/DTD/svg11.dtd">
<svg xmlns="http://www.w3.org/2000/svg" xmlns:xlink="http://www.w3.org/1999/xlink" version="1.1" baseProfile="full" width="24" height="24" viewBox="0 0 24.00 24.00" enable-background="new 0 0 24.00 24.00" xml:space="preserve">
	<path fill="#000000" fill-opacity="1" stroke-width="0.2" stroke-linejoin="round" d="M 6.99938,12.998L 6.99938,10.998L 20.9994,10.998L 20.9994,12.998L 6.99938,12.998 Z M 6.99938,18.9981L 6.99938,16.9981L 20.9994,16.9981L 20.9994,18.9981L 6.99938,18.9981 Z M 6.99938,6.99809L 6.99938,4.99809L 20.9994,4.99809L 20.9994,6.99809L 6.99938,6.99809 Z M 2.99938,7.99809L 2.99938,4.99809L 1.99938,4.99809L 1.99938,3.99809L 3.99938,3.99809L 3.99938,7.99809L 2.99938,7.99809 Z M 1.99938,16.9981L 1.99938,15.9981L 4.99938,15.9981L 4.99938,19.9981L 1.99938,19.9981L 1.99938,18.9981L 3.99938,18.9981L 3.99938,18.4981L 2.99938,18.4981L 2.99938,17.4981L 3.99938,17.4981L 3.99938,16.9981L 1.99938,16.9981 Z M 4.25,10C 4.66421,10 5,10.3358 5,10.75C 5,10.9524 4.91983,11.1361 4.7895,11.271L 3.11983,13L 5,13L 5,14L 2,14L 2,13.0782L 4,11L 2,11L 2,10L 4.25,10 Z "/>
</svg>
