<?xml version="1.0" encoding="utf-8"?>
<!DOCTYPE svg PUBLIC "-//W3C//DTD SVG 1.1//EN" "http://www.w3.org/Graphics/SVG/1.1/DTD/svg11.dtd">
<svg xmlns="http://www.w3.org/2000/svg" xmlns:xlink="http://www.w3.org/1999/xlink" version="1.1" baseProfile="full" width="24" height="24" viewBox="0 0 24.00 24.00" enable-background="new 0 0 24.00 24.00" xml:space="preserve">
	<path fill="#000000" fill-opacity="1" stroke-width="1.33333" stroke-linejoin="miter" d="M 7.34,6.41L 0.860001,12.9L 7.35,19.38L 13.84,12.9L 7.34,6.41 Z M 3.69,12.9L 7.35,9.24L 11,12.9L 7.34,16.56L 3.69,12.9 Z M 19.36,6.64C 17.61,4.88 15.3,4 13,4L 13,0.76L 8.76,5L 13,9.24L 13,6C 14.79,6 16.58,6.68 17.95,8.05C 20.68,10.78 20.68,15.22 17.95,17.95C 16.58,19.32 14.79,20 13,20C 12.03,20 11.06,19.79 10.16,19.39L 8.67,20.88C 10.02,21.62 11.51,22 13,22C 15.3,22 17.61,21.12 19.36,19.36C 22.88,15.85 22.88,10.15 19.36,6.64 Z "/>
</svg>
