<?xml version="1.0" encoding="utf-8"?>
<!DOCTYPE svg PUBLIC "-//W3C//DTD SVG 1.1//EN" "http://www.w3.org/Graphics/SVG/1.1/DTD/svg11.dtd">
<svg xmlns="http://www.w3.org/2000/svg" xmlns:xlink="http://www.w3.org/1999/xlink" version="1.1" baseProfile="full" width="24" height="24" viewBox="0 0 24.00 24.00" enable-background="new 0 0 24.00 24.00" xml:space="preserve">
	<path fill="#000000" fill-opacity="1" stroke-width="0.2" stroke-linejoin="miter" d="M 23,12L 23,14L 18.6073,14C 19.612,16.1408 19.5643,21.9887 12.3828,22.0156C 4.05469,22.0469 4.36719,15.5156 4.36719,15.5156L 8.33594,15.5469C 8.36719,18.9219 11.4766,18.9219 12.1172,18.875C 12.7578,18.8281 15.1484,18.8437 15.3359,16.5C 15.423,15.4116 14.3241,14.5794 13.1219,14L 1,14L 1,12L 23,12 Z M 19.4141,7.89063L 15.4297,7.85938C 15.4297,7.85938 15.6016,5.09375 12.1484,5.07813C 8.69531,5.06251 8.97656,7.28125 9.00781,7.5625C 9.03906,7.84375 9.33594,9.21875 12.0078,9.875L 5.71094,9.875C 5.71094,9.875 2.2231,3.14677 10.7422,1.98438C 19.4453,0.796883 19.4297,7.90625 19.4141,7.89063 Z "/>
</svg>
