<?xml version="1.0" encoding="utf-8"?>
<!DOCTYPE svg PUBLIC "-//W3C//DTD SVG 1.1//EN" "http://www.w3.org/Graphics/SVG/1.1/DTD/svg11.dtd">
<svg xmlns="http://www.w3.org/2000/svg" xmlns:xlink="http://www.w3.org/1999/xlink" version="1.1" baseProfile="full" width="24" height="24" viewBox="0 0 24.00 24.00" enable-background="new 0 0 24.00 24.00" xml:space="preserve">
	<path fill="#000000" fill-opacity="1" stroke-width="1.33333" stroke-linejoin="miter" d="M 7,21L 5,21L 5,3L 7,3L 7,21 Z M 19,3L 17,3L 17,21L 19,21L 19,3 Z M 13,8L 9,8L 9,10L 12.971,10C 13.143,10.011 14,10.16 14,12C 14,13.84 13.143,13.989 13,14L 11,14L 11,12L 8,15L 11,18L 11,16L 13,16C 14.038,16 16,15.164 16,12C 16,8.836 14.038,8 13,8 Z "/>
</svg>
