<?xml version="1.0" encoding="utf-8"?>
<!DOCTYPE svg PUBLIC "-//W3C//DTD SVG 1.1//EN" "http://www.w3.org/Graphics/SVG/1.1/DTD/svg11.dtd">
<svg xmlns="http://www.w3.org/2000/svg" xmlns:xlink="http://www.w3.org/1999/xlink" version="1.1" baseProfile="full" width="24" height="24" viewBox="0 0 24.00 24.00" enable-background="new 0 0 24.00 24.00" xml:space="preserve">
	<path fill="#000000" fill-opacity="0.745098" stroke-linejoin="round" d="M 18.5,4L 19.6647,8.34667L 18.6988,8.60549C 18.2461,7.737 17.7934,6.8685 17.2603,6.43425C 16.7272,6 16.1136,6 15.5,6L 13,6L 13,16.5C 13,17 13,17.5 13.3333,17.75C 13.6667,18 14.3333,18 15,18L 15,19L 9,19L 9,18C 9.66667,18 10.3333,18 10.6667,17.75C 11,17.5 11,17 11,16.5L 11,6L 8.5,6C 7.88642,6 7.27283,6 6.7397,6.43425C 6.20658,6.8685 5.75391,7.73699 5.30125,8.60549L 4.33532,8.34667L 5.50001,4L 18.5,4 Z "/>
</svg>
