<?xml version="1.0" encoding="utf-8"?>
<!DOCTYPE svg PUBLIC "-//W3C//DTD SVG 1.1//EN" "http://www.w3.org/Graphics/SVG/1.1/DTD/svg11.dtd">
<svg xmlns="http://www.w3.org/2000/svg" xmlns:xlink="http://www.w3.org/1999/xlink" version="1.1" baseProfile="full" width="24" height="24" viewBox="0 0 24.00 24.00" enable-background="new 0 0 24.00 24.00" xml:space="preserve">
	<path fill="#000000" fill-opacity="1" stroke-width="0.2" stroke-linejoin="miter" d="M 20.06,18C 19.9767,17.8333 19.9092,17.5367 19.8575,17.11C 19.1858,17.81 18.3833,18.16 17.45,18.16C 16.6167,18.16 15.9333,17.9246 15.4,17.4537C 14.8667,16.9829 14.6,16.385 14.6,15.66C 14.6,14.78 14.9346,14.0967 15.6037,13.61C 16.2729,13.1233 17.2142,12.88 18.4275,12.88L 19.8325,12.88L 19.8325,12.24C 19.8325,11.7517 19.6817,11.3629 19.38,11.0737C 19.0783,10.7846 18.6333,10.64 18.045,10.64C 17.5283,10.64 17.0958,10.7612 16.7475,11.0037C 16.3992,11.2462 16.225,11.54 16.225,11.885L 14.77,11.885C 14.77,11.4583 14.92,11.0467 15.22,10.65C 15.52,10.2533 15.9262,9.93917 16.4387,9.7075C 16.9512,9.47583 17.515,9.36 18.13,9.36C 19.105,9.36 19.8683,9.60417 20.42,10.0925C 20.9717,10.5808 21.2583,11.2542 21.28,12.1125L 21.28,16.0175C 21.28,16.7958 21.3783,17.415 21.575,17.875L 21.575,18L 20.06,18 Z M 17.66,16.88C 18.1133,16.88 18.5429,16.7738 18.9487,16.5613C 19.3546,16.3487 19.6483,16.0725 19.83,15.7325L 19.83,14.16L 18.6975,14.16C 16.9275,14.16 16.0425,14.63 16.0425,15.57C 16.0425,15.98 16.1933,16.3008 16.495,16.5325C 16.7967,16.7642 17.185,16.88 17.66,16.88 Z M 5.46,13.7143L 9.53143,13.7143L 7.5,8.28851L 5.46,13.7143 Z M 6.64285,6L 8.35714,6L 13.0714,18L 11.1429,18L 10.1743,15.4286L 4.81714,15.4286L 3.85714,18L 1.92857,18L 6.64285,6 Z M 2,20L 13,20L 13,22L 2,22L 2,20 Z "/>
</svg>
