<?xml version="1.0" encoding="utf-8"?>
<!DOCTYPE svg PUBLIC "-//W3C//DTD SVG 1.1//EN" "http://www.w3.org/Graphics/SVG/1.1/DTD/svg11.dtd">
<svg xmlns="http://www.w3.org/2000/svg" xmlns:xlink="http://www.w3.org/1999/xlink" version="1.1" baseProfile="full" width="24" height="24" viewBox="0 0 24.00 24.00" enable-background="new 0 0 24.00 24.00" xml:space="preserve">
	<path fill="#000000" fill-opacity="1" stroke-width="0.2" stroke-linejoin="round" d="M 13.4994,15.498L 9.99937,15.498L 9.99937,12.498L 13.4994,12.498C 14.3274,12.498 14.9994,13.17 14.9994,13.998C 14.9994,14.826 14.3274,15.498 13.4994,15.498 Z M 9.99937,6.49805L 12.9994,6.49805C 13.8274,6.49805 14.4994,7.17004 14.4994,7.99805C 14.4994,8.82605 13.8274,9.49805 12.9994,9.49805L 9.99937,9.49805M 15.5994,10.786C 16.5654,10.1121 17.2494,9.01904 17.2494,7.99805C 17.2494,5.74304 15.5044,3.99805 13.2494,3.99805L 6.99937,3.99805L 6.99937,17.998L 14.0414,17.998C 16.1354,17.998 17.7494,16.3 17.7494,14.2061C 17.7494,12.69 16.8864,11.3921 15.5994,10.786 Z "/>
</svg>
