<?xml version="1.0" encoding="utf-8"?>
<!DOCTYPE svg PUBLIC "-//W3C//DTD SVG 1.1//EN" "http://www.w3.org/Graphics/SVG/1.1/DTD/svg11.dtd">
<svg xmlns="http://www.w3.org/2000/svg" xmlns:xlink="http://www.w3.org/1999/xlink" version="1.1" baseProfile="full" width="24" height="24" viewBox="0 0 24.00 24.00" enable-background="new 0 0 24.00 24.00" xml:space="preserve">
	<path fill="#000000" fill-opacity="1" stroke-width="0.2" stroke-linejoin="round" d="M 3,4L 5,4L 5,10L 9,10L 9,4L 11,4L 11,18L 9,18L 9,12L 5,12L 5,18L 3,18L 3,4 Z M 13,8L 15.3142,8L 15.6284,4.99999L 17.6284,4.99999L 17.3142,8L 19.3142,8L 19.6284,4.99999L 21.6284,4.99999L 21.3142,8L 23,8L 23,10L 21.1047,10L 20.8953,12L 23,12L 23,14L 20.6858,14L 20.3716,17L 18.3716,17L 18.6858,14L 16.6858,14L 16.3716,17L 14.3716,17L 14.6858,14L 13,14L 13,12L 14.8953,12L 15.1047,10L 13,10L 13,8 Z M 17.1047,10L 16.8953,12L 18.8953,12L 19.1047,10L 17.1047,10 Z "/>
</svg>
