<?xml version="1.0" encoding="utf-8"?>
<!DOCTYPE svg PUBLIC "-//W3C//DTD SVG 1.1//EN" "http://www.w3.org/Graphics/SVG/1.1/DTD/svg11.dtd">
<svg xmlns="http://www.w3.org/2000/svg" xmlns:xlink="http://www.w3.org/1999/xlink" version="1.1" baseProfile="full" width="24" height="24" viewBox="0 0 24.00 24.00" enable-background="new 0 0 24.00 24.00" xml:space="preserve">
	<path fill="#000000" fill-opacity="1" stroke-width="0.2" stroke-linejoin="round" d="M 3,4L 5,4L 5,10L 9,10L 9,4L 11,4L 11,18L 9,18L 9,12L 5,12L 5,18L 3,18L 3,4 Z M 18,18L 18,13L 13,13L 13,11L 18,4L 20,4L 20,11L 21,11L 21,13L 20,13L 20,18L 18,18 Z M 18,11L 18,7.41688L 15.4536,11L 18,11 Z "/>
</svg>
