<?xml version="1.0" encoding="utf-8"?>
<!DOCTYPE svg PUBLIC "-//W3C//DTD SVG 1.1//EN" "http://www.w3.org/Graphics/SVG/1.1/DTD/svg11.dtd">
<svg xmlns="http://www.w3.org/2000/svg" xmlns:xlink="http://www.w3.org/1999/xlink" version="1.1" baseProfile="full" width="24" height="24" viewBox="0 0 24.00 24.00" enable-background="new 0 0 24.00 24.00" xml:space="preserve">
	<path fill="#000000" fill-opacity="1" stroke-width="1.33333" stroke-linejoin="miter" d="M 21,19L 21,17L 8,17L 8,19L 21,19 Z M 21,13L 21,11L 8,11L 8,13L 21,13 Z M 8,7L 21,7L 21,5L 8,5L 8,7 Z M 4,5.0094L 4.0094,7L 6,6.9906L 5.9906,5L 4,5.0094 Z M 3,5.0094C 3,4.4519 3.44335,4 4.0094,4L 5.9906,4C 6.5481,4 7,4.4433 7,5.0094L 7,6.9906C 7,7.5481 6.5566,8 5.9906,8L 4.0094,8C 3.45191,8 3,7.5566 3,6.9906L 3,5.0094 Z M 4,11.0094L 4.0094,13L 6,12.9906L 5.9906,11L 4,11.0094 Z M 3,11.0094C 3,10.4519 3.44335,10 4.0094,10L 5.9906,10C 6.5481,10 7,10.4434 7,11.0094L 7,12.9906C 7,13.5481 6.5566,14 5.9906,14L 4.0094,14C 3.45191,14 3,13.5566 3,12.9906L 3,11.0094 Z M 4,17.009L 4.0094,19L 6,18.991L 5.9906,17L 4,17.009 Z M 3,17.009C 3,16.452 3.44335,16 4.0094,16L 5.9906,16C 6.5481,16 7,16.443 7,17.009L 7,18.991C 7,19.548 6.5566,20 5.9906,20L 4.0094,20C 3.45191,20 3,19.557 3,18.991L 3,17.009 Z "/>
</svg>
