<?xml version="1.0" encoding="utf-8"?>
<!DOCTYPE svg PUBLIC "-//W3C//DTD SVG 1.1//EN" "http://www.w3.org/Graphics/SVG/1.1/DTD/svg11.dtd">
<svg xmlns="http://www.w3.org/2000/svg" xmlns:xlink="http://www.w3.org/1999/xlink" version="1.1" baseProfile="full" width="24" height="24" viewBox="0 0 24.00 24.00" enable-background="new 0 0 24.00 24.00" xml:space="preserve">
	<path fill="#000000" fill-opacity="1" stroke-width="1.33333" stroke-linejoin="miter" d="M 21,7L 21,3L 17,3L 17,4L 7,4L 7,3L 3,3L 3,7L 4,7L 4,17L 3,17L 3,21L 7,21L 7,20L 17,20L 17,21L 21,21L 21,17L 20,17L 20,7L 21,7 Z M 18,4L 20,4L 20,6L 18,6L 18,4 Z M 4,4L 6,4L 6,6L 4,6L 4,4 Z M 6,20L 4,20L 4,18L 6,18L 6,20 Z M 20,20L 18,20L 18,18L 20,18L 20,20 Z M 18,17L 17,17L 17,18L 7,18L 7,17L 6,17L 6,7L 7,7L 7,6L 17,6L 17,7L 18,7L 18,17 Z M 16,8L 16,10L 13,10L 13,16L 11,16L 11,10L 8,10L 8,8L 16,8 Z "/>
</svg>
