<?xml version="1.0" encoding="utf-8"?>
<!DOCTYPE svg PUBLIC "-//W3C//DTD SVG 1.1//EN" "http://www.w3.org/Graphics/SVG/1.1/DTD/svg11.dtd">
<svg xmlns="http://www.w3.org/2000/svg" xmlns:xlink="http://www.w3.org/1999/xlink" version="1.1" baseProfile="full" width="24" height="24" viewBox="0 0 24.00 24.00" enable-background="new 0 0 24.00 24.00" xml:space="preserve">
	<path fill="#000000" fill-opacity="1" stroke-width="1.33333" stroke-linejoin="miter" d="M 3,16L 8,16L 8,14L 3,14L 3,16 Z M 9.5,16L 14.5,16L 14.5,14L 9.5,14L 9.5,16 Z M 16,16L 21,16L 21,14L 16,14L 16,16 Z M 3,20L 5,20L 5,18L 3,18L 3,20 Z M 7,20L 9,20L 9,18L 7,18L 7,20 Z M 11,20L 13,20L 13,18L 11,18L 11,20 Z M 15,20L 17,20L 17,18L 15,18L 15,20 Z M 19,20L 21,20L 21,18L 19,18L 19,20 Z M 3,12L 11,12L 11,10L 3,10L 3,12 Z M 13,12L 21,12L 21,10L 13,10L 13,12 Z M 3,4L 3,8L 21,8L 21,4L 3,4 Z "/>
</svg>
