<?xml version="1.0" encoding="utf-8"?>
<!DOCTYPE svg PUBLIC "-//W3C//DTD SVG 1.1//EN" "http://www.w3.org/Graphics/SVG/1.1/DTD/svg11.dtd">
<svg xmlns="http://www.w3.org/2000/svg" xmlns:xlink="http://www.w3.org/1999/xlink" version="1.1" baseProfile="full" width="24" height="24" viewBox="0 0 24.00 24.00" enable-background="new 0 0 24.00 24.00" xml:space="preserve">
	<path fill="#000000" fill-opacity="1" stroke-width="0.2" stroke-linejoin="round" d="M 18.9994,11.499C 18.9994,11.499 16.9994,13.666 16.9994,14.999C 16.9994,16.103 17.8954,16.999 18.9994,16.999C 20.1034,16.999 20.9994,16.103 20.9994,14.999C 20.9994,13.666 18.9994,11.499 18.9994,11.499 Z M 5.20639,9.99902L 9.99939,5.20703L 14.7924,9.99902M 16.5604,8.93802L 7.62039,-0.000976563L 6.20639,1.41302L 8.58539,3.79202L 3.43839,8.93802C 2.85339,9.52402 2.85339,10.474 3.43839,11.06L 8.93839,16.56C 9.23138,16.853 9.61539,16.999 9.99939,16.999C 10.3834,16.999 10.7674,16.853 11.0604,16.56L 16.5604,11.06C 17.1454,10.474 17.1454,9.52402 16.5604,8.93802 Z "/>
</svg>
