<?xml version="1.0" encoding="utf-8"?>
<!DOCTYPE svg PUBLIC "-//W3C//DTD SVG 1.1//EN" "http://www.w3.org/Graphics/SVG/1.1/DTD/svg11.dtd">
<svg xmlns="http://www.w3.org/2000/svg" xmlns:xlink="http://www.w3.org/1999/xlink" version="1.1" baseProfile="full" width="24" height="24" viewBox="0 0 24.00 24.00" enable-background="new 0 0 24.00 24.00" xml:space="preserve">
	<path fill="#000000" fill-opacity="1" stroke-width="1.33333" stroke-linejoin="miter" d="M 3,13L 5,13L 5,11L 3,11L 3,13 Z M 3,17L 5,17L 5,15L 3,15L 3,17 Z M 3,9L 5,9L 5,7L 3,7L 3,9 Z M 7,13L 21,13L 21,11L 7,11L 7,13 Z M 7,17L 21,17L 21,15L 7,15L 7,17 Z M 7,7L 7,9L 21,9L 21,7L 7,7 Z "/>
</svg>
