<?xml version="1.0" encoding="utf-8"?>
<!DOCTYPE svg PUBLIC "-//W3C//DTD SVG 1.1//EN" "http://www.w3.org/Graphics/SVG/1.1/DTD/svg11.dtd">
<svg xmlns="http://www.w3.org/2000/svg" xmlns:xlink="http://www.w3.org/1999/xlink" version="1.1" baseProfile="full" width="24" height="24" viewBox="0 0 24.00 24.00" enable-background="new 0 0 24.00 24.00" xml:space="preserve">
	<path fill="#000000" fill-opacity="1" stroke-width="0.2" stroke-linejoin="round" d="M 3,12.998L 3,10.998L 17,10.998L 17,12.998L 3,12.998 Z M 3,18.9981L 3,16.9981L 17,16.9981L 17,18.9981L 3,18.9981 Z M 3,6.99809L 3,4.99809L 17,4.99809L 17,6.99809L 3,6.99809 Z M 20.0006,8L 20.0006,5L 19.0006,5L 19.0006,4L 21.0006,4L 21.0006,8L 20.0006,8 Z M 19.0006,17L 19.0006,16L 22.0006,16L 22.0006,20L 19.0006,20L 19.0006,19L 21.0006,19L 21.0006,18.5L 20.0006,18.5L 20.0006,17.5L 21.0006,17.5L 21.0006,17L 19.0006,17 Z M 21.2512,10.0019C 21.6654,10.0019 22.0012,10.3377 22.0012,10.7519C 22.0012,10.9543 21.9211,11.138 21.7907,11.2729L 20.1211,13.0019L 22.0012,13.0019L 22.0012,14.0019L 19.0012,14.0019L 19.0012,13.0801L 21.0012,11.0019L 19.0012,11.0019L 19.0012,10.0019L 21.2512,10.0019 Z "/>
</svg>
