<?xml version="1.0" encoding="utf-8"?>
<!DOCTYPE svg PUBLIC "-//W3C//DTD SVG 1.1//EN" "http://www.w3.org/Graphics/SVG/1.1/DTD/svg11.dtd">
<svg xmlns="http://www.w3.org/2000/svg" xmlns:xlink="http://www.w3.org/1999/xlink" version="1.1" baseProfile="full" width="24" height="24" viewBox="0 0 24.00 24.00" enable-background="new 0 0 24.00 24.00" xml:space="preserve">
	<path fill="#000000" fill-opacity="0.862745" stroke-linejoin="round" d="M 7,11L 9,11L 9,13L 7,13L 7,11 Z M 11,11L 13,11L 13,13L 11,13L 11,11 Z M 19,17L 15,17L 15,11.1716L 21,17.1716L 21,22L 3,22L 3,13L 5,13L 5,20L 19,20L 19,17 Z M 3,2.00002L 21,2.00002L 21,11L 19,11L 19,4.00001L 5,4.00001L 5,11L 3,11L 3,2.00002 Z "/>
</svg>
