<?xml version="1.0" encoding="utf-8"?>
<!DOCTYPE svg PUBLIC "-//W3C//DTD SVG 1.1//EN" "http://www.w3.org/Graphics/SVG/1.1/DTD/svg11.dtd">
<svg xmlns="http://www.w3.org/2000/svg" xmlns:xlink="http://www.w3.org/1999/xlink" version="1.1" baseProfile="full" width="24" height="24" viewBox="0 0 24.00 24.00" enable-background="new 0 0 24.00 24.00" xml:space="preserve">
	<path fill="#000000" fill-opacity="1" stroke-width="0.2" stroke-linejoin="round" d="M 12,7L 17,17L 7,17L 12,7 Z M 3,3L 21,3L 21,5L 3,5L 3,3 Z M 3,7.00001L 9,7L 9,9L 3,9.00001L 3,7.00001 Z M 21,7.00001L 21,9.00001L 15,9L 15,7L 21,7.00001 Z M 3,11L 7,11L 7,13L 3,13L 3,11 Z M 21,11L 21,13L 17,13L 17,11L 21,11 Z M 3,15L 6,15L 6,17L 3,17L 3,15 Z M 21,15L 21,17L 18,17L 18,15L 21,15 Z M 3,19L 21,19L 21,21L 3,21L 3,19 Z "/>
</svg>
