<?xml version="1.0" encoding="utf-8"?>
<!DOCTYPE svg PUBLIC "-//W3C//DTD SVG 1.1//EN" "http://www.w3.org/Graphics/SVG/1.1/DTD/svg11.dtd">
<svg xmlns="http://www.w3.org/2000/svg" xmlns:xlink="http://www.w3.org/1999/xlink" version="1.1" baseProfile="full" width="24" height="24" viewBox="0 0 24.00 24.00" enable-background="new 0 0 24.00 24.00" xml:space="preserve">
	<path fill="#000000" fill-opacity="1" stroke-width="0.2" stroke-linejoin="round" d="M 3,4L 5,4L 5,10L 9,10L 9,4L 11,4L 11,18L 9,18L 9,12L 5,12L 5,18L 3,18L 3,4 Z M 15,4L 20,4.00001L 20,6.00001L 15,6L 15,10L 17,10C 19.2091,10 21,11.7909 21,14C 21,16.2091 19.2091,18 17,18L 15,18C 13.8954,18 13,17.1046 13,16L 13,15L 15,15L 15,16L 17,16C 18.1046,16 19,15.1046 19,14C 19,12.8954 18.1046,12 17,12L 15,12C 13.8954,12 13,11.1046 13,10L 13,6C 13,4.89543 13.8954,4 15,4 Z "/>
</svg>
