<?xml version="1.0" encoding="utf-8"?>
<!DOCTYPE svg PUBLIC "-//W3C//DTD SVG 1.1//EN" "http://www.w3.org/Graphics/SVG/1.1/DTD/svg11.dtd">
<svg xmlns="http://www.w3.org/2000/svg" xmlns:xlink="http://www.w3.org/1999/xlink" version="1.1" baseProfile="full" width="24" height="24" viewBox="0 0 24.00 24.00" enable-background="new 0 0 24.00 24.00" xml:space="preserve">
	<path fill="#000000" fill-opacity="1" stroke-linejoin="round" d="M 17,12L 17,3C 17,2.45 16.55,2 16,2L 3,2C 2.45,2 2,2.45 2,3L 2,17L 6,13L 16,13C 16.55,13 17,12.55 17,12 Z M 21,6L 19,6L 19,15L 6,15L 6,17C 6,17.55 6.45,18 7,18L 18,18L 22,22L 22,7C 22,6.45 21.55,6 21,6 Z "/>
</svg>
