<?xml version="1.0" encoding="utf-8"?>
<!DOCTYPE svg PUBLIC "-//W3C//DTD SVG 1.1//EN" "http://www.w3.org/Graphics/SVG/1.1/DTD/svg11.dtd">
<svg xmlns="http://www.w3.org/2000/svg" xmlns:xlink="http://www.w3.org/1999/xlink" version="1.1" baseProfile="full" width="24" height="24" viewBox="0 0 24.00 24.00" enable-background="new 0 0 24.00 24.00" xml:space="preserve">
	<path fill="#000000" fill-opacity="1" stroke-width="1.33333" stroke-linejoin="miter" d="M 7.5,2.00001C 4.47,2.00001 2.01,4.45543 2,7.48243L 2,7.50001L 2,8.00001L 4,8.00001L 4,7.50001C 4,5.56801 5.568,4.00001 7.5,4.00001C 8.986,4.00001 10.2567,4.92834 10.7637,6.23634C 10.3717,6.08334 9.946,6.00001 9.5,6.00001C 8.105,6.00001 6.89989,6.81606 6.33789,7.99806L 8.08203,9.00782C 8.28603,8.42182 8.845,8.00001 9.5,8.00001C 10.328,8.00001 11,8.67201 11,9.50001L 11,11L 13,11L 13,9.50001C 13,8.67201 13.672,8.00001 14.5,8.00001C 15.155,8.00001 15.714,8.42182 15.918,9.00782L 17.6621,7.99806C 17.1001,6.81606 15.895,6.00001 14.5,6.00001C 14.054,6.00001 13.6283,6.08334 13.2363,6.23634C 13.7433,4.92834 15.014,4.00001 16.5,4.00001C 18.432,4.00001 20,5.56801 20,7.50001L 20,8.00001L 22,8.00001L 22,7.50001L 22,7.48243C 21.99,4.45543 19.53,2.00001 16.5,2.00001C 14.641,2.00001 12.996,2.92585 12,4.33985C 11.004,2.92585 9.359,2.00001 7.5,2.00001 Z M 6,12L 6,14L 7.41797,14C 7.92141,15.151 8.84948,16.0676 10,16.5723C 10,17.3815 10,18.1908 10,19L 2,19C 2,19 2.81725,20.2254 3.40625,21.1094C 3.77725,21.6664 4.40231,22 5.07031,22L 18.9297,22C 19.5977,22 20.2227,21.6664 20.5937,21.1094L 22,19L 14,19C 14,18.1908 14,17.3815 14,16.5723C 15.1505,16.0676 16.0786,15.151 16.582,14L 18,14L 18,12L 6,12 Z "/>
</svg>
