<?xml version="1.0" encoding="UTF-8" standalone="no"?>
<svg
   xmlns:svg="http://www.w3.org/2000/svg"
   xmlns="http://www.w3.org/2000/svg"
   version="1.1"
   width="24"
   height="24"
   xml:space="preserve"
   >
   <metadata id="metadata4764">
     <rdf:RDF>
         <cc:Work rdf:about="">
             <dc:format>image/svg+xml</dc:format>
             <dc:type rdf:resource="http://purl.org/dc/dcmitype/StillImage" />
             <dc:title />
         </cc:Work>
      </rdf:RDF>
   </metadata>
   <path
     style="fill:#000000;fill-opacity:1;fill-rule:nonzero;stroke:#000000;stroke-width:0.29446653;stroke-linecap:butt;stroke-linejoin:miter;stroke-miterlimit:4;stroke-dasharray:none;stroke-opacity:1"
     d="M 7.171875 5.8710938 L 2.2617188 6.3007812 L 6.8398438 15.908203 L 11.4375 14.792969 L 13.882812 19.076172 L 21.474609 16.689453 C 20.671789 15.417651 19.750177 14.227015 18.892578 12.992188 L 21.728516 12.208984 C 20.920922 11.150079 20.125311 10.081918 19.322266 9.0195312 L 15.605469 9.5488281 C 16.237936 10.63639 17.05838 11.596984 17.757812 12.640625 L 11.886719 13.970703 L 7.171875 5.8710938 z M 6.4667969 6.4570312 L 11.046875 14.048828 L 7.2304688 14.949219 L 3.2207031 6.6914062 L 6.4667969 6.4570312 z M 19.068359 9.5097656 L 20.808594 11.681641 L 18.285156 12.306641 L 16.681641 9.9199219 L 19.068359 9.5097656 z M 18.207031 13.167969 L 20.320312 16.083984 L 14.253906 18 L 12.337891 14.732422 L 18.207031 13.167969 z "
     id="path7190" />
</svg>
