<?xml version="1.0" encoding="utf-8"?>
<!DOCTYPE svg PUBLIC "-//W3C//DTD SVG 1.1//EN" "http://www.w3.org/Graphics/SVG/1.1/DTD/svg11.dtd">
<svg xmlns="http://www.w3.org/2000/svg" xmlns:xlink="http://www.w3.org/1999/xlink" version="1.1" baseProfile="full" width="24" height="24" viewBox="0 0 24.00 24.00" enable-background="new 0 0 24.00 24.00" xml:space="preserve">
	<path fill="#000000" fill-opacity="1" stroke-width="1.33333" stroke-linejoin="miter" d="M 2.6875,2C 3.5373,1.95245 6.079,3.1645 6.125,3.1875C 4.84306,4.0199 3.7376,5.09215 2.90625,6.375C 2.08525,4.811 1.34,2.908 2,2.25C 2.16525,2.08475 2.40424,2.01585 2.6875,2 Z M 20.8438,2.125C 21.2495,2.0846 21.5799,2.1422 21.7813,2.34375C 22.8542,3.41675 19.878,8.15225 19.375,8.65625C 18.87,9.15825 17.574,8.697 16.5,7.625C 15.426,6.551 14.9678,5.256 15.4688,4.75C 15.8799,4.3421 19.0855,2.29995 20.8438,2.125 Z M 12,2.5625C 13.289,2.5625 14.5303,2.82325 15.6563,3.28125C 15.1743,3.59825 14.8095,3.84775 14.6875,3.96875C 13.7045,4.95575 14.1398,6.82825 15.7188,8.40625C 16.6978,9.38325 17.8363,9.96875 18.7813,9.96875C 19.4613,9.96875 19.9172,9.6755 20.1563,9.4375C 20.3293,9.2655 20.5982,8.88325 20.9063,8.40625C 21.4173,9.58925 21.6875,10.882 21.6875,12.25C 21.6875,17.608 17.356,21.9688 12,21.9688C 6.641,21.9688 2.3125,17.609 2.3125,12.25C 2.3125,6.894 6.64,2.5625 12,2.5625 Z "/>
</svg>
