<?xml version="1.0" encoding="utf-8"?>
<!DOCTYPE svg PUBLIC "-//W3C//DTD SVG 1.1//EN" "http://www.w3.org/Graphics/SVG/1.1/DTD/svg11.dtd">
<svg xmlns="http://www.w3.org/2000/svg" xmlns:xlink="http://www.w3.org/1999/xlink" version="1.1" baseProfile="full" width="24" height="24" viewBox="0 0 24.00 24.00" enable-background="new 0 0 24.00 24.00" xml:space="preserve">
	<path fill="#000000" fill-opacity="1" stroke-width="0.2" stroke-linejoin="miter" d="M 18,15L 5.99999,15L 2,19L 2,3.00005C 2,2.44775 2.44772,2.00005 2.99999,2.00005L 18,2.00006C 18.5522,2.00006 19,2.44775 19,3.00005L 19,14C 19,14.5523 18.5523,15 18,15 Z M 23,9.00004L 22.9999,23L 19,19L 8,19C 7.44772,19 7,18.5523 7,18L 7,17L 21,17L 21,8.00001L 22,8.00004C 22.5523,8.00004 23,8.44774 23,9.00004 Z M 8.1875,4.00001C 7.3182,4.00001 6.6165,4.19791 6.084,4.59371C 5.55535,4.98581 5.29685,5.57331 5.30859,6.35741L 5.32031,6.39261L 7.2539,6.39261C 7.2617,6.0872 7.3531,5.85771 7.5293,5.70311C 7.7055,5.54861 7.9251,5.47071 8.1875,5.47071C 8.51249,5.47071 8.7632,5.56541 8.9395,5.75391C 9.1157,5.94241 9.2031,6.19501 9.2031,6.51171C 9.2031,6.81711 9.1273,7.08661 8.9746,7.3203C 8.82579,7.55411 8.6198,7.74991 8.3574,7.90821C 7.8484,8.2513 7.49849,8.5545 7.3066,8.81841C 7.1148,9.08227 7.0156,9.47598 7.0117,10L 8.998,10C 8.998,9.6871 9.0408,9.44073 9.127,9.25978C 9.217,9.07505 9.3881,8.9025 9.6387,8.74411C 10.089,8.51791 10.4583,8.20641 10.748,7.81051C 11.0417,7.41471 11.1895,6.98301 11.1895,6.51171C 11.1895,5.74261 10.9212,5.13011 10.3848,4.6777C 9.8522,4.2253 9.1195,4.00001 8.1875,4.00001 Z M 7,11L 7,13L 9,13L 9,11L 7,11 Z M 13,13L 15,13L 15,11L 13,11L 13,13 Z M 13,4L 13,10L 15,10L 15,4L 13,4 Z "/>
</svg>
