<?xml version="1.0" encoding="utf-8"?>
<!DOCTYPE svg PUBLIC "-//W3C//DTD SVG 1.1//EN" "http://www.w3.org/Graphics/SVG/1.1/DTD/svg11.dtd">
<svg xmlns="http://www.w3.org/2000/svg" xmlns:xlink="http://www.w3.org/1999/xlink" version="1.1" baseProfile="full" width="24" height="24" viewBox="0 0 24.00 24.00" enable-background="new 0 0 24.00 24.00" xml:space="preserve">
	<path fill="#000000" fill-opacity="1" stroke-linejoin="round" d="M 3,2.00001L 6,2C 6.27614,2 6.52615,2.11193 6.70711,2.2929L 8.79289,4.37868L 9.58579,3.58579C 9.97631,3.19526 10.4882,3 11,3L 17,3C 17.5118,3 18.0237,3.19526 18.4142,3.58579L 19.4142,4.58579C 19.8047,4.97631 20,5.48816 20,6L 20,19C 20,20.1046 19.1046,21 18,21L 8,21C 6.89543,21 6,20.1046 6,19L 6,13L 6,12L 6,8C 6,7.48816 6.19526,6.97631 6.58579,6.58579L 7.37868,5.79289L 5.58579,4L 3,4L 3,2.00001 Z M 11,5.00001L 11,7.00001L 17,7.00001L 17,5.00001L 11,5.00001 Z M 11.4142,11L 9.41421,9L 8,9L 8,10.4142L 10,12.4142L 10,15.5858L 8,17.5858L 8,19L 9.41422,19L 11.4142,17L 14.5858,17L 16.5858,19L 18,19L 18,17.5858L 16,15.5858L 16,12.4142L 18,10.4142L 18,9L 16.5858,9L 14.5858,11L 11.4142,11 Z M 12,13L 14,13L 14,15L 12,15L 12,13 Z "/>
</svg>
