<?xml version="1.0" encoding="utf-8"?>
<!DOCTYPE svg PUBLIC "-//W3C//DTD SVG 1.1//EN" "http://www.w3.org/Graphics/SVG/1.1/DTD/svg11.dtd">
<svg xmlns="http://www.w3.org/2000/svg" xmlns:xlink="http://www.w3.org/1999/xlink" version="1.1" baseProfile="full" width="24" height="24" viewBox="0 0 24.00 24.00" enable-background="new 0 0 24.00 24.00" xml:space="preserve">
	<g>
		<path fill="#000000" fill-opacity="1" stroke-width="1.33333" stroke-linejoin="miter" d="M 12.42,5.29C 11.3198,5.192 10.3485,6.0045 10.25,7.11L 10,10L 12.82,10L 12.82,12L 9.82,12L 9.38,17.07C 9.18446,19.2705 7.24212,20.8958 5.04165,20.7002C 3.79033,20.589 2.66394,19.8965 2,18.83L 3.5,17.33C 3.83341,18.383 4.95736,18.9664 6.01041,18.633C 6.78447,18.3879 7.33354,17.6992 7.4,16.89L 7.82,12L 4.82,12L 4.82,10L 8,10L 8.27,6.93C 8.45772,4.7289 10.3943,3.0966 12.5954,3.2844C 13.858,3.392 14.9948,4.0915 15.66,5.17L 14.16,6.67C 13.9121,5.9007 13.2256,5.3561 12.42,5.29 Z M 22,13.65L 20.59,12.24L 17.76,15.07L 14.93,12.24L 13.52,13.65L 16.35,16.48L 13.52,19.31L 14.93,20.72L 17.76,17.89L 20.59,20.72L 22,19.31L 19.17,16.48L 22,13.65 Z "/>
	</g>
</svg>
