<?xml version="1.0" encoding="utf-8"?>
<!DOCTYPE svg PUBLIC "-//W3C//DTD SVG 1.1//EN" "http://www.w3.org/Graphics/SVG/1.1/DTD/svg11.dtd">
<svg xmlns="http://www.w3.org/2000/svg" xmlns:xlink="http://www.w3.org/1999/xlink" version="1.1" baseProfile="full" width="24" height="24" viewBox="0 0 24.00 24.00" enable-background="new 0 0 24.00 24.00" xml:space="preserve">
	<path fill="#000000" fill-opacity="1" stroke-linejoin="round" d="M 5,8C 7.20914,8 9,9.79086 9,12C 9,14.2091 7.20914,16 5,16C 2.79086,16 1,14.2091 1,12C 1,9.79086 2.79086,8 5,8 Z M 12,1.00002C 14.2091,1.00002 16,2.79087 16,5.00001C 16,7.20915 14.2091,9.00001 12,9.00001C 9.79086,9.00001 8,7.20915 8,5.00001C 8,2.79087 9.79086,1.00002 12,1.00002 Z M 12,15C 14.2091,15 16,16.7909 16,19C 16,21.2091 14.2091,23 12,23C 9.79086,23 8,21.2091 8,19C 8,16.7909 9.79086,15 12,15 Z M 19,8C 21.2091,8 23,9.79086 23,12C 23,14.2091 21.2091,16 19,16C 16.7909,16 15,14.2091 15,12C 15,9.79086 16.7909,8 19,8 Z M 12,3.00001C 10.8954,3.00001 10,3.89544 10,5.00001C 10,6.10457 10.8954,7.00001 12,7.00001C 13.1046,7.00001 14,6.10457 14,5.00001C 14,3.89544 13.1046,3.00001 12,3.00001 Z M 5,10C 3.89543,10 3,10.8954 3,12C 3,13.1046 3.89543,14 5,14C 6.10457,14 7,13.1046 7,12C 7,10.8954 6.10457,10 5,10 Z M 12,17C 10.8954,17 10,17.8954 10,19C 10,20.1046 10.8954,21 12,21C 13.1046,21 14,20.1046 14,19C 14,17.8954 13.1046,17 12,17 Z "/>
</svg>
