<?xml version="1.0" encoding="utf-8"?>
<!DOCTYPE svg PUBLIC "-//W3C//DTD SVG 1.1//EN" "http://www.w3.org/Graphics/SVG/1.1/DTD/svg11.dtd">
<svg xmlns="http://www.w3.org/2000/svg" xmlns:xlink="http://www.w3.org/1999/xlink" version="1.1" baseProfile="full" width="24" height="24" viewBox="0 0 24.00 24.00" enable-background="new 0 0 24.00 24.00" xml:space="preserve">
	<path fill="#000000" fill-opacity="1" stroke-linejoin="round" d="M 6,9L 8,9L 8,11L 10,11L 10,13L 8,13L 8,15L 6,15L 6,13L 4,13L 4,11L 6,11L 6,9 Z M 18.5,9C 19.3284,9 20,9.67158 20,10.5C 20,11.3284 19.3284,12 18.5,12C 17.6716,12 17,11.3284 17,10.5C 17,9.67158 17.6716,9 18.5,9 Z M 15.5,12C 16.3284,12 17,12.6716 17,13.5C 17,14.3284 16.3284,15 15.5,15C 14.6716,15 14,14.3284 14,13.5C 14,12.6716 14.6716,12 15.5,12 Z M 17,5C 20.866,5 24,8.13401 24,12C 24,15.866 20.866,19 17,19C 15.0413,19 13.2705,18.1955 12,16.899C 10.7295,18.1955 8.95869,19 7,19C 3.134,19 -6.35783e-007,15.866 -6.35783e-007,12C -6.35783e-007,8.13401 3.134,5 7,5L 17,5 Z M 7,7.00001C 4.23857,7.00001 2,9.23858 2,12C 2,14.7614 4.23857,17 7,17C 8.63581,17 10.0882,16.2144 11.0004,15L 12.9996,15C 13.9118,16.2144 15.3642,17 17,17C 19.7614,17 22,14.7614 22,12C 22,9.23858 19.7614,7.00001 17,7.00001L 7,7.00001 Z "/>
</svg>
