<?xml version="1.0" encoding="utf-8"?>
<!DOCTYPE svg PUBLIC "-//W3C//DTD SVG 1.1//EN" "http://www.w3.org/Graphics/SVG/1.1/DTD/svg11.dtd">
<svg xmlns="http://www.w3.org/2000/svg" xmlns:xlink="http://www.w3.org/1999/xlink" version="1.1" baseProfile="full" width="24" height="24" viewBox="0 0 24.00 24.00" enable-background="new 0 0 24.00 24.00" xml:space="preserve">
	<path fill="#000000" fill-opacity="1" stroke-linejoin="round" d="M 7,6L 17,6C 20.3137,6 23,8.68629 23,12C 23,15.3137 20.3137,18 17,18C 15.223,18 13.6264,17.2275 12.5278,16L 11.4722,16C 10.3736,17.2275 8.777,18 7,18C 3.68629,18 1,15.3137 1,12C 1,8.68629 3.68629,6 7,6 Z M 6,9L 6,11L 4,11L 4,13L 6,13L 6,15L 8,15L 8,13L 10,13L 10,11L 8,11L 8,9L 6,9 Z M 15.5,12C 14.6716,12 14,12.6716 14,13.5C 14,14.3284 14.6716,15 15.5,15C 16.3284,15 17,14.3284 17,13.5C 17,12.6716 16.3284,12 15.5,12 Z M 18.5,9C 17.6716,9 17,9.67158 17,10.5C 17,11.3284 17.6716,12 18.5,12C 19.3284,12 20,11.3284 20,10.5C 20,9.67158 19.3284,9 18.5,9 Z "/>
</svg>
