<?xml version="1.0" encoding="utf-8"?>
<!DOCTYPE svg PUBLIC "-//W3C//DTD SVG 1.1//EN" "http://www.w3.org/Graphics/SVG/1.1/DTD/svg11.dtd">
<svg xmlns="http://www.w3.org/2000/svg" xmlns:xlink="http://www.w3.org/1999/xlink" version="1.1" baseProfile="full" width="24" height="24" viewBox="0 0 24.00 24.00" enable-background="new 0 0 24.00 24.00" xml:space="preserve">
	<path fill="#000000" fill-opacity="1" stroke-width="1.33333" stroke-linejoin="miter" d="M 9,2L 9,7.5L 12,10.5L 15,7.5L 15,2L 9,2 Z M 2,9L 2,15L 7.5,15L 10.5,12L 7.5,9L 2,9 Z M 16.5,9L 13.5,12L 16.5,15L 22,15L 22,9L 16.5,9 Z M 18,11L 20,11L 20,13L 18,13L 18,11 Z M 12,13.5L 9,16.5L 9,22L 15,22L 15,16.5L 12,13.5 Z "/>
</svg>
