<?xml version="1.0" encoding="utf-8"?>
<!DOCTYPE svg PUBLIC "-//W3C//DTD SVG 1.1//EN" "http://www.w3.org/Graphics/SVG/1.1/DTD/svg11.dtd">
<svg xmlns="http://www.w3.org/2000/svg" xmlns:xlink="http://www.w3.org/1999/xlink" version="1.1" baseProfile="full" width="24" height="24" viewBox="0 0 24.00 24.00" enable-background="new 0 0 24.00 24.00" xml:space="preserve">
	<path fill="#000000" fill-opacity="1" stroke-width="1.33333" stroke-linejoin="miter" d="M 21,6L 22,6L 22,4L 21,4L 21,3L 18,3L 18,4L 6,4L 6,3L 3,3L 3,4L 2,4L 2,6L 3,6L 3,20L 2,20L 2,22L 7,22L 7,20L 6,20L 6,6L 11,6L 11,7L 11.5,7L 11.5,10.62C 11.0155,10.7897 10.6908,11.2466 10.69,11.76C 10.6928,12.196 10.9244,12.5985 11.3,12.82L 11.3,14L 11.92,14C 12.2624,13.9962 12.5431,14.2706 12.5469,14.613C 12.5507,14.9554 12.2762,15.2361 11.9338,15.2399C 11.7099,15.2424 11.502,15.1239 11.39,14.93C 11.2167,14.6401 10.8432,14.5423 10.55,14.71C 10.2557,14.874 10.1502,15.2455 10.32,15.55C 10.6543,16.1168 11.2619,16.4662 11.92,16.47C 12.9417,16.46 13.7618,15.6236 13.7517,14.6019C 13.7442,13.8291 13.2569,13.1424 12.53,12.88L 12.53,12.82C 13.1154,12.5093 13.3382,11.7829 13.0275,11.1975C 12.9151,10.9857 12.7418,10.8124 12.53,10.7L 12.53,7L 13,7L 13,6L 18,6L 18,20L 17,20L 17,22L 22,22L 22,20L 21,20L 21,6 Z M 5,15.29L 5,16.71L 4,17.71L 4,16.29L 5,15.29 Z M 4,20L 4,19.24L 5,18.24L 5,19.66L 4.66,20L 4,20 Z M 4,7.29L 5,6.29L 5,7.71L 4,8.71L 4,7.29 Z M 4,10.29L 5,9.29L 5,10.71L 4,11.71L 4,10.29 Z M 4,13.29L 5,12.29L 5,13.71L 4,14.71L 4,13.24L 4,13.29 Z M 20,15.29L 20,16.71L 19,17.71L 19,16.29L 20,15.29 Z M 19,20L 19,19.24L 20,18.24L 20,19.66L 19.66,20L 19,20 Z M 19,7.29L 20,6.29L 20,7.71L 19,8.71L 19,7.29 Z M 19,10.29L 20,9.29L 20,10.71L 19,11.71L 19,10.29 Z M 19,13.29L 20,12.29L 20,13.71L 19,14.71L 19,13.24L 19,13.29 Z "/>
</svg>
