<?xml version="1.0" encoding="utf-8"?>
<!DOCTYPE svg PUBLIC "-//W3C//DTD SVG 1.1//EN" "http://www.w3.org/Graphics/SVG/1.1/DTD/svg11.dtd">
<svg xmlns="http://www.w3.org/2000/svg" xmlns:xlink="http://www.w3.org/1999/xlink" version="1.1" baseProfile="full" width="24" height="24" viewBox="0 0 24.00 24.00" enable-background="new 0 0 24.00 24.00" xml:space="preserve">
	<path fill="#000000" fill-opacity="1" stroke-width="1.33333" stroke-linejoin="miter" d="M 17,20L 15,20L 15,11L 5,11L 5,20L 3,20L 3,9L 10,5L 17,9L 17,20 Z M 6,12L 14,12L 14,14L 6,14L 6,12 Z M 6,15L 14,15L 14,17L 6,17L 6,15 Z M 19,15L 19,10L 21,10L 21,15L 19,15 Z M 19,19L 19,17L 21,17L 21,19L 19,19 Z "/>
</svg>
