<?xml version="1.0" encoding="utf-8"?>
<!DOCTYPE svg PUBLIC "-//W3C//DTD SVG 1.1//EN" "http://www.w3.org/Graphics/SVG/1.1/DTD/svg11.dtd">
<svg xmlns="http://www.w3.org/2000/svg" xmlns:xlink="http://www.w3.org/1999/xlink" version="1.1" baseProfile="full" width="24" height="24" viewBox="0 0 24.00 24.00" enable-background="new 0 0 24.00 24.00" xml:space="preserve">
	<path fill="#000000" fill-opacity="1" stroke-width="0.2" stroke-linejoin="round" d="M 17.9994,9.99807C 17.4474,9.99807 16.9994,9.55007 16.9994,8.99807C 16.9994,8.44606 17.4474,7.99807 17.9994,7.99807C 18.5514,7.99807 18.9994,8.44606 18.9994,8.99807C 18.9994,9.55007 18.5514,9.99807 17.9994,9.99807 Z M 11.9994,9.99807L 5.99939,9.99807L 5.99939,4.99807L 11.9994,4.99807M 19.7674,7.23006L 19.7794,7.21807L 16.0594,3.49807L 14.9994,4.55907L 17.1094,6.66807C 16.1694,7.02807 15.4994,7.93207 15.4994,8.99807C 15.4994,10.3791 16.6184,11.4981 17.9994,11.4981C 18.3554,11.4981 18.6924,11.4211 18.9994,11.2871L 18.9994,18.4981C 18.9994,19.0501 18.5514,19.4981 17.9994,19.4981C 17.4474,19.4981 16.9994,19.0501 16.9994,18.4981L 16.9994,13.9981C 16.9994,12.8931 16.1034,11.9981 14.9994,11.9981L 13.9994,11.9981L 13.9994,4.99807C 13.9994,3.89307 13.1034,2.99807 11.9994,2.99807L 5.99939,2.99807C 4.89439,2.99807 3.99939,3.89307 3.99939,4.99807L 3.99939,20.9981L 13.9994,20.9981L 13.9994,13.4981L 15.4994,13.4981L 15.4994,18.4981C 15.4994,19.8791 16.6184,20.9981 17.9994,20.9981C 19.3804,20.9981 20.4994,19.8791 20.4994,18.4981L 20.4994,8.99807C 20.4994,8.30806 20.2194,7.68307 19.7674,7.23006 Z "/>
</svg>
