<?xml version="1.0" encoding="utf-8"?>
<!DOCTYPE svg PUBLIC "-//W3C//DTD SVG 1.1//EN" "http://www.w3.org/Graphics/SVG/1.1/DTD/svg11.dtd">
<svg xmlns="http://www.w3.org/2000/svg" xmlns:xlink="http://www.w3.org/1999/xlink" version="1.1" baseProfile="full" width="24" height="24" viewBox="0 0 24.00 24.00" enable-background="new 0 0 24.00 24.00" xml:space="preserve">
	<path fill="#000000" fill-opacity="1" stroke-width="0.2" stroke-linejoin="miter" d="M 9,5L 9,10L 7,10L 7,6L 5,6L 5,10L 3,10L 3,8L 1,8L 1,20L 3,20L 3,18L 5,18L 5,20L 7,20L 7,18L 9,18L 9,20L 11,20L 11,18L 13,18L 13,20L 15,20L 15,18L 17,18L 17,20L 19,20L 19,18L 21,18L 21,20L 23,20L 23,8L 21,8L 21,10L 19,10L 19,6L 17,6L 17,10L 15,10L 15,5L 13,5L 13,10L 11,10L 11,5L 9,5 Z M 3,12L 5,12L 5,16L 3,16L 3,12 Z M 7,12L 9,12L 9,16L 7,16L 7,12 Z M 11,12L 13,12L 13,16L 11,16L 11,12 Z M 15,12L 17,12L 17,16L 15,16L 15,12 Z M 19,12L 21,12L 21,16L 19,16L 19,12 Z "/>
</svg>
