<?xml version="1.0" encoding="utf-8"?>
<!DOCTYPE svg PUBLIC "-//W3C//DTD SVG 1.1//EN" "http://www.w3.org/Graphics/SVG/1.1/DTD/svg11.dtd">
<svg xmlns="http://www.w3.org/2000/svg" xmlns:xlink="http://www.w3.org/1999/xlink" version="1.1" baseProfile="full" width="24" height="24" viewBox="0 0 24.00 24.00" enable-background="new 0 0 24.00 24.00" xml:space="preserve">
	<path fill="#000000" fill-opacity="1" stroke-width="0.2" stroke-linejoin="miter" d="M 2,4C 5,10 5,14 2,20L 4,20C 7,14 7,10 4.1,4L 2,4 Z M 6,4C 9,10 9,14 6,20L 9,20C 12.2,20 14.8,16.8 16.7,14C 17.2839,14.6532 18.1241,15.0185 19,15C 20.6569,15 22,13.6569 22,12C 22,10.3431 20.6569,9 19,9C 18.1241,8.9815 17.2839,9.3468 16.7,10C 14.7,7.2 12.2,4 9,4L 6,4 Z M 9,6C 12,6 14,10 15.5,12C 14,14 12,18 9,18C 10.6,14 10.6,10 9,6 Z M 19,11C 19.5,11 20,11.5 20,12C 20,12.5 19.5,13 19,13C 18.4477,13 18,12.5523 18,12C 18,11.5 18.5,11 19,11 Z "/>
</svg>
