<?xml version="1.0" encoding="utf-8"?>
<!DOCTYPE svg PUBLIC "-//W3C//DTD SVG 1.1//EN" "http://www.w3.org/Graphics/SVG/1.1/DTD/svg11.dtd">
<svg xmlns="http://www.w3.org/2000/svg" xmlns:xlink="http://www.w3.org/1999/xlink" version="1.1" baseProfile="full" width="24" height="24" viewBox="0 0 24.00 24.00" enable-background="new 0 0 24.00 24.00" xml:space="preserve">
	<path fill="#000000" fill-opacity="1" stroke-width="1.33333" stroke-linejoin="miter" d="M 2,4C 5,10 5,14 2,20L 5,20C 9.4,20 13,17.7 16.6,13.7C 17.1451,14.4932 18.0378,14.9768 19,15C 20.6569,15 22,13.6569 22,12C 22,10.3431 20.6569,9 19,9C 18.0378,9.0232 17.1451,9.5068 16.6,10.3C 13,6.3 9.4,4 5,4L 2,4 Z M 5,6C 8.8,6 12,8.1 15.3,12C 12,15.9 8.8,18 5,18C 6.5,14 6.5,10 5,6 Z M 19,11C 19.5,11 20,11.5 20,12C 20,12.5 19.5,13 19,13C 18.4477,13 18,12.5523 18,12C 18,11.5 18.5,11 19,11 Z "/>
</svg>
