<?xml version="1.0" encoding="utf-8"?>
<!DOCTYPE svg PUBLIC "-//W3C//DTD SVG 1.1//EN" "http://www.w3.org/Graphics/SVG/1.1/DTD/svg11.dtd">
<svg xmlns="http://www.w3.org/2000/svg" xmlns:xlink="http://www.w3.org/1999/xlink" version="1.1" baseProfile="full" width="24" height="24" viewBox="0 0 24.00 24.00" enable-background="new 0 0 24.00 24.00" xml:space="preserve">
	<path fill="#000000" fill-opacity="1" stroke-width="1.33333" stroke-linejoin="miter" d="M 2,4C 5,10 5,14 2,20L 4,20C 7,14 7,10 4.1,4L 2,4 Z M 6,4C 9,10 9,14 6,20L 9,20C 14,20 18,17 22,12C 18,7 14,4 9,4L 6,4 Z M 9,6C 12.8,6 16,8.1 19.3,12C 15.9,15.9 12.8,18 9,18C 10.5,14 10.5,10 9,6 Z "/>
</svg>
