<?xml version="1.0" encoding="utf-8"?>
<!DOCTYPE svg PUBLIC "-//W3C//DTD SVG 1.1//EN" "http://www.w3.org/Graphics/SVG/1.1/DTD/svg11.dtd">
<svg xmlns="http://www.w3.org/2000/svg" xmlns:xlink="http://www.w3.org/1999/xlink" version="1.1" baseProfile="full" width="24" height="24" viewBox="0 0 24.00 24.00" enable-background="new 0 0 24.00 24.00" xml:space="preserve">
	<path fill="#000000" fill-opacity="1" stroke-width="1.33333" stroke-linejoin="miter" d="M 12,2C 17.5228,2 22,6.47716 22,12C 22,17.5228 17.5228,22 12,22C 6.47716,22 2,17.5228 2,12C 2,6.47716 6.47716,2 12,2 Z M 12,4.00001C 8.27174,4.00001 5.13914,6.55035 4.25162,10.0016L 13.9984,19.7484C 17.4497,18.8609 20,15.7283 20,12L 14.75,12L 14.75,13.5L 18.1975,13.5C 17.7062,15.5372 16.2365,17.193 14.3135,17.9422L 6.05778,9.68646C 6.98393,7.30941 9.29526,5.62501 12,5.62501C 14.1314,5.62501 16.0185,6.67102 17.176,8.27771L 18.4134,7.2171C 16.9547,5.26427 14.625,4.00001 12,4.00001 Z M 4,12C 4,16.4183 7.58172,20 12,20C 12.0426,20 12.0852,19.9997 4,12 Z "/>
</svg>
