<?xml version="1.0" encoding="utf-8"?>
<!DOCTYPE svg PUBLIC "-//W3C//DTD SVG 1.1//EN" "http://www.w3.org/Graphics/SVG/1.1/DTD/svg11.dtd">
<svg xmlns="http://www.w3.org/2000/svg" xmlns:xlink="http://www.w3.org/1999/xlink" version="1.1" baseProfile="full" width="24" height="24" viewBox="0 0 24.00 24.00" enable-background="new 0 0 24.00 24.00" xml:space="preserve">
	<path fill="#000000" fill-opacity="1" stroke-width="0.2" stroke-linejoin="miter" d="M 12,2C 6.47715,2 2,6.4772 2,12C 2,17.5228 6.47715,22 12,22C 17.5228,22 22,17.5228 22,12C 22,6.4772 17.5228,2 12,2 Z M 12,4C 16.4183,4 20,7.5817 20,12C 20,14.4 19.0008,16.5 17.3008,18C 15.9008,16.7 14,16 12,16C 10,16 8.19922,16.7 6.69922,18C 4.99922,16.5 4,14.4 4,12C 4,7.5817 7.58172,4 12,4 Z M 10,6C 9.44772,6 9,6.4477 9,7C 9,7.5523 9.44772,8 10,8C 10.5523,8 11,7.5523 11,7C 11,6.4477 10.5523,6 10,6 Z M 14,6C 13.4477,6 13,6.4477 13,7C 13,7.5523 13.4477,8 14,8C 14.5523,8 15,7.5523 15,7C 15,6.4477 14.5523,6 14,6 Z M 17.0859,8.9395C 16.9621,8.941 16.8395,8.9655 16.7012,9.0215L 13.4805,10.3242L 13.2285,10.4258C 12.6661,9.9863 11.9121,9.8799 11.25,10.1465C 10.2265,10.5609 9.73257,11.7263 10.1465,12.75C 10.5609,13.7735 11.7263,14.2674 12.75,13.8535C 13.4109,13.5854 13.879,12.9856 13.9785,12.2793L 14.2285,12.1777L 17.4512,10.877L 17.4746,10.8672C 17.9868,10.6606 18.2345,10.0778 18.0273,9.5645C 17.8726,9.1818 17.4987,8.9335 17.0859,8.9395 Z M 7,9C 6.44772,9 6,9.4477 6,10C 6,10.5523 6.44772,11 7,11C 7.55228,11 8,10.5523 8,10C 8,9.4477 7.55228,9 7,9 Z "/>
</svg>
