<?xml version="1.0" encoding="utf-8"?>
<!DOCTYPE svg PUBLIC "-//W3C//DTD SVG 1.1//EN" "http://www.w3.org/Graphics/SVG/1.1/DTD/svg11.dtd">
<svg xmlns="http://www.w3.org/2000/svg" xmlns:xlink="http://www.w3.org/1999/xlink" version="1.1" baseProfile="full" width="24" height="24" viewBox="0 0 24.00 24.00" enable-background="new 0 0 24.00 24.00" xml:space="preserve">
	<path fill="#000000" fill-opacity="1" stroke-width="1.33333" stroke-linejoin="miter" d="M 12,2C 6.47715,2 2,6.4772 2,12C 2,17.5228 6.47715,22 12,22C 17.5228,22 22,17.5228 22,12C 22,6.4772 17.5228,2 12,2 Z M 12,4C 16.4183,4 20,7.5817 20,12C 20,14.4 19.0008,16.5 17.3008,18C 15.9008,16.7 14,16 12,16C 10,16 8.19922,16.7 6.69922,18C 4.99922,16.5 4,14.4 4,12C 4,7.5817 7.58172,4 12,4 Z M 14.0176,5.8926C 13.616,5.9008 13.2583,6.1485 13.0996,6.5449L 11.8125,9.7715L 11.7109,10.0234C 11.0051,10.1264 10.4075,10.5975 10.1426,11.2598C 9.73406,12.2856 10.2342,13.4484 11.2598,13.8574C 12.2856,14.2659 13.4484,13.7658 13.8574,12.7402C 14.1211,12.0773 14.0117,11.3242 13.5703,10.7637L 13.6699,10.5137L 14.957,7.2852L 14.9668,7.2617C 15.1711,6.7488 14.921,6.1674 14.4082,5.9629C 14.284,5.9136 14.1512,5.8897 14.0176,5.8926 Z M 10,6C 9.44772,6 9,6.4477 9,7C 9,7.5523 9.44772,8 10,8C 10.5523,8 11,7.5523 11,7C 11,6.4477 10.5523,6 10,6 Z M 7,9C 6.44772,9 6,9.4477 6,10C 6,10.5523 6.44772,11 7,11C 7.55228,11 8,10.5523 8,10C 8,9.4477 7.55228,9 7,9 Z M 17,9C 16.4477,9 16,9.4477 16,10C 16,10.5523 16.4477,11 17,11C 17.5523,11 18,10.5523 18,10C 18,9.4477 17.5523,9 17,9 Z "/>
</svg>
