<?xml version="1.0" encoding="utf-8"?>
<!DOCTYPE svg PUBLIC "-//W3C//DTD SVG 1.1//EN" "http://www.w3.org/Graphics/SVG/1.1/DTD/svg11.dtd">
<svg xmlns="http://www.w3.org/2000/svg" xmlns:xlink="http://www.w3.org/1999/xlink" version="1.1" baseProfile="full" width="24" height="24" viewBox="0 0 24.00 24.00" enable-background="new 0 0 24.00 24.00" xml:space="preserve">
	<path fill="#000000" fill-opacity="1" stroke-width="1.33333" stroke-linejoin="miter" d="M 12,2C 17.5228,2 22,6.4772 22,12C 22,17.5228 17.5228,22 12,22C 6.47715,22 2,17.5228 2,12C 2,6.4772 6.47715,2 12,2 Z M 12,4C 7.58172,4 4,7.5817 4,12C 4,14.4 4.99922,16.5 6.69922,18C 8.09922,16.7 10,16 12,16C 14,16 15.8008,16.7 17.3008,18C 19.0008,16.5 20,14.4 20,12C 20,7.5817 16.4183,4 12,4 Z M 9.98242,5.8926C 10.384,5.9008 10.7417,6.1485 10.9004,6.5449L 12.1875,9.7715L 12.2891,10.0234C 12.9949,10.1264 13.5926,10.5975 13.8575,11.2598C 14.266,12.2856 13.7659,13.4484 12.7403,13.8574C 11.7144,14.2659 10.5517,13.7658 10.1426,12.7402C 9.87894,12.0773 9.98834,11.3242 10.4297,10.7637L 10.3301,10.5137L 9.043,7.2852L 9.03315,7.2617C 8.82889,6.7488 9.07894,6.1674 9.59175,5.9629C 9.71595,5.9136 9.84877,5.8897 9.98237,5.8926L 9.98242,5.8926 Z M 14,6C 14.5523,6 15,6.4477 15,7C 15,7.5523 14.5523,8 14,8C 13.4477,8 13,7.5523 13,7C 13,6.4477 13.4477,6 14,6 Z M 17,9C 17.5523,9 18,9.4477 18,10C 18,10.5523 17.5523,11 17,11C 16.4477,11 16,10.5523 16,10C 16,9.4477 16.4477,9 17,9 Z M 7,9C 7.55229,9 8,9.4477 8,10C 8,10.5523 7.55229,11 7,11C 6.44771,11 6,10.5523 6,10C 6,9.4477 6.44771,9 7,9 Z "/>
</svg>
