<?xml version="1.0" encoding="utf-8"?>
<!DOCTYPE svg PUBLIC "-//W3C//DTD SVG 1.1//EN" "http://www.w3.org/Graphics/SVG/1.1/DTD/svg11.dtd">
<svg xmlns="http://www.w3.org/2000/svg" xmlns:xlink="http://www.w3.org/1999/xlink" version="1.1" baseProfile="full" width="24" height="24" viewBox="0 0 24.00 24.00" enable-background="new 0 0 24.00 24.00" xml:space="preserve">
	<path fill="#000000" fill-opacity="1" stroke-width="1.33333" stroke-linejoin="miter" d="M 12,2C 17.5228,2 22,6.4772 22,12C 22,17.5228 17.5228,22 12,22C 6.47715,22 2,17.5228 2,12C 2,6.4772 6.47715,2 12,2 Z M 12,4C 7.58172,4 4,7.5817 4,12C 4,14.4 4.99922,16.5 6.69922,18C 8.09922,16.7 10,16 12,16C 14,16 15.8008,16.7 17.3008,18C 19.0008,16.5 20,14.4 20,12C 20,7.5817 16.4183,4 12,4 Z M 14,6C 14.5523,6 15,6.4477 15,7C 15,7.5523 14.5523,8 14,8C 13.4477,8 13,7.5523 13,7C 13,6.4477 13.4477,6 14,6 Z M 10,6C 10.5523,6 11,6.4477 11,7C 11,7.5523 10.5523,8 10,8C 9.44771,8 9,7.5523 9,7C 9,6.4477 9.44771,6 10,6 Z M 6.91406,8.9395C 7.03794,8.941 7.16046,8.9655 7.29883,9.0215L 10.5195,10.3242L 10.7715,10.4258C 11.3339,9.9863 12.0879,9.8799 12.75,10.1465C 13.7735,10.5609 14.2674,11.7263 13.8535,12.75C 13.4391,13.7735 12.2737,14.2674 11.25,13.8535C 10.5891,13.5854 10.121,12.9856 10.0215,12.2793L 9.77148,12.1777L 6.54883,10.877L 6.52544,10.8672C 6.01326,10.6605 5.76558,10.0778 5.9727,9.5644C 6.12745,9.1818 6.50139,8.9335 6.91411,8.9394L 6.91406,8.9395 Z M 17,9C 17.5523,9 18,9.4477 18,10C 18,10.5523 17.5523,11 17,11C 16.4477,11 16,10.5523 16,10C 16,9.4477 16.4477,9 17,9 Z "/>
</svg>
