<?xml version="1.0" encoding="utf-8"?>
<!DOCTYPE svg PUBLIC "-//W3C//DTD SVG 1.1//EN" "http://www.w3.org/Graphics/SVG/1.1/DTD/svg11.dtd">
<svg xmlns="http://www.w3.org/2000/svg" xmlns:xlink="http://www.w3.org/1999/xlink" version="1.1" baseProfile="full" width="24" height="24" viewBox="0 0 24.00 24.00" enable-background="new 0 0 24.00 24.00" xml:space="preserve">
	<path fill="#000000" fill-opacity="1" stroke-width="1.33333" stroke-linejoin="miter" d="M 10.2828,2.0002C 9.92508,2.0032 9.57211,2.0347 9.23322,2.0966C 5.61184,2.7589 3.06413,5.8914 2.84835,7.9555C 2.74247,8.9683 3.28828,9.7263 3.58943,10.0609C 4.40333,10.9652 6.02543,11.6556 7.06839,12.2279C 5.5606,13.5135 4.86894,14.1413 4.18788,14.8564C 3.16878,15.9266 2.45157,17.1045 2.44938,17.9482C 2.44861,18.22 2.40472,19.0867 2.75824,19.7707C 2.89118,20.028 3.26934,20.8862 4.40864,21.5291C 5.13682,21.94 6.17445,22.0912 7.19006,21.9462C 10.3332,21.4977 14.5428,18.8318 17.5467,16.3491C 19.4612,14.7669 20.8605,13.2335 21.2648,12.4786C 21.5909,11.8694 21.6273,10.7765 21.4381,10.0908C 20.9006,8.1428 16.5322,4.1531 12.9602,2.5472C 12.1418,2.1793 11.1969,1.9937 10.2828,2.0002 Z M 11.3441,4.9059C 11.585,4.9069 11.8066,4.9356 11.9882,4.9853C 13.148,5.303 15.0771,6.6802 14.9051,7.9407C 14.6792,9.5954 13.2348,10.2665 11.559,10.0336C 10.5819,9.8978 8.62771,8.7973 8.77508,6.893C 8.89026,5.4046 10.3,4.9004 11.3441,4.9059 Z M 11.3173,6.6486C 11.052,6.6466 10.8369,6.7137 10.7384,6.8664C 10.2743,7.5854 10.4853,8.0945 10.9158,8.4197C 11.0749,8.038 12.7114,8.4547 12.7508,8.7859C 14.1712,7.7169 12.358,6.6554 11.3173,6.6486 Z "/>
</svg>
