<?xml version="1.0" encoding="utf-8"?>
<!DOCTYPE svg PUBLIC "-//W3C//DTD SVG 1.1//EN" "http://www.w3.org/Graphics/SVG/1.1/DTD/svg11.dtd">
<svg xmlns="http://www.w3.org/2000/svg" xmlns:xlink="http://www.w3.org/1999/xlink" version="1.1" baseProfile="full" width="24" height="24" viewBox="0 0 24.00 24.00" enable-background="new 0 0 24.00 24.00" xml:space="preserve">
	<path fill="#000000" fill-opacity="1" stroke-width="1.33333" stroke-linejoin="miter" d="M 20.1094,3.8906L 21.9844,2.0156L 21.9844,6.9844L 17.0156,6.9844L 19.0781,4.9219C 18.5469,4.2344 17.6406,3.6562 16.3594,3.1875C 15.0781,2.7187 13.625,2.4844 12,2.4844C 10.375,2.4844 8.92187,2.7187 7.64063,3.1875C 6.35938,3.6562 5.45313,4.2344 4.92188,4.9219L 6.98438,6.9844L 2.01563,6.9844L 2.01563,2.0156L 3.89063,3.8906C 4.64063,3.0156 5.74219,2.3125 7.19531,1.7812C 8.64844,1.25 10.25,0.984398 12,0.984398C 13.75,0.984398 15.3516,1.25 16.8047,1.7812C 18.2578,2.3125 19.3594,3.0156 20.1094,3.8906 Z M 19.7344,16.2656L 19.7344,16.4531L 18.9844,21.7031C 18.9219,22.0781 18.7578,22.3906 18.4922,22.6406C 18.2266,22.8906 17.9063,23.0156 17.5313,23.0156L 10.7344,23.0156C 10.3594,23.0156 10.0156,22.8594 9.70313,22.5469L 4.73438,17.625L 5.53125,16.8281C 5.75,16.6094 6.01562,16.5 6.32813,16.5L 6.5625,16.5L 9.98438,17.25L 9.98438,6.5156C 9.98438,6.1094 10.1328,5.7578 10.4297,5.4609C 10.7266,5.1641 11.0781,5.0156 11.4844,5.0156C 11.8906,5.0156 12.2422,5.1641 12.5391,5.4609C 12.8359,5.7578 12.9844,6.1094 12.9844,6.5156L 12.9844,12.5156L 13.7813,12.5156C 13.875,12.5156 14.0469,12.5469 14.2969,12.6094L 18.8438,14.8594C 19.4375,15.1406 19.7344,15.6094 19.7344,16.2656 Z "/>
</svg>
