<?xml version="1.0" encoding="utf-8"?>
<!DOCTYPE svg PUBLIC "-//W3C//DTD SVG 1.1//EN" "http://www.w3.org/Graphics/SVG/1.1/DTD/svg11.dtd">
<svg xmlns="http://www.w3.org/2000/svg" xmlns:xlink="http://www.w3.org/1999/xlink" version="1.1" baseProfile="full" width="24" height="24" viewBox="0 0 24.00 24.00" enable-background="new 0 0 24.00 24.00" xml:space="preserve">
	<path fill="#000000" fill-opacity="1" stroke-width="1.33333" stroke-linejoin="miter" d="M 4,1L 7,4L 5,4L 5,7L 3,7L 3,4L 1,4L 4,1 Z M 4,15L 1,12L 3,12L 3,9L 5,9L 5,12L 7,12L 4,15 Z M 13,9C 13,8.4477 13.4477,8 14,8C 14.5523,8 15,8.4477 15,9L 15,13.47L 16.21,13.6L 21.15,15.8C 21.6743,16.0382 22.0079,16.5642 22,17.14L 22,21.5C 21.9692,22.3153 21.3153,22.9692 20.5,23L 14,23C 13.6208,23.0046 13.2575,22.8484 13,22.57L 8.1,18.37L 8.84,17.6C 9.03083,17.3942 9.29936,17.2781 9.58,17.28L 9.8,17.28L 13,19L 13,9 Z M 14,5.00001C 15.4236,5.00251 16.7386,5.76151 17.4529,6.99291C 18.5614,8.90381 17.9109,11.3515 16,12.46L 16,11.23C 16.6411,10.667 17.0061,9.85321 17,9.00001C 17,7.34311 15.6569,6.00001 14,6.00001C 12.3431,6.00001 11,7.34311 11,9.00001C 10.9939,9.85321 11.3589,10.667 12,11.23L 12,12.46C 10.7686,11.7457 10.0096,10.4307 10.0071,9.00711C 10.0032,6.79791 11.7909,5.00391 14,5.00001 Z M 9,14C 9.72857,14 10.4116,14.1948 11,14.5351L 11,15.7639C 10.4692,15.2889 9.76835,15 9,15C 7.34314,15 5.99999,16.3432 5.99999,18C 5.99999,18.9914 6.4809,19.8705 7.22217,20.4167L 9.30778,21.9883L 9,22C 6.79086,22 5,20.2091 5,18C 5,15.7909 6.79086,14 9,14 Z "/>
</svg>
