<?xml version="1.0" encoding="utf-8"?>
<!DOCTYPE svg PUBLIC "-//W3C//DTD SVG 1.1//EN" "http://www.w3.org/Graphics/SVG/1.1/DTD/svg11.dtd">
<svg xmlns="http://www.w3.org/2000/svg" xmlns:xlink="http://www.w3.org/1999/xlink" version="1.1" baseProfile="full" width="24" height="24" viewBox="0 0 24.00 24.00" enable-background="new 0 0 24.00 24.00" xml:space="preserve">
	<path fill="#000000" fill-opacity="1" stroke-width="1.33333" stroke-linejoin="miter" d="M 10,9C 10,8.4477 10.4477,8 11,8C 11.5523,8 12,8.4477 12,9L 12,13.47L 13.21,13.6L 18.15,15.79C 18.6759,16.0317 19.0093,16.5613 19,17.14L 19,21.5C 18.974,22.3174 18.3174,22.974 17.5,23L 11,23C 10.6216,23.0009 10.2596,22.8453 10,22.57L 5.1,18.37L 5.84,17.6C 6.03083,17.3942 6.29936,17.2781 6.58,17.28L 6.8,17.28L 10,19L 10,9 Z M 11,5C 13.2091,5 15,6.79086 15,9C 15,10.4806 14.1956,11.7733 13,12.4649L 13,11.2361C 13.6137,10.6868 14,9.8885 14,9C 14,7.34315 12.6569,6 11,6C 9.34315,6 8,7.34315 8,9C 8,9.8885 8.38625,10.6868 9,11.2361L 9,12.4649C 7.8044,11.7733 7,10.4806 7,9C 7,6.79086 8.79086,5 11,5 Z "/>
</svg>
