<?xml version="1.0" encoding="utf-8"?>
<!DOCTYPE svg PUBLIC "-//W3C//DTD SVG 1.1//EN" "http://www.w3.org/Graphics/SVG/1.1/DTD/svg11.dtd">
<svg xmlns="http://www.w3.org/2000/svg" xmlns:xlink="http://www.w3.org/1999/xlink" version="1.1" baseProfile="full" width="24" height="24" viewBox="0 0 24.00 24.00" enable-background="new 0 0 24.00 24.00" xml:space="preserve">
	<path fill="#000000" fill-opacity="1" stroke-width="1.33333" stroke-linejoin="miter" d="M 10,9C 10,8.45 10.45,8 11,8C 11.55,8 12,8.45 12,9L 12,13.47L 13.21,13.6L 18.15,15.79C 18.68,16.03 19,16.56 19,17.14L 19,21.5C 18.97,22.32 18.32,22.97 17.5,23L 11,23C 10.62,23 10.26,22.85 10,22.57L 5.1,18.37L 5.84,17.6C 6.03,17.39 6.3,17.28 6.58,17.28L 6.8,17.28L 10,19L 10,9 Z M 9,12.441L 9,9C 9,7.897 9.897,7 11,7C 12.103,7 13,7.897 13,9L 13,12.441C 14.188,11.746 15,10.469 15,9C 15,6.8 13.2,5 11,5C 8.8,5 7,6.8 7,9C 7,10.469 7.812,11.746 9,12.441 Z "/>
</svg>
