<?xml version="1.0" encoding="utf-8"?>
<!DOCTYPE svg PUBLIC "-//W3C//DTD SVG 1.1//EN" "http://www.w3.org/Graphics/SVG/1.1/DTD/svg11.dtd">
<svg xmlns="http://www.w3.org/2000/svg" xmlns:xlink="http://www.w3.org/1999/xlink" version="1.1" baseProfile="full" width="24" height="24" viewBox="0 0 24.00 24.00" enable-background="new 0 0 24.00 24.00" xml:space="preserve">
	<path fill="#000000" fill-opacity="1" stroke-width="1.33333" stroke-linejoin="miter" d="M 10,9C 10,8.4477 10.4477,8 11,8C 11.5523,8 12,8.4477 12,9L 12,13.47L 13.21,13.6L 18.15,15.79C 18.6759,16.0317 19.0093,16.5613 19,17.14L 19,21.5C 18.974,22.3174 18.3174,22.974 17.5,23L 11,23C 10.6216,23.0009 10.2596,22.8453 10,22.57L 5.1,18.37L 5.84,17.6C 6.03083,17.3942 6.29936,17.2781 6.58,17.28L 6.8,17.28L 10,19L 10,9 Z M 1,9L 4,12L 7,9L 5,9L 5,3L 3,3L 3,9L 1,9 Z "/>
</svg>
