<?xml version="1.0" encoding="utf-8"?>
<!DOCTYPE svg PUBLIC "-//W3C//DTD SVG 1.1//EN" "http://www.w3.org/Graphics/SVG/1.1/DTD/svg11.dtd">
<svg xmlns="http://www.w3.org/2000/svg" xmlns:xlink="http://www.w3.org/1999/xlink" version="1.1" baseProfile="full" width="24" height="24" viewBox="0 0 24.00 24.00" enable-background="new 0 0 24.00 24.00" xml:space="preserve">
	<path fill="#000000" fill-opacity="1" stroke-width="1.33333" stroke-linejoin="miter" d="M 19,15.14L 19,21.5C 18.974,22.3174 18.3174,22.974 17.5,23L 11,23C 10.6216,23.0009 10.2596,22.8453 10,22.57L 5.1,18.37L 5.84,17.6C 6.03083,17.3942 6.29936,17.2781 6.58,17.28L 6.8,17.28L 10,19L 10,9C 10,8.4477 10.4477,8 11,8C 11.5523,8 12,8.4477 12,9L 12,7C 12,6.4477 12.4477,6 13,6C 13.5523,6 14,6.4477 14,7L 14,12L 18.15,13.84C 18.6595,14.0742 18.9898,14.5794 19,15.14 Z M 13,3C 15.2091,3 17,4.79086 17,7C 17,8.48057 16.1956,9.77326 15,10.4649L 15,9.23612C 15.6137,8.68679 16,7.88851 16,7.00001C 16,5.34315 14.6568,4.00001 13,4.00001C 11.6462,4.00001 10.5019,4.8967 10.1285,6.12854C 8.89669,6.50191 8,7.64624 8,9.00001C 8,9.88851 8.38625,10.6868 9,11.2361L 9,12.4649C 7.8044,11.7733 7,10.4806 7,9C 7,7.3778 7.96566,5.98114 9.3535,5.35351C 9.98114,3.96566 11.3778,3 13,3 Z M 13,1.00001C 16.3137,1.00001 19,3.6863 19,7.00001C 19,9.0614 17.9604,10.88 16.377,11.9601L 15.2584,11.4621C 16.8851,10.6371 18,8.94878 18,7.00001C 18,4.23859 15.7614,2.00002 13,2.00002C 11.105,2.00002 9.45622,3.05421 8.60813,4.60814C 7.0542,5.45623 6,7.10501 6,9.00001C 6,11.0503 7.23409,12.8124 9,13.584L 9,14.6586C 6.66961,13.8349 5,11.6124 5,9C 5,6.83063 6.15132,4.93015 7.87626,3.87627C 8.93014,2.15133 10.8306,1.00001 13,1.00001 Z "/>
</svg>
