<?xml version="1.0" encoding="utf-8"?>
<!DOCTYPE svg PUBLIC "-//W3C//DTD SVG 1.1//EN" "http://www.w3.org/Graphics/SVG/1.1/DTD/svg11.dtd">
<svg xmlns="http://www.w3.org/2000/svg" xmlns:xlink="http://www.w3.org/1999/xlink" version="1.1" baseProfile="full" width="24" height="24" viewBox="0 0 24.00 24.00" enable-background="new 0 0 24.00 24.00" xml:space="preserve">
	<path fill="#000000" fill-opacity="1" stroke-width="1.33333" stroke-linejoin="miter" d="M 12,2C 7.02944,2 3,6.0294 3,11L 3,22L 6,19L 9,22L 12,19L 15,22L 18,19L 21,22L 21,11C 21,6.0294 16.9706,2 12,2 Z M 9,8C 10.1046,8 11,8.8954 11,10C 11,11.1046 10.1046,12 9,12C 7.89543,12 7,11.1046 7,10C 7,8.8954 7.89543,8 9,8 Z M 15,8C 16.1046,8 17,8.8954 17,10C 17,11.1046 16.1046,12 15,12C 13.8954,12 13,11.1046 13,10C 13,8.8954 13.8954,8 15,8 Z "/>
</svg>
