<?xml version="1.0" encoding="utf-8"?>
<!DOCTYPE svg PUBLIC "-//W3C//DTD SVG 1.1//EN" "http://www.w3.org/Graphics/SVG/1.1/DTD/svg11.dtd">
<svg xmlns="http://www.w3.org/2000/svg" xmlns:xlink="http://www.w3.org/1999/xlink" version="1.1" baseProfile="full" width="24" height="24" viewBox="0 0 24.00 24.00" enable-background="new 0 0 24.00 24.00" xml:space="preserve">
	<path fill="#000000" fill-opacity="1" stroke-width="0.2" stroke-linejoin="miter" d="M 2,3.26849L 3.27711,2.00002L 22,20.7229L 20.7315,22L 17.8658,19.1342L 15,22L 12,19L 9,22L 6,19L 3,22L 3,11C 3,9.09413 3.5924,7.32663 4.6031,5.8716L 2,3.26849 Z M 12,2C 16.9706,2 21,6.0294 21,11L 21,17.1773L 15.6976,11.875C 16.4582,11.5919 17,10.8592 17,10C 17,8.8954 16.1046,8 15,8C 14.1408,8 13.4081,8.54177 13.125,9.30235L 7.20499,3.38231C 8.59319,2.50667 10.2374,2 12,2 Z M 7,10C 7,11.1046 7.89543,12 9,12C 9.48393,12 9.92771,11.8281 10.2736,11.5421L 7.45788,8.72638C 7.17186,9.0723 7,9.51608 7,10 Z "/>
</svg>
