<?xml version="1.0" encoding="utf-8"?>
<!DOCTYPE svg PUBLIC "-//W3C//DTD SVG 1.1//EN" "http://www.w3.org/Graphics/SVG/1.1/DTD/svg11.dtd">
<svg xmlns="http://www.w3.org/2000/svg" xmlns:xlink="http://www.w3.org/1999/xlink" version="1.1" baseProfile="full" width="24" height="24" viewBox="0 0 24.00 24.00" enable-background="new 0 0 24.00 24.00" xml:space="preserve">
	<path fill="#000000" fill-opacity="1" stroke-width="1.33333" stroke-linejoin="miter" d="M 11,8L 13,8L 13,16L 11,16L 11,8 Z M 7.66667,8L 4.33333,8C 3.53333,8 3,8.66667 3,9.33333L 3,14.6667C 3,15.3333 3.53333,16 4.33333,16L 7.66667,16C 8.46667,16 9,15.3333 9,14.6667L 9,12L 7,12L 7,14L 5,14L 5,10L 9,10L 9,9.33333C 9,8.66667 8.46667,8 7.66667,8 Z M 21,10L 21,8L 15,8L 15,16L 17,16L 17,14L 19.5,14L 19.5,12L 17,12L 17,10L 21,10 Z "/>
</svg>
