<?xml version="1.0" encoding="utf-8"?>
<!DOCTYPE svg PUBLIC "-//W3C//DTD SVG 1.1//EN" "http://www.w3.org/Graphics/SVG/1.1/DTD/svg11.dtd">
<svg xmlns="http://www.w3.org/2000/svg" xmlns:xlink="http://www.w3.org/1999/xlink" version="1.1" baseProfile="full" width="24" height="24" viewBox="0 0 24.00 24.00" enable-background="new 0 0 24.00 24.00" xml:space="preserve">
	<path fill="#000000" fill-opacity="1" stroke-linejoin="round" d="M 11.4339,3.2344L 12,4.01352L 12.5661,3.2344L 12.5715,3.23833C 13.1168,2.4879 14.0014,2 15,2C 16.6569,2 18,3.34315 18,5C 18,5.35064 17.9398,5.68722 17.8293,6L 20,6C 21.1046,6 22,6.89543 22,8L 22,20C 22,21.1046 21.1046,22 20,22L 4,22C 2.89543,22 2,21.1046 2,20L 2,8C 2,6.89543 2.89543,6 4,6L 6.17071,6C 6.06015,5.68722 6,5.35064 6,5C 6,3.34315 7.34315,2 9,2C 9.99859,2 10.8832,2.4879 11.4285,3.23833L 11.4339,3.2344 Z M 4,8.00001L 4,20L 20,20L 20,8.00001L 15,8.00001L 14.8963,8.00001L 17.0179,10.9201L 15.3999,12.0956L 12.4242,8.00001L 11.5758,8.00001L 8.60013,12.0956L 6.9821,10.9201L 9.10364,8.00001L 9,8.00001L 4,8.00001 Z M 9,4C 8.44771,4 8,4.44772 8,5C 8,5.55229 8.44771,6 9,6C 9.55228,6 10,5.55229 10,5C 10,4.44772 9.55228,4 9,4 Z M 15,4C 14.4477,4 14,4.44772 14,5C 14,5.55229 14.4477,6 15,6C 15.5523,6 16,5.55229 16,5C 16,4.44772 15.5523,4 15,4 Z "/>
</svg>
