<?xml version="1.0" encoding="utf-8"?>
<!DOCTYPE svg PUBLIC "-//W3C//DTD SVG 1.1//EN" "http://www.w3.org/Graphics/SVG/1.1/DTD/svg11.dtd">
<svg xmlns="http://www.w3.org/2000/svg" xmlns:xlink="http://www.w3.org/1999/xlink" version="1.1" baseProfile="full" width="24" height="24" viewBox="0 0 24.00 24.00" enable-background="new 0 0 24.00 24.00" xml:space="preserve">
	<path fill="#000000" fill-opacity="1" stroke-width="0.2" stroke-linejoin="round" d="M 22,12L 22,20C 22,21.1046 21.1046,22 20,22L 4,22C 2.89543,22 2,21.1046 2,20L 2,12C 1.44772,12 1,11.5523 1,11L 1,8C 1,6.89543 1.89543,6 3,6L 6.17071,6C 6.06015,5.68722 6,5.35064 6,5C 6,3.34315 7.34315,2 9,2C 9.99859,2 10.8832,2.4879 11.4285,3.23833L 11.4339,3.2344L 12,4.01352L 12.5661,3.2344L 12.5715,3.23833C 13.1168,2.4879 14.0014,2 15,2C 16.6569,2 18,3.34315 18,5C 18,5.35064 17.9398,5.68722 17.8293,6L 21,6C 22.1046,6 23,6.89543 23,8L 23,11C 23,11.5523 22.5523,12 22,12 Z M 3.99999,20L 11,20L 11,12L 3.99999,12L 3.99999,20 Z M 20,20L 20,12L 13,12L 13,20L 20,20 Z M 8.99999,4.00003C 8.4477,4.00003 7.99999,4.44774 7.99999,5.00003C 7.99999,5.55231 8.4477,6.00003 8.99999,6.00003C 9.55227,6.00003 9.99999,5.55231 9.99999,5.00003C 9.99999,4.44774 9.55227,4.00003 8.99999,4.00003 Z M 15,4.00003C 14.4477,4.00003 14,4.44774 14,5.00003C 14,5.55231 14.4477,6.00003 15,6.00003C 15.5523,6.00003 16,5.55231 16,5.00003C 16,4.44774 15.5523,4.00003 15,4.00003 Z M 3,8L 3,10L 11,10L 11,8L 3,8 Z M 13,8L 13,10L 21,10L 21,8L 13,8 Z "/>
</svg>
