<?xml version="1.0" encoding="utf-8"?>
<!DOCTYPE svg PUBLIC "-//W3C//DTD SVG 1.1//EN" "http://www.w3.org/Graphics/SVG/1.1/DTD/svg11.dtd">
<svg xmlns="http://www.w3.org/2000/svg" xmlns:xlink="http://www.w3.org/1999/xlink" version="1.1" baseProfile="full" width="24" height="24" viewBox="0 0 24.00 24.00" enable-background="new 0 0 24.00 24.00" xml:space="preserve">
	<path fill="#000000" fill-opacity="1" stroke-width="1.33333" stroke-linejoin="miter" d="M 9.06445,1.9316C 7.17106,1.917 5.32784,3.7375 6.16992,6L 3,6C 1.89543,6 1,6.8954 1,8L 1,10C 1,10.5523 1.44772,11 2,11L 11,11L 11,8L 13,8L 13,11L 22,11C 22.5523,11 23,10.5523 23,10L 23,8C 23,6.8954 22.1046,6 21,6L 17.8301,6C 18.9936,2.7298 14.6001,0.424599 12.5703,3.2402L 12,4L 11.4297,3.2207C 10.7956,2.3251 9.92509,1.9383 9.06445,1.9316 Z M 9,4C 9.89097,4 10.337,5.0771 9.70703,5.707C 9.0771,6.337 8,5.891 8,5C 8,4.4477 8.44772,4 9,4 Z M 15,4C 15.891,4 16.337,5.0771 15.707,5.707C 15.0771,6.337 14,5.891 14,5C 14,4.4477 14.4477,4 15,4 Z M 2,12L 2,20C 2,21.1046 2.89543,22 4,22L 20,22C 21.1046,22 22,21.1046 22,20L 22,12L 13,12L 13,20L 11,20L 11,12L 2,12 Z "/>
</svg>
