<?xml version="1.0" encoding="utf-8"?>
<!DOCTYPE svg PUBLIC "-//W3C//DTD SVG 1.1//EN" "http://www.w3.org/Graphics/SVG/1.1/DTD/svg11.dtd">
<svg xmlns="http://www.w3.org/2000/svg" xmlns:xlink="http://www.w3.org/1999/xlink" version="1.1" baseProfile="full" width="24" height="24" viewBox="0 0 24.00 24.00" enable-background="new 0 0 24.00 24.00" xml:space="preserve">
	<path fill="#000000" fill-opacity="1" fill-rule="evenodd" stroke-width="0.2" stroke-linejoin="round" d="M 5,3L 19,3C 20.1046,3 21,3.89543 21,5L 21,19C 21,20.1046 20.1046,21 19,21L 14.5618,21C 14.241,20.927 14.2313,20.3198 14.2313,20.1063L 14.2423,17.6373C 14.2423,16.7978 13.9545,16.2485 13.6318,15.9706C 15.6363,15.7478 17.7408,14.987 17.7408,11.5295C 17.7408,10.547 17.3927,9.74363 16.8159,9.1145C 16.9082,8.88681 17.217,7.97176 16.7258,6.73267C 16.7258,6.73267 15.9717,6.49067 14.2534,7.65528C 13.5346,7.45566 12.765,7.35583 12.0003,7.35235C 11.2351,7.35583 10.4649,7.45566 9.74717,7.65528C 8.02779,6.49067 7.27251,6.73267 7.27251,6.73267C 6.78245,7.97176 7.0913,8.88681 7.18412,9.1145C 6.60841,9.74363 6.25757,10.547 6.25757,11.5295C 6.25757,14.9784 8.35873,15.7505 10.3571,15.9776C 10.1002,16.2026 9.86762,16.5992 9.78586,17.1808C 9.27312,17.4112 7.96922,17.8083 7.16643,16.433C 7.16643,16.433 6.69129,15.5692 5.78794,15.5055C 5.78794,15.5055 4.90891,15.4942 5.72606,16.0526C 5.72606,16.0526 6.31614,16.3294 6.72554,17.3691C 6.72554,17.3691 7.25373,19.1194 9.75713,18.5756L 9.76928,20.1063C 9.76928,20.3193 9.75411,20.9307 9.42995,21L 5,21C 3.89543,21 3,20.1046 3,19L 3,5C 3,3.89543 3.89543,3 5,3 Z "/>
</svg>
