<?xml version="1.0" encoding="utf-8"?>
<!DOCTYPE svg PUBLIC "-//W3C//DTD SVG 1.1//EN" "http://www.w3.org/Graphics/SVG/1.1/DTD/svg11.dtd">
<svg xmlns="http://www.w3.org/2000/svg" xmlns:xlink="http://www.w3.org/1999/xlink" version="1.1" baseProfile="full" width="24" height="24" viewBox="0 0 24.00 24.00" enable-background="new 0 0 24.00 24.00" xml:space="preserve">
	<path fill="#000000" fill-opacity="1" stroke-width="1.33333" stroke-linejoin="miter" d="M 20.375,8.53125C 20.5375,8.13125 21.0625,6.54375 20.2125,4.39375C 20.2125,4.39375 18.9,3.98125 15.9125,6.01875C 14.6625,5.66875 13.325,5.61875 12,5.61875C 10.675,5.61875 9.3375,5.66875 8.0875,6.01875C 5.1,3.96875 3.7875,4.39375 3.7875,4.39375C 2.9375,6.54375 3.4625,8.13125 3.625,8.53125C 2.6125,9.61874 2,11.0187 2,12.7187C 2,19.1562 6.1625,20.6062 11.975,20.6062C 17.7875,20.6062 22,19.1562 22,12.7187C 22,11.0187 21.3875,9.61874 20.375,8.53125 Z M 12,19.3812C 7.875,19.3812 4.525,19.1937 4.525,15.1937C 4.525,14.2437 5,13.3437 5.8,12.6062C 7.1375,11.3812 9.425,12.0312 12,12.0312C 14.5875,12.0312 16.85,11.3812 18.2,12.6062C 19.0125,13.3437 19.475,14.2312 19.475,15.1937C 19.475,19.1812 16.125,19.3812 12,19.3812 Z M 8.8625,13.1187C 8.0375,13.1187 7.3625,14.1187 7.3625,15.3437C 7.3625,16.5687 8.0375,17.5812 8.8625,17.5812C 9.6875,17.5812 10.3625,16.5812 10.3625,15.3437C 10.3625,14.1062 9.6875,13.1187 8.8625,13.1187 Z M 15.1375,13.1187C 14.3125,13.1187 13.6375,14.1062 13.6375,15.3437C 13.6375,16.5812 14.3125,17.5812 15.1375,17.5812C 15.9625,17.5812 16.6375,16.5812 16.6375,15.3437C 16.6375,14.1062 15.975,13.1187 15.1375,13.1187 Z "/>
</svg>
