<?xml version="1.0" encoding="utf-8"?>
<!DOCTYPE svg PUBLIC "-//W3C//DTD SVG 1.1//EN" "http://www.w3.org/Graphics/SVG/1.1/DTD/svg11.dtd">
<svg xmlns="http://www.w3.org/2000/svg" xmlns:xlink="http://www.w3.org/1999/xlink" version="1.1" baseProfile="full" width="24" height="24" viewBox="0 0 24.00 24.00" enable-background="new 0 0 24.00 24.00" xml:space="preserve">
	<path fill="#000000" fill-opacity="1" stroke-width="1.33333" stroke-linejoin="miter" d="M 3.16336,10L 12,21.4837L 2.31539,14.2956C 2.04758,14.0948 1.93601,13.7489 2.03644,13.4365L 3.16336,10 Z M 6.10887,3.17167C 5.98614,2.82581 5.49524,2.82581 5.3725,3.17167L 3.16336,10L 8.31809,10L 6.10887,3.17167 Z M 8.31809,10L 12,21.4837L 15.6819,10L 8.31809,10 Z M 21.9636,13.4365L 20.8367,10L 12,21.4837L 21.6846,14.2956C 21.9524,14.0948 22.064,13.7489 21.9636,13.4365 Z M 18.6275,3.17167C 18.5047,2.82581 18.0138,2.82581 17.8911,3.17167L 15.6819,10L 20.8367,10L 18.6275,3.17167 Z "/>
</svg>
