<?xml version="1.0" encoding="utf-8"?>
<!DOCTYPE svg PUBLIC "-//W3C//DTD SVG 1.1//EN" "http://www.w3.org/Graphics/SVG/1.1/DTD/svg11.dtd">
<svg xmlns="http://www.w3.org/2000/svg" xmlns:xlink="http://www.w3.org/1999/xlink" version="1.1" baseProfile="full" width="24" height="24" viewBox="0 0 24.00 24.00" enable-background="new 0 0 24.00 24.00" xml:space="preserve">
	<path fill="#000000" fill-opacity="1" stroke-width="0.2" stroke-linejoin="round" d="M 2.99701,10C 2.75601,10 2.54601,10.087 2.40701,10.245C 2.26801,10.402 2.20701,10.621 2.23701,10.86L 2.73501,13.852C 2.81501,14.482 3.40201,15 3.99701,15L 6.99701,15C 7.63501,15 8.35701,14.437 8.51201,13.817L 9.56201,10.626C 9.59501,10.487 9.57301,10.305 9.47901,10.186C 9.38601,10.066 9.21501,10 8.99701,10L 2.99701,10 Z M 6.997,17L 3.997,17C 2.38,17 0.957005,15.743 0.757005,14.14L 0.259005,11.148C 0.152005,10.303 0.391005,9.506 0.908005,8.921C 1.425,8.336 2.186,8 2.997,8L 8.997,8C 9.832,8 10.582,8.348 11.056,8.955C 11.1747,9.10732 11.2734,9.27254 11.3515,9.44739C 11.7772,9.3576 12.2183,9.35767 12.6439,9.44761C 12.7217,9.2719 12.8204,9.10697 12.939,8.955C 13.413,8.348 14.163,8 14.997,8L 20.997,8C 21.809,8 22.569,8.336 23.087,8.921C 23.603,9.507 23.842,10.304 23.741,11.109L 23.231,14.18C 23.036,15.744 21.613,17 19.998,17L 16.998,17C 15.436,17 13.919,15.814 13.542,14.301L 12.6435,11.5868C 12.258,11.3094 11.733,11.3099 11.3486,11.5883L 10.432,14.373C 10.074,15.815 8.556,17 6.997,17 Z M 14.997,10C 14.78,10 14.609,10.066 14.516,10.185C 14.422,10.305 14.4,10.487 14.452,10.698L 15.462,13.746C 15.637,14.437 16.359,15 16.998,15L 19.998,15C 20.593,15 21.179,14.482 21.253,13.892L 21.763,10.821C 21.787,10.622 21.726,10.403 21.587,10.245C 21.447,10.087 21.238,10 20.997,10L 14.997,10 Z "/>
</svg>
