<?xml version="1.0" encoding="utf-8"?>
<!DOCTYPE svg PUBLIC "-//W3C//DTD SVG 1.1//EN" "http://www.w3.org/Graphics/SVG/1.1/DTD/svg11.dtd">
<svg xmlns="http://www.w3.org/2000/svg" xmlns:xlink="http://www.w3.org/1999/xlink" version="1.1" baseProfile="full" width="24" height="24" viewBox="0 0 24.00 24.00" enable-background="new 0 0 24.00 24.00" xml:space="preserve">
	<path fill="#000000" fill-opacity="1" stroke-width="1.33333" stroke-linejoin="miter" d="M 17.3637,2.6414L 15.9475,4.0575C 17.2612,5.3663 17.9975,7.1438 17.9975,8.9987C 17.9975,12.8663 14.8688,16.0012 11.0013,16.0012C 9.145,15.9963 7.36875,15.2587 6.055,13.95L 4.64375,15.3612C 6.08375,16.8012 7.97375,17.71 10,17.935L 10,20L 6.00125,20L 6.00125,22.0025L 16.0012,22.0025L 16.0012,20L 12.0025,20L 12.0025,17.94C 16.5525,17.4313 19.995,13.5837 20,8.9987C 20,6.6163 19.0475,4.3313 17.3637,2.6414 Z M 11.0013,3.5007C 7.96375,3.5007 5.4975,5.9625 5.4975,8.9987C 5.4975,12.0363 7.96375,14.5025 11.0013,14.5025C 14.0375,14.5025 16.4988,12.0363 16.4988,8.9987C 16.4988,5.9625 14.0375,3.5007 11.0013,3.5007 Z M 11.0013,5.4975C 12.935,5.4975 14.5025,7.065 14.5025,8.9987C 14.5025,10.9325 12.935,12.5 11.0013,12.5C 9.0675,12.5 7.5,10.9325 7.5,8.9987C 7.5,7.065 9.0675,5.4975 11.0013,5.4975 Z "/>
</svg>
