<?xml version="1.0" encoding="utf-8"?>
<!DOCTYPE svg PUBLIC "-//W3C//DTD SVG 1.1//EN" "http://www.w3.org/Graphics/SVG/1.1/DTD/svg11.dtd">
<svg xmlns="http://www.w3.org/2000/svg" xmlns:xlink="http://www.w3.org/1999/xlink" version="1.1" baseProfile="full" width="24" height="24" viewBox="0 0 24.00 24.00" enable-background="new 0 0 24.00 24.00" xml:space="preserve">
	<path fill="#000000" fill-opacity="1" stroke-width="0.2" stroke-linejoin="round" d="M 19.9994,17.9981L 17.9994,17.9981L 17.9994,9.24807L 11.9994,12.9981L 5.99939,9.24807L 5.99939,17.9981L 3.99939,17.9981L 3.99939,5.99807L 5.19939,5.99807L 11.9994,10.2481L 18.7994,5.99807L 19.9994,5.99807M 19.9994,3.99807L 3.99939,3.99807C 2.89439,3.99807 2.00938,4.89306 2.00938,5.99807L 1.99939,17.9981C 1.99939,19.1021 2.89439,19.9981 3.99939,19.9981L 19.9994,19.9981C 21.1034,19.9981 21.9994,19.1021 21.9994,17.9981L 21.9994,5.99807C 21.9994,4.89306 21.1034,3.99807 19.9994,3.99807 Z "/>
</svg>
