<?xml version="1.0" encoding="utf-8"?>
<!DOCTYPE svg PUBLIC "-//W3C//DTD SVG 1.1//EN" "http://www.w3.org/Graphics/SVG/1.1/DTD/svg11.dtd">
<svg xmlns="http://www.w3.org/2000/svg" xmlns:xlink="http://www.w3.org/1999/xlink" version="1.1" baseProfile="full" width="24" height="24" viewBox="0 0 24.00 24.00" enable-background="new 0 0 24.00 24.00" xml:space="preserve">
	<path fill="#000000" fill-opacity="1" stroke-width="1.33333" stroke-linejoin="miter" d="M 18.4185,2C 14.2578,2 13.4772,7.92609 15.8178,7.92609C 18.1581,7.92609 22.5793,2 18.4185,2 Z M 11.9898,2.72591C 11.9238,2.72564 11.8541,2.73045 11.781,2.73973C 9.43951,3.04364 10.263,7.11563 11.5097,7.19182C 12.717,7.26555 14.038,2.733 11.9898,2.72591 Z M 7.9329,4.33718C 7.80913,4.33991 7.674,4.36946 7.52699,4.43009C 5.64504,5.20673 7.24135,8.41227 8.29564,8.19682C 9.26834,7.99854 9.39346,4.30482 7.9329,4.33718 Z M 4.93416,6.84991C 4.77054,6.84445 4.59359,6.89864 4.40519,7.02873C 2.89868,8.06964 4.91186,10.5843 5.79821,10.1943C 6.57378,9.85291 6.07955,6.88845 4.93416,6.84991 Z M 13.2932,8.77318C 10.0967,8.80155 6.0291,10.4211 5.32069,13.5935C 4.53378,17.1148 8.55979,22 12.7607,22C 14.8273,22 17.2111,20.134 17.6571,17.7701C 17.9977,15.9674 13.6491,16.6897 13.8054,17.8825C 13.9926,19.3122 12.7565,20.0183 11.546,19.0966C 7.69222,16.1625 17.9266,14.6988 17.252,10.6904C 17.0332,9.39064 15.3422,8.755 13.2932,8.77318 Z "/>
</svg>
