<?xml version="1.0" encoding="utf-8"?>
<!DOCTYPE svg PUBLIC "-//W3C//DTD SVG 1.1//EN" "http://www.w3.org/Graphics/SVG/1.1/DTD/svg11.dtd">
<svg xmlns="http://www.w3.org/2000/svg" xmlns:xlink="http://www.w3.org/1999/xlink" version="1.1" baseProfile="full" width="24" height="24" viewBox="0 0 24.00 24.00" enable-background="new 0 0 24.00 24.00" xml:space="preserve">
	<path fill="#000000" fill-opacity="1" stroke-width="1.33333" stroke-linejoin="miter" d="M 22,5.5C 22,3.567 20.433,2 18.5,2C 16.567,2 15,3.567 15,5.5L 15,6C 15,7.6569 13.6569,9 12,9C 10,9 9,6 6,6C 3.79086,6 2,7.7909 2,10L 2,11L 4,11L 4,10C 4,8.8954 4.89543,8 6,8C 6.86,8 7.42,8.45 8.32,9.24C 9.28177,10.2685 10.5957,10.8969 12,11C 14.7614,11 17,8.7614 17,6L 17,5.5C 17,4.6716 17.6716,4 18.5,4C 19.3284,4 20,4.6716 20,5.5C 19.856,6.3526 19.5758,7.1765 19.17,7.94C 18.5036,9.1979 18.1052,10.5804 18,12C 18.0894,13.3742 18.5041,14.7075 19.21,15.89C 19.6029,16.5378 19.8709,17.2535 20,18C 20,19.1046 19.1046,20 18,20C 16.8954,20 16,19.1046 16,18C 16,15.9289 14.3211,14.25 12.25,14.25C 10.1789,14.25 8.5,15.9289 8.5,18L 8.5,18.5C 8.5,19.3284 7.82843,20 7,20C 5.34315,20 4,18.6568 4,17L 4,15L 6,15L 6,13L 1.27157e-006,13L 1.27157e-006,15L 2,15L 2,17C 2,19.7614 4.23858,22 7,22C 8.933,22 10.5,20.433 10.5,18.5L 10.5,18C 10.5,17.0335 11.2835,16.25 12.25,16.25C 13.2165,16.25 14,17.0335 14,18C 14,20.2091 15.7909,22 18,22C 20.2091,22 22,20.2091 22,18C 22,16 20,14 20,12C 20,10 22,7.5 22,5.5 Z "/>
</svg>
