<?xml version="1.0" encoding="utf-8"?>
<!DOCTYPE svg PUBLIC "-//W3C//DTD SVG 1.1//EN" "http://www.w3.org/Graphics/SVG/1.1/DTD/svg11.dtd">
<svg xmlns="http://www.w3.org/2000/svg" xmlns:xlink="http://www.w3.org/1999/xlink" version="1.1" baseProfile="full" width="24" height="24" viewBox="0 0 24.00 24.00" enable-background="new 0 0 24.00 24.00" xml:space="preserve">
	<path fill="#000000" fill-opacity="1" stroke-width="1.33333" stroke-linejoin="miter" d="M 4,3L 20,3C 21.1046,3 22,3.89543 22,5L 22,19C 22,20.1046 21.1046,21 20,21L 4,21C 2.89543,21 2,20.1046 2,19L 2,5C 2,3.89543 2.89543,3 4,3 Z M 10.4615,5.53847C 9.95173,5.53847 9.53846,5.95174 9.53846,6.46154L 9.53846,9.53847C 9.53846,10.0483 9.95173,10.4615 10.4615,10.4615L 13.5385,10.4615C 14.0483,10.4615 14.4615,10.0483 14.4615,9.53847L 14.4615,6.46154C 14.4615,5.95174 14.0483,5.53847 13.5385,5.53847L 10.4615,5.53847 Z M 11.0769,6.76925L 12.9231,6.76925C 13.093,6.76925 13.2307,6.90701 13.2307,7.07694L 13.2307,8.92309C 13.2307,9.09303 13.093,9.23079 12.9231,9.23079L 11.0769,9.23079C 10.907,9.23079 10.7692,9.09303 10.7692,8.92309L 10.7692,7.07694C 10.7692,6.90701 10.907,6.76925 11.0769,6.76925 Z M 4.92308,5.53847C 4.41328,5.53847 4.00001,5.95174 4.00001,6.46155L 4.00001,9.53847C 4.00001,10.0483 4.41328,10.4615 4.92308,10.4615L 7.07692,10.4615L 7.07692,9.23078L 5.53846,9.23077C 5.36853,9.23077 5.23077,9.09302 5.23077,8.92308L 5.23077,7.07693C 5.23077,6.907 5.36853,6.76924 5.53846,6.76924L 7.38461,6.76924C 7.55455,6.76924 7.69231,6.907 7.69231,7.07693L 7.69231,10.7692C 7.69231,10.9392 7.55455,11.0769 7.38461,11.0769L 4,11.0769L 4,12.3077L 8,12.3077C 8.5098,12.3077 8.92307,11.8944 8.92307,11.3846L 8.92307,6.46155C 8.92307,5.95174 8.5098,5.53847 8,5.53847L 4.92308,5.53847 Z M 16,5.53847C 15.4902,5.53847 15.0769,5.95174 15.0769,6.46154L 15.0769,9.53846C 15.0769,10.0483 15.4902,10.4615 16,10.4615L 18.1538,10.4615L 18.1538,9.23077L 16.6154,9.23077C 16.4454,9.23077 16.3077,9.09301 16.3077,8.92308L 16.3077,7.07693C 16.3077,6.90699 16.4454,6.76924 16.6154,6.76924L 18.4615,6.76924C 18.6315,6.76924 18.7692,6.90699 18.7692,7.07693L 18.7692,10.7692C 18.7692,10.9392 18.6315,11.0769 18.4615,11.0769L 15.0769,11.0769L 15.0769,12.3077L 19.0769,12.3077C 19.5867,12.3077 20,11.8944 20,11.3846L 20,6.46154C 20,5.95174 19.5867,5.53847 19.0769,5.53847L 16,5.53847 Z M 9.84615,13.5385C 9.33636,13.5385 8.92308,13.9517 8.92308,14.4615L 8.92308,17.5385C 8.92308,18.0483 9.33636,18.4615 9.84615,18.4615L 12.9231,18.4615C 13.4329,18.4615 13.8461,18.0483 13.8461,17.5385L 13.8461,14.4615C 13.8461,13.9517 13.4329,13.5385 12.9231,13.5385L 9.84615,13.5385 Z M 10.4615,14.7692L 12.3077,14.7692C 12.4776,14.7692 12.6154,14.907 12.6154,15.0769L 12.6154,16.9231C 12.6154,17.093 12.4776,17.2308 12.3077,17.2308L 10.4615,17.2308C 10.2916,17.2308 10.1538,17.093 10.1538,16.9231L 10.1538,15.0769C 10.1538,14.907 10.2916,14.7692 10.4615,14.7692 Z M 4.92307,13.5385C 4.41327,13.5385 4,13.9517 4,14.4615L 4,17.5385C 4,18.0483 4.41327,18.4615 4.92307,18.4615L 8.30769,18.4615L 8.30769,17.2308L 5.53845,17.2308C 5.36852,17.2308 5.23076,17.093 5.23076,16.9231L 5.23076,15.0769C 5.23076,14.907 5.36852,14.7692 5.53845,14.7692L 8.30769,14.7692L 8.30769,13.5385L 4.92307,13.5385 Z M 15.3846,13.5385C 14.8748,13.5385 14.4615,13.9517 14.4615,14.4615L 14.4615,18.4615L 15.6923,18.4615L 15.6923,15.0769C 15.6923,14.907 15.8301,14.7692 16,14.7692L 16.6154,14.7692L 16.6154,18.4615L 17.8462,18.4615L 17.8462,14.7692L 18.7692,14.7692L 18.7692,18.4615L 20,18.4615L 20,13.5385L 15.3846,13.5385 Z "/>
</svg>
