<?xml version="1.0" encoding="utf-8"?>
<!DOCTYPE svg PUBLIC "-//W3C//DTD SVG 1.1//EN" "http://www.w3.org/Graphics/SVG/1.1/DTD/svg11.dtd">
<svg xmlns="http://www.w3.org/2000/svg" xmlns:xlink="http://www.w3.org/1999/xlink" version="1.1" baseProfile="full" width="24" height="24" viewBox="0 0 24.00 24.00" enable-background="new 0 0 24.00 24.00" xml:space="preserve">
	<path fill="#000000" fill-opacity="1" stroke-width="1.33333" stroke-linejoin="miter" d="M 19.5,18C 20.3284,18 21,18.6716 21,19.5C 21,20.3284 20.3284,21 19.5,21C 18.6716,21 18,20.3284 18,19.5C 18,18.6716 18.6716,18 19.5,18 Z M 17,5.92L 11,8.98L 11,18.03C 13.84,18.19 16,19.01 16,20C 16,21.1 13.31,22 10,22C 6.69,22 4,21.1 4,20C 4,19.26 5.21,18.62 7,18.27L 7,20L 9,20L 9,2L 17,5.92 Z "/>
</svg>
