<?xml version="1.0" encoding="utf-8"?>
<!DOCTYPE svg PUBLIC "-//W3C//DTD SVG 1.1//EN" "http://www.w3.org/Graphics/SVG/1.1/DTD/svg11.dtd">
<svg xmlns="http://www.w3.org/2000/svg" xmlns:xlink="http://www.w3.org/1999/xlink" version="1.1" baseProfile="full" width="24" height="24" viewBox="0 0 24.00 24.00" enable-background="new 0 0 24.00 24.00" xml:space="preserve">
	<path fill="#000000" fill-opacity="1" stroke-width="0.2" stroke-linejoin="round" d="M 12.3959,7.55666C 9.59589,4.91167 7.30289,5.64966 6.31389,6.09867C 7.05989,5.37867 7.9399,4.79967 8.91689,4.40267C 11.6999,4.29967 14.8319,4.83767 16.5649,7.31367C 16.5649,7.31367 18.9879,11.4947 19.8559,9.65366C 20.0769,10.3967 20.2009,11.1827 20.2009,11.9977C 20.2009,12.2957 20.1819,12.5897 20.1519,12.8797C 18.1169,12.6457 15.3259,10.3247 12.3959,7.55666 Z M 19.0959,16.0957C 18.1569,16.4667 16.9849,17.0977 15.1409,17.0977C 13.2569,17.0977 11.6099,16.3477 9.56088,15.6987C 7.69789,15.1077 7.0089,14.1987 5.71889,14.1987C 5.0629,14.1987 4.73489,14.8577 4.5519,15.4137C 4.07489,14.3727 3.7999,13.2187 3.7999,11.9977C 3.7999,11.1937 3.92088,10.4187 4.13689,9.68467C 5.39989,8.09667 7.33089,7.12166 10.0939,9.25567C 10.0939,9.25567 16.3249,13.9207 19.8849,14.2307C 19.6979,14.8907 19.4319,15.5147 19.0959,16.0957 Z M 12.0009,20.1987C 10.8769,20.1987 9.80688,19.9707 8.83189,19.5627C 8.20889,18.0797 8.21889,16.9177 9.95189,17.4977C 9.95189,17.4977 13.8689,19.0167 17.9929,17.5827C 16.4959,19.1887 14.3679,20.1987 12.0009,20.1987 Z M 12.0009,1.99767C 6.47789,1.99767 2.00089,6.47466 2.00089,11.9977C 2.00089,17.5217 6.47789,21.9977 12.0009,21.9977C 17.5229,21.9977 22.0009,17.5217 22.0009,11.9977C 22.0009,6.47466 17.5229,1.99767 12.0009,1.99767 Z "/>
</svg>
