<?xml version="1.0" encoding="utf-8"?>
<!DOCTYPE svg PUBLIC "-//W3C//DTD SVG 1.1//EN" "http://www.w3.org/Graphics/SVG/1.1/DTD/svg11.dtd">
<svg xmlns="http://www.w3.org/2000/svg" xmlns:xlink="http://www.w3.org/1999/xlink" version="1.1" baseProfile="full" width="24" height="24" viewBox="0 0 24.00 24.00" enable-background="new 0 0 24.00 24.00" xml:space="preserve">
	<path fill="#000000" fill-opacity="1" stroke-width="0.2" stroke-linejoin="round" d="M 12.2992,22.2979C 8.97318,22.2979 6.84918,20.8068 6.84918,18.5978C 6.84918,16.3959 8.81219,15.6918 9.4982,15.4409C 10.8022,15.0038 12.4822,14.9459 12.7672,14.9459C 13.0732,14.9459 13.2292,14.9459 13.4752,14.9719C 15.8422,16.6638 16.8492,17.4108 16.8492,18.9979C 16.8492,20.7678 15.0262,22.2979 12.2992,22.2979 Z M 8.65118,4.31183C 8.65118,2.10187 9.9642,1.09784 11.3392,1.09784C 13.9822,1.09784 15.3482,4.54883 15.3482,6.63385C 15.3482,9.20483 13.2812,9.69788 12.4622,9.69788C 9.99319,9.69788 8.65118,6.63885 8.65118,4.31183 Z M 16.2992,13.4468L 15.2172,12.5978C 14.8552,12.2988 14.3992,11.9058 14.3992,11.1799C 14.3992,10.4468 14.9452,9.88885 15.3712,9.55884C 16.6772,8.54486 17.9382,7.46088 17.9382,5.22083C 17.9382,3.15186 16.6682,1.96387 15.9042,1.29785L 17.6492,1.29785L 18.8992,0.0478516L 12.6652,0.0478516C 8.30518,0.0478516 6.0672,2.76385 6.0672,5.77386C 6.0672,8.10187 7.8562,10.5978 11.0472,10.5978L 11.8492,10.5978C 11.7242,10.9468 11.4992,11.4379 11.4992,11.8978C 11.4992,12.9138 11.9212,13.3339 12.4212,13.8978C 11.0212,13.9888 8.4072,14.3259 6.4812,15.5038C 4.6442,16.5978 4.19919,18.1318 4.19919,19.2479C 4.19919,21.5508 6.26218,23.7479 10.7692,23.7479C 16.1192,23.7479 18.7992,20.7908 18.7992,17.8699C 18.7992,15.7148 17.6652,14.5989 16.2992,13.4468 Z "/>
</svg>
