<?xml version="1.0" encoding="utf-8"?>
<!DOCTYPE svg PUBLIC "-//W3C//DTD SVG 1.1//EN" "http://www.w3.org/Graphics/SVG/1.1/DTD/svg11.dtd">
<svg xmlns="http://www.w3.org/2000/svg" xmlns:xlink="http://www.w3.org/1999/xlink" version="1.1" baseProfile="full" width="24" height="24" viewBox="0 0 24.00 24.00" enable-background="new 0 0 24.00 24.00" xml:space="preserve">
	<path fill="#000000" fill-opacity="1" stroke-width="1.33333" stroke-linejoin="miter" d="M 23,11L 21,11L 21,9L 19,9L 19,11L 17,11L 17,13L 19,13L 19,15L 21,15L 21,13L 23,13M 8,11L 8,13.4L 12,13.4C 11.8,14.4 10.8,16.4 8,16.4C 5.6,16.4 3.7,14.4 3.7,12C 3.7,9.6 5.6,7.6 8,7.6C 9.4,7.6 10.3,8.2 10.8,8.7L 12.7,6.9C 11.5,5.7 9.9,5 8,5C 4.1,5 1,8.1 1,12C 1,15.9 4.1,19 8,19C 12,19 14.7,16.2 14.7,12.2C 14.7,11.7 14.7,11.4 14.6,11L 8,11 Z "/>
</svg>
