<?xml version="1.0" encoding="utf-8"?>
<!DOCTYPE svg PUBLIC "-//W3C//DTD SVG 1.1//EN" "http://www.w3.org/Graphics/SVG/1.1/DTD/svg11.dtd">
<svg xmlns="http://www.w3.org/2000/svg" xmlns:xlink="http://www.w3.org/1999/xlink" version="1.1" baseProfile="full" width="24" height="24" viewBox="0 0 24.00 24.00" enable-background="new 0 0 24.00 24.00" xml:space="preserve">
	<path fill="#000000" fill-opacity="1" stroke-width="1.33333" stroke-linejoin="miter" d="M 18.9844,11.0156L 18.9844,9L 11.0156,9L 11.0156,5.0156L 9,5.0156L 9,9L 5.01563,9L 5.01563,11.0156L 9,11.0156L 9,18.9844L 11.0156,18.9844L 11.0156,11.0156L 18.9844,11.0156 Z M 18.9844,3C 19.5156,3 19.9844,3.2031 20.3906,3.6094C 20.7969,4.0156 21,4.4844 21,5.0156L 21,18.9844C 21,19.5156 20.7969,19.9844 20.3906,20.3906C 19.9844,20.7969 19.5156,21 18.9844,21L 5.01563,21C 4.48437,21 4.01562,20.7969 3.60938,20.3906C 3.20313,19.9844 3,19.5156 3,18.9844L 3,5.0156C 3,4.4844 3.20313,4.0156 3.60938,3.6094C 4.01562,3.2031 4.48437,3 5.01563,3L 18.9844,3 Z "/>
</svg>
