<?xml version="1.0" encoding="utf-8"?>
<!DOCTYPE svg PUBLIC "-//W3C//DTD SVG 1.1//EN" "http://www.w3.org/Graphics/SVG/1.1/DTD/svg11.dtd">
<svg xmlns="http://www.w3.org/2000/svg" xmlns:xlink="http://www.w3.org/1999/xlink" version="1.1" baseProfile="full" width="24" height="24" viewBox="0 0 24.00 24.00" enable-background="new 0 0 24.00 24.00" xml:space="preserve">
	<path fill="#000000" fill-opacity="1" stroke-width="1.33333" stroke-linejoin="miter" d="M 9.98438,12.9844C 10.5469,12.9844 11.0234,13.1797 11.4141,13.5703C 11.8047,13.9609 12,14.4375 12,15L 12,21.9844C 12,22.1719 11.9063,22.2656 11.7188,22.2656C 11.6563,22.2656 11.5781,22.2187 11.4844,22.125L 6.98438,17.6719L 6.98438,12.9844L 9.98438,12.9844 Z M 12.5156,1.875L 17.0156,6.3281L 17.0156,11.0156L 14.0156,11.0156C 13.4531,11.0156 12.9766,10.8203 12.5859,10.4297C 12.1953,10.0391 12,9.5625 12,9L 12,2.0156C 12,1.8281 12.0938,1.7344 12.2813,1.7344C 12.3438,1.7344 12.4219,1.7812 12.5156,1.875 Z M 21.9844,12C 22.1719,12 22.2656,12.0937 22.2656,12.2812C 22.2656,12.3437 22.2188,12.4219 22.125,12.5156L 17.6719,17.0156L 12.9844,17.0156L 12.9844,14.0156C 12.9844,13.4531 13.1797,12.9766 13.5703,12.5859C 13.9609,12.1953 14.4375,12 15,12L 21.9844,12 Z M 6.32813,6.9844L 11.0156,6.9844L 11.0156,9.9844C 11.0156,10.5469 10.8203,11.0234 10.4297,11.4141C 10.0391,11.8047 9.5625,12 9,12L 2.01563,12C 1.82813,12 1.73438,11.9062 1.73438,11.7187C 1.73438,11.6562 1.78125,11.5781 1.875,11.4844L 6.32813,6.9844 Z "/>
</svg>
