<?xml version="1.0" encoding="utf-8"?>
<!DOCTYPE svg PUBLIC "-//W3C//DTD SVG 1.1//EN" "http://www.w3.org/Graphics/SVG/1.1/DTD/svg11.dtd">
<svg xmlns="http://www.w3.org/2000/svg" xmlns:xlink="http://www.w3.org/1999/xlink" version="1.1" baseProfile="full" width="24" height="24" viewBox="0 0 24.00 24.00" enable-background="new 0 0 24.00 24.00" xml:space="preserve">
	<path fill="#000000" fill-opacity="1" stroke-width="1.33333" stroke-linejoin="miter" d="M 8,3C 11.3137,3 14,5.6863 14,9C 14,12.3137 11.3137,15 8,15C 4.68629,15 2,12.3137 2,9C 2,5.6863 4.68629,3 8,3 Z M 21,8C 21.5523,8 22,8.4477 22,9C 22,9.5523 21.5523,10 21,10C 20.4477,10 20,9.5523 20,9C 20,8.4477 20.4477,8 21,8 Z M 17.5,10C 18.8807,10 20,11.1193 20,12.5C 20,13.8807 18.8807,15 17.5,15C 16.1193,15 15,13.8807 15,12.5C 15,11.1193 16.1193,10 17.5,10 Z M 17.5,16C 19.1569,16 20.5,17.3431 20.5,19C 20.5,20.6568 19.1569,22 17.5,22C 15.8431,22 14.5,20.6568 14.5,19C 14.5,17.3431 15.8431,16 17.5,16 Z "/>
</svg>
