<?xml version="1.0" encoding="utf-8"?>
<!DOCTYPE svg PUBLIC "-//W3C//DTD SVG 1.1//EN" "http://www.w3.org/Graphics/SVG/1.1/DTD/svg11.dtd">
<svg xmlns="http://www.w3.org/2000/svg" xmlns:xlink="http://www.w3.org/1999/xlink" version="1.1" baseProfile="full" width="24" height="24" viewBox="0 0 24.00 24.00" enable-background="new 0 0 24.00 24.00" xml:space="preserve">
	<path fill="#000000" fill-opacity="1" stroke-width="1.33333" stroke-linejoin="miter" d="M 15.5156,4.5C 15.5156,5.0625 15.7031,5.5391 16.0781,5.9297C 16.4531,6.3203 16.9219,6.5156 17.4844,6.5156C 18.0469,6.5156 18.5234,6.3203 18.9141,5.9297C 19.3047,5.5391 19.5,5.0625 19.5,4.5C 19.5,3.9687 19.2969,3.5 18.8906,3.0937C 18.4844,2.6875 18.0156,2.4844 17.4844,2.4844C 16.9531,2.4844 16.4922,2.6875 16.1016,3.0937C 15.7109,3.5 15.5156,3.9687 15.5156,4.5 Z M 21.9844,4.5C 21.9844,5.5 21.6094,6.6875 20.8594,8.0625C 20.1094,9.4375 19.3594,10.5625 18.6094,11.4375L 17.4844,12.75C 17.1406,12.375 16.7187,11.8906 16.2188,11.2969C 15.7188,10.7031 15.0547,9.6719 14.2266,8.2031C 13.3984,6.7344 12.9844,5.5 12.9844,4.5C 12.9844,3.25 13.4219,2.1875 14.2969,1.3125C 15.1719,0.4375 16.2344,0 17.4844,0C 18.7344,0 19.7969,0.4375 20.6719,1.3125C 21.5469,2.1875 21.9844,3.25 21.9844,4.5 Z M 21,11.5781L 21,18.9844C 21,19.5156 20.7969,19.9844 20.3906,20.3906C 19.9844,20.7969 19.5156,21 18.9844,21L 5.01563,21C 4.48437,21 4.01562,20.7969 3.60938,20.3906C 3.20313,19.9844 3,19.5156 3,18.9844L 3,5.0156C 3,4.4844 3.20313,4.0156 3.60938,3.6094C 4.01562,3.2031 4.48437,3 5.01563,3L 11.2031,3C 11.0781,3.625 11.0156,4.125 11.0156,4.5C 11.0156,5.6875 11.4375,7.0859 12.2813,8.6953C 13.125,10.3047 13.8359,11.4766 14.4141,12.2109C 14.9922,12.9453 15.5313,13.5781 16.0313,14.1094L 17.4844,15.7031L 18.9844,14.1094C 20.2656,12.4844 20.9375,11.6406 21,11.5781 Z M 9,14.4844L 9,15.8906L 11.25,15.8906C 11,16.9844 10.25,17.5312 9,17.5312C 8.3125,17.5312 7.73438,17.2812 7.26563,16.7812C 6.79688,16.2812 6.5625,15.6875 6.5625,15C 6.5625,14.3125 6.79688,13.7188 7.26563,13.2187C 7.73438,12.7187 8.3125,12.4687 9,12.4687C 9.65625,12.4687 10.1875,12.6719 10.5938,13.0781L 11.6719,12.0469C 10.9219,11.3594 10.0469,11.0156 9.04688,11.0156L 9,11.0156C 7.90625,11.0156 6.96875,11.4063 6.1875,12.1875C 5.40625,12.9688 5.01563,13.9063 5.01563,15C 5.01563,16.0937 5.40625,17.0312 6.1875,17.8125C 6.96875,18.5937 7.90625,18.9844 9,18.9844C 10.1563,18.9844 11.0859,18.625 11.7891,17.9062C 12.4922,17.1875 12.8438,16.25 12.8438,15.0937C 12.8438,14.8125 12.8281,14.6094 12.7969,14.4844L 9,14.4844 Z "/>
</svg>
