<?xml version="1.0" encoding="utf-8"?>
<!DOCTYPE svg PUBLIC "-//W3C//DTD SVG 1.1//EN" "http://www.w3.org/Graphics/SVG/1.1/DTD/svg11.dtd">
<svg xmlns="http://www.w3.org/2000/svg" xmlns:xlink="http://www.w3.org/1999/xlink" version="1.1" baseProfile="full" width="24" height="24" viewBox="0 0 24.00 24.00" enable-background="new 0 0 24.00 24.00" xml:space="preserve">
	<path fill="#000000" fill-opacity="1" stroke-width="1.33333" stroke-linejoin="miter" d="M 20,5L 10.88,5L 10,2L 4,2C 2.9,2 2,2.9 2,4L 2,17C 2,18.1 2.9,19 4,19L 11,19L 12,22L 20,22C 21.1,22 22,21.1 22,20L 22,7C 22,5.9 21.1,5 20,5 Z M 7.17,14.59C 4.92,14.59 3.08,12.76 3.08,10.5C 3.08,8.24 4.91,6.41 7.17,6.41C 8.21,6.41 9.16,6.78 9.91,7.48L 9.98,7.54L 8.75,8.72L 8.69,8.67C 8.4,8.4 7.91,8.08 7.17,8.08C 5.86,8.08 4.79,9.17 4.79,10.5C 4.79,11.83 5.86,12.92 7.17,12.92C 8.54,12.92 9.13,12.05 9.29,11.46L 7.08,11.46L 7.08,9.91L 11.03,9.91L 11.04,9.98C 11.08,10.19 11.09,10.38 11.09,10.59C 11.09,12.94 9.48,14.59 7.17,14.59 Z M 13.2,12.88C 13.53,13.48 13.94,14.06 14.39,14.58L 13.85,15.11L 13.2,12.88 Z M 13.97,12.12L 12.98,12.12L 12.67,11.08L 16.66,11.08C 16.66,11.08 16.32,12.39 15.1,13.82C 14.58,13.2 14.21,12.59 13.97,12.12 Z M 21,20C 21,20.55 20.55,21 20,21L 13,21L 15,19L 14.19,16.23L 15.11,15.31L 17.79,18L 18.52,17.27L 15.81,14.59C 16.71,13.56 17.41,12.34 17.73,11.08L 19,11.08L 19,10.04L 15.36,10.04L 15.36,9L 14.32,9L 14.32,10.04L 12.36,10.04L 11.18,6L 20,6C 20.55,6 21,6.45 21,7L 21,20 Z "/>
</svg>
