<?xml version="1.0" encoding="utf-8"?>
<!DOCTYPE svg PUBLIC "-//W3C//DTD SVG 1.1//EN" "http://www.w3.org/Graphics/SVG/1.1/DTD/svg11.dtd">
<svg xmlns="http://www.w3.org/2000/svg" xmlns:xlink="http://www.w3.org/1999/xlink" version="1.1" baseProfile="full" width="24" height="24" viewBox="0 0 24.00 24.00" enable-background="new 0 0 24.00 24.00" xml:space="preserve">
	<path fill="#000000" fill-opacity="1" stroke-width="0.2" stroke-linejoin="round" d="M 9.29919,22.2979C 5.97318,22.2979 3.84918,20.8068 3.84918,18.5978C 3.84918,16.3959 5.81219,15.6918 6.4982,15.4409C 7.80219,15.0038 9.48218,14.9459 9.76718,14.9459C 10.0732,14.9459 10.2292,14.9459 10.4752,14.9719C 12.8422,16.6638 13.8492,17.4108 13.8492,18.9979C 13.8492,20.7678 12.0262,22.2979 9.29919,22.2979 Z M 5.65118,4.31183C 5.65118,2.10187 6.9642,1.09784 8.3392,1.09784C 10.9822,1.09784 12.3482,4.54883 12.3482,6.63385C 12.3482,9.20483 10.2812,9.69788 9.46219,9.69788C 6.99319,9.69788 5.65118,6.63885 5.65118,4.31183 Z M 13.2992,13.4468L 12.2172,12.5978C 11.8552,12.2988 11.3992,11.9058 11.3992,11.1799C 11.3992,10.4468 11.9452,9.88885 12.3712,9.55884C 13.6772,8.54486 14.9382,7.46088 14.9382,5.22083C 14.9382,3.15186 13.6682,1.96387 12.9042,1.29785L 14.6492,1.29785L 15.8992,0.0478516L 9.66519,0.0478516C 5.30518,0.0478516 3.0672,2.76385 3.0672,5.77386C 3.0672,8.10187 4.8562,10.5978 8.04718,10.5978L 8.84918,10.5978C 8.72418,10.9468 8.49918,11.4379 8.49918,11.8978C 8.49918,12.9138 8.9212,13.3339 9.4212,13.8978C 8.02118,13.9888 5.4072,14.3259 3.4812,15.5038C 1.6442,16.5978 1.19919,18.1318 1.19919,19.2479C 1.19919,21.5508 3.26218,23.7479 7.7692,23.7479C 13.1192,23.7479 15.7992,20.7908 15.7992,17.8699C 15.7992,15.7148 14.6652,14.5989 13.2992,13.4468 Z M 20.9992,9.99786L 20.9992,6.99786L 18.9992,6.99786L 18.9992,9.99786L 15.9992,9.99786L 15.9992,11.9979L 18.9992,11.9979L 18.9992,14.9979L 20.9992,14.9979L 20.9992,11.9979L 23.9992,11.9979L 23.9992,9.99786L 20.9992,9.99786 Z "/>
</svg>
