<?xml version="1.0" encoding="utf-8"?>
<!DOCTYPE svg PUBLIC "-//W3C//DTD SVG 1.1//EN" "http://www.w3.org/Graphics/SVG/1.1/DTD/svg11.dtd">
<svg xmlns="http://www.w3.org/2000/svg" xmlns:xlink="http://www.w3.org/1999/xlink" version="1.1" baseProfile="full" width="24" height="24" viewBox="0 0 24.00 24.00" enable-background="new 0 0 24.00 24.00" xml:space="preserve">
	<path fill="#000000" fill-opacity="1" stroke-width="1.33333" stroke-linejoin="miter" d="M 17.681,7.221L 17.681,8.616C 17.681,9.299 17.126,9.863 16.432,9.863C 15.738,9.863 15.183,9.299 15.183,8.616L 15.183,7.221C 15.183,6.528 15.738,5.974 16.432,5.974C 17.126,5.974 17.681,6.528 17.681,7.221 Z M 13.249,8.359L 13.249,15.632C 13.249,16.315 12.694,16.879 12,16.879C 11.306,16.879 10.751,16.315 10.751,15.632L 10.751,8.359C 10.751,7.676 11.306,7.112 12,7.112C 12.694,7.112 13.249,7.676 13.249,8.359 Z M 21.998,11.302L 21.998,12.697C 21.998,13.38 21.443,13.944 20.749,13.944C 20.055,13.944 19.5,13.38 19.5,12.697L 19.5,11.302C 19.5,10.609 20.055,10.055 20.749,10.055C 21.442,10.056 21.998,10.61 21.998,11.302 Z M 4.496,11.302L 4.496,12.697C 4.496,13.38 3.941,13.944 3.247,13.944C 2.553,13.944 1.998,13.38 1.998,12.697L 1.998,11.302C 1.998,10.609 2.553,10.055 3.247,10.055C 3.941,10.056 4.496,10.61 4.496,11.302 Z M 8.818,15.377L 8.818,16.772C 8.818,17.455 8.263,18.019 7.569,18.019C 6.875,18.019 6.32,17.455 6.32,16.772L 6.32,15.377C 6.32,14.684 6.875,14.13 7.569,14.13C 8.262,14.13 8.818,14.684 8.818,15.377 Z M 13.249,19.358L 13.249,20.753C 13.249,21.436 12.694,22 12,22C 11.306,22 10.751,21.436 10.751,20.753L 10.751,19.358C 10.751,18.665 11.306,18.111 12,18.111C 12.694,18.111 13.249,18.665 13.249,19.358 Z M 13.249,3.247L 13.249,4.642C 13.249,5.325 12.694,5.889 12,5.889C 11.306,5.889 10.751,5.325 10.751,4.642L 10.751,3.247C 10.751,2.554 11.306,2 12,2C 12.694,2 13.249,2.554 13.249,3.247 Z M 17.681,12.336L 17.681,16.769C 17.681,17.462 17.126,18.016 16.432,18.016C 15.738,18.016 15.183,17.462 15.183,16.769L 15.183,12.336C 15.183,11.643 15.738,11.089 16.432,11.089C 17.126,11.09 17.681,11.644 17.681,12.336 Z M 8.818,7.221L 8.818,11.654C 8.818,12.347 8.263,12.901 7.569,12.901C 6.875,12.901 6.32,12.347 6.32,11.654L 6.32,7.221C 6.32,6.528 6.875,5.974 7.569,5.974C 8.262,5.974 8.818,6.528 8.818,7.221 Z "/>
</svg>
