<?xml version="1.0" encoding="utf-8"?>
<!DOCTYPE svg PUBLIC "-//W3C//DTD SVG 1.1//EN" "http://www.w3.org/Graphics/SVG/1.1/DTD/svg11.dtd">
<svg xmlns="http://www.w3.org/2000/svg" xmlns:xlink="http://www.w3.org/1999/xlink" version="1.1" baseProfile="full" width="24" height="24" viewBox="0 0 24.00 24.00" enable-background="new 0 0 24.00 24.00" xml:space="preserve">
	<path fill="#000000" fill-opacity="1" stroke-linejoin="round" d="M 15.44,2.56L 20.24,2.56001C 20.24,2.56001 23.12,11.36 20.24,21.52L 15.52,21.52C 15.52,21.52 15.12,16.8 13.28,12.8C 13.28,12.8 12.48,16.08 11.6,18L 6.72,18C 6.72,18 5.76,13.44 2.48,9.52001L 7.28,9.52001C 7.28,9.52001 8.16,10.4 8.88,11.6C 8.88,11.6 9.52,9.12 9.52,6.00001L 14.32,6.00001C 14.32,6.00001 15.92,8.32001 16.64,9.76001C 16.64,9.76001 16.4,6.24 15.44,2.56 Z "/>
</svg>
