<?xml version="1.0" encoding="utf-8"?>
<!DOCTYPE svg PUBLIC "-//W3C//DTD SVG 1.1//EN" "http://www.w3.org/Graphics/SVG/1.1/DTD/svg11.dtd">
<svg xmlns="http://www.w3.org/2000/svg" xmlns:xlink="http://www.w3.org/1999/xlink" version="1.1" baseProfile="full" width="24" height="24" viewBox="0 0 24.00 24.00" enable-background="new 0 0 24.00 24.00" xml:space="preserve">
	<path fill="#000000" fill-opacity="1" stroke-width="1.33333" stroke-linejoin="miter" d="M 11.9511,9.26963C 13.9585,9.26963 15.586,7.64213 15.586,5.63482C 15.586,3.627 13.9585,2 11.9511,2C 9.94333,2 8.31633,3.627 8.31633,5.63482C 8.31633,7.64213 9.94333,9.26963 11.9511,9.26963 Z M 9.36458,12.9701C 9.36458,12.9701 8.27424,15.935 7.95656,16.5147C 7.85133,16.7061 7.86636,16.7652 7.59728,16.7652C 7.3267,16.7652 6.9088,16.5147 6.9088,16.5147C 6.9088,16.5147 6.71489,16.3654 6.78855,16.1399C 7.02656,15.4033 8.12141,11.075 8.35341,10.2502C 8.60395,9.36232 9.28391,9.39439 9.28391,9.39439L 9.9313,9.39439L 12.0338,13.0442L 14.1358,9.39439L 14.9205,9.39439C 14.9205,9.39439 15.2297,9.42696 15.4627,9.70005C 15.6952,9.97464 15.7453,10.4366 15.7453,10.4366L 17.1383,15.8393C 17.1383,15.8393 17.2375,16.2181 17.2115,16.3288C 17.1749,16.4816 17.0762,16.5142 17.0762,16.5142C 17.0762,16.5142 16.6883,16.6229 16.4664,16.6946C 16.0655,16.8214 15.9863,16.437 15.9863,16.437L 14.7006,13.0437L 14.5517,22L 12.5995,22L 12.2718,16.888C 12.2718,16.888 12.2087,16.7642 12.0338,16.7642C 11.8584,16.7642 11.7973,16.8875 11.7973,16.8875L 11.4491,21.9995L 9.50489,21.9995L 9.36559,12.9701L 9.36458,12.9701 Z "/>
</svg>
