<?xml version="1.0" encoding="utf-8"?>
<!DOCTYPE svg PUBLIC "-//W3C//DTD SVG 1.1//EN" "http://www.w3.org/Graphics/SVG/1.1/DTD/svg11.dtd">
<svg xmlns="http://www.w3.org/2000/svg" xmlns:xlink="http://www.w3.org/1999/xlink" version="1.1" baseProfile="full" width="24" height="24" viewBox="0 0 24.00 24.00" enable-background="new 0 0 24.00 24.00" xml:space="preserve">
	<path fill="#000000" fill-opacity="1" stroke-linejoin="round" d="M 3,20.5L 3,3.5C 3,2.90677 3.34437,2.39398 3.84411,2.15062L 13.6905,11.9971L 3.84015,21.8474C 3.34255,21.6033 3,21.0917 3,20.5 Z M 16.8143,15.1208L 6.0479,21.3368L 14.5391,12.8456L 16.8143,15.1208 Z M 20.1609,10.8082C 20.519,11.0823 20.75,11.5142 20.75,12C 20.75,12.4785 20.526,12.9046 20.1771,13.1792L 17.8902,14.4996L 15.3876,11.9971L 17.8885,9.49618L 20.1609,10.8082 Z M 6.05421,2.66367L 16.8126,8.87502L 14.5391,11.1485L 6.05421,2.66367 Z "/>
</svg>
