<?xml version="1.0" encoding="utf-8"?>
<!DOCTYPE svg PUBLIC "-//W3C//DTD SVG 1.1//EN" "http://www.w3.org/Graphics/SVG/1.1/DTD/svg11.dtd">
<svg xmlns="http://www.w3.org/2000/svg" xmlns:xlink="http://www.w3.org/1999/xlink" version="1.1" baseProfile="full" width="24" height="24" viewBox="0 0 24.00 24.00" enable-background="new 0 0 24.00 24.00" xml:space="preserve">
	<path fill="#000000" fill-opacity="1" fill-rule="evenodd" stroke-width="0.2" stroke-linejoin="round" d="M 20.7422,6.00125L 3.20375,6.00125C 2.55375,6.00125 2.0025,6.5675 2.0025,7.27L 2.0025,17.73C 2.0025,18.4325 2.55375,18.9988 3.2325,18.9988L 8.0225,18.9988C 8.535,18.9988 8.975,18.6762 9.16,18.2125L 10.5513,14.7413C 10.7913,14.155 11.3475,13.745 12.0025,13.745C 12.6512,13.745 13.2125,14.155 13.4475,14.7413L 14.8387,18.2125C 15.025,18.6762 15.4637,18.9988 15.9525,18.9988L 20.7422,18.9988C 21.4502,18.9988 22.0025,18.4325 22.0025,17.73L 22.0025,7.27C 22.0025,6.5675 21.4502,6.00125 20.7422,6.00125 Z M 7.22125,14.575C 5.99625,14.575 5,13.55 5,12.285C 5,11.02 5.99625,10 7.22125,10C 8.4425,10 9.43375,11.02 9.43375,12.285C 9.43375,13.55 8.4425,14.575 7.22125,14.575 Z M 16.7825,14.575C 15.5562,14.575 14.565,13.55 14.565,12.285C 14.565,11.025 15.5562,10 16.7825,10C 18.0075,10 18.9988,11.025 18.9988,12.285C 18.9988,13.55 18.0075,14.575 16.7825,14.575 Z "/>
</svg>
