<?xml version="1.0" encoding="utf-8"?>
<!DOCTYPE svg PUBLIC "-//W3C//DTD SVG 1.1//EN" "http://www.w3.org/Graphics/SVG/1.1/DTD/svg11.dtd">
<svg xmlns="http://www.w3.org/2000/svg" xmlns:xlink="http://www.w3.org/1999/xlink" version="1.1" baseProfile="full" width="24" height="24" viewBox="0 0 24.00 24.00" enable-background="new 0 0 24.00 24.00" xml:space="preserve">
	<path fill="#000000" fill-opacity="1" stroke-width="0.2" stroke-linejoin="round" d="M 17.9994,18.9981C 16.8944,18.9981 15.9994,18.1031 15.9994,16.9981C 15.9994,15.8931 16.8944,14.9981 17.9994,14.9981C 19.1044,14.9981 19.9994,15.8931 19.9994,16.9981C 19.9994,18.1031 19.1044,18.9981 17.9994,18.9981 Z M 17.9994,12.9981C 15.7904,12.9981 13.9994,14.7891 13.9994,16.9981C 13.9994,19.2071 15.7904,20.9981 17.9994,20.9981C 20.2084,20.9981 21.9994,19.2071 21.9994,16.9981C 21.9994,14.7891 20.2084,12.9981 17.9994,12.9981 Z M 11.9994,11.0981C 10.9504,11.0981 10.0994,11.9492 10.0994,12.9981C 10.0994,14.0469 10.9504,14.8981 11.9994,14.8981C 13.0484,14.8981 13.8994,14.0469 13.8994,12.9981C 13.8994,11.9492 13.0484,11.0981 11.9994,11.0981 Z M 5.99941,18.9981C 4.89441,18.9981 3.99941,18.1031 3.99941,16.9981C 3.99941,15.8931 4.89441,14.9981 5.99941,14.9981C 7.10441,14.9981 7.99941,15.8931 7.99941,16.9981C 7.99941,18.1031 7.10441,18.9981 5.99941,18.9981 Z M 5.99941,12.9981C 3.79041,12.9981 1.99941,14.7891 1.99941,16.9981C 1.99941,19.2071 3.79041,20.9981 5.99941,20.9981C 8.20841,20.9981 9.99941,19.2071 9.99941,16.9981C 9.99941,14.7891 8.20841,12.9981 5.99941,12.9981 Z M 11.9994,3.99807C 13.1044,3.99807 13.9994,4.89306 13.9994,5.99807C 13.9994,7.10307 13.1044,7.99807 11.9994,7.99807C 10.8944,7.99807 9.99941,7.10307 9.99941,5.99807C 9.99941,4.89306 10.8944,3.99807 11.9994,3.99807 Z M 11.9994,9.99807C 14.2084,9.99807 15.9994,8.20707 15.9994,5.99807C 15.9994,3.78907 14.2084,1.99807 11.9994,1.99807C 9.79041,1.99807 7.99941,3.78907 7.99941,5.99807C 7.99941,8.20707 9.79041,9.99807 11.9994,9.99807 Z "/>
</svg>
