<?xml version="1.0" encoding="utf-8"?>
<!DOCTYPE svg PUBLIC "-//W3C//DTD SVG 1.1//EN" "http://www.w3.org/Graphics/SVG/1.1/DTD/svg11.dtd">
<svg xmlns="http://www.w3.org/2000/svg" xmlns:xlink="http://www.w3.org/1999/xlink" version="1.1" baseProfile="full" width="24" height="24" viewBox="0 0 24.00 24.00" enable-background="new 0 0 24.00 24.00" xml:space="preserve">
	<path fill="#000000" fill-opacity="1" stroke-width="1.33333" stroke-linejoin="miter" d="M 7,2C 3.6865,2 1,4.6865 1,8C 1,11.3135 3.6865,14 7,14C 10.3135,14 13,11.3135 13,8C 13,4.6865 10.3135,2 7,2 Z M 21.5,6C 20.6715,6 20,6.6715 20,7.5C 20,8.3285 20.6715,9 21.5,9C 22.3285,9 23,8.3285 23,7.5C 23,6.6715 22.3285,6 21.5,6 Z M 17,8C 15.343,8 14,9.343 14,11C 14,12.657 15.343,14 17,14C 18.657,14 20,12.657 20,11C 20,9.343 18.657,8 17,8 Z M 17,15C 15.067,15 13.5,16.567 13.5,18.5C 13.5,20.433 15.067,22 17,22C 18.933,22 20.5,20.433 20.5,18.5C 20.5,16.567 18.933,15 17,15 Z "/>
</svg>
