<?xml version="1.0" encoding="utf-8"?>
<!DOCTYPE svg PUBLIC "-//W3C//DTD SVG 1.1//EN" "http://www.w3.org/Graphics/SVG/1.1/DTD/svg11.dtd">
<svg xmlns="http://www.w3.org/2000/svg" xmlns:xlink="http://www.w3.org/1999/xlink" version="1.1" baseProfile="full" width="24" height="24" viewBox="0 0 24.00 24.00" enable-background="new 0 0 24.00 24.00" xml:space="preserve">
	<path fill="#000000" fill-opacity="1" stroke-width="1.33333" stroke-linejoin="miter" d="M 17,4C 19.7614,4 22,6.23858 22,9C 22,10.3807 21.4403,11.6307 20.5355,12.5355L 12,21.071L 3.46449,12.5355C 2.55967,11.6307 2,10.3807 2,9C 2,6.23858 4.23858,4 7,4C 8.38071,4 9.63074,4.55962 10.5356,5.46444L 12,6.92888L 13.4644,5.46444C 14.3693,4.55962 15.6193,4 17,4 Z M 15.5858,7.58577L 9.17157,14L 12,16.8284L 18.4142,10.4142C 18.7761,10.0523 19,9.55229 19,9C 19,7.89543 18.1046,7 17,7C 16.4477,7 15.9477,7.22383 15.5858,7.58577 Z M 8.41424,7.58577C 8.05231,7.22383 7.55229,7 7,7C 5.89543,7 5,7.89543 5,9C 5,9.55229 5.22388,10.0523 5.58581,10.4142L 7.05025,11.8786L 9.87868,9.0502L 8.41424,7.58577 Z "/>
</svg>
