<?xml version="1.0" encoding="utf-8"?>
<!DOCTYPE svg PUBLIC "-//W3C//DTD SVG 1.1//EN" "http://www.w3.org/Graphics/SVG/1.1/DTD/svg11.dtd">
<svg xmlns="http://www.w3.org/2000/svg" xmlns:xlink="http://www.w3.org/1999/xlink" version="1.1" baseProfile="full" width="24" height="24" viewBox="0 0 24.00 24.00" enable-background="new 0 0 24.00 24.00" xml:space="preserve">
	<path fill="#000000" fill-opacity="1" stroke-linejoin="round" d="M 18,1C 20.7614,1 23,3.23858 23,6C 23,8.47968 18,14 18.25,17C 18.25,17.1381 18.1381,17.25 18,17.25C 17.8619,17.25 17.75,17.1381 17.75,17C 18,14 13,8.47968 13,6C 13,3.23858 15.2386,1 18,1 Z M 18,4.00001C 16.8954,4.00001 16,4.89544 16,6.00001C 16,7.10458 16.8954,8.00001 18,8.00001C 19.1046,8.00001 20,7.10458 20,6.00001C 20,4.89544 19.1046,4.00001 18,4.00001 Z M 4,3L 12.6712,3C 12.0988,3.94205 11.7692,5.04792 11.7692,6.23077C 11.7692,7.21474 12.401,8.58293 13.2522,10.1116L 2.02805,21.3357L 2,21L 2,5C 2,3.89543 2.89543,3 4,3 Z M 16.5285,15.8749L 14.13,13.4764L 14.8157,12.7907C 15.4257,13.8235 16.0311,14.8703 16.5285,15.8749 Z M 19.4109,23L 4.6064,23L 12.0087,15.5977L 19.4109,23 Z M 22,11.412L 22,21L 21.9744,21.3208L 18.6055,17.952C 19.2325,15.9683 20.7145,13.5982 22,11.412 Z M 6.68733,12.4942C 5.63479,12.4942 4.96264,12.0224 4.96264,11.3233C 4.96264,10.6265 5.58385,10.4037 5.80094,10.3243C 6.2136,10.186 6.74523,10.1676 6.83543,10.1676L 7.05948,10.1759C 7.80854,10.7113 8.1272,10.9477 8.1272,11.4499C 8.1272,12.01 7.55031,12.4942 6.68733,12.4942 Z M 5.5329,6.80242C 5.5329,6.10306 5.94841,5.78533 6.38354,5.78533C 7.21992,5.78533 7.65219,6.87741 7.65219,7.53724C 7.65219,8.35084 6.99809,8.50687 6.73891,8.50687C 5.95758,8.50687 5.5329,7.53883 5.5329,6.80242 Z M 7.95315,9.69325L 7.61075,9.42457C 7.49619,9.32995 7.35189,9.20558 7.35189,8.97584C 7.35189,8.74387 7.52467,8.5673 7.65948,8.46286C 8.07277,8.14198 8.47183,7.79896 8.47183,7.09008C 8.47183,6.43534 8.06992,6.0594 7.82815,5.84863L 8.38037,5.84863L 8.77594,5.45306L 6.80315,5.45306C 5.4234,5.45306 4.71519,6.31256 4.71519,7.26509C 4.71519,8.0018 5.28133,8.79166 6.29112,8.79166L 6.54493,8.79166L 6.43416,9.20306C 6.43416,9.52457 6.56771,9.65749 6.72594,9.83597C 6.28289,9.86476 5.45568,9.97143 4.8462,10.3442C 4.26487,10.6904 4.12404,11.1758 4.12404,11.529C 4.12404,12.2578 4.77688,12.9531 6.20316,12.9531C 7.89619,12.9531 8.7443,12.0173 8.7443,11.0929C 8.7443,10.411 8.38543,10.0578 7.95315,9.69325 Z "/>
</svg>
