<?xml version="1.0" encoding="utf-8"?>
<!DOCTYPE svg PUBLIC "-//W3C//DTD SVG 1.1//EN" "http://www.w3.org/Graphics/SVG/1.1/DTD/svg11.dtd">
<svg xmlns="http://www.w3.org/2000/svg" xmlns:xlink="http://www.w3.org/1999/xlink" version="1.1" baseProfile="full" width="24" height="24" viewBox="0 0 24.00 24.00" enable-background="new 0 0 24.00 24.00" xml:space="preserve">
	<path fill="#000000" fill-opacity="1" stroke-width="1.33333" stroke-linejoin="miter" d="M 8.0625,7.7812C 7.5,7.7812 7.17188,7.7344 7.07813,7.6406L 6.65625,13.7344C 7.1875,14.0469 7.875,14.3047 8.71875,14.5078C 9.5625,14.7109 10.7813,14.7656 12.375,14.6719C 13.9688,14.5781 15.625,14.2344 17.3438,13.6406L 16.5469,4.2187C 15.6719,5.0937 14.375,5.9062 12.6563,6.6562C 11.125,7.3125 9.8125,7.6875 8.71875,7.7812L 8.0625,7.7812 Z M 7.96875,5.3437C 7.28125,5.9375 7,6.3438 7.125,6.5625C 7.21875,6.7812 7.70312,6.8437 8.57813,6.75C 9.67187,6.6562 10.9063,6.3125 12.2813,5.7187C 13.2188,5.3125 14.0313,4.875 14.7188,4.4062C 15.4062,3.9375 15.875,3.5469 16.125,3.2344C 16.375,2.9219 16.4688,2.7031 16.4063,2.5781C 16.3437,2.4219 16.0313,2.3437 15.4688,2.3437C 14.3438,2.3437 12.9375,2.7031 11.25,3.4219C 9.8125,4.0469 8.71875,4.6875 7.96875,5.3437 Z M 17.3438,2.2031C 17.4063,2.3281 17.4375,2.4687 17.4375,2.625L 18.6094,17.0156C 18.6094,18.7344 18.0156,20.0859 16.8281,21.0703C 15.6406,22.0547 14.0313,22.5469 12,22.5469C 10,22.5469 8.39844,22.0391 7.19531,21.0234C 5.99219,20.0078 5.39063,18.6406 5.39063,16.9219L 6.09375,6.4687C 6.09375,6.2187 6.20312,5.9375 6.42188,5.625C 6.64063,5.3125 6.84375,5.0625 7.03125,4.875L 7.35938,4.5937C 8.32813,3.7812 9.5,3.0781 10.875,2.4844C 11.8125,2.0781 12.7266,1.7734 13.6172,1.5703C 14.5078,1.3672 15.3047,1.3047 16.0078,1.3828C 16.7109,1.4609 17.1563,1.7344 17.3438,2.2031 Z "/>
</svg>
