<?xml version="1.0" encoding="utf-8"?>
<!DOCTYPE svg PUBLIC "-//W3C//DTD SVG 1.1//EN" "http://www.w3.org/Graphics/SVG/1.1/DTD/svg11.dtd">
<svg xmlns="http://www.w3.org/2000/svg" xmlns:xlink="http://www.w3.org/1999/xlink" version="1.1" baseProfile="full" width="24" height="24" viewBox="0 0 24.00 24.00" enable-background="new 0 0 24.00 24.00" xml:space="preserve">
	<path fill="#000000" fill-opacity="1" stroke-width="0.2" stroke-linejoin="round" d="M 14.9994,11.9981C 13.8944,11.9981 12.9994,12.8931 12.9994,13.9981C 12.9994,15.1016 13.8944,15.9981 14.9994,15.9981C 16.1034,15.9981 16.9994,15.1016 16.9994,13.9981C 16.9994,12.8931 16.1034,11.9981 14.9994,11.9981 Z M 11.9994,19.9981C 7.5814,19.9981 3.9994,16.4161 3.9994,11.9981C 3.9994,7.57907 7.5814,3.99807 11.9994,3.99807C 16.4174,3.99807 19.9994,7.57907 19.9994,11.9981C 19.9994,16.4161 16.4174,19.9981 11.9994,19.9981 Z M 11.9994,1.99807C 6.4764,1.99807 1.9994,6.47507 1.9994,11.9981C 1.9994,17.5211 6.4764,21.9981 11.9994,21.9981C 17.5224,21.9981 21.9994,17.5211 21.9994,11.9981C 21.9994,6.47507 17.5224,1.99807 11.9994,1.99807 Z M 13.9994,8.99807C 13.9994,7.89306 13.1034,6.99807 11.9994,6.99807C 10.8944,6.99807 9.9994,7.89306 9.9994,8.99807C 9.9994,10.1016 10.8944,10.9981 11.9994,10.9981C 13.1034,10.9981 13.9994,10.1016 13.9994,8.99807 Z M 8.9994,11.9981C 7.8954,11.9981 6.9994,12.8931 6.9994,13.9981C 6.9994,15.1016 7.8954,15.9981 8.9994,15.9981C 10.1034,15.9981 10.9994,15.1016 10.9994,13.9981C 10.9994,12.8931 10.1034,11.9981 8.9994,11.9981 Z "/>
</svg>
