<?xml version="1.0" encoding="utf-8"?>
<!DOCTYPE svg PUBLIC "-//W3C//DTD SVG 1.1//EN" "http://www.w3.org/Graphics/SVG/1.1/DTD/svg11.dtd">
<svg xmlns="http://www.w3.org/2000/svg" xmlns:xlink="http://www.w3.org/1999/xlink" version="1.1" baseProfile="full" width="24" height="24" viewBox="0 0 24.00 24.00" enable-background="new 0 0 24.00 24.00" xml:space="preserve">
	<path fill="#000000" fill-opacity="1" stroke-width="0.2" stroke-linejoin="round" d="M 5,3L 19,3C 20.1046,3 21,3.89543 21,5L 21,19C 21,20.1046 20.1046,21 19,21L 5,21C 3.89543,21 3,20.1046 3,19L 3,5C 3,3.89543 3.89543,3 5,3 Z M 19.5,12L 18,12L 18,10.5L 17,10.5L 17,12L 15.5,12L 15.5,13L 17,13L 17,14.5L 18,14.5L 18,13L 19.5,13L 19.5,12 Z M 9.64997,11.3569L 9.64997,12.8998L 12.2214,12.8998C 12.0928,13.5427 11.45,14.8284 9.64997,14.8284C 8.10711,14.8284 6.88568,13.5427 6.88568,11.9998C 6.88568,10.457 8.10711,9.17123 9.64997,9.17123C 10.55,9.17123 11.1285,9.55695 11.45,9.87838L 12.6714,8.72123C 11.9,7.9498 10.8714,7.4998 9.64997,7.4998C 7.14282,7.4998 5.14997,9.49266 5.14997,11.9998C 5.14997,14.5069 7.14282,16.4998 9.64997,16.4998C 12.2214,16.4998 13.9571,14.6998 13.9571,12.1284C 13.9571,11.8069 13.9571,11.6141 13.8928,11.3569L 9.64997,11.3569 Z "/>
</svg>
