<?xml version="1.0" encoding="utf-8"?>
<!DOCTYPE svg PUBLIC "-//W3C//DTD SVG 1.1//EN" "http://www.w3.org/Graphics/SVG/1.1/DTD/svg11.dtd">
<svg xmlns="http://www.w3.org/2000/svg" xmlns:xlink="http://www.w3.org/1999/xlink" version="1.1" baseProfile="full" width="24" height="24" viewBox="0 0 24.00 24.00" enable-background="new 0 0 24.00 24.00" xml:space="preserve">
	<path fill="#000000" fill-opacity="1" stroke-width="1.33333" stroke-linejoin="miter" d="M 12,12.1406C 11.0938,10.7656 10.1406,9.7812 9.14063,9.1875C 8.14063,8.5938 7.26563,8.3828 6.51563,8.5547C 5.76563,8.7266 5.14062,9.1406 4.64063,9.7969C 4.20312,10.3906 3.98438,11.0625 3.98438,11.8125L 3.98438,12C 3.98438,12.7813 4.10937,13.5781 4.35938,14.3906C 4.45313,14.6406 4.51563,14.6406 4.54688,14.3906C 4.67187,13.7656 4.96094,13.3125 5.41406,13.0312C 5.86719,12.75 6.46875,12.7578 7.21875,13.0547C 7.96875,13.3516 8.70313,13.9844 9.42188,14.9531C 10.7031,16.6719 12.2031,17.7187 13.9219,18.0937C 16.1406,18.4062 17.8125,17.7031 18.9375,15.9844C 19.25,15.3906 19.4844,14.8594 19.6406,14.3906C 19.7344,14.0781 19.6875,14.0469 19.5,14.2969C 19.0313,14.9219 18.3984,15.3281 17.6016,15.5156C 16.8047,15.7031 15.8906,15.5234 14.8594,14.9766C 13.8281,14.4297 12.875,13.4844 12,12.1406 Z M 16.9688,8.1562C 15.4062,5.8125 13.7187,4.4844 11.9063,4.1719C 10.4687,3.9531 8.90625,4.4531 7.21875,5.6719C 7,5.8281 6.89844,5.9141 6.91406,5.9297C 6.92969,5.9453 7.0625,5.8906 7.3125,5.7656C 9.8125,4.5469 12.2187,5.8281 14.5313,9.6094C 15.0312,10.4531 15.5547,11.1094 16.1016,11.5781C 16.6484,12.0469 17.1641,12.3281 17.6484,12.4219C 18.1328,12.5156 18.5703,12.5 18.9609,12.375C 19.3516,12.25 19.7031,12.0469 20.0156,11.7656C 20.0156,11.1719 19.9062,10.5156 19.6875,9.7969C 19.1875,9.9219 18.7422,9.8828 18.3516,9.6797C 17.9609,9.4766 17.5,8.9688 16.9688,8.1562 Z M 12,2.0156C 14.75,2.0156 17.1016,2.9922 19.0547,4.9453C 21.0078,6.8984 21.9844,9.25 21.9844,12C 21.9844,14.75 21.0078,17.1016 19.0547,19.0547C 17.1016,21.0078 14.75,21.9844 12,21.9844C 9.25,21.9844 6.89844,21.0078 4.94531,19.0547C 2.99219,17.1016 2.01563,14.75 2.01563,12C 2.01563,9.25 2.99219,6.8984 4.94531,4.9453C 6.89844,2.9922 9.25,2.0156 12,2.0156 Z "/>
</svg>
