<?xml version="1.0" encoding="utf-8"?>
<!DOCTYPE svg PUBLIC "-//W3C//DTD SVG 1.1//EN" "http://www.w3.org/Graphics/SVG/1.1/DTD/svg11.dtd">
<svg xmlns="http://www.w3.org/2000/svg" xmlns:xlink="http://www.w3.org/1999/xlink" version="1.1" baseProfile="full" width="24" height="24" viewBox="0 0 24.00 24.00" enable-background="new 0 0 24.00 24.00" xml:space="preserve">
	<path fill="#000000" fill-opacity="1" stroke-width="0.2" stroke-linejoin="round" d="M 18.9994,11.9981L 16.9994,11.9981L 16.9994,13.9981L 15.9994,13.9981L 15.9994,11.9981L 13.9994,11.9981L 13.9994,10.9981L 15.9994,10.9981L 15.9994,8.99807L 16.9994,8.99807L 16.9994,10.9981L 18.9994,10.9981M 9.06537,19.1981C 6.26941,19.1981 4.99939,17.6361 4.99939,16.1841C 4.99939,15.7321 5.14038,14.5947 6.47839,13.7981C 7.24738,13.3271 8.32739,13.0171 9.62036,12.8921C 9.4314,12.6421 9.28339,12.3447 9.28339,11.9014C 9.28339,11.7461 9.30139,11.5921 9.3374,11.4361L 8.95337,11.4361C 6.97839,11.4361 5.79938,9.88907 5.79938,8.39307C 5.79938,6.66207 7.08636,4.79807 9.91241,4.79807L 14.1264,4.79807L 13.7854,5.13907L 13.0774,5.84707L 13.0184,5.90606L 12.3024,5.90606C 12.7104,6.33007 13.1994,7.02507 13.1994,8.06507C 13.1994,9.46907 12.4614,10.1582 11.6394,10.7961C 11.4814,10.9191 11.2154,11.1771 11.2154,11.5211C 11.2154,11.8171 11.4584,12.0161 11.6094,12.1381C 11.7434,12.2481 11.9044,12.3601 12.0784,12.4811C 12.8904,13.0481 13.9994,13.8251 13.9994,15.3594C 13.9994,17.1299 12.7104,19.1981 9.06537,19.1981 Z M 19.9994,1.99807L 3.99939,1.99807C 2.89539,1.99807 2.0094,2.89306 2.0094,3.99807L 1.99939,19.9981C 1.99939,21.1016 2.89539,21.9981 3.99939,21.9981L 19.9994,21.9981C 21.1034,21.9981 21.9994,21.1016 21.9994,19.9981L 21.9994,3.99807C 21.9994,2.89306 21.1034,1.99807 19.9994,1.99807 Z M 10.5654,13.8071C 10.4634,13.7981 10.3834,13.7981 10.2514,13.7981L 10.2294,13.7981C 9.96936,13.7981 9.07642,13.8481 8.41138,14.0711C 7.7674,14.3071 6.99939,14.7931 6.99939,15.7721C 6.99939,16.8511 8.03638,17.9981 9.95941,17.9981C 11.4844,17.9981 12.3954,16.9951 12.3954,16.0251C 12.3954,15.2541 11.9374,14.7901 10.5654,13.8071 Z M 11.1994,8.87207C 11.1994,7.85307 10.5704,5.85407 9.11639,5.85407C 8.47937,5.85407 7.79938,6.29207 7.79938,7.52207C 7.79938,8.70407 8.42438,10.4541 9.7674,10.4541C 9.82538,10.4541 11.1994,10.4361 11.1994,8.87207 Z "/>
</svg>
