<?xml version="1.0" encoding="utf-8"?>
<!DOCTYPE svg PUBLIC "-//W3C//DTD SVG 1.1//EN" "http://www.w3.org/Graphics/SVG/1.1/DTD/svg11.dtd">
<svg xmlns="http://www.w3.org/2000/svg" xmlns:xlink="http://www.w3.org/1999/xlink" version="1.1" baseProfile="full" width="24" height="24" viewBox="0 0 24.00 24.00" enable-background="new 0 0 24.00 24.00" xml:space="preserve">
	<path fill="#010101" fill-opacity="1" stroke-width="1.33333" stroke-linejoin="miter" d="M 23,2L 1,2C 0.448001,2 1.27157e-006,2.448 1.27157e-006,3L 1.27157e-006,21C 1.27157e-006,21.553 0.448001,22 1,22L 23,22C 23.553,22 24,21.553 24,21L 24,3C 24,2.448 23.553,2 23,2 Z M 22,20L 20,20L 20,19L 15,19L 15,20L 2,20L 2,4L 22,4L 22,20 Z M 10.286,9.714C 10.286,8.767 11.052,8 12,8C 12.948,8 13.714,8.767 13.714,9.714C 13.714,10.662 12.947,11.428 12,11.428C 11.053,11.428 10.286,10.662 10.286,9.714 Z M 5.714,11.286C 5.714,10.575 6.289,10 7,10C 7.711,10 8.286,10.575 8.286,11.286C 8.286,11.997 7.711,12.571 7,12.571C 6.289,12.571 5.714,11.996 5.714,11.286 Z M 15.714,11.286C 15.714,10.575 16.289,10 17,10C 17.711,10 18.286,10.575 18.286,11.286C 18.286,11.997 17.711,12.571 17,12.571C 16.289,12.571 15.714,11.996 15.714,11.286 Z M 20,15.143L 20,16L 16,16L 14,16L 10,16L 8,16L 4,16L 4,15.143C 4,14.197 5.554,13.429 7,13.429C 7.549,13.429 8.113,13.541 8.602,13.73C 9.354,13.042 10.702,12.572 12,12.572C 13.298,12.572 14.646,13.041 15.398,13.73C 15.887,13.541 16.451,13.429 17,13.429C 18.446,13.429 20,14.196 20,15.143 Z "/>
</svg>
