<?xml version="1.0" encoding="utf-8"?>
<!DOCTYPE svg PUBLIC "-//W3C//DTD SVG 1.1//EN" "http://www.w3.org/Graphics/SVG/1.1/DTD/svg11.dtd">
<svg xmlns="http://www.w3.org/2000/svg" xmlns:xlink="http://www.w3.org/1999/xlink" version="1.1" baseProfile="full" width="24" height="24" viewBox="0 0 24.00 24.00" enable-background="new 0 0 24.00 24.00" xml:space="preserve">
	<path fill="#000000" fill-opacity="1" stroke-width="1.33333" stroke-linejoin="miter" d="M 2,7L 2,8.5L 3,8.5L 3,17L 4.5,17L 4.5,7C 3.69625,7.0003 2.80242,7.0007 2,7 Z M 6,7L 6.00391,7.0117L 6,16L 7,16L 7,17L 14,17L 14,16L 22,16L 22,7L 6,7 Z M 17.5,9C 18.8807,9 20,10.1193 20,11.5C 20,12.8807 18.8807,14 17.5,14C 16.1193,14 15,12.8807 15,11.5C 15,10.1193 16.1193,9 17.5,9 Z "/>
</svg>
