<?xml version="1.0" encoding="utf-8"?>
<!DOCTYPE svg PUBLIC "-//W3C//DTD SVG 1.1//EN" "http://www.w3.org/Graphics/SVG/1.1/DTD/svg11.dtd">
<svg xmlns="http://www.w3.org/2000/svg" xmlns:xlink="http://www.w3.org/1999/xlink" version="1.1" baseProfile="full" width="24" height="24" viewBox="0 0 24.00 24.00" enable-background="new 0 0 24.00 24.00" xml:space="preserve">
	<path fill="#000000" fill-opacity="1" stroke-width="1.33333" stroke-linejoin="miter" d="M 11,9L 13,9L 13,11L 11,11L 11,9 Z M 9,11L 11,11L 11,13L 9,13L 9,11 Z M 13,11L 15,11L 15,13L 13,13L 13,11 Z M 15,9L 17,9L 17,11L 15,11L 15,9 Z M 7,9L 9,9L 9,11L 7,11L 7,9 Z M 19,3L 5,3C 3.9,3 3,3.9 3,5L 3,19C 3,20.1 3.9,21 5,21L 19,21C 20.1,21 21,20.1 21,19L 21,5C 21,3.9 20.1,3 19,3 Z M 9,18L 7,18L 7,16L 9,16L 9,18 Z M 13,18L 11,18L 11,16L 13,16L 13,18 Z M 17,18L 15,18L 15,16L 17,16L 17,18 Z M 19,11L 17,11L 17,13L 19,13L 19,15L 17,15L 17,13L 15,13L 15,15L 13,15L 13,13L 11,13L 11,15L 9,15L 9,13L 7,13L 7,15L 5,15L 5,13L 7,13L 7,11L 5,11L 5,5L 19,5L 19,11 Z "/>
</svg>
