<?xml version="1.0" encoding="utf-8"?>
<!DOCTYPE svg PUBLIC "-//W3C//DTD SVG 1.1//EN" "http://www.w3.org/Graphics/SVG/1.1/DTD/svg11.dtd">
<svg xmlns="http://www.w3.org/2000/svg" xmlns:xlink="http://www.w3.org/1999/xlink" version="1.1" baseProfile="full" width="24" height="24" viewBox="0 0 24.00 24.00" enable-background="new 0 0 24.00 24.00" xml:space="preserve">
	<path fill="#000000" fill-opacity="1" stroke-width="1.33333" stroke-linejoin="miter" d="M 10,12C 8.9,12 8,12.9 8,14C 8,15.1 8.9,16 10,16C 11.1,16 12,15.1 12,14C 12,12.9 11.1,12 10,12 Z M 6,8C 4.9,8 4,8.9 4,10C 4,11.1 4.9,12 6,12C 7.1,12 8,11.1 8,10C 8,8.9 7.1,8 6,8 Z M 6,16C 4.9,16 4,16.9 4,18C 4,19.1 4.9,20 6,20C 7.1,20 8,19.1 8,18C 8,16.9 7.1,16 6,16 Z M 18,8C 19.1,8 20,7.1 20,6C 20,4.9 19.1,4 18,4C 16.9,4 16,4.9 16,6C 16,7.1 16.9,8 18,8 Z M 14,16C 12.9,16 12,16.9 12,18C 12,19.1 12.9,20 14,20C 15.1,20 16,19.1 16,18C 16,16.9 15.1,16 14,16 Z M 18,12C 16.9,12 16,12.9 16,14C 16,15.1 16.9,16 18,16C 19.1,16 20,15.1 20,14C 20,12.9 19.1,12 18,12 Z M 14,8C 12.9,8 12,8.9 12,10C 12,11.1 12.9,12 14,12C 15.1,12 16,11.1 16,10C 16,8.9 15.1,8 14,8 Z M 10,4C 8.9,4 8,4.9 8,6C 8,7.1 8.9,8 10,8C 11.1,8 12,7.1 12,6C 12,4.9 11.1,4 10,4 Z "/>
</svg>
