<?xml version="1.0" encoding="utf-8"?>
<!DOCTYPE svg PUBLIC "-//W3C//DTD SVG 1.1//EN" "http://www.w3.org/Graphics/SVG/1.1/DTD/svg11.dtd">
<svg xmlns="http://www.w3.org/2000/svg" xmlns:xlink="http://www.w3.org/1999/xlink" version="1.1" baseProfile="full" width="24" height="24" viewBox="0 0 24.00 24.00" enable-background="new 0 0 24.00 24.00" xml:space="preserve">
	<path fill="#000000" fill-opacity="1" stroke-width="1.33333" stroke-linejoin="miter" d="M 12,5.36842L 11.5566,5.30944L 6.01912,14.9006C 6.23569,15.1122 6.39542,15.3818 6.47326,15.6842L 17.5267,15.6842C 17.6046,15.3818 17.7643,15.1122 17.9809,14.9006L 12.4434,5.30944L 12,5.36842 Z M 6.60387,16.5263L 10.875,19.0624C 11.1733,18.7945 11.5676,18.6316 12,18.6316C 12.4324,18.6316 12.8267,18.7945 13.1249,19.0624L 17.3961,16.5263L 6.60387,16.5263 Z M 12,22C 11.0698,22 10.3158,21.246 10.3158,20.3158L 10.4081,19.7645L 6.11084,17.2129C 5.80211,17.5663 5.34817,17.7895 4.8421,17.7895C 3.91194,17.7895 3.15789,17.0354 3.15789,16.1053C 3.15789,15.3205 3.69464,14.6611 4.42105,14.4741L 4.42105,9.3554C 3.59025,9.2518 2.94737,8.54308 2.94737,7.68422C 2.94737,6.75405 3.70141,6.00001 4.63158,6.00001C 5.17519,6.00001 5.65866,6.25756 5.9666,6.6573L 10.376,4.13202L 10.3158,3.68421C 10.3158,2.75405 11.0698,2 12,2C 12.9302,2 13.6842,2.75405 13.6842,3.68421L 13.624,4.13202L 18.0334,6.6573C 18.3413,6.25756 18.8248,6 19.3684,6C 20.2986,6 21.0526,6.75405 21.0526,7.68421C 21.0526,8.54308 20.4097,9.25179 19.5789,9.35539L 19.5789,14.4741C 20.3054,14.6611 20.8421,15.3205 20.8421,16.1053C 20.8421,17.0354 20.0881,17.7895 19.1579,17.7895C 18.6518,17.7895 18.1979,17.5663 17.8892,17.2129L 13.5919,19.7645L 13.6842,20.3158C 13.6842,21.246 12.9302,22 12,22 Z M 10.796,4.86191L 6.29791,7.43798L 6.31579,7.68422C 6.31579,8.39104 5.88038,8.99616 5.26316,9.24601L 5.289,14.481L 10.796,4.86191 Z M 13.204,4.8619L 18.711,14.481L 18.7368,9.246C 18.1196,8.99616 17.6842,8.39103 17.6842,7.68422L 17.7021,7.43798L 13.204,4.8619 Z "/>
</svg>
