<?xml version="1.0" encoding="utf-8"?>
<!DOCTYPE svg PUBLIC "-//W3C//DTD SVG 1.1//EN" "http://www.w3.org/Graphics/SVG/1.1/DTD/svg11.dtd">
<svg xmlns="http://www.w3.org/2000/svg" xmlns:xlink="http://www.w3.org/1999/xlink" version="1.1" baseProfile="full" width="24" height="24" viewBox="0 0 24.00 24.00" enable-background="new 0 0 24.00 24.00" xml:space="preserve">
	<path fill="#000000" fill-opacity="1" stroke-width="1.33333" stroke-linejoin="miter" d="M 9.99999,2.00007L 13.9999,2.00007C 17.3137,2.00007 18.9999,4.68635 18.9999,8.00006L 19,18.6551C 16.877,17.6259 15.0734,17 12,17C 8.92658,17 7.12302,17.6259 5,18.6551L 4.99999,8.00007C 4.99999,4.68636 6.68628,2.00007 9.99999,2.00007 Z M 8,8L 8,9.5L 16,9.5L 16,8L 8,8 Z M 9,12L 9,13.5L 15,13.5L 15,12L 9,12 Z M 3,22L 3,21.3073C 5.65805,19.6237 13.2281,15.8372 21,21.2522L 21,22L 3,22 Z "/>
</svg>
