<?xml version="1.0" encoding="utf-8"?>
<!DOCTYPE svg PUBLIC "-//W3C//DTD SVG 1.1//EN" "http://www.w3.org/Graphics/SVG/1.1/DTD/svg11.dtd">
<svg xmlns="http://www.w3.org/2000/svg" xmlns:xlink="http://www.w3.org/1999/xlink" version="1.1" baseProfile="full" width="24" height="24" viewBox="0 0 24.00 24.00" enable-background="new 0 0 24.00 24.00" xml:space="preserve">
	<path fill="#000000" fill-opacity="1" stroke-width="0.2" stroke-linejoin="round" d="M 18.6225,1.49875C 18.115,1.49875 17.6025,1.69375 17.2125,2.0896L 10.7525,8.545L 14.9513,12.7438L 21.4112,6.28875C 22.1975,5.5075 22.1975,4.24375 21.4112,3.45801L 20.0391,2.0896C 19.6488,1.69375 19.1362,1.49875 18.6225,1.49875 Z M 9.795,9.5025L 3.2275,16.0687L 3.92625,16.7675C 3.39875,17.2413 2.89125,17.7838 2.3775,18.2912C 1.59625,19.0775 1.59625,20.3375 2.3775,21.1225C 3.16375,21.9037 4.42375,21.9037 5.205,21.1225C 5.7175,20.625 6.245,20.0775 6.72875,19.575L 7.43125,20.2737L 13.9937,13.7012"/>
</svg>
