<?xml version="1.0" encoding="utf-8"?>
<!DOCTYPE svg PUBLIC "-//W3C//DTD SVG 1.1//EN" "http://www.w3.org/Graphics/SVG/1.1/DTD/svg11.dtd">
<svg xmlns="http://www.w3.org/2000/svg" xmlns:xlink="http://www.w3.org/1999/xlink" version="1.1" baseProfile="full" width="24" height="24" viewBox="0 0 24.00 24.00" enable-background="new 0 0 24.00 24.00" xml:space="preserve">
	<path fill="#000000" fill-opacity="1" stroke-width="0.2" stroke-linejoin="round" d="M 10,4L 10,8L 14,8L 14,3.99999L 10,4 Z M 16,3.99999L 16,8L 20.0059,8L 20,3.99999L 16,3.99999 Z M 16,10L 16,14L 20.0147,14L 20.0088,10L 16,10 Z M 16,16L 16,20L 20.0234,20L 20.0176,16L 16,16 Z M 14,20L 14,16L 10,16L 10,20L 14,20 Z M 8.00001,20L 8.00001,16L 4.01758,16L 4.02344,20L 8.00001,20 Z M 8,14L 8,10L 4.00879,10L 4.01465,14L 8,14 Z M 8,8L 8,4L 4,4L 4.00586,8L 8,8 Z M 10,14L 14,14L 14,10L 10,10L 10,14 Z M 4,2.00001L 20,1.99999C 21.1046,1.99999 22,2.89542 22,3.99999L 22.0235,20C 22.0235,21.1046 21.128,22 20.0235,22L 4.02345,22C 2.91888,22 2.02344,21.1046 2.02344,20L 2,4C 2,2.89543 2.89543,2.00001 4,2.00001 Z "/>
</svg>
