<?xml version="1.0" encoding="utf-8"?>
<!DOCTYPE svg PUBLIC "-//W3C//DTD SVG 1.1//EN" "http://www.w3.org/Graphics/SVG/1.1/DTD/svg11.dtd">
<svg xmlns="http://www.w3.org/2000/svg" xmlns:xlink="http://www.w3.org/1999/xlink" version="1.1" baseProfile="full" width="24" height="24" viewBox="0 0 24.00 24.00" enable-background="new 0 0 24.00 24.00" xml:space="preserve">
	<path fill="#000000" fill-opacity="1" stroke-width="0.2" stroke-linejoin="round" d="M 4,2.00001L 20,2C 21.1046,2 22,2.89542 22,3.99999L 22.0234,20C 22.0234,21.1046 21.128,22 20.0234,22L 4.02344,22C 2.91887,22 2.02344,21.1046 2.02344,20L 2,4C 2,2.89543 2.89543,2.00001 4,2.00001 Z M 4,4L 4,11L 11,11L 11,4L 4,4 Z M 4,20L 11,20L 11,13L 4,13L 4,20 Z M 20,20L 20,13L 13,13L 13,20L 20,20 Z M 20,4L 13,4L 13,11L 20,11L 20,4 Z "/>
</svg>
