<?xml version="1.0" encoding="utf-8"?>
<!DOCTYPE svg PUBLIC "-//W3C//DTD SVG 1.1//EN" "http://www.w3.org/Graphics/SVG/1.1/DTD/svg11.dtd">
<svg xmlns="http://www.w3.org/2000/svg" xmlns:xlink="http://www.w3.org/1999/xlink" version="1.1" baseProfile="full" width="24" height="24" viewBox="0 0 24.00 24.00" enable-background="new 0 0 24.00 24.00" xml:space="preserve">
	<path fill="#000000" fill-opacity="1" stroke-width="1.33333" stroke-linejoin="miter" d="M 8.063,2.016C 7.875,3.172 8.172,4.156 8.953,4.969C 9.453,5.469 9.609,6.141 9.422,6.984L 10.406,6.984C 10.531,6.454 10.546,5.977 10.453,5.554C 10.359,5.133 10.047,4.625 9.516,4.031C 9.046,3.469 8.891,2.797 9.046,2.016L 8.063,2.016 Z M 10.547,2.016C 10.359,3.172 10.657,4.156 11.437,4.969C 11.937,5.469 12.094,6.141 11.907,6.984L 12.891,6.984C 13.016,6.454 13.031,5.977 12.937,5.554C 12.844,5.133 12.531,4.625 12,4.031C 11.531,3.469 11.375,2.797 11.531,2.016L 10.547,2.016 Z M 13.078,2.016C 12.891,3.172 13.188,4.156 13.968,4.969C 14.468,5.469 14.609,6.141 14.391,6.984L 15.421,6.984C 15.547,6.454 15.563,5.977 15.469,5.554C 15.375,5.133 15.063,4.625 14.531,4.031C 14.062,3.469 13.906,2.797 14.062,2.016L 13.078,2.016 Z M 5.016,8.016C 5.016,9.422 5.391,10.696 6.141,11.836C 6.87204,12.9606 7.91436,13.8483 9.141,14.391L 5.156,20.437C 5.063,20.562 5.016,20.75 5.016,21C 5.016,21.406 5.156,21.688 5.437,21.844C 5.562,21.937 5.75,21.984 6,21.984C 6.406,21.984 6.688,21.844 6.844,21.562L 7.828,19.969L 14.203,19.969C 14.4115,20.5489 14.7865,21.0543 15.281,21.422C 15.781,21.797 16.359,21.984 17.016,21.984C 17.828,21.984 18.531,21.687 19.125,21.094C 19.719,20.5 20.015,19.797 20.015,18.984C 20.015,18.172 19.719,17.469 19.125,16.875C 18.531,16.281 17.828,15.985 17.015,15.985C 16.359,15.985 15.781,16.172 15.281,16.547C 14.781,16.922 14.421,17.407 14.203,18L 9.141,18L 11.109,14.953C 11.266,14.984 11.563,15 12,15C 12.438,15 12.734,14.984 12.89,14.953L 13.875,16.5C 14.2865,15.9572 14.8373,15.5359 15.469,15.281L 14.906,14.391C 16.031,13.891 16.992,13.016 17.789,11.766C 18.586,10.516 18.984,9.266 18.984,8.016L 5.016,8.016 Z M 17.016,18C 17.296,18 17.531,18.094 17.719,18.281C 17.9056,18.4665 18.0073,18.7209 18,18.984C 18,19.266 17.906,19.508 17.719,19.711C 17.5404,19.9104 17.2836,20.0218 17.016,20.016C 16.7419,20.0191 16.4788,19.9087 16.289,19.711C 16.0913,19.5212 15.9809,19.2581 15.984,18.984C 15.984,18.704 16.086,18.469 16.289,18.281C 16.492,18.094 16.734,18 17.016,18 Z "/>
</svg>
