<?xml version="1.0" encoding="utf-8"?>
<!DOCTYPE svg PUBLIC "-//W3C//DTD SVG 1.1//EN" "http://www.w3.org/Graphics/SVG/1.1/DTD/svg11.dtd">
<svg xmlns="http://www.w3.org/2000/svg" xmlns:xlink="http://www.w3.org/1999/xlink" version="1.1" baseProfile="full" width="24" height="24" viewBox="0 0 24.00 24.00" enable-background="new 0 0 24.00 24.00" xml:space="preserve">
	<path fill="#000000" fill-opacity="1" stroke-linejoin="round" d="M 8,8L 8,12L 13,12L 13,8L 8,8 Z M 1,1L 5,1L 5,2L 19,2L 19,1L 23,1L 23,5L 22,5L 22,19L 23,19L 23,23L 19,23L 19,22L 5,22L 5,23L 1,23L 1,19L 2,19L 2,5L 1,5L 1,1 Z M 5,19L 5,20L 19,20L 19,19L 20,19L 20,5.00001L 19,5.00001L 19,4.00001L 5,4.00001L 5,5.00001L 4,5.00001L 4,19L 5,19 Z M 6,6.00001L 15,6.00001L 15,10L 18,10L 18,18L 8,18L 8,14L 6,14L 6,6.00001 Z M 15,14L 10,14L 10,16L 16,16L 16,12L 15,12L 15,14 Z "/>
</svg>
