<?xml version="1.0" encoding="utf-8"?>
<!DOCTYPE svg PUBLIC "-//W3C//DTD SVG 1.1//EN" "http://www.w3.org/Graphics/SVG/1.1/DTD/svg11.dtd">
<svg xmlns="http://www.w3.org/2000/svg" xmlns:xlink="http://www.w3.org/1999/xlink" version="1.1" baseProfile="full" width="24" height="24" viewBox="0 0 24.00 24.00" enable-background="new 0 0 24.00 24.00" xml:space="preserve">
	<path fill="#000000" fill-opacity="1" stroke-width="1.33333" stroke-linejoin="miter" d="M 1.00125,1.0007L 1.00125,5L 2.0025,5L 2.0025,18.9988L 1.00125,18.9988L 1.00125,22.9975L 5,22.9975L 5,22.0025L 18.9988,22.0025L 18.9988,22.9975L 22.9975,22.9975L 22.9975,18.9988L 22.0025,18.9988L 22.0025,5L 22.9975,5L 22.9975,1.0007L 18.9988,1.0007L 18.9988,2.0025L 5,2.0025L 5,1.0007M 5,3.9987L 18.9988,3.9987L 18.9988,5L 20,5L 20,18.9988L 18.9988,18.9988L 18.9988,20L 5,20L 5,18.9988L 3.99875,18.9988L 3.99875,5L 5,5M 6.00125,6.0012L 6.00125,13.9987L 8.99875,13.9987L 8.99875,17.9975L 17.9975,17.9975L 17.9975,8.9987L 13.9987,8.9987L 13.9987,6.0012M 7.9975,7.9975L 12.0025,7.9975L 12.0025,12.0025L 7.9975,12.0025M 13.9987,11.0012L 16.0012,11.0012L 16.0012,16.0012L 11.0013,16.0012L 11.0013,13.9987L 13.9987,13.9987"/>
</svg>
