<?xml version="1.0" encoding="utf-8"?>
<!DOCTYPE svg PUBLIC "-//W3C//DTD SVG 1.1//EN" "http://www.w3.org/Graphics/SVG/1.1/DTD/svg11.dtd">
<svg xmlns="http://www.w3.org/2000/svg" xmlns:xlink="http://www.w3.org/1999/xlink" version="1.1" baseProfile="full" width="24" height="24" viewBox="0 0 24.00 24.00" enable-background="new 0 0 24.00 24.00" xml:space="preserve">
	<path fill="#000000" fill-opacity="1" stroke-width="1.33333" stroke-linejoin="miter" d="M 19.586,3L 22,3L 22,5L 20.414,5L 15.117,10.293L 13.711,8.9006L 19.586,3 Z M 11.984,9C 12.256,9 12.517,9.1008 12.709,9.3008L 14.709,11.301C 14.885,11.495 14.985,11.73 14.985,11.981L 14.895,12.4L 10.895,20.4C 10.711,20.75 10.356,20.925 10,20.925C 9.6451,20.925 9.2897,20.75 9.1055,20.4L 7.2539,16.699L 3.5527,14.9C 3.1767,14.7 2.9887,14.35 2.9887,14C 2.9887,13.65 3.1767,13.3 3.5527,13.1L 11.553,9.1C 11.687,8.9996 11.835,9 11.984,9 Z M 9.3535,11.816L 8.6465,12.523L 11.477,15.354L 12.184,14.646L 9.3535,11.816 Z M 7.9395,13.23L 7.2324,13.938L 10.062,16.768L 10.77,16.061L 7.9395,13.23 Z "/>
</svg>
