<?xml version="1.0" encoding="UTF-8" standalone="no"?>
<svg
   xmlns:dc="http://purl.org/dc/elements/1.1/"
   xmlns:cc="http://creativecommons.org/ns#"
   xmlns:rdf="http://www.w3.org/1999/02/22-rdf-syntax-ns#"
   xmlns:svg="http://www.w3.org/2000/svg"
   xmlns="http://www.w3.org/2000/svg"
   xmlns:sodipodi="http://sodipodi.sourceforge.net/DTD/sodipodi-0.dtd"
   xmlns:inkscape="http://www.inkscape.org/namespaces/inkscape"
   version="1.1"
   width="24"
   height="24"
   viewBox="0 0 24.00 24.00"
   enable-background="new 0 0 24.00 24.00"
   xml:space="preserve"
   id="svg2"
   inkscape:version="0.48.5 r10040"
   sodipodi:docname="template.svg"><metadata
     id="metadata22"><rdf:RDF><cc:Work
         rdf:about=""><dc:format>image/svg+xml</dc:format><dc:type
           rdf:resource="http://purl.org/dc/dcmitype/StillImage" /><dc:title></dc:title></cc:Work></rdf:RDF></metadata><defs
     id="defs20" /><sodipodi:namedview
     pagecolor="#ffffff"
     bordercolor="#666666"
     borderopacity="1"
     objecttolerance="10"
     gridtolerance="10"
     guidetolerance="10"
     inkscape:pageopacity="0"
     inkscape:pageshadow="2"
     inkscape:window-width="927"
     inkscape:window-height="1028"
     id="namedview18"
     showgrid="false"
     inkscape:zoom="6.9532167"
     inkscape:cx="19.770073"
     inkscape:cy="6.6556315"
     inkscape:window-x="992"
     inkscape:window-y="24"
     inkscape:window-maximized="0"
     inkscape:current-layer="svg2" /><path
     style="fill:#000000;fill-opacity:1;fill-rule:evenodd;stroke:none;display:inline"
     d="m 20.517681,1.9999996 -1.866711,2.0784019 0.174917,0.1837807 -8.374756,7.9025828 c -0.223266,0.210684 -1.0037009,0.58819 -1.1879372,0.112756 -0.4496119,-1.160219 0.9695282,-1.269579 0.7360383,-1.472674 -1.0570099,-0.522465 -2.2711633,0.373997 -2.3323836,0.420759 -0.7294864,0.557216 -1.178378,1.208213 -1.4086933,1.90109 -0.3024581,0.909911 -1.0878645,1.018722 -1.5234295,1.046399 -1.0899623,0.06926 -1.7332319,0.355572 -2.2412104,1.06075 -0.223593,0.310379 -0.5926204,0.788703 -0.4686964,1.729076 0.1399142,1.061743 0.9216069,2.368887 1.530844,3.021586 0.6540865,0.700752 1.4979773,1.39918 2.2495616,1.76749 0.5398903,0.264568 0.8749241,0.332923 1.6647686,0.129505 0.6997788,-0.18023 1.3909612,-0.73727 1.6784325,-1.48567 0.2441547,-0.635644 0.2668348,-1.100495 0.3790105,-1.614245 0.1457828,-0.66765 0.2282363,-0.796378 0.9377699,-1.100409 0.676837,-0.290013 1.023986,-0.329955 1.579977,-0.90275 0.396298,-0.408281 0.597353,-0.852098 0.712966,-1.319084 0.09783,-0.395115 0.1718,-0.898105 -0.02076,-0.963633 -0.172026,-0.144523 -0.470072,0.814255 -1.176712,0.364982 -0.509302,-0.323814 -0.451602,-1.116369 -0.01512,-1.573721 2.868781,-2.908004 5.205057,-5.2843356 8.085391,-8.1951543 l 0.226776,0.2239517 2.125203,-1.8133538 z"
     id="path1366"
     inkscape:connector-curvature="0"
     sodipodi:nodetypes="cccsscssssssssssssscsccccc"
     inkscape:transform-center-x="-9.9421939"
     inkscape:transform-center-y="-10.042299" /></svg>
