<?xml version="1.0" encoding="utf-8"?>
<!DOCTYPE svg PUBLIC "-//W3C//DTD SVG 1.1//EN" "http://www.w3.org/Graphics/SVG/1.1/DTD/svg11.dtd">
<svg xmlns="http://www.w3.org/2000/svg" xmlns:xlink="http://www.w3.org/1999/xlink" version="1.1" baseProfile="full" width="24" height="24" viewBox="0 0 24.00 24.00" enable-background="new 0 0 24.00 24.00" xml:space="preserve">
	<path fill="#000000" fill-opacity="1" stroke-width="1.33333" stroke-linejoin="miter" d="M 19.586,3L 22,3L 22,5L 20.414,5L 16.166,9.2422C 15.7958,8.6831 15.317,8.2042 14.758,7.834L 19.586,3 Z M 12,8C 14.2091,8 16,9.7909 16,12C 15.9991,13.8233 14.7654,15.4152 13,15.871L 13,16C 13,18.761 10.761,21 8,21C 5.2386,21 3,18.761 3,16C 3,13.239 5.2386,11 8,11L 8.1289,11.012C 8.58011,9.2418 10.1732,8.0023 12,8 Z M 12,10.5C 11.1716,10.5 10.5,11.1716 10.5,12C 10.5,12.8284 11.1716,13.5 12,13.5C 12.8284,13.5 13.5,12.8284 13.5,12C 13.5,11.1716 12.8284,10.5 12,10.5 Z M 6.9375,14.236L 6.2305,14.943L 9.0586,17.771L 9.7656,17.064L 6.9375,14.236 Z "/>
</svg>
