<?xml version="1.0" encoding="utf-8"?>
<!DOCTYPE svg PUBLIC "-//W3C//DTD SVG 1.1//EN" "http://www.w3.org/Graphics/SVG/1.1/DTD/svg11.dtd">
<svg xmlns="http://www.w3.org/2000/svg" xmlns:xlink="http://www.w3.org/1999/xlink" version="1.1" baseProfile="full" width="24" height="24" viewBox="0 0 24.00 24.00" enable-background="new 0 0 24.00 24.00" xml:space="preserve">
	<path fill="#000000" fill-opacity="1" stroke-width="1.33333" stroke-linejoin="miter" d="M 21,13C 21,17.9667 16.9667,22 12,22C 7.03333,22 3,17.9667 3,13L 3.025,4.425C 5.67917,2.88333 8.7625,2 12.0458,2C 15.3042,2 18.3625,2.86667 21,4.38333L 21,13 Z M 13,19.9292C 16.3917,19.4417 19,16.525 19,13L 19,5.5875C 16.8958,4.57083 14.5375,4 12.0458,4C 9.49583,4 7.08333,4.6 4.94167,5.6625L 5,13C 5.02083,16.5042 7.625,19.4375 11,19.9292L 11,18L 13,18L 13,19.9292 Z M 11,16L 8,16L 6,13L 9,14L 10,14L 11,13L 13,13L 14,14L 15,14L 18,13L 16,16L 13,16L 12,15L 11,16 Z M 5.975,9.025C 6.6375,8.4 7.52083,8.04583 8.4875,8.04583C 9.45417,8.04583 10.3375,8.4 11,9.025C 10.3375,9.65 9.45417,10 8.4875,10C 7.52083,10 6.6375,9.65 5.975,9.025 Z M 12.975,9.025C 13.6375,8.4 14.5208,8.04583 15.4875,8.04583C 16.4542,8.04583 17.3375,8.4 18,9.025C 17.3375,9.65 16.4542,10 15.4875,10C 14.5208,10 13.6375,9.65 12.975,9.025 Z "/>
</svg>
