<?xml version="1.0" encoding="utf-8"?>
<!DOCTYPE svg PUBLIC "-//W3C//DTD SVG 1.1//EN" "http://www.w3.org/Graphics/SVG/1.1/DTD/svg11.dtd">
<svg xmlns="http://www.w3.org/2000/svg" xmlns:xlink="http://www.w3.org/1999/xlink" version="1.1" baseProfile="full" width="24" height="24" viewBox="0 0 24.00 24.00" enable-background="new 0 0 24.00 24.00" xml:space="preserve">
	<path fill="#000000" fill-opacity="1" stroke-width="1.33333" stroke-linejoin="miter" d="M 3.98438,15.9844L 6.98438,15.9844L 6.98438,21.9844L 3.98438,21.9844L 3.98438,15.9844 Z M 18.9844,2.3906C 18.9219,3.8594 18.5469,5.1328 17.8594,6.2109C 17.1719,7.2891 16.2188,8.0156 15,8.3906L 15,21.9844L 12.9844,21.9844L 12.9844,15.9844L 11.0156,15.9844L 11.0156,21.9844L 9,21.9844L 9,10.0781C 8.71875,10.1719 8.51563,10.2813 8.39063,10.4062C 7.45313,11.1562 6.98438,12.1875 6.98438,13.5L 6.98438,14.0156L 5.01563,14.0156L 5.01563,13.5C 5.01563,11.5312 5.71875,9.9375 7.125,8.7187C 8.53125,7.5625 10.1563,6.9844 12,6.9844C 13.4063,6.9844 14.5625,6.6406 15.4688,5.9531C 16.5,5.1094 17.0156,3.9531 17.0156,2.4844L 17.0156,2.0156L 18.9844,2.0156L 18.9844,2.3906 Z M 12,2C 13.1046,2 14,2.89543 14,4C 14,5.10457 13.1046,6 12,6C 10.8954,6 10,5.10457 10,4C 10,2.89543 10.8954,2 12,2 Z "/>
</svg>
