<?xml version="1.0" encoding="utf-8"?>
<!DOCTYPE svg PUBLIC "-//W3C//DTD SVG 1.1//EN" "http://www.w3.org/Graphics/SVG/1.1/DTD/svg11.dtd">
<svg xmlns="http://www.w3.org/2000/svg" xmlns:xlink="http://www.w3.org/1999/xlink" version="1.1" baseProfile="full" width="24" height="24" viewBox="0 0 24.00 24.00" enable-background="new 0 0 24.00 24.00" xml:space="preserve">
	<path fill="#000000" fill-opacity="1" stroke-width="1.33333" stroke-linejoin="miter" d="M 16,5L 19,8L 18.5,8.5C 19.5,9.5 20,10 20.5,9.5L 22,11C 22,12 20.5,13.5 19.5,13.5L 18,12C 18.5,11.5 18,11 17,10L 16,11L 13,8C 14.5,6 13,4 9,5C 10,4 11,3 12,3C 12.5,3 14,3 16,5 Z M 2,20L 4,22L 14,12L 12,10L 2,20 Z "/>
</svg>
