<?xml version="1.0" encoding="utf-8"?>
<!DOCTYPE svg PUBLIC "-//W3C//DTD SVG 1.1//EN" "http://www.w3.org/Graphics/SVG/1.1/DTD/svg11.dtd">
<svg xmlns="http://www.w3.org/2000/svg" xmlns:xlink="http://www.w3.org/1999/xlink" version="1.1" baseProfile="full" width="24" height="24" viewBox="0 0 24.00 24.00" enable-background="new 0 0 24.00 24.00" xml:space="preserve">
	<path fill="#000000" fill-opacity="1" stroke-width="1.33333" stroke-linejoin="miter" d="M 7,19L 15,19L 15,22L 7,22L 7,19 Z M 16.146,12L 16.146,11.998L 12.966,10.34C 12.82,10.34 12.686,10.397 12.598,10.495L 12.298,10.807L 12.885,13.233L 11.913,13.468L 10.715,8.523L 9.254,9.175L 10.294,13.468L 9.322,13.703L 8.325,9.588L 7.85,9.8C 7.35,10 7,10.53 7,11.14L 7,15.5C 7,16.3 7.73,17 8.5,17L 15,17C 15.39,17 15.74,16.84 16,16.57L 16.482,16.157C 16.482,16.157 17,15.782 17,15.36L 17.019,13.701C 17.019,13.701 17.015,12.557 16.146,12 Z M 16.938,1.021C 16.397,0.907999 15.868,1.255 15.755,1.796L 14.687,7.969C 14.474,7.935 14.378,7.861 14.084,7.829L 13.654,7.875L 12.413,1.802C 12.304,1.261 11.776,0.910997 11.235,1.02C 10.694,1.129 10.344,1.657 10.453,2.198L 11.648,8.108L 11.645,8.11L 12.024,9.674C 12.281,9.466 12.614,9.34 12.967,9.34L 13.313,9.34L 16.314,10.953L 17.715,2.204C 17.826,1.663 17.479,1.134 16.938,1.021 Z "/>
</svg>
