<?xml version="1.0" encoding="utf-8"?>
<!DOCTYPE svg PUBLIC "-//W3C//DTD SVG 1.1//EN" "http://www.w3.org/Graphics/SVG/1.1/DTD/svg11.dtd">
<svg xmlns="http://www.w3.org/2000/svg" xmlns:xlink="http://www.w3.org/1999/xlink" version="1.1" baseProfile="full" width="24" height="24" viewBox="0 0 24.00 24.00" enable-background="new 0 0 24.00 24.00" xml:space="preserve">
	<path fill="#000000" fill-opacity="1" stroke-width="1.33333" stroke-linejoin="miter" d="M 6.576,19L 14.576,19L 14.576,22L 6.576,22L 6.576,19 Z M 19.736,11.6C 19.546,11.4 19.286,11.28 18.996,11.28L 18.776,11.31L 15.576,13L 15.576,11.826L 16.087,2.897C 16.119,2.346 15.697,1.873 15.146,1.842C 14.595,1.811 14.122,2.232 14.091,2.783L 13.822,7.47L 13.576,7.47L 12.537,7.582L 12.537,2C 12.537,1.448 12.089,1 11.537,1C 10.985,1 10.537,1.448 10.537,2L 10.537,8.414L 9.717,8.78L 9.027,3.318C 8.958,2.77 8.458,2.382 7.91,2.451C 7.362,2.52 6.974,3.02 7.043,3.568L 7.809,9.63L 7.426,9.8C 7.295,9.853 7.175,9.93 7.068,10.024L 5.968,6.112C 5.808,5.538 5.246,5.195 4.714,5.344C 4.183,5.494 3.882,6.079 4.044,6.653L 6.607,15.77C 6.614,15.804 6.625,15.836 6.635,15.869L 6.671,15.995L 6.677,15.993C 6.897,16.566 7.472,17 8.076,17L 14.576,17C 14.966,17 15.316,16.84 15.576,16.57L 20.476,12.37L 19.736,11.6 Z "/>
</svg>
