<?xml version="1.0" encoding="utf-8"?>
<!DOCTYPE svg PUBLIC "-//W3C//DTD SVG 1.1//EN" "http://www.w3.org/Graphics/SVG/1.1/DTD/svg11.dtd">
<svg xmlns="http://www.w3.org/2000/svg" xmlns:xlink="http://www.w3.org/1999/xlink" version="1.1" baseProfile="full" width="24" height="24" viewBox="0 0 24.00 24.00" enable-background="new 0 0 24.00 24.00" xml:space="preserve">
	<path fill="#000000" fill-opacity="1" stroke-width="1.33333" stroke-linejoin="miter" d="M 13.299,19.262L 18.956,13.605L 21.077,15.726L 15.42,21.383L 13.299,19.262 Z M 16.482,11.13L 13.399,8.047C 13.274,7.922 13.13,7.83 12.98,7.757L 11.879,3.467C 11.742,2.932 11.197,2.61 10.662,2.747C 10.127,2.884 9.805,3.429 9.942,3.964L 10.986,8.033L 10.985,8.033L 8.673,3.188C 8.436,2.689 7.839,2.477 7.34,2.714C 6.841,2.951 6.629,3.547 6.866,4.046L 8.555,7.586L 5.187,4.249C 4.795,3.86 4.162,3.862 3.773,4.254C 3.384,4.646 3.387,5.28 3.779,5.669L 7.51,9.366L 6.801,9.638L 5.716,10.068L 3.813,11.394C 3.813,11.394 3.011,12.437 2.928,12.888C 2.845,13.339 3.716,15.604 3.716,15.604L 3.728,15.6C 3.888,15.938 4.227,16.175 4.626,16.175C 5.178,16.175 5.626,15.727 5.626,15.175C 5.626,15.08 5.597,14.995 5.572,14.908L 5.588,14.902L 5.011,13.172L 6.23,12.188C 6.7,12.213 7.708,12.29 8.204,12.316C 10.928,14.769 8.35,15.726 8.35,15.726L 4.892,16.794L 4.715,16.928C 4.51,17.133 4.411,17.402 4.418,17.678L 4.439,18.746L 10.874,18.251C 11.249,18.258 11.609,18.124 11.885,17.848L 16.481,13.252C 17.026,12.707 17.047,11.696 16.482,11.13 Z "/>
</svg>
