<?xml version="1.0" encoding="utf-8"?>
<!DOCTYPE svg PUBLIC "-//W3C//DTD SVG 1.1//EN" "http://www.w3.org/Graphics/SVG/1.1/DTD/svg11.dtd">
<svg xmlns="http://www.w3.org/2000/svg" xmlns:xlink="http://www.w3.org/1999/xlink" version="1.1" baseProfile="full" width="24" height="24" viewBox="0 0 24.00 24.00" enable-background="new 0 0 24.00 24.00" xml:space="preserve">
	<path fill="#000000" fill-opacity="1" stroke-width="1.33333" stroke-linejoin="miter" d="M 9.9,21L 9.9,11L 6.7,12.69L 6.48,12.72C 6.19,12.72 5.93,12.6 5.74,12.4L 5,11.63L 9.9,7.43C 10.16,7.16 10.51,7 10.9,7L 17.4,7C 18.17,7 18.9,7.7 18.9,8.5L 18.9,12.86C 18.9,13.47 18.55,14 18.05,14.2L 13.11,16.4L 11.9,16.53L 11.9,21C 11.9,21.552 11.452,22 10.9,22C 10.348,22 9.9,21.552 9.9,21M 18.9,5L 10.9,5L 10.9,2L 18.9,2L 18.9,5 Z "/>
</svg>
