<?xml version="1.0" encoding="utf-8"?>
<!DOCTYPE svg PUBLIC "-//W3C//DTD SVG 1.1//EN" "http://www.w3.org/Graphics/SVG/1.1/DTD/svg11.dtd">
<svg xmlns="http://www.w3.org/2000/svg" xmlns:xlink="http://www.w3.org/1999/xlink" version="1.1" baseProfile="full" width="24" height="24" viewBox="0 0 24.00 24.00" enable-background="new 0 0 24.00 24.00" xml:space="preserve">
	<path fill="#000000" fill-opacity="1" stroke-width="1.33333" stroke-linejoin="miter" d="M 3,9L 13,9L 11.31,5.8L 11.28,5.58C 11.28,5.29 11.4,5.03 11.6,4.84L 12.37,4.1L 16.57,9C 16.84,9.26 17,9.61 17,10L 17,16.5C 17,17.27 16.3,18 15.5,18L 11.14,18C 10.53,18 10,17.65 9.8,17.15L 7.6,12.21L 7.47,11L 3,11C 2.448,11 2,10.552 2,10C 2,9.448 2.448,9 3,9M 19,18L 19,10L 22,10L 22,18L 19,18 Z "/>
</svg>
