<?xml version="1.0" encoding="utf-8"?>
<!DOCTYPE svg PUBLIC "-//W3C//DTD SVG 1.1//EN" "http://www.w3.org/Graphics/SVG/1.1/DTD/svg11.dtd">
<svg xmlns="http://www.w3.org/2000/svg" xmlns:xlink="http://www.w3.org/1999/xlink" version="1.1" baseProfile="full" width="24" height="24" viewBox="0 0 24.00 24.00" enable-background="new 0 0 24.00 24.00" xml:space="preserve">
	<path fill="#000000" fill-opacity="1" stroke-width="1.33333" stroke-linejoin="miter" d="M 21,6.583L 21,18.666C 21,20.5 19.5,22 17.667,22L 11.584,22C 10.684,22 9.834,21.642 9.209,21.008L 2.667,14.358C 2.667,14.358 3.717,13.333 3.75,13.316C 3.933,13.158 4.158,13.074 4.408,13.074C 4.591,13.074 4.758,13.124 4.908,13.207C 4.941,13.215 8.5,15.257 8.5,15.257L 8.5,5.333C 8.5,4.641 9.058,4.083 9.75,4.083C 10.442,4.083 11,4.642 11,5.333L 11,11.166L 11.833,11.166L 11.833,3.25C 11.833,2.558 12.391,2 13.083,2C 13.775,2 14.333,2.558 14.333,3.25L 14.333,11.167L 15.166,11.167L 15.166,4.083C 15.166,3.391 15.724,2.833 16.416,2.833C 17.108,2.833 17.666,3.391 17.666,4.083L 17.666,11.166L 18.5,11.166L 18.5,6.583C 18.5,5.891 19.058,5.333 19.75,5.333C 20.442,5.333 21,5.892 21,6.583 Z "/>
</svg>
