<?xml version="1.0" encoding="utf-8"?>
<!DOCTYPE svg PUBLIC "-//W3C//DTD SVG 1.1//EN" "http://www.w3.org/Graphics/SVG/1.1/DTD/svg11.dtd">
<svg xmlns="http://www.w3.org/2000/svg" xmlns:xlink="http://www.w3.org/1999/xlink" version="1.1" baseProfile="full" width="24" height="24" viewBox="0 0 24.00 24.00" enable-background="new 0 0 24.00 24.00" xml:space="preserve">
	<path fill="#000000" fill-opacity="1" stroke-width="1.33333" stroke-linejoin="miter" d="M 3,6.583L 3,18.666C 3,20.5 4.5,22 6.333,22L 12.416,22C 13.316,22 14.166,21.642 14.791,21.008L 21.333,14.358C 21.333,14.358 20.283,13.333 20.25,13.316C 20.067,13.158 19.842,13.074 19.592,13.074C 19.409,13.074 19.242,13.124 19.092,13.207C 19.059,13.215 15.5,15.257 15.5,15.257L 15.5,5.333C 15.5,4.641 14.942,4.083 14.25,4.083C 13.558,4.083 13,4.642 13,5.333L 13,11.166L 12.167,11.166L 12.167,3.25C 12.167,2.558 11.609,2 10.917,2C 10.225,2 9.667,2.558 9.667,3.25L 9.667,11.167L 8.834,11.167L 8.834,4.083C 8.834,3.391 8.276,2.833 7.584,2.833C 6.892,2.833 6.334,3.391 6.334,4.083L 6.334,11.166L 5.5,11.166L 5.5,6.583C 5.5,5.891 4.942,5.333 4.25,5.333C 3.558,5.333 3,5.892 3,6.583 Z "/>
</svg>
