<?xml version="1.0" encoding="utf-8"?>
<!DOCTYPE svg PUBLIC "-//W3C//DTD SVG 1.1//EN" "http://www.w3.org/Graphics/SVG/1.1/DTD/svg11.dtd">
<svg xmlns="http://www.w3.org/2000/svg" xmlns:xlink="http://www.w3.org/1999/xlink" version="1.1" baseProfile="full" width="24" height="24" viewBox="0 0 24.00 24.00" enable-background="new 0 0 24.00 24.00" xml:space="preserve">
	<path fill="#000000" fill-opacity="1" stroke-width="1.33333" stroke-linejoin="miter" d="M 14,3L 14,13L 17.2,11.31L 17.42,11.28C 17.71,11.28 17.97,11.4 18.16,11.6L 18.9,12.37L 14,16.57C 13.74,16.84 13.39,17 13,17L 6.5,17C 5.73,17 5,16.3 5,15.5L 5,11.14C 5,10.53 5.35,10 5.85,9.8L 10.79,7.6L 12,7.47L 12,3C 12,2.448 12.448,2 13,2C 13.552,2 14,2.448 14,3M 5,19L 13,19L 13,22L 5,22L 5,19 Z "/>
</svg>
