<?xml version="1.0" encoding="utf-8"?>
<!DOCTYPE svg PUBLIC "-//W3C//DTD SVG 1.1//EN" "http://www.w3.org/Graphics/SVG/1.1/DTD/svg11.dtd">
<svg xmlns="http://www.w3.org/2000/svg" xmlns:xlink="http://www.w3.org/1999/xlink" version="1.1" baseProfile="full" width="24" height="24" viewBox="0 0 24.00 24.00" enable-background="new 0 0 24.00 24.00" xml:space="preserve">
	<path fill="#000000" fill-opacity="1" stroke-width="1.33333" stroke-linejoin="miter" d="M 11.5,2C 6.80566,2 3,5.80569 3,10.5C 3,15.1943 6.80566,19 11.5,19L 12,19L 12,22.5C 16.8594,20.1563 20,15 20,10.5C 20,5.80569 16.1943,2 11.5,2 Z M 11,11L 10,13L 9,13L 10,11L 8,11L 8,8L 11,8L 11,11 Z M 15,11L 14,13L 13,13L 14,11L 12,11L 12,8L 15,8L 15,11 Z "/>
</svg>
