<?xml version="1.0" encoding="utf-8"?>
<!DOCTYPE svg PUBLIC "-//W3C//DTD SVG 1.1//EN" "http://www.w3.org/Graphics/SVG/1.1/DTD/svg11.dtd">
<svg xmlns="http://www.w3.org/2000/svg" xmlns:xlink="http://www.w3.org/1999/xlink" version="1.1" baseProfile="full" width="24" height="24" viewBox="0 0 24.00 24.00" enable-background="new 0 0 24.00 24.00" xml:space="preserve">
	<path fill="#000000" fill-opacity="1" stroke-width="0.2" stroke-linejoin="round" d="M 14.9994,10.9981L 13.9994,12.9981L 12.4994,12.9981L 13.4994,10.9981L 11.9994,10.9981L 11.9994,7.99807L 14.9994,7.99807M 10.9994,10.9981L 9.99941,12.9981L 8.49941,12.9981L 9.49941,10.9981L 7.99941,10.9981L 7.99941,7.99807L 10.9994,7.99807M 11.4994,1.99807C 6.80541,1.99807 2.99941,5.80407 2.99941,10.4981C 2.99941,15.1921 6.80541,18.9981 11.4994,18.9981L 11.9994,18.9981L 11.9994,22.4981C 16.8584,20.1541 19.9994,14.9981 19.9994,10.4981C 19.9994,5.80407 16.1934,1.99807 11.4994,1.99807 Z "/>
</svg>
