<?xml version="1.0" encoding="utf-8"?>
<!DOCTYPE svg PUBLIC "-//W3C//DTD SVG 1.1//EN" "http://www.w3.org/Graphics/SVG/1.1/DTD/svg11.dtd">
<svg xmlns="http://www.w3.org/2000/svg" xmlns:xlink="http://www.w3.org/1999/xlink" version="1.1" baseProfile="full" width="24" height="24" viewBox="0 0 24.00 24.00" enable-background="new 0 0 24.00 24.00" xml:space="preserve">
	<g>
		<path fill="#000000" fill-opacity="1" stroke-width="1.33333" stroke-linejoin="miter" d="M 9.87,12.15L 9,6.46C 10.9521,5.8407 13.0479,5.8407 15,6.46L 14.13,12.15C 14.0552,12.643 13.6286,13.0056 13.13,13L 10.86,13C 10.3651,13.0007 9.94423,12.6393 9.87,12.15 Z M 22,16L 22,16C 21.9988,15.2059 21.5278,14.4877 20.8,14.17C 20.3221,11.8617 18.9577,9.833 17,8.52L 15.24,13.34C 15.0968,13.7359 14.721,13.9998 14.3,14L 9.7,14C 9.27897,13.9998 8.90315,13.7359 8.76,13.34L 7,8.52C 5.04445,9.8307 3.68029,11.8554 3.2,14.16C 2.46882,14.4791 1.99722,15.2022 2,16L 8.45,17.84C 8.80791,17.9409 9.17814,17.9914 9.55,17.99L 14.43,17.99C 14.8019,17.9914 15.1721,17.9409 15.53,17.84L 22,16 Z "/>
	</g>
</svg>
