<?xml version="1.0" encoding="utf-8"?>
<!DOCTYPE svg PUBLIC "-//W3C//DTD SVG 1.1//EN" "http://www.w3.org/Graphics/SVG/1.1/DTD/svg11.dtd">
<svg xmlns="http://www.w3.org/2000/svg" xmlns:xlink="http://www.w3.org/1999/xlink" version="1.1" baseProfile="full" width="24" height="24" viewBox="0 0 24.00 24.00" enable-background="new 0 0 24.00 24.00" xml:space="preserve">
	<path fill="#000000" fill-opacity="1" stroke-width="1.33333" stroke-linejoin="miter" d="M 19.107,11.916C 19.126,11.707 19.136,11.497 19.136,11.285C 19.136,7.857 17.708,4.145 16.28,4.145C 14.852,4.145 13.424,5.573 11.996,5.573C 10.568,5.573 9.14,4.145 7.712,4.145C 6.284,4.145 4.856,7.789 4.856,11.285C 4.856,11.499 4.864,11.707 4.884,11.916C 7.218,12.448 9.602,12.717 11.996,12.713C 14.452,12.713 16.834,12.438 19.107,11.916 Z M 3.451,18.176C 9.021,19.854 14.964,19.855 20.536,18.179C 20.959,18.039 21.327,17.769 21.59,17.409C 21.851,17.049 21.994,16.615 21.997,16.17C 22,15.724 21.864,15.289 21.607,14.924C 21.349,14.56 20.985,14.286 20.563,14.141C 17.859,14.99 14.98,15.449 11.996,15.449C 9.011,15.449 6.134,14.992 3.431,14.142C 3.012,14.29 2.65,14.565 2.393,14.927C 2.137,15.29 2,15.724 2,16.168C 2,17.115 2.611,17.896 3.449,18.182L 3.451,18.176 Z "/>
</svg>
