<?xml version="1.0" encoding="utf-8"?>
<!DOCTYPE svg PUBLIC "-//W3C//DTD SVG 1.1//EN" "http://www.w3.org/Graphics/SVG/1.1/DTD/svg11.dtd">
<svg xmlns="http://www.w3.org/2000/svg" xmlns:xlink="http://www.w3.org/1999/xlink" version="1.1" baseProfile="full" width="24" height="24" viewBox="0 0 24.00 24.00" enable-background="new 0 0 24.00 24.00" xml:space="preserve">
	<path fill="#000000" fill-opacity="1" stroke-width="1.33333" stroke-linejoin="miter" d="M 21,11.5L 21,10.5C 21,9.7 20.3,9 19.5,9L 16,9L 16,15L 17.5,15L 17.5,13L 18.6,13L 19.5,15L 21,15L 20.1,12.9C 20.6,12.6 21,12.1 21,11.5 Z M 19.5,11.5L 17.5,11.5L 17.5,10.5L 19.5,10.5L 19.5,11.5 Z M 6.5,11L 4.5,11L 4.5,9L 3,9L 3,15L 4.5,15L 4.5,12.5L 6.5,12.5L 6.5,15L 8,15L 8,9L 6.5,9L 6.5,11 Z M 13,9L 9.5,9L 9.5,15L 13,15C 13.8,15 14.5,14.3 14.5,13.5L 14.5,10.5C 14.5,9.7 13.8,9 13,9 Z M 13,13.5L 11,13.5L 11,10.5L 13,10.5L 13,13.5 Z "/>
</svg>
