<?xml version="1.0" encoding="utf-8"?>
<!DOCTYPE svg PUBLIC "-//W3C//DTD SVG 1.1//EN" "http://www.w3.org/Graphics/SVG/1.1/DTD/svg11.dtd">
<svg xmlns="http://www.w3.org/2000/svg" xmlns:xlink="http://www.w3.org/1999/xlink" version="1.1" baseProfile="full" width="24" height="24" viewBox="0 0 24.00 24.00" enable-background="new 0 0 24.00 24.00" xml:space="preserve">
	<path fill="#000000" fill-opacity="1" stroke-width="1.33333" stroke-linejoin="miter" d="M 12,1C 7.02944,1 3,5.0294 3,10L 3,17C 3,17.62 3.19,18.1899 3.5,18.6699L 9,13.1797L 9,12L 5,12L 5,10C 5,6.134 8.13401,3 12,3C 14,3 15.7691,3.8206 17.0391,5.1406L 18.4492,3.7207C 16.8192,2.0407 14.53,1 12,1 Z M 21.2207,3.5L 3.5,21.2207L 4.76953,22.5L 7.26953,20L 9,20L 9,18.2695L 15,12.2695L 15,20L 18,20C 19.6569,20 21,18.6568 21,17L 21,10C 21,8.89 20.7997,7.8198 20.4297,6.8398L 22.5,4.7695L 21.2207,3.5 Z M 18.8301,8.4395C 18.9401,8.9395 19,9.46 19,10L 19,12L 15.2695,12L 18.8301,8.4395 Z "/>
</svg>
