<?xml version="1.0" encoding="utf-8"?>
<!DOCTYPE svg PUBLIC "-//W3C//DTD SVG 1.1//EN" "http://www.w3.org/Graphics/SVG/1.1/DTD/svg11.dtd">
<svg xmlns="http://www.w3.org/2000/svg" xmlns:xlink="http://www.w3.org/1999/xlink" version="1.1" baseProfile="full" width="24" height="24" viewBox="0 0 24.00 24.00" enable-background="new 0 0 24.00 24.00" xml:space="preserve">
	<path fill="#000000" fill-opacity="1" stroke-width="0.2" stroke-linejoin="round" d="M 11.9994,0.998068C 16.9704,0.998068 20.9994,5.02706 20.9994,9.99807L 20.9994,16.9981C 20.9994,18.6551 19.6564,19.9981 17.9994,19.9981L 14.9994,19.9981L 14.9994,11.9981L 18.9994,11.9981L 18.9994,9.99807C 18.9994,6.13206 15.8654,2.99807 11.9994,2.99807C 8.13339,2.99807 4.9994,6.13206 4.9994,9.99807L 4.9994,11.9981L 8.9994,11.9981L 8.9994,19.9981L 5.9994,19.9981C 4.3424,19.9981 2.9994,18.6551 2.9994,16.9981L 2.9994,9.99807C 2.9994,5.02706 7.02841,0.998068 11.9994,0.998068 Z M 15,24L 15,22L 17,22L 17,24L 15,24 Z M 11,24L 11,22L 13,22L 13,24L 11,24 Z M 7,24L 7,22L 9,22L 9,24L 7,24 Z "/>
</svg>
