<?xml version="1.0" encoding="utf-8"?>
<!DOCTYPE svg PUBLIC "-//W3C//DTD SVG 1.1//EN" "http://www.w3.org/Graphics/SVG/1.1/DTD/svg11.dtd">
<svg xmlns="http://www.w3.org/2000/svg" xmlns:xlink="http://www.w3.org/1999/xlink" version="1.1" baseProfile="full" width="24" height="24" viewBox="0 0 24.00 24.00" enable-background="new 0 0 24.00 24.00" xml:space="preserve">
	<path fill="#000000" fill-opacity="1" stroke-width="0.2" stroke-linejoin="miter" d="M 12,1C 16.9706,1 21,5.0294 21,10L 21,17C 21,17.62 20.81,18.1899 20.5,18.6699L 15,13.1797L 15,12L 19,12L 19,10C 19,6.134 15.866,3 12,3C 10,3 8.2309,3.8206 6.9609,5.1406L 5.5508,3.7207C 7.1808,2.0407 9.47,1 12,1 Z M 2.7793,3.5L 20.5,21.2207L 19.2305,22.5L 16.7305,20L 15,20L 15,18.2695L 9,12.2695L 9,20L 6,20C 4.3431,20 3,18.6569 3,17L 3,10C 3,8.89 3.2003,7.8198 3.5703,6.8398L 1.5,4.7695L 2.7793,3.5 Z M 5.1699,8.4395C 5.0599,8.9395 5,9.46 5,10L 5,12L 8.7305,12L 5.1699,8.4395 Z "/>
</svg>
