<?xml version="1.0" encoding="utf-8"?>
<!DOCTYPE svg PUBLIC "-//W3C//DTD SVG 1.1//EN" "http://www.w3.org/Graphics/SVG/1.1/DTD/svg11.dtd">
<svg xmlns="http://www.w3.org/2000/svg" xmlns:xlink="http://www.w3.org/1999/xlink" version="1.1" baseProfile="full" width="24" height="24" viewBox="0 0 24.00 24.00" enable-background="new 0 0 24.00 24.00" xml:space="preserve">
	<path fill="#000000" fill-opacity="1" stroke-width="1.33333" stroke-linejoin="miter" d="M 8,6C 4.68629,6 2,8.6863 2,12L 2,16.8008C 2,17.4608 2.53922,18 3.19922,18L 6,18L 6,14L 4,14L 4,12C 4,9.7909 5.79086,8 8,8C 10.2091,8 12,9.7909 12,12L 12,14L 10,14L 10,18L 12.8008,18C 13.4629,17.9996 13.9996,17.4629 14,16.8008L 14,12C 14,8.6863 11.3137,6 8,6 Z M 19,7L 19,10.7891L 16.7109,8.5L 16,9.209L 18.7891,12L 16,14.7891L 16.7109,15.5L 19,13.209L 19,17L 19.5,17L 22.3496,14.1406L 20.2109,12L 22.3496,9.8496L 19.5,7L 19,7 Z M 20,8.9102L 20.9395,9.8496L 20,10.7891L 20,8.9102 Z M 20,13.209L 20.9395,14.1406L 20,15.0801L 20,13.209 Z "/>
</svg>
