<?xml version="1.0" encoding="utf-8"?>
<!DOCTYPE svg PUBLIC "-//W3C//DTD SVG 1.1//EN" "http://www.w3.org/Graphics/SVG/1.1/DTD/svg11.dtd">
<svg xmlns="http://www.w3.org/2000/svg" xmlns:xlink="http://www.w3.org/1999/xlink" version="1.1" baseProfile="full" width="24" height="24" viewBox="0 0 24.00 24.00" enable-background="new 0 0 24.00 24.00" xml:space="preserve">
	<path fill="#000000" fill-opacity="1" stroke-width="0.2" stroke-linejoin="round" d="M 1.49939,4.76848L 3.56993,6.83902C 3.20149,7.82192 3.00001,8.88644 3.00001,9.99807L 3.00001,19.9981C 3.00001,21.6551 4.34301,22.9981 6.00001,22.9981L 12,22.9981L 12,20.9981L 5.00001,20.9981L 5.00001,19.9981L 9.00001,19.9981L 9.00001,12.2691L 15,18.2691L 15,19.9981L 16.729,19.9981L 19.2309,22.5L 20.4994,21.2229L 2.7765,3.50001L 1.49939,4.76848 Z M 12,0.998072C 9.46877,0.998072 7.18177,2.04274 5.54659,3.7245L 6.96114,5.13906C 8.23428,3.81909 10.0213,2.99807 12,2.99807C 15.866,2.99807 19,6.13206 19,9.99807L 19,11.9981L 15,11.9981L 15,13.1779L 20.4917,18.6696C 20.8127,18.1919 21,17.6169 21,16.9981L 21,9.99807C 21,5.02706 16.971,0.998072 12,0.998072 Z M 5.00001,11.9981L 5.00001,9.99807C 5.00001,9.46345 5.05995,8.94282 5.17346,8.44255L 8.72898,11.9981L 5.00001,11.9981 Z "/>
</svg>
