<?xml version="1.0" encoding="utf-8"?>
<!DOCTYPE svg PUBLIC "-//W3C//DTD SVG 1.1//EN" "http://www.w3.org/Graphics/SVG/1.1/DTD/svg11.dtd">
<svg xmlns="http://www.w3.org/2000/svg" xmlns:xlink="http://www.w3.org/1999/xlink" version="1.1" baseProfile="full" width="24" height="24" viewBox="0 0 24.00 24.00" enable-background="new 0 0 24.00 24.00" xml:space="preserve">
	<path fill="#000000" fill-opacity="1" stroke-width="0.2" stroke-linejoin="round" d="M 7.1994,17.9981C 6.5364,17.9981 5.9994,17.4611 5.9994,16.7981L 5.9994,13.1981L 5.9994,11.9981C 5.9994,8.69005 8.6914,5.99807 11.9994,5.99807C 15.3074,5.99807 17.9994,8.69005 17.9994,11.9981L 17.9994,13.1981L 17.9994,16.7981C 17.9994,17.4611 17.4624,17.9981 16.7994,17.9981L 13.9994,17.9981L 13.9994,13.9981L 15.9994,13.9981L 15.9994,11.9981C 15.9994,9.79207 14.2054,7.99807 11.9994,7.99807C 9.79341,7.99807 7.9994,9.79207 7.9994,11.9981L 7.9994,13.9981L 9.9994,13.9981L 9.9994,17.9981M 18.9994,2.99807L 4.9994,2.99807C 3.8944,2.99807 2.9994,3.89406 2.9994,4.99807L 2.9994,18.9981C 2.9994,20.1021 3.8944,20.9981 4.9994,20.9981L 18.9994,20.9981C 20.1034,20.9981 20.9994,20.1021 20.9994,18.9981L 20.9994,4.99807C 20.9994,3.89406 20.1034,2.99807 18.9994,2.99807 Z "/>
</svg>
