<?xml version="1.0" encoding="utf-8"?>
<!DOCTYPE svg PUBLIC "-//W3C//DTD SVG 1.1//EN" "http://www.w3.org/Graphics/SVG/1.1/DTD/svg11.dtd">
<svg xmlns="http://www.w3.org/2000/svg" xmlns:xlink="http://www.w3.org/1999/xlink" version="1.1" baseProfile="full" width="24" height="24" viewBox="0 0 24.00 24.00" enable-background="new 0 0 24.00 24.00" xml:space="preserve">
	<path fill="#000000" fill-opacity="1" stroke-width="0.2" stroke-linejoin="round" d="M 11.9993,21.35L 10.5503,20.0331C 5.40133,15.361 1.99933,12.274 1.99933,8.49798C 1.99933,5.41399 4.4153,2.99798 7.49933,2.99798C 8.16538,2.99798 8.82075,3.11625 9.43722,3.33386L 13,9.35011L 9,14.3501L 11.9998,21.3496L 11.9993,21.35 Z M 16.4993,2.99798C 19.5833,2.99798 21.9993,5.41399 21.9993,8.49798C 21.9993,12.274 18.5973,15.361 13.4483,20.0331L 12.0002,21.3493L 11,14.3501L 15.5,9.35012L 12.8528,4.26896C 13.8743,3.47236 15.1654,2.99798 16.4993,2.99798 Z "/>
</svg>
