<?xml version="1.0" encoding="utf-8"?>
<!DOCTYPE svg PUBLIC "-//W3C//DTD SVG 1.1//EN" "http://www.w3.org/Graphics/SVG/1.1/DTD/svg11.dtd">
<svg xmlns="http://www.w3.org/2000/svg" xmlns:xlink="http://www.w3.org/1999/xlink" version="1.1" baseProfile="full" width="24" height="24" viewBox="0 0 24.00 24.00" enable-background="new 0 0 24.00 24.00" xml:space="preserve">
	<path fill="#000000" fill-opacity="1" stroke-width="1.33333" stroke-linejoin="miter" d="M 7.5,5C 7.7,5 7.9,5 8.1,5.1L 10.5,9.2L 6.8,13.8C 5.1,11.8 4,10.2 4,8.5C 4,6.5 5.5,5 7.5,5M 7.5,3C 4.4,3 2,5.4 2,8.5C 2,12.3 5.4,15.4 10.6,20L 12,21.3L 9,14.3L 13,9.3L 9.4,3.3C 8.8,3.1 8.2,3 7.5,3 Z M 16.5,5C 18.5,5 20,6.5 20,8.5C 20,11.1 17.4,13.7 13.4,17.3L 13.1,15L 17.9,9.7L 15.6,5.2C 15.9,5 16.2,5 16.5,5M 16.5,3C 15.2,3 13.9,3.5 12.9,4.3L 15.5,9.4L 11,14.4L 12,21.4L 13.4,20.1C 18.6,15.4 22,12.3 22,8.6C 22,5.4 19.6,3 16.5,3 Z "/>
</svg>
