<?xml version="1.0" encoding="utf-8"?>
<!DOCTYPE svg PUBLIC "-//W3C//DTD SVG 1.1//EN" "http://www.w3.org/Graphics/SVG/1.1/DTD/svg11.dtd">
<svg xmlns="http://www.w3.org/2000/svg" xmlns:xlink="http://www.w3.org/1999/xlink" version="1.1" baseProfile="full" width="24" height="24" viewBox="0 0 24.00 24.00" enable-background="new 0 0 24.00 24.00" xml:space="preserve">
	<path fill="#000000" fill-opacity="1" stroke-width="0.2" stroke-linejoin="round" d="M 16.4994,4.99821C 15.0226,4.99821 13.5799,5.91286 13,7.19763L 13,17.7386C 17.2489,13.871 19.9994,11.2017 19.9994,8.49821C 19.9994,6.50326 18.4944,4.99821 16.4994,4.99821 Z M 16.4994,2.99821C 19.5834,2.99821 21.9994,5.41422 21.9994,8.49821C 21.9994,12.2733 18.5974,15.3602 13.4484,20.0333L 11.9994,21.3493L 10.5504,20.0333C 5.40141,15.3602 1.99939,12.2733 1.99939,8.49821C 1.99939,5.41422 4.41536,2.99821 7.49939,2.99821C 9.2404,2.99821 10.9084,3.80526 11.9994,5.08423C 13.0904,3.80526 14.7584,2.99821 16.4994,2.99821 Z "/>
</svg>
