<?xml version="1.0" encoding="utf-8"?>
<!DOCTYPE svg PUBLIC "-//W3C//DTD SVG 1.1//EN" "http://www.w3.org/Graphics/SVG/1.1/DTD/svg11.dtd">
<svg xmlns="http://www.w3.org/2000/svg" xmlns:xlink="http://www.w3.org/1999/xlink" version="1.1" baseProfile="full" width="24" height="24" viewBox="0 0 24.00 24.00" enable-background="new 0 0 24.00 24.00" xml:space="preserve">
	<path fill="#000000" fill-opacity="1" stroke-width="0.2" stroke-linejoin="round" d="M 12.1044,18.5522L 11.9994,18.6472L 11.8944,18.5522C 7.14038,14.2372 3.99939,11.3873 3.99939,8.49823C 3.99939,6.50323 5.50439,4.99823 7.49939,4.99823C 9.03738,4.99823 10.5384,5.99023 11.0664,7.35925L 12.9324,7.35925C 13.4604,5.99023 14.9614,4.99823 16.4994,4.99823C 18.4944,4.99823 19.9994,6.50323 19.9994,8.49823C 19.9994,11.3873 16.8584,14.2372 12.1044,18.5522 Z M 16.4994,2.99823C 14.7584,2.99823 13.0904,3.80524 11.9994,5.08423C 10.9084,3.80524 9.24039,2.99823 7.49939,2.99823C 4.41537,2.99823 1.99939,5.41425 1.99939,8.49823C 1.99939,12.2733 5.4014,15.3602 10.5504,20.0333L 11.9994,21.3492L 13.4484,20.0333C 18.5974,15.3602 21.9994,12.2733 21.9994,8.49823C 21.9994,5.41425 19.5834,2.99823 16.4994,2.99823 Z "/>
</svg>
