<?xml version="1.0" encoding="utf-8"?>
<!DOCTYPE svg PUBLIC "-//W3C//DTD SVG 1.1//EN" "http://www.w3.org/Graphics/SVG/1.1/DTD/svg11.dtd">
<svg xmlns="http://www.w3.org/2000/svg" xmlns:xlink="http://www.w3.org/1999/xlink" version="1.1" baseProfile="full" width="24" height="24" viewBox="0 0 24.00 24.00" enable-background="new 0 0 24.00 24.00" xml:space="preserve">
	<path fill="#000000" fill-opacity="1" stroke-width="0.2" stroke-linejoin="round" d="M 0.999999,4.26849L 2.27711,3.00001L 20,20.7229L 18.7315,22L 15.1758,18.4443L 13.4484,20.0326L 11.9994,21.3497L 10.5504,20.0326C 5.40141,15.3607 1.99939,12.2736 1.99939,8.49764C 1.99939,7.55184 2.22662,6.66887 2.63066,5.89914L 0.999999,4.26849 Z M 7.49939,2.99764C 9.2404,2.99764 10.9084,3.80567 11.9994,5.08366C 13.0904,3.80567 14.7584,2.99764 16.4994,2.99764C 19.5834,2.99764 21.9994,5.41366 21.9994,8.49764C 21.9994,11.0682 20.4227,13.3195 17.7916,15.9689L 5.27367,3.45099C 5.95094,3.1588 6.70289,2.99764 7.49939,2.99764 Z "/>
</svg>
