<?xml version="1.0" encoding="utf-8"?>
<!DOCTYPE svg PUBLIC "-//W3C//DTD SVG 1.1//EN" "http://www.w3.org/Graphics/SVG/1.1/DTD/svg11.dtd">
<svg xmlns="http://www.w3.org/2000/svg" xmlns:xlink="http://www.w3.org/1999/xlink" version="1.1" baseProfile="full" width="24" height="24" viewBox="0 0 24.00 24.00" enable-background="new 0 0 24.00 24.00" xml:space="preserve">
	<path fill="#000000" fill-opacity="1" stroke-width="1.33333" stroke-linejoin="miter" d="M 12,21.1L 10.5,22.4C 3.9,16.5 0.500001,13.4 0.500001,9.6C 0.500001,8.4 0.900001,7.3 1.5,6.4C 1.5,6.6 1.5,6.8 1.5,7C 1.5,11.7 5.4,15.2 12,21.1 Z M 13.6,17C 18.3,12.7 21.5,9.9 21.6,7C 21.6,5 20.1,3.5 18.1,3.5C 16.5,3.5 15,4.5 14.5,5.9L 12.6,5.9C 12,4.5 10.5,3.5 9,3.5C 7,3.5 5.5,5 5.5,7C 5.5,9.9 8.6,12.7 13.4,17L 13.5,17.1M 18,1.5C 21.1,1.5 23.5,3.9 23.5,7C 23.5,10.7 20.1,13.8 13.5,19.8C 6.9,13.9 3.5,10.8 3.5,7C 3.5,3.9 5.9,1.5 9,1.5C 10.7,1.5 12.4,2.3 13.5,3.6C 14.6,2.3 16.3,1.5 18,1.5 Z "/>
</svg>
