<?xml version="1.0" encoding="utf-8"?>
<!DOCTYPE svg PUBLIC "-//W3C//DTD SVG 1.1//EN" "http://www.w3.org/Graphics/SVG/1.1/DTD/svg11.dtd">
<svg xmlns="http://www.w3.org/2000/svg" xmlns:xlink="http://www.w3.org/1999/xlink" version="1.1" baseProfile="full" width="24" height="24" viewBox="0 0 24.00 24.00" enable-background="new 0 0 24.00 24.00" xml:space="preserve">
	<path fill="#000000" fill-opacity="1" stroke-linejoin="round" d="M 3,3.00001L 17,3.00001L 17,5.00001L 3,5.00001L 3,3.00001 Z M 23,6.00001L 23,10.5L 14.75,12.1985C 14.9113,12.6008 15,13.0401 15,13.5C 15,14.8962 14.1825,16.1015 13,16.6632L 13,17L 13,19L 16,19L 16,21L 4,21C 2.34314,21 0.999999,19.6569 0.999999,18L 1,17L 3,17L 3,18C 3,18.5523 3.44771,19 4,19L 5,19L 5,16.7439C 3.25221,16.1262 2,14.4593 2,12.5C 2,10.0147 4.01471,8.00001 6.49999,8.00001L 9,8.00001L 9,6L 11,6L 11,8.00001L 21,8.00001L 21,6.00001L 23,6.00001 Z M 11,19L 11,17L 7,17L 7,19L 11,19 Z M 7.5,10C 6.11929,10 5,10.8954 5,12C 5,13.1046 6.11929,14 7.5,14C 8.88071,14 10,13.1046 10,12C 10,10.8954 8.88071,10 7.5,10 Z "/>
</svg>
