<?xml version="1.0" encoding="utf-8"?>
<!DOCTYPE svg PUBLIC "-//W3C//DTD SVG 1.1//EN" "http://www.w3.org/Graphics/SVG/1.1/DTD/svg11.dtd">
<svg xmlns="http://www.w3.org/2000/svg" xmlns:xlink="http://www.w3.org/1999/xlink" version="1.1" baseProfile="full" width="24" height="24" viewBox="0 0 24.00 24.00" enable-background="new 0 0 24.00 24.00" xml:space="preserve">
	<path fill="#000000" fill-opacity="1" stroke-width="1.33333" stroke-linejoin="miter" d="M 15,20C 15,19.45 14.55,19 14,19L 13,19L 13,17L 17,17C 18.1,17 19,16.1 19,15L 19,5C 19,3.9 18.1,3 17,3L 7,3C 5.9,3 5,3.9 5,5L 5,15C 5,16.1 5.89,17 7,17L 11,17L 11,19L 10,19C 9.45,19 9,19.45 9,20L 2,20L 2,22L 9,22C 9,22.55 9.45,23 10,23L 14,23C 14.55,23 15,22.55 15,22L 22,22L 22,20L 15,20 Z M 7,15L 7,5L 17,5L 17,15L 7,15 Z M 11.947,6C 11.174,6 10.551,6.178 10.071,6.524C 9.609,6.889 9.378,7.396 9.387,8.098L 9.396,8.125L 11.112,8.125C 11.12,7.858 11.2,7.653 11.36,7.511C 11.52,7.378 11.716,7.307 11.947,7.307C 12.223,7.307 12.454,7.396 12.614,7.556C 12.774,7.725 12.845,7.956 12.845,8.223C 12.845,8.507 12.783,8.747 12.641,8.952C 12.517,9.156 12.33,9.334 12.099,9.476C 11.646,9.778 11.335,10.045 11.166,10.285C 10.988,10.516 10.89,10.889 10.89,11.334L 12.668,11.334C 12.668,11.058 12.704,10.836 12.784,10.676C 12.864,10.507 13.015,10.356 13.237,10.214C 13.637,10.001 13.966,9.743 14.224,9.387C 14.482,9.031 14.615,8.667 14.615,8.223C 14.615,7.547 14.375,7.005 13.895,6.605C 13.422,6.204 12.773,6 11.947,6M 10.889,12.222L 10.889,14L 12.667,14L 12.667,12.222L 10.889,12.222 Z "/>
</svg>
