<?xml version="1.0" encoding="utf-8"?>
<!DOCTYPE svg PUBLIC "-//W3C//DTD SVG 1.1//EN" "http://www.w3.org/Graphics/SVG/1.1/DTD/svg11.dtd">
<svg xmlns="http://www.w3.org/2000/svg" xmlns:xlink="http://www.w3.org/1999/xlink" version="1.1" baseProfile="full" width="24" height="24" viewBox="0 0 24.00 24.00" enable-background="new 0 0 24.00 24.00" xml:space="preserve">
	<path fill="#000000" fill-opacity="1" stroke-width="0.2" stroke-linejoin="round" d="M 10,19L 13,19L 13,22L 10,22L 10,19 Z M 12,2.00001C 15.3137,2.00001 18,4.6863 18,8C 17.6667,9.33333 17.3333,10.6667 16.5,11.6667C 15.6667,12.6667 14.3333,13.3333 13.6667,14.1667C 13,15 13,16 13,17L 10,17C 10,15.3333 10,13.9167 10.6667,12.9167C 11.3333,11.9167 12.6667,11.3333 13.5,10.6667C 14.3333,10 14.6667,9 15,8C 15,6.34315 13.6569,5.00001 12,5.00001C 10.3431,5.00001 9,6.34315 9,8L 6,8C 6,4.6863 8.68629,2.00001 12,2.00001 Z "/>
</svg>
