<?xml version="1.0" encoding="utf-8"?>
<!DOCTYPE svg PUBLIC "-//W3C//DTD SVG 1.1//EN" "http://www.w3.org/Graphics/SVG/1.1/DTD/svg11.dtd">
<svg xmlns="http://www.w3.org/2000/svg" xmlns:xlink="http://www.w3.org/1999/xlink" version="1.1" baseProfile="full" width="24" height="24" viewBox="0 0 24.00 24.00" enable-background="new 0 0 24.00 24.00" xml:space="preserve">
	<path fill="#000000" fill-opacity="1" stroke-width="1.33333" stroke-linejoin="miter" d="M 21.5,10.8L 13.2,2.5C 12.5,1.8 11.5,1.8 10.8,2.5L 2.5,10.8C 1.8,11.5 1.8,12.5 2.5,13.2L 10.8,21.5C 11.5,22.2 12.5,22.2 13.2,21.5L 21.5,13.2C 22.1,12.5 22.1,11.5 21.5,10.8M 20.3,12L 12,20.3L 3.7,12L 12,3.7L 20.3,12 Z M 11.01,15.493L 12.517,15.493L 12.517,17L 11.01,17L 11.01,15.493M 12.014,6.952C 14.702,7.063 15.872,9.775 14.275,11.81C 13.858,12.312 13.185,12.644 12.853,13.066C 12.516,13.483 12.516,13.985 12.516,14.488L 11.01,14.488C 11.01,13.649 11.01,12.941 11.347,12.438C 11.679,11.936 12.352,11.639 12.769,11.308C 13.985,10.183 13.683,8.59 12.015,8.459C 11.183,8.459 10.508,9.134 10.508,9.966L 9,9.966C 9,8.302 10.35,6.952 12.014,6.952 Z "/>
</svg>
