<?xml version="1.0" encoding="utf-8"?>
<!DOCTYPE svg PUBLIC "-//W3C//DTD SVG 1.1//EN" "http://www.w3.org/Graphics/SVG/1.1/DTD/svg11.dtd">
<svg xmlns="http://www.w3.org/2000/svg" xmlns:xlink="http://www.w3.org/1999/xlink" version="1.1" baseProfile="full" width="24" height="24" viewBox="0 0 24.00 24.00" enable-background="new 0 0 24.00 24.00" xml:space="preserve">
	<path fill="#000000" fill-opacity="1" stroke-width="1.33333" stroke-linejoin="miter" d="M 10,19L 13,19L 13,22L 10,22L 10,19M 12,2C 17.3536,2.2231 19.6774,7.6179 16.5,11.67C 15.67,12.67 14.33,13.33 13.67,14.17C 13,15 13,16 13,17L 10,17C 10,15.33 10,13.92 10.67,12.92C 11.33,11.92 12.67,11.33 13.5,10.67C 15.9157,8.4301 15.32,5.2567 12,5C 10.3431,5 9,6.3431 9,8L 6,8C 6,4.6863 8.68629,2 12,2 Z "/>
</svg>
