<?xml version="1.0" encoding="utf-8"?>
<!DOCTYPE svg PUBLIC "-//W3C//DTD SVG 1.1//EN" "http://www.w3.org/Graphics/SVG/1.1/DTD/svg11.dtd">
<svg xmlns="http://www.w3.org/2000/svg" xmlns:xlink="http://www.w3.org/1999/xlink" version="1.1" baseProfile="full" width="24" height="24" viewBox="0 0 24.00 24.00" enable-background="new 0 0 24.00 24.00" xml:space="preserve">
	<path fill="#000000" fill-opacity="1" stroke-width="1.33333" stroke-linejoin="miter" d="M 21.5,10.8L 13.2,2.5C 12.5,1.8 11.5,1.8 10.8,2.5L 2.5,10.8C 1.8,11.5 1.8,12.5 2.5,13.2L 10.8,21.5C 11.5,22.2 12.5,22.2 13.2,21.5L 21.5,13.2C 22.1,12.5 22.1,11.5 21.5,10.8 Z M 12.5,17L 11,17L 11,15.5L 12.5,15.5L 12.5,17 Z M 14.3,11.8C 13.9,12.3 13.2,12.6 12.9,13.1C 12.6,13.5 12.6,14 12.6,14.5L 11,14.5C 11,13.7 11,13 11.3,12.5C 11.6,12 12.3,11.7 12.7,11.4C 13.9,10.3 13.6,8.7 11.9,8.6C 11.1,8.6 10.4,9.3 10.4,10.1L 9,10.1C 9,8.4 10.3,7.1 12,7.1C 14.7,7.1 15.9,9.8 14.3,11.8 Z "/>
</svg>
