<?xml version="1.0" encoding="utf-8"?>
<!DOCTYPE svg PUBLIC "-//W3C//DTD SVG 1.1//EN" "http://www.w3.org/Graphics/SVG/1.1/DTD/svg11.dtd">
<svg xmlns="http://www.w3.org/2000/svg" xmlns:xlink="http://www.w3.org/1999/xlink" version="1.1" baseProfile="full" width="24" height="24" viewBox="0 0 24.00 24.00" enable-background="new 0 0 24.00 24.00" xml:space="preserve">
	<path fill="#000000" fill-opacity="1" stroke-width="0.2" stroke-linejoin="round" d="M 10.25,2C 10.4406,2 10.6063,2.10663 10.6906,2.2635L 12.9121,6.21682L 13,6.5L 12.9121,6.78319L 10.6907,10.7364C 10.6063,10.8933 10.4406,11 10.25,11L 5.75,11C 5.55938,11 5.39367,10.8933 5.30932,10.7364L 3.08787,6.78319L 3,6.5L 3.08787,6.21682L 5.30936,2.2635C 5.39373,2.10663 5.55941,2 5.75,2L 10.25,2 Z M 10.25,13C 10.4406,13 10.6063,13.1066 10.6906,13.2635L 12.9121,17.2168L 13,17.5L 12.9121,17.7832L 10.6907,21.7364C 10.6063,21.8933 10.4406,22 10.25,22L 5.75,22C 5.55938,22 5.39367,21.8933 5.30932,21.7364L 3.08787,17.7832L 3,17.5L 3.08786,17.2168L 5.30936,13.2635C 5.39373,13.1066 5.55941,13 5.75,13L 10.25,13 Z M 19.5,7.5C 19.6906,7.5 19.8563,7.60663 19.9406,7.7635L 22.1621,11.7168L 22.25,12L 22.1621,12.2832L 19.9407,16.2364C 19.8563,16.3933 19.6906,16.5 19.5,16.5L 15,16.5C 14.8094,16.5 14.6437,16.3933 14.5593,16.2364L 12.3379,12.2832L 12.25,12L 12.3379,11.7168L 14.5594,7.7635C 14.6437,7.60663 14.8094,7.5 15,7.5L 19.5,7.5 Z "/>
</svg>
