<?xml version="1.0" encoding="utf-8"?>
<!DOCTYPE svg PUBLIC "-//W3C//DTD SVG 1.1//EN" "http://www.w3.org/Graphics/SVG/1.1/DTD/svg11.dtd">
<svg xmlns="http://www.w3.org/2000/svg" xmlns:xlink="http://www.w3.org/1999/xlink" version="1.1" baseProfile="full" width="24" height="24" viewBox="0 0 24.00 24.00" enable-background="new 0 0 24.00 24.00" xml:space="preserve">
	<path fill="#000000" fill-opacity="1" stroke-width="1.33333" stroke-linejoin="miter" d="M 10,2L 8,8L 11,8L 11,2L 10,2 Z M 13,2L 13,8L 16,8L 14,2L 13,2 Z M 2,9L 2,10L 4,10L 4,11L 6,11L 6,10L 18,10L 18.0625,11L 20,11L 20,10L 22,10L 22,9L 2,9 Z M 7,11L 3.34375,22L 11,22L 11,11L 7,11 Z M 13,11L 13,22L 20.6563,22L 17,11L 13,11 Z "/>
</svg>
