<?xml version="1.0" encoding="utf-8"?>
<!DOCTYPE svg PUBLIC "-//W3C//DTD SVG 1.1//EN" "http://www.w3.org/Graphics/SVG/1.1/DTD/svg11.dtd">
<svg xmlns="http://www.w3.org/2000/svg" xmlns:xlink="http://www.w3.org/1999/xlink" version="1.1" baseProfile="full" width="24" height="24" viewBox="0 0 24.00 24.00" enable-background="new 0 0 24.00 24.00" xml:space="preserve">
	<path fill="#000000" fill-opacity="1" stroke-width="1.33333" stroke-linejoin="miter" d="M 19,3L 5,3C 3.89,3 3,3.9 3,5L 3,19C 3,20.1 3.89,21 5,21L 19,21C 20.1,21 21,20.1 21,19L 21,5C 21,3.9 20.1,3 19,3 Z M 11,15L 9.5,15L 9.5,13L 7.5,13L 7.5,15L 6,15L 6,9L 7.5,9L 7.5,11.5L 9.5,11.5L 9.5,9L 11,9L 11,15 Z M 13,9L 17,9C 17.55,9 18,9.45 18,10L 18,14C 18,14.55 17.55,15 17,15L 13,15L 13,9 Z M 14.5,13.5L 16.5,13.5L 16.5,10.5L 14.5,10.5L 14.5,13.5 Z "/>
</svg>
