<?xml version="1.0" encoding="utf-8"?>
<!DOCTYPE svg PUBLIC "-//W3C//DTD SVG 1.1//EN" "http://www.w3.org/Graphics/SVG/1.1/DTD/svg11.dtd">
<svg xmlns="http://www.w3.org/2000/svg" xmlns:xlink="http://www.w3.org/1999/xlink" version="1.1" baseProfile="full" width="24" height="24" viewBox="0 0 24.00 24.00" enable-background="new 0 0 24.00 24.00" xml:space="preserve">
	<path fill="#000000" fill-opacity="1" stroke-linejoin="round" d="M 5.00002,7.00001L 7.00001,7.00001L 7.00003,11L 9.00003,11L 9.00001,7.00001L 11,7.00001L 11,17L 9.00002,17L 9.00003,13L 7.00003,13L 7.00002,17L 5.00002,17L 5.00002,7.00001 Z M 13,7L 16,7.00001C 17.6569,7.00001 19,8.34315 19,10L 19,14C 19,15.6568 17.6569,17 16,17L 13,17L 13,7 Z M 16,15C 16.5523,15 17,14.5523 17,14L 17,10C 17,9.44772 16.5523,9 16,9L 15,9L 15,15L 16,15 Z "/>
</svg>
