<?xml version="1.0" encoding="utf-8"?>
<!DOCTYPE svg PUBLIC "-//W3C//DTD SVG 1.1//EN" "http://www.w3.org/Graphics/SVG/1.1/DTD/svg11.dtd">
<svg xmlns="http://www.w3.org/2000/svg" xmlns:xlink="http://www.w3.org/1999/xlink" version="1.1" baseProfile="full" width="24" height="24" viewBox="0 0 24.00 24.00" enable-background="new 0 0 24.00 24.00" xml:space="preserve">
	<path fill="#000000" fill-opacity="1" stroke-width="1.33333" stroke-linejoin="miter" d="M 9.8,8.9L 7,23L 9.1,23L 10.9,15L 13,17L 13,23L 15,23L 15,15.5L 12.9,13.5L 13.5,10.5C 14.631,11.805 16.292,12.732 18.154,12.95L 16,23L 17,23L 20,9L 19.044,8.795L 18.575,10.983C 16.863,10.847 15.44,9.894 14.7,8.6L 13.7,7C 13.503,6.65 13.204,6.369 12.842,6.195C 12.481,6.02 12.075,5.961 11.678,6.024C 11.282,6.088 10.915,6.271 10.626,6.549C 10.337,6.828 10.14,7.188 10.062,7.582L 9.8,8.9 Z M 7.084,6.918L 9.404,7.379L 8.396,12.455L 6.076,11.994L 7.084,6.918 Z M 13.5,5.5C 14.6,5.5 15.5,4.6 15.5,3.5C 15.5,2.4 14.6,1.5 13.5,1.5C 12.4,1.5 11.5,2.4 11.5,3.5C 11.5,4.6 12.4,5.5 13.5,5.5 Z "/>
</svg>
