<?xml version="1.0" encoding="utf-8"?>
<!DOCTYPE svg PUBLIC "-//W3C//DTD SVG 1.1//EN" "http://www.w3.org/Graphics/SVG/1.1/DTD/svg11.dtd">
<svg xmlns="http://www.w3.org/2000/svg" xmlns:xlink="http://www.w3.org/1999/xlink" version="1.1" baseProfile="full" width="24" height="24" viewBox="0 0 24.00 24.00" enable-background="new 0 0 24.00 24.00" xml:space="preserve">
	<path fill="#191919" fill-opacity="1" stroke-width="1.33333" stroke-linejoin="miter" d="M 13.5,8L 12,8L 12,13L 16.2803,15.54L 17,14.3301L 13.5,12.25L 13.5,8M 13,3C 8.02978,3 4,7.0298 4,12L 1,12L 4.95996,16.0303L 9,12L 6,12C 6,8.1299 9.12988,5 13,5C 16.8701,5 20,8.1299 20,12C 20,15.8701 16.8701,19 13,19C 11.0698,19 9.31982,18.21 8.06006,16.9404L 6.64014,18.3603C 8.27002,19.9902 10.5098,21 13,21C 17.9697,21 22,16.9697 22,12C 22,7.0298 17.9697,3 13,3"/>
</svg>
