<?xml version="1.0" encoding="utf-8"?>
<!DOCTYPE svg PUBLIC "-//W3C//DTD SVG 1.1//EN" "http://www.w3.org/Graphics/SVG/1.1/DTD/svg11.dtd">
<svg xmlns="http://www.w3.org/2000/svg" xmlns:xlink="http://www.w3.org/1999/xlink" version="1.1" baseProfile="full" width="24" height="24" viewBox="0 0 24.00 24.00" enable-background="new 0 0 24.00 24.00" xml:space="preserve">
	<path fill="#000000" fill-opacity="1" stroke-width="1.33333" stroke-linejoin="miter" d="M 12,5C 6.47715,5 2,6.567 2,8.5C 2,10.433 6.47715,12 12,12C 17.5228,12 22,10.433 22,8.5C 22,6.567 17.5228,5 12,5 Z M 2,11.7617L 2,16.5C 2,18.433 6.47715,20 12,20C 17.5228,20 22,18.433 22,16.5L 22,11.7617C 21.3305,12.2188 20.5763,12.5679 19.7324,12.8633C 17.6234,13.6014 14.9506,14 12,14C 9.04942,14 6.37661,13.6014 4.26758,12.8633C 3.42375,12.5679 2.66954,12.2188 2,11.7617 Z "/>
</svg>
