<?xml version="1.0" encoding="utf-8"?>
<!DOCTYPE svg PUBLIC "-//W3C//DTD SVG 1.1//EN" "http://www.w3.org/Graphics/SVG/1.1/DTD/svg11.dtd">
<svg xmlns="http://www.w3.org/2000/svg" xmlns:xlink="http://www.w3.org/1999/xlink" version="1.1" baseProfile="full" width="24" height="24" viewBox="0 0 24.00 24.00" enable-background="new 0 0 24.00 24.00" xml:space="preserve">
	<path fill="#000000" fill-opacity="1" stroke-linejoin="round" d="M 12,8C 12,8 22,8 22,11C 22,11 22.0854,14.3618 21.75,14.25C 21,11 12,11 12,11C 12,11 3,11 2.25001,14.25C 1.91459,14.3618 2,11 1.99999,11C 1.99999,8 12,8 12,8 Z M 12,12C 20,12 20.75,14.25 20.75,14.25C 19.75,17.25 19,18 15,18C 12,18 13,16.5 12,16.5C 11,16.5 12,18 8.99999,18C 5,18 4.24999,17.25 3.25,14.25C 3.25,14.25 4,12 12,12 Z "/>
</svg>
