<?xml version="1.0" encoding="utf-8"?>
<!DOCTYPE svg PUBLIC "-//W3C//DTD SVG 1.1//EN" "http://www.w3.org/Graphics/SVG/1.1/DTD/svg11.dtd">
<svg xmlns="http://www.w3.org/2000/svg" xmlns:xlink="http://www.w3.org/1999/xlink" version="1.1" baseProfile="full" width="24" height="24" viewBox="0 0 24.00 24.00" enable-background="new 0 0 24.00 24.00" xml:space="preserve">
	<path fill="#000000" fill-opacity="1" stroke-width="1.33333" stroke-linejoin="miter" d="M 12,2.99798L 22,11.998L 19,11.998L 19,19.998L 5,19.998L 5,11.998L 2,11.998L 12,2.99798 Z M 9.22266,8.9292C 8.75,9.4014 8.5,10.0322 8.5,10.7524C 8.5,12.4277 10.5395,13.0713 11.7583,13.4561C 13.2617,13.9297 13.4746,14.2129 13.4971,14.2539C 13.4971,14.9775 12.1523,15 11.999,15L 11.9946,15C 11.3677,15 11.0288,14.8809 10.855,14.7803C 10.6704,14.6738 10.5,14.5059 10.5,14L 8.5,14C 8.5,15.4297 9.23682,16.1553 9.85449,16.5117C 10.1829,16.7017 10.5661,16.8366 11,16.9159L 11,18L 13,18L 13,16.9071C 14.5271,16.6092 15.4971,15.6169 15.4971,14.2539C 15.4971,12.6699 13.8779,12.0269 12.3599,11.5483C 10.8013,11.0566 10.5308,10.77 10.5,10.7524C 10.5,10.5112 10.5728,10.4077 10.6362,10.3442C 10.852,10.1284 11.3594,10 11.9937,10L 11.999,10C 12.6821,10.001 13.4971,10.1318 13.4971,10.7524L 15.4971,10.7524C 15.4971,9.33704 14.5632,8.36819 13,8.08541L 13,7L 11,7L 11,8.08206C 10.2575,8.21315 9.65294,8.49962 9.22266,8.9292 Z "/>
</svg>
