<?xml version="1.0" encoding="utf-8"?>
<!DOCTYPE svg PUBLIC "-//W3C//DTD SVG 1.1//EN" "http://www.w3.org/Graphics/SVG/1.1/DTD/svg11.dtd">
<svg xmlns="http://www.w3.org/2000/svg" xmlns:xlink="http://www.w3.org/1999/xlink" version="1.1" baseProfile="full" width="24" height="24" viewBox="0 0 24.00 24.00" enable-background="new 0 0 24.00 24.00" xml:space="preserve">
	<path fill="#000000" fill-opacity="1" stroke-width="1.33333" stroke-linejoin="miter" d="M 12,3L 2,12L 5,12L 5,20L 19,20L 19,12L 22,12L 12,3 Z M 12,8.5C 14.3423,8.5 16.4639,9.4331 18,10.9414L 16.8027,12.1172C 15.5807,10.9089 13.884,10.166 12,10.166C 10.1245,10.166 8.41933,10.9089 7.19727,12.1172L 6,10.9414C 7.53607,9.4331 9.65771,8.5 12,8.5 Z M 12,11.834C 13.4003,11.834 14.6726,12.3924 15.5977,13.3008L 14.4023,14.4746C 13.7913,13.8746 12.942,13.5 12,13.5C 11.058,13.5 10.2087,13.8746 9.59766,14.4746L 8.40234,13.3008C 9.32738,12.3924 10.5997,11.834 12,11.834 Z M 12,15.166C 12.9374,15.166 13.6973,15.9135 13.6973,16.834C 13.6973,17.7545 12.9374,18.5 12,18.5C 11.0626,18.5 10.3027,17.7545 10.3027,16.834C 10.3027,15.9135 11.0626,15.166 12,15.166 Z "/>
</svg>
