<?xml version="1.0" encoding="utf-8"?>
<!DOCTYPE svg PUBLIC "-//W3C//DTD SVG 1.1//EN" "http://www.w3.org/Graphics/SVG/1.1/DTD/svg11.dtd">
<svg xmlns="http://www.w3.org/2000/svg" xmlns:xlink="http://www.w3.org/1999/xlink" version="1.1" baseProfile="full" width="24" height="24" viewBox="0 0 24.00 24.00" enable-background="new 0 0 24.00 24.00" xml:space="preserve">
	<path fill="#000000" fill-opacity="1" stroke-width="1.33333" stroke-linejoin="miter" d="M 17,16L 15,16L 15,22L 12,22L 12,17L 8,17L 8,22L 5,22L 5,16L 3,16L 10,10L 17,16 Z M 6,2.00001L 10,6L 9,6L 9,9L 7,9L 7,6L 5,6L 5,9L 3,9L 3,6L 2,6L 6,2.00001 Z M 18,3.00001L 23,8.00001L 22,8.00001L 22,12L 19,12L 19,9L 17,9L 17,12L 15.3444,12L 14,10.8719L 14,8.00001L 13,8.00001L 18,3.00001 Z "/>
</svg>
