<?xml version="1.0" encoding="utf-8"?>
<!DOCTYPE svg PUBLIC "-//W3C//DTD SVG 1.1//EN" "http://www.w3.org/Graphics/SVG/1.1/DTD/svg11.dtd">
<svg xmlns="http://www.w3.org/2000/svg" xmlns:xlink="http://www.w3.org/1999/xlink" version="1.1" baseProfile="full" width="24" height="24" viewBox="0 0 24.00 24.00" enable-background="new 0 0 24.00 24.00" xml:space="preserve">
	<path fill="#000000" fill-opacity="1" stroke-width="1.33333" stroke-linejoin="miter" d="M 1.999,11.998L 11.999,2.998L 21.999,11.998L 18.999,11.998L 18.999,19.998L 4.999,19.998L 4.999,11.998L 1.999,11.998 Z M 11.999,18L 12.724,17.341C 15.299,15.005 17,13.461 17,11.573C 17,10.031 15.792,8.823 14.25,8.823C 13.379,8.823 12.545,9.227 11.999,9.866C 11.454,9.227 10.62,8.823 9.749,8.823C 8.207,8.823 6.999,10.031 6.999,11.573C 6.999,13.461 8.7,15.005 11.275,17.341L 11.999,18 Z "/>
</svg>
