<?xml version="1.0" encoding="utf-8"?>
<!DOCTYPE svg PUBLIC "-//W3C//DTD SVG 1.1//EN" "http://www.w3.org/Graphics/SVG/1.1/DTD/svg11.dtd">
<svg xmlns="http://www.w3.org/2000/svg" xmlns:xlink="http://www.w3.org/1999/xlink" version="1.1" baseProfile="full" width="24" height="24" viewBox="0 0 24.00 24.00" enable-background="new 0 0 24.00 24.00" xml:space="preserve">
	<path fill="#000000" fill-opacity="1" stroke-width="1.33333" stroke-linejoin="miter" d="M 10,2L 10,4.26L 12,5.59L 12,4L 22,4L 22,19L 17,19L 17,21L 24,21L 24,2L 10,2 Z M 7.5,5L 1.27157e-006,10L 1.27157e-006,21L 15,21L 15,10L 7.5,5 Z M 14,6L 14,6.93L 15.61,8L 16,8L 16,6L 14,6 Z M 18,6L 18,8L 20,8L 20,6L 18,6 Z M 7.5,7.5L 13,11L 13,19L 10,19L 10,13L 5,13L 5,19L 2,19L 2,11L 7.5,7.5 Z M 18,10L 18,12L 20,12L 20,10L 18,10 Z M 18,14L 18,16L 20,16L 20,14L 18,14 Z "/>
</svg>
