<?xml version="1.0" encoding="utf-8"?>
<!DOCTYPE svg PUBLIC "-//W3C//DTD SVG 1.1//EN" "http://www.w3.org/Graphics/SVG/1.1/DTD/svg11.dtd">
<svg xmlns="http://www.w3.org/2000/svg" xmlns:xlink="http://www.w3.org/1999/xlink" version="1.1" baseProfile="full" width="24" height="24" viewBox="0 0 24.00 24.00" enable-background="new 0 0 24.00 24.00" xml:space="preserve">
	<path fill="#000000" fill-opacity="1" stroke-linejoin="round" d="M 21.8019,13L 20,13L 20,21L 13,21L 13,17.6728L 15.7943,14.8785L 16.5,15C 17.6598,15 18.6,14.0598 18.6,12.9C 18.6,11.7402 17.6598,10.8 16.5,10.8C 15.3402,10.8 14.4,11.7402 14.4,12.9L 14.5215,13.6057L 13,15.1272L 13,9.64708C 13.6552,9.29163 14.1,8.59776 14.1,7.8C 14.1,6.6402 13.1598,5.7 12,5.7C 10.8402,5.7 9.9,6.6402 9.9,7.8C 9.9,8.59776 10.3448,9.29163 11,9.64708L 11,15.1272L 9.47848,13.6057L 9.6,12.9C 9.6,11.7402 8.6598,10.8 7.5,10.8C 6.3402,10.8 5.4,11.7402 5.4,12.9C 5.4,14.0598 6.3402,15 7.5,15L 8.20569,14.8785L 11,17.6728L 11,21L 4,21L 4,13L 2.25,13C 1.83333,13 1.41667,13 1.42117,12.7872C 1.42567,12.5743 1.85133,12.1487 2.277,11.723L 11,3C 11.3333,2.66667 11.6667,2.33333 12,2.33333C 12.3333,2.33333 12.6667,2.66667 13,3L 17,7L 17,6L 19,6L 19,9L 21.7759,11.7759C 22.184,12.184 22.592,12.592 22.5963,12.796C 22.6006,13 22.2012,13 21.8019,13 Z M 7.49999,12C 7.99705,12 8.39999,12.403 8.39999,12.9C 8.39999,13.3971 7.99705,13.8 7.49999,13.8C 7.00294,13.8 6.59999,13.3971 6.59999,12.9C 6.59999,12.403 7.00294,12 7.49999,12 Z M 16.5,12C 16.9971,12 17.4,12.4029 17.4,12.9C 17.4,13.3971 16.9971,13.8 16.5,13.8C 16.0029,13.8 15.6,13.3971 15.6,12.9C 15.6,12.4029 16.0029,12 16.5,12 Z M 12,6.90001C 12.4971,6.90001 12.9,7.30295 12.9,7.8C 12.9,8.29706 12.4971,8.7 12,8.7C 11.5029,8.7 11.1,8.29706 11.1,7.8C 11.1,7.30295 11.5029,6.90001 12,6.90001 Z "/>
</svg>
