<?xml version="1.0" encoding="utf-8"?>
<!DOCTYPE svg PUBLIC "-//W3C//DTD SVG 1.1//EN" "http://www.w3.org/Graphics/SVG/1.1/DTD/svg11.dtd">
<svg xmlns="http://www.w3.org/2000/svg" xmlns:xlink="http://www.w3.org/1999/xlink" version="1.1" baseProfile="full" width="24" height="24" viewBox="0 0 24.00 24.00" enable-background="new 0 0 24.00 24.00" xml:space="preserve">
	<path fill="#000000" fill-opacity="1" stroke-width="1.33333" stroke-linejoin="miter" d="M 12,3L 2,12L 5,12L 5,20L 19,20L 19,12L 22,12L 12,3 Z M 12,9C 13.6569,9 15,10.3431 15,12L 15,13L 16,13L 16,17L 8,17L 8,13L 9,13L 9,12C 9,10.3431 10.3431,9 12,9 Z M 12,11C 11.4477,11 11,11.4477 11,12L 11,13L 13,13L 13,12C 13,11.5 12.6,11 12,11 Z "/>
</svg>
