<?xml version="1.0" encoding="utf-8"?>
<!DOCTYPE svg PUBLIC "-//W3C//DTD SVG 1.1//EN" "http://www.w3.org/Graphics/SVG/1.1/DTD/svg11.dtd">
<svg xmlns="http://www.w3.org/2000/svg" xmlns:xlink="http://www.w3.org/1999/xlink" version="1.1" baseProfile="full" width="24" height="24" viewBox="0 0 24.00 24.00" enable-background="new 0 0 24.00 24.00" xml:space="preserve">
	<path fill="#000000" fill-opacity="1" stroke-width="1.33333" stroke-linejoin="miter" d="M 11,10L 13,10L 13,16L 11,16L 11,10 Z M 22,12L 19,12L 19,20L 5,20L 5,12L 2,12L 12,3L 22,12 Z M 15,10C 15,8.9 14.1,8 13,8L 11,8C 9.9,8 9,8.9 9,10L 9,16C 9,17.1 9.9,18 11,18L 13,18C 14.1,18 15,17.1 15,16L 15,10 Z "/>
</svg>
