<?xml version="1.0" encoding="utf-8"?>
<!DOCTYPE svg PUBLIC "-//W3C//DTD SVG 1.1//EN" "http://www.w3.org/Graphics/SVG/1.1/DTD/svg11.dtd">
<svg xmlns="http://www.w3.org/2000/svg" xmlns:xlink="http://www.w3.org/1999/xlink" version="1.1" baseProfile="full" width="24" height="24" viewBox="0 0 24.00 24.00" enable-background="new 0 0 24.00 24.00" xml:space="preserve">
	<path fill="#000000" fill-opacity="1" stroke-width="1.33333" stroke-linejoin="miter" d="M 12,3L 2,12L 5,12L 5,20L 19,20L 19,12L 22,12L 12,3 Z M 12,8.75C 13.2426,8.75 14.25,9.7574 14.25,11C 14.25,12.2426 13.2426,13.25 12,13.25C 10.7574,13.25 9.75,12.2426 9.75,11C 9.75,9.7574 10.7574,8.75 12,8.75 Z M 12,15C 13.5,15 16.5,15.75 16.5,17.25L 16.5,18L 7.5,18L 7.5,17.25C 7.5,15.75 10.5,15 12,15 Z "/>
</svg>
