<?xml version="1.0" encoding="utf-8"?>
<!DOCTYPE svg PUBLIC "-//W3C//DTD SVG 1.1//EN" "http://www.w3.org/Graphics/SVG/1.1/DTD/svg11.dtd">
<svg xmlns="http://www.w3.org/2000/svg" xmlns:xlink="http://www.w3.org/1999/xlink" version="1.1" baseProfile="full" width="24" height="24" viewBox="0 0 24.00 24.00" enable-background="new 0 0 24.00 24.00" xml:space="preserve">
	<path fill="#000000" fill-opacity="1" stroke-width="1.33333" stroke-linejoin="miter" d="M 1.27157e-006,21L 1.27157e-006,10L 7.5,5L 15,10L 15,21L 10,21L 10,14L 5,14L 5,21L 1.27157e-006,21 Z M 24,2L 24,21L 17,21L 17,8.93L 16,8.27L 16,6L 14,6L 14,6.93L 10,4.27L 10,2L 24,2 Z M 21,14L 19,14L 19,16L 21,16L 21,14 Z M 21,10L 19,10L 19,12L 21,12L 21,10 Z M 21,6L 19,6L 19,8L 21,8L 21,6 Z "/>
</svg>
