<?xml version="1.0" encoding="utf-8"?>
<!DOCTYPE svg PUBLIC "-//W3C//DTD SVG 1.1//EN" "http://www.w3.org/Graphics/SVG/1.1/DTD/svg11.dtd">
<svg xmlns="http://www.w3.org/2000/svg" xmlns:xlink="http://www.w3.org/1999/xlink" version="1.1" baseProfile="full" width="24" height="24" viewBox="0 0 24.00 24.00" enable-background="new 0 0 24.00 24.00" xml:space="preserve">
	<path fill="#000000" fill-opacity="1" stroke-width="1.33333" stroke-linejoin="miter" d="M 18,6C 17.9941,7.8192 16.7614,9.4052 15,9.86L 15,17C 15,19.7614 12.7614,22 10,22C 7.23858,22 5,19.7614 5,17L 5,12L 10,17L 7,17C 7,18.6568 8.34315,20 10,20C 11.6569,20 13,18.6568 13,17L 13,9.86C 11.2293,9.4028 9.99411,7.8029 10,5.974C 10.0072,3.7649 11.8039,1.9799 14.013,1.987C 16.2221,1.9942 18.0072,3.7909 18,6 Z M 14,8C 15.1046,8 16,7.1046 16,6C 16,4.8954 15.1046,4 14,4C 12.8954,4 12,4.8954 12,6C 12,7.1046 12.8954,8 14,8 Z "/>
</svg>
