<?xml version="1.0" encoding="utf-8"?>
<!DOCTYPE svg PUBLIC "-//W3C//DTD SVG 1.1//EN" "http://www.w3.org/Graphics/SVG/1.1/DTD/svg11.dtd">
<svg xmlns="http://www.w3.org/2000/svg" xmlns:xlink="http://www.w3.org/1999/xlink" version="1.1" baseProfile="full" width="24" height="24" viewBox="0 0 24.00 24.00" enable-background="new 0 0 24.00 24.00" xml:space="preserve">
	<path fill="#000000" fill-opacity="1" stroke-linejoin="round" d="M 21,12C 21,12 12.5,10 12.5,2C 12.5,2 21,2.00001 21,12 Z M 3,12C 3,2.00001 11.5,2 11.5,2C 11.5,10 3,12 3,12 Z M 12,6.50001C 12,6.50001 12.995,8.65593 14.9851,10.4845C 14.7577,14.1615 12,16 12,16C 12,16 9.24225,14.1615 9.01487,10.4845C 11.005,8.65593 12,6.50001 12,6.50001 Z M 20.75,13.25C 20.75,13.25 20,17 18,19C 18,19 15.5341,17.3561 14.3284,14.8134C 15.0494,13.5785 15.5029,12.1167 15.7528,11.1307C 17.1253,12.1842 18.75,13 20.75,13.25 Z M 15.5,18.25C 14.5,20.25 12,21.75 12,21.75C 12,21.75 9.5,20.25 8.5,18.25C 8.5,18.25 9.59361,17.3387 10.3528,15.7954C 10.8184,16.3517 11.3643,16.7881 12,17C 12.6357,16.7881 13.1816,16.3517 13.6472,15.7954C 14.4064,17.3387 15.5,18.25 15.5,18.25 Z M 3.25,13.25C 5.25,13 6.87465,12.1842 8.24722,11.1307C 8.49705,12.1167 8.95056,13.5785 9.67162,14.8134C 8.46588,17.3561 6,19 6,19C 4,17 3.25,13.25 3.25,13.25 Z "/>
</svg>
