<?xml version="1.0" encoding="utf-8"?>
<!DOCTYPE svg PUBLIC "-//W3C//DTD SVG 1.1//EN" "http://www.w3.org/Graphics/SVG/1.1/DTD/svg11.dtd">
<svg xmlns="http://www.w3.org/2000/svg" xmlns:xlink="http://www.w3.org/1999/xlink" version="1.1" baseProfile="full" width="24" height="24" viewBox="0 0 24.00 24.00" enable-background="new 0 0 24.00 24.00" xml:space="preserve">
	<path fill="#000000" fill-opacity="1" stroke-width="1.33333" stroke-linejoin="miter" d="M 19,4L 20,4L 20,1L 16,1L 16,4C 16,4 18,8 18,12C 18,16 16,19 12,19C 8,19 6,16 6,12C 6,8 8,4 8,4L 8,1L 4,1L 4,4L 5,4C 5,4 2,8 2,14C 2,19 7,23 12,23C 17,23 22,19 22,14C 22,8 19,4 19,4 Z M 4,13C 3.4,13 3,12.6 3,12C 3,11.4 3.4,11 4,11C 4.6,11 5,11.4 5,12C 5,12.6 4.6,13 4,13 Z M 6,19C 5.4,19 5,18.6 5,18C 5,17.4 5.4,17 6,17C 6.6,17 7,17.4 7,18C 7,18.6 6.6,19 6,19 Z M 12,22C 11.4,22 11,21.6 11,21C 11,20.4 11.4,20 12,20C 12.6,20 13,20.4 13,21C 13,21.6 12.6,22 12,22 Z M 18,19C 17.4,19 17,18.6 17,18C 17,17.4 17.4,17 18,17C 18.6,17 19,17.4 19,18C 19,18.6 18.6,19 18,19 Z M 20,13C 19.4,13 19,12.6 19,12C 19,11.4 19.4,11 20,11C 20.6,11 21,11.4 21,12C 21,12.6 20.6,13 20,13 Z "/>
</svg>
