<?xml version="1.0" encoding="utf-8"?>
<!DOCTYPE svg PUBLIC "-//W3C//DTD SVG 1.1//EN" "http://www.w3.org/Graphics/SVG/1.1/DTD/svg11.dtd">
<svg xmlns="http://www.w3.org/2000/svg" xmlns:xlink="http://www.w3.org/1999/xlink" version="1.1" baseProfile="full" width="24" height="24" viewBox="0 0 24.00 24.00" enable-background="new 0 0 24.00 24.00" xml:space="preserve">
	<path fill="#000000" fill-opacity="1" stroke-width="0.2" stroke-linejoin="round" d="M 17.9994,13.9981L 13.9994,13.9981L 13.9994,17.9981L 9.99939,17.9981L 9.99939,13.9981L 5.99939,13.9981L 5.99939,9.99807L 9.99939,9.99807L 9.99939,5.99807L 13.9994,5.99807L 13.9994,9.99807L 17.9994,9.99807M 18.9994,2.99807L 4.99939,2.99807C 3.89438,2.99807 3.0094,3.89307 3.0094,4.99807L 2.99939,18.9981C 2.99939,20.1031 3.89438,20.9981 4.99939,20.9981L 18.9994,20.9981C 20.1034,20.9981 20.9994,20.1031 20.9994,18.9981L 20.9994,4.99807C 20.9994,3.89307 20.1034,2.99807 18.9994,2.99807 Z "/>
</svg>
