<?xml version="1.0" encoding="utf-8"?>
<!DOCTYPE svg PUBLIC "-//W3C//DTD SVG 1.1//EN" "http://www.w3.org/Graphics/SVG/1.1/DTD/svg11.dtd">
<svg xmlns="http://www.w3.org/2000/svg" xmlns:xlink="http://www.w3.org/1999/xlink" version="1.1" baseProfile="full" width="24" height="24" viewBox="0 0 24.00 24.00" enable-background="new 0 0 24.00 24.00" xml:space="preserve">
	<path fill="#000000" fill-opacity="1" stroke-width="1.33333" stroke-linejoin="miter" d="M 7,4C 8.10457,4 9,4.8954 9,6C 9,7.1046 8.10457,8 7,8C 5.89543,8 5,7.1046 5,6C 5,4.8954 5.89543,4 7,4 Z M 11.15,12L 22,12L 22,20C 22,21.1 21.1,22 20,22L 4,22C 2.9,22 2,21.1 2,20L 2,12L 5,12L 5,11.25C 5,10.01 6.01,9 7.25,9L 7.28,9C 7.62,9 7.95,9.09 8.24,9.23C 8.5,9.35 8.74,9.52 8.93,9.73L 10.33,11.28C 10.56,11.54 10.84,11.78 11.15,12 Z M 7,20L 7,14L 5,14L 5,20L 7,20 Z M 11,20L 11,14L 9,14L 9,20L 11,20 Z M 15,20L 15,14L 13,14L 13,20L 15,20 Z M 19,20L 19,14L 17,14L 17,20L 19,20 Z M 18.65,5.86C 19.68,6.86 20.16,8.21 19.95,9.57L 19.89,10L 17.98,10L 18.09,9.41C 18.24,8.62 17.99,7.83 17.42,7.21L 17.35,7.15C 16.32,6.14 15.85,4.79 16.05,3.43L 16.11,3L 18,3L 17.91,3.59C 17.76,4.38 18.01,5.17 18.58,5.79L 18.65,5.86 Z M 14.65,5.86C 15.68,6.86 16.16,8.21 15.95,9.57L 15.89,10L 13.98,10L 14.09,9.41C 14.24,8.62 13.99,7.83 13.42,7.21L 13.35,7.15C 12.32,6.14 11.85,4.79 12.05,3.43L 12.11,3L 14,3L 13.91,3.59C 13.76,4.38 14.01,5.17 14.58,5.79L 14.65,5.86 Z "/>
</svg>
