<?xml version="1.0" encoding="utf-8"?>
<!DOCTYPE svg PUBLIC "-//W3C//DTD SVG 1.1//EN" "http://www.w3.org/Graphics/SVG/1.1/DTD/svg11.dtd">
<svg xmlns="http://www.w3.org/2000/svg" xmlns:xlink="http://www.w3.org/1999/xlink" version="1.1" baseProfile="full" width="24" height="24" viewBox="0 0 24.00 24.00" enable-background="new 0 0 24.00 24.00" xml:space="preserve">
	<path fill="#000000" fill-opacity="1" stroke-width="1.33333" stroke-linejoin="miter" d="M 7,4C 8.10457,4 9,4.8954 9,6C 9,7.1046 8.10457,8 7,8C 5.89543,8 5,7.1046 5,6C 5,4.8954 5.89543,4 7,4 Z "/>
	<path fill="#000000" fill-opacity="1" stroke-width="1.33333" stroke-linejoin="miter" d="M 11.15,12C 10.84,11.78 10.56,11.54 10.33,11.28L 8.93,9.73C 8.74,9.52 8.5,9.35 8.24,9.23C 7.95,9.09 7.62,9 7.28,9L 7.25,9C 6.01,9 5,10.01 5,11.25L 5,12L 2,12L 2,20C 2,21.1 2.9,22 4,22L 20,22C 21.1,22 22,21.1 22,20L 22,12L 11.15,12 Z M 7,20L 5,20L 5,14L 7,14L 7,20 Z M 11,20L 9,20L 9,14L 11,14L 11,20 Z M 15,20L 13,20L 13,14L 15,14L 15,20 Z M 19,20L 17,20L 17,14L 19,14L 19,20 Z M 18.65,5.86L 18.58,5.79C 18.01,5.17 17.76,4.38 17.91,3.59L 18,3L 16.11,3L 16.05,3.43C 15.85,4.79 16.32,6.14 17.35,7.15L 17.42,7.21C 17.99,7.83 18.24,8.62 18.09,9.41L 17.98,10L 19.89,10L 19.95,9.57C 20.16,8.21 19.68,6.86 18.65,5.86 Z M 14.65,5.86L 14.58,5.79C 14.01,5.17 13.76,4.38 13.91,3.59L 14,3L 12.11,3L 12.05,3.43C 11.85,4.79 12.32,6.14 13.35,7.15L 13.42,7.21C 13.99,7.83 14.24,8.62 14.09,9.41L 13.98,10L 15.89,10L 15.95,9.57C 16.16,8.21 15.68,6.86 14.65,5.86 Z "/>
</svg>
