<?xml version="1.0" encoding="utf-8"?>
<!DOCTYPE svg PUBLIC "-//W3C//DTD SVG 1.1//EN" "http://www.w3.org/Graphics/SVG/1.1/DTD/svg11.dtd">
<svg xmlns="http://www.w3.org/2000/svg" xmlns:xlink="http://www.w3.org/1999/xlink" version="1.1" baseProfile="full" width="24" height="24" viewBox="0 0 24.00 24.00" enable-background="new 0 0 24.00 24.00" xml:space="preserve">
	<path fill="#000000" fill-opacity="1" stroke-width="0.2" stroke-linejoin="round" d="M 18.9994,6.99807L 10.9994,6.99807L 10.9994,13.9981L 2.99939,13.9981L 2.99939,4.99807L 0.99939,4.99807L 0.99939,19.9981L 2.99939,19.9981L 2.99939,16.9981L 20.9994,16.9981L 20.9994,19.9981L 22.9994,19.9981L 22.9994,10.9981C 22.9994,8.78907 21.2084,6.99807 18.9994,6.99807 Z M 6.99939,12.9981C 8.6564,12.9981 9.99939,11.6551 9.99939,9.99807C 9.99939,8.34107 8.6564,6.99807 6.99939,6.99807C 5.34238,6.99807 3.99939,8.34107 3.99939,9.99807C 3.99939,11.6551 5.34238,12.9981 6.99939,12.9981 Z "/>
</svg>
