<?xml version="1.0" encoding="utf-8"?>
<!DOCTYPE svg PUBLIC "-//W3C//DTD SVG 1.1//EN" "http://www.w3.org/Graphics/SVG/1.1/DTD/svg11.dtd">
<svg xmlns="http://www.w3.org/2000/svg" xmlns:xlink="http://www.w3.org/1999/xlink" version="1.1" baseProfile="full" width="24" height="24" viewBox="0 0 24.00 24.00" enable-background="new 0 0 24.00 24.00" xml:space="preserve">
	<path fill="#000000" fill-opacity="1" stroke-width="1.33333" stroke-linejoin="miter" d="M 17.1,8.6L 17.1,6.2C 17.7,5.9 18.2,5.3 18.2,4.6L 18.2,4.5C 18.2,3.5 17.4,2.7 16.4,2.7L 16.3,2.7C 15.3,2.7 14.5,3.5 14.5,4.5L 14.5,4.6C 14.5,5.3 14.9,5.9 15.6,6.2L 15.6,8.6C 14.7,8.7 13.8,9.1 13.1,9.7L 6.5,4.6C 6.8,3.5 6.1,2.3 5,2.1C 3.9,1.9 2.8,2.4 2.5,3.5C 2.2,4.6 2.9,5.8 4,6.1C 4.5,6.2 5.1,6.2 5.6,5.9L 12,10.9C 10.8,12.7 10.8,15 12.1,16.8L 10.1,18.8C 9.9,18.8 9.8,18.7 9.6,18.7C 8.7,18.7 7.9,19.5 7.9,20.4C 7.9,21.3 8.7,22 9.6,22C 10.5,22 11.3,21.2 11.3,20.3L 11.3,20.3C 11.3,20.1 11.3,20 11.2,19.8L 13.1,17.9C 15.4,19.6 18.7,19.2 20.4,16.9C 22.1,14.6 21.7,11.3 19.4,9.6C 18.8,9.1 18,8.7 17.1,8.6M 16.3,16.4C 14.8,16.4 13.6,15.2 13.6,13.7C 13.6,12.2 14.8,11 16.3,11C 17.8,11 19,12.2 19,13.7C 19,15.2 17.8,16.4 16.3,16.4"/>
</svg>
