<?xml version="1.0" encoding="utf-8"?>
<!DOCTYPE svg PUBLIC "-//W3C//DTD SVG 1.1//EN" "http://www.w3.org/Graphics/SVG/1.1/DTD/svg11.dtd">
<svg xmlns="http://www.w3.org/2000/svg" xmlns:xlink="http://www.w3.org/1999/xlink" version="1.1" baseProfile="full" width="24" height="24" viewBox="0 0 24.00 24.00" enable-background="new 0 0 24.00 24.00" xml:space="preserve">
	<path fill="#000000" fill-opacity="1" stroke-width="0.2" stroke-linejoin="round" d="M 12.0025,1.00073C 10.8938,1.00073 10,1.89551 10,2.9978C 10,4.10625 10.8938,5 12.0025,5C 13.105,5 13.9987,4.10625 13.9987,2.9978C 13.9987,1.89551 13.105,1.00073 12.0025,1.00073 Z M 10,6.00125C 9.72625,6.00125 9.4825,6.10875 9.30625,6.28375L 9.30125,6.28375L 3.99875,11.5875L 5.415,12.9975L 8.99875,9.41375L 8.99875,22.0025L 11.0013,22.0025L 11.0013,15L 12.9975,15L 12.9975,22.0025L 15,22.0025L 15,9.41375L 18.5837,12.9975L 20,11.5875L 14.6975,6.28375C 14.5162,6.10875 14.2725,6.00125 13.9987,6.00125"/>
</svg>
