<?xml version="1.0" encoding="utf-8"?>
<!DOCTYPE svg PUBLIC "-//W3C//DTD SVG 1.1//EN" "http://www.w3.org/Graphics/SVG/1.1/DTD/svg11.dtd">
<svg xmlns="http://www.w3.org/2000/svg" xmlns:xlink="http://www.w3.org/1999/xlink" version="1.1" baseProfile="full" width="24" height="24" viewBox="0 0 24.00 24.00" enable-background="new 0 0 24.00 24.00" xml:space="preserve">
	<path fill="#000000" fill-opacity="1" stroke-width="0.2" stroke-linejoin="round" d="M 9,21.9999L 7,21.9999L 7,15.9999L 5,15.9999L 5,21.9999L 3,21.9999L 3,14L 2,14L 2,9C 2,7.89543 2.89543,7 4,7L 8,7C 9.10457,7 10,7.89543 10,9L 10,14L 9,14L 9,21.9999 Z M 6,1.99993C 7.104,1.99993 8,2.89486 8,3.99992C 8,5.10393 7.104,5.99992 6,5.99992C 4.89498,5.99992 4,5.10393 4,3.99992C 4,2.89486 4.89498,1.99993 6,1.99993 Z M 20,22L 18,22L 18,18L 16,18L 16,22L 14,22L 14,18L 12,18L 15,12L 15,9L 13.5,14L 12,14L 14,7.00001L 20,7L 22,14L 20.5,14L 19,9L 19,12L 22,18L 20,18L 20,22 Z M 17,2.00001C 18.104,2.00001 19,2.89494 19,4.00001C 19,5.10401 18.104,6.00001 17,6.00001C 15.895,6.00001 15,5.10401 15,4.00001C 15,2.89494 15.895,2.00001 17,2.00001 Z "/>
</svg>
