<?xml version="1.0" encoding="utf-8"?>
<!DOCTYPE svg PUBLIC "-//W3C//DTD SVG 1.1//EN" "http://www.w3.org/Graphics/SVG/1.1/DTD/svg11.dtd">
<svg xmlns="http://www.w3.org/2000/svg" xmlns:xlink="http://www.w3.org/1999/xlink" version="1.1" baseProfile="full" width="24" height="24" viewBox="0 0 24.00 24.00" enable-background="new 0 0 24.00 24.00" xml:space="preserve">
	<path fill="#000000" fill-opacity="1" stroke-width="1.33333" stroke-linejoin="miter" d="M 7.5,2C 8.6,2 9.5,2.9 9.5,4C 9.5,5.1 8.6,6 7.5,6C 6.4,6 5.5,5.1 5.5,4C 5.5,2.9 6.4,2 7.5,2 Z M 6,7L 9,7C 10.1,7 11,7.9 11,9L 11,14.5L 9.5,14.5L 9.5,22L 5.5,22L 5.5,14.5L 4,14.5L 4,9C 4,7.9 4.9,7 6,7 Z M 16.5,2C 17.6,2 18.5,2.9 18.5,4C 18.5,5.1 17.6,6 16.5,6C 15.4,6 14.5,5.1 14.5,4C 14.5,2.9 15.4,2 16.5,2 Z M 15,7L 18,7C 19.1,7 20,7.9 20,9L 20,14.5L 18.5,14.5L 18.5,22L 14.5,22L 14.5,14.5L 13,14.5L 13,9C 13,7.9 13.9,7 15,7 Z "/>
</svg>
