<?xml version="1.0" encoding="utf-8"?>
<!DOCTYPE svg PUBLIC "-//W3C//DTD SVG 1.1//EN" "http://www.w3.org/Graphics/SVG/1.1/DTD/svg11.dtd">
<svg xmlns="http://www.w3.org/2000/svg" xmlns:xlink="http://www.w3.org/1999/xlink" version="1.1" baseProfile="full" width="24" height="24" viewBox="0 0 24.00 24.00" enable-background="new 0 0 24.00 24.00" xml:space="preserve">
	<path fill="#000000" fill-opacity="1" stroke-width="1.33333" stroke-linejoin="miter" d="M 7.5,2C 8.6,2 9.5,2.9 9.5,4C 9.5,5.1 8.6,6 7.5,6C 6.4,6 5.5,5.1 5.5,4C 5.5,2.9 6.4,2 7.5,2 Z M 6,7L 9,7C 10.1,7 11,7.9 11,9L 11,14.5L 9.5,14.5L 9.5,22L 5.5,22L 5.5,14.5L 4,14.5L 4,9C 4,7.9 4.9,7 6,7 Z M 14.5,12C 14.5,10.9 15.4,10 16.5,10C 17.6,10 18.5,10.9 18.5,12C 18.5,13.1 17.6,14 16.5,14C 15.4,14 14.5,13.1 14.5,12 Z M 13.5,15L 19.5,15L 19.5,19L 18,19L 18,22L 15,22L 15,19L 13.5,19L 13.5,15 Z "/>
</svg>
