<?xml version="1.0" encoding="utf-8"?>
<!DOCTYPE svg PUBLIC "-//W3C//DTD SVG 1.1//EN" "http://www.w3.org/Graphics/SVG/1.1/DTD/svg11.dtd">
<svg xmlns="http://www.w3.org/2000/svg" xmlns:xlink="http://www.w3.org/1999/xlink" version="1.1" baseProfile="full" width="24" height="24" viewBox="0 0 24.00 24.00" enable-background="new 0 0 24.00 24.00" xml:space="preserve">
	<path fill="#000000" fill-opacity="1" stroke-width="0.2" stroke-linejoin="round" d="M 5,1C 5.005,3.7 6.5575,6.16125 8.99875,7.31875L 8.99875,22.0025L 11.0013,22.0025L 11.0013,15L 12.9975,15L 12.9975,22.0025L 15,22.0025L 15,7.31375C 17.4413,6.15625 18.9937,3.7 18.9988,1L 17.0025,1C 17.0025,3.76375 14.7612,6 12.0025,6C 9.23875,6 7.0025,3.76375 7.0025,1M 12.0025,1C 10.8938,1 10,1.89375 10,3.0025C 10,4.105 10.8938,4.99875 12.0025,4.99875C 13.105,4.99875 13.9987,4.105 13.9987,3.0025C 13.9987,1.89375 13.105,1 12.0025,1 Z "/>
</svg>
