<?xml version="1.0" encoding="utf-8"?>
<!DOCTYPE svg PUBLIC "-//W3C//DTD SVG 1.1//EN" "http://www.w3.org/Graphics/SVG/1.1/DTD/svg11.dtd">
<svg xmlns="http://www.w3.org/2000/svg" xmlns:xlink="http://www.w3.org/1999/xlink" version="1.1" baseProfile="full" width="24" height="24" viewBox="0 0 24.00 24.00" enable-background="new 0 0 24.00 24.00" xml:space="preserve">
	<path fill="#000000" fill-opacity="1" stroke-width="1.33333" stroke-linejoin="miter" d="M 9,4C 9,2.89 9.89,2 11,2C 12.11,2 13,2.89 13,4C 13,5.11 12.11,6 11,6C 9.89,6 9,5.11 9,4 Z M 16,13C 15.99,11.66 15.17,10.49 14,10C 14,8.34 12.66,7 11,7C 9.34,7 8,8.34 8,10L 8,17L 10,17L 10,22L 13,22L 13,17L 16,17L 16,13 Z "/>
</svg>
