<?xml version="1.0" encoding="utf-8"?>
<!DOCTYPE svg PUBLIC "-//W3C//DTD SVG 1.1//EN" "http://www.w3.org/Graphics/SVG/1.1/DTD/svg11.dtd">
<svg xmlns="http://www.w3.org/2000/svg" xmlns:xlink="http://www.w3.org/1999/xlink" version="1.1" baseProfile="full" width="24" height="24" viewBox="0 0 24.00 24.00" enable-background="new 0 0 24.00 24.00" xml:space="preserve">
	<path fill="#000000" fill-opacity="1" stroke-width="1.33333" stroke-linejoin="miter" d="M 7.5,2C 8.6,2 9.5,2.9 9.5,4C 9.5,5.1 8.6,6 7.5,6C 6.4,6 5.5,5.1 5.5,4C 5.5,2.9 6.4,2 7.5,2 Z M 6,22L 6,16L 3,16L 5.6,8.4C 5.9,7.6 6.6,7 7.5,7C 8.4,7 9.2,7.6 9.4,8.4L 12,16L 14.6,8.4C 14.9,7.6 15.6,7 16.5,7C 17.4,7 18.2,7.6 18.4,8.4L 21,16L 18,16L 18,22L 15,22L 15,16L 12,16L 9,16L 9,22L 6,22 Z M 16.5,2C 17.6,2 18.5,2.9 18.5,4C 18.5,5.1 17.6,6 16.5,6C 15.4,6 14.5,5.1 14.5,4C 14.5,2.9 15.4,2 16.5,2 Z "/>
</svg>
