<?xml version="1.0" encoding="utf-8"?>
<!DOCTYPE svg PUBLIC "-//W3C//DTD SVG 1.1//EN" "http://www.w3.org/Graphics/SVG/1.1/DTD/svg11.dtd">
<svg xmlns="http://www.w3.org/2000/svg" xmlns:xlink="http://www.w3.org/1999/xlink" version="1.1" baseProfile="full" width="24" height="24" viewBox="0 0 24.00 24.00" enable-background="new 0 0 24.00 24.00" xml:space="preserve">
	<path fill="#000000" fill-opacity="1" stroke-width="1.33333" stroke-linejoin="miter" d="M 16.913,18.118C 14.0925,18.118 18.4348,2.1295 18.4348,2.1295L 15.5282,2.1255C 15.5282,2.1255 14.3384,5.8886 13.5534,10.0701L 11.0483,10.0701C 11.1139,9.2102 11.1456,8.34 11.1312,7.475C 11.0183,0.590998 6.98638,1.866 5.18143,3.446C 3.46535,4.9479 2.02812,7.8014 2.00038,9.9988C 2.27375,9.9855 3.35377,9.9808 3.35377,9.9808C 3.35377,9.9808 4.25186,5.8836 7.07236,5.8836C 9.89247,5.8836 5.54361,21.8723 5.54361,21.8723L 8.45141,21.8743C 8.45141,21.8743 9.9543,17.5939 10.7017,12.8139L 13.0938,12.8002C 12.9545,14.0371 12.9102,15.4031 12.9306,16.6717C 13.0439,23.5556 17.0601,22.0783 18.865,20.4987C 20.67,18.9187 22.0169,15.5826 22.0002,13.9807L 20.6127,13.9915C 20.6177,14.118 19.7332,18.1175 16.9131,18.1175L 16.913,18.118 Z "/>
</svg>
