<?xml version="1.0" encoding="utf-8"?>
<!DOCTYPE svg PUBLIC "-//W3C//DTD SVG 1.1//EN" "http://www.w3.org/Graphics/SVG/1.1/DTD/svg11.dtd">
<svg xmlns="http://www.w3.org/2000/svg" xmlns:xlink="http://www.w3.org/1999/xlink" version="1.1" baseProfile="full" width="24" height="24" viewBox="0 0 24.00 24.00" enable-background="new 0 0 24.00 24.00" xml:space="preserve">
	<path fill="#000000" fill-opacity="1" stroke-width="1.33333" stroke-linejoin="miter" d="M 11.9063,6.39583L 10.8021,7.0625C 9.53125,3.70833 11.3646,3.52083 11.3646,3.52083C 10.1979,5.08333 11.9062,6.39583 11.9063,6.39583 Z M 13.4479,3.56251C 14.4687,3.56251 16.2812,5.6875 11.4062,10.25C 6.69792,14.6667 10.5104,15.9167 10.5104,15.9167C 8.42708,13.7292 12.1979,11.1875 12.1979,11.1875C 12.1979,11.1875 15.0104,12.5417 15.9896,13.125C 16.9687,13.7083 17.6016,17.2289 16.1146,18.9583C 13.3021,22.2292 5.73958,20.8958 4.76042,18.25C 4.34498,17.1274 2.98958,13.0417 5.69791,10.5417C 7.82291,8.66667 8.75222,9.17654 11.7812,7.39584C 15.2187,5.37501 13.4063,3.51914 13.4479,3.56251 Z M 2.24562,3.1449L 10.2924,7.34065L 8.35386,8.18932L 1.48331,4.60687C 1.0796,4.39636 0.922975,3.89844 1.13348,3.49473C 1.34398,3.09102 1.84191,2.93439 2.24562,3.1449 Z M 22.7339,13.8279C 23.1376,14.0384 23.2943,14.5364 23.0837,14.9401C 22.8732,15.3438 22.3753,15.5004 21.9716,15.2899L 12.6308,10.4194L 13.7358,9.13612L 22.7339,13.8279 Z "/>
</svg>
