<?xml version="1.0" encoding="utf-8"?>
<!DOCTYPE svg PUBLIC "-//W3C//DTD SVG 1.1//EN" "http://www.w3.org/Graphics/SVG/1.1/DTD/svg11.dtd">
<svg xmlns="http://www.w3.org/2000/svg" xmlns:xlink="http://www.w3.org/1999/xlink" version="1.1" baseProfile="full" width="24" height="24" viewBox="0 0 24.00 24.00" enable-background="new 0 0 24.00 24.00" xml:space="preserve">
	<path fill="#000000" fill-opacity="1" stroke-width="1.33333" stroke-linejoin="miter" d="M 15,6.79C 16.8607,7.8643 18.005,9.8515 18,12C 18,22 6,22 6,22C 7.25429,21.0563 8.37747,19.9499 9.34,18.71C 9.37733,18.6613 9.4101,18.6094 9.4379,18.5547C 9.68831,18.0624 9.49225,17.4604 9,17.21C 7.1393,16.1357 5.99504,14.1485 6,12C 6,2 18,2 18,2C 16.7457,2.9437 15.6225,4.0501 14.66,5.29C 14.6227,5.3387 14.5899,5.3906 14.5621,5.4453C 14.3117,5.9375 14.5077,6.5396 15,6.79 Z M 12,14C 13.1046,14 14,13.1046 14,12C 14,10.8954 13.1046,10 12,10C 10.8954,10 10,10.8954 10,12C 10,13.1046 10.8954,14 12,14 Z "/>
</svg>
