<?xml version="1.0" encoding="utf-8"?>
<!DOCTYPE svg PUBLIC "-//W3C//DTD SVG 1.1//EN" "http://www.w3.org/Graphics/SVG/1.1/DTD/svg11.dtd">
<svg xmlns="http://www.w3.org/2000/svg" xmlns:xlink="http://www.w3.org/1999/xlink" version="1.1" baseProfile="full" width="24" height="24" viewBox="0 0 24.00 24.00" enable-background="new 0 0 24.00 24.00" xml:space="preserve">
	<path fill="#000000" fill-opacity="1" stroke-width="1.33333" stroke-linejoin="miter" d="M 9.5,8.5L 11,10L 8,13L 11,16L 9.5,17.5L 5,13L 9.5,8.5 Z M 14.5,17.5L 13,16L 16,13L 13,10L 14.5,8.5L 19,13L 14.5,17.5 Z M 21,2L 3,2C 1.89543,2 1,2.8954 1,4L 1,20C 1,21.1046 1.89543,22 3,22L 21,22C 22.1046,22 23,21.1046 23,20L 23,4C 23,2.8954 22.1046,2 21,2 Z M 21,20L 3,20L 3,6L 21,6L 21,20 Z "/>
</svg>
