<?xml version="1.0" encoding="utf-8"?>
<!DOCTYPE svg PUBLIC "-//W3C//DTD SVG 1.1//EN" "http://www.w3.org/Graphics/SVG/1.1/DTD/svg11.dtd">
<svg xmlns="http://www.w3.org/2000/svg" xmlns:xlink="http://www.w3.org/1999/xlink" version="1.1" baseProfile="full" width="24" height="24" viewBox="0 0 24.00 24.00" enable-background="new 0 0 24.00 24.00" xml:space="preserve">
	<path fill="#000000" fill-opacity="1" stroke-width="1.33333" stroke-linejoin="miter" d="M 10.021,14.294L 6.51,18.975L 17.463,18.975L 14.748,15.464L 12.782,17.804L 10.021,14.294 Z M 5.013,20.987L 5.013,6.991L 18.962,6.991L 18.962,20.987L 5.013,20.987 Z M 11.987,2.404L 14.608,5.025L 9.366,5.025L 11.987,2.404 Z M 5.013,5.026C 4.483,5.026 4.014,5.221 3.609,5.611C 3.204,6.001 3,6.461 3,6.991L 3,20.987C 3,21.517 3.203,21.986 3.609,22.391C 4.015,22.796 4.482,23 5.013,23L 18.962,23C 19.492,23 19.961,22.797 20.366,22.391C 20.771,21.985 20.975,21.517 20.975,20.987L 20.975,6.991C 20.975,6.461 20.772,6 20.366,5.61C 19.96,5.22 19.492,5.025 18.962,5.025L 16.013,5.025L 11.987,1L 7.962,5.026L 5.013,5.026 Z "/>
</svg>
