<?xml version="1.0" encoding="utf-8"?>
<!DOCTYPE svg PUBLIC "-//W3C//DTD SVG 1.1//EN" "http://www.w3.org/Graphics/SVG/1.1/DTD/svg11.dtd">
<svg xmlns="http://www.w3.org/2000/svg" xmlns:xlink="http://www.w3.org/1999/xlink" version="1.1" baseProfile="full" width="24" height="24" viewBox="0 0 24.00 24.00" enable-background="new 0 0 24.00 24.00" xml:space="preserve">
	<path fill="#000000" fill-opacity="1" stroke-width="0.2" stroke-linejoin="round" d="M 22.0025,16.0012L 22.0025,3.99875C 22.0025,2.9 21.0987,2.0025 20,2.0025L 7.9975,2.0025C 6.9,2.0025 6.00125,2.9 6.00125,3.99875L 6.00125,16.0012C 6.00125,17.1 6.9,17.9975 7.9975,17.9975L 20,17.9975C 21.0987,17.9975 22.0025,17.1 22.0025,16.0012 Z M 11.0013,12.0025L 13.0325,14.7125L 16.0012,11.0012L 20,16.0012L 7.9975,16.0012M 2.0025,6.00125L 2.0025,20C 2.0025,21.0988 2.9,22.0025 3.99875,22.0025L 17.9975,22.0025L 17.9975,20L 3.99875,20L 3.99875,6.00125"/>
</svg>
