<?xml version="1.0" encoding="utf-8"?>
<!DOCTYPE svg PUBLIC "-//W3C//DTD SVG 1.1//EN" "http://www.w3.org/Graphics/SVG/1.1/DTD/svg11.dtd">
<svg xmlns="http://www.w3.org/2000/svg" xmlns:xlink="http://www.w3.org/1999/xlink" version="1.1" baseProfile="full" width="24" height="24" viewBox="0 0 24.00 24.00" enable-background="new 0 0 24.00 24.00" xml:space="preserve">
	<path fill="#000000" fill-opacity="1" stroke-width="0.2" stroke-linejoin="round" d="M 18.9989,3C 20.104,3 21,3.89551 21,5L 21,11L 19,11L 19,13L 18.9988,13L 17,13L 17,15L 15,15L 15,17L 13,17L 13,19L 11,19L 11,21L 4.99105,21C 3.88607,21 3,20.1045 3,19L 3,5C 3,3.89551 3.88607,3 4.99105,3L 18.9989,3 Z M 21,15L 21,19C 21,20.1041 20.1046,20.9994 19,21L 18.9989,21L 15,21L 15,19L 17,19L 17,17L 19,17L 19,15L 21,15 Z M 18.9988,8.50002C 18.9988,8.22398 18.7749,8.00002 18.4985,8.00002L 5.49136,8.00002C 5.21516,8.00002 4.99104,8.22398 4.99104,8.50002L 4.99104,15.5C 4.99104,15.7761 5.21516,16 5.49136,16L 11,16L 11,15L 13,15L 13,13L 15,13L 15,11L 17,11L 17,9.00001L 18.9988,9.00001L 18.9988,8.50002 Z "/>
</svg>
