<?xml version="1.0" encoding="utf-8"?>
<!DOCTYPE svg PUBLIC "-//W3C//DTD SVG 1.1//EN" "http://www.w3.org/Graphics/SVG/1.1/DTD/svg11.dtd">
<svg xmlns="http://www.w3.org/2000/svg" xmlns:xlink="http://www.w3.org/1999/xlink" version="1.1" baseProfile="full" width="24" height="24" viewBox="0 0 24.00 24.00" enable-background="new 0 0 24.00 24.00" xml:space="preserve">
	<path fill="#000000" fill-opacity="1" stroke-linejoin="round" d="M 19,18L 6,18C 3.79,18 2,16.21 2,14C 2,11.79 3.79,10 6,10C 8.21,10 10,11.79 10,14L 12,14C 12,11.24 10.14,8.92 7.6,8.22C 8.61,6.88 10.2,6 12,6C 15.03,6 17.5,8.47 17.5,11.5L 17.5,12L 19,12C 20.65,12 22,13.35 22,15C 22,16.65 20.65,18 19,18 Z M 19.35,10.04C 18.67,6.59 15.64,4 12,4C 9.11,4 6.61,5.64 5.36,8.04C 2.35,8.36 0,10.9 0,14C 0,17.31 2.69,20 6,20L 19,20C 21.76,20 24,17.76 24,15C 24,12.36 21.95,10.22 19.35,10.04 Z "/>
</svg>
