<?xml version="1.0" encoding="utf-8"?>
<!DOCTYPE svg PUBLIC "-//W3C//DTD SVG 1.1//EN" "http://www.w3.org/Graphics/SVG/1.1/DTD/svg11.dtd">
<svg xmlns="http://www.w3.org/2000/svg" xmlns:xlink="http://www.w3.org/1999/xlink" version="1.1" baseProfile="full" width="24" height="24" viewBox="0 0 24.00 24.00" enable-background="new 0 0 24.00 24.00" xml:space="preserve">
	<path fill="#000000" fill-opacity="1" stroke-width="1.33333" stroke-linejoin="miter" d="M 18.9989,3L 4.9911,3C 3.886,3 3.00001,3.89551 3.00001,5L 3.00001,19C 3.00001,20.1045 3.886,21 4.9911,21L 18.9989,21C 20.104,21 21,20.1045 21,19L 21,5C 21,3.89551 20.104,3 18.9989,3 Z M 18.9989,15.5C 18.9989,15.7761 18.7749,16 18.4986,16L 5.49138,16C 5.21511,16 4.9911,15.7761 4.9911,15.5L 4.9911,8.5C 4.9911,8.22388 5.21511,8 5.49138,8L 18.4986,8C 18.7749,8 18.9989,8.22388 18.9989,8.5L 18.9989,15.5 Z "/>
</svg>
