<?xml version="1.0" encoding="utf-8"?>
<!DOCTYPE svg PUBLIC "-//W3C//DTD SVG 1.1//EN" "http://www.w3.org/Graphics/SVG/1.1/DTD/svg11.dtd">
<svg xmlns="http://www.w3.org/2000/svg" xmlns:xlink="http://www.w3.org/1999/xlink" version="1.1" baseProfile="full" width="24" height="24" viewBox="0 0 24.00 24.00" enable-background="new 0 0 24.00 24.00" xml:space="preserve">
	<path fill="#000000" fill-opacity="1" stroke-width="0.2" stroke-linejoin="round" d="M 21.0013,5L 21.0013,11.5912L 17.9975,8.57875L 13.9987,12.5875L 10,8.58875L 6.00125,12.5875L 2.9975,9.58L 2.9975,5C 2.9975,3.90125 3.90125,2.9978 5,2.9978L 18.9988,2.9978C 20.0975,2.9978 21.0013,3.90125 21.0013,5 Z M 17.9975,11.4213L 21.0013,14.4288L 21.0013,18.9988C 21.0013,20.0975 20.0975,21.0012 18.9988,21.0012L 5,21.0012C 3.90125,21.0012 2.9975,20.0975 2.9975,18.9988L 2.9975,12.4213L 6.00125,15.41L 10,11.4113L 13.9987,15.41"/>
</svg>
