<?xml version="1.0" encoding="utf-8"?>
<!DOCTYPE svg PUBLIC "-//W3C//DTD SVG 1.1//EN" "http://www.w3.org/Graphics/SVG/1.1/DTD/svg11.dtd">
<svg xmlns="http://www.w3.org/2000/svg" xmlns:xlink="http://www.w3.org/1999/xlink" version="1.1" baseProfile="full" width="24" height="24" viewBox="0 0 24.00 24.00" enable-background="new 0 0 24.00 24.00" xml:space="preserve">
	<path fill="#000000" fill-opacity="1" stroke-linejoin="round" d="M 18,8L 6,8L 6,18L 18,18M 20,20L 4,20L 4,6L 8.52,6L 12.04,2.5L 15.52,6L 20,6M 20,4L 16,4L 12,1.90735e-006L 8,4L 4,4C 2.9,4 2,4.9 2,6L 2,20C 2,21.1 2.9,22 4,22L 20,22C 21.1,22 22,21.1 22,20L 22,6C 22,4.9 21.1,4 20,4 Z "/>
</svg>
