<?xml version="1.0" encoding="utf-8"?>
<!DOCTYPE svg PUBLIC "-//W3C//DTD SVG 1.1//EN" "http://www.w3.org/Graphics/SVG/1.1/DTD/svg11.dtd">
<svg xmlns="http://www.w3.org/2000/svg" xmlns:xlink="http://www.w3.org/1999/xlink" version="1.1" baseProfile="full" width="24" height="24" viewBox="0 0 24.00 24.00" enable-background="new 0 0 24.00 24.00" xml:space="preserve">
	<path fill="#000000" fill-opacity="1" stroke-linejoin="round" d="M 5.68,19.74C 7.16,20.95 9,21.75 11,21.95L 11,19.93C 9.54,19.75 8.21,19.17 7.1,18.31M 13,19.93L 13,21.95C 15.01,21.75 16.84,20.95 18.32,19.74L 16.89,18.31C 15.79,19.17 14.46,19.75 13,19.93 Z M 18.31,16.9L 19.74,18.33C 20.95,16.85 21.75,15.01 21.95,13.01L 19.93,13.01C 19.75,14.46 19.17,15.79 18.31,16.9 Z M 15,12C 15,10.34 13.66,9 12,9C 10.34,9 9,10.34 9,12C 9,13.66 10.34,15 12,15C 13.66,15 15,13.66 15,12 Z M 4.07,13L 2.05,13C 2.25,15.01 3.05,16.84 4.26,18.32L 5.69,16.89C 4.83,15.79 4.25,14.46 4.07,13 Z M 5.69,7.1L 4.26,5.68C 3.05,7.16 2.25,8.99 2.05,11L 4.07,11C 4.25,9.54 4.83,8.21 5.69,7.1 Z M 19.93,11L 21.95,11C 21.75,8.99 20.95,7.16 19.74,5.68L 18.31,7.1C 19.17,8.21 19.75,9.54 19.93,11 Z M 18.32,4.26C 16.84,3.05 15.01,2.25 13,2.05L 13,4.07C 14.46,4.25 15.79,4.83 16.9,5.69M 11,4.07L 11,2.05C 8.99,2.25 7.16,3.05 5.68,4.26L 7.1,5.69C 8.21,4.83 9.54,4.25 11,4.07 Z "/>
</svg>
