<?xml version="1.0" encoding="utf-8"?>
<!DOCTYPE svg PUBLIC "-//W3C//DTD SVG 1.1//EN" "http://www.w3.org/Graphics/SVG/1.1/DTD/svg11.dtd">
<svg xmlns="http://www.w3.org/2000/svg" xmlns:xlink="http://www.w3.org/1999/xlink" version="1.1" baseProfile="full" width="24" height="24" viewBox="0 0 24.00 24.00" enable-background="new 0 0 24.00 24.00" xml:space="preserve">
	<path fill="#000000" fill-opacity="1" stroke-width="1.33333" stroke-linejoin="miter" d="M 15.5156,9C 16.2031,9 16.7891,8.7578 17.2734,8.2734C 17.7578,7.7891 18,7.2031 18,6.5156C 18,5.8281 17.7578,5.2344 17.2734,4.7344C 16.7891,4.2344 16.2031,3.9844 15.5156,3.9844C 14.8281,3.9844 14.2344,4.2344 13.7344,4.7344C 13.2344,5.2344 12.9844,5.8281 12.9844,6.5156C 12.9844,7.2031 13.2344,7.7891 13.7344,8.2734C 14.2344,8.7578 14.8281,9 15.5156,9 Z M 19.3125,8.9062L 22.4063,12L 21,13.4062L 17.8594,10.3125C 17.0781,10.7812 16.2813,11.0156 15.4688,11.0156C 14.2188,11.0156 13.1641,10.5781 12.3047,9.7031C 11.4453,8.8281 11.0156,7.7656 11.0156,6.5156C 11.0156,5.2656 11.4531,4.2031 12.3281,3.3281C 13.2031,2.4531 14.2656,2.0156 15.5156,2.0156C 16.7656,2.0156 17.8281,2.4531 18.7031,3.3281C 19.5781,4.2031 20.0156,5.2656 20.0156,6.5156C 20.0156,7.3281 19.7813,8.125 19.3125,8.9062 Z M 16.5,18L 5.48438,18L 8.25,14.4844L 10.2188,16.8281L 12.9375,13.3125L 16.5,18 Z M 18,12.9844L 20.0156,15L 20.0156,20.0156C 20.0156,20.5469 19.8125,21.0078 19.4063,21.3984C 19,21.7891 18.5313,21.9844 18,21.9844L 3.98438,21.9844C 3.45312,21.9844 2.99219,21.7891 2.60156,21.3984C 2.21094,21.0078 2.01563,20.5469 2.01563,20.0156L 2.01563,6C 2.01563,5.4687 2.21094,5 2.60156,4.5937C 2.99219,4.1875 3.45312,3.9844 3.98438,3.9844L 9.51563,3.9844C 9.20312,4.6406 9.03125,5.3125 9,6L 3.98438,6L 3.98438,20.0156L 18,20.0156L 18,12.9844 Z "/>
</svg>
