<?xml version="1.0" encoding="utf-8"?>
<!DOCTYPE svg PUBLIC "-//W3C//DTD SVG 1.1//EN" "http://www.w3.org/Graphics/SVG/1.1/DTD/svg11.dtd">
<svg xmlns="http://www.w3.org/2000/svg" xmlns:xlink="http://www.w3.org/1999/xlink" version="1.1" baseProfile="full" width="24" height="24" viewBox="0 0 24.00 24.00" enable-background="new 0 0 24.00 24.00" xml:space="preserve">
	<path fill="#000000" fill-opacity="1" stroke-width="0.2" stroke-linejoin="miter" d="M 15.5,2C 17.9853,2 20,4.01472 20,6.5C 20,7.38261 19.7459,8.20586 19.3069,8.90061L 22.3906,11.9844L 20.9844,13.3906L 17.8763,10.3221C 17.1867,10.7518 16.3723,11 15.5,11C 13.0147,11 11,8.98528 11,6.5C 11,4.01472 13.0147,2 15.5,2 Z M 15.5,4.00001C 14.1193,4.00001 13,5.1193 13,6.50001C 13,7.88072 14.1193,9 15.5,9C 16.8807,9 18,7.88072 18,6.50001C 18,5.1193 16.8807,4.00001 15.5,4.00001 Z M 7.5,14.5L 4,19L 18,19L 13.5,13L 10,17.5L 7.5,14.5 Z M 20,20C 20,21.1046 19.1046,22 18,22L 4,22C 2.89543,22 2,21.1046 2,20L 2,6.00001C 2,4.89541 2.89543,4.00001 4,4.00001L 9.49816,4.00001C 9.17722,4.7696 9,5.6141 9,6.5C 9,10.0899 11.9101,13 15.5,13C 16.1821,13 16.8397,12.8949 17.4574,12.7001L 20,15.2427L 20,20 Z "/>
</svg>
