<?xml version="1.0" encoding="utf-8"?>
<!DOCTYPE svg PUBLIC "-//W3C//DTD SVG 1.1//EN" "http://www.w3.org/Graphics/SVG/1.1/DTD/svg11.dtd">
<svg xmlns="http://www.w3.org/2000/svg" xmlns:xlink="http://www.w3.org/1999/xlink" version="1.1" baseProfile="full" width="24" height="24" viewBox="0 0 24.00 24.00" enable-background="new 0 0 24.00 24.00" xml:space="preserve">
	<path fill="#000000" fill-opacity="1" stroke-width="0.2" stroke-linejoin="round" d="M 5,15L 2.9975,15L 2.9975,18.9988C 2.9975,20.0975 3.90125,21.0012 5,21.0012L 8.99875,21.0012L 8.99875,18.9988L 5,18.9988M 5,5L 8.99875,5L 8.99875,2.9978L 5,2.9978C 3.90125,2.9978 2.9975,3.90125 2.9975,5L 2.9975,8.99875L 5,8.99875M 18.9988,2.9978L 15,2.9978L 15,5L 18.9988,5L 18.9988,8.99875L 21.0013,8.99875L 21.0013,5C 21.0013,3.90125 20.0975,2.9978 18.9988,2.9978 Z M 18.9988,18.9988L 15,18.9988L 15,21.0012L 18.9988,21.0012C 20.0975,21.0012 21.0013,20.0975 21.0013,18.9988L 21.0013,15L 18.9988,15M 12.0025,7.9975C 9.79,7.9975 7.9975,9.79 7.9975,12.0025C 7.9975,14.2087 9.79,16.0012 12.0025,16.0012C 14.2087,16.0012 16.0012,14.2087 16.0012,12.0025C 16.0012,9.79 14.2087,7.9975 12.0025,7.9975 Z M 12.0025,13.9987C 10.8988,13.9987 10,13.1 10,12.0025C 10,10.8987 10.8988,10 12.0025,10C 13.1,10 13.9987,10.8987 13.9987,12.0025C 13.9987,13.1 13.1,13.9987 12.0025,13.9987 Z "/>
</svg>
