<?xml version="1.0" encoding="utf-8"?>
<!DOCTYPE svg PUBLIC "-//W3C//DTD SVG 1.1//EN" "http://www.w3.org/Graphics/SVG/1.1/DTD/svg11.dtd">
<svg xmlns="http://www.w3.org/2000/svg" xmlns:xlink="http://www.w3.org/1999/xlink" version="1.1" baseProfile="full" width="24" height="24" viewBox="0 0 24.00 24.00" enable-background="new 0 0 24.00 24.00" xml:space="preserve">
	<path fill="#000000" fill-opacity="1" stroke-width="1.33333" stroke-linejoin="miter" d="M 21,15L 23,15L 23,17L 21,17L 21,15 Z M 21,11L 23,11L 23,13L 21,13L 21,11 Z M 23,19L 21,19L 21,21C 22,21 23,20 23,19 Z M 13,3L 15,3L 15,5L 13,5L 13,3 Z M 21,7L 23,7L 23,9L 21,9L 21,7 Z M 21,3L 21,5L 23,5C 23,4 22,3 21,3 Z M 1,7L 3,7L 3,9L 1,9L 1,7 Z M 17,3L 19,3L 19,5L 17,5L 17,3 Z M 17,19L 19,19L 19,21L 17,21L 17,19 Z M 3,3C 2,3 1,4 1,5L 3,5L 3,3 Z M 9,3L 11,3L 11,5L 9,5L 9,3 Z M 5,3L 7,3L 7,5L 5,5L 5,3 Z M 1,11L 1,19C 1,20.1 1.9,21 3,21L 15,21L 15,11L 1,11 Z M 3,19L 5.5,15.79L 7.29,17.94L 9.79,14.72L 13,19L 3,19 Z "/>
</svg>
