<?xml version="1.0" encoding="utf-8"?>
<!DOCTYPE svg PUBLIC "-//W3C//DTD SVG 1.1//EN" "http://www.w3.org/Graphics/SVG/1.1/DTD/svg11.dtd">
<svg xmlns="http://www.w3.org/2000/svg" xmlns:xlink="http://www.w3.org/1999/xlink" version="1.1" baseProfile="full" width="24" height="24" viewBox="0 0 24.00 24.00" enable-background="new 0 0 24.00 24.00" xml:space="preserve">
	<path fill="#000000" fill-opacity="1" stroke-width="1.33333" stroke-linejoin="miter" d="M 23,15L 21,15L 21,17L 23,17L 23,15 Z M 23,11L 21,11L 21,13L 23,13L 23,11 Z M 23,19L 21,19L 21,21C 22,21 23,20 23,19 Z M 15,3L 13,3L 13,5L 15,5L 15,3 Z M 23,7L 21,7L 21,9L 23,9L 23,7 Z M 21,3L 21,5L 23,5C 23,4 22,3 21,3 Z M 3,21L 11,21L 11,15L 1,15L 1,19C 1,20.1 1.9,21 3,21 Z M 3,7L 1,7L 1,9L 3,9L 3,7 Z M 15,19L 13,19L 13,21L 15,21L 15,19 Z M 19,3L 17,3L 17,5L 19,5L 19,3 Z M 19,19L 17,19L 17,21L 19,21L 19,19 Z M 3,3C 2,3 1,4 1,5L 3,5L 3,3 Z M 3,11L 1,11L 1,13L 3,13L 3,11 Z M 11,3L 9,3L 9,5L 11,5L 11,3 Z M 7,3L 5,3L 5,5L 7,5L 7,3 Z "/>
</svg>
