<?xml version="1.0" encoding="utf-8"?>
<!DOCTYPE svg PUBLIC "-//W3C//DTD SVG 1.1//EN" "http://www.w3.org/Graphics/SVG/1.1/DTD/svg11.dtd">
<svg xmlns="http://www.w3.org/2000/svg" xmlns:xlink="http://www.w3.org/1999/xlink" version="1.1" baseProfile="full" width="24" height="24" viewBox="0 0 24.00 24.00" enable-background="new 0 0 24.00 24.00" xml:space="preserve">
	<path fill="#000000" fill-opacity="1" stroke-width="0.2" stroke-linejoin="round" d="M 14,12L 10,8L 10,11L 2.00001,11L 2.00001,13L 10,13L 10,16M 20,18L 20,6.00002C 20,4.89002 19.1,4.00002 18,4.00002L 6,4.00001C 4.9,4.00001 4,4.89001 4,6.00001L 4,9L 6,9L 6,6.00001L 18,6.00002L 18,18L 6,18L 6,15L 4,15L 4,18C 4,19.1 4.9,20 6,20L 18,20C 19.1,20 20,19.11 20,18 Z "/>
</svg>
