<?xml version="1.0" encoding="utf-8"?>
<!DOCTYPE svg PUBLIC "-//W3C//DTD SVG 1.1//EN" "http://www.w3.org/Graphics/SVG/1.1/DTD/svg11.dtd">
<svg xmlns="http://www.w3.org/2000/svg" xmlns:xlink="http://www.w3.org/1999/xlink" version="1.1" baseProfile="full" width="24" height="24" viewBox="0 0 24.00 24.00" enable-background="new 0 0 24.00 24.00" xml:space="preserve">
	<path fill="#000000" fill-opacity="1" stroke-width="1.33333" stroke-linejoin="miter" d="M 19,3C 20.1,3 21,3.9 21,5L 21,12C 21,13.1 20.1,14 19,14L 5,14C 3.9,14 3,13.1 3,12L 3,5C 3,3.9 3.9,3 5,3L 19,3 Z M 5,10L 5,12L 9.4,12C 8.8,11.47 8.34,10.78 8.13,10L 5,10 Z M 19,12L 19,10L 15.87,10C 15.66,10.78 15.2,11.47 14.6,12L 19,12 Z M 19,8L 19,5L 5,5L 5,8L 10,8L 10,9C 10,10.07 10.93,11 12,11C 13.07,11 14,10.07 14,9L 14,8L 19,8 Z M 21,19C 21,20.1 20.1,21 19,21L 5,21C 3.9,21 3,20.1 3,19L 3,15L 10,15L 10,16C 10,17.07 10.93,18 12,18C 13.07,18 14,17.07 14,16L 14,15L 21,15L 21,19 Z M 4.99999,17L 4.99999,19L 9.39999,19C 8.79999,18.47 8.33999,17.78 8.12999,17L 4.99999,17 Z M 19,19L 19,17L 15.87,17C 15.66,17.78 15.2,18.47 14.6,19L 19,19 Z "/>
</svg>
