<?xml version="1.0" encoding="utf-8"?>
<!DOCTYPE svg PUBLIC "-//W3C//DTD SVG 1.1//EN" "http://www.w3.org/Graphics/SVG/1.1/DTD/svg11.dtd">
<svg xmlns="http://www.w3.org/2000/svg" xmlns:xlink="http://www.w3.org/1999/xlink" version="1.1" baseProfile="full" width="24" height="24" viewBox="0 0 24.00 24.00" enable-background="new 0 0 24.00 24.00" xml:space="preserve">
	<path fill="#000000" fill-opacity="1" stroke-width="0.2" stroke-linejoin="round" d="M 16,10L 14,10L 14,7L 10,7L 10,10L 8,10L 12,14M 19,15L 15,15C 15,16.66 13.66,18 12,18C 10.34,18 9,16.66 9,15L 4.99,15L 4.99,5L 19,5M 19,3L 4.99,3C 3.89,3 3.01,3.9 3.01,5L 3,19C 3,20.1 3.89,21 4.99,21L 19,21C 20.1,21 21,20.1 21,19L 21,5C 21,3.9 20.1,3 19,3 Z "/>
</svg>
