<?xml version="1.0" encoding="utf-8"?>
<!DOCTYPE svg PUBLIC "-//W3C//DTD SVG 1.1//EN" "http://www.w3.org/Graphics/SVG/1.1/DTD/svg11.dtd">
<svg xmlns="http://www.w3.org/2000/svg" xmlns:xlink="http://www.w3.org/1999/xlink" version="1.1" baseProfile="full" width="24" height="24" viewBox="0 0 24.00 24.00" enable-background="new 0 0 24.00 24.00" xml:space="preserve">
	<path fill="#000000" fill-opacity="1" stroke-width="0.2" stroke-linejoin="round" d="M 18.9988,7.9975L 18.9988,5L 5,5L 5,7.9975L 8.99875,7.9975C 8.99875,9.65875 10.2975,11.0012 12.0025,11.0012C 13.6625,11.0012 15,9.65875 15,7.9975L 18.9988,7.9975 Z M 18.9987,2.9978C 20.0975,2.9978 21.0012,3.90125 21.0012,5.00001L 21.0012,12.0025C 21.0012,13.1 20.0975,13.9987 18.9987,13.9987L 5,13.9987C 3.90125,13.9987 2.9975,13.1 2.9975,12.0025L 2.9975,5.00001C 2.9975,3.90125 3.90125,2.9978 5,2.9978L 18.9987,2.9978 Z M 2.9975,15L 8.99875,15C 8.99875,16.66 10.3413,17.9975 12.0025,17.9975C 13.6625,17.9975 15,16.66 15,15L 21.0012,15L 21.0012,18.9988C 21.0012,20.0975 20.0975,21.0012 18.9987,21.0012L 5,21.0012C 3.90125,21.0012 2.9975,20.0975 2.9975,18.9988L 2.9975,15 Z "/>
</svg>
