<?xml version="1.0" encoding="utf-8"?>
<!DOCTYPE svg PUBLIC "-//W3C//DTD SVG 1.1//EN" "http://www.w3.org/Graphics/SVG/1.1/DTD/svg11.dtd">
<svg xmlns="http://www.w3.org/2000/svg" xmlns:xlink="http://www.w3.org/1999/xlink" version="1.1" baseProfile="full" width="24" height="24" viewBox="0 0 24.00 24.00" enable-background="new 0 0 24.00 24.00" xml:space="preserve">
	<path fill="#000000" fill-opacity="1" stroke-width="1.33333" stroke-linejoin="miter" d="M 13.5,4C 12.6716,4 12,4.6716 12,5.5C 12,6.3284 12.6716,7 13.5,7C 14.3284,7 15,6.3284 15,5.5C 15,4.6716 14.3284,4 13.5,4 Z M 13.1367,8.7695C 11.9453,8.8716 8.69531,11.459 8.69531,11.459C 8.51652,11.6084 8.55632,11.5972 8.71875,11.877C 8.87863,12.1523 8.85754,12.1685 9.05273,12.0391C 9.24793,11.9096 9.58031,11.7049 10.1328,11.3555C 12.2484,9.9986 10.466,13.1448 9.5625,18.4258C 9.20337,21.0518 11.5571,19.6977 12.166,19.3027C 12.7749,18.9078 14.3772,17.8013 14.5391,17.6894C 14.7601,17.5367 14.6003,17.4162 14.4297,17.1719C 14.3107,17.0014 14.1875,17.1152 14.1875,17.1152C 13.5423,17.553 12.3479,18.4527 12.1855,17.8809C 12.0231,17.309 13.2232,13.4001 13.8926,10.709C 14.0161,10.0747 14.2968,8.6701 13.1367,8.7695 Z "/>
</svg>
