<?xml version="1.0" encoding="utf-8"?>
<!DOCTYPE svg PUBLIC "-//W3C//DTD SVG 1.1//EN" "http://www.w3.org/Graphics/SVG/1.1/DTD/svg11.dtd">
<svg xmlns="http://www.w3.org/2000/svg" xmlns:xlink="http://www.w3.org/1999/xlink" version="1.1" baseProfile="full" width="24" height="24" viewBox="0 0 24.00 24.00" enable-background="new 0 0 24.00 24.00" xml:space="preserve">
	<path fill="#000000" fill-opacity="1" stroke-width="0.2" stroke-linejoin="round" d="M 19.9994,6.49807C 19.9994,6.77407 19.7754,6.99807 19.4994,6.99807L 17.4994,6.99807C 17.2234,6.99807 16.9994,6.77407 16.9994,6.49807L 16.9994,4.49807C 16.9994,4.22207 17.2234,3.99807 17.4994,3.99807L 19.4994,3.99807C 19.7754,3.99807 19.9994,4.22207 19.9994,4.49807M 4.49936,19.9981C 4.22336,19.9981 3.99936,19.7741 3.99936,19.4981L 3.99936,10.9981L 6.08937,10.9981C 6.03437,11.3242 5.99936,11.6561 5.99936,11.9981C 5.99936,15.3111 8.68536,17.9981 11.9994,17.9981C 15.3124,17.9981 17.9994,15.3111 17.9994,11.9981C 17.9994,11.6561 17.9642,11.3242 17.9095,10.9981L 19.9994,10.9981L 19.9994,19.4981C 19.9994,19.7741 19.7754,19.9981 19.4994,19.9981M 11.9994,7.99807C 14.2084,7.99807 15.9994,9.78907 15.9994,11.9981C 15.9994,14.2071 14.2084,15.9981 11.9994,15.9981C 9.79036,15.9981 7.99936,14.2071 7.99936,11.9981C 7.99936,9.78907 9.79036,7.99807 11.9994,7.99807 Z M 19.9994,1.99807L 3.99936,1.99807C 2.89436,1.99807 2.00936,2.89307 2.00936,3.99807L 1.99936,19.9981C 1.99936,21.1016 2.89436,21.9981 3.99936,21.9981L 19.9994,21.9981C 21.1029,21.9981 21.9994,21.1016 21.9994,19.9981L 21.9994,3.99807C 21.9994,2.89307 21.1029,1.99807 19.9994,1.99807 Z "/>
</svg>
