<?xml version="1.0" encoding="utf-8"?>
<!DOCTYPE svg PUBLIC "-//W3C//DTD SVG 1.1//EN" "http://www.w3.org/Graphics/SVG/1.1/DTD/svg11.dtd">
<svg xmlns="http://www.w3.org/2000/svg" xmlns:xlink="http://www.w3.org/1999/xlink" version="1.1" baseProfile="full" width="24" height="24" viewBox="0 0 24.00 24.00" enable-background="new 0 0 24.00 24.00" xml:space="preserve">
	<path fill="#000000" fill-opacity="1" stroke-width="0.2" stroke-linejoin="miter" d="M 15,9L 13,9L 13,7L 15,7L 15,9 Z M 22,20L 22,22L 15,22C 15,22.5523 14.5523,23 14,23L 10,23C 9.44771,23 9,22.5523 9,22L 2,22L 2,20L 9,20C 9,19.4477 9.44771,19 10,19L 11,19L 11,17L 7,17C 5.89543,17 5,16.1046 5,15L 5,5C 5,3.8954 5.89543,3 7,3L 17,3C 18.1046,3 19,3.8954 19,5L 19,15C 19,16.1046 18.1046,17 17,17L 13,17L 13,19L 14,19C 14.5523,19 15,19.4477 15,20L 22,20 Z M 9,5L 7,5L 7,15L 9,15L 9,5 Z M 11,15L 13,15L 13,11L 15,11C 16.1046,11 17,10.1046 17,9L 17,7C 17,5.8954 16.1046,5 15,5L 11,5L 11,15 Z "/>
</svg>
