<?xml version="1.0" encoding="utf-8"?>
<!DOCTYPE svg PUBLIC "-//W3C//DTD SVG 1.1//EN" "http://www.w3.org/Graphics/SVG/1.1/DTD/svg11.dtd">
<svg xmlns="http://www.w3.org/2000/svg" xmlns:xlink="http://www.w3.org/1999/xlink" version="1.1" baseProfile="full" width="24" height="24" viewBox="0 0 24.00 24.00" enable-background="new 0 0 24.00 24.00" xml:space="preserve">
	<path fill="#050708" fill-opacity="1" stroke-width="0.2" stroke-linejoin="round" d="M 15.9994,11L 13.9994,11L 13.9994,9L 15.9994,9L 15.9994,11 Z M 2.9994,5C 2.9994,3.896 3.8934,3 4.9994,3L 18.9994,3C 20.1029,3 20.9994,3.896 20.9994,5L 20.9994,19C 20.9994,20.104 20.1029,21 18.9994,21L 4.9994,21C 3.8934,21 2.9994,20.104 2.9994,19L 2.9994,5 Z M 9.99939,7.00001L 7.99939,7.00001L 7.99939,17L 9.99939,17L 9.99939,7.00001 Z M 11.9994,17L 13.9994,17L 13.9994,13L 15.9994,13C 17.104,13 17.9994,12.1046 17.9994,11L 17.9994,9.00001C 17.9994,7.89541 17.104,7.00001 15.9994,7.00001L 11.9994,7.00001L 11.9994,17 Z "/>
</svg>
