<?xml version="1.0" encoding="utf-8"?>
<!DOCTYPE svg PUBLIC "-//W3C//DTD SVG 1.1//EN" "http://www.w3.org/Graphics/SVG/1.1/DTD/svg11.dtd">
<svg xmlns="http://www.w3.org/2000/svg" xmlns:xlink="http://www.w3.org/1999/xlink" version="1.1" baseProfile="full" width="24" height="24" viewBox="0 0 24.00 24.00" enable-background="new 0 0 24.00 24.00" xml:space="preserve">
	<path fill="#000000" fill-opacity="1" stroke-width="0.2" stroke-linejoin="round" d="M 10,22C 8.89543,22 8,21.1046 8,20L 8,13C 8,11.8954 8.89543,11 10,11L 14,11C 15.1046,11 16,11.8954 16,13L 16,20C 16,21.1046 15.1046,22 14,22L 10,22 Z M 12,13C 10.8954,13 9.99999,13.8954 9.99999,15C 9.99999,16.1046 10.8954,17 12,17C 13.1046,17 14,16.1046 14,15C 14,13.8954 13.1046,13 12,13 Z M 7.05123,6.04376C 6.6607,6.43428 6.02754,6.43428 5.63701,6.04376C 5.24649,5.65323 5.24649,5.02007 5.63701,4.62955C 9.15173,1.11483 14.8502,1.11483 18.3649,4.62955C 18.7555,5.02007 18.7555,5.65323 18.3649,6.04376C 17.9744,6.43428 17.3412,6.43428 16.9507,6.04376C 14.217,3.31009 9.7849,3.31009 7.05123,6.04376 Z M 15.5365,7.45797C 15.927,7.8485 15.927,8.48166 15.5365,8.87219C 15.146,9.26271 14.5128,9.26271 14.1221,8.87202C 12.9507,7.70044 11.0515,7.70036 9.87965,8.87219C 9.48913,9.26271 8.85597,9.26271 8.46544,8.87219C 8.07492,8.48166 8.07492,7.8485 8.46544,7.45797C 10.4186,5.50483 13.5842,5.50507 15.5365,7.45797 Z "/>
</svg>
