<?xml version="1.0" encoding="utf-8"?>
<!DOCTYPE svg PUBLIC "-//W3C//DTD SVG 1.1//EN" "http://www.w3.org/Graphics/SVG/1.1/DTD/svg11.dtd">
<svg xmlns="http://www.w3.org/2000/svg" xmlns:xlink="http://www.w3.org/1999/xlink" version="1.1" baseProfile="full" width="24" height="24" viewBox="0 0 24.00 24.00" enable-background="new 0 0 24.00 24.00" xml:space="preserve">
	<path fill="#000000" fill-opacity="1" stroke-width="1.33333" stroke-linejoin="miter" d="M 12.3,2C 12.2,1.9983 12.1,1.9983 12,2C 6.47715,2 2,6.4772 2,12C 2,17.5228 6.47715,22 12,22C 15,22 16.7,21 18.5,19.5C 13,21 8,17 8,12C 8,7 13,3 18.5,4.5C 16.855,2.8647 14.6192,1.9631 12.3,2 Z M 16.8,6.2L 15.3,9.7L 11.6,10L 14.5,12.5L 13.6,16L 16.8,14L 20,16L 19,12.5L 22,10L 18.3,9.7L 16.8,6.2 Z "/>
</svg>
