<?xml version="1.0" encoding="utf-8"?>
<!DOCTYPE svg PUBLIC "-//W3C//DTD SVG 1.1//EN" "http://www.w3.org/Graphics/SVG/1.1/DTD/svg11.dtd">
<svg xmlns="http://www.w3.org/2000/svg" xmlns:xlink="http://www.w3.org/1999/xlink" version="1.1" baseProfile="full" width="24" height="24" viewBox="0 0 24.00 24.00" enable-background="new 0 0 24.00 24.00" xml:space="preserve">
	<path fill="#000000" fill-opacity="1" stroke-linejoin="round" d="M 7.84678,17.0669C 7.03184,17.1732 3.51458,17.6712 4.05553,20.2558C 4.69331,23.303 9.86641,22.5943 9.83098,19.0157C 9.80677,16.571 9.83098,9.20096 9.83098,9.20096C 9.83098,9.20096 9.76011,8.52775 10.4333,8.38602L 18.193,6.79158C 18.193,6.79158 18.8307,6.64985 18.8307,7.28763C 18.8307,7.88997 18.8307,14.1969 18.8307,14.1969C 18.8307,14.1969 18.9016,14.8347 18.1221,14.9764C 17.3426,15.1181 13.9057,15.4016 14.1891,18.0236C 14.5189,21.0735 20,20.6456 20,17.0669L 20,2.61058C 20,2.61058 20.0354,1.61848 18.9016,1.86651L 9.47666,3.77984C 9.47666,3.77984 8.66172,3.957 8.66172,4.77194C 8.66172,5.51602 8.66172,16.1102 8.66172,16.1102C 8.66172,16.1102 8.66172,16.9606 7.84678,17.0669 Z "/>
</svg>
