<?xml version="1.0" encoding="utf-8"?>
<!DOCTYPE svg PUBLIC "-//W3C//DTD SVG 1.1//EN" "http://www.w3.org/Graphics/SVG/1.1/DTD/svg11.dtd">
<svg xmlns="http://www.w3.org/2000/svg" xmlns:xlink="http://www.w3.org/1999/xlink" version="1.1" baseProfile="full" width="24" height="24" viewBox="0 0 24.00 24.00" enable-background="new 0 0 24.00 24.00" xml:space="preserve">
	<path fill="#000000" fill-opacity="1" stroke-width="1.33333" stroke-linejoin="miter" d="M 5.23438,5.71875C 4.61188,5.54756 4.99688,3.19091 4.99998,3.17199C 5.00728,3.19131 12.5843,-0.709009 16.7031,5.73438C 20.8034,12.1488 15.8594,14.8594 13.9687,16.0625C 12.0781,17.2656 12.7344,19.7188 12.7344,20.125C 12.7344,20.5313 12.1562,20.9688 12.0156,20.4063C 11.875,19.8438 11.25,16.5469 13.3281,15.1563C 17.1278,12.6136 17.8978,10.0976 15.9844,6.42188C 14.2031,3 8.28125,3.40625 7.03125,4.07813C 5.78125,4.75 5.85937,5.89063 5.23438,5.71875 Z M 9.32812,12.625L 9.10937,12.1563C 9.23437,10.2813 7.625,10.3906 8.07812,13.3281C 8.20684,14.1626 7.46974,13.8023 7.45312,13.7344C 6.89062,11.4375 7.42187,10.2188 8.54687,10.4531C 9.6209,10.6769 9.53125,11.8281 9.53125,11.8281C 9.5625,11.7813 10.9866,10.1704 11.5,10.9219C 12.5781,12.5 10.5312,14.4688 10.4062,14.625C 10.2812,14.7813 10.1406,15.0469 9.92187,14.8438C 9.70312,14.6406 9.72222,14.5146 9.89062,14.2656C 12.7656,10.0156 9.59375,12.2188 9.32812,12.625 Z M 6.48437,15.3281L 6.51562,15.3125C 6.51562,15.3125 7.98437,18.125 10.6094,17.0781C 10.9966,16.9237 11.1719,17.1406 11.2031,17.2656C 11.2685,17.5273 11.1323,17.6448 10.8594,17.7344C 7.85937,18.7188 5.89062,16.625 5.625,16.125C 5.39111,15.6847 5.48437,15.375 5.75,15.2188C 6.01562,15.0625 6.48437,15.3281 6.48437,15.3281 Z M 6.01562,17.5156C 6.01562,17.5156 7.67187,19.5 10.7969,18.9844C 11.0898,18.936 11.2031,19.125 11.25,19.375C 11.2969,19.625 11.2187,19.8438 10.9219,19.9375C 10.625,20.0313 7.07812,20.5 5.125,17.7188C 5.01,17.555 5.29687,17.3594 5.46875,17.3594C 5.64062,17.3594 6.03125,17.5 6.01562,17.5156 Z M 5.95312,19.3906C 7.53125,21.5 10.3281,21.5469 11.2812,20.875C 11.4891,20.7285 11.7014,21.0452 11.5625,21.1875C 9.64062,23.1563 5.67187,20.9844 5.26562,20.3281C 5.09077,20.0457 5.125,19.6563 5.3125,19.4531C 5.5,19.25 5.92785,19.3783 5.95312,19.3906 Z "/>
</svg>
