<?xml version="1.0" encoding="utf-8"?>
<!DOCTYPE svg PUBLIC "-//W3C//DTD SVG 1.1//EN" "http://www.w3.org/Graphics/SVG/1.1/DTD/svg11.dtd">
<svg xmlns="http://www.w3.org/2000/svg" xmlns:xlink="http://www.w3.org/1999/xlink" version="1.1" baseProfile="full" width="24" height="24" viewBox="0 0 24.00 24.00" enable-background="new 0 0 24.00 24.00" xml:space="preserve">
	<path fill="#000000" fill-opacity="1" stroke-linejoin="round" d="M 19.5,14.5C 18.9213,14.432 18.432,14.9213 18.5,15.5C 18.5,16.1667 17.5,16.1667 17.5,15.5L 17.5,13.1973L 19.2027,12.6973C 19.916,12.364 20.4067,11.6827 20.5,10.9013C 20.5,5.5 16.7027,2 12,2C 7.30133,2 3.5,5.5 3.5,10.9013C 3.55733,11.6973 4.06267,12.396 4.80133,12.6973L 6.5,13.1973L 6.5,15.5C 6.5,15.776 6.276,16 6,16C 5.724,16 5.5,15.776 5.5,15.5C 5.568,14.9213 5.07867,14.432 4.5,14.5C 3.92133,14.432 3.432,14.9213 3.5,15.5C 3.44267,16.9067 4.59333,18.0573 6,18C 7.40667,18.0573 8.56267,16.9067 8.5,15.5L 8.5,13.6973L 9.5,13.6973L 9.5,19.4013C 9.5,20.068 8.5,20.068 8.5,19.4013C 8.568,18.8227 8.07867,18.3333 7.5,18.4013C 6.92133,18.3333 6.432,18.8227 6.5,19.4013C 6.38,20.844 7.552,22.068 9,22C 10.4067,22.0573 11.5627,20.9067 11.5,19.5L 11.5,14L 12.5,14L 12.5,19.5C 12.4427,20.9067 13.5933,22.0573 15,22C 16.4067,22.0573 17.5627,20.9067 17.5,19.5C 17.5,18.1667 15.5,18.1667 15.5,19.5C 15.5,20.1667 14.5,20.1667 14.5,19.5L 14.5,13.8027L 15.5,13.8027L 15.5,15.5987C 15.5,16.964 16.6347,18.0573 18,18C 19.4067,18.0573 20.5627,16.9067 20.5,15.5C 20.568,14.9213 20.0787,14.432 19.5,14.5 Z M 10.5987,4.69734C 9.09333,5.03067 7.792,5.97334 7,7.30267C 6.83333,7.52134 6.52133,7.568 6.30133,7.40134C 6.07867,7.23467 6.036,6.92134 6.20267,6.69734C 7.16133,5.19334 8.66667,4.12 10.4013,3.69734C 10.6667,3.68267 10.9107,3.84934 11,4.09867C 11.0627,4.37467 10.88,4.65067 10.5987,4.69734 Z "/>
</svg>
