<?xml version="1.0" encoding="utf-8"?>
<!DOCTYPE svg PUBLIC "-//W3C//DTD SVG 1.1//EN" "http://www.w3.org/Graphics/SVG/1.1/DTD/svg11.dtd">
<svg xmlns="http://www.w3.org/2000/svg" xmlns:xlink="http://www.w3.org/1999/xlink" version="1.1" baseProfile="full" width="24" height="24" viewBox="0 0 24.00 24.00" enable-background="new 0 0 24.00 24.00" xml:space="preserve">
	<path fill="#000000" fill-opacity="1" stroke-linejoin="round" d="M 12,4C 15.8013,4 18.5,6.80267 18.5,10.8027C 14.312,12.3907 9.688,12.3907 5.5,10.8027C 5.5,6.80267 8.20267,4 12,4 Z M 12,2C 7.30133,2 3.5,5.5 3.5,10.9013C 3.55733,11.6973 4.06267,12.396 4.80133,12.6973L 6.5,13.1973L 6.5,15.5C 6.5,15.776 6.276,16 6,16C 5.724,16 5.5,15.776 5.5,15.5C 5.568,14.9213 5.07867,14.432 4.5,14.5C 3.92133,14.432 3.432,14.9213 3.5,15.5C 3.44267,16.864 4.536,18 5.90133,18L 6,18C 7.40667,18.0573 8.56267,16.9067 8.5,15.5L 8.5,13.6973L 9.5,13.6973L 9.5,19.4013C 9.5,20.068 8.5,20.068 8.5,19.4013C 8.568,18.8227 8.07867,18.3333 7.5,18.4013C 6.92133,18.3333 6.432,18.8227 6.5,19.4013C 6.38533,20.8027 7.49467,22.0053 8.90133,22L 9,22C 10.4067,22.0573 11.5627,20.9067 11.5,19.5L 11.5,14L 12.5,14L 12.5,19.5C 12.4427,20.9067 13.5933,22.0573 15,22L 15.0987,22C 16.468,22 17.5573,20.864 17.5,19.5C 17.5,18.1667 15.5,18.1667 15.5,19.5C 15.5,20.1667 14.5,20.1667 14.5,19.5L 14.5,13.8027L 15.5,13.8027L 15.5,15.5987C 15.5,16.964 16.6347,18.0573 18,18L 18.0987,18C 19.468,18 20.5573,16.864 20.5,15.5C 20.5,14.1667 18.5,14.1667 18.5,15.5C 18.5,16.1667 17.5,16.1667 17.5,15.5L 17.5,13.1973L 19.2027,12.6973C 19.916,12.364 20.4067,11.6827 20.5,10.9013C 20.5,5.5 16.7027,2 12,2 Z M 12,6.19734C 10.5253,6.59867 9.244,7.52667 8.40133,8.80267C 8,9.33333 7.20267,8.73467 7.59867,8.19734C 8.604,6.73467 10.088,5.672 11.8013,5.19734C 12.0787,5.14 12.3493,5.32267 12.4013,5.59867C 12.5,5.90133 12.3013,6.09867 12,6.19734 Z "/>
</svg>
