<?xml version="1.0" encoding="utf-8"?>
<!DOCTYPE svg PUBLIC "-//W3C//DTD SVG 1.1//EN" "http://www.w3.org/Graphics/SVG/1.1/DTD/svg11.dtd">
<svg xmlns="http://www.w3.org/2000/svg" xmlns:xlink="http://www.w3.org/1999/xlink" version="1.1" baseProfile="full" width="24" height="24" viewBox="0 0 24.00 24.00" enable-background="new 0 0 24.00 24.00" xml:space="preserve">
	<path fill="#000000" fill-opacity="1" stroke-width="1.33333" stroke-linejoin="miter" d="M 11.53,2C 11.53,4.4024 13.4776,6.35 15.88,6.35L 17.66,6.35L 17.66,8.05C 17.66,10.4485 19.6015,12.3945 22,12.4L 22,2.84C 22,2.3761 21.6239,2 21.16,2L 11.53,2 Z M 6.77,6.8C 6.7755,9.1946 8.71537,11.1345 11.11,11.14L 12.91,11.14L 12.91,12.86C 12.9155,15.2546 14.8554,17.1945 17.25,17.2L 17.25,7.63C 17.2446,7.1739 16.8761,6.8054 16.42,6.8L 6.77,6.8 Z M 2,11.6C 2.00551,13.9985 3.95146,15.94 6.35,15.94L 8.13,15.94L 8.13,17.66C 8.1355,20.0546 10.0754,21.9945 12.47,22L 12.47,12.43C 12.47,11.9661 12.0939,11.59 11.63,11.59L 2,11.6 Z "/>
</svg>
