<?xml version="1.0" encoding="utf-8"?>
<!DOCTYPE svg PUBLIC "-//W3C//DTD SVG 1.1//EN" "http://www.w3.org/Graphics/SVG/1.1/DTD/svg11.dtd">
<svg xmlns="http://www.w3.org/2000/svg" xmlns:xlink="http://www.w3.org/1999/xlink" version="1.1" baseProfile="full" width="24" height="24" viewBox="0 0 24.00 24.00" enable-background="new 0 0 24.00 24.00" xml:space="preserve">
	<path fill="#000000" fill-opacity="1" stroke-width="1.33333" stroke-linejoin="miter" d="M 22.8818,10.4058C 20.7665,12.1808 17.6127,11.9049 15.8377,9.78954C 14.0627,7.67417 14.3386,4.52039 16.454,2.74538L 16.9576,2.37327C 15.2659,4.19428 15.1563,7.03283 16.7952,8.98606C 18.4342,10.9393 21.2487,11.3242 23.3358,9.97446L 22.8818,10.4058 Z M 21.1032,14.5091C 17.9302,17.1716 13.1995,16.7577 10.537,13.5846C 7.87449,10.4116 8.28837,5.68092 11.4614,3.0184L 12.3771,2.35947C 9.96177,5.09474 9.84386,9.25821 12.2606,12.1384C 14.6773,15.0185 18.798,15.6254 21.9112,13.7217L 21.1032,14.5091 Z M 19.9674,19.3783C 15.5251,23.1059 8.90221,22.5264 5.17469,18.0842C 1.44718,13.6419 2.02661,7.01894 6.46889,3.29142L 7.57956,2.47593C 4.06791,6.30172 3.85337,12.2312 7.28132,16.3165C 10.7093,20.4018 16.5859,21.2201 20.9634,18.4262L 19.9674,19.3783 Z "/>
</svg>
