<?xml version="1.0" encoding="utf-8"?>
<!DOCTYPE svg PUBLIC "-//W3C//DTD SVG 1.1//EN" "http://www.w3.org/Graphics/SVG/1.1/DTD/svg11.dtd">
<svg xmlns="http://www.w3.org/2000/svg" xmlns:xlink="http://www.w3.org/1999/xlink" version="1.1" baseProfile="full" width="24" height="24" viewBox="0 0 24.00 24.00" enable-background="new 0 0 24.00 24.00" xml:space="preserve">
	<path fill="#000000" fill-opacity="1" stroke-width="1.33333" stroke-linejoin="miter" d="M 16.4531,17.4844C 17.4531,17.4844 18.2969,17.1484 18.9844,16.4766C 19.6719,15.8047 20.0156,14.9844 20.0156,14.0156C 20.0156,13.0469 19.6641,12.2188 18.9609,11.5312C 18.2578,10.8438 17.4063,10.5 16.4063,10.5C 15.4688,10.5 14.6406,10.8281 13.9219,11.4844L 9.14063,15.5625C 8.70313,16 8.17187,16.2187 7.54688,16.2187C 6.92188,16.2187 6.39062,16 5.95313,15.5625C 5.51562,15.125 5.29688,14.6094 5.29688,14.0156C 5.29688,13.4219 5.51562,12.9062 5.95313,12.4687C 6.39062,12.0313 6.92188,11.8125 7.54688,11.8125C 8.14063,11.8125 8.6875,12.0313 9.1875,12.4687L 9.9375,13.125L 10.9219,12.2344L 10.0781,11.5312C 9.39062,10.8438 8.54687,10.5 7.54688,10.5C 6.57812,10.5 5.74219,10.8438 5.03906,11.5312C 4.33594,12.2188 3.98438,13.0469 3.98438,14.0156C 3.98438,14.9844 4.33594,15.8047 5.03906,16.4766C 5.74219,17.1484 6.59375,17.4844 7.59375,17.4844C 8.53125,17.4844 9.35938,17.1562 10.0781,16.5L 14.8594,12.4219C 15.2656,12.0156 15.7969,11.8125 16.4531,11.8125C 17.0781,11.8125 17.6094,12.0313 18.0469,12.4687C 18.4844,12.9062 18.7031,13.4219 18.7031,14.0156C 18.7031,14.6094 18.4844,15.125 18.0469,15.5625C 17.6094,16 17.0781,16.2187 16.4531,16.2187C 15.8906,16.2187 15.3438,15.9844 14.8125,15.5156L 14.0625,14.8594L 13.0781,15.75L 13.9219,16.4531C 14.6094,17.1406 15.4531,17.4844 16.4531,17.4844 Z M 19.3594,10.0312C 20.6406,10.125 21.7344,10.6484 22.6406,11.6016C 23.5469,12.5547 24,13.6875 24,15C 24,16.375 23.5078,17.5547 22.5234,18.5391C 21.5391,19.5234 20.3594,20.0156 18.9844,20.0156L 6,20.0156C 4.34375,20.0156 2.92969,19.4297 1.75781,18.2578C 0.585939,17.0859 1.27157e-006,15.6719 1.27157e-006,14.0156C 1.27157e-006,12.5469 0.523439,11.2266 1.57031,10.0547C 2.61719,8.8828 3.875,8.2188 5.34375,8.0625C 6,6.8437 6.92188,5.8594 8.10938,5.1094C 9.29687,4.3594 10.5938,3.9844 12,3.9844C 13.6875,3.9844 15.2578,4.5781 16.7109,5.7656C 18.1641,6.9531 19.0469,8.375 19.3594,10.0312 Z "/>
</svg>
