<?xml version="1.0" encoding="utf-8"?>
<!DOCTYPE svg PUBLIC "-//W3C//DTD SVG 1.1//EN" "http://www.w3.org/Graphics/SVG/1.1/DTD/svg11.dtd">
<svg xmlns="http://www.w3.org/2000/svg" xmlns:xlink="http://www.w3.org/1999/xlink" version="1.1" baseProfile="full" width="24" height="24" viewBox="0 0 24.00 24.00" enable-background="new 0 0 24.00 24.00" xml:space="preserve">
	<path fill="#000000" fill-opacity="1" stroke-width="0.2" stroke-linejoin="miter" d="M 11.25,10.5469C 12.2813,11.5781 13.4844,12.0937 14.8594,12.0937L 15,14.1562C 13.0625,14.1562 11.375,13.4687 9.9375,12.0937L 9.23438,11.3906L 6.89063,13.7812L 9,15.8906L 9,21.8906L 6.98438,21.8906L 6.98438,16.7344L 5.71875,15.5625L 5.71875,17.7656L 1.45313,21.9844L 0.0468763,20.5781L 3.70313,16.9687L 2.625,14.0156L 2.57813,13.8516L 2.50781,13.6406L 2.48438,13.4531C 2.42188,12.8906 2.625,12.375 3.09375,11.9062L 6.42188,8.5781C 6.82813,8.1719 7.29688,7.9687 7.82813,7.9687C 8.29688,7.9687 8.67188,8.0781 8.95313,8.2969L 11.25,10.5469 Z M 24,11.8594L 21.9844,11.8594L 21.9844,8.4844L 20.2031,7.78121L 21.0938,12.2344L 22.125,17.4375L 23.0156,21.8906L 20.9063,21.8906L 19.0781,13.875L 17.0156,15.8906L 17.0156,21.8906L 15,21.8906L 15,14.3906L 17.1094,12.375L 16.5,9.375C 15.9375,10 15.2344,10.5469 14.3906,11.0156C 13.4531,10.9219 12.625,10.5156 11.9063,9.7969C 13.4688,9.51561 14.5938,8.75 15.2813,7.50001L 16.3125,5.8594C 16.9375,4.8594 17.8125,4.59371 18.9375,5.06251L 24,7.1719L 24,11.8594 Z M 11.4167,4.39584C 12.5212,4.39584 13.4167,5.29127 13.4167,6.39584C 13.4167,7.50041 12.5212,8.39584 11.4167,8.39584C 10.3121,8.39584 9.41666,7.50041 9.41666,6.39584C 9.41666,5.29127 10.3121,4.39584 11.4167,4.39584 Z M 16.5208,0.35417C 17.6254,0.35417 18.5208,1.2496 18.5208,2.35417C 18.5208,3.45874 17.6254,4.35417 16.5208,4.35417C 15.4163,4.35417 14.5208,3.45874 14.5208,2.35417C 14.5208,1.2496 15.4163,0.35417 16.5208,0.35417 Z "/>
</svg>
