<?xml version="1.0" encoding="utf-8"?>
<!DOCTYPE svg PUBLIC "-//W3C//DTD SVG 1.1//EN" "http://www.w3.org/Graphics/SVG/1.1/DTD/svg11.dtd">
<svg xmlns="http://www.w3.org/2000/svg" xmlns:xlink="http://www.w3.org/1999/xlink" version="1.1" baseProfile="full" width="24" height="24" viewBox="0 0 24.00 24.00" enable-background="new 0 0 24.00 24.00" xml:space="preserve">
	<g>
		<path fill="#000000" fill-opacity="1" stroke-width="1.33333" stroke-linejoin="miter" d="M 19,1.27C 18.0442,0.7164 16.8206,1.0424 16.2669,1.9982C 15.7133,2.954 16.0393,4.1777 16.9951,4.7313C 17.951,5.2849 19.1746,4.9589 19.73,4C 20.2812,3.0444 19.9546,1.8229 19,1.27 Z M 21.27,9.34L 18.7,13.79L 16.96,12.79L 18.69,9.79L 17.14,8.49L 14,13.92L 14,22L 12,22L 12,13.39L 2.47,7.89L 3.47,6.16L 11.27,10.66L 13.67,6.49L 7.28,4.17L 8,2.29L 14.73,4.74L 15.01,4.84C 15.3926,4.9812 15.7637,5.1517 16.12,5.35L 16.96,5.84C 17.3127,6.0444 17.6473,6.2785 17.96,6.54L 18.19,6.74L 21.27,9.34 Z "/>
	</g>
</svg>
