<?xml version="1.0" encoding="utf-8"?>
<!DOCTYPE svg PUBLIC "-//W3C//DTD SVG 1.1//EN" "http://www.w3.org/Graphics/SVG/1.1/DTD/svg11.dtd">
<svg xmlns="http://www.w3.org/2000/svg" xmlns:xlink="http://www.w3.org/1999/xlink" version="1.1" baseProfile="full" width="24" height="24" viewBox="0 0 24.00 24.00" enable-background="new 0 0 24.00 24.00" xml:space="preserve">
	<path fill="#000000" fill-opacity="1" stroke-linejoin="round" d="M 5,22L 5,20L 6,20L 5.99792,16L 5,16L 5,14L 5.99688,14L 5.99532,11L 5,11L 5,7L 11,7L 11,3L 10,3L 10,2L 11,2L 13,2L 14,2L 14,3L 13,3L 13,7L 19,7L 19,11L 17.9953,11L 17.9969,14L 19,14L 19,16L 17.9979,16L 18,20L 19,20L 19,22L 5,22 Z M 17,9.00001C 17,8.44772 16.5523,8 16,8L 14,7.99999C 13.4477,7.99999 13,8.44771 13,9C 13,9.55229 13.4477,10 14,10L 16,10C 16.5523,10 17,9.55229 17,9.00001 Z "/>
</svg>
