<?xml version="1.0" encoding="utf-8"?>
<!DOCTYPE svg PUBLIC "-//W3C//DTD SVG 1.1//EN" "http://www.w3.org/Graphics/SVG/1.1/DTD/svg11.dtd">
<svg xmlns="http://www.w3.org/2000/svg" xmlns:xlink="http://www.w3.org/1999/xlink" version="1.1" baseProfile="full" width="24" height="24" viewBox="0 0 24.00 24.00" enable-background="new 0 0 24.00 24.00" xml:space="preserve">
	<path fill="#000000" fill-opacity="1" stroke-linejoin="round" d="M 12.5,3C 7.80267,3 4,5.70267 4,9C 4,10.2027 4.5,11.3027 5.40133,12.3027C 4.47867,13.5053 3.984,14.984 4,16.5L 4,20C 4,21.104 4.90133,22 6,22L 19,22C 20.104,22 21,21.1093 21,20L 21,16.5C 21,15.3027 20.6973,14.104 20,13L 22,11L 19,8L 16.9013,10.104C 13.9733,8.51067 10.416,8.62533 7.59867,10.4013C 7.224,10.0307 7.01067,9.53067 7,9C 7,7.20267 9.5,5.70267 12.5,5.70267C 13.9013,5.70267 15.3027,6.104 16.3027,6.70267L 18.3027,4.70267C 16.588,3.552 14.5627,2.95867 12.5,3 Z M 12.5,11C 16,11 19,14 19,16.5L 19,20L 6,20L 6,16.5C 6,14 9,11 12.5,11 Z M 13,12.5C 10,12.5 8,14 8,17L 8,18L 10,18L 10,17C 10,16 10,13.5 13,12.5 Z "/>
</svg>
