<?xml version="1.0" encoding="utf-8"?>
<!DOCTYPE svg PUBLIC "-//W3C//DTD SVG 1.1//EN" "http://www.w3.org/Graphics/SVG/1.1/DTD/svg11.dtd">
<svg xmlns="http://www.w3.org/2000/svg" xmlns:xlink="http://www.w3.org/1999/xlink" version="1.1" baseProfile="full" width="24" height="24" viewBox="0 0 24.00 24.00" enable-background="new 0 0 24.00 24.00" xml:space="preserve">
	<path fill="#000000" fill-opacity="1" stroke-linejoin="round" d="M 22,18L 22,22L 18,22L 18,19L 15,19L 15,16L 12,16L 9.74293,13.7429C 9.19135,13.9101 8.60617,14 8,14C 4.68629,14 2,11.3137 2,8C 2,4.68629 4.68629,2 8,2C 11.3137,2 14,4.68629 14,8C 14,8.60617 13.9101,9.19135 13.7429,9.74293L 22,18 Z M 7,5C 5.89543,5 5,5.89543 5,7C 5,8.10457 5.89543,9 7,9C 8.10457,9 9,8.10457 9,7C 9,5.89543 8.10457,5 7,5 Z "/>
</svg>
