<?xml version="1.0" encoding="utf-8"?>
<!DOCTYPE svg PUBLIC "-//W3C//DTD SVG 1.1//EN" "http://www.w3.org/Graphics/SVG/1.1/DTD/svg11.dtd">
<svg xmlns="http://www.w3.org/2000/svg" xmlns:xlink="http://www.w3.org/1999/xlink" version="1.1" baseProfile="full" width="24" height="24" viewBox="0 0 24.00 24.00" enable-background="new 0 0 24.00 24.00" xml:space="preserve">
	<path fill="#000000" fill-opacity="1" stroke-width="1.33333" stroke-linejoin="miter" d="M 22,19L 16,19L 16,15L 13.32,15C 12.18,17.42 9.72,19 7,19C 3.14,19 1.27157e-006,15.86 1.27157e-006,12C 1.27157e-006,8.14 3.14,5 7,5C 9.72,5 12.17,6.58 13.32,9L 24,9L 24,15L 22,15L 22,19 Z M 18,17L 20,17L 20,13L 22,13L 22,11L 11.94,11L 11.71,10.33C 11.01,8.34 9.11,7 7,7C 4.24,7 2,9.24 2,12C 2,14.76 4.24,17 7,17C 9.11,17 11.01,15.66 11.71,13.67L 11.94,13L 18,13L 18,17 Z M 7,15C 5.35,15 4,13.65 4,12C 4,10.35 5.35,9 7,9C 8.65,9 10,10.35 10,12C 10,13.65 8.65,15 7,15 Z M 7,11C 6.45,11 6,11.45 6,12C 6,12.55 6.45,13 7,13C 7.55,13 8,12.55 8,12C 8,11.45 7.55,11 7,11 Z "/>
</svg>
