<?xml version="1.0" encoding="utf-8"?>
<!DOCTYPE svg PUBLIC "-//W3C//DTD SVG 1.1//EN" "http://www.w3.org/Graphics/SVG/1.1/DTD/svg11.dtd">
<svg xmlns="http://www.w3.org/2000/svg" xmlns:xlink="http://www.w3.org/1999/xlink" version="1.1" baseProfile="full" width="24" height="24" viewBox="0 0 24.00 24.00" enable-background="new 0 0 24.00 24.00" xml:space="preserve">
	<path fill="#000000" fill-opacity="1" stroke-width="0.2" stroke-linejoin="round" d="M 6.5,3.00001C 8.45932,3.00001 10.1262,4.25221 10.7439,6L 22,6L 22,9L 18,9L 18,12L 15,12L 15,9L 10.7439,9C 10.1262,10.7478 8.45933,12 6.5,12C 4.01472,12 2,9.98528 2,7.5C 2,5.01472 4.01472,3.00001 6.5,3.00001 Z M 6.49999,6.00001C 5.67156,6.00001 4.99999,6.67159 4.99999,7.50001C 4.99999,8.32844 5.67156,9.00001 6.49999,9.00001C 7.32842,9.00001 7.99999,8.32844 7.99999,7.50001C 7.99999,6.67159 7.32842,6.00001 6.49999,6.00001 Z M 14.59,14L 16,15.41L 13.41,18L 16,20.59L 14.59,22L 12,19.41L 9.41,22L 8,20.59L 10.59,18L 8,15.41L 9.41,14L 12,16.59L 14.59,14 Z "/>
</svg>
