<?xml version="1.0" encoding="utf-8"?>
<!DOCTYPE svg PUBLIC "-//W3C//DTD SVG 1.1//EN" "http://www.w3.org/Graphics/SVG/1.1/DTD/svg11.dtd">
<svg xmlns="http://www.w3.org/2000/svg" xmlns:xlink="http://www.w3.org/1999/xlink" version="1.1" baseProfile="full" width="24" height="24" viewBox="0 0 24.00 24.00" enable-background="new 0 0 24.00 24.00" xml:space="preserve">
	<path fill="#000000" fill-opacity="1" stroke-width="1.33333" stroke-linejoin="miter" d="M 19,10L 17,10L 17,8L 19,8M 19,13L 17,13L 17,11L 19,11M 16,10L 14,10L 14,8L 16,8M 16,13L 14,13L 14,11L 16,11M 16,17L 8,17L 8,15L 16,15M 7,10L 5,10L 5,8L 7,8M 7,13L 5,13L 5,11L 7,11M 8,11L 10,11L 10,13L 8,13M 8,8L 10,8L 10,10L 8,10M 11,11L 13,11L 13,13L 11,13M 11,8L 13,8L 13,10L 11,10M 20,5L 4,5C 2.89543,5 2,5.8954 2,7L 2,17C 2,18.1046 2.89543,19 4,19L 20,19C 21.1046,19 22,18.1046 22,17L 22,7C 22,5.8954 21.1046,5 20,5 Z M 7,22L 9,22L 9,24L 7,24L 7,22M 11,22L 13,22L 13,24L 11,24L 11,22M 15,22L 17,22L 17,24L 15,24L 15,22 Z "/>
</svg>
