<?xml version="1.0" encoding="utf-8"?>
<!DOCTYPE svg PUBLIC "-//W3C//DTD SVG 1.1//EN" "http://www.w3.org/Graphics/SVG/1.1/DTD/svg11.dtd">
<svg xmlns="http://www.w3.org/2000/svg" xmlns:xlink="http://www.w3.org/1999/xlink" version="1.1" baseProfile="full" width="24" height="24" viewBox="0 0 24.00 24.00" enable-background="new 0 0 24.00 24.00" xml:space="preserve">
	<path fill="#000000" fill-opacity="1" stroke-linejoin="round" d="M 6,16L 18,16L 18,18L 6,18L 6,16 Z M 5.99999,13L 5.99999,15L 2,15L 2,13L 5.99999,13 Z M 6.99999,15L 6.99999,13L 9.99998,13L 9.99998,15L 6.99999,15 Z M 11,15L 11,13L 13,13L 13,15L 11,15 Z M 14,15L 14,13L 17,13L 17,15L 14,15 Z M 18,15L 18,13L 22,13L 22,15L 18,15 Z M 2,10L 4.99999,10L 4.99999,12L 2,12L 2,10 Z M 19,12L 19,10L 22,10L 22,12L 19,12 Z M 18,12L 16,12L 16,10L 18,10L 18,12 Z M 7.99999,12L 5.99999,12L 5.99999,10L 7.99999,10L 7.99999,12 Z M 12,12L 9,12L 9,10L 12,10L 12,12 Z M 15,12L 13,12L 13,10L 15,10L 15,12 Z M 2,9.00001L 2,7.00001L 4,7.00001L 4,9.00001L 2,9.00001 Z M 5,9.00001L 5,7.00001L 7,7.00001L 7,9.00001L 5,9.00001 Z M 8,9L 8,7.00001L 10,7.00001L 10,9L 8,9 Z M 11,9L 11,7L 13,7L 13,9L 11,9 Z M 14,9L 14,7L 16,7L 16,9L 14,9 Z M 17,9L 17,7L 22,7L 22,9L 17,9 Z "/>
</svg>
