<?xml version="1.0" encoding="utf-8"?>
<!DOCTYPE svg PUBLIC "-//W3C//DTD SVG 1.1//EN" "http://www.w3.org/Graphics/SVG/1.1/DTD/svg11.dtd">
<svg xmlns="http://www.w3.org/2000/svg" xmlns:xlink="http://www.w3.org/1999/xlink" version="1.1" baseProfile="full" width="24" height="24" viewBox="0 0 24.00 24.00" enable-background="new 0 0 24.00 24.00" xml:space="preserve">
	<path fill="#000000" fill-opacity="1" stroke-width="0.2" stroke-linejoin="round" d="M 11.9994,22.9981L 15.9994,18.9981L 7.99939,18.9981M 18.9994,7.99807L 16.9994,7.99807L 16.9994,5.99807L 18.9994,5.99807M 18.9994,10.9981L 16.9994,10.9981L 16.9994,8.99807L 18.9994,8.99807M 15.9994,7.99807L 13.9994,7.99807L 13.9994,5.99807L 15.9994,5.99807M 15.9994,10.9981L 13.9994,10.9981L 13.9994,8.99807L 15.9994,8.99807M 15.9994,14.9981L 7.99939,14.9981L 7.99939,12.9981L 15.9994,12.9981M 6.99939,7.99807L 4.99939,7.99807L 4.99939,5.99807L 6.99939,5.99807M 6.99939,10.9981L 4.99939,10.9981L 4.99939,8.99807L 6.99939,8.99807M 7.99939,8.99807L 9.99939,8.99807L 9.99939,10.9981L 7.99939,10.9981M 7.99939,5.99807L 9.99939,5.99807L 9.99939,7.99807L 7.99939,7.99807M 10.9994,8.99807L 12.9994,8.99807L 12.9994,10.9981L 10.9994,10.9981M 10.9994,5.99807L 12.9994,5.99807L 12.9994,7.99807L 10.9994,7.99807M 19.9994,2.99807L 3.99939,2.99807C 2.89439,2.99807 2.00938,3.89406 2.00938,4.99807L 1.99939,14.9981C 1.99939,16.1021 2.89439,16.9981 3.99939,16.9981L 19.9994,16.9981C 21.1034,16.9981 21.9994,16.1021 21.9994,14.9981L 21.9994,4.99807C 21.9994,3.89406 21.1034,2.99807 19.9994,2.99807 Z "/>
</svg>
