<?xml version="1.0" encoding="utf-8"?>
<!DOCTYPE svg PUBLIC "-//W3C//DTD SVG 1.1//EN" "http://www.w3.org/Graphics/SVG/1.1/DTD/svg11.dtd">
<svg xmlns="http://www.w3.org/2000/svg" xmlns:xlink="http://www.w3.org/1999/xlink" version="1.1" baseProfile="full" width="24" height="24" viewBox="0 0 24.00 24.00" enable-background="new 0 0 24.00 24.00" xml:space="preserve">
	<path fill="#000000" fill-opacity="1" stroke-width="0.2" stroke-linejoin="round" d="M 0.999999,4.26849L 2.27711,3.00001L 20,20.7229L 18.7315,22L 15.7296,18.9981L 3.99941,18.9981C 2.89441,18.9981 1.99941,18.1021 1.99941,16.9981L 2.0094,6.99807C 2.0094,6.51616 2.17803,6.07388 2.45999,5.72846L 0.999999,4.26849 Z M 18.9994,9.99807L 18.9994,7.99807L 16.9994,7.99807L 16.9994,9.99807L 18.9994,9.99807 Z M 18.9994,12.9981L 18.9994,10.9981L 16.9994,10.9981L 16.9994,12.9981L 18.9994,12.9981 Z M 15.9994,9.99807L 15.9994,7.99807L 13.9994,7.99807L 13.9994,9.99807L 15.9994,9.99807 Z M 15.9994,12.9981L 15.9994,10.9981L 13.9994,10.9981L 13.9994,12.1767L 11.8208,9.99807L 12.9994,9.99807L 12.9994,7.99807L 10.9994,7.99807L 10.9994,9.17672L 9.82076,7.99807L 6.82076,4.99807L 19.9994,4.99807C 21.1034,4.99807 21.9994,5.89407 21.9994,6.99807L 21.9994,16.9981C 21.9994,17.8571 21.4569,18.5903 20.696,18.8733L 14.8208,12.9981L 15.9994,12.9981 Z M 7.99941,14.9981L 7.99941,16.9981L 13.7296,16.9981L 11.7296,14.9981L 7.99941,14.9981 Z M 4.99941,9.99807L 6.72959,9.99807L 4.99941,8.26789L 4.99941,9.99807 Z M 6.99941,12.9981L 6.99941,10.9981L 4.99941,10.9981L 4.99941,12.9981L 6.99941,12.9981 Z M 7.99941,12.9981L 9.72959,12.9981L 7.99941,11.2679L 7.99941,12.9981 Z "/>
</svg>
