<?xml version="1.0" encoding="utf-8"?>
<!DOCTYPE svg PUBLIC "-//W3C//DTD SVG 1.1//EN" "http://www.w3.org/Graphics/SVG/1.1/DTD/svg11.dtd">
<svg xmlns="http://www.w3.org/2000/svg" xmlns:xlink="http://www.w3.org/1999/xlink" version="1.1" baseProfile="full" width="24" height="24" viewBox="0 0 24.00 24.00" enable-background="new 0 0 24.00 24.00" xml:space="preserve">
	<path fill="#000000" fill-opacity="1" stroke-width="1.33333" stroke-linejoin="miter" d="M 10.2064,9.13434L 13.5075,4.35171C 14.1315,3.45056 14.9372,3 15.9251,3C 16.7308,3 17.428,3.28606 18.0174,3.85777C 18.6065,4.42952 18.901,5.11413 18.901,5.91124C 18.901,6.50031 18.7454,7.0204 18.4333,7.4708L 15.457,11.7986L 19.0961,16.4123C 19.46,16.8715 19.6419,17.4089 19.6419,18.0238C 19.6419,18.8387 19.3562,19.5379 18.7843,20.1227C 18.2124,20.708 17.5189,21 16.7048,21C 15.8122,21 15.1322,20.7099 14.6641,20.1293L 10.2064,14.5669L 10.2064,17.6343C 10.2064,18.5093 10.0548,19.1893 9.75159,19.6747C 9.19701,20.5581 8.39122,21 7.33425,21C 6.37244,21 5.62715,20.6752 5.09876,20.0253C 4.60486,19.4273 4.35809,18.6345 4.35809,17.647L 4.35809,6.27494C 4.35809,5.33952 4.6091,4.56841 5.11186,3.96181C 5.64025,3.32073 6.36802,3 7.29516,3C 8.17894,3 8.91537,3.32073 9.50463,3.96181C 9.83365,4.31702 10.0417,4.67646 10.1282,5.04053C 10.1804,5.26592 10.2064,5.68586 10.2064,6.30114L 10.2064,9.13434 Z "/>
</svg>
