<?xml version="1.0" encoding="utf-8"?>
<!DOCTYPE svg PUBLIC "-//W3C//DTD SVG 1.1//EN" "http://www.w3.org/Graphics/SVG/1.1/DTD/svg11.dtd">
<svg xmlns="http://www.w3.org/2000/svg" xmlns:xlink="http://www.w3.org/1999/xlink" version="1.1" baseProfile="full" width="24" height="24" viewBox="0 0 24.00 24.00" enable-background="new 0 0 24.00 24.00" xml:space="preserve">
	<path fill="#000000" fill-opacity="1" stroke-width="0.2" stroke-linejoin="round" d="M 2,4.26848L 3.27711,3L 20,19.7229L 18.7315,21L 16.6301,18.8986C 16.432,18.9644 16.2201,19 16,19L 5,18.99C 3.89649,18.99 3,18.104 3,17L 3,7C 3,6.51531 3.1728,6.07265 3.46004,5.72852L 2,4.26848 Z M 5,17L 14.7315,17L 5,7.26848L 5,17 Z M 19.547,12L 16,7L 9.82268,7L 7.83012,5.00744L 16,5C 16.674,5 17.271,5.33301 17.633,5.84497L 22,12L 19.0212,16.1985L 17.5864,14.7637L 19.547,12 Z "/>
</svg>
