<?xml version="1.0" encoding="utf-8"?>
<!DOCTYPE svg PUBLIC "-//W3C//DTD SVG 1.1//EN" "http://www.w3.org/Graphics/SVG/1.1/DTD/svg11.dtd">
<svg xmlns="http://www.w3.org/2000/svg" xmlns:xlink="http://www.w3.org/1999/xlink" version="1.1" baseProfile="full" width="24" height="24" viewBox="0 0 24.00 24.00" enable-background="new 0 0 24.00 24.00" xml:space="preserve">
	<path fill="#000000" fill-opacity="1" stroke-width="1.33333" stroke-linejoin="miter" d="M 12,5C 12.7448,5 13.4658,5.10178 14.1499,5.29218L 15.7825,2.46434C 16.0587,1.98605 16.6703,1.82217 17.1486,2.09832C 17.6268,2.37446 17.7907,2.98605 17.5146,3.46435L 16.0075,6.07463C 17.2187,6.77701 18.2286,7.788 18.9297,9L 5.07026,9C 5.77136,7.788 6.7813,6.777 7.99247,6.07462L 6.48542,3.46433C 6.20928,2.98604 6.37316,2.37445 6.85145,2.0983C 7.32974,1.82216 7.94134,1.98604 8.21748,2.46433L 9.85013,5.29217C 10.5342,5.10177 11.2552,5 12,5 Z M 20,13C 20,17.1654 16.8166,20.5872 12.75,20.9653L 12.75,10.5L 19.6016,10.5C 19.8601,11.2866 20,12.127 20,13 Z M 4,13C 4,12.127 4.13985,11.2866 4.39837,10.5L 11.25,10.5L 11.25,20.9653C 7.1834,20.5872 4,17.1654 4,13 Z "/>
</svg>
