<?xml version="1.0" encoding="utf-8"?>
<!DOCTYPE svg PUBLIC "-//W3C//DTD SVG 1.1//EN" "http://www.w3.org/Graphics/SVG/1.1/DTD/svg11.dtd">
<svg xmlns="http://www.w3.org/2000/svg" xmlns:xlink="http://www.w3.org/1999/xlink" version="1.1" baseProfile="full" width="24" height="24" viewBox="0 0 24.00 24.00" enable-background="new 0 0 24.00 24.00" xml:space="preserve">
	<path fill="#000000" fill-opacity="1" stroke-width="1.33333" stroke-linejoin="miter" d="M 12,4.2883C 6.47708,4.2883 1.99984,7.2868 1.99984,10.9857C 1.99984,14.2824 5.55645,17.0227 10.2401,17.5796L 10.2401,19.7103L 13.6516,19.7093L 13.6513,17.5921C 14.4872,17.499 15.2881,17.3367 16.0403,17.1139L 17.4237,19.7117L 21.279,19.7097L 18.9577,15.7958C 20.8337,14.5784 22.0002,12.8735 22.0002,10.9858C 22.0002,7.2869 17.5229,4.2884 12,4.2884L 12,4.2883 Z M 13.5307,6.9068C 17.7286,6.9068 20.8266,8.3092 20.8266,11.4854C 20.8266,13.2107 19.9127,14.4121 18.4056,15.1501C 18.3231,15.0953 18.2446,15.0515 18.1864,15.0222C 17.8348,14.8442 17.2296,14.6616 17.2296,14.6616C 17.2296,14.6616 20.2112,14.4406 20.2112,11.4719C 20.2112,8.5033 17.0909,8.447 17.0909,8.447L 10.2401,8.447L 10.2401,15.6138C 7.68993,14.8749 5.9297,13.304 5.9297,11.4854C 5.9297,8.9567 9.33278,6.9068 13.5307,6.9068 Z M 13.6804,10.8888L 15.7457,10.8898C 15.7457,10.8898 16.7026,10.838 16.7026,11.8288C 16.7026,12.8001 15.7457,12.803 15.7457,12.803L 13.6793,12.8037L 13.6804,10.8888 Z M 13.6509,15.2995L 14.5669,15.2995C 14.7542,15.2995 14.835,15.3541 15.0245,15.5075C 15.1332,15.5955 15.2739,15.7865 15.3916,15.962C 14.839,16.0262 14.2567,16.0594 13.651,16.0633L 13.6509,15.2995 Z "/>
</svg>
