<?xml version="1.0" encoding="utf-8"?>
<!DOCTYPE svg PUBLIC "-//W3C//DTD SVG 1.1//EN" "http://www.w3.org/Graphics/SVG/1.1/DTD/svg11.dtd">
<svg xmlns="http://www.w3.org/2000/svg" xmlns:xlink="http://www.w3.org/1999/xlink" version="1.1" baseProfile="full" width="24" height="24" viewBox="0 0 24.00 24.00" enable-background="new 0 0 24.00 24.00" xml:space="preserve">
	<path fill="#000000" fill-opacity="1" stroke-width="0.2" stroke-linejoin="miter" d="M 3.00001,2.99996L 21,2.99996L 21,21L 3.00001,21L 3.00001,2.99996 Z M 4.18293,18.1227C 4.53801,18.8759 5.23752,19.4999 6.44261,19.4999C 7.77696,19.4999 8.69153,18.7897 8.69153,17.2294L 8.69153,12.0861L 7.18511,12.0861L 7.18511,17.2081C 7.18511,17.9613 6.87304,18.1549 6.37804,18.1549C 5.86164,18.1549 5.64635,17.7999 5.40968,17.3803L 4.18293,18.1227 Z M 9.50977,17.9613C 9.95088,18.8329 10.8548,19.5 12.2536,19.5C 13.6847,19.5 14.75,18.7576 14.75,17.4017C 14.75,16.1428 14.029,15.5833 12.7485,15.0345L 12.3719,14.8731C 11.7264,14.5933 11.4466,14.4104 11.4466,13.9584C 11.4466,13.5926 11.7264,13.3129 12.1676,13.3129C 12.598,13.3129 12.8777,13.4958 13.1359,13.9584L 14.3088,13.2052C 13.8139,12.3336 13.1252,12 12.1676,12C 10.8225,12 9.96164,12.8609 9.96164,13.9907C 9.96164,15.2174 10.6826,15.7985 11.7695,16.2611L 12.146,16.4226C 12.8347,16.7238 13.2435,16.9067 13.2435,17.4232C 13.2435,17.8537 12.8455,18.1657 12.2213,18.1657C 11.4789,18.1657 11.0593,17.7784 10.7364,17.2511L 9.50977,17.9613 Z M 17.5125,13.869L 16.6804,12L 15.1804,12L 16.7625,15.5535L 15.0054,19.5L 16.5054,19.5L 17.5125,17.238L 18.5196,19.5L 20.0196,19.5L 18.2625,15.5535L 19.8446,12L 18.3446,12L 17.5125,13.869 Z "/>
</svg>
