<?xml version="1.0" encoding="utf-8"?>
<!DOCTYPE svg PUBLIC "-//W3C//DTD SVG 1.1//EN" "http://www.w3.org/Graphics/SVG/1.1/DTD/svg11.dtd">
<svg xmlns="http://www.w3.org/2000/svg" xmlns:xlink="http://www.w3.org/1999/xlink" version="1.1" baseProfile="full" width="24" height="24" viewBox="0 0 24.00 24.00" enable-background="new 0 0 24.00 24.00" xml:space="preserve">
	<path fill="#000000" fill-opacity="1" stroke-width="1.33333" stroke-linejoin="miter" d="M 3,3L 21,3L 21,21L 3,21L 3,3 Z M 7.73286,18.0421C 8.13157,18.8879 8.91704,19.5885 10.2702,19.5885C 11.7685,19.5885 12.7955,18.7911 12.7955,17.0391L 12.7955,11.2637L 11.104,11.2637L 11.104,17.0151C 11.104,17.8609 10.7535,18.0783 10.1977,18.0783C 9.61786,18.0783 9.37611,17.6796 9.11036,17.2085L 7.73286,18.0421 Z M 13.7143,17.8609C 14.2096,18.8396 15.2246,19.5887 16.7953,19.5887C 18.4023,19.5887 19.5985,18.755 19.5985,17.2325C 19.5985,15.8189 18.7889,15.1907 17.351,14.5744L 16.9282,14.3932C 16.2033,14.079 15.8891,13.8736 15.8891,13.3661C 15.8891,12.9554 16.2033,12.6412 16.6987,12.6412C 17.182,12.6412 17.496,12.8466 17.786,13.3661L 19.1031,12.5204C 18.5473,11.5416 17.774,11.167 16.6987,11.167C 15.1883,11.167 14.2217,12.1337 14.2217,13.4024C 14.2217,14.7798 15.0313,15.4323 16.2517,15.9517L 16.6745,16.1331C 17.4478,16.4713 17.9069,16.6767 17.9069,17.2567C 17.9069,17.74 17.46,18.0905 16.7591,18.0905C 15.9254,18.0905 15.4542,17.6555 15.0916,17.0634L 13.7143,17.8609 Z "/>
</svg>
