<?xml version="1.0" encoding="utf-8"?>
<!DOCTYPE svg PUBLIC "-//W3C//DTD SVG 1.1//EN" "http://www.w3.org/Graphics/SVG/1.1/DTD/svg11.dtd">
<svg xmlns="http://www.w3.org/2000/svg" xmlns:xlink="http://www.w3.org/1999/xlink" version="1.1" baseProfile="full" width="24" height="24" viewBox="0 0 24.00 24.00" enable-background="new 0 0 24.00 24.00" xml:space="preserve">
	<path fill="#000000" fill-opacity="1" stroke-width="1.33333" stroke-linejoin="miter" d="M 2.64307,10.325L 2.61542,10.2682L 2.83982,9.98185L 2.95659,9.92498L 6.79527,9.92316L 6.82852,9.98392L 6.65001,10.2624L 6.53882,10.3232L 2.64307,10.325 Z M 1.02767,11.3126L 1,11.2558L 1.22443,10.9695L 1.3412,10.9126L 6.24331,10.9092L 6.29287,10.9777L 6.20606,11.2406L 6.11118,11.3092L 1.02767,11.3126 Z M 3.63041,12.2986L 3.59332,12.2356L 3.74586,11.9617L 3.85321,11.8986L 6.00431,11.8968L 6.06967,11.9686L 6.04524,12.2249L 5.96616,12.2968L 3.63041,12.2986 Z M 14.7786,10.135L 12.9765,10.6074C 12.8127,10.6486 12.8003,10.664 12.6624,10.5041C 12.5007,10.3164 12.3861,10.208 12.1585,10.0961C 11.4816,9.7633 10.8252,9.85544 10.2191,10.2532C 9.49254,10.7299 9.1111,11.419 9.12024,12.2991C 9.12915,13.1586 9.72499,13.8697 10.5718,13.9878C 11.2979,14.089 11.9122,13.828 12.4004,13.2822L 12.6948,12.8888L 10.6242,12.8888C 10.4001,12.8888 10.3477,12.7515 10.4244,12.5662L 10.9722,11.3934C 11.0079,11.3274 11.0816,11.2171 11.236,11.2171L 14.678,11.2171C 14.8339,10.7229 15.0874,10.2556 15.4256,9.81296C 16.2115,8.78448 17.1581,8.24416 18.4299,8.0165C 19.5235,7.82076 20.557,7.9337 21.4879,8.56943C 22.3391,9.15076 22.8667,9.93296 23,10.9617C 23.1872,12.4068 22.7628,13.5913 21.7637,14.6056C 21.0507,15.3294 20.1822,15.7816 19.1865,15.9783L 18.3277,16.0785C 17.3451,16.0601 16.4575,15.7777 15.7105,15.1331C 15.1903,14.6843 14.8315,14.1356 14.6465,13.4924C 14.5227,13.7377 14.3759,13.9731 14.2062,14.1981C 13.4358,15.2194 12.4268,15.8539 11.1486,16.021C 10.0978,16.1584 9.12031,15.9536 8.26421,15.3075C 7.47344,14.7108 7.0171,13.9079 6.89884,12.9246C 6.75762,11.7504 7.09919,10.7048 7.80814,9.77779C 8.5719,8.77915 9.57734,8.14637 10.8171,7.92151C 11.8242,7.73885 12.7889,7.86191 13.6607,8.44402C 14.2289,8.82347 14.6332,9.33687 14.9048,9.9629C 14.9433,10.0517 14.8995,10.1052 14.7786,10.135 Z M 20.8903,11.7351L 20.8593,11.3785C 20.668,10.3164 19.6909,9.71832 18.667,9.94623C 17.6627,10.1698 17.0223,10.8033 16.7893,11.8139C 16.5954,12.6544 17.0073,13.5 17.7744,13.8419C 18.3638,14.1046 18.9588,14.0644 19.5272,13.7764C 20.3717,13.3485 20.835,12.6592 20.8903,11.7351 Z "/>
</svg>
