<?xml version="1.0" encoding="utf-8"?>
<!DOCTYPE svg PUBLIC "-//W3C//DTD SVG 1.1//EN" "http://www.w3.org/Graphics/SVG/1.1/DTD/svg11.dtd">
<svg xmlns="http://www.w3.org/2000/svg" xmlns:xlink="http://www.w3.org/1999/xlink" version="1.1" baseProfile="full" width="24" height="24" viewBox="0 0 24.00 24.00" enable-background="new 0 0 24.00 24.00" xml:space="preserve">
	<path fill="#000000" fill-opacity="1" stroke-width="1.33333" stroke-linejoin="miter" d="M 12,18.0813C 5.3727,18.0813 1.65304e-005,15.3586 1.65304e-005,12C 1.65304e-005,8.64143 5.3727,5.91866 12,5.91866C 18.6273,5.91866 24,8.64143 24,12C 24,15.3586 18.6273,18.0813 12,18.0813 Z M 6.80708,10.1343C 7.35191,10.1343 7.71501,10.2349 7.89656,10.436C 8.07793,10.6371 8.12116,10.9824 8.02624,11.4717C 7.92708,11.9812 7.73618,12.3448 7.45318,12.5627C 7.17018,12.7806 6.7395,12.8895 6.16133,12.8895L 5.28904,12.8895L 5.82452,10.1343L 6.80708,10.1343 Z M 3.31298,15.6786L 4.74704,15.6786L 5.0872,13.9283L 6.31553,13.9283C 6.85754,13.9283 7.30339,13.8715 7.65343,13.7575C 8.00348,13.6437 8.32159,13.4528 8.60794,13.1848C 8.84824,12.9639 9.04267,12.7203 9.19158,12.4539C 9.34032,12.1876 9.446,11.8937 9.50846,11.5722C 9.66019,10.7919 9.54569,10.184 9.1653,9.74861C 8.78491,9.31317 8.17973,9.09545 7.35014,9.09545L 4.59248,9.09545L 3.31298,15.6786 Z M 10.5617,7.34522L 9.28218,13.9283L 10.7049,13.9283L 11.4379,10.1569L 12.575,10.1569C 12.939,10.1569 13.177,10.2172 13.2888,10.3377C 13.4007,10.4582 13.4243,10.6842 13.3599,11.0156L 12.7939,13.9283L 14.2393,13.9283L 14.8346,10.8649C 14.9556,10.2417 14.8649,9.79095 14.5621,9.51272C 14.2594,9.23465 13.7093,9.09545 12.9118,9.09545L 11.6443,9.09545L 11.9844,7.34522L 10.5617,7.34522 Z M 18.0002,10.1343C 18.545,10.1343 18.9081,10.2349 19.0897,10.436C 19.2711,10.6371 19.3143,10.9824 19.2194,11.4717C 19.1202,11.9812 18.9293,12.3448 18.6463,12.5627C 18.3633,12.7806 17.9326,12.8895 17.3545,12.8895L 16.4822,12.8895L 17.0176,10.1343L 18.0002,10.1343 Z M 14.5061,15.6786L 15.9402,15.6786L 16.2803,13.9283L 17.5087,13.9283C 18.0507,13.9283 18.4965,13.8715 18.8466,13.7575C 19.1966,13.6437 19.5147,13.4528 19.8011,13.1848C 20.0414,12.9639 20.2358,12.7203 20.3847,12.4539C 20.5334,12.1876 20.6391,11.8937 20.7016,11.5722C 20.8533,10.7919 20.7388,10.184 20.3584,9.7486C 19.978,9.31317 19.3729,9.09545 18.5433,9.09545L 15.7856,9.09545L 14.5061,15.6786 Z "/>
</svg>
