<?xml version="1.0" encoding="utf-8"?>
<!DOCTYPE svg PUBLIC "-//W3C//DTD SVG 1.1//EN" "http://www.w3.org/Graphics/SVG/1.1/DTD/svg11.dtd">
<svg xmlns="http://www.w3.org/2000/svg" xmlns:xlink="http://www.w3.org/1999/xlink" version="1.1" baseProfile="full" width="24" height="24" viewBox="0 0 24.00 24.00" enable-background="new 0 0 24.00 24.00" xml:space="preserve">
	<path fill="#000000" fill-opacity="1" stroke-width="0.2" stroke-linejoin="round" d="M 2,5.6896C 8.92303,1.07425 11.095,7.01179 11.276,10.2697C 11.457,13.5276 8.28954,17.6352 4.30768,14.9203L 4.30768,20.3049L 2,18.7664L 2,5.6896 Z M 4.2172,7.39647L 4.2172,12.7809C 7.83709,14.9529 9.08137,13.1656 9.08137,10.0887C 9.08137,5.74484 6.57012,5.58652 4.2172,7.39647 Z M 15.0768,4.15115C 15.0768,4.15115 14.8958,7.63509 15.0768,11.074C 15.4388,14.5129 19.6922,11.8433 19.6922,11.8433L 19.6922,4.92038L 22,5.20186L 22,14.4439C 22,20.5977 15.8461,20.3049 15.8461,20.3049L 15.0767,17.9972C 20.4614,17.9972 19.7827,14.4326 19.7827,14.4326C 13.2669,16.9665 12.7692,12.6126 12.7692,12.6126L 12.7692,5.6896L 15.0768,4.15115 Z "/>
</svg>
