<?xml version="1.0" encoding="utf-8"?>
<!DOCTYPE svg PUBLIC "-//W3C//DTD SVG 1.1//EN" "http://www.w3.org/Graphics/SVG/1.1/DTD/svg11.dtd">
<svg xmlns="http://www.w3.org/2000/svg" xmlns:xlink="http://www.w3.org/1999/xlink" version="1.1" baseProfile="full" width="24" height="24" viewBox="0 0 24.00 24.00" enable-background="new 0 0 24.00 24.00" xml:space="preserve">
	<path fill="#000000" fill-opacity="1" stroke-linejoin="round" d="M 13.375,3.5C 13.8582,3.5 14.25,3.89175 14.25,4.375C 14.25,4.85825 13.8582,5.25 13.375,5.25C 12.8917,5.25 12.5,4.85825 12.5,4.375C 12.5,3.89175 12.8917,3.5 13.375,3.5 Z M 8.375,3.75C 8.85825,3.75 9.25,4.14175 9.25,4.625C 9.25,5.10825 8.85825,5.5 8.375,5.5C 7.89175,5.5 7.5,5.10825 7.5,4.625C 7.5,4.14175 7.89175,3.75 8.375,3.75 Z M 17.75,2C 18.5784,2 19.25,2.67158 19.25,3.5C 19.25,4.23981 18.7144,4.85452 18.0099,4.97758L 17.9017,5.14635C 18.9025,7.87725 18.5,11.5 18.5,11.5C 19.25,12 20.25,12.5 20,13C 19.75,13.5 18.5625,13 18.5625,13C 19,20 17.25,20.75 17.25,20.75C 17.25,20.75 18.25,22 17.75,22.5C 17.25,23 16,21.75 16,21.75C 16,21.75 13.25,22.75 11.5,22.75C 9.75,22.75 8,21.75 8,21.75C 7.25,22.5 6.25,23 6,22.5C 5.75,22 6.75,20.75 6.75,20.75C 4.5,19.75 5.5,12.75 5.5,12.75C 5.25,13 4.25,13.75 4,13C 3.75,12.25 5.5,11.75 5.5,11.75C 5.0801,8.11089 5.2871,6.19573 5.55065,5.21485C 4.87815,5.06661 4.375,4.46707 4.375,3.75C 4.375,2.92158 5.04657,2.25001 5.875,2.25001C 6.11656,2.25001 6.34478,2.30711 6.5469,2.40854C 7.68677,1.56004 9.64746,1.00001 11.875,1.00001C 13.9443,1.00001 15.7833,1.4833 16.948,2.23219C 17.1799,2.08515 17.455,2 17.75,2 Z M 14.25,2.25001C 13.1454,2.25001 12.25,3.14544 12.25,4.25001C 12.25,5.35458 13.1454,6.25001 14.25,6.25001C 15.3546,6.25001 16.25,5.35458 16.25,4.25001C 16.25,3.14544 15.3546,2.25001 14.25,2.25001 Z M 9.25,2.50001C 8.14543,2.50001 7.25,3.39544 7.25,4.50001C 7.25,5.60457 8.14543,6.50001 9.25,6.50001C 10.3546,6.50001 11.25,5.60457 11.25,4.50001C 11.25,3.39544 10.3546,2.50001 9.25,2.50001 Z M 11.875,7.25C 11.2537,7.25 10.75,7.47386 10.75,7.75C 10.75,7.92336 10.9485,8.07611 11.25,8.16581L 11.25,8.75001C 11.25,8.88808 11.3619,9.00001 11.5,9.00001L 12.25,9.00001C 12.3881,9.00001 12.5,8.88808 12.5,8.75001L 12.5,8.16581C 12.8015,8.07611 13,7.92336 13,7.75C 13,7.47386 12.4963,7.25 11.875,7.25 Z "/>
</svg>
