<?xml version="1.0" encoding="utf-8"?>
<!DOCTYPE svg PUBLIC "-//W3C//DTD SVG 1.1//EN" "http://www.w3.org/Graphics/SVG/1.1/DTD/svg11.dtd">
<svg xmlns="http://www.w3.org/2000/svg" xmlns:xlink="http://www.w3.org/1999/xlink" version="1.1" baseProfile="full" width="24" height="24" viewBox="0 0 24.00 24.00" enable-background="new 0 0 24.00 24.00" xml:space="preserve">
	<path fill="#000000" fill-opacity="1" stroke-width="1.33333" stroke-linejoin="miter" d="M 16.51,6.08C 16.51,6.08 9.66,7.79 12.94,11.56C 13.91,12.67 12.69,13.67 12.69,13.67C 12.69,13.67 15.14,12.42 14.02,10.82C 12.94,9.35 12.14,8.62 16.51,6.08 Z M 12.03,7.28C 16.08,4.08 14,2 14,2C 14.84,5.3 11.04,6.3 9.67,8.36C 8.73,9.76 10.13,11.27 12.02,12.98C 11.29,11.3 8.78,9.84 12.03,7.28 Z M 9.37,17.47C 6.29,18.33 11.25,20.1 15.16,18.43C 14.78,18.28 14.41,18.1 14.06,17.89C 12.7,18.2 11.3,18.26 9.92,18.07C 8.61,17.91 9.37,17.47 9.37,17.47 Z M 14.69,15.79C 12.94,16.17 11.13,16.26 9.35,16.05C 8.04,15.92 8.9,15.28 8.9,15.28C 5.51,16.41 10.78,17.68 15.52,16.3C 15.21,16.19 14.93,16.01 14.69,15.79 Z M 18.11,19.09C 18.11,19.09 18.68,19.56 17.48,19.92C 15.22,20.6 8.07,20.81 6.09,19.95C 5.38,19.64 6.72,19.21 7.14,19.12C 7.37,19.06 7.6,19.04 7.83,19.04C 7.04,18.48 2.7,20.14 5.64,20.6C 13.61,21.9 20.18,20.02 18.11,19.09 Z M 15.37,14.23C 15.66,14.04 15.97,13.88 16.29,13.74C 16.29,13.74 14.78,14.01 13.27,14.14C 11.67,14.3 10.06,14.32 8.46,14.2C 6.11,13.89 9.75,13.02 9.75,13.02C 8.65,13 7.57,13.26 6.59,13.75C 4.54,14.75 11.69,15.2 15.37,14.23 Z M 16.27,16.65C 16.25,16.69 16.23,16.72 16.19,16.75C 21.2,15.44 19.36,12.11 16.96,12.94C 16.83,12.99 16.72,13.08 16.65,13.19C 16.79,13.14 16.93,13.1 17.08,13.07C 18.28,12.83 20.02,14.7 16.27,16.65 Z M 16.4,21.26C 13.39,21.78 10.31,21.82 7.28,21.4C 7.28,21.4 7.74,21.78 10.09,21.93C 13.69,22.16 19.22,21.8 19.35,20.1C 19.38,20.11 19.12,20.75 16.4,21.26 Z "/>
</svg>
