<?xml version="1.0" encoding="utf-8"?>
<!DOCTYPE svg PUBLIC "-//W3C//DTD SVG 1.1//EN" "http://www.w3.org/Graphics/SVG/1.1/DTD/svg11.dtd">
<svg xmlns="http://www.w3.org/2000/svg" xmlns:xlink="http://www.w3.org/1999/xlink" version="1.1" baseProfile="full" width="24" height="24" viewBox="0 0 24.00 24.00" enable-background="new 0 0 24.00 24.00" xml:space="preserve">
	<path fill="#000000" fill-opacity="1" stroke-width="1.33333" stroke-linejoin="miter" d="M 19.8,16.7C 19.8,16.7 21.6,16.5 21.6,14.3C 21.6,12.1 19.5,11.8 19.5,11.8L 15.7,11.8L 15.7,19L 17.6,19L 17.6,17.3L 19.3,19L 22,19L 19.8,16.7 Z M 19,15.3L 17.5,15.3L 17.5,13.7L 19,13.7C 19,13.7 19.4,13.9 19.4,14.5C 19.5,15.1 19,15.3 19,15.3 Z M 21.3,8.2L 21.3,8.4C 13.2,6.1 10,13.2 10.6,18.7C 10.6,18.7 4.9,18.7 4.3,18.7C 5,13.3 11.8,2.6 21.3,8.2 Z M 20.5,6.9C 19.8,6.6 19.1,6.3 18.4,6.1L 18.5,4.8L 20.6,5.6L 20.5,6.9 Z M 18.5,8.7C 19.2,8.7 19.9,8.8 20.6,9L 20.5,10.2L 18.7,10L 18.5,8.7 Z M 13.9,5.8L 13.5,4.6L 15.6,4.4L 16,5.7C 15.8,5.7 14.1,5.8 13.9,5.8 Z M 15.2,9.5C 15.6,9.3 16.3,9 17.2,8.8L 17.6,10L 15.8,10.7L 15.2,9.5 Z M 11.8,6.5C 11.2,6.8 10.6,7.1 10,7.5L 9.2,6.2L 11,5.2L 11.8,6.5 Z M 14.3,10.1L 15.1,11.3L 14,12.6L 12.9,11.6C 13.2,11 13.7,10.5 14.3,10.1 Z M 11.6,15C 11.7,14.2 11.9,13.5 12.2,12.7L 13.4,13.7L 13.1,15.6L 11.6,15 Z M 7.9,9.3C 7.4,9.8 6.9,10.4 6.5,10.9L 5.2,9.8L 6.7,8.2L 7.9,9.3 Z M 4.8,13.7C 4.4,14.5 4.1,15.3 3.8,16L 2,15.3L 2.9,13L 4.8,13.7 Z M 11.5,16.3L 13.3,16.9L 13.6,18.9L 11.6,18.4C 11.6,18.2 11.5,17.5 11.5,16.3 Z "/>
</svg>
