<?xml version="1.0" encoding="utf-8"?>
<!DOCTYPE svg PUBLIC "-//W3C//DTD SVG 1.1//EN" "http://www.w3.org/Graphics/SVG/1.1/DTD/svg11.dtd">
<svg xmlns="http://www.w3.org/2000/svg" xmlns:xlink="http://www.w3.org/1999/xlink" version="1.1" baseProfile="full" width="24" height="24" viewBox="0 0 24.00 24.00" enable-background="new 0 0 24.00 24.00" xml:space="preserve">
	<path fill="#000000" fill-opacity="1" stroke-width="1.33333" stroke-linejoin="miter" d="M 17.0858,19.721C 14.7299,21.0819 11.4906,21.2217 8.23169,19.8249C 5.59298,18.7023 3.40353,16.7371 2,14.4918C 2.6737,15.0531 3.45967,15.5024 4.30177,15.8951C 7.66733,17.4726 11.0322,17.3646 13.3967,15.8951C 10.0282,13.3126 7.16496,9.9441 5.0317,7.1935C 4.58238,6.7443 4.24553,6.1829 3.90868,5.6776C 12.1892,11.7293 11.8328,13.2673 6.32261,4.667C 11.207,9.6075 15.7547,12.4146 15.7547,12.4146C 15.9051,12.4994 16.0212,12.5701 16.1146,12.6332C 16.2131,12.3828 16.2994,12.1228 16.3721,11.8533C 17.158,8.9901 16.26,5.7337 14.2948,3.0391C 18.842,5.7899 21.5371,10.9548 20.414,15.2778C 20.3847,15.3944 20.3529,15.5095 20.3579,15.671C 22.6032,18.4782 21.9859,21.4535 21.7052,20.8921C 20.4871,18.5085 18.2322,19.2374 17.0858,19.721L 17.0858,19.721 Z "/>
</svg>
