<?xml version="1.0" encoding="utf-8"?>
<!DOCTYPE svg PUBLIC "-//W3C//DTD SVG 1.1//EN" "http://www.w3.org/Graphics/SVG/1.1/DTD/svg11.dtd">
<svg xmlns="http://www.w3.org/2000/svg" xmlns:xlink="http://www.w3.org/1999/xlink" version="1.1" baseProfile="full" width="24" height="24" viewBox="0 0 24.00 24.00" enable-background="new 0 0 24.00 24.00" xml:space="preserve">
	<path fill="#000000" fill-opacity="1" stroke-width="0.2" stroke-linejoin="miter" d="M 3.00001,2.99996L 21,2.99996L 21,21L 3.00001,21L 3.00001,2.99996 Z M 13.7143,17.8608C 14.2096,18.8396 15.2246,19.5887 16.7953,19.5887C 18.4023,19.5887 19.5985,18.755 19.5985,17.2325C 19.5985,15.8189 18.7889,15.1907 17.3511,14.5744L 16.9282,14.3932C 16.2033,14.079 15.8891,13.8736 15.8891,13.3661C 15.8891,12.9553 16.2033,12.6412 16.6987,12.6412C 17.182,12.6412 17.4961,12.8466 17.7861,13.3661L 19.1031,12.5203C 18.5474,11.5416 17.7741,11.167 16.6987,11.167C 15.1883,11.167 14.2217,12.1337 14.2217,13.4024C 14.2217,14.7798 15.0313,15.4323 16.2517,15.9517L 16.6745,16.1331C 17.4478,16.4713 17.9069,16.6767 17.9069,17.2567C 17.9069,17.74 17.46,18.0905 16.7591,18.0905C 15.9254,18.0905 15.4542,17.6555 15.0916,17.0634L 13.7143,17.8608 Z M 13,11.25L 8,11.25L 8,12.75L 9.5,12.75L 9.5,20L 11.25,20L 11.25,12.75L 13,12.75L 13,11.25 Z "/>
</svg>
