<?xml version="1.0" encoding="utf-8"?>
<!DOCTYPE svg PUBLIC "-//W3C//DTD SVG 1.1//EN" "http://www.w3.org/Graphics/SVG/1.1/DTD/svg11.dtd">
<svg xmlns="http://www.w3.org/2000/svg" xmlns:xlink="http://www.w3.org/1999/xlink" version="1.1" baseProfile="full" width="24" height="24" viewBox="0 0 24.00 24.00" enable-background="new 0 0 24.00 24.00" xml:space="preserve">
	<path fill="#000000" fill-opacity="1" stroke-width="0.2" stroke-linejoin="round" d="M 10.4958,15.9733L 10.9122,18.4089C 10.6488,18.5495 10.234,18.6811 9.66783,18.8038C 9.10163,18.9265 8.43134,18.9919 7.65696,19C 5.45289,18.9561 3.79291,18.3022 2.67703,17.0384C 1.56114,15.7746 1.00213,14.1646 1,12.2082C 1.0479,9.90327 1.7221,8.12917 3.0226,6.88589C 4.32311,5.64261 5.96252,5.01398 7.94085,5C 8.69394,5.00705 9.34057,5.07051 9.88074,5.19038C 10.4209,5.31025 10.8215,5.44422 11.0825,5.59229L 10.4769,8.0845L 9.44309,7.738C 9.03815,7.64109 8.57526,7.59033 8.05441,7.58574C 6.89205,7.5841 5.93314,7.95111 5.17769,8.68674C 4.42223,9.42238 4.0311,10.5364 4.00429,12.0289C 4.01414,13.3881 4.37294,14.4547 5.08069,15.2287C 5.78843,16.0028 6.78598,16.397 8.07333,16.4116L 9.39814,16.2895C 9.82791,16.2103 10.1938,16.1048 10.4958,15.9733 Z M 11,11L 13,11L 13,9L 15,9L 15,11L 17,11L 17,13L 15,13L 15,15L 13,15L 13,13L 11,13L 11,11 Z M 18,11L 20,11L 20,9L 22,9L 22,11L 24,11L 24,13L 22,13L 22,15L 20,15L 20,13L 18,13L 18,11 Z "/>
</svg>
