<?xml version="1.0" encoding="utf-8"?>
<!DOCTYPE svg PUBLIC "-//W3C//DTD SVG 1.1//EN" "http://www.w3.org/Graphics/SVG/1.1/DTD/svg11.dtd">
<svg xmlns="http://www.w3.org/2000/svg" xmlns:xlink="http://www.w3.org/1999/xlink" version="1.1" baseProfile="full" width="24" height="24" viewBox="0 0 24.00 24.00" enable-background="new 0 0 24.00 24.00" xml:space="preserve">
	<path fill="#000000" fill-opacity="1" stroke-width="1.33333" stroke-linejoin="miter" d="M 10.5,5C 5.80566,5 2,8.8057 2,13.5C 2,18.1943 5.80566,22 10.5,22C 15.1943,22 19,18.1943 19,13.5C 19,8.8057 15.1943,5 10.5,5M 13.5,13C 12.1191,13 11,11.8809 11,10.5C 11,9.1191 12.1191,8 13.5,8C 14.8809,8 16,9.1191 16,10.5C 16,11.8809 14.8809,13 13.5,13M 19.5,2C 18.1191,2 17,3.1191 17,4.5C 17,5.8809 18.1191,7 19.5,7C 20.8809,7 22,5.8809 22,4.5C 22,3.1191 20.8809,2 19.5,2"/>
</svg>
