<?xml version="1.0" encoding="utf-8"?>
<!DOCTYPE svg PUBLIC "-//W3C//DTD SVG 1.1//EN" "http://www.w3.org/Graphics/SVG/1.1/DTD/svg11.dtd">
<svg xmlns="http://www.w3.org/2000/svg" xmlns:xlink="http://www.w3.org/1999/xlink" version="1.1" baseProfile="full" width="24" height="24" viewBox="0 0 24.00 24.00" enable-background="new 0 0 24.00 24.00" xml:space="preserve">
	<path fill="#000000" fill-opacity="1" stroke-width="1.33333" stroke-linejoin="miter" d="M 12,19C 11.4477,19 11,18.5523 11,18C 11,17.4477 11.4477,17 12,17C 12.5523,17 13,17.4477 13,18C 13,18.5523 12.5523,19 12,19M 4,5L 20,5L 20,16L 4,16M 20,18C 21.1046,18 22,17.1046 22,16L 22,5C 22,3.89 21.1,3 20,3L 4,3C 2.89,3 2,3.89 2,5L 2,16C 2,17.1046 2.89543,18 4,18L 1.27157e-006,18C 1.27157e-006,19.1046 0.895432,20 2,20L 22,20C 23.1046,20 24,19.1046 24,18L 20,18 Z "/>
</svg>
