<?xml version="1.0" encoding="utf-8"?>
<!DOCTYPE svg PUBLIC "-//W3C//DTD SVG 1.1//EN" "http://www.w3.org/Graphics/SVG/1.1/DTD/svg11.dtd">
<svg xmlns="http://www.w3.org/2000/svg" xmlns:xlink="http://www.w3.org/1999/xlink" version="1.1" baseProfile="full" width="24" height="24" viewBox="0 0 24.00 24.00" enable-background="new 0 0 24.00 24.00" xml:space="preserve">
	<path fill="#000000" fill-opacity="1" stroke-width="0.2" stroke-linejoin="round" d="M 0.999999,4.26849L 2.27711,3.00001L 20,20.7229L 18.7315,22L 16.7296,19.9981L -0.00030009,19.9981L -0.00030009,17.9981L 3.9997,17.9981C 2.8947,17.9981 1.9997,17.1021 1.9997,15.9981L 1.9997,5.99807C 1.9997,5.77837 2.03514,5.56692 2.10063,5.36912L 0.999999,4.26849 Z M 3.9997,15.9981L 12.7296,15.9981L 3.9997,7.26819L 3.9997,15.9981 Z M 19.9997,15.9981L 19.9997,5.99807L 7.82076,5.99807L 5.82076,3.99807L 19.9997,3.99807C 21.1037,3.99807 21.9997,4.89407 21.9997,5.99807L 21.9897,15.9981C 21.9897,17.1021 21.1037,17.9981 19.9997,17.9981L 23.9997,17.9981L 23.9997,19.9981L 21.8208,19.9981L 17.8208,15.9981L 19.9997,15.9981 Z "/>
</svg>
