<?xml version="1.0" encoding="utf-8"?>
<!DOCTYPE svg PUBLIC "-//W3C//DTD SVG 1.1//EN" "http://www.w3.org/Graphics/SVG/1.1/DTD/svg11.dtd">
<svg xmlns="http://www.w3.org/2000/svg" xmlns:xlink="http://www.w3.org/1999/xlink" version="1.1" baseProfile="full" width="24" height="24" viewBox="0 0 24.00 24.00" enable-background="new 0 0 24.00 24.00" xml:space="preserve">
	<path fill="#000000" fill-opacity="1" stroke-width="0.2" stroke-linejoin="round" d="M 11.9997,18.9981C 11.4477,18.9981 10.9997,18.5501 10.9997,17.9981C 10.9997,17.4461 11.4477,16.9981 11.9997,16.9981C 12.5517,16.9981 12.9997,17.4461 12.9997,17.9981C 12.9997,18.5501 12.5517,18.9981 11.9997,18.9981 Z M 3.99969,4.99807L 19.9997,4.99807L 19.9997,15.9981L 3.99969,15.9981M 19.9997,17.9981C 21.1037,17.9981 21.9897,17.1021 21.9897,15.9981L 21.9997,4.99807C 21.9997,3.89406 21.1037,2.99807 19.9997,2.99807L 3.99969,2.99807C 2.8947,2.99807 1.99969,3.89406 1.99969,4.99807L 1.99969,15.9981C 1.99969,17.1021 2.8947,17.9981 3.99969,17.9981L -0.000305176,17.9981C -0.000305176,19.1021 0.894699,19.9981 1.99969,19.9981L 21.9997,19.9981C 23.1037,19.9981 23.9997,19.1021 23.9997,17.9981L 19.9997,17.9981 Z "/>
</svg>
