<?xml version="1.0" encoding="utf-8"?>
<!DOCTYPE svg PUBLIC "-//W3C//DTD SVG 1.1//EN" "http://www.w3.org/Graphics/SVG/1.1/DTD/svg11.dtd">
<svg xmlns="http://www.w3.org/2000/svg" xmlns:xlink="http://www.w3.org/1999/xlink" version="1.1" baseProfile="full" width="24" height="24" viewBox="0 0 24.00 24.00" enable-background="new 0 0 24.00 24.00" xml:space="preserve">
	<path fill="#000000" fill-opacity="1" stroke-width="1.33333" stroke-linejoin="miter" d="M 21.98,11.87C 22.03,11.66 21.96,11.43 21.81,11.27C 21.75,11.2 21.29,10.63 20.81,10.03C 20.32,9.42 19.8,8.77 19.64,8.59C 19.46,8.37 19.2,8.12 18.81,8.12C 18.74,8.12 18.68,8.13 18.58,8.14C 18.46,8.15 17.53,8.31 16.8,8.43C 16.36,8.5 16,8.56 15.9,8.58C 15.55,8.63 15.32,8.78 15.22,9.02C 15.17,9.14 15.11,9.4 15.33,9.69L 16.83,11.82L 12.08,12.95L 7.63,5.52C 7.48,5.29 7.29,5.01 6.76,5.01C 6.71,5.01 6.66,5.01 6.61,5.02L 5.59,5.1C 4.68,5.17 2.98,5.31 2.82,5.31C 2.52,5.31 2.27,5.43 2.13,5.65C 1.96,5.9 1.96,6.23 2.13,6.63C 2.37,7.19 6.04,15.12 6.06,15.16C 6.25,15.64 6.71,15.95 7.22,15.95C 7.36,15.95 7.5,15.93 7.59,15.89C 8.16,15.75 10.01,15.27 11.24,14.95C 11.87,16.09 13,18.12 13.24,18.45C 13.4,18.68 13.67,18.99 14.14,18.99C 14.35,18.99 14.55,18.93 14.79,18.85C 15.14,18.74 20.74,16.74 21.03,16.62C 21.23,16.53 21.51,16.42 21.6,16.11C 21.66,15.91 21.62,15.7 21.47,15.48C 21.36,15.32 20.31,13.92 19.53,12.88L 21.47,12.36C 21.82,12.25 21.94,12.03 21.98,11.87 Z M 13,14.51L 17.89,13.24C 18.73,14.39 19.18,15.01 19.42,15.33C 15.88,16.53 14.79,16.9 14.47,17.02C 14.24,16.65 13.56,15.47 13,14.51 Z M 17.3,9.87C 17.76,9.79 18.35,9.68 18.67,9.62C 18.88,9.89 19.44,10.6 19.83,11.1C 19.4,11.21 18.8,11.36 18.44,11.45L 17.3,9.87 Z M 6.38,6.52L 10.35,13.38L 7.6,14.04C 7,12.79 4.78,8.22 4.06,6.72C 4.32,6.7 6.13,6.54 6.38,6.52 Z "/>
</svg>
