<?xml version="1.0" encoding="utf-8"?>
<!DOCTYPE svg PUBLIC "-//W3C//DTD SVG 1.1//EN" "http://www.w3.org/Graphics/SVG/1.1/DTD/svg11.dtd">
<svg xmlns="http://www.w3.org/2000/svg" xmlns:xlink="http://www.w3.org/1999/xlink" version="1.1" baseProfile="full" width="24" height="24" viewBox="0 0 24.00 24.00" enable-background="new 0 0 24.00 24.00" xml:space="preserve">
	<path fill="#000000" fill-opacity="1" stroke-linejoin="round" d="M 12,2C 17.5228,2 22,5.13401 22,9C 22,12.2637 18.8092,15.0057 14.4922,15.7809L 14.5,15.5C 14.5,14.9059 14.3964,14.336 14.2063,13.8074C 17.5516,13.2088 20,11.2831 20,9C 20,6.23858 16.4183,4 12,4C 7.58172,4 4,6.23858 4,9C 4,10.1942 4.66989,11.2907 5.78763,12.1506C 5.34788,12.6377 5.00263,13.2117 4.78081,13.8439C 3.05841,12.5863 2,10.8797 2,9C 2,5.13401 6.47715,2 12,2 Z M 9.5,12C 11.433,12 13,13.567 13,15.5C 13,17.3995 11.4868,18.9456 9.60014,18.9986C 9.39431,19.3562 9.18246,20.0142 9.82812,20.6771C 11,21.8802 13.2812,19.724 16.3906,19.7083C 18.4267,19.6981 20.0312,19.974 20.0312,19.974C 20.0312,19.974 21.0781,20.099 20.9687,21.0365C 20.8594,21.974 19.9062,21.974 19.9062,21.974C 19.5312,21.9271 18.0312,21.5833 16.2187,21.6771C 14.4062,21.7708 13.4687,22.4115 12.5625,22.6927C 11.6562,22.974 9.90625,23.3802 8.29687,22.0521C 6.97412,20.9605 7.45629,19.1089 7.66999,18.4841C 6.66812,17.8683 6,16.7622 6,15.5C 6,13.567 7.567,12 9.5,12 Z M 9.5,14C 8.67157,14 8,14.6716 8,15.5C 8,16.3284 8.67157,17 9.5,17C 10.3284,17 11,16.3284 11,15.5C 11,14.6716 10.3284,14 9.5,14 Z "/>
</svg>
