<?xml version="1.0" encoding="utf-8"?>
<!-- Generator: Adobe Illustrator 19.1.0, SVG Export Plug-In . SVG Version: 6.00 Build 0)  -->
<svg version="1.1" id="Layer_1" xmlns="http://www.w3.org/2000/svg" xmlns:xlink="http://www.w3.org/1999/xlink" x="0px" y="0px"
	 viewBox="-281 373 48 48" style="enable-background:new -281 373 48 48;" xml:space="preserve">
<style type="text/css">
	.st0{fill:#FFFFFF;stroke:#000000;stroke-miterlimit:10;}
</style>
<path d="M-267.2,405.5c4.7,4.7,12.3,4.7,17,0l-8.5-8.5v-12c-3.1,0-6.1,1.2-8.5,3.5C-271.9,393.2-271.9,400.8-267.2,405.5z
	 M-278.7,397c0,11,9,20,20,20c11.1,0,20-9,20-20s-8.9-20-20-20C-269.8,377-278.7,386-278.7,397z M-274.7,397c0-8.8,7.2-16,16-16
	c8.8,0,16,7.2,16,16s-7.2,16-16,16C-267.6,413-274.7,405.8-274.7,397z"/>
<path class="st0" d="M-260.5,394.8v4.9h4.9l14.4-14.4l-4.9-4.9L-260.5,394.8z M-237.4,381.4c0.5-0.5,0.5-1.3,0-1.8l-3-3
	c-0.5-0.5-1.3-0.5-1.8,0l-2.4,2.4l4.9,4.9C-239.8,383.8-237.4,381.4-237.4,381.4z"/>
</svg>
