<?xml version="1.0" encoding="utf-8"?>
<!DOCTYPE svg PUBLIC "-//W3C//DTD SVG 1.1//EN" "http://www.w3.org/Graphics/SVG/1.1/DTD/svg11.dtd">
<svg xmlns="http://www.w3.org/2000/svg" xmlns:xlink="http://www.w3.org/1999/xlink" version="1.1" baseProfile="full" width="24" height="24" viewBox="0 0 24.00 24.00" enable-background="new 0 0 24.00 24.00" xml:space="preserve">
	<g>
		<path fill="#000000" fill-opacity="1" stroke-width="1.33333" stroke-linejoin="miter" d="M 14,12C 14,10.8954 14.8954,10 16,10C 17.1046,10 18,10.8954 18,12C 18,13.1046 17.1046,14 16,14C 14.8954,14 14,13.1046 14,12 Z M 8,12C 8,10.8954 8.89543,10 10,10C 11.1046,10 12,10.8954 12,12C 12,13.1046 11.1046,14 10,14C 8.89543,14 8,13.1046 8,12 Z M 2,12C 2,10.8954 2.89543,10 4,10C 5.10457,10 6,10.8954 6,12C 6,13.1046 5.10457,14 4,14C 2.89543,14 2,13.1046 2,12 Z M 22,5L 20,5L 20,19L 22,19L 22,5 Z "/>
	</g>
</svg>
