<?xml version="1.0" encoding="utf-8"?>
<!-- Generator: Adobe Illustrator 19.1.0, SVG Export Plug-In . SVG Version: 6.00 Build 0)  -->
<svg version="1.1" id="Layer_1" xmlns="http://www.w3.org/2000/svg" xmlns:xlink="http://www.w3.org/1999/xlink" x="0px" y="0px"
	 viewBox="0 0 48 48" style="enable-background:new 0 0 48 48;" xml:space="preserve">
<style type="text/css">
	.st0{fill:#010101;stroke:#010101;stroke-width:0.25;stroke-miterlimit:10;}
	.st1{fill:#010101;}
</style>
<path class="st0" d="M11.5,37c4.7,4.5,12.3,4.5,17,0L20,28.9V17.4c-3.1,0-6.2,1.1-8.5,3.4C6.8,25.2,6.8,32.5,11.5,37z M0,28.9
	C0,39.4,9,48,20,48s20-8.6,20-19.1s-9-19.1-20-19.1S0,18.3,0,28.9z M4,28.9c0-8.5,7.2-15.3,16-15.3s16,6.9,16,15.3
	s-7.2,15.3-16,15.3S4,37.3,4,28.9z M32.4,13.8l-2.8,2.7 M33.4,20.3L33.4,20.3"/>
<path class="st1" d="M23.7,23.2V28h5.1l14.9-14.3l-5.1-4.8L23.7,23.2z M47.6,10c0.5-0.5,0.5-1.3,0-1.8l-3.2-3
	c-0.5-0.5-1.4-0.5-1.9,0l-2.5,2.4l5.1,4.8C45.1,12.4,47.6,10,47.6,10z"/>
</svg>
