<?xml version="1.0" encoding="utf-8"?>
<!DOCTYPE svg PUBLIC "-//W3C//DTD SVG 1.1//EN" "http://www.w3.org/Graphics/SVG/1.1/DTD/svg11.dtd">
<svg xmlns="http://www.w3.org/2000/svg" xmlns:xlink="http://www.w3.org/1999/xlink" version="1.1" baseProfile="full" width="24" height="24" viewBox="0 0 24.00 24.00" enable-background="new 0 0 24.00 24.00" xml:space="preserve">
	<path fill="#000000" fill-opacity="1" stroke-width="1.33333" stroke-linejoin="miter" d="M 10,3L 8,16L 16,16L 14,3L 10,3 Z M 11.5,5.75C 11.9142,5.75 12.25,6.0858 12.25,6.5C 12.25,6.9142 11.9142,7.25 11.5,7.25C 11.0858,7.25 10.75,6.9142 10.75,6.5C 10.75,6.0858 11.0858,5.75 11.5,5.75 Z M 12.5,8.5C 13.0523,8.5 13.5,8.9477 13.5,9.5C 13.5,10.0523 13.0523,10.5 12.5,10.5C 11.9477,10.5 11.5,10.0523 11.5,9.5C 11.5,8.9477 11.9477,8.5 12.5,8.5 Z M 11.5,12C 12.3284,12 13,12.6716 13,13.5C 13,14.3284 12.3284,15 11.5,15C 10.6716,15 10,14.3284 10,13.5C 10,12.6716 10.6716,12 11.5,12 Z M 8,17L 10,19L 8,21L 16,21L 14,19L 16,17L 8,17 Z "/>
</svg>
