<?xml version="1.0" encoding="utf-8"?>
<!DOCTYPE svg PUBLIC "-//W3C//DTD SVG 1.1//EN" "http://www.w3.org/Graphics/SVG/1.1/DTD/svg11.dtd">
<svg xmlns="http://www.w3.org/2000/svg" xmlns:xlink="http://www.w3.org/1999/xlink" version="1.1" baseProfile="full" width="24" height="24" viewBox="0 0 24.00 24.00" enable-background="new 0 0 24.00 24.00" xml:space="preserve">
	<path fill="#000000" fill-opacity="1" stroke-width="1.33333" stroke-linejoin="round" d="M 12,2C 26,10 14,20 14,20L 14,22L 10,22L 10,20C 10,20 -2,10 12,2 Z M 12,4.00002C 1,11 11,18.5 11,18.5L 11,15.47L 8.2587,13.1698C 7.83562,12.8148 7.78044,12.184 8.13544,11.7609C 8.49044,11.3379 9.1212,11.2827 9.54427,11.6377L 11,12.8592L 11,11.1933L 9.21167,9.94114C 8.75927,9.62437 8.64932,9.00082 8.9661,8.54842C 9.28287,8.09601 9.90642,7.98606 10.3588,8.30284L 11,8.75179L 11,7.07693C 11,6.48216 11.4477,6 12,6C 12.5523,6 13,6.48216 13,7.07693L 13,8.75778L 13.644,8.30685C 14.0964,7.99008 14.7199,8.10002 15.0367,8.55243C 15.3535,9.00483 15.2435,9.62838 14.7911,9.94515L 13,11.1993L 13,12.8681L 14.4566,11.6458C 14.8797,11.2908 15.5104,11.346 15.8654,11.7691C 16.2204,12.1921 16.1653,12.8229 15.7422,13.1779L 13,15.4789L 13,18.5C 13,18.5 23,11 12,4.00002 Z "/>
</svg>
