<?xml version="1.0" encoding="utf-8"?>
<!DOCTYPE svg PUBLIC "-//W3C//DTD SVG 1.1//EN" "http://www.w3.org/Graphics/SVG/1.1/DTD/svg11.dtd">
<svg xmlns="http://www.w3.org/2000/svg" xmlns:xlink="http://www.w3.org/1999/xlink" version="1.1" baseProfile="full" width="24" height="24" viewBox="0 0 24.00 24.00" enable-background="new 0 0 24.00 24.00" xml:space="preserve">
	<path fill="#000000" fill-opacity="1" stroke-width="1.33333" stroke-linejoin="miter" d="M 6,3L 3,3L 3,6C 4.66,6 6,4.66 6,3 Z M 14,3L 12,3C 12,7.97 7.97,12 3,12L 3,14C 9.08,14 14,9.07 14,3 Z M 10,3L 8,3C 8,5.76 5.76,8 3,8L 3,10C 6.87,10 10,6.87 10,3 Z M 10,21L 12,21C 12,16.03 16.03,12 21,12L 21,10C 14.93,10 10,14.93 10,21 Z M 18,21L 21,21L 21,18C 19.34,18 18,19.34 18,21 Z M 14,21L 16,21C 16,18.24 18.24,16 21,16L 21,14C 17.13,14 14,17.13 14,21 Z "/>
</svg>
