<?xml version="1.0" encoding="utf-8"?>
<!DOCTYPE svg PUBLIC "-//W3C//DTD SVG 1.1//EN" "http://www.w3.org/Graphics/SVG/1.1/DTD/svg11.dtd">
<svg xmlns="http://www.w3.org/2000/svg" xmlns:xlink="http://www.w3.org/1999/xlink" version="1.1" baseProfile="full" width="24" height="24" viewBox="0 0 24.00 24.00" enable-background="new 0 0 24.00 24.00" xml:space="preserve">
	<path fill="#000000" fill-opacity="1" stroke-width="1.33333" stroke-linejoin="miter" d="M 10,3L 8,3C 8,3.37 7.96,3.72 7.88,4.06L 9.47,5.65C 9.81,4.84 10,3.94 10,3 Z M 3,4.27L 5.84,7.11C 5.03,7.67 4.06,8 3,8L 3,10C 4.61,10 6.09,9.45 7.27,8.54L 8.7,9.97C 7.14,11.24 5.16,12 3,12L 3,14C 5.71,14 8.19,13.01 10.11,11.38L 12.61,13.88C 10.99,15.81 10,18.29 10,21L 12,21C 12,18.84 12.76,16.86 14.03,15.31L 15.46,16.74C 14.55,17.91 14,19.39 14,21L 16,21C 16,19.94 16.33,18.97 16.89,18.16L 19.73,21L 21,19.73L 4.27,3L 3,4.27 Z M 14,3L 12,3C 12,4.5 11.63,5.91 10.98,7.16L 12.44,8.62C 13.42,6.98 14,5.06 14,3 Z M 19.94,16.12C 20.28,16.04 20.63,16 21,16L 21,14C 20.06,14 19.16,14.19 18.34,14.52L 19.94,16.12 Z M 15.38,11.56L 16.84,13.02C 18.09,12.37 19.5,12 21,12L 21,10C 18.94,10 17.02,10.58 15.38,11.56 Z "/>
</svg>
