<?xml version="1.0" encoding="utf-8"?>
<!DOCTYPE svg PUBLIC "-//W3C//DTD SVG 1.1//EN" "http://www.w3.org/Graphics/SVG/1.1/DTD/svg11.dtd">
<svg xmlns="http://www.w3.org/2000/svg" xmlns:xlink="http://www.w3.org/1999/xlink" version="1.1" baseProfile="full" width="24" height="24" viewBox="0 0 24.00 24.00" enable-background="new 0 0 24.00 24.00" xml:space="preserve">
	<path fill="#000000" fill-opacity="1" stroke-width="1.33333" stroke-linejoin="miter" d="M 11,0L 11,4L 13,4L 13,0L 11,0 Z M 18.2988,2.2871L 15.2422,5.2871L 16.6426,6.7148L 19.7012,3.7148L 18.2988,2.2871 Z M 5.70703,2.293L 4.29297,3.707L 7.29297,6.707L 8.70703,5.293L 5.70703,2.293 Z M 12,6C 9.79086,6 8,7.7909 8,10L 8,16L 6,16L 6,18L 9,18L 9,23L 11,23L 11,18L 13,18L 13,23L 15,23L 15,18L 18,18L 18,16L 16,16L 16,10C 16,7.7909 14.2091,6 12,6 Z M 2,9L 2,11L 6,11L 6,9L 2,9 Z M 18,9L 18,11L 22,11L 22,9L 18,9 Z "/>
</svg>
