<?xml version="1.0" encoding="utf-8"?>
<!DOCTYPE svg PUBLIC "-//W3C//DTD SVG 1.1//EN" "http://www.w3.org/Graphics/SVG/1.1/DTD/svg11.dtd">
<svg xmlns="http://www.w3.org/2000/svg" xmlns:xlink="http://www.w3.org/1999/xlink" version="1.1" baseProfile="full" width="24" height="24" viewBox="0 0 24.00 24.00" enable-background="new 0 0 24.00 24.00" xml:space="preserve">
	<path fill="#000000" fill-opacity="1" stroke-width="1.33333" stroke-linejoin="miter" d="M 2.80761,8.4645L 14.8284,20.4853L 15.5355,19.7782L 16.9497,21.1924L 18.364,19.7782L 16.9497,18.364L 18.364,16.9497L 19.7782,18.364L 21.1924,16.9497L 19.7782,15.5355L 20.4853,14.8284L 8.46447,2.8076L 2.80761,8.4645 Z M 5.63604,8.4645L 8.46447,5.636L 17.6569,14.8284L 14.8284,17.6568L 5.63604,8.4645 Z M 7.05025,8.4645L 8.46447,9.8787L 9.87868,8.4645L 8.46447,7.0503L 7.05025,8.4645 Z M 9.17157,10.5858L 10.5858,12L 12,10.5858L 10.5858,9.1716L 9.17157,10.5858 Z M 11.2929,12.7071L 12.7071,14.1213L 14.1213,12.7071L 12.7071,11.2929L 11.2929,12.7071 Z M 13.4142,14.8284L 14.8284,16.2426L 16.2426,14.8284L 14.8284,13.4142L 13.4142,14.8284 Z "/>
</svg>
