<?xml version="1.0" encoding="utf-8"?>
<!DOCTYPE svg PUBLIC "-//W3C//DTD SVG 1.1//EN" "http://www.w3.org/Graphics/SVG/1.1/DTD/svg11.dtd">
<svg xmlns="http://www.w3.org/2000/svg" xmlns:xlink="http://www.w3.org/1999/xlink" version="1.1" baseProfile="full" width="24" height="24" viewBox="0 0 24.00 24.00" enable-background="new 0 0 24.00 24.00" xml:space="preserve">
	<path fill="#000000" fill-opacity="1" stroke-width="1.33333" stroke-linejoin="miter" d="M 19.5,8.985L 19.5,1.51501L 16.5,1.51501L 16.5,8.985L 13.5,8.985L 13.5,1.51501L 10.5,1.51501L 10.5,8.985L 7.5,8.985L 7.5,1.51501L 4.6455,1.51501L 4.6455,8.985L 3,8.985L 3,10.485L 21,10.485L 21,8.985L 19.5,8.985 Z M 19.5,13.515L 16.5,13.515L 16.5,20.985L 13.5,20.985L 13.5,13.515L 10.5,13.515L 10.5,20.985L 7.5,20.985L 7.5,13.515L 4.6455,13.515L 4.6455,20.985L 3,20.985L 3,22.485L 21,22.485L 21,20.985L 19.5,20.985L 19.5,13.515 Z "/>
</svg>
