<?xml version="1.0" encoding="utf-8"?>
<!DOCTYPE svg PUBLIC "-//W3C//DTD SVG 1.1//EN" "http://www.w3.org/Graphics/SVG/1.1/DTD/svg11.dtd">
<svg xmlns="http://www.w3.org/2000/svg" xmlns:xlink="http://www.w3.org/1999/xlink" version="1.1" baseProfile="full" width="24" height="24" viewBox="0 0 24.00 24.00" enable-background="new 0 0 24.00 24.00" xml:space="preserve">
	<path fill="#000000" fill-opacity="1" stroke-linejoin="round" d="M 19,11L 15,11L 15,15L 13,15L 13,11L 9,11L 9,9L 13,9L 13,5L 15,5L 15,9L 19,9M 20,2L 8,2C 6.9,2 6,2.9 6,4L 6,16C 6,17.1 6.9,18 8,18L 20,18C 21.1,18 22,17.1 22,16L 22,4C 22,2.9 21.1,2 20,2 Z M 4,6L 2,6L 2,20C 2,21.1 2.9,22 4,22L 18,22L 18,20L 4,20L 4,6 Z "/>
</svg>
