<?xml version="1.0" encoding="utf-8"?>
<!DOCTYPE svg PUBLIC "-//W3C//DTD SVG 1.1//EN" "http://www.w3.org/Graphics/SVG/1.1/DTD/svg11.dtd">
<svg xmlns="http://www.w3.org/2000/svg" xmlns:xlink="http://www.w3.org/1999/xlink" version="1.1" baseProfile="full" width="24" height="24" viewBox="0 0 24.00 24.00" enable-background="new 0 0 24.00 24.00" xml:space="preserve">
	<path fill="#000000" fill-opacity="1" stroke-width="1.33333" stroke-linejoin="miter" d="M 19.7895,15.4077C 20.7378,13.2385 20.7368,10.7543 19.7866,8.58577L 17.0546,9.8276C 17.6472,11.2089 17.6476,12.7836 17.056,14.1652L 19.7895,15.4077 Z M 15.4173,4.21472C 13.2477,3.26304 10.7618,3.26177 8.59138,4.21091L 9.83248,6.94133C 11.2161,6.34892 12.7933,6.35032 14.176,6.94552L 15.4173,4.21472 Z M 4.2143,8.58362C 3.26189,10.7556 3.2619,13.2445 4.21434,15.4165L 6.94673,14.1745C 6.35075,12.7897 6.35028,11.21 6.9453,9.82498L 4.2143,8.58362 Z M 8.59322,19.7899C 10.7648,20.7389 13.252,20.7367 15.4221,19.7832L 14.1794,17.0492C 12.7969,17.6453 11.2198,17.6477 9.83581,17.0562L 8.59322,19.7899 Z M 11.9994,1.99807C 17.5214,1.99807 21.9994,6.47507 21.9994,11.9981C 21.9994,17.5211 17.5214,21.9981 11.9994,21.9981C 6.4764,21.9981 1.99939,17.5211 1.99939,11.9981C 1.99939,6.47507 6.4764,1.99807 11.9994,1.99807 Z M 12,8C 9.79086,8 8,9.79086 8,12C 8,14.2091 9.79086,16 12,16C 14.2091,16 16,14.2091 16,12C 16,9.79086 14.2091,8 12,8 Z "/>
</svg>
