<?xml version="1.0" encoding="utf-8"?>
<!DOCTYPE svg PUBLIC "-//W3C//DTD SVG 1.1//EN" "http://www.w3.org/Graphics/SVG/1.1/DTD/svg11.dtd">
<svg xmlns="http://www.w3.org/2000/svg" xmlns:xlink="http://www.w3.org/1999/xlink" version="1.1" baseProfile="full" width="24" height="24" viewBox="0 0 24.00 24.00" enable-background="new 0 0 24.00 24.00" xml:space="preserve">
	<path fill="#000000" fill-opacity="1" stroke-width="1.33333" stroke-linejoin="miter" d="M 12,2C 9.76441,2 7.78098,3.0475 6.5,4.6758L 7.93359,6.1094C 8.84033,4.8372 10.3198,4 12,4C 14.76,4 17,6.24 17,9C 17,10.6822 16.1639,12.1596 14.8887,13.0645L 16.3145,14.4902C 17.9419,13.2057 19,11.2355 19,9C 19,5.13 15.87,2 12,2 Z M 3.27734,4L 2,5.2676L 5.03516,8.3027C 5.01261,8.532 5,8.7647 5,9C 5,11.38 6.19,13.4702 8,14.7402L 8,17C 8,17.55 8.45,18 9,18L 14.7324,18L 18.7324,22L 20,20.7227L 3.27734,4 Z M 7.23047,10.498L 12.7324,16L 10,16L 10,13.5801C 8.68083,13.0062 7.66409,11.882 7.23047,10.498 Z M 9,20L 9,21C 9,21.55 9.45,22 10,22L 14,22C 14.55,22 15,21.55 15,21L 15,20L 9,20 Z "/>
</svg>
