<?xml version="1.0" encoding="utf-8"?>
<!DOCTYPE svg PUBLIC "-//W3C//DTD SVG 1.1//EN" "http://www.w3.org/Graphics/SVG/1.1/DTD/svg11.dtd">
<svg xmlns="http://www.w3.org/2000/svg" xmlns:xlink="http://www.w3.org/1999/xlink" version="1.1" baseProfile="full" width="24" height="24" viewBox="0 0 24.00 24.00" enable-background="new 0 0 24.00 24.00" xml:space="preserve">
	<path fill="#000000" fill-opacity="1" stroke-width="1.33333" stroke-linejoin="miter" d="M 1,10L 1,2L 10,5L 10,7L 1,10 Z M 8,10L 8,8L 13,8L 13,4L 8,4L 8,3L 12,1L 16,3L 16,4L 15,4L 15,8L 16,8L 16,10L 14.7425,10L 8.44021,13.6386L 9,10L 8,10 Z M 7,23L 7.03723,22.758L 16.1531,17.495L 16.6745,20.8845L 13.0104,23L 7,23 Z M 8.05029,16.1731L 15.3053,11.9845L 15.8268,15.374L 7.42715,20.2235L 8.05029,16.1731 Z "/>
</svg>
