<?xml version="1.0" encoding="utf-8"?>
<!DOCTYPE svg PUBLIC "-//W3C//DTD SVG 1.1//EN" "http://www.w3.org/Graphics/SVG/1.1/DTD/svg11.dtd">
<svg xmlns="http://www.w3.org/2000/svg" xmlns:xlink="http://www.w3.org/1999/xlink" version="1.1" baseProfile="full" width="24" height="24" viewBox="0 0 24.00 24.00" enable-background="new 0 0 24.00 24.00" xml:space="preserve">
	<path fill="#000000" fill-opacity="1" stroke-width="1.33333" stroke-linejoin="miter" d="M 7,1C 5.89543,1 5,1.8954 5,3L 5,21C 5,22.1046 5.89543,23 7,23L 17,23C 18.1046,23 19,22.1046 19,21L 19,3C 19,1.8954 18.1046,1 17,1L 7,1 Z M 7,3L 17,3L 17,21L 7,21L 7,3 Z M 9,6L 9,18L 15,18L 15,6L 9,6 Z M 10,7L 14,7L 14,11L 10,11L 10,7 Z M 10,13L 14,13L 14,17L 10,17L 10,13 Z "/>
</svg>
