<?xml version="1.0" encoding="utf-8"?>
<!DOCTYPE svg PUBLIC "-//W3C//DTD SVG 1.1//EN" "http://www.w3.org/Graphics/SVG/1.1/DTD/svg11.dtd">
<svg xmlns="http://www.w3.org/2000/svg" xmlns:xlink="http://www.w3.org/1999/xlink" version="1.1" baseProfile="full" width="24" height="24" viewBox="0 0 24.00 24.00" enable-background="new 0 0 24.00 24.00" xml:space="preserve">
	<path fill="#000000" fill-opacity="1" stroke-width="1.33333" stroke-linejoin="miter" d="M 19,3L 5,3C 3.9,3 3,3.9 3,5L 3,19C 3,20.1 3.9,21 5,21L 19,21C 20.1,21 21,20.1 21,19L 21,5C 21,3.9 20.1,3 19,3 Z M 19,19L 5,19L 5,5L 19,5L 19,19 Z M 11,16L 10,16C 8.392,16 6,14.935 6,12C 6,9.065 8.392,8 10,8L 11,8L 11,10L 10,10C 9.537,10.007 8,10.173 8,12C 8,13.903 9.666,14 10,14L 11,14L 11,16 Z M 14,16L 13,16L 13,14L 14,14C 14.464,13.992 16,13.826 16,12C 16,10.096 14.334,10 14,10L 13,10L 13,8L 14,8C 15.607,8 18,9.065 18,12C 18,14.935 15.607,16 14,16 Z M 15,13L 9,13L 9,11L 15,11L 15,13 Z "/>
</svg>
