<?xml version="1.0" encoding="utf-8"?>
<!DOCTYPE svg PUBLIC "-//W3C//DTD SVG 1.1//EN" "http://www.w3.org/Graphics/SVG/1.1/DTD/svg11.dtd">
<svg xmlns="http://www.w3.org/2000/svg" xmlns:xlink="http://www.w3.org/1999/xlink" version="1.1" baseProfile="full" width="24" height="24" viewBox="0 0 24.00 24.00" enable-background="new 0 0 24.00 24.00" xml:space="preserve">
	<path fill="#000000" fill-opacity="1" stroke-width="0.2" stroke-linejoin="miter" d="M 19,3L 5,3C 3.9,3 3,3.9 3,5L 3,19C 3,20.1 3.9,21 5,21L 19,21C 20.1,21 21,20.1 21,19L 21,5C 21,3.9 20.1,3 19,3 Z M 19,19L 5,19L 5,5L 19,5L 19,19 Z M 13.936,10.063C 14.571,10.697 14.919,11.541 14.919,12.438C 14.919,13.336 14.57,14.18 13.936,14.814L 11.734,17.016C 11.079,17.671 10.219,17.998 9.359,17.998C 8.499,17.998 7.638,17.671 6.983,17.016C 5.673,15.706 5.673,13.575 6.983,12.264L 8.345,10.904L 8.337,11.518C 8.331,12.008 8.41,12.487 8.571,12.942L 8.624,13.091L 8.22,13.496C 7.912,13.802 7.74301,14.207 7.74301,14.638C 7.74301,15.069 7.912,15.474 8.219,15.779C 8.832,16.398 9.894,16.396 10.503,15.781L 12.7,13.585C 13.009,13.279 13.178,12.874 13.178,12.443C 13.178,12.011 13.009,11.606 12.701,11.301C 12.531,11.139 12.435,10.918 12.435,10.682C 12.435,10.446 12.53,10.226 12.702,10.061C 13.031,9.733 13.609,9.735 13.936,10.063 Z M 17.999,9.36C 17.999,10.258 17.65,11.102 17.016,11.735L 15.655,13.096L 15.663,12.482C 15.67,11.992 15.591,11.515 15.43,11.064L 15.377,10.917L 15.778,10.507C 16.089,10.199 16.2568,9.794 16.2568,9.363C 16.2568,8.932 16.088,8.527 15.78,8.222C 15.166,7.603 14.104,7.606 13.496,8.22L 11.299,10.417C 10.991,10.723 10.822,11.128 10.822,11.559C 10.822,11.99 10.99,12.394 11.297,12.699C 11.469,12.864 11.564,13.084 11.564,13.32C 11.564,13.556 11.469,13.777 11.295,13.942C 11.128,14.11 10.905,14.194 10.683,14.194C 10.459,14.194 10.234,14.109 10.063,13.938C 8.753,12.628 8.753,10.497 10.063,9.187L 12.265,6.985C 13.577,5.67383 15.706,5.676 17.016,6.985C 17.65,7.617 17.999,8.461 17.999,9.36 Z "/>
</svg>
