<?xml version="1.0" encoding="utf-8"?>
<!DOCTYPE svg PUBLIC "-//W3C//DTD SVG 1.1//EN" "http://www.w3.org/Graphics/SVG/1.1/DTD/svg11.dtd">
<svg xmlns="http://www.w3.org/2000/svg" xmlns:xlink="http://www.w3.org/1999/xlink" version="1.1" baseProfile="full" width="24" height="24" viewBox="0 0 24.00 24.00" enable-background="new 0 0 24.00 24.00" xml:space="preserve">
	<path fill="#000000" fill-opacity="1" stroke-width="1.33333" stroke-linejoin="miter" d="M 6.99999,7.00001L 11,7.00001L 11,9L 7,9C 5.34314,9 4,10.3432 4,12C 4,13.6569 5.34314,15 7,15L 11,15L 11,17L 6.99999,17C 4.23857,17 2,14.7614 2,12C 2,9.23859 4.23857,7.00001 6.99999,7.00001 Z M 17,7.00002C 19.7614,7.00002 22,9.2386 22,12L 20,12C 20,10.3432 18.6568,9.00001 17,9.00001L 13,9.00001L 13,7.00002L 17,7.00002 Z M 8,11L 16,11L 16,13L 8,13L 8,11 Z M 17,12L 19,12L 19,15L 22,15L 22,17L 19,17L 19,20L 17,20L 17,17L 14,17L 14,15L 17,15L 17,12 Z "/>
</svg>
