<?xml version="1.0" encoding="utf-8"?>
<!DOCTYPE svg PUBLIC "-//W3C//DTD SVG 1.1//EN" "http://www.w3.org/Graphics/SVG/1.1/DTD/svg11.dtd">
<svg xmlns="http://www.w3.org/2000/svg" xmlns:xlink="http://www.w3.org/1999/xlink" version="1.1" baseProfile="full" width="24" height="24" viewBox="0 0 24.00 24.00" enable-background="new 0 0 24.00 24.00" xml:space="preserve">
	<path fill="#000000" fill-opacity="1" stroke-width="1.33333" stroke-linejoin="miter" d="M 17,7L 13,7L 13,8.9L 17,8.9C 18.71,8.9 20.1,10.29 20.1,12C 20.1,13.43 19.12,14.63 17.79,14.98L 19.25,16.44C 20.88,15.61 22,13.95 22,12C 22,9.24 19.76,7 17,7 Z M 16,11L 13.81,11L 15.81,13L 16,13L 16,11 Z M 2,4.27L 5.11,7.38C 3.29,8.12 2,9.91 2,12C 2,14.76 4.24,17 7,17L 11,17L 11,15.1L 7,15.1C 5.29,15.1 3.9,13.71 3.9,12C 3.9,10.41 5.11,9.1 6.66,8.93L 8.73,11L 8,11L 8,13L 10.73,13L 13,15.27L 13,17L 14.73,17L 18.74,21L 20,19.74L 3.27,3L 2,4.27 Z "/>
</svg>
