<?xml version="1.0" encoding="utf-8"?>
<!DOCTYPE svg PUBLIC "-//W3C//DTD SVG 1.1//EN" "http://www.w3.org/Graphics/SVG/1.1/DTD/svg11.dtd">
<svg xmlns="http://www.w3.org/2000/svg" xmlns:xlink="http://www.w3.org/1999/xlink" version="1.1" baseProfile="full" width="24" height="24" viewBox="0 0 24.00 24.00" enable-background="new 0 0 24.00 24.00" xml:space="preserve">
	<path fill="#000000" fill-opacity="1" stroke-width="0.2" stroke-linejoin="round" d="M 15.9995,5.99817L 12.9995,5.99817L 12.9995,7.89813L 15.9995,7.89813C 18.2635,7.89813 20.0995,9.73413 20.0995,11.9982C 20.0995,14.2621 18.2635,16.0981 15.9995,16.0981L 12.9995,16.0981L 12.9995,17.9982L 15.9995,17.9982C 19.3145,17.9982 21.9995,15.3121 21.9995,11.9982C 21.9995,8.68414 19.3145,5.99817 15.9995,5.99817 Z M 3.89948,11.9982C 3.89948,9.73413 5.7355,7.89813 7.99948,7.89813L 10.9995,7.89813L 10.9995,5.99817L 7.99948,5.99817C 4.68649,5.99817 1.99948,8.68414 1.99948,11.9982C 1.99948,15.3121 4.68649,17.9982 7.99948,17.9982L 10.9995,17.9982L 10.9995,16.0981L 7.99948,16.0981C 5.7355,16.0981 3.89948,14.2621 3.89948,11.9982 Z M 7.99948,12.9982L 15.9995,12.9982L 15.9995,10.9982L 7.99948,10.9982L 7.99948,12.9982 Z "/>
</svg>
