<?xml version="1.0" encoding="utf-8"?>
<!DOCTYPE svg PUBLIC "-//W3C//DTD SVG 1.1//EN" "http://www.w3.org/Graphics/SVG/1.1/DTD/svg11.dtd">
<svg xmlns="http://www.w3.org/2000/svg" xmlns:xlink="http://www.w3.org/1999/xlink" version="1.1" baseProfile="full" width="24" height="24" viewBox="0 0 24.00 24.00" enable-background="new 0 0 24.00 24.00" xml:space="preserve">
	<path fill="#000000" fill-opacity="1" stroke-width="1.33333" stroke-linejoin="miter" d="M 3.9,12C 3.9,10.29 5.29,8.9 7,8.9L 11,8.9L 11,7L 7,7C 4.24,7 2,9.24 2,12C 2,14.76 4.24,17 7,17L 11,17L 11,15.1L 7,15.1C 5.29,15.1 3.9,13.71 3.9,12 Z M 8,13L 16,13L 16,11L 8,11L 8,13 Z M 17,7L 13,7L 13,8.9L 17,8.9C 18.71,8.9 20.1,10.29 20.1,12C 20.1,13.71 18.71,15.1 17,15.1L 13,15.1L 13,17L 17,17C 19.76,17 22,14.76 22,12C 22,9.24 19.76,7 17,7 Z "/>
</svg>
