<?xml version="1.0" encoding="utf-8"?>
<!DOCTYPE svg PUBLIC "-//W3C//DTD SVG 1.1//EN" "http://www.w3.org/Graphics/SVG/1.1/DTD/svg11.dtd">
<svg xmlns="http://www.w3.org/2000/svg" xmlns:xlink="http://www.w3.org/1999/xlink" version="1.1" baseProfile="full" width="24" height="24" viewBox="0 0 24.00 24.00" enable-background="new 0 0 24.00 24.00" xml:space="preserve">
	<path fill="#000000" fill-opacity="1" stroke-width="1.33333" stroke-linejoin="miter" d="M 2,3.2261L 2,6.7955L 3.52388,6.7955C 4.58757,6.7955 4.77551,7.5297 4.77551,8.5461L 4.78341,14.8563C 4.78341,18.1246 7.64959,20.7739 11.182,20.7739L 19.9035,20.7739C 21.0216,20.7739 22,20.0658 22,18.9776L 22,9.195C 22,5.9268 19.1338,3.2773 15.5975,3.2773L 11.9271,3.2773L 11.9271,3.2694L 2.00005,3.2261L 2,3.2261 Z M 6.62082,5.4595L 8.37313,5.4595L 8.37313,14.449C 8.37313,15.6516 9.19433,16.5875 10.1558,16.5875L 16.1313,16.6109C 17.3771,16.6109 18.3469,15.7528 18.3469,14.7345L 18.3368,9.9606C 18.3368,9.6508 18.2358,9.4086 18.0146,9.1852C 17.7927,8.961 17.5576,8.8596 17.2525,8.8596C 16.9409,8.8596 16.7095,8.9605 16.4871,9.1852C 16.2659,9.4086 16.1649,9.6508 16.1649,9.9606L 16.1649,14.0462L 14.3117,14.0462L 14.3117,9.9606C 14.3117,9.6508 14.2107,9.4086 13.9895,9.1852C 13.7671,8.9605 13.5356,8.8596 13.2241,8.8596C 12.9189,8.8596 12.6839,8.961 12.462,9.1852C 12.2408,9.4086 12.1398,9.6508 12.1398,9.9606L 12.1398,14.0462L 10.2866,14.0462L 10.2866,9.9606C 10.2866,9.1524 10.5848,8.4362 11.1527,7.8625C 11.7209,7.2885 12.4282,6.9931 13.2241,6.9931C 14.005,6.9931 14.6838,7.2845 15.235,7.8156C 15.7877,7.2836 16.4712,6.9931 17.2525,6.9931C 18.0484,6.9931 18.7555,7.2885 19.3237,7.8625C 19.8916,8.4362 20.1898,9.1524 20.1898,9.9606L 20.1968,15.06C 20.1092,15.9139 19.7489,16.6727 19.1326,17.3059L 19.1291,17.3059C 18.4044,18.0436 17.5062,18.4238 16.4838,18.4238L 9.8301,18.4238C 9.01576,18.3367 8.29099,17.951 7.68833,17.3562C 6.98325,16.6538 6.62083,15.7853 6.62083,14.7948L 6.62083,5.4595L 6.62082,5.4595 Z "/>
</svg>
