<?xml version="1.0" encoding="utf-8"?>
<!DOCTYPE svg PUBLIC "-//W3C//DTD SVG 1.1//EN" "http://www.w3.org/Graphics/SVG/1.1/DTD/svg11.dtd">
<svg xmlns="http://www.w3.org/2000/svg" xmlns:xlink="http://www.w3.org/1999/xlink" version="1.1" baseProfile="full" width="24" height="24" viewBox="0 0 24.00 24.00" enable-background="new 0 0 24.00 24.00" xml:space="preserve">
	<path fill="#000000" fill-opacity="1" stroke-width="1.33333" stroke-linejoin="miter" d="M 14.6237,8.351C 14.2028,8.6273 12.8736,9.3853 12.6742,9.541C 12.2761,9.8514 11.9185,9.8301 11.5288,9.5285C 11.3283,9.3733 9.99915,8.6141 9.57789,8.3382C 9.1014,8.0261 9.13016,7.6432 9.66248,7.4192C 11.2995,6.7307 12.9409,6.7802 14.567,7.4541C 15.061,7.6587 15.0778,8.053 14.6237,8.351M 21.84,15.6321C 20.9094,13.5355 19.6396,11.639 18.0142,9.974C 17.4713,9.418 17.1434,8.7977 16.9394,8.0934C 16.8426,7.7598 16.7734,7.4187 16.701,7.0792C 16.5138,6.2002 16.4054,5.3016 16.0153,4.4722C 15.2732,2.8946 13.9903,2.0722 12.1647,2C 10.3459,2.0507 9.00328,2.8141 8.20953,4.3966C 7.99457,4.8252 7.84838,5.2771 7.74727,5.7413C 7.57939,6.5124 7.42633,7.2866 7.24859,8.0557C 7.09733,8.7103 6.80067,9.2737 6.28706,9.7747C 4.67836,11.3438 3.3927,13.1372 2.41186,15.1228C 2.27124,15.4074 2.12814,15.6969 2.04186,15.9985C 1.85178,16.6628 2.33105,17.1204 3.03434,16.9648C 3.47013,16.8683 3.91099,16.7814 4.33374,16.6458C 4.73579,16.5169 4.8986,16.5952 5.0206,17.0091C 5.65144,19.1496 7.06857,20.6629 9.23555,21.4902C 13.3582,23.0639 18.1669,20.8418 19.2065,16.9195C 19.2775,16.6515 19.3767,16.5534 19.6834,16.6464C 20.1405,16.785 20.6108,16.888 21.0801,16.9858C 21.5721,17.0884 21.925,16.8366 21.9913,16.3643C 22.0279,16.1031 21.944,15.8667 21.84,15.6321"/>
</svg>
