<?xml version="1.0" encoding="utf-8"?>
<!DOCTYPE svg PUBLIC "-//W3C//DTD SVG 1.1//EN" "http://www.w3.org/Graphics/SVG/1.1/DTD/svg11.dtd">
<svg xmlns="http://www.w3.org/2000/svg" xmlns:xlink="http://www.w3.org/1999/xlink" version="1.1" baseProfile="full" width="24" height="24" viewBox="0 0 24.00 24.00" enable-background="new 0 0 24.00 24.00" xml:space="preserve">
	<path fill="#000000" fill-opacity="1" stroke-width="1.33333" stroke-linejoin="miter" d="M 12.55,15.92L 13.16,13.78L 14.81,13.19L 16.25,7.63L 14.56,8.31L 16.25,2L 8,2L 5.38,11.77L 3.72,12.34L 2.22,17.91L 4,17.27L 2.66,22L 20.16,22L 21.78,15.92L 12.55,15.92 Z M 19.39,21L 4,21L 5.46,15.65L 3.72,16.3L 4.58,13.11L 6.24,12.54L 8.74,3L 15,3L 13.13,10L 14.83,9.3L 14,12.42L 12.33,13L 11.22,16.91L 20.48,16.91L 19.39,21 Z "/>
</svg>
