<?xml version="1.0" encoding="utf-8"?>
<!DOCTYPE svg PUBLIC "-//W3C//DTD SVG 1.1//EN" "http://www.w3.org/Graphics/SVG/1.1/DTD/svg11.dtd">
<svg xmlns="http://www.w3.org/2000/svg" xmlns:xlink="http://www.w3.org/1999/xlink" version="1.1" baseProfile="full" width="24" height="24" viewBox="0 0 24.00 24.00" enable-background="new 0 0 24.00 24.00" xml:space="preserve">
	<path fill="#000000" fill-opacity="1" stroke-width="1.33333" stroke-linejoin="miter" d="M 12,2C 8.68629,2 6,4.6863 6,8L 6,16C 6,19.3137 8.68629,22 12,22C 15.3137,22 18,19.3137 18,16L 18,8C 18,4.6863 15.3137,2 12,2 Z M 8,6L 10,6L 10,8L 8,8L 8,6 Z M 11,6L 13,6L 13,8L 11,8L 11,6 Z M 14,6L 16,6L 16,8L 14,8L 14,6 Z M 8,9L 10,9L 10,11L 8,11L 8,9 Z M 11,9L 13,9L 13,11L 11,11L 11,9 Z M 14,9L 16,9L 16,11L 14,11L 14,9 Z M 8,12L 10,12L 10,14L 8,14L 8,12 Z M 11,12L 13,12L 13,14L 11,14L 11,12 Z M 14,12L 16,12L 16,14L 14,14L 14,12 Z M 12,16C 13.1046,16 14,16.8954 14,18C 14,19.1046 13.1046,20 12,20C 10.8954,20 10,19.1046 10,18C 10,16.8954 10.8954,16 12,16 Z "/>
</svg>
