<?xml version="1.0" encoding="utf-8"?>
<!DOCTYPE svg PUBLIC "-//W3C//DTD SVG 1.1//EN" "http://www.w3.org/Graphics/SVG/1.1/DTD/svg11.dtd">
<svg xmlns="http://www.w3.org/2000/svg" xmlns:xlink="http://www.w3.org/1999/xlink" version="1.1" baseProfile="full" width="24" height="24" viewBox="0 0 24.00 24.00" enable-background="new 0 0 24.00 24.00" xml:space="preserve">
	<path fill="#000000" fill-opacity="1" stroke-width="0.2" stroke-linejoin="round" d="M 18,19.9999L 18,9.99992L 6,9.99992L 6,19.9999L 18,19.9999 Z M 18,7.99992C 19.104,7.99992 20,8.89592 20,9.99992L 20,19.9999C 20,21.1039 19.104,21.9999 18,21.9999L 6,21.9999C 4.895,21.9999 4,21.1039 4,19.9999L 4,9.99992C 4,8.89592 4.895,7.99992 6,7.99992L 15,8L 15,6C 15,4.34315 13.6569,3 12,3C 10.3431,3 9,4.34315 9,6L 7,5.99992C 7,3.23894 9.23899,0.999924 12,0.999924C 14.761,0.999924 17,3.23894 17,5.99992L 17,7.99992L 18,7.99992 Z M 12,16.9999C 10.895,16.9999 10,16.1039 10,14.9999C 10,13.8959 10.895,12.9999 12,12.9999C 13.104,12.9999 14,13.8959 14,14.9999C 14,16.1039 13.104,16.9999 12,16.9999 Z "/>
</svg>
