<?xml version="1.0" encoding="utf-8"?>
<!DOCTYPE svg PUBLIC "-//W3C//DTD SVG 1.1//EN" "http://www.w3.org/Graphics/SVG/1.1/DTD/svg11.dtd">
<svg xmlns="http://www.w3.org/2000/svg" xmlns:xlink="http://www.w3.org/1999/xlink" version="1.1" baseProfile="full" width="24" height="24" viewBox="0 0 24.00 24.00" enable-background="new 0 0 24.00 24.00" xml:space="preserve">
	<path fill="#000000" fill-opacity="1" stroke-width="1.33333" stroke-linejoin="miter" d="M 18,8L 17,8L 17,6C 17,3.24 14.76,1 12,1C 9.24,1 7,3.24 7,6L 7,8L 6,8C 4.9,8 4,8.9 4,10L 4,20C 4,21.1 4.9,22 6,22L 18,22C 19.1,22 20,21.1 20,20L 20,10C 20,8.9 19.1,8 18,8 Z M 8.9,6C 8.9,4.29 10.29,2.9 12,2.9C 13.71,2.9 15.1,4.29 15.1,6L 15.1,8L 8.9,8L 8.9,6 Z M 16,16L 13,16L 13,19L 11,19L 11,16L 8,16L 8,14L 11,14L 11,11L 13,11L 13,14L 16,14L 16,16 Z "/>
</svg>
