<?xml version="1.0" encoding="utf-8"?>
<!DOCTYPE svg PUBLIC "-//W3C//DTD SVG 1.1//EN" "http://www.w3.org/Graphics/SVG/1.1/DTD/svg11.dtd">
<svg xmlns="http://www.w3.org/2000/svg" xmlns:xlink="http://www.w3.org/1999/xlink" version="1.1" baseProfile="full" width="24" height="24" viewBox="0 0 24.00 24.00" enable-background="new 0 0 24.00 24.00" xml:space="preserve">
	<path fill="#000000" fill-opacity="1" stroke-width="1.33333" stroke-linejoin="miter" d="M 12,1C 9.24,1 7,3.24 7,6L 7,8L 6,8C 4.9,8 4,8.9 4,10L 4,20C 4,21.1 4.9,22 6,22L 18,22C 19.1,22 20,21.1 20,20L 20,10C 20,8.9 19.1,8 18,8L 17,8L 17,6C 17,3.24 14.76,1 12,1 Z M 12,2.9004C 13.71,2.9004 15.0996,4.29 15.0996,6L 15.0996,8L 8.90039,8L 8.90039,6C 8.90039,4.29 10.29,2.9004 12,2.9004 Z M 12.1855,10.498C 13.1319,10.498 13.8752,10.7061 14.416,11.1211C 14.9608,11.5361 15.2324,12.0972 15.2324,12.8027C 15.2324,13.2351 15.0834,13.6329 14.7852,13.9961C 14.4909,14.3592 14.1155,14.644 13.6582,14.8516C 13.4037,14.9968 13.2301,15.1547 13.1387,15.3242C 13.0512,15.4902 13.0078,15.7168 13.0078,16.0039L 10.9922,16.0039C 10.9962,15.5231 11.0962,15.1601 11.291,14.918C 11.4859,14.6759 11.8405,14.3987 12.3574,14.084C 12.6238,13.9387 12.8333,13.7594 12.9844,13.5449C 13.1395,13.3305 13.2168,13.0829 13.2168,12.8027C 13.2168,12.5122 13.1282,12.2804 12.9492,12.1074C 12.7703,11.9345 12.5156,11.8477 12.1855,11.8477C 11.9191,11.8477 11.6965,11.9187 11.5176,12.0605C 11.3386,12.2024 11.2443,12.4132 11.2363,12.6934L 9.26953,12.6934C 9.22245,11.9844 9.51201,11.4027 10.0488,11.043C 10.5896,10.6798 11.3028,10.498 12.1855,10.498 Z M 11,17L 13,17L 13,19L 11,19L 11,17 Z "/>
</svg>
