<?xml version="1.0" encoding="utf-8"?>
<!DOCTYPE svg PUBLIC "-//W3C//DTD SVG 1.1//EN" "http://www.w3.org/Graphics/SVG/1.1/DTD/svg11.dtd">
<svg xmlns="http://www.w3.org/2000/svg" xmlns:xlink="http://www.w3.org/1999/xlink" version="1.1" baseProfile="full" width="24" height="24" viewBox="0 0 24.00 24.00" enable-background="new 0 0 24.00 24.00" xml:space="preserve">
	<path fill="#000000" fill-opacity="1" stroke-width="1.33333" stroke-linejoin="miter" d="M 12.634,2C 18.161,2 22.639,6.477 22.639,12C 22.639,17.523 18.16,22 12.634,22C 9.118,22 6.046,20.177 4.264,17.435L 5.839,16.182C 7.247,18.466 9.757,20 12.639,20C 17.059,20 20.639,16.418 20.639,12C 20.639,7.582 17.059,4 12.639,4C 8.559,4 5.201,7.055 4.709,11L 7.468,11L 3.733,14.733L 1.27157e-006,11L 2.69,11C 3.19,5.947 7.445,2 12.634,2 Z M 15.588,10.24C 16.092,10.246 16.5,10.654 16.5,11.16L 16.5,15.766C 16.5,16.275 16.088,16.688 15.579,16.688L 10.05,16.688C 9.541,16.688 9.129,16.275 9.129,15.766L 9.129,11.159C 9.129,10.654 9.537,10.246 10.04,10.24L 10.04,9.23C 10.04,7.7 11.285,6.456 12.814,6.456C 14.343,6.456 15.588,7.7 15.588,9.23L 15.588,10.24 Z M 12.814,7.856C 12.056,7.856 11.44,8.472 11.44,9.23L 11.44,10.239L 14.188,10.239L 14.188,9.23C 14.188,8.472 13.571,7.856 12.814,7.856 Z "/>
</svg>
