<?xml version="1.0" encoding="utf-8"?>
<!DOCTYPE svg PUBLIC "-//W3C//DTD SVG 1.1//EN" "http://www.w3.org/Graphics/SVG/1.1/DTD/svg11.dtd">
<svg xmlns="http://www.w3.org/2000/svg" xmlns:xlink="http://www.w3.org/1999/xlink" version="1.1" baseProfile="full" width="24" height="24" viewBox="0 0 24.00 24.00" enable-background="new 0 0 24.00 24.00" xml:space="preserve">
	<path fill="#000000" fill-opacity="1" stroke-width="0.333333" stroke-linejoin="miter" d="M 3,2L 21,2.00001C 22.1046,2.00001 23,2.89544 23,4.00001L 23,20C 23,21.1046 22.1046,22 21,22L 3,22C 1.89543,22 0.999999,21.1046 0.999999,20L 0.999999,4C 0.999999,2.89543 1.89543,2 3,2 Z M 13,4L 13,20L 21,20L 21,4.00001L 13,4 Z M 3,4.00001L 3,20L 11,20L 11,4.00001L 3,4.00001 Z M 5,13L 7,13L 7,17L 5,17L 5,13 Z M 5,6L 9,6L 8.99999,7.50001L 5,7.50001L 5,6 Z M 5,9L 9,9L 9,10.5L 5,10.5L 5,9 Z M 15,13L 17,13L 17,17L 15,17L 15,13 Z M 15,6.00001L 19,6.00001L 19,7.50001L 15,7.50001L 15,6.00001 Z M 15,9.00001L 19,9.00001L 19,10.5L 15,10.5L 15,9.00001 Z "/>
</svg>
