<?xml version="1.0" encoding="utf-8"?>
<!DOCTYPE svg PUBLIC "-//W3C//DTD SVG 1.1//EN" "http://www.w3.org/Graphics/SVG/1.1/DTD/svg11.dtd">
<svg xmlns="http://www.w3.org/2000/svg" xmlns:xlink="http://www.w3.org/1999/xlink" version="1.1" baseProfile="full" width="24" height="24" viewBox="0 0 24.00 24.00" enable-background="new 0 0 24.00 24.00" xml:space="preserve">
	<path fill="#050708" fill-opacity="1" stroke-width="0.2" stroke-linejoin="round" d="M 18.9994,2.99805L 4.99939,2.99805C 3.89439,2.99805 2.99939,3.89404 2.99939,4.99805L 2.99939,8.99805L 4.99939,8.99805L 4.99939,4.99805L 18.9994,4.99805L 18.9994,18.998L 4.99939,18.998L 4.99939,14.998L 2.99939,14.998L 2.99939,18.998C 2.99939,20.1021 3.89439,20.998 4.99939,20.998L 18.9994,20.998C 20.1034,20.998 20.9994,20.1021 20.9994,18.998L 20.9994,4.99805C 20.9994,3.89404 20.1034,2.99805 18.9994,2.99805 Z M 10.0844,15.584L 11.4994,16.998L 16.4994,11.998L 11.4994,6.99805L 10.0844,8.41205L 12.6704,10.998L 2.99939,10.998L 2.99939,12.998L 12.6704,12.998L 10.0844,15.584 Z "/>
</svg>
