<?xml version="1.0" encoding="utf-8"?>
<!DOCTYPE svg PUBLIC "-//W3C//DTD SVG 1.1//EN" "http://www.w3.org/Graphics/SVG/1.1/DTD/svg11.dtd">
<svg xmlns="http://www.w3.org/2000/svg" xmlns:xlink="http://www.w3.org/1999/xlink" version="1.1" baseProfile="full" width="24" height="24" viewBox="0 0 24.00 24.00" enable-background="new 0 0 24.00 24.00" xml:space="preserve">
	<path fill="#000000" fill-opacity="1" stroke-width="0.2" stroke-linejoin="round" d="M 10,17L 10,14L 3.00002,14L 3.00002,10L 10,10L 10,7L 15,12L 10,17 Z M 7,2.00001L 17,2.00002C 18.1046,2.00002 19,2.89544 19,4.00001L 19,20C 19,21.1046 18.1046,22 17,22L 7,22C 5.89543,22 5,21.1046 5,20L 5,16L 7,16L 7,20L 17,20L 17,4.00001L 7,4.00001L 7,8L 5,8L 5,4.00001C 5,2.89544 5.89543,2.00001 7,2.00001 Z "/>
</svg>
