<?xml version="1.0" encoding="utf-8"?>
<!DOCTYPE svg PUBLIC "-//W3C//DTD SVG 1.1//EN" "http://www.w3.org/Graphics/SVG/1.1/DTD/svg11.dtd">
<svg xmlns="http://www.w3.org/2000/svg" xmlns:xlink="http://www.w3.org/1999/xlink" version="1.1" baseProfile="full" width="24" height="24" viewBox="0 0 24.00 24.00" enable-background="new 0 0 24.00 24.00" xml:space="preserve">
	<path fill="#000000" fill-opacity="1" stroke-width="1.33333" stroke-linejoin="miter" d="M 10,17L 10,14L 3,14L 3,10L 10,10L 10,7L 15,12L 10,17 Z M 10,2L 19,2C 20.1,2 21,2.9 21,4L 21,20C 21,21.1 20.1,22 19,22L 10,22C 8.9,22 8,21.1 8,20L 8,18L 10,18L 10,20L 19,20L 19,4L 10,4L 10,6L 8,6L 8,4C 8,2.9 8.9,2 10,2 Z "/>
</svg>
