<?xml version="1.0" encoding="utf-8"?>
<!DOCTYPE svg PUBLIC "-//W3C//DTD SVG 1.1//EN" "http://www.w3.org/Graphics/SVG/1.1/DTD/svg11.dtd">
<svg xmlns="http://www.w3.org/2000/svg" xmlns:xlink="http://www.w3.org/1999/xlink" version="1.1" baseProfile="full" width="24" height="24" viewBox="0 0 24.00 24.00" enable-background="new 0 0 24.00 24.00" xml:space="preserve">
	<path fill="#000000" fill-opacity="1" stroke-width="1.33333" stroke-linejoin="miter" d="M 16,17L 16,14L 9,14L 9,10L 16,10L 16,7L 21,12L 16,17 Z M 14,2C 15.1,2 16,2.9 16,4L 16,6L 14,6L 14,4L 5,4L 5,20L 14,20L 14,18L 16,18L 16,20C 16,21.1 15.1,22 14,22L 5,22C 3.9,22 3,21.1 3,20L 3,4C 3,2.9 3.9,2 5,2L 14,2 Z "/>
</svg>
