<?xml version="1.0" encoding="utf-8"?>
<!DOCTYPE svg PUBLIC "-//W3C//DTD SVG 1.1//EN" "http://www.w3.org/Graphics/SVG/1.1/DTD/svg11.dtd">
<svg xmlns="http://www.w3.org/2000/svg" xmlns:xlink="http://www.w3.org/1999/xlink" version="1.1" baseProfile="full" width="24" height="24" viewBox="0 0 24.00 24.00" enable-background="new 0 0 24.00 24.00" xml:space="preserve">
	<path fill="#000000" fill-opacity="1" stroke-linejoin="round" d="M 12,6C 5.93,6 1,10.93 1,17L 3,17C 3,12.04 7.04,8 12,8C 16.96,8 21,12.04 21,17L 23,17C 23,10.93 18.07,6 12,6 Z M 12,10C 8.14,10 5,13.14 5,17L 7,17C 7,14.24 9.24,12 12,12C 14.76,12 17,14.24 17,17L 19,17C 19,13.14 15.86,10 12,10 Z "/>
</svg>
