<?xml version="1.0" encoding="utf-8"?>
<!DOCTYPE svg PUBLIC "-//W3C//DTD SVG 1.1//EN" "http://www.w3.org/Graphics/SVG/1.1/DTD/svg11.dtd">
<svg xmlns="http://www.w3.org/2000/svg" xmlns:xlink="http://www.w3.org/1999/xlink" version="1.1" baseProfile="full" width="24" height="24" viewBox="0 0 24.00 24.00" enable-background="new 0 0 24.00 24.00" xml:space="preserve">
	<path fill="#000000" fill-opacity="1" stroke-width="1.33333" stroke-linejoin="miter" d="M 9,14L 9,21L 2,21L 2,19L 5.57175,19C 3.97685,17.3007 3,15.0144 3,12.5C 3,7.2533 7.25329,3 12.5,3C 17.7467,3 22,7.2533 22,12.5C 22,17.7467 17.7467,22 12.5,22L 12,21.9871L 12,19.9836L 12.5,20C 16.6421,20 20,16.6421 20,12.5C 20,8.35787 16.6421,5 12.5,5C 8.35786,5 5,8.35787 5,12.5C 5,14.4691 5.75883,16.2609 7,17.5991L 7,14L 9,14 Z "/>
</svg>
