<?xml version="1.0" encoding="utf-8"?>
<!DOCTYPE svg PUBLIC "-//W3C//DTD SVG 1.1//EN" "http://www.w3.org/Graphics/SVG/1.1/DTD/svg11.dtd">
<svg xmlns="http://www.w3.org/2000/svg" xmlns:xlink="http://www.w3.org/1999/xlink" version="1.1" baseProfile="full" width="24" height="24" viewBox="0 0 24.00 24.00" enable-background="new 0 0 24.00 24.00" xml:space="preserve">
	<path fill="#000000" fill-opacity="1" stroke-width="1.33333" stroke-linejoin="miter" d="M 9.56,12.48C 9.56005,12.6032 9.50042,12.7187 9.4,12.79C 9.1951,12.9668 8.88569,12.944 8.70891,12.7391C 8.63013,12.6478 8.58779,12.5306 8.59,12.41L 8.59,8.51L 5.66,8.51L 5.66,13.39C 5.66,14.7376 6.75243,15.83 8.1,15.83C 8.68038,15.8292 9.24112,15.6198 9.68,15.24C 9.63643,15.6031 9.42554,15.925 9.11,16.11C 8.75444,16.3143 8.35,16.418 7.94,16.41C 7.46187,16.4078 6.99032,16.2984 6.56,16.09L 6.39,16L 6.39,18.6C 7.04207,18.8612 7.73758,18.9969 8.44,19C 9.46642,19.0153 10.464,18.6603 11.25,18C 12.0804,17.2535 12.535,16.1757 12.49,15.06L 12.49,8.51L 9.56,8.51L 9.56,12.48 Z M 4.93,13.39L 4.93,5.59L 2,5.59L 2,12.9C 1.83941,14.3492 2.884,15.6541 4.33316,15.8147C 4.40852,15.8231 4.4842,15.8282 4.56,15.83L 4.56,15.83C 4.92964,15.8267 5.29435,15.7449 5.63,15.59L 5.75,15.52L 5.65,15.41C 5.16932,14.8484 4.91292,14.129 4.93,13.39 Z M 22,11.39L 22,8.51L 21,8.51C 20.5884,6.3845 18.5316,4.9952 16.4062,5.4068C 16.1683,5.4529 15.9353,5.5209 15.71,5.61C 14.2803,6.2366 13.3305,7.6206 13.26,9.18L 13.26,15.83L 13.39,15.83C 14.9549,15.7554 16.1864,14.4667 16.19,12.9L 17.41,12.9L 17.41,10L 16.15,10L 16.15,9.17C 16.1487,8.8558 16.3169,8.5653 16.59,8.41C 17.0649,8.1281 17.6784,8.2845 17.9604,8.7595C 18.0469,8.9052 18.0949,9.0706 18.1,9.24L 18.1,11.93C 18.0666,14.047 19.753,15.7917 21.87,15.83L 22,15.83L 22,12.9L 22,12.9C 21.4477,12.9 21,12.4523 21,11.9L 21,11.41L 22,11.39 Z "/>
</svg>
