<?xml version="1.0" encoding="utf-8"?>
<!DOCTYPE svg PUBLIC "-//W3C//DTD SVG 1.1//EN" "http://www.w3.org/Graphics/SVG/1.1/DTD/svg11.dtd">
<svg xmlns="http://www.w3.org/2000/svg" xmlns:xlink="http://www.w3.org/1999/xlink" version="1.1" baseProfile="full" width="24" height="24" viewBox="0 0 24.00 24.00" enable-background="new 0 0 24.00 24.00" xml:space="preserve">
	<path fill="#000000" fill-opacity="1" stroke-width="0.2" stroke-linejoin="round" d="M 9,2C 12.866,2 16,5.13401 16,9C 16,10.5723 15.4816,12.0236 14.6064,13.1922L 15.4142,14L 16,14L 22,20L 20,22L 14,16L 14,15.4142L 13.1922,14.6064C 12.0236,15.4816 10.5723,16 9,16C 5.13401,16 2,12.866 2,9C 2,5.13401 5.13401,2 9,2 Z M 8,5.00001L 8,8.00001L 5,8.00001L 5,10L 8,10L 8,13L 10,13L 10,10L 13,10L 13,8.00001L 10,8.00001L 10,5.00001L 8,5.00001 Z "/>
</svg>
