<?xml version="1.0" encoding="utf-8"?>
<!DOCTYPE svg PUBLIC "-//W3C//DTD SVG 1.1//EN" "http://www.w3.org/Graphics/SVG/1.1/DTD/svg11.dtd">
<svg xmlns="http://www.w3.org/2000/svg" xmlns:xlink="http://www.w3.org/1999/xlink" version="1.1" baseProfile="full" width="24" height="24" viewBox="0 0 24.00 24.00" enable-background="new 0 0 24.00 24.00" xml:space="preserve">
	<path fill="#000000" fill-opacity="1" stroke-linejoin="round" d="M 20,4L 4,4C 2.89067,4 2,4.89067 2,6L 2,18C 2,19.104 2.896,20 4,20L 20,20C 21.104,20 22,19.104 22,18L 22,6C 22,4.89067 21.0987,4 20,4 Z M 17,17L 7,17L 7,15L 17,15M 17,13L 7,13L 7,11L 17,11M 20,9L 17,9L 17,6L 20,6"/>
</svg>
