<?xml version="1.0" encoding="utf-8"?>
<!DOCTYPE svg PUBLIC "-//W3C//DTD SVG 1.1//EN" "http://www.w3.org/Graphics/SVG/1.1/DTD/svg11.dtd">
<svg xmlns="http://www.w3.org/2000/svg" xmlns:xlink="http://www.w3.org/1999/xlink" version="1.1" baseProfile="full" width="24" height="24" viewBox="0 0 24.00 24.00" enable-background="new 0 0 24.00 24.00" xml:space="preserve">
	<path fill="#000000" fill-opacity="1" stroke-width="1.33333" stroke-linejoin="miter" d="M 5,9L 9,9L 9,11L 5,11L 5,9 Z M 22,9L 22,18C 22,19.1046 21.1046,20 20,20L 2,20L 2,9C 2,6.2386 4.23858,4 7,4L 17,4C 19.7614,4 22,6.2386 22,9 Z M 10,9C 10,7.3431 8.65685,6 7,6C 5.34315,6 4,7.3431 4,9L 4,18L 10,18L 10,9 Z M 16,7L 12,7L 12,13L 14,13L 14,9L 16,9L 16,7 Z "/>
</svg>
