<?xml version="1.0" encoding="utf-8"?>
<!DOCTYPE svg PUBLIC "-//W3C//DTD SVG 1.1//EN" "http://www.w3.org/Graphics/SVG/1.1/DTD/svg11.dtd">
<svg xmlns="http://www.w3.org/2000/svg" xmlns:xlink="http://www.w3.org/1999/xlink" version="1.1" baseProfile="full" width="24" height="24" viewBox="0 0 24.00 24.00" enable-background="new 0 0 24.00 24.00" xml:space="preserve">
	<path fill="#000000" fill-opacity="1" stroke-width="1.33333" stroke-linejoin="miter" d="M 8,4C 5.23858,4 3,6.2386 3,9L 3,18L 1,18L 1,20L 21,20C 22.1046,20 23,19.1046 23,18L 23,9C 23,6.2386 20.7614,4 18,4L 8,4 Z M 8,6C 9.65685,6 11,7.3431 11,9L 11,18L 5,18L 5,9C 5,7.3431 6.34315,6 8,6 Z M 14,11L 20,11L 20,15L 18,15L 18,13L 14,13L 14,11 Z "/>
</svg>
