<?xml version="1.0" encoding="utf-8"?>
<!DOCTYPE svg PUBLIC "-//W3C//DTD SVG 1.1//EN" "http://www.w3.org/Graphics/SVG/1.1/DTD/svg11.dtd">
<svg xmlns="http://www.w3.org/2000/svg" xmlns:xlink="http://www.w3.org/1999/xlink" version="1.1" baseProfile="full" width="24" height="24" viewBox="0 0 24.00 24.00" enable-background="new 0 0 24.00 24.00" xml:space="preserve">
	<path fill="#000000" fill-opacity="1" stroke-width="1.33333" stroke-linejoin="miter" d="M 14,12.8468L 14,6.84678L 18,6.84678L 18,8.84678L 16,8.84678L 16,12.8468L 14,12.8468 Z M 18,3.84678L 8.00002,3.84678C 5.2386,3.84678 3.00002,6.08538 3.00002,8.84678L 3.00002,17.8468L 1.00002,17.8468L 1.00002,19.8468L 21,19.8468C 22.1046,19.8468 23,18.9513 23,17.8468L 23,8.84678C 23,6.08538 20.7614,3.84678 18,3.84678 Z M 11,17.8468L 5.00002,17.8468L 5.00002,8.84678C 5.00002,7.18988 6.34317,5.84678 8.00002,5.84678C 9.65687,5.84678 11,7.18988 11,8.84678L 11,17.8468 Z M 21,17.8468L 13,17.8468L 13,8.84678C 13.0044,7.76418 12.653,6.71018 12,5.84678L 18,5.84678C 19.6569,5.84678 21,7.18988 21,8.84678L 21,17.8468 Z "/>
</svg>
