<?xml version="1.0" encoding="utf-8"?>
<!DOCTYPE svg PUBLIC "-//W3C//DTD SVG 1.1//EN" "http://www.w3.org/Graphics/SVG/1.1/DTD/svg11.dtd">
<svg xmlns="http://www.w3.org/2000/svg" xmlns:xlink="http://www.w3.org/1999/xlink" version="1.1" baseProfile="full" width="24" height="24" viewBox="0 0 24.00 24.00" enable-background="new 0 0 24.00 24.00" xml:space="preserve">
	<path fill="#000000" fill-opacity="1" stroke-linejoin="round" d="M 18.2493,21.9787L 15.5,18.9787L 16.6613,17.8227L 18.2493,19.412L 21.844,15.8227L 23,17.2293M 20.4947,3C 20.7707,3 20.9947,3.224 20.9947,3.5L 20.9947,13.36C 20.364,13.1307 19.692,13 18.9947,13C 17.464,13 16.0627,13.5987 14.9947,14.5627L 14.9947,7.09867L 8.99467,5L 8.99467,16.9013L 13.036,18.3027C 12.9947,18.5413 12.9947,18.7707 12.9947,19C 12.9947,19.4587 13.0573,19.9213 13.156,20.36L 8.99467,18.9013L 3.65601,20.9693C 3.59334,21 3.54667,21 3.49467,21C 3.21867,21 2.99467,20.776 2.99467,20.5L 2.99467,5.38C 2.99467,5.15067 3.15601,4.96933 3.35467,4.90133L 8.99467,3L 14.9947,5.09867L 20.3333,3"/>
</svg>
