<?xml version="1.0" encoding="utf-8"?>
<!DOCTYPE svg PUBLIC "-//W3C//DTD SVG 1.1//EN" "http://www.w3.org/Graphics/SVG/1.1/DTD/svg11.dtd">
<svg xmlns="http://www.w3.org/2000/svg" xmlns:xlink="http://www.w3.org/1999/xlink" version="1.1" baseProfile="full" width="24" height="24" viewBox="0 0 24.00 24.00" enable-background="new 0 0 24.00 24.00" xml:space="preserve">
	<path fill="#000000" fill-opacity="1" stroke-width="0.2" stroke-linejoin="round" d="M 16.3734,16.0998L 11.7464,11.4727L 11.6354,11.3617L 3.2714,2.99874L 1.9994,4.27175L 5.1774,7.44973C 5.0644,7.94771 4.9994,8.46474 4.9994,8.9977C 4.9994,14.2477 11.9994,21.9977 11.9994,21.9977C 11.9994,21.9977 13.6674,20.1467 15.3744,17.6467L 18.7264,20.9977L 19.9994,19.7248M 11.9994,6.4977C 13.3804,6.4977 14.4994,7.61776 14.4994,8.9977C 14.4994,9.7347 14.1744,10.3907 13.6674,10.8477L 17.2994,14.4798C 18.2764,12.6207 18.9994,10.6817 18.9994,8.9977C 18.9994,5.13173 15.8644,1.9977 11.9994,1.9977C 10.0204,1.9977 8.2364,2.82271 6.9634,4.14376L 10.1494,7.32973C 10.6064,6.82271 11.2631,6.4977 11.9994,6.4977 Z "/>
</svg>
