<?xml version="1.0" encoding="utf-8"?>
<!DOCTYPE svg PUBLIC "-//W3C//DTD SVG 1.1//EN" "http://www.w3.org/Graphics/SVG/1.1/DTD/svg11.dtd">
<svg xmlns="http://www.w3.org/2000/svg" xmlns:xlink="http://www.w3.org/1999/xlink" version="1.1" baseProfile="full" width="24" height="24" viewBox="0 0 24.00 24.00" enable-background="new 0 0 24.00 24.00" xml:space="preserve">
	<path fill="#000000" fill-opacity="1" stroke-width="1.33333" stroke-linejoin="miter" d="M 9,3L 3.35938,4.9004C 3.14937,4.9704 3,5.1509 3,5.3809L 3,20.5C 3,20.7761 3.22386,21 3.5,21L 3.66016,20.9707L 9,18.9004L 15,21L 20.6406,19.0996C 20.8506,19.0296 21,18.8491 21,18.6191L 21,3.5C 21,3.2239 20.7761,3 20.5,3L 20.3398,3.0293L 15,5.0996L 9,3 Z M 8,5.4492L 8,17.1504L 5,18.3105L 5,6.4609L 8,5.4492 Z M 10,5.4707L 14,6.8691L 14,18.5293L 10,17.1309L 10,5.4707 Z M 19,5.6992L 19,17.5391L 16,18.5508L 16,6.8594L 19,5.6992 Z M 7.45898,6.3047L 5.57031,6.9707L 5.57031,9.1172L 7.45898,8.4531L 7.45898,6.3047 Z M 7.45898,9.0547L 5.57031,9.7207L 5.57031,11.8672L 7.45898,11.2031L 7.45898,9.0547 Z M 7.45898,11.8047L 5.57031,12.4707L 5.57031,14.6172L 7.45898,13.9531L 7.45898,11.8047 Z M 7.45898,14.5547L 5.57031,15.2207L 5.57031,17.3672L 7.45898,16.7031L 7.45898,14.5547 Z "/>
</svg>
