<?xml version="1.0" encoding="utf-8"?>
<!DOCTYPE svg PUBLIC "-//W3C//DTD SVG 1.1//EN" "http://www.w3.org/Graphics/SVG/1.1/DTD/svg11.dtd">
<svg xmlns="http://www.w3.org/2000/svg" xmlns:xlink="http://www.w3.org/1999/xlink" version="1.1" baseProfile="full" width="24" height="24" viewBox="0 0 24.00 24.00" enable-background="new 0 0 24.00 24.00" xml:space="preserve">
	<path fill="#000000" fill-opacity="1" stroke-width="0.2" stroke-linejoin="round" d="M 12.0007,6.50187C 13.3814,6.50187 14.5007,7.62116 14.5007,9.00187C 14.5007,10.3826 13.3814,11.5019 12.0007,11.5019C 10.62,11.5019 9.50069,10.3826 9.50069,9.00187C 9.50069,7.62116 10.62,6.50187 12.0007,6.50187 Z M 12,2C 15.865,2 19,5.13395 19,9C 19,14.25 12,22 12,22C 12,22 5,14.25 5,9C 5,5.13395 8.13501,2 12,2 Z M 12.0007,4.00187C 9.23927,4.00187 7.00069,6.24045 7.00069,9.00187C 7.00069,9.98022 7,12 12,18.708C 17,12 17.0007,9.99656 17.0007,9.00187C 17.0007,6.24045 14.7621,4.00187 12.0007,4.00187 Z "/>
</svg>
