<?xml version="1.0" encoding="utf-8"?>
<!DOCTYPE svg PUBLIC "-//W3C//DTD SVG 1.1//EN" "http://www.w3.org/Graphics/SVG/1.1/DTD/svg11.dtd">
<svg xmlns="http://www.w3.org/2000/svg" xmlns:xlink="http://www.w3.org/1999/xlink" version="1.1" baseProfile="full" width="24" height="24" viewBox="0 0 24.00 24.00" enable-background="new 0 0 24.00 24.00" xml:space="preserve">
	<path fill="#000000" fill-opacity="1" stroke-width="3" stroke-linejoin="round" d="M 14,11.5C 15.381,11.5 16.5,10.381 16.5,9C 16.5,7.61902 15.381,6.5 14,6.5C 12.62,6.5 11.5,7.61902 11.5,9C 11.5,10.381 12.62,11.5 14,11.5 Z M 14,2C 17.865,2 21,5.13399 21,9C 21,14.25 14,22 14,22C 14,22 7,14.25 7,9C 7,5.13399 10.135,2 14,2 Z M 5,9.00001C 4.98437,13.4766 10.0781,19.6641 11.0063,20.8145L 10,22C 10,22 3.00001,14.25 3.00001,9C 3.00001,5.82806 5.11039,3.1489 8.00284,2.28914C 6.15994,3.93719 5,6.33314 5,9.00001 Z "/>
</svg>
