<?xml version="1.0" encoding="utf-8"?>
<!DOCTYPE svg PUBLIC "-//W3C//DTD SVG 1.1//EN" "http://www.w3.org/Graphics/SVG/1.1/DTD/svg11.dtd">
<svg xmlns="http://www.w3.org/2000/svg" xmlns:xlink="http://www.w3.org/1999/xlink" version="1.1" baseProfile="full" width="24" height="24" viewBox="0 0 24.00 24.00" enable-background="new 0 0 24.00 24.00" xml:space="preserve">
	<path fill="#000000" fill-opacity="1" stroke-width="0.2" stroke-linejoin="round" d="M 15.5,12C 17.9853,12 20,14.0147 20,16.5C 20,17.3826 19.7459,18.2059 19.3069,18.9006L 22.3906,21.9844L 20.9844,23.3906L 17.8763,20.3221C 17.1867,20.7518 16.3723,21 15.5,21C 13.0147,21 11,18.9853 11,16.5C 11,14.0147 13.0147,12 15.5,12 Z M 15.5,14C 14.1193,14 13,15.1193 13,16.5C 13,17.8807 14.1193,19 15.5,19C 16.8807,19 18,17.8807 18,16.5C 18,15.1193 16.8807,14 15.5,14 Z M 13.9994,6.10506L 7.99939,3.99807L 7.99939,15.8911L 9.00494,16.2442L 9,16.5C 9,17.1394 9.09231,17.7571 9.26433,18.3408L 7.99939,17.8981L 2.65641,19.9731L 2.49939,19.9981C 2.22339,19.9981 1.99939,19.7741 1.99939,19.4981L 1.99939,4.37608C 1.99939,4.14708 2.1524,3.96607 2.36239,3.89606L 7.99939,1.99807L 13.9994,4.09809L 19.3434,2.02306L 19.4994,1.99807C 19.7764,1.99807 19.9994,2.22108 19.9994,2.49807L 19.9994,11.809C 18.8316,10.6886 17.2462,10 15.5,10C 14.9835,10 14.4811,10.0602 13.9994,10.1741L 13.9994,6.10506 Z "/>
</svg>
