<?xml version="1.0" encoding="utf-8"?>
<!DOCTYPE svg PUBLIC "-//W3C//DTD SVG 1.1//EN" "http://www.w3.org/Graphics/SVG/1.1/DTD/svg11.dtd">
<svg xmlns="http://www.w3.org/2000/svg" xmlns:xlink="http://www.w3.org/1999/xlink" version="1.1" baseProfile="full" width="24" height="24" viewBox="0 0 24.00 24.00" enable-background="new 0 0 24.00 24.00" xml:space="preserve">
	<path fill="#000000" fill-opacity="1" stroke-width="0.2" stroke-linejoin="miter" d="M 18.2493,21.9787L 15.5,18.9787L 16.6613,17.8227L 18.2493,19.412L 21.844,15.8227L 23,17.2293L 18.2493,21.9787 Z M 20.4994,2.99807C 20.7794,2.99807 20.9994,3.21807 20.9994,3.49807L 20.9994,13.3412C 20.374,13.1202 19.701,13 18.9994,13L 18.9994,5.69807L 15.9994,6.85807L 15.9994,13.803C 15.1966,14.2676 14.5114,14.9128 13.9994,15.6831L 13.9994,6.86807L 9.99939,5.46807L 9.99939,17.1281L 13.0533,18.1969L 13,19C 13,19.4648 13.0529,19.9173 13.1529,20.3518L 8.99939,18.8981L 3.65939,20.9681L 3.49939,20.9981C 3.21939,20.9981 2.99939,20.7781 2.99939,20.4981L 2.99939,5.37807C 2.99939,5.14807 3.14939,4.96807 3.35939,4.89807L 8.99939,2.99807L 14.9994,5.09807L 20.3392,3.02807L 20.4994,2.99807 Z M 4.99939,6.45807L 4.99939,18.3081L 7.99939,17.1481L 7.99939,5.44807L 4.99939,6.45807 Z "/>
</svg>
