<?xml version="1.0" encoding="utf-8"?>
<!DOCTYPE svg PUBLIC "-//W3C//DTD SVG 1.1//EN" "http://www.w3.org/Graphics/SVG/1.1/DTD/svg11.dtd">
<svg xmlns="http://www.w3.org/2000/svg" xmlns:xlink="http://www.w3.org/1999/xlink" version="1.1" baseProfile="full" width="24" height="24" viewBox="0 0 24.00 24.00" enable-background="new 0 0 24.00 24.00" xml:space="preserve">
	<path fill="#000000" fill-opacity="1" stroke-width="0.2" stroke-linejoin="miter" d="M 18,15C 19.6569,15 21,16.3431 21,18C 21,19.6569 19.6569,21 18,21C 16.6938,21 15.5825,20.1652 15.1707,19L 14,19L 14,17L 15.1707,17C 15.5825,15.8348 16.6938,15 18,15 Z M 18,17C 17.4477,17 17,17.4477 17,18C 17,18.5523 17.4477,19 18,19C 18.5523,19 19,18.5523 19,18C 19,17.4477 18.5523,17 18,17 Z M 18,8C 18.7904,8 19.4311,7.35929 19.4311,6.56889C 19.4311,5.77849 18.7904,5.13778 18,5.13778C 17.2096,5.13778 16.5689,5.77849 16.5689,6.56889C 16.5689,7.35929 17.2096,8 18,8 Z M 18,2.5689C 20.2091,2.5689 22,4.35974 22,6.5689C 22,9.56445 18,14 18,14C 18,14 14,9.56445 14,6.5689C 14,4.35974 15.7908,2.5689 18,2.5689 Z M 8.82929,17L 10,17L 10,19L 8.82929,19C 8.41745,20.1652 7.30622,21 6,21C 4.34314,21 3,19.6569 3,18C 3,16.6938 3.83481,15.5825 5,15.1707L 5,14L 7,14L 7,15.1707C 7.85241,15.472 8.52801,16.1476 8.82929,17 Z M 6,17C 5.44771,17 5,17.4477 5,18C 5,18.5523 5.44771,19 6,19C 6.55228,19 7,18.5523 7,18C 7,17.4477 6.55228,17 6,17 Z M 6,3C 7.65685,3 9,4.34315 9,6C 9,7.30622 8.16519,8.41746 7,8.8293L 7,10L 5,10L 5,8.8293C 3.83481,8.41746 3,7.30622 3,6C 3,4.34315 4.34315,3 6,3 Z M 6,5C 5.44772,5 5,5.44772 5,6C 5,6.55229 5.44771,7 6,7C 6.55228,7 7,6.55229 7,6C 7,5.44772 6.55228,5 6,5 Z M 11,19L 11,17L 13,17L 13,19L 11,19 Z M 7,13L 5,13L 5,11L 7,11L 7,13 Z "/>
</svg>
