<?xml version="1.0" encoding="utf-8"?>
<!DOCTYPE svg PUBLIC "-//W3C//DTD SVG 1.1//EN" "http://www.w3.org/Graphics/SVG/1.1/DTD/svg11.dtd">
<svg xmlns="http://www.w3.org/2000/svg" xmlns:xlink="http://www.w3.org/1999/xlink" version="1.1" baseProfile="full" width="24" height="24" viewBox="0 0 24.00 24.00" enable-background="new 0 0 24.00 24.00" xml:space="preserve">
	<path fill="#000000" fill-opacity="1" stroke-width="0.2" stroke-linejoin="round" d="M 8.99931,11.4981C 10.3803,11.4981 11.4993,10.3791 11.4993,8.99813C 11.4993,7.61715 10.3803,6.49813 8.99931,6.49813C 7.61931,6.49813 6.49931,7.61715 6.49931,8.99813C 6.49931,10.3791 7.61931,11.4981 8.99931,11.4981 Z M 8.99931,1.99813C 12.8643,1.99813 15.9993,5.13208 15.9993,8.99813C 15.9993,14.2481 8.99931,21.9981 8.99931,21.9981C 8.99931,21.9981 1.99931,14.2481 1.99931,8.99813C 1.99931,5.13208 5.13432,1.99813 8.99931,1.99813 Z M 15,17L 23,17L 23,19L 15,19L 15,17 Z "/>
</svg>
