<?xml version="1.0" encoding="utf-8"?>
<!DOCTYPE svg PUBLIC "-//W3C//DTD SVG 1.1//EN" "http://www.w3.org/Graphics/SVG/1.1/DTD/svg11.dtd">
<svg xmlns="http://www.w3.org/2000/svg" xmlns:xlink="http://www.w3.org/1999/xlink" version="1.1" baseProfile="full" width="24" height="24" viewBox="0 0 24.00 24.00" enable-background="new 0 0 24.00 24.00" xml:space="preserve">
	<path fill="#000000" fill-opacity="1" stroke-width="1.33333" stroke-linejoin="miter" d="M 6.5,8.11C 5.61082,8.11 4.89,7.3892 4.89,6.5C 4.89,5.6108 5.61082,4.89 6.5,4.89C 7.38918,4.89 8.11,5.6108 8.11,6.5L 8.11,6.5C 8.11,7.3892 7.38918,8.11 6.5,8.11 Z M 6.5,2C 4.01472,2 2,4.0147 2,6.5C 2,9.87 6.5,14.86 6.5,14.86C 6.5,14.86 11,9.87 11,6.5C 11,4.0147 8.98528,2 6.5,2 Z M 17.5,8.11C 16.6108,8.11 15.89,7.3892 15.89,6.5C 15.89,5.6108 16.6108,4.89 17.5,4.89C 18.3892,4.89 19.11,5.6108 19.11,6.5C 19.11,7.3892 18.3892,8.11 17.5,8.11 Z M 17.5,2C 15.0147,2 13,4.0147 13,6.5C 13,9.87 17.5,14.86 17.5,14.86C 17.5,14.86 22,9.87 22,6.5C 22,4.0147 19.9853,2 17.5,2 Z M 17.5,16C 16.2317,16.0036 15.1027,16.8043 14.68,18L 9.32,18C 8.76771,16.4379 7.05367,15.6193 5.49157,16.1716C 3.92948,16.7239 3.11086,18.4379 3.66315,20C 4.21543,21.5621 5.92948,22.3807 7.49157,21.8284C 8.34591,21.5264 9.01795,20.8543 9.32,20L 14.69,20C 15.2423,21.5621 16.9563,22.3807 18.5184,21.8284C 20.0805,21.2761 20.8991,19.5621 20.3468,18C 19.922,16.7984 18.7844,15.9964 17.51,16L 17.5,16 Z M 17.5,20.5C 16.6716,20.5 16,19.8284 16,19C 16,18.1716 16.6716,17.5 17.5,17.5C 18.3284,17.5 19,18.1716 19,19C 19,19.8284 18.3284,20.5 17.5,20.5 Z "/>
</svg>
