<?xml version="1.0" encoding="utf-8"?>
<!DOCTYPE svg PUBLIC "-//W3C//DTD SVG 1.1//EN" "http://www.w3.org/Graphics/SVG/1.1/DTD/svg11.dtd">
<svg xmlns="http://www.w3.org/2000/svg" xmlns:xlink="http://www.w3.org/1999/xlink" version="1.1" baseProfile="full" width="24" height="24" viewBox="0 0 24.00 24.00" enable-background="new 0 0 24.00 24.00" xml:space="preserve">
	<path fill="#000000" fill-opacity="1" stroke-width="1.33333" stroke-linejoin="miter" d="M 20.4994,2.99807L 20.3394,3.02807L 14.9994,5.09807L 8.99939,2.99807L 3.35939,4.89807C 3.14939,4.96807 2.99939,5.14807 2.99939,5.37807L 2.99939,20.4981C 2.99939,20.7781 3.21939,20.9981 3.49939,20.9981L 3.65939,20.9681L 8.99939,18.8981L 14.9994,20.9981L 20.6394,19.0981C 20.8494,19.0281 20.9994,18.8481 20.9994,18.6181L 20.9994,3.49807C 20.9994,3.21807 20.7794,2.99807 20.4994,2.99807 Z M 9.99939,5.46807L 13.9994,6.86807L 13.9994,18.5281L 9.99939,17.1281L 9.99939,5.46807 Z M 4.99939,6.45807L 7.99939,5.44807L 7.99939,17.1481L 4.99939,18.3081L 4.99939,6.45807 Z M 18.9994,17.5381L 15.9994,18.5481L 15.9994,6.85807L 18.9994,5.69807L 18.9994,17.5381 Z "/>
</svg>
