<?xml version="1.0" encoding="utf-8"?>
<!DOCTYPE svg PUBLIC "-//W3C//DTD SVG 1.1//EN" "http://www.w3.org/Graphics/SVG/1.1/DTD/svg11.dtd">
<svg xmlns="http://www.w3.org/2000/svg" xmlns:xlink="http://www.w3.org/1999/xlink" version="1.1" baseProfile="full" width="24" height="24" viewBox="0 0 24.00 24.00" enable-background="new 0 0 24.00 24.00" xml:space="preserve">
	<path fill="#000000" fill-opacity="1" stroke-linejoin="round" d="M 12,1C 7.588,1 4,4.588 4,9C 4,14.568 10.9587,22.3387 11.26,22.672L 12,23.4893L 12.74,22.672C 13.0413,22.3387 20,14.568 20,9C 20,4.588 16.412,1 12,1 Z M 12,20.4693C 9.81733,17.86 6,12.5413 6,9C 6,5.688 8.688,3 12,3C 15.312,3 18,5.688 18,9C 18,12.828 13.7493,18.36 12,20.4693 Z M 11.1307,14L 12.88,14L 12.88,15.7493L 11.1307,15.7493M 12,5C 10.068,5 8.5,6.568 8.5,8.5L 10.2507,8.5C 10.2507,7.54133 11.0413,6.74933 12,6.74933C 12.9587,6.74933 13.7493,7.54133 13.7493,8.5C 13.7493,10.26 11.1307,10.0413 11.1307,12.88L 12.88,12.88C 12.88,10.912 15.5,10.688 15.5,8.5C 15.5,6.568 13.932,5 12,5 Z "/>
</svg>
