<?xml version="1.0" encoding="utf-8"?>
<!DOCTYPE svg PUBLIC "-//W3C//DTD SVG 1.1//EN" "http://www.w3.org/Graphics/SVG/1.1/DTD/svg11.dtd">
<svg xmlns="http://www.w3.org/2000/svg" xmlns:xlink="http://www.w3.org/1999/xlink" version="1.1" baseProfile="full" width="24" height="24" viewBox="0 0 24.00 24.00" enable-background="new 0 0 24.00 24.00" xml:space="preserve">
	<path fill="#000000" fill-opacity="1" stroke-width="0.2" stroke-linejoin="miter" d="M 15.4994,11.9981C 17.9847,11.9981 19.9994,14.0128 19.9994,16.4981C 19.9994,17.3807 19.7453,18.2039 19.3063,18.8987L 22.39,21.9824L 20.9838,23.3887L 17.8757,20.3202C 17.1861,20.7499 16.3717,20.9981 15.4994,20.9981C 13.0141,20.9981 10.9994,18.9833 10.9994,16.4981C 10.9994,14.0128 13.0141,11.9981 15.4994,11.9981 Z M 15.4994,13.9981C 14.1187,13.9981 12.9994,15.1174 12.9994,16.4981C 12.9994,17.8788 14.1187,18.9981 15.4994,18.9981C 16.8801,18.9981 17.9994,17.8788 17.9994,16.4981C 17.9994,15.1174 16.8801,13.9981 15.4994,13.9981 Z M 19.4994,1.99807C 19.7794,1.99807 19.9994,2.21807 19.9994,2.49807L 19.9994,11.8076C 19.4239,11.2554 18.747,10.808 17.9994,10.4962L 17.9994,4.69807L 14.9994,5.85807L 14.9994,10.017C 14.2954,10.0706 13.6228,10.2362 12.9994,10.4962L 12.9994,5.86807L 8.99939,4.46807L 8.99939,16.1281L 9.00955,16.1316L 8.99939,16.4981C 8.99939,17.1381 9.0919,17.7566 9.26429,18.3408L 7.99939,17.8981L 2.65939,19.9681L 2.49939,19.9981C 2.21939,19.9981 1.99939,19.7781 1.99939,19.4981L 1.99939,4.37807C 1.99939,4.14807 2.14939,3.96807 2.35939,3.89807L 7.99939,1.99807L 13.9994,4.09807L 19.3392,2.02807L 19.4994,1.99807 Z M 3.99939,5.45807L 3.99939,17.3081L 6.99939,16.1481L 6.99939,4.44807L 3.99939,5.45807 Z "/>
</svg>
