<?xml version="1.0" encoding="utf-8"?>
<!DOCTYPE svg PUBLIC "-//W3C//DTD SVG 1.1//EN" "http://www.w3.org/Graphics/SVG/1.1/DTD/svg11.dtd">
<svg xmlns="http://www.w3.org/2000/svg" xmlns:xlink="http://www.w3.org/1999/xlink" version="1.1" baseProfile="full" width="24" height="24" viewBox="0 0 24.00 24.00" enable-background="new 0 0 24.00 24.00" xml:space="preserve">
	<path fill="#000000" fill-opacity="1" stroke-width="0.2" stroke-linejoin="round" d="M 11.9994,19.9981C 7.58139,19.9981 3.99939,16.4161 3.99939,11.9981C 3.99939,7.58007 7.58139,3.99807 11.9994,3.99807C 16.4174,3.99807 19.9994,7.58007 19.9994,11.9981C 19.9994,16.4161 16.4174,19.9981 11.9994,19.9981 Z M 11.9994,1.99807C 6.47639,1.99807 1.99939,6.47507 1.99939,11.9981C 1.99939,17.5211 6.47639,21.9981 11.9994,21.9981C 17.5224,21.9981 21.9994,17.5211 21.9994,11.9981C 21.9994,6.47507 17.5224,1.99807 11.9994,1.99807 Z M 11.9994,12.4981C 11.1714,12.4981 10.4994,11.8261 10.4994,10.9981C 10.4994,10.1691 11.1714,9.49807 11.9994,9.49807C 12.8284,9.49807 13.4994,10.1691 13.4994,10.9981C 13.4994,11.8261 12.8284,12.4981 11.9994,12.4981 Z M 11.9994,7.19806C 9.90138,7.19806 8.19939,8.89907 8.19939,10.9981C 8.19939,13.9981 11.9994,17.4981 11.9994,17.4981C 11.9994,17.4981 15.7994,13.9981 15.7994,10.9981C 15.7994,8.89907 14.0974,7.19806 11.9994,7.19806 Z "/>
</svg>
