<?xml version="1.0" encoding="utf-8"?>
<!DOCTYPE svg PUBLIC "-//W3C//DTD SVG 1.1//EN" "http://www.w3.org/Graphics/SVG/1.1/DTD/svg11.dtd">
<svg xmlns="http://www.w3.org/2000/svg" xmlns:xlink="http://www.w3.org/1999/xlink" version="1.1" baseProfile="full" width="24" height="24" viewBox="0 0 24.00 24.00" enable-background="new 0 0 24.00 24.00" xml:space="preserve">
	<path fill="#000000" fill-opacity="1" stroke-width="1.33333" stroke-linejoin="miter" d="M 9,3L 3.36,4.9C 3.16,4.97 3,5.15 3,5.38L 3,20.5C 3,20.7761 3.22386,21 3.5,21C 3.55,21 3.6,21 3.66,20.97L 9,18.9L 13,20.3L 13,18.3L 9,16.9L 9,5L 15,7.1L 15,16L 21,16L 21,3.5C 21,3.2239 20.7761,3 20.5,3L 20.34,3L 15,5.1L 9,3 Z M 15,18L 15,20L 23,20L 23,18L 15,18 Z "/>
</svg>
