<?xml version="1.0" encoding="utf-8"?>
<!DOCTYPE svg PUBLIC "-//W3C//DTD SVG 1.1//EN" "http://www.w3.org/Graphics/SVG/1.1/DTD/svg11.dtd">
<svg xmlns="http://www.w3.org/2000/svg" xmlns:xlink="http://www.w3.org/1999/xlink" version="1.1" baseProfile="full" width="24" height="24" viewBox="0 0 24.00 24.00" enable-background="new 0 0 24.00 24.00" xml:space="preserve">
	<path fill="#000000" fill-opacity="1" stroke-width="0.2" stroke-linejoin="round" d="M 15,12L 16.5,12L 16.5,16.25L 19.3594,17.9394L 18.6094,19.1602L 15,17L 15,12 Z M 23,16C 23,19.866 19.866,23 16,23C 12.9754,23 10.3989,21.0818 9.42061,18.3955L 7.99939,17.8981L 2.65641,19.9731L 2.49939,19.9981C 2.22339,19.9981 1.99939,19.7741 1.99939,19.4981L 1.99939,4.37608C 1.99939,4.14708 2.1524,3.96607 2.36239,3.89606L 7.99939,1.99807L 13.9994,4.09809L 19.3434,2.02306L 19.4994,1.99807C 19.7764,1.99807 19.9994,2.22108 19.9994,2.49807L 19.9994,10.2543C 21.8132,11.5192 23,13.621 23,16 Z M 9,16C 9,12.8292 11.1082,10.1508 13.9994,9.29006L 13.9994,6.10506L 7.99939,3.99807L 7.99939,15.8911L 9.00417,16.2439C 9.0014,16.163 9,16.0816 9,16 Z M 16,11C 13.2386,11 11,13.2386 11,16C 11,18.7614 13.2386,21 16,21C 18.7614,21 21,18.7614 21,16C 21,13.2386 18.7614,11 16,11 Z "/>
</svg>
