<?xml version="1.0" encoding="utf-8"?>
<!DOCTYPE svg PUBLIC "-//W3C//DTD SVG 1.1//EN" "http://www.w3.org/Graphics/SVG/1.1/DTD/svg11.dtd">
<svg xmlns="http://www.w3.org/2000/svg" xmlns:xlink="http://www.w3.org/1999/xlink" version="1.1" baseProfile="full" width="24" height="24" viewBox="0 0 24.00 24.00" enable-background="new 0 0 24.00 24.00" xml:space="preserve">
	<path fill="#000000" fill-opacity="1" stroke-width="0.2" stroke-linejoin="miter" d="M 15,12L 16.5,12L 16.5,16.25L 19.3594,17.9394L 18.6094,19.1602L 15,17L 15,12 Z M 16,9C 16.6947,9 17.3659,9.10122 17.9994,9.2897L 17.9994,4.69807L 14.9994,5.85807L 14.9994,9.07098C 15.3262,9.02421 15.6603,9 16,9 Z M 23,16C 23,19.866 19.866,23 16,23C 12.9754,23 10.3989,21.0818 9.42062,18.3955L 7.99939,17.8981L 2.65939,19.9681L 2.49939,19.9981C 2.21939,19.9981 1.99939,19.7781 1.99939,19.4981L 1.99939,4.37807C 1.99939,4.14807 2.14939,3.96807 2.35939,3.89807L 7.99939,1.99807L 13.9994,4.09807L 19.3392,2.02807L 19.4994,1.99807C 19.7794,1.99807 19.9994,2.21807 19.9994,2.49807L 19.9994,10.2543C 21.8132,11.5192 23,13.621 23,16 Z M 9,16C 9,13.2078 10.6348,10.7975 12.9994,9.67393L 12.9994,5.86807L 8.99939,4.46807L 8.99939,16.1281L 9.00116,16.1287C 9.00039,16.0859 9,16.043 9,16 Z M 16,11C 13.2386,11 11,13.2386 11,16C 11,18.7614 13.2386,21 16,21C 18.7614,21 21,18.7614 21,16C 21,13.2386 18.7614,11 16,11 Z M 3.99939,5.45807L 3.99939,17.3081L 6.99939,16.1481L 6.99939,4.44807L 3.99939,5.45807 Z "/>
</svg>
