<?xml version="1.0" encoding="utf-8"?>
<!DOCTYPE svg PUBLIC "-//W3C//DTD SVG 1.1//EN" "http://www.w3.org/Graphics/SVG/1.1/DTD/svg11.dtd">
<svg xmlns="http://www.w3.org/2000/svg" xmlns:xlink="http://www.w3.org/1999/xlink" version="1.1" baseProfile="full" width="24" height="24" viewBox="0 0 24.00 24.00" enable-background="new 0 0 24.00 24.00" xml:space="preserve">
	<path fill="#000000" fill-opacity="1" stroke-width="1.33333" stroke-linejoin="miter" d="M 12,1.99999C 17.5231,1.99999 22,6.47693 22,12C 22,17.5231 17.5231,22 12,22C 6.47694,22 2,17.5231 2,12C 2,6.47693 6.47694,1.99999 12,1.99999 Z M 16.7469,14.4522C 18.6479,12.5512 18.5804,9.39032 16.5894,7.41057C 14.5984,5.43082 11.4488,5.35208 9.54781,7.25309C 6.11698,10.6839 7.21935,16.7806 7.21935,16.7806C 7.21935,16.7806 13.3273,17.8718 16.7469,14.4522 Z M 13.1474,7.86051L 14.126,9.87401L 16.1395,10.8526L 14.126,11.8313L 13.1474,13.8448L 12.1687,11.8313L 10.1552,10.8526L 12.1687,9.87401L 13.1474,7.86051 Z "/>
</svg>
