<?xml version="1.0" encoding="utf-8"?>
<!DOCTYPE svg PUBLIC "-//W3C//DTD SVG 1.1//EN" "http://www.w3.org/Graphics/SVG/1.1/DTD/svg11.dtd">
<svg xmlns="http://www.w3.org/2000/svg" xmlns:xlink="http://www.w3.org/1999/xlink" version="1.1" baseProfile="full" width="24" height="24" viewBox="0 0 24.00 24.00" enable-background="new 0 0 24.00 24.00" xml:space="preserve">
	<path fill="#000000" fill-opacity="1" stroke-width="1.33333" stroke-linejoin="miter" d="M 20,4L 20,9L 18.4975,7.49751L 5.4975,20.4975L 3.50125,18.5012L 16.501,5.50099L 15,4.00001L 20,4 Z M 17,20C 15.3431,20 14,18.6569 14,17L 14,15C 14,13.3432 15.3431,12 17,12C 18.6568,12 20,13.3432 20,15L 20,17C 20,18.6569 18.6568,20 17,20 Z M 17,14C 16.4477,14 16,14.4477 16,15L 16,17C 16,17.5523 16.4477,18 17,18C 17.5523,18 18,17.5523 18,17L 18,15C 18,14.4477 17.5523,14 17,14 Z M 7,12C 5.34315,12 4,10.6568 4,9L 4,7C 4,5.34315 5.34315,4 7,4C 8.65685,4 10,5.34315 10,7L 10,9C 10,10.6568 8.65685,12 7,12 Z M 7,5.99999C 6.44772,5.99999 6,6.44771 6,6.99999L 6,9C 6,9.55228 6.44772,10 7,10C 7.55229,10 8,9.55228 8,9L 8,6.99999C 8,6.44771 7.55229,5.99999 7,5.99999 Z "/>
</svg>
