<?xml version="1.0" encoding="utf-8"?>
<!DOCTYPE svg PUBLIC "-//W3C//DTD SVG 1.1//EN" "http://www.w3.org/Graphics/SVG/1.1/DTD/svg11.dtd">
<svg xmlns="http://www.w3.org/2000/svg" xmlns:xlink="http://www.w3.org/1999/xlink" version="1.1" baseProfile="full" width="24" height="24" viewBox="0 0 24.00 24.00" enable-background="new 0 0 24.00 24.00" xml:space="preserve">
	<path fill="#000000" fill-opacity="1" stroke-width="0.2" stroke-linejoin="round" d="M 17.5,13C 19.9853,13 22,15.0147 22,17.5C 22,19.9853 19.9853,22 17.5,22C 15.0147,22 13,19.9853 13,17.5C 13,15.0147 15.0147,13 17.5,13 Z M 17.5,14.5C 16.9436,14.5 16.4227,14.6514 15.976,14.9154L 20.0846,19.024C 20.3485,18.5773 20.5,18.0564 20.5,17.5C 20.5,15.8431 19.1569,14.5 17.5,14.5 Z M 14.5,17.5C 14.5,19.1569 15.8431,20.5 17.5,20.5C 18.0564,20.5 18.5773,20.3485 19.024,20.0846L 14.9154,15.976C 14.6514,16.4227 14.5,16.9436 14.5,17.5 Z M 18.4813,1.1475C 18.9937,1.1475 19.5025,1.3425 19.8925,1.73375L 22.725,4.56C 23.5062,5.34625 23.5062,6.60625 22.725,7.3925L 18.9509,11.1625C 18.4844,11.0562 17.9987,11 17.5,11C 16.6697,11 15.8757,11.1557 15.1457,11.4395L 11.255,7.54875L 17.065,1.73375C 17.4563,1.3425 17.9687,1.1475 18.4813,1.1475 Z M 10.2975,8.50625L 13.8875,12.0955C 12.1463,13.2616 11,15.247 11,17.5C 11,17.9985 11.0561,18.4838 11.1624,18.9501L 9.995,20.1175C 9.21875,20.8937 7.97375,20.8987 7.1875,20.1362L 6.32875,21.0012L 0.673752,21.0012L 4.355,17.31C 3.555,16.5037 3.555,15.2438 4.33625,14.4625L 10.2975,8.50625 Z "/>
</svg>
