<?xml version="1.0" encoding="utf-8"?>
<!DOCTYPE svg PUBLIC "-//W3C//DTD SVG 1.1//EN" "http://www.w3.org/Graphics/SVG/1.1/DTD/svg11.dtd">
<svg xmlns="http://www.w3.org/2000/svg" xmlns:xlink="http://www.w3.org/1999/xlink" version="1.1" baseProfile="full" width="24" height="24" viewBox="0 0 24.00 24.00" enable-background="new 0 0 24.00 24.00" xml:space="preserve">
	<path fill="#000000" fill-opacity="1" stroke-width="1.33333" stroke-linejoin="miter" d="M 20.9368,14.0015C 20.6623,15.4137 18.4782,16.9592 15.9699,17.2587C 14.6619,17.4148 13.374,17.5583 12.0008,17.4953C 9.75491,17.3924 7.98279,16.9592 7.98279,16.9592L 8.02323,17.5807C 8.31521,19.7971 10.221,19.9299 12.0262,19.9918C 13.8483,20.0541 15.4707,19.5425 15.4707,19.5425L 15.5455,21.1898C 15.5455,21.1898 14.2711,21.8741 12.0008,22C 10.7488,22.0688 9.19436,21.9685 7.38384,21.4893C 3.45712,20.45 2.78182,16.2643 2.67849,12.0172L 2.66641,8.57272C 2.66641,4.22988 5.51184,2.95693 5.51184,2.95693C 6.94658,2.29802 9.40847,2.02093 11.9679,2L 12.0307,2C 14.5901,2.02093 17.0536,2.29802 18.4883,2.95693C 18.4883,2.95693 21.3336,4.22988 21.3336,8.57272C 21.3336,8.57272 21.3693,11.7769 20.9368,14.0015 Z M 17.9773,8.90963C 17.9773,7.83492 17.7037,6.9809 17.1542,6.34906C 16.5872,5.71722 15.845,5.39332 14.9236,5.39332C 13.8574,5.39332 13.0501,5.80307 12.5164,6.6227L 11.9974,7.49258L 11.4785,6.6227C 10.9447,5.80307 10.1374,5.39332 9.0713,5.39332C 8.14985,5.39332 7.40757,5.71722 6.84077,6.34906C 6.29112,6.9809 6.01748,7.83492 6.01748,8.90963L 6.01748,14.1681L 8.10078,14.1681L 8.10078,9.0642C 8.10078,7.9883 8.55346,7.44221 9.45894,7.44221C 10.4601,7.44221 10.962,8.09001 10.962,9.37095L 10.962,12.1646L 13.033,12.1646L 13.033,9.37095C 13.033,8.09001 13.5347,7.44221 14.5359,7.44221C 15.4413,7.44221 15.894,7.9883 15.894,9.0642L 15.894,14.1681L 17.9773,14.1681L 17.9773,8.90963 Z "/>
</svg>
