<?xml version="1.0" encoding="utf-8"?>
<!DOCTYPE svg PUBLIC "-//W3C//DTD SVG 1.1//EN" "http://www.w3.org/Graphics/SVG/1.1/DTD/svg11.dtd">
<svg xmlns="http://www.w3.org/2000/svg" xmlns:xlink="http://www.w3.org/1999/xlink" version="1.1" baseProfile="full" width="24" height="24" viewBox="0 0 24.00 24.00" enable-background="new 0 0 24.00 24.00" xml:space="preserve">
	<path fill="#000000" fill-opacity="1" stroke-width="1.33333" stroke-linejoin="miter" d="M 20.9318,13.9915C 20.6574,15.4026 18.4753,16.9468 15.969,17.2461C 14.662,17.402 13.3755,17.5453 12.0032,17.4824C 9.75925,17.3796 7.98859,16.9468 7.98859,16.9468L 8.029,17.5678C 8.32074,19.7823 10.2249,19.915 12.0288,19.9768C 13.8492,20.0391 15.4702,19.528 15.4702,19.528L 15.5451,21.1738C 15.5451,21.1738 14.2717,21.8576 12.0032,21.9834C 10.7523,22.0522 9.19916,21.9519 7.39014,21.4731C 3.46669,20.4346 2.79194,16.2524 2.6887,12.0089L 2.67663,8.56727C 2.67663,4.22803 5.5197,2.95613 5.5197,2.95613C 6.95314,2.29778 9.41309,2.02091 11.9704,2.00001L 12.0332,2.00001C 14.5904,2.02091 17.0519,2.29778 18.4853,2.95613C 18.4853,2.95613 21.3284,4.22803 21.3284,8.56727C 21.3284,8.56727 21.364,11.7688 20.9318,13.9915 Z M 8.33404,10.3163C 8.33404,9.53919 7.70402,8.90906 6.92678,8.90906C 6.14966,8.90906 5.51975,9.53919 5.51975,10.3163C 5.51975,11.0934 6.14966,11.7235 6.92678,11.7235C 7.70402,11.7235 8.33404,11.0934 8.33404,10.3163 Z M 13.4071,10.3163C 13.4071,9.5392 12.777,8.90906 11.9998,8.90906C 11.2227,8.90906 10.5927,9.5392 10.5927,10.3163C 10.5927,11.0934 11.2227,11.7235 11.9998,11.7235C 12.777,11.7235 13.4071,11.0934 13.4071,10.3163 Z M 18.4801,10.3163C 18.4801,9.5392 17.85,8.90906 17.0729,8.90906C 16.2958,8.90906 15.6658,9.5392 15.6658,10.3163C 15.6658,11.0934 16.2958,11.7235 17.0729,11.7235C 17.85,11.7235 18.4801,11.0934 18.4801,10.3163 Z "/>
</svg>
