<?xml version="1.0" encoding="utf-8"?>
<!DOCTYPE svg PUBLIC "-//W3C//DTD SVG 1.1//EN" "http://www.w3.org/Graphics/SVG/1.1/DTD/svg11.dtd">
<svg xmlns="http://www.w3.org/2000/svg" xmlns:xlink="http://www.w3.org/1999/xlink" version="1.1" baseProfile="full" width="24" height="24" viewBox="0 0 24.00 24.00" enable-background="new 0 0 24.00 24.00" xml:space="preserve">
	<path fill="#000000" fill-opacity="1" stroke-linejoin="round" d="M 8,16.6132L 8,15.3715L 14,11.9074L 14,7.23205L 9,10.1188L 4,7.23204L 4,13L 3,13.5774L 2,13L 2,5L 3.06699,4.38397L 9,7.8094L 12.933,5.53867L 14.933,4.38397L 16,5L 16,13.0621L 10.9246,15.9924L 14.9748,18.3308L 20,15.4295L 20,11L 21,10.4227L 22,11L 22,16.5842L 14.9748,20.6402L 8,16.6132 Z M 22,9.75001L 21,10.3274L 20,9.75001L 20,8.57736L 21,8.00001L 22,8.57736L 22,9.75001 Z "/>
</svg>
