<?xml version="1.0" encoding="utf-8"?>
<!DOCTYPE svg PUBLIC "-//W3C//DTD SVG 1.1//EN" "http://www.w3.org/Graphics/SVG/1.1/DTD/svg11.dtd">
<svg xmlns="http://www.w3.org/2000/svg" xmlns:xlink="http://www.w3.org/1999/xlink" version="1.1" baseProfile="full" width="24" height="24" viewBox="0 0 24.00 24.00" enable-background="new 0 0 24.00 24.00" xml:space="preserve">
	<path fill="#000000" fill-opacity="1" stroke-width="1.33333" stroke-linejoin="miter" d="M 21,12C 21,9.9687 20.3281,8.0937 18.9844,6.375L 18.9844,17.625C 20.3281,15.9687 21,14.0937 21,12 Z M 17.625,18.9844L 6.375,18.9844C 7.0625,19.5469 7.95313,20.0234 9.04688,20.4141C 10.1406,20.8047 11.125,21 12,21C 12.875,21 13.8594,20.8047 14.9531,20.4141C 16.0469,20.0234 16.9375,19.5469 17.625,18.9844 Z M 11.0156,17.0156L 6.98438,9L 6.98438,17.0156L 11.0156,17.0156 Z M 17.0156,9L 12.9844,17.0156L 17.0156,17.0156L 17.0156,9 Z M 12,14.5312L 15.75,6.9844L 8.25,6.9844L 12,14.5312 Z M 17.625,5.0156C 15.9687,3.6719 14.0937,3 12,3C 9.90625,3 8.03125,3.6719 6.375,5.0156L 17.625,5.0156 Z M 5.01563,17.625L 5.01563,6.375C 3.67188,8.0937 3,9.9687 3,12C 3,14.0937 3.67188,15.9687 5.01563,17.625 Z M 23.0156,12C 23.0156,15.0312 21.9375,17.625 19.7813,19.7812C 17.625,21.9375 15.0312,23.0156 12,23.0156C 8.96875,23.0156 6.375,21.9375 4.21875,19.7812C 2.0625,17.625 0.984376,15.0312 0.984376,12C 0.984376,8.9688 2.0625,6.375 4.21875,4.2187C 6.375,2.0625 8.96875,0.984398 12,0.984398C 15.0312,0.984398 17.625,2.0625 19.7813,4.2187C 21.9375,6.375 23.0156,8.9688 23.0156,12 Z "/>
</svg>
