<?xml version="1.0" encoding="utf-8"?>
<!DOCTYPE svg PUBLIC "-//W3C//DTD SVG 1.1//EN" "http://www.w3.org/Graphics/SVG/1.1/DTD/svg11.dtd">
<svg xmlns="http://www.w3.org/2000/svg" xmlns:xlink="http://www.w3.org/1999/xlink" version="1.1" baseProfile="full" width="24" height="24" viewBox="0 0 24.00 24.00" enable-background="new 0 0 24.00 24.00" xml:space="preserve">
	<path fill="#010101" fill-opacity="1" stroke-width="1.33333" stroke-linejoin="miter" d="M 2,7L 2,9L 4,9L 4,17L 6,17L 6,9L 8,9L 8,7L 2,7 Z M 11,7C 9.9,7 9,7.9 9,9L 9,17L 11,17L 11,13L 13,13L 13,17L 15,17L 15,9C 15,7.9 14.1,7 13,7L 11,7M 11,9L 13,9L 13,11L 11,11L 11,9 Z M 16,7L 16,17L 18,17L 18,12L 20,17L 22,17L 22,7L 20,7L 20,12L 18,7L 16,7 Z "/>
</svg>
