<?xml version="1.0" encoding="utf-8"?>
<!DOCTYPE svg PUBLIC "-//W3C//DTD SVG 1.1//EN" "http://www.w3.org/Graphics/SVG/1.1/DTD/svg11.dtd">
<svg xmlns="http://www.w3.org/2000/svg" xmlns:xlink="http://www.w3.org/1999/xlink" version="1.1" baseProfile="full" width="24" height="24" viewBox="0 0 24.00 24.00" enable-background="new 0 0 24.00 24.00" xml:space="preserve">
	<path fill="#000000" fill-opacity="1" stroke-width="0.2" stroke-linejoin="round" d="M 2,2L 6,2L 6,4L 4,4L 4,20L 6,20L 6,22L 2,22L 2,2 Z M 20,4.00001L 18,4.00001L 18,2.00003L 22,2.00002L 22,22L 18,22L 18,20L 20,20L 20,4.00001 Z M 9,5.00001L 10,5.00001L 10,10L 11,10L 11,11L 8,11L 8,10L 9,10L 9,6L 8,6.50001L 8,5.50001L 9,5.00001 Z M 15,13L 16,13L 16,18L 17,18L 17,19L 14,19L 14,18L 15,18L 15,14L 14,14.5L 14,13.5L 15,13 Z M 9,13C 10.1046,13 11,14.3432 11,16C 11,17.6569 10.1046,19 9,19C 7.89543,19 7,17.6569 7,16C 7,14.3432 7.89543,13 9,13 Z M 9,14C 8.44771,14 8,14.8954 8,16C 8,17.1046 8.44771,18 9,18C 9.55228,18 10,17.1046 10,16C 10,14.8954 9.55228,14 9,14 Z M 15,5.00001C 16.1046,5.00001 17,6.34315 17,8C 17,9.65686 16.1046,11 15,11C 13.8954,11 13,9.65686 13,8C 13,6.34315 13.8954,5.00001 15,5.00001 Z M 15,6.00001C 14.4477,6.00001 14,6.89544 14,8.00001C 14,9.10458 14.4477,10 15,10C 15.5523,10 16,9.10458 16,8.00001C 16,6.89544 15.5523,6.00001 15,6.00001 Z "/>
</svg>
