<?xml version="1.0" encoding="utf-8"?>
<!DOCTYPE svg PUBLIC "-//W3C//DTD SVG 1.1//EN" "http://www.w3.org/Graphics/SVG/1.1/DTD/svg11.dtd">
<svg xmlns="http://www.w3.org/2000/svg" xmlns:xlink="http://www.w3.org/1999/xlink" version="1.1" baseProfile="full" width="24" height="24" viewBox="0 0 24.00 24.00" enable-background="new 0 0 24.00 24.00" xml:space="preserve">
	<g>
		<path fill="#000000" fill-opacity="1" stroke-width="1.33333" stroke-linejoin="miter" d="M 20,2L 4,2L 4,4L 9.81,8.36C 6.13808,9.5695 4.1419,13.5267 5.3514,17.1986C 6.5609,20.8705 10.5181,22.8667 14.19,21.6572C 17.8619,20.4477 19.8581,16.4905 18.6486,12.8186C 17.9538,10.7093 16.2993,9.0548 14.19,8.36L 20,4L 20,2 Z M 14.94,19.5L 12,17.78L 9.06,19.5L 9.84,16.17L 7.25,13.93L 10.66,13.64L 12,10.5L 13.34,13.64L 16.75,13.93L 14.16,16.17L 14.94,19.5 Z "/>
	</g>
</svg>
