<?xml version="1.0" encoding="utf-8"?>
<!DOCTYPE svg PUBLIC "-//W3C//DTD SVG 1.1//EN" "http://www.w3.org/Graphics/SVG/1.1/DTD/svg11.dtd">
<svg xmlns="http://www.w3.org/2000/svg" xmlns:xlink="http://www.w3.org/1999/xlink" version="1.1" baseProfile="full" width="24" height="24" viewBox="0 0 24.00 24.00" enable-background="new 0 0 24.00 24.00" xml:space="preserve">
	<path fill="#000000" fill-opacity="1" stroke-width="1.33333" stroke-linejoin="miter" d="M 4.37162,7.30012C 4.39646,7.05461 4.30284,6.81194 4.11951,6.6467L 2.25211,4.39711L 2.25211,4.06107L 8.05041,4.06107L 12.5322,13.8902L 16.4725,4.06107L 22,4.06107L 22,4.39711L 20.4034,5.92795C 20.2657,6.03287 20.1974,6.20533 20.226,6.376L 20.226,17.624C 20.1974,17.7947 20.2657,17.9671 20.4034,18.072L 21.9627,19.6029L 21.9627,19.9389L 14.1195,19.9389L 14.1195,19.6029L 15.7348,18.0347C 15.8936,17.876 15.8936,17.8294 15.8936,17.5867L 15.8936,8.49492L 11.4024,19.9016L 10.7955,19.9016L 5.56676,8.49492L 5.56676,16.1398C 5.52316,16.4612 5.62991,16.7848 5.85621,17.0173L 7.95705,19.5656L 7.95705,19.9016L 2,19.9016L 2,19.5656L 4.10084,17.0173C 4.3255,16.7844 4.42602,16.4587 4.37162,16.1398L 4.37162,7.30012 Z "/>
</svg>
