<?xml version="1.0" encoding="utf-8"?>
<!DOCTYPE svg PUBLIC "-//W3C//DTD SVG 1.1//EN" "http://www.w3.org/Graphics/SVG/1.1/DTD/svg11.dtd">
<svg xmlns="http://www.w3.org/2000/svg" xmlns:xlink="http://www.w3.org/1999/xlink" version="1.1" baseProfile="full" width="24" height="24" viewBox="0 0 24.00 24.00" enable-background="new 0 0 24.00 24.00" xml:space="preserve">
	<path fill="#000000" fill-opacity="1" stroke-linejoin="round" d="M 21.9288,6.61625L 15.8894,16.4716L 11.5719,9.42603L 15.0087,3.84105C 15.1668,3.58425 15.4947,3.46648 15.7792,3.54857L 21.9288,6.61625 Z M 22,19.7818C 22,20.3517 21.504,20.5657 20.8923,20.2599L 16.1836,17.9055L 22,8.41393L 22,19.7818 Z M 8.98814,19.9374C 8.98814,20.5049 8.57267,20.7616 8.0651,20.5078L 2.55379,17.7572C 2.24918,17.6049 1.99997,17.2017 1.99997,16.8611L 1.99997,4.1393C 1.99997,3.68523 2.33231,3.47987 2.7384,3.68294L 8.70478,6.66122L 8.98814,7.12362L 8.98814,19.9374 Z M 15.2858,17.4566L 10,14.8137L 10,8.81372L 15.2858,17.4566 Z "/>
</svg>
