<?xml version="1.0" encoding="utf-8"?>
<!DOCTYPE svg PUBLIC "-//W3C//DTD SVG 1.1//EN" "http://www.w3.org/Graphics/SVG/1.1/DTD/svg11.dtd">
<svg xmlns="http://www.w3.org/2000/svg" xmlns:xlink="http://www.w3.org/1999/xlink" version="1.1" baseProfile="full" width="24" height="24" viewBox="0 0 24.00 24.00" enable-background="new 0 0 24.00 24.00" xml:space="preserve">
	<path fill="#000000" fill-opacity="1" stroke-width="1.33333" stroke-linejoin="miter" d="M 10,3L 8,5L 8,7L 5,7C 3.846,7 3.123,8 3,9L 2,19C 1.877,20 2.543,21 4,21L 20,21C 21.458,21 22.123,20 22,19L 21,9C 20.877,8 20.057,7 19,7L 16,7L 16,5L 14,3L 10,3 Z M 10,5L 14,5L 14,7L 10,7L 10,5 Z M 11,10L 13,10L 13,13L 16,13L 16,15L 13,15L 13,18L 11,18L 11,15L 8,15L 8,13L 11,13L 11,10 Z "/>
</svg>
