<?xml version="1.0" encoding="utf-8"?>
<!DOCTYPE svg PUBLIC "-//W3C//DTD SVG 1.1//EN" "http://www.w3.org/Graphics/SVG/1.1/DTD/svg11.dtd">
<svg xmlns="http://www.w3.org/2000/svg" xmlns:xlink="http://www.w3.org/1999/xlink" version="1.1" baseProfile="full" width="24" height="24" viewBox="0 0 24.00 24.00" enable-background="new 0 0 24.00 24.00" xml:space="preserve">
	<path fill="#000000" fill-opacity="1" stroke-width="1.33333" stroke-linejoin="miter" d="M 22,7.1L 20.9,7.1C 20.6,7.1 19.9,7.4 19.9,7.7L 19.9,17.4C 19.9,17.7 20.7,17.9 20.9,17.9L 22,17.9L 22,20L 14.9,20L 14.9,17.9L 16.3,17.9L 16.3,7.9L 16,7.9L 12.6,20L 9.9,20L 6.5,7.9L 6.3,7.9L 6.3,17.9L 7.7,17.9L 7.7,20L 2,20L 2,17.9L 2.8,17.9C 3.1,17.9 3.4,17.7 3.4,17.4L 3.4,7.7C 3.4,7.4 3.1,7.1 2.8,7.1L 2,7.1L 2,5L 9.4,5L 11.8,13.6L 11.9,13.6L 14.3,5L 22,5L 22,7.1 Z "/>
</svg>
