<?xml version="1.0" encoding="utf-8"?>
<!DOCTYPE svg PUBLIC "-//W3C//DTD SVG 1.1//EN" "http://www.w3.org/Graphics/SVG/1.1/DTD/svg11.dtd">
<svg xmlns="http://www.w3.org/2000/svg" xmlns:xlink="http://www.w3.org/1999/xlink" version="1.1" baseProfile="full" width="24" height="24" viewBox="0 0 24.00 24.00" enable-background="new 0 0 24.00 24.00" xml:space="preserve">
	<path fill="#000000" fill-opacity="1" stroke-width="1.33333" stroke-linejoin="miter" d="M 19.6102,14.8581C 19.6118,16.6784 18.3009,18.2466 16.5183,18.5549C 16.2939,18.5934 16.0673,18.6162 15.8395,18.614C 15.7627,18.6132 15.7325,18.6439 15.7082,18.7143C 15.3523,19.7361 14.6421,20.3451 13.5693,20.4987C 12.8595,20.6003 12.2155,20.4099 11.6509,19.9662C 11.5723,19.9044 11.5242,19.9033 11.4422,19.9619C 10.7819,20.4342 10.0415,20.6434 9.23305,20.5945C 7.65541,20.4993 6.32797,19.2935 6.07965,17.7386C 6.06257,17.6311 6.04441,17.5228 6.04277,17.4145C 6.04113,17.3244 6.00693,17.2897 5.92089,17.2728C 5.44325,17.1797 5.00981,16.983 4.6274,16.6837C 3.92364,16.1327 3.5014,15.4132 3.40312,14.5233C 3.29104,13.5048 3.60564,12.6241 4.32212,11.8902C 4.37988,11.8313 4.38348,11.7903 4.34408,11.7211C 4.06864,11.2402 3.93808,10.7194 3.95928,10.167C 4.01216,8.78859 4.97136,7.64975 6.30557,7.36779C 6.45993,7.33499 6.54085,7.27447 6.60869,7.12819C 7.26677,5.71039 8.37173,4.8481 9.90506,4.5637C 10.9814,4.36395 11.9968,4.57783 12.9391,5.13202C 13.0183,5.17875 13.0846,5.1825 13.1703,5.15755C 14.6668,4.72334 15.9929,5.03922 17.1186,6.10967C 17.7844,6.74255 18.1491,7.54351 18.2572,8.45727C 18.2808,8.65703 18.2915,8.85867 18.2764,9.05951C 18.2706,9.13547 18.294,9.16723 18.3659,9.19383C 19.0406,9.44355 19.5058,9.90923 19.7093,10.598C 19.9628,11.4548 19.7498,12.2062 19.1096,12.8309C 19.0541,12.8851 19.0658,12.9183 19.0973,12.9725C 19.4356,13.5554 19.6109,14.1829 19.6102,14.8581 Z M 12.9326,14.5658C 12.9331,15.3404 13.4303,16.0249 14.1354,16.2575C 14.4888,16.3742 14.8533,16.4296 15.2232,16.4458C 15.4873,16.4572 15.751,16.4388 15.9951,16.3172C 16.1869,16.2214 16.2773,16.0631 16.2687,15.8523C 16.26,15.64 16.1649,15.4813 15.9619,15.3968C 15.8914,15.3675 15.8197,15.3436 15.7448,15.3306C 15.5209,15.2907 15.2959,15.257 15.0731,15.2129C 14.7054,15.1396 14.5512,14.945 14.5463,14.5732C 14.542,14.2442 14.6313,13.934 14.7325,13.6271C 14.9176,13.0653 15.1672,12.5298 15.4064,11.99C 15.6373,11.4687 15.8794,10.9516 16.0425,10.4026C 16.1323,10.101 16.1752,9.79871 16.0935,9.48687C 15.9692,9.01355 15.6856,8.69631 15.1965,8.60507C 14.7487,8.52175 14.3031,8.51227 13.8981,8.77931C 13.7635,8.86779 13.634,8.84663 13.5171,8.74347C 13.4279,8.66503 13.3429,8.58199 13.2555,8.50139C 12.8425,8.12007 12.2964,8.10135 11.8529,8.44959C 11.674,8.59015 11.5235,8.76443 11.3291,8.88655C 11.1554,8.99563 10.9803,9.02655 10.788,8.92399C 10.6048,8.82627 10.4151,8.74027 10.2259,8.65451C 10.0343,8.56795 9.84861,8.46103 9.63289,8.44283C 8.95057,8.38475 8.23653,8.79023 7.93553,9.40659C 7.80197,9.67935 7.69293,9.96272 7.58953,10.2479C 7.11209,11.5664 6.72321,12.9131 6.32073,14.2551C 6.14049,14.8558 6.35321,15.4468 6.86181,15.7712C 7.25861,16.0241 7.69309,16.0866 8.14289,15.9514C 8.50729,15.8418 8.70685,15.5484 8.84633,15.2189C 9.30985,14.1258 9.72729,13.014 10.1691,11.9122C 10.2907,11.609 10.4085,11.3045 10.5375,11.0046C 10.6677,10.7018 11.0419,10.5986 11.2639,10.7994C 11.3995,10.922 11.4352,11.0852 11.4219,11.2597C 11.4073,11.4462 11.3351,11.6182 11.2672,11.7895C 10.9797,12.5163 10.6869,13.241 10.3982,13.9672C 10.3398,14.1141 10.2766,14.2598 10.2508,14.4174C 10.2066,14.6881 10.3137,14.928 10.5351,15.0235C 10.761,15.121 10.9955,15.1372 11.2297,15.0522C 11.5021,14.9535 11.665,14.7402 11.7904,14.4937C 12.2214,13.6473 12.6491,12.7988 13.0798,11.9524C 13.2788,11.5613 13.4812,11.1721 13.6845,10.7834C 13.76,10.6393 13.8485,10.5028 13.9895,10.4132C 14.1169,10.3326 14.2541,10.3266 14.3847,10.4C 14.5121,10.4713 14.5206,10.6016 14.5153,10.7303C 14.5123,10.7994 14.493,10.867 14.4664,10.9314C 14.4105,11.0651 14.3584,11.2009 14.2965,11.332C 13.9382,12.0856 13.5745,12.8364 13.2195,13.5916C 13.0699,13.9104 12.9141,14.2307 12.9326,14.5658 Z M 17.9575,20.1201C 17.9584,19.6201 17.5393,19.2021 17.0353,19.2008C 16.5188,19.1989 16.0998,19.6122 16.0976,20.1249C 16.0954,20.6261 16.5216,21.0514 17.0255,21.0521C 17.5366,21.0526 17.9567,20.6325 17.9575,20.1201 Z M 2.37724,12.4592C 2.86332,12.4603 3.27232,12.054 3.2704,11.5723C 3.2682,11.0898 2.86792,10.6897 2.38592,10.6883C 1.89192,10.687 1.49972,11.0789 1.5,11.5737C 1.5004,12.0632 1.89144,12.4581 2.37724,12.4592 Z M 13.2615,2.55062C 12.773,2.5479 12.3749,2.93846 12.3721,3.42262C 12.3691,3.90626 12.7659,4.30363 13.252,4.30414C 13.7361,4.30442 14.125,3.91658 14.1259,3.4321C 14.1271,2.94526 13.7425,2.55306 13.2615,2.55062 Z M 20.4542,8.03159C 20.452,7.63015 20.1098,7.28875 19.7068,7.28603C 19.2953,7.28307 18.9468,7.63075 18.9496,8.04135C 18.9525,8.45091 19.2847,8.77927 19.6967,8.77983C 20.1212,8.78067 20.4566,8.44903 20.4542,8.03159 Z M 5.04404,5.88803C 5.04404,6.26503 5.33745,6.56083 5.71197,6.56139C 6.09133,6.56191 6.38561,6.26451 6.38425,5.88207C 6.38289,5.51111 6.08897,5.22095 5.71577,5.22207C 5.33197,5.22283 5.04425,5.50807 5.04404,5.88803 Z M 12.0603,21.4369C 12.0635,21.1229 11.8052,20.8643 11.4876,20.8632C 11.1617,20.8622 10.9057,21.1148 10.9065,21.4364C 10.9073,21.7536 11.162,22.0049 11.4823,22.0049C 11.8022,22.0052 12.0575,21.7544 12.0603,21.4369 Z M 21.0193,12.5152C 20.7142,12.513 20.4496,12.7776 20.452,13.0824C 20.4546,13.3836 20.7061,13.6309 21.0106,13.6315C 21.3298,13.6321 21.5692,13.397 21.5699,13.0816C 21.5708,12.7694 21.3257,12.5173 21.0193,12.5152 Z M 7.61989,1.99506C 7.35093,1.99398 7.14333,2.19942 7.14333,2.46706C 7.14333,2.73302 7.35309,2.93982 7.62181,2.93846C 7.88261,2.9371 8.08697,2.72918 8.08697,2.4651C 8.08701,2.19858 7.88585,1.99642 7.61989,1.99506 Z M 22.0837,9.98024C 21.8644,9.97776 21.6658,10.174 21.663,10.3963C 21.66,10.6262 21.8514,10.8175 22.0848,10.818C 22.3166,10.8189 22.4984,10.6386 22.5,10.4058C 22.5022,10.1716 22.3176,9.9832 22.0837,9.98024 Z M 5.48153,18.2602C 5.48257,18.0376 5.29069,17.846 5.06465,17.8439C 4.83553,17.8419 4.64716,18.0347 4.6488,18.2692C 4.65068,18.4983 4.8366,18.6792 5.06817,18.6776C 5.29537,18.6762 5.48077,18.4892 5.48153,18.2602 Z "/>
</svg>
