<?xml version="1.0" encoding="utf-8"?>
<!DOCTYPE svg PUBLIC "-//W3C//DTD SVG 1.1//EN" "http://www.w3.org/Graphics/SVG/1.1/DTD/svg11.dtd">
<svg xmlns="http://www.w3.org/2000/svg" xmlns:xlink="http://www.w3.org/1999/xlink" version="1.1" baseProfile="full" width="24" height="24" viewBox="0 0 24.00 24.00" enable-background="new 0 0 24.00 24.00" xml:space="preserve">
	<path fill="#000000" fill-opacity="1" stroke-width="1.33333" stroke-linejoin="miter" d="M 13,10L 11,10L 11,6L 13,6L 13,10 Z M 13,12L 11,12L 11,14L 13,14L 13,12 Z M 22,4L 22,16C 22,17.1 21.1,18 20,18L 6,18L 2,22L 2,4C 2,2.9 2.9,2 4,2L 20,2C 21.1,2 22,2.9 22,4 Z M 20,4L 4,4L 4,17.2L 5.2,16L 20,16L 20,4 Z "/>
</svg>
