<?xml version="1.0" encoding="utf-8"?>
<!DOCTYPE svg PUBLIC "-//W3C//DTD SVG 1.1//EN" "http://www.w3.org/Graphics/SVG/1.1/DTD/svg11.dtd">
<svg xmlns="http://www.w3.org/2000/svg" xmlns:xlink="http://www.w3.org/1999/xlink" version="1.1" baseProfile="full" width="24" height="24" viewBox="0 0 24.00 24.00" enable-background="new 0 0 24.00 24.00" xml:space="preserve">
	<path fill="#000000" fill-opacity="1" stroke-width="1.33333" stroke-linejoin="miter" d="M 20,2L 4,2C 2.9,2 2.01,2.9 2.01,4L 2,22L 6,18L 20,18C 21.1,18 22,17.1 22,16L 22,4C 22,2.9 21.1,2 20,2 Z M 8,14L 6,14L 6,12L 8,12L 8,14 Z M 8,11L 6,11L 6,9L 8,9L 8,11 Z M 8,8L 6,8L 6,6L 8,6L 8,8 Z M 15,14L 10,14L 10,12L 15,12L 15,14 Z M 18,11L 10,11L 10,9L 18,9L 18,11 Z M 18,8L 10,8L 10,6L 18,6L 18,8 Z "/>
</svg>
