<?xml version="1.0" encoding="utf-8"?>
<!DOCTYPE svg PUBLIC "-//W3C//DTD SVG 1.1//EN" "http://www.w3.org/Graphics/SVG/1.1/DTD/svg11.dtd">
<svg xmlns="http://www.w3.org/2000/svg" xmlns:xlink="http://www.w3.org/1999/xlink" version="1.1" baseProfile="full" width="24" height="24" viewBox="0 0 24.00 24.00" enable-background="new 0 0 24.00 24.00" xml:space="preserve">
	<g>
		<path fill="#000000" fill-opacity="1" stroke-width="1.33333" stroke-linejoin="miter" d="M 13.49,10C 13.49,10.8284 12.8184,11.5 11.99,11.5C 11.1615,11.4999 10.49,10.8284 10.49,9.9999C 10.49,9.1715 11.1616,8.4999 12,8.5C 12.8245,8.5055 13.49,9.1755 13.49,10 Z M 22,4L 22,16C 22,17.1046 21.1046,18 20,18L 6,18L 2,22L 2,4C 2,2.8954 2.89543,2 4,2L 20,2C 21.1046,2 22,2.8954 22,4 Z M 16.77,11.32L 15.7,10.49C 15.7103,10.3268 15.7103,10.1632 15.7,10C 15.7152,9.837 15.7152,9.673 15.7,9.51L 16.76,8.68C 16.8526,8.6006 16.8775,8.4675 16.82,8.36L 15.82,6.63C 15.7587,6.5209 15.6263,6.474 15.51,6.52L 14.27,7C 14.0117,6.7967 13.7254,6.6316 13.42,6.51L 13.23,5.19C 13.2068,5.0809 13.1115,5.0022 13,5L 11,5C 10.8776,5.0024 10.7735,5.0899 10.75,5.21L 10.56,6.53C 10.2552,6.6508 9.96632,6.8087 9.7,7L 8.46,6.5C 8.34366,6.4583 8.21406,6.5043 8.15,6.61L 7.15,8.34C 7.08828,8.4469 7.11377,8.5828 7.21,8.66L 8.27,9.49C 8.22817,9.822 8.22817,10.158 8.27,10.49L 7.21,11.32C 7.11742,11.3994 7.09247,11.5325 7.15,11.64L 8.15,13.37C 8.21126,13.4791 8.3437,13.526 8.46,13.48L 9.7,13C 9.95831,13.2033 10.2446,13.3684 10.55,13.49L 10.74,14.81C 10.7689,14.9281 10.8787,15.0083 11,15L 13,15C 13.1224,14.9976 13.2265,14.9101 13.25,14.79L 13.44,13.47C 13.7404,13.3444 14.0228,13.1797 14.28,12.98L 15.53,13.48C 15.6463,13.5217 15.7759,13.4757 15.84,13.37L 16.84,11.64C 16.8952,11.5302 16.866,11.3967 16.77,11.32 Z "/>
	</g>
</svg>
