<?xml version="1.0" encoding="utf-8"?>
<!DOCTYPE svg PUBLIC "-//W3C//DTD SVG 1.1//EN" "http://www.w3.org/Graphics/SVG/1.1/DTD/svg11.dtd">
<svg xmlns="http://www.w3.org/2000/svg" xmlns:xlink="http://www.w3.org/1999/xlink" version="1.1" baseProfile="full" width="24" height="24" viewBox="0 0 24.00 24.00" enable-background="new 0 0 24.00 24.00" xml:space="preserve">
	<path fill="#000000" fill-opacity="1" stroke-width="0.2" stroke-linejoin="round" d="M 17.9994,13.9981L 10.4994,13.9981L 12.4994,11.9981L 17.9994,11.9981M 5.99939,13.9981L 5.99939,11.5231L 12.8774,4.64406C 13.0734,4.44907 13.3894,4.44907 13.5854,4.64406L 15.3524,6.41207C 15.5484,6.60706 15.5484,6.92406 15.3524,7.11907L 8.4744,13.9981M 19.9994,1.99807L 3.99939,1.99807C 2.89539,1.99807 2.0094,2.89307 2.0094,3.99807L 1.99939,21.9981L 5.99939,17.9981L 19.9994,17.9981C 21.1034,17.9981 21.9994,17.1031 21.9994,15.9981L 21.9994,3.99807C 21.9994,2.89307 21.1034,1.99807 19.9994,1.99807 Z "/>
</svg>
