<?xml version="1.0" encoding="utf-8"?>
<!DOCTYPE svg PUBLIC "-//W3C//DTD SVG 1.1//EN" "http://www.w3.org/Graphics/SVG/1.1/DTD/svg11.dtd">
<svg xmlns="http://www.w3.org/2000/svg" xmlns:xlink="http://www.w3.org/1999/xlink" version="1.1" baseProfile="full" width="24" height="24" viewBox="0 0 24.00 24.00" enable-background="new 0 0 24.00 24.00" xml:space="preserve">
	<path fill="#000000" fill-opacity="1" stroke-width="1.33333" stroke-linejoin="miter" d="M 1.27,1.73L 2.54313e-006,3L 2.01,5.01L 2,22L 6,18L 15,18L 20.73,23.73L 22,22.46L 1.27,1.73 Z M 8,14L 6,14L 6,12L 8,12L 8,14 Z M 6,11L 6,9L 8,11L 6,11 Z M 20,2L 4.08,2L 10,7.92L 10,6L 18,6L 18,8L 10.08,8L 11.08,9L 18,9L 18,11L 13.08,11L 20.07,17.99C 21.14,17.95 22,17.08 22,16L 22,4C 22,2.9 21.1,2 20,2 Z "/>
</svg>
