<?xml version="1.0" encoding="utf-8"?>
<!DOCTYPE svg PUBLIC "-//W3C//DTD SVG 1.1//EN" "http://www.w3.org/Graphics/SVG/1.1/DTD/svg11.dtd">
<svg xmlns="http://www.w3.org/2000/svg" xmlns:xlink="http://www.w3.org/1999/xlink" version="1.1" baseProfile="full" width="24" height="24" viewBox="0 0 24.00 24.00" enable-background="new 0 0 24.00 24.00" xml:space="preserve">
	<path fill="#000000" fill-opacity="1" stroke-width="0.2" stroke-linejoin="round" d="M 19.9994,1.99807C 21.1029,1.99807 21.9994,2.89307 21.9994,3.99807L 21.9994,15.9981C 21.9994,17.1021 21.1029,17.9981 19.9994,17.9981L 5.99938,17.9981L 1.99938,21.9981L 2.01038,3.99807C 2.01038,2.89307 2.89539,1.99807 3.99938,1.99807L 19.9994,1.99807 Z M 4.99971,4.99903L 4.9997,6.99903L 18.9997,6.99903L 18.9997,4.99903L 4.99971,4.99903 Z M 4.9997,8.99903L 4.9997,10.999L 12.9997,10.999L 12.9997,8.99903L 4.9997,8.99903 Z M 4.9997,12.999L 4.9997,14.999L 14.9997,14.999L 14.9997,12.999L 4.9997,12.999 Z "/>
</svg>
