<?xml version="1.0" encoding="utf-8"?>
<!DOCTYPE svg PUBLIC "-//W3C//DTD SVG 1.1//EN" "http://www.w3.org/Graphics/SVG/1.1/DTD/svg11.dtd">
<svg xmlns="http://www.w3.org/2000/svg" xmlns:xlink="http://www.w3.org/1999/xlink" version="1.1" baseProfile="full" width="24" height="24" viewBox="0 0 24.00 24.00" enable-background="new 0 0 24.00 24.00" xml:space="preserve">
	<path fill="#000000" fill-opacity="1" stroke-width="0.2" stroke-linejoin="round" d="M 17.2982,10.998C 17.2982,13.998 14.7612,16.098 11.9992,16.098C 9.23719,16.098 6.6992,13.998 6.6992,10.998L 4.9992,10.998C 4.9992,14.413 7.7182,17.231 10.9992,17.7161L 10.9992,20.998L 12.9992,20.998L 12.9992,17.7161C 16.2782,17.231 18.9992,14.413 18.9992,10.998M 10.7992,4.89807C 10.7992,4.23602 11.3382,3.69806 11.9992,3.69806C 12.6602,3.69806 13.1982,4.23907 13.1982,4.89807L 13.1902,11.098C 13.1902,11.7601 12.6552,12.298 11.9992,12.298C 11.3382,12.298 10.7992,11.7601 10.7992,11.098M 11.9992,13.998C 13.6562,13.998 14.9892,12.6541 14.9892,10.998L 14.9982,4.99805C 14.9982,3.34003 13.6562,1.99805 11.9992,1.99805C 10.3432,1.99805 8.9992,3.34003 8.9992,4.99805L 8.9992,10.998C 8.9992,12.6541 10.3432,13.998 11.9992,13.998 Z "/>
</svg>
