<?xml version="1.0" encoding="utf-8"?>
<!DOCTYPE svg PUBLIC "-//W3C//DTD SVG 1.1//EN" "http://www.w3.org/Graphics/SVG/1.1/DTD/svg11.dtd">
<svg xmlns="http://www.w3.org/2000/svg" xmlns:xlink="http://www.w3.org/1999/xlink" version="1.1" baseProfile="full" width="24" height="24" viewBox="0 0 24.00 24.00" enable-background="new 0 0 24.00 24.00" xml:space="preserve">
	<path fill="#000000" fill-opacity="1" stroke-width="0.2" stroke-linejoin="round" d="M 18.9995,11.1364C 18.9995,12.3263 18.6635,13.4413 18.0945,14.4133L 16.8655,13.1843C 17.1425,12.5693 17.2995,11.8804 17.2995,11.1364L 18.9995,11.1364 Z M 14.9829,11.3016L 9.00089,5.31966L 9.00089,5.13664C 9.00089,3.47864 10.3429,2.13664 11.9999,2.13664C 13.6549,2.13664 14.9999,3.47864 14.9999,5.13664L 14.9999,11.1366L 14.9829,11.3016 Z M 4.27238,3.13684L 20.9994,19.8639L 19.7264,21.1368L 15.5404,16.9498C 14.7654,17.4039 13.9054,17.7198 12.9994,17.8538L 12.9994,21.1368L 10.9994,21.1368L 10.9994,17.8538C 7.72038,17.3699 4.99939,14.5509 4.99939,11.1368L 6.7004,11.1368C 6.7004,14.1368 9.23739,16.2358 11.9994,16.2358C 12.8094,16.2358 13.5974,16.0509 14.3104,15.7198L 12.6504,14.0609L 11.9994,14.1368C 10.3434,14.1368 9.00938,12.7928 9.00938,11.1368L 9.00838,10.4178L 2.99939,4.40983L 4.27238,3.13684 Z "/>
</svg>
