<?xml version="1.0" encoding="utf-8"?>
<!DOCTYPE svg PUBLIC "-//W3C//DTD SVG 1.1//EN" "http://www.w3.org/Graphics/SVG/1.1/DTD/svg11.dtd">
<svg xmlns="http://www.w3.org/2000/svg" xmlns:xlink="http://www.w3.org/1999/xlink" version="1.1" baseProfile="full" width="24" height="24" viewBox="0 0 24.00 24.00" enable-background="new 0 0 24.00 24.00" xml:space="preserve">
	<path fill="#000000" fill-opacity="1" stroke-width="1.33333" stroke-linejoin="miter" d="M 8,2C 6.89543,2 6,2.8954 6,4L 6,11L 4,13L 4,20C 3.98737,21.1045 4.89543,22 6,22L 18,22C 19.1046,22 20,21.1046 20,20L 20,4C 20,2.8954 19.1046,2 18,2L 8,2 Z M 9,4L 11,4L 11,8L 9,8L 9,4 Z M 12,4L 14,4L 14,8L 12,8L 12,4 Z M 15,4L 17,4L 17,8L 15,8L 15,4 Z "/>
</svg>
