<?xml version="1.0" encoding="utf-8"?>
<!DOCTYPE svg PUBLIC "-//W3C//DTD SVG 1.1//EN" "http://www.w3.org/Graphics/SVG/1.1/DTD/svg11.dtd">
<svg xmlns="http://www.w3.org/2000/svg" xmlns:xlink="http://www.w3.org/1999/xlink" version="1.1" baseProfile="full" width="24" height="24" viewBox="0 0 24.00 24.00" enable-background="new 0 0 24.00 24.00" xml:space="preserve">
	<path fill="#000000" fill-opacity="1" stroke-width="1.33333" stroke-linejoin="miter" d="M 9,2C 10.6569,2 12,3.3431 12,5L 12,11C 12,12.6569 10.6569,14 9,14C 7.34315,14 6,12.6569 6,11L 6,5C 6,3.3431 7.34315,2 9,2 Z M 16,11C 16.0009,14.4804 13.4447,17.4328 10,17.93L 10,21L 8,21L 8,17.93C 4.55532,17.4328 1.99911,14.4804 2,11L 4,11C 4,13.7614 6.23858,16 9,16C 11.7614,16 14,13.7614 14,11L 16,11 Z M 15,5L 23,5L 23,7L 15,7L 15,5 Z "/>
</svg>
