<?xml version="1.0" encoding="utf-8"?>
<!DOCTYPE svg PUBLIC "-//W3C//DTD SVG 1.1//EN" "http://www.w3.org/Graphics/SVG/1.1/DTD/svg11.dtd">
<svg xmlns="http://www.w3.org/2000/svg" xmlns:xlink="http://www.w3.org/1999/xlink" version="1.1" baseProfile="full" width="24" height="24" viewBox="0 0 24.00 24.00" enable-background="new 0 0 24.00 24.00" xml:space="preserve">
	<path fill="#000000" fill-opacity="1" stroke-linejoin="round" d="M 19,10L 17.3,10C 17.3,13 14.76,15.1 12,15.1C 9.24,15.1 6.7,13 6.7,10L 5,10C 5,13.41 7.72,16.23 11,16.72L 11,20L 13,20L 13,16.72C 16.28,16.23 19,13.41 19,10 Z M 15,24L 17,24L 17,22L 15,22M 11,24L 13,24L 13,22L 11,22M 12,13C 13.66,13 14.99,11.66 14.99,10L 15,4C 15,2.34 13.66,1 12,1C 10.34,1 9,2.34 9,4L 9,10C 9,11.66 10.34,13 12,13 Z M 7,24L 9,24L 9,22L 7,22L 7,24 Z "/>
</svg>
