<?xml version="1.0" encoding="utf-8"?>
<!DOCTYPE svg PUBLIC "-//W3C//DTD SVG 1.1//EN" "http://www.w3.org/Graphics/SVG/1.1/DTD/svg11.dtd">
<svg xmlns="http://www.w3.org/2000/svg" xmlns:xlink="http://www.w3.org/1999/xlink" version="1.1" baseProfile="full" width="24" height="24" viewBox="0 0 24.00 24.00" enable-background="new 0 0 24.00 24.00" xml:space="preserve">
	<path fill="#000000" fill-opacity="1" stroke-width="1.33333" stroke-linejoin="miter" d="M 9.46484,6.2812L 11.0488,9.0234C 8.47394,9.2567 6.50157,11.4146 6.5,14C 6.5,16.7614 8.73858,19 11.5,19C 13.5503,19 15.3124,17.7659 16.084,16L 13.5,16L 13.5,14L 21.5,14L 21.5,16L 19.248,16C 18.8433,17.5724 17.9725,18.9578 16.7917,20L 19.5,20L 19.5,22L 3.5,22L 3.5,20L 6.20835,20C 4.54751,18.5341 3.5,16.3894 3.5,14C 3.50819,10.3723 5.95644,7.2041 9.46484,6.2812 Z M 12.741,2.06941L 13.491,3.3684L 14.3571,2.8684L 17.8571,8.9306L 14.3929,10.9306L 10.8929,4.8684L 11.759,4.3684L 11.009,3.0694L 12.741,2.06941 Z "/>
</svg>
