<?xml version="1.0" encoding="utf-8"?>
<!DOCTYPE svg PUBLIC "-//W3C//DTD SVG 1.1//EN" "http://www.w3.org/Graphics/SVG/1.1/DTD/svg11.dtd">
<svg xmlns="http://www.w3.org/2000/svg" xmlns:xlink="http://www.w3.org/1999/xlink" version="1.1" baseProfile="full" width="24" height="24" viewBox="0 0 24.00 24.00" enable-background="new 0 0 24.00 24.00" xml:space="preserve">
	<path fill="#000000" fill-opacity="1" stroke-width="0.2" stroke-linejoin="round" d="M 18.9994,9.99805L 17.2984,9.99805C 17.2984,12.998 14.7614,15.098 11.9994,15.098C 9.23738,15.098 6.69938,12.998 6.69938,9.99805L 4.99938,9.99805C 4.99938,13.413 7.71838,16.231 10.9994,16.7161L 10.9994,19.998L 12.9994,19.998L 12.9994,16.7161C 16.2784,16.231 18.9994,13.413 18.9994,9.99805 Z M 14.9994,23.998L 16.9994,23.998L 16.9994,21.998L 14.9994,21.998M 10.9994,23.998L 12.9994,23.998L 12.9994,21.998L 10.9994,21.998M 11.9994,12.998C 13.6564,12.998 14.9894,11.6541 14.9894,9.99805L 14.9984,3.99805C 14.9984,2.34003 13.6564,0.998047 11.9994,0.998047C 10.3434,0.998047 8.99938,2.34003 8.99938,3.99805L 8.99938,9.99805C 8.99938,11.6541 10.3434,12.998 11.9994,12.998 Z M 6.99938,23.998L 8.99938,23.998L 8.99938,21.998L 6.99938,21.998L 6.99938,23.998 Z "/>
</svg>
