<?xml version="1.0" encoding="utf-8"?>
<!DOCTYPE svg PUBLIC "-//W3C//DTD SVG 1.1//EN" "http://www.w3.org/Graphics/SVG/1.1/DTD/svg11.dtd">
<svg xmlns="http://www.w3.org/2000/svg" xmlns:xlink="http://www.w3.org/1999/xlink" version="1.1" baseProfile="full" width="24" height="24" viewBox="0 0 24.00 24.00" enable-background="new 0 0 24.00 24.00" xml:space="preserve">
	<path fill="#000000" fill-opacity="1" stroke-width="0.2" stroke-linejoin="round" d="M 9,3C 11.2091,3 13,4.79086 13,7L 5,7C 5,4.79086 6.79086,3 9,3 Z M 11.8392,9.81759L 11,18L 10,18L 10,19C 9.99999,20.1046 10.8954,21 12,21C 13.1046,21 14,20.1046 14,19L 14,14C 14,11.7909 15.7909,10 18,10L 20,10L 19,11L 20,12L 18,12C 16.8954,12 16,12.8954 16,14L 16,19C 16,21.2091 14.2091,23 12,23C 9.79087,23 8,21.2091 8,19L 8,18L 7,18L 6.16078,9.81759C 5.66869,9.32175 5.30559,8.69771 5.12602,8L 12.874,8C 12.6944,8.69771 12.3313,9.32175 11.8392,9.81759 Z M 9,11C 8.44771,11 8,11.4477 8,12C 8,12.5523 8.44771,13 9,13C 9.55229,13 10,12.5523 10,12C 10,11.4477 9.55229,11 9,11 Z "/>
</svg>
