<?xml version="1.0" encoding="utf-8"?>
<!DOCTYPE svg PUBLIC "-//W3C//DTD SVG 1.1//EN" "http://www.w3.org/Graphics/SVG/1.1/DTD/svg11.dtd">
<svg xmlns="http://www.w3.org/2000/svg" xmlns:xlink="http://www.w3.org/1999/xlink" version="1.1" baseProfile="full" width="24" height="24" viewBox="0 0 24.00 24.00" enable-background="new 0 0 24.00 24.00" xml:space="preserve">
	<path fill="#000000" fill-opacity="1" stroke-linejoin="round" d="M 10,7L 12,7L 12,15L 10,15L 10,7 Z M 13,7.00001L 19,7.00001C 19.5523,7.00001 20,7.44773 20,8.00001L 20,14C 20,14.5523 19.5523,15 19,15L 13,15L 13,10L 15,10L 15,13L 18,13L 18,9.00001L 13,9.00001L 13,7.00001 Z M 21,7.00001L 23,7.00001L 23,15L 21,15L 21,7.00001 Z M 1,7.00001L 3,7.00001L 8,7.00001C 8.55228,7.00001 9,7.44772 9,8L 9,15L 7,15L 7,9L 6,9L 6,15L 4,15L 4,9L 3,9L 3,15L 1,15L 1,7.00001 Z M 1,16L 23,16L 23,19L 1,19L 1,16 Z "/>
</svg>
