<?xml version="1.0" encoding="utf-8"?>
<!DOCTYPE svg PUBLIC "-//W3C//DTD SVG 1.1//EN" "http://www.w3.org/Graphics/SVG/1.1/DTD/svg11.dtd">
<svg xmlns="http://www.w3.org/2000/svg" xmlns:xlink="http://www.w3.org/1999/xlink" version="1.1" baseProfile="full" width="24" height="24" viewBox="0 0 24.00 24.00" enable-background="new 0 0 24.00 24.00" xml:space="preserve">
	<path fill="#000000" fill-opacity="1" stroke-width="1.33333" stroke-linejoin="miter" d="M 12,2C 17.5228,2 22,6.47718 22,12C 22,17.5228 17.5228,22 12,22C 6.47715,22 2,17.5228 2,12C 2,6.47718 6.47715,2 12,2 Z M 20.1818,12C 20.1818,8.18052 17.5466,4.96115 14,4.06575L 14,6.00001L 10,6.00001L 10,4.06575C 6.45341,4.96115 3.81818,8.18052 3.81818,12C 3.81818,16.5091 7.49091,20.1818 12,20.1818C 16.5091,20.1818 20.1818,16.5091 20.1818,12 Z M 7,10.6364C 7.75312,10.6364 8.36364,11.2469 8.36364,12C 8.36364,12.7531 7.75312,13.3636 7,13.3636C 6.24688,13.3636 5.63636,12.7531 5.63636,12C 5.63636,11.2469 6.24688,10.6364 7,10.6364 Z M 17,10.6364C 17.7531,10.6364 18.3636,11.2469 18.3636,12C 18.3636,12.7531 17.7531,13.3636 17,13.3636C 16.2469,13.3636 15.6364,12.7531 15.6364,12C 15.6364,11.2469 16.2469,10.6364 17,10.6364 Z M 8.36364,14.2727C 9.11675,14.2727 9.72727,14.8832 9.72727,15.6364C 9.72727,16.3895 9.11675,17 8.36364,17C 7.61052,17 7,16.3895 7,15.6364C 7,14.8832 7.61052,14.2727 8.36364,14.2727 Z M 15.6364,14.2727C 16.3895,14.2727 17,14.8832 17,15.6364C 17,16.3895 16.3895,17 15.6364,17C 14.8833,17 14.2727,16.3895 14.2727,15.6364C 14.2727,14.8832 14.8833,14.2727 15.6364,14.2727 Z M 12,15.6364C 12.7531,15.6364 13.3636,16.2469 13.3636,17C 13.3636,17.7531 12.7531,18.3636 12,18.3636C 11.2469,18.3636 10.6364,17.7531 10.6364,17C 10.6364,16.2469 11.2469,15.6364 12,15.6364 Z "/>
</svg>
