<?xml version="1.0" encoding="utf-8"?>
<!DOCTYPE svg PUBLIC "-//W3C//DTD SVG 1.1//EN" "http://www.w3.org/Graphics/SVG/1.1/DTD/svg11.dtd">
<svg xmlns="http://www.w3.org/2000/svg" xmlns:xlink="http://www.w3.org/1999/xlink" version="1.1" baseProfile="full" width="24" height="24" viewBox="0 0 24.00 24.00" enable-background="new 0 0 24.00 24.00" xml:space="preserve">
	<path fill="#000000" fill-opacity="1" stroke-width="0.2" stroke-linejoin="round" d="M 4,2L 20,2C 21.1046,2 22,2.89543 22,4L 22,20C 22,21.1046 21.1046,22 20,22L 4,22C 2.89543,22 2,21.1046 2,20L 2,4C 2,2.89543 2.89543,2 4,2 Z M 6,6.00001L 6,10L 10,10L 10,12L 8,12L 8,18L 10,18L 10,16L 14,16L 14,18L 16,18L 16,12L 14,12L 14,10L 18,10L 18,6.00001L 14,6.00001L 14,10L 10,10L 10,6.00001L 6,6.00001 Z "/>
</svg>
