<?xml version="1.0" encoding="utf-8"?>
<!DOCTYPE svg PUBLIC "-//W3C//DTD SVG 1.1//EN" "http://www.w3.org/Graphics/SVG/1.1/DTD/svg11.dtd">
<svg xmlns="http://www.w3.org/2000/svg" xmlns:xlink="http://www.w3.org/1999/xlink" version="1.1" baseProfile="full" width="24" height="24" viewBox="0 0 24.00 24.00" enable-background="new 0 0 24.00 24.00" xml:space="preserve">
	<g>
		<path fill="#000000" fill-opacity="1" stroke-width="1.33333" stroke-linejoin="miter" d="M 23,13L 23,11L 19.93,11C 19.752,9.5776 19.1922,8.2299 18.31,7.1L 20.49,4.93L 19.07,3.51L 16.9,5.69C 15.7701,4.8078 14.4224,4.248 13,4.07L 13,1L 11,1L 11,4.07C 9.5776,4.248 8.22993,4.8078 7.1,5.69L 4.93,3.51L 3.51,4.93L 5.69,7.1C 4.80784,8.2299 4.24804,9.5776 4.07,11L 1,11L 1,13L 4.07,13C 4.24804,14.4224 4.80784,15.7701 5.69,16.9L 3.51,19.07L 4.93,20.49L 7.1,18.31C 8.22993,19.1922 9.5776,19.752 11,19.93L 11,23L 13,23L 13,19.93C 14.4224,19.752 15.7701,19.1922 16.9,18.31L 19.07,20.49L 20.49,19.07L 18.31,16.9C 19.1922,15.7701 19.752,14.4224 19.93,13L 23,13 Z M 12,8C 9.79086,8 8,9.7909 8,12L 6,12C 6,8.6863 8.68629,6 12,6L 12,8 Z "/>
	</g>
</svg>
