<?xml version="1.0" encoding="utf-8"?>
<!DOCTYPE svg PUBLIC "-//W3C//DTD SVG 1.1//EN" "http://www.w3.org/Graphics/SVG/1.1/DTD/svg11.dtd">
<svg xmlns="http://www.w3.org/2000/svg" xmlns:xlink="http://www.w3.org/1999/xlink" version="1.1" baseProfile="full" width="24" height="24" viewBox="0 0 24.00 24.00" enable-background="new 0 0 24.00 24.00" xml:space="preserve">
	<path fill="#000000" fill-opacity="1" stroke-width="1.33333" stroke-linejoin="miter" d="M 5,3C 3.89,3 3,3.89 3,5L 3,19C 3,20.1046 3.89543,21 5,21L 19,21C 20.1046,21 21,20.1046 21,19L 21,5C 21,3.89 20.1,3 19,3L 5,3 Z M 12,5C 15.0931,5.0031 17.8174,7.0359 18.7012,10L 16,10C 15.4477,10 15,10.4477 15,11L 15,13C 15,13.5523 15.4477,14 16,14L 18.7051,14C 17.8209,16.9655 15.0945,18.9986 12,19C 8.13401,19 5,15.866 5,12C 5,8.134 8.13401,5 12,5 Z M 12,10C 10.8954,10 10,10.8954 10,12C 10,13.1046 10.8954,14 12,14C 13.1046,14 14,13.1046 14,12C 14,10.8954 13.1046,10 12,10 Z "/>
</svg>
