<?xml version="1.0" encoding="utf-8"?>
<!DOCTYPE svg PUBLIC "-//W3C//DTD SVG 1.1//EN" "http://www.w3.org/Graphics/SVG/1.1/DTD/svg11.dtd">
<svg xmlns="http://www.w3.org/2000/svg" xmlns:xlink="http://www.w3.org/1999/xlink" version="1.1" baseProfile="full" width="24" height="24" viewBox="0 0 24.00 24.00" enable-background="new 0 0 24.00 24.00" xml:space="preserve">
	<path fill="#000000" fill-opacity="1" stroke-width="0.2" stroke-linejoin="round" d="M 11.9994,19.9983C 7.58838,19.9983 3.99939,16.4092 3.99939,11.9983C 3.99939,7.58724 7.58838,3.99825 11.9994,3.99825C 16.4104,3.99825 19.9994,7.58724 19.9994,11.9983C 19.9994,16.4092 16.4104,19.9983 11.9994,19.9983 Z M 11.9994,1.99825C 6.47638,1.99825 1.99939,6.47524 1.99939,11.9983C 1.99939,17.5212 6.47638,21.9983 11.9994,21.9983C 17.5224,21.9983 21.9994,17.5212 21.9994,11.9983C 21.9994,6.47524 17.5224,1.99825 11.9994,1.99825 Z M 6.99939,12.9983L 16.9994,12.9983L 16.9994,10.9983L 6.99939,10.9983"/>
</svg>
