<?xml version="1.0" encoding="utf-8"?>
<!DOCTYPE svg PUBLIC "-//W3C//DTD SVG 1.1//EN" "http://www.w3.org/Graphics/SVG/1.1/DTD/svg11.dtd">
<svg xmlns="http://www.w3.org/2000/svg" xmlns:xlink="http://www.w3.org/1999/xlink" version="1.1" baseProfile="full" width="24" height="24" viewBox="0 0 24.00 24.00" enable-background="new 0 0 24.00 24.00" xml:space="preserve">
	<path fill="#000000" fill-opacity="1" stroke-width="1.33333" stroke-linejoin="miter" d="M 15,9.9844L 15,6.9844L 6.98438,6.9844L 6.98438,9.9844L 15,9.9844 Z M 18,6.9844C 18.2813,6.9844 18.5156,7.0859 18.7031,7.2891C 18.8906,7.4922 18.9844,7.7344 18.9844,8.0156L 18.9844,10.7812C 18.9844,10.9687 18.9687,11.1094 18.9375,11.2031L 18.1406,15.1875C 18.0156,15.7187 17.7031,15.9844 17.2031,15.9844L 6.79688,15.9844C 6.26563,15.9844 5.95313,15.7187 5.85938,15.1875L 5.0625,11.2031C 5.03125,11.1094 5.01563,10.9687 5.01563,10.7812L 5.01563,5.0156C 5.01563,4.4844 5.21094,4.0156 5.60156,3.6094C 5.99219,3.2031 6.45313,3 6.98438,3L 15,3C 15.5313,3 16,3.2031 16.4063,3.6094C 16.8125,4.0156 17.0156,4.4844 17.0156,5.0156L 17.0156,8.0156C 17.0156,7.7344 17.1094,7.4922 17.2969,7.2891C 17.4844,7.0859 17.7188,6.9844 18,6.9844 Z M 6.98438,20.0156L 6.98438,17.0156L 17.0156,17.0156L 17.0156,20.0156C 17.0156,20.2969 16.9141,20.5312 16.7109,20.7187C 16.5078,20.9062 16.2656,21 15.9844,21L 8.01563,21C 7.73438,21 7.49219,20.9062 7.28906,20.7187C 7.08594,20.5312 6.98438,20.2969 6.98438,20.0156 Z "/>
</svg>
