<?xml version="1.0" encoding="utf-8"?>
<!DOCTYPE svg PUBLIC "-//W3C//DTD SVG 1.1//EN" "http://www.w3.org/Graphics/SVG/1.1/DTD/svg11.dtd">
<svg xmlns="http://www.w3.org/2000/svg" xmlns:xlink="http://www.w3.org/1999/xlink" version="1.1" baseProfile="full" width="24" height="24" viewBox="0 0 24.00 24.00" enable-background="new 0 0 24.00 24.00" xml:space="preserve">
	<path fill="#000000" fill-opacity="1" stroke-width="1.33333" stroke-linejoin="miter" d="M 5,3L 19,3C 20.1,3 21,3.9 21,5L 21,19C 21,20.1 20.1,21 19,21L 5,21C 3.89,21 3,20.1 3,19L 3,5C 3,3.9 3.89,3 5,3 Z M 8.25,15L 9.75,15L 10.75,11.5714L 10.75,15L 12.25,15L 12.25,9L 10,9.00001L 9,12.4297L 8,9.00001L 5.75,9L 5.75,15L 7.25,15L 7.25,11.5714L 8.25,15 Z M 13.5,9.00001L 13.5,15L 15,15L 15,13L 16.1504,13L 17,15L 18.5,15L 17.5996,12.9004C 18.0996,12.6504 18.5,12.1 18.5,11.5L 18.5,10.5C 18.5,9.65001 17.85,9.00001 17,9.00001L 13.5,9.00001 Z M 15,10.5L 17,10.5L 17,11.5L 15,11.5L 15,10.5 Z "/>
</svg>
