<?xml version="1.0" encoding="utf-8"?>
<!DOCTYPE svg PUBLIC "-//W3C//DTD SVG 1.1//EN" "http://www.w3.org/Graphics/SVG/1.1/DTD/svg11.dtd">
<svg xmlns="http://www.w3.org/2000/svg" xmlns:xlink="http://www.w3.org/1999/xlink" version="1.1" baseProfile="full" width="24" height="24" viewBox="0 0 24.00 24.00" enable-background="new 0 0 24.00 24.00" xml:space="preserve">
	<path fill="#000000" fill-opacity="1" stroke-linejoin="round" d="M 7.26795,10L 9,7L 14.4226,7L 15.5823,4.99137L 15.5,4.5C 15.5,3.67157 16.1716,3 17,3C 17.8284,3 18.5,3.67157 18.5,4.5C 18.5,5.21488 17.9999,5.81295 17.3305,5.96347L 16.366,7.63397L 17.7321,10L 18.5902,8.51359L 18.5,8C 18.5,7.17157 19.1716,6.5 20,6.5C 20.8284,6.5 21.5,7.17157 21.5,8C 21.5,8.70632 21.0118,9.29862 20.3544,9.45788L 18.8868,12L 20.6216,15.0049C 21.3932,15.0668 22,15.7125 22,16.5C 22,17.3284 21.3284,18 20.5,18C 19.6716,18 19,17.3284 19,16.5L 19.0231,16.2362L 17.7321,14L 16.366,16.366L 17.3305,18.0365C 17.9999,18.1871 18.5,18.7851 18.5,19.5C 18.5,20.3284 17.8284,21 17,21C 16.1716,21 15.5,20.3284 15.5,19.5L 15.5823,19.0086L 14.4226,17L 10.5774,17L 9.41767,19.0086L 9.5,19.5C 9.5,20.3284 8.82843,21 8,21C 7.17157,21 6.5,20.3284 6.5,19.5C 6.5,18.7851 7.00009,18.187 7.66952,18.0365L 8.63398,16.366L 4.37839,8.99514C 3.60684,8.93324 3,8.28749 3,7.5C 3,6.67158 3.67157,6 4.5,6C 5.32843,6 6,6.67158 6,7.5C 6,7.59001 5.99207,7.67816 5.97688,7.7638L 7.26795,10 Z M 10.1547,9.00002L 8.42264,12L 10.1547,15L 14.8453,15L 16.5773,12L 14.8453,9.00002L 10.1547,9.00002 Z "/>
</svg>
