<?xml version="1.0" encoding="utf-8"?>
<!DOCTYPE svg PUBLIC "-//W3C//DTD SVG 1.1//EN" "http://www.w3.org/Graphics/SVG/1.1/DTD/svg11.dtd">
<svg xmlns="http://www.w3.org/2000/svg" xmlns:xlink="http://www.w3.org/1999/xlink" version="1.1" baseProfile="full" width="24" height="24" viewBox="0 0 24.00 24.00" enable-background="new 0 0 24.00 24.00" xml:space="preserve">
	<path fill="#000000" fill-opacity="1" stroke-width="0.2" stroke-linejoin="round" d="M 21.9991,17.0001L 21.9991,7.00012L 5.99915,7.00012L 5.99915,17.0001L 21.9991,17.0001 Z M 21.9991,5.00012C 23.1031,5.00012 23.9991,5.89612 23.9991,7.00012L 23.9991,17.0001C 23.9991,18.1051 23.1031,19.0001 21.9991,19.0001L 15.9993,19L 15.9993,21L 17.9993,21L 17.9993,23L 9.99927,23L 9.99927,21L 11.9993,21L 11.9993,19L 5.99915,19.0001C 4.89412,19.0001 3.99915,18.1051 3.99915,17.0001L 3.99915,7.00012C 3.99915,5.89612 4.89412,5.00012 5.99915,5.00012L 21.9991,5.00012 Z M 2,3.00183L 2,15.0018L -3.17891e-007,15.0018L -3.17891e-007,3.00183C -3.17891e-007,1.89783 0.894978,1.00183 2,1.00183L 20,1.00183L 20,3.00182L 2,3.00183 Z "/>
</svg>
