<?xml version="1.0" encoding="utf-8"?>
<!DOCTYPE svg PUBLIC "-//W3C//DTD SVG 1.1//EN" "http://www.w3.org/Graphics/SVG/1.1/DTD/svg11.dtd">
<svg xmlns="http://www.w3.org/2000/svg" xmlns:xlink="http://www.w3.org/1999/xlink" version="1.1" baseProfile="full" width="24" height="24" viewBox="0 0 24.00 24.00" enable-background="new 0 0 24.00 24.00" xml:space="preserve">
	<path fill="#000000" fill-opacity="1" stroke-width="0.2" stroke-linejoin="round" d="M 20.9994,15.9981L 2.99939,15.9981L 2.99939,3.99807L 20.9994,3.99807M 20.9994,1.99807L 2.99939,1.99807C 1.89438,1.99807 0.99939,2.89406 0.99939,3.99807L 0.99939,15.9981C 0.99939,17.1031 1.89438,17.9981 2.99939,17.9981L 9.99939,17.9981L 9.99939,19.9981L 7.99939,19.9981L 7.99939,21.9981L 15.9994,21.9981L 15.9994,19.9981L 13.9994,19.9981L 13.9994,17.9981L 20.9994,17.9981C 22.1034,17.9981 22.9994,17.1031 22.9994,15.9981L 22.9994,3.99807C 22.9994,2.89406 22.1034,1.99807 20.9994,1.99807 Z "/>
</svg>
