<?xml version="1.0" encoding="utf-8"?>
<!DOCTYPE svg PUBLIC "-//W3C//DTD SVG 1.1//EN" "http://www.w3.org/Graphics/SVG/1.1/DTD/svg11.dtd">
<svg xmlns="http://www.w3.org/2000/svg" xmlns:xlink="http://www.w3.org/1999/xlink" version="1.1" baseProfile="full" width="24" height="24" viewBox="0 0 24.00 24.00" enable-background="new 0 0 24.00 24.00" xml:space="preserve">
	<path fill="#000000" fill-opacity="1" stroke-width="1.33333" stroke-linejoin="miter" d="M 23,11.01L 18,11C 17.45,11 17,11.45 17,12L 17,21C 17,21.55 17.45,22 18,22L 23,22C 23.55,22 24,21.55 24,21L 24,12C 24,11.45 23.55,11.01 23,11.01 Z M 23,20L 18,20L 18,13L 23,13L 23,20 Z M 20,2L 2,2C 0.890001,2 1.27157e-006,2.89 1.27157e-006,4L 1.27157e-006,16C 1.27157e-006,17.1 0.890001,18 2,18L 9,18L 9,20L 7,20L 7,22L 15,22L 15,20L 13,20L 13,18L 15,18L 15,16L 2,16L 2,4L 20,4L 20,9L 22,9L 22,4C 22,2.89 21.1,2 20,2 Z "/>
</svg>
