<?xml version="1.0" encoding="utf-8"?>
<!DOCTYPE svg PUBLIC "-//W3C//DTD SVG 1.1//EN" "http://www.w3.org/Graphics/SVG/1.1/DTD/svg11.dtd">
<svg xmlns="http://www.w3.org/2000/svg" xmlns:xlink="http://www.w3.org/1999/xlink" version="1.1" baseProfile="full" width="24" height="24" viewBox="0 0 24.00 24.00" enable-background="new 0 0 24.00 24.00" xml:space="preserve">
	<path fill="#000000" fill-opacity="1" stroke-width="0.2" stroke-linejoin="round" d="M 20.5,13C 21.88,13 23,14.12 23,15.5L 23,16C 23.55,16 24,16.45 24,17L 24,21C 24,21.55 23.55,22 23,22L 18,22C 17.45,22 17,21.55 17,21L 17,17C 17,16.45 17.45,16 18,16L 18,15.5C 18,14.12 19.12,13 20.5,13 Z M 20.5,14C 19.6716,14 19,14.6716 19,15.5L 19,16L 22,16L 22,15.5C 22,14.6716 21.3284,14 20.5,14 Z M 19.9994,3.99807L 1.99939,3.99807L 1.99939,15.9981L 15,15.9981L 15,17.9981L 12.9994,17.9981L 12.9994,19.9981L 14.9994,19.9981L 14.9994,21.9981L 6.99939,21.9981L 6.99939,19.9981L 8.99939,19.9981L 8.99939,17.9981L 1.99939,17.9981C 0.894368,17.9981 -0.000610351,17.1031 -0.000610351,15.9981L -0.000610351,3.99807C -0.000610351,2.89407 0.894368,1.99808 1.99939,1.99808L 19.9994,1.99808C 21.1034,1.99808 21.9994,2.89407 21.9994,3.99807L 21.9994,11.5348C 21.4112,11.1947 20.7283,11 19.9994,11L 19.9994,3.99807 Z "/>
</svg>
