<?xml version="1.0" encoding="utf-8"?>
<!DOCTYPE svg PUBLIC "-//W3C//DTD SVG 1.1//EN" "http://www.w3.org/Graphics/SVG/1.1/DTD/svg11.dtd">
<svg xmlns="http://www.w3.org/2000/svg" xmlns:xlink="http://www.w3.org/1999/xlink" version="1.1" baseProfile="full" width="24" height="24" viewBox="0 0 24.00 24.00" enable-background="new 0 0 24.00 24.00" xml:space="preserve">
	<path fill="#000000" fill-opacity="1" stroke-width="1.33333" stroke-linejoin="miter" d="M 9,6L 5,6L 5,10L 7,10L 7,8L 9,8M 19,10L 17,10L 17,12L 15,12L 15,14L 19,14M 21,16L 3,16L 3,4L 21,4M 21,2L 3,2C 1.89,2 1,2.89 1,4L 1,16C 1,17.1046 1.89543,18 3,18L 10,18L 10,20L 8,20L 8,22L 16,22L 16,20L 14,20L 14,18L 21,18C 22.1046,18 23,17.1046 23,16L 23,4C 23,2.89 22.1,2 21,2"/>
</svg>
