<?xml version="1.0" encoding="utf-8"?>
<!DOCTYPE svg PUBLIC "-//W3C//DTD SVG 1.1//EN" "http://www.w3.org/Graphics/SVG/1.1/DTD/svg11.dtd">
<svg xmlns="http://www.w3.org/2000/svg" xmlns:xlink="http://www.w3.org/1999/xlink" version="1.1" baseProfile="full" width="24" height="24" viewBox="0 0 24.00 24.00" enable-background="new 0 0 24.00 24.00" xml:space="preserve">
	<path fill="#000000" fill-opacity="1" stroke-width="1.33333" stroke-linejoin="miter" d="M 20.9994,15.9981L 20.9994,3.99807L 2.99939,3.99807L 2.99939,15.9981L 20.9994,15.9981 Z M 20.9994,1.99808C 22.1034,1.99808 22.9994,2.89407 22.9994,3.99807L 22.9994,15.9981C 22.9994,17.1031 22.1034,17.9981 20.9994,17.9981L 13.9994,17.9981L 13.9994,19.9981L 15.9994,19.9981L 15.9994,21.9981L 7.99939,21.9981L 7.99939,19.9981L 9.99939,19.9981L 9.99939,17.9981L 2.99939,17.9981C 1.89437,17.9981 0.999389,17.1031 0.999389,15.9981L 0.999389,3.99807C 0.999389,2.89407 1.89437,1.99808 2.99939,1.99808L 20.9994,1.99808 Z M 5,6.00001L 14,5.99999L 14,11L 5,11L 5,6.00001 Z M 15,6.00001L 19,6.00001L 19,8.00001L 15,8.00001L 15,6.00001 Z M 19,9L 19,14L 15,14L 15,9L 19,9 Z M 5,12L 9,12L 9,14L 5,14L 5,12 Z M 10,12L 14,12L 14,14L 10,14L 10,12 Z "/>
</svg>
