<?xml version="1.0" encoding="utf-8"?>
<!DOCTYPE svg PUBLIC "-//W3C//DTD SVG 1.1//EN" "http://www.w3.org/Graphics/SVG/1.1/DTD/svg11.dtd">
<svg xmlns="http://www.w3.org/2000/svg" xmlns:xlink="http://www.w3.org/1999/xlink" version="1.1" baseProfile="full" width="24" height="24" viewBox="0 0 24.00 24.00" enable-background="new 0 0 24.00 24.00" xml:space="preserve">
	<path fill="#000000" fill-opacity="1" stroke-width="1.33333" stroke-linejoin="miter" d="M 12,2C 13.66,2 15,3.34 15,5C 15,6.66 13.66,8 12,8C 10.34,8 9,6.66 9,5C 9,3.34 10.34,2 12,2M 20,18L 18,12.56C 17.65,11.57 17.34,10.71 16,10C 14.62,9.3 13.62,9 12,9C 10.37,9 9.38,9.3 8,10C 6.66,10.71 6.35,11.57 6,12.56L 4,18C 3.68,19.35 6.36,20.44 8.11,21.19L 8.11,19C 8.11,18.05 8.97,17.38 10.69,16.97C 10.85,16.93 10.98,16.91 11.12,16.89C 10.58,16.07 10.36,15.34 10.34,15.28L 12.11,14.68C 12.12,14.7 12.63,16.27 13.84,17.06C 14.05,17.13 14.26,17.21 14.46,17.3C 15.23,17.64 15.69,18.08 15.84,18.61C 14.5,19.14 13.22,19.41 12,19.41L 11,19.31L 11,21.94L 12,22C 13.37,22 14.67,21.72 15.89,21.19C 17.64,20.44 20.25,19.13 20,18 Z M 15.5,17C 14.67,17 14,16.33 14,15.5C 14,14.67 14.67,14 15.5,14C 16.33,14 17,14.67 17,15.5C 17,16.33 16.33,17 15.5,17 Z "/>
</svg>
