<?xml version="1.0" encoding="utf-8"?>
<!DOCTYPE svg PUBLIC "-//W3C//DTD SVG 1.1//EN" "http://www.w3.org/Graphics/SVG/1.1/DTD/svg11.dtd">
<svg xmlns="http://www.w3.org/2000/svg" xmlns:xlink="http://www.w3.org/1999/xlink" version="1.1" baseProfile="full" width="24" height="24" viewBox="0 0 24.00 24.00" enable-background="new 0 0 24.00 24.00" xml:space="preserve">
	<path fill="#000000" fill-opacity="1" stroke-width="1.33333" stroke-linejoin="miter" d="M 10,0.19729C 9.00501,0.19729 8.19923,1.00399 8.19923,1.99999C 8.19923,2.99199 9.00501,3.79879 10,3.79879C 10.992,3.79879 11.7988,2.99199 11.7988,1.99999C 11.7988,1.00399 10.992,0.19729 10,0.19729 Z M 15.666,0.99999C 15.666,5.04999 18.9507,8.33399 23,8.33399L 23,6.99999C 19.686,6.99999 17,4.31399 17,0.99999L 15.666,0.99999 Z M 18.334,0.99999C 18.334,3.57729 20.4232,5.66599 23,5.66599L 23,4.33399C 21.1587,4.33399 19.666,2.84129 19.666,0.99999L 18.334,0.99999 Z M 21,0.99999C 21,2.10399 21.8958,2.99999 23,2.99999L 23,0.99999L 21,0.99999 Z M 7.91603,4.03319C 7.74503,4.03319 7.57884,4.05849 7.42384,4.10549L 2.00001,5.79879L 2.00001,10.998L 3.79884,10.998L 3.79884,7.33199L 5.90626,6.67379L 2.00001,21.998L 3.79884,21.998L 6.66798,13.8906L 9.00001,16.998L 9.00001,21.998L 10.7988,21.998L 10.7988,15.5918L 8.31056,11.0527L 9.04298,8.18359L 10.1172,9.99799L 15,9.99799L 15,8.19729L 11.377,8.19729L 9.37696,4.86719C 9.08096,4.36819 8.53803,4.03319 7.91603,4.03319 Z "/>
</svg>
