<?xml version="1.0" encoding="utf-8"?>
<!DOCTYPE svg PUBLIC "-//W3C//DTD SVG 1.1//EN" "http://www.w3.org/Graphics/SVG/1.1/DTD/svg11.dtd">
<svg xmlns="http://www.w3.org/2000/svg" xmlns:xlink="http://www.w3.org/1999/xlink" version="1.1" baseProfile="full" width="24" height="24" viewBox="0 0 24.00 24.00" enable-background="new 0 0 24.00 24.00" xml:space="preserve">
	<path fill="#000000" fill-opacity="1" stroke-width="1.33333" stroke-linejoin="miter" d="M 17.42,10.01L 13.41,6L 9,6L 9,8L 12.59,8L 14.59,10L 6.49,10C 4.01,10 2,12.02 2,14.5C 2,16.99 4.01,19 6.5,19C 8.72,19 10.56,17.38 10.92,15.27L 13.04,14C 13.02,14.17 13,14.33 13,14.5C 13,16.99 15.01,19 17.5,19C 19.99,19 22,16.99 22,14.5C 22,12.01 19.99,10 17.5,10 Z M 8.84,15.26C 8.52,16.27 7.58,17 6.47,17C 5.09,17 3.97,15.88 3.97,14.5C 3.97,13.12 5.09,12 6.47,12C 7.59,12 8.52,12.74 8.84,13.75L 6,13.75L 6,15.25L 8.84,15.26 Z M 17.47,17C 16.09,17 14.97,15.88 14.97,14.5C 14.97,13.12 16.09,12 17.47,12C 18.85,12 19.97,13.12 19.97,14.5C 19.97,15.88 18.85,17 17.47,17 Z "/>
</svg>
