<?xml version="1.0" encoding="utf-8"?>
<!DOCTYPE svg PUBLIC "-//W3C//DTD SVG 1.1//EN" "http://www.w3.org/Graphics/SVG/1.1/DTD/svg11.dtd">
<svg xmlns="http://www.w3.org/2000/svg" xmlns:xlink="http://www.w3.org/1999/xlink" version="1.1" baseProfile="full" width="24" height="24" viewBox="0 0 24.00 24.00" enable-background="new 0 0 24.00 24.00" xml:space="preserve">
	<path fill="#000000" fill-opacity="1" stroke-width="0.2" stroke-linejoin="round" d="M 20,7L 20.5,7L 23.3496,9.8496L 21.2109,12L 23.3496,14.1406L 20.5,17L 20,17L 20,13.209L 17.7109,15.5L 17,14.7891L 19.7891,12L 17,9.209L 17.7109,8.5L 20,10.7891L 20,7 Z M 21,8.91021L 21,10.7891L 21.9395,9.84961L 21,8.91021 Z M 21,13.209L 21,15.0801L 21.9395,14.1406L 21,13.209 Z M 15,9.00002L 15,10L 9,10L 9,2.07092C 12.3923,2.55615 15,5.47355 15,9.00002 Z M 0.999997,10L 0.999997,9.00002C 0.999997,5.47355 3.6077,2.55614 7,2.07092L 7,10L 0.999997,10 Z M 15,15C 15,18.866 11.866,22 7.99999,22C 4.134,22 0.999996,18.866 0.999996,15L 0.999995,12L 15,12L 15,15 Z "/>
</svg>
