<?xml version="1.0" encoding="utf-8"?>
<!DOCTYPE svg PUBLIC "-//W3C//DTD SVG 1.1//EN" "http://www.w3.org/Graphics/SVG/1.1/DTD/svg11.dtd">
<svg xmlns="http://www.w3.org/2000/svg" xmlns:xlink="http://www.w3.org/1999/xlink" version="1.1" baseProfile="full" width="24" height="24" viewBox="0 0 24.00 24.00" enable-background="new 0 0 24.00 24.00" xml:space="preserve">
	<path fill="#000000" fill-opacity="1" stroke-width="0.2" stroke-linejoin="round" d="M 2,5.26848L 3.27711,4L 20,20.7229L 18.7315,22L 17.5198,20.7883C 16.0841,22.1576 14.1399,22.9984 11.9994,22.9984C 7.58138,22.9984 3.99939,19.4164 3.99939,14.9984L 3.99939,10.9984L 7.7299,10.9984L 5.7299,8.99837L 3.99939,8.99837C 3.99939,8.45904 4.0528,7.93229 4.15461,7.42309L 2,5.26848 Z M 10.9994,1.06737L 10.9994,8.99837L 10.8211,8.99837L 5.78589,3.9632C 7.05483,2.40247 8.90123,1.32957 10.9994,1.06737 Z M 19.9994,10.9984L 19.9994,14.9984C 19.9994,15.9489 19.8336,16.8608 19.5293,17.7066L 12.8211,10.9984L 19.9994,10.9984 Z M 12.9994,1.06737C 16.9444,1.56037 19.9994,4.91938 19.9994,8.99838L 12.9994,8.99838L 12.9994,1.06737 Z "/>
</svg>
