<?xml version="1.0" encoding="utf-8"?>
<!DOCTYPE svg PUBLIC "-//W3C//DTD SVG 1.1//EN" "http://www.w3.org/Graphics/SVG/1.1/DTD/svg11.dtd">
<svg xmlns="http://www.w3.org/2000/svg" xmlns:xlink="http://www.w3.org/1999/xlink" version="1.1" baseProfile="full" width="24" height="24" viewBox="0 0 24.00 24.00" enable-background="new 0 0 24.00 24.00" xml:space="preserve">
	<path fill="#000000" fill-opacity="1" stroke-width="0.2" stroke-linejoin="round" d="M 1.88,0.463751L 0.463753,1.88L 5.58625,7.0025L 2.0025,7.0025L 2.0025,8.99875L 8.99875,8.99875L 8.99875,2.0025L 7.0025,2.0025L 7.0025,5.58625M 11.0013,7.0025L 11.0013,8.98875L 21.0013,8.98875L 21.0013,15L 22.9975,15L 22.9975,8.99875C 22.9975,7.9 22.1,7.0025 21.0013,7.0025M 7.0025,11.0012L 7.0025,21.0012C 7.0025,22.1 7.9,22.9975 8.99875,22.9975L 15,22.9975L 15,21.0113L 8.99875,21.0113L 8.99875,11.0012M 15.8788,14.4625L 14.4625,15.8787L 19.595,21.0113L 17.0025,21.0113L 17.0025,22.9975L 22.9975,22.9975L 22.9975,17.0025L 21.0013,17.0025L 21.0013,19.585"/>
</svg>
