<?xml version="1.0" encoding="utf-8"?>
<!DOCTYPE svg PUBLIC "-//W3C//DTD SVG 1.1//EN" "http://www.w3.org/Graphics/SVG/1.1/DTD/svg11.dtd">
<svg xmlns="http://www.w3.org/2000/svg" xmlns:xlink="http://www.w3.org/1999/xlink" version="1.1" baseProfile="full" width="24" height="24" viewBox="0 0 24.00 24.00" enable-background="new 0 0 24.00 24.00" xml:space="preserve">
	<path fill="#000000" fill-opacity="1" stroke-width="1.33333" stroke-linejoin="miter" d="M 12,2C 17.5228,2 22,6.47716 22,12C 22,17.5228 17.5228,22 12,22C 6.47715,22 2,17.5228 2,12C 2,6.47716 6.47715,2 12,2 Z M 12,4.00001C 10.6193,4.00001 9.5,5.1193 9.5,6.50001C 9.5,7.88072 10.6193,9.00001 12,9.00001C 13.3807,9.00001 14.5,7.88072 14.5,6.50001C 14.5,5.1193 13.3807,4.00001 12,4.00001 Z M 4.3983,9.52675C 3.97163,10.8399 4.69026,12.2503 6.00339,12.6769C 7.31653,13.1036 8.72691,12.385 9.15358,11.0718C 9.58024,9.7587 8.86161,8.34832 7.54848,7.92165C 6.23534,7.49499 4.82496,8.21362 4.3983,9.52675 Z M 19.6053,9.5218C 19.1786,8.20866 17.7682,7.49003 16.4551,7.9167C 15.142,8.34336 14.4233,9.75375 14.85,11.0669C 15.2767,12.38 16.6871,13.0986 18.0002,12.672C 19.3133,12.2453 20.032,10.8349 19.6053,9.5218 Z M 7.30549,18.4642C 8.4225,19.2758 9.98593,19.0282 10.7975,17.9112C 11.609,16.7942 11.3614,15.2307 10.2444,14.4192C 9.12739,13.6076 7.56397,13.8552 6.75241,14.9722C 5.94085,16.0893 6.18847,17.6527 7.30549,18.4642 Z M 16.7039,18.4612C 17.8209,17.6496 18.0686,16.0862 17.257,14.9692C 16.4454,13.8522 14.882,13.6045 13.765,14.4161C 12.648,15.2277 12.4004,16.7911 13.2119,17.9081C 14.0235,19.0251 15.5869,19.2727 16.7039,18.4612 Z M 12,10.5C 11.1716,10.5 10.5,11.1716 10.5,12C 10.5,12.8284 11.1716,13.5 12,13.5C 12.8284,13.5 13.5,12.8284 13.5,12C 13.5,11.1716 12.8284,10.5 12,10.5 Z "/>
</svg>
