<?xml version="1.0" encoding="utf-8"?>
<!DOCTYPE svg PUBLIC "-//W3C//DTD SVG 1.1//EN" "http://www.w3.org/Graphics/SVG/1.1/DTD/svg11.dtd">
<svg xmlns="http://www.w3.org/2000/svg" xmlns:xlink="http://www.w3.org/1999/xlink" version="1.1" baseProfile="full" width="24" height="24" viewBox="0 0 24.00 24.00" enable-background="new 0 0 24.00 24.00" xml:space="preserve">
	<path fill="#000000" fill-opacity="1" stroke-width="1.33333" stroke-linejoin="miter" d="M 16,5C 16,5 15,2 12,2C 9,2 8,5 8,5C 6,5 4,7 4,9C 1.3,9 1.3,13 4,13L 20,13C 22.7,13 22.7,9 20,9C 20,7 18,5 16,5 Z M 5,15L 7,22L 9,22L 8,15L 5,15 Z M 10,15L 11,22L 13,22L 14,15L 10,15 Z M 16,15L 15,22L 17,22L 19,15L 16,15 Z "/>
</svg>
