<?xml version="1.0" encoding="utf-8"?>
<!DOCTYPE svg PUBLIC "-//W3C//DTD SVG 1.1//EN" "http://www.w3.org/Graphics/SVG/1.1/DTD/svg11.dtd">
<svg xmlns="http://www.w3.org/2000/svg" xmlns:xlink="http://www.w3.org/1999/xlink" version="1.1" baseProfile="full" width="24" height="24" viewBox="0 0 24.00 24.00" enable-background="new 0 0 24.00 24.00" xml:space="preserve">
	<path fill="#000000" fill-opacity="1" stroke-width="0.2" stroke-linejoin="round" d="M 18.9994,2.99813C 20.1024,2.99813 20.9994,3.89413 20.9994,4.99813L 20.9994,18.9981C 20.9994,20.1021 20.1024,20.9981 18.9994,20.9981L 4.9994,20.9981C 3.8934,20.9981 2.9994,20.1021 2.9994,18.9981L 2.9994,4.99813C 2.9994,3.89413 3.8934,2.99813 4.9994,2.99813L 18.9994,2.99813 Z M 11,17L 13,17L 13,13.7305L 15.8295,15.3641L 16.8295,13.6321L 13.9994,11.9981L 16.8295,10.3642L 15.8295,8.63211L 13,10.2657L 13,7.00001L 11,7.00001L 11,10.2664L 8.16927,8.63208L 7.16927,10.3641L 9.99943,11.9981L 7.16929,13.6321L 8.16929,15.3642L 11,13.7298L 11,17 Z "/>
</svg>
