<?xml version="1.0" encoding="utf-8"?>
<!DOCTYPE svg PUBLIC "-//W3C//DTD SVG 1.1//EN" "http://www.w3.org/Graphics/SVG/1.1/DTD/svg11.dtd">
<svg xmlns="http://www.w3.org/2000/svg" xmlns:xlink="http://www.w3.org/1999/xlink" version="1.1" baseProfile="full" width="24" height="24" viewBox="0 0 24.00 24.00" enable-background="new 0 0 24.00 24.00" xml:space="preserve">
	<path fill="#000000" fill-opacity="1" stroke-width="1.33333" stroke-linejoin="miter" d="M 12,2C 17.5228,2 22,6.4772 22,12C 22,13.1046 21.1046,14 20,14L 4,14C 2.89543,14 2,13.1046 2,12C 2,6.4772 6.47715,2 12,2 Z M 12,8C 13.1046,8 14,7.1046 14,6C 14,4.8954 13.1046,4 12,4C 10.8954,4 10,4.8954 10,6C 10,7.1046 10.8954,8 12,8 Z M 17,12C 18.1046,12 19,11.1046 19,10C 19,8.8954 18.1046,8 17,8C 15.8954,8 15,8.8954 15,10C 15,11.1046 15.8954,12 17,12 Z M 7,12C 8.10457,12 9,11.1046 9,10C 9,8.8954 8.10457,8 7,8C 5.89543,8 5,8.8954 5,10C 5,11.1046 5.89543,12 7,12 Z M 15,15L 16.27,19.45L 16.3471,19.9971C 16.3487,21.1017 15.4546,21.9984 14.35,22L 9.65,22C 8.5454,21.9984 7.6513,21.1017 7.6529,19.9971L 7.73,19.45L 9,15L 15,15 Z "/>
</svg>
