<?xml version="1.0" encoding="utf-8"?>
<!DOCTYPE svg PUBLIC "-//W3C//DTD SVG 1.1//EN" "http://www.w3.org/Graphics/SVG/1.1/DTD/svg11.dtd">
<svg xmlns="http://www.w3.org/2000/svg" xmlns:xlink="http://www.w3.org/1999/xlink" version="1.1" baseProfile="full" width="24" height="24" viewBox="0 0 24.00 24.00" enable-background="new 0 0 24.00 24.00" xml:space="preserve">
	<path fill="#000000" fill-opacity="1" stroke-width="1.33333" stroke-linejoin="miter" d="M 4,12L 20,12C 20,8.26681 17.443,5.13089 13.9848,4.24813C 13.8626,5.23563 13.0206,6 12,6C 10.9794,6 10.1374,5.23563 10.0152,4.24813C 6.55705,5.1309 4,8.26682 4,12 Z M 12,2.00001C 17.5228,2.00001 22,6.4772 22,12C 22,13.1046 21.1046,14 20,14L 4,14C 2.89543,14 2,13.1046 2,12C 2,6.4772 6.47715,2.00001 12,2.00001 Z M 13.49,17L 10.51,17L 9.92,19L 9.65,20L 14.35,20L 14.08,19L 13.49,17 Z M 15,15L 16,18.5L 16.27,19.45L 16.3471,19.9971C 16.3487,21.1017 15.4546,21.9984 14.35,22L 9.65,22L 9.16641,21.9365C 8.09692,21.6604 7.45382,20.5695 7.73,19.5L 8,18.5L 9,15L 15,15 Z M 16,7C 17.1046,7 18,7.8954 18,9C 18,10.1046 17.1046,11 16,11C 14.8954,11 14,10.1046 14,9C 14,7.8954 14.8954,7 16,7 Z M 8,7C 9.10457,7 10,7.8954 10,9C 10,10.1046 9.10457,11 8,11C 6.89543,11 6,10.1046 6,9C 6,7.8954 6.89543,7 8,7 Z "/>
</svg>
