<?xml version="1.0" encoding="utf-8"?>
<!DOCTYPE svg PUBLIC "-//W3C//DTD SVG 1.1//EN" "http://www.w3.org/Graphics/SVG/1.1/DTD/svg11.dtd">
<svg xmlns="http://www.w3.org/2000/svg" xmlns:xlink="http://www.w3.org/1999/xlink" version="1.1" baseProfile="full" width="24" height="24" viewBox="0 0 24.00 24.00" enable-background="new 0 0 24.00 24.00" xml:space="preserve">
	<path fill="#000000" fill-opacity="1" stroke-width="1.33333" stroke-linejoin="miter" d="M 9,3L 9,12.2598C 8.5,12.0898 8,12 7.5,12C 5,12 3,14 3,16.5C 3,19 5,21 7.5,21C 10,21 12,19 12,16.5L 12,6L 16,6L 16,3L 9,3 Z M 17,9L 17,12L 14,12L 14,14L 17,14L 17,17L 19,17L 19,14L 22,14L 22,12L 19,12L 19,9L 17,9 Z "/>
</svg>
