<?xml version="1.0" encoding="utf-8"?>
<!DOCTYPE svg PUBLIC "-//W3C//DTD SVG 1.1//EN" "http://www.w3.org/Graphics/SVG/1.1/DTD/svg11.dtd">
<svg xmlns="http://www.w3.org/2000/svg" xmlns:xlink="http://www.w3.org/1999/xlink" version="1.1" baseProfile="full" width="24" height="24" viewBox="0 0 24.00 24.00" enable-background="new 0 0 24.00 24.00" xml:space="preserve">
	<path fill="#000000" fill-opacity="1" stroke-width="0.2" stroke-linejoin="miter" d="M 21,3L 21,15.5C 21,17.433 19.433,19 17.5,19C 15.567,19 14,17.433 14,15.5C 14,13.567 15.567,12 17.5,12C 18.0368,12 18.5454,12.1208 19,12.3368L 19,6.4698L 9,8.59536L 9,17.5C 9,19.433 7.433,21 5.5,21C 3.567,21 2,19.433 2,17.5C 2,15.567 3.567,14 5.5,14C 6.0368,14 6.54537,14.1208 7,14.3368L 7,5.97579L 21,3 Z "/>
</svg>
