<?xml version="1.0" encoding="utf-8"?>
<!DOCTYPE svg PUBLIC "-//W3C//DTD SVG 1.1//EN" "http://www.w3.org/Graphics/SVG/1.1/DTD/svg11.dtd">
<svg xmlns="http://www.w3.org/2000/svg" xmlns:xlink="http://www.w3.org/1999/xlink" version="1.1" baseProfile="full" width="24" height="24" viewBox="0 0 24.00 24.00" enable-background="new 0 0 24.00 24.00" xml:space="preserve">
	<path fill="#000000" fill-opacity="1" stroke-width="0.2" stroke-linejoin="round" d="M 16,9L 13,9L 13,14.5C 13,15.88 11.88,17 10.5,17C 9.12,17 8,15.88 8,14.5C 8,13.12 9.12,12 10.5,12C 11.07,12 11.58,12.19 12,12.51L 12,7L 16,7M 19,3.00002L 4.99999,3.00002C 3.9,3.00002 3,3.90002 3,5.00002L 3,19C 3,20.1 3.9,21 4.99999,21L 19,21C 20.1,21 21,20.1 21,19L 21,5.00002C 21,3.90002 20.1,3.00002 19,3.00002 Z "/>
</svg>
