<?xml version="1.0" encoding="utf-8"?>
<!DOCTYPE svg PUBLIC "-//W3C//DTD SVG 1.1//EN" "http://www.w3.org/Graphics/SVG/1.1/DTD/svg11.dtd">
<svg xmlns="http://www.w3.org/2000/svg" xmlns:xlink="http://www.w3.org/1999/xlink" version="1.1" baseProfile="full" width="24" height="24" viewBox="0 0 24.00 24.00" enable-background="new 0 0 24.00 24.00" xml:space="preserve">
	<path fill="#000000" fill-opacity="1" stroke-width="1.33333" stroke-linejoin="miter" d="M 10.5,12C 8.59529,12.0027 6.89857,13.2042 6.26367,15L 3,15L 3,18L 6.26367,18C 6.89857,19.7958 8.59529,20.9973 10.5,21C 12.4047,20.9973 14.1014,19.7958 14.7363,18L 19,18L 19,15L 14.7363,15C 14.1014,13.2042 12.4047,12.0027 10.5,12 Z M 10.5,14.5C 11.6046,14.5 12.5,15.3954 12.5,16.5C 12.5,17.6046 11.6046,18.5 10.5,18.5C 9.39543,18.5 8.5,17.6046 8.5,16.5C 8.5,15.3954 9.39543,14.5 10.5,14.5 Z "/>
</svg>
