<?xml version="1.0" encoding="utf-8"?>
<!DOCTYPE svg PUBLIC "-//W3C//DTD SVG 1.1//EN" "http://www.w3.org/Graphics/SVG/1.1/DTD/svg11.dtd">
<svg xmlns="http://www.w3.org/2000/svg" xmlns:xlink="http://www.w3.org/1999/xlink" version="1.1" baseProfile="full" width="24" height="24" viewBox="0 0 24.00 24.00" enable-background="new 0 0 24.00 24.00" xml:space="preserve">
	<path fill="#000000" fill-opacity="1" stroke-linejoin="round" d="M 16,9L 13,9L 13,14.5C 13,15.88 11.88,17 10.5,17C 9.12,17 8,15.88 8,14.5C 8,13.12 9.12,12 10.5,12C 11.07,12 11.58,12.19 12,12.51L 12,7L 16,7L 16,9 Z M 19,3.00002C 20.1,3.00002 21,3.90002 21,5.00002L 21,19C 21,20.1 20.1,21 19,21L 4.99999,21C 3.9,21 3,20.1 3,19L 3,5.00002C 3,3.90002 3.9,3.00002 4.99999,3.00002L 19,3.00002 Z M 5,5L 5,19L 19,19L 19,5L 5,5 Z "/>
</svg>
