<?xml version="1.0" encoding="utf-8"?>
<!DOCTYPE svg PUBLIC "-//W3C//DTD SVG 1.1//EN" "http://www.w3.org/Graphics/SVG/1.1/DTD/svg11.dtd">
<svg xmlns="http://www.w3.org/2000/svg" xmlns:xlink="http://www.w3.org/1999/xlink" version="1.1" baseProfile="full" width="24" height="24" viewBox="0 0 24.00 24.00" enable-background="new 0 0 24.00 24.00" xml:space="preserve">
	<path fill="#000000" fill-opacity="1" stroke-linejoin="round" d="M 7.5,3.00001L 16.5,3.00001C 18.9853,3.00001 21,5.01472 21,7.50001L 21,16.5C 21,18.9853 18.9853,21 16.5,21L 7.5,21C 5.01472,21 3,18.9853 3,16.5L 3,7.50001C 3,5.01472 5.01472,3.00001 7.5,3.00001 Z M 5.99999,13.5L 5.99999,16.5C 5.99999,17.3284 6.67157,18 7.49999,18L 9,18L 9,10.5L 15,18L 16.5,18C 17.3284,18 18,17.3284 18,16.5L 18,13.5C 18,12.6716 18.6716,12 19.5,12C 18.6716,12 18,11.3284 18,10.5L 18,7.50001C 18,6.67158 17.3284,6.00001 16.5,6.00001L 15,6L 15,13.5L 9,6L 7.49999,6.00001C 6.67157,6.00001 5.99999,6.67158 5.99999,7.50001L 5.99999,10.5C 5.99999,11.3284 5.32842,12 4.49999,12C 5.32842,12 5.99999,12.6716 5.99999,13.5 Z "/>
</svg>
