<?xml version="1.0" encoding="utf-8"?>
<!DOCTYPE svg PUBLIC "-//W3C//DTD SVG 1.1//EN" "http://www.w3.org/Graphics/SVG/1.1/DTD/svg11.dtd">
<svg xmlns="http://www.w3.org/2000/svg" xmlns:xlink="http://www.w3.org/1999/xlink" version="1.1" baseProfile="full" width="24" height="24" viewBox="0 0 24.00 24.00" enable-background="new 0 0 24.00 24.00" xml:space="preserve">
	<path fill="#000000" fill-opacity="1" stroke-linejoin="round" d="M 4.5,11C 5.33,11 6,10.33 6,9.5C 6,8.67 5.33,8 4.5,8C 3.67,8 3,8.67 3,9.5C 3,10.33 3.67,11 4.5,11 Z M 22.17,9.17C 22.17,5.3 19.04,2.17 15.17,2.17C 11.3,2.17 8.17,5.3 8.17,9.17C 8.17,12.64 10.69,15.51 14,16.06L 14,20L 6,20L 6,17L 7,17L 7,13C 7,12.45 6.55,12 6,12L 3,12C 2.45,12 2,12.45 2,13L 2,17L 3,17L 3,22L 19,22L 19,20L 16,20L 16,16.12C 19.47,15.71 22.17,12.76 22.17,9.17 Z "/>
</svg>
