<?xml version="1.0" encoding="utf-8"?>
<!DOCTYPE svg PUBLIC "-//W3C//DTD SVG 1.1//EN" "http://www.w3.org/Graphics/SVG/1.1/DTD/svg11.dtd">
<svg xmlns="http://www.w3.org/2000/svg" xmlns:xlink="http://www.w3.org/1999/xlink" version="1.1" baseProfile="full" width="24" height="24" viewBox="0 0 24.00 24.00" enable-background="new 0 0 24.00 24.00" xml:space="preserve">
	<path fill="#000000" fill-opacity="1" stroke-width="0.2" stroke-linejoin="round" d="M 11.9994,17.9981C 15.3134,17.9981 17.9994,15.3121 17.9994,11.9981C 17.9994,8.68406 15.3134,5.99807 11.9994,5.99807C 8.68439,5.99807 5.99939,8.68406 5.99939,11.9981C 5.99939,15.3121 8.68439,17.9981 11.9994,17.9981 Z M 18.9994,2.99807C 20.1034,2.99807 20.9994,3.89406 20.9994,4.99807L 20.9994,18.9981C 20.9994,20.1021 20.1034,20.9981 18.9994,20.9981L 4.99939,20.9981C 3.89437,20.9981 2.99939,20.1021 2.99939,18.9981L 2.99939,4.99807C 2.99939,3.89406 3.89437,2.99807 4.99939,2.99807L 18.9994,2.99807 Z M 7.99939,11.9981C 7.99939,9.79006 9.79138,7.99807 11.9994,7.99807C 14.2074,7.99807 15.9994,9.79006 15.9994,11.9981C 15.9994,14.2061 14.2074,15.9981 11.9994,15.9981C 9.79138,15.9981 7.99939,14.2061 7.99939,11.9981 Z "/>
</svg>
