<?xml version="1.0" encoding="utf-8"?>
<!DOCTYPE svg PUBLIC "-//W3C//DTD SVG 1.1//EN" "http://www.w3.org/Graphics/SVG/1.1/DTD/svg11.dtd">
<svg xmlns="http://www.w3.org/2000/svg" xmlns:xlink="http://www.w3.org/1999/xlink" version="1.1" baseProfile="full" width="24" height="24" viewBox="0 0 24.00 24.00" enable-background="new 0 0 24.00 24.00" xml:space="preserve">
	<path fill="#000000" fill-opacity="1" stroke-width="1.33333" stroke-linejoin="miter" d="M 1.043,5.27L 5,9.227L 5,15C 5,16.1 5.89,17 7,17L 11,17L 11,19L 10,19C 9.45,19 9,19.45 9,20L 2,20L 2,22L 9,22C 9,22.55 9.45,23 10,23L 14,23C 14.55,23 15,22.55 15,22L 17.773,22L 19.773,24L 21.043,22.72L 2.323,4L 1.043,5.27 Z M 7,11.227L 10.773,15L 7,15L 7,11.227 Z M 15,20C 15,19.45 14.55,19 14,19L 13,19L 13,17.227L 15.773,20L 15,20 Z M 22,20L 22,21.137L 20.863,20L 22,20 Z M 7,6.137L 5.141,4.278C 5.432,3.533 6.155,3 7,3L 17,3C 18.1,3 19,3.9 19,5L 19,15C 19,15.845 18.467,16.568 17.722,16.859L 15.863,15L 17,15L 17,5L 7,5L 7,6.137 Z "/>
</svg>
