<?xml version="1.0" encoding="utf-8"?>
<!DOCTYPE svg PUBLIC "-//W3C//DTD SVG 1.1//EN" "http://www.w3.org/Graphics/SVG/1.1/DTD/svg11.dtd">
<svg xmlns="http://www.w3.org/2000/svg" xmlns:xlink="http://www.w3.org/1999/xlink" version="1.1" baseProfile="full" width="24" height="24" viewBox="0 0 24.00 24.00" enable-background="new 0 0 24.00 24.00" xml:space="preserve">
	<path fill="#000000" fill-opacity="1" stroke-width="1.33333" stroke-linejoin="miter" d="M 1,5.27L 5,9.27L 5,15C 5,16.1 5.89,17 7,17L 11,17L 11,19L 10,19C 9.45,19 9,19.45 9,20L 2,20L 2,22L 9,22C 9,22.55 9.45,23 10,23L 14,23C 14.55,23 15,22.55 15,22L 17.73,22L 19.73,24L 21,22.72L 2.28,4L 1,5.27 Z M 15,20C 15,19.45 14.55,19 14,19L 13,19L 13,17.27L 15.73,20L 15,20 Z M 17.689,16.87L 5.13,4.311C 5.413,3.549 6.143,3 7,3L 17,3C 18.1,3 19,3.9 19,5L 19,15C 19,15.857 18.451,16.587 17.689,16.87 Z M 22,20L 22,21.181L 20.819,20L 22,20 Z "/>
</svg>
