<?xml version="1.0" encoding="utf-8"?>
<!DOCTYPE svg PUBLIC "-//W3C//DTD SVG 1.1//EN" "http://www.w3.org/Graphics/SVG/1.1/DTD/svg11.dtd">
<svg xmlns="http://www.w3.org/2000/svg" xmlns:xlink="http://www.w3.org/1999/xlink" version="1.1" baseProfile="full" width="24" height="24" viewBox="0 0 24.00 24.00" enable-background="new 0 0 24.00 24.00" xml:space="preserve">
	<path fill="#000000" fill-opacity="1" stroke-width="0.2" stroke-linejoin="round" d="M 17,3.00001C 18.103,3.00001 19,3.896 19,5.00001L 19,15C 19,16.104 18.103,17 17,17L 13,17L 13,19L 14,19C 14.5523,19 15,19.4477 15,20L 22,20L 22,22L 15,22C 15,22.5523 14.5523,23 14,23L 10,23C 9.44772,23 9,22.5523 9,22L 2,22L 2,20L 9,20C 9,19.4477 9.44772,19 10,19L 11,19L 11,17L 7,17C 5.894,17 5,16.104 5,15L 5,5.00001C 5,3.896 5.894,3.00001 7,3.00001L 17,3.00001 Z M 12.1875,5C 11.3182,5 10.6165,5.1979 10.084,5.5937C 9.55535,5.9858 9.29685,6.5733 9.30859,7.3574L 9.32031,7.3926L 11.2539,7.3926C 11.2617,7.0872 11.3531,6.8577 11.5293,6.7031C 11.7055,6.5486 11.9251,6.4707 12.1875,6.4707C 12.5125,6.4707 12.7632,6.5654 12.9395,6.7539C 13.1157,6.9424 13.2031,7.195 13.2031,7.5117C 13.2031,7.8171 13.1273,8.0866 12.9746,8.3203C 12.8258,8.5541 12.6198,8.7499 12.3574,8.9082C 11.8484,9.2513 11.4985,9.5545 11.3066,9.8184C 11.1148,10.0823 11.0156,10.476 11.0117,11L 12.998,11C 12.998,10.6871 13.0408,10.4407 13.127,10.2598C 13.217,10.075 13.3881,9.9025 13.6387,9.7441C 14.089,9.5179 14.4583,9.2064 14.748,8.8105C 15.0417,8.4147 15.1895,7.983 15.1895,7.5117C 15.1895,6.7426 14.9212,6.1301 14.3848,5.6777C 13.8522,5.2253 13.1195,5 12.1875,5 Z M 11,12L 11,14L 13,14L 13,12L 11,12 Z "/>
</svg>
