<?xml version="1.0" encoding="utf-8"?>
<!DOCTYPE svg PUBLIC "-//W3C//DTD SVG 1.1//EN" "http://www.w3.org/Graphics/SVG/1.1/DTD/svg11.dtd">
<svg xmlns="http://www.w3.org/2000/svg" xmlns:xlink="http://www.w3.org/1999/xlink" version="1.1" baseProfile="full" width="24" height="24" viewBox="0 0 24.00 24.00" enable-background="new 0 0 24.00 24.00" xml:space="preserve">
	<path fill="#000000" fill-opacity="1" stroke-width="1.33333" stroke-linejoin="miter" d="M 20,4C 21.11,4 22,4.89 22,6L 22,18C 22,19.11 21.11,20 20,20L 4,20C 2.89,20 2,19.11 2,18L 2.01,6C 2.01,4.89 2.89,4 4,4L 20,4 Z M 8.5,15L 8.5,9L 7.25,9L 7.25,12.5L 4.75,9L 3.5,9L 3.5,15L 4.75,15L 4.75,11.5L 7.3,15L 8.5,15 Z M 13.5,10.26L 13.5,9L 9.5,9L 9.5,15L 13.5,15L 13.5,13.75L 11,13.75L 11,12.64L 13.5,12.64L 13.5,11.38L 11,11.38L 11,10.26L 13.5,10.26 Z M 20.5,14L 20.5,9L 19.25,9L 19.25,13.5L 18.13,13.5L 18.13,9.99L 16.88,9.99L 16.88,13.51L 15.75,13.51L 15.75,9L 14.5,9L 14.5,14C 14.5,14.55 14.95,15 15.5,15L 19.5,15C 20.05,15 20.5,14.55 20.5,14 Z "/>
</svg>
