<?xml version="1.0" encoding="utf-8"?>
<!DOCTYPE svg PUBLIC "-//W3C//DTD SVG 1.1//EN" "http://www.w3.org/Graphics/SVG/1.1/DTD/svg11.dtd">
<svg xmlns="http://www.w3.org/2000/svg" xmlns:xlink="http://www.w3.org/1999/xlink" version="1.1" baseProfile="full" width="24" height="24" viewBox="0 0 24.00 24.00" enable-background="new 0 0 24.00 24.00" xml:space="preserve">
	<path fill="#000000" fill-opacity="1" stroke-width="0.2" stroke-linejoin="round" d="M 20,11L 4,11L 4,7.99999L 20,7.99999M 20,13L 13,13L 13,12L 20,12M 20,15L 13,15L 13,14L 20,14M 20,17L 13,17L 13,16L 20,16M 20,19L 13,19L 13,18L 20,18M 12,19L 4,19L 4,12L 12,12M 20.333,4.66704L 18.667,2.99999L 17,4.66704L 15.333,2.99999L 13.667,4.66704L 12,2.99999L 10.333,4.66704L 8.66701,2.99999L 7,4.66704L 5.33299,2.99999L 3.66701,4.66704L 2,2.99999L 2,19C 2,20.104 2.89501,21 4,21L 20,21C 21.104,21 21.99,20.104 21.99,19L 22,2.99999L 20.333,4.66704 Z "/>
</svg>
