<?xml version="1.0" encoding="utf-8"?>
<!DOCTYPE svg PUBLIC "-//W3C//DTD SVG 1.1//EN" "http://www.w3.org/Graphics/SVG/1.1/DTD/svg11.dtd">
<svg xmlns="http://www.w3.org/2000/svg" xmlns:xlink="http://www.w3.org/1999/xlink" version="1.1" baseProfile="full" width="24" height="24" viewBox="0 0 24.00 24.00" enable-background="new 0 0 24.00 24.00" xml:space="preserve">
	<path fill="#000000" fill-opacity="1" stroke-width="0.2" stroke-linejoin="round" d="M 19.9994,11.137L 3.99937,11.137L 3.99937,8.13702L 19.9994,8.13702M 19.9994,13.137L 12.9994,13.137L 12.9994,12.137L 19.9994,12.137M 19.9994,15.137L 12.9994,15.137L 12.9994,14.137L 19.9994,14.137M 19.9994,17.137L 12.9994,17.137L 12.9994,16.137L 19.9994,16.137M 19.9994,19.137L 12.9994,19.137L 12.9994,18.137L 19.9994,18.137M 11.9994,19.137L 3.99937,19.137L 3.99937,12.137L 11.9994,12.137M 20.3324,4.80408L 18.6664,3.13702L 16.9994,4.80408L 15.3324,3.13702L 13.6664,4.80408L 11.9994,3.13702L 10.3324,4.80408L 8.66638,3.13702L 6.99937,4.80408L 5.33236,3.13702L 3.66638,4.80408L 1.99937,3.13702L 1.99937,19.137C 1.99937,20.241 2.89437,21.137 3.99937,21.137L 19.9994,21.137C 21.1034,21.137 21.9894,20.241 21.9894,19.137L 21.9994,3.13702L 20.3324,4.80408 Z "/>
</svg>
