<?xml version="1.0" encoding="utf-8"?>
<!DOCTYPE svg PUBLIC "-//W3C//DTD SVG 1.1//EN" "http://www.w3.org/Graphics/SVG/1.1/DTD/svg11.dtd">
<svg xmlns="http://www.w3.org/2000/svg" xmlns:xlink="http://www.w3.org/1999/xlink" version="1.1" baseProfile="full" width="24" height="24" viewBox="0 0 24.00 24.00" enable-background="new 0 0 24.00 24.00" xml:space="preserve">
	<path fill="#000000" fill-opacity="1" fill-rule="evenodd" stroke-width="1.33333" stroke-linejoin="miter" d="M 1.25,2.05L 21.95,22.75L 20.7,24L 18.7,22L 4,22C 2.903,22 2,21.097 2,20L 2,5.3L 0,3.3L 1.25,2.05 Z M 3.809,2.009C 3.872,2.003 3.936,2 4,2L 20,2C 21.11,2 22,2.89 22,4L 22,20C 22,20.064 21.997,20.128 21.991,20.191L 20,18.2L 20,4L 5.8,4L 3.809,2.009 Z M 6,9.3L 4,7.3L 4,20L 16.7,20L 14.7,18L 6,18L 6,9.3 Z M 18,16.2L 16,14.2L 16,8L 13,8L 13,10.28C 13.6,10.62 14,11.26 14,12C 14,12.064 13.997,12.128 13.991,12.191L 11,9.2L 11,8C 11,6.903 11.903,6 13,6L 18,6L 18,16.2 Z M 8,16L 12.7,16L 8,11.3L 8,16 Z M 10,8L 9.8,8L 7.8,6L 10,6L 10,8 Z "/>
</svg>
