<?xml version="1.0" encoding="utf-8"?>
<!DOCTYPE svg PUBLIC "-//W3C//DTD SVG 1.1//EN" "http://www.w3.org/Graphics/SVG/1.1/DTD/svg11.dtd">
<svg xmlns="http://www.w3.org/2000/svg" xmlns:xlink="http://www.w3.org/1999/xlink" version="1.1" baseProfile="full" width="24" height="24" viewBox="0 0 24.00 24.00" enable-background="new 0 0 24.00 24.00" xml:space="preserve">
	<path fill="#000000" fill-opacity="1" stroke-width="0.2" stroke-linejoin="round" d="M 16.51,12C 19.01,12 21.01,14 21.01,16.5C 21.01,17.38 20.76,18.21 20.32,18.9L 23.4,22L 22.01,23.39L 18.89,20.32C 18.2,20.75 17.38,21 16.51,21C 14.01,21 12.01,19 12.01,16.5C 12.01,14 14.01,12 16.51,12 Z M 16.51,14C 15.13,14 14.01,15.12 14.01,16.5C 14.01,17.88 15.13,19 16.51,19C 17.89,19 19.01,17.88 19.01,16.5C 19.01,15.12 17.89,14 16.51,14 Z M 18,6L 18,10.1752C 17.33,10.0156 16.6565,9.9667 16,10.0175L 16,8L 13,8L 13,10.277L 13.5282,10.7191C 12.3444,11.3278 11.3474,12.2974 10.7154,13.533C 10.278,13.166 10,12.6153 10,12C 10,11.262 10.405,10.624 11,10.277L 11,8C 11,6.896 11.895,6 13,6L 18,6 Z M 6,18L 6,6L 8,6L 10,6L 10,8L 8,8L 8,16L 10.0179,16C 9.9647,16.6808 10.0207,17.3547 10.1744,18L 6,18 Z M 20,4L 4,4L 4,20L 11.0226,20C 11.5302,20.7951 12.2115,21.4829 13.0328,22L 4,22C 2.89498,22 2,21.104 2,20L 2,4C 2,2.896 2.89498,2.00001 4,2.00001L 20,2.00001C 21.104,2.00001 22,2.896 22,4L 22,13.0357C 21.4969,12.2361 20.8189,11.5433 20,11.0208L 20,4 Z "/>
</svg>
