<?xml version="1.0" encoding="utf-8"?>
<!DOCTYPE svg PUBLIC "-//W3C//DTD SVG 1.1//EN" "http://www.w3.org/Graphics/SVG/1.1/DTD/svg11.dtd">
<svg xmlns="http://www.w3.org/2000/svg" xmlns:xlink="http://www.w3.org/1999/xlink" version="1.1" baseProfile="full" width="24" height="24" viewBox="0 0 24.00 24.00" enable-background="new 0 0 24.00 24.00" xml:space="preserve">
	<path fill="#000000" fill-opacity="1" fill-rule="evenodd" stroke-width="1.33333" stroke-linejoin="miter" d="M 3.25,4.025L 19.95,20.725L 18.7,21.975L 14.858,18.133C 14.773,18.117 14.684,18.088 14.59,18.045C 14.264,17.891 14.142,17.623 14.105,17.38L 12.178,15.453C 12.136,15.531 12.093,15.598 12.05,15.655C 11.62,16.255 11.19,16.255 10.86,16.035C 10.54,15.825 5.5,11.975 5.23,11.865C 4.95,11.755 4.85,12.025 5.12,13.475C 5.39,14.975 4.95,15.385 4.57,15.445C 4.2,15.475 3.06,15.175 3,12.135C 2.95,9.105 3.76,8.615 4.14,8.615C 4.604,8.615 7.079,10.69 8.842,12.117L 2,5.275L 3.25,4.025 Z M 18.381,16.556C 18.751,15.403 19.121,13.797 19.1,12.025L 19.1,11.975C 19.14,8.475 17.66,5.575 17.66,5.575C 17.66,5.575 17.42,4.715 18.12,4.385C 18.83,4.055 19.3,4.605 19.3,4.605C 21.12,8.215 21,11.635 21,11.975C 21,12.274 21.093,14.955 19.878,18.053L 18.381,16.556 Z M 15.139,13.314C 15.185,12.921 15.22,12.492 15.24,12.025L 15.24,11.975C 15.14,8.505 14.13,7.205 14.13,7.205C 14.13,7.205 13.89,6.335 14.59,6.015C 15.3,5.685 15.77,6.225 15.77,6.225C 17.26,8.935 17.16,11.635 17.14,11.975C 17.153,12.197 17.201,13.379 16.815,14.99L 15.139,13.314 Z M 10.204,8.379C 10.23,7.768 10.59,7.635 10.59,7.635C 10.59,7.635 11.19,7.365 11.57,7.795C 11.91,8.189 12.722,9.574 12.89,11.065L 10.204,8.379 Z "/>
</svg>
