<?xml version="1.0" encoding="utf-8"?>
<!DOCTYPE svg PUBLIC "-//W3C//DTD SVG 1.1//EN" "http://www.w3.org/Graphics/SVG/1.1/DTD/svg11.dtd">
<svg xmlns="http://www.w3.org/2000/svg" xmlns:xlink="http://www.w3.org/1999/xlink" version="1.1" baseProfile="full" width="24" height="24" viewBox="0 0 24.00 24.00" enable-background="new 0 0 24.00 24.00" xml:space="preserve">
	<path fill="#000000" fill-opacity="1" stroke-width="0.2" stroke-linejoin="round" d="M 18.0044,5.99805L 13.0044,5.99805C 11.8994,5.99805 11.0044,6.89404 11.0044,7.99805L 11.0044,10.2751C 10.4094,10.622 10.0044,11.26 10.0044,11.998C 10.0044,13.1021 10.8994,13.998 12.0044,13.998C 13.1084,13.998 14.0044,13.1021 14.0044,11.998C 14.0044,11.26 13.5994,10.622 13.0044,10.2751L 13.0044,7.99805L 16.0044,7.99805L 16.0044,15.998L 8.00441,15.998L 8.00441,7.99805L 10.0044,7.99805L 10.0044,5.99805L 8.00441,5.99805L 6.00442,5.99805L 6.00442,17.998L 18.0044,17.998M 20.0044,19.998L 4.00442,19.998L 4.00442,3.99805L 20.0044,3.99805M 20.0044,1.99805L 4.00442,1.99805C 2.8994,1.99805 2.00441,2.89404 2.00441,3.99805L 2.00441,19.998C 2.00441,21.1021 2.8994,21.998 4.00442,21.998L 20.0044,21.998C 21.1084,21.998 22.0044,21.1021 22.0044,19.998L 22.0044,3.99805C 22.0044,2.89404 21.1084,1.99805 20.0044,1.99805 Z "/>
</svg>
