<?xml version="1.0" encoding="utf-8"?>
<!DOCTYPE svg PUBLIC "-//W3C//DTD SVG 1.1//EN" "http://www.w3.org/Graphics/SVG/1.1/DTD/svg11.dtd">
<svg xmlns="http://www.w3.org/2000/svg" xmlns:xlink="http://www.w3.org/1999/xlink" version="1.1" baseProfile="full" width="24" height="24" viewBox="0 0 24.00 24.00" enable-background="new 0 0 24.00 24.00" xml:space="preserve">
	<path fill="#000000" fill-opacity="1" stroke-linejoin="round" d="M 12,10C 13.1046,10 14,10.8954 14,12C 14,13.1046 13.1046,14 12,14C 10.8954,14 10,13.1046 10,12C 10,10.8954 10.8954,10 12,10 Z M 4,4.00001L 11,4.00001C 12.1046,4.00001 13,4.89544 13,6.00001L 13,9.00001L 11,9.00001L 11,6.00001L 4,6.00001L 4,11L 6,11L 6,9L 9,12L 6,15L 6,13L 4,13C 2.89543,13 2,12.1046 2,11L 2,6.00001C 2,4.89544 2.89543,4.00001 4,4.00001 Z M 20,20L 13,20C 11.8954,20 11,19.1046 11,18L 11,15L 13,15L 13,18L 20,18L 20,13L 18,13L 18,15L 15,12L 18,9L 18,11L 20,11C 21.1046,11 22,11.8954 22,13L 22,18C 22,19.1046 21.1046,20 20,20 Z "/>
</svg>
