<?xml version="1.0" encoding="utf-8"?>
<!DOCTYPE svg PUBLIC "-//W3C//DTD SVG 1.1//EN" "http://www.w3.org/Graphics/SVG/1.1/DTD/svg11.dtd">
<svg xmlns="http://www.w3.org/2000/svg" xmlns:xlink="http://www.w3.org/1999/xlink" version="1.1" baseProfile="full" width="24" height="24" viewBox="0 0 24.00 24.00" enable-background="new 0 0 24.00 24.00" xml:space="preserve">
	<path fill="#000000" fill-opacity="1" stroke-width="1.33333" stroke-linejoin="miter" d="M 7.75,13C 7.74483,12.6458 7.89902,12.3081 8.17,12.08C 8.91717,12.2413 9.62443,12.5507 10.25,12.99C 10.25,13.6804 9.69036,14.24 9,14.24C 8.31298,14.24 7.75537,13.6858 7.75,13 Z M 13.75,13C 14.3756,12.5607 15.0828,12.2513 15.83,12.09C 16.101,12.3181 16.2552,12.6558 16.25,13.01C 16.25,13.7004 15.6904,14.26 15,14.26C 14.3096,14.26 13.75,13.7004 13.75,13.01L 13.75,13 Z M 12,9C 9.22673,8.9573 6.49129,9.6471 4.07,11L 4,12C 4.0044,13.2289 4.29183,14.4402 4.84,15.54C 7.20927,15.1765 9.60301,14.996 12,15C 14.397,14.996 16.7907,15.1765 19.16,15.54C 19.7082,14.4402 19.9956,13.2289 20,12L 19.93,11C 17.5087,9.6471 14.7733,8.9573 12,9 Z M 12,2.00001C 17.5228,2.00001 22,6.47716 22,12C 22,17.5228 17.5228,22 12,22C 6.47715,22 2,17.5228 2,12C 2,6.47716 6.47715,2.00001 12,2.00001 Z "/>
</svg>
