<?xml version="1.0" encoding="utf-8"?>
<!DOCTYPE svg PUBLIC "-//W3C//DTD SVG 1.1//EN" "http://www.w3.org/Graphics/SVG/1.1/DTD/svg11.dtd">
<svg xmlns="http://www.w3.org/2000/svg" xmlns:xlink="http://www.w3.org/1999/xlink" version="1.1" baseProfile="full" width="24" height="24" viewBox="0 0 24.00 24.00" enable-background="new 0 0 24.00 24.00" xml:space="preserve">
	<path fill="#000000" fill-opacity="1" stroke-width="1.33333" stroke-linejoin="miter" d="M 10.035,20.3951L 7.12346,20.3951C 6.18724,20.3951 5.30247,20.0247 4.64403,19.356C 3.97531,18.6975 3.60494,17.8128 3.60494,16.8765L 3.60494,7.1235C 3.60494,6.1872 3.97531,5.3025 4.64403,4.644C 5.30247,3.9753 6.18724,3.6152 7.12346,3.6152L 10.035,3.6152L 10.035,20.3951 Z M 7.12346,2C 4.29424,2 2,4.2942 2,7.1235L 2,16.8765C 2,19.7058 4.29424,22 7.12346,22L 11.6502,22L 11.6502,2L 7.12346,2 Z M 5.107,7.9979C 5.107,9.037 5.95062,9.8807 6.98971,9.8807C 8.02881,9.8807 8.87243,9.037 8.87243,7.9979C 8.87243,6.9588 8.02881,6.1152 6.98971,6.1152C 5.95062,6.1152 5.107,6.9588 5.107,7.9979M 17.607,10.9815C 18.7181,10.9815 19.6235,11.8868 19.6235,12.9979C 19.6235,14.1193 18.7181,15.0247 17.607,15.0247C 16.4856,15.0247 15.5802,14.1193 15.5802,12.9979C 15.5802,11.8868 16.4856,10.9815 17.607,10.9815M 16.8765,22C 19.7058,22 22,19.7058 22,16.8765L 22,7.1235C 22,4.2942 19.7058,2 16.8765,2L 13.6461,2L 13.6461,22L 16.8765,22 Z "/>
</svg>
