<?xml version="1.0" encoding="utf-8"?>
<!DOCTYPE svg PUBLIC "-//W3C//DTD SVG 1.1//EN" "http://www.w3.org/Graphics/SVG/1.1/DTD/svg11.dtd">
<svg xmlns="http://www.w3.org/2000/svg" xmlns:xlink="http://www.w3.org/1999/xlink" version="1.1" baseProfile="full" width="24" height="24" viewBox="0 0 24.00 24.00" enable-background="new 0 0 24.00 24.00" xml:space="preserve">
	<path fill="#000000" fill-opacity="1" stroke-width="1.33333" stroke-linejoin="miter" d="M 9.04814,9.01031L 7.05501,9.01031L 7.05501,6.02063L 9.04814,6.02063L 9.04814,4.0275L 7.05501,4.0275L 7.05501,3.03094C 7.05501,1.92476 7.95192,1.03782 9.04814,1.03782L 15.0275,1.03782L 15.0275,8.01375L 17.5189,6.51891L 20.0103,8.01375L 20.0103,1.03782L 21.0069,1.03782C 22.0505,1.03782 23,1.98734 23,3.03094L 23,16.9828C 23,18.0264 22.0505,18.9759 21.0069,18.9759L 9.04814,18.9759C 8.00454,18.9759 7.05501,18.0543 7.05501,16.9828L 7.05501,15.9862L 9.04814,15.9862L 9.04814,13.9931L 7.05501,13.9931L 7.05501,11.0034L 9.04814,11.0034L 9.04814,9.01031 Z M 0.999999,18L 3,18L 3,15L 1,15L 1,13L 3,13L 3,10L 1,10L 1,8L 3,8L 3,5L 5,5L 5,8L 3,8L 3,10L 5,10L 5,13L 3,13L 3,15L 5,15L 5,18L 3,18L 3,20L 5,20L 5,21L 21,21L 21,23L 5,23C 3.89543,23 3,22.1046 3,21L 3,20L 0.999999,20L 0.999999,18 Z "/>
</svg>
