<?xml version="1.0" encoding="utf-8"?>
<!DOCTYPE svg PUBLIC "-//W3C//DTD SVG 1.1//EN" "http://www.w3.org/Graphics/SVG/1.1/DTD/svg11.dtd">
<svg xmlns="http://www.w3.org/2000/svg" xmlns:xlink="http://www.w3.org/1999/xlink" version="1.1" baseProfile="full" width="24" height="24" viewBox="0 0 24.00 24.00" enable-background="new 0 0 24.00 24.00" xml:space="preserve">
	<path fill="#000000" fill-opacity="1" stroke-width="0.2" stroke-linejoin="round" d="M 14.9991,9.99832L 20.4991,9.99832L 14.9991,4.49832L 14.9991,9.99832 Z M 3.99914,2.99832L 15.9991,2.99832L 21.9991,8.99832L 21.9991,18.9983C 21.9991,20.1023 21.1031,20.9983 19.9991,20.9983L 3.98913,20.9983C 2.88513,20.9983 1.99914,20.1023 1.99914,18.9983L 2.00915,4.99832C 2.00915,3.89432 2.89412,2.99832 3.99914,2.99832 Z M 4,5.00001L 4,19L 20,19L 20,12L 13,12L 13,5.00001L 4,5.00001 Z M 8,17L 8,15L 6,15L 6,13L 8,13L 8,11L 10,11L 10,13L 12,13L 12,15L 10,15L 10,17L 8,17 Z "/>
</svg>
