<?xml version="1.0" encoding="utf-8"?>
<!DOCTYPE svg PUBLIC "-//W3C//DTD SVG 1.1//EN" "http://www.w3.org/Graphics/SVG/1.1/DTD/svg11.dtd">
<svg xmlns="http://www.w3.org/2000/svg" xmlns:xlink="http://www.w3.org/1999/xlink" version="1.1" baseProfile="full" width="24" height="24" viewBox="0 0 24.00 24.00" enable-background="new 0 0 24.00 24.00" xml:space="preserve">
	<path fill="#000000" fill-opacity="1" stroke-width="0.2" stroke-linejoin="round" d="M 13.9991,9.99831L 19.4991,9.99831L 13.9991,4.49831L 13.9991,9.99831 Z M 4.99915,2.99831L 14.9991,2.99831L 20.9991,8.99831L 20.9991,18.9983C 20.9991,20.1023 20.1031,20.9983 18.9991,20.9983L 4.98914,20.9983C 3.88513,20.9983 2.99914,20.1023 2.99914,18.9983L 3.00915,4.99831C 3.00915,3.89431 3.89412,2.99831 4.99915,2.99831 Z M 8.99999,18L 11,18L 11,15L 14,15L 14,13L 11,13L 11,10L 9,10L 8.99999,13L 6,13L 6,15L 8.99999,15L 8.99999,18 Z "/>
</svg>
