<?xml version="1.0" encoding="utf-8"?>
<!DOCTYPE svg PUBLIC "-//W3C//DTD SVG 1.1//EN" "http://www.w3.org/Graphics/SVG/1.1/DTD/svg11.dtd">
<svg xmlns="http://www.w3.org/2000/svg" xmlns:xlink="http://www.w3.org/1999/xlink" version="1.1" baseProfile="full" width="24" height="24" viewBox="0 0 24.00 24.00" enable-background="new 0 0 24.00 24.00" xml:space="preserve">
	<path fill="#0F0F0F" fill-opacity="1" stroke-linejoin="round" d="M 12,2C 6.47867,2 2,6.47867 2,12C 2,17.5213 6.47867,22 12,22C 17.5213,22 22,17.5213 22,12C 22,6.47867 17.5213,2 12,2 Z M 12,7.5L 15,7.5L 15,9.5L 13,9.5L 13,14.5C 13,15.604 12.104,16.5 11,16.5C 9.896,16.5 9,15.604 9,14.5C 9,13.396 9.896,12.5 11,12.5C 11.364,12.5 11.7027,12.6093 12,12.7813"/>
</svg>
