<?xml version="1.0" encoding="utf-8"?>
<!DOCTYPE svg PUBLIC "-//W3C//DTD SVG 1.1//EN" "http://www.w3.org/Graphics/SVG/1.1/DTD/svg11.dtd">
<svg xmlns="http://www.w3.org/2000/svg" xmlns:xlink="http://www.w3.org/1999/xlink" version="1.1" baseProfile="full" width="24" height="24" viewBox="0 0 24.00 24.00" enable-background="new 0 0 24.00 24.00" xml:space="preserve">
	<path fill="#000000" fill-opacity="1" stroke-width="0.2" stroke-linejoin="miter" d="M 17,4L 17,10L 15,8L 13,10L 13,4L 9,4L 9,20L 19,20L 19,4L 17,4 Z M 3,7.00001L 3,5L 5,5L 5,4C 5,2.89 5.9,2.00001 7,2.00001L 19,2.00001C 20.0472,2.00001 21,2.9528 21,4L 21,20C 21,21.0472 20.0472,22 19,22L 7,22C 5.9528,22 5,21.047 5,20L 5,19L 3,19L 3,17L 5,17L 5,13L 3,13L 3,11L 5,11L 5,7.00001L 3,7.00001 Z M 5,5L 5,7.00001L 7,7.00001L 7,5.00001L 5,5 Z M 5,19L 7,19L 7,17L 5,17L 5,19 Z M 5,13L 7,13L 7,11L 5,11L 5,13 Z "/>
</svg>
