<?xml version="1.0" encoding="utf-8"?>
<!DOCTYPE svg PUBLIC "-//W3C//DTD SVG 1.1//EN" "http://www.w3.org/Graphics/SVG/1.1/DTD/svg11.dtd">
<svg xmlns="http://www.w3.org/2000/svg" xmlns:xlink="http://www.w3.org/1999/xlink" version="1.1" baseProfile="full" width="24" height="24" viewBox="0 0 24.00 24.00" enable-background="new 0 0 24.00 24.00" xml:space="preserve">
	<path fill="#000000" fill-opacity="1" stroke-linejoin="round" d="M 4.00001,10L 4.00001,14L 6,14L 6,11L 7.00001,11L 7.00001,14L 8,14L 8,10L 4.00001,10 Z M 9,10L 9,15L 11,15L 11,14L 13,14L 13,10L 9,10 Z M 12,11L 12,13L 11,13L 11,11L 12,11 Z M 14,10L 14,14L 16,14L 16,11L 17,11L 17,14L 18,14L 18,11L 19,11L 19,14L 20,14L 20,10L 14,10 Z M 3,9L 21,9L 21,15L 12,15L 12,16L 8,16L 8,15L 3,15L 3,9 Z "/>
</svg>
