<?xml version="1.0" encoding="utf-8"?>
<!DOCTYPE svg PUBLIC "-//W3C//DTD SVG 1.1//EN" "http://www.w3.org/Graphics/SVG/1.1/DTD/svg11.dtd">
<svg xmlns="http://www.w3.org/2000/svg" xmlns:xlink="http://www.w3.org/1999/xlink" version="1.1" baseProfile="full" width="24" height="24" viewBox="0 0 24.00 24.00" enable-background="new 0 0 24.00 24.00" xml:space="preserve">
	<path fill="#000000" fill-opacity="1" stroke-width="1.33333" stroke-linejoin="miter" d="M 14.041,12L 10,12L 10,11L 5.5,11C 3.567,11 2,9.433 2,7.5C 2,5.567 3.567,4 5.5,4C 6.5271,4 7.45087,4.44242 8.09113,5.14709C 8.48193,3.34772 10.0836,2 12,2C 13.9164,2 15.5181,3.34772 15.9089,5.14708C 16.5491,4.44242 17.4729,4 18.5,4C 20.433,4 22,5.567 22,7.5C 22,9.433 20.433,11 18.5,11L 14.041,11L 14.041,12 Z M 10,16.9017L 10,15.7598L 5.02344,15.7598L 5.02344,13.7598L 19.0234,13.7598L 19.0234,15.7598L 14.041,15.7598L 14.041,16.9166L 19.9909,19.0822C 20.5783,19.2855 21,19.8435 21,20.5C 21,21.3284 20.3284,22 19.5,22L 4.5,22C 3.67157,22 3,21.3284 3,20.5C 3,19.8435 3.42171,19.2856 4.00901,19.0822L 10,16.9017 Z "/>
</svg>
