<?xml version="1.0" encoding="utf-8"?>
<!DOCTYPE svg PUBLIC "-//W3C//DTD SVG 1.1//EN" "http://www.w3.org/Graphics/SVG/1.1/DTD/svg11.dtd">
<svg xmlns="http://www.w3.org/2000/svg" xmlns:xlink="http://www.w3.org/1999/xlink" version="1.1" baseProfile="full" width="24" height="24" viewBox="0 0 24.00 24.00" enable-background="new 0 0 24.00 24.00" xml:space="preserve">
	<path fill="#000000" fill-opacity="1" stroke-linejoin="round" d="M 12,2C 13.848,2 15.5497,2.78327 16.9041,4.09871L 18.5999,1.9282L 20.1759,3.15952L 18.2031,5.68464C 19.3264,7.40653 20,9.60494 20,12C 20,17.5228 16.4183,22 12,22C 10.152,22 8.45029,21.2167 7.09585,19.9013L 5.40006,22.0718L 3.82404,20.8405L 5.79689,18.3153C 4.67359,16.5935 4,14.3951 4,12C 4,6.47715 7.58172,2 12,2 Z M 12,4C 8.68629,4 6,7.58172 6,12C 6,13.7278 6.41082,15.3277 7.10932,16.6355L 15.6733,5.67405C 14.6583,4.62466 13.3839,4 12,4 Z M 12,20C 15.3137,20 18,16.4183 18,12C 18,10.2722 17.5892,8.67226 16.8907,7.36448L 8.32664,18.3259C 9.3417,19.3753 10.6161,20 12,20 Z "/>
</svg>
