<?xml version="1.0" encoding="utf-8"?>
<!DOCTYPE svg PUBLIC "-//W3C//DTD SVG 1.1//EN" "http://www.w3.org/Graphics/SVG/1.1/DTD/svg11.dtd">
<svg xmlns="http://www.w3.org/2000/svg" xmlns:xlink="http://www.w3.org/1999/xlink" version="1.1" baseProfile="full" width="24" height="24" viewBox="0 0 24.00 24.00" enable-background="new 0 0 24.00 24.00" xml:space="preserve">
	<path fill="#000000" fill-opacity="1" stroke-width="0.2" stroke-linejoin="round" d="M 21,17L 21,3L 7,3L 7,17L 21,17 Z M 21,1.00001C 22.1,1.00001 23,1.9 23,3.00001L 23,17C 23,18.1 22.1,19 21,19L 7,19C 5.9,19 5,18.1 5,17L 5,3.00001C 5,1.9 5.9,1.00001 7,1.00001L 21,1.00001 Z M 3,5.00001L 3,21L 19,21L 19,23L 3,23C 1.9,23 1,22.1 1,21L 1,5.00001L 3,5.00001 Z M 13,5L 15,5C 16.1046,5 17,5.89543 17,7L 17,13C 17,14.1046 16.1046,15 15,15L 13,15C 11.8954,15 11,14.1046 11,13L 11,7C 11,5.89543 11.8954,5 13,5 Z M 13,7L 13,13L 15,13L 15,7L 13,7 Z "/>
</svg>
