<?xml version="1.0" encoding="utf-8"?>
<!DOCTYPE svg PUBLIC "-//W3C//DTD SVG 1.1//EN" "http://www.w3.org/Graphics/SVG/1.1/DTD/svg11.dtd">
<svg xmlns="http://www.w3.org/2000/svg" xmlns:xlink="http://www.w3.org/1999/xlink" version="1.1" baseProfile="full" width="24" height="24" viewBox="0 0 24.00 24.00" enable-background="new 0 0 24.00 24.00" xml:space="preserve">
	<path fill="#000000" fill-opacity="1" stroke-width="0.2" stroke-linejoin="round" d="M 21,5L 21,19C 21,20.1 20.1,21 19,21L 5.00001,21C 3.90001,21 3.00001,20.1 3.00001,19L 3.00001,5C 3.00001,3.9 3.90001,3 5.00001,3L 19,3C 20.1,3 21,3.9 21,5 Z M 19,11L 17,11L 17,9.00001L 15,9.00001L 15,11L 13,11L 13,13L 15,13L 15,15L 17,15L 17,13L 19,13L 19,11 Z M 10,7.00001L 8,7.00001C 6.9,7.00001 6,7.89001 6,9.00001L 6,11C 6,12.11 6.9,13 8,13L 10,13L 10,15L 6,15L 6,17L 10,17C 11.1,17 12,16.11 12,15L 12,9.00001C 12,7.89001 11.1,7.00001 10,7.00001 Z M 7.99999,9.00001L 9.99999,9.00001L 9.99999,11L 7.99999,11L 7.99999,9.00001 Z "/>
</svg>
