<?xml version="1.0" encoding="utf-8"?>
<!DOCTYPE svg PUBLIC "-//W3C//DTD SVG 1.1//EN" "http://www.w3.org/Graphics/SVG/1.1/DTD/svg11.dtd">
<svg xmlns="http://www.w3.org/2000/svg" xmlns:xlink="http://www.w3.org/1999/xlink" version="1.1" baseProfile="full" width="24" height="24" viewBox="0 0 24.00 24.00" enable-background="new 0 0 24.00 24.00" xml:space="preserve">
	<path fill="#000000" fill-opacity="1" stroke-width="0.2" stroke-linejoin="round" d="M 19,19L 19,4.99999L 5,4.99999L 5,19L 19,19 Z M 19,3C 20.1,3 21,3.9 21,5L 21,19C 21,20.1 20.1,21 19,21L 5,21C 3.9,21 3,20.1 3,19L 3,5C 3,3.9 3.9,3 5,3L 19,3 Z M 11,6.99999L 13,6.99999C 14.1046,6.99999 15,7.89543 15,9L 15,15C 15,16.1046 14.1046,17 13,17L 11,17C 9.89542,17 9,16.1046 9,15L 9,9C 9,7.89543 9.89542,6.99999 11,6.99999 Z M 11,9L 11,15L 13,15L 13,9L 11,9 Z "/>
</svg>
