<?xml version="1.0" encoding="utf-8"?>
<!DOCTYPE svg PUBLIC "-//W3C//DTD SVG 1.1//EN" "http://www.w3.org/Graphics/SVG/1.1/DTD/svg11.dtd">
<svg xmlns="http://www.w3.org/2000/svg" xmlns:xlink="http://www.w3.org/1999/xlink" version="1.1" baseProfile="full" width="24" height="24" viewBox="0 0 24.00 24.00" enable-background="new 0 0 24.00 24.00" xml:space="preserve">
	<path fill="#000000" fill-opacity="1" stroke-width="0.2" stroke-linejoin="round" d="M 19,11L 19,13L 17,13L 17,15L 15,15L 15,13L 13,13L 13,11L 15,11L 15,9.00001L 17,9.00001L 17,11L 19,11 Z M 10,7.00002C 11.1,7.00002 12,7.89001 12,9.00002L 12,15C 12,16.11 11.1,17 10,17L 6,17L 6,15L 10,15L 10,13L 7.99999,13C 6.9,13 6,12.11 6,11L 6,9.00002C 6,7.89001 6.9,7.00002 7.99999,7.00002L 10,7.00002 Z M 7.99999,9.00001L 7.99999,11L 9.99999,11L 9.99999,9.00001L 7.99999,9.00001 Z M 12,2C 17.5228,2 22,6.47716 22,12C 22,17.5229 17.5228,22 12,22C 6.47715,22 2,17.5229 2,12C 2,6.47716 6.47715,2 12,2 Z M 12,4C 7.58172,4 4,7.58173 4,12C 4,16.4183 7.58172,20 12,20C 16.4183,20 20,16.4183 20,12C 20,7.58173 16.4183,4 12,4 Z "/>
</svg>
