<?xml version="1.0" encoding="utf-8"?>
<!DOCTYPE svg PUBLIC "-//W3C//DTD SVG 1.1//EN" "http://www.w3.org/Graphics/SVG/1.1/DTD/svg11.dtd">
<svg xmlns="http://www.w3.org/2000/svg" xmlns:xlink="http://www.w3.org/1999/xlink" version="1.1" baseProfile="full" width="24" height="24" viewBox="0 0 24.00 24.00" enable-background="new 0 0 24.00 24.00" xml:space="preserve">
	<path fill="#000000" fill-opacity="1" stroke-linejoin="round" d="M 15,9L 13,9L 13,7L 15,7M 15,5L 13,5C 11.9,5 11,5.89 11,7L 11,9C 11,10.11 11.9,11 13,11L 15,11L 15,13L 11,13L 11,15L 15,15C 16.1,15 17,14.11 17,13L 17,7C 17,5.89 16.1,5 15,5 Z M 21,17L 7,17L 7,3L 21,3M 21,1L 7,1C 5.9,1 5,1.9 5,3L 5,17C 5,18.1 5.9,19 7,19L 21,19C 22.1,19 23,18.1 23,17L 23,3C 23,1.9 22.1,1 21,1 Z M 3,5L 1,5L 1,21C 1,22.1 1.9,23 3,23L 19,23L 19,21L 3,21L 3,5 Z "/>
</svg>
