<?xml version="1.0" encoding="utf-8"?>
<!DOCTYPE svg PUBLIC "-//W3C//DTD SVG 1.1//EN" "http://www.w3.org/Graphics/SVG/1.1/DTD/svg11.dtd">
<svg xmlns="http://www.w3.org/2000/svg" xmlns:xlink="http://www.w3.org/1999/xlink" version="1.1" baseProfile="full" width="24" height="24" viewBox="0 0 24.00 24.00" enable-background="new 0 0 24.00 24.00" xml:space="preserve">
	<path fill="#050708" fill-opacity="1" stroke-width="0.2" stroke-linejoin="round" d="M 11,13L 11,15L 13,15L 13,13L 11,13 Z M 11,9L 11,11L 13,11L 13,9L 11,9 Z M 11,17C 9.9,17 9,16.11 9,15L 9,13.5C 9,12.6716 9.67157,12 10.5,12C 9.67157,12 9,11.3284 9,10.5L 9,9C 9,7.8954 9.89543,7 11,7L 13,7C 14.1,7 15,7.89 15,9L 15,10.5C 15,11.3284 14.3284,12 13.5,12C 14.3284,12 15,12.6716 15,13.5L 15,15C 15,16.1046 14.1046,17 13,17L 11,17 Z M 12,2C 17.5228,2 22,6.47716 22,12C 22,17.5229 17.5228,22 12,22C 6.47715,22 2,17.5229 2,12C 2,6.47716 6.47715,2 12,2 Z M 12,4C 7.58172,4 4,7.58172 4,12C 4,16.4183 7.58172,20 12,20C 16.4183,20 20,16.4183 20,12C 20,7.58172 16.4183,4 12,4 Z "/>
</svg>
