<?xml version="1.0" encoding="utf-8"?>
<!DOCTYPE svg PUBLIC "-//W3C//DTD SVG 1.1//EN" "http://www.w3.org/Graphics/SVG/1.1/DTD/svg11.dtd">
<svg xmlns="http://www.w3.org/2000/svg" xmlns:xlink="http://www.w3.org/1999/xlink" version="1.1" baseProfile="full" width="24" height="24" viewBox="0 0 24.00 24.00" enable-background="new 0 0 24.00 24.00" xml:space="preserve">
	<path fill="#000000" fill-opacity="1" stroke-width="0.2" stroke-linejoin="round" d="M 19,11L 17,11L 17,9.00001L 15,9.00001L 15,11L 13,11L 13,13L 15,13L 15,15L 17,15L 17,13L 19,13L 19,11 Z M 9.99999,7.00002L 7.99999,7.00002C 6.9,7.00002 6,7.89002 6,9.00002L 6,11C 6,12.11 6.9,13 7.99999,13L 9.99999,13L 9.99999,15L 6,15L 6,17L 9.99999,17C 11.1,17 12,16.11 12,15L 12,9.00002C 12,7.89002 11.1,7.00002 9.99999,7.00002 Z M 7.99999,9.00002L 9.99999,9.00002L 9.99999,11L 7.99999,11L 7.99999,9.00002 Z M 12,2C 17.5228,2 22,6.47716 22,12C 22,17.5229 17.5228,22 12,22C 6.47715,22 2,17.5229 2,12C 2,6.47716 6.47715,2 12,2 Z "/>
</svg>
