<?xml version="1.0" encoding="utf-8"?>
<!DOCTYPE svg PUBLIC "-//W3C//DTD SVG 1.1//EN" "http://www.w3.org/Graphics/SVG/1.1/DTD/svg11.dtd">
<svg xmlns="http://www.w3.org/2000/svg" xmlns:xlink="http://www.w3.org/1999/xlink" version="1.1" baseProfile="full" width="24" height="24" viewBox="0 0 24.00 24.00" enable-background="new 0 0 24.00 24.00" xml:space="preserve">
	<path fill="#000000" fill-opacity="1" stroke-width="0.2" stroke-linejoin="round" d="M 11,9L 11,8L 12,8L 12,9L 11,9 Z M 21,1.00001C 22.1,1.00001 23,1.9 23,3.00001L 23,17C 23,18.1 22.1,19 21,19L 7,19C 5.9,19 5,18.1 5,17L 5,3.00001C 5,1.9 5.9,1.00001 7,1.00001L 21,1.00001 Z M 3,5.00001L 3,21L 19,21L 19,23L 3,23C 1.9,23 0.999999,22.1 0.999999,21L 0.999999,5.00001L 3,5.00001 Z M 15,9L 15,11L 17,11L 17,13L 19,13L 19,11L 21,11L 21,9L 19,9L 19,7L 17,7L 17,9L 15,9 Z M 14,12L 14,8C 14,6.89 13.1,6 12,6L 11,6C 9.9,6 9,6.89 9,8L 9,9C 9,10.11 9.9,11 11,11L 12,11L 12,12L 9,12L 9,14L 12,14C 13.1,14 14,13.11 14,12 Z "/>
</svg>
