<?xml version="1.0" encoding="utf-8"?>
<!DOCTYPE svg PUBLIC "-//W3C//DTD SVG 1.1//EN" "http://www.w3.org/Graphics/SVG/1.1/DTD/svg11.dtd">
<svg xmlns="http://www.w3.org/2000/svg" xmlns:xlink="http://www.w3.org/1999/xlink" version="1.1" baseProfile="full" width="24" height="24" viewBox="0 0 24.00 24.00" enable-background="new 0 0 24.00 24.00" xml:space="preserve">
	<path fill="#000000" fill-opacity="1" stroke-linejoin="round" d="M 21,9L 19,9L 19,7L 17,7L 17,9L 15,9L 15,11L 17,11L 17,13L 19,13L 19,11L 21,11L 21,17L 7,17L 7,3L 21,3M 21,1L 7,1C 5.9,1 5,1.9 5,3L 5,17C 5,18.1 5.9,19 7,19L 21,19C 22.1,19 23,18.1 23,17L 23,3C 23,1.9 22.1,1 21,1 Z M 11,9L 11,8L 12,8L 12,9M 14,12L 14,8C 14,6.89 13.1,6 12,6L 11,6C 9.9,6 9,6.89 9,8L 9,9C 9,10.11 9.9,11 11,11L 12,11L 12,12L 9,12L 9,14L 12,14C 13.1,14 14,13.11 14,12 Z M 3,5L 1,5L 1,21C 1,22.1 1.9,23 3,23L 19,23L 19,21L 3,21L 3,5 Z "/>
</svg>
