<?xml version="1.0" encoding="utf-8"?>
<!DOCTYPE svg PUBLIC "-//W3C//DTD SVG 1.1//EN" "http://www.w3.org/Graphics/SVG/1.1/DTD/svg11.dtd">
<svg xmlns="http://www.w3.org/2000/svg" xmlns:xlink="http://www.w3.org/1999/xlink" version="1.1" baseProfile="full" width="24" height="24" viewBox="0 0 24.00 24.00" enable-background="new 0 0 24.00 24.00" xml:space="preserve">
	<path fill="#000000" fill-opacity="1" stroke-width="0.2" stroke-linejoin="round" d="M 15,15L 15,13.5C 15,12.67 14.3301,12 13.5,12C 14.3301,12 15,11.33 15,10.5L 15,9C 15,7.89 14.1,7 13,7L 9,7L 9,9L 13,9L 13,11L 11,11L 11,13L 13,13L 13,15L 9,15L 9,17L 13,17C 14.1,17 15,16.11 15,15 Z M 19,19L 5,19L 5,5.00001L 19,5.00001M 19,3.00001L 5,3.00001C 3.90001,3.00001 3,3.90001 3,5.00001L 3,19C 3,20.1 3.90001,21 5,21L 19,21C 20.1,21 21,20.1 21,19L 21,5.00001C 21,3.90001 20.1,3.00001 19,3.00001 Z "/>
</svg>
