<?xml version="1.0" encoding="utf-8"?>
<!DOCTYPE svg PUBLIC "-//W3C//DTD SVG 1.1//EN" "http://www.w3.org/Graphics/SVG/1.1/DTD/svg11.dtd">
<svg xmlns="http://www.w3.org/2000/svg" xmlns:xlink="http://www.w3.org/1999/xlink" version="1.1" baseProfile="full" width="24" height="24" viewBox="0 0 24.00 24.00" enable-background="new 0 0 24.00 24.00" xml:space="preserve">
	<path fill="#000000" fill-opacity="1" stroke-width="0.2" stroke-linejoin="round" d="M 19,11L 17,11L 17,9L 15,9L 15,11L 13,11L 13,13L 15,13L 15,15L 17,15L 17,13L 19,13L 19,19L 5.00001,19L 5.00001,4.99999L 19,4.99999M 19,3L 5.00001,3C 3.90001,3 3.00001,3.9 3.00001,5L 3.00001,19C 3.00001,20.1 3.90001,21 5.00001,21L 19,21C 20.1,21 21,20.1 21,19L 21,5C 21,3.9 20.1,3 19,3 Z M 9,11L 9,10L 10,10L 10,11M 12,14L 12,10C 12,8.89 11.1,8 10,8L 9,8C 7.9,8 7.00001,8.89 7.00001,10L 7.00001,11C 7.00001,12.11 7.9,13 9,13L 10,13L 10,14L 7.00001,14L 7.00001,16L 10,16C 11.1,16 12,15.11 12,14 Z "/>
</svg>
