<?xml version="1.0" encoding="utf-8"?>
<!DOCTYPE svg PUBLIC "-//W3C//DTD SVG 1.1//EN" "http://www.w3.org/Graphics/SVG/1.1/DTD/svg11.dtd">
<svg xmlns="http://www.w3.org/2000/svg" xmlns:xlink="http://www.w3.org/1999/xlink" version="1.1" baseProfile="full" width="24" height="24" viewBox="0 0 24.00 24.00" enable-background="new 0 0 24.00 24.00" xml:space="preserve">
	<path fill="#000000" fill-opacity="1" stroke-width="0.2" stroke-linejoin="round" d="M 3,5.00001L 3,21L 19,21L 19,23L 3,23C 1.9,23 1,22.1 1,21L 1,5.00001L 3,5.00001 Z M 21,1.00001C 22.1,1.00001 23,1.90001 23,3.00001L 23,17C 23,18.1 22.1,19 21,19L 7,19C 5.9,19 5,18.1 5,17L 5,3.00001C 5,1.90001 5.9,1.00001 7,1.00001L 21,1.00001 Z M 13,5.00001C 11.8954,5.00001 11,5.89544 11,7.00001L 11,13C 11,14.1046 11.8954,15 13,15L 15,15C 16.1046,15 17,14.1046 17,13L 17,7.00001C 17,5.89544 16.1046,5.00001 15,5.00001L 13,5.00001 Z M 13,7.00001L 15,7.00001L 15,13L 13,13L 13,7.00001 Z "/>
</svg>
