<?xml version="1.0" encoding="utf-8"?>
<!DOCTYPE svg PUBLIC "-//W3C//DTD SVG 1.1//EN" "http://www.w3.org/Graphics/SVG/1.1/DTD/svg11.dtd">
<svg xmlns="http://www.w3.org/2000/svg" xmlns:xlink="http://www.w3.org/1999/xlink" version="1.1" baseProfile="full" width="24" height="24" viewBox="0 0 24.00 24.00" enable-background="new 0 0 24.00 24.00" xml:space="preserve">
	<path fill="#000000" fill-opacity="1" stroke-width="0.2" stroke-linejoin="round" d="M 11,13L 13,13L 13,15L 11,15M 11,17L 13,17C 14.1,17 15,16.11 15,15L 15,13C 15,11.89 14.1,11 13,11L 11,11L 11,9L 15,9L 15,7L 11,7C 9.9,7 9,7.89 9,9L 9,15C 9,16.11 9.9,17 11,17 Z M 19,19L 5.00001,19L 5.00001,5L 19,5M 19,3L 5.00001,3C 3.90001,3 3.00001,3.9 3.00001,5L 3.00001,19C 3.00001,20.1 3.90001,21 5.00001,21L 19,21C 20.1,21 21,20.1 21,19L 21,5C 21,3.9 20.1,3 19,3 Z "/>
</svg>
