<?xml version="1.0" encoding="utf-8"?>
<!DOCTYPE svg PUBLIC "-//W3C//DTD SVG 1.1//EN" "http://www.w3.org/Graphics/SVG/1.1/DTD/svg11.dtd">
<svg xmlns="http://www.w3.org/2000/svg" xmlns:xlink="http://www.w3.org/1999/xlink" version="1.1" baseProfile="full" width="24" height="24" viewBox="0 0 24.00 24.00" enable-background="new 0 0 24.00 24.00" xml:space="preserve">
	<path fill="#000000" fill-opacity="1" stroke-width="1.33333" stroke-linejoin="miter" d="M 11,13L 13,13L 13,15L 11,15M 11,9L 13,9L 13,11L 11,11M 11,17L 13,17C 14.1046,17 15,16.1046 15,15L 15,13.5C 15,12.6716 14.3284,12 13.5,12C 14.3284,12 15,11.3284 15,10.5L 15,9C 15,7.89 14.1,7 13,7L 11,7C 9.89543,7 9,7.8954 9,9L 9,10.5C 9,11.3284 9.67157,12 10.5,12C 9.67157,12 9,12.6716 9,13.5L 9,15C 9,16.11 9.9,17 11,17"/>
</svg>
