<?xml version="1.0" encoding="utf-8"?>
<!DOCTYPE svg PUBLIC "-//W3C//DTD SVG 1.1//EN" "http://www.w3.org/Graphics/SVG/1.1/DTD/svg11.dtd">
<svg xmlns="http://www.w3.org/2000/svg" xmlns:xlink="http://www.w3.org/1999/xlink" version="1.1" baseProfile="full" width="24" height="24" viewBox="0 0 24.00 24.00" enable-background="new 0 0 24.00 24.00" xml:space="preserve">
	<path fill="#000000" fill-opacity="1" stroke-width="1.33333" stroke-linejoin="miter" d="M 20,12C 16.8,10.4 13.4,9.7 10.8,9.3L 9.7,5.9C 9.3,4.8 7.7,4.8 7.3,5.9L 6.3,9C 3.9,9.4 2,11.5 2,14C 2,16.8 4.2,19 7,19C 7,19 14,19 20,16C 20,16 22,15 22,14C 22,13 20,12 20,12 Z M 5,14C 4.4,14 4,13.6 4,13C 4,12.4 4.4,12 5,12C 5.6,12 6,12.4 6,13C 6,13.5 5.6,14 5,14 Z M 7,17C 6.4,17 6,16.6 6,16C 6,15.4 6.4,15 7,15C 7.6,15 8,15.4 8,16C 8,16.5 7.6,17 7,17 Z M 9,14C 8.4,14 8,13.6 8,13C 8,12.4 8.4,12 9,12C 9.6,12 10,12.4 10,13C 10,13.5 9.6,14 9,14 Z M 11,17C 10.4,17 10,16.6 10,16C 10,15.4 10.4,15 11,15C 11.6,15 12,15.4 12,16C 12,16.5 11.6,17 11,17 Z M 16,14C 15.4,14 15,13.6 15,13C 15,12.4 15.4,12 16,12C 16.6,12 17,12.4 17,13C 17,13.5 16.6,14 16,14 Z M 19,15C 18.4,15 18,14.6 18,14C 18,13.4 18.4,13 19,13C 19.6,13 20,13.4 20,14C 20,14.5 19.6,15 19,15 Z "/>
</svg>
