<?xml version="1.0" encoding="utf-8"?>
<!DOCTYPE svg PUBLIC "-//W3C//DTD SVG 1.1//EN" "http://www.w3.org/Graphics/SVG/1.1/DTD/svg11.dtd">
<svg xmlns="http://www.w3.org/2000/svg" xmlns:xlink="http://www.w3.org/1999/xlink" version="1.1" baseProfile="full" width="24" height="24" viewBox="0 0 24.00 24.00" enable-background="new 0 0 24.00 24.00" xml:space="preserve">
	<path fill="#000000" fill-opacity="1" stroke-linejoin="round" d="M 17.8349,12.7412C 17.5491,12.1672 16.7575,11.6896 15.7056,12.5184C 14.2838,13.6387 12,13.6387 12,13.6387C 12,13.6387 9.71622,13.6387 8.29441,12.5184C 7.24247,11.6896 6.45096,12.1672 6.16519,12.7412C 5.66694,13.7421 6.22989,14.2259 7.5002,15.0413C 8.58524,15.7379 10.0761,15.9981 11.0389,16.0954L 10.2352,16.899C 9.10321,18.031 8.01053,19.1237 7.2524,19.8819C 6.79911,20.335 6.79911,21.07 7.2524,21.5233L 7.38916,21.6601C 7.84245,22.1133 8.5773,22.1132 9.03058,21.6601L 12.0134,18.6772C 13.1455,19.8092 14.2381,20.9019 14.9963,21.66C 15.4495,22.1132 16.1845,22.1132 16.6377,21.66L 16.7744,21.5233C 17.2278,21.0699 17.2277,20.335 16.7744,19.8818L 13.7916,16.8989L 12.9855,16.0929C 13.949,15.9936 15.4239,15.7321 16.4999,15.0413C 17.7701,14.2259 18.333,13.7421 17.8349,12.7412 Z M 12,4.5715C 13.3754,4.5715 14.4904,5.68648 14.4904,7.06178C 14.4904,8.43712 13.3754,9.55206 12,9.55206C 10.6247,9.55206 9.50974,8.43712 9.50974,7.06178C 9.50974,5.68648 10.6247,4.5715 12,4.5715 Z M 12,12.1236C 14.7956,12.1236 17.0619,9.85733 17.0619,7.06178C 17.0619,4.26628 14.7956,2.00001 12,2.00001C 9.20442,2.00001 6.9382,4.26628 6.9382,7.06178C 6.9382,9.85733 9.20442,12.1236 12,12.1236 Z "/>
</svg>
