<?xml version="1.0" encoding="utf-8"?>
<!DOCTYPE svg PUBLIC "-//W3C//DTD SVG 1.1//EN" "http://www.w3.org/Graphics/SVG/1.1/DTD/svg11.dtd">
<svg xmlns="http://www.w3.org/2000/svg" xmlns:xlink="http://www.w3.org/1999/xlink" version="1.1" baseProfile="full" width="24" height="24" viewBox="0 0 24.00 24.00" enable-background="new 0 0 24.00 24.00" xml:space="preserve">
	<path fill="#000000" fill-opacity="1" stroke-width="0.2" stroke-linejoin="round" d="M 4.75,13L 10.25,13L 10.5587,13.0271L 8.58579,15L 5,15L 5,20L 10,20L 10,16.4142L 11.9729,14.4413L 12,14.75L 12,20.25C 12,21.2165 11.2165,22 10.25,22L 3,22L 3,14.75C 3,13.7835 3.7835,13 4.75,13 Z M 19.5,21L 14.5,21C 13.6716,21 13,20.3284 13,19.5L 13.0023,14.4165L 15,16.4142L 15,19L 19,19L 19,15L 16.4142,15L 14.5,13L 19.5,13C 20.3284,13 21,13.6716 21,14.5L 21,19.5C 21,20.3284 20.3284,21 19.5,21 Z M 18.75,5C 19.4404,5 20,5.55965 20,6.25L 20,10.75C 20,11.4404 19.4404,12 18.75,12L 14.4142,12L 16.4142,10L 18,10L 18,7.00001L 15,7.00001L 15,8.58579L 13,10.5858L 13,6.25C 13,5.55965 13.5596,5 14.25,5L 18.75,5 Z M 10,2.00001C 11.1046,2.00001 12,2.89543 12,4L 12,10L 11.9323,10.518L 10,8.58579L 10,4L 4,4L 4,10L 8.58578,10L 10.518,11.9323L 10,12L 4,12C 2.89543,12 2,11.1046 2,10L 2,2.00001L 10,2.00001 Z "/>
</svg>
