<?xml version="1.0" encoding="utf-8"?>
<!DOCTYPE svg PUBLIC "-//W3C//DTD SVG 1.1//EN" "http://www.w3.org/Graphics/SVG/1.1/DTD/svg11.dtd">
<svg xmlns="http://www.w3.org/2000/svg" xmlns:xlink="http://www.w3.org/1999/xlink" version="1.1" baseProfile="full" width="24" height="24" viewBox="0 0 24.00 24.00" enable-background="new 0 0 24.00 24.00" xml:space="preserve">
	<path fill="#000000" fill-opacity="1" stroke-width="1.33333" stroke-linejoin="miter" d="M 11.5,1C 10.6716,1 10,1.6716 10,2.5L 10,14.5019C 9.37103,14.9737 9.00061,15.7138 9,16.5C 9,17.8807 10.1193,19 11.5,19C 12.8807,19 14,17.8807 14,16.5C 13.9988,15.7145 13.6284,14.9752 13,14.5039L 13,13L 17,13L 17,11L 13,11L 13,9L 17,9L 17,7L 13,7L 13,5L 17,5L 17,3L 13,3L 13,2.5C 13,1.6716 12.3284,1 11.5,1 Z M 1.27157e-006,15L 1.27157e-006,17C 0.666668,17 0.79297,17.207 1.29297,17.707C 1.79297,18.207 2.66667,19 4,19C 5.33333,19 6.20703,18.207 6.70703,17.707C 6.82212,17.5919 6.91336,17.4952 7,17.4102L 7,15.1621C 6.21468,15.4194 5.65466,15.9313 5.29297,16.293C 4.79297,16.793 4.66667,17 4,17C 3.33333,17 3.20703,16.793 2.70703,16.293C 2.20703,15.793 1.33333,15 1.27157e-006,15 Z M 16,15L 16,17C 16.6667,17 16.793,17.207 17.293,17.707C 17.793,18.207 18.6667,19 20,19C 21.3333,19 22.207,18.207 22.707,17.707C 23.207,17.207 23.3333,17 24,17L 24,15C 22.6667,15 21.793,15.793 21.293,16.293C 20.793,16.793 20.6667,17 20,17C 19.3333,17 19.207,16.793 18.707,16.293C 18.207,15.793 17.3333,15 16,15 Z M 8,20C 6.66667,20 5.79297,20.793 5.29297,21.293C 4.79297,21.793 4.66667,22 4,22C 3.33333,22 3.20703,21.793 2.70703,21.293C 2.34534,20.9313 1.78532,20.4194 1,20.1621L 1,22.4102C 1.08664,22.4952 1.17788,22.5919 1.29297,22.707C 1.79297,23.207 2.66667,24 4,24C 5.33333,24 6.20703,23.207 6.70703,22.707C 7.20703,22.207 7.33333,22 8,22C 8.66667,22 8.79297,22.207 9.29297,22.707C 9.72742,23.1415 10.4449,23.7965 11.5,23.9609C 11.6592,23.9859 11.8252,24 12,24C 13.3333,24 14.207,23.207 14.707,22.707C 15.207,22.207 15.3333,22 16,22C 16.6667,22 16.793,22.207 17.293,22.707C 17.793,23.207 18.6667,24 20,24C 21.3333,24 22.207,23.207 22.707,22.707C 22.8221,22.5919 22.9134,22.4952 23,22.4102L 23,20.1621C 22.2147,20.4193 21.6547,20.9313 21.293,21.293C 20.793,21.793 20.6667,22 20,22C 19.3333,22 19.207,21.793 18.707,21.293C 18.207,20.793 17.3333,20 16,20C 14.6667,20 13.793,20.793 13.293,21.293C 12.793,21.793 12.6667,22 12,22C 11.784,22 11.6336,21.9679 11.5,21.9219C 11.2212,21.8249 11.045,21.6309 10.707,21.293C 10.207,20.793 9.33333,20 8,20 Z "/>
</svg>
