<?xml version="1.0" encoding="utf-8"?>
<!DOCTYPE svg PUBLIC "-//W3C//DTD SVG 1.1//EN" "http://www.w3.org/Graphics/SVG/1.1/DTD/svg11.dtd">
<svg xmlns="http://www.w3.org/2000/svg" xmlns:xlink="http://www.w3.org/1999/xlink" version="1.1" baseProfile="full" width="24" height="24" viewBox="0 0 24.00 24.00" enable-background="new 0 0 24.00 24.00" xml:space="preserve">
	<path fill="#000000" fill-opacity="1" stroke-width="0.2" stroke-linejoin="round" d="M 22,12.5C 22,12.5 24,14.667 24,16C 24,17.104 23.104,18 22,18C 20.896,18 20,17.104 20,16C 20,14.667 22,12.5 22,12.5 Z M 6,6L 10,6C 10.5523,6 11,6.44772 11,7C 11,7.55229 10.5523,8 10,8L 9,8L 9,10L 11,10C 11.7402,10 12.3865,10.4021 12.7323,10.9998L 19.2372,7.24422L 22.5014,9.12877C 22.9797,9.40491 23.1435,10.0165 22.8674,10.4948C 22.5913,10.9731 21.9797,11.137 21.5014,10.8608L 19.3997,9.64742L 15.7513,15.9667C 15.4104,16.5828 14.7539,17 14,17L 5,17C 3.89543,17 3,16.1046 3,15L 3,12C 3,10.8954 3.89543,10 5,10L 7,10L 7,8L 6,8C 5.44771,8 5,7.55229 5,7C 5,6.44772 5.44771,6 6,6 Z M 5,12L 5,15L 14,15L 16.0622,11.4282L 12.5981,13.4282L 11.689,12L 5,12 Z M 0.378682,9.20711L 2.08579,7.50001C 2.47631,7.10948 3.10948,7.10948 3.5,7.50001C 3.89053,7.89053 3.89053,8.52369 3.5,8.91422L 1.7929,10.6213C 1.40237,11.0118 0.769206,11.0118 0.378682,10.6213C -0.0118421,10.2308 -0.0118421,9.59764 0.378682,9.20711 Z "/>
</svg>
