<?xml version="1.0" encoding="utf-8"?>
<!DOCTYPE svg PUBLIC "-//W3C//DTD SVG 1.1//EN" "http://www.w3.org/Graphics/SVG/1.1/DTD/svg11.dtd">
<svg xmlns="http://www.w3.org/2000/svg" xmlns:xlink="http://www.w3.org/1999/xlink" version="1.1" baseProfile="full" width="24" height="24" viewBox="0 0 24.00 24.00" enable-background="new 0 0 24.00 24.00" xml:space="preserve">
	<path fill="#000000" fill-opacity="1" stroke-width="1.33333" stroke-linejoin="miter" d="M 10,19L 10,19C 9.4,19 9,18.6 9,18L 9,17C 9,16.5 9.4,16 10,16L 10,16C 10.5,16 11,16.4 11,17L 11,18C 11,18.6 10.6,19 10,19 Z M 15,18L 15,17C 15,16.5 14.6,16 14,16L 14,16C 13.5,16 13,16.4 13,17L 13,18C 13,18.5 13.4,19 14,19L 14,19C 14.6,19 15,18.6 15,18 Z M 22,12C 22,14.6 20.4,16.9 18,18.4L 18,20C 18,21.1 17.1,22 16,22L 8,22C 6.9,22 6,21.1 6,20L 6,18.4C 3.6,16.9 2,14.6 2,12C 2,6.5 6.5,2 12,2C 17.5,2 22,6.5 22,12 Z M 7,10C 7,8.9 6.4,7.9 5.5,7.4C 4.5,8.7 4,10.3 4,12C 4,12.3 4,12.7 4.1,13C 5.7,12.9 7,11.6 7,10 Z M 9,9C 9,10.7 10.3,12 12,12C 13.7,12 15,10.7 15,9C 15,7.3 13.7,6 12,6C 10.3,6 9,7.3 9,9 Z M 16,20L 16,15.5C 14.8,15.2 13.4,15 12,15C 10.6,15 9.2,15.2 8,15.5L 8,20L 16,20 Z M 19.9,13C 20,12.7 20,12.3 20,12C 20,10.3 19.5,8.7 18.5,7.4C 17.6,7.9 17,8.9 17,10C 17,11.6 18.3,12.9 19.9,13 Z "/>
</svg>
