<?xml version="1.0" encoding="utf-8"?>
<!DOCTYPE svg PUBLIC "-//W3C//DTD SVG 1.1//EN" "http://www.w3.org/Graphics/SVG/1.1/DTD/svg11.dtd">
<svg xmlns="http://www.w3.org/2000/svg" xmlns:xlink="http://www.w3.org/1999/xlink" version="1.1" baseProfile="full" width="24" height="24" viewBox="0 0 24.00 24.00" enable-background="new 0 0 24.00 24.00" xml:space="preserve">
	<path fill="#000000" fill-opacity="0.780392" stroke-linejoin="round" d="M 1.96216,4.79954L 14,3.08126L 14,5L 20,5L 21,5C 21.5523,5 22,5.44772 22,6L 22,10C 22,10.5523 21.5523,11 21,11L 20,11L 20,19L 14,19L 14,21.0047L 1.96216,19.2094L 1.96216,4.79954 Z M 11,16.75L 11,8.25001L 9,8.5L 9,12.75L 7,8.75L 5,9L 5,16L 6.5,16.25L 6.5,10.75L 9,16.5L 11,16.75 Z M 14,14L 18,14L 18,13L 14,13L 14,14 Z M 14,11L 18,11L 18,10L 14,10L 14,11 Z M 14,8L 18,8L 18,7L 14,7L 14,8 Z M 14,16L 14,17L 18,17L 18,16L 14,16 Z "/>
</svg>
