<?xml version="1.0" encoding="utf-8"?>
<!DOCTYPE svg PUBLIC "-//W3C//DTD SVG 1.1//EN" "http://www.w3.org/Graphics/SVG/1.1/DTD/svg11.dtd">
<svg xmlns="http://www.w3.org/2000/svg" xmlns:xlink="http://www.w3.org/1999/xlink" version="1.1" baseProfile="full" width="24" height="24" viewBox="0 0 24.00 24.00" enable-background="new 0 0 24.00 24.00" xml:space="preserve">
	<g>
		<path fill="#000000" fill-opacity="1" stroke-width="1.33333" stroke-linejoin="miter" d="M 12,1C 5.92487,1 1,5.9249 1,12C 1,18.0751 5.92487,23 12,23C 18.0751,23 23,18.0751 23,12C 23,5.9249 18.0751,1 12,1 Z M 12,20C 7.58172,20 4,16.4183 4,12C 4,7.5817 7.58172,4 12,4C 16.4183,4 20,7.5817 20,12C 20,16.4183 16.4183,20 12,20 Z M 13,13.5C 13.0018,14.1341 13.4021,14.6986 14,14.91L 14,18L 10,18L 10,11.91C 10.7787,11.644 11.1944,10.7971 10.9283,10.0183C 10.7792,9.5819 10.4364,9.2391 10,9.09L 10,6L 14,6L 14,12.09C 13.4021,12.3014 13.0018,12.8659 13,13.5 Z "/>
	</g>
</svg>
