<?xml version="1.0" encoding="utf-8"?>
<!DOCTYPE svg PUBLIC "-//W3C//DTD SVG 1.1//EN" "http://www.w3.org/Graphics/SVG/1.1/DTD/svg11.dtd">
<svg xmlns="http://www.w3.org/2000/svg" xmlns:xlink="http://www.w3.org/1999/xlink" version="1.1" baseProfile="full" width="24" height="24" viewBox="0 0 24.00 24.00" enable-background="new 0 0 24.00 24.00" xml:space="preserve">
	<path fill="#000000" fill-opacity="1" stroke-width="0.2" stroke-linejoin="miter" d="M 17.6602,8L 12,2.35L 6.34001,8C 4.78,9.56 4,11.64 4,13.64C 4,15.64 4.78,17.75 6.34001,19.31C 7.9,20.87 9.95,21.66 12,21.66C 14.05,21.66 16.1,20.87 17.6602,19.31C 19.22,17.75 20,15.64 20,13.64C 20,11.64 19.22,9.56 17.6602,8 Z M 6,14C 6.01,12 6.62,10.73 7.76,9.6L 12,5.27L 16.2402,9.65C 17.38,10.77 17.9902,12 18,14L 6,14 Z "/>
</svg>
