<?xml version="1.0" encoding="utf-8"?>
<!DOCTYPE svg PUBLIC "-//W3C//DTD SVG 1.1//EN" "http://www.w3.org/Graphics/SVG/1.1/DTD/svg11.dtd">
<svg xmlns="http://www.w3.org/2000/svg" xmlns:xlink="http://www.w3.org/1999/xlink" version="1.1" baseProfile="full" width="24" height="24" viewBox="0 0 24.00 24.00" enable-background="new 0 0 24.00 24.00" xml:space="preserve">
	<path fill="#000000" fill-opacity="1" stroke-linejoin="round" d="M 12,10L 8,14L 11,14L 11,20L 13,20L 13,14L 16,14M 19,4L 5,4C 3.89,4 3,4.9 3,6L 3,18C 3,19.1 3.89,20 5,20L 9,20L 9,18L 5,18L 5,8L 19,8L 19,18L 15,18L 15,20L 19,20C 20.1,20 21,19.1 21,18L 21,6C 21,4.9 20.11,4 19,4 Z "/>
</svg>
