<?xml version="1.0" encoding="utf-8"?>
<!DOCTYPE svg PUBLIC "-//W3C//DTD SVG 1.1//EN" "http://www.w3.org/Graphics/SVG/1.1/DTD/svg11.dtd">
<svg xmlns="http://www.w3.org/2000/svg" xmlns:xlink="http://www.w3.org/1999/xlink" version="1.1" baseProfile="full" width="24" height="24" viewBox="0 0 24.00 24.00" enable-background="new 0 0 24.00 24.00" xml:space="preserve">
	<path fill="#000000" fill-opacity="1" stroke-width="1.33333" stroke-linejoin="miter" d="M 15.41,22C 15.3475,22.0149 15.2825,22.0149 15.22,22C 15.101,21.948 15.0075,21.8509 14.96,21.73L 12.74,15.93C 12.6456,15.6882 12.765,15.4156 13.01,15.32C 13.7138,15.0568 14.2804,14.519 14.58,13.83C 15.2179,12.4023 14.5777,10.7279 13.15,10.09C 11.7223,9.4521 10.0479,10.0923 9.41,11.52C 9.10883,12.2087 9.09087,12.9882 9.36,13.69C 9.65899,14.4269 10.2542,15.004 11,15.28C 11.2443,15.3678 11.3711,15.6371 11.28,15.89L 9,21.69C 8.96011,21.8122 8.86877,21.9108 8.75,21.96C 8.63416,22.0047 8.50584,22.0047 8.39,21.96C 3.23783,19.9708 0.673743,14.1815 2.66295,9.0294C 4.65217,3.8772 10.4414,1.3131 15.5936,3.3023C 18.0637,4.256 20.0547,6.1504 21.13,8.57C 22.2194,10.9901 22.2914,13.7463 21.33,16.22C 20.3214,18.876 18.2307,20.9776 15.58,22C 15.5237,22.0095 15.4663,22.0095 15.41,22 Z M 12,3.59C 7.03108,3.4623 2.89948,7.387 2.77182,12.3559C 2.67621,16.0773 4.88156,19.4735 8.32,20.9L 10.21,16C 8.37755,15.0114 7.69346,12.7245 8.68205,10.892C 9.67064,9.0596 11.9575,8.3755 13.79,9.3641C 15.6225,10.3527 16.3065,12.6396 15.318,14.472C 14.9686,15.1195 14.4375,15.6507 13.79,16L 15.68,20.93C 17.8631,19.955 19.5735,18.1583 20.44,15.93C 22.2848,11.3145 20.0388,6.0773 15.4232,4.2325C 14.3349,3.7975 13.172,3.5792 12,3.59 Z "/>
</svg>
