<?xml version="1.0" encoding="utf-8"?>
<!DOCTYPE svg PUBLIC "-//W3C//DTD SVG 1.1//EN" "http://www.w3.org/Graphics/SVG/1.1/DTD/svg11.dtd">
<svg xmlns="http://www.w3.org/2000/svg" xmlns:xlink="http://www.w3.org/1999/xlink" version="1.1" baseProfile="full" width="24" height="24" viewBox="0 0 24.00 24.00" enable-background="new 0 0 24.00 24.00" xml:space="preserve">
	<path fill="#000000" fill-opacity="1" stroke-width="1.33333" stroke-linejoin="miter" d="M 9.03732,17.0719C 8.04237,15.8974 7.3978,14.1607 7.35369,12.212L 7.35369,11.788C 7.39757,9.83927 8.04214,8.10281 9.03732,6.9283C 9.86301,5.9535 10.93,5.36558 12.0956,5.36558C 14.7151,5.36558 16.8393,8.3361 16.8393,12.0002C 16.8393,15.6643 14.7155,18.6349 12.0952,18.6349C 10.93,18.6349 10.3285,18.499 9.03732,17.0719 Z M 12.0336,3.00067L 12,3C 7.02906,3 2.99978,7.0295 2.99978,12.0002C 2.99978,16.8265 6.79957,20.7654 11.5713,20.9893L 12,21C 14.3025,21 16.4025,20.1348 17.9981,18.7103C 19.8405,17.0623 21.0002,14.6667 21.0002,12.0002C 21.0002,9.33419 19.8405,6.93928 17.9954,5.28902C 16.4117,3.87301 14.3235,3.00895 12.0336,3.00067 Z "/>
</svg>
