<?xml version="1.0" encoding="utf-8"?>
<!DOCTYPE svg PUBLIC "-//W3C//DTD SVG 1.1//EN" "http://www.w3.org/Graphics/SVG/1.1/DTD/svg11.dtd">
<svg xmlns="http://www.w3.org/2000/svg" xmlns:xlink="http://www.w3.org/1999/xlink" version="1.1" baseProfile="full" width="24" height="24" viewBox="0 0 24.00 24.00" enable-background="new 0 0 24.00 24.00" xml:space="preserve">
	<path fill="#000000" fill-opacity="1" stroke-width="1.33333" stroke-linejoin="miter" d="M 17.3261,3.5722C 15.8607,2.55918 14.0478,1.99999 12.0029,1.99999C 10.1327,1.99999 8.45659,2.46736 7.06285,3.32167C 4.37798,4.95013 2.72495,7.99848 2.72495,11.9046C 2.72495,17.1881 6.43439,22 11.9996,22C 17.5663,22 21.2751,17.1881 21.2751,11.9046C 21.2751,8.19063 19.781,5.25216 17.3261,3.5722 Z M 12.0027,3.76674C 14.9882,3.76674 15.5955,7.93292 15.5955,11.7159C 15.5955,15.2202 15.2578,19.9116 12.0393,19.9116C 8.82071,19.9116 8.40457,15.1743 8.40457,11.6702C 8.40457,7.88754 9.01657,3.76674 12.0027,3.76674 Z "/>
</svg>
