<?xml version="1.0" encoding="utf-8"?>
<!DOCTYPE svg PUBLIC "-//W3C//DTD SVG 1.1//EN" "http://www.w3.org/Graphics/SVG/1.1/DTD/svg11.dtd">
<svg xmlns="http://www.w3.org/2000/svg" xmlns:xlink="http://www.w3.org/1999/xlink" version="1.1" baseProfile="full" width="24" height="24" viewBox="0 0 24.00 24.00" enable-background="new 0 0 24.00 24.00" xml:space="preserve">
	<path fill="#000000" fill-opacity="1" stroke-width="1.33333" stroke-linejoin="miter" d="M 8.11091,1.74695C 9.2991,1.25417 10.6199,0.999998 12,0.999998C 18.0751,0.999998 23,5.92487 23,12C 23,18.0751 18.0751,23 12,23C 5.92487,23 0.999998,18.0751 0.999998,12C 0.999998,10.6199 1.25417,9.2991 1.71825,8.08195C 2.24396,8.60791 2.82829,8.96436 3.45057,9.18024C 3.1582,10.0672 3,11.0151 3,12C 3,16.9706 7.02944,21 12,21C 16.9706,21 21,16.9706 21,12C 21,7.02944 16.9706,3 12,3C 11.0151,3 10.0672,3.1582 9.18025,3.45056C 8.96436,2.82829 8.60792,2.24395 8.11091,1.74695 Z M 4.92892,2.92894C 6.03349,2.92894 6.92892,3.82437 6.92892,4.92894C 6.92892,6.03351 6.03349,6.92894 4.92892,6.92894C 3.82435,6.92894 2.92892,6.03351 2.92892,4.92894C 2.92892,3.82437 3.82435,2.92894 4.92892,2.92894 Z M 12,7C 14.7614,7 17,9.23858 17,12C 17,14.7614 14.7614,17 12,17C 9.23858,17 7,14.7614 7,12C 7,9.23858 9.23857,7 12,7 Z "/>
</svg>
