<?xml version="1.0" encoding="utf-8"?>
<!DOCTYPE svg PUBLIC "-//W3C//DTD SVG 1.1//EN" "http://www.w3.org/Graphics/SVG/1.1/DTD/svg11.dtd">
<svg xmlns="http://www.w3.org/2000/svg" xmlns:xlink="http://www.w3.org/1999/xlink" version="1.1" baseProfile="full" width="24" height="24" viewBox="0 0 24.00 24.00" enable-background="new 0 0 24.00 24.00" xml:space="preserve">
	<path fill="#000000" fill-opacity="1" stroke-width="0.2" stroke-linejoin="miter" d="M 11.9811,2.12613C 12.0219,2.23099 11.9514,2.32692 11.8937,2.408C 11.4849,2.98744 11.1635,3.63541 11.0353,4.33201L 11.0106,4.56468L 12,4.5C 16.1421,4.5 19.5,7.85786 19.5,12C 19.5,13.6167 18.9885,15.1139 18.1185,16.3386C 16.7336,18.681 14.7226,20.6514 12.3424,21.9736C 12.2519,22.0157 12.1216,22.0174 12.0596,21.9274C 11.9866,21.8331 12.0168,21.699 12.0889,21.6132C 12.4672,21.0856 12.7312,20.479 12.8747,19.8465L 12.9254,19.4435L 12,19.5C 7.85786,19.5 4.5,16.1421 4.5,12C 4.5,10.3873 5.009,8.89351 5.8751,7.67048C 7.26104,5.31672 9.27854,3.33573 11.6708,2.01491C 11.7808,1.95378 11.9433,1.99921 11.9811,2.12613 Z M 12,9C 10.3431,9 9,10.3431 9,12C 9,13.6569 10.3431,15 12,15C 13.6569,15 15,13.6569 15,12C 15,10.3431 13.6569,9 12,9 Z "/>
</svg>
