<?xml version="1.0" encoding="utf-8"?>
<!DOCTYPE svg PUBLIC "-//W3C//DTD SVG 1.1//EN" "http://www.w3.org/Graphics/SVG/1.1/DTD/svg11.dtd">
<svg xmlns="http://www.w3.org/2000/svg" xmlns:xlink="http://www.w3.org/1999/xlink" version="1.1" baseProfile="full" width="24" height="24" viewBox="0 0 24.00 24.00" enable-background="new 0 0 24.00 24.00" xml:space="preserve">
	<path fill="#000000" fill-opacity="1" stroke-width="1.33333" stroke-linejoin="miter" d="M 12.0548,2.13186C 12.0955,2.23672 12.025,2.33265 11.9673,2.41373C 11.5585,2.99317 11.2371,3.64114 11.1089,4.33774C 11.0588,4.48071 11.0699,4.58723 11.1089,4.59911C 11.9023,4.52949 12.7972,4.53751 13.5783,4.70433C 14.9995,4.99045 16.3278,5.70955 17.3487,6.73769C 18.3667,7.75521 19.0811,9.07371 19.3702,10.4843C 19.6907,12.0117 19.5115,13.6375 18.8705,15.06C 17.5113,17.9649 15.2198,20.4219 12.416,21.9794C 12.3256,22.0214 12.1953,22.0231 12.1333,21.9331C 12.0603,21.8389 12.0904,21.7047 12.1626,21.619C 12.5408,21.0913 12.8048,20.4847 12.9483,19.8522C 12.9759,19.721 13.0137,19.5882 13.0022,19.4532C 12.956,19.3929 12.8796,19.4111 12.8146,19.4133C 11.4537,19.5495 10.0532,19.3063 8.82347,18.7052C 7.50624,18.0706 6.38853,17.0331 5.64948,15.7719C 4.96476,14.6117 4.60478,13.2606 4.62983,11.9128C 4.6345,10.6758 4.97198,9.44897 5.56627,8.36607C 6.94972,5.70997 9.12189,3.46861 11.7444,2.02064C 11.8544,1.95951 12.017,2.00494 12.0548,2.13186 Z M 11.668,9.11871C 10.8585,9.22738 10.1118,9.70282 9.65846,10.3803C 9.35154,10.8456 9.16561,11.3983 9.16943,11.9578C 9.14651,12.7074 9.44536,13.4584 9.96325,13.9983C 10.4158,14.4857 11.0444,14.8032 11.7037,14.8881C 12.3748,14.9768 13.0757,14.8197 13.6441,14.4509C 14.2218,14.0841 14.662,13.5051 14.859,12.8492C 15.2287,11.7107 14.7856,10.3769 13.8211,9.67353C 13.2153,9.21252 12.4211,9.00791 11.668,9.11871 Z "/>
</svg>
