<?xml version="1.0" encoding="utf-8"?>
<!DOCTYPE svg PUBLIC "-//W3C//DTD SVG 1.1//EN" "http://www.w3.org/Graphics/SVG/1.1/DTD/svg11.dtd">
<svg xmlns="http://www.w3.org/2000/svg" xmlns:xlink="http://www.w3.org/1999/xlink" version="1.1" baseProfile="full" width="24" height="24" viewBox="0 0 24.00 24.00" enable-background="new 0 0 24.00 24.00" xml:space="preserve">
	<path fill="#000000" fill-opacity="1" stroke-width="1.33333" stroke-linejoin="miter" d="M 22,8L 22,16C 22,16.6 21.6,17 21,17L 14,17L 14,21L 2,19.2L 2,4.8L 14,3L 14,7L 21,7C 21.6,7 22,7.4 22,8 Z M 21,8.1L 17,10.4L 14,8.7L 14,10.3L 17,12L 21,9.7L 21,8.1 Z M 7.91927,8.10938C 5.81762,8.03511 4.78646,9.89324 4.78646,12.0938C 4.78646,14.2943 5.86458,16.0625 7.91927,16.0781C 9.78646,16.0923 11.0208,14.388 11.0208,12.1875C 11.0208,9.98699 10.1302,8.1875 7.91927,8.10938 Z M 7.61458,9.70313C 8.45164,9.70313 9.19792,10.4426 9.19792,11.9479C 9.19792,13.4654 8.45164,14.3125 7.61458,14.3125C 6.77753,14.3125 6.09896,13.1958 6.09896,11.9531C 6.09896,10.7105 6.77752,9.70313 7.61458,9.70313 Z "/>
</svg>
