<?xml version="1.0" encoding="utf-8"?>
<!DOCTYPE svg PUBLIC "-//W3C//DTD SVG 1.1//EN" "http://www.w3.org/Graphics/SVG/1.1/DTD/svg11.dtd">
<svg xmlns="http://www.w3.org/2000/svg" xmlns:xlink="http://www.w3.org/1999/xlink" version="1.1" baseProfile="full" width="24" height="24" viewBox="0 0 24.00 24.00" enable-background="new 0 0 24.00 24.00" xml:space="preserve">
	<path fill="#000000" fill-opacity="1" stroke-linejoin="round" d="M 20.54,5.23C 20.83,5.57 21,6.02 21,6.5L 21,19C 21,20.1 20.1,21 19,21L 5,21C 3.9,21 3,20.1 3,19L 3,6.5C 3,6.02 3.17,5.57 3.46,5.23L 4.84,3.55C 5.12,3.21 5.53,3 6,3L 18,3C 18.47,3 18.88,3.21 19.15,3.55L 20.54,5.23 Z M 5.12,5.00001L 18.87,5.00001L 17.93,4.00001L 5.93,4.00001L 5.12,5.00001 Z M 12,9.5L 6.5,15L 10,15L 10,17L 14,17L 14,15L 17.5,15L 12,9.5 Z "/>
</svg>
