<?xml version="1.0" encoding="utf-8"?>
<!DOCTYPE svg PUBLIC "-//W3C//DTD SVG 1.1//EN" "http://www.w3.org/Graphics/SVG/1.1/DTD/svg11.dtd">
<svg xmlns="http://www.w3.org/2000/svg" xmlns:xlink="http://www.w3.org/1999/xlink" version="1.1" baseProfile="full" width="24" height="24" viewBox="0 0 24.00 24.00" enable-background="new 0 0 24.00 24.00" xml:space="preserve">
	<path fill="#000000" fill-opacity="1" stroke-width="0.2" stroke-linejoin="round" d="M 5.12,5L 5.93,4L 17.93,4L 18.87,5M 12,17.5L 6.5,12L 10,12L 10,10L 14,10L 14,12L 17.5,12L 12,17.5 Z M 20.54,5.23L 19.15,3.55C 18.88,3.21 18.47,3 18,3L 6,3C 5.53,3 5.12,3.21 4.84,3.55L 3.46,5.23C 3.17,5.57 3,6.02 3,6.5L 3,19C 3,20.1 3.9,21 5,21L 19,21C 20.1,21 21,20.1 21,19L 21,6.5C 21,6.02 20.8301,5.57 20.54,5.23 Z "/>
</svg>
