<?xml version="1.0" encoding="utf-8"?>
<!DOCTYPE svg PUBLIC "-//W3C//DTD SVG 1.1//EN" "http://www.w3.org/Graphics/SVG/1.1/DTD/svg11.dtd">
<svg xmlns="http://www.w3.org/2000/svg" xmlns:xlink="http://www.w3.org/1999/xlink" version="1.1" baseProfile="full" width="24" height="24" viewBox="0 0 24.00 24.00" enable-background="new 0 0 24.00 24.00" xml:space="preserve">
	<path fill="#000000" fill-opacity="1" stroke-width="0.2" stroke-linejoin="round" d="M 5.12,5L 18.87,5L 17.93,4L 5.93,4L 5.12,5 Z M 20.54,5.23001C 20.8301,5.57001 21,6.02001 21,6.50001L 21,19C 21,20.1 20.1,21 19,21L 5,21C 3.9,21 3,20.1 3,19L 3,6.50001C 3,6.02001 3.17,5.57001 3.46,5.23001L 4.84,3.55001C 5.12,3.21001 5.52999,3.00001 6,3.00001L 18,3.00001C 18.47,3.00001 18.88,3.21001 19.15,3.55001L 20.54,5.23001 Z M 6,18L 12,18L 12,15L 6,15L 6,18 Z "/>
</svg>
