<?xml version="1.0" encoding="utf-8"?>
<!DOCTYPE svg PUBLIC "-//W3C//DTD SVG 1.1//EN" "http://www.w3.org/Graphics/SVG/1.1/DTD/svg11.dtd">
<svg xmlns="http://www.w3.org/2000/svg" xmlns:xlink="http://www.w3.org/1999/xlink" version="1.1" baseProfile="full" width="24" height="24" viewBox="0 0 24.00 24.00" enable-background="new 0 0 24.00 24.00" xml:space="preserve">
	<path fill="#000000" fill-opacity="1" stroke-width="1.33333" stroke-linejoin="miter" d="M 2,3L 19,3C 20.1046,3 21,3.8954 21,5L 21,9L 19,9L 19,5L 2,5L 2,19L 19,19L 19,15L 21,15L 21,19C 21,20.1046 20.1046,21 19,21L 2,21C 0.895398,21 -6.35783e-007,20.1046 -6.35783e-007,19L -6.35783e-007,5C -6.35783e-007,3.8954 0.895398,3 2,3 Z M 17,15L 17,13L 24,13L 24,11L 17,11L 17,9L 13,12L 17,15 Z M 4,13L 11,13L 11,11L 4,11L 4,13 Z M 4,9L 11,9L 11,7L 4,7L 4,9 Z M 4,17L 8,17L 8,15L 4,15L 4,17 Z "/>
</svg>
