<?xml version="1.0" encoding="utf-8"?>
<!DOCTYPE svg PUBLIC "-//W3C//DTD SVG 1.1//EN" "http://www.w3.org/Graphics/SVG/1.1/DTD/svg11.dtd">
<svg xmlns="http://www.w3.org/2000/svg" xmlns:xlink="http://www.w3.org/1999/xlink" version="1.1" baseProfile="full" width="24" height="24" viewBox="0 0 24.00 24.00" enable-background="new 0 0 24.00 24.00" xml:space="preserve">
	<path fill="#000000" fill-opacity="1" stroke-width="1.33333" stroke-linejoin="miter" d="M 12,22C 6.5,22 2,17.5 2,12C 2,6.5 6.5,2 12,2C 17.5,2 22,6 22,11C 22,14.3 19.3,17 16,17L 14.2,17C 13.9,17 13.7,17.2 13.7,17.5C 13.7,17.6 13.8,17.7 13.8,17.8C 14.2,18.3 14.4,18.9 14.4,19.5C 14.5,20.9 13.4,22 12,22 Z M 12,4C 7.6,4 4,7.6 4,12C 4,16.4 7.6,20 12,20C 12.3,20 12.5,19.8 12.5,19.5C 12.5,19.3 12.4,19.2 12.4,19.1C 12,18.6 11.8,18.1 11.8,17.5C 11.8,16.1 12.9,15 14.3,15L 16,15C 18.2,15 20,13.2 20,11C 20,7.1 16.4,4 12,4 Z M 6.5,10C 7.3,10 8,10.7 8,11.5C 8,12.3 7.3,13 6.5,13C 5.7,13 5,12.3 5,11.5C 5,10.7 5.7,10 6.5,10 Z M 9.5,6C 10.3,6 11,6.7 11,7.5C 11,8.3 10.3,9 9.5,9C 8.7,9 8,8.3 8,7.5C 8,6.7 8.7,6 9.5,6 Z M 14.5,6C 15.3,6 16,6.7 16,7.5C 16,8.3 15.3,9 14.5,9C 13.7,9 13,8.3 13,7.5C 13,6.7 13.7,6 14.5,6 Z M 17.5,10C 18.3,10 19,10.7 19,11.5C 19,12.3 18.3,13 17.5,13C 16.7,13 16,12.3 16,11.5C 16,10.7 16.7,10 17.5,10 Z "/>
</svg>
