<?xml version="1.0" encoding="utf-8"?>
<!DOCTYPE svg PUBLIC "-//W3C//DTD SVG 1.1//EN" "http://www.w3.org/Graphics/SVG/1.1/DTD/svg11.dtd">
<svg xmlns="http://www.w3.org/2000/svg" xmlns:xlink="http://www.w3.org/1999/xlink" version="1.1" baseProfile="full" width="24" height="24" viewBox="0 0 24.00 24.00" enable-background="new 0 0 24.00 24.00" xml:space="preserve">
	<path fill="#000000" fill-opacity="1" stroke-width="1.33333" stroke-linejoin="miter" d="M 2.53,19.65L 3.87,20.21L 3.87,11.18L 1.44,17.04C 1.03,18.06 1.52,19.23 2.53,19.65 Z M 22.03,15.95L 17.07,3.98C 16.76,3.23 16.03,2.77 15.26,2.75C 15,2.75 14.73,2.79 14.47,2.9L 7.1,5.95C 6.35,6.26 5.89,6.98 5.87,7.75C 5.86,8.02 5.91,8.29 6.02,8.55L 10.98,20.52C 11.29,21.28 12.03,21.74 12.81,21.75C 13.07,21.75 13.33,21.7 13.58,21.6L 20.94,18.55C 21.96,18.13 22.45,16.96 22.03,15.95 Z M 7.88,8.75C 7.33,8.75 6.88,8.3 6.88,7.75C 6.88,7.2 7.33,6.75 7.88,6.75C 8.43,6.75 8.88,7.2 8.88,7.75C 8.88,8.3 8.43,8.75 7.88,8.75 Z M 5.88,19.75C 5.88,20.85 6.78,21.75 7.88,21.75L 9.33,21.75L 5.88,13.41L 5.88,19.75 Z "/>
</svg>
