<?xml version="1.0" encoding="utf-8"?>
<!DOCTYPE svg PUBLIC "-//W3C//DTD SVG 1.1//EN" "http://www.w3.org/Graphics/SVG/1.1/DTD/svg11.dtd">
<svg xmlns="http://www.w3.org/2000/svg" xmlns:xlink="http://www.w3.org/1999/xlink" version="1.1" baseProfile="full" width="24" height="24" viewBox="0 0 24.00 24.00" enable-background="new 0 0 24.00 24.00" xml:space="preserve">
	<path fill="#000000" fill-opacity="1" fill-rule="evenodd" stroke-linejoin="round" d="M 16.8735,7.72667C 16.8735,9.89831 15.6724,11.6995 13.0858,11.6995L 10.4526,11.6995L 10.4526,3.66306L 13.0858,3.66306C 15.6724,3.66306 16.8735,5.51008 16.8735,7.72667 Z M 10.4526,15.6724L 10.4526,13.4092L 13.0858,13.4092C 17.8436,13.4092 20.4759,10.9146 20.4759,7.72667C 20.4759,4.44757 17.8436,2 13.0858,2L 3.52405,2L 3.52405,2.92392C 6.6192,2.92392 7.17355,3.66306 7.17355,8.28099L 7.17355,15.6724C 7.17355,20.2912 6.6192,21.0761 3.52405,21.0761L 3.52405,22L 14.1013,22L 14.1013,21.0761C 11.0066,21.0761 10.4526,20.2912 10.4526,15.6724 Z "/>
</svg>
