<?xml version="1.0" encoding="utf-8"?>
<!DOCTYPE svg PUBLIC "-//W3C//DTD SVG 1.1//EN" "http://www.w3.org/Graphics/SVG/1.1/DTD/svg11.dtd">
<svg xmlns="http://www.w3.org/2000/svg" xmlns:xlink="http://www.w3.org/1999/xlink" version="1.1" baseProfile="full" width="24" height="24" viewBox="0 0 24.00 24.00" enable-background="new 0 0 24.00 24.00" xml:space="preserve">
	<path fill="#000000" fill-opacity="1" stroke-linejoin="round" d="M 6.54,20C 7.31,17.4 7.7,14.72 7.7,12C 7.7,9.28 7.31,6.6 6.54,4L 17.45,4C 16.68,6.6 16.29,9.28 16.29,12C 16.29,14.72 16.68,17.4 17.45,20M 19.94,21.12C 18.84,18.18 18.3,15.09 18.3,12C 18.3,8.91 18.85,5.82 19.94,2.88C 19.98,2.77 20,2.66 20,2.57C 20,2.23 19.77,2 19.37,2L 4.63,2C 4.23,2 4,2.23 4,2.57C 4,2.67 4.02,2.77 4.06,2.88C 5.16,5.82 5.71,8.91 5.71,12C 5.71,15.09 5.16,18.18 4.07,21.12C 4.02,21.23 4,21.34 4,21.43C 4,21.76 4.23,22 4.63,22L 19.38,22C 19.77,22 20.01,21.76 20.01,21.43C 20,21.33 19.98,21.23 19.94,21.12 Z "/>
</svg>
