<?xml version="1.0" encoding="utf-8"?>
<!DOCTYPE svg PUBLIC "-//W3C//DTD SVG 1.1//EN" "http://www.w3.org/Graphics/SVG/1.1/DTD/svg11.dtd">
<svg xmlns="http://www.w3.org/2000/svg" xmlns:xlink="http://www.w3.org/1999/xlink" version="1.1" baseProfile="full" width="24" height="24" viewBox="0 0 24.00 24.00" enable-background="new 0 0 24.00 24.00" xml:space="preserve">
	<path fill="#000000" fill-opacity="1" stroke-linejoin="round" d="M 12,4C 9.27,4 6.78,4.24 4.05,4.72L 3.12,4.88L 2.87,5.78C 2.29,7.85 2,9.93 2,12C 2,14.07 2.29,16.15 2.87,18.22L 3.12,19.11L 4.05,19.27C 6.78,19.76 9.27,20 12,20C 14.73,20 17.22,19.76 19.95,19.28L 20.88,19.12L 21.13,18.23C 21.71,16.15 22,14.07 22,12C 22,9.93 21.71,7.85 21.13,5.78L 20.88,4.89L 19.95,4.73C 17.22,4.24 14.73,4 12,4 Z M 12,6C 14.45,6 16.71,6.2 19.29,6.64C 19.76,8.42 20,10.22 20,12C 20,13.78 19.76,15.58 19.29,17.36C 16.71,17.8 14.45,18 12,18C 9.55,18 7.29,17.8 4.71,17.36C 4.24,15.58 4,13.78 4,12C 4,10.22 4.24,8.42 4.71,6.64C 7.29,6.2 9.55,6 12,6 Z "/>
</svg>
