<?xml version="1.0" encoding="utf-8"?>
<!DOCTYPE svg PUBLIC "-//W3C//DTD SVG 1.1//EN" "http://www.w3.org/Graphics/SVG/1.1/DTD/svg11.dtd">
<svg xmlns="http://www.w3.org/2000/svg" xmlns:xlink="http://www.w3.org/1999/xlink" version="1.1" baseProfile="full" width="24" height="24" viewBox="0 0 24.00 24.00" enable-background="new 0 0 24.00 24.00" xml:space="preserve">
	<path fill="#000000" fill-opacity="1" stroke-linejoin="round" d="M 21.43,4C 21.33,4 21.23,4.02 21.12,4.06C 18.18,5.16 15.09,5.7 12,5.7C 8.91,5.7 5.82,5.15 2.88,4.06C 2.77,4.02 2.66,4 2.57,4C 2.23,4 2,4.23 2,4.63L 2,19.38C 2,19.77 2.23,20 2.57,20C 2.67,20 2.77,19.98 2.88,19.94C 5.82,18.84 8.91,18.3 12,18.3C 15.09,18.3 18.18,18.85 21.12,19.94C 21.23,19.98 21.33,20 21.43,20C 21.76,20 22,19.77 22,19.37L 22,4.63C 22,4.23 21.76,4 21.43,4 Z M 20,6.54L 20,17.45C 17.4,16.68 14.72,16.29 12,16.29C 9.28,16.29 6.6,16.68 4,17.45L 4,6.54C 6.6,7.31 9.28,7.7 12,7.7C 14.72,7.71 17.4,7.32 20,6.54 Z "/>
</svg>
