<?xml version="1.0" encoding="utf-8"?>
<!DOCTYPE svg PUBLIC "-//W3C//DTD SVG 1.1//EN" "http://www.w3.org/Graphics/SVG/1.1/DTD/svg11.dtd">
<svg xmlns="http://www.w3.org/2000/svg" xmlns:xlink="http://www.w3.org/1999/xlink" version="1.1" baseProfile="full" width="24" height="24" viewBox="0 0 24.00 24.00" enable-background="new 0 0 24.00 24.00" xml:space="preserve">
	<path fill="#000000" fill-opacity="1" stroke-linejoin="round" d="M 16.4997,5.9999L 16.4997,17.4999C 16.4997,19.7089 14.7087,21.4999 12.4997,21.4999C 10.2907,21.4999 8.4997,19.7089 8.4997,17.4999L 8.4997,4.9999C 8.4997,3.6189 9.6187,2.4999 10.9997,2.4999C 12.3807,2.4999 13.4997,3.6189 13.4997,4.9999L 13.4997,15.4999C 13.4997,16.0519 13.0527,16.4999 12.4997,16.4999C 11.9467,16.4999 11.4997,16.0519 11.4997,15.4999L 11.4997,5.9999L 9.9997,5.9999L 9.9997,15.4999C 9.9997,16.8809 11.1187,17.9999 12.4997,17.9999C 13.8807,17.9999 14.9997,16.8809 14.9997,15.4999L 14.9997,4.9999C 14.9997,2.7909 13.2087,0.999901 10.9997,0.999901C 8.7907,0.999901 6.9997,2.7909 6.9997,4.9999L 6.9997,17.4999C 6.9997,20.5379 9.4627,22.9999 12.4997,22.9999C 15.5367,22.9999 17.9997,20.5379 17.9997,17.4999L 17.9997,5.9999L 16.4997,5.9999 Z "/>
</svg>
