<?xml version="1.0" encoding="utf-8"?>
<!DOCTYPE svg PUBLIC "-//W3C//DTD SVG 1.1//EN" "http://www.w3.org/Graphics/SVG/1.1/DTD/svg11.dtd">
<svg xmlns="http://www.w3.org/2000/svg" xmlns:xlink="http://www.w3.org/1999/xlink" version="1.1" baseProfile="full" width="24" height="24" viewBox="0 0 24.00 24.00" enable-background="new 0 0 24.00 24.00" xml:space="preserve">
	<path fill="#000000" fill-opacity="1" stroke-width="1.33333" stroke-linejoin="miter" d="M 21.204,10.952L 12,23L 2.783,10.963L 2.87,10.877C 3.082,10.665 3.327,10.502 3.584,10.364L 10.725,19.69L 8.581,13.023L 9.241,11.809L 11.997,20.38L 14.731,11.799L 15.395,13.01L 13.265,19.694L 20.405,10.348C 20.656,10.484 20.895,10.644 21.104,10.851L 21.204,10.952 Z M 4.988,9C 6.506,9 7.81,9.855 8.488,11.101C 9.166,9.855 10.471,9 11.988,9C 13.502,9 14.803,9.85 15.482,11.09C 16.158,9.839 17.466,8.978 18.988,8.978C 20.089,8.978 21.086,9.424 21.809,10.144C 20.939,5.509 16.876,2 11.988,2C 7.092,2 3.025,5.522 2.164,10.169C 2.887,9.447 3.886,9 4.988,9 Z "/>
</svg>
