<?xml version="1.0" encoding="utf-8"?>
<!DOCTYPE svg PUBLIC "-//W3C//DTD SVG 1.1//EN" "http://www.w3.org/Graphics/SVG/1.1/DTD/svg11.dtd">
<svg xmlns="http://www.w3.org/2000/svg" xmlns:xlink="http://www.w3.org/1999/xlink" version="1.1" baseProfile="full" width="24" height="24" viewBox="0 0 24.00 24.00" enable-background="new 0 0 24.00 24.00" xml:space="preserve">
	<path fill="#000000" fill-opacity="1" stroke-width="1.33333" stroke-linejoin="miter" d="M 6,2.00001C 4.89543,2.00001 4,2.8954 4,4L 4,20C 4,21.1046 4.89543,22 6,22L 18,22C 19.1046,22 20,21.1046 20,20L 20,4C 20,2.8954 19.1046,2.00001 18,2.00001L 6,2.00001 Z M 12,5C 14.7614,5 17,7.2386 17,10C 17,12.7614 14.7614,15 12,15C 9.23858,15 7,12.7614 7,10C 7,7.25 9.235,5 12,5 Z M 12,6.0156C 11.585,6.6156 11.2499,7.285 11.0449,8L 12.9551,8C 12.7501,7.285 12.415,6.6156 12,6.0156 Z M 10.6992,6.2207C 9.78422,6.5307 9.01406,7.17 8.53906,8L 10,8C 10.175,7.375 10.3992,6.7757 10.6992,6.2207 Z M 13.2949,6.2207C 13.5949,6.7757 13.8244,7.375 13.9844,8L 15.4609,8C 14.9809,7.17 14.2149,6.5357 13.2949,6.2207 Z M 8.13086,9C 8.05086,9.32 8,9.655 8,10C 8,10.345 8.05086,10.68 8.13086,11L 9.82031,11C 9.78031,10.67 9.75,10.34 9.75,10C 9.75,9.66 9.78031,9.33 9.82031,9L 8.13086,9 Z M 10.8301,9C 10.7801,9.325 10.75,9.66 10.75,10C 10.75,10.34 10.7801,10.67 10.8301,11L 13.1699,11C 13.2149,10.67 13.25,10.34 13.25,10C 13.25,9.66 13.2149,9.325 13.1699,9L 10.8301,9 Z M 14.1797,9C 14.2197,9.33 14.25,9.66 14.25,10C 14.25,10.34 14.2197,10.67 14.1797,11L 15.8691,11C 15.9491,10.68 16,10.345 16,10C 16,9.655 15.9491,9.32 15.8691,9L 14.1797,9 Z M 8.53906,12C 9.01406,12.825 9.78422,13.4643 10.6992,13.7793C 10.3992,13.2243 10.175,12.625 10,12L 8.53906,12 Z M 11.0449,12C 11.2499,12.715 11.585,13.3805 12,13.9805C 12.415,13.3805 12.7501,12.715 12.9551,12L 11.0449,12 Z M 13.9844,12C 13.8244,12.625 13.5949,13.2243 13.2949,13.7793C 14.2149,13.4643 14.9809,12.825 15.4609,12L 13.9844,12 Z M 7,17L 17,17L 17,19L 7,19L 7,17 Z "/>
</svg>
