<?xml version="1.0" encoding="utf-8"?>
<!DOCTYPE svg PUBLIC "-//W3C//DTD SVG 1.1//EN" "http://www.w3.org/Graphics/SVG/1.1/DTD/svg11.dtd">
<svg xmlns="http://www.w3.org/2000/svg" xmlns:xlink="http://www.w3.org/1999/xlink" version="1.1" baseProfile="full" width="24" height="24" viewBox="0 0 24.00 24.00" enable-background="new 0 0 24.00 24.00" xml:space="preserve">
	<path fill="#000000" fill-opacity="1" stroke-width="1.33333" stroke-linejoin="miter" d="M 8.32152,21.9695C 8.20849,21.9197 8.07926,21.7615 8.0576,21.6466C 8.03434,21.5231 7.99886,21.7624 8.66328,17.5603C 9.26463,13.7571 9.25326,13.8225 9.33248,13.7112C 9.45528,13.5388 9.43541,13.5411 10.9368,13.5255C 12.2635,13.5118 12.542,13.4977 13.1333,13.4145C 16.3801,12.9577 18.3884,11.0467 19.0858,7.7503C 19.1325,7.5298 19.1739,7.3448 19.178,7.3392C 19.182,7.3332 19.2496,7.3775 19.3282,7.4369C 20.3639,8.2189 20.7097,9.6602 20.3223,11.5812C 19.8606,13.8714 18.6444,15.3866 16.7412,16.0428C 15.9267,16.3237 15.2475,16.4286 14.0485,16.4589C 13.2515,16.479 13.228,16.4835 13.0245,16.6548C 12.8307,16.8179 12.8372,16.7889 12.4515,19.1978C 12.1783,20.9038 12.0823,21.448 12.0363,21.5502C 11.9663,21.706 11.8299,21.8506 11.6748,21.9335L 11.5644,21.9925L 9.98243,21.9985C 8.71228,22.0035 8.38489,21.9976 8.32152,21.9696L 8.32152,21.9695 Z M 3.82448,19.7395C 3.63378,19.6389 3.52402,19.4669 3.52336,19.2675C 3.52245,18.9879 6.11369,2.6784 6.18462,2.5174C 6.26993,2.3237 6.47586,2.1309 6.67854,2.0551L 6.82607,1.9999L 10.3588,2.0089C 14.2744,2.019 14.1187,2.0129 15.0068,2.1997C 17.6206,2.7503 18.8239,4.5116 18.373,7.127C 17.8681,10.0561 16.3852,11.8007 13.8655,12.43C 13.0113,12.6433 12.3891,12.6962 10.7277,12.6969C 9.41576,12.6974 9.31896,12.7059 9.05816,12.8476C 8.80375,12.9857 8.5893,13.2655 8.48266,13.5987C 8.45964,13.6706 8.22891,15.065 7.96993,16.6973C 7.71094,18.3296 7.49277,19.6916 7.48511,19.724L 7.47119,19.7828L 5.68706,19.7818C 4.11211,19.7808 3.89373,19.7758 3.82448,19.7394L 3.82448,19.7395 Z "/>
</svg>
