<?xml version="1.0" encoding="utf-8"?>
<!DOCTYPE svg PUBLIC "-//W3C//DTD SVG 1.1//EN" "http://www.w3.org/Graphics/SVG/1.1/DTD/svg11.dtd">
<svg xmlns="http://www.w3.org/2000/svg" xmlns:xlink="http://www.w3.org/1999/xlink" version="1.1" baseProfile="full" width="24" height="24" viewBox="0 0 24.00 24.00" enable-background="new 0 0 24.00 24.00" xml:space="preserve">
	<path fill="#000000" fill-opacity="1" stroke-width="1.33333" stroke-linejoin="miter" d="M 12,10.5L 13,10.5L 13,13.5L 12,13.5L 12,10.5 Z M 7,11.5L 8,11.5L 8,10.5L 7,10.5L 7,11.5 Z M 20,6L 20,18C 20,19.1 19.1,20 18,20L 6,20C 4.9,20 4,19.1 4,18L 4,6C 4,4.9 4.9,4 6,4L 18,4C 19.1,4 20,4.9 20,6 Z M 9.5,10.5C 9.5,9.67 8.83,9 8,9L 5.5,9L 5.5,15L 7,15L 7,13L 8,13C 8.83,13 9.5,12.33 9.5,11.5L 9.5,10.5 Z M 14.5,10.5C 14.5,9.67 13.83,9 13,9L 10.5,9L 10.5,15L 13,15C 13.83,15 14.5,14.33 14.5,13.5L 14.5,10.5 Z M 18.5,9L 15.5,9L 15.5,15L 17,15L 17,13L 18.5,13L 18.5,11.5L 17,11.5L 17,10.5L 18.5,10.5L 18.5,9 Z "/>
</svg>
