<?xml version="1.0" encoding="utf-8"?>
<!DOCTYPE svg PUBLIC "-//W3C//DTD SVG 1.1//EN" "http://www.w3.org/Graphics/SVG/1.1/DTD/svg11.dtd">
<svg xmlns="http://www.w3.org/2000/svg" xmlns:xlink="http://www.w3.org/1999/xlink" version="1.1" baseProfile="full" width="24" height="24" viewBox="0 0 24.00 24.00" enable-background="new 0 0 24.00 24.00" xml:space="preserve">
	<g>
		<path fill="#000000" fill-opacity="1" stroke-width="1.33333" stroke-linejoin="miter" d="M 12,2C 6.47715,2 2,6.4772 2,12C 2,17.5228 6.47715,22 12,22C 17.5228,22 22,17.5228 22,12C 22,6.4772 17.5228,2 12,2 Z M 11,14.41L 11,19.93C 9.5776,19.752 8.22993,19.1922 7.1,18.31L 11,14.41 Z M 13,14.41L 16.9,18.31C 15.7701,19.1922 14.4224,19.752 13,19.93L 13,14.41 Z M 4,12C 4.00365,7.9711 7.00274,4.5736 11,4.07L 11,11.59L 5.69,16.9C 4.59163,15.5032 3.99623,13.7769 4,12 Z M 18.31,16.9L 13,11.59L 13,4.07C 16.9973,4.5736 19.9963,7.9711 20,12C 20.0038,13.7769 19.4084,15.5032 18.31,16.9 Z "/>
	</g>
</svg>
