<?xml version="1.0" encoding="utf-8"?>
<!DOCTYPE svg PUBLIC "-//W3C//DTD SVG 1.1//EN" "http://www.w3.org/Graphics/SVG/1.1/DTD/svg11.dtd">
<svg xmlns="http://www.w3.org/2000/svg" xmlns:xlink="http://www.w3.org/1999/xlink" version="1.1" baseProfile="full" width="24" height="24" viewBox="0 0 24.00 24.00" enable-background="new 0 0 24.00 24.00" xml:space="preserve">
	<path fill="#000000" fill-opacity="1" stroke-width="1.33333" stroke-linejoin="miter" d="M 21.7,7C 21.4,7.4 21,7.7 21,8C 21,8.3 21.3,8.6 21.6,9C 22.1,9.5 22.6,9.9 22.5,10.4C 22.5,10.9 22,11.4 21.5,11.9L 17.4,16L 16,14.7L 20.2,10.5L 19.2,9.5L 17.8,10.9L 14,7.1L 18,3.3C 18.4,2.9 19,2.9 19.4,3.3L 21.7,5.6C 22.1,6 22.1,6.7 21.7,7M 4,17.2L 13.6,7.6L 17.3,11.4L 7.8,21L 4,21L 4,17.2 Z M 8,5L 8,4.5C 8,3.1 6.9,2 5.5,2C 4.1,2 3,3.1 3,4.5L 3,5C 2.4,5 2,5.4 2,6L 2,10C 2,10.6 2.4,11 3,11L 8,11C 8.6,11 9,10.6 9,10L 9,6C 9,5.4 8.6,5 8,5 Z M 7,5L 4,5L 4,4.5C 4,3.7 4.7,3 5.5,3C 6.3,3 7,3.7 7,4.5L 7,5 Z "/>
</svg>
