<?xml version="1.0" encoding="utf-8"?>
<!DOCTYPE svg PUBLIC "-//W3C//DTD SVG 1.1//EN" "http://www.w3.org/Graphics/SVG/1.1/DTD/svg11.dtd">
<svg xmlns="http://www.w3.org/2000/svg" xmlns:xlink="http://www.w3.org/1999/xlink" version="1.1" baseProfile="full" width="24" height="24" viewBox="0 0 24.00 24.00" enable-background="new 0 0 24.00 24.00" xml:space="preserve">
	<path fill="#000000" fill-opacity="1" stroke-width="1.33333" stroke-linejoin="miter" d="M 2.3,5L 1,6.3L 7.5,12.8L 3,17.2L 3,21L 6.8,21L 11.3,16.5L 17.8,23L 19.1,21.7L 2.3,5M 16.9,10.9L 13.1,7.1L 17,3.3C 17.4,2.9 18,2.9 18.4,3.3L 20.7,5.6C 21.1,6 21.1,6.6 20.7,7C 20.4,7.4 20,7.7 20,8C 20,8.3 20.3,8.7 20.6,9C 21.1,9.5 21.6,10 21.5,10.4C 21.5,10.9 21,11.4 20.5,11.9L 16.4,16L 15,14.7L 19.2,10.5L 18.2,9.5L 16.9,10.9 Z M 10,10.2L 12.5,7.7L 16.3,11.5L 13.8,14L 10,10.2 Z "/>
</svg>
