<?xml version="1.0" encoding="utf-8"?>
<!DOCTYPE svg PUBLIC "-//W3C//DTD SVG 1.1//EN" "http://www.w3.org/Graphics/SVG/1.1/DTD/svg11.dtd">
<svg xmlns="http://www.w3.org/2000/svg" xmlns:xlink="http://www.w3.org/1999/xlink" version="1.1" baseProfile="full" width="24" height="24" viewBox="0 0 24.00 24.00" enable-background="new 0 0 24.00 24.00" xml:space="preserve">
	<path fill="#000000" fill-opacity="1" stroke-width="0.2" stroke-linejoin="miter" d="M 20.7,7C 20.4,7.4 20,7.7 20,8C 20,8.3 20.3,8.6 20.6,9C 21.1,9.5 21.6,9.9 21.5,10.4C 21.5,10.9 21,11.4 20.5,11.9L 16.4,16L 15,14.7L 19.2,10.5L 18.2,9.5L 16.8,10.9L 13,7.1L 17,3.3C 17.4,2.9 18,2.9 18.4,3.3L 20.7,5.6C 21.1,6 21.1,6.7 20.7,7M 3,17.2L 12.6,7.6L 16.3,11.4L 6.8,21L 3,21L 3,17.2 Z M 3.87868,2.46446L 6,4.58578L 8.12132,2.46446L 9.53553,3.87868L 7.41421,6L 9.53553,8.12132L 8.12132,9.53553L 6,7.41421L 3.87868,9.53553L 2.46446,8.12132L 4.58579,6L 2.46446,3.87868L 3.87868,2.46446 Z "/>
</svg>
