<?xml version="1.0" encoding="utf-8"?>
<!DOCTYPE svg PUBLIC "-//W3C//DTD SVG 1.1//EN" "http://www.w3.org/Graphics/SVG/1.1/DTD/svg11.dtd">
<svg xmlns="http://www.w3.org/2000/svg" xmlns:xlink="http://www.w3.org/1999/xlink" version="1.1" baseProfile="full" width="24" height="24" viewBox="0 0 24.00 24.00" enable-background="new 0 0 24.00 24.00" xml:space="preserve">
	<path fill="#000000" fill-opacity="1" stroke-width="0.2" stroke-linejoin="round" d="M 20.7062,7.0411C 20.3719,7.37542 20.0376,7.70974 20.0307,8.03718C 20.0239,8.36461 20.3444,8.68515 20.6649,9.0057C 21.1363,9.4771 21.6077,9.9485 21.5893,10.4384C 21.5708,10.9283 21.0625,11.4366 20.5541,11.9449L 16.4223,16.0768L 15.0081,14.6625L 19.2507,10.4199L 18.2892,9.45836L 16.8737,10.874L 13.1237,7.12402L 16.9562,3.2911C 17.3472,2.90002 17.9802,2.90002 18.3702,3.2911L 20.7062,5.62708C 21.0972,6.01701 21.0972,6.65002 20.7062,7.0411 Z M 2.99917,17.248L 12.5635,7.68425L 16.3135,11.4342L 6.74917,20.998L 2.99917,20.998L 2.99917,17.248 Z "/>
</svg>
