<?xml version="1.0" encoding="utf-8"?>
<!DOCTYPE svg PUBLIC "-//W3C//DTD SVG 1.1//EN" "http://www.w3.org/Graphics/SVG/1.1/DTD/svg11.dtd">
<svg xmlns="http://www.w3.org/2000/svg" xmlns:xlink="http://www.w3.org/1999/xlink" version="1.1" baseProfile="full" width="24" height="24" viewBox="0 0 24.00 24.00" enable-background="new 0 0 24.00 24.00" xml:space="preserve">
	<path fill="#000000" fill-opacity="1" stroke-width="1.33333" stroke-linejoin="miter" d="M 16.1,9L 17,9.9L 7.9,19L 7,19L 7,18.1L 16.1,9M 19.7,3C 19.5,3 19.2,3.1 19,3.3L 17.2,5.1L 20.9,8.9L 22.7,7C 23.1,6.6 23.1,6 22.7,5.6L 20.4,3.3C 20.2,3.1 19.9,3 19.7,3M 16.1,6.2L 5,17.2L 5,21L 8.8,21L 19.8,9.9L 16.1,6.2 Z M 8,5L 8,4.5C 8,3.1 6.9,2 5.5,2C 4.1,2 3,3.1 3,4.5L 3,5C 2.4,5 2,5.4 2,6L 2,10C 2,10.6 2.4,11 3,11L 8,11C 8.6,11 9,10.6 9,10L 9,6C 9,5.4 8.6,5 8,5 Z M 7,5L 4,5L 4,4.5C 4,3.7 4.7,3 5.5,3C 6.3,3 7,3.7 7,4.5L 7,5 Z "/>
</svg>
