<?xml version="1.0" encoding="utf-8"?>
<!DOCTYPE svg PUBLIC "-//W3C//DTD SVG 1.1//EN" "http://www.w3.org/Graphics/SVG/1.1/DTD/svg11.dtd">
<svg xmlns="http://www.w3.org/2000/svg" xmlns:xlink="http://www.w3.org/1999/xlink" version="1.1" baseProfile="full" width="24" height="24" viewBox="0 0 24.00 24.00" enable-background="new 0 0 24.00 24.00" xml:space="preserve">
	<path fill="#000000" fill-opacity="1" stroke-width="0.2" stroke-linejoin="miter" d="M 17.7,3C 17.5,3 17.2,3.1 17,3.3L 15.2,5.1L 18.9,8.9L 20.7,7C 21.1,6.6 21.1,6 20.7,5.6L 18.4,3.3C 18.2,3.1 17.9,3 17.7,3M 14.1,6.2L 3,17.2L 3,21L 6.8,21L 17.8,9.9L 14.1,6.2 Z M 5.9,19L 5,19L 5,18.1L 14.1,9L 15,9.9L 5.9,19 Z M 3.9,2.5L 6,4.6L 8.1,2.5L 9.5,3.9L 7.4,6L 9.5,8.1L 8.1,9.5L 6,7.4L 3.9,9.5L 2.5,8.1L 4.6,6L 2.5,3.9L 3.9,2.5 Z "/>
</svg>
