<?xml version="1.0" encoding="utf-8"?>
<!DOCTYPE svg PUBLIC "-//W3C//DTD SVG 1.1//EN" "http://www.w3.org/Graphics/SVG/1.1/DTD/svg11.dtd">
<svg xmlns="http://www.w3.org/2000/svg" xmlns:xlink="http://www.w3.org/1999/xlink" version="1.1" baseProfile="full" width="24" height="24" viewBox="0 0 24.00 24.00" enable-background="new 0 0 24.00 24.00" xml:space="preserve">
	<path fill="#000000" fill-opacity="1" stroke-width="0.2" stroke-linejoin="round" d="M 18.9999,19L 18.9999,5L 4.99996,5L 4.99996,19.001L 18.9999,19 Z M 18.9998,3.00006C 20.1038,3.00006 20.9998,3.89606 20.9998,5.00006L 20.9998,19C 20.9998,20.105 20.1038,21 18.9998,21L 4.99988,21C 3.89587,21 2.99988,20.105 2.99988,19L 2.99988,5.00006C 2.99988,3.89606 3.89587,3.00006 4.99988,3.00006L 18.9998,3.00006 Z M 16.7034,9.35077L 15.6998,10.3543L 13.6456,8.30005L 14.6492,7.29649C 14.8634,7.08228 15.2101,7.08228 15.4238,7.29649L 16.7034,8.57617C 16.9176,8.78978 16.9176,9.13654 16.7034,9.35077 Z M 7.00343,14.9422L 13.0649,8.88072L 15.1192,10.935L 9.0577,16.9965L 7.00343,16.9965L 7.00343,14.9422 Z "/>
</svg>
