<?xml version="1.0" encoding="utf-8"?>
<!DOCTYPE svg PUBLIC "-//W3C//DTD SVG 1.1//EN" "http://www.w3.org/Graphics/SVG/1.1/DTD/svg11.dtd">
<svg xmlns="http://www.w3.org/2000/svg" xmlns:xlink="http://www.w3.org/1999/xlink" version="1.1" baseProfile="full" width="24" height="24" viewBox="0 0 24.00 24.00" enable-background="new 0 0 24.00 24.00" xml:space="preserve">
	<path fill="#000000" fill-opacity="1" stroke-width="1.33333" stroke-linejoin="miter" d="M 18.6563,2C 18.4004,2 18.1642,2.0857 17.9688,2.2812L 16.125,4.125L 19.875,7.875L 21.7188,6.0312C 22.1098,5.6402 22.1098,5.0149 21.7188,4.625L 19.375,2.2812C 19.18,2.0857 18.9121,2 18.6563,2 Z M 3.28125,4L 2,5.2812L 8.5,11.75L 4,16.25L 4,20L 7.75,20L 12.25,15.5L 18.7188,22L 20,20.7187L 13.5,14.25L 9.75,10.5L 3.28125,4 Z M 15.0625,5.1875L 11.0313,9.2187L 14.7813,12.9687L 18.8125,8.9375L 15.0625,5.1875 Z "/>
</svg>
