<?xml version="1.0" encoding="utf-8"?>
<!DOCTYPE svg PUBLIC "-//W3C//DTD SVG 1.1//EN" "http://www.w3.org/Graphics/SVG/1.1/DTD/svg11.dtd">
<svg xmlns="http://www.w3.org/2000/svg" xmlns:xlink="http://www.w3.org/1999/xlink" version="1.1" baseProfile="full" width="24" height="24" viewBox="0 0 24.00 24.00" enable-background="new 0 0 24.00 24.00" xml:space="preserve">
	<path fill="#000000" fill-opacity="1" stroke-width="1.33333" stroke-linejoin="miter" d="M 12,2C 6.47,2 2,6.47 2,12C 2,17.53 6.47,22 12,22C 17.53,22 22,17.53 22,12C 22,6.47 17.53,2 12,2 Z M 15.1035,7.0684C 15.2435,7.0684 15.3833,7.1224 15.4883,7.2324L 16.7676,8.5117C 16.9876,8.7217 16.9876,9.0732 16.7676,9.2832L 15.7676,10.2812L 13.7188,8.2324L 14.7188,7.2324C 14.8237,7.1224 14.9635,7.0684 15.1035,7.0684 Z M 13.1289,8.8145L 15.1875,10.8711L 9.12891,16.9316L 7.06836,16.9316L 7.06836,14.8711L 13.1289,8.8145 Z "/>
</svg>
