<?xml version="1.0" encoding="utf-8"?>
<!DOCTYPE svg PUBLIC "-//W3C//DTD SVG 1.1//EN" "http://www.w3.org/Graphics/SVG/1.1/DTD/svg11.dtd">
<svg xmlns="http://www.w3.org/2000/svg" xmlns:xlink="http://www.w3.org/1999/xlink" version="1.1" baseProfile="full" width="24" height="24" viewBox="0 0 24.00 24.00" enable-background="new 0 0 24.00 24.00" xml:space="preserve">
	<path fill="#000000" fill-opacity="1" fill-rule="evenodd" stroke-linejoin="round" d="M 19,16C 19,17.724 18.3747,19.3027 17.344,20.5213C 17.7453,20.8853 18,21.412 18,22L 6,22C 6,21.412 6.25467,20.8853 6.656,20.5213C 5.62533,19.3027 5,17.724 5,16L 3,16C 3,14.7547 3.57333,13.64 4.464,12.9067L 4.46933,12.8907C 6,11.8067 7,10.0213 7,8L 7,7C 7,4.24 9.24,2 12,2C 14.76,2 17,4.24 17,7L 17,8C 17,10.0213 18,11.8067 19.5307,12.8907L 19.536,12.9067C 20.4267,13.64 21,14.7547 21,16L 19,16 Z M 16,16C 16,13.792 14.208,12 12,12C 9.792,12 8,13.792 8,16C 8,18.208 9.792,20 12,20C 14.208,20 16,18.208 16,16 Z M 10,9L 12,10.5L 14,9L 12,7.50001L 10,9 Z M 10,5C 9.448,5 9,5.448 9,6C 9,6.552 9.448,7 10,7C 10.552,7 11,6.552 11,6C 11,5.448 10.552,5 10,5 Z M 14,5C 13.448,5 13,5.448 13,6C 13,6.552 13.448,7 14,7C 14.552,7 15,6.552 15,6C 15,5.448 14.552,5 14,5 Z "/>
</svg>
