<?xml version="1.0" encoding="utf-8"?>
<!DOCTYPE svg PUBLIC "-//W3C//DTD SVG 1.1//EN" "http://www.w3.org/Graphics/SVG/1.1/DTD/svg11.dtd">
<svg xmlns="http://www.w3.org/2000/svg" xmlns:xlink="http://www.w3.org/1999/xlink" version="1.1" baseProfile="full" width="24" height="24" viewBox="0 0 24.00 24.00" enable-background="new 0 0 24.00 24.00" xml:space="preserve">
	<path fill="#000000" fill-opacity="1" stroke-width="0.2" stroke-linejoin="round" d="M 8,5C 9.65685,5 11,6.34315 11,8C 11,9.65686 9.65685,11 8,11C 6.34315,11 5,9.65686 5,8C 5,6.34315 6.34315,5 8,5 Z M 16,5.00001C 17.6568,5.00001 19,6.34315 19,8.00001C 19,9.65686 17.6568,11 16,11C 14.3431,11 13,9.65686 13,8.00001C 13,6.34315 14.3431,5.00001 16,5.00001 Z M 8,13C 11.866,13 15,14.3431 15,16L 15,19L 1,19L 1,16C 1,14.3431 4.13401,13 8,13 Z M 16,13C 19.866,13 23,14.3431 23,16L 23,19L 17,19L 17,16C 17,14.8825 16.3402,13.8507 15.2251,13.0182L 16,13 Z "/>
</svg>
