<?xml version="1.0" encoding="utf-8"?>
<!DOCTYPE svg PUBLIC "-//W3C//DTD SVG 1.1//EN" "http://www.w3.org/Graphics/SVG/1.1/DTD/svg11.dtd">
<svg xmlns="http://www.w3.org/2000/svg" xmlns:xlink="http://www.w3.org/1999/xlink" version="1.1" baseProfile="full" width="24" height="24" viewBox="0 0 24.00 24.00" enable-background="new 0 0 24.00 24.00" xml:space="preserve">
	<path fill="#000000" fill-opacity="1" stroke-width="1.33333" stroke-linejoin="miter" d="M 18.5012,3.5007L 3.50125,18.5012L 5.4975,20.4975L 20.4975,5.4975M 7.0025,3.9987C 5.34125,3.9987 3.99875,5.3412 3.99875,7.0025C 3.99875,8.6575 5.34125,10 7.0025,10C 8.6575,10 10,8.6575 10,7.0025C 10,5.3412 8.6575,3.9987 7.0025,3.9987 Z M 17.0025,13.9987C 15.3413,13.9987 13.9987,15.3412 13.9987,17.0025C 13.9987,18.6575 15.3413,20 17.0025,20C 18.6575,20 20,18.6575 20,17.0025C 20,15.3412 18.6575,13.9987 17.0025,13.9987 Z "/>
</svg>
