<?xml version="1.0" encoding="utf-8"?>
<!DOCTYPE svg PUBLIC "-//W3C//DTD SVG 1.1//EN" "http://www.w3.org/Graphics/SVG/1.1/DTD/svg11.dtd">
<svg xmlns="http://www.w3.org/2000/svg" xmlns:xlink="http://www.w3.org/1999/xlink" version="1.1" baseProfile="full" width="24" height="24" viewBox="0 0 24.00 24.00" enable-background="new 0 0 24.00 24.00" xml:space="preserve">
	<path fill="#000000" fill-opacity="1" stroke-width="1.33333" stroke-linejoin="miter" d="M 5,7C 3.89543,7 3,7.8954 3,9L 3,15C 3,16.1046 3.89543,17 5,17L 8,17L 8,15L 5,15L 5,9L 8,9L 8,7L 5,7 Z M 11,7C 9.8954,7 9,7.8954 9,9L 9,15C 9,16.1046 9.8954,17 11,17L 13,17C 14.1046,17 15,16.1046 15,15L 15,9C 15,7.8954 14.1046,7 13,7L 11,7 Z M 11,9L 13,9L 13,15L 11,15L 11,9 Z M 16,10.5L 16,12L 19,12L 19,13.5L 17.5,13.5C 16.6716,13.5 16,14.1716 16,15L 16,18L 20.5,18L 20.5,16.5L 17.5,16.5L 17.5,15L 19,15C 19.8284,15 20.5,14.3284 20.5,13.5L 20.5,12C 20.5,11.1675 19.825,10.5 19,10.5L 16,10.5 Z "/>
</svg>
