<?xml version="1.0" encoding="utf-8"?>
<!DOCTYPE svg PUBLIC "-//W3C//DTD SVG 1.1//EN" "http://www.w3.org/Graphics/SVG/1.1/DTD/svg11.dtd">
<svg xmlns="http://www.w3.org/2000/svg" xmlns:xlink="http://www.w3.org/1999/xlink" version="1.1" baseProfile="full" width="24" height="24" viewBox="0 0 24.00 24.00" enable-background="new 0 0 24.00 24.00" xml:space="preserve">
	<path fill="#000000" fill-opacity="1" stroke-width="1.33333" stroke-linejoin="miter" d="M 2,4L 2,6L 4,6L 4,4L 2,4 Z M 20,4L 20,6L 22,6L 22,4L 20,4 Z M 2,7L 2,9L 4,9L 4,7L 2,7 Z M 5,7L 5,9L 7,9L 7,7L 5,7 Z M 14,7L 14,9L 16,9L 16,7L 14,7 Z M 17,7L 17,9L 19,9L 19,7L 17,7 Z M 20,7L 20,9L 22,9L 22,7L 20,7 Z M 2,10L 2,12L 4,12L 4,10L 2,10 Z M 5,10L 5,12L 7,12L 7,10L 5,10 Z M 8,10L 8,12L 10,12L 10,10L 8,10 Z M 11,10L 11,12L 13,12L 13,10L 11,10 Z M 14,10L 14,12L 16,12L 16,10L 14,10 Z M 17,10L 17,12L 19,12L 19,10L 17,10 Z M 20,10L 20,12L 22,12L 22,10L 20,10 Z M 2,13L 2,15L 4,15L 4,13L 2,13 Z M 5,13L 5,15L 7,15L 7,13L 5,13 Z M 8,13L 8,15L 10,15L 10,13L 8,13 Z M 11,13L 11,15L 13,15L 13,13L 11,13 Z M 14,13L 14,15L 16,15L 16,13L 14,13 Z M 17,13L 17,15L 19,15L 19,13L 17,13 Z M 20,13L 20,15L 22,15L 22,13L 20,13 Z M 5,17L 5,19L 7,19L 7,17L 5,17 Z M 8,17L 8,19L 10,19L 10,17L 8,17 Z M 11,17L 11,19L 13,19L 13,17L 11,17 Z M 14,17L 14,19L 16,19L 16,17L 14,17 Z M 17,17L 17,19L 19,19L 19,17L 17,17 Z "/>
</svg>
