<?xml version="1.0" encoding="utf-8"?>
<!DOCTYPE svg PUBLIC "-//W3C//DTD SVG 1.1//EN" "http://www.w3.org/Graphics/SVG/1.1/DTD/svg11.dtd">
<svg xmlns="http://www.w3.org/2000/svg" xmlns:xlink="http://www.w3.org/1999/xlink" version="1.1" baseProfile="full" width="24" height="24" viewBox="0 0 24.00 24.00" enable-background="new 0 0 24.00 24.00" xml:space="preserve">
	<path fill="#000000" fill-opacity="1" stroke-width="1.33333" stroke-linejoin="miter" d="M 12,7C 12,8.10457 11.1046,9 10,9C 8.89543,9 8,8.10457 8,6.99952C 7.37209,7.83526 7,8.87418 7,10C 7,12.7614 9.23857,15 12,15C 14.7614,15 17,12.7614 17,10C 17,7.23858 14.7614,5.00001 12,5.00001C 11.5749,5.00001 11.1623,5.05305 10.7682,5.15287C 11.4915,5.45403 12,6.16763 12,7 Z M 12,2.00001C 16.4183,2.00001 20,5.58173 20,10C 20,11.0457 19.7994,12.0446 19.4345,12.9601C 17.8932,17.3761 13.6255,22 12,22C 10.3745,22 6.10683,17.3762 4.56551,12.9602C 4.20064,12.0446 4,11.0457 4,10C 4,5.58173 7.58172,2.00001 12,2.00001 Z "/>
</svg>
