<?xml version="1.0" encoding="utf-8"?>
<!DOCTYPE svg PUBLIC "-//W3C//DTD SVG 1.1//EN" "http://www.w3.org/Graphics/SVG/1.1/DTD/svg11.dtd">
<svg xmlns="http://www.w3.org/2000/svg" xmlns:xlink="http://www.w3.org/1999/xlink" version="1.1" baseProfile="full" width="24" height="24" viewBox="0 0 24.00 24.00" enable-background="new 0 0 24.00 24.00" xml:space="preserve">
	<path fill="#000000" fill-opacity="1" stroke-width="1.33333" stroke-linejoin="miter" d="M 20.2207,2.5L 2.5,20.2207L 3.76953,21.5L 8.64648,16.623C 11.7613,19.4329 15.8051,20.9918 20,21C 20.5523,21 21,20.5523 21,20L 21,16.5C 21,15.9477 20.5523,15.5 20,15.5C 18.75,15.5 17.5497,15.2997 16.4297,14.9297C 16.0797,14.8197 15.6902,14.8997 15.4102,15.1797L 13.2109,17.3809C 12.0648,16.7977 11.0132,16.0585 10.0605,15.209L 21.5,3.7695L 20.2207,2.5 Z M 4,3C 3.44772,3 3,3.4477 3,4C 3.00787,7.5724 4.14092,11.0515 6.23828,13.9434L 7.66406,12.5176C 7.28143,11.965 6.92562,11.3914 6.61914,10.7891L 8.82031,8.5898C 9.10031,8.3098 9.18031,7.9203 9.07031,7.5703C 8.70031,6.4503 8.5,5.25 8.5,4C 8.5,3.4477 8.05229,3 7.5,3L 4,3 Z "/>
</svg>
