<?xml version="1.0" encoding="utf-8"?>
<!DOCTYPE svg PUBLIC "-//W3C//DTD SVG 1.1//EN" "http://www.w3.org/Graphics/SVG/1.1/DTD/svg11.dtd">
<svg xmlns="http://www.w3.org/2000/svg" xmlns:xlink="http://www.w3.org/1999/xlink" version="1.1" baseProfile="full" width="24" height="24" viewBox="0 0 24.00 24.00" enable-background="new 0 0 24.00 24.00" xml:space="preserve">
	<path fill="#000000" fill-opacity="1" stroke-linejoin="round" d="M 18.5,21C 9.93959,21 3,14.0604 3,5.50001L 3,4.00001C 3,3.44772 3.44772,3.00001 4,3.00001L 8,3.00001C 8.55229,3.00001 9,3.44772 9,4.00001L 9,8C 9,8.37715 8.79122,8.70554 8.48293,8.87588L 6.34184,10.112C 7.65875,13.5817 10.4183,16.3413 13.888,17.6582L 15.1237,15.5179C 15.2939,15.2092 15.6225,15 16,15L 20,15C 20.5523,15 21,15.4477 21,16L 21,20C 21,20.5523 20.5523,21 20,21L 18.5,21 Z "/>
</svg>
