<?xml version="1.0" encoding="utf-8"?>
<!DOCTYPE svg PUBLIC "-//W3C//DTD SVG 1.1//EN" "http://www.w3.org/Graphics/SVG/1.1/DTD/svg11.dtd">
<svg xmlns="http://www.w3.org/2000/svg" xmlns:xlink="http://www.w3.org/1999/xlink" version="1.1" baseProfile="full" width="24" height="24" viewBox="0 0 24.00 24.00" enable-background="new 0 0 24.00 24.00" xml:space="preserve">
	<g>
		<path fill="#000000" fill-opacity="1" stroke-width="1.33333" stroke-linejoin="miter" d="M 9,1L 3,1C 1.89543,1 1,1.8954 1,3L 1,16C 1,17.1046 1.89543,18 3,18L 9,18C 10.1046,18 11,17.1046 11,16L 11,3C 11,1.8954 10.1046,1 9,1 Z M 9,15L 3,15L 3,3L 9,3L 9,15 Z M 21,13L 13,13L 13,15L 21,15L 21,21L 9,21L 9,20L 6,20L 6,21C 6,22.1046 6.89543,23 8,23L 21,23C 22.1046,23 23,22.1046 23,21L 23,15C 23,13.8954 22.1046,13 21,13 Z M 23,10L 19,8L 20.91,7.09C 19.7438,4.3059 17.0185,2.4956 14,2.5L 14,1C 18.9706,1 23,5.0294 23,10 Z "/>
	</g>
</svg>
