<?xml version="1.0" encoding="utf-8"?>
<!DOCTYPE svg PUBLIC "-//W3C//DTD SVG 1.1//EN" "http://www.w3.org/Graphics/SVG/1.1/DTD/svg11.dtd">
<svg xmlns="http://www.w3.org/2000/svg" xmlns:xlink="http://www.w3.org/1999/xlink" version="1.1" baseProfile="full" width="24" height="24" viewBox="0 0 24.00 24.00" enable-background="new 0 0 24.00 24.00" xml:space="preserve">
	<path fill="#000000" fill-opacity="1" stroke-width="0.2" stroke-linejoin="round" d="M 6.62278,10.793C 8.06378,13.624 10.3788,15.938 13.2118,17.3781L 15.4118,15.175C 15.6868,14.9 16.0818,14.819 16.4278,14.9301C 17.5518,15.2971 18.7528,15.498 19.9998,15.498C 20.5518,15.498 20.9998,15.9451 20.9998,16.498L 20.9998,19.998C 20.9998,20.551 20.5518,20.998 19.9998,20.998C 10.6108,20.998 2.99978,13.387 2.99978,3.99805C 2.99978,3.44507 3.44678,2.99805 3.99978,2.99805L 7.49978,2.99805C 8.05178,2.99805 8.49978,3.44507 8.49978,3.99805C 8.49978,5.24506 8.69978,6.44604 9.06678,7.57007C 9.17878,7.91608 9.09779,8.31104 8.82278,8.58502L 6.62278,10.793 Z "/>
</svg>
