<?xml version="1.0" encoding="utf-8"?>
<!DOCTYPE svg PUBLIC "-//W3C//DTD SVG 1.1//EN" "http://www.w3.org/Graphics/SVG/1.1/DTD/svg11.dtd">
<svg xmlns="http://www.w3.org/2000/svg" xmlns:xlink="http://www.w3.org/1999/xlink" version="1.1" baseProfile="full" width="24" height="24" viewBox="0 0 24.00 24.00" enable-background="new 0 0 24.00 24.00" xml:space="preserve">
	<path fill="#000000" fill-opacity="1" stroke-width="1.33333" stroke-linejoin="miter" d="M 21,6L 21,11L 19.5,11L 19.5,7.5L 13.87,7.5L 16.3,9.93L 15.24,11L 11,6.75L 15.24,2.51L 16.3,3.57L 13.87,6L 21,6 Z M 8.82,8.58C 9.0784,8.3165 9.17066,7.9321 9.06,7.58C 8.68516,6.4238 8.49614,5.2154 8.5,4C 8.5,3.4477 8.05229,3 7.5,3L 4,3C 3.44772,3 3,3.4477 3,4C 3,13.3888 10.6112,21 20,21C 20.5523,21 21,20.5523 21,20L 21,16.5C 21,15.9477 20.5523,15.5 20,15.5C 18.7874,15.4996 17.5825,15.3072 16.43,14.93C 16.0779,14.8193 15.6935,14.9116 15.43,15.17L 13.23,17.37C 10.3922,15.9248 8.08519,13.6178 6.64,10.78L 8.82,8.58 Z "/>
</svg>
