<?xml version="1.0" encoding="utf-8"?>
<!DOCTYPE svg PUBLIC "-//W3C//DTD SVG 1.1//EN" "http://www.w3.org/Graphics/SVG/1.1/DTD/svg11.dtd">
<svg xmlns="http://www.w3.org/2000/svg" xmlns:xlink="http://www.w3.org/1999/xlink" version="1.1" baseProfile="full" width="24" height="24" viewBox="0 0 24.00 24.00" enable-background="new 0 0 24.00 24.00" xml:space="preserve">
	<path fill="#000000" fill-opacity="1" stroke-width="0.2" stroke-linejoin="miter" d="M 4,3C 3.45,3 3,3.45 3,4C 3,13.39 10.61,21 20,21C 20.55,21 21,20.55 21,20L 21,16.5C 21,15.95 20.55,15.5 20,15.5C 18.75,15.5 17.5497,15.2997 16.4297,14.9297C 16.0797,14.8197 15.6902,14.8999 15.4102,15.1699L 13.2109,17.3691C 10.3809,15.9291 8.05914,13.6193 6.61914,10.7793L 8.82031,8.5703C 9.10031,8.3103 9.18031,7.9203 9.07031,7.5703C 8.70031,6.4503 8.5,5.25 8.5,4C 8.5,3.45 8.05,3 7.5,3L 4,3 Z M 19,11L 19,9.5L 15.5,9.5L 21,4L 20,3L 14.5,8.5L 14.5,5L 13,5L 13,11L 19,11 Z "/>
</svg>
