<?xml version="1.0" encoding="utf-8"?>
<!DOCTYPE svg PUBLIC "-//W3C//DTD SVG 1.1//EN" "http://www.w3.org/Graphics/SVG/1.1/DTD/svg11.dtd">
<svg xmlns="http://www.w3.org/2000/svg" xmlns:xlink="http://www.w3.org/1999/xlink" version="1.1" baseProfile="full" width="24" height="24" viewBox="0 0 24.00 24.00" enable-background="new 0 0 24.00 24.00" xml:space="preserve">
	<path fill="#000000" fill-opacity="1" stroke-width="0.2" stroke-linejoin="round" d="M 18.9994,10.998L 20.9994,10.998L 20.9994,8.99805L 18.9994,8.99805M 19.9994,15.498C 18.7524,15.498 17.5524,15.2971 16.4274,14.9301C 16.0814,14.8181 15.6864,14.9 15.4114,15.175L 13.2114,17.3781C 10.3784,15.9371 8.0634,13.624 6.6224,10.793L 8.8224,8.58502C 9.09741,8.31104 9.17939,7.91608 9.0664,7.57007C 8.6994,6.44604 8.4994,5.24506 8.4994,3.99805C 8.4994,3.44507 8.05239,2.99805 7.4994,2.99805L 3.9994,2.99805C 3.44641,2.99805 2.9994,3.44507 2.9994,3.99805C 2.9994,13.387 10.6104,20.998 19.9994,20.998C 20.5524,20.998 20.9994,20.551 20.9994,19.998L 20.9994,16.498C 20.9994,15.9451 20.5524,15.498 19.9994,15.498 Z M 16.9994,8.99805L 14.9994,8.99805L 14.9994,10.998L 16.9994,10.998M 12.9994,8.99805L 10.9994,8.99805L 10.9994,10.998L 12.9994,10.998L 12.9994,8.99805 Z "/>
</svg>
