<?xml version="1.0" encoding="utf-8"?>
<!DOCTYPE svg PUBLIC "-//W3C//DTD SVG 1.1//EN" "http://www.w3.org/Graphics/SVG/1.1/DTD/svg11.dtd">
<svg xmlns="http://www.w3.org/2000/svg" xmlns:xlink="http://www.w3.org/1999/xlink" version="1.1" baseProfile="full" width="24" height="24" viewBox="0 0 24.00 24.00" enable-background="new 0 0 24.00 24.00" xml:space="preserve">
	<path fill="#000000" fill-opacity="1" stroke-width="0.2" stroke-linejoin="round" d="M 23.7058,16.6695C 20.6578,13.7735 16.5358,11.9985 11.9998,11.9985C 7.46379,11.9985 3.34178,13.7735 0.293772,16.6695C 0.111766,16.8505 -0.000233968,17.1015 -0.000233968,17.3775C -0.000233968,17.6535 0.110789,17.9035 0.292765,18.0845L 2.76878,20.5625C 2.95079,20.7435 3.20079,20.8555 3.47679,20.8555C 3.74879,20.8555 3.99476,20.7465 4.17576,20.5715C 4.96778,19.8345 5.86378,19.2095 6.84077,18.7185C 7.17176,18.5565 7.39976,18.2155 7.39976,17.8205L 7.39976,14.7165C 8.84877,14.2495 10.3948,13.9985 11.9998,13.9985C 13.6038,13.9985 15.1498,14.2495 16.5988,14.7165L 16.5988,17.8205C 16.5988,18.2155 16.8278,18.5565 17.1588,18.7185C 18.1358,19.2095 19.0318,19.8345 19.8238,20.5715C 20.0048,20.7465 20.2508,20.8555 20.5218,20.8555C 20.7988,20.8555 21.0488,20.7435 21.2298,20.5625L 23.7068,18.0845C 23.8888,17.9035 23.9998,17.6535 23.9998,17.3775C 23.9998,17.1015 23.8878,16.8505 23.7058,16.6695 Z M 6.49977,5.4985L 11.9998,10.9985L 18.9998,3.9985L 17.9998,2.9985L 11.9998,8.9985L 7.49977,4.4985L 10.9998,4.4985L 10.9998,2.9985L 4.99977,2.9985L 4.99977,8.9985L 6.49977,8.9985L 6.49977,5.4985 Z "/>
</svg>
