<?xml version="1.0" encoding="utf-8"?>
<!DOCTYPE svg PUBLIC "-//W3C//DTD SVG 1.1//EN" "http://www.w3.org/Graphics/SVG/1.1/DTD/svg11.dtd">
<svg xmlns="http://www.w3.org/2000/svg" xmlns:xlink="http://www.w3.org/1999/xlink" version="1.1" baseProfile="full" width="24" height="24" viewBox="0 0 24.00 24.00" enable-background="new 0 0 24.00 24.00" xml:space="preserve">
	<path fill="#000000" fill-opacity="1" stroke-width="0.2" stroke-linejoin="round" d="M 19.9994,15.4981C 18.7524,15.4981 17.5524,15.2971 16.4274,14.9301C 16.0814,14.8181 15.6864,14.9001 15.4114,15.1751L 13.2114,17.3781C 10.3784,15.9371 8.06339,13.6241 6.62238,10.7931L 8.82239,8.58506C 9.09738,8.31107 9.17938,7.91607 9.06738,7.57007C 8.70038,6.44507 8.49939,5.24507 8.49939,3.99807C 8.49939,3.44507 8.0524,2.99807 7.49939,2.99807L 3.99939,2.99807C 3.44638,2.99807 2.99939,3.44507 2.99939,3.99807C 2.99939,13.3867 10.6104,20.9981 19.9994,20.9981C 20.5524,20.9981 20.9994,20.5511 20.9994,19.9981L 20.9994,16.4981C 20.9994,15.9451 20.5524,15.4981 19.9994,15.4981 Z M 17.9994,10.9981L 22.9994,5.99807L 17.9994,0.998068L 17.9994,3.99807L 13.9994,3.99807L 13.9994,7.99807L 17.9994,7.99807L 17.9994,10.9981 Z "/>
</svg>
