<?xml version="1.0" encoding="utf-8"?>
<!DOCTYPE svg PUBLIC "-//W3C//DTD SVG 1.1//EN" "http://www.w3.org/Graphics/SVG/1.1/DTD/svg11.dtd">
<svg xmlns="http://www.w3.org/2000/svg" xmlns:xlink="http://www.w3.org/1999/xlink" version="1.1" baseProfile="full" width="24" height="24" viewBox="0 0 24.00 24.00" enable-background="new 0 0 24.00 24.00" xml:space="preserve">
	<path fill="#000000" fill-opacity="1" stroke-width="0.2" stroke-linejoin="round" d="M 11.9997,8.99817C 10.3962,8.99817 8.8497,9.25012 7.4007,9.71613L 7.3997,12.8212C 7.3997,13.2151 7.1717,13.5562 6.83954,13.7192C 5.8637,14.2101 4.9677,14.8351 4.1747,15.5712C 3.9947,15.7471 3.7487,15.8552 3.4767,15.8552C 3.20087,15.8552 2.95087,15.7432 2.7697,15.5621L 0.292699,13.0842C 0.111699,12.9042 -0.00030009,12.6542 -0.00030009,12.3782C -0.00030009,12.1011 0.111699,11.8502 0.293701,11.6691C 3.3417,8.77417 7.4637,6.99817 11.9997,6.99817C 16.5357,6.99817 20.6577,8.77417 23.7057,11.6691C 23.8877,11.8502 23.9997,12.1011 23.9997,12.3782C 23.9997,12.6542 23.8877,12.9042 23.7067,13.0842L 21.2297,15.5621C 21.0485,15.7432 20.7985,15.8552 20.5227,15.8552C 20.2507,15.8552 20.0047,15.7471 19.8247,15.5712C 19.0317,14.8351 18.1357,14.2101 17.1599,13.7192C 16.8277,13.5562 16.5997,13.2151 16.5997,12.8212L 16.5987,9.71613C 15.1497,9.25012 13.6032,8.99817 11.9997,8.99817 Z "/>
</svg>
