<?xml version="1.0" encoding="utf-8"?>
<!DOCTYPE svg PUBLIC "-//W3C//DTD SVG 1.1//EN" "http://www.w3.org/Graphics/SVG/1.1/DTD/svg11.dtd">
<svg xmlns="http://www.w3.org/2000/svg" xmlns:xlink="http://www.w3.org/1999/xlink" version="1.1" baseProfile="full" width="24" height="24" viewBox="0 0 24.00 24.00" enable-background="new 0 0 24.00 24.00" xml:space="preserve">
	<path fill="#000000" fill-opacity="1" stroke-width="1.33333" stroke-linejoin="miter" d="M 20,15.5C 18.8,15.5 17.5,15.3 16.4,14.9C 16.3,14.9 16.2,14.9 16.1,14.9C 15.8,14.9 15.6,15 15.4,15.2L 13.2,17.4C 10.4,15.9 8,13.6 6.6,10.8L 8.8,8.6C 9.1,8.3 9.2,7.9 9,7.6C 8.7,6.5 8.5,5.2 8.5,4C 8.5,3.5 8,3 7.5,3L 4,3C 3.5,3 3,3.5 3,4C 3,13.4 10.6,21 20,21C 20.5,21 21,20.5 21,20L 21,16.5C 21,16 20.5,15.5 20,15.5 Z M 5,5L 6.5,5C 6.6,5.9 6.8,6.8 7,7.6L 5.8,8.8C 5.4,7.6 5.1,6.3 5,5 Z M 19,19C 17.7,18.9 16.4,18.6 15.2,18.2L 16.4,17C 17.2,17.2 18.1,17.4 19,17.4L 19,19 Z "/>
</svg>
