<?xml version="1.0" encoding="utf-8"?>
<!DOCTYPE svg PUBLIC "-//W3C//DTD SVG 1.1//EN" "http://www.w3.org/Graphics/SVG/1.1/DTD/svg11.dtd">
<svg xmlns="http://www.w3.org/2000/svg" xmlns:xlink="http://www.w3.org/1999/xlink" version="1.1" baseProfile="full" width="24" height="24" viewBox="0 0 24.00 24.00" enable-background="new 0 0 24.00 24.00" xml:space="preserve">
	<path fill="#000000" fill-opacity="1" stroke-width="1.33333" stroke-linejoin="miter" d="M 5.6201,2C 9.49449,2 11.5665,4.2935 11.7666,7.9278C 12.4993,3.5685 15.9326,4.0801 15.9326,4.0801C 16.0957,6.5507 14.0678,8.0472 11.7666,8.1719C 11.1201,6.8096 7.24703,3.4688 7.24703,3.4688C 7.22948,3.4805 10.968,6.7365 10.831,8.1465C 8.33432,7.8802 5.81867,5.9929 5.6201,2 Z M 6.05751,13.1078L 9.91517,9.25018C 11.0867,8.07861 12.9862,8.07861 14.1578,9.25019L 18.0155,13.1078C 19.187,14.2794 19.187,16.1789 18.0155,17.3505L 14.1578,21.2081C 12.9862,22.3797 11.0867,22.3797 9.91516,21.2081L 6.05751,17.3505C 4.88594,16.1789 4.88594,14.2794 6.05751,13.1078 Z M 9.39032,19.5859C 9.39241,18.3591 10.1541,16.8539 12.0909,16.8539C 13.3953,16.8539 14.869,18.0995 16.3114,17.9592C 14.869,17.9236 13.5878,16.8518 13.5878,15.1937C 13.5878,13.8622 14.6931,12.8996 14.6931,11.3417C 14.6261,12.3298 13.8224,13.7702 12.0135,13.7702C 10.5895,13.7702 9.5517,12.6313 7.86835,12.6313C 8.58014,12.6732 10.5061,13.3011 10.5061,15.3528C 10.5062,16.9858 9.39032,17.5207 9.39032,19.5859 Z "/>
</svg>
