<?xml version="1.0" encoding="utf-8"?>
<!DOCTYPE svg PUBLIC "-//W3C//DTD SVG 1.1//EN" "http://www.w3.org/Graphics/SVG/1.1/DTD/svg11.dtd">
<svg xmlns="http://www.w3.org/2000/svg" xmlns:xlink="http://www.w3.org/1999/xlink" version="1.1" baseProfile="full" width="24" height="24" viewBox="0 0 24.00 24.00" enable-background="new 0 0 24.00 24.00" xml:space="preserve">
	<path fill="#000000" fill-opacity="1" stroke-width="0.2" stroke-linejoin="miter" d="M 4,3.00002L 20,3.00002C 21.1046,3.00002 22,3.89544 22,5.00002L 22,19C 22,20.1046 21.1046,21 20,21L 4,21C 2.89543,21 2,20.1046 2,19L 2,5.00002C 2,3.89544 2.89543,3.00002 4,3.00002 Z M 4,5.00002L 4,19L 7.99999,19L 7.99999,13L 6.75,13L 6.75,5.00002L 4,5.00002 Z M 8.99999,19L 15,19L 15,13L 13.75,13L 13.75,5.00004L 10.25,5.00003L 10.25,13L 8.99999,13L 8.99999,19 Z M 16,19L 20,19L 20,5.00002L 17.25,5.00004L 17.25,13L 16,13L 16,19 Z "/>
</svg>
