<?xml version="1.0" encoding="utf-8"?>
<!DOCTYPE svg PUBLIC "-//W3C//DTD SVG 1.1//EN" "http://www.w3.org/Graphics/SVG/1.1/DTD/svg11.dtd">
<svg xmlns="http://www.w3.org/2000/svg" xmlns:xlink="http://www.w3.org/1999/xlink" version="1.1" baseProfile="full" width="24" height="24" viewBox="0 0 24.00 24.00" enable-background="new 0 0 24.00 24.00" xml:space="preserve">
	<path fill="#000000" fill-opacity="1" stroke-width="1.33333" stroke-linejoin="miter" d="M 4,4.00001L 6.75,4.00001L 6.75,3.00001L 10.25,3.00002L 10.25,4.00002L 13.75,4.00002L 13.75,2.99996L 17.25,2.99996L 17.25,4.00002L 20,4.00001C 21.1046,4.00001 22,4.89544 22,6.00001L 22,19C 22,20.1046 21.1046,21 20,21L 4,21C 2.89543,21 2,20.1046 2,19L 2,6.00001C 2,4.89544 2.89543,4.00001 4,4.00001 Z M 4,6.00002L 4,19L 7.99999,19L 7.99999,14L 6.75,14L 6.75,6.00002L 4,6.00002 Z M 8.99999,19L 15,19L 15,14L 13.75,14L 13.75,6.00003L 10.25,6.00002L 10.25,14L 9,14L 8.99999,19 Z M 16,19L 20,19L 20,6.00002L 17.25,6.00003L 17.25,14L 16,14L 16,19 Z "/>
</svg>
