<?xml version="1.0" encoding="utf-8"?>
<!DOCTYPE svg PUBLIC "-//W3C//DTD SVG 1.1//EN" "http://www.w3.org/Graphics/SVG/1.1/DTD/svg11.dtd">
<svg xmlns="http://www.w3.org/2000/svg" xmlns:xlink="http://www.w3.org/1999/xlink" version="1.1" baseProfile="full" width="24" height="24" viewBox="0 0 24.00 24.00" enable-background="new 0 0 24.00 24.00" xml:space="preserve">
	<g>
		<path fill="#000000" fill-opacity="1" stroke-width="1.33333" stroke-linejoin="miter" d="M 14.79,10.62L 3.51,21.9L 2.1,20.49L 13.38,9.21L 14.79,10.62 Z M 19.27,7.73L 19.86,7.14L 19.07,6.35L 19.71,5.71L 18.29,4.29L 17.65,4.93L 16.86,4.14L 16.27,4.73C 14.5282,3.308 12.5701,2.1736 10.47,1.37L 9.64,3.16C 11.3863,4.0797 13.0233,5.1934 14.52,6.48L 14,7L 17,10L 17.52,9.48C 18.8066,10.9767 19.9203,12.6137 20.84,14.36L 22.63,13.53C 21.8264,11.4299 20.692,9.4719 19.27,7.73 Z "/>
	</g>
</svg>
