<?xml version="1.0" encoding="utf-8"?>
<!DOCTYPE svg PUBLIC "-//W3C//DTD SVG 1.1//EN" "http://www.w3.org/Graphics/SVG/1.1/DTD/svg11.dtd">
<svg xmlns="http://www.w3.org/2000/svg" xmlns:xlink="http://www.w3.org/1999/xlink" version="1.1" baseProfile="full" width="24" height="24" viewBox="0 0 24.00 24.00" enable-background="new 0 0 24.00 24.00" xml:space="preserve">
	<path fill="#000000" fill-opacity="1" stroke-width="1.33333" stroke-linejoin="miter" d="M 19,7.01L 11,7.01L 11,13.01L 19,13.01L 19,7.01 Z M 17,11.01L 13,11.01L 13,9.01L 17,9.01L 17,11.01 Z M 21,3.01L 3,3.01C 1.9,3.01 1,3.91 1,5.01L 1,19.01C 1,20.11 1.9,20.99 3,20.99L 21,20.99C 22.1,20.99 23,20.11 23,19.01L 23,5.01C 23,3.91 22.1,3.01 21,3.01 Z M 21,19.02L 3,19.02L 3,4.99L 21,4.99L 21,19.02 Z "/>
</svg>
