<?xml version="1.0" encoding="utf-8"?>
<!DOCTYPE svg PUBLIC "-//W3C//DTD SVG 1.1//EN" "http://www.w3.org/Graphics/SVG/1.1/DTD/svg11.dtd">
<svg xmlns="http://www.w3.org/2000/svg" xmlns:xlink="http://www.w3.org/1999/xlink" version="1.1" baseProfile="full" width="24" height="24" viewBox="0 0 24.00 24.00" enable-background="new 0 0 24.00 24.00" xml:space="preserve">
	<path fill="#000000" fill-opacity="1" stroke-width="0.2" stroke-linejoin="miter" d="M 20,20C 18.61,20 17.22,19.53 16,18.67C 13.56,20.38 10.44,20.38 8,18.67C 6.78,19.53 5.39,20 4,20L 2,20L 2,22L 4,22C 5.37,22 6.74,21.65 8,21C 10.5,22.3 13.5,22.3 16,21C 17.2598,21.65 18.62,22 20,22L 22,22L 22,20L 20,20 Z M 20,4L 20,3C 20,2.44824 19.5518,2 19,2L 9,2L 9,1L 6,1L 6,2L 5,2L 5,4L 6,4L 6,13L 5,13L 5,11L 3,11L 3,13L 2,13L 2,15L 3,15L 3,19L 4,19C 4.334,19 4.668,18.97 5,18.917L 5,15L 10,15L 10,18.647C 10.654,18.848 11.327,18.953 12,18.953L 12,18.917L 12,15L 13,15L 13,13L 12,13L 12,11L 10,11L 10,13L 9,13L 9,4L 17,4L 17,8.616C 16.529,8.788 16.187,9.231 16.187,9.761C 16.187,10.197 16.4268,10.598 16.8018,10.815L 16.8018,12.007L 17.417,12.007C 17.756,12.007 18.032,12.283 18.032,12.622C 18.032,12.961 17.756,13.237 17.417,13.237C 17.1982,13.237 16.994,13.119 16.8848,12.928C 16.7119,12.635 16.335,12.537 16.046,12.705C 15.753,12.874 15.652,13.251 15.82,13.546C 16.1494,14.114 16.761,14.467 17.417,14.467C 18.4336,14.467 19.261,13.64 19.261,12.623C 19.261,11.837 18.7568,11.141 18.0313,10.884L 18.0313,10.816C 18.4063,10.599 18.6465,10.198 18.6465,9.762C 18.6465,9.299 18.379,8.91 17.999,8.7L 17.999,4L 20,4 Z M 8,11.657L 7,12.657L 7,11.243L 8,10.243L 8,11.657 Z M 8,8.707L 7,9.707L 7,8.293L 8,7.293L 8,8.707 Z M 7,6.707L 7,5.293L 8,4.293L 8,5.707L 7,6.707 Z "/>
</svg>
