<?xml version="1.0" encoding="utf-8"?>
<!DOCTYPE svg PUBLIC "-//W3C//DTD SVG 1.1//EN" "http://www.w3.org/Graphics/SVG/1.1/DTD/svg11.dtd">
<svg xmlns="http://www.w3.org/2000/svg" xmlns:xlink="http://www.w3.org/1999/xlink" version="1.1" baseProfile="full" width="24" height="24" viewBox="0 0 24.00 24.00" enable-background="new 0 0 24.00 24.00" xml:space="preserve">
	<path fill="#000000" fill-opacity="1" stroke-width="1.33333" stroke-linejoin="miter" d="M 20,18C 18.6,18 17.2,17.5 16,16.7C 13.6,18.4 10.4,18.4 8,16.7C 6.8,17.5 5.4,18 4,18L 2,18L 2,20L 4,20C 5.4,20 6.7,19.6 8,19C 10.5,20.3 13.5,20.3 16,19C 17.3,19.6 18.6,20 20,20L 22,20L 22,18L 20,18 Z M 20,13L 19,13L 19,16.9C 18.3,16.8 17.6,16.6 17,16.2L 17,13L 12,13L 12,17C 11.3,17 10.7,16.9 10,16.7L 10,13L 5,13L 5,16.9C 4.7,17 4.3,17 4,17L 3,17L 3,13L 2,13L 2,11L 3,11L 3,9L 5,9L 5,11L 10,11L 10,9L 12,9L 12,11L 17,11L 17,9L 19,9L 19,11L 20,11L 20,13 Z "/>
</svg>
