<?xml version="1.0" encoding="utf-8"?>
<!DOCTYPE svg PUBLIC "-//W3C//DTD SVG 1.1//EN" "http://www.w3.org/Graphics/SVG/1.1/DTD/svg11.dtd">
<svg xmlns="http://www.w3.org/2000/svg" xmlns:xlink="http://www.w3.org/1999/xlink" version="1.1" baseProfile="full" width="24" height="24" viewBox="0 0 24.00 24.00" enable-background="new 0 0 24.00 24.00" xml:space="preserve">
	<path fill="#000000" fill-opacity="1" stroke-width="1.33333" stroke-linejoin="miter" d="M 8,6.2L 8,4L 7,4L 7,2L 17,2L 17,4L 16,4L 16,12L 18,14L 18,16L 17.8,16L 14,12.2L 14,4L 10,4L 10,8.2L 8,6.2 Z M 20,20.7L 18.7,22L 12.8,16.1L 12.8,22L 11.2,22L 11.2,16L 6,16L 6,14L 8,12L 8,11.3L 2,5.3L 3.3,4L 20,20.7 Z M 8.8,14L 10.6,14L 9.7,13.1L 8.8,14 Z "/>
</svg>
