<?xml version="1.0" encoding="utf-8"?>
<!DOCTYPE svg PUBLIC "-//W3C//DTD SVG 1.1//EN" "http://www.w3.org/Graphics/SVG/1.1/DTD/svg11.dtd">
<svg xmlns="http://www.w3.org/2000/svg" xmlns:xlink="http://www.w3.org/1999/xlink" version="1.1" baseProfile="full" width="24" height="24" viewBox="0 0 24.00 24.00" enable-background="new 0 0 24.00 24.00" xml:space="preserve">
	<path fill="#000000" fill-opacity="1" stroke-width="1.33333" stroke-linejoin="miter" d="M 5,3L 19,3C 20.1046,3 21,3.89543 21,5L 21,19C 21,20.1046 20.1046,21 19,21L 9.2908,21C 9.69169,20.3282 10.1903,19.377 10.3863,18.6419L 11.0531,16.3356C 11.3588,16.9469 12.2757,17.4471 13.2204,17.4471C 16.1657,17.4471 18.2219,14.7796 18.2219,11.4453C 18.2219,8.27773 15.6378,5.88815 12.3035,5.88815C 8.1356,5.88815 5.9683,8.66675 5.9683,11.7232C 5.9683,13.1403 6.69075,14.8908 7.91332,15.4465C 8.08005,15.5576 8.19119,15.5021 8.19119,15.3353L 8.46903,14.2795C 8.49682,14.1406 8.49682,14.0572 8.41348,14.0016C 7.96891,13.4459 7.69103,12.6123 7.69103,11.7787C 7.69103,9.63924 9.30262,7.61088 12.0256,7.61088C 14.4152,7.61088 16.0824,9.19467 16.0824,11.5009C 16.0824,14.1128 14.7486,15.9466 13.0259,15.9466C 12.0534,15.9466 11.3866,15.1131 11.5533,14.1684C 11.8311,13.0291 12.3869,11.8343 12.3869,11.0007C 12.3869,10.2227 11.9978,9.61144 11.1643,9.61144C 10.2196,9.61144 9.38596,10.6118 9.38596,11.9455C 9.38596,12.8346 9.66384,13.3903 9.66384,13.3903L 8.55242,18.1695C 8.38799,19.0189 8.46677,20.2467 8.54895,21L 5,21C 3.89543,21 3,20.1046 3,19L 3,5C 3,3.89543 3.89543,3 5,3 Z "/>
</svg>
