<?xml version="1.0" encoding="utf-8"?>
<!DOCTYPE svg PUBLIC "-//W3C//DTD SVG 1.1//EN" "http://www.w3.org/Graphics/SVG/1.1/DTD/svg11.dtd">
<svg xmlns="http://www.w3.org/2000/svg" xmlns:xlink="http://www.w3.org/1999/xlink" version="1.1" baseProfile="full" width="24" height="24" viewBox="0 0 24.00 24.00" enable-background="new 0 0 24.00 24.00" xml:space="preserve">
	<path fill="#000000" fill-opacity="1" stroke-width="0.2" stroke-linejoin="miter" d="M 9.04024,21.5402C 9.98851,21.8276 10.9655,22 12,22C 17.5172,22 22,17.5173 22,12C 22,6.48276 17.5172,2 12,2C 6.48273,2 2,6.48276 2,12C 2,16.2529 4.67241,19.9023 8.43678,21.3391C 8.35054,20.5632 8.26435,19.2701 8.43678,18.3793L 9.58619,13.4368C 9.58619,13.4368 9.29882,12.8621 9.29882,11.9425C 9.29882,10.5632 10.1609,9.52873 11.1379,9.52873C 12,9.52873 12.4023,10.1609 12.4023,10.9655C 12.4023,11.8276 11.8276,13.0632 11.5402,14.2414C 11.3678,15.2184 12.0575,16.0805 13.0632,16.0805C 14.8448,16.0805 16.2241,14.1839 16.2241,11.4828C 16.2241,9.09771 14.5,7.45978 12.0287,7.45978C 9.21262,7.45978 7.54595,9.55747 7.54595,11.7701C 7.54595,12.6322 7.83333,13.4943 8.29309,14.069C 8.37929,14.1264 8.37929,14.2127 8.35054,14.3563L 8.06321,15.4483C 8.06321,15.6207 7.94827,15.6782 7.77584,15.5632C 6.51148,14.9885 5.76434,13.1782 5.76434,11.7127C 5.76434,8.55175 8.00572,5.67817 12.3161,5.67817C 15.7644,5.67817 18.4368,8.14943 18.4368,11.4253C 18.4368,14.8736 16.3103,17.6322 13.2644,17.6322C 12.2873,17.6322 11.3391,17.1149 11.023,16.4827L 10.3333,18.8678C 10.1035,19.7299 9.47125,20.8793 9.04024,21.569L 9.04024,21.5402 Z "/>
</svg>
