<?xml version="1.0" encoding="utf-8"?>
<!DOCTYPE svg PUBLIC "-//W3C//DTD SVG 1.1//EN" "http://www.w3.org/Graphics/SVG/1.1/DTD/svg11.dtd">
<svg xmlns="http://www.w3.org/2000/svg" xmlns:xlink="http://www.w3.org/1999/xlink" version="1.1" baseProfile="full" width="24" height="24" viewBox="0 0 24.00 24.00" enable-background="new 0 0 24.00 24.00" xml:space="preserve">
	<path fill="#000000" fill-opacity="1" stroke-width="1.33333" stroke-linejoin="miter" d="M 12,12C 12,9 14.5,6.5 17.5,6.5C 20.5,6.5 23,9 23,12L 12,12 Z M 12,12C 12,15 9.5,17.5 6.5,17.5C 3.5,17.5 1,15 1,12L 12,12 Z M 12,12C 9,12 6.5,9.5 6.5,6.5C 6.5,3.5 9,1 12,1L 12,12 Z M 12,12C 15,12 17.5,14.5 17.5,17.5C 17.5,20.5 15,23 12,23L 12,12 Z "/>
</svg>
