<?xml version="1.0" encoding="utf-8"?>
<!DOCTYPE svg PUBLIC "-//W3C//DTD SVG 1.1//EN" "http://www.w3.org/Graphics/SVG/1.1/DTD/svg11.dtd">
<svg xmlns="http://www.w3.org/2000/svg" xmlns:xlink="http://www.w3.org/1999/xlink" version="1.1" baseProfile="full" width="24" height="24" viewBox="0 0 24.00 24.00" enable-background="new 0 0 24.00 24.00" xml:space="preserve">
	<g/>
	<path fill="#000000" fill-opacity="1" stroke-width="1.33333" stroke-linejoin="miter" d="M 12,23L 11,23L 11,16.43C 9.93,17.4 8.52,18 7,18C 3.75,18 1,15.25 1,12L 1,11L 7.57,11C 6.6,9.93 6,8.52 6,7C 6,3.75 8.75,1 12,1L 13,1L 13,7.57C 14.07,6.6 15.48,6 17,6C 20.25,6 23,8.75 23,12L 23,13L 16.43,13C 17.4,14.07 18,15.48 18,17C 18,20.25 15.25,23 12,23 Z M 13,13.13L 13,20.87C 14.7,20.41 16,18.83 16,17C 16,15.17 14.7,13.59 13,13.13 Z M 3.13,13C 3.59,14.7 5.17,16 7,16C 8.83,16 10.41,14.7 10.87,13L 3.13,13 Z M 13.13,11L 20.87,11C 20.41,9.3 18.82,8 17,8C 15.18,8 13.59,9.3 13.13,11 Z M 11,3.13C 9.3,3.59 8,5.18 8,7C 8,8.82 9.3,10.41 11,10.87L 11,3.13 Z "/>
</svg>
