<?xml version="1.0" encoding="utf-8"?>
<!DOCTYPE svg PUBLIC "-//W3C//DTD SVG 1.1//EN" "http://www.w3.org/Graphics/SVG/1.1/DTD/svg11.dtd">
<svg xmlns="http://www.w3.org/2000/svg" xmlns:xlink="http://www.w3.org/1999/xlink" version="1.1" baseProfile="full" width="24" height="24" viewBox="0 0 24.00 24.00" enable-background="new 0 0 24.00 24.00" xml:space="preserve">
	<g>
		<path fill="#000000" fill-opacity="1" stroke-width="1.33333" stroke-linejoin="miter" d="M 22,14L 20,14L 20,16L 14,16L 14,13L 16,13L 16,11L 14,11L 14,6C 14,4.8954 13.1046,4 12,4L 4,4L 4,2L 2,2L 2,10L 4,10L 4,8L 10,8L 10,11L 8,11L 8,13L 10,13L 10,18C 10,19.1046 10.8954,20 12,20L 20,20L 20,22L 22,22"/>
	</g>
</svg>
