<?xml version="1.0" encoding="utf-8"?>
<!DOCTYPE svg PUBLIC "-//W3C//DTD SVG 1.1//EN" "http://www.w3.org/Graphics/SVG/1.1/DTD/svg11.dtd">
<svg xmlns="http://www.w3.org/2000/svg" xmlns:xlink="http://www.w3.org/1999/xlink" version="1.1" baseProfile="full" width="24" height="24" viewBox="0 0 24.00 24.00" enable-background="new 0 0 24.00 24.00" xml:space="preserve">
	<path fill="#000000" fill-opacity="1" stroke-width="1.33333" stroke-linejoin="miter" d="M 2,5L 2,13L 4,13L 4,11L 10,11L 12,9L 10,7L 4,7L 4,5L 2,5 Z M 20,5L 20,7L 12,7L 14,9L 12,11L 20,11L 20,13L 22,13L 22,5L 20,5 Z M 12,13C 12,13 10,15.17 10,16.5C 10,17.6046 10.8954,18.5 12,18.5C 13.1046,18.5 14,17.6046 14,16.5C 14,15.17 12,13 12,13 Z "/>
</svg>
