<?xml version="1.0" encoding="utf-8"?>
<!DOCTYPE svg PUBLIC "-//W3C//DTD SVG 1.1//EN" "http://www.w3.org/Graphics/SVG/1.1/DTD/svg11.dtd">
<svg xmlns="http://www.w3.org/2000/svg" xmlns:xlink="http://www.w3.org/1999/xlink" version="1.1" baseProfile="full" width="24" height="24" viewBox="0 0 24.00 24.00" enable-background="new 0 0 24.00 24.00" xml:space="preserve">
	<path fill="#000000" fill-opacity="1" stroke-width="1.33333" stroke-linejoin="miter" d="M 8.2,12.1C 7.9,12.3 7.7,12.7 7.8,13C 7.8,13.7 8.5,14.2 9.1,14.2C 9.7,14.2 10.3,13.7 10.3,13C 9.7,12.6 9,12.3 8.2,12.1 Z M 22,11L 23,7C 23,7 21,7 18,5C 15,3 15,1 12,1C 9,1 9,3 6,5C 3,7 1,7 1,7L 2,11L 2.1,11C 2,11.3 2,11.7 2,12C 2,15.5 3.8,18.6 6.5,20.4L 6,21.3C 12.4,25.4 18,21.3 18,21.3L 17.5,20.4C 20.2,18.6 22,15.5 22,12C 22,11.7 22,11.3 22,11 Z M 11.3,4.5L 9.9,3.1L 10.6,2.4L 12,3.8L 13.4,2.4L 14.1,3.1L 12.7,4.5L 14.1,5.9L 13.4,6.6L 12,5.2L 10.6,6.6L 9.9,5.9L 11.3,4.5 Z M 9.3,8.5C 10.3,8.2 11.3,8 12,8C 14.2,8 17.9,9.6 19.8,10.4C 19.9,10.7 19.9,11 19.9,11.3L 9.3,8.5 Z M 13.6,19.1C 12.9,19.5 12.2,19.8 11.4,19.9C 10.9,19.5 10.9,18.7 11.4,18.3C 11.8,17.9 12.7,17.7 13.2,18.2C 13.5,18.3 13.6,18.8 13.6,19.1 Z M 20,13.4C 19.5,15.5 18.2,17.4 16.5,18.6L 15,16L 9,16L 7.5,18.6C 5.4,17.2 4,14.8 4,12C 4,11.5 4.1,11 4.2,10.5C 4.7,10.3 5.3,10 6,9.7L 13.1,11.6L 13.1,14C 13.1,14.5 13.5,15 14.1,15L 16.1,15C 16.6,15 17.1,14.6 17.1,14L 17.1,12.6L 20,13.4 Z "/>
</svg>
