<?xml version="1.0" encoding="utf-8"?>
<!DOCTYPE svg PUBLIC "-//W3C//DTD SVG 1.1//EN" "http://www.w3.org/Graphics/SVG/1.1/DTD/svg11.dtd">
<svg xmlns="http://www.w3.org/2000/svg" xmlns:xlink="http://www.w3.org/1999/xlink" version="1.1" baseProfile="full" width="24" height="24" viewBox="0 0 24.00 24.00" enable-background="new 0 0 24.00 24.00" xml:space="preserve">
	<path fill="#000000" fill-opacity="1" stroke-width="1.33333" stroke-linejoin="miter" d="M 13,16.18C 13.4803,16.3458 13.9028,16.6306 14.233,17L 15,17L 15,21L 14.2148,21C 13.8917,21.3537 13.4846,21.6291 13.0235,21.7965C 11.8476,22.2233 10.5786,21.8693 9.78414,21L 9,21L 9,17L 9.76703,17C 10.0972,16.6306 10.5197,16.3458 11,16.18L 11,12L 13,12L 13,16.18 Z M 12,20C 12.5523,20 13,19.5523 13,19C 13,18.4477 12.5523,18 12,18C 11.4477,18 11,18.4477 11,19C 11,19.5523 11.4477,20 12,20 Z M 17,4L 15,4L 15,5L 17,5L 17,11L 7,11L 7,5L 9,5L 9,4L 7,4L 7,2.00001L 17,2.00001L 17,4 Z M 12,9C 12.5523,9 13,8.5523 13,8C 13,7.4477 12.5523,7 12,7C 11.4477,7 11,7.4477 11,8C 11,8.5523 11.4477,9 12,9 Z "/>
</svg>
