<?xml version="1.0" encoding="utf-8"?>
<!DOCTYPE svg PUBLIC "-//W3C//DTD SVG 1.1//EN" "http://www.w3.org/Graphics/SVG/1.1/DTD/svg11.dtd">
<svg xmlns="http://www.w3.org/2000/svg" xmlns:xlink="http://www.w3.org/1999/xlink" version="1.1" baseProfile="full" width="24" height="24" viewBox="0 0 24.00 24.00" enable-background="new 0 0 24.00 24.00" xml:space="preserve">
	<path fill="#000000" fill-opacity="1" stroke-width="0.2" stroke-linejoin="round" d="M 11.9994,14.9981C 10.8954,14.9981 9.99939,14.1031 9.99939,12.9981C 9.99939,11.8931 10.8954,10.9981 11.9994,10.9981C 13.1034,10.9981 13.9994,11.8931 13.9994,12.9981C 13.9994,14.1031 13.1034,14.9981 11.9994,14.9981 Z M 6.99939,6.99807C 6.99939,5.89307 7.89438,4.99807 8.99939,4.99807C 10.1034,4.99807 10.9994,5.89307 10.9994,6.99807C 10.9994,8.10306 10.1034,8.99807 8.99939,8.99807C 7.89438,8.99807 6.99939,8.10306 6.99939,6.99807 Z M 11.9994,1.99807C 8.43237,1.99807 5.2254,3.54207 3.01038,5.99706L 11.9994,21.9981L 20.9924,6.00207C 18.7774,3.54407 15.5694,1.99807 11.9994,1.99807 Z "/>
</svg>
