<?xml version="1.0" encoding="utf-8"?>
<!DOCTYPE svg PUBLIC "-//W3C//DTD SVG 1.1//EN" "http://www.w3.org/Graphics/SVG/1.1/DTD/svg11.dtd">
<svg xmlns="http://www.w3.org/2000/svg" xmlns:xlink="http://www.w3.org/1999/xlink" version="1.1" baseProfile="full" width="24" height="24" viewBox="0 0 24.00 24.00" enable-background="new 0 0 24.00 24.00" xml:space="preserve">
	<path fill="#000000" fill-opacity="1" stroke-width="1.33333" stroke-linejoin="miter" d="M 2,6L 2,8L 14,8L 14,6L 2,6 Z M 2,10L 2,12L 14,12L 14,10L 2,10 Z M 20.0352,10.1348C 19.8952,10.1348 19.7554,10.1908 19.6504,10.3008L 18.6504,11.3008L 20.6992,13.3496L 21.6992,12.3496C 21.9192,12.1396 21.9192,11.7901 21.6992,11.5801L 20.4199,10.3008C 20.3149,10.1908 20.1752,10.1348 20.0352,10.1348 Z M 18.0703,11.8809L 12,17.9394L 12,20L 14.0605,20L 20.1191,13.9297L 18.0703,11.8809 Z M 2,14L 2,16L 10,16L 10,14L 2,14 Z "/>
</svg>
