<?xml version="1.0" encoding="utf-8"?>
<!DOCTYPE svg PUBLIC "-//W3C//DTD SVG 1.1//EN" "http://www.w3.org/Graphics/SVG/1.1/DTD/svg11.dtd">
<svg xmlns="http://www.w3.org/2000/svg" xmlns:xlink="http://www.w3.org/1999/xlink" version="1.1" baseProfile="full" width="24" height="24" viewBox="0 0 24.00 24.00" enable-background="new 0 0 24.00 24.00" xml:space="preserve">
	<g>
		<path fill="#000000" fill-opacity="1" stroke-width="1.33333" stroke-linejoin="miter" d="M 13,2.05L 13,4.05C 17.3851,4.5901 20.5022,8.5828 19.962,12.968C 19.5133,16.611 16.643,19.4813 13,19.93L 13,21.93C 18.4952,21.3784 22.5028,16.4765 21.9512,10.9812C 21.4762,6.2483 17.7329,2.5051 13,2.03L 13,2.05 Z M 5.67,19.74C 7.18497,21.0024 9.03936,21.7887 11,22L 11,20C 9.57738,19.8161 8.23035,19.2532 7.1,18.37L 5.67,19.74 Z M 7.1,5.74C 8.22492,4.8389 9.5724,4.2585 11,4.06L 11,2.06C 9.04586,2.2541 7.19211,3.0192 5.67,4.26L 7.1,5.74 Z M 5.69,7.1L 4.26,5.67C 3.01563,7.1909 2.24696,9.0448 2.05,11L 4.05,11C 4.23678,9.5764 4.80326,8.2293 5.69,7.1 Z M 4.06,13L 2.06,13C 2.25696,14.9552 3.02563,16.8091 4.27,18.33L 5.69,16.9C 4.80684,15.7696 4.24386,14.4226 4.06,13 Z M 10,16.5L 16,12L 10,7.5L 10,16.5 Z "/>
	</g>
</svg>
