<?xml version="1.0" encoding="utf-8"?>
<!DOCTYPE svg PUBLIC "-//W3C//DTD SVG 1.1//EN" "http://www.w3.org/Graphics/SVG/1.1/DTD/svg11.dtd">
<svg xmlns="http://www.w3.org/2000/svg" xmlns:xlink="http://www.w3.org/1999/xlink" version="1.1" baseProfile="full" width="24" height="24" viewBox="0 0 24.00 24.00" enable-background="new 0 0 24.00 24.00" xml:space="preserve">
	<path fill="#000000" fill-opacity="1" stroke-width="1.33333" stroke-linejoin="miter" d="M 15,6L 3,6L 3,8L 15,8L 15,6 Z M 15,10L 3,10L 3,12L 15,12L 15,10 Z M 3,16L 11,16L 11,14L 3,14L 3,16 Z M 17,6L 17,14.18C 16.69,14.07 16.35,14 16,14C 14.34,14 13,15.34 13,17C 13,18.66 14.34,20 16,20C 17.66,20 19,18.66 19,17L 19,8L 22,8L 22,6L 17,6 Z "/>
</svg>
