<?xml version="1.0" encoding="utf-8"?>
<!DOCTYPE svg PUBLIC "-//W3C//DTD SVG 1.1//EN" "http://www.w3.org/Graphics/SVG/1.1/DTD/svg11.dtd">
<svg xmlns="http://www.w3.org/2000/svg" xmlns:xlink="http://www.w3.org/1999/xlink" version="1.1" baseProfile="full" width="24" height="24" viewBox="0 0 24.00 24.00" enable-background="new 0 0 24.00 24.00" xml:space="preserve">
	<path fill="#000000" fill-opacity="1" stroke-width="0.2" stroke-linejoin="round" d="M 16.9994,12.9981L 12.9994,12.9981L 12.9994,16.9981L 10.9994,16.9981L 10.9994,12.9981L 6.9994,12.9981L 6.9994,10.9981L 10.9994,10.9981L 10.9994,6.99813L 12.9994,6.99813L 12.9994,10.9981L 16.9994,10.9981M 18.9994,2.99813L 4.9994,2.99813C 3.8934,2.99813 2.9994,3.89412 2.9994,4.99813L 2.9994,18.9981C 2.9994,20.1021 3.8934,20.9981 4.9994,20.9981L 18.9994,20.9981C 20.1024,20.9981 20.9994,20.1021 20.9994,18.9981L 20.9994,4.99813C 20.9994,3.89412 20.1024,2.99813 18.9994,2.99813 Z "/>
</svg>
