<?xml version="1.0" encoding="utf-8"?>
<!DOCTYPE svg PUBLIC "-//W3C//DTD SVG 1.1//EN" "http://www.w3.org/Graphics/SVG/1.1/DTD/svg11.dtd">
<svg xmlns="http://www.w3.org/2000/svg" xmlns:xlink="http://www.w3.org/1999/xlink" version="1.1" baseProfile="full" width="24" height="24" viewBox="0 0 24.00 24.00" enable-background="new 0 0 24.00 24.00" xml:space="preserve">
	<path fill="#000000" fill-opacity="1" stroke-width="0.2" stroke-linejoin="round" d="M 18.9993,18.9981L 18.9993,4.99807L 4.99931,4.99807L 4.99931,18.9991L 18.9993,18.9981 Z M 18.9992,2.99807C 20.1032,2.99807 20.9992,3.89407 20.9992,4.99807L 20.9992,18.9981C 20.9992,20.1031 20.1032,20.9981 18.9992,20.9981L 4.99927,20.9981C 3.89526,20.9981 2.99927,20.1031 2.99927,18.9981L 2.99927,4.99807C 2.99927,3.89407 3.89526,2.99807 4.99927,2.99807L 18.9992,2.99807 Z M 11,7L 13,7L 13,11L 17,11L 17,13L 13,13L 13,17L 11,17L 11,13L 7,13L 7,11L 11,11L 11,7 Z "/>
</svg>
