<?xml version="1.0" encoding="utf-8"?>
<!DOCTYPE svg PUBLIC "-//W3C//DTD SVG 1.1//EN" "http://www.w3.org/Graphics/SVG/1.1/DTD/svg11.dtd">
<svg xmlns="http://www.w3.org/2000/svg" xmlns:xlink="http://www.w3.org/1999/xlink" version="1.1" baseProfile="full" width="24" height="24" viewBox="0 0 24.00 24.00" enable-background="new 0 0 24.00 24.00" xml:space="preserve">
	<path fill="#000000" fill-opacity="1" stroke-width="1.33333" stroke-linejoin="miter" d="M 5,3C 3.89,3 3,3.89 3,5L 3,19C 3,20.1046 3.89543,21 5,21L 19,21C 20.1046,21 21,20.1046 21,19L 21,5C 21,3.8954 20.1046,3 19,3L 5,3 Z M 11,6L 13,6L 13,9L 16,9L 16,11L 13,11L 13,14L 11,14L 11,11L 8,11L 8,9L 11,9L 11,6 Z M 8,16L 16,16L 16,18L 8,18L 8,16 Z "/>
</svg>
