<?xml version="1.0" encoding="utf-8"?>
<!DOCTYPE svg PUBLIC "-//W3C//DTD SVG 1.1//EN" "http://www.w3.org/Graphics/SVG/1.1/DTD/svg11.dtd">
<svg xmlns="http://www.w3.org/2000/svg" xmlns:xlink="http://www.w3.org/1999/xlink" version="1.1" baseProfile="full" width="24" height="24" viewBox="0 0 24.00 24.00" enable-background="new 0 0 24.00 24.00" xml:space="preserve">
	<path fill="#000000" fill-opacity="1" stroke-width="0.2" stroke-linejoin="round" d="M 16.0012,7.9975L 13.9987,7.9975L 13.9987,11.0012L 11.0013,11.0012L 11.0013,12.9975L 13.9987,12.9975L 13.9987,16.0012L 16.0012,16.0012L 16.0012,12.9975L 18.9988,12.9975L 18.9988,11.0012L 16.0012,11.0012M 2.0025,12.0025C 2.0025,9.20875 3.6375,6.80125 6.01125,5.67875L 6.01125,3.52C 2.52,4.76125 0,8.09125 0,12.0025C 0,15.9088 2.52,19.2388 6.01125,20.4787L 6.01125,18.32C 3.6375,17.2025 2.0025,14.79 2.0025,12.0025 Z M 15,2.9978C 10.0387,2.9978 6.00125,7.04125 6.00125,12.0025C 6.00125,16.9575 10.0387,21.0012 15,21.0012C 19.9613,21.0012 23.9987,16.9575 23.9987,12.0025C 23.9987,7.04125 19.9613,2.9978 15,2.9978 Z M 15,18.9988C 11.1375,18.9988 7.9975,15.8587 7.9975,12.0025C 7.9975,8.14 11.1375,5 15,5C 18.8625,5 22.0025,8.14 22.0025,12.0025C 22.0025,15.8587 18.8625,18.9988 15,18.9988 Z "/>
</svg>
