<?xml version="1.0" encoding="utf-8"?>
<!DOCTYPE svg PUBLIC "-//W3C//DTD SVG 1.1//EN" "http://www.w3.org/Graphics/SVG/1.1/DTD/svg11.dtd">
<svg xmlns="http://www.w3.org/2000/svg" xmlns:xlink="http://www.w3.org/1999/xlink" version="1.1" baseProfile="full" width="24" height="24" viewBox="0 0 24.00 24.00" enable-background="new 0 0 24.00 24.00" xml:space="preserve">
	<path fill="#000000" fill-opacity="1" stroke-linejoin="round" d="M 22,12C 22,17.5228 17.5228,22 12,22C 6.47715,22 2,17.5228 2,12L 2,4.5C 2,3.11929 3.11929,2.00001 4.5,2.00001L 19.5,2.00001C 20.8807,2.00001 22,3.11929 22,4.5L 22,12 Z M 15.8841,8.24534L 12.0044,12.125L 8.11846,8.23908C 7.53268,7.6533 6.58294,7.6533 5.99715,8.23908C 5.41137,8.82486 5.41137,9.7746 5.99715,10.3604L 10.9344,15.3164C 11.5202,15.9022 12.4699,15.9022 13.0557,15.3164L 18.0054,10.3666C 18.5912,9.78086 18.5912,8.83112 18.0054,8.24534C 17.4196,7.65956 16.4699,7.65956 15.8841,8.24534 Z "/>
</svg>
