<?xml version="1.0" encoding="utf-8"?>
<!DOCTYPE svg PUBLIC "-//W3C//DTD SVG 1.1//EN" "http://www.w3.org/Graphics/SVG/1.1/DTD/svg11.dtd">
<svg xmlns="http://www.w3.org/2000/svg" xmlns:xlink="http://www.w3.org/1999/xlink" version="1.1" baseProfile="full" width="24" height="24" viewBox="0 0 24.00 24.00" enable-background="new 0 0 24.00 24.00" xml:space="preserve">
	<path fill="#000000" fill-opacity="1" stroke-width="1.33333" stroke-linejoin="miter" d="M 21.9011,4.26439C 21.6415,3.55028 20.9561,3.06997 20.1964,3.06997L 20.1862,3.06997L 18.4649,3.06997L 3.8138,3.06997C 3.06657,3.06997 2.38528,3.54005 2.11906,4.23955C 2.03995,4.44756 2,4.66384 2,4.88352L 2,10.9181L 2.06893,12.1183C 2.3585,14.8482 3.77554,17.2332 5.96765,18.8967C 6.00711,18.9269 6.04706,18.9562 6.08697,18.9854L 6.11206,19.0029C 7.28753,19.8622 8.60301,20.4438 10.0223,20.7303C 10.6775,20.8628 11.3472,20.93 12.0129,20.93C 12.6274,20.93 13.2453,20.8735 13.8523,20.7605C 13.9254,20.7464 13.9977,20.7328 14.071,20.7166C 14.0912,20.7127 14.1129,20.7045 14.1351,20.6937C 15.4939,20.3966 16.7566,19.8301 17.8879,19.0029L 17.913,18.9854C 17.9527,18.9562 17.9929,18.9269 18.0323,18.8967C 20.2244,17.2332 21.6415,14.8482 21.9308,12.1183L 22,10.9181L 22,4.88352C 22,4.67502 21.9747,4.46801 21.9011,4.26439 Z M 17.6665,10.5508L 12.9625,15.0626C 12.6968,15.3168 12.3549,15.4445 12.0131,15.4445C 11.6712,15.4445 11.3292,15.3168 11.064,15.0626L 6.35927,10.5508C 5.81272,10.0266 5.79471,9.15855 6.31887,8.612C 6.84303,8.06494 7.71107,8.04743 8.25763,8.57159L 12.0131,12.1729L 15.7679,8.57159C 16.3145,8.04743 17.1826,8.06544 17.7067,8.6115C 18.2309,9.15855 18.2128,10.0261 17.6665,10.5508 Z "/>
</svg>
