<?xml version="1.0" encoding="utf-8"?>
<!DOCTYPE svg PUBLIC "-//W3C//DTD SVG 1.1//EN" "http://www.w3.org/Graphics/SVG/1.1/DTD/svg11.dtd">
<svg xmlns="http://www.w3.org/2000/svg" xmlns:xlink="http://www.w3.org/1999/xlink" version="1.1" baseProfile="full" width="24" height="24" viewBox="0 0 24.00 24.00" enable-background="new 0 0 24.00 24.00" xml:space="preserve">
	<path fill="#000000" fill-opacity="1" stroke-width="1.33333" stroke-linejoin="miter" d="M 17,18.25L 17,21.5L 7,21.5L 7,18.25C 7,16.8693 9.23857,15.75 12,15.75C 14.7614,15.75 17,16.8693 17,18.25 Z M 12,5.5C 15.5899,5.5 18.5,8.41015 18.5,12C 18.5,13.2496 18.1474,14.4168 17.5362,15.4076L 16.0135,14.0372C 16.3246,13.4255 16.5,12.7332 16.5,12C 16.5,9.51473 14.4853,7.50001 12,7.50001C 9.51471,7.50001 7.49999,9.51473 7.49999,12C 7.49999,12.7333 7.67537,13.4255 7.98645,14.0372L 6.46376,15.4076C 5.85261,14.4168 5.5,13.2496 5.5,12C 5.5,8.41015 8.41014,5.5 12,5.5 Z M 12,1.50002C 17.799,1.50002 22.5,6.20102 22.5,12C 22.5,14.2795 21.7736,16.3894 20.5397,18.1107L 19.0416,16.7624C 19.9622,15.4039 20.5,13.7647 20.5,12C 20.5,7.30559 16.6944,3.50001 12,3.50001C 7.30557,3.50001 3.5,7.30559 3.5,12C 3.5,13.7647 4.03779,15.4039 4.95842,16.7624L 3.46032,18.1107C 2.22639,16.3894 1.5,14.2795 1.5,12C 1.5,6.20102 6.20101,1.50002 12,1.50002 Z M 12,9.5C 13.3807,9.5 14.5,10.6193 14.5,12C 14.5,13.3807 13.3807,14.5 12,14.5C 10.6193,14.5 9.5,13.3807 9.5,12C 9.5,10.6193 10.6193,9.5 12,9.5 Z "/>
</svg>
