<?xml version="1.0" encoding="utf-8"?>
<!DOCTYPE svg PUBLIC "-//W3C//DTD SVG 1.1//EN" "http://www.w3.org/Graphics/SVG/1.1/DTD/svg11.dtd">
<svg xmlns="http://www.w3.org/2000/svg" xmlns:xlink="http://www.w3.org/1999/xlink" version="1.1" baseProfile="full" width="24" height="24" viewBox="0 0 24.00 24.00" enable-background="new 0 0 24.00 24.00" xml:space="preserve">
	<path fill="#000000" fill-opacity="1" stroke-width="1.33333" stroke-linejoin="miter" d="M 12,7.09L 14.45,8.58L 13.8,5.77L 16,3.89L 13.11,3.64L 12,1L 10.87,3.64L 8,3.89L 10.18,5.77L 9.5,8.58L 12,7.09 Z M 15,23L 9,23L 9,10L 15,10L 15,23 Z M 1,17L 1,23L 7,23L 7,17L 1,17 Z M 5,21L 3,21L 3,19L 5,19L 5,21 Z M 17,13L 17,23L 23,23L 23,13L 17,13 Z M 21,21L 19,21L 19,15L 21,15L 21,21 Z "/>
</svg>
