<?xml version="1.0" encoding="utf-8"?>
<!DOCTYPE svg PUBLIC "-//W3C//DTD SVG 1.1//EN" "http://www.w3.org/Graphics/SVG/1.1/DTD/svg11.dtd">
<svg xmlns="http://www.w3.org/2000/svg" xmlns:xlink="http://www.w3.org/1999/xlink" version="1.1" baseProfile="full" width="24" height="24" viewBox="0 0 24.00 24.00" enable-background="new 0 0 24.00 24.00" xml:space="preserve">
	<path fill="#000000" fill-opacity="1" stroke-width="1.33333" stroke-linejoin="miter" d="M 4,13.09L 6.45,14.58L 5.8,11.77L 8,9.89001L 5.11,9.64001L 4,7.00001L 2.87,9.64001L 1.27157e-006,9.89001L 2.18,11.77L 1.5,14.58L 4,13.09 Z M 7,23L 1,23L 1,17L 7,17L 7,23 Z M 9,10L 9,23L 15,23L 15,10L 9,10 Z M 13,21L 11,21L 11,12L 13,12L 13,21 Z M 17,13L 17,23L 23,23L 23,13L 17,13 Z M 21,21L 19,21L 19,15L 21,15L 21,21 Z "/>
</svg>
