<?xml version="1.0" encoding="utf-8"?>
<!DOCTYPE svg PUBLIC "-//W3C//DTD SVG 1.1//EN" "http://www.w3.org/Graphics/SVG/1.1/DTD/svg11.dtd">
<svg xmlns="http://www.w3.org/2000/svg" xmlns:xlink="http://www.w3.org/1999/xlink" version="1.1" baseProfile="full" width="24" height="24" viewBox="0 0 24.00 24.00" enable-background="new 0 0 24.00 24.00" xml:space="preserve">
	<path fill="#000000" fill-opacity="1" stroke-width="1.33333" stroke-linejoin="miter" d="M 20,5C 19.4,5 19,5.5 19,6.1L 19,16C 19,16.6 19.4,17 20,17.1C 20.6,17.1 21,16.6 21,16L 21,6.1C 21,5.5 20.6,5 20,5 Z M 16.4,2L 4.6,2C 3.7,2 3,2.7 3,3.6L 3,17.4C 3,18.3 3.7,19 4.6,19L 6,19L 6,21C 6,21.6 6.4,22 7,22L 13,22C 13.6,22 14,21.6 14,21L 14,19L 16.4,19C 17.3,19 18,18.3 18,17.4L 18,3.6C 18,2.7 17.3,2 16.4,2 Z M 5,8L 8,8L 8,10L 5,10L 5,8 Z M 12,11L 12,13L 9,13L 9,11L 12,11 Z M 9,10L 9,8L 12,8L 12,10L 9,10 Z M 12,14L 12,16L 9,16L 9,14L 12,14 Z M 5,11L 8,11L 8,13L 5,13L 5,11 Z M 5,16L 5,14L 8,14L 8,16L 5,16 Z M 8,21L 7,21L 7,19L 8,19L 8,21 Z M 13,21L 10,21L 10,19L 13,19L 13,21 Z M 16,16L 13,16L 13,14L 16,14L 16,16 Z M 16,13L 13,13L 13,11L 16,11L 16,13 Z M 16,10L 13,10L 13,8L 16,8L 16,10 Z M 16,6L 5,6L 5,4L 16,4L 16,6 Z "/>
</svg>
