<?xml version="1.0" encoding="utf-8"?>
<!DOCTYPE svg PUBLIC "-//W3C//DTD SVG 1.1//EN" "http://www.w3.org/Graphics/SVG/1.1/DTD/svg11.dtd">
<svg xmlns="http://www.w3.org/2000/svg" xmlns:xlink="http://www.w3.org/1999/xlink" version="1.1" baseProfile="full" width="24" height="24" viewBox="0 0 24.00 24.00" enable-background="new 0 0 24.00 24.00" xml:space="preserve">
	<path fill="#000000" fill-opacity="1" stroke-width="1.33333" stroke-linejoin="miter" d="M 12,2C 15.866,2 19,5.13401 19,9C 19,10.4011 18.5883,11.7061 17.8794,12.8006L 12,22.2096L 6.12075,12.8008C 5.41171,11.7063 5,10.4012 5,9C 5,5.13401 8.13401,2 12,2 Z M 12,3.50001C 9.30393,3.50001 7.06095,5.43989 6.59069,8L 9.17071,8C 9.58254,6.83481 10.6938,6 12,6C 13.3062,6 14.4175,6.83481 14.8293,8L 17.4093,8C 16.939,5.43989 14.6961,3.50001 12,3.50001 Z M 12,12C 10.6938,12 9.58254,11.1652 9.1707,10L 6.59068,10C 6.71786,10.6924 6.97471,11.3394 7.33511,11.9149L 7.33573,11.9146L 7.38065,11.9864C 8.36063,13.4991 10.0634,14.5 12,14.5C 13.9367,14.5 15.6396,13.499 16.6196,11.9861L 16.6643,11.9146L 16.6649,11.9149C 17.0253,11.3394 17.2821,10.6924 17.4093,10L 14.8293,10C 14.4175,11.1652 13.3062,12 12,12 Z M 12,7.50001C 11.1716,7.50001 10.5,8.17158 10.5,9.00001C 10.5,9.82843 11.1716,10.5 12,10.5C 12.8284,10.5 13.5,9.82843 13.5,9.00001C 13.5,8.17158 12.8284,7.50001 12,7.50001 Z "/>
</svg>
