<?xml version="1.0" encoding="utf-8"?>
<!DOCTYPE svg PUBLIC "-//W3C//DTD SVG 1.1//EN" "http://www.w3.org/Graphics/SVG/1.1/DTD/svg11.dtd">
<svg xmlns="http://www.w3.org/2000/svg" xmlns:xlink="http://www.w3.org/1999/xlink" version="1.1" baseProfile="full" width="24" height="24" viewBox="0 0 24.00 24.00" enable-background="new 0 0 24.00 24.00" xml:space="preserve">
	<path fill="#000000" fill-opacity="1" stroke-width="0.2" stroke-linejoin="miter" d="M 23,12C 23,18.0751 18.0751,23 12,23C 5.92487,23 1,18.0751 1,12C 1,5.9249 5.92487,1 12,1C 18.0751,1 23,5.9249 23,12 Z M 13,4.06001C 15.134,4.32941 17.0695,5.44681 18.37,7.16017L 20.11,6.16017C 18.4477,3.81621 15.8576,2.30082 13,2.00002L 13,4.06001 Z M 3.89,6.16017L 5.62999,7.16017C 6.93048,5.44681 8.86605,4.32941 11,4.06001L 11,2.00002C 8.1424,2.30082 5.55227,3.81621 3.89,6.16017 Z M 2.89,16.1L 4.62,15.1C 3.79333,13.116 3.79333,10.884 4.62,8.90001L 2.89,7.90001C 1.70349,10.5046 1.70349,13.4954 2.89,16.1 Z M 11,19.94C 8.86605,19.6706 6.93048,18.5532 5.63,16.84L 3.89,17.84C 5.55227,20.1837 8.1424,21.6992 11,22L 11,19.94 Z M 20.11,17.84L 18.37,16.84C 17.0695,18.5532 15.134,19.6706 13,19.94L 13,21.94C 15.8475,21.6537 18.4359,20.1611 20.11,17.84 Z M 21.11,16.1C 22.2965,13.4954 22.2965,10.5046 21.11,7.9L 19.38,8.9C 20.2067,10.884 20.2067,13.116 19.38,15.1L 21.11,16.1 Z M 15,12L 12,7L 9,12L 12,17L 15,12 Z "/>
</svg>
