<?xml version="1.0" encoding="utf-8"?>
<!DOCTYPE svg PUBLIC "-//W3C//DTD SVG 1.1//EN" "http://www.w3.org/Graphics/SVG/1.1/DTD/svg11.dtd">
<svg xmlns="http://www.w3.org/2000/svg" xmlns:xlink="http://www.w3.org/1999/xlink" version="1.1" baseProfile="full" width="24" height="24" viewBox="0 0 24.00 24.00" enable-background="new 0 0 24.00 24.00" xml:space="preserve">
	<path fill="#000000" fill-opacity="1" stroke-width="0.2" stroke-linejoin="round" d="M 9,11L 15,11C 15.5523,11 16,11.4477 16,12L 16,13C 16,13.5523 15.5523,14 15,14L 9,14C 8.44771,14 8,13.5523 8,13L 8,12C 8,11.4477 8.44771,11 9,11 Z M 7,22L 4.75002,22C 4.75002,22 4.00002,22 3.81359,20.6484L 2.04278,3.81001L 2.00002,3.50003C 2.00002,2.67161 2.89545,2.00004 4.00002,2.00004C 5.10246,2.00004 5.99655,2.66902 6,3.49524C 6.00344,2.66902 6.89755,2.00003 7.99999,2.00003C 9.10455,2.00003 9.99999,2.6716 9.99999,3.50002C 9.99999,2.6716 10.8954,2.00003 12,2.00003C 13.0913,2.00003 13.9785,2.65557 13.999,3.50841L 14,3.50002C 14,2.6716 14.8954,2.00003 16,2.00003C 17.1024,2.00003 17.9965,2.66902 18,3.49524C 18.0034,2.66902 18.8975,2.00004 20,2.00004C 21.1045,2.00004 22,2.67161 22,3.50004L 21.9572,3.81001L 20.1864,20.6484C 20,22 19.25,22 19.25,22L 17,22L 16.5,22L 13.75,22L 10.25,22L 7.50001,22L 7,22 Z M 17.8518,4.93235C 17.5534,4.38538 16.8367,4.00003 16,4.00003C 15.1931,4.00003 14.3643,4.35844 13.9763,4.87458L 13.9222,9.00001L 10.0778,9.00001L 10.0237,4.87461C 9.63568,4.35845 8.80693,4.00003 7.99999,4.00003C 7.16328,4.00003 6.44658,4.38538 6.14817,4.93235L 6.52204,9.65254C 6.19775,10.008 6,10.4809 6,11L 6,14C 6,14.7418 6.40389,15.3893 7.00376,15.7346L 7.3416,20L 10.2219,20L 10.1695,16L 13.8305,16L 13.7781,20L 16.6584,20L 16.9962,15.7346C 17.5961,15.3893 18,14.7418 18,14L 18,11C 18,10.4809 17.8022,10.008 17.478,9.65253L 17.8518,4.93235 Z "/>
</svg>
