<?xml version="1.0" encoding="utf-8"?>
<!DOCTYPE svg PUBLIC "-//W3C//DTD SVG 1.1//EN" "http://www.w3.org/Graphics/SVG/1.1/DTD/svg11.dtd">
<svg xmlns="http://www.w3.org/2000/svg" xmlns:xlink="http://www.w3.org/1999/xlink" version="1.1" baseProfile="full" width="24" height="24" viewBox="0 0 24.00 24.00" enable-background="new 0 0 24.00 24.00" xml:space="preserve">
	<path fill="#000000" fill-opacity="1" stroke-width="1.33333" stroke-linejoin="miter" d="M 2,2.00001L 2,5.50001C 3.10457,5.50001 4,6.61931 4,8.00001C 4,9.38071 3.10457,10.5 2,10.5L 2,13.5C 3.10457,13.5 4,14.6193 4,16C 4,17.3807 3.10457,18.5 2,18.5L 2,22L 5.5,22C 5.5,20.8954 6.61929,20 8,20C 9.38071,20 10.5,20.8954 10.5,22L 13.5,22C 13.5,20.8954 14.6193,20 16,20C 17.3807,20 18.5,20.8954 18.5,22L 22,22L 22,18.5C 20.8954,18.5 20,17.3807 20,16L 20,16C 20,14.6193 20.8954,13.5 22,13.5L 22,10.5C 20.8954,10.5 20,9.38071 20,8.00001L 20,8.00001C 20,6.61931 20.8954,5.50001 22,5.50001L 22,2.00001L 18.5,2.00001C 18.5,3.10461 17.3807,4.00001 16,4.00001C 14.6193,4.00001 13.5,3.10461 13.5,2.00001L 10.5,2.00001C 10.5,3.10461 9.38071,4.00001 8,4.00001C 6.61929,4.00001 5.5,3.10461 5.5,2.00001L 2,2.00001 Z M 6,6.00001L 18,6.00001L 18,18L 6,18L 6,6.00001 Z M 9,7.00001C 7.89543,7.00001 7,7.8954 7,9.00001C 7,10.1046 7.89543,11 9,11C 10.1046,11 11,10.1046 11,9.00001C 11,7.8954 10.1046,7.00001 9,7.00001 Z M 17,10L 14,13L 12,12L 7,17L 17,17L 17,10 Z "/>
</svg>
