<?xml version="1.0" encoding="utf-8"?>
<!DOCTYPE svg PUBLIC "-//W3C//DTD SVG 1.1//EN" "http://www.w3.org/Graphics/SVG/1.1/DTD/svg11.dtd">
<svg xmlns="http://www.w3.org/2000/svg" xmlns:xlink="http://www.w3.org/1999/xlink" version="1.1" baseProfile="full" width="24" height="24" viewBox="0 0 24.00 24.00" enable-background="new 0 0 24.00 24.00" xml:space="preserve">
	<path fill="#000000" fill-opacity="1" stroke-width="0.2" stroke-linejoin="round" d="M 19,19C 19,20.1046 18.1046,21 17,21L 7,21C 5.89543,21 5,20.1046 5,19L 5,13L 3,13L 3,10L 21,10L 21,13L 19,13L 19,19 Z M 6,6.00001L 8,6.00001L 8,8.00001L 6,8.00001L 6,6.00001 Z M 11,6.00001L 13,6.00001L 13,8.00001L 11,8.00001L 11,6.00001 Z M 16,6.00001L 18,6.00001L 18,8L 16,8L 16,6.00001 Z M 18,3L 20,3L 20,5L 18,5L 18,3 Z M 13,3L 15,3L 15,5L 13,5L 13,3 Z M 8,3L 10,3L 10,5L 8,5L 8,3 Z "/>
</svg>
