<?xml version="1.0" encoding="utf-8"?>
<!DOCTYPE svg PUBLIC "-//W3C//DTD SVG 1.1//EN" "http://www.w3.org/Graphics/SVG/1.1/DTD/svg11.dtd">
<svg xmlns="http://www.w3.org/2000/svg" xmlns:xlink="http://www.w3.org/1999/xlink" version="1.1" baseProfile="full" width="24" height="24" viewBox="0 0 24.00 24.00" enable-background="new 0 0 24.00 24.00" xml:space="preserve">
	<path fill="#050708" fill-opacity="1" stroke-width="0.2" stroke-linejoin="round" d="M 3,5C 3,3.896 3.894,3 5,3L 19,3C 20.1035,3 21,3.896 21,5L 21,19C 21,20.104 20.1035,21 19,21L 5,21C 3.894,21 3,20.104 3,19L 3,5 Z M 7,18L 9,18L 9.35265,16L 13.3526,16L 13,18L 15,18L 15.3526,16L 17.3526,16L 17.7053,14L 15.7053,14L 16.4106,10L 18.4106,10L 18.7633,8.00002L 16.7632,8.00002L 17.1159,6.00001L 15.1159,6.00001L 14.7632,8.00002L 10.7633,8.00002L 11.1159,6.00001L 9.11592,6.00001L 8.76326,8.00002L 6.76327,8.00001L 6.41061,10L 8.41061,10L 7.7053,14L 5.70531,14L 5.35265,16L 7.35265,16L 7,18 Z M 10.4106,10L 14.4106,10L 13.7053,14L 9.7053,14L 10.4106,10 Z "/>
</svg>
