<?xml version="1.0" encoding="utf-8"?>
<!DOCTYPE svg PUBLIC "-//W3C//DTD SVG 1.1//EN" "http://www.w3.org/Graphics/SVG/1.1/DTD/svg11.dtd">
<svg xmlns="http://www.w3.org/2000/svg" xmlns:xlink="http://www.w3.org/1999/xlink" version="1.1" baseProfile="full" width="24" height="24" viewBox="0 0 24.00 24.00" enable-background="new 0 0 24.00 24.00" xml:space="preserve">
	<path fill="#000000" fill-opacity="1" stroke-width="1.33333" stroke-linejoin="miter" d="M 4.2207,2C 2.99463,2 2,2.9946 2,4.2207L 2,19.7793C 2,20.9993 3.0007,22 4.2207,22L 19.7793,22C 21.0054,22 22,21.0054 22,19.7793L 22,4.2207C 22,3.0007 20.9993,2 19.7793,2L 4.2207,2 Z M 12,4C 16.4183,4 20,7.5817 20,12C 20,16.4183 16.4183,20 12,20C 7.58172,20 4,16.4183 4,12C 4,7.5817 7.58172,4 12,4 Z M 8.26758,7.5352L 6.26758,11L 8,12L 10,8.5352L 8.26758,7.5352 Z M 15.7324,7.5352L 14,8.5352L 16,12L 17.7324,11L 15.7324,7.5352 Z M 11,14L 11,18L 13,18L 13,14L 11,14 Z "/>
</svg>
