<?xml version="1.0" encoding="utf-8"?>
<!DOCTYPE svg PUBLIC "-//W3C//DTD SVG 1.1//EN" "http://www.w3.org/Graphics/SVG/1.1/DTD/svg11.dtd">
<svg xmlns="http://www.w3.org/2000/svg" xmlns:xlink="http://www.w3.org/1999/xlink" version="1.1" baseProfile="full" width="24" height="24" viewBox="0 0 24.00 24.00" enable-background="new 0 0 24.00 24.00" xml:space="preserve">
	<path fill="#000000" fill-opacity="1" stroke-width="1.33333" stroke-linejoin="miter" d="M 14.5,13.75L 18,13.75L 18,16L 14.5,16L 14.5,13.75 Z M 6,13.75L 9.5,13.75L 9.5,16L 6,16L 6,13.75 Z M 11,6L 13,6L 13,10L 11,10L 11,6 Z M 4.22266,2C 2.98932,2 2,2.9893 2,4.2227L 2,19.7773C 2,21.0046 2.99536,22 4.22266,22L 19.7773,22C 21.0046,22 22,21.0046 22,19.7773L 22,4.2227C 22,2.9893 20.9996,2 19.7773,2L 4.22266,2 Z M 12,4C 16.4183,4 20,7.5817 20,12C 20,16.4183 16.4183,20 12,20C 7.58172,20 4,16.4183 4,12C 4,7.5817 7.58172,4 12,4 Z "/>
</svg>
