<?xml version="1.0" encoding="utf-8"?>
<!DOCTYPE svg PUBLIC "-//W3C//DTD SVG 1.1//EN" "http://www.w3.org/Graphics/SVG/1.1/DTD/svg11.dtd">
<svg xmlns="http://www.w3.org/2000/svg" xmlns:xlink="http://www.w3.org/1999/xlink" version="1.1" baseProfile="full" width="24" height="24" viewBox="0 0 24.00 24.00" enable-background="new 0 0 24.00 24.00" xml:space="preserve">
	<path fill="#000000" fill-opacity="1" stroke-linejoin="round" d="M 16.56,5.44L 15.11,6.89C 16.84,7.94 18,9.83 18,12C 18,15.31 15.31,18 12,18C 8.69,18 6,15.31 6,12C 6,9.83 7.16,7.94 8.88,6.88L 7.44,5.44C 5.36,6.88 4,9.28 4,12C 4,16.42 7.58,20 12,20C 16.42,20 20,16.42 20,12C 20,9.28 18.64,6.88 16.56,5.44 Z M 13,3.00001L 11,3.00001L 11,13L 13,13"/>
</svg>
