<?xml version="1.0" encoding="utf-8"?>
<!DOCTYPE svg PUBLIC "-//W3C//DTD SVG 1.1//EN" "http://www.w3.org/Graphics/SVG/1.1/DTD/svg11.dtd">
<svg xmlns="http://www.w3.org/2000/svg" xmlns:xlink="http://www.w3.org/1999/xlink" version="1.1" baseProfile="full" width="24" height="24" viewBox="0 0 24.00 24.00" enable-background="new 0 0 24.00 24.00" xml:space="preserve">
	<path fill="#000000" fill-opacity="0.866667" stroke-linejoin="round" d="M 21.8329,4.00008C 22.3238,4.00008 22.6328,4.39805 22.5231,4.88897L 19.3436,19.1112C 19.2338,19.6021 18.7469,20.0001 18.256,20.0001L 2.16709,20.0001C 1.67617,20.0001 1.36717,19.6021 1.47692,19.1112L 4.65641,4.88897C 4.76615,4.39805 5.25309,4.00008 5.74401,4.00008L 21.8329,4.00008 Z M 15.8329,16.0001L 11.8329,16.0001C 11.3665,16.0001 10.9885,16.3781 10.9885,16.8445C 10.9885,17.3109 11.3665,17.689 11.8329,17.689L 15.8329,17.689C 16.2993,17.689 16.6773,17.3109 16.6773,16.8445C 16.6773,16.3781 16.2993,16.0001 15.8329,16.0001 Z M 5.78417,16.2768C 5.38278,16.5595 5.28654,17.114 5.56919,17.5154C 5.85185,17.9168 6.40638,18.013 6.80776,17.7304C 14.1643,12.5554 14.2146,12.5177 14.2614,12.474C 14.4383,12.3091 14.5328,12.089 14.5432,11.8652C 14.5528,11.6739 14.5009,11.478 14.3821,11.3093L 9.46377,6.02579C 9.12896,5.66675 8.56649,5.64711 8.20746,5.98192C 7.84842,6.31672 7.82878,6.87919 8.16358,7.23823L 12.3081,11.6826L 5.78417,16.2768 Z "/>
</svg>
