<?xml version="1.0" encoding="utf-8"?>
<!DOCTYPE svg PUBLIC "-//W3C//DTD SVG 1.1//EN" "http://www.w3.org/Graphics/SVG/1.1/DTD/svg11.dtd">
<svg xmlns="http://www.w3.org/2000/svg" xmlns:xlink="http://www.w3.org/1999/xlink" version="1.1" baseProfile="full" width="24" height="24" viewBox="0 0 24.00 24.00" enable-background="new 0 0 24.00 24.00" xml:space="preserve">
	<path fill="#000000" fill-opacity="1" stroke-width="1.33333" stroke-linejoin="miter" d="M 7.49327,10.5C 8.3217,10.5 8.99327,11.1716 8.99327,12C 8.99327,12.8284 8.3217,13.5 7.49327,13.5C 6.66484,13.5 5.99327,12.8284 5.99327,12C 5.99327,11.1716 6.66484,10.5 7.49327,10.5 Z M 16.5,10.5C 17.3284,10.5 18,11.1716 18,12C 18,12.8284 17.3284,13.5 16.5,13.5C 15.6716,13.5 15,12.8284 15,12C 15,11.1716 15.6716,10.5 16.5,10.5 Z M 4.22266,2L 19.7773,2C 20.9996,2 22,2.9893 22,4.2227L 22,19.7773C 22,21.0046 21.0046,22 19.7773,22L 4.22266,22C 2.99536,22 2,21.0046 2,19.7773L 2,4.2227C 2,2.9893 2.98932,2 4.22266,2 Z M 12,4C 7.58172,4 4,7.5817 4,12C 4,16.4183 7.58172,20 12,20C 16.4183,20 20,16.4183 20,12C 20,7.5817 16.4183,4 12,4 Z "/>
</svg>
