<?xml version="1.0" encoding="utf-8"?>
<!DOCTYPE svg PUBLIC "-//W3C//DTD SVG 1.1//EN" "http://www.w3.org/Graphics/SVG/1.1/DTD/svg11.dtd">
<svg xmlns="http://www.w3.org/2000/svg" xmlns:xlink="http://www.w3.org/1999/xlink" version="1.1" baseProfile="full" width="24" height="24" viewBox="0 0 24.00 24.00" enable-background="new 0 0 24.00 24.00" xml:space="preserve">
	<path fill="#000000" fill-opacity="1" stroke-width="1.33333" stroke-linejoin="miter" d="M 8,7L 10,7L 10,12L 8,12L 8,7 Z M 4.22266,2.00001L 19.7773,2.00001C 20.9996,2.00001 22,2.98931 22,4.2227L 22,19.7773C 22,21.0046 21.0046,22 19.7773,22L 4.22266,22C 2.99536,22 2,21.0046 2,19.7773L 2,4.2227C 2,2.98931 2.98932,2.00001 4.22266,2.00001 Z M 12,4.00001C 7.58172,4.00001 4,7.58171 4,12C 4,16.4183 7.58172,20 12,20C 16.4183,20 20,16.4183 20,12C 20,7.58171 16.4183,4.00001 12,4.00001 Z M 14,7.50001L 16,7.50001L 16,11.5L 14,11.5L 14,7.50001 Z M 10.5,16.25C 10.5,15.4216 11.1716,14.75 12,14.75C 12.8284,14.75 13.5,15.4216 13.5,16.25L 13.5,17L 10.5,17L 10.5,16.25 Z "/>
</svg>
