<?xml version="1.0" encoding="utf-8"?>
<!DOCTYPE svg PUBLIC "-//W3C//DTD SVG 1.1//EN" "http://www.w3.org/Graphics/SVG/1.1/DTD/svg11.dtd">
<svg xmlns="http://www.w3.org/2000/svg" xmlns:xlink="http://www.w3.org/1999/xlink" version="1.1" baseProfile="full" width="24" height="24" viewBox="0 0 24.00 24.00" enable-background="new 0 0 24.00 24.00" xml:space="preserve">
	<path fill="#000000" fill-opacity="1" stroke-width="1.33333" stroke-linejoin="miter" d="M 4,4L 4,10.0003L 4,13.9999L 5.99949,13.9999L 5.99949,10.0003L 7.99958,10.0003L 13.414,15.4146L 9.82758,18.9998L 11.2417,20.4146L 14.8275,16.8282L 18.414,20.4146L 19.8238,18.9962L 16.2424,15.4146L 19.8238,11.8319L 18.414,10.4141L 14.8275,13.9999L 10.8279,10.0003L 10.9994,10.0003C 12.6565,10.0003 13.9999,8.65695 13.9999,6.99985C 13.9999,5.34336 12.6565,4 10.9994,4L 4,4 Z M 5.99949,6.0001L 10.9994,6.0001C 11.5518,6.0001 11.9998,6.4481 11.9998,6.99985C 11.9998,7.55221 11.5518,8.00021 10.9994,8.00021L 5.99949,8.00021L 5.99949,6.0001 Z "/>
</svg>
