<?xml version="1.0" encoding="utf-8"?>
<!DOCTYPE svg PUBLIC "-//W3C//DTD SVG 1.1//EN" "http://www.w3.org/Graphics/SVG/1.1/DTD/svg11.dtd">
<svg xmlns="http://www.w3.org/2000/svg" xmlns:xlink="http://www.w3.org/1999/xlink" version="1.1" baseProfile="full" width="24" height="24" viewBox="0 0 24.00 24.00" enable-background="new 0 0 24.00 24.00" xml:space="preserve">
	<path fill="#000000" fill-opacity="1" stroke-linejoin="round" d="M 2,3L 10,3C 10,1.89543 10.8954,1 12,1C 13.1046,1 14,1.89543 14,3L 22,3L 22,5L 21,5L 21,16L 15.25,16L 17,22L 15,22L 13.25,16L 10.75,16L 9,22L 7,22L 8.75,16L 3,16L 3,5L 2,5L 2,3 Z M 5,5.00001L 5,14L 19,14L 19,5.00001L 5,5.00001 Z "/>
</svg>
