<?xml version="1.0" encoding="utf-8"?>
<!DOCTYPE svg PUBLIC "-//W3C//DTD SVG 1.1//EN" "http://www.w3.org/Graphics/SVG/1.1/DTD/svg11.dtd">
<svg xmlns="http://www.w3.org/2000/svg" xmlns:xlink="http://www.w3.org/1999/xlink" version="1.1" baseProfile="full" width="24" height="24" viewBox="0 0 24.00 24.00" enable-background="new 0 0 24.00 24.00" xml:space="preserve">
	<path fill="#000000" fill-opacity="1" stroke-width="1.33333" stroke-linejoin="miter" d="M 7.25021,11.9912C 7.27519,10.0916 8.59341,7.28095 12.0308,7.28095C 14.6274,7.28095 16.7523,9.3889 16.7523,11.9912C 16.7523,14.5936 14.6268,16.7642 12.0308,16.7642C 9.43483,16.7642 7.21599,14.5933 7.25021,11.9912 Z M 12.0308,7.79169C 9.71676,7.79169 7.84206,9.6716 7.84206,11.9913C 7.84206,14.3109 9.71676,16.1521 12.0308,16.1521C 14.3448,16.1521 16.1604,14.3109 16.1604,11.9913C 16.1604,9.6716 14.3448,7.79169 12.0308,7.79169 Z M 6.08604,11.9911C 6.08604,8.48232 8.92367,6.08349 12.0305,6.08349C 15.1374,6.08349 17.896,8.69898 17.896,11.9911C 17.896,15.2832 15.161,17.8703 12.0305,17.8703C 8.90012,17.8703 6.08604,15.3567 6.08604,11.9911 Z M 12.0305,6.61686C 9.10315,6.61686 6.70079,8.91313 6.70079,11.9911C 6.70079,14.9564 8.96997,17.3062 12.0305,17.3062C 14.9579,17.3062 17.3318,15.0793 17.3318,11.9911C 17.3318,8.92337 14.714,6.61686 12.0305,6.61686 Z M 4.93472,11.994C 4.93472,7.79794 8.26124,4.91044 12.0324,4.91044C 15.8036,4.91044 19.0879,8.02258 19.0879,11.994C 19.0879,15.9655 15.8088,19.0458 12.0324,19.0458C 8.25603,19.0458 4.93472,16.0542 4.93472,11.994 Z M 12.0324,5.49564C 8.50095,5.49564 5.48696,8.28091 5.48696,11.994C 5.48696,15.5712 8.44178,18.4812 11.9512,18.4812C 15.4827,18.4812 18.4914,15.7195 18.4914,11.994C 18.4914,8.29327 15.4491,5.49564 12.0324,5.49564 Z M 11.6629,8.57045L 12.4107,8.57045L 12.4107,15.3931L 11.6629,15.3931L 11.6629,8.57045 Z M 10.1018,9.10649C 10.4021,8.86785 10.8497,8.75106 10.8497,8.75106L 10.8497,15.1934C 10.4255,15.0922 10.107,14.8467 10.107,14.8467L 10.1018,9.10649 Z M 13.9808,9.09201L 13.9757,14.8322C 13.9757,14.8322 13.6572,15.0777 13.233,15.1789L 13.233,8.73657C 13.233,8.73657 13.6806,8.85337 13.9808,9.09201 Z M 9.27814,9.88695L 9.27814,14.0376C 9.27814,14.0376 8.58998,13.364 8.58998,11.9732C 8.58998,10.5824 9.27814,9.88695 9.27814,9.88695 Z M 14.7481,9.85797C 14.7481,9.85797 15.4362,10.5534 15.4362,11.9442C 15.4362,13.335 14.7481,14.0087 14.7481,14.0087L 14.7481,9.85797 Z M 15.5344,4.99386L 14.8179,4.65935L 15.6041,2.65642L 16.5229,3.09886L 15.5344,4.99386 Z M 13.9942,4.41032L 13.2237,4.23271L 13.5745,2.1098L 14.5654,2.35078L 13.9942,4.41032 Z M 12.399,4.1627L 11.6085,4.1465L 11.5175,1.99672L 12.5368,2.02985L 12.399,4.1627 Z M 10.7479,4.25291L 9.9715,4.40271L 9.4321,2.31972L 10.4357,2.13853L 10.7479,4.25291 Z M 9.15615,4.68558L 8.42821,4.99436L 7.46533,3.07008L 8.40888,2.68313L 9.15615,4.68558 Z M 7.69206,5.44005L 7.0446,5.89395L 5.7013,4.21302L 6.54331,3.63766L 7.69206,5.44005 Z M 6.4409,6.46008L 5.90001,7.03685L 4.24122,5.66632L 4.94769,4.93086L 6.4409,6.46008 Z M 5.40339,7.74772L 4.99536,8.42503L 3.08621,7.43249L 3.6229,6.56532L 5.40339,7.74772 Z M 4.67153,9.19052L 4.41105,9.9371L 2.33895,9.35712L 2.68643,8.39833L 4.67153,9.19052 Z M 4.24644,10.7818L 4.14751,11.5663L 2,11.4315L 2.13972,10.4213L 4.24644,10.7818 Z M 4.1611,12.3938L 4.22477,13.1819L 2.09512,13.4894L 2.0252,12.472L 4.1611,12.3938 Z M 4.4175,14.0274L 4.64491,14.7847L 2.62697,15.5316L 2.34541,14.5514L 4.4175,14.0274 Z M 5.00864,15.5673L 5.38931,16.2604L 3.57205,17.4126L 3.09184,16.5129L 5.00864,15.5673 Z M 5.90703,16.9478L 6.42397,17.5461L 4.88721,19.0522L 4.22981,18.2726L 5.90703,16.9478 Z M 7.04814,18.0896L 7.67657,18.5695L 6.48046,20.3582L 5.67745,19.7295L 7.04814,18.0896 Z M 8.43393,18.9918L 9.14897,19.3294L 8.3542,21.329L 7.4373,20.8826L 8.43393,18.9918 Z M 9.986,19.5858L 10.7561,19.7653L 10.4002,21.8874L 9.40983,21.644L 9.986,19.5858 Z M 11.6135,19.8389L 12.4041,19.8537L 12.4989,22.0034L 11.4796,21.9721L 11.6135,19.8389 Z M 13.2254,19.752L 14.0023,19.6047L 14.5349,21.6895L 13.5308,21.8674L 13.2254,19.752 Z M 14.8224,19.323L 15.5512,19.0162L 16.5088,20.9431L 15.5643,21.3275L 14.8224,19.323 Z M 16.2906,18.5712L 16.9391,18.1188L 18.2784,19.803L 17.435,20.3763L 16.2906,18.5712 Z M 17.5675,17.5308L 18.1073,16.9531L 19.7686,18.3206L 19.0635,19.0573L 17.5675,17.5308 Z M 18.5812,16.2745L 18.9914,15.5985L 20.8974,16.5973L 20.3579,17.4627L 18.5812,16.2745 Z M 19.3307,14.8005L 19.5901,14.0536L 21.663,14.6307L 21.3168,15.59L 19.3307,14.8005 Z M 19.7554,13.197L 19.8521,12.4123L 22,12.5409L 21.8631,13.5515L 19.7554,13.197 Z M 19.834,11.5453L 19.7641,10.7577L 21.8912,10.4334L 21.9692,11.4502L 19.834,11.5453 Z M 19.5658,9.91773L 19.3328,9.16211L 21.3452,8.40037L 21.6339,9.37844L 19.5658,9.91773 Z M 18.9644,8.38436L 18.5789,7.69402L 20.388,6.52904L 20.8745,7.42529L 18.9644,8.38436 Z M 18.0772,7.03576L 17.5586,6.4389L 19.0911,4.92842L 19.7507,5.70618L 18.0772,7.03576 Z M 16.9021,5.87242L 16.2699,5.39747L 17.4518,3.59943L 18.2598,4.2217L 16.9021,5.87242 Z "/>
</svg>
