<?xml version="1.0" encoding="utf-8"?>
<!DOCTYPE svg PUBLIC "-//W3C//DTD SVG 1.1//EN" "http://www.w3.org/Graphics/SVG/1.1/DTD/svg11.dtd">
<svg xmlns="http://www.w3.org/2000/svg" xmlns:xlink="http://www.w3.org/1999/xlink" version="1.1" baseProfile="full" width="24" height="24" viewBox="0 0 24.00 24.00" enable-background="new 0 0 24.00 24.00" xml:space="preserve">
	<path fill="#000000" fill-opacity="1" stroke-width="0.2" stroke-linejoin="round" d="M 8,14L 8,19L 16,19L 16,14L 8,14 Z M 6,3L 18,3L 18,7L 6,7L 6,3 Z M 18,17L 18,21L 5.99999,21L 5.99999,17L 2,17L 2,11C 2,9.34316 3.34314,8.00001 5,8.00001L 19,8.00001C 20.6568,8.00001 22,9.34316 22,11L 22,17L 18,17 Z M 19,10C 18.4477,10 18,10.4477 18,11C 18,11.5523 18.4477,12 19,12C 19.5523,12 20,11.5523 20,11C 20,10.4477 19.5523,10 19,10 Z "/>
</svg>
