<?xml version="1.0" encoding="utf-8"?>
<!DOCTYPE svg PUBLIC "-//W3C//DTD SVG 1.1//EN" "http://www.w3.org/Graphics/SVG/1.1/DTD/svg11.dtd">
<svg xmlns="http://www.w3.org/2000/svg" xmlns:xlink="http://www.w3.org/1999/xlink" version="1.1" baseProfile="full" width="24" height="24" viewBox="0 0 24.00 24.00" enable-background="new 0 0 24.00 24.00" xml:space="preserve">
	<path fill="#000000" fill-opacity="1" stroke-width="0.2" stroke-linejoin="round" d="M 17.9994,2.99807L 5.99939,2.99807L 5.99939,6.99807L 17.9994,6.99807M 18.9994,11.9981C 18.4464,11.9981 17.9994,11.5511 17.9994,10.9981C 17.9994,10.4451 18.4464,9.99807 18.9994,9.99807C 19.5524,9.99807 19.9994,10.4451 19.9994,10.9981C 19.9994,11.5511 19.5524,11.9981 18.9994,11.9981 Z M 15.9994,18.9981L 7.99939,18.9981L 7.99939,13.9981L 15.9994,13.9981M 18.9994,7.99807L 4.99939,7.99807C 3.34339,7.99807 1.99939,9.34206 1.99939,10.9981L 1.99939,16.9981L 5.99939,16.9981L 5.99939,20.9981L 17.9994,20.9981L 17.9994,16.9981L 21.9994,16.9981L 21.9994,10.9981C 21.9994,9.34107 20.6564,7.99807 18.9994,7.99807 Z "/>
</svg>
