<?xml version="1.0" encoding="utf-8"?>
<!DOCTYPE svg PUBLIC "-//W3C//DTD SVG 1.1//EN" "http://www.w3.org/Graphics/SVG/1.1/DTD/svg11.dtd">
<svg xmlns="http://www.w3.org/2000/svg" xmlns:xlink="http://www.w3.org/1999/xlink" version="1.1" baseProfile="full" width="24" height="24" viewBox="0 0 24.00 24.00" enable-background="new 0 0 24.00 24.00" xml:space="preserve">
	<path fill="#000000" fill-opacity="1" stroke-linejoin="round" d="M 6.99999,2.00004L 17,2.00004L 17,7.00003L 19,7.00001L 19,13L 16.5,13L 13,17L 11,17L 7.5,13L 5,13L 5,7.00002L 6.99999,7.00003L 6.99999,2.00004 Z M 10,22L 2,22L 2,20L 10,20C 10.5523,20 11,19.5523 11,19L 11,18L 13,18L 13,19C 13,20.6569 11.6568,22 10,22 Z M 7,9.00001L 7,11L 8.5,11L 12,15L 15.5,11L 17,11L 17,9.00001L 15,9.00001L 15,4L 9,4L 9,9.00001L 7,9.00001 Z "/>
</svg>
