<?xml version="1.0" encoding="utf-8"?>
<!DOCTYPE svg PUBLIC "-//W3C//DTD SVG 1.1//EN" "http://www.w3.org/Graphics/SVG/1.1/DTD/svg11.dtd">
<svg xmlns="http://www.w3.org/2000/svg" xmlns:xlink="http://www.w3.org/1999/xlink" version="1.1" baseProfile="full" width="24" height="24" viewBox="0 0 24.00 24.00" enable-background="new 0 0 24.00 24.00" xml:space="preserve">
	<path fill="#000000" fill-opacity="1" stroke-width="0.2" stroke-linejoin="round" d="M 17.9994,1.99807L 17.9994,5.99807L 5.99939,5.99807L 5.99939,1.99807L 17.9994,1.99807 Z M 18.9994,10.9981C 19.5524,10.9981 19.9994,10.5511 19.9994,9.99807C 19.9994,9.44507 19.5524,8.99807 18.9994,8.99807C 18.4464,8.99807 17.9994,9.44507 17.9994,9.99807C 17.9994,10.5511 18.4464,10.9981 18.9994,10.9981 Z M 15.9994,17.9981L 15.9994,12.9981L 7.99939,12.9981L 7.99939,17.9981L 15.9994,17.9981 Z M 18.9994,6.99807C 20.6564,6.99807 21.9994,8.34107 21.9994,9.99807L 21.9994,15.9981L 17.9994,15.9981L 17.9994,19.9981L 5.99939,19.9981L 5.99939,15.9981L 1.99939,15.9981L 1.99939,9.99807C 1.99939,8.34206 3.34339,6.99807 4.99939,6.99807L 18.9994,6.99807 Z M 15.0006,24L 15.0006,22L 17.0006,22L 17.0006,24L 15.0006,24 Z M 11.0006,24L 11.0006,22L 13.0006,22L 13.0006,24L 11.0006,24 Z M 7.0006,24L 7.0006,22L 9.0006,22L 9.0006,24L 7.0006,24 Z "/>
</svg>
