<?xml version="1.0" encoding="utf-8"?>
<!DOCTYPE svg PUBLIC "-//W3C//DTD SVG 1.1//EN" "http://www.w3.org/Graphics/SVG/1.1/DTD/svg11.dtd">
<svg xmlns="http://www.w3.org/2000/svg" xmlns:xlink="http://www.w3.org/1999/xlink" version="1.1" baseProfile="full" width="24" height="24" viewBox="0 0 24.00 24.00" enable-background="new 0 0 24.00 24.00" xml:space="preserve">
	<path fill="#000000" fill-opacity="1" stroke-width="0.2" stroke-linejoin="miter" d="M 14,5L 22,5L 22,7L 14,7L 14,5 Z M 14,10.5L 22,10.5L 22,12.5L 14,12.5L 14,10.5 Z M 14,16L 22,16L 22,18L 14,18L 14,16 Z M 2,11.5C 2,15.08 4.92,18 8.5,18L 9,18L 9,20L 12,17L 9,14L 9,16L 8.5,16C 6.02,16 4,13.98 4,11.5C 4,9.02 6.02,7 8.5,7L 12,7L 12,5L 8.5,5C 4.92,5 2,7.91992 2,11.5 Z "/>
</svg>
