<?xml version="1.0" encoding="utf-8"?>
<!DOCTYPE svg PUBLIC "-//W3C//DTD SVG 1.1//EN" "http://www.w3.org/Graphics/SVG/1.1/DTD/svg11.dtd">
<svg xmlns="http://www.w3.org/2000/svg" xmlns:xlink="http://www.w3.org/1999/xlink" version="1.1" baseProfile="full" width="24" height="24" viewBox="0 0 24.00 24.00" enable-background="new 0 0 24.00 24.00" xml:space="preserve">
	<path fill="#000000" fill-opacity="1" stroke-width="0.2" stroke-linejoin="miter" d="M 13,2.0293L 13,2.0508L 13,4.0508C 17.39,4.5908 20.5009,8.5807 19.9609,12.9707C 19.5009,16.6107 16.64,19.4997 13,19.9297L 13,21.9297C 18.5,21.3797 22.4992,16.5 21.9492,11C 21.4992,6.25 17.73,2.4993 13,2.0293 Z M 11,2.0605C 9.05,2.2505 7.18992,2.9998 5.66992,4.2598L 7.09961,5.7402C 8.21961,4.8402 9.57,4.2605 11,4.0605L 11,2.0605 Z M 4.25977,5.6699C 2.99977,7.1899 2.25078,9.04 2.05078,11L 4.05078,11C 4.24079,9.58 4.79946,8.2296 5.68945,7.0996L 4.25977,5.6699 Z M 15.5,8.5L 10.6191,13.3809L 8.5,11.2598L 7.43945,12.3203L 10.6191,15.5L 16.5605,9.5605L 15.5,8.5 Z M 2.06055,13C 2.26055,14.96 3.02953,16.8101 4.26953,18.3301L 5.68945,16.9004C 4.80945,15.7704 4.24055,14.42 4.06055,13L 2.06055,13 Z M 7.09961,18.3691L 5.66992,19.7402C 7.17993,21.0002 9.04,21.79 11,22L 11,20C 9.58,19.82 8.22961,19.2491 7.09961,18.3691 Z "/>
</svg>
