<?xml version="1.0" encoding="utf-8"?>
<!DOCTYPE svg PUBLIC "-//W3C//DTD SVG 1.1//EN" "http://www.w3.org/Graphics/SVG/1.1/DTD/svg11.dtd">
<svg xmlns="http://www.w3.org/2000/svg" xmlns:xlink="http://www.w3.org/1999/xlink" version="1.1" baseProfile="full" width="24" height="24" viewBox="0 0 24.00 24.00" enable-background="new 0 0 24.00 24.00" xml:space="preserve">
	<path fill="#000000" fill-opacity="1" stroke-width="1.33333" stroke-linejoin="miter" d="M 13,2.03L 13,2.05L 13,4.05C 17.39,4.59 20.5,8.58 19.96,12.97C 19.5,16.61 16.64,19.5 13,19.93L 13,21.93C 18.5,21.38 22.5,16.5 21.95,11C 21.5,6.25 17.73,2.5 13,2.03M 11,2.06C 9.05,2.25 7.19,3 5.67,4.26L 7.1,5.74C 8.22,4.84 9.57,4.26 11,4.06L 11,2.06M 4.26,5.67C 3,7.19 2.25,9.04 2.05,11L 4.05,11C 4.24,9.58 4.8,8.23 5.69,7.1L 4.26,5.67M 2.06,13C 2.26,14.96 3.03,16.81 4.27,18.33L 5.69,16.9C 4.81,15.77 4.24,14.42 4.06,13L 2.06,13M 7.1,18.37L 5.67,19.74C 7.18,21 9.04,21.79 11,22L 11,20C 9.58,19.82 8.23,19.25 7.1,18.37 Z M 12.5,7L 12.5,12.25L 17,14.92L 16.25,16.15L 11,13L 11,7L 12.5,7 Z "/>
</svg>
