<?xml version="1.0" encoding="utf-8"?>
<!DOCTYPE svg PUBLIC "-//W3C//DTD SVG 1.1//EN" "http://www.w3.org/Graphics/SVG/1.1/DTD/svg11.dtd">
<svg xmlns="http://www.w3.org/2000/svg" xmlns:xlink="http://www.w3.org/1999/xlink" version="1.1" baseProfile="full" width="24" height="24" viewBox="0 0 24.00 24.00" enable-background="new 0 0 24.00 24.00" xml:space="preserve">
	<path fill="#000000" fill-opacity="1" stroke-width="1.33333" stroke-linejoin="miter" d="M 13,2L 13,4C 17.3851,4.5401 20.5022,8.5328 19.962,12.918C 19.5133,16.561 16.643,19.4313 13,19.88L 13,21.88C 18.4897,21.2759 22.4503,16.3359 21.8462,10.8462C 21.3338,6.1893 17.6569,2.5124 13,2M 11,2C 9.04336,2.184 7.1868,2.9504 5.67,4.2L 7.1,5.74C 8.22492,4.8389 9.5724,4.2585 11,4.06L 11,2.06M 4.26,5.67C 3.00939,7.1872 2.2399,9.043 2.05,11L 4.05,11C 4.23678,9.5764 4.80326,8.2293 5.69,7.1L 4.26,5.67M 2.06,13C 2.25696,14.9552 3.02563,16.8091 4.27,18.33L 5.69,16.9C 4.80684,15.7696 4.24386,14.4226 4.06,13L 2.06,13M 7.06,18.37L 5.67,19.74C 7.18497,21.0024 9.03936,21.7887 11,22L 11,20C 9.57738,19.8161 8.23035,19.2532 7.1,18.37L 7.06,18.37 Z M 13,13L 13,7L 11,7L 11,13L 13,13M 13,17L 13,15L 11,15L 11,17L 13,17 Z "/>
</svg>
