<?xml version="1.0" encoding="utf-8"?>
<!DOCTYPE svg PUBLIC "-//W3C//DTD SVG 1.1//EN" "http://www.w3.org/Graphics/SVG/1.1/DTD/svg11.dtd">
<svg xmlns="http://www.w3.org/2000/svg" xmlns:xlink="http://www.w3.org/1999/xlink" version="1.1" baseProfile="full" width="24" height="24" viewBox="0 0 24.00 24.00" enable-background="new 0 0 24.00 24.00" xml:space="preserve">
	<path fill="#000000" fill-opacity="1" stroke-width="0.2" stroke-linejoin="round" d="M 13,2.0293C 17.73,2.4993 21.4992,6.25 21.9492,11C 22.4992,16.5 18.5,21.3797 13,21.9297L 13,19.9297C 16.64,19.4997 19.5009,16.6107 19.9609,12.9707C 20.5009,8.5807 17.39,4.5908 13,4.0508L 13,2.0508L 13,2.0293 Z M 11,2.0605L 11,4.0605C 9.57,4.2605 8.21961,4.8402 7.09961,5.7402L 5.66992,4.2598C 7.18992,2.9998 9.05,2.2505 11,2.0605 Z M 4.25977,5.6699L 5.68945,7.0996C 4.79945,8.2296 4.24078,9.58 4.05078,11L 2.05078,11C 2.25078,9.04 2.99977,7.1899 4.25977,5.6699 Z M 2.06055,13L 4.06055,13C 4.24055,14.42 4.80945,15.7704 5.68945,16.9004L 4.26953,18.3301C 3.02953,16.8101 2.26055,14.96 2.06055,13 Z M 7.09961,18.3691C 8.22961,19.2491 9.58,19.82 11,20L 11,22C 9.04,21.79 7.17992,21.0002 5.66992,19.7402L 7.09961,18.3691 Z M 12,7.50001L 7.5,12L 11,12L 11,16L 13,16L 13,12L 16.5,12L 12,7.50001 Z "/>
</svg>
