<?xml version="1.0" encoding="utf-8"?>
<!DOCTYPE svg PUBLIC "-//W3C//DTD SVG 1.1//EN" "http://www.w3.org/Graphics/SVG/1.1/DTD/svg11.dtd">
<svg xmlns="http://www.w3.org/2000/svg" xmlns:xlink="http://www.w3.org/1999/xlink" version="1.1" baseProfile="full" width="24" height="24" viewBox="0 0 24.00 24.00" enable-background="new 0 0 24.00 24.00" xml:space="preserve">
	<path fill="#000000" fill-opacity="1" stroke-width="1.33333" stroke-linejoin="miter" d="M 4,2C 3.446,2 3,2.446 3,3L 3,4C 3,4.554 3.446,5 4,5L 5,5L 5,14L 11,14L 11,16.5859L 6.79297,20.793L 8.20703,22.207L 11,19.4141L 11,22L 13,22L 13,19.4141L 15.793,22.207L 17.207,20.793L 13,16.5859L 13,14L 19,14L 19,5L 20,5C 20.554,5 21,4.554 21,4L 21,3C 21,2.446 20.554,2 20,2L 4,2 Z "/>
</svg>
