<?xml version="1.0" encoding="utf-8"?>
<!DOCTYPE svg PUBLIC "-//W3C//DTD SVG 1.1//EN" "http://www.w3.org/Graphics/SVG/1.1/DTD/svg11.dtd">
<svg xmlns="http://www.w3.org/2000/svg" xmlns:xlink="http://www.w3.org/1999/xlink" version="1.1" baseProfile="full" width="24" height="24" viewBox="0 0 24.00 24.00" enable-background="new 0 0 24.00 24.00" xml:space="preserve">
	<path fill="#000000" fill-opacity="1" stroke-width="0.2" stroke-linejoin="miter" d="M 6.5,6C 7.47093,6 8.37004,6.5125 9.10526,7.38403C 9.66284,6.78916 10.3053,6.36156 11,6.15002L 11,4.00001C 11,2.89544 11.8954,2.00002 13,2.00002L 15,2.00002L 15,4.00001L 13,4L 13,6.15003C 13.6947,6.36156 14.3372,6.78916 14.8947,7.38403C 15.63,6.5125 16.5291,6 17.5,6C 19.9853,6 22,9.35787 22,13.5C 22,17.6421 19.9853,21 17.5,21C 16.5291,21 15.63,20.4875 14.8947,19.616C 14.0778,20.4875 13.0788,21 12,21C 10.9212,21 9.92217,20.4875 9.10526,19.616C 8.37004,20.4875 7.47093,21 6.5,21C 4.01472,21 2,17.6421 2,13.5C 2,9.35787 4.01472,6 6.5,6 Z "/>
</svg>
