<?xml version="1.0" encoding="utf-8"?>
<!DOCTYPE svg PUBLIC "-//W3C//DTD SVG 1.1//EN" "http://www.w3.org/Graphics/SVG/1.1/DTD/svg11.dtd">
<svg xmlns="http://www.w3.org/2000/svg" xmlns:xlink="http://www.w3.org/1999/xlink" version="1.1" baseProfile="full" width="24" height="24" viewBox="0 0 24.00 24.00" enable-background="new 0 0 24.00 24.00" xml:space="preserve">
	<path fill="#000000" fill-opacity="1" stroke-width="1.33333" stroke-linejoin="miter" d="M 22,13.5C 22,15.2632 20.6961,16.7219 19,16.9645L 19,20C 19,21.1 18.1,22 17,22L 13.2,22L 13.2,21.7C 13.2,20.21 11.99,19 10.5,19C 9.01,19 7.8,20.21 7.8,21.7L 7.8,22L 4,22C 2.9,22 2,21.1 2,20L 2,16.2L 2.3,16.2C 3.79,16.2 5,14.99 5,13.5C 5,12.01 3.79,10.8 2.3,10.8L 2.01,10.8L 2.01,7.00001C 2.01,5.90001 2.9,5.00001 4,5.00001L 7.03544,5.00001C 7.27806,3.30387 8.73676,2.00002 10.5,2.00002C 12.2632,2.00002 13.7219,3.30387 13.9645,5.00001L 17,5.00001C 18.1,5.00001 19,5.90001 19,7.00001L 19,10.0354C 20.6961,10.2781 22,11.7368 22,13.5 Z M 17,15L 18.5,15C 19.3284,15 20,14.3284 20,13.5C 20,12.6716 19.3284,12 18.5,12L 17,12L 17,7L 12,7L 12,5.5C 12,4.67158 11.3284,4 10.5,4C 9.67157,4 9,4.67158 9,5.5L 9,7L 4,7L 4.01,9.12C 5.76,9.8 7,11.51 7,13.5C 7,15.49 5.75,17.2 4,17.88L 4,20L 6.12,20C 6.8,18.25 8.51,17 10.5,17C 12.49,17 14.2,18.25 14.88,20L 17,20L 17,15 Z "/>
</svg>
