<?xml version="1.0" encoding="utf-8"?>
<!DOCTYPE svg PUBLIC "-//W3C//DTD SVG 1.1//EN" "http://www.w3.org/Graphics/SVG/1.1/DTD/svg11.dtd">
<svg xmlns="http://www.w3.org/2000/svg" xmlns:xlink="http://www.w3.org/1999/xlink" version="1.1" baseProfile="full" width="24" height="24" viewBox="0 0 24.00 24.00" enable-background="new 0 0 24.00 24.00" xml:space="preserve">
	<path fill="#231F20" fill-opacity="1" stroke-width="1.33333" stroke-linejoin="miter" d="M 12.09,6.56L 12.09,14.64C 12.09,14.7228 12.0228,14.79 11.94,14.79C 9.62317,14.79 7.745,12.9118 7.745,10.595C 7.745,8.2782 9.62317,6.4 11.94,6.4C 12.0228,6.3998 12.0901,6.4668 12.09,6.56 Z M 12.09,17.86L 12.09,20.29C 12.0634,21.691 13.1244,22.8743 14.52,23C 14.6635,23.0056 14.7844,22.8939 14.79,22.73L 14.79,4.47C 14.7824,4.3013 14.6768,4.1527 14.52,4.09C 10.9238,2.671 6.85826,4.4359 5.43925,8.0321C 4.02025,11.6282 5.78517,15.6938 9.38133,17.1128C 10.1555,17.4183 10.9779,17.5833 11.81,17.6C 11.9535,17.5944 12.0744,17.7061 12.08,17.87M 16.19,5.5L 16.19,15.72C 16.19,15.99 16.19,16.2 16.46,15.99L 16.46,15.99C 19.423,13.5068 19.8119,9.0917 17.3287,6.1287C 17.0651,5.8142 16.7745,5.5235 16.46,5.26C 16.19,5.05 16.19,5.26 16.19,5.53M 14.79,2.43C 14.79,1.6568 15.4168,1.03 16.19,1.03C 16.9632,1.03 17.59,1.6568 17.59,2.43C 17.59,3.2032 16.9632,3.83 16.19,3.83L 16.19,3.83C 15.4168,3.83 14.79,3.2032 14.79,2.43"/>
</svg>
