<?xml version="1.0" encoding="utf-8"?>
<!DOCTYPE svg PUBLIC "-//W3C//DTD SVG 1.1//EN" "http://www.w3.org/Graphics/SVG/1.1/DTD/svg11.dtd">
<svg xmlns="http://www.w3.org/2000/svg" xmlns:xlink="http://www.w3.org/1999/xlink" version="1.1" baseProfile="full" width="24" height="24" viewBox="0 0 24.00 24.00" enable-background="new 0 0 24.00 24.00" xml:space="preserve">
	<g>
		<path fill="#000000" fill-opacity="1" stroke-width="1.33333" stroke-linejoin="miter" d="M 5,5L 7,5L 7,7L 5,7L 5,5 Z M 1,1L 11,1L 11,11L 1,11L 1,1 Z M 3,3L 3,9L 9,9L 9,3L 3,3 Z M 5,17L 7,17L 7,19L 5,19L 5,17 Z M 1,13L 11,13L 11,23L 1,23L 1,13 Z M 3,15L 3,21L 9,21L 9,15L 3,15 Z M 13,13L 17,13L 17,15L 19,15L 19,13L 23,13L 23,15L 19,15L 19,17L 23,17L 23,23L 19,23L 19,21L 15,21L 15,23L 13,23L 13,21L 15,21L 15,19L 13,19L 13,13 Z M 21,21L 21,19L 19,19L 19,21L 21,21 Z M 19,17L 17,17L 17,15L 15,15L 15,19L 19,19L 19,17 Z M 22.7,3.35L 21.7,4.35L 19.65,2.35L 20.65,1.35C 20.8512,1.1374 21.1866,1.1281 21.42,1.35L 22.7,2.58C 22.9126,2.7812 22.9219,3.1166 22.7,3.35 Z M 13,8.94L 19.07,2.88L 21.12,4.93L 15.06,11L 13,11L 13,8.94 Z "/>
	</g>
</svg>
