<?xml version="1.0" encoding="utf-8"?>
<!DOCTYPE svg PUBLIC "-//W3C//DTD SVG 1.1//EN" "http://www.w3.org/Graphics/SVG/1.1/DTD/svg11.dtd">
<svg xmlns="http://www.w3.org/2000/svg" xmlns:xlink="http://www.w3.org/1999/xlink" version="1.1" baseProfile="full" width="24" height="24" viewBox="0 0 24.00 24.00" enable-background="new 0 0 24.00 24.00" xml:space="preserve">
	<path fill="#000000" fill-opacity="1" stroke-width="1.33333" stroke-linejoin="miter" d="M 14.5,13.5L 16.5,13.5L 16.5,10.5L 14.5,10.5M 18,14C 18,14.6 17.6,15 17,15L 16.25,15L 16.25,16.5L 14.75,16.5L 14.75,15L 14,15C 13.4,15 13,14.6 13,14L 13,10C 13,9.4 13.4,9 14,9L 17,9C 17.6,9 18,9.4 18,10M 19,4L 5,4C 3.9,4 3,4.9 3,6L 3,18C 3,19.1 3.9,20 5,20L 19,20C 20.1,20 21,19.1 21,18L 21,6C 21,4.9 20.1,4 19,4 Z M 11,13.5L 11,15L 6,15L 6,9L 7.5,9L 7.5,13.5L 11,13.5 Z "/>
</svg>
