<?xml version="1.0" encoding="utf-8"?>
<!DOCTYPE svg PUBLIC "-//W3C//DTD SVG 1.1//EN" "http://www.w3.org/Graphics/SVG/1.1/DTD/svg11.dtd">
<svg xmlns="http://www.w3.org/2000/svg" xmlns:xlink="http://www.w3.org/1999/xlink" version="1.1" baseProfile="full" width="24" height="24" viewBox="0 0 24.00 24.00" enable-background="new 0 0 24.00 24.00" xml:space="preserve">
	<path fill="#000000" fill-opacity="1" stroke-width="0.2" stroke-linejoin="round" d="M 14.4994,13.498L 16.4994,13.498L 16.4994,10.498L 14.4994,10.498M 17.9994,13.998C 17.9994,14.55 17.5524,14.998 16.9994,14.998L 16.2494,14.998L 16.2494,16.498L 14.7494,16.498L 14.7494,14.998L 13.9994,14.998C 13.4464,14.998 12.9994,14.55 12.9994,13.998L 12.9994,9.99805C 12.9994,9.44604 13.4464,8.99805 13.9994,8.99805L 16.9994,8.99805C 17.5524,8.99805 17.9994,9.44604 17.9994,9.99805M 10.9994,14.998L 9.4994,14.998L 9.4994,12.998L 7.4994,12.998L 7.4994,14.998L 5.9994,14.998L 5.9994,8.99805L 7.4994,8.99805L 7.4994,11.498L 9.4994,11.498L 9.4994,8.99805L 10.9994,8.99805M 18.9994,3.99805L 4.9994,3.99805C 3.8944,3.99805 2.9994,4.89404 2.9994,5.99805L 2.9994,17.998C 2.9994,19.1021 3.8944,19.998 4.9994,19.998L 18.9994,19.998C 20.1034,19.998 20.9994,19.1021 20.9994,17.998L 20.9994,5.99805C 20.9994,4.89404 20.1034,3.99805 18.9994,3.99805 Z "/>
</svg>
