<?xml version="1.0" encoding="utf-8"?>
<!DOCTYPE svg PUBLIC "-//W3C//DTD SVG 1.1//EN" "http://www.w3.org/Graphics/SVG/1.1/DTD/svg11.dtd">
<svg xmlns="http://www.w3.org/2000/svg" xmlns:xlink="http://www.w3.org/1999/xlink" version="1.1" baseProfile="full" width="24" height="24" viewBox="0 0 24.00 24.00" enable-background="new 0 0 24.00 24.00" xml:space="preserve">
	<path fill="#000000" fill-opacity="1" stroke-width="1.33333" stroke-linejoin="miter" d="M 21,6L 21,18C 21,19.1 20.1,20 19,20L 5,20C 3.9,20 3,19.1 3,18L 3,6C 3,4.9 3.9,4 5,4L 19,4C 20.1,4 21,4.9 21,6 Z M 12,10C 12,9.5 11.5,9 11,9L 6.5,9C 6,9 5.5,9.5 5.5,10L 5.5,15L 7,15L 7,10.5L 8,10.5L 8,14L 9.5,14L 9.5,10.5L 10.5,10.5L 10.5,15L 12,15L 12,10 Z M 14.5,9C 13.9477,9 13.5,9.44772 13.5,10L 13.5,14C 13.5,14.5523 13.9477,15 14.5,15L 15.5,15L 15.5,16.5L 16.75,16.5L 16.75,15L 17.5,15C 18.0523,15 18.5,14.5523 18.5,14L 18.5,10C 18.5,9.44772 18.0523,9 17.5,9L 14.5,9 Z M 15,10.5L 17,10.5L 17,13.5L 15,13.5L 15,10.5 Z "/>
</svg>
