<?xml version="1.0" encoding="utf-8"?>
<!DOCTYPE svg PUBLIC "-//W3C//DTD SVG 1.1//EN" "http://www.w3.org/Graphics/SVG/1.1/DTD/svg11.dtd">
<svg xmlns="http://www.w3.org/2000/svg" xmlns:xlink="http://www.w3.org/1999/xlink" version="1.1" baseProfile="full" width="24" height="24" viewBox="0 0 24.00 24.00" enable-background="new 0 0 24.00 24.00" xml:space="preserve">
	<path fill="#000000" fill-opacity="1" stroke-width="0.2" stroke-linejoin="round" d="M 12,3C 16.9706,3 21,7.02944 21,12C 21,13.76 20.4948,15.4019 19.6216,16.7888L 21,18.1673L 21,20C 21,20.5523 20.5523,21 20,21L 18.1759,21L 16.7941,19.6182C 15.4061,20.4935 13.7622,21 12,21C 7.02944,21 3,16.9706 3,12C 3,7.02944 7.02944,3 12,3 Z M 12,7C 9.23857,7 7,9.23858 7,12C 7,14.7614 9.23857,17 12,17C 12.646,17 13.2635,16.8775 13.8303,16.6544L 10.9467,13.7708C 10.1657,12.9898 10.1657,11.7234 10.9467,10.9424C 11.7278,10.1613 12.9941,10.1613 13.7751,10.9424L 16.6568,13.8241C 16.8784,13.259 17,12.6437 17,12C 17,9.23858 14.7614,7 12,7 Z "/>
</svg>
