<?xml version="1.0" encoding="utf-8"?>
<!DOCTYPE svg PUBLIC "-//W3C//DTD SVG 1.1//EN" "http://www.w3.org/Graphics/SVG/1.1/DTD/svg11.dtd">
<svg xmlns="http://www.w3.org/2000/svg" xmlns:xlink="http://www.w3.org/1999/xlink" version="1.1" baseProfile="full" width="24" height="24" viewBox="0 0 24.00 24.00" enable-background="new 0 0 24.00 24.00" xml:space="preserve">
	<path fill="#000000" fill-opacity="1" stroke-width="0.2" stroke-linejoin="round" d="M 11.5,2C 16.1944,2 20,5.80558 20,10.5C 20,16 15.3177,21.2344 12,22.5L 12,19L 11.5,19C 6.80558,19 3,15.1944 3,10.5C 3,5.80558 6.80558,2 11.5,2 Z M 11,8.00001L 8.5,8.00001L 8.5,11L 10.5,11L 9,12.5L 9.5,13L 11,11.5L 11,8.00001 Z M 15,8L 12.5,8L 12.5,11L 14.5,11L 13,12.5L 13.5,13L 15,11.5L 15,8 Z "/>
</svg>
