<?xml version="1.0" encoding="utf-8"?>
<!DOCTYPE svg PUBLIC "-//W3C//DTD SVG 1.1//EN" "http://www.w3.org/Graphics/SVG/1.1/DTD/svg11.dtd">
<svg xmlns="http://www.w3.org/2000/svg" xmlns:xlink="http://www.w3.org/1999/xlink" version="1.1" baseProfile="full" width="24" height="24" viewBox="0 0 24.00 24.00" enable-background="new 0 0 24.00 24.00" xml:space="preserve">
	<path fill="#000000" fill-opacity="1" stroke-width="1.33333" stroke-linejoin="miter" d="M 18.0508,21L 15.3158,16.2632C 15.3158,14.5333 14.2547,13.4211 12.9474,13.4211C 12.0512,13.4211 11.2705,13.9203 10.8679,14.6555C 11.2042,14.4726 11.5888,14.3684 11.9972,14.3684C 13.3036,14.3684 14.3637,15.4285 14.3637,16.734C 14.3637,18.0404 13.3055,19.1053 12,19.1053L 15.3006,19.1053L 15.3006,21L 6.78947,21C 6.54695,21 6.30442,20.9072 6.11968,20.7224C 5.75021,20.3529 5.75021,19.7523 6.11968,19.3828L 6.12158,19.3809L 6.62368,18.8788C 6.28263,18.733 5.97568,18.5226 5.71895,18.264C 5.49726,18.7595 4.99894,19.1053 4.42105,19.1053C 3.63663,19.1053 3,18.4686 3,17.6842C 3,16.8998 3.63663,16.2632 4.42105,16.2632L 4.89473,16.3437L 4.89473,14.3684C 4.89473,11.7537 7.01684,9.63158 9.63158,9.63158L 9.65147,9.63158C 11.7707,9.63726 13.4211,10.4662 13.4211,9.1579C 13.4211,8.23042 13.6247,7.85526 13.9648,7.33895C 13.2259,6.98653 12.3988,6.78947 11.5263,6.78947C 11.0034,6.78947 10.5789,6.36505 10.5789,5.84211C 10.5789,5.4139 10.8641,5.052 11.2544,4.93453L 10.5789,4.89474C 10.056,4.89474 9.63158,4.47032 9.63158,3.94737C 9.63158,3.42442 10.056,3 10.5789,3L 11.5263,3C 13.6333,3 15.474,4.14916 16.4555,5.85348L 16.7368,5.84211C 17.4493,5.84211 18.1086,6.06663 18.6496,6.44937L 19.0967,6.83021C 21.2728,8.77516 21.0009,10.0996 21,10.1053C 20.9905,11.3946 19.9408,12.4377 18.6496,12.4377L 18.1569,12.3856L 18.1579,12.4737C 18.1579,13.5783 17.6842,14.574 16.9282,15.2665L 20.2383,21L 18.0508,21 Z M 18.1579,7.73685C 17.6349,7.73685 17.2105,8.16127 17.2105,8.68421C 17.2105,9.20716 17.6349,9.63158 18.1579,9.63158C 18.6808,9.63158 19.1053,9.20716 19.1053,8.68421C 19.1053,8.16127 18.6808,7.73685 18.1579,7.73685 Z "/>
</svg>
