<?xml version="1.0" encoding="utf-8"?>
<!DOCTYPE svg PUBLIC "-//W3C//DTD SVG 1.1//EN" "http://www.w3.org/Graphics/SVG/1.1/DTD/svg11.dtd">
<svg xmlns="http://www.w3.org/2000/svg" xmlns:xlink="http://www.w3.org/1999/xlink" version="1.1" baseProfile="full" width="24" height="24" viewBox="0 0 24.00 24.00" enable-background="new 0 0 24.00 24.00" xml:space="preserve">
	<path fill="#000000" fill-opacity="1" stroke-width="1.33333" stroke-linejoin="miter" d="M 2.2,11.2C 2,13.6 2.7,15.6 4.2,17.4C 5.7,19.2 7.7,20 10.1,20L 20.1,20C 20.6,20 21.1,19.8 21.5,19.4C 21.9,19 22.1,18.5 22.1,18L 22.1,17.2C 22.1,16.6 22,15.9 21.9,15L 13.7,15C 12.7,15 11.9,14.6 11.2,13.9C 10.5,13.2 10.1,12.3 10.1,11.4C 10.1,9.8 10.8,8.7 12.3,8.1L 17.1,6C 15.4,4.8 13.4,4.1 11.1,4C 8.9,3.8 6.9,4.5 5.1,5.9C 3.3,7.3 2.4,9 2.2,11.2 Z M 12.1,11.4C 12.1,11.8 12.3,12.2 12.6,12.5C 12.9,12.8 13.3,13 13.7,13L 21.5,13C 20.9,10.8 20,9 18.7,7.6L 13.1,9.9C 12.4,10.1 12.1,10.6 12.1,11.4 Z "/>
</svg>
