<?xml version="1.0" encoding="utf-8"?>
<!DOCTYPE svg PUBLIC "-//W3C//DTD SVG 1.1//EN" "http://www.w3.org/Graphics/SVG/1.1/DTD/svg11.dtd">
<svg xmlns="http://www.w3.org/2000/svg" xmlns:xlink="http://www.w3.org/1999/xlink" version="1.1" baseProfile="full" width="24" height="24" viewBox="0 0 24.00 24.00" enable-background="new 0 0 24.00 24.00" xml:space="preserve">
	<path fill="#000000" fill-opacity="1" stroke-width="1.33333" stroke-linejoin="miter" d="M 18.5,16C 19.9,16 21,17.1 21,18.5C 21,19.9 19.9,21 18.5,21C 17.1,21 16,19.9 16,18.5C 16,17.1 17.1,16 18.5,16 Z M 10.5,1C 3,1 3,3.7 3,9.8C 3,13.2 6.4,16.9 9,18.1L 9,23L 12,23L 12,18.1C 14.6,16.9 18,13.2 18,9.8C 18,3.6 18,1 10.5,1 Z M 15.4,4.2C 15.7,4.6 15.8,5.2 15.9,6L 15,6L 15,3.8C 15.2,3.9 15.3,4.1 15.4,4.2 Z M 16,9.8C 16,9.9 16,10 16,10L 15,10L 15,7L 16,7C 16,7.8 16,8.7 16,9.8 Z M 14,14L 11,14L 11,11L 14,11L 14,14 Z M 7,14L 7,11L 10,11L 10,14L 7,14 Z M 5,9.8C 5,8.8 5,7.9 5,7L 6,7L 6,10L 5,10C 5,9.9 5,9.8 5,9.8 Z M 7,7L 10,7L 10,10L 7,10L 7,7 Z M 11,3C 12.4,3 13.4,3.2 14,3.3L 14,6L 11,6L 11,3 Z M 10,6L 7,6L 7,3.4C 7.6,3.2 8.6,3 10,3L 10,6 Z M 11,10L 11,7L 14,7L 14,10L 11,10 Z M 6,3.8L 6,6L 5.1,6C 5.2,5.2 5.3,4.6 5.6,4.2C 5.7,4.1 5.8,4 6,3.8 Z M 5.2,11L 6,11L 6,12.7C 5.7,12.1 5.4,11.6 5.2,11 Z M 8,15L 10,15L 10,16.3L 9.8,16.2C 9.2,16 8.6,15.5 8,15 Z M 11.2,16.3L 11,16.3L 11,15L 13,15C 12.4,15.5 11.8,16 11.2,16.3 Z M 15,12.7L 15,11L 15.8,11C 15.6,11.5 15.3,12.1 15,12.7 Z "/>
</svg>
