<?xml version="1.0" encoding="utf-8"?>
<!DOCTYPE svg PUBLIC "-//W3C//DTD SVG 1.1//EN" "http://www.w3.org/Graphics/SVG/1.1/DTD/svg11.dtd">
<svg xmlns="http://www.w3.org/2000/svg" xmlns:xlink="http://www.w3.org/1999/xlink" version="1.1" baseProfile="full" width="24" height="24" viewBox="0 0 24.00 24.00" enable-background="new 0 0 24.00 24.00" xml:space="preserve">
	<path fill="#000000" fill-opacity="1" stroke-width="1.33333" stroke-linejoin="miter" d="M 19.07,4.93L 17.66,6.34C 19.1,7.79 20,9.79 20,12C 20,16.42 16.42,20 12,20C 7.58,20 4,16.42 4,12C 4,7.92 7.05,4.56 11,4.07L 11,6.09C 8.16,6.57 6,9.03 6,12C 6,15.31 8.69,18 12,18C 15.31,18 18,15.31 18,12C 18,10.34 17.33,8.84 16.24,7.76L 14.83,9.17C 15.55,9.9 16,10.9 16,12C 16,14.21 14.21,16 12,16C 9.79,16 8,14.21 8,12C 8,10.14 9.28,8.59 11,8.14L 11,10.28C 10.4,10.63 10,11.26 10,12C 10,13.1 10.9,14 12,14C 13.1,14 14,13.1 14,12C 14,11.26 13.6,10.62 13,10.28L 13,2L 12,2C 6.48,2 2,6.48 2,12C 2,17.52 6.48,22 12,22C 17.52,22 22,17.52 22,12C 22,9.24 20.88,6.74 19.07,4.93 Z "/>
</svg>
