<?xml version="1.0" encoding="utf-8"?>
<!DOCTYPE svg PUBLIC "-//W3C//DTD SVG 1.1//EN" "http://www.w3.org/Graphics/SVG/1.1/DTD/svg11.dtd">
<svg xmlns="http://www.w3.org/2000/svg" xmlns:xlink="http://www.w3.org/1999/xlink" version="1.1" baseProfile="full" width="24" height="24" viewBox="0 0 24.00 24.00" enable-background="new 0 0 24.00 24.00" xml:space="preserve">
	<path fill="#000000" fill-opacity="1" stroke-width="1.33333" stroke-linejoin="miter" d="M 12,2C 6.47715,2 2,6.4772 2,12C 2,17.5228 6.47715,22 12,22C 17.5228,22 22,17.5228 22,12C 22,6.4772 17.5228,2 12,2 Z M 17,15L 17,13L 13.72,13C 13.3649,13.6151 12.7102,13.9957 12,14C 10.8954,14 10,13.1046 10,12C 10,10.8954 10.8954,10 12,10C 12.7102,10.0043 13.3649,10.3849 13.72,11L 17,11L 17,9L 20,12L 17,15 Z "/>
</svg>
