<?xml version="1.0" encoding="utf-8"?>
<!DOCTYPE svg PUBLIC "-//W3C//DTD SVG 1.1//EN" "http://www.w3.org/Graphics/SVG/1.1/DTD/svg11.dtd">
<svg xmlns="http://www.w3.org/2000/svg" xmlns:xlink="http://www.w3.org/1999/xlink" version="1.1" baseProfile="full" width="24" height="24" viewBox="0 0 24.00 24.00" enable-background="new 0 0 24.00 24.00" xml:space="preserve">
	<path fill="#000000" fill-opacity="1" stroke-linejoin="round" d="M 4.00001,21C 2.89544,21 2.00001,20.1046 2.00001,19L 2.00001,9C 2.00001,7.89543 2.89544,7 4.00001,7L 4.99643,7C 4.99519,6.5904 5.2476,6.20539 5.65468,6.05722L 16.931,1.95298C 17.45,1.76409 18.0238,2.03168 18.2127,2.55065C 18.4016,3.06963 18.134,3.64347 17.615,3.83237L 8.91202,7L 20,7C 21.1046,7 22,7.89543 22,9L 22,19C 22,20.1046 21.1046,21 20,21L 4.00001,21 Z M 15,9.00001C 13.3642,9.00001 11.9118,9.78557 10.9996,11L 19.0004,11C 18.0882,9.78557 16.6358,9.00001 15,9.00001 Z M 10,14L 10.1,15L 19.9,15L 20,14L 19.9,13L 10.1,13L 10,14 Z M 15,19C 16.6358,19 18.0882,18.2145 19.0004,17L 10.9996,17C 11.9118,18.2145 13.3642,19 15,19 Z M 5.5,10C 4.67157,10 4,10.6716 4,11.5C 4,12.3284 4.67157,13 5.5,13C 6.32842,13 7,12.3284 7,11.5C 7,10.6716 6.32842,10 5.5,10 Z M 5.5,15C 4.67157,15 4,15.6716 4,16.5C 4,17.3284 4.67157,18 5.5,18C 6.32842,18 7,17.3284 7,16.5C 7,15.6716 6.32842,15 5.5,15 Z "/>
</svg>
