<?xml version="1.0" encoding="utf-8"?>
<!DOCTYPE svg PUBLIC "-//W3C//DTD SVG 1.1//EN" "http://www.w3.org/Graphics/SVG/1.1/DTD/svg11.dtd">
<svg xmlns="http://www.w3.org/2000/svg" xmlns:xlink="http://www.w3.org/1999/xlink" version="1.1" baseProfile="full" width="24" height="24" viewBox="0 0 24.00 24.00" enable-background="new 0 0 24.00 24.00" xml:space="preserve">
	<path fill="#000000" fill-opacity="1" stroke-width="1.33333" stroke-linejoin="miter" d="M 3.28,2L 2,3.27L 4.766,6.036L 5.64,7.39L 4.22,9.6L 5.95,10.5L 7.232,8.502L 10.73,12L 4,12C 2.895,12 2,12.895 2,14L 2,22L 4,22L 4,20L 18.73,20L 20,21.27L 20,22L 22,22L 22,20.728L 21.996,20.724L 22,20.72L 3.28,2 Z M 7,17C 7,17.552 6.552,18 6,18C 5.448,18 5,17.552 5,17L 5,15C 5,14.448 5.448,14 6,14C 6.552,14 7,14.448 7,15L 7,17 Z M 11,17C 11,17.552 10.552,18 10,18C 9.448,18 9,17.552 9,17L 9,15C 9,14.448 9.448,14 10,14C 10.552,14 11,14.448 11,15L 11,17 Z M 15,17C 15,17.552 14.552,18 14,18C 13.448,18 13,17.552 13,17L 13,15C 13,14.794 13.077,14.613 13.184,14.454L 15,16.27L 15,17 Z M 16.25,9.5L 17.67,7.3L 16.25,5.1L 18.25,2L 20,2.89L 18.56,5.1L 20,7.3L 20,7.31L 18,10.4L 16.25,9.5 Z M 22,14L 22,18.178L 19,15.178L 19,15C 19,14.448 18.552,14 18,14C 17.947,14 17.902,14.022 17.852,14.03L 15.822,12L 20,12C 21.105,12 22,12.895 22,14 Z M 11.64,7.3L 10.22,5.1L 12.22,2L 13.95,2.89L 12.53,5.1L 13.95,7.3L 13.94,7.31L 12.84,9.018L 11.437,7.615L 11.64,7.3 Z M 7.506,3.685L 6.099,2.277L 6.22,2.09L 7.95,3L 7.506,3.685 Z "/>
</svg>
