<?xml version="1.0" encoding="utf-8"?>
<!DOCTYPE svg PUBLIC "-//W3C//DTD SVG 1.1//EN" "http://www.w3.org/Graphics/SVG/1.1/DTD/svg11.dtd">
<svg xmlns="http://www.w3.org/2000/svg" xmlns:xlink="http://www.w3.org/1999/xlink" version="1.1" baseProfile="full" width="24" height="24" viewBox="0 0 24.00 24.00" enable-background="new 0 0 24.00 24.00" xml:space="preserve">
	<path fill="#000000" fill-opacity="1" stroke-width="0.2" stroke-linejoin="round" d="M 11.9994,19.9981C 7.5814,19.9981 3.9994,16.4161 3.9994,11.9981C 3.9994,7.58007 7.5814,3.99807 11.9994,3.99807C 16.4174,3.99807 19.9994,7.58007 19.9994,11.9981C 19.9994,16.4161 16.4174,19.9981 11.9994,19.9981 Z M 11.9994,1.99807C 6.4764,1.99807 1.9994,6.47507 1.9994,11.9981C 1.9994,17.5211 6.4764,21.9981 11.9994,21.9981C 17.5224,21.9981 21.9994,17.5211 21.9994,11.9981C 21.9994,6.47507 17.5224,1.99807 11.9994,1.99807 Z M 11.9994,6.99807C 9.2374,6.99807 6.9994,9.23607 6.9994,11.9981C 6.9994,14.7601 9.2374,16.9981 11.9994,16.9981C 14.7604,16.9981 16.9994,14.7601 16.9994,11.9981C 16.9994,9.23607 14.7604,6.99807 11.9994,6.99807 Z "/>
</svg>
