<?xml version="1.0" encoding="utf-8"?>
<!DOCTYPE svg PUBLIC "-//W3C//DTD SVG 1.1//EN" "http://www.w3.org/Graphics/SVG/1.1/DTD/svg11.dtd">
<svg xmlns="http://www.w3.org/2000/svg" xmlns:xlink="http://www.w3.org/1999/xlink" version="1.1" baseProfile="full" width="24" height="24" viewBox="0 0 24.00 24.00" enable-background="new 0 0 24.00 24.00" xml:space="preserve">
	<path fill="#000000" fill-opacity="1" stroke-linejoin="round" d="M 20,6C 21.1046,6 22,6.89543 22,8L 22,20C 22,21.1046 21.1046,22 20,22L 4,22C 2.89543,22 2,21.1046 2,20L 2,8C 2,7.15034 2.52983,6.42443 3.27712,6.13463L 15.707,0.986006L 16.4724,2.83377L 8.82842,6L 20,6 Z M 20,8.00001L 4,8.00001L 4,12L 16,12L 16,10L 18,10L 18,12L 20,12L 20,8.00001 Z M 7,14C 5.34314,14 4,15.3431 4,17C 4,18.6569 5.34314,20 7,20C 8.65685,20 10,18.6569 10,17C 10,15.3431 8.65685,14 7,14 Z "/>
</svg>
