<?xml version="1.0" encoding="utf-8"?>
<!DOCTYPE svg PUBLIC "-//W3C//DTD SVG 1.1//EN" "http://www.w3.org/Graphics/SVG/1.1/DTD/svg11.dtd">
<svg xmlns="http://www.w3.org/2000/svg" xmlns:xlink="http://www.w3.org/1999/xlink" version="1.1" baseProfile="full" width="24" height="24" viewBox="0 0 24.00 24.00" enable-background="new 0 0 24.00 24.00" xml:space="preserve">
	<path fill="#000000" fill-opacity="1" stroke-width="1.33333" stroke-linejoin="miter" d="M 5,7C 3.89543,7 3,7.8954 3,9L 3,17L 5,17L 5,13L 7,13L 7,17L 9,17L 9,9C 9,7.8954 8.10457,7 7,7L 5,7M 5,9L 7,9L 7,11L 5,11L 5,9 Z M 13,7C 11.8954,7 11,7.8954 11,9L 11,17L 13,17L 13,9L 15,9L 15,16L 17,16L 17,9L 19,9L 19,17L 21,17L 21,9C 21,7.8954 20.1046,7 19,7L 13,7 Z "/>
</svg>
