<?xml version="1.0" encoding="utf-8"?>
<!DOCTYPE svg PUBLIC "-//W3C//DTD SVG 1.1//EN" "http://www.w3.org/Graphics/SVG/1.1/DTD/svg11.dtd">
<svg xmlns="http://www.w3.org/2000/svg" xmlns:xlink="http://www.w3.org/1999/xlink" version="1.1" baseProfile="full" width="24" height="24" viewBox="0 0 24.00 24.00" enable-background="new 0 0 24.00 24.00" xml:space="preserve">
	<path fill="#000000" fill-opacity="1" stroke-width="0.2" stroke-linejoin="round" d="M 0.999999,4.26849L 2.27711,3.00001L 21,21.7229L 19.7315,23L 17.2464,20.5149C 15.7213,21.4566 13.9241,22 12,22C 10.0471,22 8.22487,21.4402 6.68517,20.4722L 10.0169,15.4746C 10.6014,15.8089 11.2784,16 12,16C 12.23,16 12.4555,15.9806 12.6748,15.9433L 8.05668,11.3252C 8.01941,11.5445 8,11.77 8,12L 2,12C 2,10.0759 2.54341,8.27875 3.48512,6.7536L 0.999999,4.26849 Z M 12,10C 13.1046,10 14,10.8954 14,12L 13.9929,12.1702L 11.8298,10.0071L 12,10 Z M 8.11335,2.7834L 10.2331,8.41041L 5.8989,4.07622C 6.57394,3.55569 7.31735,3.11949 8.11335,2.7834 Z M 16,12C 16,10.3818 15.0391,8.98803 13.6567,8.35816L 15.8866,2.7834C 19.4789,4.30011 22,7.85564 22,12L 16,12 Z "/>
</svg>
