<?xml version="1.0" encoding="utf-8"?>
<!DOCTYPE svg PUBLIC "-//W3C//DTD SVG 1.1//EN" "http://www.w3.org/Graphics/SVG/1.1/DTD/svg11.dtd">
<svg xmlns="http://www.w3.org/2000/svg" xmlns:xlink="http://www.w3.org/1999/xlink" version="1.1" baseProfile="full" width="24" height="24" viewBox="0 0 24.00 24.00" enable-background="new 0 0 24.00 24.00" xml:space="preserve">
	<path fill="#000000" fill-opacity="1" stroke-width="1.33333" stroke-linejoin="miter" d="M 20,12L 4,12C 2.895,12 2,12.895 2,14L 2,22L 4,22L 4,20L 20,20L 20,22L 22,22L 22,14C 22,12.895 21.105,12 20,12 Z M 7,17C 7,17.552 6.552,18 6,18C 5.448,18 5,17.552 5,17L 5,15C 5,14.448 5.448,14 6,14C 6.552,14 7,14.448 7,15L 7,17 Z M 11,17C 11,17.552 10.552,18 10,18C 9.448,18 9,17.552 9,17L 9,15C 9,14.448 9.448,14 10,14C 10.552,14 11,14.448 11,15L 11,17 Z M 15,17C 15,17.552 14.552,18 14,18C 13.448,18 13,17.552 13,17L 13,15C 13,14.448 13.448,14 14,14C 14.552,14 15,14.448 15,15L 15,17 Z M 19,17C 19,17.552 18.552,18 18,18C 17.448,18 17,17.552 17,17L 17,15C 17,14.448 17.448,14 18,14C 18.552,14 19,14.448 19,15L 19,17 Z "/>
</svg>
