<?xml version="1.0" encoding="utf-8"?>
<!DOCTYPE svg PUBLIC "-//W3C//DTD SVG 1.1//EN" "http://www.w3.org/Graphics/SVG/1.1/DTD/svg11.dtd">
<svg xmlns="http://www.w3.org/2000/svg" xmlns:xlink="http://www.w3.org/1999/xlink" version="1.1" baseProfile="full" width="24" height="24" viewBox="0 0 24.00 24.00" enable-background="new 0 0 24.00 24.00" xml:space="preserve">
	<path fill="#000000" fill-opacity="1" stroke-linejoin="round" d="M 17.6722,10.5C 16.4015,10.5053 15.2708,11.3027 14.8495,12.5L 13.1722,12.5L 13.1722,7.77067L 16.6615,9.86L 17.6615,8.14L 14.1095,6L 17.6828,3.86L 16.6828,2.14L 13.1722,4.22934L 13.1722,2L 11.1722,2L 11.1722,4.22934L 7.68283,2.14L 6.68283,3.86L 10.2295,6L 6.6615,8.14L 7.6615,9.86L 11.1722,7.77067L 11.1722,12.5L 9.4895,12.5C 8.36417,9.32267 3.6615,10.1307 3.6615,13.5C 3.6615,16.8693 8.36417,17.6773 9.4895,14.5L 11.1722,14.5L 11.1722,20C 10.0682,20 9.17217,20.896 9.17217,22L 15.1722,22C 15.1722,20.896 14.2762,20 13.1722,20L 13.1722,14.5L 14.8495,14.5C 15.6615,16.7973 18.7295,17.2187 20.1308,15.2293C 21.5308,13.24 20.1042,10.4947 17.6722,10.5 Z M 6.67217,14.5C 5.7815,14.5 5.3335,13.4213 5.96417,12.792C 6.5935,12.1613 7.67217,12.6093 7.67217,13.5C 7.67217,14.052 7.22417,14.5 6.67217,14.5 Z M 17.6722,14.5C 16.7815,14.5 16.3335,13.4213 16.9642,12.792C 17.5935,12.1613 18.6722,12.6093 18.6722,13.5C 18.6722,14.052 18.2242,14.5 17.6722,14.5 Z "/>
</svg>
