<?xml version="1.0" encoding="utf-8"?>
<!DOCTYPE svg PUBLIC "-//W3C//DTD SVG 1.1//EN" "http://www.w3.org/Graphics/SVG/1.1/DTD/svg11.dtd">
<svg xmlns="http://www.w3.org/2000/svg" xmlns:xlink="http://www.w3.org/1999/xlink" version="1.1" baseProfile="full" width="24" height="24" viewBox="0 0 24.00 24.00" enable-background="new 0 0 24.00 24.00" xml:space="preserve">
	<path fill="#000000" fill-opacity="1" stroke-width="1.33333" stroke-linejoin="miter" d="M 12,10.1149C 13.0304,10.1149 13.8656,10.9501 13.8656,11.9805C 13.8656,13.0109 13.0304,13.8461 12,13.8461C 10.9696,13.8461 10.1344,13.0109 10.1344,11.9805C 10.1344,10.9501 10.9696,10.1149 12,10.1149 Z M 7.37494,20.0107C 8.00801,20.3762 9.37509,19.8043 10.97,18.2956C 10.4488,17.7106 9.94113,17.0721 9.45953,16.4002C 8.63681,16.319 7.82997,16.1986 7.06277,16.0398C 6.55367,18.1754 6.74196,19.6452 7.37494,20.0107 Z M 8.08146,14.2624L 7.7934,13.7501C 7.67778,14.0443 7.57277,14.3315 7.47796,14.6108C 7.76729,14.6684 8.06848,14.721 8.38112,14.768C 8.27918,14.6004 8.17924,14.4317 8.08146,14.2624 Z M 14.6194,13.5123L 15.4294,12.0001L 14.6193,10.4877C 14.3213,9.97158 14.0188,9.48567 13.7147,9.03C 13.168,8.99444 12.5959,8.97538 12,8.97538C 11.4039,8.97538 10.8318,8.99444 10.285,9.03001C 9.98091,9.48563 9.6784,9.97149 9.38043,10.4876L 8.5703,12.0001L 9.38041,13.5125C 9.67841,14.0286 9.98096,14.5145 10.2851,14.9702C 10.8318,15.0058 11.4039,15.0248 12,15.0248C 12.5959,15.0248 13.1679,15.0058 13.7146,14.9702C 14.0187,14.5145 14.3213,14.0285 14.6194,13.5123 Z M 11.9999,6.77851C 11.8054,7.00026 11.6092,7.23474 11.4123,7.48195C 11.6084,7.4775 11.8044,7.47526 12,7.47526C 12.1954,7.47526 12.3914,7.47749 12.5874,7.48195C 12.3905,7.23474 12.1943,7.00026 11.9999,6.77851 Z M 11.9999,17.2215C 12.1944,16.9997 12.3905,16.7652 12.5875,16.518C 12.3914,16.5225 12.1954,16.5247 12,16.5247C 11.8044,16.5247 11.6084,16.5225 11.4122,16.518C 11.6092,16.7652 11.8054,16.9997 11.9999,17.2215 Z M 16.6249,3.98924C 15.9919,3.62377 14.6248,4.19555 13.0299,5.70431C 13.551,6.28934 14.0588,6.92787 14.5404,7.59983C 15.3631,7.68097 16.1699,7.80141 16.9371,7.96023C 17.4464,5.82458 17.258,4.35475 16.6249,3.98924 Z M 15.9185,9.73767L 16.2065,10.2498C 16.3221,9.95566 16.427,9.6686 16.5218,9.38934C 16.2326,9.33179 15.9315,9.27918 15.6189,9.23219C 15.7208,9.39979 15.8208,9.56838 15.9185,9.73767 Z M 17.3749,2.69021C 18.8374,3.53454 18.9986,5.73921 18.3768,8.31839C 20.9212,9.06949 22.75,10.3115 22.75,12C 22.75,13.6887 20.9212,14.9306 18.3767,15.6816C 18.9985,18.2608 18.8373,20.4655 17.3749,21.3098C 15.9125,22.1541 13.9226,21.1913 11.9999,19.3633C 10.0772,21.1913 8.08731,22.154 6.62494,21.3097C 5.16257,20.4654 5.0014,18.2608 5.62317,15.6817C 3.07862,14.9307 1.24996,13.6887 1.24996,12C 1.24996,10.3114 3.07858,9.06941 5.62307,8.31832C 5.00126,5.7392 5.16251,3.53461 6.62492,2.69029C 8.08733,1.84597 10.0772,2.80859 11.9999,4.63664C 13.9226,2.80855 15.9125,1.84588 17.3749,2.69021 Z M 17.0808,12.0001C 17.4219,12.7531 17.721,13.512 17.9671,14.2559C 20.0711,13.629 21.25,12.731 21.25,12C 21.25,11.2691 20.0711,10.3711 17.9671,9.74426C 17.7211,10.4881 17.422,11.247 17.0808,12.0001 Z M 6.91911,12.0001C 6.57799,11.247 6.27886,10.488 6.03277,9.74419C 3.92867,10.371 2.74996,11.269 2.74996,12C 2.74996,12.731 3.92869,13.6291 6.03281,14.2559C 6.27889,13.5121 6.57801,12.7531 6.91911,12.0001 Z M 15.9185,14.2624C 15.8207,14.4317 15.7208,14.6003 15.6189,14.768C 15.9314,14.721 16.2325,14.6684 16.5218,14.6108C 16.427,14.3315 16.322,14.0445 16.2064,13.7503L 15.9185,14.2624 Z M 13.0299,18.2957C 14.6248,19.8044 15.9919,20.3762 16.6249,20.0108C 17.258,19.6453 17.4462,18.1754 16.9371,16.0398C 16.1699,16.1986 15.3631,16.319 14.5404,16.4001C 14.0588,17.0721 13.5511,17.7106 13.0299,18.2957 Z M 8.08148,9.73765C 8.17923,9.56835 8.27914,9.39976 8.38105,9.23215C 8.06842,9.27914 7.76725,9.33176 7.47793,9.38932C 7.57274,9.66866 7.67776,9.9558 7.79337,10.25L 8.08148,9.73765 Z M 10.9699,5.7044C 9.37505,4.19561 8.00801,3.62382 7.37492,3.98932C 6.74193,4.35479 6.55355,5.82458 7.06267,7.96019C 7.82992,7.80137 8.6368,7.68093 9.45957,7.5998C 9.94116,6.92789 10.4489,6.2894 10.9699,5.7044 Z "/>
</svg>
