<?xml version="1.0" encoding="utf-8"?>
<!DOCTYPE svg PUBLIC "-//W3C//DTD SVG 1.1//EN" "http://www.w3.org/Graphics/SVG/1.1/DTD/svg11.dtd">
<svg xmlns="http://www.w3.org/2000/svg" xmlns:xlink="http://www.w3.org/1999/xlink" version="1.1" baseProfile="full" width="24" height="24" viewBox="0 0 24.00 24.00" enable-background="new 0 0 24.00 24.00" xml:space="preserve">
	<path fill="#000000" fill-opacity="1" stroke-width="0.2" stroke-linejoin="round" d="M 2.99939,21.998L 4.49939,20.498L 5.99939,21.998L 7.49939,20.498L 8.99939,21.998L 10.4994,20.498L 11.9994,21.998L 13.4994,20.498L 14.9994,21.998L 16.4994,20.498L 17.9994,21.998L 19.4994,20.498L 20.9994,21.998L 20.9994,1.99805L 19.4994,3.49805L 17.9994,1.99805L 16.4994,3.49805L 14.9994,1.99805L 13.4994,3.49805L 11.9994,1.99805L 10.4994,3.49805L 8.99939,1.99805L 7.49939,3.49805L 5.99939,1.99805L 4.49939,3.49805L 2.99939,1.99805M 17.9994,8.99805L 5.99939,8.99805L 5.99939,6.99805L 17.9994,6.99805M 17.9994,12.998L 5.99939,12.998L 5.99939,10.998L 17.9994,10.998M 17.9994,16.998L 5.99939,16.998L 5.99939,14.998L 17.9994,14.998L 17.9994,16.998 Z "/>
</svg>
