<?xml version="1.0" encoding="utf-8"?>
<!DOCTYPE svg PUBLIC "-//W3C//DTD SVG 1.1//EN" "http://www.w3.org/Graphics/SVG/1.1/DTD/svg11.dtd">
<svg xmlns="http://www.w3.org/2000/svg" xmlns:xlink="http://www.w3.org/1999/xlink" version="1.1" baseProfile="full" width="24" height="24" viewBox="0 0 24.00 24.00" enable-background="new 0 0 24.00 24.00" xml:space="preserve">
	<path fill="#000000" fill-opacity="1" stroke-width="0.2" stroke-linejoin="round" d="M 5.00001,17.5C 5.00001,17.7761 4.77615,18 4.50001,18L 3.50001,18C 3.22387,18 3.00001,17.7761 3.00001,17.5L 3.00001,17L 2.00001,17C 1.44773,17 1.00001,16.5523 1.00001,16L 1.00001,13C 1.00001,12.4477 1.44773,12 2.00001,12L 19,12L 19,10L 7,10L 6,11L 6,9C 6,8.44772 6.44771,8 7,8L 19,8L 19,7L 21,7L 21,8C 21.5523,8 22,8.44772 22,9L 22,10L 21,10L 21,12L 22,12C 22.5523,12 23,12.4477 23,13L 23,16C 23,16.5523 22.5523,17 22,17L 21,17L 21,17.5C 21,17.7761 20.7761,18 20.5,18L 19.5,18C 19.2239,18 19,17.7761 19,17.5L 19,17L 5.00001,17L 5.00001,17.5 Z M 3.00001,14L 3.00001,15L 5.00001,15L 5.00001,14L 3.00001,14 Z M 6.00001,14L 6.00001,15L 8.00001,15L 8.00001,14L 6.00001,14 Z M 20.5,13.5C 19.9477,13.5 19.5,13.9477 19.5,14.5C 19.5,15.0523 19.9477,15.5 20.5,15.5C 21.0523,15.5 21.5,15.0523 21.5,14.5C 21.5,13.9477 21.0523,13.5 20.5,13.5 Z "/>
</svg>
