<?xml version="1.0" encoding="utf-8"?>
<!DOCTYPE svg PUBLIC "-//W3C//DTD SVG 1.1//EN" "http://www.w3.org/Graphics/SVG/1.1/DTD/svg11.dtd">
<svg xmlns="http://www.w3.org/2000/svg" xmlns:xlink="http://www.w3.org/1999/xlink" version="1.1" baseProfile="full" width="24" height="24" viewBox="0 0 24.00 24.00" enable-background="new 0 0 24.00 24.00" xml:space="preserve">
	<path fill="#000000" fill-opacity="1" stroke-width="0.2" stroke-linejoin="round" d="M 12.5,5C 8.36,5 5,8.35875 5,12.5C 5,16.64 8.36,20 12.5,20C 16.6412,20 20,16.64 20,12.5C 20,8.35875 16.6412,5 12.5,5 Z M 7.0025,10L 8.99875,10C 9.55125,10 10,10.4488 10,11.0012L 10,12.0025C 10,12.505 9.62375,12.9 9.14125,12.9738L 10.3075,15L 9.155,15L 7.9975,12.9975L 7.9975,15L 7.0025,15M 12.0025,10L 13.9987,10L 13.9987,11.0012L 12.0025,11.0012L 12.0025,12.0025L 13.9987,12.0025L 13.9987,12.9975L 12.0025,12.9975L 12.0025,13.9987L 13.9987,13.9987L 13.9987,15L 12.0025,15C 11.445,15 11.0013,14.5513 11.0013,13.9987L 11.0013,11.0012C 11.0013,10.4488 11.445,10 12.0025,10 Z M 16.0012,10L 17.9975,10L 17.9975,11.0012L 16.0012,11.0012L 16.0012,13.9987L 17.9975,13.9987L 17.9975,15L 16.0012,15C 15.4488,15 15,14.5513 15,13.9987L 15,11.0012C 15,10.4488 15.4488,10 16.0012,10 Z M 7.9975,11.0012L 7.9975,12.0025L 8.99875,12.0025L 8.99875,11.0012"/>
</svg>
