<?xml version="1.0" encoding="utf-8"?>
<!DOCTYPE svg PUBLIC "-//W3C//DTD SVG 1.1//EN" "http://www.w3.org/Graphics/SVG/1.1/DTD/svg11.dtd">
<svg xmlns="http://www.w3.org/2000/svg" xmlns:xlink="http://www.w3.org/1999/xlink" version="1.1" baseProfile="full" width="24" height="24" viewBox="0 0 24.00 24.00" enable-background="new 0 0 24.00 24.00" xml:space="preserve">
	<path fill="#000000" fill-opacity="1" stroke-linejoin="round" d="M 9,11.75C 9.69035,11.75 10.25,12.3096 10.25,13C 10.25,13.6904 9.69036,14.25 9,14.25C 8.30964,14.25 7.75,13.6904 7.75,13C 7.75,12.3096 8.30964,11.75 9,11.75 Z M 15,11.75C 15.6903,11.75 16.25,12.3097 16.25,13C 16.25,13.6904 15.6903,14.25 15,14.25C 14.3096,14.25 13.75,13.6904 13.75,13C 13.75,12.3097 14.3096,11.75 15,11.75 Z M 19,3.00001C 20.1046,3.00001 21,3.89544 21,5.00001C 21,6.10458 20.1046,7.00001 19,7.00001C 17.8954,7.00001 17,6.10458 17.0001,4.97915L 13.557,4.05658L 12.4977,8.00978C 14.5558,8.0908 16.4298,8.6712 17.8915,9.5861C 18.3263,9.22035 18.8874,9.00001 19.5,9.00001C 20.8807,9.00001 22,10.1193 22,11.5C 22,12.3586 21.5672,13.1161 20.9078,13.5662L 21,14.5C 21,18.0899 16.9706,21 12,21C 7.02944,21 3,18.0899 3,14.5L 3.09218,13.5662C 2.43282,13.1161 2,12.3586 2,11.5C 2,10.1193 3.11929,9 4.5,9C 5.1126,9 5.67374,9.22034 6.10849,9.5861C 7.56064,8.67716 9.41977,8.09838 11.462,8.01143L 12.7205,3.3148C 12.792,3.04807 13.0661,2.88978 13.3329,2.96124L 17.2598,4.01347C 17.6037,3.40825 18.2542,3.00001 19,3.00001 Z M 19,4.00001C 18.4477,4.00001 18,4.44773 18,5.00001C 18,5.55229 18.4477,6.00001 19,6.00001C 19.5523,6.00001 20,5.55229 20,5.00001C 20,4.44773 19.5523,4.00001 19,4.00001 Z M 12,9C 7.58172,9 4,11.4624 4,14.5C 4,17.5376 7.58172,20 12,20C 16.4183,20 20,17.5376 20,14.5C 20,11.4624 16.4183,9 12,9 Z M 4.5,10C 3.67157,10 3,10.6716 3,11.5C 3,11.9029 3.1588,12.2686 3.41722,12.5381C 3.7996,11.6647 4.43047,10.8712 5.2499,10.2006C 5.02929,10.073 4.77317,10 4.5,10 Z M 21,11.5C 21,10.6716 20.3284,10 19.5,10C 19.2268,10 18.9707,10.073 18.7501,10.2006C 19.5695,10.8712 20.2004,11.6647 20.5828,12.5381C 20.8412,12.2686 21,11.9029 21,11.5 Z M 8.78379,16.3395C 10,17.25 14,17.25 15.2162,16.3395C 15.4424,16.1811 15.7541,16.2361 15.9125,16.4623C 16.0709,16.6885 16.0159,17.0003 15.7897,17.1587C 14,18.25 10,18.25 8.21021,17.1586C 7.98401,17.0003 7.92904,16.6885 8.08743,16.4623C 8.24581,16.2361 8.55759,16.1811 8.78379,16.3395 Z "/>
</svg>
