<?xml version="1.0" encoding="utf-8"?>
<!DOCTYPE svg PUBLIC "-//W3C//DTD SVG 1.1//EN" "http://www.w3.org/Graphics/SVG/1.1/DTD/svg11.dtd">
<svg xmlns="http://www.w3.org/2000/svg" xmlns:xlink="http://www.w3.org/1999/xlink" version="1.1" baseProfile="full" width="24" height="24" viewBox="0 0 24.00 24.00" enable-background="new 0 0 24.00 24.00" xml:space="preserve">
	<path fill="#000000" fill-opacity="1" stroke-width="1.33333" stroke-linejoin="miter" d="M 22,12.1435C 22,10.9248 21.0145,9.9571 19.8136,9.9571C 19.2224,9.9571 18.6845,10.1899 18.2904,10.5664C 16.7851,9.4911 14.724,8.7922 12.4301,8.7027L 13.4336,4.0073L 16.6953,4.7061C 16.7313,5.5306 17.4121,6.1937 18.2546,6.1937C 19.1148,6.1937 19.8136,5.4948 19.8136,4.6343C 19.8136,3.7741 19.1148,3.0753 18.2546,3.0753C 17.6453,3.0753 17.1075,3.4337 16.8566,3.9535L 13.2188,3.1829C 13.1112,3.1648 13.0037,3.1829 12.9318,3.2366C 12.8423,3.2904 12.7885,3.3799 12.7708,3.4875L 11.6594,8.7204C 9.32976,8.7922 7.23292,9.4911 5.70964,10.5844C 5.31546,10.208 4.77764,9.9751 4.18637,9.9751C 2.96775,9.9751 2,10.9606 2,12.1615C 2,13.0574 2.53749,13.81 3.29044,14.1508C 3.25436,14.3656 3.23666,14.5807 3.23666,14.8139C 3.23666,18.1828 7.16143,20.925 12.0002,20.925C 16.8389,20.925 20.7637,18.2008 20.7637,14.8139C 20.7637,14.5987 20.7456,14.3656 20.7099,14.1508C 21.4625,13.81 22,13.0394 22,12.1435 Z M 6.98204,13.7025C 6.98204,12.8423 7.68088,12.1435 8.5414,12.1435C 9.40158,12.1435 10.1004,12.8423 10.1004,13.7025C 10.1004,14.5627 9.40158,15.2618 8.5414,15.2618C 7.68088,15.2795 6.98204,14.5627 6.98204,13.7025 Z M 15.7098,17.8424C 14.6345,18.9177 12.5914,18.9895 12.0002,18.9895C 11.3909,18.9895 9.3478,18.8996 8.29019,17.8424C 8.12918,17.681 8.12918,17.4301 8.29019,17.2688C 8.45154,17.1078 8.70241,17.1078 8.86376,17.2688C 9.54489,17.9499 10.9786,18.1828 12.0002,18.1828C 13.0217,18.1828 14.4731,17.9499 15.1362,17.2688C 15.2976,17.1078 15.5485,17.1078 15.7098,17.2688C 15.8531,17.4301 15.8531,17.681 15.7098,17.8424 Z M 15.4229,15.2795C 14.5627,15.2795 13.8638,14.5807 13.8638,13.7205C 13.8638,12.8603 14.5627,12.1615 15.4229,12.1615C 16.2834,12.1615 16.9822,12.8603 16.9822,13.7205C 16.9822,14.5626 16.2834,15.2795 15.4229,15.2795 Z "/>
</svg>
