<?xml version="1.0" encoding="utf-8"?>
<!DOCTYPE svg PUBLIC "-//W3C//DTD SVG 1.1//EN" "http://www.w3.org/Graphics/SVG/1.1/DTD/svg11.dtd">
<svg xmlns="http://www.w3.org/2000/svg" xmlns:xlink="http://www.w3.org/1999/xlink" version="1.1" baseProfile="full" width="24" height="24" viewBox="0 0 24.00 24.00" enable-background="new 0 0 24.00 24.00" xml:space="preserve">
	<path fill="#000000" fill-opacity="1" stroke-linejoin="round" d="M 10.5,7C 6.91015,7 4,9.91015 4,13.5C 4,17.0899 6.91015,20 10.5,20L 14,20L 14,18L 10.5,18C 8.01472,18 6,15.9853 6,13.5C 6,11.0147 8.01472,9 10.5,9L 16.17,9L 13.09,12.09L 14.5,13.5L 20,8L 14.5,2.50005L 13.08,3.91005L 16.17,7L 10.5,7 Z M 18,18L 16,18L 16,20L 18,20L 18,18 Z "/>
</svg>
