<?xml version="1.0" encoding="utf-8"?>
<!DOCTYPE svg PUBLIC "-//W3C//DTD SVG 1.1//EN" "http://www.w3.org/Graphics/SVG/1.1/DTD/svg11.dtd">
<svg xmlns="http://www.w3.org/2000/svg" xmlns:xlink="http://www.w3.org/1999/xlink" version="1.1" baseProfile="full" width="24" height="24" viewBox="0 0 24.00 24.00" enable-background="new 0 0 24.00 24.00" xml:space="preserve">
	<path fill="#000000" fill-opacity="1" stroke-width="1.33333" stroke-linejoin="miter" d="M 22.019,20L 14.0021,20C 13.4482,20 13,19.5518 13,18.9979L 13,4.96834C 13,4.51378 13.3053,4.11645 13.7448,4C 14.188,3.88105 14.6471,4.07686 14.8721,4.47119L 22.889,18.5007C 23.0661,18.811 23.0651,19.1917 22.886,19.5009C 22.7059,19.8101 22.3761,20 22.019,20 Z M 1.98101,20C 1.62385,20 1.29406,19.8101 1.11398,19.5009C 0.934903,19.1917 0.933899,18.811 1.11097,18.5007L 9.12786,4.47119C 9.35293,4.07686 9.812,3.88105 10.2552,4C 10.6947,4.11645 11,4.51378 11,4.96834L 11,18.9979C 11,19.5518 10.5518,20 9.99789,20L 1.98101,20 Z M 8.99578,17.9958L 8.99578,8.74189L 3.70824,17.9958L 8.99578,17.9958 Z "/>
</svg>
