<?xml version="1.0" encoding="utf-8"?>
<!DOCTYPE svg PUBLIC "-//W3C//DTD SVG 1.1//EN" "http://www.w3.org/Graphics/SVG/1.1/DTD/svg11.dtd">
<svg xmlns="http://www.w3.org/2000/svg" xmlns:xlink="http://www.w3.org/1999/xlink" version="1.1" baseProfile="full" width="24" height="24" viewBox="0 0 24.00 24.00" enable-background="new 0 0 24.00 24.00" xml:space="preserve">
	<path fill="#000000" fill-opacity="1" stroke-width="1.33333" stroke-linejoin="miter" d="M 18.0132,23L 5.9868,23C 5.60706,23 5.26011,22.7857 5.0903,22.4461C 4.92049,22.1064 4.9572,21.7002 5.18524,21.3969L 11.1985,13.3788C 11.5762,12.8737 12.4238,12.8737 12.8016,13.3788L 18.8148,21.3969C 19.0428,21.7002 19.0791,22.1064 18.9097,22.4461C 18.7394,22.7857 18.393,23 18.0132,23 Z M 18.0131,1.00014C 18.3928,1.00014 18.7392,1.21448 18.9095,1.55408C 19.0789,1.89368 19.0426,2.29986 18.8146,2.60322L 12.8016,10.6211C 12.4238,11.1261 11.5762,11.1261 11.1985,10.6211L 5.18543,2.60322C 4.9574,2.29986 4.92069,1.89368 5.0905,1.55408C 5.2603,1.21448 5.60724,1.00014 5.98697,1.00014L 18.0131,1.00014 Z M 7.99132,3.00449L 12,8.34958L 16.0087,3.00449L 7.99132,3.00449 Z "/>
</svg>
