<?xml version="1.0" encoding="utf-8"?>
<!DOCTYPE svg PUBLIC "-//W3C//DTD SVG 1.1//EN" "http://www.w3.org/Graphics/SVG/1.1/DTD/svg11.dtd">
<svg xmlns="http://www.w3.org/2000/svg" xmlns:xlink="http://www.w3.org/1999/xlink" version="1.1" baseProfile="full" width="24" height="24" viewBox="0 0 24.00 24.00" enable-background="new 0 0 24.00 24.00" xml:space="preserve">
	<path fill="#000000" fill-opacity="1" stroke-width="0.2" stroke-linejoin="round" d="M 11.9994,17.998C 8.68542,17.998 5.99942,15.3121 5.99942,11.998C 5.99942,10.985 6.25242,10.032 6.69642,9.19507L 5.23742,7.73602C 4.45743,8.97107 3.99942,10.4301 3.99942,11.998C 3.99942,16.4161 7.58142,19.998 11.9994,19.998L 11.9994,22.998L 15.9994,18.998L 11.9994,14.998M 11.9994,3.99805L 11.9994,0.998047L 7.99942,4.99805L 11.9994,8.99805L 11.9994,5.99805C 15.3134,5.99805 17.9994,8.68402 17.9994,11.998C 17.9994,13.011 17.7464,13.9641 17.3024,14.801L 18.7614,16.2601C 19.5414,15.025 19.9994,13.566 19.9994,11.998C 19.9994,7.58002 16.4174,3.99805 11.9994,3.99805 Z "/>
</svg>
