<?xml version="1.0" encoding="utf-8"?>
<!DOCTYPE svg PUBLIC "-//W3C//DTD SVG 1.1//EN" "http://www.w3.org/Graphics/SVG/1.1/DTD/svg11.dtd">
<svg xmlns="http://www.w3.org/2000/svg" xmlns:xlink="http://www.w3.org/1999/xlink" version="1.1" baseProfile="full" width="24" height="24" viewBox="0 0 24.00 24.00" enable-background="new 0 0 24.00 24.00" xml:space="preserve">
	<path fill="#000000" fill-opacity="1" stroke-width="1.33333" stroke-linejoin="miter" d="M 12,2C 6.477,2 2,6.477 2,12C 2,17.523 6.477,22 12,22C 17.523,22 22,17.523 22,12C 22,6.477 17.523,2 12,2 Z M 12,20C 7.59,20 4,16.41 4,12C 4,7.59 7.59,4 12,4C 16.41,4 20,7.59 20,12C 20,16.41 16.41,20 12,20 Z M 12.246,13.271L 10.807,13.271L 10.807,16.481L 9,16.481L 9,7.711L 12.258,7.711C 13.294,7.711 14.093,7.942 14.655,8.404C 15.217,8.866 15.498,9.518 15.498,10.362C 15.498,10.96 15.369,11.459 15.11,11.859C 14.851,12.259 14.459,12.577 13.933,12.814L 15.83,16.398L 15.83,16.482L 13.891,16.482L 12.246,13.271 Z M 10.807,11.807L 12.265,11.807C 12.719,11.807 13.07,11.692 13.319,11.461C 13.568,11.23 13.692,10.912 13.692,10.506C 13.692,10.092 13.575,9.767 13.34,9.53C 13.105,9.293 12.745,9.175 12.259,9.175L 10.807,9.175L 10.807,11.807 Z "/>
</svg>
