<?xml version="1.0" encoding="utf-8"?>
<!DOCTYPE svg PUBLIC "-//W3C//DTD SVG 1.1//EN" "http://www.w3.org/Graphics/SVG/1.1/DTD/svg11.dtd">
<svg xmlns="http://www.w3.org/2000/svg" xmlns:xlink="http://www.w3.org/1999/xlink" version="1.1" baseProfile="full" width="24" height="24" viewBox="0 0 24.00 24.00" enable-background="new 0 0 24.00 24.00" xml:space="preserve">
	<path fill="#000000" fill-opacity="1" stroke-width="0.2" stroke-linejoin="round" d="M 19.9993,17.9981L 3.9993,17.9991L 3.9993,5.99807L 19.9993,5.99807M 19.9993,3.99807L 3.9993,3.99807C 2.89429,3.99807 1.9993,4.89307 1.9993,5.99807L 1.9993,17.9981C 1.9993,19.1031 2.89429,19.9981 3.9993,19.9981L 19.9993,19.9981C 21.1033,19.9981 21.9993,19.1031 21.9993,17.9981L 21.9993,5.99807C 21.9993,4.89307 21.1033,3.99807 19.9993,3.99807 Z M 11.9993,9.99807L 9.9993,9.99807L 9.9993,11.9981L 11.9993,11.9981M 7.9993,9.99807L 5.9993,9.99807L 5.9993,11.9981L 7.9993,11.9981M 15.9993,13.9981L 13.9993,13.9981L 13.9993,15.9981L 15.9993,15.9981M 15.9993,9.99807L 13.9993,9.99807L 13.9993,11.9981L 15.9993,11.9981L 15.9993,9.99807 Z "/>
</svg>
