<?xml version="1.0" encoding="utf-8"?>
<!DOCTYPE svg PUBLIC "-//W3C//DTD SVG 1.1//EN" "http://www.w3.org/Graphics/SVG/1.1/DTD/svg11.dtd">
<svg xmlns="http://www.w3.org/2000/svg" xmlns:xlink="http://www.w3.org/1999/xlink" version="1.1" baseProfile="full" width="24" height="24" viewBox="0 0 24.00 24.00" enable-background="new 0 0 24.00 24.00" xml:space="preserve">
	<path fill="#000000" fill-opacity="1" stroke-width="0.2" stroke-linejoin="round" d="M 18.9918,11.9965L 22.3152,11.9965L 17.3654,16.9462L 12.4157,11.9965L 16.9694,11.9965C 16.9765,10.462 16.4179,8.92762 15.2441,7.75382C 12.9036,5.4133 9.09935,5.4133 6.75882,7.75382C 4.4183,10.0943 4.4183,13.8986 6.75883,16.2391C 8.60437,18.0846 11.3551,18.4736 13.5824,17.4058L 15.0532,18.8766C 11.9842,20.6867 7.98212,20.2908 5.34461,17.6533C 2.2192,14.5279 2.22628,9.47209 5.35168,6.34668C 8.47704,3.22133 13.5329,3.2142 16.6583,6.33961C 18.221,7.90231 18.9918,9.94585 18.9918,11.9965 Z "/>
</svg>
