<?xml version="1.0" encoding="utf-8"?>
<!DOCTYPE svg PUBLIC "-//W3C//DTD SVG 1.1//EN" "http://www.w3.org/Graphics/SVG/1.1/DTD/svg11.dtd">
<svg xmlns="http://www.w3.org/2000/svg" xmlns:xlink="http://www.w3.org/1999/xlink" version="1.1" baseProfile="full" width="24" height="24" viewBox="0 0 24.00 24.00" enable-background="new 0 0 24.00 24.00" xml:space="preserve">
	<path fill="#000000" fill-opacity="1" stroke-width="1.33333" stroke-linejoin="miter" d="M 7.25,3C 7.90309,3 8.50744,3.20869 9,3.56302L 9,3.00001C 9,1.89544 9.89543,1.00002 11,1.00002C 12.1046,1.00002 13,1.89544 13,3.00001L 13,3.57329C 13.4926,3.21896 14.0969,3.01027 14.75,3.01027C 16.4069,3.01027 17.75,4.35341 17.75,6.01027C 17.75,7.58294 16.5399,8.87296 15,9L 13,9L 13,10L 14.2396,10L 14.7188,10.125L 19.3125,12.4219C 20.125,12.7344 20.5313,13.3437 20.5313,14.25L 20.5078,14.3906L 20.4844,14.5312L 19.5,21.2812C 19.4375,21.75 19.2188,22.1562 18.8438,22.5C 18.4688,22.8437 18.0469,23.0156 17.5781,23.0156L 9.98438,23.0156C 9.45313,23.0156 8.98438,22.8125 8.57813,22.4062L 2.01563,15.8437L 3.04688,14.7656C 3.32813,14.4844 3.6875,14.3437 4.125,14.3437L 4.45313,14.3437L 9,15.3281L 9,10L 9,9L 7,9L 7,8.98973C 5.46012,8.86269 4.25,7.57267 4.25,6C 4.25,4.34315 5.59315,3 7.25,3 Z M 9,6.00001C 9,5.03351 8.2165,4.25001 7.25,4.25001C 6.2835,4.25001 5.5,5.03351 5.5,6.00001C 5.5,6.88162 6.15192,7.61098 7,7.73228L 7,7.75L 9,7.75L 9,6.00001 Z M 15,7.75L 15,7.74255C 15.8481,7.62124 16.5,6.89189 16.5,6.01027C 16.5,5.04378 15.7165,4.26027 14.75,4.26027C 13.7835,4.26027 13,5.04378 13,6.01027L 13,7.75L 15,7.75 Z "/>
</svg>
