<?xml version="1.0" encoding="utf-8"?>
<!DOCTYPE svg PUBLIC "-//W3C//DTD SVG 1.1//EN" "http://www.w3.org/Graphics/SVG/1.1/DTD/svg11.dtd">
<svg xmlns="http://www.w3.org/2000/svg" xmlns:xlink="http://www.w3.org/1999/xlink" version="1.1" baseProfile="full" width="24" height="24" viewBox="0 0 24.00 24.00" enable-background="new 0 0 24.00 24.00" xml:space="preserve">
	<path fill="#000000" fill-opacity="1" stroke-width="0.2" stroke-linejoin="miter" d="M 9,2C 7.89,2 7,2.89 7,4L 7,20C 7,21.11 7.89,22 9,22L 15,22C 16.11,22 17,21.11 17,20L 17,4C 17,2.89 16.11,2 15,2L 13,2L 13,4L 11,4L 11,2L 9,2 Z M 11,6L 13,6L 13,8L 15,8L 15,10L 13,10L 13,12L 11,12L 11,10L 9,10L 9,8L 11,8L 11,6 Z M 9,14L 11,14L 11,16L 9,16L 9,14 Z M 13,14L 15,14L 15,16L 13,16L 13,14 Z M 9,18L 11,18L 11,20L 9,20L 9,18 Z M 13,18L 15,18L 15,20L 13,20L 13,18 Z "/>
</svg>
