<?xml version="1.0" encoding="utf-8"?>
<!DOCTYPE svg PUBLIC "-//W3C//DTD SVG 1.1//EN" "http://www.w3.org/Graphics/SVG/1.1/DTD/svg11.dtd">
<svg xmlns="http://www.w3.org/2000/svg" xmlns:xlink="http://www.w3.org/1999/xlink" version="1.1" baseProfile="full" width="24" height="24" viewBox="0 0 24.00 24.00" enable-background="new 0 0 24.00 24.00" xml:space="preserve">
	<path fill="#000000" fill-opacity="1" stroke-width="1.33333" stroke-linejoin="miter" d="M 2.9975,1.9975C 1.895,1.9975 1.00125,2.895 1.00125,3.9987L 1.00125,15.9963C 1.00125,17.105 1.895,17.9975 2.9975,17.9975L 10,17.9975L 10,20L 7.9975,20L 7.9975,21.9975L 16.0012,21.9975L 16.0012,20L 13.9987,20L 13.9987,17.9975L 21.0013,17.9975C 22.1045,17.9975 22.9975,17.105 22.9975,15.9963L 22.9975,3.9987C 22.9975,2.895 22.1045,1.9975 21.0013,1.9975M 2.9975,3.9987L 21.0013,3.9987L 21.0013,15.9963L 2.9975,15.9963M 15,5L 11.4987,8.5013L 15,12.0025L 16.4013,10.6L 14.3013,8.5013L 16.4013,6.4012M 8.99875,7.9975L 7.5975,9.4L 9.6975,11.4987L 7.5975,13.5988L 8.99875,15L 12.5,11.4987"/>
</svg>
