<?xml version="1.0" encoding="utf-8"?>
<!DOCTYPE svg PUBLIC "-//W3C//DTD SVG 1.1//EN" "http://www.w3.org/Graphics/SVG/1.1/DTD/svg11.dtd">
<svg xmlns="http://www.w3.org/2000/svg" xmlns:xlink="http://www.w3.org/1999/xlink" version="1.1" baseProfile="full" width="24" height="24" viewBox="0 0 24.00 24.00" enable-background="new 0 0 24.00 24.00" xml:space="preserve">
	<path fill="#000000" fill-opacity="1" stroke-width="1.33333" stroke-linejoin="miter" d="M 2,5.2685L 3.27711,4L 21,21.7229L 19.7315,23L 16.005,19.2735L 16.005,22C 16.005,22.55 15.555,23 15.005,23L 9.005,23C 8.455,23 8.005,22.55 8.005,22L 8.005,11.2735L 2,5.2685 Z M 12.005,0C 15.045,0 17.795,1.23 19.775,3.23L 18.365,4.64C 16.7452,3.0098 14.495,2 12.005,2C 9.72388,2 7.64418,2.8475 6.05807,4.2354L 4.64455,2.8219C 6.59316,1.0672 9.17326,0 12.005,0 Z M 12.005,4C 13.935,4 15.685,4.78 16.955,6.05L 15.545,7.46C 14.635,6.56 13.385,6 12.005,6C 10.8332,6 9.75511,6.4038 8.89934,7.0767L 7.48064,5.6579C 8.70315,4.6214 10.2824,4 12.005,4 Z M 15.005,9C 15.555,9 16.005,9.45 16.005,10L 16.005,14.1823L 13.5161,11.6934L 13.3116,11.4889L 10.8227,9L 15.005,9 Z M 10.0269,13.2954C 10.1564,14.1602 10.8448,14.8486 11.7096,14.9781L 10.0269,13.2954 Z "/>
</svg>
