<?xml version="1.0" encoding="utf-8"?>
<!DOCTYPE svg PUBLIC "-//W3C//DTD SVG 1.1//EN" "http://www.w3.org/Graphics/SVG/1.1/DTD/svg11.dtd">
<svg xmlns="http://www.w3.org/2000/svg" xmlns:xlink="http://www.w3.org/1999/xlink" version="1.1" baseProfile="full" width="24" height="24" viewBox="0 0 24.00 24.00" enable-background="new 0 0 24.00 24.00" xml:space="preserve">
	<path fill="#000000" fill-opacity="1" stroke-width="0.2" stroke-linejoin="round" d="M 2,5.26848L 3.27711,4L 20,20.7229L 18.7315,22L 15.7315,19L 7,19L 7,22L 3,18L 7,14L 7,17L 13.7315,17L 7,10.2685L 7,11L 5,11L 5,8.26848L 2,5.26848 Z M 17,13L 19,13L 19,17.1773L 17,15.1773L 17,13 Z M 17,5.00001L 17,2.00001L 21,6.00001L 17,10L 17,7.00001L 8.82269,7.00001L 6.82269,5.00001L 17,5.00001 Z "/>
</svg>
