<?xml version="1.0" encoding="utf-8"?>
<!DOCTYPE svg PUBLIC "-//W3C//DTD SVG 1.1//EN" "http://www.w3.org/Graphics/SVG/1.1/DTD/svg11.dtd">
<svg xmlns="http://www.w3.org/2000/svg" xmlns:xlink="http://www.w3.org/1999/xlink" version="1.1" baseProfile="full" width="24" height="24" viewBox="0 0 24.00 24.00" enable-background="new 0 0 24.00 24.00" xml:space="preserve">
	<path fill="#000000" fill-opacity="1" stroke-linejoin="round" d="M 11,9.80267L 11,10.6973L 12.6973,10.9013C 15.3027,11.3027 17.1973,12.3027 18.5987,13.5987C 16.9013,13.0987 15.0987,12.8027 13,12.8027L 11,12.8027L 11,14.0987L 8.80267,12L 11,9.80267 Z M 13,5L 6,12L 13,19L 13,14.9013C 18,14.9013 21.5,16.5 24,20C 23,15 20,10 13,9M 7,8L 7,5L 0,12L 7,19L 7,16L 3,12"/>
</svg>
