<?xml version="1.0" encoding="utf-8"?>
<!DOCTYPE svg PUBLIC "-//W3C//DTD SVG 1.1//EN" "http://www.w3.org/Graphics/SVG/1.1/DTD/svg11.dtd">
<svg xmlns="http://www.w3.org/2000/svg" xmlns:xlink="http://www.w3.org/1999/xlink" version="1.1" baseProfile="full" width="24" height="24" viewBox="0 0 24.00 24.00" enable-background="new 0 0 24.00 24.00" xml:space="preserve">
	<path fill="#000000" fill-opacity="1" stroke-width="1.33333" stroke-linejoin="miter" d="M 10.5858,12L 14.5858,8L 11,8L 11,6L 18,6L 18,13L 16,13L 16,9.41423L 12,13.4142L 12,16L 20,16L 20,4L 7.99999,4.00001L 7.99999,12L 10.5858,12 Z M 22,2L 22,18L 12,18L 12,22L 2,22L 2,12L 5.99999,12L 5.99999,2.00002L 22,2 Z M 9.99999,14L 4,14L 4,20L 10,20L 9.99999,14 Z "/>
</svg>
