<?xml version="1.0" encoding="utf-8"?>
<!DOCTYPE svg PUBLIC "-//W3C//DTD SVG 1.1//EN" "http://www.w3.org/Graphics/SVG/1.1/DTD/svg11.dtd">
<svg xmlns="http://www.w3.org/2000/svg" xmlns:xlink="http://www.w3.org/1999/xlink" version="1.1" baseProfile="full" width="24" height="24" viewBox="0 0 24.00 24.00" enable-background="new 0 0 24.00 24.00" xml:space="preserve">
	<path fill="#000000" fill-opacity="1" stroke-width="0.2" stroke-linejoin="round" d="M 22,22L 20,22L 20,20L 22,20L 22,22 Z M 22,18L 20,18L 20,16L 22,16L 22,18 Z M 18,22L 16,22L 16,20L 18,20L 18,22 Z M 18,18L 16,18L 16,16L 18,16L 18,18 Z M 14,22L 12,22L 12,20L 14,20L 14,22 Z M 22,14L 20,14L 20,12L 22,12L 22,14 Z "/>
</svg>
