<?xml version="1.0" encoding="utf-8"?>
<!DOCTYPE svg PUBLIC "-//W3C//DTD SVG 1.1//EN" "http://www.w3.org/Graphics/SVG/1.1/DTD/svg11.dtd">
<svg xmlns="http://www.w3.org/2000/svg" xmlns:xlink="http://www.w3.org/1999/xlink" version="1.1" baseProfile="full" width="24" height="24" viewBox="0 0 24.00 24.00" enable-background="new 0 0 24.00 24.00" xml:space="preserve">
	<path fill="#000000" fill-opacity="1" stroke-width="0.2" stroke-linejoin="miter" d="M 2,11L 3.67071,11C 4.08254,9.83481 5.19378,9 6.5,9C 8.15685,9 9.5,10.3431 9.5,12C 9.5,12.6502 9.29313,13.2522 8.94161,13.7435L 10.0669,15.3506L 13.1113,3.98886L 14.6088,6.12751L 16.6964,9.10886L 17.5,9.00001C 18.8062,9.00001 19.9175,9.83481 20.3293,11L 22,11L 22,13L 20.3293,13C 19.9175,14.1652 18.8062,15 17.5,15C 15.8431,15 14.5,13.6569 14.5,12C 14.5,11.3498 14.7069,10.7478 15.0584,10.2565L 13.9331,8.64936L 10.8887,20.0112L 7.30363,14.8911C 7.04786,14.9621 6.77836,15 6.5,15C 5.19378,15 4.08254,14.1652 3.67071,13L 2,13L 2,11 Z M 17.5,10.5C 16.6716,10.5 16,11.1716 16,12C 16,12.8284 16.6716,13.5 17.5,13.5C 18.3284,13.5 19,12.8284 19,12C 19,11.1716 18.3284,10.5 17.5,10.5 Z M 6.5,10.5C 5.67158,10.5 5,11.1716 5,12C 5,12.8284 5.67157,13.5 6.5,13.5C 7.32842,13.5 8,12.8284 8,12C 8,11.1716 7.32842,10.5 6.5,10.5 Z "/>
</svg>
