<?xml version="1.0" encoding="utf-8"?>
<!DOCTYPE svg PUBLIC "-//W3C//DTD SVG 1.1//EN" "http://www.w3.org/Graphics/SVG/1.1/DTD/svg11.dtd">
<svg xmlns="http://www.w3.org/2000/svg" xmlns:xlink="http://www.w3.org/1999/xlink" version="1.1" baseProfile="full" width="24" height="24" viewBox="0 0 24.00 24.00" enable-background="new 0 0 24.00 24.00" xml:space="preserve">
	<path fill="#000000" fill-opacity="1" stroke-width="1.33333" stroke-linejoin="miter" d="M 12,4C 14.1,4 16.1,4.8 17.6,6.3C 20.7,9.4 20.7,14.5 17.6,17.6C 15.8,19.5 13.3,20.2 10.9,19.9L 11.4,17.9C 13.1,18.1 14.9,17.5 16.2,16.2C 18.5,13.9 18.5,10.1 16.2,7.7C 15.1,6.6 13.5,6 12,6L 12,10.6L 7,5.6L 12,0.599998L 12,4M 6.3,17.6C 3.7,15 3.3,11 5.1,7.9L 6.6,9.4C 5.5,11.6 5.9,14.4 7.8,16.2C 8.3,16.7 8.9,17.1 9.6,17.4L 9,19.4C 8,19 7.1,18.4 6.3,17.6 Z "/>
</svg>
