<?xml version="1.0" encoding="utf-8"?>
<!DOCTYPE svg PUBLIC "-//W3C//DTD SVG 1.1//EN" "http://www.w3.org/Graphics/SVG/1.1/DTD/svg11.dtd">
<svg xmlns="http://www.w3.org/2000/svg" xmlns:xlink="http://www.w3.org/1999/xlink" version="1.1" baseProfile="full" width="24" height="24" viewBox="0 0 24.00 24.00" enable-background="new 0 0 24.00 24.00" xml:space="preserve">
	<path fill="#000000" fill-opacity="1" stroke-width="0.2" stroke-linejoin="round" d="M 10.9946,3.9993C 13.0452,3.9993 15.0888,4.77005 16.6515,6.33275C 19.7769,9.45816 19.7697,14.514 16.6444,17.6394C 14.8067,19.4771 12.3015,20.2367 9.91388,19.9153L 10.4373,17.9619C 12.1535,18.1207 13.9253,17.5442 15.2372,16.2322C 17.5778,13.8917 17.5778,10.0875 15.2372,7.74697C 14.0634,6.57317 12.529,6.01455 10.9946,6.02163L 10.9946,10.5754L 6.04487,5.62564L 10.9946,0.675901L 10.9946,3.9993 Z M 5.33775,17.6464C 2.70025,15.0089 2.30438,11.0068 4.11446,7.93788L 5.58524,9.40866C 4.51746,11.636 4.90642,14.3867 6.75197,16.2322C 7.27403,16.7543 7.86892,17.1599 8.50415,17.4491L 7.98078,19.4023C 7.01945,19.0123 6.11839,18.4271 5.33775,17.6464 Z "/>
</svg>
