<?xml version="1.0" encoding="utf-8"?>
<!DOCTYPE svg PUBLIC "-//W3C//DTD SVG 1.1//EN" "http://www.w3.org/Graphics/SVG/1.1/DTD/svg11.dtd">
<svg xmlns="http://www.w3.org/2000/svg" xmlns:xlink="http://www.w3.org/1999/xlink" version="1.1" baseProfile="full" width="24" height="24" viewBox="0 0 24.00 24.00" enable-background="new 0 0 24.00 24.00" xml:space="preserve">
	<path fill="#000000" fill-opacity="1" stroke-width="1.33333" stroke-linejoin="miter" d="M 13,3C 8.03,3 4,7.03 4,12L 1,12L 4.89,15.89L 4.96,16.03L 9,12L 6,12C 6,8.13 9.13,5 13,5C 16.87,5 20,8.13 20,12C 20,15.87 16.87,19 13,19C 11.07,19 9.32,18.21 8.06,16.94L 6.64,18.36C 8.27,19.99 10.51,21 13,21C 17.97,21 22,16.97 22,12C 22,7.03 17.97,3 13,3 Z M 12,8L 12,13L 16.28,15.54L 17,14.33L 13.5,12.25L 13.5,8L 12,8 Z "/>
</svg>
