<?xml version="1.0" encoding="utf-8"?>
<!DOCTYPE svg PUBLIC "-//W3C//DTD SVG 1.1//EN" "http://www.w3.org/Graphics/SVG/1.1/DTD/svg11.dtd">
<svg xmlns="http://www.w3.org/2000/svg" xmlns:xlink="http://www.w3.org/1999/xlink" version="1.1" baseProfile="full" width="24" height="24" viewBox="0 0 24.00 24.00" enable-background="new 0 0 24.00 24.00" xml:space="preserve">
	<path fill="#000000" fill-opacity="1" stroke-width="0.2" stroke-linejoin="miter" d="M 19,14L 19,20C 19,21.105 18.105,22 17,22L 15,22C 13.895,22 13,21.105 13,20L 13,14C 13,12.895 13.895,12 15,12L 17,12C 18.105,12 19,12.895 19,14 Z M 15,14L 15,20L 17,20L 17,14L 15,14 Z M 11,20C 11,21.11 10.1,22 9,22L 5,22L 5,20L 9,20L 9,18L 7,18L 7,16L 9,16L 9,14L 5,14L 5,12L 9,12C 10.1,12 11,12.89 11,14L 11,15.5C 11,16.33 10.3301,17 9.5,17C 10.3301,17 11,17.67 11,18.5L 11,20 Z M 12.5,3C 17.15,3 21.0801,6.03 22.47,10.22L 20.1,11C 19.05,7.81 16.04,5.5 12.5,5.5C 10.54,5.5 8.77,6.22001 7.37999,7.38L 10,10L 3,10L 3,3L 5.6,5.6C 7.44999,3.99 9.85,3 12.5,3 Z "/>
</svg>
