<?xml version="1.0" encoding="utf-8"?>
<!DOCTYPE svg PUBLIC "-//W3C//DTD SVG 1.1//EN" "http://www.w3.org/Graphics/SVG/1.1/DTD/svg11.dtd">
<svg xmlns="http://www.w3.org/2000/svg" xmlns:xlink="http://www.w3.org/1999/xlink" version="1.1" baseProfile="full" width="24" height="24" viewBox="0 0 24.00 24.00" enable-background="new 0 0 24.00 24.00" xml:space="preserve">
	<path fill="#000000" fill-opacity="1" stroke-width="0.2" stroke-linejoin="miter" d="M 12.5,3.00001C 17.15,3.00001 21.0801,6.03 22.47,10.22L 20.1,11C 19.05,7.81001 16.04,5.50001 12.5,5.50001C 10.54,5.50001 8.77,6.22001 7.37999,7.38L 10,10L 3,10L 3,3.00001L 5.6,5.60001C 7.44999,3.99 9.85,3.00001 12.5,3.00001 Z M 10,12L 10,22L 8,22L 8,14L 6,14L 6,12L 10,12 Z M 18,14L 18,20C 18,21.105 17.105,22 16,22L 14,22C 12.895,22 12,21.105 12,20L 12,14C 12,12.895 12.895,12 14,12L 16,12C 17.105,12 18,12.895 18,14 Z M 14,14L 14,20L 16,20L 16,14L 14,14 Z "/>
</svg>
