<?xml version="1.0" encoding="utf-8"?>
<!DOCTYPE svg PUBLIC "-//W3C//DTD SVG 1.1//EN" "http://www.w3.org/Graphics/SVG/1.1/DTD/svg11.dtd">
<svg xmlns="http://www.w3.org/2000/svg" xmlns:xlink="http://www.w3.org/1999/xlink" version="1.1" baseProfile="full" width="24" height="24" viewBox="0 0 24.00 24.00" enable-background="new 0 0 24.00 24.00" xml:space="preserve">
	<path fill="#000000" fill-opacity="1" stroke-width="0.2" stroke-linejoin="miter" d="M 7.357,5.943L 10.8,2.5C 11.5,1.8 12.5,1.8 13.2,2.5L 16.643,5.943L 12,10.586L 7.357,5.943 Z M 18.057,7.357L 13.414,12L 18.057,16.643L 21.5,13.2C 22.1,12.5 22.1,11.5 21.5,10.8L 18.057,7.357 Z M 5.943,16.643L 10.586,12L 5.943,7.357L 2.5,10.8C 1.8,11.5 1.8,12.5 2.5,13.2L 5.943,16.643 Z M 12,13.414L 7.357,18.057L 10.8,21.5C 11.5,22.2 12.5,22.2 13.2,21.5L 16.643,18.057L 12,13.414 Z "/>
</svg>
