<?xml version="1.0" encoding="utf-8"?>
<!DOCTYPE svg PUBLIC "-//W3C//DTD SVG 1.1//EN" "http://www.w3.org/Graphics/SVG/1.1/DTD/svg11.dtd">
<svg xmlns="http://www.w3.org/2000/svg" xmlns:xlink="http://www.w3.org/1999/xlink" version="1.1" baseProfile="full" width="24" height="24" viewBox="0 0 24.00 24.00" enable-background="new 0 0 24.00 24.00" xml:space="preserve">
	<path fill="#000000" fill-opacity="1" stroke-width="1.33333" stroke-linejoin="miter" d="M 22,11L 19.7,11C 19.4,9.9 18.9,8.8 18.2,8L 21.6,2.6L 19.9,1.5L 16.7,6.6C 16.3,6.3 16,6.1 15.5,5.9L 16.4,2.3L 14.5,1.8L 13.7,5.2C 13.1,5.1 12.6,5 12,5C 8.3,5 5.2,7.6 4.3,11L 2,11C 2,15.1 4.5,18.6 8,20.2L 8,22L 16,22L 16,20.2C 19.5,18.6 22,15.1 22,11 Z M 12,7C 14.6,7 16.8,8.7 17.6,11L 6.4,11C 7.2,8.7 9.4,7 12,7 Z "/>
</svg>
