<?xml version="1.0" encoding="utf-8"?>
<!DOCTYPE svg PUBLIC "-//W3C//DTD SVG 1.1//EN" "http://www.w3.org/Graphics/SVG/1.1/DTD/svg11.dtd">
<svg xmlns="http://www.w3.org/2000/svg" xmlns:xlink="http://www.w3.org/1999/xlink" version="1.1" baseProfile="full" width="24" height="24" viewBox="0 0 24.00 24.00" enable-background="new 0 0 24.00 24.00" xml:space="preserve">
	<path fill="#000000" fill-opacity="1" stroke-width="1.33333" stroke-linejoin="miter" d="M 18.1,4.8C 18,4.3 17.6,4 17.1,4L 13,4L 13.2,7L 10.8,7L 11,4L 6.8,4C 6.3,4 5.9,4.4 5.8,4.8L 3.1,18.8C 3,19.4 3.5,20 4.1,20L 10,20L 10.3,15L 13.7,15L 14,20L 19.8,20C 20.4,20 20.9,19.4 20.8,18.8L 18.1,4.8 Z M 10.4,13L 10.6,9L 13.2,9L 13.4,13L 10.4,13 Z "/>
</svg>
