<?xml version="1.0" encoding="utf-8"?>
<!DOCTYPE svg PUBLIC "-//W3C//DTD SVG 1.1//EN" "http://www.w3.org/Graphics/SVG/1.1/DTD/svg11.dtd">
<svg xmlns="http://www.w3.org/2000/svg" xmlns:xlink="http://www.w3.org/1999/xlink" version="1.1" baseProfile="full" width="24" height="24" viewBox="0 0 24.00 24.00" enable-background="new 0 0 24.00 24.00" xml:space="preserve">
	<path fill="#000000" fill-opacity="1" stroke-width="1.33333" stroke-linejoin="miter" d="M 12,2C 13.1046,2 14,2.89543 14,4C 14,4.74028 13.5978,5.38663 13,5.73244L 13,7.00002L 14,7.00002C 17.866,7.00002 21,10.134 21,14L 22,14C 22.5522,14 23,14.4477 23,15L 23,18C 23,18.5523 22.5522,19 22,19L 21,19L 21,20C 21,21.1046 20.1046,22 19,22L 5,22C 3.89543,22 3,21.1046 3,20L 3,19L 2,19C 1.44771,19 0.999999,18.5523 0.999999,18L 0.999999,15C 0.999999,14.4477 1.44771,14 2,14L 3,14C 3,10.134 6.134,7.00002 10,7.00002L 11,7.00002L 11,5.73244C 10.4022,5.38663 10,4.74028 10,4C 10,2.89543 10.8954,2 12,2 Z M 7.5,13C 6.11929,13 5,14.1193 5,15.5C 5,16.8807 6.11929,18 7.5,18C 8.88071,18 10,16.8807 10,15.5C 10,14.1193 8.88071,13 7.5,13 Z M 16.5,13C 15.1193,13 14,14.1193 14,15.5C 14,16.8807 15.1193,18 16.5,18C 17.8807,18 19,16.8807 19,15.5C 19,14.1193 17.8807,13 16.5,13 Z "/>
</svg>
