<?xml version="1.0" encoding="utf-8"?>
<!DOCTYPE svg PUBLIC "-//W3C//DTD SVG 1.1//EN" "http://www.w3.org/Graphics/SVG/1.1/DTD/svg11.dtd">
<svg xmlns="http://www.w3.org/2000/svg" xmlns:xlink="http://www.w3.org/1999/xlink" version="1.1" baseProfile="full" width="24" height="24" viewBox="0 0 24.00 24.00" enable-background="new 0 0 24.00 24.00" xml:space="preserve">
	<path fill="#000000" fill-opacity="1" stroke-width="1.33333" stroke-linejoin="miter" d="M 5,3C 3.89543,3 3,3.8954 3,5L 3,7L 5,7L 5,5L 19,5L 19,7L 21,7L 21,5C 21,3.8954 20.1046,3 19,3L 5,3 Z M 8,7L 8,9L 16,9L 16,7L 8,7 Z M 3,9L 3,12C 3,16.9706 7.02944,21 12,21C 16.9706,21 21,16.9706 21,12L 21,9L 19,9L 19,12C 19,15.866 15.866,19 12,19C 8.13401,19 5,15.866 5,12L 5,9L 3,9 Z M 12,12C 10.6193,12 9.5,13.1193 9.5,14.5C 9.5,15.8807 10.6193,17 12,17C 13.3807,17 14.5,15.8807 14.5,14.5C 14.5,13.1193 13.3807,12 12,12 Z "/>
</svg>
