<?xml version="1.0" encoding="utf-8"?>
<!DOCTYPE svg PUBLIC "-//W3C//DTD SVG 1.1//EN" "http://www.w3.org/Graphics/SVG/1.1/DTD/svg11.dtd">
<svg xmlns="http://www.w3.org/2000/svg" xmlns:xlink="http://www.w3.org/1999/xlink" version="1.1" baseProfile="full" width="24" height="24" viewBox="0 0 24.00 24.00" enable-background="new 0 0 24.00 24.00" xml:space="preserve">
	<path fill="#000000" fill-opacity="1" stroke-width="1.33333" stroke-linejoin="miter" d="M 12,2.00011C 14.6507,2.00261 17.1922,3.05784 19.0659,4.93345L 17.6524,6.34581C 16.1535,4.84558 14.121,4.00021 12,4.00021C 9.87844,4.00146 7.84477,4.84495 6.34576,6.34581L 4.93343,4.93345C 6.80718,3.05784 9.34865,2.00011 12,2.00011 Z M 3.66208,6.48981L 5.11347,7.94304C 4.38717,9.17166 4.00326,10.5724 4.00021,12C 4.00021,16.4183 7.58171,19.9998 12,19.9998C 16.4183,19.9998 19.9998,16.4183 19.9998,12C 19.9962,10.5724 19.6117,9.17166 18.8841,7.94304L 20.3379,6.48981C 21.4194,8.12429 21.998,10.0401 21.9993,12C 21.9993,17.523 17.5231,21.9993 12,21.9993C 6.47698,21.9993 2.00011,17.523 2.00011,12C 2.00193,10.0401 2.57992,8.12429 3.66208,6.48981 Z M 12,5.99969C 15.3136,5.99969 18.0003,8.68641 18.0003,12C 17.9991,13.5906 17.3656,15.1158 16.2401,16.2401L 14.8265,14.8265C 14.077,15.576 13.0601,15.9996 12,15.9996C 10.9386,15.9996 9.92177,15.5772 9.17166,14.8265L 7.75993,16.2401C 6.63446,15.1158 6.00091,13.5906 5.99969,12C 5.99969,8.68641 8.68644,5.99969 12,5.99969 Z M 12,7.99979C 11.4476,7.99979 10.9996,8.44779 10.9996,9.00016C 10.9996,9.5519 11.4476,9.9999 12,9.9999C 12.5524,9.9999 12.9997,9.5519 12.9997,9.00016C 12.9997,8.44779 12.5524,7.99979 12,7.99979 Z "/>
</svg>
