<?xml version="1.0" encoding="utf-8"?>
<!DOCTYPE svg PUBLIC "-//W3C//DTD SVG 1.1//EN" "http://www.w3.org/Graphics/SVG/1.1/DTD/svg11.dtd">
<svg xmlns="http://www.w3.org/2000/svg" xmlns:xlink="http://www.w3.org/1999/xlink" version="1.1" baseProfile="full" width="24" height="24" viewBox="0 0 24.00 24.00" enable-background="new 0 0 24.00 24.00" xml:space="preserve">
	<path fill="#000000" fill-opacity="1" stroke-width="1.33333" stroke-linejoin="miter" d="M 18.41,4L 16,6.41L 16,6.59L 18.41,9L 22,9L 22,11L 17.59,11L 16,9.41L 16,12L 15,12C 13.8954,12 13,11.1046 13,10L 13,7.5L 9.86,7.5C 9.76562,7.8697 9.61737,8.2235 9.42,8.55L 15.18,19L 20,19C 21.1046,19 22,19.8954 22,21L 22,22L 2,22L 2,21C 2,19.8954 2.89543,19 4,19L 10.61,19L 5.92,10.5C 4.12145,10.4698 2.56428,9.2427 2.11432,7.5011C 1.56173,5.3622 2.84769,3.1803 4.9866,2.6277C 7.12551,2.0751 9.3074,3.3611 9.86,5.5L 13,5.5L 13,3C 13,1.8954 13.8954,1 15,1L 16,1L 16,3.59L 17.59,2L 22,2L 22,4L 18.41,4 Z M 6,4.5C 4.89543,4.5 4,5.39543 4,6.5C 4,7.60457 4.89543,8.5 6,8.5C 7.10457,8.5 8,7.60457 8,6.5C 8,5.39543 7.10457,4.5 6,4.5 Z "/>
</svg>
