<?xml version="1.0" encoding="utf-8"?>
<!DOCTYPE svg PUBLIC "-//W3C//DTD SVG 1.1//EN" "http://www.w3.org/Graphics/SVG/1.1/DTD/svg11.dtd">
<svg xmlns="http://www.w3.org/2000/svg" xmlns:xlink="http://www.w3.org/1999/xlink" version="1.1" baseProfile="full" width="24" height="24" viewBox="0 0 24.00 24.00" enable-background="new 0 0 24.00 24.00" xml:space="preserve">
	<path fill="#000000" fill-opacity="1" stroke-width="1.33333" stroke-linejoin="miter" d="M 19.4571,8.64075C 19.4571,11.1076 18.1142,13.2564 16.1209,14.4015C 15.9795,14.4828 15.9265,14.663 16.0007,14.8079L 19.4077,21.5512C 19.5102,21.7561 19.3617,22 19.132,22L 6.10143,22L 6.16858,21.9647C 6.66337,21.6819 10.0562,14.9705 13.3783,11.7897C 16.7005,8.60894 17.1246,9.6692 15.2868,6.20569C 15.2868,6.20569 16.7005,8.96236 15.4989,9.17441C 14.5552,9.34052 12.3958,7.24828 13.2016,5.36809C 13.9862,3.53384 17.1458,3.88019 18.5983,5.37515C 19.1461,6.33999 19.4571,7.45326 19.4571,8.64075 Z M 7.15816,13.1292C 5.8399,15.5572 5.0235,17.3313 4.54285,18.5718L 4.54285,2.30748C 4.54285,2.13783 4.68069,2 4.85033,2L 12.9189,2C 15.2621,2.03535 17.3084,3.28292 18.464,5.14543C 17.6158,4.10285 16.3046,3.51617 15.0041,3.51617C 12.5301,3.51617 11.9081,4.39618 7.15816,13.1292 Z "/>
</svg>
