<?xml version="1.0" encoding="utf-8"?>
<!DOCTYPE svg PUBLIC "-//W3C//DTD SVG 1.1//EN" "http://www.w3.org/Graphics/SVG/1.1/DTD/svg11.dtd">
<svg xmlns="http://www.w3.org/2000/svg" xmlns:xlink="http://www.w3.org/1999/xlink" version="1.1" baseProfile="full" width="24" height="24" viewBox="0 0 24.00 24.00" enable-background="new 0 0 24.00 24.00" xml:space="preserve">
	<path fill="#000000" fill-opacity="1" stroke-width="0.2" stroke-linejoin="miter" d="M 8,14.25L 4.75,11L 7.02038,11C 7.25003,5.3935 9.3918,1 12,1C 14.0233,1 15.7659,3.64394 16.5529,7.44705C 20.3561,8.23408 23,9.9767 23,12C 23,13.8314 20.8338,15.4328 17.6026,16.3038L 17.893,14.2675C 19.7963,13.7175 21,12.9056 21,12C 21,10.941 19.3538,10.0101 16.8678,9.47624C 16.9543,10.2866 17,11.1316 17,12C 17,18.0751 14.7614,23 12,23C 10.1686,23 8.56718,20.8338 7.69622,17.6026L 9.73248,17.893C 10.2825,19.7963 11.0944,21 12,21C 13.6569,21 15,16.9706 15,12C 15,11.0051 14.9462,10.0479 14.8468,9.15318C 13.9521,9.05382 12.9949,9 12,9L 10.139,9.06422L 10.4286,7.05063L 12,7C 12.8684,7 13.7134,7.04574 14.5238,7.13222C 13.9899,4.64623 13.059,3 12,3C 10.4558,3 9.18413,6.50005 9.01831,11L 11.25,11L 8,14.25 Z M 14.25,16L 11,19.25L 11,16.9796C 5.3935,16.75 1,14.6082 1,12C 1,10.1686 3.16617,8.56718 6.39743,7.69622L 6.10696,9.73249C 4.20374,10.2826 3,11.0944 3,12C 3,13.5442 6.50005,14.8159 11,14.9817L 11,12.75L 14.25,16 Z "/>
</svg>
