<?xml version="1.0" encoding="utf-8"?>
<!DOCTYPE svg PUBLIC "-//W3C//DTD SVG 1.1//EN" "http://www.w3.org/Graphics/SVG/1.1/DTD/svg11.dtd">
<svg xmlns="http://www.w3.org/2000/svg" xmlns:xlink="http://www.w3.org/1999/xlink" version="1.1" baseProfile="full" width="24" height="24" viewBox="0 0 24.00 24.00" enable-background="new 0 0 24.00 24.00" xml:space="preserve">
	<path fill="#000000" fill-opacity="1" stroke-width="0.2" stroke-linejoin="round" d="M 10,4L 10,1.00001L 14,5L 10,9L 10,6C 6.686,6 4,8.686 4,12L 4.08356,13L 2.06278,13L 2,12C 2,7.582 5.582,4 10,4 Z M 17,2.00001L 20,2.00001C 21.1046,2.00001 22,2.89544 22,4.00001L 22,20C 22,21.1046 21.1046,22 20,22L 17,22C 15.8954,22 15,21.1046 15,20L 15,4.00001C 15,2.89544 15.8954,2.00001 17,2.00001 Z M 4,15L 13,15L 13,22L 4,22C 2.89543,22 2,21.1046 2,20L 2,17C 2,15.8954 2.89543,15 4,15 Z "/>
</svg>
