<?xml version="1.0" encoding="utf-8"?>
<!DOCTYPE svg PUBLIC "-//W3C//DTD SVG 1.1//EN" "http://www.w3.org/Graphics/SVG/1.1/DTD/svg11.dtd">
<svg xmlns="http://www.w3.org/2000/svg" xmlns:xlink="http://www.w3.org/1999/xlink" version="1.1" baseProfile="full" width="24" height="24" viewBox="0 0 24.00 24.00" enable-background="new 0 0 24.00 24.00" xml:space="preserve">
	<path fill="#000000" fill-opacity="1" stroke-width="0.2" stroke-linejoin="round" d="M 4,2L 7,2C 8.10457,2 9,2.89543 9,4L 9,20C 9,21.1046 8.10457,22 7,22L 4,22C 2.89543,22 2,21.1046 2,20L 2,4C 2,2.89543 2.89543,2 4,2 Z M 20,15C 21.1046,15 22,15.8954 22,17L 22,20C 22,21.1046 21.1046,22 20,22L 11,22L 11,15L 20,15 Z M 14,4.00001C 18.418,4.00001 22,7.58201 22,12L 21.9372,13L 19.9164,13L 20,12C 20,8.686 17.314,6.00001 14,6.00001L 14,9L 10,5.00001L 14,1.00001L 14,4.00001 Z "/>
</svg>
