<?xml version="1.0" encoding="utf-8"?>
<!DOCTYPE svg PUBLIC "-//W3C//DTD SVG 1.1//EN" "http://www.w3.org/Graphics/SVG/1.1/DTD/svg11.dtd">
<svg xmlns="http://www.w3.org/2000/svg" xmlns:xlink="http://www.w3.org/1999/xlink" version="1.1" baseProfile="full" width="24" height="24" viewBox="0 0 24.00 24.00" enable-background="new 0 0 24.00 24.00" xml:space="preserve">
	<g>
		<defs>
			<rect id="SVG_CLIPPER1_" x="1.27157e-006" y="0" width="24" height="24"/>
		</defs>
		<clipPath id="SVG_CLIPPER2_">
			<use xlink:href="#SVG_CLIPPER1_" overflow="visible"/>
		</clipPath>
		<g clip-path="url(#SVG_CLIPPER2_)">
			<path fill="#000000" fill-opacity="1" stroke-width="1.33333" stroke-linejoin="miter" d="M 19,19L 21,19L 21,21L 19,21L 19,19 Z M 19,17L 21,17L 21,15L 19,15L 19,17 Z M 3,13L 5,13L 5,11L 3,11L 3,13 Z M 3,17L 5,17L 5,15L 3,15L 3,17 Z M 3,9L 5,9L 5,7L 3,7L 3,9 Z M 3,5L 5,5L 5,3L 3,3L 3,5 Z M 7,5L 9,5L 9,3L 7,3L 7,5 Z M 15,21L 17,21L 17,19L 15,19L 15,21 Z M 11,21L 13,21L 13,19L 11,19L 11,21 Z M 15,21L 17,21L 17,19L 15,19L 15,21 Z M 7,21L 9,21L 9,19L 7,19L 7,21 Z M 3,21L 5,21L 5,19L 3,19L 3,21 Z M 21,8C 21,5.24 18.76,3 16,3L 11,3L 11,5L 16,5C 17.65,5 19,6.35 19,8L 19,13L 21,13L 21,8 Z "/>
		</g>
	</g>
</svg>
