<?xml version="1.0" encoding="utf-8"?>
<!DOCTYPE svg PUBLIC "-//W3C//DTD SVG 1.1//EN" "http://www.w3.org/Graphics/SVG/1.1/DTD/svg11.dtd">
<svg xmlns="http://www.w3.org/2000/svg" xmlns:xlink="http://www.w3.org/1999/xlink" version="1.1" baseProfile="full" width="24" height="24" viewBox="0 0 24.00 24.00" enable-background="new 0 0 24.00 24.00" xml:space="preserve">
	<path fill="#000000" fill-opacity="1" stroke-width="1.33333" stroke-linejoin="miter" d="M 20.2,5.9L 21,5.1C 19.6,3.7 17.8,3 16,3C 14.2,3 12.4,3.7 11,5.1L 11.8,5.9C 13,4.8 14.5,4.2 16,4.2C 17.5,4.2 19,4.8 20.2,5.9 Z M 19.3,6.7C 18.4,5.8 17.2,5.3 16,5.3C 14.8,5.3 13.6,5.8 12.7,6.7L 13.5,7.5C 14.2,6.8 15.1,6.5 16,6.5C 16.9,6.5 17.8,6.8 18.5,7.5L 19.3,6.7 Z M 19,13L 17,13L 17,9L 15,9L 15,13L 5,13C 3.9,13 3,13.9 3,15L 3,19C 3,20.1 3.9,21 5,21L 19,21C 20.1,21 21,20.1 21,19L 21,15C 21,13.9 20.1,13 19,13 Z M 8,18L 6,18L 6,16L 8,16L 8,18 Z M 11.5,18L 9.5,18L 9.5,16L 11.5,16L 11.5,18 Z M 15,18L 13,18L 13,16L 15,16L 15,18 Z "/>
</svg>
