<?xml version="1.0" encoding="utf-8"?>
<!DOCTYPE svg PUBLIC "-//W3C//DTD SVG 1.1//EN" "http://www.w3.org/Graphics/SVG/1.1/DTD/svg11.dtd">
<svg xmlns="http://www.w3.org/2000/svg" xmlns:xlink="http://www.w3.org/1999/xlink" version="1.1" baseProfile="full" width="24" height="24" viewBox="0 0 24.00 24.00" enable-background="new 0 0 24.00 24.00" xml:space="preserve">
	<path fill="#000000" fill-opacity="1" stroke-width="0.2" stroke-linejoin="round" d="M 20.2,4.9C 19,3.8 17.5,3.2 16,3.2C 14.5,3.2 13,3.8 11.8,4.9L 11,4.1C 12.4,2.7 14.2,2 16,2C 17.8,2 19.6,2.7 21,4.1L 20.2,4.9 Z M 19.3,5.7L 18.5,6.5C 17.8,5.8 16.9,5.5 16,5.5C 15.1,5.5 14.2,5.8 13.5,6.5L 12.7,5.7C 13.6,4.8 14.8,4.3 16,4.3C 17.2,4.3 18.4,4.8 19.3,5.7 Z M 19,12C 20.1,12 21,12.9 21,14L 21,18C 21,19.1 20.1,20 19,20L 5,20C 3.9,20 3,19.1 3,18L 3,14C 3,12.9 3.9,12 5,12L 15,12L 15,8L 17,8L 17,12L 19,12 Z M 8,17L 8,15L 6,15L 6,17L 8,17 Z M 11.5,17L 11.5,15L 9.5,15L 9.5,17L 11.5,17 Z M 15,17L 15,15L 13,15L 13,17L 15,17 Z M 7,22L 9,22L 9,24L 7,24L 7,22 Z M 11,22L 13,22L 13,24L 11,24L 11,22 Z M 15,22L 17,22L 17,24L 15,24L 15,22 Z "/>
</svg>
