<?xml version="1.0" encoding="utf-8"?>
<!DOCTYPE svg PUBLIC "-//W3C//DTD SVG 1.1//EN" "http://www.w3.org/Graphics/SVG/1.1/DTD/svg11.dtd">
<svg xmlns="http://www.w3.org/2000/svg" xmlns:xlink="http://www.w3.org/1999/xlink" version="1.1" baseProfile="full" width="24" height="24" viewBox="0 0 24.00 24.00" enable-background="new 0 0 24.00 24.00" xml:space="preserve">
	<path fill="#000000" fill-opacity="1" stroke-width="0.2" stroke-linejoin="round" d="M 5,3L 19,3C 20.1046,3 21,3.89543 21,5L 21,19C 21,20.1046 20.1046,21 19,21L 5,21C 3.89543,21 3,20.1046 3,19L 3,5C 3,3.89543 3.89543,3 5,3 Z M 7.5,15C 6.67157,15 6,15.6716 6,16.5C 6,17.3284 6.67157,18 7.5,18C 8.32843,18 9,17.3284 9,16.5C 9,15.6716 8.32843,15 7.5,15 Z M 6,10L 6,12C 9.3137,12 12,14.6863 12,18L 14,18C 14,13.5817 10.4183,10 6,10 Z M 6,6.00001L 5.99999,8.00001C 11.5228,8.00001 16,12.4772 16,18L 18,18C 18,11.3726 12.6274,6.00001 6,6.00001 Z "/>
</svg>
