<?xml version="1.0" encoding="utf-8"?>
<!DOCTYPE svg PUBLIC "-//W3C//DTD SVG 1.1//EN" "http://www.w3.org/Graphics/SVG/1.1/DTD/svg11.dtd">
<svg xmlns="http://www.w3.org/2000/svg" xmlns:xlink="http://www.w3.org/1999/xlink" version="1.1" baseProfile="full" width="24" height="24" viewBox="0 0 24.00 24.00" enable-background="new 0 0 24.00 24.00" xml:space="preserve">
	<path fill="#000000" fill-opacity="1" stroke-width="0.2" stroke-linejoin="miter" d="M 2.5,3.76848L 3.77711,2.50001L 21.5,20.2229L 20.2315,21.5L 18.7315,20L 16.73,20C 16.73,19.2536 16.6657,18.5221 16.5424,17.8109L 6.18908,7.45755C 5.47787,7.33426 4.74643,7.27 4,7.27L 4,5.26848L 2.5,3.76848 Z M 6.18,15.64C 7.38398,15.64 8.36,16.616 8.36,17.82C 8.36,19.024 7.38398,20 6.18,20C 4.97602,20 4,19.024 4,17.82C 4,16.616 4.97602,15.64 6.18,15.64 Z M 4,10.1C 9.47,10.1 13.9,14.53 13.9,20L 11.07,20C 11.07,16.1 7.9,12.93 4,12.93L 4,10.1 Z M 9.12852,5.30583C 13.5948,6.86569 17.1343,10.4052 18.6942,14.8715L 9.12852,5.30583 Z "/>
</svg>
