<?xml version="1.0" encoding="utf-8"?>
<!DOCTYPE svg PUBLIC "-//W3C//DTD SVG 1.1//EN" "http://www.w3.org/Graphics/SVG/1.1/DTD/svg11.dtd">
<svg xmlns="http://www.w3.org/2000/svg" xmlns:xlink="http://www.w3.org/1999/xlink" version="1.1" baseProfile="full" width="24" height="24" viewBox="0 0 24.00 24.00" enable-background="new 0 0 24.00 24.00" xml:space="preserve">
	<path fill="#000000" fill-opacity="1" stroke-width="1.33333" stroke-linejoin="miter" d="M 18.797,2.069C 21.324,2.507 22.041,4.234 21.988,6.044L 22,6.018L 20.862,20.925L 6.075,21.938L 6.088,21.938C 4.861,21.887 2.125,21.774 2,17.949L 3.371,15.449L 6.139,21.914L 8.476,14.294L 8.452,14.3L 8.465,14.275L 16.177,16.738L 14.189,8.962L 21.539,8.488L 15.75,3.762L 18.799,2.061L 18.797,2.069 Z M 2,17.907L 2,17.929L 2,17.905L 2,17.907 Z M 6.275,6.227C 9.243,3.283 13.073,1.543 14.543,3.027C 16.011,4.508 14.456,8.115 11.482,11.057C 8.513,14 4.729,15.835 3.262,14.355C 1.791,12.874 3.3,9.174 6.272,6.23L 6.275,6.227 Z "/>
</svg>
