<?xml version="1.0" encoding="utf-8"?>
<!DOCTYPE svg PUBLIC "-//W3C//DTD SVG 1.1//EN" "http://www.w3.org/Graphics/SVG/1.1/DTD/svg11.dtd">
<svg xmlns="http://www.w3.org/2000/svg" xmlns:xlink="http://www.w3.org/1999/xlink" version="1.1" baseProfile="full" width="24" height="24" viewBox="0 0 24.00 24.00" enable-background="new 0 0 24.00 24.00" xml:space="preserve">
	<path fill="#000000" fill-opacity="1" stroke-width="1.33333" stroke-linejoin="miter" d="M 16.2188,16.2187C 18.25,14.1875 19.3281,11.5156 19.4531,8.2031C 18.3594,10.6094 16.8125,12.8125 14.8125,14.8125C 12.8125,16.8125 10.6094,18.3594 8.20313,19.4531C 11.4844,19.3594 14.1563,18.2812 16.2188,16.2187 Z M 7.78125,7.7812C 5.75,9.8125 4.67187,12.4844 4.54688,15.7969C 5.01563,14.7969 5.70312,13.6484 6.60938,12.3516C 7.51562,11.0547 8.375,10 9.1875,9.1875C 11.1875,7.1875 13.3906,5.6406 15.7969,4.5469C 12.5156,4.6406 9.84375,5.7187 7.78125,7.7812 Z M 20.4844,3.5156C 21.0156,4.0469 21.3438,5.1094 21.4688,6.7031C 21.5937,8.2969 21.3516,10.1641 20.7422,12.3047C 20.1328,14.4453 19.1094,16.2344 17.6719,17.6719C 16.3594,18.9844 14.8047,19.9453 13.0078,20.5547C 11.2109,21.1641 9.4375,21.4687 7.6875,21.4687C 5.5625,21.4687 4.17188,21.1406 3.51563,20.4844C 2.98438,19.9531 2.65625,18.8906 2.53125,17.2969C 2.40625,15.7031 2.64844,13.8359 3.25781,11.6953C 3.86719,9.5547 4.89063,7.7656 6.32813,6.3281C 7.64063,5.0156 9.19531,4.0547 10.9922,3.4453C 12.7891,2.8359 14.5625,2.5312 16.3125,2.5312C 18.4375,2.5312 19.8281,2.8594 20.4844,3.5156 Z "/>
</svg>
