<?xml version="1.0" encoding="utf-8"?>
<!DOCTYPE svg PUBLIC "-//W3C//DTD SVG 1.1//EN" "http://www.w3.org/Graphics/SVG/1.1/DTD/svg11.dtd">
<svg xmlns="http://www.w3.org/2000/svg" xmlns:xlink="http://www.w3.org/1999/xlink" version="1.1" baseProfile="full" width="24" height="24" viewBox="0 0 24.00 24.00" enable-background="new 0 0 24.00 24.00" xml:space="preserve">
	<path fill="#000000" fill-opacity="1" stroke-width="0.2" stroke-linejoin="round" d="M 1.3934,18.364L 3.16117,16.5962L 4.57538,18.0104L 5.63604,16.9497L 4.22183,15.5355L 5.63604,14.1213L 8.11092,16.5962L 9.17157,15.5355L 6.6967,13.0607L 8.11091,11.6465L 9.52513,13.0607L 10.5858,12L 9.17157,10.5858L 10.5858,9.17157L 13.0607,11.6465L 14.1213,10.5858L 11.6464,8.11091L 13.0607,6.69671L 14.4749,8.11092L 15.5355,7.05026L 14.1213,5.63605L 15.5355,4.22183L 18.0104,6.6967L 19.0711,5.63605L 16.5962,3.16117L 18.364,1.3934L 22.6066,5.63604L 5.63604,22.6066L 1.3934,18.364 Z "/>
</svg>
