<?xml version="1.0" encoding="utf-8"?>
<!DOCTYPE svg PUBLIC "-//W3C//DTD SVG 1.1//EN" "http://www.w3.org/Graphics/SVG/1.1/DTD/svg11.dtd">
<svg xmlns="http://www.w3.org/2000/svg" xmlns:xlink="http://www.w3.org/1999/xlink" version="1.1" baseProfile="full" width="24" height="24" viewBox="0 0 24.00 24.00" enable-background="new 0 0 24.00 24.00" xml:space="preserve">
	<path fill="#000000" fill-opacity="1" stroke-width="1.33333" stroke-linejoin="miter" d="M 16.5,5.5C 17.6046,5.5 18.5,4.6046 18.5,3.5C 18.5,2.3954 17.6046,1.5 16.5,1.5C 15.3954,1.5 14.5,2.3954 14.5,3.5C 14.5,4.6046 15.3954,5.5 16.5,5.5 Z M 12.9,19.4L 13.9,15L 16,17L 16,23L 18,23L 18,15.5L 15.9,13.5L 16.5,10.5C 17.8879,12.0863 19.8922,12.9974 22,13L 22,11C 20.2406,11.0265 18.601,10.1114 17.7,8.6L 16.7,7C 16.3401,6.3994 15.6998,6.0228 15,6C 14.7,6 14.5,6.1 14.2,6.1L 9,8.3L 9,13L 11,13L 11,9.6L 12.8,8.9L 11.2,17L 6.3,16L 5.9,18L 12.9,19.4 Z M 4,9C 3.44772,9 3,8.5523 3,8C 3,7.4477 3.44772,7 4,7L 7,7L 7,9L 4,9 Z M 5,5C 4.44772,5 4,4.5523 4,4C 4,3.4477 4.44772,3 5,3L 10,3L 10,5L 5,5 Z M 3,13C 2.44772,13 2,12.5523 2,12C 2,11.4477 2.44772,11 3,11L 7,11L 7,13L 3,13 Z "/>
</svg>
