<?xml version="1.0" encoding="utf-8"?>
<!DOCTYPE svg PUBLIC "-//W3C//DTD SVG 1.1//EN" "http://www.w3.org/Graphics/SVG/1.1/DTD/svg11.dtd">
<svg xmlns="http://www.w3.org/2000/svg" xmlns:xlink="http://www.w3.org/1999/xlink" version="1.1" baseProfile="full" width="24" height="24" viewBox="0 0 24.00 24.00" enable-background="new 0 0 24.00 24.00" xml:space="preserve">
	<path fill="#000000" fill-opacity="1" stroke-width="1.33333" stroke-linejoin="miter" d="M 13.49,5.48C 14.59,5.48 15.49,4.58 15.49,3.48C 15.49,2.38 14.59,1.48 13.49,1.48C 12.39,1.48 11.49,2.38 11.49,3.48C 11.49,4.58 12.39,5.48 13.49,5.48 Z M 9.89,19.38L 10.89,14.98L 12.99,16.98L 12.99,22.98L 14.99,22.98L 14.99,15.48L 12.89,13.48L 13.49,10.48C 14.79,11.98 16.79,12.98 18.99,12.98L 18.99,10.98C 17.09,10.98 15.49,9.98 14.69,8.58L 13.69,6.98C 13.29,6.38 12.69,5.98 11.99,5.98C 11.69,5.98 11.49,6.08 11.19,6.08L 5.99,8.28L 5.99,12.98L 7.99,12.98L 7.99,9.58L 9.79,8.88L 8.19,16.98L 3.29,15.98L 2.89,17.98L 9.89,19.38 Z "/>
</svg>
