<?xml version="1.0" encoding="utf-8"?>
<!DOCTYPE svg PUBLIC "-//W3C//DTD SVG 1.1//EN" "http://www.w3.org/Graphics/SVG/1.1/DTD/svg11.dtd">
<svg xmlns="http://www.w3.org/2000/svg" xmlns:xlink="http://www.w3.org/1999/xlink" version="1.1" baseProfile="full" width="24" height="24" viewBox="0 0 24.00 24.00" enable-background="new 0 0 24.00 24.00" xml:space="preserve">
	<path fill="#000000" fill-opacity="1" stroke-width="1.33333" stroke-linejoin="miter" d="M 8,7L 6,2L 10,4L 12,2L 14,4L 18,2L 16,7L 8,7 Z M 16,22C 10,22 8,22 8,22C 2,22 3,18 3,18C 3,18 4,11 8,9L 16,9C 20,11 21,18 21,18C 21,18 22,22 16,22 Z M 7.5,12.5C 7.5,13.33 8.17,14 9,14C 9.83,14 10.5,13.33 10.5,12.5C 10.5,11.67 9.83,11 9,11C 8.17,11 7.5,11.67 7.5,12.5 Z M 16.5,18.5C 16.5,17.67 15.83,17 15,17C 14.17,17 13.5,17.67 13.5,18.5C 13.5,19.33 14.17,20 15,20C 15.83,20 16.5,19.33 16.5,18.5 Z M 16.5,12.35L 15.15,11L 7.5,18.65L 8.87,20L 16.5,12.35 Z "/>
</svg>
