<?xml version="1.0" encoding="utf-8"?>
<!DOCTYPE svg PUBLIC "-//W3C//DTD SVG 1.1//EN" "http://www.w3.org/Graphics/SVG/1.1/DTD/svg11.dtd">
<svg xmlns="http://www.w3.org/2000/svg" xmlns:xlink="http://www.w3.org/1999/xlink" version="1.1" baseProfile="full" width="24" height="24" viewBox="0 0 24.00 24.00" enable-background="new 0 0 24.00 24.00" xml:space="preserve">
	<path fill="#000000" fill-opacity="1" stroke-width="1.33333" stroke-linejoin="miter" d="M 4,4C 2.89543,4 2,4.8954 2,6L 2,17C 2,18.1046 2.89543,19 4,19L 4,20L 6,20L 6,19L 17,19L 17,20L 19,20L 19,19C 20.1046,19 21,18.1046 21,17L 21,16L 22,16L 22,14L 21,14L 21,9L 22,9L 22,7L 21,7L 21,6C 21,4.8954 20.1046,4 19,4L 4,4 Z M 4,6L 19,6L 19,17L 4,17L 4,6 Z M 13.5,7.5C 11.2909,7.5 9.5,9.2909 9.5,11.5C 9.5,13.7091 11.2909,15.5 13.5,15.5C 15.7091,15.5 17.5,13.7091 17.5,11.5C 17.5,9.2909 15.7091,7.5 13.5,7.5 Z M 5,9L 5,14L 7,14L 7,9L 5,9 Z M 13.5,9.5C 14.6046,9.5 15.5,10.3954 15.5,11.5C 15.5,12.6046 14.6046,13.5 13.5,13.5C 12.3954,13.5 11.5,12.6046 11.5,11.5C 11.5,10.3954 12.3954,9.5 13.5,9.5 Z "/>
</svg>
