<?xml version="1.0" encoding="utf-8"?>
<!DOCTYPE svg PUBLIC "-//W3C//DTD SVG 1.1//EN" "http://www.w3.org/Graphics/SVG/1.1/DTD/svg11.dtd">
<svg xmlns="http://www.w3.org/2000/svg" xmlns:xlink="http://www.w3.org/1999/xlink" version="1.1" baseProfile="full" width="24" height="24" viewBox="0 0 24.00 24.00" enable-background="new 0 0 24.00 24.00" xml:space="preserve">
	<path fill="#000000" fill-opacity="1" stroke-width="0.2" stroke-linejoin="miter" d="M 18.006,9C 19.106,9 20,9.894 20,11L 20,14.006C 20,15.106 19.106,16 18.006,16L 15.768,16L 14.534,14.766C 13.779,14.011 12.773,13.595 11.702,13.595C 10.63,13.595 9.625,14.011 8.87,14.766L 7.636,16L 5.994,16C 4.894,16 4,15.106 4,14L 4,10.994C 4,9.894 4.894,9 5.994,9L 18.006,9M 18.006,7L 5.994,7C 3.797,7 2,8.797 2,10.994L 2,11L 1,11L 1,14L 2,14L 2,14.006C 2,16.203 3.797,18 5.994,18L 8.497,18C 8.543,17.942 8.585,17.88 10.285,16.18C 10.675,15.79 11.189,15.595 11.703,15.595C 12.217,15.595 12.731,15.79 13.121,16.18L 14.909,18L 18.0068,18C 20.203,18 22,16.203 22,14.006L 22,14L 23,14L 23,11L 22,11L 22,10.994C 22,8.797 20.203,7 18.006,7 Z "/>
</svg>
