<?xml version="1.0" encoding="utf-8"?>
<!DOCTYPE svg PUBLIC "-//W3C//DTD SVG 1.1//EN" "http://www.w3.org/Graphics/SVG/1.1/DTD/svg11.dtd">
<svg xmlns="http://www.w3.org/2000/svg" xmlns:xlink="http://www.w3.org/1999/xlink" version="1.1" baseProfile="full" width="24" height="24" viewBox="0 0 24.00 24.00" enable-background="new 0 0 24.00 24.00" xml:space="preserve">
	<path fill="#000000" fill-opacity="1" stroke-width="1.33333" stroke-linejoin="miter" d="M 18.379,6.37443C 17.6758,6.37443 17.0731,6.57534 16.4703,6.77625C 15.7671,5.57078 14.4612,4.76712 13.0548,4.76712C 11.9498,4.76712 10.9452,5.2694 10.242,5.9726C 9.43836,4.96803 8.23288,4.26484 6.82649,4.26484C 4.51598,4.26484 2.50685,6.17352 2.50685,8.48402C 2.50685,9.08676 2.70777,9.6895 2.90868,10.2922C 1.80366,10.895 1,12.1005 1,13.5068C 1,15.516 2.60731,17.2237 4.61644,17.2237C 4.91781,17.2237 5.21918,17.2237 5.42009,17.1233C 5.82192,18.6301 7.32877,19.7352 9.13699,19.7352C 10.8448,19.7352 12.2511,18.7306 12.7534,17.3242C 13.2557,17.5251 13.758,17.726 14.2603,17.726C 15.5662,17.726 16.7717,17.0228 17.3744,15.9178C 17.6758,16.0183 17.9772,16.0183 18.2785,16.0183C 20.8904,16.0183 23,13.9087 23,11.1963C 23.1005,8.48402 20.9909,6.37443 18.379,6.37443 Z "/>
</svg>
