<?xml version="1.0" encoding="utf-8"?>
<!DOCTYPE svg PUBLIC "-//W3C//DTD SVG 1.1//EN" "http://www.w3.org/Graphics/SVG/1.1/DTD/svg11.dtd">
<svg xmlns="http://www.w3.org/2000/svg" xmlns:xlink="http://www.w3.org/1999/xlink" version="1.1" baseProfile="full" width="24" height="24" viewBox="0 0 24.00 24.00" enable-background="new 0 0 24.00 24.00" xml:space="preserve">
	<path fill="#0D0E0E" fill-opacity="1" fill-rule="evenodd" stroke-linejoin="round" d="M 12,1.99998C 17.5228,1.99998 22,6.47716 22,12C 22,17.5229 17.5228,22 12,22C 6.47713,22 1.99996,17.5229 1.99996,12C 1.99996,6.47716 6.47713,1.99998 12,1.99998 Z M 10.0126,15.331C 10.1581,15.8692 10.1422,16.3711 9.9919,16.8256C 9.97521,16.876 9.95681,16.926 9.93685,16.9753C 9.91689,17.0246 9.89528,17.0733 9.87211,17.1214C 9.75621,17.3619 9.60069,17.587 9.41021,17.7947C 8.8292,18.4286 8.01742,18.6683 7.66933,18.4663C 7.29344,18.2484 7.48173,17.3547 8.15537,16.6427C 8.88007,15.8766 9.92278,15.384 9.92278,15.384L 9.92118,15.3809L 10.0126,15.331 Z M 18.2727,6.28012C 17.8198,4.5041 14.8749,3.92023 12.0878,4.91041C 10.4291,5.4997 8.63347,6.42456 7.34236,7.63222C 5.80725,9.06809 5.56244,10.3178 5.66333,10.84C 6.01926,12.6827 8.544,13.8871 9.5819,14.7807L 9.5819,14.7861C 9.27586,14.9367 7.03589,16.0703 6.51169,17.2292C 5.95858,18.4519 6.59973,19.3292 7.02421,19.4473C 8.33941,19.8132 9.68904,19.155 10.4143,18.0732C 11.1143,17.0292 11.056,15.681 10.7518,15.0104C 11.1714,14.8997 11.6606,14.8501 12.2822,14.9227C 14.0364,15.1276 14.3806,16.2229 14.3148,16.6812C 14.249,17.1397 13.8811,17.3917 13.758,17.4678C 13.635,17.5439 13.5975,17.5703 13.6078,17.6268C 13.6227,17.7091 13.6797,17.706 13.7846,17.6883C 13.929,17.6639 14.7057,17.3154 14.7389,16.4692C 14.7812,15.3949 13.7517,14.1932 11.9288,14.2246C 11.178,14.2375 10.7059,14.309 10.365,14.4359L 10.2876,14.3503C 9.1606,13.1479 7.07727,12.2974 7.16562,10.681C 7.19774,10.0933 7.40199,8.54593 11.1688,6.66897C 14.2544,5.13141 16.7246,5.55453 17.1515,6.49223C 17.7612,7.83189 15.8313,10.3218 12.6268,10.681C 11.406,10.8178 10.7631,10.3446 10.6032,10.1684C 10.4349,9.98293 10.4098,9.97455 10.347,10.0094C 10.2445,10.0661 10.3094,10.2299 10.347,10.3275C 10.4426,10.5765 10.8352,11.018 11.5046,11.2377C 12.0934,11.4309 13.5268,11.5371 15.2604,10.8666C 17.2019,10.1155 18.7179,8.0264 18.2727,6.28012 Z "/>
</svg>
