<?xml version="1.0" encoding="utf-8"?>
<!DOCTYPE svg PUBLIC "-//W3C//DTD SVG 1.1//EN" "http://www.w3.org/Graphics/SVG/1.1/DTD/svg11.dtd">
<svg xmlns="http://www.w3.org/2000/svg" xmlns:xlink="http://www.w3.org/1999/xlink" version="1.1" baseProfile="full" width="24" height="24" viewBox="0 0 24.00 24.00" enable-background="new 0 0 24.00 24.00" xml:space="preserve">
	<path fill="#000000" fill-opacity="1" stroke-width="1.33333" stroke-linejoin="miter" d="M 11.8555,2L 11.3418,3.9277C 15.7546,4.7811 19.2043,8.2331 20.0547,12.6465L 21.998,12.1289C 20.9521,7.0253 16.9605,3.039 11.8555,2 Z M 10.8242,5.8633L 10.3047,7.8105C 13.3366,8.2694 15.7169,10.6481 16.1777,13.6797L 18.1172,13.1641C 17.4613,9.44 14.5475,6.5232 10.8242,5.8633 Z M 3.72266,9.6934C 3.24869,10.7314 3.00229,11.8589 3,13C 3.00249,14.945 3.71349,16.8225 5,18.2812L 5,22L 8,22L 8,20.4121C 8.95291,20.7991 9.97151,20.9987 11,21C 12.1406,20.9968 13.2674,20.7497 14.3047,20.2754L 3.72266,9.6934 Z M 9.78711,9.7578L 9.26172,11.7246C 10.9186,11.7246 12.2617,13.0678 12.2617,14.7246L 14.2324,14.1992C 13.9823,11.8563 12.1303,10.0059 9.78711,9.7578 Z "/>
</svg>
