<?xml version="1.0" encoding="utf-8"?>
<!DOCTYPE svg PUBLIC "-//W3C//DTD SVG 1.1//EN" "http://www.w3.org/Graphics/SVG/1.1/DTD/svg11.dtd">
<svg xmlns="http://www.w3.org/2000/svg" xmlns:xlink="http://www.w3.org/1999/xlink" version="1.1" baseProfile="full" width="24" height="24" viewBox="0 0 24.00 24.00" enable-background="new 0 0 24.00 24.00" xml:space="preserve">
	<path fill="#000000" fill-opacity="1" stroke-width="1.33333" stroke-linejoin="miter" d="M 20,15C 20,15 18.6,16.3 21.1,17L 18.3,19.8L 15.5,19.8C 15.5,19.8 13.6,19.7 15,22L 11,22L 9,20C 9,20 7.7,18.6 7,21.1L 4.2,18.3L 4.2,15.5C 4.2,15.5 4.3,13.6 2,15L 2,11L 4,9C 4,9 5.4,7.7 2.8,7.1L 5.6,4.2L 8.5,4.2C 8.5,4.2 10.4,4.3 9,2L 13,2L 15,4C 15,4 16.3,5.4 17,2.8L 19.8,5.6L 19.8,8.5C 19.8,8.5 19.7,10.4 22,9L 22,13L 20,15 Z M 14,12C 14,10.9 13.1,10 12,10C 10.9,10 10,10.9 10,12C 10,13.1 10.9,14 12,14C 13.1,14 14,13.1 14,12 Z "/>
</svg>
