<?xml version="1.0" encoding="utf-8"?>
<!DOCTYPE svg PUBLIC "-//W3C//DTD SVG 1.1//EN" "http://www.w3.org/Graphics/SVG/1.1/DTD/svg11.dtd">
<svg xmlns="http://www.w3.org/2000/svg" xmlns:xlink="http://www.w3.org/1999/xlink" version="1.1" baseProfile="full" width="24" height="24" viewBox="0 0 24.00 24.00" enable-background="new 0 0 24.00 24.00" xml:space="preserve">
	<path fill="#000000" fill-opacity="1" stroke-width="1.33333" stroke-linejoin="miter" d="M 4,2C 3.44772,2 3,2.4477 3,3C 3,3.5523 3.44772,4 4,4C 5.65685,4 7,5.3431 7,7L 7,8.6562L 7,15.5C 7,19.101 9.899,22 13.5,22C 17.101,22 20,19.101 20,15.5L 20,13C 20.554,13 21,12.554 21,12C 21,11.446 20.554,11 20,11L 14,11C 13.446,11 13,11.446 13,12C 13,12.554 13.446,13 14,13L 14,15C 14,15.554 13.554,16 13,16C 12.446,16 12,15.554 12,15L 12,11C 12.5523,11 13,10.5523 13,10C 13,9.4477 12.5523,9 12,9L 12,8C 12.5523,8 13,7.5523 13,7C 13,6.4477 12.5523,6 12,6L 12,5.5C 12,3.567 10.433,2 8.5,2L 4,2 Z "/>
</svg>
