<?xml version="1.0" encoding="utf-8"?>
<!DOCTYPE svg PUBLIC "-//W3C//DTD SVG 1.1//EN" "http://www.w3.org/Graphics/SVG/1.1/DTD/svg11.dtd">
<svg xmlns="http://www.w3.org/2000/svg" xmlns:xlink="http://www.w3.org/1999/xlink" version="1.1" baseProfile="full" width="24" height="24" viewBox="0 0 24.00 24.00" enable-background="new 0 0 24.00 24.00" xml:space="preserve">
	<path fill="#000000" fill-opacity="1" stroke-width="0.2" stroke-linejoin="miter" d="M 2,5.26848L 3.27711,4L 20,20.7229L 18.7315,22L 16.7315,20L 5,20C 3.9,20 3,19.1 3,18L 3,12.5C 3,11.7 3.5,10.9 4.2,10.7L 6.56675,9.83522L 2,5.26848 Z M 6.4,12L 8.73152,12L 8.11221,11.3807L 6.4,12 Z M 5,15L 5,17L 13.7315,17L 11.7315,15L 5,15 Z M 19.8,5.00001L 20.5,6.90001L 11.851,10.0284L 10.2955,8.47281L 19.8,5.00001 Z M 19,12C 20.1,12 21,12.9 21,14L 21,18C 21,18.3395 20.9143,18.6599 20.7634,18.9407L 19,17.1773L 19,15L 16.8227,15L 13.8227,12L 19,12 Z "/>
</svg>
