<?xml version="1.0" encoding="utf-8"?>
<!DOCTYPE svg PUBLIC "-//W3C//DTD SVG 1.1//EN" "http://www.w3.org/Graphics/SVG/1.1/DTD/svg11.dtd">
<svg xmlns="http://www.w3.org/2000/svg" xmlns:xlink="http://www.w3.org/1999/xlink" version="1.1" baseProfile="full" width="24" height="24" viewBox="0 0 24.00 24.00" enable-background="new 0 0 24.00 24.00" xml:space="preserve">
	<path fill="#000000" fill-opacity="1" stroke-width="1.33333" stroke-linejoin="miter" d="M 19.8,10.7L 4.2,5L 3.5,6.9L 17.6,12L 5,12C 3.9,12 3,12.9 3,14L 3,18C 3,19.1 3.9,20 5,20L 19,20C 20.1,20 21,19.1 21,18L 21,12.5C 21,11.7 20.5,10.9 19.8,10.7 Z M 7,17L 5,17L 5,15L 7,15L 7,17 Z M 19,17L 9,17L 9,15L 19,15L 19,17 Z "/>
</svg>
