<?xml version="1.0" encoding="utf-8"?>
<!DOCTYPE svg PUBLIC "-//W3C//DTD SVG 1.1//EN" "http://www.w3.org/Graphics/SVG/1.1/DTD/svg11.dtd">
<svg xmlns="http://www.w3.org/2000/svg" xmlns:xlink="http://www.w3.org/1999/xlink" version="1.1" baseProfile="full" width="24" height="24" viewBox="0 0 24.00 24.00" enable-background="new 0 0 24.00 24.00" xml:space="preserve">
	<path fill="#000000" fill-opacity="1" stroke-linejoin="round" d="M 7,18C 4.792,18 3,16.208 3,14C 3,11.792 4.792,10 7,10C 9.208,10 11,11.792 11,14C 11,16.208 9.208,18 7,18 Z M 7,12C 5.90133,12 5,12.9013 5,14C 5,15.0987 5.90133,16 7,16C 8.09867,16 9,15.0987 9,14C 9,12.9013 8.09867,12 7,12 Z M 11,10C 8.792,10 7,8.208 7,6C 7,3.792 8.792,2 11,2C 13.208,2 15,3.792 15,6C 15,8.208 13.208,10 11,10 Z M 11,4C 9.90133,4 9,4.90133 9,6C 9,7.09867 9.90133,8 11,8C 12.0987,8 13,7.09867 13,6C 13,4.90133 12.0987,4 11,4 Z M 16.5987,21.5987C 14.3907,21.5987 12.5987,19.812 12.5987,17.5987C 12.5987,15.3907 14.3907,13.5987 16.5987,13.5987C 18.812,13.5987 20.5987,15.3907 20.5987,17.5987C 20.5987,19.812 18.812,21.5987 16.5987,21.5987 Z M 16.5987,15.5987C 15.5,15.5987 14.5987,16.5 14.5987,17.5987C 14.5987,18.6973 15.5,19.5987 16.5987,19.5987C 17.6973,19.5987 18.5987,18.6973 18.5987,17.5987C 18.5987,16.5 17.6973,15.5987 16.5987,15.5987 Z "/>
</svg>
