<?xml version="1.0" encoding="utf-8"?>
<!DOCTYPE svg PUBLIC "-//W3C//DTD SVG 1.1//EN" "http://www.w3.org/Graphics/SVG/1.1/DTD/svg11.dtd">
<svg xmlns="http://www.w3.org/2000/svg" xmlns:xlink="http://www.w3.org/1999/xlink" version="1.1" baseProfile="full" width="24" height="24" viewBox="0 0 24.00 24.00" enable-background="new 0 0 24.00 24.00" xml:space="preserve">
	<path fill="#000000" fill-opacity="1" stroke-width="1.33333" stroke-linejoin="miter" d="M 11,21L 7,21L 7,19L 11,19L 11,21 Z M 15.5,19L 17,19L 17,21L 13,21L 13,19L 13.2,19L 11.8,12.9L 9.3,13.5C 9.2,14 9,14.4 8.8,14.8C 7.9,16.3 6,16.7 4.5,15.8C 3,14.9 2.6,13 3.5,11.5C 4.4,10 6.3,9.6 7.8,10.5C 8.2,10.7 8.5,11.1 8.7,11.4L 11.2,10.8L 10.6,8.3C 10.2,8.2 9.8,8 9.4,7.8C 8,6.9 7.5,5 8.4,3.5C 9.3,2 11.2,1.6 12.7,2.5C 14.2,3.4 14.6,5.3 13.7,6.8C 13.5,7.2 13.1,7.5 12.8,7.7L 15.5,19 Z M 7,11.8C 6.3,11.3 5.3,11.6 4.8,12.3C 4.3,13 4.6,14 5.3,14.4C 6,14.9 7,14.7 7.5,13.9C 7.9,13.2 7.7,12.2 7,11.8 Z M 12.4,6C 12.9,5.3 12.6,4.3 11.9,3.8C 11.2,3.3 10.2,3.6 9.7,4.3C 9.3,5 9.5,6 10.3,6.5C 11,6.9 12,6.7 12.4,6 Z M 12.8,11.3C 12.6,11.2 12.4,11.2 12.3,11.4C 12.2,11.6 12.2,11.8 12.4,11.9C 12.6,12 12.8,12 12.9,11.8C 13.1,11.6 13,11.4 12.8,11.3 Z M 21,8.5L 14.5,10L 15,12.2L 22.5,10.4L 23,9.7L 21,8.5 Z M 23,19L 19,19L 19,21L 23,21L 23,19 Z M 5,19L 1,19L 1,21L 5,21L 5,19 Z "/>
</svg>
