<?xml version="1.0" encoding="utf-8"?>
<!DOCTYPE svg PUBLIC "-//W3C//DTD SVG 1.1//EN" "http://www.w3.org/Graphics/SVG/1.1/DTD/svg11.dtd">
<svg xmlns="http://www.w3.org/2000/svg" xmlns:xlink="http://www.w3.org/1999/xlink" version="1.1" baseProfile="full" width="24" height="24" viewBox="0 0 24.00 24.00" enable-background="new 0 0 24.00 24.00" xml:space="preserve">
	<path fill="#000000" fill-opacity="1" stroke-width="1.33333" stroke-linejoin="miter" d="M 13.5,17L 13.5,19L 12,22L 10.5,19L 13.5,17 Z M 14.5,6.3L 13.5,7L 13.5,6L 10.5,6L 10.5,9L 9.5,9.7L 9.5,10.7L 14.5,7.4L 14.5,6.3 Z M 14.5,10.3L 13.5,11L 13.5,9L 10.5,11L 10.5,13L 9.5,13.7L 9.5,14.7L 14.5,11.4L 14.5,10.3 Z M 14.5,14.3L 13.5,15L 13.5,13L 10.5,15L 10.5,17L 9.5,17.7L 9.5,18.7L 14.5,15.4L 14.5,14.3 Z M 7,5L 17,5C 17,5 16,2 12,2C 8,2 7,5 7,5 Z "/>
</svg>
