<?xml version="1.0" encoding="utf-8"?>
<!DOCTYPE svg PUBLIC "-//W3C//DTD SVG 1.1//EN" "http://www.w3.org/Graphics/SVG/1.1/DTD/svg11.dtd">
<svg xmlns="http://www.w3.org/2000/svg" xmlns:xlink="http://www.w3.org/1999/xlink" version="1.1" baseProfile="full" width="24" height="24" viewBox="0 0 24.00 24.00" enable-background="new 0 0 24.00 24.00" xml:space="preserve">
	<path fill="#000000" fill-opacity="1" stroke-linejoin="round" d="M 16.8,2.5C 16.8,1.56 17.56,0.800003 18.5,0.800003C 19.44,0.800003 20.2,1.56 20.2,2.5L 20.2,3L 16.8,3L 16.8,2.5 Z M 16,9L 21,9C 21.55,9 22,8.55 22,8L 22,4C 22,3.45 21.55,3 21,3L 21,2.5C 21,1.12 19.88,1.90735e-006 18.5,1.90735e-006C 17.12,1.90735e-006 16,1.12 16,2.5L 16,3C 15.45,3 15,3.45 15,4L 15,8C 15,8.55 15.45,9 16,9 Z M 8.47,20.48C 5.2,18.94 2.86,15.76 2.5,12L 1,12C 1.51,18.16 6.66,23 12.95,23L 13.61,22.97L 9.8,19.15L 8.47,20.48 Z M 23.25,12.77L 20.68,10.2L 19.27,11.61L 21.49,13.83L 15.83,19.49L 4.51,8.17L 10.17,2.51L 12.27,4.61L 13.68,3.2L 11.23,0.750002C 10.64,0.160004 9.69,0.160004 9.11,0.750002L 2.75,7.11C 2.16,7.7 2.16,8.65 2.75,9.23L 14.77,21.25C 15.36,21.84 16.31,21.84 16.89,21.25L 23.25,14.89C 23.84,14.3 23.84,13.35 23.25,12.77 Z "/>
</svg>
