<?xml version="1.0" encoding="utf-8"?>
<!DOCTYPE svg PUBLIC "-//W3C//DTD SVG 1.1//EN" "http://www.w3.org/Graphics/SVG/1.1/DTD/svg11.dtd">
<svg xmlns="http://www.w3.org/2000/svg" xmlns:xlink="http://www.w3.org/1999/xlink" version="1.1" baseProfile="full" width="24" height="24" viewBox="0 0 24.00 24.00" enable-background="new 0 0 24.00 24.00" xml:space="preserve">
	<path fill="#000000" fill-opacity="1" stroke-width="1.33333" stroke-linejoin="miter" d="M 10,19.3L 14,16.6L 14,20L 12,22L 10,20L 10,19.3 Z M 14,12.7L 10,15.4L 10,17.4L 9,18L 9,19L 15,15.1L 15,14L 14,14.7L 14,12.7 Z M 7,2L 7,5L 17,5L 17,2L 7,2 Z M 9,6L 9,9L 10,9.7L 10,13.4L 9,14L 9,15L 15,11.1L 15,10L 14,10.7C 14,10.7 14,10.3 14,9.7L 15,9L 15,6L 9,6 Z "/>
</svg>
