<?xml version="1.0" encoding="utf-8"?>
<!DOCTYPE svg PUBLIC "-//W3C//DTD SVG 1.1//EN" "http://www.w3.org/Graphics/SVG/1.1/DTD/svg11.dtd">
<svg xmlns="http://www.w3.org/2000/svg" xmlns:xlink="http://www.w3.org/1999/xlink" version="1.1" baseProfile="full" width="24" height="24" viewBox="0 0 24.00 24.00" enable-background="new 0 0 24.00 24.00" xml:space="preserve">
	<path fill="#000000" fill-opacity="1" stroke-width="1.33333" stroke-linejoin="miter" d="M 17.8,20C 17.4,21.2 16.3,22 15,22L 5,22C 3.3,22 2,20.7 2,19L 2,18L 5,18L 14.2,18C 14.6,19.2 15.7,20 17,20L 17.8,20 Z M 19,2L 8,2C 6.3,2 5,3.3 5,5L 5,16L 16,16L 16,17C 16,17.6 16.4,18 17,18L 18,18L 18,5C 18,4.4 18.4,4 19,4C 19.6,4 20,4.4 20,5L 20,6L 22,6L 22,5C 22,3.3 20.7,2 19,2 Z "/>
</svg>
