<?xml version="1.0" encoding="utf-8"?>
<!DOCTYPE svg PUBLIC "-//W3C//DTD SVG 1.1//EN" "http://www.w3.org/Graphics/SVG/1.1/DTD/svg11.dtd">
<svg xmlns="http://www.w3.org/2000/svg" xmlns:xlink="http://www.w3.org/1999/xlink" version="1.1" baseProfile="full" width="24" height="24" viewBox="0 0 24.00 24.00" enable-background="new 0 0 24.00 24.00" xml:space="preserve">
	<path fill="#000000" fill-opacity="0.898039" stroke-width="1.33333" stroke-linejoin="miter" d="M 15.5,14L 20.49,19L 19,20.49L 14,15.5L 14,14.71L 13.73,14.43C 12.59,15.41 11.11,16 9.5,16C 5.91,16 3,13.09 3,9.5C 3,5.91 5.91,3 9.5,3C 13.09,3 16,5.91 16,9.5C 16,11.11 15.41,12.59 14.43,13.73L 14.71,14L 15.5,14 Z M 9.5,4.50001L 8.95023,4.52989C 8.70679,5.05227 8.33508,5.92692 8.06987,7.00001L 10.9301,7.00001C 10.6649,5.92692 10.2932,5.05227 10.0498,4.52989C 9.86923,4.51014 9.68579,4.50001 9.5,4.50001 Z M 13.8311,7.00001C 13.2362,5.97161 12.2855,5.17477 11.1474,4.77776C 11.3915,5.30901 11.7001,6.08188 11.9287,7.00001L 13.8311,7.00001 Z M 5.16891,7.00001L 7.07125,7.00001C 7.29986,6.08187 7.60848,5.309 7.85259,4.77775C 6.71446,5.17476 5.7638,5.97161 5.16891,7.00001 Z M 4.5,9.50001C 4.5,10.0226 4.58017,10.5265 4.7289,11L 6.86887,11L 6.74999,9.50001L 6.86887,8.00001L 4.7289,8.00001C 4.58017,8.47353 4.5,8.9774 4.5,9.50001 Z M 14.2711,11C 14.4198,10.5265 14.5,10.0226 14.5,9.50001C 14.5,8.9774 14.4198,8.47353 14.2711,8.00001L 12.1311,8.00001C 12.2052,8.4782 12.25,8.98164 12.25,9.50001C 12.25,10.0184 12.2052,10.5218 12.1311,11L 14.2711,11 Z M 7.86861,8.00001L 7.75,9.50001L 7.86887,11L 11.1311,11C 11.2052,10.5218 11.25,10.0184 11.25,9.50001C 11.25,8.98164 11.2052,8.4782 11.1314,8.00001L 7.86861,8.00001 Z M 9.5,14.5C 9.67865,14.5 9.85511,14.4906 10.0289,14.4724C 10.284,13.9502 10.6612,13.0746 10.9287,12L 8.07125,12C 8.33882,13.0746 8.71602,13.9502 8.97108,14.4724L 9.5,14.5 Z M 13.8311,12L 11.9287,12C 11.7001,12.9181 11.3915,13.691 11.1474,14.2223C 12.2855,13.8252 13.2362,13.0284 13.8311,12 Z M 5.16891,12C 5.7638,13.0284 6.71446,13.8252 7.8526,14.2223C 7.60849,13.691 7.29986,12.9181 7.07125,12L 5.16891,12 Z "/>
</svg>
