<?xml version="1.0" encoding="utf-8"?>
<!DOCTYPE svg PUBLIC "-//W3C//DTD SVG 1.1//EN" "http://www.w3.org/Graphics/SVG/1.1/DTD/svg11.dtd">
<svg xmlns="http://www.w3.org/2000/svg" xmlns:xlink="http://www.w3.org/1999/xlink" version="1.1" baseProfile="full" width="24" height="24" viewBox="0 0 24.00 24.00" enable-background="new 0 0 24.00 24.00" xml:space="preserve">
	<path fill="#000000" fill-opacity="1" stroke-width="0.2" stroke-linejoin="round" d="M 22.0025,11.0012L 22.0025,12.9975L 8.99875,12.9975L 8.99875,7.0025L 17.9975,7.0025C 20.21,7.0025 22.0025,8.78875 22.0025,11.0012 Z M 2.0025,13.9987L 2.0025,16.0012L 7.9975,16.0012L 7.9975,17.9975L 16.0012,17.9975L 16.0012,16.0012L 22.0025,16.0012L 22.0025,13.9987M 7.13875,12.1C 8.30125,10.9087 8.28125,9.01875 7.1,7.86125C 5.90875,6.69875 4.01875,6.71875 2.86125,7.9C 1.69875,9.09125 1.71875,10.9812 2.9,12.1387C 4.09125,13.3013 5.98125,13.2813 7.13875,12.1 Z "/>
</svg>
