<?xml version="1.0" encoding="utf-8"?>
<!DOCTYPE svg PUBLIC "-//W3C//DTD SVG 1.1//EN" "http://www.w3.org/Graphics/SVG/1.1/DTD/svg11.dtd">
<svg xmlns="http://www.w3.org/2000/svg" xmlns:xlink="http://www.w3.org/1999/xlink" version="1.1" baseProfile="full" width="24" height="24" viewBox="0 0 24.00 24.00" enable-background="new 0 0 24.00 24.00" xml:space="preserve">
	<path fill="#000000" fill-opacity="1" stroke-width="1.33333" stroke-linejoin="miter" d="M 15,5L 15,12L 9,12L 9,5L 15,5M 15,3L 9,3C 7.9,3 7,3.9 7,5L 7,14L 17,14L 17,5C 17,3.9 16.1,3 15,3 Z M 22,10L 19,10L 19,13L 22,13L 22,10 Z M 5,10L 2,10L 2,13L 5,13L 5,10 Z M 20,15L 4,15L 4,21L 6,21L 6,17L 18,17L 18,21L 20,21L 20,15 Z "/>
</svg>
