<?xml version="1.0" encoding="utf-8"?>
<!DOCTYPE svg PUBLIC "-//W3C//DTD SVG 1.1//EN" "http://www.w3.org/Graphics/SVG/1.1/DTD/svg11.dtd">
<svg xmlns="http://www.w3.org/2000/svg" xmlns:xlink="http://www.w3.org/1999/xlink" version="1.1" baseProfile="full" width="24" height="24" viewBox="0 0 24.00 24.00" enable-background="new 0 0 24.00 24.00" xml:space="preserve">
	<path fill="#000000" fill-opacity="1" stroke-width="0.2" stroke-linejoin="round" d="M 19.9712,19.1987C 20.1513,20.1613 19.4188,21.0012 18.5012,21.0012L 13.9987,21.0012L 13.9987,17.9975L 15,13.9987L 8.99875,13.9987C 7.34875,13.9987 6.00125,12.6512 6.00125,11.0012L 6.00125,2.9978L 12.0025,2.9978L 12.0025,8.99875L 17.0025,8.99875C 18.1,8.99875 18.9988,9.9025 18.9988,11.0012L 17.0025,17.9975L 18.4425,17.9975C 19.17,17.9975 19.8287,18.4913 19.9712,19.1987 Z M 5,12.0025L 5,2.9978L 2.9975,2.9978L 2.9975,12.0025C 2.9975,14.7613 5.23875,17.0025 7.9975,17.0025L 12.0025,17.0025L 12.0025,15L 7.9975,15C 6.3375,15 5,13.6625 5,12.0025 Z "/>
</svg>
