<?xml version="1.0" encoding="utf-8"?>
<!DOCTYPE svg PUBLIC "-//W3C//DTD SVG 1.1//EN" "http://www.w3.org/Graphics/SVG/1.1/DTD/svg11.dtd">
<svg xmlns="http://www.w3.org/2000/svg" xmlns:xlink="http://www.w3.org/1999/xlink" version="1.1" baseProfile="full" width="24" height="24" viewBox="0 0 24.00 24.00" enable-background="new 0 0 24.00 24.00" xml:space="preserve">
	<path fill="#000000" fill-opacity="1" stroke-width="0.2" stroke-linejoin="round" d="M 5,12.0025L 5,2.9978L 2.9975,2.9978L 2.9975,12.0025C 2.9975,14.7613 5.23875,17.0025 7.9975,17.0025L 13.9987,17.0025L 13.9987,15L 7.9975,15C 6.3375,15 5,13.6625 5,12.0025 Z M 20.4975,17.9975L 18.9988,17.9975L 18.9988,11.0012C 18.9988,9.9025 18.1,8.99875 17.0025,8.99875L 12.0025,8.99875L 12.0025,2.9978L 6.00125,2.9978L 6.00125,11.0012C 6.00125,12.6512 7.34875,13.9987 8.99875,13.9987L 16.0012,13.9987L 16.0012,21.0012L 20.4975,21.0012C 21.3287,21.0012 22.0025,20.3325 22.0025,19.5025C 22.0025,18.6712 21.3287,17.9975 20.4975,17.9975 Z "/>
</svg>
