<?xml version="1.0" encoding="utf-8"?>
<!DOCTYPE svg PUBLIC "-//W3C//DTD SVG 1.1//EN" "http://www.w3.org/Graphics/SVG/1.1/DTD/svg11.dtd">
<svg xmlns="http://www.w3.org/2000/svg" xmlns:xlink="http://www.w3.org/1999/xlink" version="1.1" baseProfile="full" width="24" height="24" viewBox="0 0 24.00 24.00" enable-background="new 0 0 24.00 24.00" xml:space="preserve">
	<path fill="#000000" fill-opacity="1" stroke-width="0.2" stroke-linejoin="round" d="M 5.35125,5.64C 4.44875,5 4.22875,3.76 4.85875,2.85125C 5.48875,1.94875 6.73875,1.72875 7.65125,2.35875C 8.55,2.9978 8.77,4.23875 8.14,5.15125C 7.5,6.05 6.26,6.27 5.35125,5.64 Z M 16.0012,18.9988L 8.93125,18.9988C 7.45125,18.9988 6.19125,17.92 5.97125,16.46L 3.99875,7.0025L 2.0025,7.0025L 3.98875,16.7575C 4.37,19.1987 6.47,21.0012 8.94,21.0012L 16.0012,21.0012M 16.23,15L 11.3475,15L 10.3225,10.8987C 11.9,11.7925 13.5988,12.4412 15.4688,12.1188L 15.4688,9.99C 13.8375,10.2975 12.0313,9.72125 10.7813,8.74L 9.14125,7.47125C 8.91125,7.29 8.6525,7.1675 8.37875,7.09C 8.06125,7.0025 7.72,6.9675 7.3875,7.03125L 7.36875,7.03125C 6.1375,7.25125 5.3225,8.4175 5.5325,9.63875L 6.88,15.5613C 7.15875,16.9825 8.38875,17.9975 9.82875,17.9975L 16.68,17.9975L 20.4975,21.0012L 22.0025,19.5025"/>
</svg>
