<?xml version="1.0" encoding="utf-8"?>
<!DOCTYPE svg PUBLIC "-//W3C//DTD SVG 1.1//EN" "http://www.w3.org/Graphics/SVG/1.1/DTD/svg11.dtd">
<svg xmlns="http://www.w3.org/2000/svg" xmlns:xlink="http://www.w3.org/1999/xlink" version="1.1" baseProfile="full" width="24" height="24" viewBox="0 0 24.00 24.00" enable-background="new 0 0 24.00 24.00" xml:space="preserve">
	<path fill="#000000" fill-opacity="1" stroke-width="1.33333" stroke-linejoin="miter" d="M 12,2C 13.105,2 14,2.895 14,4C 14,5.105 13.105,6 12,6C 10.895,6 10,5.105 10,4C 10,2.895 10.895,2 12,2M 12.394,14.788C 14.031,14.788 15.455,14.892 16.643,15.035C 16.704,12.322 16.46,9.92 16,9C 15.865,8.73 15.692,8.5 15.497,8.298L 7.426,15.216C 8.791,14.977 10.476,14.788 12.394,14.788 Z M 7.455,16.995C 7.588,18.744 7.849,20.507 8.265,22L 10.342,22C 10.052,21.122 9.837,20.086 9.68,19C 9.68,19 11.999,18.556 14.319,19C 14.162,20.086 13.947,21.122 13.657,22L 15.734,22C 16.167,20.449 16.431,18.607 16.559,16.791C 15.408,16.647 14.01,16.538 12.392,16.538C 10.463,16.538 8.782,16.747 7.455,16.995 Z M 12,7C 12,7 9,7 8,9C 7.663,9.675 7.442,11.151 7.372,12.958L 13.921,7.344C 12.926,7.001 12,7 12,7 Z M 18.569,5.665L 17.43,4.336L 13.92,7.345C 14.474,7.536 15.048,7.835 15.496,8.299L 18.569,5.665 Z M 20.67,15.833C 20.583,15.804 19.143,15.334 16.642,15.035C 16.629,15.611 16.602,16.199 16.56,16.792C 18.808,17.073 20.099,17.488 20.118,17.494L 20.67,15.833 Z M 7.372,12.958L 3.431,16.336L 4.32,17.815C 4.339,17.807 5.513,17.359 7.455,16.996C 7.347,15.589 7.323,14.197 7.372,12.958 Z "/>
</svg>
