<?xml version="1.0" encoding="utf-8"?>
<!DOCTYPE svg PUBLIC "-//W3C//DTD SVG 1.1//EN" "http://www.w3.org/Graphics/SVG/1.1/DTD/svg11.dtd">
<svg xmlns="http://www.w3.org/2000/svg" xmlns:xlink="http://www.w3.org/1999/xlink" version="1.1" baseProfile="full" width="24" height="24" viewBox="0 0 24.00 24.00" enable-background="new 0 0 24.00 24.00" xml:space="preserve">
	<path fill="#000000" fill-opacity="1" stroke-width="0.2" stroke-linejoin="round" d="M 22.2513,14.2925L 21.5575,16.1813L 9.19875,11.7088L 11.2788,6.05L 19.8388,9.14C 21.9388,9.9025 23.0175,12.2025 22.2513,14.2925 Z M 1.49875,12.1387L 7.9975,14.4825L 7.9975,18.9988L 16.0012,18.9988L 16.0012,17.3687L 20.5175,18.9988L 21.2109,17.1087L 2.1925,10.2487M 7.3,10.2C 8.78875,9.4825 9.41875,7.69 8.71125,6.20125C 7.98875,4.7125 6.20125,4.0825 4.7025,4.8C 3.2075,5.5075 2.57875,7.3 3.30125,8.79875C 4.00875,10.2875 5.80125,10.9175 7.3,10.2 Z "/>
</svg>
