<?xml version="1.0" encoding="utf-8"?>
<!DOCTYPE svg PUBLIC "-//W3C//DTD SVG 1.1//EN" "http://www.w3.org/Graphics/SVG/1.1/DTD/svg11.dtd">
<svg xmlns="http://www.w3.org/2000/svg" xmlns:xlink="http://www.w3.org/1999/xlink" version="1.1" baseProfile="full" width="24" height="24" viewBox="0 0 24.00 24.00" enable-background="new 0 0 24.00 24.00" xml:space="preserve">
	<path fill="#000000" fill-opacity="1" stroke-width="0.2" stroke-linejoin="round" d="M 3.99875,12.0025L 3.99875,2.9978L 2.0025,2.9978L 2.0025,12.0025C 2.0025,14.7613 4.23875,17.0025 7.0025,17.0025L 12.9975,17.0025L 12.9975,15L 7.0025,15C 5.34125,15 3.99875,13.6625 3.99875,12.0025 Z M 22.8325,17.2413C 22.4513,16.5187 21.5375,16.27 20.8013,16.6112L 19.7125,17.1087L 16.2987,10.1312C 15.9625,9.44875 15.2688,9.00875 14.5113,9.00875L 11.0013,8.99875L 11.0013,2.9978L 5,2.9978L 5,11.0012C 5,12.6613 6.3375,13.9987 7.9975,13.9987L 15,13.9987L 18.4087,21.0012L 22.1287,19.3012C 22.9,18.94 23.2325,17.9975 22.8325,17.2413 Z "/>
</svg>
