<?xml version="1.0" encoding="utf-8"?>
<!DOCTYPE svg PUBLIC "-//W3C//DTD SVG 1.1//EN" "http://www.w3.org/Graphics/SVG/1.1/DTD/svg11.dtd">
<svg xmlns="http://www.w3.org/2000/svg" xmlns:xlink="http://www.w3.org/1999/xlink" version="1.1" baseProfile="full" width="24" height="24" viewBox="0 0 24.00 24.00" enable-background="new 0 0 24.00 24.00" xml:space="preserve">
	<path fill="#000000" fill-opacity="1" stroke-width="1.33333" stroke-linejoin="miter" d="M 12,1L 3,5L 3,11C 3,16.55 6.84,21.74 12,23C 17.16,21.74 21,16.55 21,11L 21,5L 12,1 Z M 12,3.1797L 19,6.3008L 19,11.2207C 19,12.9243 18.4887,14.6455 17.6465,16.1719C 15.9941,14.9418 13.2561,14.5 12,14.5C 10.7434,14.5 8.00571,14.9425 6.35352,16.1738C 5.51081,14.6471 5,12.9249 5,11.2207L 5,6.3008L 12,3.1797 Z M 12,6C 10.067,6 8.5,7.567 8.5,9.5C 8.5,11.433 10.067,13 12,13C 13.933,13 15.5,11.433 15.5,9.5C 15.5,7.567 13.933,6 12,6 Z M 12,8C 12.8284,8 13.5,8.6716 13.5,9.5C 13.5,10.3284 12.8284,11 12,11C 11.1716,11 10.5,10.3284 10.5,9.5C 10.5,8.6716 11.1716,8 12,8 Z M 12,16.5C 13.5674,16.5 15.6386,17.1111 16.5332,17.8359C 15.2947,19.3771 13.7008,20.5464 12,21C 10.3,20.5467 8.70704,19.378 7.46875,17.8379C 8.36619,17.1126 10.4319,16.5 12,16.5 Z "/>
</svg>
