<?xml version="1.0" encoding="utf-8"?>
<!DOCTYPE svg PUBLIC "-//W3C//DTD SVG 1.1//EN" "http://www.w3.org/Graphics/SVG/1.1/DTD/svg11.dtd">
<svg xmlns="http://www.w3.org/2000/svg" xmlns:xlink="http://www.w3.org/1999/xlink" version="1.1" baseProfile="full" width="24" height="24" viewBox="0 0 24.00 24.00" enable-background="new 0 0 24.00 24.00" xml:space="preserve">
	<path fill="#000000" fill-opacity="1" stroke-width="0.2" stroke-linejoin="round" d="M 13,19L 14,19C 14.5523,19 15,19.4477 15,20L 22,20L 22,22L 15,22C 15,22.5523 14.5523,23 14,23L 10,23C 9.44772,23 9.00001,22.5523 9.00001,22L 2,22L 2,20L 9.00001,20C 9.00001,19.4477 9.44772,19 10,19L 11,19L 11,17.3397C 8.07359,16.1337 6,13.0002 6,9.66667L 6,5.66667L 12,3L 18,5.66667L 18,9.66667C 18,13.0001 15.9259,16.1336 13,17.3397L 13,19 Z M 12,5.00001L 7.99999,6.69445L 8,10L 12,10L 12,5.00001 Z M 12,10L 12,16C 13.9126,15.5318 16,13.0567 16,11L 16,10L 12,10 Z "/>
</svg>
