<?xml version="1.0" encoding="utf-8"?>
<!DOCTYPE svg PUBLIC "-//W3C//DTD SVG 1.1//EN" "http://www.w3.org/Graphics/SVG/1.1/DTD/svg11.dtd">
<svg xmlns="http://www.w3.org/2000/svg" xmlns:xlink="http://www.w3.org/1999/xlink" version="1.1" baseProfile="full" width="24" height="24" viewBox="0 0 24.00 24.00" enable-background="new 0 0 24.00 24.00" xml:space="preserve">
	<path fill="#000000" fill-opacity="1" stroke-width="1.33333" stroke-linejoin="miter" d="M 17.2,5L 17.2,5C 17.8,5 18.4,5 18.9,5.1C 19.1,7.4 19.1,12 16.4,15.2C 14.4,17.7 11,19 6.4,19C 6,19 5.5,19 5.1,19C 4.9,14.4 5.8,10.8 7.9,8.5C 10.4,5.6 14.4,5 17.2,5M 17.2,3C 11.7,3 1.6,5.1 3.2,20.8C 4.3,20.9 5.4,21 6.4,21C 24.3,21 20.7,3.3 20.7,3.3C 20.7,3.3 19.3,3 17.2,3 Z M 17,7C 7,7 7,17 7,17C 11,9 17,7 17,7 Z "/>
</svg>
