<?xml version="1.0" encoding="utf-8"?>
<!DOCTYPE svg PUBLIC "-//W3C//DTD SVG 1.1//EN" "http://www.w3.org/Graphics/SVG/1.1/DTD/svg11.dtd">
<svg xmlns="http://www.w3.org/2000/svg" xmlns:xlink="http://www.w3.org/1999/xlink" version="1.1" baseProfile="full" width="24" height="24" viewBox="0 0 24.00 24.00" enable-background="new 0 0 24.00 24.00" xml:space="preserve">
	<path fill="#000000" fill-opacity="1" stroke-width="1.33333" stroke-linejoin="miter" d="M 14,17L 17,17L 17,14L 19,14L 19,17L 22,17L 22,19L 19,19L 19,22L 17,22L 17,19L 14,19L 14,17 Z M 12,17L 12,19L 8.99999,19L 8.99999,17L 12,17 Z M 6.99999,17L 6.99999,19L 3,19L 3,15L 5,15L 5,17L 6.99999,17 Z M 3,13L 3,10L 5,10L 5,13L 3,13 Z M 3,8.00001L 3,4.00001L 7,4.00001L 7,6.00001L 5,6.00001L 5,8.00001L 3,8.00001 Z M 9,4.00001L 12,4.00001L 12,6.00001L 9,6.00001L 9,4.00001 Z M 15,4L 19,4L 19,8L 17,8L 17,6L 15,6L 15,4 Z M 19,10L 19,12L 17,12L 17,10L 19,10 Z "/>
</svg>
