<?xml version="1.0" encoding="utf-8"?>
<!DOCTYPE svg PUBLIC "-//W3C//DTD SVG 1.1//EN" "http://www.w3.org/Graphics/SVG/1.1/DTD/svg11.dtd">
<svg xmlns="http://www.w3.org/2000/svg" xmlns:xlink="http://www.w3.org/1999/xlink" version="1.1" baseProfile="full" width="24" height="24" viewBox="0 0 24.00 24.00" enable-background="new 0 0 24.00 24.00" xml:space="preserve">
	<path fill="#000000" fill-opacity="1" stroke-width="1.33333" stroke-linejoin="miter" d="M 3.87891,3C 3.37734,3.0612 3.00023,3.4869 3,3.9922L 3,4L 3,5L 4,5L 5,5L 5,4L 5,3L 4,3L 3.87891,3 Z M 7,3L 7,5L 9,5L 9,3L 7,3 Z M 11,3L 11,5L 13,5L 13,3L 11,3 Z M 15,3L 15,5L 17,5L 17,3L 15,3 Z M 19,3L 19,4L 19,5L 20,5L 21,5L 21,4L 21,3.8789C 20.9388,3.3773 20.5131,3.0002 20,3L 19,3 Z M 3,7L 3,9L 5,9L 5,7L 3,7 Z M 19,7L 19,9L 21,9L 21,7L 19,7 Z M 3,11L 3,13L 5,13L 5,11L 3,11 Z M 19.3066,12C 19.1779,12 19.0467,12.0471 18.9492,12.1445L 17.3906,13.7051L 16.4258,12.75L 15.7207,13.4551L 16.4297,14.166L 11.9707,18.625L 11.9707,21L 14.3457,21L 18.8047,16.5391L 19.5156,17.25L 20.2207,16.5449L 19.2598,15.584L 20.8203,14.0254C 21.0203,13.8254 21.0192,13.4994 20.8242,13.3145L 19.6543,12.1445C 19.5618,12.0471 19.4354,12 19.3066,12 Z M 3,15L 3,17L 5,17L 5,15L 3,15 Z M 17,15L 17.9707,15.9707L 13.9297,20L 12.9707,19.0391L 17,15 Z M 3,19L 3,20L 3,20.1211C 3.06119,20.6227 3.48691,20.9998 3.99219,21L 4,21L 5,21L 5,20L 5,19L 4,19L 3,19 Z M 7,19L 7,21L 9,21L 9,19L 7,19 Z "/>
</svg>
