<?xml version="1.0" encoding="utf-8"?>
<!DOCTYPE svg PUBLIC "-//W3C//DTD SVG 1.1//EN" "http://www.w3.org/Graphics/SVG/1.1/DTD/svg11.dtd">
<svg xmlns="http://www.w3.org/2000/svg" xmlns:xlink="http://www.w3.org/1999/xlink" version="1.1" baseProfile="full" width="24" height="24" viewBox="0 0 24.00 24.00" enable-background="new 0 0 24.00 24.00" xml:space="preserve">
	<path fill="#000000" fill-opacity="1" stroke-width="0.2" stroke-linejoin="round" d="M 5.00001,3L 7,3.00001L 7,5.00001L 9,5.00001L 9,3.00001L 11,3.00001L 11,5.00001L 13,5.00001L 13,3.00001L 15,3.00001L 15,5.00001L 17,5.00001L 17,3.00001L 19,3.00001L 19,5.00001L 21,5.00001L 21,7.00001L 19,7.00001L 19,9.00001L 21,9.00001L 21,11L 19,11L 19,13L 21,13L 21,15L 19,15L 19,17L 21,17L 21,19L 19,19L 19,21L 17,21L 17,19L 15,19L 15,21L 13,21L 13,19L 11,19L 11,21L 9,21L 9,19L 7,19L 7,21L 5,21L 5,19L 3,19L 3,17L 5,17L 5,15L 3,15L 3,13L 5,13L 5,11L 3,11L 3,9.00001L 5,9.00001L 5,7.00001L 3,7.00001L 3,5L 5.00001,5L 5.00001,3 Z "/>
</svg>
