<?xml version="1.0" encoding="utf-8"?>
<!DOCTYPE svg PUBLIC "-//W3C//DTD SVG 1.1//EN" "http://www.w3.org/Graphics/SVG/1.1/DTD/svg11.dtd">
<svg xmlns="http://www.w3.org/2000/svg" xmlns:xlink="http://www.w3.org/1999/xlink" version="1.1" baseProfile="full" width="24" height="24" viewBox="0 0 24.00 24.00" enable-background="new 0 0 24.00 24.00" xml:space="preserve">
	<path fill="#000000" fill-opacity="1" stroke-width="1.33333" stroke-linejoin="miter" d="M 6.35044,20.2524L 7.56253,18.6575C 8.41746,19.2285 9.38856,19.6392 10.4329,19.8466L 10.1622,21.8315C 8.76857,21.5726 7.47648,21.0247 6.35044,20.2524 Z M 16.4269,18.6645L 17.6391,20.2595C 16.5155,21.0281 15.2271,21.5734 13.8378,21.8315L 13.5671,19.8466C 14.6072,19.64 15.5746,19.2318 16.4269,18.6645 Z M 19.8419,13.5902L 21.8272,13.8609C 21.5655,15.2513 21.016,16.5402 20.243,17.6632L 18.6483,16.4513C 19.2198,15.5993 19.632,14.6313 19.8419,13.5902 Z M 2.16903,13.8406L 4.15398,13.5699C 4.36156,14.6132 4.77201,15.5833 5.34247,16.4375L 3.74762,17.6495C 2.97578,16.5243 2.42812,15.2331 2.16903,13.8406 Z M 18.6575,7.56256L 20.2524,6.35047C 21.028,7.48123 21.5772,8.77944 21.8347,10.1797L 19.85,10.4504C 19.6437,9.39944 19.2317,8.42226 18.6575,7.56256 Z M 13.5699,4.15399L 13.8406,2.16904C 15.2331,2.42813 16.5243,2.97579 17.6495,3.74765L 16.4375,5.3425C 15.5833,4.77203 14.6131,4.36157 13.5699,4.15399 Z M 7.56253,5.3425L 6.35044,3.74764C 7.47574,2.97579 8.76686,2.42813 10.1594,2.16904L 10.4301,4.15399C 9.38684,4.36157 8.41671,4.77203 7.56253,5.3425 Z M 4.15398,10.4301L 2.16903,10.1594C 2.42811,8.76688 2.97578,7.47576 3.74763,6.35047L 5.34248,7.56256C 4.77201,8.41673 4.36156,9.38686 4.15398,10.4301 Z "/>
</svg>
