<?xml version="1.0" encoding="utf-8"?>
<!DOCTYPE svg PUBLIC "-//W3C//DTD SVG 1.1//EN" "http://www.w3.org/Graphics/SVG/1.1/DTD/svg11.dtd">
<svg xmlns="http://www.w3.org/2000/svg" xmlns:xlink="http://www.w3.org/1999/xlink" version="1.1" baseProfile="full" width="24" height="24" viewBox="0 0 24.00 24.00" enable-background="new 0 0 24.00 24.00" xml:space="preserve">
	<path fill="#000000" fill-opacity="1" stroke-width="1.33333" stroke-linejoin="miter" d="M 11.2031,3.9844C 9.92188,4.1094 8.73437,4.5156 7.64063,5.2031L 6.60938,3.4687C 7.98437,2.625 9.4375,2.1406 10.9688,2.0156L 11.2031,3.9844 Z M 17.5313,6.2344C 16.6563,5.3906 15.5937,4.75 14.3438,4.3125L 14.9531,2.3906C 16.4531,2.8281 17.7813,3.625 18.9375,4.7812L 17.5313,6.2344 Z M 5.34375,7.4062C 4.625,8.4687 4.17188,9.6094 3.98438,10.8281L 2.01563,10.5469C 2.23438,8.9531 2.79688,7.5156 3.70313,6.2344L 5.34375,7.4062 Z M 21.9844,12L 21.9844,12.6562L 19.9688,12.5156L 19.9688,12C 19.9688,10.8438 19.7656,9.7969 19.3594,8.8594L 21.1875,8.0625C 21.7188,9.3125 21.9844,10.625 21.9844,12 Z M 5.95313,17.2969L 4.45313,18.6094C 3.42188,17.4219 2.6875,16.0625 2.25,14.5312L 4.17188,14.0156C 4.51563,15.2344 5.10938,16.3281 5.95313,17.2969 Z M 12.1406,21.9844L 11.9531,21.9844C 10.4531,21.9844 9,21.6719 7.59375,21.0469L 8.48438,19.2187C 9.60938,19.75 10.7656,20.0156 11.9531,20.0156L 12.1406,20.0156L 12.1406,21.9844 Z M 17.0156,21L 15,21L 15,15L 21,15L 21,17.0156L 18.4219,17.0156L 21.1406,19.7812L 19.7344,21.1875L 17.0156,18.5156L 17.0156,21 Z "/>
</svg>
