<?xml version="1.0" encoding="utf-8"?>
<!DOCTYPE svg PUBLIC "-//W3C//DTD SVG 1.1//EN" "http://www.w3.org/Graphics/SVG/1.1/DTD/svg11.dtd">
<svg xmlns="http://www.w3.org/2000/svg" xmlns:xlink="http://www.w3.org/1999/xlink" version="1.1" baseProfile="full" width="24" height="24" viewBox="0 0 24.00 24.00" enable-background="new 0 0 24.00 24.00" xml:space="preserve">
	<path fill="#000000" fill-opacity="1" stroke-width="1.33333" stroke-linejoin="miter" d="M 13,23L 11,23L 11,1L 13,1L 13,23 Z M 9,19L 5,19L 5,5L 9,5L 9,3L 5,3C 3.89,3 3,3.89 3,5L 3,19C 3,20.105 3.895,21 5,21L 9,21L 9,19 Z M 19,7L 19,9L 21,9L 21,7L 19,7 Z M 19,5L 21,5C 21,3.89 20.1,3 19,3L 19,5 Z M 21,15L 19,15L 19,17L 21,17L 21,15 Z M 19,11L 19,13L 21,13L 21,11L 19,11 Z M 17,3L 15,3L 15,5L 17,5L 17,3 Z M 19,21C 20.105,21 21,20.105 21,19L 19,19L 19,21 Z M 17,19L 15,19L 15,21L 17,21L 17,19 Z "/>
</svg>
