<?xml version="1.0" encoding="utf-8"?>
<!DOCTYPE svg PUBLIC "-//W3C//DTD SVG 1.1//EN" "http://www.w3.org/Graphics/SVG/1.1/DTD/svg11.dtd">
<svg xmlns="http://www.w3.org/2000/svg" xmlns:xlink="http://www.w3.org/1999/xlink" version="1.1" baseProfile="full" width="24" height="24" viewBox="0 0 24.00 24.00" enable-background="new 0 0 24.00 24.00" xml:space="preserve">
	<path fill="#000000" fill-opacity="1" stroke-linejoin="round" d="M 11.1973,4C 9.93733,4.12 8.71867,4.53067 7.64,5.19734L 6.64,3.46934C 7.95333,2.636 9.448,2.13067 11,2M 17.5307,6.25067C 16.62,5.38534 15.5307,4.72934 14.3387,4.328L 15,2.39067C 16.516,2.83867 17.8907,3.656 19,4.78134M 5.33867,7.412C 4.64,8.43734 4.188,9.604 4,10.828L 2,10.552C 2.20267,8.99467 2.792,7.51067 3.69733,6.22934M 22,12L 22,12.6613L 20,12.5L 20,12C 20.016,10.9213 19.8067,9.85467 19.3907,8.86L 21.2187,8.06267C 21.7453,9.30667 22.0107,10.6453 22,12 Z M 6,17.3027L 4.5,18.6093C 3.47333,17.4267 2.724,16.036 2.30267,14.5307L 4.172,14C 4.53067,15.224 5.156,16.3493 6,17.3027 Z M 12.14,22L 12,22C 10.5,22 9.01066,21.6827 7.64,21.068L 8.53067,19.24C 9.61467,19.7453 10.8027,20.0053 12,20L 12.188,20M 17,21L 15,21L 15,15L 21,15L 21,17L 18.4213,17L 21.14,19.76L 19.7293,21.172L 17,18.5"/>
</svg>
