<?xml version="1.0" encoding="utf-8"?>
<!DOCTYPE svg PUBLIC "-//W3C//DTD SVG 1.1//EN" "http://www.w3.org/Graphics/SVG/1.1/DTD/svg11.dtd">
<svg xmlns="http://www.w3.org/2000/svg" xmlns:xlink="http://www.w3.org/1999/xlink" version="1.1" baseProfile="full" width="24" height="24" viewBox="0 0 24.00 24.00" enable-background="new 0 0 24.00 24.00" xml:space="preserve">
	<path fill="#000000" fill-opacity="1" stroke-width="0.2" stroke-linejoin="round" d="M 4,1L 20,1C 20.5523,1 21,1.44772 21,2L 21,6C 21,6.55229 20.5523,7 20,7L 4,7C 3.44771,7 3,6.55229 3,6L 3,2C 3,1.44772 3.44771,1 4,1 Z M 4,9.00001L 20,9.00001C 20.5523,9.00001 21,9.44773 21,10L 21,14C 21,14.5523 20.5523,15 20,15L 4,15C 3.44771,15 3,14.5523 3,14L 3,10C 3,9.44773 3.44771,9.00001 4,9.00001 Z M 4,17L 20,17C 20.5523,17 21,17.4477 21,18L 21,22C 21,22.5523 20.5523,23 20,23L 4,23C 3.44772,23 3,22.5523 3,22L 3,18C 3,17.4477 3.44772,17 4,17 Z M 8.99999,5.00002L 9.99999,5.00002L 9.99999,3.00002L 8.99999,3.00002L 8.99999,5.00002 Z M 8.99999,13L 9.99999,13L 9.99999,11L 8.99999,11L 8.99999,13 Z M 9,21L 10,21L 10,19L 9,19L 9,21 Z M 5,3.00001L 5,5.00001L 7,5.00001L 7,3.00001L 5,3.00001 Z M 5,11L 5,13L 7,13L 7,11L 5,11 Z M 5,19L 5,21L 7,21L 7,19L 5,19 Z "/>
</svg>
