<?xml version="1.0" encoding="utf-8"?>
<!DOCTYPE svg PUBLIC "-//W3C//DTD SVG 1.1//EN" "http://www.w3.org/Graphics/SVG/1.1/DTD/svg11.dtd">
<svg xmlns="http://www.w3.org/2000/svg" xmlns:xlink="http://www.w3.org/1999/xlink" version="1.1" baseProfile="full" width="24" height="24" viewBox="0 0 24.00 24.00" enable-background="new 0 0 24.00 24.00" xml:space="preserve">
	<path fill="#000000" fill-opacity="1" stroke-width="0.2" stroke-linejoin="round" d="M 13,19L 14,19C 14.5523,19 15,19.4477 15,20L 15.7315,20L 13,17.2685L 13,19 Z M 22,20L 22,21.1773L 20.8227,20L 22,20 Z M 21,22.7229L 19.7315,24L 17.7315,22L 15,22C 15,22.5523 14.5523,23 14,23L 10,23C 9.44772,23 9.00001,22.5523 9.00001,22L 2,22L 2,20L 9.00001,20C 9.00001,19.4477 9.44772,19 10,19L 11,19L 11,17L 4,17C 3.44771,17 3,16.5523 3,16L 3,12C 3,11.4477 3.44771,11 4,11L 6.73152,11L 4.73151,9L 4,9C 3.44772,9 3,8.55228 3,8L 3,7.26849L 0.999999,5.26849L 2.27711,4.00002L 21,22.7229 Z M 4,3.00001L 20,3.00001C 20.5523,3.00001 21,3.44772 21,4L 21,8C 21,8.55228 20.5523,9 20,9L 9.82269,9L 6.99999,6.17731L 6.99999,5.00001L 5.8227,5.00001L 3.83607,3.01338C 3.88941,3.00458 3.94417,3.00001 4,3.00001 Z M 20,11C 20.5523,11 21,11.4477 21,12L 21,16C 21,16.5523 20.5523,17 20,17L 17.8227,17L 11.8227,11L 20,11 Z M 8.99999,7.00002L 9.99999,7.00002L 9.99999,5.00002L 8.99999,5.00002L 8.99999,7.00002 Z M 8.99999,15L 9.99999,15L 9.99999,14.2685L 8.99999,13.2685L 8.99999,15 Z M 5,13L 5,15L 7,15L 7,13L 5,13 Z "/>
</svg>
