<?xml version="1.0" encoding="utf-8"?>
<!DOCTYPE svg PUBLIC "-//W3C//DTD SVG 1.1//EN" "http://www.w3.org/Graphics/SVG/1.1/DTD/svg11.dtd">
<svg xmlns="http://www.w3.org/2000/svg" xmlns:xlink="http://www.w3.org/1999/xlink" version="1.1" baseProfile="full" width="24" height="24" viewBox="0 0 24.00 24.00" enable-background="new 0 0 24.00 24.00" xml:space="preserve">
	<path fill="#000000" fill-opacity="1" stroke-width="1.33333" stroke-linejoin="miter" d="M 4.00033,18.0002L 4.00033,15.9999L 6.00045,15.9999L 6.00045,18.0002L 4.00033,18.0002M 22.0002,15.0002L 2.00008,15.0002L 2.00008,19L 22.0002,19L 22.0002,15.0002M 4.00033,13.0004L 4.00033,11.0002L 6.00045,11.0002L 6.00045,13.0004L 4.00033,13.0004M 22.0002,10.0003L 2.00008,10.0003L 2.00008,14.0003L 22.0002,14.0003L 22.0002,10.0003M 4.00033,8.00016L 4.00033,6.00041L 6.00045,6.00041L 6.00045,8.00016L 4.00033,8.00016M 22.0002,5.00004L 2.00008,5.00004L 2.00008,9.00004L 22.0002,9.00004L 22.0002,5.00004"/>
</svg>
