<?xml version="1.0" encoding="utf-8"?>
<!DOCTYPE svg PUBLIC "-//W3C//DTD SVG 1.1//EN" "http://www.w3.org/Graphics/SVG/1.1/DTD/svg11.dtd">
<svg xmlns="http://www.w3.org/2000/svg" xmlns:xlink="http://www.w3.org/1999/xlink" version="1.1" baseProfile="full" width="24" height="24" viewBox="0 0 24.00 24.00" enable-background="new 0 0 24.00 24.00" xml:space="preserve">
	<path fill="#000000" fill-opacity="1" stroke-width="0.2" stroke-linejoin="round" d="M 4,4L 20,4C 20.5523,4 21,4.44772 21,5L 21,9C 21,9.55229 20.5523,10 20,10L 4,10C 3.44772,10 3,9.55229 3,9L 3,5C 3,4.44772 3.44772,4 4,4 Z M 8.99998,8.00003L 9.99998,8.00003L 9.99998,6.00003L 8.99998,6.00003L 8.99998,8.00003 Z M 4.99999,6.00002L 4.99999,8.00002L 6.99999,8.00002L 6.99999,6.00002L 4.99999,6.00002 Z M 10.5858,17L 8,14.4142L 9.41419,13L 12,15.5858L 14.5858,13L 16,14.4142L 13.4142,17L 16,19.5858L 14.5858,21L 12,18.4142L 9.41421,21L 8,19.5858L 10.5858,17 Z "/>
</svg>
