<?xml version="1.0" encoding="utf-8"?>
<!DOCTYPE svg PUBLIC "-//W3C//DTD SVG 1.1//EN" "http://www.w3.org/Graphics/SVG/1.1/DTD/svg11.dtd">
<svg xmlns="http://www.w3.org/2000/svg" xmlns:xlink="http://www.w3.org/1999/xlink" version="1.1" baseProfile="full" width="24" height="24" viewBox="0 0 24.00 24.00" enable-background="new 0 0 24.00 24.00" xml:space="preserve">
	<path fill="#000000" fill-opacity="1" stroke-width="1.33333" stroke-linejoin="miter" d="M 9,5C 10.039,5.0023 11.0644,5.2358 12.002,5.6836C 12.9383,5.2363 13.9623,5.0028 15,5C 18.866,5 22,8.134 22,12C 22,15.866 18.866,19 15,19C 13.961,18.9977 12.9356,18.7642 11.998,18.3164C 11.0617,18.7637 10.0377,18.9972 9,19C 5.13401,19 2,15.866 2,12C 2,8.134 5.13401,5 9,5 Z M 15,7.00001L 13.9961,7.10741C 15.2779,8.4136 15.9973,10.1699 16,12C 15.9993,13.8319 15.2806,15.5905 13.998,16.8984L 15,17C 17.7614,17 20,14.7614 20,12C 20,9.2386 17.7614,7.00001 15,7.00001 Z M 8.5,12C 8.5,13.8749 9.29378,15.5643 10.5636,16.7507L 11.563,16.2941C 10.3053,15.2861 9.5,13.7371 9.5,12C 9.5,10.2629 10.3053,8.7139 11.563,7.70595L 10.5636,7.24935C 9.29378,8.43568 8.5,10.1251 8.5,12 Z "/>
</svg>
