<?xml version="1.0" encoding="utf-8"?>
<!DOCTYPE svg PUBLIC "-//W3C//DTD SVG 1.1//EN" "http://www.w3.org/Graphics/SVG/1.1/DTD/svg11.dtd">
<svg xmlns="http://www.w3.org/2000/svg" xmlns:xlink="http://www.w3.org/1999/xlink" version="1.1" baseProfile="full" width="24" height="24" viewBox="0 0 24.00 24.00" enable-background="new 0 0 24.00 24.00" xml:space="preserve">
	<path fill="#000000" fill-opacity="1" stroke-width="1.33333" stroke-linejoin="miter" d="M 9,5C 5.13401,5 2,8.134 2,12C 2,15.866 5.13401,19 9,19C 10.0377,18.9972 11.0617,18.7637 11.998,18.3164C 12.9356,18.7642 13.961,18.9977 15,19C 18.866,19 22,15.866 22,12C 22,8.134 18.866,5 15,5C 13.9623,5.0028 12.9383,5.2363 12.002,5.6836C 11.0644,5.2358 10.039,5.0023 9,5 Z M 15,7C 17.7614,7 20,9.2386 20,12C 20,14.7614 17.7614,17 15,17C 14.6634,17 14.3278,16.9659 13.998,16.8984C 15.2806,15.5905 15.9993,13.8319 16,12C 15.9973,10.1699 15.2779,8.4136 13.9961,7.1074C 14.3262,7.0378 14.6626,7.0018 15,7 Z M 12,8.0078C 13.2568,8.9504 13.9975,10.429 14,12C 13.9975,13.571 13.2568,15.0496 12,15.9922C 10.7432,15.0496 10.0025,13.571 10,12C 10.0025,10.429 10.7432,8.9504 12,8.0078 Z "/>
</svg>
