<?xml version="1.0" encoding="utf-8"?>
<!DOCTYPE svg PUBLIC "-//W3C//DTD SVG 1.1//EN" "http://www.w3.org/Graphics/SVG/1.1/DTD/svg11.dtd">
<svg xmlns="http://www.w3.org/2000/svg" xmlns:xlink="http://www.w3.org/1999/xlink" version="1.1" baseProfile="full" width="24" height="24" viewBox="0 0 24.00 24.00" enable-background="new 0 0 24.00 24.00" xml:space="preserve">
	<path fill="#000000" fill-opacity="1" stroke-width="1.33333" stroke-linejoin="miter" d="M 9,5C 10.039,5.0023 11.0644,5.2358 12.002,5.6836C 12.9383,5.2363 13.9623,5.0028 15,5C 18.866,5 22,8.134 22,12C 22,15.866 18.866,19 15,19C 13.961,18.9977 12.9356,18.7642 11.998,18.3164C 11.0617,18.7637 10.0377,18.9972 9,19C 5.13401,19 2,15.866 2,12C 2,8.134 5.13401,5 9,5 Z M 9,12C 9,14.2208 10.2066,16.1599 12,17.1973C 13.7934,16.1599 15,14.2208 15,12C 15,9.77916 13.7934,7.84013 12,6.8027C 10.2066,7.84013 9,9.77916 9,12 Z "/>
</svg>
