<?xml version="1.0" encoding="utf-8"?>
<!DOCTYPE svg PUBLIC "-//W3C//DTD SVG 1.1//EN" "http://www.w3.org/Graphics/SVG/1.1/DTD/svg11.dtd">
<svg xmlns="http://www.w3.org/2000/svg" xmlns:xlink="http://www.w3.org/1999/xlink" version="1.1" baseProfile="full" width="24" height="24" viewBox="0 0 24.00 24.00" enable-background="new 0 0 24.00 24.00" xml:space="preserve">
	<path fill="#000000" fill-opacity="1" stroke-width="0.2" stroke-linejoin="round" d="M 5.00001,15.5C 5.00001,15.7761 4.77615,16 4.50001,16L 3.50001,16C 3.22387,16 3.00001,15.7761 3.00001,15.5L 3.00001,15L 2.00001,15C 1.44773,15 1.00001,14.5523 1.00001,14L 1.00001,11C 1.00001,10.4477 1.44773,10 2.00001,10L 22,10C 22.5523,10 23,10.4477 23,11L 23,14C 23,14.5523 22.5523,15 22,15L 21,15L 21,15.5C 21,15.7761 20.7761,16 20.5,16L 19.5,16C 19.2239,16 19,15.7761 19,15.5L 19,15L 5.00001,15L 5.00001,15.5 Z M 3.00001,12L 3.00001,13L 5.00001,13L 5.00001,12L 3.00001,12 Z M 6.00001,12L 6.00001,13L 8.00001,13L 8.00001,12L 6.00001,12 Z M 20.5,11.5C 19.9477,11.5 19.5,11.9477 19.5,12.5C 19.5,13.0523 19.9477,13.5 20.5,13.5C 21.0523,13.5 21.5,13.0523 21.5,12.5C 21.5,11.9477 21.0523,11.5 20.5,11.5 Z "/>
</svg>
