<?xml version="1.0" encoding="utf-8"?>
<!DOCTYPE svg PUBLIC "-//W3C//DTD SVG 1.1//EN" "http://www.w3.org/Graphics/SVG/1.1/DTD/svg11.dtd">
<svg xmlns="http://www.w3.org/2000/svg" xmlns:xlink="http://www.w3.org/1999/xlink" version="1.1" baseProfile="full" width="24" height="24" viewBox="0 0 24.00 24.00" enable-background="new 0 0 24.00 24.00" xml:space="preserve">
	<path fill="#000000" fill-opacity="1" stroke-width="1.33333" stroke-linejoin="miter" d="M 15,19C 13.961,18.9977 12.9356,18.7642 11.998,18.3164C 11.0617,18.7637 10.0377,18.9972 9,19C 5.134,19 2,15.866 2,12C 2,8.13401 5.134,5 9,5C 10.039,5.00226 11.0644,5.23577 12.002,5.68359C 12.9383,5.23633 13.9623,5.00284 15,5C 18.866,5 22,8.13401 22,12C 22,15.866 18.866,19 15,19 Z M 9,17L 10.0039,16.8926C 8.7221,15.5864 8.0027,13.8301 8,12C 8.0007,10.1681 8.7194,8.40952 10.002,7.10156L 9,7C 6.2386,7 4,9.23858 4,12C 4,14.7614 6.2386,17 9,17 Z M 12,15.9922C 13.2568,15.0496 13.9975,13.571 14,12C 13.9975,10.429 13.2568,8.95043 12,8.00781C 10.7432,8.95043 10.0025,10.429 10,12C 10.0025,13.571 10.7432,15.0496 12,15.9922 Z "/>
</svg>
