<?xml version="1.0" encoding="utf-8"?>
<!DOCTYPE svg PUBLIC "-//W3C//DTD SVG 1.1//EN" "http://www.w3.org/Graphics/SVG/1.1/DTD/svg11.dtd">
<svg xmlns="http://www.w3.org/2000/svg" xmlns:xlink="http://www.w3.org/1999/xlink" version="1.1" baseProfile="full" width="24" height="24" viewBox="0 0 24.00 24.00" enable-background="new 0 0 24.00 24.00" xml:space="preserve">
	<path fill="#000000" fill-opacity="1" stroke-width="0.2" stroke-linejoin="round" d="M 19.4284,12.974L 21.5414,14.6271C 21.7294,14.78 21.7844,15.05 21.6594,15.266L 19.6594,18.7301C 19.5354,18.946 19.2734,19.034 19.0474,18.947L 16.5574,17.943C 16.0414,18.34 15.4764,18.6741 14.8684,18.9271L 14.4934,21.577C 14.4554,21.8151 14.2484,21.998 13.9994,21.998L 9.99939,21.998C 9.74939,21.998 9.5434,21.8151 9.50541,21.577L 9.13041,18.9271C 8.5214,18.675 7.95638,18.34 7.44039,17.944L 4.95138,18.947C 4.7254,19.034 4.46338,18.946 4.3394,18.7301L 2.3394,15.266C 2.2144,15.05 2.26937,14.78 2.4574,14.6271L 4.5694,12.974L 4.49939,11.998L 4.5694,11.0221L 2.4574,9.368C 2.26937,9.21607 2.2144,8.94605 2.3394,8.73006L 4.3394,5.26603C 4.46338,5.05005 4.7254,4.96208 4.95138,5.04907L 7.43939,6.05208C 7.95538,5.65609 8.52038,5.32105 9.13041,5.06804L 9.50541,2.41911C 9.5434,2.18099 9.74939,1.99805 9.99939,1.99805L 13.9994,1.99805C 14.2484,1.99805 14.4554,2.18099 14.4934,2.41911L 14.8684,5.06901C 15.4774,5.32105 16.0424,5.65609 16.5584,6.05208L 19.0474,5.04907C 19.2734,4.96208 19.5354,5.05005 19.6594,5.26603L 21.6594,8.73006C 21.7844,8.94605 21.7294,9.21607 21.5414,9.368L 19.4284,11.0221L 19.4984,11.998L 19.4284,12.974 Z M 6.49999,12C 6.49999,12.5774 6.58897,13.134 6.75395,13.6569L 4.68464,15.3604L 5.43464,16.6594L 7.94714,15.7182C 8.69466,16.5325 9.68445,17.121 10.8023,17.3692L 11.2436,20.0169L 12.7436,20.0169L 13.1844,17.3722C 14.3045,17.1263 15.2968,16.5391 16.0466,15.725L 18.5557,16.665L 19.3057,15.366L 17.2426,13.6676C 17.4098,13.1416 17.5,12.5813 17.5,12C 17.5,11.426 17.4121,10.8726 17.2489,10.3524L 19.3089,8.65654L 18.5589,7.3575L 16.0627,8.29266C 15.3119,7.47034 14.3148,6.87677 13.1881,6.62867L 12.75,4.00001L 11.25,4.00001L 10.8119,6.62867C 9.68666,6.87644 8.69068,7.46878 7.94022,8.28941L 5.43785,7.35193L 4.68786,8.65097L 6.75177,10.3501C 6.58818,10.8709 6.49999,11.4252 6.49999,12 Z M 12,8.5C 13.933,8.5 15.5,10.067 15.5,12C 15.5,13.933 13.933,15.5 12,15.5C 10.067,15.5 8.5,13.933 8.5,12C 8.5,10.067 10.067,8.5 12,8.5 Z M 12,10.5C 11.1716,10.5 10.5,11.1716 10.5,12C 10.5,12.8284 11.1716,13.5 12,13.5C 12.8284,13.5 13.5,12.8284 13.5,12C 13.5,11.1716 12.8284,10.5 12,10.5 Z "/>
</svg>
