<?xml version="1.0" encoding="utf-8"?>
<!DOCTYPE svg PUBLIC "-//W3C//DTD SVG 1.1//EN" "http://www.w3.org/Graphics/SVG/1.1/DTD/svg11.dtd">
<svg xmlns="http://www.w3.org/2000/svg" xmlns:xlink="http://www.w3.org/1999/xlink" version="1.1" baseProfile="full" width="24" height="24" viewBox="0 0 24.00 24.00" enable-background="new 0 0 24.00 24.00" xml:space="preserve">
	<path fill="#000000" fill-opacity="1" stroke-width="0.2" stroke-linejoin="round" d="M 12,8C 14.2091,8 16,9.79086 16,12C 16,14.2091 14.2091,16 12,16C 9.79086,16 8,14.2091 8,12C 8,9.79086 9.79086,8 12,8 Z M 12,10C 10.8954,10 10,10.8954 10,12C 10,13.1046 10.8954,14 12,14C 13.1046,14 14,13.1046 14,12C 14,10.8954 13.1046,10 12,10 Z M 9.99939,21.998C 9.74939,21.998 9.5434,21.8151 9.50541,21.577L 9.13041,18.9271C 8.5214,18.675 7.95638,18.34 7.44039,17.944L 4.95137,18.947C 4.7254,19.034 4.46338,18.946 4.3394,18.7301L 2.3394,15.266C 2.2144,15.05 2.26937,14.78 2.4574,14.6271L 4.5694,12.974L 4.49939,11.998L 4.5694,11.0221L 2.4574,9.368C 2.26937,9.21607 2.2144,8.94605 2.3394,8.73006L 4.3394,5.26604C 4.46338,5.05005 4.7254,4.96208 4.95137,5.04907L 7.43939,6.05209C 7.95538,5.65609 8.52038,5.32105 9.13041,5.06804L 9.50541,2.41911C 9.5434,2.18099 9.74939,1.99805 9.99939,1.99805L 14.0006,2C 14.2506,2 14.4566,2.18295 14.4946,2.42106L 14.8696,5.06999C 15.4796,5.323 16.0446,5.65804 16.5606,6.05404L 19.0486,5.05103C 19.2746,4.96403 19.5366,5.052 19.6606,5.26798L 21.6606,8.73201C 21.7856,8.948 21.7306,9.21802 21.5426,9.36995L 19.4306,11.024L 19.5006,12L 19.4306,12.976L 21.5426,14.6291C 21.7306,14.782 21.7856,15.052 21.6606,15.268L 19.6606,18.732C 19.5366,18.948 19.2746,19.036 19.0486,18.949L 16.5596,17.946C 16.0436,18.342 15.4786,18.677 14.8696,18.929L 14.4946,21.5789C 14.4566,21.8171 14.2506,22 14.0006,22L 9.99939,21.998 Z M 11.25,4.00002L 10.884,6.61329C 9.68263,6.86089 8.62434,7.5003 7.84866,8.39206L 5.43785,7.35194L 4.68785,8.65098L 6.80072,10.2024C 6.39897,11.3672 6.39976,12.6401 6.80308,13.8044L 4.68464,15.3604L 5.43464,16.6594L 7.8553,15.6156C 8.62833,16.501 9.68048,17.1365 10.8745,17.3848L 11.2436,20.0169L 12.7564,20.0189L 13.1255,17.3867C 14.3195,17.1384 15.3717,16.5029 16.1447,15.6175L 18.5654,16.6614L 19.3154,15.3623L 17.1969,13.8064C 17.6002,12.642 17.601,11.3692 17.1993,10.2044L 19.3121,8.65293L 18.5621,7.35389L 16.1513,8.394C 15.3756,7.50225 14.3174,6.86284 13.116,6.61524L 12.75,4.00197L 11.25,4.00002 Z "/>
</svg>
