<?xml version="1.0" encoding="utf-8"?>
<!DOCTYPE svg PUBLIC "-//W3C//DTD SVG 1.1//EN" "http://www.w3.org/Graphics/SVG/1.1/DTD/svg11.dtd">
<svg xmlns="http://www.w3.org/2000/svg" xmlns:xlink="http://www.w3.org/1999/xlink" version="1.1" baseProfile="full" width="24" height="24" viewBox="0 0 24.00 24.00" enable-background="new 0 0 24.00 24.00" xml:space="preserve">
	<path fill="#000000" fill-opacity="1" stroke-width="0.2" stroke-linejoin="miter" d="M 11.0156,13.5L 11.0156,21.5156L 3,21.5156L 3,13.5L 11.0156,13.5 Z M 9,15.5156L 5.01563,15.5156L 5.01563,19.5L 9,19.5L 9,15.5156 Z M 12,2.0156L 17.4844,11.0156L 6.51563,11.0156L 12,2.0156 Z M 12,5.8594L 10.0781,9L 13.9219,9L 12,5.8594 Z M 17.5,13C 19.9853,13 22,15.0147 22,17.5C 22,19.9853 19.9853,22 17.5,22C 15.0147,22 13,19.9853 13,17.5C 13,15.0147 15.0147,13 17.5,13 Z M 17.5,15C 16.1193,15 15,16.1193 15,17.5C 15,18.8807 16.1193,20 17.5,20C 18.8807,20 20,18.8807 20,17.5C 20,16.1193 18.8807,15 17.5,15 Z "/>
</svg>
