<?xml version="1.0" encoding="utf-8"?>
<!DOCTYPE svg PUBLIC "-//W3C//DTD SVG 1.1//EN" "http://www.w3.org/Graphics/SVG/1.1/DTD/svg11.dtd">
<svg xmlns="http://www.w3.org/2000/svg" xmlns:xlink="http://www.w3.org/1999/xlink" version="1.1" baseProfile="full" width="24" height="24" viewBox="0 0 24.00 24.00" enable-background="new 0 0 24.00 24.00" xml:space="preserve">
	<path fill="#000000" fill-opacity="1" stroke-width="1.33333" stroke-linejoin="miter" d="M 11.0156,13.5L 11.0156,21.5156L 3,21.5156L 3,13.5L 11.0156,13.5 Z M 9,15.5156L 5.01563,15.5156L 5.01563,19.5L 9,19.5L 9,15.5156 Z M 17.4844,12.9844C 18.7344,12.9844 19.7969,13.4219 20.6719,14.2969C 21.5469,15.1719 21.9844,16.2344 21.9844,17.4844C 21.9844,18.7344 21.5469,19.7969 20.6719,20.6719C 19.7969,21.5469 18.7344,21.9844 17.4844,21.9844C 16.2344,21.9844 15.1719,21.5469 14.2969,20.6719C 13.4219,19.7969 12.9844,18.7344 12.9844,17.4844C 12.9844,16.2344 13.4219,15.1719 14.2969,14.2969C 15.1719,13.4219 16.2344,12.9844 17.4844,12.9844 Z M 17.4844,15C 16.7969,15 16.2109,15.2422 15.7266,15.7266C 15.2422,16.2109 15,16.7969 15,17.4844C 15,18.1719 15.2422,18.7656 15.7266,19.2656C 16.2109,19.7656 16.7969,20.0156 17.4844,20.0156C 18.1719,20.0156 18.7656,19.7656 19.2656,19.2656C 19.7656,18.7656 20.0156,18.1719 20.0156,17.4844C 20.0156,16.7969 19.7656,16.2109 19.2656,15.7266C 18.7656,15.2422 18.1719,15 17.4844,15 Z M 12,2.0156L 17.4844,11.0156L 6.51563,11.0156L 12,2.0156 Z M 12,5.8594L 10.0781,9L 13.9219,9L 12,5.8594 Z "/>
</svg>
