<?xml version="1.0" encoding="utf-8"?>
<!DOCTYPE svg PUBLIC "-//W3C//DTD SVG 1.1//EN" "http://www.w3.org/Graphics/SVG/1.1/DTD/svg11.dtd">
<svg xmlns="http://www.w3.org/2000/svg" xmlns:xlink="http://www.w3.org/1999/xlink" version="1.1" baseProfile="full" width="24" height="24" viewBox="0 0 24.00 24.00" enable-background="new 0 0 24.00 24.00" xml:space="preserve">
	<path fill="#000000" fill-opacity="1" stroke-linejoin="round" d="M 22.0987,21.5L 2.40133,1.69733L 1.09867,3L 8.90133,10.796C 5.40133,12.8947 3.69733,16.3947 3,20C 5.296,16.6973 8.59867,15.0987 13,14.8947L 14,15.8947L 14,19L 15.5987,17.3947L 20.796,22.6973M 8.296,13.796C 8.93733,13.2187 9.64533,12.7133 10.4013,12.296L 11.296,13.0987M 14.1973,11L 12.5,9.296L 14,9L 14,5L 21,12L 18.0987,14.8947L 16.6973,13.5L 18.1973,12L 16,9.796L 16,10.6973"/>
</svg>
