<?xml version="1.0" encoding="utf-8"?>
<!DOCTYPE svg PUBLIC "-//W3C//DTD SVG 1.1//EN" "http://www.w3.org/Graphics/SVG/1.1/DTD/svg11.dtd">
<svg xmlns="http://www.w3.org/2000/svg" xmlns:xlink="http://www.w3.org/1999/xlink" version="1.1" baseProfile="full" width="24" height="24" viewBox="0 0 24.00 24.00" enable-background="new 0 0 24.00 24.00" xml:space="preserve">
	<path fill="#000000" fill-opacity="1" stroke-width="0.2" stroke-linejoin="round" d="M 17.9994,16.0816C 17.2404,16.0816 16.5564,16.3786 16.0364,16.8536L 8.9094,12.6956C 8.9634,12.4706 8.9994,12.2396 8.9994,11.9986C 8.9994,11.7566 8.9634,11.5256 8.9094,11.3006L 15.9604,7.18757C 16.4964,7.68657 17.2094,7.99857 17.9994,7.99857C 19.6554,7.99857 20.9994,6.65457 20.9994,4.99857C 20.9994,3.34157 19.6554,1.99857 17.9994,1.99857C 16.3434,1.99857 14.9994,3.34157 14.9994,4.99857C 14.9994,5.23957 15.0354,5.47057 15.0894,5.69557L 8.0384,9.80857C 7.50241,9.30957 6.78939,8.99857 5.9994,8.99857C 4.34339,8.99857 2.9994,10.3416 2.9994,11.9986C 2.9994,13.6546 4.34339,14.9986 5.9994,14.9986C 6.78939,14.9986 7.50241,14.6866 8.0384,14.1876L 15.1624,18.3436C 15.1144,18.5546 15.0824,18.7716 15.0824,18.9986C 15.0824,20.6086 16.3894,21.9146 17.9994,21.9146C 19.6094,21.9146 20.9164,20.6086 20.9164,18.9986C 20.9164,17.3876 19.6094,16.0816 17.9994,16.0816 Z "/>
</svg>
