<?xml version="1.0" encoding="utf-8"?>
<!DOCTYPE svg PUBLIC "-//W3C//DTD SVG 1.1//EN" "http://www.w3.org/Graphics/SVG/1.1/DTD/svg11.dtd">
<svg xmlns="http://www.w3.org/2000/svg" xmlns:xlink="http://www.w3.org/1999/xlink" version="1.1" baseProfile="full" width="24" height="24" viewBox="0 0 24.00 24.00" enable-background="new 0 0 24.00 24.00" xml:space="preserve">
	<path fill="#000000" fill-opacity="1" stroke-width="1.33333" stroke-linejoin="miter" d="M 20,8.5C 20,9.881 18.881,11 17.5,11C 16.422,11 15.511,10.313 15.16,9.356C 14.718,9.752 14.14,10 13.5,10C 12.935,10 12.419,9.805 12,9.489C 11.581,9.805 11.065,10 10.5,10C 9.86,10 9.282,9.752 8.84,9.356C 8.489,10.313 7.578,11 6.5,11C 5.119,11 4,9.881 4,8.5C 4,7.255 4.913,6.231 6.104,6.04C 6.039,5.872 6,5.691 6,5.5C 6,4.672 6.672,4 7.5,4C 7.698,4 7.885,4.04 8.058,4.11C 8.23,3.472 8.807,3 9.5,3C 9.748,3 9.978,3.066 10.184,3.172C 10.499,2.482 11.192,2 12,2C 12.808,2 13.501,2.482 13.816,3.172C 14.022,3.066 14.252,3 14.5,3C 15.193,3 15.77,3.472 15.942,4.11C 16.115,4.04 16.302,4 16.5,4C 17.328,4 18,4.672 18,5.5C 18,5.691 17.961,5.872 17.896,6.04C 19.087,6.231 20,7.255 20,8.5 Z M 10,12C 9.448,12 9,12.448 9,13C 9,13.552 9.448,14 10,14C 10.552,14 11,13.552 11,13C 11,12.448 10.552,12 10,12 Z M 14,12C 13.448,12 13,12.448 13,13C 13,13.552 13.448,14 14,14C 14.552,14 15,13.552 15,13C 15,12.448 14.552,12 14,12 Z M 20.23,10.664C 19.588,11.471 18.609,12 17.5,12C 17.049,12 16.618,11.896 16.214,11.733C 16.198,14.277 15.831,17.356 14.451,18.948C 13.934,19.544 13.298,19.862 12.5,19.957L 12.5,18L 11.5,18L 11.5,19.957C 10.703,19.862 10.068,19.545 9.551,18.951C 8.157,17.347 7.789,14.288 7.778,11.736C 7.376,11.897 6.948,12 6.5,12C 5.391,12 4.412,11.471 3.77,10.664C 2.884,11.548 2,12 2,12C 2,12 3,14 5,14C 5.359,14 5.635,13.961 5.877,13.908C 6.216,17.731 7.582,22 12,22C 16.418,22 17.784,17.731 18.123,13.908C 18.365,13.961 18.641,14 19,14C 21,14 22,12 22,12C 22,12 21.116,11.548 20.23,10.664 Z "/>
</svg>
