<?xml version="1.0" encoding="utf-8"?>
<!DOCTYPE svg PUBLIC "-//W3C//DTD SVG 1.1//EN" "http://www.w3.org/Graphics/SVG/1.1/DTD/svg11.dtd">
<svg xmlns="http://www.w3.org/2000/svg" xmlns:xlink="http://www.w3.org/1999/xlink" version="1.1" baseProfile="full" width="24" height="24" viewBox="0 0 24.00 24.00" enable-background="new 0 0 24.00 24.00" xml:space="preserve">
	<path fill="#000000" fill-opacity="1" stroke-width="1.33333" stroke-linejoin="miter" d="M 21,11C 21,16.5 17.2,21.7 12,23C 6.8,21.7 3,16.5 3,11L 3,5L 12,1L 21,5L 21,11M 12,21C 15.8,20 19,15.5 19,11.2L 19,6.3L 12,3.2L 5,6.3L 5,11.2C 5,15.5 8.3,20 12,21 Z M 16,9L 13,9L 13,6L 11,6L 11,9L 8,9L 8,11L 11,11L 11,19L 13,19L 13,11L 16,11L 16,9 Z "/>
</svg>
