<?xml version="1.0" encoding="utf-8"?>
<!DOCTYPE svg PUBLIC "-//W3C//DTD SVG 1.1//EN" "http://www.w3.org/Graphics/SVG/1.1/DTD/svg11.dtd">
<svg xmlns="http://www.w3.org/2000/svg" xmlns:xlink="http://www.w3.org/1999/xlink" version="1.1" baseProfile="full" width="24" height="24" viewBox="0 0 24.00 24.00" enable-background="new 0 0 24.00 24.00" xml:space="preserve">
	<path fill="#000000" fill-opacity="1" stroke-width="1.33333" stroke-linejoin="miter" d="M 12,9C 13.6569,9 15,10.3431 15,12C 15,13.6569 13.6569,15 12,15C 10.3431,15 9,13.6569 9,12C 9,10.3431 10.3431,9 12,9 Z M 17.8594,19.3125C 16.2344,21.2188 14.2812,22.4531 12,23.0156C 9.4375,22.3906 7.29688,20.9297 5.57813,18.6328C 3.85938,16.3359 3,13.7969 3,11.0156L 3,5.0156L 12,0.984404L 21,5.0156L 21,11.0156C 21,13.3906 20.3594,15.6094 19.0781,17.6719L 16.1684,14.7622C 16.6939,13.9708 17,13.0211 17,12C 17,9.23858 14.7614,7 12,7C 9.23857,7 7,9.23858 7,12C 7,14.7614 9.23857,17 12,17C 13.0202,17 13.9691,16.6944 14.7601,16.1698L 17.8594,19.3125 Z "/>
</svg>
