<?xml version="1.0" encoding="utf-8"?>
<!DOCTYPE svg PUBLIC "-//W3C//DTD SVG 1.1//EN" "http://www.w3.org/Graphics/SVG/1.1/DTD/svg11.dtd">
<svg xmlns="http://www.w3.org/2000/svg" xmlns:xlink="http://www.w3.org/1999/xlink" version="1.1" baseProfile="full" width="24" height="24" viewBox="0 0 24.00 24.00" enable-background="new 0 0 24.00 24.00" xml:space="preserve">
	<path fill="#000000" fill-opacity="1" stroke-width="0.2" stroke-linejoin="round" d="M 19.4253,19.0175L 21.5136,21.1057L 20.1214,22.4979L 18.0331,20.4097L 15.9117,22.5311L 14.4864,21.1058L 16.6078,18.9844L 14.4864,16.863L 15.8786,15.4708L 18,17.5922L 20.1214,15.4708L 21.5467,16.8961L 19.4253,19.0175 Z M 12,1.00001L 21,5L 21,11C 21,11.8962 20.8999,12.7831 20.7102,13.6455C 19.8961,13.2327 18.9752,13 18,13C 14.6863,13 12,15.6863 12,19C 12,20.3607 12.453,21.6157 13.2164,22.6222L 12,23C 6.84,21.74 3,16.55 3,11L 3,5L 12,1.00001 Z "/>
</svg>
