<?xml version="1.0" encoding="utf-8"?>
<!DOCTYPE svg PUBLIC "-//W3C//DTD SVG 1.1//EN" "http://www.w3.org/Graphics/SVG/1.1/DTD/svg11.dtd">
<svg xmlns="http://www.w3.org/2000/svg" xmlns:xlink="http://www.w3.org/1999/xlink" version="1.1" baseProfile="full" width="24" height="24" viewBox="0 0 24.00 24.00" enable-background="new 0 0 24.00 24.00" xml:space="preserve">
	<path fill="#000000" fill-opacity="1" stroke-width="1.33333" stroke-linejoin="miter" d="M 1,4.27L 3,6.27L 3,11C 3,16.55 6.84,21.74 12,23C 13.873,22.543 15.565,21.562 16.968,20.238L 19.23,22.5L 20.5,21.22L 2.28,3L 1,4.27 Z M 12,21C 8.25,20 5,15.54 5,11.22L 5,8.27L 15.591,18.861C 14.529,19.887 13.297,20.654 12,21 Z M 21,5L 21,11C 21,13.277 20.345,15.489 19.226,17.398L 17.775,15.947C 18.543,14.478 19,12.839 19,11.22L 19,6.3L 12,3.18L 7.164,5.336L 5.65,3.822L 12,1L 21,5 Z "/>
</svg>
