<?xml version="1.0" encoding="utf-8"?>
<!DOCTYPE svg PUBLIC "-//W3C//DTD SVG 1.1//EN" "http://www.w3.org/Graphics/SVG/1.1/DTD/svg11.dtd">
<svg xmlns="http://www.w3.org/2000/svg" xmlns:xlink="http://www.w3.org/1999/xlink" version="1.1" baseProfile="full" width="24" height="24" viewBox="0 0 24.00 24.00" enable-background="new 0 0 24.00 24.00" xml:space="preserve">
	<g>
		<path fill="#000000" fill-opacity="1" stroke-width="1.33333" stroke-linejoin="miter" d="M 12,1L 3,5L 3,11C 3,16.55 6.84,21.74 12,23C 17.16,21.74 21,16.55 21,11L 21,5L 12,1 Z M 12,5C 13.6569,5 15,6.3431 15,8C 15,9.6569 13.6569,11 12,11C 10.3431,11 9,9.6569 9,8C 9,6.3431 10.3431,5 12,5 Z M 17.13,17C 15.9172,18.8536 14.1071,20.2367 12,20.92C 9.89293,20.2367 8.08282,18.8536 6.87,17C 6.53005,16.5201 6.23862,16.0075 6,15.47C 6,13.82 8.71,12.47 12,12.47C 15.29,12.47 18,13.79 18,15.47C 17.7614,16.0075 17.47,16.5201 17.13,17 Z "/>
	</g>
</svg>
