<?xml version="1.0" encoding="utf-8"?>
<!DOCTYPE svg PUBLIC "-//W3C//DTD SVG 1.1//EN" "http://www.w3.org/Graphics/SVG/1.1/DTD/svg11.dtd">
<svg xmlns="http://www.w3.org/2000/svg" xmlns:xlink="http://www.w3.org/1999/xlink" version="1.1" baseProfile="full" width="24" height="24" viewBox="0 0 24.00 24.00" enable-background="new 0 0 24.00 24.00" xml:space="preserve">
	<path fill="#000000" fill-opacity="1" stroke-width="0.2" stroke-linejoin="round" d="M 18.9844,20.0156L 18.9844,22.9687L 17.0156,22.9687L 17.0156,20.0156L 14.0156,20.0156L 14.0156,18L 17.0156,18L 17.0156,15L 18.9844,15L 18.9844,18L 21.9844,18L 21.9844,20.0156L 18.9844,20.0156 Z M 21,11C 21,11.8962 20.8999,12.7831 20.7102,13.6455C 20.1261,13.3493 19.487,13.1458 18.8123,13.0545C 18.9348,12.4477 19,11.8335 19,11.2222L 19,6.29885L 12,3.18225L 4.99999,6.29885L 5,11.2222C 5,15.5389 8.24999,20 12,21L 12.3101,20.9091C 12.519,21.5321 12.8274,22.1094 13.2164,22.6222L 12,23C 6.83984,21.74 2.99999,16.55 2.99999,11L 3,5.00003L 12,1.00001L 21,5.00003L 21,11 Z "/>
</svg>
