<?xml version="1.0" encoding="utf-8"?>
<!DOCTYPE svg PUBLIC "-//W3C//DTD SVG 1.1//EN" "http://www.w3.org/Graphics/SVG/1.1/DTD/svg11.dtd">
<svg xmlns="http://www.w3.org/2000/svg" xmlns:xlink="http://www.w3.org/1999/xlink" version="1.1" baseProfile="full" width="24" height="24" viewBox="0 0 24.00 24.00" enable-background="new 0 0 24.00 24.00" xml:space="preserve">
	<path fill="#000000" fill-opacity="1" stroke-width="1.33333" stroke-linejoin="miter" d="M 12,1L 3,5L 3,11C 3,16.55 6.84,21.74 12,23C 17.16,21.74 21,16.55 21,11L 21,5L 12,1 Z M 12,5.6836C 12.5231,5.6837 12.9472,6.1077 12.9473,6.6309L 12.9473,10.1055L 18,13.2637L 18,14.5254L 12.9473,12.9473L 12.9473,16.4219L 14.2109,17.3691L 14.2109,18.3164L 12,17.6836L 9.78906,18.3164L 9.78906,17.3691L 11.0527,16.4219L 11.0527,12.9473L 6,14.5254L 6,13.2637L 11.0527,10.1055L 11.0527,6.6309C 11.0528,6.1077 11.4769,5.6837 12,5.6836 Z "/>
</svg>
