<?xml version="1.0" encoding="utf-8"?>
<!DOCTYPE svg PUBLIC "-//W3C//DTD SVG 1.1//EN" "http://www.w3.org/Graphics/SVG/1.1/DTD/svg11.dtd">
<svg xmlns="http://www.w3.org/2000/svg" xmlns:xlink="http://www.w3.org/1999/xlink" version="1.1" baseProfile="full" width="24" height="24" viewBox="0 0 24.00 24.00" enable-background="new 0 0 24.00 24.00" xml:space="preserve">
	<path fill="#000000" fill-opacity="1" stroke-width="1.33333" stroke-linejoin="miter" d="M 12,1L 3,5L 3,11C 3,16.55 6.84,21.74 12,23C 17.16,21.74 21,16.55 21,11L 21,5L 12,1 Z M 14.275,14.081L 12.257,16.1C 11.657,16.7 10.868,17 10.08,17C 9.292,17 8.502,16.7 7.902,16.1C 6.701,14.899 6.701,12.946 7.902,11.744L 9.151,10.497L 9.143,11.06C 9.138,11.509 9.21,11.948 9.358,12.365L 9.407,12.502L 9.037,12.873C 8.755,13.154 8.6,13.525 8.6,13.92C 8.6,14.315 8.755,14.686 9.036,14.966C 9.598,15.533 10.572,15.532 11.13,14.968L 13.144,12.955C 13.427,12.674 13.582,12.303 13.582,11.908C 13.582,11.512 13.427,11.141 13.145,10.861C 12.989,10.713 12.901,10.51 12.901,10.294C 12.901,10.078 12.988,9.876 13.146,9.725C 13.448,9.424 13.977,9.426 14.277,9.727C 14.859,10.308 15.178,11.082 15.178,11.904C 15.177,12.726 14.857,13.5 14.275,14.081 Z M 17.099,11.259L 15.851,12.507L 15.858,11.944C 15.864,11.495 15.792,11.058 15.644,10.644L 15.595,10.509L 15.963,10.133C 16.248,9.851 16.402,9.479 16.402,9.084C 16.402,8.689 16.247,8.318 15.965,8.038C 15.402,7.471 14.429,7.473 13.871,8.036L 11.857,10.05C 11.575,10.331 11.42,10.702 11.42,11.097C 11.42,11.492 11.574,11.863 11.855,12.142C 12.013,12.293 12.1,12.495 12.1,12.711C 12.1,12.927 12.013,13.13 11.853,13.281C 11.7,13.435 11.496,13.512 11.292,13.512C 11.087,13.512 10.88,13.434 10.724,13.277C 9.523,12.076 9.523,10.123 10.724,8.922L 12.743,6.903C 13.946,5.701 15.897,5.703 17.098,6.903C 17.68,7.484 18,8.257 18,9.081C 18,9.905 17.68,10.678 17.099,11.259 Z "/>
</svg>
