<?xml version="1.0" encoding="utf-8"?>
<!DOCTYPE svg PUBLIC "-//W3C//DTD SVG 1.1//EN" "http://www.w3.org/Graphics/SVG/1.1/DTD/svg11.dtd">
<svg xmlns="http://www.w3.org/2000/svg" xmlns:xlink="http://www.w3.org/1999/xlink" version="1.1" baseProfile="full" width="24" height="24" viewBox="0 0 24.00 24.00" enable-background="new 0 0 24.00 24.00" xml:space="preserve">
	<path fill="#000000" fill-opacity="1" stroke-width="1.33333" stroke-linejoin="miter" d="M 21,11C 21,16.55 17.16,21.74 12,23C 6.84,21.74 3,16.55 3,11L 3,5L 12,1L 21,5L 21,11M 12,21C 15.75,20 19,15.54 19,11.22L 19,6.3L 12,3.18L 5,6.3L 5,11.22C 5,15.54 8.25,20 12,21 Z M 14.275,9.725C 14.857,10.306 15.176,11.08 15.176,11.902C 15.176,12.725 14.856,13.499 14.275,14.08L 12.256,16.099C 11.656,16.699 10.867,16.999 10.079,16.999C 9.291,16.999 8.501,16.699 7.901,16.099C 6.7,14.898 6.7,12.945 7.901,11.743L 9.15,10.496L 9.143,11.059C 9.137,11.508 9.21,11.947 9.358,12.364L 9.405,12.5L 9.035,12.871C 8.753,13.152 8.598,13.523 8.598,13.918C 8.598,14.313 8.753,14.684 9.034,14.964C 9.596,15.531 10.57,15.53 11.128,14.966L 13.142,12.953C 13.425,12.672 13.58,12.301 13.58,11.906C 13.58,11.51 13.425,11.139 13.143,10.859C 12.987,10.71 12.899,10.508 12.899,10.292C 12.899,10.076 12.986,9.874 13.144,9.723C 13.445,9.422 13.975,9.424 14.275,9.725 Z M 17.999,9.08C 17.999,9.903 17.679,10.677 17.098,11.257L 15.85,12.505L 15.857,11.942C 15.863,11.493 15.791,11.056 15.643,10.642L 15.594,10.507L 15.962,10.131C 16.247,9.849 16.401,9.477 16.401,9.082C 16.401,8.687 16.246,8.316 15.964,8.036C 15.401,7.469 14.428,7.471 13.87,8.034L 11.856,10.048C 11.574,10.329 11.419,10.7 11.419,11.095C 11.419,11.49 11.573,11.86 11.854,12.14C 12.012,12.291 12.099,12.493 12.099,12.709C 12.099,12.925 12.012,13.128 11.852,13.279C 11.699,13.433 11.494,13.51 11.291,13.51C 11.086,13.51 10.879,13.432 10.723,13.275C 9.522,12.074 9.522,10.121 10.723,8.92L 12.742,6.901C 13.945,5.699 15.896,5.701 17.097,6.901C 17.679,7.482 17.999,8.256 17.999,9.08 Z "/>
</svg>
