<?xml version="1.0" encoding="utf-8"?>
<!DOCTYPE svg PUBLIC "-//W3C//DTD SVG 1.1//EN" "http://www.w3.org/Graphics/SVG/1.1/DTD/svg11.dtd">
<svg xmlns="http://www.w3.org/2000/svg" xmlns:xlink="http://www.w3.org/1999/xlink" version="1.1" baseProfile="full" width="24" height="24" viewBox="0 0 24.00 24.00" enable-background="new 0 0 24.00 24.00" xml:space="preserve">
	<path fill="#000000" fill-opacity="1" stroke-width="0.2" stroke-linejoin="miter" d="M 21,11C 21,16.55 17.1602,21.74 12,23C 6.83985,21.74 2.99999,16.55 2.99999,11L 3,5.00003L 12,1L 21,5.00003L 21,11 Z M 12,21C 15.75,20 19,15.5389 19,11.2222L 19,6.29886L 12,3.18225L 4.99999,6.29885L 5,11.2222C 5,15.5389 8.24999,20 12,21 Z M 12,6.00001C 13.6569,6.00001 15,7.34315 15,9C 15,10.3062 14.1652,11.4175 13,11.8293L 13,14L 15,14L 15,16L 13,16L 13,18L 11,18L 11,11.8293C 9.83481,11.4175 9,10.3062 9,9C 9,7.34315 10.3431,6.00001 12,6.00001 Z M 12,8.00001C 11.4477,8.00001 11,8.44772 11,9.00001C 11,9.55229 11.4477,10 12,10C 12.5523,10 13,9.55229 13,9.00001C 13,8.44772 12.5523,8.00001 12,8.00001 Z "/>
</svg>
