<?xml version="1.0" encoding="utf-8"?>
<!DOCTYPE svg PUBLIC "-//W3C//DTD SVG 1.1//EN" "http://www.w3.org/Graphics/SVG/1.1/DTD/svg11.dtd">
<svg xmlns="http://www.w3.org/2000/svg" xmlns:xlink="http://www.w3.org/1999/xlink" version="1.1" baseProfile="full" width="24" height="24" viewBox="0 0 24.00 24.00" enable-background="new 0 0 24.00 24.00" xml:space="preserve">
	<path fill="#000000" fill-opacity="1" stroke-width="1.33333" stroke-linejoin="miter" d="M 2,11L 4.04977,11.1026C 4.30291,8.8349 5.50398,6.85355 7.24764,5.56391L 6.13396,3.83975C 5.85782,3.36146 6.0217,2.74986 6.49999,2.47372C 6.97828,2.19758 7.58987,2.36146 7.86602,2.83975L 8.80165,4.66495C 9.78116,4.23725 10.8629,4 12,4C 13.1371,4 14.2188,4.23725 15.1983,4.66495L 16.134,2.83975C 16.4101,2.36146 17.0217,2.19758 17.5,2.47372C 17.9783,2.74986 18.1422,3.36146 17.866,3.83975L 16.7523,5.5639C 18.496,6.85351 19.697,8.83477 19.9502,11.1024L 22,11C 22.5523,11 23,11.4477 23,12C 23,12.5523 22.5523,13 22,13L 19.9502,12.8976C 19.697,15.1653 18.4959,17.1466 16.7522,18.4362L 17.866,20.1603C 18.1422,20.6385 17.9783,21.2501 17.5,21.5263C 17.0217,21.8024 16.4101,21.6385 16.134,21.1603L 15.1985,19.335C 14.219,19.7627 13.1372,20 12,20C 10.8628,20 9.78101,19.7627 8.80146,19.335L 7.86602,21.1602C 7.58988,21.6385 6.97829,21.8024 6.5,21.5263C 6.02171,21.2501 5.85783,20.6385 6.13397,20.1602L 7.24782,18.4362C 5.50406,17.1466 4.30291,15.1652 4.04977,12.8974L 2,13C 1.44772,13 1,12.5523 1,12C 1,11.4477 1.44772,11 2,11 Z M 9.06975,11.3539C 9.20456,10.7398 9.52749,10.1961 9.97509,9.78644L 8.33576,7.24849C 7.11356,8.19241 6.26561,9.59738 6.05249,11.2028L 9.06975,11.3539 Z M 12,9C 12.3154,9 12.6194,9.04867 12.9049,9.13889L 14.2834,6.44978C 13.5795,6.1599 12.8084,6.00001 12,6.00001C 11.1916,6.00001 10.4204,6.1599 9.71659,6.44978L 11.0951,9.13889C 11.3806,9.04867 11.6846,9 12,9 Z M 14.9301,11.3531L 17.9474,11.2024C 17.7342,9.59714 16.8863,8.19232 15.6642,7.24849L 14.0249,9.78644C 14.4723,10.196 14.7952,10.7393 14.9301,11.3531 Z M 14.9301,12.6469C 14.7951,13.2609 14.4721,13.8045 14.0244,14.2141L 15.6639,16.7518C 16.8862,15.8079 17.7342,14.403 17.9474,12.7976L 14.9301,12.6469 Z M 12,15C 11.6844,15 11.3801,14.9513 11.0944,14.8609L 9.7162,17.5501C 10.4202,17.8401 11.1914,18 12,18C 12.8086,18 13.5798,17.8401 14.2838,17.5501L 12.9056,14.8609C 12.6199,14.9513 12.3156,15 12,15 Z M 9.06975,12.6461L 6.05249,12.7972C 6.26563,14.4028 7.11372,15.8079 8.3361,16.7518L 9.97564,14.2141C 9.52776,13.8043 9.20461,13.2605 9.06975,12.6461 Z "/>
</svg>
