<?xml version="1.0" encoding="utf-8"?>
<!DOCTYPE svg PUBLIC "-//W3C//DTD SVG 1.1//EN" "http://www.w3.org/Graphics/SVG/1.1/DTD/svg11.dtd">
<svg xmlns="http://www.w3.org/2000/svg" xmlns:xlink="http://www.w3.org/1999/xlink" version="1.1" baseProfile="full" width="24" height="24" viewBox="0 0 24.00 24.00" enable-background="new 0 0 24.00 24.00" xml:space="preserve">
	<path fill="#000000" fill-opacity="1" stroke-width="1.33333" stroke-linejoin="miter" d="M 10.744,11.718C 11.21,12.946 11.155,14.23 9.752,14.744C 6.848,15.807 6.196,13.024 6.159,12.863L 10.744,11.718 Z M 5.713,10.912L 10.026,9.836C 9.842,8.785 10.128,7.738 10.128,6.486C 10.128,4.821 8.796,1.525 6.68,2.058C 4.255,2.657 3.913,5.354 4.016,6.653C 4.118,7.951 5.635,10.725 5.713,10.912 Z M 17.853,19.854C 17.817,20.015 17.164,22.799 14.26,21.735C 12.857,21.221 12.802,19.937 13.268,18.709L 17.853,19.854 Z M 19.996,13.645C 20.098,12.346 19.757,9.649 17.333,9.05C 15.216,8.517 13.885,11.814 13.885,13.478C 13.885,14.729 14.171,15.777 13.987,16.828L 18.3,17.904C 18.377,17.717 19.894,14.943 19.996,13.645 Z "/>
</svg>
