<?xml version="1.0" encoding="utf-8"?>
<!DOCTYPE svg PUBLIC "-//W3C//DTD SVG 1.1//EN" "http://www.w3.org/Graphics/SVG/1.1/DTD/svg11.dtd">
<svg xmlns="http://www.w3.org/2000/svg" xmlns:xlink="http://www.w3.org/1999/xlink" version="1.1" baseProfile="full" width="24" height="24" viewBox="0 0 24.00 24.00" enable-background="new 0 0 24.00 24.00" xml:space="preserve">
	<path fill="#000000" fill-opacity="1" stroke-width="0.2" stroke-linejoin="round" d="M 11.9994,12.9981C 9.2384,12.9981 6.99939,10.7591 6.99939,7.99807L 8.99939,7.99807C 8.99939,9.65506 10.3424,10.9981 11.9994,10.9981C 13.6564,10.9981 14.9994,9.65506 14.9994,7.99807L 16.9994,7.99807C 16.9994,10.7591 14.7604,12.9981 11.9994,12.9981 Z M 11.9994,2.99807C 13.6564,2.99807 14.9994,4.34107 14.9994,5.99807L 8.99939,5.99807C 8.99939,4.34107 10.3424,2.99807 11.9994,2.99807 Z M 18.9994,5.99807L 16.9994,5.99807C 16.9994,3.23707 14.7604,0.998068 11.9994,0.998068C 9.2384,0.998068 6.99939,3.23707 6.99939,5.99807L 4.99939,5.99807C 3.89438,5.99807 3.0094,6.89307 3.0094,7.99807L 2.99939,19.9981C 2.99939,21.1031 3.89438,21.9981 4.99939,21.9981L 18.9994,21.9981C 20.1034,21.9981 20.9994,21.1031 20.9994,19.9981L 20.9994,7.99807C 20.9994,6.89307 20.1034,5.99807 18.9994,5.99807 Z "/>
</svg>
