<?xml version="1.0" encoding="utf-8"?>
<!DOCTYPE svg PUBLIC "-//W3C//DTD SVG 1.1//EN" "http://www.w3.org/Graphics/SVG/1.1/DTD/svg11.dtd">
<svg xmlns="http://www.w3.org/2000/svg" xmlns:xlink="http://www.w3.org/1999/xlink" version="1.1" baseProfile="full" width="24" height="24" viewBox="0 0 24.00 24.00" enable-background="new 0 0 24.00 24.00" xml:space="preserve">
	<path fill="#000000" fill-opacity="1" stroke-width="1.33333" stroke-linejoin="miter" d="M 18.61,5.89C 18.6,5.79 18.51,5.73 18.44,5.73C 18.37,5.72 16.83,5.61 16.83,5.61C 16.83,5.61 15.76,4.55 15.65,4.43C 15.53,4.31 15.3,4.35 15.21,4.37C 15.2,4.37 14.98,4.44 14.61,4.55C 14.25,3.52 13.62,2.58 12.43,2.58C 12.11,2.18 11.72,2 11.38,2C 8.8,2 7.57,5.22 7.18,6.86C 6.18,7.17 5.47,7.39 5.37,7.42C 4.82,7.6 4.8,7.62 4.73,8.14C 4.67,8.54 3.21,19.86 3.21,19.86L 14.61,22L 20.79,20.66C 20.79,20.66 18.62,5.99 18.61,5.89 Z M 13.98,4.76C 13.69,4.85 13.37,4.95 13.02,5.06C 13.02,4.99 13.02,4.93 13.02,4.85C 13.02,4.21 12.93,3.7 12.79,3.29C 13.35,3.36 13.73,4.01 13.98,4.76 Z M 12.08,3.42C 12.24,3.82 12.34,4.39 12.34,5.16C 12.34,5.2 12.34,5.24 12.34,5.27C 11.71,5.46 11.03,5.68 10.35,5.89C 10.73,4.4 11.45,3.69 12.08,3.42 Z M 11.31,2.69C 11.42,2.69 11.53,2.73 11.64,2.8C 10.81,3.19 9.93,4.17 9.55,6.12C 9.01,6.3 8.47,6.46 7.98,6.62C 8.42,5.12 9.46,2.69 11.31,2.69 Z M 12.52,9.15L 11.76,11.42C 11.76,11.42 11.09,11.06 10.27,11.06C 9.07,11.06 9.01,11.81 9.01,12C 9.01,13.04 11.71,13.43 11.71,15.86C 11.71,17.77 10.5,19 8.87,19C 6.91,19 5.91,17.78 5.91,17.78L 6.43,16.05C 6.43,16.05 7.46,16.93 8.33,16.93C 8.9,16.93 9.13,16.48 9.13,16.16C 9.13,14.81 6.92,14.75 6.92,12.53C 6.92,10.66 8.26,8.85 10.97,8.85C 12,8.85 12.52,9.15 12.52,9.15 Z M 15.43,5.29L 16.75,6.6L 17.71,6.68C 18.05,8.98 19.19,16.73 19.66,19.88L 14.66,20.97L 15.43,5.29 Z "/>
</svg>
