<?xml version="1.0" encoding="utf-8"?>
<!DOCTYPE svg PUBLIC "-//W3C//DTD SVG 1.1//EN" "http://www.w3.org/Graphics/SVG/1.1/DTD/svg11.dtd">
<svg xmlns="http://www.w3.org/2000/svg" xmlns:xlink="http://www.w3.org/1999/xlink" version="1.1" baseProfile="full" width="24" height="24" viewBox="0 0 24.00 24.00" enable-background="new 0 0 24.00 24.00" xml:space="preserve">
	<path fill="#000000" fill-opacity="1" stroke-width="1.33333" stroke-linejoin="miter" d="M 20,20C 20.55,20 21,20.45 21,21C 21,21.55 20.55,22 20,22C 19.45,22 19,21.55 19,21C 19,20.45 19.45,20 20,20 Z M 16,20C 16.55,20 17,20.45 17,21C 17,21.55 16.55,22 16,22C 15.45,22 15,21.55 15,21C 15,20.45 15.45,20 16,20 Z M 12,20C 12.55,20 13,20.45 13,21C 13,21.55 12.55,22 12,22C 11.45,22 11,21.55 11,21C 11,20.45 11.45,20 12,20 Z M 8,20C 8.55,20 9,20.45 9,21C 9,21.55 8.55,22 8,22C 7.45,22 7,21.55 7,21C 7,20.45 7.45,20 8,20 Z M 4,20C 4.55,20 5,20.45 5,21C 5,21.55 4.55,22 4,22C 3.45,22 3,21.55 3,21C 3,20.45 3.45,20 4,20 Z M 6.00833,17C 6.55417,17.0042 7,17.45 7,18C 7,18.55 6.55417,18.9958 6.00833,19L 6,19C 5.45,19 5,18.55 5,18C 5,17.45 5.45,17 6,17L 6.00833,17 Z M 10,17C 10.55,17 11,17.45 11,18C 11,18.55 10.55,19 10,19C 9.45,19 9,18.55 9,18C 9,17.45 9.45,17 10,17 Z M 14,17C 14.55,17 15,17.45 15,18C 15,18.55 14.55,19 14,19C 13.45,19 13,18.55 13,18C 13,17.45 13.45,17 14,17 Z M 18,17C 18.55,17 19,17.45 19,18C 19,18.55 18.55,19 18,19C 17.45,19 17,18.55 17,18C 17,17.45 17.45,17 18,17 Z M 8,14C 8.55,14 9,14.45 9,15C 9,15.55 8.55,16 8,16C 7.45,16 7,15.55 7,15C 7,14.45 7.45,14 8,14 Z M 12,14C 12.55,14 13,14.45 13,15C 13,15.55 12.55,16 12,16C 11.45,16 11,15.55 11,15C 11,14.45 11.45,14 12,14 Z M 16,14C 16.55,14 17,14.45 17,15C 17,15.55 16.55,16 16,16C 15.45,16 15,15.55 15,15C 15,14.45 15.45,14 16,14 Z M 19,12L 5,12L 5,10L 19,10L 19,12 Z M 17.9167,9L 6.08333,9C 6.50417,6.4875 8.4875,4.50417 11,4.08334L 11,2L 13,2L 13,4.08334C 15.5125,4.50417 17.4958,6.4875 17.9167,9 Z "/>
</svg>
