<?xml version="1.0" encoding="utf-8"?>
<!DOCTYPE svg PUBLIC "-//W3C//DTD SVG 1.1//EN" "http://www.w3.org/Graphics/SVG/1.1/DTD/svg11.dtd">
<svg xmlns="http://www.w3.org/2000/svg" xmlns:xlink="http://www.w3.org/1999/xlink" version="1.1" baseProfile="full" width="24" height="24" viewBox="0 0 24.00 24.00" enable-background="new 0 0 24.00 24.00" xml:space="preserve">
	<path fill="#000000" fill-opacity="1" stroke-width="0.2" stroke-linejoin="miter" d="M 21,14L 21,15C 21,16.9083 19.9291,18.5708 18.3541,19.4125L 19,22L 17,22L 16.4958,19.975C 16.3333,19.9917 16.1666,20 16,20L 7.99996,20C 7.8333,20 7.66663,19.9917 7.50413,19.975L 6.99997,22L 4.99996,22L 5.6458,19.4125C 4.0708,18.5708 2.99996,16.9083 2.99996,15L 2.99996,14L 1.99996,14L 1.99996,12L 20,12L 20,5.00001C 20,4.45001 19.55,4.00001 19,4.00001C 18.5208,4.00001 18.1208,4.33751 18.025,4.78751C 18.625,5.33334 19,6.12501 19,7.00001L 13,7.00001C 13,5.34584 14.3458,4.00001 16,4.00001C 16.0583,4.00001 16.1125,4.00001 16.1708,4.00417C 16.5791,2.83751 17.6916,2.00001 19,2.00001C 20.6541,2.00001 22,3.34584 22,5.00001L 22,14L 21,14L 21,14 Z M 19,14L 4.99996,14L 4.99996,15C 4.99996,16.6542 6.3458,18 7.99996,18L 16,18C 17.6541,18 19,16.6542 19,15L 19,14 Z "/>
</svg>
