<?xml version="1.0" encoding="utf-8"?>
<!DOCTYPE svg PUBLIC "-//W3C//DTD SVG 1.1//EN" "http://www.w3.org/Graphics/SVG/1.1/DTD/svg11.dtd">
<svg xmlns="http://www.w3.org/2000/svg" xmlns:xlink="http://www.w3.org/1999/xlink" version="1.1" baseProfile="full" width="24" height="24" viewBox="0 0 24.00 24.00" enable-background="new 0 0 24.00 24.00" xml:space="preserve">
	<path fill="#000000" fill-opacity="1" stroke-width="1.33333" stroke-linejoin="miter" d="M 6,3L 6,7L 8,7L 8,5L 16,5L 16,7L 18,7L 18,3L 6,3 Z M 5,8C 3.34,8 2,9.34 2,11L 2,17L 5,17L 5,14L 19,14L 19,17L 22,17L 22,11C 22,9.34 20.66,8 19,8L 5,8 Z M 18,10C 18.55,10 19,10.45 19,11C 19,11.55 18.55,12 18,12C 17.45,12 17,11.55 17,11C 17,10.45 17.45,10 18,10 Z M 7,16L 7,21L 9,21L 9,16L 7,16 Z M 11,16L 11,20L 13,20L 13,16L 11,16 Z M 15,16L 15,21L 17,21L 17,16L 15,16 Z "/>
</svg>
