<?xml version="1.0" encoding="utf-8"?>
<!DOCTYPE svg PUBLIC "-//W3C//DTD SVG 1.1//EN" "http://www.w3.org/Graphics/SVG/1.1/DTD/svg11.dtd">
<svg xmlns="http://www.w3.org/2000/svg" xmlns:xlink="http://www.w3.org/1999/xlink" version="1.1" baseProfile="full" width="24" height="24" viewBox="0 0 24.00 24.00" enable-background="new 0 0 24.00 24.00" xml:space="preserve">
	<path fill="#000000" fill-opacity="1" stroke-linejoin="round" d="M 19,12C 19,16.4183 15.6421,20 11.5,20C 7.35786,20 4,16.4183 4,12C 4,7.58172 7.35786,4 11.5,4L 20,4L 20,6L 16.4609,6C 18.018,7.46589 19,9.61061 19,12 Z M 11.5,6C 8.46243,6 6,8.68629 6,12C 6,15.3137 8.46243,18 11.5,18C 14.5376,18 17,15.3137 17,12C 17,8.68629 14.5376,6 11.5,6 Z "/>
</svg>
