<?xml version="1.0" encoding="utf-8"?>
<!DOCTYPE svg PUBLIC "-//W3C//DTD SVG 1.1//EN" "http://www.w3.org/Graphics/SVG/1.1/DTD/svg11.dtd">
<svg xmlns="http://www.w3.org/2000/svg" xmlns:xlink="http://www.w3.org/1999/xlink" version="1.1" baseProfile="full" width="24" height="24" viewBox="0 0 24.00 24.00" enable-background="new 0 0 24.00 24.00" xml:space="preserve">
	<path fill="#000000" fill-opacity="1" stroke-width="0.2" stroke-linejoin="round" d="M 11,3L 12,2.00001L 13,3L 13,5.00001L 20,5.00001C 20.5523,5.00001 21,5.44772 21,6.00001L 21,16C 21,16.5523 20.5523,17 20,17L 13,17L 13,20C 14.1046,20 15,20.8954 15,22L 9,22C 9,20.8954 9.89543,20 11,20L 11,17L 4,17C 3.44771,17 3,16.5523 3,16L 3,6.00001C 3,5.44772 3.44771,5.00001 4,5.00001L 11,5.00001L 11,3 Z M 6,8L 6,10L 18,10L 18,8L 6,8 Z M 6,12L 6,14L 13,14L 13,12L 6,12 Z "/>
</svg>
