<?xml version="1.0" encoding="utf-8"?>
<!DOCTYPE svg PUBLIC "-//W3C//DTD SVG 1.1//EN" "http://www.w3.org/Graphics/SVG/1.1/DTD/svg11.dtd">
<svg xmlns="http://www.w3.org/2000/svg" xmlns:xlink="http://www.w3.org/1999/xlink" version="1.1" baseProfile="full" width="24" height="24" viewBox="0 0 24.00 24.00" enable-background="new 0 0 24.00 24.00" xml:space="preserve">
	<path fill="#000000" fill-opacity="1" stroke-width="1.33333" stroke-linejoin="miter" d="M 18,3L 18,16.1777L 21,19.1777L 21,3L 18,3 Z M 4.27734,5L 3,6.2676L 10.7324,14L 8,14L 8,21L 11,21L 11,14.2676L 13,16.2676L 13,21L 16,21L 16,19.2676L 19.7324,23L 21,21.7227L 4.27734,5 Z M 13,9L 13,11.1777L 16,14.1777L 16,9L 13,9 Z M 3,18L 3,21L 6,21L 6,18L 3,18 Z "/>
</svg>
