<?xml version="1.0" encoding="utf-8"?>
<!DOCTYPE svg PUBLIC "-//W3C//DTD SVG 1.1//EN" "http://www.w3.org/Graphics/SVG/1.1/DTD/svg11.dtd">
<svg xmlns="http://www.w3.org/2000/svg" xmlns:xlink="http://www.w3.org/1999/xlink" version="1.1" baseProfile="full" width="24" height="24" viewBox="0 0 24.00 24.00" enable-background="new 0 0 24.00 24.00" xml:space="preserve">
	<path fill="#000000" fill-opacity="1" stroke-linejoin="round" d="M 22,22L 2,22L 2,20L 22,20L 22,22 Z M 6.2,17.3L 5.5,18L 4.1,16.6L 2.7,18L 2,17.3L 3.4,15.9L 2,14.5L 2.7,13.8L 4.1,15.2L 5.5,13.8L 6.2,14.5L 4.8,15.9L 6.2,17.3 Z M 16.2233,14.425C 16.2233,13.8499 15.503,13.1964 14.0623,12.4647C 12.2344,11.5365 10.9987,10.7934 10.3552,10.2353C 9.71174,9.67726 9.39,9.05514 9.39,8.36896C 9.39,6.59229 10.3004,5.11886 12.1212,3.94865C 13.942,2.77844 15.4261,2.19334 16.5735,2.19334C 17.3138,2.19334 17.8505,2.32075 18.1836,2.57558C 18.5168,2.8304 18.6833,3.27243 18.6833,3.90167C 18.6833,4.18354 18.5602,4.42485 18.3139,4.62558C 18.0676,4.82631 17.8747,4.92667 17.7352,4.92667C 17.6327,4.92667 17.432,4.83271 17.133,4.64479L 16.5479,4.38C 16.081,4.38 15.1357,4.7117 13.7121,5.37511C 12.2885,6.03851 11.5767,6.78875 11.5767,7.62584C 11.5767,8.13549 11.8244,8.59674 12.3198,9.00959C 12.8152,9.42243 13.7064,9.92924 14.9933,10.53C 16.0326,11.0083 16.8618,11.5201 17.4811,12.0654C 18.1004,12.6106 18.41,13.2505 18.41,13.9851C 18.41,15.3432 17.4683,16.4052 15.5848,17.1711C 13.7014,17.937 11.9041,18.32 10.1929,18.32C 8.74653,18.32 8.02333,17.8317 8.02333,16.8551C 8.02333,16.5163 8.18562,16.2672 8.51021,16.1077C 8.83479,15.9483 9.1608,15.8685 9.48823,15.8685L 10.2484,16.0009L 10.9659,16.1333C 11.9511,16.1333 13.0067,15.9703 14.1328,15.6443C 15.2588,15.3183 15.9557,14.9119 16.2233,14.425 Z "/>
</svg>
