<?xml version="1.0" encoding="utf-8"?>
<!DOCTYPE svg PUBLIC "-//W3C//DTD SVG 1.1//EN" "http://www.w3.org/Graphics/SVG/1.1/DTD/svg11.dtd">
<svg xmlns="http://www.w3.org/2000/svg" xmlns:xlink="http://www.w3.org/1999/xlink" version="1.1" baseProfile="full" width="24" height="24" viewBox="0 0 24.00 24.00" enable-background="new 0 0 24.00 24.00" xml:space="preserve">
	<path fill="#000000" fill-opacity="1" stroke-width="0.2" stroke-linejoin="miter" d="M 22,16.5L 22,10.5L 17.5,10.5L 17.5,13.5L 19,13.5L 19,16.5L 16,16.5L 16,7.5L 22,7.5L 22,4.5L 16,4.5C 14.35,4.5 13,5.835 13,7.5L 13,16.5C 13,18.1568 14.3434,19.4729 16,19.5L 19,19.5C 20.6569,19.5 22,18.1568 22,16.5 Z M 10,4.49998L 3,4.5L 3,12L 3,13.5L 6.99999,13.5L 6.99999,16.5L 3,16.5L 3,19.5L 8.5,19.5C 9.32842,19.5 10,18.8284 10,18L 9.99999,12C 9.99999,11.1716 9.32842,10.5 8.49999,10.5L 6,10.5L 6,7.49999L 10,7.49997L 10,4.49998 Z "/>
</svg>
