<?xml version="1.0" encoding="utf-8"?>
<!DOCTYPE svg PUBLIC "-//W3C//DTD SVG 1.1//EN" "http://www.w3.org/Graphics/SVG/1.1/DTD/svg11.dtd">
<svg xmlns="http://www.w3.org/2000/svg" xmlns:xlink="http://www.w3.org/1999/xlink" version="1.1" baseProfile="full" width="24" height="24" viewBox="0 0 24.00 24.00" enable-background="new 0 0 24.00 24.00" xml:space="preserve">
	<path fill="#000000" fill-opacity="1" stroke-width="1.33333" stroke-linejoin="miter" d="M 11,19.5L 2,19.5L 2,13.5C 2,11.8431 3.34315,10.5 5,10.5L 8,10.5L 8,7.5L 2,7.5L 2,4.5L 8,4.5C 9.65,4.5 11,5.835 11,7.5L 11,10.5C 11,12.1569 9.65685,13.5 8,13.5L 5,13.5L 5,16.5L 11,16.5M 22,10.5L 17.5,10.5L 17.5,13.5L 19,13.5L 19,16.5L 16,16.5L 16,7.5L 22,7.5L 22,4.5L 16,4.5C 14.35,4.5 13,5.835 13,7.5L 13,16.5C 13,18.1568 14.3434,19.4729 16,19.5L 19,19.5C 20.6569,19.5 22,18.1568 22,16.5"/>
</svg>
