<?xml version="1.0" encoding="utf-8"?>
<!DOCTYPE svg PUBLIC "-//W3C//DTD SVG 1.1//EN" "http://www.w3.org/Graphics/SVG/1.1/DTD/svg11.dtd">
<svg xmlns="http://www.w3.org/2000/svg" xmlns:xlink="http://www.w3.org/1999/xlink" version="1.1" baseProfile="full" width="24" height="24" viewBox="0 0 24.00 24.00" enable-background="new 0 0 24.00 24.00" xml:space="preserve">
	<path fill="#000000" fill-opacity="1" stroke-width="1.33333" stroke-linejoin="miter" d="M 4,6L 4,4L 4.1,4C 12.9,4 20,11.1 20,19.9L 20,20L 18,20L 18,19.9C 18,12.2 11.8,6 4,6 Z M 4,10L 4,8C 10.6,8 16,13.4 16,20L 14,20C 14,14.5 9.5,10 4,10 Z M 4,14L 4,12C 8.4,12 12,15.6 12,20L 10,20C 10,16.7 7.3,14 4,14 Z M 4,16C 6.20914,16 8,17.7909 8,20L 4,20L 4,16 Z "/>
</svg>
