<?xml version="1.0" encoding="utf-8"?>
<!DOCTYPE svg PUBLIC "-//W3C//DTD SVG 1.1//EN" "http://www.w3.org/Graphics/SVG/1.1/DTD/svg11.dtd">
<svg xmlns="http://www.w3.org/2000/svg" xmlns:xlink="http://www.w3.org/1999/xlink" version="1.1" baseProfile="full" width="24" height="24" viewBox="0 0 24.00 24.00" enable-background="new 0 0 24.00 24.00" xml:space="preserve">
	<path fill="#000000" fill-opacity="1" stroke-width="1.33333" stroke-linejoin="miter" d="M 11,9L 9,9L 9,2L 7,2L 7,9L 5,9L 5,2L 3,2L 3,9C 3,11.12 4.66,12.84 6.75,12.97L 6.75,22L 9.25,22L 9.25,12.97C 11.34,12.84 13,11.12 13,9L 13,2L 11,2L 11,9 Z M 16,6L 16,14L 18.5,14L 18.5,22L 21,22L 21,2C 18.24,2 16,4.24 16,6 Z "/>
</svg>
