<?xml version="1.0" encoding="utf-8"?>
<!DOCTYPE svg PUBLIC "-//W3C//DTD SVG 1.1//EN" "http://www.w3.org/Graphics/SVG/1.1/DTD/svg11.dtd">
<svg xmlns="http://www.w3.org/2000/svg" xmlns:xlink="http://www.w3.org/1999/xlink" version="1.1" baseProfile="full" width="24" height="24" viewBox="0 0 24.00 24.00" enable-background="new 0 0 24.00 24.00" xml:space="preserve">
	<path fill="#000000" fill-opacity="1" stroke-width="1.33333" stroke-linejoin="miter" d="M 19.8025,3.53125C 19.8025,2.43125 18.9125,1.53125 17.8125,1.53125L 9.8125,1.53125L 3.8125,7.53125L 3.8125,19.5312C 3.8125,20.6312 4.7125,21.5312 5.8125,21.5312L 17.8225,21.5312C 18.9225,21.5312 19.8125,20.6312 19.8125,19.5312L 19.8025,3.53125 Z M 8.8125,18.5312L 6.8125,18.5312L 6.8125,16.5312L 8.8125,16.5312L 8.8125,18.5312 Z M 16.8125,18.5312L 14.8125,18.5312L 14.8125,16.5312L 16.8125,16.5312L 16.8125,18.5312 Z M 8.8125,14.5312L 6.8125,14.5312L 6.8125,10.5312L 8.8125,10.5312L 8.8125,14.5312 Z M 12.8125,18.5312L 10.8125,18.5312L 10.8125,14.5312L 12.8125,14.5312L 12.8125,18.5312 Z M 12.8125,12.5312L 10.8125,12.5312L 10.8125,10.5312L 12.8125,10.5312L 12.8125,12.5312 Z M 16.8125,14.5312L 14.8125,14.5312L 14.8125,10.5312L 16.8125,10.5312L 16.8125,14.5312 Z "/>
</svg>
