<?xml version="1.0" encoding="utf-8"?>
<!DOCTYPE svg PUBLIC "-//W3C//DTD SVG 1.1//EN" "http://www.w3.org/Graphics/SVG/1.1/DTD/svg11.dtd">
<svg xmlns="http://www.w3.org/2000/svg" xmlns:xlink="http://www.w3.org/1999/xlink" version="1.1" baseProfile="full" width="24" height="24" viewBox="0 0 24.00 24.00" enable-background="new 0 0 24.00 24.00" xml:space="preserve">
	<path fill="#000000" fill-opacity="1" stroke-width="1.33333" stroke-linejoin="miter" d="M 9.81853,13.8672C 10.8944,13.8672 11.7676,14.7413 11.7676,15.8172C 11.7676,16.894 10.8944,17.7672 9.81853,17.7672C 8.74266,17.7672 7.86949,16.894 7.86949,15.8172C 7.86949,14.7413 8.74266,13.8672 9.81853,13.8672 Z M 14.4923,3.34339L 15.1784,3.3083C 18.9429,3.3083 22,6.36536 22,10.1299L 21.9512,10.9466L 20.7643,10.5801L 20.7828,10.1299C 20.7828,7.03778 18.2715,4.52645 15.1784,4.52645L 14.8334,4.53717L 14.4923,3.34339 Z M 15.3167,6.22893C 17.3837,6.30104 19.0452,7.98403 19.0813,10.0607L 17.8368,9.67579C 17.6478,8.56484 16.7785,7.68485 15.6744,7.47923L 15.3167,6.22893 Z M 2.00485,15.4069C 1.96782,14.8027 2.07307,12.6432 4.94594,9.97204C 8.34506,6.81266 9.81853,7.04849 9.81853,7.04849C 9.81853,7.04849 13.0013,6.74834 11.062,10.4622L 11.1331,10.4632C 11.5951,9.95743 12.6154,9.20802 14.6911,8.99753C 16.7736,8.78606 16.7736,10.4788 16.5144,11.7008C 18.3816,12.6393 19.5637,14.028 19.5637,15.5755C 19.5637,18.3997 15.6286,20.6917 10.7813,20.6917L 10.6508,20.6907L 10.5231,20.6917C 7.02166,20.6917 4.01138,19.4151 2.7104,17.5928C 2.25336,16.9739 1.99998,16.2918 1.99998,15.5755L 2.00485,15.4069 Z M 9.81853,11.9211C 6.5919,11.9211 3.97143,13.6674 3.97143,15.8191C 3.97143,17.9709 6.5919,19.7172 9.81853,19.7172C 13.0451,19.7172 15.6656,17.9709 15.6656,15.8191C 15.6656,13.6674 13.0451,11.9211 9.81853,11.9211 Z "/>
</svg>
