<?xml version="1.0" encoding="utf-8"?>
<!DOCTYPE svg PUBLIC "-//W3C//DTD SVG 1.1//EN" "http://www.w3.org/Graphics/SVG/1.1/DTD/svg11.dtd">
<svg xmlns="http://www.w3.org/2000/svg" xmlns:xlink="http://www.w3.org/1999/xlink" version="1.1" baseProfile="full" width="24" height="24" viewBox="0 0 24.00 24.00" enable-background="new 0 0 24.00 24.00" xml:space="preserve">
	<path fill="#000000" fill-opacity="1" stroke-width="0.2" stroke-linejoin="round" d="M 12.0025,2.0025C 17.525,2.0025 22.0025,6.475 22.0025,12.0025C 22.0025,17.525 17.525,22.0025 12.0025,22.0025C 6.475,22.0025 2.0025,17.525 2.0025,12.0025C 2.0025,6.475 6.475,2.0025 12.0025,2.0025 Z M 12.0025,3.99875C 7.5875,3.99875 3.99875,7.5875 3.99875,12.0025C 3.99875,16.4113 7.5875,20 12.0025,20C 16.4112,20 20,16.4113 20,12.0025C 20,7.5875 16.4112,3.99875 12.0025,3.99875 Z M 16.0012,7.9975L 16.0012,16.0012L 11.0013,12.0025M 10,7.9975L 10,16.0012L 7.9975,16.0012L 7.9975,7.9975"/>
</svg>
