<?xml version="1.0" encoding="utf-8"?>
<!DOCTYPE svg PUBLIC "-//W3C//DTD SVG 1.1//EN" "http://www.w3.org/Graphics/SVG/1.1/DTD/svg11.dtd">
<svg xmlns="http://www.w3.org/2000/svg" xmlns:xlink="http://www.w3.org/1999/xlink" version="1.1" baseProfile="full" width="24" height="24" viewBox="0 0 24.00 24.00" enable-background="new 0 0 24.00 24.00" xml:space="preserve">
	<path fill="#000000" fill-opacity="1" stroke-width="1.33333" stroke-linejoin="miter" d="M 8,15C 6.9,15 6,14.1 6,13C 6,11.9 6.9,11 8,11C 9.1,11 10,11.9 10,13C 10,14.1 9.1,15 8,15 Z M 10.5,17L 12,14L 13.5,17L 10.5,17 Z M 16,15C 14.9,15 14,14.1 14,13C 14,11.9 14.9,11 16,11C 17.1,11 18,11.9 18,13C 18,14.1 17.1,15 16,15 Z M 22,11C 22,5.5 17.5,1 12,1C 6.5,1 2,5.5 2,11C 2,13.8 3.2,16.3 5,18.1L 5,22L 19,22L 19,18.1C 20.8,16.3 22,13.8 22,11 Z M 17,20L 15,20L 15,18L 13,18L 13,20L 11,20L 11,18L 9,18L 9,20L 7,20L 7,17.2C 5.2,15.7 4,13.5 4,11C 4,6.6 7.6,3 12,3C 16.4,3 20,6.6 20,11C 20,13.5 18.8,15.8 17,17.2L 17,20 Z "/>
</svg>
