<?xml version="1.0" encoding="utf-8"?>
<!DOCTYPE svg PUBLIC "-//W3C//DTD SVG 1.1//EN" "http://www.w3.org/Graphics/SVG/1.1/DTD/svg11.dtd">
<svg xmlns="http://www.w3.org/2000/svg" xmlns:xlink="http://www.w3.org/1999/xlink" version="1.1" baseProfile="full" width="24" height="24" viewBox="0 0 24.00 24.00" enable-background="new 0 0 24.00 24.00" xml:space="preserve">
	<path fill="#000000" fill-opacity="1" stroke-width="1.33333" stroke-linejoin="miter" d="M 15.8,18.5L 21.8,20.1L 21.4,22L 12,19.5L 2.6,22L 2.1,20.1L 8.1,18.5L 2,16.9L 2.5,15L 11.9,17.5L 21.3,15L 21.8,16.9L 15.8,18.5 Z M 9.5,6C 8.7,6 8,6.7 8,7.5C 8,8.3 8.7,9 9.5,9C 10.3,9 11,8.3 11,7.5C 11,6.7 10.3,6 9.5,6 Z M 14.5,6C 13.7,6 13,6.7 13,7.5C 13,8.3 13.7,9 14.5,9C 15.3,9 16,8.3 16,7.5C 16,6.7 15.3,6 14.5,6 Z M 13,11L 12,9L 11,11L 13,11 Z M 12,1C 8.1,1 5,4.1 5,8C 5,9.9 5.8,11.6 7,12.9L 7,16L 17,16L 17,12.9C 18.2,11.6 19,9.9 19,8C 19,4.1 15.9,1 12,1 Z M 15,12L 15,14L 14,14L 14,12L 13,12L 13,14L 11,14L 11,12L 10,12L 10,14L 9,14L 9,12L 9,12C 7.8,11.1 7,9.7 7,8C 7,5.2 9.2,3 12,3C 14.8,3 17,5.2 17,8C 17,9.6 16.2,11.1 15,12 Z "/>
</svg>
