<?xml version="1.0" encoding="utf-8"?>
<!DOCTYPE svg PUBLIC "-//W3C//DTD SVG 1.1//EN" "http://www.w3.org/Graphics/SVG/1.1/DTD/svg11.dtd">
<svg xmlns="http://www.w3.org/2000/svg" xmlns:xlink="http://www.w3.org/1999/xlink" version="1.1" baseProfile="full" width="24" height="24" viewBox="0 0 24.00 24.00" enable-background="new 0 0 24.00 24.00" xml:space="preserve">
	<path fill="#000000" fill-opacity="1" stroke-width="1.33333" stroke-linejoin="miter" d="M 15.8,18.5L 21.8,20.1L 21.4,22L 12,19.5L 2.6,22L 2.1,20.1L 8.1,18.5L 2,16.9L 2.5,15L 11.9,17.5L 21.3,15L 21.8,16.9L 15.8,18.5 Z M 18,8C 18,9.8 17.2,11.3 16,12.4L 16,15L 14,15L 14,13.7L 14,13L 13,13L 13,15L 11,15L 11,13L 10,13L 10,13.7L 10,15L 8,15L 8,12.4C 6.8,11.3 6,9.8 6,8C 6,4.7 8.7,2 12,2C 15.3,2 18,4.7 18,8 Z M 11,7.5C 11,6.7 10.3,6 9.5,6C 8.7,6 8,6.7 8,7.5C 8,8.3 8.7,9 9.5,9C 10.3,9 11,8.3 11,7.5 Z M 13,11L 12,9L 11,11L 13,11 Z M 16,7.5C 16,6.7 15.3,6 14.5,6C 13.7,6 13,6.7 13,7.5C 13,8.3 13.7,9 14.5,9C 15.3,9 16,8.3 16,7.5 Z "/>
</svg>
