<?xml version="1.0" encoding="utf-8"?>
<!DOCTYPE svg PUBLIC "-//W3C//DTD SVG 1.1//EN" "http://www.w3.org/Graphics/SVG/1.1/DTD/svg11.dtd">
<svg xmlns="http://www.w3.org/2000/svg" xmlns:xlink="http://www.w3.org/1999/xlink" version="1.1" baseProfile="full" width="24" height="24" viewBox="0 0 24.00 24.00" enable-background="new 0 0 24.00 24.00" xml:space="preserve">
	<path fill="#000000" fill-opacity="1" stroke-width="1.33333" stroke-linejoin="miter" d="M 7.47061,17.1891C 7.37194,17.9499 7.07594,18.2122 6.18792,18.2122C 5.26701,18.2122 4.87233,17.7925 4.80656,16.8743L 4.60922,13.6476C 4.60922,12.9131 4.87234,12.5458 5.85902,12.5458C 7.20749,12.5458 7.04305,13.5427 7.63506,14.4871C 8.32574,15.6151 10.0031,16.3496 12.3054,16.3496C 15.1668,16.3496 16.9757,15.1429 16.9757,13.5689C 16.9757,12.231 15.8903,11.3915 13.8512,11.1554L 11.4831,10.8931C 7.20749,10.4209 5.10256,9.1879 5.10256,6.6171C 5.10256,4.0724 8.06262,2 12.2067,2C 13.5223,2 14.805,2.2886 16.285,2.7608C 16.285,2.2623 16.581,2.1049 17.3046,2.1049C 18.4557,2.1049 18.5544,2.3935 18.6202,3.0756L 18.8504,5.8825C 18.8504,6.4859 18.3899,6.8269 17.6335,6.8269C 16.3508,6.8269 16.5481,5.8825 15.8574,5.0693C 15.1668,4.2561 13.7854,3.7314 12.0751,3.7314C 9.44398,3.7314 7.70084,4.8857 7.70084,6.5121C 7.70084,7.7976 8.91775,8.5583 11.3845,8.8207L 13.9499,9.083C 17.6993,9.4765 19.6069,10.9193 19.6069,13.3328C 19.6069,16.166 16.7126,18.081 12.2067,18.081C 10.5622,18.081 9.0822,17.7662 7.47061,17.1891 Z M 1,16L 2,16L 2,21L 23,21L 23,22L 1,22L 1,16 Z "/>
</svg>
