<?xml version="1.0" encoding="utf-8"?>
<!DOCTYPE svg PUBLIC "-//W3C//DTD SVG 1.1//EN" "http://www.w3.org/Graphics/SVG/1.1/DTD/svg11.dtd">
<svg xmlns="http://www.w3.org/2000/svg" xmlns:xlink="http://www.w3.org/1999/xlink" version="1.1" baseProfile="full" width="24" height="24" viewBox="0 0 24.00 24.00" enable-background="new 0 0 24.00 24.00" xml:space="preserve">
	<path fill="#000000" fill-opacity="1" stroke-width="0.2" stroke-linejoin="miter" d="M 6,15C 6,16.1046 5.10457,17 4,17C 2.89543,17 2,16.1046 2,15C 2,13.8954 2.89543,13 4,13L 6,13L 6,15 Z M 7,15C 7,13.8954 7.89543,13 9,13C 10.1046,13 11,13.8954 11,15L 11,20C 11,21.1046 10.1046,22 9,22C 7.89543,22 7,21.1046 7,20L 7,15 Z M 9,6.99977C 7.89543,6.99977 7,6.1046 7,4.99977C 7,3.8954 7.89543,2.99977 9,2.99977C 10.1046,2.99977 11,3.8954 11,4.99977L 11,6.99977L 9,6.99977 Z M 9,7.99977C 10.1046,7.99977 11,8.8954 11,10C 11,11.1046 10.1046,12 9,12L 4,12C 2.89543,12 2,11.1046 2,10C 2,8.8954 2.89543,7.99977 4,7.99977L 9,7.99977 Z M 17.0002,10C 17.0002,8.8954 17.8954,7.99977 19.0002,7.99977C 20.1046,7.99977 21.0002,8.8954 21.0002,10C 21.0002,11.1046 20.1046,12 19.0002,12L 17.0002,12L 17.0002,10 Z M 16.0002,10C 16.0002,11.1046 15.1046,12 14,12C 12.8954,12 12,11.1046 12,10L 12,4.99977C 12,3.8954 12.8954,2.99977 14,2.99977C 15.1046,2.99977 16.0002,3.8954 16.0002,4.99977L 16.0002,10 Z M 14,18C 15.1046,18 16.0002,18.8954 16.0002,20C 16.0002,21.1046 15.1046,22 14,22C 12.8954,22 12,21.1046 12,20L 12,18L 14,18 Z M 14,17C 12.8954,17 12,16.1046 12,15C 12,13.8954 12.8954,13 14,13L 19.0002,13C 20.1046,13 21.0002,13.8954 21.0002,15C 21.0002,16.1046 20.1046,17 19.0002,17L 14,17 Z "/>
</svg>
