<?xml version="1.0" encoding="utf-8"?>
<!DOCTYPE svg PUBLIC "-//W3C//DTD SVG 1.1//EN" "http://www.w3.org/Graphics/SVG/1.1/DTD/svg11.dtd">
<svg xmlns="http://www.w3.org/2000/svg" xmlns:xlink="http://www.w3.org/1999/xlink" version="1.1" baseProfile="full" width="24" height="24" viewBox="0 0 24.00 24.00" enable-background="new 0 0 24.00 24.00" xml:space="preserve">
	<path fill="#000000" fill-opacity="1" stroke-width="0.2" stroke-linejoin="round" d="M 23,12L 17,12L 17,10L 20.3892,6L 17,6L 17,4L 23,4L 23,6L 19.6188,10L 23,10L 23,12 Z M 15,16L 9,16L 9,14L 12.3892,10L 9,10L 9,8L 15,8L 15,10L 11.6188,14L 15,14L 15,16 Z M 7,20L 1,20L 1,18L 4.38919,14L 1,14L 1,12L 6.99999,12L 6.99999,14L 3.61879,18L 7,18L 7,20 Z "/>
</svg>
