<?xml version="1.0" encoding="utf-8"?>
<!DOCTYPE svg PUBLIC "-//W3C//DTD SVG 1.1//EN" "http://www.w3.org/Graphics/SVG/1.1/DTD/svg11.dtd">
<svg xmlns="http://www.w3.org/2000/svg" xmlns:xlink="http://www.w3.org/1999/xlink" version="1.1" baseProfile="full" width="24" height="24" viewBox="0 0 24.00 24.00" enable-background="new 0 0 24.00 24.00" xml:space="preserve">
	<path fill="#000000" fill-opacity="1" stroke-width="1.33333" stroke-linejoin="miter" d="M 2,6L 8.99,13L 2,13L 2,16L 11.99,16L 18.99,23L 20.25,21.75L 3.25,4.75L 2,6 Z M 20.5,13L 22,13L 22,16L 20.5,16L 20.5,13 Z M 18,13L 19.5,13L 19.5,16L 18,16L 18,13 Z M 18.85,4.88C 19.47,4.27 19.85,3.43 19.85,2.5L 18.35,2.5C 18.35,3.52 17.52,4.35 16.5,4.35L 16.5,5.85C 18.74,5.85 20.5,7.68 20.5,9.92L 20.5,12L 22,12L 22,9.92C 22,7.69 20.72,5.77 18.85,4.88 Z M 14.5,8.7L 16.03,8.7C 17.08,8.7 18,9.44 18,10.75L 18,12L 19.5,12L 19.5,10.41C 19.5,8.61 17.9,7.25 16.03,7.25L 14.5,7.25C 13.48,7.25 12.65,6.27 12.65,5.25C 12.65,4.23 13.48,3.5 14.5,3.5L 14.5,2C 12.65,2 11.15,3.5 11.15,5.35C 11.15,7.2 12.65,8.7 14.5,8.7 Z M 17,15.93L 17,13L 14.07,13L 17,15.93 Z "/>
</svg>
