<?xml version="1.0" encoding="utf-8"?>
<!DOCTYPE svg PUBLIC "-//W3C//DTD SVG 1.1//EN" "http://www.w3.org/Graphics/SVG/1.1/DTD/svg11.dtd">
<svg xmlns="http://www.w3.org/2000/svg" xmlns:xlink="http://www.w3.org/1999/xlink" version="1.1" baseProfile="full" width="24" height="24" viewBox="0 0 24.00 24.00" enable-background="new 0 0 24.00 24.00" xml:space="preserve">
	<path fill="#000000" fill-opacity="1" stroke-width="1.33333" stroke-linejoin="miter" d="M 2,16L 17,16L 17,19L 2,19L 2,16 Z M 20.5,16L 22,16L 22,19L 20.5,19L 20.5,16 Z M 18,16L 19.5,16L 19.5,19L 18,19L 18,16 Z M 18.85,7.73C 19.47,7.12 19.85,6.28 19.85,5.35C 19.85,3.5 18.35,2 16.5,2L 16.5,3.5C 17.52,3.5 18.35,4.33 18.35,5.35C 18.35,6.37 17.52,7.2 16.5,7.2L 16.5,8.7C 18.74,8.7 20.5,10.53 20.5,12.77L 20.5,15L 22,15L 22,12.76C 22,10.54 20.72,8.62 18.85,7.73 Z M 16.03,10.2L 14.5,10.2C 13.48,10.2 12.65,9.22 12.65,8.2C 12.65,7.18 13.48,6.45 14.5,6.45L 14.5,4.95C 12.65,4.95 11.15,6.45 11.15,8.3C 11.15,10.15 12.65,11.65 14.5,11.65L 16.03,11.65C 17.08,11.65 18,12.39 18,13.7L 18,15L 19.5,15L 19.5,13.36C 19.5,11.55 17.9,10.2 16.03,10.2 Z "/>
</svg>
