<?xml version="1.0" encoding="utf-8"?>
<!DOCTYPE svg PUBLIC "-//W3C//DTD SVG 1.1//EN" "http://www.w3.org/Graphics/SVG/1.1/DTD/svg11.dtd">
<svg xmlns="http://www.w3.org/2000/svg" xmlns:xlink="http://www.w3.org/1999/xlink" version="1.1" baseProfile="full" width="24" height="24" viewBox="0 0 24.00 24.00" enable-background="new 0 0 24.00 24.00" xml:space="preserve">
	<path fill="#000000" fill-opacity="1" stroke-linejoin="round" d="M 15.824,14L 19.824,18L 22,18L 22,14M 2,18L 5,18L 5,14L 2,14M 3.277,4L 2,5.268L 4.443,7.711C 2.931,8.611 2.003,10.24 2,12L 4,12C 4,10.756 4.767,9.641 5.929,9.197L 10.732,14L 7,14L 7,18L 14.732,18L 18.732,22L 20,20.723M 10,3L 10,4C 9.998,5.092 9.403,6.096 8.447,6.623L 9.894,8.07C 11.213,7.134 11.998,5.617 12,4L 12,3L 10,3 Z "/>
</svg>
