<?xml version="1.0" encoding="utf-8"?>
<!DOCTYPE svg PUBLIC "-//W3C//DTD SVG 1.1//EN" "http://www.w3.org/Graphics/SVG/1.1/DTD/svg11.dtd">
<svg xmlns="http://www.w3.org/2000/svg" xmlns:xlink="http://www.w3.org/1999/xlink" version="1.1" baseProfile="full" width="24" height="24" viewBox="0 0 24.00 24.00" enable-background="new 0 0 24.00 24.00" xml:space="preserve">
	<path fill="#000000" fill-opacity="1" stroke-linejoin="round" d="M 16.4573,9.412L 13,7.38L 13,5.12L 14.708,3.412L 13.2853,2L 12,3.292L 10.708,2L 9.28533,3.412L 11,5.12L 11,7.38L 8.5,8.81733L 6.5,7.688L 5.916,5.36L 4,5.88L 4.468,7.65067L 2.69733,8.12L 3.21867,10.052L 5.54667,9.432L 7.54667,10.5627L 7.54667,13.448L 5.54667,14.5787L 3.21867,13.9587L 2.69733,15.8907L 4.468,16.36L 4,18.12L 5.92667,18.64L 6.54667,16.312L 8.54667,15.1827L 11,16.62L 11,18.88L 9.28533,20.588L 10.708,22L 12,20.708L 13.2853,22L 14.6973,20.588L 13,18.88L 13,16.62L 16.4573,14.6147M 9.5,10.5627L 12,9.10933L 14.5,10.5627L 14.5,13.4373L 12,14.8907L 9.5,13.4373M 19,13L 19,7L 21,7L 21,13L 19,13 Z M 19,17L 19,15L 21,15L 21,17L 19,17 Z "/>
</svg>
