<?xml version="1.0" encoding="utf-8"?>
<!DOCTYPE svg PUBLIC "-//W3C//DTD SVG 1.1//EN" "http://www.w3.org/Graphics/SVG/1.1/DTD/svg11.dtd">
<svg xmlns="http://www.w3.org/2000/svg" xmlns:xlink="http://www.w3.org/1999/xlink" version="1.1" baseProfile="full" width="24" height="24" viewBox="0 0 24.00 24.00" enable-background="new 0 0 24.00 24.00" xml:space="preserve">
	<path fill="#000000" fill-opacity="1" stroke-linejoin="round" d="M 14.2453,12.0033L 16.2707,11.0033L 23,11.0033L 22,9.00333L 18.0267,9.00333L 20.4213,5.83134L 19.432,3.83134L 15.3747,9.19533L 13.3493,10.206L 13.7547,8.018L 17.8333,2.622L 15.636,2.21667L 12.0107,7.01267L 8.40133,2.20067L 6.19733,2.602L 10.26,8.01267L 10.656,10.2113L 8.82267,9.294L 8.66133,9.21133L 4.59867,3.79934L 3.59867,5.79933L 6,9.00333L 2,9.00333L 1,11.0033L 7.76533,11.0033L 9.75467,11.998L 7.72933,13.0033L 1,13.0033L 2,15.0033L 5.97333,15.0033L 3.57867,18.17L 4.568,20.174L 8.62533,14.8047L 10.6507,13.794L 10.2453,15.982L 6.16667,21.378L 8.364,21.7887L 11.9893,16.9873L 15.5987,21.7993L 17.8027,21.398L 13.74,15.9873L 13.344,13.7887L 15.344,14.7887L 19.4013,20.2007L 20.4013,18.2007L 18,15.0033L 22,15.0033L 23,13.0033L 16.2347,13.0033"/>
</svg>
