<?xml version="1.0" encoding="utf-8"?>
<!DOCTYPE svg PUBLIC "-//W3C//DTD SVG 1.1//EN" "http://www.w3.org/Graphics/SVG/1.1/DTD/svg11.dtd">
<svg xmlns="http://www.w3.org/2000/svg" xmlns:xlink="http://www.w3.org/1999/xlink" version="1.1" baseProfile="full" width="24" height="24" viewBox="0 0 24.00 24.00" enable-background="new 0 0 24.00 24.00" xml:space="preserve">
	<path fill="#000000" fill-opacity="1" stroke-width="1.33333" stroke-linejoin="miter" d="M 4,4C 2.89,4 2,4.89 2,6L 2,18C 2,19.1046 2.89543,20 4,20L 20,20C 21.1046,20 22,19.1046 22,18L 22,6C 22,4.89 21.1,4 20,4L 4,4 Z M 4,6L 11,6L 11,8.1328C 9.23601,8.5883 8.00264,10.1782 8,12C 8.00175,13.8226 9.23531,15.4135 11,15.8691L 11,18L 4,18L 4,16L 7,16L 7,8L 4,8L 4,6 Z M 13,6L 20,6L 20,8L 17,8L 17,16L 20,16L 20,18L 13,18L 13,15.8672C 14.764,15.4117 15.9974,13.8218 16,12C 15.9982,10.1774 14.7647,8.5865 13,8.1309L 13,6 Z M 4,10L 5,10L 5,14L 4,14L 4,10 Z M 19,10L 20,10L 20,14L 19,14L 19,10 Z M 13,10.2695C 13.6183,10.6265 13.9994,11.286 14,12C 13.9987,12.7133 13.6177,13.3719 13,13.7285L 13,10.2695 Z M 11,10.2715L 11,13.7305C 10.3817,13.3735 10.0006,12.714 10,12C 10.0013,11.2867 10.3823,10.6281 11,10.2715 Z "/>
</svg>
