<?xml version="1.0" encoding="utf-8"?>
<!DOCTYPE svg PUBLIC "-//W3C//DTD SVG 1.1//EN" "http://www.w3.org/Graphics/SVG/1.1/DTD/svg11.dtd">
<svg xmlns="http://www.w3.org/2000/svg" xmlns:xlink="http://www.w3.org/1999/xlink" version="1.1" baseProfile="full" width="24" height="24" viewBox="0 0 24.00 24.00" enable-background="new 0 0 24.00 24.00" xml:space="preserve">
	<path fill="#000000" fill-opacity="1" stroke-linejoin="round" d="M 7,6L 9,6C 10.1046,6 11,6.89543 11,8L 11,12L 5,12L 5,8C 5,6.89543 5.89543,6 7,6 Z M 15,6L 17,6C 18.1046,6 19,6.89543 19,8L 19,12L 13,12L 13,8C 13,6.89543 13.8954,6 15,6 Z M 1,9.00001L 2,9.00001C 2.55228,9.00001 3,9.44772 3,10L 3,12C 3,13.1046 3.89543,14 5,14L 19,14C 20.1046,14 21,13.1046 21,12L 21,11L 21,10C 21,9.44772 21.4477,9.00001 22,9.00001L 23,9.00001C 23.5523,9.00001 24,9.44772 24,10L 24,19L 21,19L 21,17L 3,17L 3,19L 0,19L 0,10C 0,9.44772 0.447715,9.00001 1,9.00001 Z "/>
</svg>
