<?xml version="1.0" encoding="utf-8"?>
<!DOCTYPE svg PUBLIC "-//W3C//DTD SVG 1.1//EN" "http://www.w3.org/Graphics/SVG/1.1/DTD/svg11.dtd">
<svg xmlns="http://www.w3.org/2000/svg" xmlns:xlink="http://www.w3.org/1999/xlink" version="1.1" baseProfile="full" width="24" height="24" viewBox="0 0 24.00 24.00" enable-background="new 0 0 24.00 24.00" xml:space="preserve">
	<path fill="#000000" fill-opacity="1" stroke-width="1.33333" stroke-linejoin="miter" d="M 11.45,2L 11.45,5.55L 15,3.77L 11.45,2 Z M 10.45,8L 8,10.46L 11.75,11.71L 10.45,8 Z M 2,11.45L 3.77,15L 5.55,11.45L 2,11.45 Z M 10,2L 2,2L 2,10C 2.57471,10.169 3.17098,10.2532 3.77,10.25C 7.35432,10.2555 10.2645,7.3543 10.27,3.75C 10.2647,3.1567 10.1738,2.5673 10,2 Z M 17,22L 17,16L 14,16L 19,7L 19,13L 22,13L 17,22 Z "/>
</svg>
