<?xml version="1.0" encoding="utf-8"?>
<!DOCTYPE svg PUBLIC "-//W3C//DTD SVG 1.1//EN" "http://www.w3.org/Graphics/SVG/1.1/DTD/svg11.dtd">
<svg xmlns="http://www.w3.org/2000/svg" xmlns:xlink="http://www.w3.org/1999/xlink" version="1.1" baseProfile="full" width="24" height="24" viewBox="0 0 24.00 24.00" enable-background="new 0 0 24.00 24.00" xml:space="preserve">
	<path fill="#000000" fill-opacity="1" fill-rule="evenodd" stroke-width="1.33333" stroke-linejoin="miter" d="M 3,6L 6,6L 6,3L 3,3L 3,6 Z M 8,3.00001L 8,6.00001L 11,6.00001L 11,3.00001L 8,3.00001 Z M 13,3.00001L 13,6.00001L 16,6.00001L 16,3.00001L 13,3.00001 Z M 18,3.00001L 18,6.00001L 21,6.00001L 21,3.00001L 18,3.00001 Z M 21,8.00001L 18,8.00001L 18,11L 21,11L 21,8.00001 Z M 21,13L 18,13L 18,16L 21,16L 21,13 Z M 16,16L 16,13L 13,13L 13,16L 16,16 Z M 11,16L 11,13L 8,13L 8,16L 11,16 Z M 6,16L 6,13L 3,13L 3,16L 6,16 Z M 3,11L 6,11L 6,8.00001L 3,8.00001L 3,11 Z M 13,8.00001L 13,11L 16,11L 16,8.00001L 13,8.00001 Z M 8,8.00001L 8,11L 11,11L 11,8.00001L 8,8.00001 Z M 3,1.00002L 21,1.00002C 22.1046,1.00002 23,1.89545 23,3.00001L 23,16C 23,17.1046 22.1046,18 21,18L 15,18L 15,21L 18,21L 18,23L 13,23L 13,18L 11,18L 11,23L 6,23L 6,21L 9,21L 9,18L 3,18C 1.89543,18 1,17.1046 1,16L 1,3.00001C 1,1.89545 1.89543,1.00002 3,1.00002 Z "/>
</svg>
