<?xml version="1.0" encoding="utf-8"?>
<!DOCTYPE svg PUBLIC "-//W3C//DTD SVG 1.1//EN" "http://www.w3.org/Graphics/SVG/1.1/DTD/svg11.dtd">
<svg xmlns="http://www.w3.org/2000/svg" xmlns:xlink="http://www.w3.org/1999/xlink" version="1.1" baseProfile="full" width="24" height="24" viewBox="0 0 24.00 24.00" enable-background="new 0 0 24.00 24.00" xml:space="preserve">
	<path fill="#000000" fill-opacity="1" stroke-width="0.2" stroke-linejoin="round" d="M 3,13L 3,11L 15,11L 15,13L 3,13 Z M 3,6L 21,6L 21,8L 3,8L 3,6 Z M 3,18L 3,16L 9,16L 9,18L 3,18 Z M 22,22L 14,22L 14,18L 15,18L 15,17C 15,15.3432 16.3431,14 18,14C 19.6569,14 21,15.3432 21,17L 21,18L 22,18L 22,22 Z M 18,16C 17.4477,16 17,16.4477 17,17L 17,18L 19,18L 19,17C 19,16.4477 18.5523,16 18,16 Z "/>
</svg>
