<?xml version="1.0" encoding="utf-8"?>
<!DOCTYPE svg PUBLIC "-//W3C//DTD SVG 1.1//EN" "http://www.w3.org/Graphics/SVG/1.1/DTD/svg11.dtd">
<svg xmlns="http://www.w3.org/2000/svg" xmlns:xlink="http://www.w3.org/1999/xlink" version="1.1" baseProfile="full" width="24" height="24" viewBox="0 0 24.00 24.00" enable-background="new 0 0 24.00 24.00" xml:space="preserve">
	<path fill="#000000" fill-opacity="1" stroke-linejoin="round" d="M 9.25,5L 12.5,1.75L 15.75,5L 9.25,5 Z M 15.75,19L 12.5,22.25L 9.25001,19L 15.75,19 Z M 8.89095,14.3027L 5.99984,14.3027L 5.28081,16.9907L 2.914,16.9907L 5.99984,7.004L 8.99581,7.004L 12.126,16.9907L 9.6699,16.9907L 8.89095,14.3027 Z M 6.3294,12.6787L 8.56139,12.6787L 7.93224,10.5568L 7.66635,9.59229L 7.42293,8.628L 7.39297,8.628L 7.16639,9.60098L 6.92859,10.5818L 6.3294,12.6787 Z M 13.0547,16.9767L 13.0547,15.7437L 17.8003,8.97093L 17.8003,8.91267L 13.4982,8.91267L 13.4982,7.018L 20.7275,7.018L 20.7275,8.34127L 16.0854,15.0235L 16.0854,15.082L 20.8013,15.082L 20.8013,16.9767L 13.0547,16.9767 Z "/>
</svg>
