<?xml version="1.0" encoding="utf-8"?>
<!DOCTYPE svg PUBLIC "-//W3C//DTD SVG 1.1//EN" "http://www.w3.org/Graphics/SVG/1.1/DTD/svg11.dtd">
<svg xmlns="http://www.w3.org/2000/svg" xmlns:xlink="http://www.w3.org/1999/xlink" version="1.1" baseProfile="full" width="24" height="24" viewBox="0 0 24.00 24.00" enable-background="new 0 0 24.00 24.00" xml:space="preserve">
	<path fill="#000000" fill-opacity="1" stroke-width="0.2" stroke-linejoin="round" d="M 8,7.62939e-006L 20,7.62939e-006C 21.1046,7.62939e-006 22,0.895433 22,2.00001L 22,18C 22,19.1046 21.1046,20 20,20L 8,20C 6.89543,20 6,19.1046 6,18L 6,2.00001C 6,0.895433 6.89543,7.62939e-006 8,7.62939e-006 Z M 14.75,11.5C 17.5109,11.5 18.2391,9.46733 18.4312,8.39505C 19.3408,8.10643 20,7.2552 20,6.25001C 20,5.00736 18.9926,4 17.75,4C 16.5074,4 15.5,5.00736 15.5,6.25001C 15.5,7.18807 16.0741,7.99206 16.8901,8.32982C 16.669,8.99649 16.0035,10 14,10C 12.6201,10 11.6634,10.3526 11,10.8416L 11,6.87198C 11.8739,6.5631 12.5,5.72967 12.5,4.75001C 12.5,3.50737 11.4926,2.50001 10.25,2.50001C 9.00735,2.50001 7.99999,3.50737 7.99999,4.75001C 7.99999,5.72967 8.6261,6.5631 9.49999,6.87198L 9.49999,13.128C 8.6261,13.4369 7.99999,14.2703 7.99999,15.25C 7.99999,16.4926 9.00735,17.5 10.25,17.5C 11.4926,17.5 12.5,16.4926 12.5,15.25C 12.5,14.3209 11.9369,13.5234 11.1334,13.18C 11.4056,12.5135 12.2332,11.5 14.75,11.5 Z M 10.25,14.5C 10.6642,14.5 11,14.8358 11,15.25C 11,15.6642 10.6642,16 10.25,16C 9.83578,16 9.49999,15.6642 9.49999,15.25C 9.49999,14.8358 9.83578,14.5 10.25,14.5 Z M 10.25,4.00001C 10.6642,4.00001 11,4.3358 11,4.75001C 11,5.16422 10.6642,5.50001 10.25,5.50001C 9.83578,5.50001 9.49999,5.16422 9.49999,4.75001C 9.49999,4.3358 9.83578,4.00001 10.25,4.00001 Z M 17.75,5.50001C 18.1642,5.50001 18.5,5.83579 18.5,6.25001C 18.5,6.66422 18.1642,7.00001 17.75,7.00001C 17.3358,7.00001 17,6.66422 17,6.25001C 17,5.83579 17.3358,5.50001 17.75,5.50001 Z M 16,22L 16,24L 4,24C 2.89543,24 2,23.1046 2,22L 2,6.00001L 4,6.00001L 4,22L 16,22 Z "/>
</svg>
