<?xml version="1.0" encoding="utf-8"?>
<!DOCTYPE svg PUBLIC "-//W3C//DTD SVG 1.1//EN" "http://www.w3.org/Graphics/SVG/1.1/DTD/svg11.dtd">
<svg xmlns="http://www.w3.org/2000/svg" xmlns:xlink="http://www.w3.org/1999/xlink" version="1.1" baseProfile="full" width="24" height="24" viewBox="0 0 24.00 24.00" enable-background="new 0 0 24.00 24.00" xml:space="preserve">
	<path fill="#000000" fill-opacity="1" stroke-width="0.2" stroke-linejoin="round" d="M 6,3C 7.65685,3 9,4.34315 9,6C 9,7.30622 8.16519,8.41746 7,8.8293L 7,15.1707C 8.16519,15.5825 9,16.6938 9,18C 9,19.6569 7.65685,21 6,21C 4.34314,21 3,19.6569 3,18C 3,16.6938 3.83481,15.5825 5,15.1707L 5,8.8293C 3.83481,8.41746 3,7.30622 3,6C 3,4.34315 4.34315,3 6,3 Z M 6,5.00001C 5.44771,5.00001 5,5.44772 5,6.00001C 5,6.55229 5.44771,7.00001 6,7.00001C 6.55228,7.00001 7,6.55229 7,6.00001C 7,5.44772 6.55228,5.00001 6,5.00001 Z M 6,17C 5.44771,17 5,17.4477 5,18C 5,18.5523 5.44771,19 6,19C 6.55228,19 6.99999,18.5523 6.99999,18C 6.99999,17.4477 6.55228,17 6,17 Z M 21,18C 21,19.6569 19.6568,21 18,21C 16.3431,21 15,19.6569 15,18C 15,16.6938 15.8348,15.5825 17,15.1707L 17,7.00001L 15,7.00001L 15,10.25L 10.75,6.00001L 15,1.75002L 15,5.00001L 17,5C 18.1046,5 19,5.89544 19,7.00001L 19,15.1707C 20.1652,15.5825 21,16.6938 21,18 Z M 18,17C 17.4477,17 17,17.4477 17,18C 17,18.5523 17.4477,19 18,19C 18.5523,19 19,18.5523 19,18C 19,17.4477 18.5523,17 18,17 Z "/>
</svg>
