<?xml version="1.0" encoding="utf-8"?>
<!DOCTYPE svg PUBLIC "-//W3C//DTD SVG 1.1//EN" "http://www.w3.org/Graphics/SVG/1.1/DTD/svg11.dtd">
<svg xmlns="http://www.w3.org/2000/svg" xmlns:xlink="http://www.w3.org/1999/xlink" version="1.1" baseProfile="full" width="24" height="24" viewBox="0 0 24.00 24.00" enable-background="new 0 0 24.00 24.00" xml:space="preserve">
	<path fill="#000000" fill-opacity="1" stroke-width="0.2" stroke-linejoin="round" d="M 6,2L 18,2C 19.1046,2 20,2.89543 20,4L 20,20C 20,21.1046 19.1046,22 18,22L 6,22C 4.89543,22 4,21.1046 4,20L 4,4C 4,2.89543 4.89543,2 6,2 Z M 12.75,13.5C 15.5109,13.5 16.2391,11.4673 16.4312,10.395C 17.3408,10.1064 18,9.25519 18,8.25C 18,7.00736 16.9926,6 15.75,6C 14.5074,6 13.5,7.00736 13.5,8.25C 13.5,9.18807 14.0741,9.99206 14.8901,10.3298C 14.669,10.9965 14.0035,12 12,12C 10.6201,12 9.66337,12.3526 9,12.8416L 9,8.87197C 9.87389,8.5631 10.5,7.72967 10.5,6.75C 10.5,5.50736 9.49264,4.50001 8.25,4.50001C 7.00736,4.50001 6,5.50736 6,6.75C 6,7.72967 6.6261,8.5631 7.5,8.87197L 7.5,15.128C 6.6261,15.4369 6,16.2703 6,17.25C 6,18.4926 7.00736,19.5 8.25,19.5C 9.49264,19.5 10.5,18.4926 10.5,17.25C 10.5,16.3209 9.9369,15.5234 9.13337,15.18C 9.40556,14.5135 10.2332,13.5 12.75,13.5 Z M 8.25,16.5C 8.66421,16.5 9,16.8358 9,17.25C 9,17.6642 8.66421,18 8.25,18C 7.83578,18 7.49999,17.6642 7.49999,17.25C 7.49999,16.8358 7.83578,16.5 8.25,16.5 Z M 8.25,6.00001C 8.66421,6.00001 9,6.33579 9,6.75001C 9,7.16422 8.66421,7.50001 8.25,7.50001C 7.83578,7.50001 7.5,7.16422 7.5,6.75001C 7.5,6.33579 7.83578,6.00001 8.25,6.00001 Z M 15.75,7.50001C 16.1642,7.50001 16.5,7.83579 16.5,8.25C 16.5,8.66422 16.1642,9 15.75,9C 15.3358,9 15,8.66422 15,8.25C 15,7.83579 15.3358,7.50001 15.75,7.50001 Z "/>
</svg>
