<?xml version="1.0" encoding="utf-8"?>
<!DOCTYPE svg PUBLIC "-//W3C//DTD SVG 1.1//EN" "http://www.w3.org/Graphics/SVG/1.1/DTD/svg11.dtd">
<svg xmlns="http://www.w3.org/2000/svg" xmlns:xlink="http://www.w3.org/1999/xlink" version="1.1" baseProfile="full" width="24" height="24" viewBox="0 0 24.00 24.00" enable-background="new 0 0 24.00 24.00" xml:space="preserve">
	<path fill="#000000" fill-opacity="1" stroke-width="1.33333" stroke-linejoin="miter" d="M 13.9,7.5C 13.9,6.8 14.1,6.3 14.2,6L 14.8,6L 15.7,3.5L 16.5,3.5L 16.5,2L 7.5,2L 7.5,3.5L 8.3,3.5L 9.2,6L 9.8,6C 10,6.3 10.1,6.8 10.1,7.5C 10.1,8.8 6,13.7 6,17.6L 6,19.6C 6,21 8.7,21.9 12,21.9C 15.3,21.9 18,21 18,19.6L 18,17.6C 18,13.7 13.9,8.8 13.9,7.5 Z M 12,15C 10.9,15 10,14.1 10,13C 10,11.9 10.9,11 12,11C 13.1,11 14,11.9 14,13C 14,14.1 13.1,15 12,15 Z "/>
</svg>
