<?xml version="1.0" encoding="utf-8"?>
<!DOCTYPE svg PUBLIC "-//W3C//DTD SVG 1.1//EN" "http://www.w3.org/Graphics/SVG/1.1/DTD/svg11.dtd">
<svg xmlns="http://www.w3.org/2000/svg" xmlns:xlink="http://www.w3.org/1999/xlink" version="1.1" baseProfile="full" width="24" height="24" viewBox="0 0 24.00 24.00" enable-background="new 0 0 24.00 24.00" xml:space="preserve">
	<path fill="#000000" fill-opacity="1" stroke-width="1.33333" stroke-linejoin="miter" d="M 15.49,9.63C 14.21,10.32 13.03,11.2 12,12.26C 10.97,11.19 9.79,10.31 8.51,9.63C 8.74,6.86 9.92,4.14 12.06,2C 14.18,4.12 15.31,6.84 15.49,9.63 Z M 12,15.45C 14.15,12.17 17.82,10 22,10C 22,20 12.68,21.88 12,22C 11.32,21.89 2,20 2,10C 6.18,10 9.85,12.17 12,15.45 Z M 12.05,5.19C 11.39,6.23 10.93,7.38 10.68,8.58L 12.01,9.55L 13.35,8.57C 13.12,7.37 12.68,6.22 12.05,5.19 Z M 11.99,19.97C 11.99,19.97 18,19 19.74,12.25C 14,14 12,19.1 12,19.1C 12,19.1 9,13 4.26,12.26C 6,19 11.99,19.97 11.99,19.97 Z "/>
</svg>
