<?xml version="1.0" encoding="utf-8"?>
<!DOCTYPE svg PUBLIC "-//W3C//DTD SVG 1.1//EN" "http://www.w3.org/Graphics/SVG/1.1/DTD/svg11.dtd">
<svg xmlns="http://www.w3.org/2000/svg" xmlns:xlink="http://www.w3.org/1999/xlink" version="1.1" baseProfile="full" width="24" height="24" viewBox="0 0 24.00 24.00" enable-background="new 0 0 24.00 24.00" xml:space="preserve">
	<path fill="#000000" fill-opacity="1" stroke-width="1.33333" stroke-linejoin="miter" d="M 7,6L 5,6L 5,4L 7,4L 7,6 Z M 17,6L 19,6L 19,4L 17,4L 17,6 Z M 23,12L 23,18L 21,18L 21,14L 19,14L 19,18L 17,18L 17,16L 7,16L 7,18L 5,18L 5,14L 3,14L 3,18L 1,18L 1,12L 3,12L 3,10L 5,10L 5,8L 7,8L 7,6L 9,6L 9,8L 15,8L 15,6L 17,6L 17,8L 19,8L 19,10L 21,10L 21,12L 23,12 Z M 15,10L 15,12L 17,12L 17,10L 15,10 Z M 7,12L 9,12L 9,10L 7,10L 7,12 Z M 11,18L 7,18L 7,20L 11,20L 11,18 Z M 17,18L 13,18L 13,20L 17,20L 17,18 Z "/>
</svg>
