<?xml version="1.0" encoding="utf-8"?>
<!DOCTYPE svg PUBLIC "-//W3C//DTD SVG 1.1//EN" "http://www.w3.org/Graphics/SVG/1.1/DTD/svg11.dtd">
<svg xmlns="http://www.w3.org/2000/svg" xmlns:xlink="http://www.w3.org/1999/xlink" version="1.1" baseProfile="full" width="24" height="24" viewBox="0 0 24.00 24.00" enable-background="new 0 0 24.00 24.00" xml:space="preserve">
	<path fill="#000000" fill-opacity="1" stroke-width="0.2" stroke-linejoin="round" d="M 20.0664,19.0664L 18.6621,17.6621C 20.1083,16.2159 21,14.2148 21,12C 21,9.7849 20.1083,7.78409 18.6621,6.33789L 20.0664,4.93359C 21.8775,6.74469 23,9.2445 23,12C 23,14.7555 21.8775,17.2553 20.0664,19.0664 Z M 17.2383,16.2383L 15.832,14.832C 16.5544,14.1097 17,13.1105 17,12C 17,10.8895 16.5544,9.8903 15.832,9.168L 17.2383,7.76172C 18.3255,8.849 19,10.349 19,12C 19,13.6509 18.3255,15.151 17.2383,16.2383 Z M 4,3.00001L 12,3.00001C 13.1046,3.00001 14,3.89544 14,5.00001L 14,19C 14,20.1046 13.1046,21 12,21L 4,21C 2.89543,21 2,20.1046 2,19L 2,5.00001C 2,3.89544 2.89543,3.00001 4,3.00001 Z M 8,5.00001C 6.89543,5.00001 6,5.89544 6,7.00001C 6,8.10458 6.89543,9.00001 8,9.00001C 9.10457,9.00001 10,8.10458 10,7.00001C 10,5.89544 9.10457,5.00001 8,5.00001 Z M 8,11C 5.79086,11 4,12.7909 4,15C 4,17.2091 5.79086,19 8,19C 10.2091,19 12,17.2091 12,15C 12,12.7909 10.2091,11 8,11 Z M 8,13C 9.10457,13 10,13.8954 10,15C 10,16.1046 9.10457,17 8,17C 6.89543,17 6,16.1046 6,15C 6,13.8954 6.89543,13 8,13 Z "/>
</svg>
