<?xml version="1.0" encoding="utf-8"?>
<!DOCTYPE svg PUBLIC "-//W3C//DTD SVG 1.1//EN" "http://www.w3.org/Graphics/SVG/1.1/DTD/svg11.dtd">
<svg xmlns="http://www.w3.org/2000/svg" xmlns:xlink="http://www.w3.org/1999/xlink" version="1.1" baseProfile="full" width="24" height="24" viewBox="0 0 24.00 24.00" enable-background="new 0 0 24.00 24.00" xml:space="preserve">
	<path fill="#000000" fill-opacity="1" stroke-width="0.2" stroke-linejoin="round" d="M 11.9994,11.9981C 10.3434,11.9981 8.99943,13.3421 8.99943,14.9981C 8.99943,16.6541 10.3434,17.9981 11.9994,17.9981C 13.6554,17.9981 14.9994,16.6541 14.9994,14.9981C 14.9994,13.3421 13.6554,11.9981 11.9994,11.9981 Z M 11.9994,19.9981C 9.23942,19.9981 6.99943,17.7601 6.99943,14.9981C 6.99943,12.2361 9.23942,9.99807 11.9994,9.99807C 14.7604,9.99807 16.9994,12.2361 16.9994,14.9981C 16.9994,17.7601 14.7604,19.9981 11.9994,19.9981 Z M 11.9994,3.99807C 13.1024,3.99807 13.9994,4.89406 13.9994,5.99807C 13.9994,7.10207 13.1024,7.99807 11.9994,7.99807C 10.8934,7.99807 9.99943,7.10207 9.99943,5.99807C 9.99943,4.89406 10.8934,3.99807 11.9994,3.99807 Z M 16.9994,1.99807L 6.99943,1.99807C 5.89442,1.99807 4.99943,2.89406 4.99943,3.99807L 4.99943,19.9981C 4.99943,21.1021 5.89442,21.9881 6.99943,21.9881L 16.9994,21.9981C 18.1034,21.9981 18.9994,21.1021 18.9994,19.9981L 18.9994,3.99807C 18.9994,2.89406 18.1034,1.99807 16.9994,1.99807 Z "/>
</svg>
