<?xml version="1.0" encoding="utf-8"?>
<!DOCTYPE svg PUBLIC "-//W3C//DTD SVG 1.1//EN" "http://www.w3.org/Graphics/SVG/1.1/DTD/svg11.dtd">
<svg xmlns="http://www.w3.org/2000/svg" xmlns:xlink="http://www.w3.org/1999/xlink" version="1.1" baseProfile="full" width="24" height="24" viewBox="0 0 24.00 24.00" enable-background="new 0 0 24.00 24.00" xml:space="preserve">
	<path fill="#000000" fill-opacity="1" stroke-width="1.33333" stroke-linejoin="miter" d="M 4,3C 2.89543,3 2,3.8954 2,5L 2,19C 2,20.1046 2.89543,21 4,21L 12,21C 13.1046,21 14,20.1046 14,19L 14,5C 14,3.8954 13.1046,3 12,3L 4,3 Z M 8,5C 9.10457,5 10,5.8954 10,7C 10,8.1046 9.10457,9 8,9C 6.89543,9 6,8.1046 6,7C 6,5.8954 6.89543,5 8,5 Z M 19,7L 19,10.7891L 16.7109,8.5L 16,9.209L 18.7891,12L 16,14.7891L 16.7109,15.5L 19,13.209L 19,17L 19.5,17L 22.3496,14.1406L 20.2109,12L 22.3496,9.8496L 19.5,7L 19,7 Z M 20,8.9102L 20.9395,9.8496L 20,10.7891L 20,8.9102 Z M 8,11C 10.2091,11 12,12.7909 12,15C 12,17.2091 10.2091,19 8,19C 5.79086,19 4,17.2091 4,15C 4,12.7909 5.79086,11 8,11 Z M 8,13C 6.89543,13 6,13.8954 6,15C 6,16.1046 6.89543,17 8,17C 9.10457,17 10,16.1046 10,15C 10,13.8954 9.10457,13 8,13 Z M 20,13.209L 20.9395,14.1406L 20,15.0801L 20,13.209 Z "/>
</svg>
