<?xml version="1.0" encoding="utf-8"?>
<!DOCTYPE svg PUBLIC "-//W3C//DTD SVG 1.1//EN" "http://www.w3.org/Graphics/SVG/1.1/DTD/svg11.dtd">
<svg xmlns="http://www.w3.org/2000/svg" xmlns:xlink="http://www.w3.org/1999/xlink" version="1.1" baseProfile="full" width="24" height="24" viewBox="0 0 24.00 24.00" enable-background="new 0 0 24.00 24.00" xml:space="preserve">
	<path fill="#000000" fill-opacity="1" stroke-linejoin="round" d="M 12,16C 13.656,16 15,14.656 15,13C 15,11.88 14.3907,10.9013 13.5,10.3907L 3.792,4.77067L 9.31734,14.3493C 9.81734,15.328 10.828,16 12,16 Z M 12,3C 10.188,3 8.5,3.5 7.03067,4.31733L 9.13067,5.53066C 10,5.188 11,5 12,5C 16.416,5 20,8.584 20,13C 20,15.208 19.1093,17.208 17.6613,18.6507L 17.6507,18.6507C 17.26,19.0413 17.26,19.672 17.6507,20.0627C 18.0413,20.448 18.6827,20.448 19.068,20.068C 20.88,18.26 22,15.76 22,13C 22,7.47867 17.5213,3 12,3 Z M 2,13C 2,15.76 3.12,18.26 4.932,20.068C 5.31734,20.448 5.948,20.448 6.33867,20.0627C 6.72934,19.672 6.72934,19.0413 6.33867,18.6507C 4.89067,17.1973 4,15.208 4,13C 4,12 4.188,11 4.54134,10.0987L 3.328,8C 2.5,9.5 2,11.1827 2,13 Z "/>
</svg>
