<?xml version="1.0" encoding="utf-8"?>
<!DOCTYPE svg PUBLIC "-//W3C//DTD SVG 1.1//EN" "http://www.w3.org/Graphics/SVG/1.1/DTD/svg11.dtd">
<svg xmlns="http://www.w3.org/2000/svg" xmlns:xlink="http://www.w3.org/1999/xlink" version="1.1" baseProfile="full" width="24" height="24" viewBox="0 0 24.00 24.00" enable-background="new 0 0 24.00 24.00" xml:space="preserve">
	<path fill="#000000" fill-opacity="1" stroke-linejoin="round" d="M 12,1.37467L 9.136,12.0573C 8.79733,13.104 9.036,14.292 9.864,15.12C 11.036,16.292 12.9373,16.292 14.1093,15.12C 14.9013,14.328 15.1613,13.2027 14.8907,12.2133M 14.5987,3.35334L 15.224,5.68133C 18.036,6.92134 20,9.72933 20,13C 20,15.208 19.1093,17.208 17.6613,18.6507L 17.6507,18.6507C 17.26,19.0413 17.26,19.672 17.6507,20.0627C 18.0413,20.4533 18.6827,20.448 19.068,20.068C 20.88,18.26 22,15.76 22,13C 22,8.38 18.86,4.5 14.5987,3.35334 Z M 9.40133,3.35867C 5.15067,4.51067 2,8.40134 2,13C 2,15.76 3.12,18.26 4.932,20.068C 5.31733,20.448 5.948,20.4533 6.33867,20.0627C 6.72933,19.672 6.72933,19.0413 6.33867,18.6507C 4.89067,17.1973 4,15.208 4,13C 4,9.65067 5.93733,6.85867 8.78667,5.65067"/>
</svg>
