<?xml version="1.0" encoding="utf-8"?>
<!DOCTYPE svg PUBLIC "-//W3C//DTD SVG 1.1//EN" "http://www.w3.org/Graphics/SVG/1.1/DTD/svg11.dtd">
<svg xmlns="http://www.w3.org/2000/svg" xmlns:xlink="http://www.w3.org/1999/xlink" version="1.1" baseProfile="full" width="24" height="24" viewBox="0 0 24.00 24.00" enable-background="new 0 0 24.00 24.00" xml:space="preserve">
	<path fill="#000000" fill-opacity="1" stroke-width="1.33333" stroke-linejoin="miter" d="M 13.6181,13.2757L 15.2642,15.5414C 15.2882,15.0124 15.3849,14.4677 15.5611,13.9254C 15.7423,13.3675 15.9932,12.8571 16.296,12.4056L 13.6181,13.2757 Z M 17.7731,18.9946C 17.7486,17.6842 17.9532,16.2712 18.4142,14.8525C 18.881,13.4158 19.557,12.1384 20.3602,11.085L 18.324,11.7466C 17.5399,12.2596 16.869,13.1359 16.5121,14.2344C 16.1682,15.293 16.1813,16.3559 16.4805,17.2155L 17.7731,18.9946 Z M 19.248,21.0246C 18.7471,21.4638 18.206,21.8581 17.6309,22.2015L 17.3104,21.7604C 15.8978,20.9762 14.0379,20.5 12,20.5C 9.96213,20.5 8.10224,20.9762 6.68967,21.7603L 6.36915,22.2015C 5.79405,21.8581 5.25293,21.4638 4.75203,21.0247L 4.99791,20.6862C 5.33288,19.0809 5.21967,17.1239 4.57629,15.1438C 3.9418,13.191 2.90336,11.5595 1.70986,10.458L 1.2704,10.3152C 1.41918,9.65675 1.62701,9.02071 1.88804,8.41293L 2.2885,8.54305C 3.91875,8.36554 5.74499,7.6531 7.42935,6.42935C 9.09045,5.22249 10.3212,3.73071 11,2.25525L 11,1.79486L 12,1.75002L 13,1.79487L 13,2.2138C 13.6726,3.7094 14.9145,5.22611 16.5989,6.44987C 18.2599,7.6567 20.059,8.36625 21.6719,8.5559L 22.1119,8.41294C 22.373,9.02072 22.5808,9.65675 22.7296,10.3152L 22.2296,10.4776C 21.037,11.5791 19.9994,13.2099 19.3653,15.1615C 18.7399,17.0863 18.6154,18.9892 18.9166,20.5685L 19.248,21.0246 Z M 11,11.3736L 11,8.49533C 10.664,8.9234 10.2556,9.32022 9.78049,9.66541C 9.29201,10.0203 8.77342,10.2913 8.24767,10.4793L 11,11.3736 Z M 11,4.22169C 10.2463,5.31179 9.23989,6.34997 8.01713,7.23836C 6.77907,8.13787 5.4635,8.77894 4.17867,9.1572L 6.14539,9.79623C 7.10991,9.87618 8.21835,9.56431 9.19271,8.85639C 10.1287,8.17638 10.7553,7.2658 11,6.36011L 11,4.22169 Z M 13,11.3736L 15.7373,10.4842C 15.2264,10.2969 14.7228,10.0311 14.2477,9.68594C 13.7593,9.33103 13.3413,8.92155 13,8.47964L 13,11.3736 Z M 19.8018,9.16355C 18.5322,8.78354 17.2338,8.14725 16.0111,7.25888C 14.773,6.35938 13.7568,5.3063 13,4.20124L 13,6.26917C 13.222,7.21119 13.8612,8.169 14.8355,8.87692C 15.7714,9.55687 16.831,9.87145 17.7679,9.8244L 19.8018,9.16355 Z M 10.382,13.2757L 7.64454,12.3863C 7.94782,12.8381 8.19903,13.3492 8.38051,13.9077C 8.5671,14.482 8.66453,15.0589 8.6809,15.617L 10.382,13.2757 Z M 3.58006,11.0656C 4.3839,12.1194 5.06029,13.3973 5.52734,14.8347C 6.00024,16.2902 6.20341,17.7395 6.16612,19.0783L 7.38157,17.4054C 7.7557,16.5128 7.80164,15.3622 7.42945,14.2167C 7.07195,13.1164 6.39955,12.2391 5.61381,11.7264L 3.58006,11.0656 Z M 12,14.4513L 10.3495,16.7231C 10.8662,16.5786 11.4216,16.5 12,16.5C 12.5784,16.5 13.1338,16.5786 13.6506,16.7231L 12,14.4513 Z M 7.83904,20.1784C 9.08346,19.745 10.4988,19.5 12,19.5C 13.5012,19.5 14.9166,19.745 16.161,20.1784L 14.8848,18.4218C 14.1569,17.8536 13.1335,17.5 12,17.5C 10.8665,17.5 9.84316,17.8536 9.11531,18.4217L 7.83904,20.1784 Z "/>
</svg>
