<?xml version="1.0" encoding="utf-8"?>
<!DOCTYPE svg PUBLIC "-//W3C//DTD SVG 1.1//EN" "http://www.w3.org/Graphics/SVG/1.1/DTD/svg11.dtd">
<svg xmlns="http://www.w3.org/2000/svg" xmlns:xlink="http://www.w3.org/1999/xlink" version="1.1" baseProfile="full" width="24" height="24" viewBox="0 0 24.00 24.00" enable-background="new 0 0 24.00 24.00" xml:space="preserve">
	<path fill="#000000" fill-opacity="1" stroke-linejoin="round" d="M 17.9,10.9C 14.7,9.00005 9.35007,8.80009 6.30008,9.75C 5.8001,9.90008 5.29999,9.60007 5.15005,9.14998C 4.99998,8.65001 5.29999,8.15004 5.75008,7.99996C 9.30005,6.94999 15.1501,7.15009 18.8501,9.35009C 19.3,9.60007 19.45,10.2001 19.2,10.65C 18.95,11.0001 18.35,11.15 17.9,10.9 Z M 17.8,13.7C 17.55,14.0501 17.1001,14.2 16.75,13.95C 14.0501,12.3 9.9501,11.8001 6.80005,12.8C 6.39998,12.9001 5.95004,12.7001 5.84998,12.3C 5.75008,11.9 5.95004,11.45 6.3501,11.35C 9.99998,10.25 14.5,10.8 17.6,12.7001C 17.9,12.85 18.05,13.35 17.8,13.7 Z M 16.6001,16.45C 16.4,16.75 16.0501,16.8501 15.7501,16.65C 13.4,15.2001 10.4501,14.9001 6.94998,15.7001C 6.60009,15.8 6.30008,15.55 6.20002,15.25C 6.09997,14.9001 6.3501,14.6001 6.64997,14.5C 10.4501,13.65 13.75,14 16.3501,15.6C 16.7,15.7501 16.75,16.15 16.6001,16.45 Z M 12,2.00002C 6.50003,2.00002 2,6.50005 2,12C 2,17.5 6.50003,22 12,22C 17.5,22 22,17.5 22,12C 22,6.50005 17.55,2.00002 12,2.00002 Z "/>
</svg>
