<?xml version="1.0" encoding="utf-8"?>
<!DOCTYPE svg PUBLIC "-//W3C//DTD SVG 1.1//EN" "http://www.w3.org/Graphics/SVG/1.1/DTD/svg11.dtd">
<svg xmlns="http://www.w3.org/2000/svg" xmlns:xlink="http://www.w3.org/1999/xlink" version="1.1" baseProfile="full" width="24" height="24" viewBox="0 0 24.00 24.00" enable-background="new 0 0 24.00 24.00" xml:space="preserve">
	<path fill="#000000" fill-opacity="1" stroke-linejoin="round" d="M 2,6L 7.09295,8.54647C 6.4044,9.52302 6,10.7143 6,12C 6,13.2857 6.4044,14.477 7.09295,15.4535L 2,18L 2,6 Z M 5.99999,3.00001L 18,3.00001L 15.4535,7.09295C 14.477,6.40441 13.2857,6 12,6C 10.7143,6 9.52302,6.40441 8.54647,7.09295L 5.99999,3.00001 Z M 22,6L 22,18L 16.907,15.4535C 17.5956,14.477 18,13.2857 18,12C 18,10.7143 17.5956,9.52303 16.907,8.54648L 22,6 Z M 18,21L 6,21L 8.54647,16.9071C 9.52302,17.5956 10.7143,18 12,18C 13.2857,18 14.477,17.5956 15.4535,16.9071L 18,21 Z M 12,8C 14.2091,8 16,9.79086 16,12C 16,14.2091 14.2091,16 12,16C 9.79086,16 8,14.2091 8,12C 8,9.79086 9.79086,8 12,8 Z M 12,10C 10.8954,10 10,10.8954 10,12C 10,13.1046 10.8954,14 12,14C 13.1046,14 14,13.1046 14,12C 14,10.8954 13.1046,10 12,10 Z "/>
</svg>
