<?xml version="1.0" encoding="utf-8"?>
<!DOCTYPE svg PUBLIC "-//W3C//DTD SVG 1.1//EN" "http://www.w3.org/Graphics/SVG/1.1/DTD/svg11.dtd">
<svg xmlns="http://www.w3.org/2000/svg" xmlns:xlink="http://www.w3.org/1999/xlink" version="1.1" baseProfile="full" width="24" height="24" viewBox="0 0 24.00 24.00" enable-background="new 0 0 24.00 24.00" xml:space="preserve">
	<path fill="#000000" fill-opacity="1" stroke-width="0.2" stroke-linejoin="round" d="M 12.5338,19.2467C 10.8402,19.2467 9.34021,20.0645 8.38333,21.3155C 9.50645,21.7533 10.7231,22 12,22C 13.5829,22 15.0738,21.6244 16.404,20.9689C 15.4471,19.9133 14.0682,19.2467 12.5338,19.2467 Z M 5.67844,8.40889C 7.71266,7.58668 9.93088,7.12889 12.2587,7.12889C 14.5647,7.12889 16.7633,7.57778 18.7816,8.38445C 19.0551,8.52445 19.2464,8.79778 19.2464,9.12444C 19.2464,9.5889 18.8698,9.96444 18.4062,9.96444C 18.3416,9.96444 18.28,9.95112 18.22,9.93778C 16.3771,9.19334 14.3667,8.78001 12.2587,8.78001C 10.1489,8.78001 8.13667,9.19556 6.29332,9.93778C 6.234,9.95112 6.17444,9.96444 6.11111,9.96444C 5.64756,9.96444 5.27132,9.5889 5.27132,9.12444C 5.27132,8.81999 5.43533,8.55556 5.67844,8.40889 Z M 18.1967,12.4467C 18.0929,12.5911 17.9318,12.6911 17.7404,12.6911C 17.6876,12.6911 17.6393,12.6756 17.5907,12.6622C 15.9591,11.94 14.1571,11.5356 12.2587,11.5356C 10.3742,11.5356 8.58422,11.9333 6.96177,12.6445C 6.90311,12.6644 6.84288,12.6822 6.77689,12.6822C 6.58199,12.6822 6.418,12.58 6.31511,12.4289L 6.2071,12.1044C 6.20866,11.9378 6.28733,11.7911 6.40488,11.6889C 8.19222,10.8844 10.1718,10.4333 12.2587,10.4333C 14.3447,10.4333 16.3224,10.8844 18.1098,11.6867C 18.2296,11.7889 18.3064,11.94 18.3093,12.1067M 17.3456,15C 17.2,15.3244 16.94,15.3911 16.6353,15.2511C 15.3038,14.6333 13.8215,14.2889 12.2587,14.2889C 10.654,14.2889 9.13532,14.6533 7.77599,15.3C 7.63066,15.3689 7.31066,15.4 7.16667,14.9844C 7.02244,14.5711 7.25,14.3356 7.38111,14.2756C 8.86377,13.5822 10.5138,13.1867 12.2587,13.1867C 13.9722,13.1867 15.6216,13.5133 17.0573,14.2378C 17.2842,14.3533 17.4909,14.6778 17.3456,15 Z M 5.53089,19.6178C 7.07022,17.4 9.62843,15.9422 12.5338,15.9422C 15.1793,15.9422 17.5356,17.1511 19.0993,19.04C 20.8916,17.2333 22,14.7467 22,12.0022C 22,6.47779 17.5233,2.00001 12,2.00001C 6.47732,2.00001 2,6.47779 2,12.0022C 2,15.0556 3.37289,17.7845 5.53089,19.6178 Z "/>
</svg>
