<?xml version="1.0" encoding="utf-8"?>
<!DOCTYPE svg PUBLIC "-//W3C//DTD SVG 1.1//EN" "http://www.w3.org/Graphics/SVG/1.1/DTD/svg11.dtd">
<svg xmlns="http://www.w3.org/2000/svg" xmlns:xlink="http://www.w3.org/1999/xlink" version="1.1" baseProfile="full" width="24" height="24" viewBox="0 0 24.00 24.00" enable-background="new 0 0 24.00 24.00" xml:space="preserve">
	<path fill="#000000" fill-opacity="1" stroke-linejoin="round" d="M 10,4L 12,4L 12,6L 10,6L 10,4 Z M 7,3.00001L 9,3.00001L 9,5.00001L 7,5.00001L 7,3.00001 Z M 7,6.00001L 9,6.00001L 9,8.00001L 7,8.00001L 7,6.00001 Z M 6,8L 6,10L 4,10L 4,8L 6,8 Z M 6,5L 6,7L 4,7L 4,5L 6,5 Z M 6,2.00001L 6,4L 4,4L 4,2.00001L 6,2.00001 Z M 13,22C 11.8954,22 11,21.1046 11,20L 11,10C 11,8.89545 11.8954,8.00002 13,8.00002L 13,7.00001L 14,7.00001L 14,4.00001L 17,4L 17,7L 18,7L 18,8.00002C 19.1046,8.00002 20,8.89545 20,10L 20,20C 20,21.1046 19.1046,22 18,22L 13,22 Z M 13,10L 13,20L 18,20L 18,10L 13,10 Z "/>
</svg>
