<?xml version="1.0" encoding="utf-8"?>
<!DOCTYPE svg PUBLIC "-//W3C//DTD SVG 1.1//EN" "http://www.w3.org/Graphics/SVG/1.1/DTD/svg11.dtd">
<svg xmlns="http://www.w3.org/2000/svg" xmlns:xlink="http://www.w3.org/1999/xlink" version="1.1" baseProfile="full" width="24" height="24" viewBox="0 0 24.00 24.00" enable-background="new 0 0 24.00 24.00" xml:space="preserve">
	<path fill="#000000" fill-opacity="1" stroke-width="1.33333" stroke-linejoin="miter" d="M 23,4.1L 23,2.3L 21.2,2.1C 21.1,2.1 20.5,2 19.5,2C 15.4,2 12.4,3.2 10.7,5.3C 9.4,4.5 7.6,4 5.5,4C 4.5,4 3.8,4.1 3.8,4.1L 1.9,4.4L 2,6.1C 2.1,9.1 3.6,14.8 8.8,14.8C 8.9,14.8 8.9,14.8 9,14.8L 9,18.2C 5.2,18.7 2,20 2,20L 2,22L 22,22L 22,20C 22,20 18.8,18.7 15,18.2L 15,15C 21.3,14.9 23,7.8 23,4.1 Z M 12,18C 11.7,18 11.3,18 11,18L 11,12.4C 11,12.4 10.8,9 8,9C 8,9 9.5,9.8 9.9,12.7C 9.5,12.8 9.1,12.8 8.8,12.8C 4.2,12.8 4,6.1 4,6.1C 4,6.1 4.6,6 5.5,6C 7.4,6 10.5,6.4 11.4,9.1C 11.9,4.6 17,4 19.5,4C 20.4,4 21,4.1 21,4.1C 21,4.1 21,13.1 14.7,13.1C 14.5,13.1 14.2,13.1 14,13.1C 14,11.1 16,8.1 16,8.1C 13,9.1 13,13 13,13L 13,18C 12.7,18 12.3,18 12,18 Z "/>
</svg>
