<?xml version="1.0" encoding="utf-8"?>
<!DOCTYPE svg PUBLIC "-//W3C//DTD SVG 1.1//EN" "http://www.w3.org/Graphics/SVG/1.1/DTD/svg11.dtd">
<svg xmlns="http://www.w3.org/2000/svg" xmlns:xlink="http://www.w3.org/1999/xlink" version="1.1" baseProfile="full" width="24" height="24" viewBox="0 0 24.00 24.00" enable-background="new 0 0 24.00 24.00" xml:space="preserve">
	<path fill="#000000" fill-opacity="1" stroke-width="1.33333" stroke-linejoin="miter" d="M 2,22L 2,20C 2,20 7,18 12,18C 17,18 22,20 22,20L 22,22L 2,22 Z M 11.3,9.1C 10.1,5.2 4,6.1 4,6.1C 4,6.1 4.2,13.9 9.9,12.7C 9.5,9.8 8,9 8,9C 10.8,9 11,12.4 11,12.4L 11,17C 11.3,17 11.7,17 12,17C 12.3,17 12.7,17 13,17L 13,12.8C 13,12.8 13,8.9 16,7.9C 16,7.9 14,10.9 14,12.9C 21,13.6 21,4 21,4C 21,4 12.1,3 11.3,9.1 Z "/>
</svg>
