<?xml version="1.0" encoding="utf-8"?>
<!DOCTYPE svg PUBLIC "-//W3C//DTD SVG 1.1//EN" "http://www.w3.org/Graphics/SVG/1.1/DTD/svg11.dtd">
<svg xmlns="http://www.w3.org/2000/svg" xmlns:xlink="http://www.w3.org/1999/xlink" version="1.1" baseProfile="full" width="24" height="24" viewBox="0 0 24.00 24.00" enable-background="new 0 0 24.00 24.00" xml:space="preserve">
	<path fill="#000000" fill-opacity="1" stroke-width="1.33333" stroke-linejoin="miter" d="M 5,3C 3.89,3 3,3.89 3,5L 3,19C 3,20.1046 3.89543,21 5,21L 19,21C 20.1046,21 21,20.1046 21,19L 21,12L 19,12L 19,19L 5,19L 5,5L 12,5L 12,3L 5,3 Z M 17.7813,4C 17.6096,4 17.4347,4.0653 17.3047,4.1953L 16.0781,5.4141L 18.5781,7.9141L 19.8047,6.6953C 20.0646,6.4353 20.0646,6.0005 19.8047,5.7539L 18.2461,4.1953C 18.1228,4.0653 17.9529,4 17.7813,4 Z M 15.373,6.1211L 8,13.5L 8,16L 10.5,16L 17.8711,8.6211L 15.373,6.1211 Z "/>
</svg>
