<?xml version="1.0" encoding="utf-8"?>
<!DOCTYPE svg PUBLIC "-//W3C//DTD SVG 1.1//EN" "http://www.w3.org/Graphics/SVG/1.1/DTD/svg11.dtd">
<svg xmlns="http://www.w3.org/2000/svg" xmlns:xlink="http://www.w3.org/1999/xlink" version="1.1" baseProfile="full" width="24" height="24" viewBox="0 0 24.00 24.00" enable-background="new 0 0 24.00 24.00" xml:space="preserve">
	<path fill="#000000" fill-opacity="1" stroke-width="1.33333" stroke-linejoin="miter" d="M 5,3C 3.89,3 3,3.89 3,5L 3,19C 3,20.1046 3.89543,21 5,21L 19,21C 20.1046,21 21,20.1046 21,19L 21,5C 21,3.8954 20.1046,3 19,3L 5,3 Z M 11.236,6L 19,6L 19,8L 12.764,8L 10,18L 8,18L 6.246,12L 5,12L 5,10L 7.754,10L 8.977,14.281L 11.237,6L 11.236,6 Z M 14,10.586L 15.793,12.379L 17.586,10.586L 19,12L 17.207,13.793L 19,15.586L 17.586,17L 15.793,15.207L 14,17L 12.586,15.586L 14.379,13.793L 12.586,12L 14,10.586 Z "/>
</svg>
