<?xml version="1.0" encoding="utf-8"?>
<!DOCTYPE svg PUBLIC "-//W3C//DTD SVG 1.1//EN" "http://www.w3.org/Graphics/SVG/1.1/DTD/svg11.dtd">
<svg xmlns="http://www.w3.org/2000/svg" xmlns:xlink="http://www.w3.org/1999/xlink" version="1.1" baseProfile="full" width="24" height="24" viewBox="0 0 24.00 24.00" enable-background="new 0 0 24.00 24.00" xml:space="preserve">
	<path fill="#000000" fill-opacity="1" stroke-width="1.33333" stroke-linejoin="miter" d="M 4.5,9C 3.9,9 3.5,9.5 3.5,10L 3.5,11.75C 3.5,12.25 3.9,12.75 4.5,12.75L 7,12.75L 7,13.5L 3.5,13.5L 3.5,15L 7.5,15C 8.1,15 8.5,14.5 8.5,14L 8.5,12.25C 8.5,11.75 8.1,11.25 7.5,11.25L 5,11.25L 5,10.5L 8.5,10.5L 8.5,9L 4.5,9 Z M 10.5,9C 9.9,9 9.5,9.5 9.5,10L 9.5,11.75C 9.5,12.25 9.9,12.75 10.5,12.75L 13,12.75L 13,13.5L 9.5,13.5L 9.5,15L 13.5,15C 14.1,15 14.5,14.5 14.5,14L 14.5,12.25C 14.5,11.75 14.1,11.25 13.5,11.25L 11,11.25L 11,10.5L 14.5,10.5L 14.5,9L 10.5,9 Z M 15.5,9L 15.5,15L 17,15L 17,12.5L 19,12.5L 19,15L 20.5,15L 20.5,9L 19,9L 19,11L 17,11L 17,9L 15.5,9 Z "/>
</svg>
