<?xml version="1.0" encoding="utf-8"?>
<!DOCTYPE svg PUBLIC "-//W3C//DTD SVG 1.1//EN" "http://www.w3.org/Graphics/SVG/1.1/DTD/svg11.dtd">
<svg xmlns="http://www.w3.org/2000/svg" xmlns:xlink="http://www.w3.org/1999/xlink" version="1.1" baseProfile="full" width="24" height="24" viewBox="0 0 24.00 24.00" enable-background="new 0 0 24.00 24.00" xml:space="preserve">
	<path fill="#000000" fill-opacity="1" stroke-linejoin="round" d="M 3.99997,14.0365L 3.99999,11L 20,11L 20,14.0365L 3.99997,14.0365 Z M 4,10L 3.99999,7.00001L 20,7.00001L 20,10L 4,10 Z M 17.461,2.00001C 18.8632,2.00001 20,3.17774 20,4.62905L 20,6L 3.99999,6L 4,4.62905C 4,3.17774 5.13529,2.00001 6.53644,2.00001L 17.461,2.00001 Z M 4,15L 20,15L 20,16.3546C 20,17.8058 18.8632,18.9837 17.461,18.9837L 16.5,19L 13,22L 13,19L 6.53645,18.9837C 5.13529,18.9837 4,17.8058 4,16.3546L 4,15 Z "/>
</svg>
