<?xml version="1.0" encoding="utf-8"?>
<!DOCTYPE svg PUBLIC "-//W3C//DTD SVG 1.1//EN" "http://www.w3.org/Graphics/SVG/1.1/DTD/svg11.dtd">
<svg xmlns="http://www.w3.org/2000/svg" xmlns:xlink="http://www.w3.org/1999/xlink" version="1.1" baseProfile="full" width="24" height="24" viewBox="0 0 24.00 24.00" enable-background="new 0 0 24.00 24.00" xml:space="preserve">
	<path fill="#000000" fill-opacity="0.862745" stroke-linejoin="round" d="M 5,3L 7,3L 10,5L 7,7L 7,8.33446C 8.47087,8.12174 10.1786,8 12,8C 13.8214,8 15.5291,8.12174 17,8.33446L 17,3.00001L 19,3.00001L 22,5L 19,7L 19,8.71464C 20.8514,9.16837 22,9.80065 22,10.5C 22,11.8807 17.5228,13 12,13C 6.47715,13 2,11.8807 2,10.5C 2,9.80065 3.14864,9.16837 5,8.71464L 5,3 Z M 12,9.50001C 8.68629,9.50001 7,9.67158 7,10.5C 7,11.3284 8.68629,11.5 12,11.5C 15.3137,11.5 17,11.3284 17,10.5C 17,9.67158 15.3137,9.50001 12,9.50001 Z M 12,14.75C 15.8083,14.75 19.2022,14.0848 21.4005,13.0473L 20,21L 15,21L 15,19C 15,17.8954 14.1046,17 13,17L 11,17C 9.89542,17 9,17.8954 9,19L 9,21L 4,21L 2.5995,13.0473C 4.79781,14.0848 8.19174,14.75 12,14.75 Z "/>
</svg>
