<?xml version="1.0" encoding="utf-8"?>
<!DOCTYPE svg PUBLIC "-//W3C//DTD SVG 1.1//EN" "http://www.w3.org/Graphics/SVG/1.1/DTD/svg11.dtd">
<svg xmlns="http://www.w3.org/2000/svg" xmlns:xlink="http://www.w3.org/1999/xlink" version="1.1" baseProfile="full" width="24" height="24" viewBox="0 0 24.00 24.00" enable-background="new 0 0 24.00 24.00" xml:space="preserve">
	<path fill="#000000" fill-opacity="1" stroke-width="0.2" stroke-linejoin="round" d="M 13,7.00001L 16,7.00002C 17.6568,7.00002 19,8.34316 19,10L 19,14C 19,15.6569 17.6569,17 16,17L 13,17L 13,7.00001 Z M 16,15C 16.5523,15 17,14.5523 17,14L 17,10C 17,9.44773 16.5523,9.00002 16,9.00002L 15,9.00002L 15,15L 16,15 Z M 7,7L 11,7L 11,9L 7,9L 7,11L 9,11C 10.1046,11 11,11.8954 11,13L 11,15C 11,16.1046 10.1046,17 9,17L 5,17L 5,15L 9,15L 9,13L 7,13C 5.89543,13 5,12.1046 5,11L 5,9C 5,7.89543 5.89543,7 7,7 Z "/>
</svg>
