<?xml version="1.0" encoding="utf-8"?>
<!DOCTYPE svg PUBLIC "-//W3C//DTD SVG 1.1//EN" "http://www.w3.org/Graphics/SVG/1.1/DTD/svg11.dtd">
<svg xmlns="http://www.w3.org/2000/svg" xmlns:xlink="http://www.w3.org/1999/xlink" version="1.1" baseProfile="full" width="24" height="24" viewBox="0 0 24.00 24.00" enable-background="new 0 0 24.00 24.00" xml:space="preserve">
	<path fill="#000000" fill-opacity="1" stroke-linejoin="round" d="M 12,2L 14.8868,7L 20.6603,7L 17.7735,12L 20.6603,17L 14.8868,17L 12,22L 9.11325,17L 3.33975,17L 6.2265,12L 3.33975,7L 9.11325,7L 12,2 Z M 17.1961,15L 16.6188,14L 16.0414,15L 17.1961,15 Z M 12,6.00001L 11.4227,7L 12.5773,7L 12,6.00001 Z M 6.80385,15L 7.95855,15L 7.3812,14L 6.80385,15 Z M 17.1961,9L 16.0414,9L 16.6188,10L 17.1961,9 Z M 12,18L 12.5773,17L 11.4227,17L 12,18 Z M 6.80385,9L 7.3812,10L 7.95855,9L 6.80385,9 Z M 15.4641,12L 13.732,9L 10.268,9L 8.5359,12L 10.268,15L 13.732,15L 15.4641,12 Z "/>
</svg>
