<?xml version="1.0" encoding="utf-8"?>
<!DOCTYPE svg PUBLIC "-//W3C//DTD SVG 1.1//EN" "http://www.w3.org/Graphics/SVG/1.1/DTD/svg11.dtd">
<svg xmlns="http://www.w3.org/2000/svg" xmlns:xlink="http://www.w3.org/1999/xlink" version="1.1" baseProfile="full" width="24" height="24" viewBox="0 0 24.00 24.00" enable-background="new 0 0 24.00 24.00" xml:space="preserve">
	<path fill="#000000" fill-opacity="1" stroke-width="0.2" stroke-linejoin="round" d="M 15.5792,17L 12,14.8423L 8.42076,17L 9.36845,12.93L 6.2123,10.1969L 10.3754,9.84154L 12,6L 13.6246,9.83308L 17.7875,10.1885L 14.6315,12.9215L 15.5792,17 Z M 19,3C 20.104,3 21,3.895 21,5L 21,19C 21,20.105 20.104,21 19,21L 5,21C 3.895,21 3,20.105 3,19L 3.00999,5C 3.00999,3.895 3.895,3 5,3L 19,3 Z M 5,5L 5,19L 19,19L 19,5L 5,5 Z "/>
</svg>
