<?xml version="1.0" encoding="utf-8"?>
<!DOCTYPE svg PUBLIC "-//W3C//DTD SVG 1.1//EN" "http://www.w3.org/Graphics/SVG/1.1/DTD/svg11.dtd">
<svg xmlns="http://www.w3.org/2000/svg" xmlns:xlink="http://www.w3.org/1999/xlink" version="1.1" baseProfile="full" width="24" height="24" viewBox="0 0 24.00 24.00" enable-background="new 0 0 24.00 24.00" xml:space="preserve">
	<path fill="#000000" fill-opacity="1" stroke-width="1.33333" stroke-linejoin="miter" d="M 12,2.4785L 8.41602,8.0605L 2,9.7441L 6.19922,14.8789L 5.82031,21.5L 12,19.0918L 18.1797,21.5L 17.8008,14.8789L 22,9.7441L 15.584,8.0605L 12,2.4785 Z M 9.375,10.5C 9.996,10.5 10.5,11.004 10.5,11.625C 10.5,12.246 9.996,12.75 9.375,12.75C 8.754,12.75 8.25,12.246 8.25,11.625C 8.25,11.004 8.754,10.5 9.375,10.5 Z M 14.625,10.5C 15.246,10.5 15.75,11.004 15.75,11.625C 15.75,12.246 15.246,12.75 14.625,12.75C 14.004,12.75 13.5,12.246 13.5,11.625C 13.5,11.004 14.004,10.5 14.625,10.5 Z M 9.00391,15L 15,15C 14.4954,16.2111 13.312,17 12,17C 10.6894,16.9984 9.50799,16.2098 9.00391,15 Z "/>
</svg>
