<?xml version="1.0" encoding="utf-8"?>
<!DOCTYPE svg PUBLIC "-//W3C//DTD SVG 1.1//EN" "http://www.w3.org/Graphics/SVG/1.1/DTD/svg11.dtd">
<svg xmlns="http://www.w3.org/2000/svg" xmlns:xlink="http://www.w3.org/1999/xlink" version="1.1" baseProfile="full" width="24" height="24" viewBox="0 0 24.00 24.00" enable-background="new 0 0 24.00 24.00" xml:space="preserve">
	<path fill="#000000" fill-opacity="1" stroke-width="1.33333" stroke-linejoin="miter" d="M 11.9827,1.99999C 17.5057,1.99999 21.9827,6.47704 21.9827,12C 21.9827,17.5226 17.5057,22 11.9827,22C 7.40484,22 3.54849,18.9227 2.36169,14.7252L 6.19474,16.3099C 6.45431,17.6048 7.59997,18.583 8.97006,18.583C 10.5309,18.583 11.8007,17.3133 11.8007,15.7522L 11.7974,15.6182L 15.1969,13.1926L 15.2824,13.1941C 17.3619,13.1941 19.0536,11.502 19.0536,9.42254C 19.0536,7.34311 17.3619,5.65121 15.2824,5.65121C 13.2028,5.65121 11.5111,7.34311 11.5111,9.42254L 11.5115,9.47132L 9.12787,12.9261L 8.97006,12.9217C 8.37975,12.9217 7.83113,13.1034 7.37699,13.414L 2.01729,11.198C 2.42632,6.05037 6.72988,1.99999 11.9827,1.99999 Z M 8.284,17.1735C 9.08128,17.5058 9.99721,17.1287 10.3292,16.3314C 10.6614,15.5342 10.2844,14.6186 9.48718,14.2862L 8.2181,13.7616C 8.70739,13.5771 9.2642,13.5691 9.78388,13.7853C 10.3076,14.0037 10.7151,14.4129 10.931,14.9375C 11.1472,15.4621 11.1458,16.0395 10.9277,16.563C 10.4772,17.6445 9.2309,18.1575 8.15004,17.7072C 7.65,17.4985 7.2734,17.1192 7.0557,16.666L 8.284,17.1735 Z M 17.7953,9.42254C 17.7953,10.8081 16.668,11.9352 15.2824,11.9352C 13.8969,11.9352 12.7694,10.8081 12.7694,9.42254C 12.7694,8.03699 13.8969,6.90954 15.2824,6.90954C 16.668,6.90954 17.7953,8.03699 17.7953,9.42254 Z M 13.3989,9.41817C 13.3989,10.4608 14.2442,11.3058 15.2866,11.3058C 16.3293,11.3058 17.1744,10.4608 17.1744,9.41817C 17.1744,8.37555 16.3293,7.53059 15.2866,7.53059C 14.2442,7.53059 13.3989,8.37555 13.3989,9.41817 Z "/>
</svg>
