<?xml version="1.0" encoding="utf-8"?>
<!DOCTYPE svg PUBLIC "-//W3C//DTD SVG 1.1//EN" "http://www.w3.org/Graphics/SVG/1.1/DTD/svg11.dtd">
<svg xmlns="http://www.w3.org/2000/svg" xmlns:xlink="http://www.w3.org/1999/xlink" version="1.1" baseProfile="full" width="24" height="24" viewBox="0 0 24.00 24.00" enable-background="new 0 0 24.00 24.00" xml:space="preserve">
	<path fill="#000000" fill-opacity="1" stroke-width="1.33333" stroke-linejoin="miter" d="M 19,3C 20.1046,3 21,3.89543 21,5L 21,19C 21,20.1046 20.1046,21 19,21L 5,21C 3.89543,21 3,20.1046 3,19L 3,14.9891L 6.19474,16.3099C 6.4543,17.6048 7.59997,18.583 8.97006,18.583C 10.5309,18.583 11.8007,17.3133 11.8007,15.7522L 11.7974,15.6182L 15.1969,13.1926L 15.2824,13.1941C 17.3619,13.1941 19.0536,11.502 19.0536,9.42254C 19.0536,7.34312 17.3619,5.65121 15.2824,5.65121C 13.2028,5.65121 11.5111,7.34312 11.5111,9.42254L 11.5115,9.47133L 9.12787,12.9261L 8.97006,12.9218C 8.37975,12.9218 7.83113,13.1034 7.37699,13.414L 3,11.6043L 3,5C 3,3.89543 3.89543,3 5,3L 19,3 Z M 8.284,17.1735C 9.08127,17.5058 9.99721,17.1287 10.3292,16.3314C 10.6614,15.5342 10.2844,14.6186 9.48718,14.2862L 8.2181,13.7616C 8.70739,13.5771 9.2642,13.5691 9.78388,13.7853C 10.3076,14.0037 10.7151,14.4129 10.931,14.9375C 11.1472,15.4621 11.1458,16.0395 10.9277,16.563C 10.4772,17.6445 9.23089,18.1575 8.15004,17.7072C 7.65,17.4985 7.2734,17.1192 7.0557,16.666L 8.284,17.1735 Z M 17.7953,9.42254C 17.7953,10.8081 16.668,11.9352 15.2824,11.9352C 13.8969,11.9352 12.7694,10.8081 12.7694,9.42254C 12.7694,8.03699 13.8969,6.90955 15.2824,6.90955C 16.668,6.90955 17.7953,8.03699 17.7953,9.42254 Z M 13.3988,9.41818C 13.3988,10.4608 14.2442,11.3058 15.2866,11.3058C 16.3292,11.3058 17.1744,10.4608 17.1744,9.41818C 17.1744,8.37556 16.3292,7.5306 15.2866,7.5306C 14.2442,7.5306 13.3988,8.37556 13.3988,9.41818 Z "/>
</svg>
