<?xml version="1.0" encoding="utf-8"?>
<!DOCTYPE svg PUBLIC "-//W3C//DTD SVG 1.1//EN" "http://www.w3.org/Graphics/SVG/1.1/DTD/svg11.dtd">
<svg xmlns="http://www.w3.org/2000/svg" xmlns:xlink="http://www.w3.org/1999/xlink" version="1.1" baseProfile="full" width="24" height="24" viewBox="0 0 24.00 24.00" enable-background="new 0 0 24.00 24.00" xml:space="preserve">
	<path fill="#000000" fill-opacity="1" stroke-width="1.33333" stroke-linejoin="miter" d="M 12.9844,19.9219C 14.7969,19.7031 16.3516,18.9453 17.6484,17.6484C 18.9453,16.3516 19.7031,14.7969 19.9219,12.9844L 16.9219,12.9844C 16.7031,13.9844 16.2422,14.8359 15.5391,15.5391C 14.8359,16.2422 13.9844,16.7031 12.9844,16.9219L 12.9844,19.9219 Z M 9.98438,8.0156L 14.0156,8.0156L 17.0156,11.0156L 19.9219,11.0156C 19.6719,9.0469 18.7891,7.3828 17.2734,6.0234C 15.7578,4.6641 14,3.9844 12,3.9844C 10,3.9844 8.24219,4.6641 6.72656,6.0234C 5.21094,7.3828 4.32813,9.0469 4.07813,11.0156L 6.98438,11.0156L 9.98438,8.0156 Z M 11.0156,19.9219L 11.0156,16.9219C 10.0156,16.7031 9.16406,16.2422 8.46094,15.5391C 7.75781,14.8359 7.29688,13.9844 7.07813,12.9844L 4.07813,12.9844C 4.29687,14.7656 5.05469,16.3047 6.35156,17.6016C 7.64844,18.8984 9.20312,19.6719 11.0156,19.9219 Z M 12,2.0156C 14.75,2.0156 17.1016,2.9922 19.0547,4.9453C 21.0078,6.8984 21.9844,9.25 21.9844,12C 21.9844,14.75 21.0078,17.1016 19.0547,19.0547C 17.1016,21.0078 14.75,21.9844 12,21.9844C 9.25,21.9844 6.89844,21.0078 4.94531,19.0547C 2.99219,17.1016 2.01563,14.75 2.01563,12C 2.01563,9.25 2.99219,6.8984 4.94531,4.9453C 6.89844,2.9922 9.25,2.0156 12,2.0156 Z "/>
</svg>
