<?xml version="1.0" encoding="utf-8"?>
<!DOCTYPE svg PUBLIC "-//W3C//DTD SVG 1.1//EN" "http://www.w3.org/Graphics/SVG/1.1/DTD/svg11.dtd">
<svg xmlns="http://www.w3.org/2000/svg" xmlns:xlink="http://www.w3.org/1999/xlink" version="1.1" baseProfile="full" width="24" height="24" viewBox="0 0 24.00 24.00" enable-background="new 0 0 24.00 24.00" xml:space="preserve">
	<path fill="#000000" fill-opacity="1" stroke-width="1.33333" stroke-linejoin="miter" d="M 2,5.26848L 3.27711,4L 20,20.7229L 18.7315,22L 17.2452,20.5137C 15.6968,21.4941 13.9484,21.9844 12,21.9844C 9.25,21.9844 6.89844,21.0078 4.94531,19.0547C 2.99219,17.1016 2.01563,14.75 2.01563,12C 2.01563,10.0516 2.50586,8.30317 3.4863,6.75478L 2,5.26848 Z M 12.9844,19.9219C 13.9973,19.7996 14.9297,19.509 15.7816,19.0501L 13.5113,16.7798C 13.3405,16.835 13.1649,16.8824 12.9844,16.9219L 12.9844,19.9219 Z M 4.07813,11.0156L 6.98438,11.0156L 7.36575,10.6342L 4.96084,8.22931C 4.50046,9.0781 4.20623,10.0069 4.07813,11.0156 Z M 19.9219,12.9844L 16.9219,12.9844C 16.8005,13.5391 16.6046,14.0482 16.3342,14.5116L 9.91133,8.08865L 9.98438,8.0156L 14.0156,8.0156L 17.0156,11.0156L 19.9219,11.0156C 19.6719,9.0469 18.7891,7.3828 17.2734,6.0234C 15.7578,4.6641 14,3.9844 12,3.9844C 10.2649,3.9844 8.71217,4.49595 7.34165,5.51897L 5.90899,4.0863C 7.65771,2.70586 9.68805,2.01561 12,2.01561C 14.75,2.01561 17.1016,2.9922 19.0547,4.9453C 21.0078,6.8984 21.9844,9.25 21.9844,12C 21.9844,14.3119 21.2941,16.3423 19.9137,18.091L 18.4906,16.6679C 19.2786,15.5888 19.7557,14.3609 19.9219,12.9844 Z M 11.0156,19.9219L 11.0156,16.9219C 10.0156,16.7031 9.16406,16.2422 8.46094,15.5391C 7.75781,14.8359 7.29688,13.9844 7.07813,12.9844L 4.07813,12.9844C 4.29687,14.7656 5.05469,16.3047 6.35156,17.6016C 7.64844,18.8984 9.20312,19.6719 11.0156,19.9219 Z "/>
</svg>
