<?xml version="1.0" encoding="utf-8"?>
<!DOCTYPE svg PUBLIC "-//W3C//DTD SVG 1.1//EN" "http://www.w3.org/Graphics/SVG/1.1/DTD/svg11.dtd">
<svg xmlns="http://www.w3.org/2000/svg" xmlns:xlink="http://www.w3.org/1999/xlink" version="1.1" baseProfile="full" width="24" height="24" viewBox="0 0 24.00 24.00" enable-background="new 0 0 24.00 24.00" xml:space="preserve">
	<path fill="#000000" fill-opacity="1" stroke-width="1.33333" stroke-linejoin="miter" d="M 5.5,2C 3.561,2 2,3.561 2,5.5L 2,18.5C 2,20.439 3.561,22 5.5,22L 16,22L 22,16L 22,5.5C 22,3.561 20.439,2 18.5,2L 5.5,2 Z M 5.75,4L 18.25,4C 19.2195,4 20,4.7805 20,5.75L 20,15L 18.5,15C 16.561,15 15,16.561 15,18.5L 15,20L 5.75,20C 4.7805,20 4,19.2195 4,18.25L 4,5.75C 4,4.7805 4.7805,4 5.75,4 Z M 14.4355,6.7676C 14.2772,6.7671 14.1195,6.7881 13.9668,6.8301C 13.0347,7.0856 12.4862,8.0483 12.742,8.9818C 12.7873,9.1451 12.8557,9.3003 12.9453,9.4434L 16.1777,8.5566C 16.182,8.3873 16.1616,8.2182 16.1172,8.0547C 15.9093,7.2967 15.2215,6.7703 14.4355,6.7676 Z M 8.16602,8.4883C 8.00831,8.488 7.85129,8.509 7.69922,8.5508C 6.7673,8.8065 6.21906,9.7692 6.47461,10.7012C 6.51956,10.8645 6.58798,11.0204 6.67773,11.1641L 9.91016,10.2773C 9.91438,10.108 9.89398,9.9389 9.84961,9.7754C 9.64152,9.0167 8.95273,8.4901 8.16602,8.4883 Z M 16.7168,11.2617L 7.58789,13.7656C 8.90892,15.3009 10.9953,15.9393 12.9492,15.4062C 14.8987,14.866 16.3643,13.2537 16.7168,11.2617 Z "/>
</svg>
