<?xml version="1.0" encoding="utf-8"?>
<!DOCTYPE svg PUBLIC "-//W3C//DTD SVG 1.1//EN" "http://www.w3.org/Graphics/SVG/1.1/DTD/svg11.dtd">
<svg xmlns="http://www.w3.org/2000/svg" xmlns:xlink="http://www.w3.org/1999/xlink" version="1.1" baseProfile="full" width="24" height="24" viewBox="0 0 24.00 24.00" enable-background="new 0 0 24.00 24.00" xml:space="preserve">
	<path fill="#000000" fill-opacity="1" stroke-width="1.33333" stroke-linejoin="miter" d="M 12.1217,18.4609L 18.2995,12.2839C 16.94,12.586 15.3144,13.2031 14.0651,14.457C 13.0403,15.487 12.3905,16.8281 12.1217,18.4609 Z M 20.7541,9.99574L 21.0455,10.0013C 21.44,10.0201 21.7877,10.2701 21.9296,10.6393C 22.0728,11.0084 21.9843,11.4271 21.7044,11.7071L 11.7044,21.707C 11.5136,21.8984 11.2577,22 10.9973,22L 10.6367,21.9323C 10.2675,21.7904 10.0175,21.4427 9.99864,21.0482C 9.83717,17.6576 10.733,14.9609 12.6608,13.0339C 15.4925,10.202 19.6193,9.99574 20.7541,9.99574 Z M 12,1.99734C 16.52,1.99734 20.3387,4.996 21.5773,9.112L 19.9869,8.99747L 19.4187,9.012C 18.236,6.072 15.3573,3.99734 11.9947,3.99734C 7.576,3.99734 3.99467,7.57867 3.99467,11.9973C 3.99467,15.36 6.07067,18.2387 9.01067,19.4227C 8.972,20.1333 9.00267,20.8533 9.108,21.5733C 4.99467,20.332 2,16.5147 2,11.9973C 2,6.47467 6.47733,1.99734 12,1.99734 Z "/>
</svg>
