<?xml version="1.0" encoding="utf-8"?>
<!DOCTYPE svg PUBLIC "-//W3C//DTD SVG 1.1//EN" "http://www.w3.org/Graphics/SVG/1.1/DTD/svg11.dtd">
<svg xmlns="http://www.w3.org/2000/svg" xmlns:xlink="http://www.w3.org/1999/xlink" version="1.1" baseProfile="full" width="24" height="24" viewBox="0 0 24.00 24.00" enable-background="new 0 0 24.00 24.00" xml:space="preserve">
	<path fill="#000000" fill-opacity="1" stroke-width="0.2" stroke-linejoin="round" d="M 17,2C 18.1046,2 19,2.89543 19,4L 19,7C 19,8.10457 18.1046,9 17,9L 17,17C 17,17.845 16.4759,18.5677 15.7351,18.8606L 9.48542,21.7749C 8.48434,22.2417 7.29438,21.8086 6.82756,20.8075L 5.98233,18.9949C 5.51552,17.9938 5.94863,16.8038 6.94971,16.337L 9.99999,14.9146L 10,9C 8.89543,9 8,8.10457 8,7L 8,4C 8,2.89543 8.89543,2.00001 10,2.00001L 17,2 Z M 10,4.00001L 10,7.00001L 17,7.00001L 17,4.00001L 10,4.00001 Z "/>
</svg>
