<?xml version="1.0" encoding="utf-8"?>
<!DOCTYPE svg PUBLIC "-//W3C//DTD SVG 1.1//EN" "http://www.w3.org/Graphics/SVG/1.1/DTD/svg11.dtd">
<svg xmlns="http://www.w3.org/2000/svg" xmlns:xlink="http://www.w3.org/1999/xlink" version="1.1" baseProfile="full" width="24" height="24" viewBox="0 0 24.00 24.00" enable-background="new 0 0 24.00 24.00" xml:space="preserve">
	<path fill="#000000" fill-opacity="1" stroke-width="0.2" stroke-linejoin="round" d="M 15.9994,11.9981L 14.9994,11.9981L 14.9994,9.99807L 12.9994,9.99807L 12.9994,6.99807L 13.9994,6.99807L 13.9994,8.99807L 14.9994,8.99807L 14.9994,6.99807L 15.9994,6.99807M 10.9994,9.99807L 8.9994,9.99807L 8.9994,10.9981L 10.9994,10.9981L 10.9994,11.9981L 7.9994,11.9981L 7.9994,8.99807L 9.9994,8.99807L 9.9994,7.99807L 7.9994,7.99807L 7.9994,6.99807L 10.9994,6.99807M 18.9994,6.99807L 18.9994,3.99807L 4.9994,3.99807L 4.9994,6.99807L 1.9994,6.99807L 1.9994,19.9981L 9.9994,19.9981L 9.9994,15.9981L 13.9994,15.9981L 13.9994,19.9981L 21.9994,19.9981L 21.9994,6.99807L 18.9994,6.99807 Z "/>
</svg>
