<?xml version="1.0" encoding="utf-8"?>
<!DOCTYPE svg PUBLIC "-//W3C//DTD SVG 1.1//EN" "http://www.w3.org/Graphics/SVG/1.1/DTD/svg11.dtd">
<svg xmlns="http://www.w3.org/2000/svg" xmlns:xlink="http://www.w3.org/1999/xlink" version="1.1" baseProfile="full" width="24" height="24" viewBox="0 0 24.00 24.00" enable-background="new 0 0 24.00 24.00" xml:space="preserve">
	<path fill="#000000" fill-opacity="1" stroke-linejoin="round" d="M 20.0053,2L 3.99467,2C 2.89067,2 2,2.89067 2,3.99467L 2,20.0053C 2,21.1093 2.89067,22 3.99467,22L 20.0053,22C 21.1093,22 22,21.1093 22,20.0053L 22,3.99467C 22,2.89067 21.1093,2 20.0053,2 Z M 9,19L 5,19L 5,15L 6.292,16.292L 7.828,14.7547L 9.24533,16.172L 7.708,17.708M 7.828,9.24533L 6.292,7.708L 5,9L 5,5L 9,5L 7.708,6.292L 9.24533,7.828M 19,19L 15,19L 16.292,17.708L 14.7547,16.172L 16.172,14.7547L 17.708,16.292L 19,15M 19,9L 17.708,7.708L 16.172,9.24533L 14.7547,7.828L 16.292,6.292L 15,5L 19,5"/>
</svg>
