<?xml version="1.0" encoding="utf-8"?>
<!DOCTYPE svg PUBLIC "-//W3C//DTD SVG 1.1//EN" "http://www.w3.org/Graphics/SVG/1.1/DTD/svg11.dtd">
<svg xmlns="http://www.w3.org/2000/svg" xmlns:xlink="http://www.w3.org/1999/xlink" version="1.1" baseProfile="full" width="24" height="24" viewBox="0 0 24.00 24.00" enable-background="new 0 0 24.00 24.00" xml:space="preserve">
	<path fill="#000000" fill-opacity="1" stroke-linejoin="round" d="M 20.0053,2L 3.99467,2C 2.89067,2 2,2.89067 2,3.99467L 2,20.0053C 2,21.1093 2.89067,22 3.99467,22L 20.0053,22C 21.1093,22 22,21.1093 22,20.0053L 22,3.99467C 22,2.89067 21.1093,2 20.0053,2 Z M 20,20L 4,20L 4,4L 20,4M 8.828,10.2453L 7.292,8.708L 6,10L 6,6L 10,6L 8.708,7.292L 10.2453,8.828M 13.7547,8.828L 15.292,7.292L 14,6L 18,6L 18,10L 16.708,8.708L 15.172,10.2453M 15.172,13.7547L 16.708,15.292L 18,14L 18,18L 14,18L 15.292,16.708L 13.7547,15.172M 10.2453,15.172L 8.708,16.708L 10,18L 6,18L 6,14L 7.292,15.292L 8.828,13.7547"/>
</svg>
