<?xml version="1.0" encoding="utf-8"?>
<!DOCTYPE svg PUBLIC "-//W3C//DTD SVG 1.1//EN" "http://www.w3.org/Graphics/SVG/1.1/DTD/svg11.dtd">
<svg xmlns="http://www.w3.org/2000/svg" xmlns:xlink="http://www.w3.org/1999/xlink" version="1.1" baseProfile="full" width="24" height="24" viewBox="0 0 24.00 24.00" enable-background="new 0 0 24.00 24.00" xml:space="preserve">
	<path fill="#000000" fill-opacity="1" stroke-width="1.33333" stroke-linejoin="miter" d="M 20,4L 4,4C 2.9,4 2,4.9 2,6L 2,18C 2,19.1 2.9,20 4,20L 20,20C 21.1,20 22,19.1 22,18L 22,6C 22,4.9 21.1,4 20,4 Z M 4,12L 8,12L 8,14L 4,14L 4,12 Z M 14,18L 4,18L 4,16L 14,16L 14,18 Z M 20,18L 16,18L 16,16L 20,16L 20,18 Z M 20,14L 10,14L 10,12L 20,12L 20,14 Z "/>
</svg>
