<?xml version="1.0" encoding="utf-8"?>
<!DOCTYPE svg PUBLIC "-//W3C//DTD SVG 1.1//EN" "http://www.w3.org/Graphics/SVG/1.1/DTD/svg11.dtd">
<svg xmlns="http://www.w3.org/2000/svg" xmlns:xlink="http://www.w3.org/1999/xlink" version="1.1" baseProfile="full" width="24" height="24" viewBox="0 0 24.00 24.00" enable-background="new 0 0 24.00 24.00" xml:space="preserve">
	<path fill="#000000" fill-opacity="1" stroke-width="1.33333" stroke-linejoin="miter" d="M 20,4C 21.1,4 22,4.9 22,6L 22,18C 22,19.1 21.1,20 20,20L 4,20C 2.9,20 2,19.1 2,18L 2,6C 2,4.9 2.9,4 4,4L 20,4 Z M 20,18L 20,6L 4,6L 4,18L 20,18 Z M 6,10L 8,10L 8,12L 6,12L 6,10 Z M 6,14L 14,14L 14,16L 6,16L 6,14 Z M 16,14L 18,14L 18,16L 16,16L 16,14 Z M 10,10L 18,10L 18,12L 10,12L 10,10 Z "/>
</svg>
