<?xml version="1.0" encoding="utf-8"?>
<!DOCTYPE svg PUBLIC "-//W3C//DTD SVG 1.1//EN" "http://www.w3.org/Graphics/SVG/1.1/DTD/svg11.dtd">
<svg xmlns="http://www.w3.org/2000/svg" xmlns:xlink="http://www.w3.org/1999/xlink" version="1.1" baseProfile="full" width="24" height="24" viewBox="0 0 24.00 24.00" enable-background="new 0 0 24.00 24.00" xml:space="preserve">
	<path fill="#000000" fill-opacity="1" stroke-width="0.2" stroke-linejoin="round" d="M 15.9994,10.9981L 15.9994,5.99807L 10.9994,5.99807L 10.9994,10.9981L 15.9994,10.9981 Z M 14.4994,16.9981C 15.3284,16.9981 15.9994,16.3261 15.9994,15.4981C 15.9994,14.6701 15.3284,13.9981 14.4994,13.9981C 13.6714,13.9981 12.9994,14.6701 12.9994,15.4981C 12.9994,16.3261 13.6714,16.9981 14.4994,16.9981 Z M 8.9994,10.9981L 8.9994,5.99807L 3.9994,5.99807L 3.9994,10.9981L 8.9994,10.9981 Z M 5.4994,16.9981C 6.3284,16.9981 6.9994,16.3261 6.9994,15.4981C 6.9994,14.6701 6.3284,13.9981 5.4994,13.9981C 4.6714,13.9981 3.9994,14.6701 3.9994,15.4981C 3.9994,16.3261 4.6714,16.9981 5.4994,16.9981 Z M 9.9994,1.99807C 14.4174,1.99807 17.9994,2.49807 17.9994,5.99807L 17.9994,15.4981C 17.9994,17.4311 16.4344,18.9981 14.4994,18.9981L 15.9994,20.4981L 15.9994,20.9981L 3.9994,20.9981L 3.9994,20.4981L 5.4994,18.9981C 3.56841,18.9981 1.9994,17.4311 1.9994,15.4981L 1.9994,5.99807C 1.9994,2.49807 5.58139,1.99807 9.9994,1.99807 Z M 19.9994,11.9981L 19.9994,6.99807L 21.9994,6.99807L 21.9994,11.9981L 19.9994,11.9981 Z M 19.9994,15.9981L 19.9994,13.9981L 21.9994,13.9981L 21.9994,15.9981L 19.9994,15.9981 Z "/>
</svg>
