<?xml version="1.0" encoding="utf-8"?>
<!DOCTYPE svg PUBLIC "-//W3C//DTD SVG 1.1//EN" "http://www.w3.org/Graphics/SVG/1.1/DTD/svg11.dtd">
<svg xmlns="http://www.w3.org/2000/svg" xmlns:xlink="http://www.w3.org/1999/xlink" version="1.1" baseProfile="full" width="24" height="24" viewBox="0 0 24.00 24.00" enable-background="new 0 0 24.00 24.00" xml:space="preserve">
	<path fill="#000000" fill-opacity="1" stroke-width="1.33333" stroke-linejoin="miter" d="M 8.5,15C 9.05229,15 9.5,15.4477 9.5,16C 9.5,16.5523 9.05229,17 8.5,17C 7.94772,17 7.5,16.5523 7.5,16C 7.5,15.4477 7.94772,15 8.5,15 Z M 7.01,9L 17.01,9L 17.01,14L 7.01,14L 7.01,9 Z M 15.5,15C 16.0523,15 16.5,15.4477 16.5,16C 16.5,16.5523 16.0523,17 15.5,17C 14.9477,17 14.5,16.5523 14.5,16C 14.5,15.4477 14.9477,15 15.5,15 Z M 18,15.88L 18,9C 18,6.38 15.32,6 12,6C 9,6 6,6.37 6,9L 6,15.88C 6,17.32 7.18,18.5 8.62,18.5L 7.5,19.62L 7.5,20L 9.17,20L 10.67,18.5L 13.5,18.5L 15,20L 16.5,20L 16.5,19.62L 15.37,18.5C 16.82,18.5 18,17.33 18,15.88 Z M 17.8,2.8C 20.47,3.84 22,6.05 22,8.86L 22,22L 2,22L 2,8.86C 2,6.05 3.53,3.84 6.2,2.8C 8,2.09001 10.14,2.00001 12,2.00001C 13.86,2.00001 16,2.09001 17.8,2.8 Z "/>
</svg>
