<?xml version="1.0" encoding="utf-8"?>
<!DOCTYPE svg PUBLIC "-//W3C//DTD SVG 1.1//EN" "http://www.w3.org/Graphics/SVG/1.1/DTD/svg11.dtd">
<svg xmlns="http://www.w3.org/2000/svg" xmlns:xlink="http://www.w3.org/1999/xlink" version="1.1" baseProfile="full" width="24" height="24" viewBox="0 0 24.00 24.00" enable-background="new 0 0 24.00 24.00" xml:space="preserve">
	<path fill="#000000" fill-opacity="1" stroke-width="0.2" stroke-linejoin="round" d="M 17.9994,10.9981L 12.9994,10.9981L 12.9994,5.99807L 17.9994,5.99807M 16.4994,16.9981C 15.6714,16.9981 14.9994,16.3261 14.9994,15.4981C 14.9994,14.6701 15.6714,13.9981 16.4994,13.9981C 17.3284,13.9981 17.9994,14.6701 17.9994,15.4981C 17.9994,16.3261 17.3284,16.9981 16.4994,16.9981 Z M 10.9994,10.9981L 5.9994,10.9981L 5.9994,5.99807L 10.9994,5.99807M 7.4994,16.9981C 6.6714,16.9981 5.9994,16.3261 5.9994,15.4981C 5.9994,14.6701 6.6714,13.9981 7.4994,13.9981C 8.32839,13.9981 8.9994,14.6701 8.9994,15.4981C 8.9994,16.3261 8.32839,16.9981 7.4994,16.9981 Z M 11.9994,1.99807C 7.5814,1.99807 3.9994,2.49807 3.9994,5.99807L 3.9994,15.4981C 3.9994,17.4311 5.5684,18.9981 7.4994,18.9981L 5.9994,20.4981L 5.9994,20.9981L 17.9994,20.9981L 17.9994,20.4981L 16.4994,18.9981C 18.4344,18.9981 19.9994,17.4311 19.9994,15.4981L 19.9994,5.99807C 19.9994,2.49807 16.4174,1.99807 11.9994,1.99807 Z "/>
</svg>
