<?xml version="1.0" encoding="utf-8"?>
<!DOCTYPE svg PUBLIC "-//W3C//DTD SVG 1.1//EN" "http://www.w3.org/Graphics/SVG/1.1/DTD/svg11.dtd">
<svg xmlns="http://www.w3.org/2000/svg" xmlns:xlink="http://www.w3.org/1999/xlink" version="1.1" baseProfile="full" width="24" height="24" viewBox="0 0 24.00 24.00" enable-background="new 0 0 24.00 24.00" xml:space="preserve">
	<path fill="#000000" fill-opacity="1" stroke-linejoin="round" d="M 6.997,17L 3.997,17C 2.38,17 0.957005,15.743 0.757005,14.14L 0.259005,11.148C 0.152005,10.303 0.391005,9.506 0.908005,8.92101C 1.425,8.33601 2.186,8 2.997,8L 8.997,8C 9.832,8 10.582,8.348 11.056,8.95501C 11.1747,9.10732 11.2734,9.27254 11.3515,9.44739C 11.7772,9.3576 12.2183,9.35767 12.6439,9.44761C 12.7217,9.2719 12.8204,9.10698 12.939,8.95501C 13.413,8.348 14.163,8 14.997,8L 20.997,8C 21.809,8 22.569,8.33601 23.087,8.92101C 23.603,9.507 23.842,10.304 23.741,11.109L 23.231,14.18C 23.036,15.744 21.613,17 19.998,17L 16.998,17C 15.436,17 13.919,15.814 13.542,14.301L 12.6435,11.5868C 12.258,11.3094 11.733,11.3099 11.3486,11.5883L 10.432,14.373C 10.074,15.815 8.556,17 6.997,17 Z "/>
</svg>
