<?xml version="1.0" encoding="utf-8"?>
<!DOCTYPE svg PUBLIC "-//W3C//DTD SVG 1.1//EN" "http://www.w3.org/Graphics/SVG/1.1/DTD/svg11.dtd">
<svg xmlns="http://www.w3.org/2000/svg" xmlns:xlink="http://www.w3.org/1999/xlink" version="1.1" baseProfile="full" width="24" height="24" viewBox="0 0 24.00 24.00" enable-background="new 0 0 24.00 24.00" xml:space="preserve">
	<path fill="#000000" fill-opacity="1" stroke-width="0.2" stroke-linejoin="round" d="M 17,7L 19,7C 20.1046,7 21,7.89543 21,9L 21,15C 21,16.1046 20.1046,17 19,17L 17,17C 15.8954,17 15,16.1046 15,15L 15,9C 15,7.89543 15.8954,7 17,7 Z M 17,9L 17,15L 19,15L 19,9L 17,9 Z M 9,17L 3,17L 3,15.0052L 7,9L 3,9.00001L 3,7.00001L 6.99999,7.00001C 8.10456,7.00001 8.99999,7.89544 8.99999,9.00001C 8.99999,9.41999 8.87055,9.80973 8.64937,10.1315L 5.40654,15L 9,15L 9,17 Z M 12,17C 11.4477,17 11,16.5523 11,16C 11,15.4477 11.4477,15 12,15C 12.5523,15 13,15.4477 13,16C 13,16.5523 12.5523,17 12,17 Z "/>
</svg>
