<?xml version="1.0" encoding="utf-8"?>
<!DOCTYPE svg PUBLIC "-//W3C//DTD SVG 1.1//EN" "http://www.w3.org/Graphics/SVG/1.1/DTD/svg11.dtd">
<svg xmlns="http://www.w3.org/2000/svg" xmlns:xlink="http://www.w3.org/1999/xlink" version="1.1" baseProfile="full" width="24" height="24" viewBox="0 0 24.00 24.00" enable-background="new 0 0 24.00 24.00" xml:space="preserve">
	<path fill="#000000" fill-opacity="1" stroke-width="1.33333" stroke-linejoin="miter" d="M 20,4L 4,4C 2.9,4 2,4.9 2,6L 2,18C 2,19.1 2.9,20 4,20L 20,20C 21.1,20 22,19.1 22,18L 22,6C 22,4.9 21.1,4 20,4 Z M 7.76,16.24L 6.35,17.65C 4.78,16.1 4,14.05 4,12C 4,9.95 4.78,7.9 6.34,6.34L 7.75,7.75C 6.59,8.93 6,10.46 6,12C 6,13.54 6.59,15.07 7.76,16.24 Z M 12,16C 9.79,16 8,14.21 8,12C 8,9.79 9.79,8 12,8C 14.21,8 16,9.79 16,12C 16,14.21 14.21,16 12,16 Z M 17.66,17.66L 16.25,16.25C 17.41,15.07 18,13.54 18,12C 18,10.46 17.41,8.93 16.24,7.76L 17.65,6.35C 19.22,7.9 20,9.95 20,12C 20,14.05 19.22,16.1 17.66,17.66 Z M 12,10C 10.9,10 10,10.9 10,12C 10,13.1 10.9,14 12,14C 13.1,14 14,13.1 14,12C 14,10.9 13.1,10 12,10 Z "/>
</svg>
