<?xml version="1.0" encoding="utf-8"?>
<!DOCTYPE svg PUBLIC "-//W3C//DTD SVG 1.1//EN" "http://www.w3.org/Graphics/SVG/1.1/DTD/svg11.dtd">
<svg xmlns="http://www.w3.org/2000/svg" xmlns:xlink="http://www.w3.org/1999/xlink" version="1.1" baseProfile="full" width="24" height="24" viewBox="0 0 24.00 24.00" enable-background="new 0 0 24.00 24.00" xml:space="preserve">
	<path fill="#000000" fill-opacity="1" stroke-linejoin="round" d="M 12,17C 11.4477,17 11,16.5523 11,16C 11,15.4477 11.4477,15 12,15C 12.5523,15 13,15.4477 13,16C 13,16.5523 12.5523,17 12,17 Z M 18,7.00001L 18,15L 19,15L 19,17L 15,17L 15,15L 16,15L 16,9.00001L 15,9.00001L 16,7.00001L 18,7.00001 Z M 11,7L 8.01508,17L 6.01508,17L 8.40302,9L 5,9L 5,7L 11,7 Z "/>
</svg>
