<?xml version="1.0" encoding="utf-8"?>
<!DOCTYPE svg PUBLIC "-//W3C//DTD SVG 1.1//EN" "http://www.w3.org/Graphics/SVG/1.1/DTD/svg11.dtd">
<svg xmlns="http://www.w3.org/2000/svg" xmlns:xlink="http://www.w3.org/1999/xlink" version="1.1" baseProfile="full" width="24" height="24" viewBox="0 0 24.00 24.00" enable-background="new 0 0 24.00 24.00" xml:space="preserve">
	<path fill="#000000" fill-opacity="1" stroke-width="0.2" stroke-linejoin="round" d="M 13,17C 12.4477,17 12,16.5523 12,16C 12,15.4477 12.4477,15 13,15C 13.5523,15 14,15.4477 14,16C 14,16.5523 13.5523,17 13,17 Z M 19,7.00001L 19,15L 20,15L 20,17L 16,17L 16,15L 17,15L 17,9.00001L 16,9.00001L 17,7.00001L 19,7.00001 Z M 6,13C 4.89543,13 4,12.1046 4,11L 4,7L 10,7L 10,9L 6,9.00001L 6,11L 8,11C 9.10457,11 10,11.8954 10,13L 10,15C 10,16.1046 9.10457,17 8,17L 4,17L 4,15L 8,15L 8,13L 6,13 Z "/>
</svg>
