<?xml version="1.0" encoding="utf-8"?>
<!DOCTYPE svg PUBLIC "-//W3C//DTD SVG 1.1//EN" "http://www.w3.org/Graphics/SVG/1.1/DTD/svg11.dtd">
<svg xmlns="http://www.w3.org/2000/svg" xmlns:xlink="http://www.w3.org/1999/xlink" version="1.1" baseProfile="full" width="24" height="24" viewBox="0 0 24.00 24.00" enable-background="new 0 0 24.00 24.00" xml:space="preserve">
	<path fill="#000000" fill-opacity="1" stroke-width="1.33333" stroke-linejoin="miter" d="M 5.12606,10.7051L 8.87392,10.7051L 6.2238,8.055C 5.21247,8.055 4.39259,7.23512 4.39259,6.22379C 4.39259,5.21246 5.21247,4.39257 6.2238,4.39257C 7.23513,4.39257 8.05501,5.21246 8.05501,6.22379L 10.7051,8.87391L 10.7051,5.12605C 9.99004,4.4109 9.99004,3.25146 10.7051,2.53636C 11.4203,1.82121 12.5797,1.82121 13.2949,2.53636C 14.01,3.25146 14.01,4.4109 13.2949,5.12605L 13.2949,8.87391L 15.945,6.22379C 15.945,5.21246 16.7649,4.39257 17.7762,4.39257C 18.7875,4.39257 19.6074,5.21246 19.6074,6.22379C 19.6074,7.23512 18.7876,8.055 17.7762,8.055L 15.1261,10.7051L 18.874,10.7051C 19.5891,9.99003 20.7485,9.99003 21.4636,10.7051C 22.1788,11.4203 22.1788,12.5797 21.4636,13.2949C 20.7485,14.01 19.5891,14.01 18.874,13.2949L 15.1261,13.2949L 17.7762,15.945C 18.7875,15.945 19.6074,16.7649 19.6074,17.7762C 19.6074,18.7875 18.7876,19.6074 17.7762,19.6074C 16.7649,19.6074 15.945,18.7876 15.945,17.7762L 13.2949,15.1261L 13.2949,18.8739C 14.01,19.5891 14.01,20.7485 13.2949,21.4636C 12.5797,22.1788 11.4203,22.1788 10.7051,21.4637C 9.99004,20.7485 9.98999,19.5891 10.7051,18.8739L 10.7051,15.1261L 8.05501,17.7762C 8.05501,18.7875 7.23513,19.6074 6.2238,19.6074C 5.21247,19.6074 4.39259,18.7876 4.39259,17.7762C 4.39259,16.7649 5.21247,15.945 6.2238,15.945L 8.87392,13.2949L 5.12606,13.2949C 4.41094,14.01 3.25148,14.01 2.53635,13.2949C 1.82122,12.5797 1.82122,11.4203 2.53635,10.7051C 3.25148,9.99003 4.41094,9.98998 5.12606,10.7051 Z "/>
</svg>
