<?xml version="1.0" encoding="utf-8"?>
<!DOCTYPE svg PUBLIC "-//W3C//DTD SVG 1.1//EN" "http://www.w3.org/Graphics/SVG/1.1/DTD/svg11.dtd">
<svg xmlns="http://www.w3.org/2000/svg" xmlns:xlink="http://www.w3.org/1999/xlink" version="1.1" baseProfile="full" width="24" height="24" viewBox="0 0 24.00 24.00" enable-background="new 0 0 24.00 24.00" xml:space="preserve">
	<path fill="#000000" fill-opacity="1" stroke-width="1.33333" stroke-linejoin="miter" d="M 6.2,2.44L 18.1,14.34L 20.22,12.22L 21.63,13.63L 19.16,16.1L 22.34,19.28C 22.7277,19.67 22.7277,20.3 22.34,20.69L 21.63,21.4C 21.24,21.7877 20.61,21.7877 20.22,21.4L 17,18.23L 14.56,20.7L 13.15,19.29L 15.27,17.17L 3.37,5.27L 3.37,2.44L 6.2,2.44 Z M 15.89,10L 20.63,5.26L 20.63,2.44L 17.8,2.44L 13.06,7.18L 15.89,10 Z M 10.94,15L 8.11,12.13L 5.9,14.34L 3.78,12.22L 2.37,13.63L 4.84,16.1L 1.66,19.29C 1.27228,19.68 1.27228,20.31 1.66,20.7L 2.37,21.41C 2.76004,21.7977 3.38996,21.7977 3.78,21.41L 7,18.23L 9.44,20.7L 10.85,19.29L 8.73,17.17L 10.94,15 Z "/>
</svg>
