<?xml version="1.0" encoding="utf-8"?>
<!DOCTYPE svg PUBLIC "-//W3C//DTD SVG 1.1//EN" "http://www.w3.org/Graphics/SVG/1.1/DTD/svg11.dtd">
<svg xmlns="http://www.w3.org/2000/svg" xmlns:xlink="http://www.w3.org/1999/xlink" version="1.1" baseProfile="full" width="24" height="24" viewBox="0 0 24.00 24.00" enable-background="new 0 0 24.00 24.00" xml:space="preserve">
	<path fill="#000000" fill-opacity="1" stroke-width="1.33333" stroke-linejoin="miter" d="M 12,2C 6.48,2 2,6.48 2,12C 2,17.52 6.48,22 12,22C 17.52,22 22,17.52 22,12C 22,6.48 17.52,2 12,2 Z M 16.37,5.7L 16.37,5.7C 17.39,5.67 18.15,6.13 18.21,6.84C 18.22,7.15 18.04,7.75 17.42,7.77C 16.95,7.79 16.63,7.51 16.62,7.09C 16.61,6.93 16.88,6.42 16.88,6.33C 16.87,6.06 16.47,6.05 16.36,6.06C 14.86,6.11 14.46,8.13 14.14,9.78L 13.98,10.65C 14.84,10.78 15.46,10.62 15.8,10.4C 16.28,10.09 15.66,9.77 15.74,9.41C 15.82,9.04 16.15,8.87 16.41,8.86C 16.78,8.85 17.04,9.23 17.03,9.62C 17.02,10.26 16.17,11.14 14.48,11.1C 14.28,11.1 14.09,11.08 13.91,11.06C 13.3,14.16 12.92,15.99 11.56,17.58C 10.39,18.97 9.2,19.18 8.67,19.2C 7.67,19.24 7.01,18.71 6.99,18C 6.97,17.32 7.57,16.94 7.97,16.93C 8.5,16.91 8.87,17.3 8.88,17.74C 8.9,18.11 8.7,18.23 8.57,18.3C 8.49,18.37 8.35,18.45 8.36,18.6C 8.36,18.67 8.43,18.82 8.65,18.81C 9.07,18.8 9.34,18.59 9.54,18.45C 10.51,17.65 10.88,16.24 11.37,13.68C 11.63,12.23 11.82,11.3 12.1,10.38C 11.42,9.87 11.01,9.23 10.09,8.98C 9.46,8.81 9.08,8.96 8.81,9.3C 8.49,9.71 8.6,10.23 8.9,10.54C 10.05,11.82 10.39,12.38 10.26,13.14C 10.06,14.35 8.62,15.27 6.92,14.75C 5.47,14.3 5.2,13.28 5.37,12.71C 5.53,12.22 5.92,12.12 6.31,12.24C 6.73,12.37 6.89,12.87 6.77,13.26C 6.75,13.3 6.55,13.67 6.51,13.79C 6.41,14.1 6.83,14.31 7.12,14.4C 7.77,14.6 8.4,14.26 8.55,13.73C 8.7,13.25 8.4,12.91 8.27,12.78C 7.38,11.8 6.76,10.93 7.06,9.95C 7.18,9.58 7.42,9.18 7.78,8.91C 8.53,8.36 9.35,8.26 10.12,8.48C 11.13,8.77 11.61,9.44 12.24,9.95C 12.59,8.93 13.08,7.92 13.81,7.07C 14.47,6.3 15.35,5.74 16.37,5.7 Z "/>
</svg>
