<?xml version="1.0" encoding="utf-8"?>
<!DOCTYPE svg PUBLIC "-//W3C//DTD SVG 1.1//EN" "http://www.w3.org/Graphics/SVG/1.1/DTD/svg11.dtd">
<svg xmlns="http://www.w3.org/2000/svg" xmlns:xlink="http://www.w3.org/1999/xlink" version="1.1" baseProfile="full" width="24" height="24" viewBox="0 0 24.00 24.00" enable-background="new 0 0 24.00 24.00" xml:space="preserve">
	<path fill="#000000" fill-opacity="1" stroke-linejoin="round" d="M 20,4L 14,4L 14,10L 16.24,7.76C 17.32,8.85 18,10.34 18,12C 18,13 17.75,13.94 17.32,14.77L 18.78,16.23C 19.55,15.01 20,13.56 20,12C 20,9.79 19.09,7.8 17.64,6.36L 20,4 Z M 2.86,5.41L 5.22,7.77C 4.45,8.99 4,10.44 4,12C 4,14.21 4.91,16.2 6.36,17.64L 4,20L 10,20L 10,14L 7.76,16.24C 6.68,15.15 6,13.66 6,12C 6,11 6.25,10.06 6.68,9.23L 14.76,17.31C 14.51,17.44 14.26,17.56 13.99,17.65L 13.99,19.74C 14.79,19.53 15.54,19.2 16.22,18.78L 18.58,21.14L 19.85,19.87L 4.14,4.14L 2.86,5.41 Z M 10,6.35L 10,4.26C 9.2,4.47 8.45,4.8 7.77,5.22L 9.23,6.68C 9.48,6.56 9.73,6.44 10,6.35 Z "/>
</svg>
