<?xml version="1.0" encoding="utf-8"?>
<!DOCTYPE svg PUBLIC "-//W3C//DTD SVG 1.1//EN" "http://www.w3.org/Graphics/SVG/1.1/DTD/svg11.dtd">
<svg xmlns="http://www.w3.org/2000/svg" xmlns:xlink="http://www.w3.org/1999/xlink" version="1.1" baseProfile="full" width="24" height="24" viewBox="0 0 24.00 24.00" enable-background="new 0 0 24.00 24.00" xml:space="preserve">
	<path fill="#000000" fill-opacity="1" stroke-linejoin="round" d="M 11,13L 13,13L 13,7L 11,7M 21,4L 15,4L 15,10L 17.24,7.76C 18.32,8.85 19,10.34 19,12C 19,14.61 17.33,16.83 15,17.65L 15,19.74C 18.45,18.85 21,15.73 21,12C 21,9.79 20.09,7.8 18.64,6.36M 11,17L 13,17L 13,15L 11,15M 3,12C 3,14.21 3.91,16.2 5.36,17.64L 3,20L 9,20L 9,14L 6.76,16.24C 5.68,15.15 5,13.66 5,12C 5,9.39 6.67,7.17 9,6.35L 9,4.26C 5.55,5.15 3,8.27 3,12 Z "/>
</svg>
