<?xml version="1.0" encoding="utf-8"?>
<!DOCTYPE svg PUBLIC "-//W3C//DTD SVG 1.1//EN" "http://www.w3.org/Graphics/SVG/1.1/DTD/svg11.dtd">
<svg xmlns="http://www.w3.org/2000/svg" xmlns:xlink="http://www.w3.org/1999/xlink" version="1.1" baseProfile="full" width="24" height="24" viewBox="0 0 24.00 24.00" enable-background="new 0 0 24.00 24.00" xml:space="preserve">
	<path fill="#000000" fill-opacity="1" stroke-width="1.33333" stroke-linejoin="miter" d="M 1,9L 3,9L 3,7L 1,7L 1,9 Z M 1,13L 3,13L 3,11L 1,11L 1,13 Z M 1,5L 3,5L 3,3C 1.9,3 1,3.9 1,5 Z M 9,21L 11,21L 11,19L 9,19L 9,21 Z M 1,17L 3,17L 3,15L 1,15L 1,17 Z M 3,21L 3,19L 1,19C 1,20.1 1.9,21 3,21 Z M 21,3L 13,3L 13,9L 23,9L 23,5C 23,3.9 22.1,3 21,3 Z M 21,17L 23,17L 23,15L 21,15L 21,17 Z M 9,5L 11,5L 11,3L 9,3L 9,5 Z M 5,21L 7,21L 7,19L 5,19L 5,21 Z M 5,5L 7,5L 7,3L 5,3L 5,5 Z M 21,21C 22.1,21 23,20.1 23,19L 21,19L 21,21 Z M 21,13L 23,13L 23,11L 21,11L 21,13 Z M 13,21L 15,21L 15,19L 13,19L 13,21 Z M 17,21L 19,21L 19,19L 17,19L 17,21 Z "/>
</svg>
