<?xml version="1.0" encoding="utf-8"?>
<!DOCTYPE svg PUBLIC "-//W3C//DTD SVG 1.1//EN" "http://www.w3.org/Graphics/SVG/1.1/DTD/svg11.dtd">
<svg xmlns="http://www.w3.org/2000/svg" xmlns:xlink="http://www.w3.org/1999/xlink" version="1.1" baseProfile="full" width="24" height="24" viewBox="0 0 24.00 24.00" enable-background="new 0 0 24.00 24.00" xml:space="preserve">
	<path fill="#000000" fill-opacity="1" stroke-width="0.2" stroke-linejoin="miter" d="M 18.9994,18.998L 18.9994,8.99805L 11.9994,8.99805L 11.9994,4.99805L 4.99939,4.99805L 4.99939,19.0001L 18.9994,18.998 Z M 18.9994,2.99805C 20.1034,2.99805 20.9994,3.89404 20.9994,4.99805L 20.9994,18.998C 20.9994,20.1021 20.1034,20.998 18.9994,20.998L 4.99939,20.998C 3.89539,20.998 2.99939,20.1021 2.99939,18.998L 2.99939,4.99805C 2.99939,3.89404 3.89539,2.99805 4.99939,2.99805L 18.9994,2.99805 Z M 7,13L 10,13L 10,10L 12,10L 12,13L 15,13L 15,15L 12,15L 12,18L 10,18L 10,15L 7,15L 7,13 Z "/>
</svg>
