<?xml version="1.0" encoding="utf-8"?>
<!DOCTYPE svg PUBLIC "-//W3C//DTD SVG 1.1//EN" "http://www.w3.org/Graphics/SVG/1.1/DTD/svg11.dtd">
<svg xmlns="http://www.w3.org/2000/svg" xmlns:xlink="http://www.w3.org/1999/xlink" version="1.1" baseProfile="full" width="24" height="24" viewBox="0 0 24.00 24.00" enable-background="new 0 0 24.00 24.00" xml:space="preserve">
	<path fill="#000000" fill-opacity="1" stroke-width="0.2" stroke-linejoin="round" d="M 13,2.00001C 11.8954,2.00001 11,2.89544 11,4.00001L 11,20C 11,21.1045 11.8954,22 13,22L 22,22L 22,2L 13,2.00001 Z M 20,10L 20,14L 13,14L 13,10L 20,10 Z M 20,16L 20,20L 13,20L 13,16L 20,16 Z M 20,4L 20,8L 13,7.99999L 13,4L 20,4 Z M 9.00002,11L 6.00001,11L 6.00001,8L 4.00001,8L 4.00001,11L 1.00002,11L 1.00002,13L 4.00001,13L 4.00001,16L 6.00001,16L 6.00001,13L 9.00002,13L 9.00002,11 Z "/>
</svg>
