<?xml version="1.0" encoding="utf-8"?>
<!DOCTYPE svg PUBLIC "-//W3C//DTD SVG 1.1//EN" "http://www.w3.org/Graphics/SVG/1.1/DTD/svg11.dtd">
<svg xmlns="http://www.w3.org/2000/svg" xmlns:xlink="http://www.w3.org/1999/xlink" version="1.1" baseProfile="full" width="24" height="24" viewBox="0 0 24.00 24.00" enable-background="new 0 0 24.00 24.00" xml:space="preserve">
	<path fill="#000000" fill-opacity="1" stroke-width="1.33333" stroke-linejoin="miter" d="M 5,10L 3,10L 3,6C 3,4.9 3.9,4 5,4L 11,4L 11,6L 5,6L 5,10 Z M 19,18L 13,18L 13,20L 19,20C 20.1,20 21,19.1 21,18L 21,14L 19,14L 19,18 Z M 5,18L 5,14L 3,14L 3,18C 3,19.1 3.9,20 5,20L 11,20L 11,18L 5,18 Z M 19,4L 13,4L 13,6L 19,6L 19,10L 21,10L 21,6C 21,4.9 20.1,4 19,4 Z M 8,13L 8,15L 11,12L 8,9L 8,11L 3,11L 3,13L 8,13 Z M 16,11L 16,9L 13,12L 16,15L 16,13L 21,13L 21,11L 16,11 Z "/>
</svg>
