<?xml version="1.0" encoding="utf-8"?>
<!DOCTYPE svg PUBLIC "-//W3C//DTD SVG 1.1//EN" "http://www.w3.org/Graphics/SVG/1.1/DTD/svg11.dtd">
<svg xmlns="http://www.w3.org/2000/svg" xmlns:xlink="http://www.w3.org/1999/xlink" version="1.1" baseProfile="full" width="24" height="24" viewBox="0 0 24.00 24.00" enable-background="new 0 0 24.00 24.00" xml:space="preserve">
	<path fill="#000000" fill-opacity="1" stroke-width="0.2" stroke-linejoin="round" d="M 3,5L 15,5C 16.1045,5 17,5.89543 17,7L 17,17C 17,18.1046 16.1045,19 15,19L 3,19C 1.89543,19 1,18.1046 1,17L 1,7C 1,5.89543 1.89543,5 3,5 Z M 3,9.00001L 3,12L 7.99998,12L 7.99999,9.00001L 3,9.00001 Z M 9.99999,9.00001L 9.99999,12L 15,12L 15,9.00001L 9.99999,9.00001 Z M 3,14L 3,17L 7.99998,17L 7.99999,14L 3,14 Z M 9.99999,14L 9.99998,17L 15,17L 15,14L 9.99999,14 Z M 23,14L 23,7L 19,7L 19,9L 21,9L 21,12L 19,12L 19,14L 23,14 Z "/>
</svg>
