<?xml version="1.0" encoding="utf-8"?>
<!DOCTYPE svg PUBLIC "-//W3C//DTD SVG 1.1//EN" "http://www.w3.org/Graphics/SVG/1.1/DTD/svg11.dtd">
<svg xmlns="http://www.w3.org/2000/svg" xmlns:xlink="http://www.w3.org/1999/xlink" version="1.1" baseProfile="full" width="24" height="24" viewBox="0 0 24.00 24.00" enable-background="new 0 0 24.00 24.00" xml:space="preserve">
	<path fill="#000000" fill-opacity="1" stroke-linejoin="round" d="M 19,18L 5,18L 5,6L 19,6M 21,4L 3,4C 1.89067,4 1,4.89067 1,6L 1,18C 1,19.0987 1.90133,20 3,20L 21,20C 22.0987,20 23,19.0987 23,18L 23,6C 23,4.89067 22.0987,4 21,4 Z M 7,8L 13,8L 13,13L 7,13L 7,8 Z M 14,8L 17,8L 17,10L 14,10L 14,8 Z M 17,11L 17,16L 14,16L 14,11L 17,11 Z M 7,14L 13,14L 13,16L 7,16L 7,14 Z "/>
</svg>
