<?xml version="1.0" encoding="utf-8"?>
<!DOCTYPE svg PUBLIC "-//W3C//DTD SVG 1.1//EN" "http://www.w3.org/Graphics/SVG/1.1/DTD/svg11.dtd">
<svg xmlns="http://www.w3.org/2000/svg" xmlns:xlink="http://www.w3.org/1999/xlink" version="1.1" baseProfile="full" width="24" height="24" viewBox="0 0 24.00 24.00" enable-background="new 0 0 24.00 24.00" xml:space="preserve">
	<path fill="#000000" fill-opacity="1" stroke-width="1.33333" stroke-linejoin="miter" d="M 18.5,14C 19.9,14 21,15.1 21,16.5C 21,17.9 19.9,19 18.5,19C 17.1,19 16,17.9 16,16.5C 16,15.1 17.1,14 18.5,14 Z M 7,15C 7,15 8,16 8,17L 8,20.5C 8,21.3 8.7,22 9.5,22C 10.3,22 11,21.3 11,20.5L 11,17C 11,16 12,15 12,15L 7,15 Z M 8,14L 11,14C 11,14 16,14 16,9C 16,4 12,2 9.5,2C 7,2 3,4 3,9C 3,14 8,14 8,14 Z "/>
</svg>
