<?xml version="1.0" encoding="utf-8"?>
<!DOCTYPE svg PUBLIC "-//W3C//DTD SVG 1.1//EN" "http://www.w3.org/Graphics/SVG/1.1/DTD/svg11.dtd">
<svg xmlns="http://www.w3.org/2000/svg" xmlns:xlink="http://www.w3.org/1999/xlink" version="1.1" baseProfile="full" width="24" height="24" viewBox="0 0 24.00 24.00" enable-background="new 0 0 24.00 24.00" xml:space="preserve">
	<path fill="#000000" fill-opacity="1" stroke-width="1.33333" stroke-linejoin="miter" d="M 21,19C 21,19.552 20.552,20 20,20L 19,20L 19,18L 21,18L 21,19M 15,20L 15,18L 17,18L 17,20L 15,20M 11,20L 11,18L 13,18L 13,20L 11,20M 7,20L 7,18L 9,18L 9,20L 7,20M 4,20C 3.448,20 3,19.552 3,19L 3,18L 5,18L 5,20L 4,20M 19,4L 5,4C 3.895,4 3,4.895 3,6L 3,8L 5,8L 11,8L 13,8L 19,8L 21,8L 21,6C 21,4.895 20.105,4 19,4 Z M 5,14L 3,14L 3,16L 5,16L 5,14 Z M 5,10L 3,10L 3,12L 5,12L 5,10 Z M 21,10L 19,10L 19,12L 21,12L 21,10 Z M 21,14L 19,14L 19,16L 21,16L 21,14 Z M 11,16L 11,14L 13,14L 13,16L 11,16M 11,12L 11,10L 13,10L 13,12L 11,12"/>
</svg>
