<?xml version="1.0" encoding="utf-8"?>
<!DOCTYPE svg PUBLIC "-//W3C//DTD SVG 1.1//EN" "http://www.w3.org/Graphics/SVG/1.1/DTD/svg11.dtd">
<svg xmlns="http://www.w3.org/2000/svg" xmlns:xlink="http://www.w3.org/1999/xlink" version="1.1" baseProfile="full" width="24" height="24" viewBox="0 0 24.00 24.00" enable-background="new 0 0 24.00 24.00" xml:space="preserve">
	<path fill="#000000" fill-opacity="1" stroke-width="1.33333" stroke-linejoin="miter" d="M 3,9L 17,9L 17,7L 3,7L 3,9 Z M 3,13L 17,13L 17,11L 3,11L 3,13 Z M 3,17L 17,17L 17,15L 3,15L 3,17 Z M 19,17L 21,17L 21,15L 19,15L 19,17 Z M 19,7L 19,9L 21,9L 21,7L 19,7 Z M 19,13L 21,13L 21,11L 19,11L 19,13 Z "/>
</svg>
