<?xml version="1.0" encoding="utf-8"?>
<!DOCTYPE svg PUBLIC "-//W3C//DTD SVG 1.1//EN" "http://www.w3.org/Graphics/SVG/1.1/DTD/svg11.dtd">
<svg xmlns="http://www.w3.org/2000/svg" xmlns:xlink="http://www.w3.org/1999/xlink" version="1.1" baseProfile="full" width="24" height="24" viewBox="0 0 24.00 24.00" enable-background="new 0 0 24.00 24.00" xml:space="preserve">
	<path fill="#000000" fill-opacity="1" stroke-width="0.2" stroke-linejoin="round" d="M 8,2.00002L 16,2.00002C 17.1046,2.00002 18,2.89544 18,4.00002L 18,20C 18,21.1046 17.1046,22 16,22L 8,22C 6.89543,22 6,21.1046 6,20L 6,4.00002C 6,2.89545 6.89543,2.00002 8,2.00002 Z M 8,10L 8,14L 16,14L 16,10L 8,10 Z M 8,16L 8,20L 16,20L 16,16L 8,16 Z M 8,4.00001L 8,8L 16,8L 16,4.00001L 8,4.00001 Z "/>
</svg>
