<?xml version="1.0" encoding="utf-8"?>
<!DOCTYPE svg PUBLIC "-//W3C//DTD SVG 1.1//EN" "http://www.w3.org/Graphics/SVG/1.1/DTD/svg11.dtd">
<svg xmlns="http://www.w3.org/2000/svg" xmlns:xlink="http://www.w3.org/1999/xlink" version="1.1" baseProfile="full" width="24" height="24" viewBox="0 0 24.00 24.00" enable-background="new 0 0 24.00 24.00" xml:space="preserve">
	<path fill="#000000" fill-opacity="1" stroke-width="0.2" stroke-linejoin="round" d="M 4,2.00002L 20,2.00002C 21.1045,2.00002 22,2.89545 22,4.00002L 22,20C 22,21.1046 21.1045,22 20,22L 4,22C 2.89543,22 2,21.1046 2,20L 2,4.00002C 2,2.89545 2.89543,2.00002 4,2.00002 Z M 4,7.00001L 4,10L 8,10L 7.99999,7.00001L 4,7.00001 Z M 4,15L 8,15L 8,12L 4,12L 4,15 Z M 20,15L 20,12L 16,12L 16,15L 20,15 Z M 20,7.00001L 16,7.00001L 16,10L 20,10L 20,7.00001 Z M 10,7.00001L 10,10L 14,10L 14,7.00001L 10,7.00001 Z M 10,15L 14,15L 14,12L 10,12L 10,15 Z M 4,20L 8,20L 8,17L 4,17L 4,20 Z M 20,20L 20,17L 16,17L 16,20L 20,20 Z M 10,17L 10,20L 14,20L 14,17L 10,17 Z "/>
</svg>
