<?xml version="1.0" encoding="utf-8"?>
<!DOCTYPE svg PUBLIC "-//W3C//DTD SVG 1.1//EN" "http://www.w3.org/Graphics/SVG/1.1/DTD/svg11.dtd">
<svg xmlns="http://www.w3.org/2000/svg" xmlns:xlink="http://www.w3.org/1999/xlink" version="1.1" baseProfile="full" width="24" height="24" viewBox="0 0 24.00 24.00" enable-background="new 0 0 24.00 24.00" xml:space="preserve">
	<path fill="#000000" fill-opacity="1" stroke-width="0.2" stroke-linejoin="round" d="M 4,2.00002L 11,2.00001C 12.1046,2.00001 13,2.89544 13,4.00001L 13,20C 13,21.1046 12.1046,22 11,22L 4,22C 2.89543,22 2,21.1046 2,20L 2,4.00002C 2,2.89544 2.89543,2.00002 4,2.00002 Z M 4,10L 4,14L 11,14L 11,10L 4,10 Z M 4,16L 4,20L 11,20L 11,16L 4,16 Z M 4,4.00001L 4,8L 11,7.99999L 11,4L 4,4.00001 Z M 17.5858,12L 15,9.41422L 16.4142,8L 19,10.5858L 21.5858,8L 23,9.41422L 20.4142,12L 23,14.5858L 21.5858,16L 19,13.4142L 16.4142,16L 15,14.5858L 17.5858,12 Z "/>
</svg>
