<?xml version="1.0" encoding="utf-8"?>
<!DOCTYPE svg PUBLIC "-//W3C//DTD SVG 1.1//EN" "http://www.w3.org/Graphics/SVG/1.1/DTD/svg11.dtd">
<svg xmlns="http://www.w3.org/2000/svg" xmlns:xlink="http://www.w3.org/1999/xlink" version="1.1" baseProfile="full" width="24" height="24" viewBox="0 0 24.00 24.00" enable-background="new 0 0 24.00 24.00" xml:space="preserve">
	<path fill="#000000" fill-opacity="1" stroke-width="1.33333" stroke-linejoin="miter" d="M 3,4L 20,4C 21.1,4 22,4.9 22,6L 22,8L 18,8.00001L 18,6.00001L 5,6L 5,18L 14,18L 14,20L 3,20C 1.9,20 1,19.1 1,18L 1,6C 1,4.9 1.9,4 3,4 Z M 17,10L 23,10C 23.55,10 24,10.45 24,11L 24,21C 24,21.55 23.55,22 23,22L 17,22C 16.45,22 16,21.55 16,21L 16,11C 16,10.45 16.45,10 17,10 Z M 18,12L 18,19L 22,19L 22,12L 18,12 Z "/>
</svg>
