<?xml version="1.0" encoding="utf-8"?>
<!DOCTYPE svg PUBLIC "-//W3C//DTD SVG 1.1//EN" "http://www.w3.org/Graphics/SVG/1.1/DTD/svg11.dtd">
<svg xmlns="http://www.w3.org/2000/svg" xmlns:xlink="http://www.w3.org/1999/xlink" version="1.1" baseProfile="full" width="24" height="24" viewBox="0 0 24.00 24.00" enable-background="new 0 0 24.00 24.00" xml:space="preserve">
	<path fill="#000000" fill-opacity="1" stroke-width="0.2" stroke-linejoin="round" d="M 18,14L 20,14L 20,17L 23,17L 23,19L 20,19L 20,22L 18,22L 18,19L 15,19L 15,17L 18,17L 18,14 Z M 4,3L 18,3C 19.1046,3 20,3.89543 20,5L 20,12.0837C 18.4469,11.8197 16.916,12.1826 15.6833,13L 12,13L 12,17L 13.0837,17C 12.9684,17.6786 12.9727,18.3529 13.0823,19L 4,19C 2.89543,19 2,18.1046 2,17L 2,5C 2,3.89543 2.89543,3 4,3 Z M 4,7L 4,11L 9.99999,11L 9.99999,7L 4,7 Z M 12,7.00001L 12,11L 18,11L 18,7.00001L 12,7.00001 Z M 4,13L 4,17L 10,17L 10,13L 4,13 Z "/>
</svg>
