<?xml version="1.0" encoding="utf-8"?>
<!DOCTYPE svg PUBLIC "-//W3C//DTD SVG 1.1//EN" "http://www.w3.org/Graphics/SVG/1.1/DTD/svg11.dtd">
<svg xmlns="http://www.w3.org/2000/svg" xmlns:xlink="http://www.w3.org/1999/xlink" version="1.1" baseProfile="full" width="24" height="24" viewBox="0 0 24.00 24.00" enable-background="new 0 0 24.00 24.00" xml:space="preserve">
	<path fill="#000000" fill-opacity="1" stroke-width="0.2" stroke-linejoin="round" d="M 21.9999,14C 21.9999,15.1046 21.1045,16 20,16L 4,16C 2.89543,16 2,15.1046 2,14L 2.00004,10C 2.00004,8.89544 2.89547,8.00001 4.00004,8.00001L 20,8.00001C 21.1046,8.00001 22,8.89544 22,10L 21.9999,14 Z M 3.99999,14L 7.99997,14L 8.00002,9.99999L 4.00004,10L 3.99999,14 Z M 9.99996,14L 14,14L 14,10L 10,9.99999L 9.99996,14 Z M 16,14L 20,14L 20,10L 16,10L 16,14 Z "/>
</svg>
