<?xml version="1.0" encoding="utf-8"?>
<!DOCTYPE svg PUBLIC "-//W3C//DTD SVG 1.1//EN" "http://www.w3.org/Graphics/SVG/1.1/DTD/svg11.dtd">
<svg xmlns="http://www.w3.org/2000/svg" xmlns:xlink="http://www.w3.org/1999/xlink" version="1.1" baseProfile="full" width="24" height="24" viewBox="0 0 24.00 24.00" enable-background="new 0 0 24.00 24.00" xml:space="preserve">
	<g>
		<path fill="#000000" fill-opacity="1" stroke-width="1.33333" stroke-linejoin="miter" d="M 17,2L 3,2C 1.89543,2 1,2.8954 1,4L 1,16C 1,17.1046 1.89543,18 3,18L 8.26,18C 7.81968,17.3924 7.48187,16.7168 7.26,16L 3,16L 3,12L 7.29,12C 7.51187,11.2832 7.84968,10.6076 8.29,10L 3,10L 3,6L 9,6L 9,9.11C 9.5738,8.5153 10.2516,8.0306 11,7.68L 11,6L 17,6L 17,7.68C 17.7484,8.0306 18.4262,8.5153 19,9.11L 19,4C 19,2.8954 18.1046,2 17,2 Z M 22.71,21.29L 18.17,16.75C 19.6907,14.445 19.055,11.3437 16.75,9.823C 14.445,8.3023 11.3437,8.938 9.82298,11.243C 8.30226,13.5479 8.93801,16.6493 11.243,18.17C 12.9133,19.272 15.0797,19.272 16.75,18.17L 21.29,22.71L 22.71,21.29 Z M 14,17C 12.3431,17 11,15.6568 11,14C 11,12.3431 12.3431,11 14,11C 15.6569,11 17,12.3431 17,14C 17,15.6568 15.6569,17 14,17 Z "/>
	</g>
</svg>
