<?xml version="1.0" encoding="utf-8"?>
<!DOCTYPE svg PUBLIC "-//W3C//DTD SVG 1.1//EN" "http://www.w3.org/Graphics/SVG/1.1/DTD/svg11.dtd">
<svg xmlns="http://www.w3.org/2000/svg" xmlns:xlink="http://www.w3.org/1999/xlink" version="1.1" baseProfile="full" width="24" height="24" viewBox="0 0 24.00 24.00" enable-background="new 0 0 24.00 24.00" xml:space="preserve">
	<g>
		<path fill="#000000" fill-opacity="1" stroke-width="1.33333" stroke-linejoin="miter" d="M 19.3,17.89C 20.6243,15.787 19.993,13.0085 17.89,11.6842C 15.787,10.3599 13.0085,10.9912 11.6842,13.0942C 10.3599,15.1972 10.9912,17.9757 13.0942,19.3C 14.5596,20.2228 16.4246,20.2228 17.89,19.3L 21,22.39L 22.39,21L 19.3,17.89 Z M 17.3,17.27C 16.3225,18.2451 14.7395,18.2431 13.7645,17.2655C 12.7894,16.288 12.7914,14.7051 13.7689,13.73C 14.7447,12.7567 16.3242,12.7567 17.3,13.73C 18.2601,14.7195 18.2467,16.2969 17.27,17.27L 17.3,17.27 Z M 19,4L 5,4C 3.89543,4 3,4.8954 3,6L 3,18C 3,19.1046 3.89543,20 5,20L 10.81,20C 10.2487,19.4218 9.801,18.7434 9.49,18L 5,18L 5,14L 9.18,14C 9.33607,13.2911 9.61349,12.6144 10,12L 5,12L 5,8L 11,8L 11,10.81C 11.5782,10.2487 12.2566,9.801 13,9.49L 13,8L 19,8L 19,10C 19.3973,10.2528 19.7661,10.5479 20.1,10.88C 20.4412,11.2183 20.7431,11.594 21,12L 21,6C 21,4.8954 20.1046,4 19,4 Z "/>
	</g>
</svg>
