<?xml version="1.0" encoding="utf-8"?>
<!DOCTYPE svg PUBLIC "-//W3C//DTD SVG 1.1//EN" "http://www.w3.org/Graphics/SVG/1.1/DTD/svg11.dtd">
<svg xmlns="http://www.w3.org/2000/svg" xmlns:xlink="http://www.w3.org/1999/xlink" version="1.1" baseProfile="full" width="24" height="24" viewBox="0 0 24.00 24.00" enable-background="new 0 0 24.00 24.00" xml:space="preserve">
	<path fill="#000000" fill-opacity="1" stroke-width="1.33333" stroke-linejoin="miter" d="M 7,22L 9,22L 9,24L 7,24L 7,22 Z M 11,22L 13,22L 13,24L 11,24L 11,22 Z M 15,22L 17,22L 17,24L 15,24L 15,22 Z M 5,4L 19,4C 20.1046,4 21,4.8954 21,6L 21,17.9999C 21,19.1045 20.1046,19.9999 19,19.9999L 5,19.9999C 3.89543,19.9999 3,19.1045 3,17.9999L 3,6C 3,4.8954 3.89543,4 5,4 Z M 5,8L 5,12L 11,12L 11,8L 5,8 Z M 13,8L 13,12L 19,12L 19,8L 13,8 Z M 5,14L 5,17.9999L 11,17.9999L 11,14L 5,14 Z M 13,14L 13,17.9999L 19,17.9999L 19,14L 13,14 Z "/>
</svg>
