<?xml version="1.0" encoding="utf-8"?>
<!DOCTYPE svg PUBLIC "-//W3C//DTD SVG 1.1//EN" "http://www.w3.org/Graphics/SVG/1.1/DTD/svg11.dtd">
<svg xmlns="http://www.w3.org/2000/svg" xmlns:xlink="http://www.w3.org/1999/xlink" version="1.1" baseProfile="full" width="24" height="24" viewBox="0 0 24.00 24.00" enable-background="new 0 0 24.00 24.00" xml:space="preserve">
	<path fill="#000000" fill-opacity="1" stroke-width="0.2" stroke-linejoin="round" d="M 22,10C 22,11.1046 21.1045,12 20,12L 4,12C 2.89543,12 2,11.1046 2,10L 2,3L 4,3L 4,5L 8,5L 8,3L 10,3L 10,5L 14,5L 14,3L 16,3L 16,5L 20,5L 20,3L 22,3L 22,10 Z M 4,10L 7.99998,10L 7.99998,7.00001L 4,7.00001L 4,10 Z M 9.99997,10L 14,10L 14,7.00001L 9.99997,7.00001L 9.99997,10 Z M 20,10L 20,7.00001L 16,7.00001L 16,10L 20,10 Z M 11,14L 13,14L 13,17L 16,17L 16,19L 13,19L 13,22L 11,22L 11,19L 8,19L 8,17L 11,17L 11,14 Z "/>
</svg>
