<?xml version="1.0" encoding="utf-8"?>
<!DOCTYPE svg PUBLIC "-//W3C//DTD SVG 1.1//EN" "http://www.w3.org/Graphics/SVG/1.1/DTD/svg11.dtd">
<svg xmlns="http://www.w3.org/2000/svg" xmlns:xlink="http://www.w3.org/1999/xlink" version="1.1" baseProfile="full" width="24" height="24" viewBox="0 0 24.00 24.00" enable-background="new 0 0 24.00 24.00" xml:space="preserve">
	<path fill="#000000" fill-opacity="1" stroke-width="0.2" stroke-linejoin="round" d="M 18.9994,18.999L 3.99939,18.999L 3.99939,2.99904L 18.9994,2.99904M 11.4994,22.999C 10.6714,22.999 9.99939,22.327 9.99939,21.499C 9.99939,20.671 10.6714,19.999 11.4994,19.999C 12.3274,19.999 12.9994,20.671 12.9994,21.499C 12.9994,22.327 12.3274,22.999 11.4994,22.999 Z M 18.4994,-0.000955582L 4.49939,-0.000955582C 3.11838,-0.000955582 1.99939,1.11803 1.99939,2.49904L 1.99939,21.499C 1.99939,22.8801 3.11838,23.999 4.49939,23.999L 18.4994,23.999C 19.8804,23.999 20.9994,22.8801 20.9994,21.499L 20.9994,2.49904C 20.9994,1.11803 19.8804,-0.000955582 18.4994,-0.000955582 Z "/>
</svg>
