<?xml version="1.0" encoding="utf-8"?>
<!DOCTYPE svg PUBLIC "-//W3C//DTD SVG 1.1//EN" "http://www.w3.org/Graphics/SVG/1.1/DTD/svg11.dtd">
<svg xmlns="http://www.w3.org/2000/svg" xmlns:xlink="http://www.w3.org/1999/xlink" version="1.1" baseProfile="full" width="24" height="24" viewBox="0 0 24.00 24.00" enable-background="new 0 0 24.00 24.00" xml:space="preserve">
	<path fill="#000000" fill-opacity="1" stroke-width="1.33333" stroke-linejoin="miter" d="M 4,2C 2.9,2 2,2.9 2,4L 2,11C 2,11.55 2.21984,12.0499 2.58984,12.4199L 11.5898,21.4199C 11.9498,21.7799 12.45,22 13,22C 13.5501,22 14.0502,21.7801 14.4102,21.4101L 21.4102,14.4101C 21.7802,14.0501 22.0001,13.55 22.0001,12.9999C 22.0001,12.4499 21.7702,11.94 21.4102,11.58L 12.4102,2.58C 12.0502,2.22 11.5501,2 11,2L 4.00004,2L 4,2 Z M 11,3.9902L 20,12.9902L 13,20.0097L 4,10.9999L 4,3.9999L 11,3.9999L 11,3.9901L 11,3.9902 Z M 6.5,5C 5.67157,5 5,5.6716 5,6.5C 5,7.3284 5.67157,8 6.5,8C 7.32843,8 8,7.3284 8,6.5C 8,5.6716 7.32843,5 6.5,5 Z M 10.9492,10.5C 9.8192,10.5 8.9004,11.4208 8.9004,12.5508C 8.9004,13.1208 9.13001,13.62 9.50001,14L 13,17.5L 16.5,14C 16.87,13.63 17.0996,13.1108 17.0996,12.5508C 17.0996,11.4208 16.1808,10.5 15.0508,10.5C 14.4808,10.5 13.9696,10.7296 13.5996,11.0996L 13,11.6992L 12.4004,11.1094C 12.0304,10.7294 11.5092,10.5 10.9492,10.5 Z "/>
</svg>
