<?xml version="1.0" encoding="utf-8"?>
<!DOCTYPE svg PUBLIC "-//W3C//DTD SVG 1.1//EN" "http://www.w3.org/Graphics/SVG/1.1/DTD/svg11.dtd">
<svg xmlns="http://www.w3.org/2000/svg" xmlns:xlink="http://www.w3.org/1999/xlink" version="1.1" baseProfile="full" width="24" height="24" viewBox="0 0 24.00 24.00" enable-background="new 0 0 24.00 24.00" xml:space="preserve">
	<path fill="#000000" fill-opacity="1" stroke-width="1.33333" stroke-linejoin="miter" d="M 21.41,11.58L 12.41,2.58C 12.035,2.2081 11.5281,1.9996 11,2L 4,2C 2.89543,2 2,2.8954 2,4L 2,11C 2.00223,11.5296 2.21441,12.0366 2.59,12.41L 2.99,12.81C 3.90239,12.2746 4.94213,11.9948 6,12C 9.31371,12 12,14.6863 12,18C 12.0049,19.056 11.7213,20.0933 11.18,21L 11.58,21.4C 11.9541,21.7817 12.4655,21.9978 13,22C 13.5296,21.9978 14.0366,21.7856 14.41,21.41L 21.41,14.41C 21.7856,14.0366 21.9978,13.5296 22,13C 22.0004,12.467 21.788,11.9558 21.41,11.58 Z M 5.5,7C 4.67157,7 4,6.3284 4,5.5C 4,4.6716 4.67157,4 5.5,4C 6.32843,4 7,4.6716 7,5.5C 7,6.3284 6.32843,7 5.5,7 Z M 8.12,21.54L 6,19.41L 3.88,21.54L 2.46,20.12L 4.59,18L 2.46,15.88L 3.87,14.47L 6,16.59L 8.12,14.47L 9.53,15.88L 7.41,18L 9.53,20.12L 8.12,21.54 Z "/>
</svg>
