<?xml version="1.0" encoding="utf-8"?>
<!DOCTYPE svg PUBLIC "-//W3C//DTD SVG 1.1//EN" "http://www.w3.org/Graphics/SVG/1.1/DTD/svg11.dtd">
<svg xmlns="http://www.w3.org/2000/svg" xmlns:xlink="http://www.w3.org/1999/xlink" version="1.1" baseProfile="full" width="24" height="24" viewBox="0 0 24.00 24.00" enable-background="new 0 0 24.00 24.00" xml:space="preserve">
	<path fill="#000000" fill-opacity="1" stroke-width="1.33333" stroke-linejoin="miter" d="M 21.41,11.58L 12.41,2.58C 12.05,2.22 11.55,2 11,2L 4,2C 2.9,2 2,2.9 2,4L 2,11C 2,11.55 2.22,12.05 2.59,12.42L 11.59,21.42C 11.95,21.78 12.45,22 13,22C 13.55,22 14.05,21.78 14.41,21.41L 21.41,14.41C 21.78,14.05 22,13.55 22,13C 22,12.45 21.77,11.94 21.41,11.58 Z M 5.5,7C 4.67,7 4,6.33 4,5.5C 4,4.67 4.67,4 5.5,4C 6.33,4 7,4.67 7,5.5C 7,6.33 6.33,7 5.5,7 Z M 17.27,15.27L 13,19.54L 8.73,15.27C 8.28,14.81 8,14.19 8,13.5C 8,12.12 9.12,11 10.5,11C 11.19,11 11.82,11.28 12.27,11.74L 13,12.46L 13.73,11.73C 14.18,11.28 14.81,11 15.5,11C 16.88,11 18,12.12 18,13.5C 18,14.19 17.72,14.82 17.27,15.27 Z "/>
</svg>
