<?xml version="1.0" encoding="utf-8"?>
<!DOCTYPE svg PUBLIC "-//W3C//DTD SVG 1.1//EN" "http://www.w3.org/Graphics/SVG/1.1/DTD/svg11.dtd">
<svg xmlns="http://www.w3.org/2000/svg" xmlns:xlink="http://www.w3.org/1999/xlink" version="1.1" baseProfile="full" width="24" height="24" viewBox="0 0 24.00 24.00" enable-background="new 0 0 24.00 24.00" xml:space="preserve">
	<path fill="#000000" fill-opacity="1" stroke-width="0.2" stroke-linejoin="round" d="M 14.9997,17.9981C 11.6837,17.9981 8.99968,15.3121 8.99968,11.9981C 8.99968,8.68407 11.6837,5.99807 14.9997,5.99807C 18.3137,5.99807 20.9997,8.68407 20.9997,11.9981C 20.9997,15.3121 18.3137,17.9981 14.9997,17.9981 Z M 3.99968,12.9981C 3.44792,12.9981 2.99968,12.5501 2.99968,11.9981C 2.99968,11.4461 3.44792,10.9981 3.99968,10.9981C 4.55144,10.9981 4.99968,11.4461 4.99968,11.9981C 4.99968,12.5501 4.55144,12.9981 3.99968,12.9981 Z M 21.9997,3.00806L 7.62868,2.99807C 6.96768,2.99807 6.38068,3.31907 6.01628,3.81406L -0.000320435,12.0031L 6.01628,20.1821C 6.38068,20.6771 6.96768,20.9981 7.62868,20.9981L 21.9997,20.9981C 23.1032,20.9981 23.9997,20.1031 23.9997,18.9981L 23.9997,4.99807C 23.9997,3.89307 23.1032,3.00806 21.9997,3.00806 Z M 12.9997,10.9981C 13.5517,10.9981 13.9997,10.5501 13.9997,9.99807C 13.9997,9.44606 13.5517,8.99807 12.9997,8.99807C 12.4477,8.99807 11.9997,9.44606 11.9997,9.99807C 11.9997,10.5501 12.4477,10.9981 12.9997,10.9981 Z M 14.9997,15.9981C 16.8617,15.9981 18.3532,14.7197 18.7997,12.9981L 11.1997,12.9981C 11.6462,14.7197 13.1367,15.9981 14.9997,15.9981 Z M 16.9997,10.9981C 17.5517,10.9981 17.9997,10.5501 17.9997,9.99807C 17.9997,9.44606 17.5517,8.99807 16.9997,8.99807C 16.4477,8.99807 15.9997,9.44606 15.9997,9.99807C 15.9997,10.5501 16.4477,10.9981 16.9997,10.9981 Z "/>
</svg>
