<?xml version="1.0" encoding="utf-8"?>
<!DOCTYPE svg PUBLIC "-//W3C//DTD SVG 1.1//EN" "http://www.w3.org/Graphics/SVG/1.1/DTD/svg11.dtd">
<svg xmlns="http://www.w3.org/2000/svg" xmlns:xlink="http://www.w3.org/1999/xlink" version="1.1" baseProfile="full" width="24" height="24" viewBox="0 0 24.00 24.00" enable-background="new 0 0 24.00 24.00" xml:space="preserve">
	<path fill="#000000" fill-opacity="1" stroke-width="1.33333" stroke-linejoin="miter" d="M 9,5C 12.866,5 16,8.134 16,12L 17,12L 17,15L 16,15L 16,19L 9,19C 5.13401,19 2,15.866 2,12C 2,8.134 5.13401,5 9,5 Z M 9,8C 6.79086,8 5,9.7909 5,12C 5,14.2091 6.79086,16 9,16C 11.2091,16 13,14.2091 13,12C 13,9.7909 11.2091,8 9,8 Z M 17,17L 22,17L 22,19L 22,21L 20,21L 20,19L 17,19L 17,17 Z "/>
</svg>
