<?xml version="1.0" encoding="utf-8"?>
<!DOCTYPE svg PUBLIC "-//W3C//DTD SVG 1.1//EN" "http://www.w3.org/Graphics/SVG/1.1/DTD/svg11.dtd">
<svg xmlns="http://www.w3.org/2000/svg" xmlns:xlink="http://www.w3.org/1999/xlink" version="1.1" baseProfile="full" width="24" height="24" viewBox="0 0 24.00 24.00" enable-background="new 0 0 24.00 24.00" xml:space="preserve">
	<path fill="#000000" fill-opacity="1" stroke-width="1.33333" stroke-linejoin="miter" d="M 22.084,11.042L 20.0764,11.042L 20.0764,4.01527L 13.0496,4.01527L 13.0496,2.00763L 11.042,2.00763L 11.042,4.01527L 4.01528,4.01527L 4.01528,11.042L 2.00765,11.042L 2.00765,13.0496L 4.01528,13.0496L 4.01528,20.0764L 11.042,20.0764L 11.042,22.084L 13.0496,22.084L 13.0496,20.0764L 20.0764,20.0764L 20.0764,13.0496L 22.084,13.0496L 22.084,11.042 Z M 18.0687,18.0687L 13.0496,18.0687L 13.0496,16.0611L 11.042,16.0611L 11.042,18.0687L 6.02292,18.0687L 6.02292,13.0496L 8.03055,13.0496L 8.03055,11.042L 6.02292,11.042L 6.02292,6.02291L 11.042,6.02291L 11.042,8.03054L 13.0496,8.03054L 13.0496,6.02291L 18.0687,6.02291L 18.0687,11.042L 16.0611,11.042L 16.0611,13.0496L 18.0687,13.0496L 18.0687,18.0687 Z M 13.0496,12.0458C 13.0496,12.5999 12.5999,13.0496 12.0458,13.0496C 11.4917,13.0496 11.042,12.5999 11.042,12.0458C 11.042,11.4917 11.4917,11.042 12.0458,11.042C 12.5999,11.042 13.0496,11.4917 13.0496,12.0458 Z "/>
</svg>
