<?xml version="1.0" encoding="utf-8"?>
<!DOCTYPE svg PUBLIC "-//W3C//DTD SVG 1.1//EN" "http://www.w3.org/Graphics/SVG/1.1/DTD/svg11.dtd">
<svg xmlns="http://www.w3.org/2000/svg" xmlns:xlink="http://www.w3.org/1999/xlink" version="1.1" baseProfile="full" width="24" height="24" viewBox="0 0 24.00 24.00" enable-background="new 0 0 24.00 24.00" xml:space="preserve">
	<path fill="#000000" fill-opacity="1" stroke-width="0.2" stroke-linejoin="round" d="M 20.9451,11L 22.5,11L 22.5,13L 20.9451,13C 20.4839,17.1716 17.1716,20.4839 13,20.9451L 13,22.5L 11,22.5L 11,20.9451C 6.82838,20.4839 3.51608,17.1716 3.05493,13L 1.5,13L 1.5,11L 3.05493,11C 3.51608,6.82838 6.82838,3.51608 11,3.05493L 11,1.50002L 13,1.50002L 13,3.05493C 17.1716,3.51608 20.4839,6.82838 20.9451,11 Z M 5.07089,11L 6.49999,11L 6.49999,13L 5.07089,13C 5.5094,16.0657 7.93431,18.4906 11,18.9291L 11,17.5L 13,17.5L 13,18.9291C 16.0657,18.4906 18.4906,16.0657 18.9291,13L 17.5,13L 17.5,11L 18.9291,11C 18.4906,7.93432 16.0657,5.50942 13,5.0709L 13,6.50001L 11,6.50001L 11,5.0709C 7.93431,5.50941 5.5094,7.93432 5.07089,11 Z M 16,16L 8,16L 8,15C 8,13.668 10.667,13 12,13C 13.333,13 16,13.668 16,15L 16,16 Z M 12,8C 13.1035,8 14,8.896 14,10C 14,11.103 13.1035,12 12,12C 10.8965,12 10,11.103 10,10C 10,8.896 10.8965,8 12,8 Z "/>
</svg>
