<?xml version="1.0" encoding="utf-8"?>
<!DOCTYPE svg PUBLIC "-//W3C//DTD SVG 1.1//EN" "http://www.w3.org/Graphics/SVG/1.1/DTD/svg11.dtd">
<svg xmlns="http://www.w3.org/2000/svg" xmlns:xlink="http://www.w3.org/1999/xlink" version="1.1" baseProfile="full" width="24" height="24" viewBox="0 0 24.00 24.00" enable-background="new 0 0 24.00 24.00" xml:space="preserve">
	<path fill="#000000" fill-opacity="1" stroke-width="0.2" stroke-linejoin="round" d="M 4.9994,10.9981L 6.4994,6.49807L 17.4994,6.49807L 18.9994,10.9981M 17.4994,15.9981C 16.6714,15.9981 15.9994,15.3261 15.9994,14.4981C 15.9994,13.6701 16.6714,12.9981 17.4994,12.9981C 18.3284,12.9981 18.9994,13.6701 18.9994,14.4981C 18.9994,15.3261 18.3284,15.9981 17.4994,15.9981 Z M 6.4994,15.9981C 5.6714,15.9981 4.9994,15.3261 4.9994,14.4981C 4.9994,13.6701 5.6714,12.9981 6.4994,12.9981C 7.3284,12.9981 7.9994,13.6701 7.9994,14.4981C 7.9994,15.3261 7.3284,15.9981 6.4994,15.9981 Z M 18.9184,6.00907C 18.7154,5.42006 18.1564,4.99807 17.4994,4.99807L 14.9994,4.99807L 14.9994,2.99807L 8.9994,2.99807L 8.9994,4.99807L 6.4994,4.99807C 5.8424,4.99807 5.2844,5.42006 5.0814,6.00907L 2.9994,11.9981L 2.9994,19.9981C 2.9994,20.5501 3.4474,20.9981 3.9994,20.9981L 4.9994,20.9981C 5.5524,20.9981 5.9994,20.5501 5.9994,19.9981L 5.9994,18.9981L 17.9994,18.9981L 17.9994,19.9981C 17.9994,20.5501 18.4474,20.9981 18.9994,20.9981L 19.9994,20.9981C 20.5524,20.9981 20.9994,20.5501 20.9994,19.9981L 20.9994,11.9981L 18.9184,6.00907 Z "/>
</svg>
