<?xml version="1.0" encoding="utf-8"?>
<!DOCTYPE svg PUBLIC "-//W3C//DTD SVG 1.1//EN" "http://www.w3.org/Graphics/SVG/1.1/DTD/svg11.dtd">
<svg xmlns="http://www.w3.org/2000/svg" xmlns:xlink="http://www.w3.org/1999/xlink" version="1.1" baseProfile="full" width="24" height="24" viewBox="0 0 24.00 24.00" enable-background="new 0 0 24.00 24.00" xml:space="preserve">
	<path fill="#000000" fill-opacity="1" stroke-width="1.33333" stroke-linejoin="miter" d="M 4,19L 20,19L 20,21L 4,21L 4,19 Z M 20,8L 20,5L 18,5L 18,8L 20,8 Z M 20,3C 20.6,3 21,3.2 21.4,3.6C 21.8,4 22,4.5 22,5L 22,8C 22,8.6 21.8,9 21.4,9.4C 21,9.8 20.6,10 20,10L 18,10L 18,13C 18,14.1 17.6,15 16.8,15.8C 16,16.6 15.1,17 14,17L 8,17C 6.9,17 6,16.6 5.2,15.8C 4.4,15 4,14.1 4,13L 4,3L 9,3.00001L 9,5.40001L 7.2,6.8C 7.1,6.90001 7,7.10001 7,7.20001L 7,11.5C 7,11.8 7.2,12 7.5,12L 11.5,12C 11.8,12 12,11.8 12,11.5L 12,7.20001C 12,7.00001 11.9,6.90001 11.8,6.8L 10,5.40001L 10,3.00001L 20,3 Z "/>
</svg>
