<?xml version="1.0" encoding="utf-8"?>
<!DOCTYPE svg PUBLIC "-//W3C//DTD SVG 1.1//EN" "http://www.w3.org/Graphics/SVG/1.1/DTD/svg11.dtd">
<svg xmlns="http://www.w3.org/2000/svg" xmlns:xlink="http://www.w3.org/1999/xlink" version="1.1" baseProfile="full" width="24" height="24" viewBox="0 0 24.00 24.00" enable-background="new 0 0 24.00 24.00" xml:space="preserve">
	<g>
		<path fill="#000000" fill-opacity="1" stroke-width="1.33333" stroke-linejoin="miter" d="M 20,17C 21.1046,17 22,16.1046 22,15L 22,4C 22,2.8954 21.1046,2 20,2L 9.46,2C 9.81251,2.6077 9.99875,3.2975 10,4L 20,4L 20,15L 11,15L 11,17M 15,7L 15,9L 9,9L 9,22L 7,22L 7,16L 5,16L 5,22L 3,22L 3,14L 1.5,14L 1.5,9C 1.5,7.8954 2.39543,7 3.5,7L 15,7 Z M 8,4C 8,5.1046 7.10457,6 6,6C 4.89543,6 4,5.1046 4,4C 4,2.8954 4.89543,2 6,2C 7.10457,2 8,2.8954 8,4 Z "/>
	</g>
</svg>
