<?xml version="1.0" encoding="utf-8"?>
<!DOCTYPE svg PUBLIC "-//W3C//DTD SVG 1.1//EN" "http://www.w3.org/Graphics/SVG/1.1/DTD/svg11.dtd">
<svg xmlns="http://www.w3.org/2000/svg" xmlns:xlink="http://www.w3.org/1999/xlink" version="1.1" baseProfile="full" width="24" height="24" viewBox="0 0 24.00 24.00" enable-background="new 0 0 24.00 24.00" xml:space="preserve">
	<path fill="#000000" fill-opacity="1" stroke-width="1.33333" stroke-linejoin="miter" d="M 12.2018,13.0275C 12.2887,13.1523 12.4099,13.353 12.3501,13.4979C 12.314,13.5859 12.143,13.6338 12.0322,13.6716L 11.6717,13.7941L 11.2303,13.957C 10.9672,14.0976 10.9612,14.3502 10.9914,14.516L 11.0989,14.8369C 11.1493,14.9638 11.2439,15.0982 11.2154,15.246C 11.1782,15.4416 10.8036,15.4567 10.8019,15.7158C 10.8014,15.835 10.8784,15.8923 10.9595,15.9515L 11.1186,16.0715L 10.9957,16.2246L 10.9957,16.2253L 10.7914,16.5223L 10.7774,16.5537L 10.7304,16.7111L 10.7464,16.9304L 10.7728,17.0318L 10.7734,17.0332C 10.8787,17.4375 10.9968,17.9405 10.8127,18.2715C 10.3396,19.1207 8.43679,18.8488 7.43018,18.6496C 7.41944,18.5908 7.49095,18.5657 7.52535,18.5368C 8.17349,17.9943 8.71247,17.2587 9.08421,16.4317C 9.48708,15.5342 9.7713,14.4626 9.7098,13.2115C 9.61918,11.3651 9.04818,10.0231 8.12964,8.95938L 7.37686,8.24408L 7.14395,8.06266L 7.14395,3.65573C 8.24646,4.08443 9.02272,4.86923 9.65667,5.83162C 10.1183,6.53181 10.4997,7.32026 10.8019,8.22352C 10.9511,8.66896 11.1193,9.22286 10.8764,9.64446C 10.7741,9.82169 10.5401,9.94397 10.5052,10.1862C 10.4782,10.3743 10.5854,10.5326 10.6644,10.6767C 11.1289,11.5249 11.6517,12.2402 12.2018,13.0275 Z M 21.5232,9.19704C 21.812,9.9913 22,10.8875 22,11.8964C 22,12.8996 21.8537,13.8127 21.574,14.6472C 20.5281,17.7644 18.1231,19.7437 15.1726,20.9196C 13.6838,21.5131 12.0838,21.8736 9.96864,21.8736C 7.90901,21.8736 6.24552,21.3909 4.63278,20.8588L 4.72395,20.7778C 4.81529,20.7192 5.03947,20.536 5.1501,20.5338L 5.45452,20.6253C 6.88839,21.0601 8.74022,21.3334 10.6179,21.153C 12.5254,20.9698 13.9696,20.4543 15.3858,19.7423C 16.7296,19.0665 17.9244,18.1745 18.8349,17.0018C 19.2913,16.414 19.6494,15.7744 20.0017,15.0735C 20.3481,14.3837 20.5339,13.5235 20.6,12.5866C 20.6733,11.5431 20.582,10.5827 20.3771,9.75493C 20.1722,8.93064 19.8352,8.24992 19.413,7.62361C 18.5698,6.37189 17.5923,5.33162 16.3293,4.52807C 15.0634,3.72271 13.6508,3.09639 11.8963,2.78214C 10.1375,2.46753 8.09935,2.47245 6.46878,2.88386L 6.46878,6.50126L 6.47042,6.50126L 6.47042,8.1029C 7.32783,8.62458 7.90137,9.57424 7.90137,10.6593C 7.90137,12.2232 6.71025,13.5054 5.19487,13.6307L 5.18922,13.6311L 5.06967,13.6386L 4.99598,13.6404L 4.95085,13.6418L 4.93521,13.6415L 4.81384,13.638L 4.794,13.6375L 4.60222,13.622C 3.87491,13.5377 3.31483,13.2086 2.88777,12.8103C 2.45997,12.4109 2.14445,11.8406 2.03582,11.1353L 2.00052,10.6704L 1.99998,10.6593C 1.99998,9.3941 2.78023,8.31361 3.88055,7.88036L 4.61241,4.41634C 4.68938,4.04841 4.75525,3.58569 4.95723,3.33039C 5.36682,2.81344 6.22095,2.66023 6.97628,2.47791C 7.7729,2.28521 8.54643,2.17657 9.4919,2.13272C 10.504,2.08559 11.6028,2.20514 12.4844,2.3458C 15.2354,2.78523 17.2939,3.88756 18.9263,5.43151C 20.0019,6.44868 20.9557,7.63526 21.5232,9.19704 Z M 6.58757,10.8517C 6.58757,9.72174 5.67357,8.80574 4.54631,8.80574C 3.41906,8.80574 2.50542,9.72174 2.50542,10.8517C 2.50542,11.9819 3.41906,12.8979 4.54631,12.8979C 5.67357,12.8979 6.58757,11.9819 6.58757,10.8517 Z M 10.9682,3.60983C 15.524,4.23414 18.9909,7.38972 18.9909,11.1913C 18.9909,14.5976 16.2074,17.4846 12.3514,18.498C 11.9888,18.6334 11.345,18.685 11.3765,18.613L 11.3738,18.6161L 11.5333,18.0425C 11.5817,17.7685 11.6136,17.434 11.5605,17.1413L 11.547,17.0768C 11.5465,17.0734 11.4273,16.8381 11.6296,16.652L 11.6303,16.6514L 11.6309,16.6509L 11.6594,16.6276C 11.7359,16.5606 11.9297,16.357 11.8511,16.0662L 11.8067,15.9842C 11.7149,15.8848 11.7419,15.7922 11.8003,15.7199L 11.9295,15.6088C 12.1278,15.453 12.071,15.2365 12.0055,15.1015L 11.8674,14.9059L 11.8481,14.8835L 11.8467,14.8817C 11.5126,14.4633 11.9977,14.2668 12.3391,14.1851L 12.431,14.1649C 12.677,14.1032 13.3222,13.8876 13.1659,13.3461L 13.0469,13.1301L 12.576,12.4243L 12.5911,12.4248L 11.3188,10.6887L 11.3195,10.6889C 11.184,10.5177 11.2433,10.3766 11.305,10.2968L 11.6238,9.73486C 11.7198,9.44697 11.7155,9.14673 11.6934,8.94252C 12.3361,9.26621 12.8768,9.68595 13.3371,10.2203C 13.7926,10.7483 14.1793,11.4245 14.1793,12.3654C 14.1793,13.32 13.7884,13.9833 13.3371,14.521C 12.9357,14.9997 12.4586,15.3762 11.8798,15.6808L 11.8003,15.7199C 11.7481,15.7847 11.7217,15.8658 11.783,15.9537L 11.9104,15.927C 12.5573,15.7217 13.1641,15.4284 13.6761,15.0958C 14.5636,14.5191 15.3948,13.8171 15.9341,12.8991C 16.1115,12.5976 16.2489,12.225 16.3757,11.8521C 16.6334,11.0946 16.7165,10.167 16.4782,9.29647C 16.2729,8.54533 15.8974,7.89372 15.4828,7.31563C 14.2559,5.60628 12.0761,4.73268 9.41677,4.52379L 9.41677,4.52836C 8.97662,4.04585 8.58567,3.71327 8.35683,3.53341C 8.35683,3.53341 8.29023,3.44606 8.66017,3.44606C 9.02955,3.44606 10.3444,3.50902 10.9307,3.60255L 10.9682,3.60983 Z "/>
</svg>
