<?xml version="1.0" encoding="utf-8"?>
<!DOCTYPE svg PUBLIC "-//W3C//DTD SVG 1.1//EN" "http://www.w3.org/Graphics/SVG/1.1/DTD/svg11.dtd">
<svg xmlns="http://www.w3.org/2000/svg" xmlns:xlink="http://www.w3.org/1999/xlink" version="1.1" baseProfile="full" width="24" height="24" viewBox="0 0 24.00 24.00" enable-background="new 0 0 24.00 24.00" xml:space="preserve">
	<path fill="#000000" fill-opacity="1" stroke-width="0.2" stroke-linejoin="round" d="M 18.9999,3.00004C 20.1039,3.00004 20.9999,3.89604 20.9999,5.00004L 20.9999,19C 20.9999,20.105 20.1039,21 18.9999,21L 4.99996,21C 3.89596,21 2.99996,20.105 2.99996,19L 2.99996,5.00004C 2.99996,3.89604 3.89596,3.00004 4.99996,3.00004L 18.9999,3.00004 Z M 12,5.00001C 8.134,5.00001 5,8.13401 5,12C 5,15.866 8.134,19 12,19C 15.866,19 19,15.866 19,12C 19,8.13401 15.866,5.00001 12,5.00001 Z M 7,12L 10,9.00001L 10,11L 14,11L 14,9L 17,12L 14,15L 14,13L 10,13L 10,15L 7,12 Z "/>
</svg>
