<?xml version="1.0" encoding="utf-8"?>
<!DOCTYPE svg PUBLIC "-//W3C//DTD SVG 1.1//EN" "http://www.w3.org/Graphics/SVG/1.1/DTD/svg11.dtd">
<svg xmlns="http://www.w3.org/2000/svg" xmlns:xlink="http://www.w3.org/1999/xlink" version="1.1" baseProfile="full" width="24" height="24" viewBox="0 0 24.00 24.00" enable-background="new 0 0 24.00 24.00" xml:space="preserve">
	<path fill="#000000" fill-opacity="1" stroke-width="1.33333" stroke-linejoin="round" d="M 21,17L 21,5L 3,5L 3,17L 21,17 Z M 21,3.00001C 22.1,3.00001 23,3.90001 23,5.00001L 22.99,17C 22.99,18.1 22.1,19 21,19L 16,19L 16,21L 8,21L 8,19L 3,19C 1.9,19 1,18.1 1,17L 1,5.00001C 1,3.90001 1.9,3.00001 3,3.00001L 21,3.00001 Z M 5,7.00001L 11,7.00001L 11,11L 5,11L 5,7.00001 Z M 5,13L 11,13L 11,15L 5,15L 5,13 Z M 13,7.00001L 19,7.00001L 19,9.00001L 13,9.00001L 13,7.00001 Z M 13,11L 19,11L 19,15L 13,15L 13,11 Z "/>
</svg>
