<?xml version="1.0" encoding="utf-8"?>
<!DOCTYPE svg PUBLIC "-//W3C//DTD SVG 1.1//EN" "http://www.w3.org/Graphics/SVG/1.1/DTD/svg11.dtd">
<svg xmlns="http://www.w3.org/2000/svg" xmlns:xlink="http://www.w3.org/1999/xlink" version="1.1" baseProfile="full" width="24" height="24" viewBox="0 0 24.00 24.00" enable-background="new 0 0 24.00 24.00" xml:space="preserve">
	<path fill="#000000" fill-opacity="1" stroke-width="1.33333" stroke-linejoin="miter" d="M 21.9,8.9L 20.2,9.9L 16.2,3L 17.9,2L 21.9,8.9 Z M 9.8,7.9L 12.8,13.1L 18.9,9.6L 15.9,4.4L 9.8,7.9 Z M 11.4,12.7L 9.4,9.2L 5.1,11.7L 7.1,15.2L 11.4,12.7 Z M 2.1,14.6L 3.1,16.3L 5.7,14.8L 4.7,13.1L 2.1,14.6 Z M 12.1,14L 11.8,13.6L 7.5,16.1L 7.8,16.5C 8,16.8 8.3,17.1 8.6,17.3L 7,22L 9,22L 10.4,17.7L 10.5,17.7L 12,22L 14,22L 12.1,16.4C 12.6,15.7 12.6,14.8 12.1,14 Z "/>
</svg>
