<?xml version="1.0" encoding="utf-8"?>
<!DOCTYPE svg PUBLIC "-//W3C//DTD SVG 1.1//EN" "http://www.w3.org/Graphics/SVG/1.1/DTD/svg11.dtd">
<svg xmlns="http://www.w3.org/2000/svg" xmlns:xlink="http://www.w3.org/1999/xlink" version="1.1" baseProfile="full" width="24" height="24" viewBox="0 0 24.00 24.00" enable-background="new 0 0 24.00 24.00" xml:space="preserve">
	<path fill="#000000" fill-opacity="1" stroke-linejoin="round" d="M 3,3L 21,3C 22.0987,3 23,3.89067 23,5L 23,17C 23,18.104 22.104,19 21,19L 16,19L 16,21L 8,21L 8,19L 3,19C 1.896,19 0.999999,18.104 0.999999,17L 0.999999,5C 0.999999,3.89067 1.89067,3 3,3 Z M 3,5L 3,17L 21,17L 21,5L 3,5 Z M 9,8L 15,8L 15,14L 9,14L 9,8 Z "/>
</svg>
