<?xml version="1.0" encoding="utf-8"?>
<!DOCTYPE svg PUBLIC "-//W3C//DTD SVG 1.1//EN" "http://www.w3.org/Graphics/SVG/1.1/DTD/svg11.dtd">
<svg xmlns="http://www.w3.org/2000/svg" xmlns:xlink="http://www.w3.org/1999/xlink" version="1.1" baseProfile="full" width="24" height="24" viewBox="0 0 24.00 24.00" enable-background="new 0 0 24.00 24.00" xml:space="preserve">
	<path fill="#000000" fill-opacity="1" stroke-width="1.33333" stroke-linejoin="miter" d="M 8.16406,3L 6.75,4.4141L 9.33594,7L 4,7C 2.89,7 2,7.89 2,9L 2,19C 2,20.11 2.89,21 4,21L 20,21C 21.11,21 22,20.11 22,19L 22,9C 22,7.89 21.11,7 20,7L 14.6641,7L 17.25,4.4141L 15.8359,3L 12,6.8359L 8.16406,3 Z M 4,9L 17,9L 17,19L 4,19L 4,9 Z M 19.5,9C 20.0523,9 20.5,9.4477 20.5,10C 20.5,10.5523 20.0523,11 19.5,11C 18.9477,11 18.5,10.5523 18.5,10C 18.5,9.4477 18.9477,9 19.5,9 Z M 19.5,12C 20.0523,12 20.5,12.4477 20.5,13C 20.5,13.5523 20.0523,14 19.5,14C 18.9477,14 18.5,13.5523 18.5,13C 18.5,12.4477 18.9477,12 19.5,12 Z "/>
</svg>
