<?xml version="1.0" encoding="utf-8"?>
<!DOCTYPE svg PUBLIC "-//W3C//DTD SVG 1.1//EN" "http://www.w3.org/Graphics/SVG/1.1/DTD/svg11.dtd">
<svg xmlns="http://www.w3.org/2000/svg" xmlns:xlink="http://www.w3.org/1999/xlink" version="1.1" baseProfile="full" width="24" height="24" viewBox="0 0 24.00 24.00" enable-background="new 0 0 24.00 24.00" xml:space="preserve">
	<path fill="#000000" fill-opacity="1" stroke-width="0.2" stroke-linejoin="miter" d="M 2,5.26848L 3.27711,4L 21,21.7229L 19.7315,23L 17.7315,21L 4,21C 2.89,21 2,20.11 2,19L 2,9C 2,7.9757 2.75787,7.13875 3.74713,7.01561L 2,5.26848 Z M 8.16406,3L 12,6.8359L 15.8359,3L 17.25,4.4141L 14.6641,7L 20,7C 21.11,7 22,7.89 22,9L 22,19C 22,19.3419 21.9156,19.663 21.7662,19.9435L 17,15.1773L 17,9L 10.8227,9L 8.82269,7L 9.33594,7L 6.75,4.4141L 8.16406,3 Z M 4,9L 4,19L 15.7315,19L 5.73152,9L 4,9 Z M 19.5,9C 18.9477,9 18.5,9.4477 18.5,10C 18.5,10.5523 18.9477,11 19.5,11C 20.0523,11 20.5,10.5523 20.5,10C 20.5,9.4477 20.0523,9 19.5,9 Z M 19.5,12C 18.9477,12 18.5,12.4477 18.5,13C 18.5,13.5523 18.9477,14 19.5,14C 20.0523,14 20.5,13.5523 20.5,13C 20.5,12.4477 20.0523,12 19.5,12 Z "/>
</svg>
