<?xml version="1.0" encoding="utf-8"?>
<!DOCTYPE svg PUBLIC "-//W3C//DTD SVG 1.1//EN" "http://www.w3.org/Graphics/SVG/1.1/DTD/svg11.dtd">
<svg xmlns="http://www.w3.org/2000/svg" xmlns:xlink="http://www.w3.org/1999/xlink" version="1.1" baseProfile="full" width="24" height="24" viewBox="0 0 24.00 24.00" enable-background="new 0 0 24.00 24.00" xml:space="preserve">
	<path fill="#000000" fill-opacity="1" stroke-width="1.33333" stroke-linejoin="miter" d="M 18,15C 20.2091,15 22,16.7909 22,19C 22,21.2091 20.2091,23 18,23C 15.7909,23 14,21.2091 14,19C 14,16.7909 15.7909,15 18,15 Z M 18,17C 16.8954,17 16,17.8954 16,19C 16,20.1046 16.8954,21 18,21C 19.1046,21 20,20.1046 20,19C 20,17.8954 19.1046,17 18,17 Z M 6.05025,14.5355C 6.05025,14.5355 7.46446,13.1213 7.46775,10.2962C 7.11418,8.10987 7.97465,5.54006 9.93932,3.57539C 12.8683,0.646456 17.1421,0.171585 19.4853,2.51473C 21.8284,4.85787 21.3535,9.13174 18.4246,12.0607C 16.4599,14.0253 13.8901,14.8858 11.7038,14.5322C 8.87867,14.5355 7.46446,15.9498 7.46446,15.9498L 3.22182,20.1924L 1.8076,18.7782L 6.05025,14.5355 Z M 18.0711,3.92894C 16.509,2.36685 13.5014,2.84172 11.3535,4.9896C 9.20566,7.13749 8.73079,10.145 10.2929,11.7071C 11.855,13.2692 14.8625,12.7943 17.0104,10.6465C 19.1583,8.49857 19.6332,5.49104 18.0711,3.92894 Z "/>
</svg>
