<?xml version="1.0" encoding="utf-8"?>
<!DOCTYPE svg PUBLIC "-//W3C//DTD SVG 1.1//EN" "http://www.w3.org/Graphics/SVG/1.1/DTD/svg11.dtd">
<svg xmlns="http://www.w3.org/2000/svg" xmlns:xlink="http://www.w3.org/1999/xlink" version="1.1" baseProfile="full" width="24" height="24" viewBox="0 0 24.00 24.00" enable-background="new 0 0 24.00 24.00" xml:space="preserve">
	<path fill="#000000" fill-opacity="1" stroke-linejoin="round" d="M 12,2C 14.4815,2 16.752,2.9039 18.5,4.40042C 16.3577,6.2345 15,8.9587 15,12C 15,15.0413 16.3577,17.7655 18.5,19.5996C 16.752,21.0961 14.4815,22 12,22C 9.51845,22 7.24803,21.0961 5.5,19.5996C 7.64233,17.7655 9,15.0413 9,12C 9,8.9587 7.64233,6.23449 5.5,4.40041C 7.24803,2.9039 9.51845,2 12,2 Z M 22,12C 22,14.3196 21.2102,16.4548 19.8848,18.1513C 18.1221,16.6838 17,14.4729 17,12C 17,9.52706 18.1221,7.31618 19.8848,5.84872C 21.2102,7.54518 22,9.68036 22,12 Z M 2,12C 2,9.68036 2.7898,7.54518 4.11516,5.84872C 5.87794,7.31618 7,9.52706 7,12C 7,14.4729 5.87794,16.6838 4.11516,18.1513C 2.7898,16.4548 2,14.3196 2,12 Z "/>
</svg>
