<?xml version="1.0" encoding="utf-8"?>
<!DOCTYPE svg PUBLIC "-//W3C//DTD SVG 1.1//EN" "http://www.w3.org/Graphics/SVG/1.1/DTD/svg11.dtd">
<svg xmlns="http://www.w3.org/2000/svg" xmlns:xlink="http://www.w3.org/1999/xlink" version="1.1" baseProfile="full" width="24" height="24" viewBox="0 0 24.00 24.00" enable-background="new 0 0 24.00 24.00" xml:space="preserve">
	<path fill="#000000" fill-opacity="1" stroke-linejoin="round" d="M 9.29,21L 12.12,21L 21,12.12L 21,9.29M 19,21C 19.55,21 20.05,20.78 20.41,20.41C 20.78,20.05 21,19.55 21,19L 21,17L 17,21M 5,3C 3.9,3 3,3.9 3,5L 3,7L 7,3M 11.88,3L 3,11.88L 3,14.71L 14.71,3M 19.51,3.08L 3.08,19.51C 3.17,19.85 3.35,20.16 3.59,20.41C 3.84,20.65 4.15,20.83 4.49,20.92L 20.93,4.49C 20.74,3.8 20.2,3.26 19.51,3.08 Z "/>
</svg>
