<?xml version="1.0" encoding="utf-8"?>
<!DOCTYPE svg PUBLIC "-//W3C//DTD SVG 1.1//EN" "http://www.w3.org/Graphics/SVG/1.1/DTD/svg11.dtd">
<svg xmlns="http://www.w3.org/2000/svg" xmlns:xlink="http://www.w3.org/1999/xlink" version="1.1" baseProfile="full" width="24" height="24" viewBox="0 0 24.00 24.00" enable-background="new 0 0 24.00 24.00" xml:space="preserve">
	<path fill="#000000" fill-opacity="1" stroke-width="0.2" stroke-linejoin="round" d="M 8.00001,7C 9.10458,7 10,7.89543 10,9L 10,14C 10,15.1046 9.10458,16 8.00001,16C 6.89544,16 6.00001,15.1046 6.00001,14L 6.00001,9C 6.00001,7.89543 6.89544,7 8.00001,7 Z M 14,14C 14,16.973 11.8377,19.441 9,19.917L 9,22L 7,22L 7,19.917C 4.16229,19.441 2.00001,16.973 2.00001,14L 4.00001,14C 4.00001,16.2091 5.79087,18 8,18C 10.2091,18 12,16.2091 12,14L 14,14 Z M 21.4142,9.41422L 17.1716,13.6569L 18.176,10L 14,10C 12.8954,10 12,9.10457 12,8L 12,4.00002C 12,2.89545 12.8954,2.00002 14,2.00002L 20,2.00002C 21.1046,2.00002 22,2.89545 22,4.00002L 22,8C 22,8.55228 21.7761,9.05229 21.4142,9.41422 Z "/>
</svg>
