<?xml version="1.0" encoding="utf-8"?>
<!DOCTYPE svg PUBLIC "-//W3C//DTD SVG 1.1//EN" "http://www.w3.org/Graphics/SVG/1.1/DTD/svg11.dtd">
<svg xmlns="http://www.w3.org/2000/svg" xmlns:xlink="http://www.w3.org/1999/xlink" version="1.1" baseProfile="full" width="24" height="24" viewBox="0 0 24.00 24.00" enable-background="new 0 0 24.00 24.00" xml:space="preserve">
	<path fill="#000000" fill-opacity="1" stroke-linejoin="round" d="M 3,3L 16,3L 16,6L 11,6L 11,18L 8,18L 8,6L 3,6L 3,3 Z M 12,7.00001L 14,7.00001L 14,9.00001L 12,9.00001L 12,7.00001 Z M 15,7.00001L 17,7.00001L 17,9.00001L 15,9.00001L 15,7.00001 Z M 18,7.00001L 20,7.00001L 20,9.00001L 18,9.00001L 18,7.00001 Z M 12,10L 14,10L 14,12L 12,12L 12,10 Z M 12,13L 14,13L 14,15L 12,15L 12,13 Z M 12,16L 14,16L 14,18L 12,18L 12,16 Z M 12,19L 14,19L 14,21L 12,21L 12,19 Z "/>
</svg>
