<?xml version="1.0" encoding="utf-8"?>
<!DOCTYPE svg PUBLIC "-//W3C//DTD SVG 1.1//EN" "http://www.w3.org/Graphics/SVG/1.1/DTD/svg11.dtd">
<svg xmlns="http://www.w3.org/2000/svg" xmlns:xlink="http://www.w3.org/1999/xlink" version="1.1" baseProfile="full" width="24" height="24" viewBox="0 0 24.00 24.00" enable-background="new 0 0 24.00 24.00" xml:space="preserve">
	<path fill="#000000" fill-opacity="1" stroke-width="1.33333" stroke-linejoin="miter" d="M 17,7L 22,7L 22,17L 17,17L 17,19C 17,19.5523 17.4477,20 18,20L 20,20L 20,22L 17.5,22C 16.95,22 16,21.55 16,21C 16,21.55 15.05,22 14.5,22L 12,22L 12,20L 14,20C 14.5523,20 15,19.5523 15,19L 15,5C 15,4.4477 14.5523,4 14,4L 12,4L 12,2L 14.5,2C 15.05,2 16,2.45 16,3C 16,2.45 16.95,2 17.5,2L 20,2L 20,4L 18,4C 17.4477,4 17,4.4477 17,5L 17,7 Z M 2,7L 13,7L 13,9L 4,9L 4,15L 13,15L 13,17L 2,17L 2,7 Z M 20,15L 20,9L 17,9L 17,15L 20,15 Z M 8.5,12C 8.5,11.1716 7.82843,10.5 7,10.5C 6.17157,10.5 5.5,11.1716 5.5,12C 5.5,12.8284 6.17157,13.5 7,13.5C 7.82843,13.5 8.5,12.8284 8.5,12 Z M 13,10.89C 12.387,10.3328 11.4383,10.3781 10.8811,10.9911C 10.3239,11.6041 10.3691,12.5528 10.9822,13.11C 11.5543,13.63 12.4279,13.63 13,13.11L 13,10.89 Z "/>
</svg>
