<?xml version="1.0" encoding="utf-8"?>
<!DOCTYPE svg PUBLIC "-//W3C//DTD SVG 1.1//EN" "http://www.w3.org/Graphics/SVG/1.1/DTD/svg11.dtd">
<svg xmlns="http://www.w3.org/2000/svg" xmlns:xlink="http://www.w3.org/1999/xlink" version="1.1" baseProfile="full" width="24" height="24" viewBox="0 0 24.00 24.00" enable-background="new 0 0 24.00 24.00" xml:space="preserve">
	<path fill="#000000" fill-opacity="1" stroke-linejoin="round" d="M 17,7.00001L 22,7.00001L 22,17L 17,17L 17,19C 17,19.5523 17.4477,20 18,20L 20,20L 20,22L 17.5,22C 16.9477,22 16,21.5523 16,21C 16,21.5523 15.0523,22 14.5,22L 12,22L 12,20L 14,20C 14.5523,20 15,19.5523 15,19L 15,5C 15,4.44772 14.5523,4 14,4L 12,4.00001L 12,2.00001L 14.5,2.00001C 15.0523,2.00001 16,2.44772 16,3.00001C 16,2.44772 16.9477,2.00001 17.5,2.00001L 20,2.00001L 20,4.00001L 18,4C 17.4477,4 17,4.44772 17,5L 17,7.00001 Z M 2,7.00001L 13,7.00001L 13,9.00001L 4,9.00001L 4,15L 13,15L 13,17L 2,17L 2,7.00001 Z M 20,15L 20,9.00001L 17,9.00001L 17,15L 20,15 Z "/>
</svg>
