<?xml version="1.0" encoding="utf-8"?>
<!DOCTYPE svg PUBLIC "-//W3C//DTD SVG 1.1//EN" "http://www.w3.org/Graphics/SVG/1.1/DTD/svg11.dtd">
<svg xmlns="http://www.w3.org/2000/svg" xmlns:xlink="http://www.w3.org/1999/xlink" version="1.1" baseProfile="full" width="24" height="24" viewBox="0 0 24.00 24.00" enable-background="new 0 0 24.00 24.00" xml:space="preserve">
	<path fill="#000000" fill-opacity="1" stroke-linejoin="round" d="M 7.5,2.00001C 5.71094,3.15144 4.5,5.18431 4.5,7.5C 4.5,9.8157 5.71095,11.8486 7.53415,12.9999C 4.46243,13 2,10.5376 2,7.5C 2,4.46243 4.46243,2.00001 7.5,2.00001 Z M 19.0711,3.51472L 20.4853,4.92893L 4.92893,20.4853L 3.51471,19.0711L 19.0711,3.51472 Z M 12.8894,5.9344L 11.4059,5.00146L 9.96582,6.00001L 10.3947,4.30087L 9,3.23983L 10.7485,3.12264L 11.3266,1.46834L 11.9784,3.09504L 13.7304,3.13367L 12.3847,4.25622L 12.8894,5.9344 Z M 9.58647,9.53659L 8.43268,8.81097L 7.3126,9.58762L 7.64616,8.26607L 6.56141,7.44081L 7.92135,7.34966L 8.37101,6.06298L 8.87794,7.3282L 10.2406,7.35825L 9.19396,8.23134L 9.58647,9.53659 Z M 19,13.5C 19,16.5376 16.5376,19 13.5,19C 12.2782,19 11.1494,18.6016 10.2366,17.9276L 17.9276,10.2366C 18.6016,11.1495 19,12.2782 19,13.5 Z M 14.6009,20.0824L 17.3726,18.9343L 17.1348,22.28L 14.6009,20.0824 Z M 18.9305,17.3849L 20.0786,14.6132L 22.2762,17.1471L 18.9305,17.3849 Z M 20.0845,12.416L 18.9365,9.64433L 22.2822,9.8821L 20.0845,12.416 Z M 9.62856,18.9285L 12.4002,20.0766L 9.86632,22.2742L 9.62856,18.9285 Z "/>
</svg>
