<?xml version="1.0" encoding="utf-8"?>
<!DOCTYPE svg PUBLIC "-//W3C//DTD SVG 1.1//EN" "http://www.w3.org/Graphics/SVG/1.1/DTD/svg11.dtd">
<svg xmlns="http://www.w3.org/2000/svg" xmlns:xlink="http://www.w3.org/1999/xlink" version="1.1" baseProfile="full" width="24" height="24" viewBox="0 0 24.00 24.00" enable-background="new 0 0 24.00 24.00" xml:space="preserve">
	<path fill="#000000" fill-opacity="1" stroke-width="1.33333" stroke-linejoin="miter" d="M 15,17C 15,19.7614 12.7614,22 10,22C 7.23858,22 5,19.7614 5,17C 5,15.4262 5.74097,13.9443 7,13L 7,5C 7,3.3431 8.34315,2 10,2C 11.6569,2 13,3.3431 13,5L 13,13C 14.259,13.9443 15,15.4262 15,17M 9,8L 9,14.17C 7.4379,14.7223 6.61929,16.4363 7.17157,17.9984C 7.72386,19.5605 9.4379,20.3791 11,19.8268C 12.5621,19.2746 13.3807,17.5605 12.8284,15.9984C 12.5264,15.1441 11.8543,14.472 11,14.17L 11,8L 9,8 Z M 17,12L 17,7L 19,7L 19,12L 17,12M 17,16L 17,14L 19,14L 19,16L 17,16 Z "/>
</svg>
