<?xml version="1.0" encoding="utf-8"?>
<!DOCTYPE svg PUBLIC "-//W3C//DTD SVG 1.1//EN" "http://www.w3.org/Graphics/SVG/1.1/DTD/svg11.dtd">
<svg xmlns="http://www.w3.org/2000/svg" xmlns:xlink="http://www.w3.org/1999/xlink" version="1.1" baseProfile="full" width="24" height="24" viewBox="0 0 24.00 24.00" enable-background="new 0 0 24.00 24.00" xml:space="preserve">
	<path fill="#000000" fill-opacity="1" stroke-width="0.2" stroke-linejoin="round" d="M 17,17C 17,19.7614 14.7614,22 12,22C 9.23857,22 7,19.7614 7,17C 7,15.3642 7.78555,13.9118 9,12.9996L 9,5.00001C 9,3.34315 10.3431,2.00002 12,2.00002C 13.6568,2.00002 15,3.34315 15,5.00001L 15,12.9996C 16.2144,13.9118 17,15.3642 17,17 Z M 11,8.00006L 11,14.1707C 9.8348,14.5825 9,15.6938 9,17C 9,18.6569 10.3431,20 12,20C 13.6568,20 15,18.6569 15,17C 15,15.6938 14.1652,14.5825 13,14.1707L 12.9999,8.00006L 11,8.00006 Z "/>
</svg>
