<?xml version="1.0" encoding="utf-8"?>
<!DOCTYPE svg PUBLIC "-//W3C//DTD SVG 1.1//EN" "http://www.w3.org/Graphics/SVG/1.1/DTD/svg11.dtd">
<svg xmlns="http://www.w3.org/2000/svg" xmlns:xlink="http://www.w3.org/1999/xlink" version="1.1" baseProfile="full" width="24" height="24" viewBox="0 0 24.00 24.00" enable-background="new 0 0 24.00 24.00" xml:space="preserve">
	<path fill="#000000" fill-opacity="1" stroke-width="0.2" stroke-linejoin="round" d="M 17,3.00001L 21,3.00003L 21,5.00003L 17,5.00001L 17,3.00001 Z M 17,7.00002L 21,7.00004L 21,9.00004L 17,9.00002L 17,7.00002 Z M 17,11L 21,11L 21,13L 17.7453,13L 17,12.101L 17,11 Z M 21,15L 21,17L 19,17C 19,16.305 18.8987,15.6337 18.7101,15L 21,15 Z M 17,17C 17,19.7614 14.7614,22 12,22C 9.23857,22 7,19.7614 7,17C 7,15.3642 7.78555,13.9118 9,12.9996L 9,5.00001C 9,3.34315 10.3431,2.00002 12,2.00002C 13.6568,2.00002 15,3.34315 15,5.00001L 15,12.9996C 16.2144,13.9118 17,15.3642 17,17 Z M 11,8.00006L 11,14.1707C 9.8348,14.5825 9,15.6938 9,17C 9,18.6569 10.3431,20 12,20C 13.6568,20 15,18.6569 15,17C 15,15.6938 14.1652,14.5825 13,14.1707L 12.9999,8.00006L 11,8.00006 Z M 6.99999,3.00001L 6.99999,5.00001L 3.00002,5.00003L 3.00002,3.00003L 6.99999,3.00001 Z M 7,7.00001L 7,9.00001L 3.00002,9.00003L 3.00002,7.00003L 7,7.00001 Z M 7,11L 7,12.101L 6.25468,13L 3.00002,13L 3.00002,11L 7,11 Z M 3.00001,15L 5.28988,15C 5.10128,15.6337 5,16.305 5,17L 3.00001,17L 3.00001,15 Z "/>
</svg>
