<?xml version="1.0" encoding="utf-8"?>
<!DOCTYPE svg PUBLIC "-//W3C//DTD SVG 1.1//EN" "http://www.w3.org/Graphics/SVG/1.1/DTD/svg11.dtd">
<svg xmlns="http://www.w3.org/2000/svg" xmlns:xlink="http://www.w3.org/1999/xlink" version="1.1" baseProfile="full" width="24" height="24" viewBox="0 0 24.00 24.00" enable-background="new 0 0 24.00 24.00" xml:space="preserve">
	<path fill="#000000" fill-opacity="1" stroke-width="1.33333" stroke-linejoin="miter" d="M 13,17C 13,19.7614 10.7614,22 8,22C 5.23858,22 3,19.7614 3,17C 3,15.4262 3.74097,13.9443 5,13L 5,5C 5,3.3431 6.34315,2 8,2C 9.65685,2 11,3.3431 11,5L 11,13C 12.259,13.9443 13,15.4262 13,17M 7,8L 7,14.17C 5.4379,14.7223 4.61929,16.4363 5.17157,17.9984C 5.72386,19.5605 7.4379,20.3791 9,19.8268C 10.5621,19.2746 11.3807,17.5605 10.8284,15.9984C 10.5264,15.1441 9.85434,14.472 9,14.17L 9,8L 7,8 Z M 22,11L 14,11L 14,13L 22,13L 22,11 Z "/>
</svg>
