<?xml version="1.0" encoding="utf-8"?>
<!DOCTYPE svg PUBLIC "-//W3C//DTD SVG 1.1//EN" "http://www.w3.org/Graphics/SVG/1.1/DTD/svg11.dtd">
<svg xmlns="http://www.w3.org/2000/svg" xmlns:xlink="http://www.w3.org/1999/xlink" version="1.1" baseProfile="full" width="24" height="24" viewBox="0 0 24.00 24.00" enable-background="new 0 0 24.00 24.00" xml:space="preserve">
	<path fill="#000000" fill-opacity="1" stroke-linejoin="round" d="M 3.5,19C 4.32843,19 5,19.6716 5,20.5C 5,21.3284 4.32843,22 3.5,22C 2.67157,22 2,21.3284 2,20.5C 2,19.6716 2.67157,19 3.5,19 Z M 8.49999,16C 9.8807,16 11,17.1193 11,18.5C 11,19.8807 9.8807,21 8.49999,21C 7.11927,21 5.99999,19.8807 5.99999,18.5C 5.99999,17.1193 7.11928,16 8.49999,16 Z M 14.5,15C 13.3053,15 12.2329,14.4763 11.5,13.6458C 10.767,14.4763 9.69468,15 8.49999,15C 6.54223,15 4.91297,13.5935 4.56754,11.7359C 3.06594,11.1598 2,9.70438 2,8.00002C 2,5.79088 3.79085,4.00002 5.99999,4.00002L 6.77211,4.07448C 7.48667,3.40791 8.4457,3.00002 9.49999,3.00002C 10.6947,3.00002 11.767,3.52378 12.5,4.3542C 13.2329,3.52378 14.3053,3.00002 15.5,3.00002C 17.4577,3.00002 19.087,4.4065 19.4324,6.26415C 20.934,6.84027 22,8.29566 22,10C 22,12.2092 20.2091,14 18,14L 17.2279,13.9256C 16.5133,14.5921 15.5543,15 14.5,15 Z M 5.99999,6.00002C 4.89543,6.00002 4,6.89545 4,8.00002C 4,9.10459 4.89543,10 5.99999,10C 6.33033,10 6.64196,9.91993 6.91653,9.77811C 6.65538,10.116 6.49999,10.5399 6.49999,11C 6.49999,12.1046 7.39542,13 8.49999,13C 9.10249,13 9.64274,12.7336 10.0094,12.3121L 10.0105,12.3109L 11.4736,10.6278L 13.0128,12.3373L 13.0137,12.3383C 13.3798,12.7446 13.91,13 14.5,13C 15.5034,13 16.3343,12.261 16.478,11.2976C 16.8448,11.7275 17.3906,12 18,12C 19.1046,12 20,11.1046 20,10C 20,8.89544 19.1046,8.00001 18,8.00001C 17.6696,8.00001 17.358,8.0801 17.0834,8.22192C 17.3446,7.88398 17.5,7.46014 17.5,7.00001C 17.5,5.89544 16.6046,5.00001 15.5,5.00001C 14.91,5.00001 14.3798,5.25545 14.0128,5.66271L 12.4736,7.37222L 11.0105,5.68917L 11.0094,5.68789C 10.6427,5.26644 10.1025,5.00002 9.49999,5.00002C 8.49654,5.00002 7.66569,5.739 7.52198,6.70244C 7.15514,6.27258 6.6094,6.00002 5.99999,6.00002 Z M 8.5,17.5C 7.94771,17.5 7.5,17.9477 7.5,18.5C 7.5,19.0523 7.94771,19.5 8.5,19.5C 9.05228,19.5 9.5,19.0523 9.5,18.5C 9.5,17.9477 9.05228,17.5 8.5,17.5 Z "/>
</svg>
