<?xml version="1.0" encoding="utf-8"?>
<!DOCTYPE svg PUBLIC "-//W3C//DTD SVG 1.1//EN" "http://www.w3.org/Graphics/SVG/1.1/DTD/svg11.dtd">
<svg xmlns="http://www.w3.org/2000/svg" xmlns:xlink="http://www.w3.org/1999/xlink" version="1.1" baseProfile="full" width="24" height="24" viewBox="0 0 24.00 24.00" enable-background="new 0 0 24.00 24.00" xml:space="preserve">
	<path fill="#84BC00" fill-opacity="1" stroke-linejoin="round" d="M 3.5,19C 4.32843,19 5,19.6716 5,20.5C 5,21.3284 4.32843,22 3.5,22C 2.67157,22 2,21.3284 2,20.5C 2,19.6716 2.67157,19 3.5,19 Z M 8.5,16C 9.88071,16 11,17.1193 11,18.5C 11,19.8807 9.88071,21 8.5,21C 7.11928,21 6,19.8807 6,18.5C 6,17.1193 7.11928,16 8.5,16 Z M 14.5,15C 13.3053,15 12.2329,14.4762 11.5,13.6458C 10.767,14.4762 9.69469,15 8.5,15C 6.54223,15 4.91298,13.5935 4.56754,11.7359C 3.06595,11.1597 2,9.70436 2,8C 2,5.79086 3.79086,4 6,4C 6.26413,4 6.52229,4.0256 6.77212,4.07446C 7.48668,3.40789 8.44571,3 9.5,3C 10.6947,3 11.7671,3.52376 12.5,4.35418C 13.2329,3.52376 14.3053,3.00001 15.5,3.00001C 17.4578,3.00001 19.087,4.40649 19.4325,6.26414C 20.934,6.84025 22,8.29564 22,10C 22,12.2091 20.2091,14 18,14L 17.2279,13.9255C 16.5133,14.5921 15.5543,15 14.5,15 Z "/>
</svg>
