<?xml version="1.0" encoding="utf-8"?>
<!DOCTYPE svg PUBLIC "-//W3C//DTD SVG 1.1//EN" "http://www.w3.org/Graphics/SVG/1.1/DTD/svg11.dtd">
<svg xmlns="http://www.w3.org/2000/svg" xmlns:xlink="http://www.w3.org/1999/xlink" version="1.1" baseProfile="full" width="24" height="24" viewBox="0 0 24.00 24.00" enable-background="new 0 0 24.00 24.00" xml:space="preserve">
	<path fill="#000000" fill-opacity="1" stroke-linejoin="round" d="M 22.5,10.5L 15.75,10.5C 15.13,10.5 14.6,10.88 14.37,11.41L 12.11,16.7C 12.04,16.87 12,17.06 12,17.25L 12,18.5C 12,19.05 12.45,19.5 13,19.5L 18.18,19.5L 17.52,22.68L 17.5,22.92C 17.5,23.23 17.63,23.51 17.83,23.72L 18.62,24.5L 23.56,19.56C 23.83,19.29 24,18.91 24,18.5L 24,12C 24,11.17 23.33,10.5 22.5,10.5 Z M 12,6.5C 12,5.95 11.55,5.5 11,5.5L 5.82,5.5L 6.48,2.32L 6.5,2.09C 6.5,1.78 6.37,1.5 6.17,1.29L 5.38,0.500002L 0.44,5.44C 0.17,5.71 0,6.09 0,6.5L 0,13C 0,13.83 0.67,14.5 1.5,14.5L 8.25,14.5C 8.87,14.5 9.4,14.12 9.63,13.59L 11.89,8.3C 11.96,8.13 12,7.94 12,7.75L 12,6.5 Z "/>
</svg>
