<?xml version="1.0" encoding="utf-8"?>
<!DOCTYPE svg PUBLIC "-//W3C//DTD SVG 1.1//EN" "http://www.w3.org/Graphics/SVG/1.1/DTD/svg11.dtd">
<svg xmlns="http://www.w3.org/2000/svg" xmlns:xlink="http://www.w3.org/1999/xlink" version="1.1" baseProfile="full" width="24" height="24" viewBox="0 0 24.00 24.00" enable-background="new 0 0 24.00 24.00" xml:space="preserve">
	<path fill="#000000" fill-opacity="1" stroke-width="0.2" stroke-linejoin="round" d="M 22.9994,9.99805C 22.9994,8.89307 22.1044,7.99805 20.9994,7.99805L 14.6844,7.99805L 15.6384,3.42908C 15.6594,3.32703 15.6714,3.22205 15.6714,3.11304C 15.6714,2.69904 15.5034,2.32404 15.2314,2.05304L 14.1714,0.998047L 7.58539,7.58405C 7.22339,7.94604 6.99939,8.44604 6.99939,8.99805L 6.99939,18.998C 6.99939,20.1021 7.89539,20.998 8.99939,20.998L 17.9994,20.998C 18.8274,20.998 19.5374,20.4951 19.8414,19.7781L 22.8584,12.725C 22.9464,12.5001 22.9994,12.2551 22.9994,11.998L 22.9994,10.0831L 22.9994,9.99805 Z M 0.99939,20.998L 4.99939,20.998L 4.99939,8.99805L 0.99939,8.99805L 0.99939,20.998 Z "/>
</svg>
