<?xml version="1.0" encoding="utf-8"?>
<!DOCTYPE svg PUBLIC "-//W3C//DTD SVG 1.1//EN" "http://www.w3.org/Graphics/SVG/1.1/DTD/svg11.dtd">
<svg xmlns="http://www.w3.org/2000/svg" xmlns:xlink="http://www.w3.org/1999/xlink" version="1.1" baseProfile="full" width="24" height="24" viewBox="0 0 24.00 24.00" enable-background="new 0 0 24.00 24.00" xml:space="preserve">
	<path fill="#000000" fill-opacity="1" stroke-width="0.2" stroke-linejoin="round" d="M 5,9L 5,21L 1,21L 1,9L 5,9 Z M 9,21C 7.896,21 7.00001,20.104 7.00001,19L 7.00001,9C 7.00001,8.448 7.224,7.948 7.58602,7.58602L 14.172,1.00001L 15.232,2.05502C 15.504,2.32601 15.672,2.70101 15.672,3.11499L 15.639,3.43099L 14.685,8L 21,8C 22.105,8 23,8.89502 23,10L 23,10.085L 23,12C 23,12.257 22.947,12.502 22.859,12.727L 19.842,19.78C 19.538,20.497 18.828,21 18,21L 9,21 Z M 8.99939,18.998L 18.0256,18.998L 20.9994,11.9923L 20.9994,9.99805L 12.2145,9.99805L 13.3446,4.68131L 8.99939,9.02648L 8.99939,18.998 Z "/>
</svg>
