<?xml version="1.0" encoding="utf-8"?>
<!DOCTYPE svg PUBLIC "-//W3C//DTD SVG 1.1//EN" "http://www.w3.org/Graphics/SVG/1.1/DTD/svg11.dtd">
<svg xmlns="http://www.w3.org/2000/svg" xmlns:xlink="http://www.w3.org/1999/xlink" version="1.1" baseProfile="full" width="24" height="24" viewBox="0 0 24.00 24.00" enable-background="new 0 0 24.00 24.00" xml:space="preserve">
	<path fill="#000000" fill-opacity="1" stroke-width="0.2" stroke-linejoin="round" d="M 18.9994,14.998L 18.9994,2.99805L 22.9994,2.99805L 22.9994,14.998L 18.9994,14.998 Z M 14.9994,2.99805C 16.1034,2.99805 16.9994,3.89405 16.9994,4.99805L 16.9994,14.998C 16.9994,15.5501 16.7754,16.0501 16.4134,16.412L 9.82739,22.998L 8.76737,21.943C 8.49536,21.672 8.32739,21.297 8.32739,20.8831L 8.36039,20.5671L 9.31441,15.998L 2.99939,15.998C 1.89437,15.998 0.999389,15.103 0.999389,13.998L 0.999389,11.9981C 0.999389,11.7411 1.05241,11.496 1.14038,11.2711L 4.15739,4.21802C 4.46138,3.50106 5.17139,2.99805 5.99939,2.99805L 14.9994,2.99805 Z M 15,5L 5.97377,5L 3,12.0058L 3,14L 11.7849,14L 10.6548,19.3167L 15,14.9716L 15,5 Z "/>
</svg>
