<?xml version="1.0" encoding="utf-8"?>
<!DOCTYPE svg PUBLIC "-//W3C//DTD SVG 1.1//EN" "http://www.w3.org/Graphics/SVG/1.1/DTD/svg11.dtd">
<svg xmlns="http://www.w3.org/2000/svg" xmlns:xlink="http://www.w3.org/1999/xlink" version="1.1" baseProfile="full" width="24" height="24" viewBox="0 0 24.00 24.00" enable-background="new 0 0 24.00 24.00" xml:space="preserve">
	<path fill="#000000" fill-opacity="1" stroke-width="0.2" stroke-linejoin="round" d="M 22.5,10L 15.75,10C 15.13,10 14.6,10.38 14.37,10.91L 12.11,16.2C 12.04,16.37 12,16.56 12,16.75L 12,18C 12,18.55 12.45,19 13,19L 18.18,19L 17.52,22.18L 17.5,22.42C 17.5,22.73 17.63,23.01 17.8301,23.22L 18.62,24L 23.56,19.06C 23.8301,18.79 24,18.41 24,18L 24,11.5C 24,10.67 23.3301,10 22.5,10 Z M 12,6C 12,5.45 11.55,5 11,5L 5.82,5L 6.48,1.82L 6.5,1.58985C 6.5,1.28 6.37,1 6.17,0.790003L 5.38,1.90735e-006L 0.440002,4.94C 0.169998,5.21 0,5.58985 0,6L 0,12.5C 0,13.33 0.669998,14 1.5,14L 8.25,14C 8.87,14 9.4,13.62 9.63,13.09L 11.89,7.8C 11.96,7.63 12,7.44 12,7.25L 12,6 Z "/>
</svg>
