<?xml version="1.0" encoding="utf-8"?>
<!DOCTYPE svg PUBLIC "-//W3C//DTD SVG 1.1//EN" "http://www.w3.org/Graphics/SVG/1.1/DTD/svg11.dtd">
<svg xmlns="http://www.w3.org/2000/svg" xmlns:xlink="http://www.w3.org/1999/xlink" version="1.1" baseProfile="full" width="24" height="24" viewBox="0 0 24.00 24.00" enable-background="new 0 0 24.00 24.00" xml:space="preserve">
	<path fill="#000000" fill-opacity="1" stroke-width="1.33333" stroke-linejoin="miter" d="M 4,4C 2.89543,4 2,4.8954 2,6L 2,10C 3.11,10 4,10.9 4,12C 4,13.1046 3.10457,14 2,14L 2,18C 2,19.1046 2.89543,20 4,20L 20,20C 21.1046,20 22,19.1046 22,18L 22,14C 20.8954,14 20,13.1046 20,12C 20,10.89 20.9,10 22,10L 22,6C 22,4.89 21.1,4 20,4L 4,4 Z M 15.498,7L 17,8.502L 8.50195,17L 7,15.498L 15.498,7 Z M 8.8125,7.043C 9.79034,7.043 10.584,7.8347 10.584,8.8125C 10.584,9.7903 9.79034,10.584 8.8125,10.584C 7.83466,10.584 7.04297,9.7903 7.04297,8.8125C 7.04297,7.8347 7.83466,7.043 8.8125,7.043 Z M 15.1875,13.416C 16.1653,13.416 16.957,14.2097 16.957,15.1875C 16.957,16.1653 16.1653,16.957 15.1875,16.957C 14.2097,16.957 13.416,16.1653 13.416,15.1875C 13.416,14.2097 14.2097,13.416 15.1875,13.416 Z "/>
</svg>
