<?xml version="1.0" encoding="utf-8"?>
<!DOCTYPE svg PUBLIC "-//W3C//DTD SVG 1.1//EN" "http://www.w3.org/Graphics/SVG/1.1/DTD/svg11.dtd">
<svg xmlns="http://www.w3.org/2000/svg" xmlns:xlink="http://www.w3.org/1999/xlink" version="1.1" baseProfile="full" width="24" height="24" viewBox="0 0 24.00 24.00" enable-background="new 0 0 24.00 24.00" xml:space="preserve">
	<path fill="#000000" fill-opacity="1" stroke-width="0.2" stroke-linejoin="round" d="M 15.577,16.7979L 11.999,14.4979L 8.422,16.7979L 9.499,12.6819L 6.21,9.99187L 10.455,9.74286L 11.999,5.79787L 13.544,9.74286L 17.789,9.99187L 14.499,12.6819M 19.999,11.9979C 19.999,10.8939 20.895,9.99787 21.999,9.99787L 21.999,5.99787C 21.999,4.89387 21.104,3.99787 19.999,3.99787L 3.999,3.99787C 2.895,3.99787 2.01,4.89387 2.01,5.99787L 2.006,9.99886C 3.107,10.0029 3.999,10.8959 3.999,11.9979C 3.999,13.1019 3.106,13.9959 2.003,13.9979L 1.999,17.9979C 1.999,19.1029 2.895,19.9979 3.999,19.9979L 19.999,19.9979C 21.104,19.9979 21.999,19.1029 21.999,17.9979L 21.999,13.9979C 20.895,13.9979 19.999,13.1029 19.999,11.9979 Z "/>
</svg>
