<?xml version="1.0" encoding="utf-8"?>
<!DOCTYPE svg PUBLIC "-//W3C//DTD SVG 1.1//EN" "http://www.w3.org/Graphics/SVG/1.1/DTD/svg11.dtd">
<svg xmlns="http://www.w3.org/2000/svg" xmlns:xlink="http://www.w3.org/1999/xlink" version="1.1" baseProfile="full" width="24" height="24" viewBox="0 0 24.00 24.00" enable-background="new 0 0 24.00 24.00" xml:space="preserve">
	<path fill="#000000" fill-opacity="1" stroke-width="0.2" stroke-linejoin="round" d="M 19.999,11.9979C 19.999,13.1029 20.895,13.9979 21.999,13.9979L 21.999,17.9979C 21.999,19.1029 21.104,19.9979 19.999,19.9979L 3.999,19.9979C 2.895,19.9979 1.999,19.1029 1.999,17.9979L 2.003,13.9979C 3.106,13.9959 3.999,13.1019 3.999,11.9979C 3.999,10.8959 3.107,10.0029 2.006,9.99886L 2.01,5.99786C 2.01,4.89386 2.895,3.99786 3.999,3.99786L 19.999,3.99786C 21.104,3.99786 21.999,4.89386 21.999,5.99786L 21.999,9.99786C 20.895,9.99786 19.999,10.8939 19.999,11.9979 Z M 16.5,16.25C 16.5,14.75 13.5,14 12,14C 10.5,14 7.50004,14.75 7.50004,16.25L 7.50004,17L 16.5,17L 16.5,16.25 Z M 12,12.25C 13.242,12.25 14.25,11.244 14.25,10C 14.25,8.758 13.242,7.75 12,7.75C 10.758,7.75 9.75,8.758 9.75,10C 9.75,11.244 10.758,12.25 12,12.25 Z "/>
</svg>
