<?xml version="1.0" encoding="utf-8"?>
<!DOCTYPE svg PUBLIC "-//W3C//DTD SVG 1.1//EN" "http://www.w3.org/Graphics/SVG/1.1/DTD/svg11.dtd">
<svg xmlns="http://www.w3.org/2000/svg" xmlns:xlink="http://www.w3.org/1999/xlink" version="1.1" baseProfile="full" width="24" height="24" viewBox="0 0 24.00 24.00" enable-background="new 0 0 24.00 24.00" xml:space="preserve">
	<path fill="#000000" fill-opacity="1" stroke-width="1.33333" stroke-linejoin="miter" d="M 4,4C 2.89543,4 2,4.8954 2,6L 2,10C 3.10457,10 4,10.8954 4,12C 4,13.1046 3.10457,14 2,14L 2,18C 2,19.1046 2.89543,20 4,20L 20,20C 21.1046,20 22,19.1046 22,18L 22,14C 20.8954,14 20,13.1046 20,12C 20,10.8954 20.8954,10 22,10L 22,6C 22,4.8954 21.1046,4 20,4L 4,4 Z M 4,6L 20,6L 20,8.541C 18.764,9.2546 18.0018,10.5728 18,12C 18.0018,13.4272 18.764,14.7454 20,15.459L 20,18L 4,18L 4,15.459C 5.23602,14.7454 5.99817,13.4272 6,12C 5.99817,10.5728 5.23602,9.2546 4,8.541L 4,6 Z "/>
</svg>
