<?xml version="1.0" encoding="utf-8"?>
<!DOCTYPE svg PUBLIC "-//W3C//DTD SVG 1.1//EN" "http://www.w3.org/Graphics/SVG/1.1/DTD/svg11.dtd">
<svg xmlns="http://www.w3.org/2000/svg" xmlns:xlink="http://www.w3.org/1999/xlink" version="1.1" baseProfile="full" width="24" height="24" viewBox="0 0 24.00 24.00" enable-background="new 0 0 24.00 24.00" xml:space="preserve">
	<path fill="#000000" fill-opacity="1" stroke-width="0.2" stroke-linejoin="miter" d="M 5,12C 5,13.1046 4.10457,14 3,14C 1.89543,14 1,13.1046 1,12C 1,10.8954 1.89543,10 3,10C 4.10457,10 5,10.8954 5,12 Z M 4,2.00001L 4,8L 2,8L 2,2.00001L 4,2.00001 Z M 2,22L 2,16L 4,16L 4,22L 2,22 Z M 23.9999,6.00003L 23.9999,18C 23.9999,19.1046 23.1045,20 22,20L 9.99998,20C 8.89542,20 7.99999,19.1046 7.99999,18L 8,14L 6,12L 8,10L 7.99999,6.00002C 7.99999,4.89541 8.89542,4.00002 9.99998,4.00002L 22,4.00003C 23.1045,4.00003 23.9999,4.89543 23.9999,6.00003 Z M 22,6.00003L 9.99998,6.00002L 10,10.8284L 8.82842,12L 10,13.1716L 9.99998,18L 22,18L 22,6.00003 Z M 16.5,15.5L 16.5,17L 15,17L 15,15.5L 16.5,15.5 Z M 14.5,10.5L 13,10.5L 13,10C 13,8.34311 14.3431,7.00001 16,7.00001C 17.6569,7.00001 19,8.34311 19,10C 19,10.971 18.5137,11.875 17.706,12.408L 17.4131,12.601C 16.8429,12.9773 16.4999,13.6149 16.5,14.298L 16.5,14.5L 15,14.5L 15,14.298C 15,13.111 15.596,12.003 16.5869,11.349L 16.88,11.156C 17.2666,10.9 17.5,10.467 17.5,10.003C 17.5008,9.17461 16.8299,8.50231 16.0015,8.50151C 15.1731,8.50071 14.5008,9.17161 14.5,10L 14.5,10.5 Z "/>
</svg>
