<?xml version="1.0" encoding="utf-8"?>
<!DOCTYPE svg PUBLIC "-//W3C//DTD SVG 1.1//EN" "http://www.w3.org/Graphics/SVG/1.1/DTD/svg11.dtd">
<svg xmlns="http://www.w3.org/2000/svg" xmlns:xlink="http://www.w3.org/1999/xlink" version="1.1" baseProfile="full" width="24" height="24" viewBox="0 0 24.00 24.00" enable-background="new 0 0 24.00 24.00" xml:space="preserve">
	<path fill="#000000" fill-opacity="1" stroke-width="0.2" stroke-linejoin="round" d="M 14,12L 15.5,12L 15.5,14.823L 17.9382,16.2307L 17.1882,17.5297L 14,15.689L 14,12 Z M 4,2.00001L 18,2.00002C 19.1046,2.00002 20,2.89545 20,4.00002L 20,10.101C 21.2372,11.3636 22,13.0927 22,15C 22,18.866 18.866,22 15,22C 13.0927,22 11.3636,21.2372 10.101,20L 4,20C 2.89543,20 2,19.1046 2,18L 2,4.00001C 2,2.89544 2.89543,2.00001 4,2.00001 Z M 4,15L 4,18L 8.67363,18C 8.24169,17.0907 8,16.0736 8,15L 4,15 Z M 4,8.00001L 10,8L 10,5L 4,5.00001L 4,8.00001 Z M 18,8.00001L 18,5.00001L 12,5L 12,8L 18,8.00001 Z M 4,13L 8.28987,13C 8.63282,11.8477 9.2645,10.8197 10.101,10L 4,10L 4,13 Z M 15,10.1539C 12.3235,10.1539 10.1538,12.3236 10.1538,15C 10.1538,17.6765 12.3235,19.8462 15,19.8462C 17.6764,19.8462 19.8461,17.6765 19.8461,15C 19.8461,12.3236 17.6764,10.1539 15,10.1539 Z "/>
</svg>
