<?xml version="1.0" encoding="utf-8"?>
<!DOCTYPE svg PUBLIC "-//W3C//DTD SVG 1.1//EN" "http://www.w3.org/Graphics/SVG/1.1/DTD/svg11.dtd">
<svg xmlns="http://www.w3.org/2000/svg" xmlns:xlink="http://www.w3.org/1999/xlink" version="1.1" baseProfile="full" width="24" height="24" viewBox="0 0 24.00 24.00" enable-background="new 0 0 24.00 24.00" xml:space="preserve">
	<path fill="#000000" fill-opacity="1" stroke-width="0.2" stroke-linejoin="miter" d="M 4,2L 4,8L 2,8L 2,2L 4,2 Z M 2,22L 4,22L 4,16L 2,16L 2,22 Z M 5,12C 5,10.8954 4.10457,10 3,10C 1.89543,10 1,10.8954 1,12C 1,13.1046 1.89543,14 3,14C 4.10457,14 5,13.1046 5,12 Z M 24,6.00003L 24,18C 24,19.1046 23.1046,20 22,20L 10,20C 8.89543,20 8,19.1046 8,18L 8,14L 6,12L 8,10L 8,6.00001C 8,4.89541 8.89543,4.00001 10,4.00001L 22,4.00003C 23.1046,4.00003 24,4.89543 24,6.00003 Z M 19,13L 11,13L 11,15L 19,15L 19,13 Z M 21,9.00001L 11,9L 11,11L 21,11L 21,9.00001 Z "/>
</svg>
