<?xml version="1.0" encoding="utf-8"?>
<!DOCTYPE svg PUBLIC "-//W3C//DTD SVG 1.1//EN" "http://www.w3.org/Graphics/SVG/1.1/DTD/svg11.dtd">
<svg xmlns="http://www.w3.org/2000/svg" xmlns:xlink="http://www.w3.org/1999/xlink" version="1.1" baseProfile="full" width="24" height="24" viewBox="0 0 24.00 24.00" enable-background="new 0 0 24.00 24.00" xml:space="preserve">
	<path fill="#000000" fill-opacity="1" stroke-width="0.2" stroke-linejoin="miter" d="M 4.00003,2.00001L 4.00003,8L 2.00003,8L 2.00003,2.00001L 4.00003,2.00001 Z M 2.00003,22L 2.00003,16L 4.00003,16L 4.00003,22L 2.00003,22 Z M 5.00003,12C 5.00003,13.1046 4.1046,14 3.00003,14C 1.89546,14 1.00003,13.1046 1.00003,12C 1.00003,10.8954 1.89546,10 3.00003,10C 4.1046,10 5.00003,10.8954 5.00003,12 Z M 24,6.00002L 24,18C 24,19.1046 23.1046,20 22,20L 10,20C 8.89545,20 8.00002,19.1046 8.00002,18L 8.00002,14L 6.00003,12L 8.00002,10L 8.00002,6.00002C 8.00002,4.89542 8.89545,4.00002 10,4.00002L 22,4.00002C 23.1046,4.00002 24,4.89543 24,6.00002 Z M 20,11L 17,11L 17,7.99998L 15,7.99998L 15,11L 12,11L 12,13L 15,13L 15,16L 17,16L 17,13L 20,13L 20,11 Z "/>
</svg>
