<?xml version="1.0" encoding="utf-8"?>
<!DOCTYPE svg PUBLIC "-//W3C//DTD SVG 1.1//EN" "http://www.w3.org/Graphics/SVG/1.1/DTD/svg11.dtd">
<svg xmlns="http://www.w3.org/2000/svg" xmlns:xlink="http://www.w3.org/1999/xlink" version="1.1" baseProfile="full" width="24" height="24" viewBox="0 0 24.00 24.00" enable-background="new 0 0 24.00 24.00" xml:space="preserve">
	<path fill="#000000" fill-opacity="1" stroke-width="0.2" stroke-linejoin="round" d="M 11.9994,19.9981C 7.5804,19.9981 3.9994,16.4171 3.9994,11.9981C 3.9994,7.58007 7.5814,3.99807 11.9994,3.99807C 16.4174,3.99807 19.9994,7.57906 19.9994,11.9981C 19.9994,16.4161 16.4174,19.9981 11.9994,19.9981 Z M 11.9994,1.99807C 6.4764,1.99807 1.9994,6.47507 1.9994,11.9981C 1.9994,17.5211 6.4764,21.9981 11.9994,21.9981C 17.5224,21.9981 21.9994,17.5211 21.9994,11.9981C 21.9994,6.47507 17.5224,1.99807 11.9994,1.99807 Z M 16.2424,7.75507C 15.0704,6.58407 13.5346,5.99907 11.9994,5.99807L 11.9994,11.9981L 7.75624,16.2411C 10.1004,18.5841 13.8994,18.5831 16.2424,16.2411C 18.5854,13.8971 18.5854,10.0991 16.2424,7.75507 Z "/>
</svg>
