<?xml version="1.0" encoding="utf-8"?>
<!DOCTYPE svg PUBLIC "-//W3C//DTD SVG 1.1//EN" "http://www.w3.org/Graphics/SVG/1.1/DTD/svg11.dtd">
<svg xmlns="http://www.w3.org/2000/svg" xmlns:xlink="http://www.w3.org/1999/xlink" version="1.1" baseProfile="full" width="24" height="24" viewBox="0 0 24.00 24.00" enable-background="new 0 0 24.00 24.00" xml:space="preserve">
	<path fill="#000000" fill-opacity="1" stroke-width="1.33333" stroke-linejoin="miter" d="M 6,2L 18,2L 18,8L 17.99,8L 18,8.01L 14,12L 18,16L 17.99,16.01L 18,16.01L 18,22L 6,22L 6,16.01L 6.01,16.01L 6,16L 10,12L 6,8.01L 6.01,8L 6,8L 6,2 Z M 16,16.5L 12,12.5L 8,16.5L 8,20L 16,20L 16,16.5 Z M 12,11.5L 16,7.5L 16,4L 8,4L 8,7.5L 12,11.5 Z M 10,6L 14,6L 14,6.75001L 12,8.75001L 10,6.75001L 10,6 Z "/>
</svg>
