<?xml version="1.0" encoding="utf-8"?>
<!DOCTYPE svg PUBLIC "-//W3C//DTD SVG 1.1//EN" "http://www.w3.org/Graphics/SVG/1.1/DTD/svg11.dtd">
<svg xmlns="http://www.w3.org/2000/svg" xmlns:xlink="http://www.w3.org/1999/xlink" version="1.1" baseProfile="full" width="24" height="24" viewBox="0 0 24.00 24.00" enable-background="new 0 0 24.00 24.00" xml:space="preserve">
	<path fill="#000000" fill-opacity="1" stroke-width="0.2" stroke-linejoin="miter" d="M 4,2L 4,8L 2,8L 2,2L 4,2 Z M 2,22L 2,16L 4,16L 4,22L 2,22 Z M 5,12C 5,13.1046 4.10457,14 3,14C 1.89543,14 1,13.1046 1,12C 1,10.8954 1.89543,10 3,10C 4.10457,10 5,10.8954 5,12 Z M 23.9999,6.00004L 23.9999,18C 23.9999,19.1046 23.1045,20 21.9999,20L 9.99999,20C 8.89542,20 7.99999,19.1046 7.99999,18L 8,14L 6,12L 8,10L 7.99999,6.00002C 7.99999,4.89541 8.89542,4.00002 9.99999,4.00002L 21.9999,4.00004C 23.1045,4.00004 23.9999,4.89544 23.9999,6.00004 Z M 16.5,15.5L 15,15.5L 15,17L 16.5,17L 16.5,15.5 Z M 14.5,10.5L 14.5,10C 14.5008,9.17161 15.1731,8.50071 16.0015,8.50151C 16.8299,8.50231 17.5008,9.17461 17.5,10.003C 17.5,10.467 17.2666,10.9 16.88,11.156L 16.5869,11.349C 15.596,12.003 15,13.111 15,14.298L 15,14.5L 16.5,14.5L 16.5,14.298C 16.4999,13.6149 16.8429,12.9773 17.4131,12.601L 17.706,12.408C 18.5137,11.875 19,10.971 19,10C 19,8.34311 17.6569,7.00001 16,7.00001C 14.3431,7.00001 13,8.34311 13,10L 13,10.5L 14.5,10.5 Z "/>
</svg>
