<?xml version="1.0" encoding="utf-8"?>
<!DOCTYPE svg PUBLIC "-//W3C//DTD SVG 1.1//EN" "http://www.w3.org/Graphics/SVG/1.1/DTD/svg11.dtd">
<svg xmlns="http://www.w3.org/2000/svg" xmlns:xlink="http://www.w3.org/1999/xlink" version="1.1" baseProfile="full" width="24" height="24" viewBox="0 0 24.00 24.00" enable-background="new 0 0 24.00 24.00" xml:space="preserve">
	<path fill="#000000" fill-opacity="1" stroke-width="0.2" stroke-linejoin="miter" d="M 4,2L 4,7.99999L 2,7.99999L 2,2L 4,2 Z M 2,22L 2,16L 4,16L 4,22L 2,22 Z M 5,12C 5,13.1046 4.10457,14 3,14C 1.89543,14 1,13.1046 1,12C 1,10.8954 1.89543,10 3,10C 4.10457,10 5,10.8954 5,12 Z M 24,6.00002L 24,18C 24,19.1046 23.1046,20 22,20L 9.99999,20C 8.89542,20 7.99999,19.1046 7.99999,18L 7.99999,14L 5.99999,12L 7.99999,10L 7.99999,6.00001C 7.99999,4.89541 8.89542,4.00001 9.99999,4.00001L 22,4.00002C 23.1046,4.00002 24,4.89542 24,6.00002 Z "/>
</svg>
