<?xml version="1.0" encoding="utf-8"?>
<!DOCTYPE svg PUBLIC "-//W3C//DTD SVG 1.1//EN" "http://www.w3.org/Graphics/SVG/1.1/DTD/svg11.dtd">
<svg xmlns="http://www.w3.org/2000/svg" xmlns:xlink="http://www.w3.org/1999/xlink" version="1.1" baseProfile="full" width="24" height="24" viewBox="0 0 24.00 24.00" enable-background="new 0 0 24.00 24.00" xml:space="preserve">
	<path fill="#000000" fill-opacity="1" stroke-width="0.2" stroke-linejoin="miter" d="M 5,12C 5,13.1046 4.10457,14 3,14C 1.89543,14 1,13.1046 1,12C 1,10.8954 1.89543,10 3,10C 4.10457,10 5,10.8954 5,12 Z M 4,2.00002L 4,8.00001L 2,8.00001L 2,2.00002L 4,2.00002 Z M 2,22L 2,16L 4,16L 4,22L 2,22 Z M 24,6.00002L 24,18C 24,19.1046 23.1046,20 22,20L 9.99999,20C 8.89542,20 8,19.1046 8,18L 8,14L 6,12L 8,10L 8,6.00001C 8,4.89541 8.89542,4.00001 9.99999,4.00001L 22,4.00002C 23.1046,4.00002 24,4.89541 24,6.00002 Z M 22,6.00002L 9.99999,6.00001L 9.99999,10.8284L 8.82843,12L 9.99999,13.1716L 9.99999,18L 22,18L 22,6.00002 Z M 12,9.00001L 20,9.00001L 20,11L 12,11L 12,9.00001 Z M 12,13L 18,13L 18,15L 12,15L 12,13 Z "/>
</svg>
