<?xml version="1.0" encoding="utf-8"?>
<!DOCTYPE svg PUBLIC "-//W3C//DTD SVG 1.1//EN" "http://www.w3.org/Graphics/SVG/1.1/DTD/svg11.dtd">
<svg xmlns="http://www.w3.org/2000/svg" xmlns:xlink="http://www.w3.org/1999/xlink" version="1.1" baseProfile="full" width="24" height="24" viewBox="0 0 24.00 24.00" enable-background="new 0 0 24.00 24.00" xml:space="preserve">
	<path fill="#000000" fill-opacity="1" stroke-width="0.2" stroke-linejoin="miter" d="M 4.00004,2.00001L 4.00004,8L 2.00004,8L 2.00004,2.00001L 4.00004,2.00001 Z M 2.00004,22L 2.00004,16L 4.00004,16L 4.00004,22L 2.00004,22 Z M 5.00004,12C 5.00004,13.1046 4.10461,14 3.00004,14C 1.89547,14 1.00004,13.1046 1.00004,12C 1.00004,10.8954 1.89547,10 3.00004,10C 4.10461,10 5.00004,10.8954 5.00004,12 Z M 24,6.00003L 24,18C 24,19.1046 23.1046,20 22,20L 10,20C 8.89546,20 8.00003,19.1046 8.00003,18L 8.00003,14L 6.00004,12L 8.00003,10L 8.00003,6.00003C 8.00003,4.89543 8.89546,4.00003 10,4.00003L 22,4.00003C 23.1046,4.00003 24,4.89543 24,6.00003 Z M 10,6.00001L 10,18L 22,18L 22,6.00001L 10,6.00001 Z M 15,7L 17,7L 17,13L 15,13L 15,7 Z M 15,15L 17,15L 17,17L 15,17L 15,15 Z "/>
</svg>
