<?xml version="1.0" encoding="utf-8"?>
<!DOCTYPE svg PUBLIC "-//W3C//DTD SVG 1.1//EN" "http://www.w3.org/Graphics/SVG/1.1/DTD/svg11.dtd">
<svg xmlns="http://www.w3.org/2000/svg" xmlns:xlink="http://www.w3.org/1999/xlink" version="1.1" baseProfile="full" width="24" height="24" viewBox="0 0 24.00 24.00" enable-background="new 0 0 24.00 24.00" xml:space="preserve">
	<path fill="#000000" fill-opacity="1" stroke-linejoin="round" d="M 6.99992,7.00008C 9.76143,7.00008 11.9999,9.23861 11.9999,12.0001C 11.9999,14.7615 9.76135,17.0001 6.99992,17.0001C 4.23848,17.0001 1.99992,14.7615 1.99992,12.0001C 1.99992,9.23861 4.2384,7.00008 6.99992,7.00008 Z M 20,14.0002L 14,14.0002L 14,10.0002L 20,10.0002C 21.1046,10.0002 21.9999,10.8956 21.9999,12.0002C 21.9999,13.1047 21.1045,14.0002 20,14.0002 Z M 7,9C 5.34315,9 4,10.3431 4,12C 4,13.6569 5.34314,15 7,15C 8.65685,15 10,13.6569 10,12C 10,10.3431 8.65685,9 7,9 Z "/>
</svg>
