<?xml version="1.0" encoding="utf-8"?>
<!DOCTYPE svg PUBLIC "-//W3C//DTD SVG 1.1//EN" "http://www.w3.org/Graphics/SVG/1.1/DTD/svg11.dtd">
<svg xmlns="http://www.w3.org/2000/svg" xmlns:xlink="http://www.w3.org/1999/xlink" version="1.1" baseProfile="full" width="24" height="24" viewBox="0 0 24.00 24.00" enable-background="new 0 0 24.00 24.00" xml:space="preserve">
	<path fill="#000000" fill-opacity="1" stroke-width="1.33333" stroke-linejoin="miter" d="M 8.99999,22L 17,22L 17,19.4833C 19.4125,17.8667 21,15.1167 21,12L 21,4.00001C 21,2.89584 20.1042,2.00001 19,2.00001L 14.9875,2.00001C 13.8875,2.00834 13,2.90001 13,4.00001L 13,12L 3,12C 3.02083,15.0917 5,18 8.99999,19.4833L 8.99999,22 Z M 5.29166,14L 18.7083,14C 18.1417,15.9125 16.775,17.4792 15,18.325L 15,20L 11,20L 11,18.325C 9,18 5.85833,15.9125 5.29166,14 Z M 15,4.00001L 19,4.00001L 19,12L 15,12L 15,4.00001 Z M 16,5.00001L 16,8.00001L 18,8.00001L 18,5.00001L 16,5.00001 Z "/>
</svg>
