<?xml version="1.0" encoding="utf-8"?>
<!DOCTYPE svg PUBLIC "-//W3C//DTD SVG 1.1//EN" "http://www.w3.org/Graphics/SVG/1.1/DTD/svg11.dtd">
<svg xmlns="http://www.w3.org/2000/svg" xmlns:xlink="http://www.w3.org/1999/xlink" version="1.1" baseProfile="full" width="24" height="24" viewBox="0 0 24.00 24.00" enable-background="new 0 0 24.00 24.00" xml:space="preserve">
	<path fill="#000000" fill-opacity="1" stroke-width="1.33333" stroke-linejoin="miter" d="M 9,5.0156L 9,6L 15,6L 15,5.0156L 9,5.0156 Z M 21.9844,18C 21.9844,18.5313 21.7891,19 21.3984,19.4063C 21.0078,19.8125 20.5469,20.0156 20.0156,20.0156L 3.98438,20.0156C 3.45312,20.0156 2.99219,19.8125 2.60156,19.4063C 2.21094,19 2.01563,18.5313 2.01563,18L 2.01563,14L 7,14L 7,15L 9,15L 9,14L 15,14L 15,15L 17,15L 17,14L 21.9844,14L 21.9844,18 Z M 4.5,7.21871C 4.84375,6.40621 5.45313,6.00001 6.32813,6.00001L 6.98438,6.00001L 6.98438,5.01561C 6.98438,4.45311 7.17969,3.97661 7.57031,3.58591C 7.96094,3.1953 8.4375,3.00001 9,3.00001L 15,3.00001C 15.5625,3.00001 16.0391,3.1953 16.4297,3.58591C 16.8203,3.97661 17.0156,4.45311 17.0156,5.01561L 17.0156,6.00001L 17.6719,6.00001C 18.5469,6.00001 19.1562,6.40621 19.5,7.21871L 21.5788,12L 17,12L 17,11L 15,11L 15,12L 9,12L 9,11L 7,11L 7,12L 2.4212,12L 4.5,7.21871 Z "/>
</svg>
