<?xml version="1.0" encoding="utf-8"?>
<!DOCTYPE svg PUBLIC "-//W3C//DTD SVG 1.1//EN" "http://www.w3.org/Graphics/SVG/1.1/DTD/svg11.dtd">
<svg xmlns="http://www.w3.org/2000/svg" xmlns:xlink="http://www.w3.org/1999/xlink" version="1.1" baseProfile="full" width="24" height="24" viewBox="0 0 24.00 24.00" enable-background="new 0 0 24.00 24.00" xml:space="preserve">
	<path fill="#000000" fill-opacity="1" stroke-width="1.33333" stroke-linejoin="miter" d="M 20.0156,18L 20.0156,14.0156L 17.0156,14.0156L 17.0156,15L 15,15L 15,14.0156L 9,14.0156L 9,15L 6.98438,15L 6.98438,14.0156L 3.98438,14.0156L 3.98438,18L 20.0156,18 Z M 6.32813,8.0156L 4.59375,12L 6.98438,12L 6.98438,11.0156L 9,11.0156L 9,12L 15,12L 15,11.0156L 17.0156,11.0156L 17.0156,12L 19.4063,12L 17.6719,8.0156L 6.32813,8.0156 Z M 9,5.0156L 9,6L 15,6L 15,5.0156L 9,5.0156 Z M 21.8438,12.6094C 21.9375,12.8281 21.9844,13.0937 21.9844,13.4062L 21.9844,18C 21.9844,18.5312 21.7891,19 21.3984,19.4062C 21.0078,19.8125 20.5469,20.0156 20.0156,20.0156L 3.98438,20.0156C 3.45312,20.0156 2.99219,19.8125 2.60156,19.4062C 2.21094,19 2.01563,18.5312 2.01563,18L 2.01563,13.4062C 2.01563,13.0937 2.0625,12.8281 2.15625,12.6094L 4.5,7.2187C 4.84375,6.4062 5.45313,6 6.32813,6L 6.98438,6L 6.98438,5.0156C 6.98438,4.4531 7.17969,3.9766 7.57031,3.5859C 7.96094,3.1953 8.4375,3 9,3L 15,3C 15.5625,3 16.0391,3.1953 16.4297,3.5859C 16.8203,3.9766 17.0156,4.4531 17.0156,5.0156L 17.0156,6L 17.6719,6C 18.5469,6 19.1562,6.4062 19.5,7.2187L 21.8438,12.6094 Z "/>
</svg>
