<?xml version="1.0" encoding="utf-8"?>
<!DOCTYPE svg PUBLIC "-//W3C//DTD SVG 1.1//EN" "http://www.w3.org/Graphics/SVG/1.1/DTD/svg11.dtd">
<svg xmlns="http://www.w3.org/2000/svg" xmlns:xlink="http://www.w3.org/1999/xlink" version="1.1" baseProfile="full" width="24" height="24" viewBox="0 0 24.00 24.00" enable-background="new 0 0 24.00 24.00" xml:space="preserve">
	<path fill="#000000" fill-opacity="1" stroke-width="0.2" stroke-linejoin="round" d="M 4,2L 20,2C 21.1046,2 22,2.89543 22,4L 22,16C 22,17.1046 21.1046,18 20,18L 16,18L 12,22L 8,18L 4,18C 2.89543,18 2,17.1046 2,16L 2,4C 2,2.89543 2.89543,2 4,2 Z M 4,4.00001L 4,16L 8.82842,16L 12,19.1716L 15.1716,16L 20,16L 20,4.00001L 4,4.00001 Z M 7.5,6C 8.32843,6 9,6.67158 9,7.5C 9,8.32843 8.32843,9 7.5,9C 6.67157,9 6,8.32843 6,7.5C 6,6.67158 6.67157,6 7.5,6 Z M 6,14L 11,9L 13,11L 18,6L 18,14L 6,14 Z "/>
</svg>
