<?xml version="1.0" encoding="utf-8"?>
<!DOCTYPE svg PUBLIC "-//W3C//DTD SVG 1.1//EN" "http://www.w3.org/Graphics/SVG/1.1/DTD/svg11.dtd">
<svg xmlns="http://www.w3.org/2000/svg" xmlns:xlink="http://www.w3.org/1999/xlink" version="1.1" baseProfile="full" width="24" height="24" viewBox="0 0 24.00 24.00" enable-background="new 0 0 24.00 24.00" xml:space="preserve">
	<path fill="#000000" fill-opacity="1" stroke-width="1.33333" stroke-linejoin="miter" d="M 20,2L 4,2C 2.9,2 2,2.9 2,4L 2,16C 2,17.1 2.9,18 4,18L 8,18L 12,22L 16,18L 20,18C 21.1,18 22,17.1 22,16L 22,4C 22,2.9 21.1,2 20,2 Z M 12,4.3C 13.5,4.3 14.7,5.5 14.7,7C 14.7,8.5 13.5,9.7 12,9.7C 10.5,9.7 9.3,8.5 9.3,7C 9.3,5.5 10.5,4.3 12,4.3 Z M 18,15L 6,15L 6,14.1C 6,12.1 10,11 12,11C 14,11 18,12.1 18,14.1L 18,15 Z "/>
</svg>
