<?xml version="1.0" encoding="utf-8"?>
<!DOCTYPE svg PUBLIC "-//W3C//DTD SVG 1.1//EN" "http://www.w3.org/Graphics/SVG/1.1/DTD/svg11.dtd">
<svg xmlns="http://www.w3.org/2000/svg" xmlns:xlink="http://www.w3.org/1999/xlink" version="1.1" baseProfile="full" width="24" height="24" viewBox="0 0 24.00 24.00" enable-background="new 0 0 24.00 24.00" xml:space="preserve">
	<path fill="#000000" fill-opacity="1" stroke-width="0.2" stroke-linejoin="round" d="M 4,2L 20,2C 21.1046,2 22,2.89543 22,4L 22,16C 22,17.1046 21.1046,18 20,18L 16,18L 12,22L 8,18L 4,18C 2.89543,18 2,17.1046 2,16L 2,4C 2,2.89543 2.89543,2 4,2 Z M 4,4.00001L 4,16L 8.82842,16L 12,19.1716L 15.1716,16L 20,16L 20,4.00001L 4,4.00001 Z M 11,6L 13,6L 13,9L 16,9L 16,11L 13,11L 13,14L 11,14L 11,11L 8,11L 8,9L 11,9L 11,6 Z "/>
</svg>
