<?xml version="1.0" encoding="utf-8"?>
<!DOCTYPE svg PUBLIC "-//W3C//DTD SVG 1.1//EN" "http://www.w3.org/Graphics/SVG/1.1/DTD/svg11.dtd">
<svg xmlns="http://www.w3.org/2000/svg" xmlns:xlink="http://www.w3.org/1999/xlink" version="1.1" baseProfile="full" width="24" height="24" viewBox="0 0 24.00 24.00" enable-background="new 0 0 24.00 24.00" xml:space="preserve">
	<path fill="#000000" fill-opacity="1" stroke-width="0.2" stroke-linejoin="miter" d="M 7,2C 4,2 2,5 2,8C 2,10.1082 3,13 4,14C 5,15 6,22 8,22C 12.5407,22 10,15 12,15C 14,15 11.4593,22 16,22C 18,22 19,15 20,14C 21,13 22,10.1082 22,8C 22,5 20,2 17,2C 14,2 14,3 12,3C 10,3 10,2 7,2 Z "/>
</svg>
