<?xml version="1.0" encoding="utf-8"?>
<!DOCTYPE svg PUBLIC "-//W3C//DTD SVG 1.1//EN" "http://www.w3.org/Graphics/SVG/1.1/DTD/svg11.dtd">
<svg xmlns="http://www.w3.org/2000/svg" xmlns:xlink="http://www.w3.org/1999/xlink" version="1.1" baseProfile="full" width="24" height="24" viewBox="0 0 24.00 24.00" enable-background="new 0 0 24.00 24.00" xml:space="preserve">
	<path fill="#000000" fill-opacity="1" stroke-width="1.33333" stroke-linejoin="miter" d="M 19.31,5.6C 18.09,5.56 16.88,6.5 16.5,8C 16,10 16,10 15,11C 13,13 10,14 4,15C 3.01,15.16 2.5,15.5 2,16C 4,16 6,16 4.5,17.5L 3,19L 6,19L 8,17C 10,18 11.33,18 13.33,17L 14,19L 17,19L 16,16C 16,16 17,12 18,11C 19,10 19,11 20,11C 21,11 22,10 22,8.5C 22,8 22,7 20.5,6C 20.1486,5.7579 19.7363,5.6193 19.31,5.6 Z M 9,6C 5.68629,6 3,8.6863 3,12C 3,12.6 3.13,13.08 3.23,13.6C 9.15,12.62 12.29,11.59 13.93,9.94L 14.43,9.44C 13.4387,7.3387 11.3234,5.9986 9,6 Z "/>
</svg>
