<?xml version="1.0" encoding="utf-8"?>
<!DOCTYPE svg PUBLIC "-//W3C//DTD SVG 1.1//EN" "http://www.w3.org/Graphics/SVG/1.1/DTD/svg11.dtd">
<svg xmlns="http://www.w3.org/2000/svg" xmlns:xlink="http://www.w3.org/1999/xlink" version="1.1" baseProfile="full" width="24" height="24" viewBox="0 0 24.00 24.00" enable-background="new 0 0 24.00 24.00" xml:space="preserve">
	<path fill="#000000" fill-opacity="1" stroke-width="1.33333" stroke-linejoin="miter" d="M 2,2L 2,4L 7,4L 7,8L 2,8L 2,10L 7,10C 8.11,10 9,9.11 9,8L 9,7L 14,7L 14,17L 9,17L 9,16C 9,14.89 8.11,14 7,14L 2,14L 2,16L 7,16L 7,20L 2,20L 2,22L 7,22C 8.11,22 9,21.11 9,20L 9,19L 14,19C 15.11,19 16,18.11 16,17L 16,13L 22,13L 22,11L 16,11L 16,7C 16,5.89 15.11,5 14,5L 9,5L 9,4C 9,2.89 8.11,2 7,2L 2,2 Z "/>
</svg>
