<?xml version="1.0" encoding="utf-8"?>
<!DOCTYPE svg PUBLIC "-//W3C//DTD SVG 1.1//EN" "http://www.w3.org/Graphics/SVG/1.1/DTD/svg11.dtd">
<svg xmlns="http://www.w3.org/2000/svg" xmlns:xlink="http://www.w3.org/1999/xlink" version="1.1" baseProfile="full" width="24" height="24" viewBox="0 0 24.00 24.00" enable-background="new 0 0 24.00 24.00" xml:space="preserve">
	<path fill="#000000" fill-opacity="1" stroke-linejoin="round" d="M 17,4L 17,8L 18,8L 18,10L 17.638,10L 21,23L 18.9342,23L 18.3743,20.8349L 12,17.1547L 5.62574,20.8349L 5.0658,23L 3,23L 6.36203,10L 6,10L 6,8L 7,8L 7,4L 6,4L 6,3L 18,1.00001L 18,4L 17,4 Z M 7.28196,14.4307L 6.32782,18.1201L 10,16L 7.28196,14.4307 Z M 15.5722,10L 8.42783,10L 7.80162,12.4214L 12,14.8453L 16.1984,12.4214L 15.5722,10 Z M 17.6722,18.1201L 16.718,14.4307L 14,16L 17.6722,18.1201 Z "/>
</svg>
