<?xml version="1.0" encoding="utf-8"?>
<!DOCTYPE svg PUBLIC "-//W3C//DTD SVG 1.1//EN" "http://www.w3.org/Graphics/SVG/1.1/DTD/svg11.dtd">
<svg xmlns="http://www.w3.org/2000/svg" xmlns:xlink="http://www.w3.org/1999/xlink" version="1.1" baseProfile="full" width="24" height="24" viewBox="0 0 24.00 24.00" enable-background="new 0 0 24.00 24.00" xml:space="preserve">
	<path fill="#000000" fill-opacity="1" stroke-width="1.33333" stroke-linejoin="miter" d="M 15,9.9844L 20.3906,9.9844L 17.0625,6L 15,6L 15,9.9844 Z M 17.4844,18.5156C 17.8906,18.5156 18.2422,18.3672 18.5391,18.0703C 18.8359,17.7734 18.9844,17.4219 18.9844,17.0156C 18.9844,16.6094 18.8359,16.2578 18.5391,15.9609C 18.2422,15.6641 17.8906,15.5156 17.4844,15.5156C 17.0781,15.5156 16.7266,15.6641 16.4297,15.9609C 16.1328,16.2578 15.9844,16.6094 15.9844,17.0156C 15.9844,17.4219 16.1328,17.7734 16.4297,18.0703C 16.7266,18.3672 17.0781,18.5156 17.4844,18.5156 Z M 6,18.5156C 6.4375,18.5156 6.79688,18.3672 7.07813,18.0703C 7.35938,17.7734 7.5,17.4219 7.5,17.0156C 7.5,16.6094 7.35938,16.2578 7.07813,15.9609C 6.79688,15.6641 6.4375,15.5156 6,15.5156C 5.5625,15.5156 5.20313,15.6641 4.92188,15.9609C 4.64063,16.2578 4.5,16.6094 4.5,17.0156C 4.5,17.4219 4.64063,17.7734 4.92188,18.0703C 5.20313,18.3672 5.5625,18.5156 6,18.5156 Z M 18,3.9844L 23.0156,9.9844L 23.0156,17.0156L 20.4844,17.0156C 20.4844,17.8281 20.1875,18.5312 19.5938,19.125C 19,19.7187 18.2969,20.0156 17.4844,20.0156C 16.6719,20.0156 15.9687,19.7187 15.375,19.125C 14.7813,18.5312 14.4844,17.8281 14.4844,17.0156L 9,17.0156C 9,17.8281 8.70313,18.5312 8.10938,19.125C 7.51562,19.7187 6.8125,20.0156 6,20.0156C 5.1875,20.0156 4.48437,19.7187 3.89063,19.125C 3.29688,18.5312 3,17.8281 3,17.0156L 0.984376,17.0156L 0.984376,12.9844L 9.1875,12.9844L 3,8.1094L 3,11.0156L 0.984376,11.0156L 0.984376,5.0156L 2.01563,5.0156L 12.9844,11.0625L 12.9844,3.9844L 18,3.9844 Z "/>
</svg>
