<?xml version="1.0" encoding="utf-8"?>
<!DOCTYPE svg PUBLIC "-//W3C//DTD SVG 1.1//EN" "http://www.w3.org/Graphics/SVG/1.1/DTD/svg11.dtd">
<svg xmlns="http://www.w3.org/2000/svg" xmlns:xlink="http://www.w3.org/1999/xlink" version="1.1" baseProfile="full" width="24" height="24" viewBox="0 0 24.00 24.00" enable-background="new 0 0 24.00 24.00" xml:space="preserve">
	<path fill="#000000" fill-opacity="1" stroke-width="1.33333" stroke-linejoin="miter" d="M 5,4L 5,11.2637C 3.20422,11.8986 2.00267,13.5953 2,15.5C 2,17.9853 4.01472,20 6.5,20C 8.78976,19.9973 10.7124,18.2756 10.9668,16L 15.1738,16C 15.0595,16.321 15.0007,16.6592 15,17C 15,18.6568 16.3431,20 18,20C 19.6569,20 21,18.6568 21,17C 20.9986,16.6591 20.9392,16.3209 20.8242,16L 22,16L 22,13C 22,11.89 21.11,11 20,11L 15.0391,11L 13.6465,4L 5,4 Z M 7,6L 12.0059,6L 13,11L 13,14L 10.7363,14C 10.1608,12.3779 8.71033,11.2262 7,11.0332L 7,6 Z M 6.5,13.25C 7.74264,13.25 8.75,14.2574 8.75,15.5C 8.75,16.7426 7.74264,17.75 6.5,17.75C 5.25736,17.75 4.25,16.7426 4.25,15.5C 4.25,14.2574 5.25736,13.25 6.5,13.25 Z M 18,15.5C 18.8284,15.5 19.5,16.1716 19.5,17C 19.5,17.8284 18.8284,18.5 18,18.5C 17.1716,18.5 16.5,17.8284 16.5,17C 16.5,16.1716 17.1716,15.5 18,15.5 Z "/>
</svg>
