<?xml version="1.0" encoding="utf-8"?>
<!DOCTYPE svg PUBLIC "-//W3C//DTD SVG 1.1//EN" "http://www.w3.org/Graphics/SVG/1.1/DTD/svg11.dtd">
<svg xmlns="http://www.w3.org/2000/svg" xmlns:xlink="http://www.w3.org/1999/xlink" version="1.1" baseProfile="full" width="24" height="24" viewBox="0 0 24.00 24.00" enable-background="new 0 0 24.00 24.00" xml:space="preserve">
	<path fill="#000000" fill-opacity="1" stroke-width="1.33333" stroke-linejoin="miter" d="M 4,3L 20,3C 21.1046,3 22,3.89543 22,5L 22,19C 22,20.1046 21.1046,21 20,21L 4,21C 2.89543,21 2,20.1046 2,19L 2,5C 2,3.89543 2.89543,3 4,3 Z M 4,5.00001L 4,13L 20,13L 20,5.00001L 4,5.00001 Z M 4,19L 11,19L 11,15L 4,15L 4,19 Z M 20,19L 20,15L 13,15L 13,19L 20,19 Z "/>
</svg>
