<?xml version="1.0" encoding="utf-8"?>
<!DOCTYPE svg PUBLIC "-//W3C//DTD SVG 1.1//EN" "http://www.w3.org/Graphics/SVG/1.1/DTD/svg11.dtd">
<svg xmlns="http://www.w3.org/2000/svg" xmlns:xlink="http://www.w3.org/1999/xlink" version="1.1" baseProfile="full" width="24" height="24" viewBox="0 0 24.00 24.00" enable-background="new 0 0 24.00 24.00" xml:space="preserve">
	<path fill="#000000" fill-opacity="1" stroke-width="1.33333" stroke-linejoin="miter" d="M 12,2C 8,2 4,2.5 4,6L 4,15.5C 4,17.43 5.57,19 7.5,19L 6,20.5L 6,21L 8.23,21L 10.23,19L 14,19L 16,21L 18,21L 18,20.5L 16.5,19C 18.43,19 20,17.43 20,15.5L 20,6C 20,2.5 16.42,2 12,2 Z M 7.5,17C 6.67,17 6,16.33 6,15.5C 6,14.67 6.67,14 7.5,14C 8.33,14 9,14.67 9,15.5C 9,16.33 8.33,17 7.5,17 Z M 11,10L 6,10L 6,6L 11,6L 11,10 Z M 13,10L 13,6L 18,6L 18,10L 13,10 Z M 16.5,17C 15.67,17 15,16.33 15,15.5C 15,14.67 15.67,14 16.5,14C 17.33,14 18,14.67 18,15.5C 18,16.33 17.33,17 16.5,17 Z "/>
</svg>
