<?xml version="1.0" encoding="utf-8"?>
<!DOCTYPE svg PUBLIC "-//W3C//DTD SVG 1.1//EN" "http://www.w3.org/Graphics/SVG/1.1/DTD/svg11.dtd">
<svg xmlns="http://www.w3.org/2000/svg" xmlns:xlink="http://www.w3.org/1999/xlink" version="1.1" baseProfile="full" width="24" height="24" viewBox="0 0 24.00 24.00" enable-background="new 0 0 24.00 24.00" xml:space="preserve">
	<path fill="#000000" fill-opacity="1" stroke-width="1.33333" stroke-linejoin="miter" d="M 12,4L 5,4C 3.34,4 2,5.34 2,7L 2,15C 2,16.66 3.34,18 5,18L 4,19L 4,20L 5,20L 7,17.97L 9,18L 9,13L 4,13L 4,5.98L 13,6L 13,8L 15,8L 15,7C 15,5.34 13.66,4 12,4 Z M 5,14C 5.55,14 6,14.45 6,15C 6,15.55 5.55,16 5,16C 4.45,16 4,15.55 4,15C 4,14.45 4.45,14 5,14 Z M 20.57,9.66C 20.43,9.26 20.05,9 19.6,9L 12.41,9C 11.95,9 11.58,9.26 11.43,9.66L 10,13.77L 10.01,19.28C 10.01,19.66 10.32,20 10.7,20L 11.32,20C 11.7,20 12,19.62 12,19.24L 12,18L 20,18L 20,19.24C 20,19.62 20.31,20 20.69,20L 21.3,20C 21.68,20 21.99,19.66 21.99,19.28L 22,17.91L 22,13.77L 20.57,9.66 Z M 12.41,10L 19.6,10L 20.63,13L 11.38,13L 12.41,10 Z M 12,16C 11.45,16 11,15.55 11,15C 11,14.45 11.45,14 12,14C 12.55,14 13,14.45 13,15C 13,15.55 12.55,16 12,16 Z M 20,16C 19.45,16 19,15.55 19,15C 19,14.45 19.45,14 20,14C 20.55,14 21,14.45 21,15C 21,15.55 20.55,16 20,16 Z "/>
</svg>
