<?xml version="1.0" encoding="utf-8"?>
<!DOCTYPE svg PUBLIC "-//W3C//DTD SVG 1.1//EN" "http://www.w3.org/Graphics/SVG/1.1/DTD/svg11.dtd">
<svg xmlns="http://www.w3.org/2000/svg" xmlns:xlink="http://www.w3.org/1999/xlink" version="1.1" baseProfile="full" width="24" height="24" viewBox="0 0 24.00 24.00" enable-background="new 0 0 24.00 24.00" xml:space="preserve">
	<g>
		<path fill="#000000" fill-opacity="1" stroke-width="1.33333" stroke-linejoin="miter" d="M 19,16.94L 19,8.5C 19,5.71 16.39,5.1 12.99,5.01L 13.75,3.5L 17,3.5L 17,2L 7,2L 7,3.5L 11.75,3.5L 10.99,5.02C 7.86,5.11 5,5.73 5,8.5L 5,16.94C 5,18.39 6.19,19.6 7.59,19.91L 6,21.5L 6,22L 8.23,22L 10.23,20L 14,20L 16,22L 18,22L 18,21.5L 16.5,20L 16.42,20C 18.11,20 19,18.63 19,16.94 Z M 12,18.5C 11.17,18.5 10.5,17.83 10.5,17C 10.5,16.17 11.17,15.5 12,15.5C 12.83,15.5 13.5,16.17 13.5,17C 13.5,17.83 12.83,18.5 12,18.5 Z M 17,14L 7,14L 7,9L 17,9L 17,14 Z "/>
	</g>
</svg>
