<?xml version="1.0" encoding="utf-8"?>
<!DOCTYPE svg PUBLIC "-//W3C//DTD SVG 1.1//EN" "http://www.w3.org/Graphics/SVG/1.1/DTD/svg11.dtd">
<svg xmlns="http://www.w3.org/2000/svg" xmlns:xlink="http://www.w3.org/1999/xlink" version="1.1" baseProfile="full" width="24" height="24" viewBox="0 0 24.00 24.00" enable-background="new 0 0 24.00 24.00" xml:space="preserve">
	<path fill="#000000" fill-opacity="1" stroke-linejoin="round" d="M 17,18C 16.4,18 16,17.6 16,17C 16,16.4 16.4,16 17,16C 17.6,16 18,16.4 18,17C 18,17.6 17.6,18 17,18 Z M 6.7,10.7L 7,7.3C 7,6.6 7.6,6 8.3,6L 15.6,6C 16.4,6 17,6.6 17,7.3L 17.3,10.6C 17.3,11.3 16.7,11.9 16,11.9L 8,11.9C 7.3,12 6.7,11.4 6.7,10.7 Z M 7,18C 6.4,18 6,17.6 6,17C 6,16.4 6.4,16 7,16C 7.6,16 8,16.4 8,17C 8,17.6 7.6,18 7,18 Z M 19,6C 19,4.9 18.1,4 17,4L 15,4C 15,2.9 14.1,2 13,2L 11,2C 9.9,2 9,2.9 9,4L 7,4C 5.9,4 5,4.9 5,6L 4,18C 4,19.1 4.9,20 6,20L 8,20L 7,22L 17.1,22L 16.1,20L 18,20C 19.1,20 20,19.1 20,18L 19,6 Z "/>
</svg>
