<?xml version="1.0" encoding="utf-8"?>
<!DOCTYPE svg PUBLIC "-//W3C//DTD SVG 1.1//EN" "http://www.w3.org/Graphics/SVG/1.1/DTD/svg11.dtd">
<svg xmlns="http://www.w3.org/2000/svg" xmlns:xlink="http://www.w3.org/1999/xlink" version="1.1" baseProfile="full" width="24" height="24" viewBox="0 0 24.00 24.00" enable-background="new 0 0 24.00 24.00" xml:space="preserve">
	<path fill="#000000" fill-opacity="1" stroke-width="1.33333" stroke-linejoin="miter" d="M 12.1746,5.81338C 11.8666,6.6944 11.4686,7.55442 11.0016,8.38544L 12.3536,9.73748C 13.1087,8.48944 13.7117,7.17641 14.1347,5.81338L 17.1558,5.81338L 17.1558,3.75033L 9.93559,3.75033L 9.93559,1.68728L 7.87454,1.68728L 7.87454,3.75033L 6.3675,3.75033L 8.43055,5.81338L 12.1746,5.81338 Z M 15.5267,12.9096L 17.0288,14.4116L 17.6728,12.6926L 19.0848,16.4666L 22.3929,19.7747L 18.7048,9.93848L 16.6418,9.93848L 15.5267,12.9096 Z M 1.30937,1.31026L -0.000661532,2.6193L 1.12937,3.75033L 0.654355,3.75033L 0.654355,5.81338L 3.19242,5.81338L 5.25547,7.87643L 4.45945,7.87643C 5.21247,9.55747 6.24349,11.1465 7.53353,12.5805L 2.2834,17.7577L 3.74843,19.2227L 8.90556,14.0656L 12.1136,17.2727L 12.8017,15.4256L 14.0977,16.7207L 11.9996,22.3148L 14.0627,22.3148L 15.2177,19.2207L 16.5998,19.2207L 21.3789,24.0018L 22.6909,22.6918L 1.30937,1.31026 Z "/>
</svg>
