<?xml version="1.0" encoding="utf-8"?>
<!DOCTYPE svg PUBLIC "-//W3C//DTD SVG 1.1//EN" "http://www.w3.org/Graphics/SVG/1.1/DTD/svg11.dtd">
<svg xmlns="http://www.w3.org/2000/svg" xmlns:xlink="http://www.w3.org/1999/xlink" version="1.1" baseProfile="full" width="24" height="24" viewBox="0 0 24.00 24.00" enable-background="new 0 0 24.00 24.00" xml:space="preserve">
	<path fill="#000000" fill-opacity="1" stroke-width="1.33333" stroke-linejoin="miter" d="M 15,2.0156C 16.9375,2.0156 18.5859,2.6953 19.9453,4.0547C 21.3047,5.4141 21.9844,7.0625 21.9844,9C 21.9844,10.5625 21.5156,11.9609 20.5781,13.1953C 19.6406,14.4297 18.4375,15.2656 16.9688,15.7031L 16.9922,15.375L 17.0156,15C 17.0156,12.8125 16.2266,10.9297 14.6484,9.3516C 13.0703,7.7734 11.1875,6.9844 9,6.9844L 8.625,7.0078L 8.29688,7.0312C 8.73437,5.5625 9.57031,4.3594 10.8047,3.4219C 12.0391,2.4844 13.4375,2.0156 15,2.0156 Z M 9,8C 12.866,8 16,11.134 16,15C 16,18.866 12.866,22 9,22C 5.13401,22 2,18.866 2,15C 2,11.134 5.13401,8 9,8 Z M 9,10C 6.23857,10 4,12.2386 4,15C 4,17.7614 6.23857,20 9,20C 11.7614,20 14,17.7614 14,15C 14,12.2386 11.7614,10 9,10 Z "/>
</svg>
