<?xml version="1.0" encoding="utf-8"?>
<!DOCTYPE svg PUBLIC "-//W3C//DTD SVG 1.1//EN" "http://www.w3.org/Graphics/SVG/1.1/DTD/svg11.dtd">
<svg xmlns="http://www.w3.org/2000/svg" xmlns:xlink="http://www.w3.org/1999/xlink" version="1.1" baseProfile="full" width="24" height="24" viewBox="0 0 24.00 24.00" enable-background="new 0 0 24.00 24.00" xml:space="preserve">
	<path fill="#000000" fill-opacity="1" stroke-width="0.2" stroke-linejoin="round" d="M 19.9994,4.99807C 21.1034,4.99807 21.9994,5.89406 21.9994,6.99807L 21.9994,16.9981C 21.9994,18.1021 21.1034,18.9981 19.9994,18.9981L 3.99941,18.9981C 2.89441,18.9981 1.99941,18.1021 1.99941,16.9981L 2.0094,6.99807C 2.0094,5.89406 2.89441,4.99807 3.99941,4.99807L 19.9994,4.99807 Z M 18,17L 18,15L 12.5,15L 10.5,17L 18,17 Z M 6,17L 8.47502,17L 15.353,10.121C 15.549,9.92599 15.549,9.60899 15.353,9.414L 13.586,7.646C 13.39,7.45101 13.074,7.45101 12.878,7.646L 6,14.525L 6,17 Z "/>
</svg>
