<?xml version="1.0" encoding="utf-8"?>
<!DOCTYPE svg PUBLIC "-//W3C//DTD SVG 1.1//EN" "http://www.w3.org/Graphics/SVG/1.1/DTD/svg11.dtd">
<svg xmlns="http://www.w3.org/2000/svg" xmlns:xlink="http://www.w3.org/1999/xlink" version="1.1" baseProfile="full" width="24" height="24" viewBox="0 0 24.00 24.00" enable-background="new 0 0 24.00 24.00" xml:space="preserve">
	<path fill="#000000" fill-opacity="1" stroke-width="1.33333" stroke-linejoin="miter" d="M 8.28,5.45L 6.49,4.55L 7.76,2L 16.23,2L 17.51,4.55L 15.72,5.44L 15,4L 9,4L 8.28,5.45 Z M 18.62,8L 14.09,8L 13.3,5L 10.7,5L 9.91,8L 5.38,8L 4.1,10.55L 5.89,11.44L 6.62,10L 17.38,10L 18.1,11.45L 19.89,10.56L 18.62,8 Z M 17.77,22L 15.7,22L 15.46,21.1L 12,15.9L 8.53,21.1L 8.3,22L 6.23,22L 9.12,11L 11.19,11L 10.83,12.35L 12,14.1L 13.16,12.35L 12.81,11L 14.88,11L 17.77,22 Z M 11.4,15L 10.5,13.65L 9.32,18.13L 11.4,15 Z M 14.68,18.12L 13.5,13.64L 12.6,15L 14.68,18.12 Z "/>
</svg>
