<?xml version="1.0" encoding="utf-8"?>
<!DOCTYPE svg PUBLIC "-//W3C//DTD SVG 1.1//EN" "http://www.w3.org/Graphics/SVG/1.1/DTD/svg11.dtd">
<svg xmlns="http://www.w3.org/2000/svg" xmlns:xlink="http://www.w3.org/1999/xlink" version="1.1" baseProfile="full" width="24" height="24" viewBox="0 0 24.00 24.00" enable-background="new 0 0 24.00 24.00" xml:space="preserve">
	<path fill="#000000" fill-opacity="1" stroke-width="1.33333" stroke-linejoin="miter" d="M 16.49,15.5L 22,15.5L 22,17L 16.49,17L 16.49,18.75L 14,16.25L 16.49,13.75L 16.49,15.5 Z M 19.51,19.75L 19.51,18L 22,20.5L 19.51,23L 19.51,21.25L 14,21.25L 14,19.75L 19.51,19.75 Z M 9.5,5.5C 8.4,5.5 7.5,4.6 7.5,3.5C 7.5,2.4 8.4,1.5 9.5,1.5C 10.6,1.5 11.5,2.4 11.5,3.5C 11.5,4.6 10.6,5.5 9.5,5.5 Z M 5.75,8.9L 4,9.65L 4,13L 2,13L 2,8.3L 7.25,6.15C 7.5,6.05 7.75,6 8,6C 8.7,6 9.35,6.35 9.7,6.95L 10.65,8.55C 11.55,10 13.15,11 15,11L 15,13C 12.8,13 10.85,12 9.55,10.4L 8.95,13.4L 11,15.45L 11,23L 9,23L 9,17L 6.85,15L 5.1,23L 3,23L 5.75,8.9 Z "/>
</svg>
