<?xml version="1.0" encoding="utf-8"?>
<!DOCTYPE svg PUBLIC "-//W3C//DTD SVG 1.1//EN" "http://www.w3.org/Graphics/SVG/1.1/DTD/svg11.dtd">
<svg xmlns="http://www.w3.org/2000/svg" xmlns:xlink="http://www.w3.org/1999/xlink" version="1.1" baseProfile="full" width="24" height="24" viewBox="0 0 24.00 24.00" enable-background="new 0 0 24.00 24.00" xml:space="preserve">
	<path fill="#000000" fill-opacity="1" stroke-width="1.33333" stroke-linejoin="miter" d="M 15,2C 18.866,2 22,5.134 22,9C 22,11.7057 20.4649,14.0529 18.2181,15.2181C 17.5525,16.5014 16.5014,17.5525 15.2181,18.2181C 14.0529,20.4649 11.7057,22 9,22C 5.13401,22 2,18.866 2,15C 2,12.2943 3.53513,9.94709 5.78193,8.78193C 6.44745,7.4986 7.4986,6.44745 8.78193,5.78193C 9.9471,3.53513 12.2943,2 15,2 Z M 12,19C 8.13401,19 5,15.866 5,11.9995C 4.37209,12.8353 4,13.8742 4,15C 4,17.7614 6.23857,20 9,20C 10.1258,20 11.1647,19.6279 12,19 Z M 15,16C 11.134,16 8,12.866 8,9L 8,8.99951C 7.37209,9.83526 7,10.8742 7,12C 7,14.7614 9.23857,17 12,17C 13.1258,17 14.1647,16.6279 15.0005,16L 15,16 Z M 15,4C 13.8742,4 12.8353,4.37209 11.9995,5L 12,5C 15.866,5 19,8.13401 19,12L 19,12.0005C 19.6279,11.1647 20,10.1258 20,9C 20,6.23858 17.7614,4 15,4 Z M 10,9C 10,11.7614 12.2386,14 15,14C 15.5979,14 16.1712,13.8951 16.7026,13.7026C 16.8951,13.1712 17,12.5979 17,12C 17,9.23858 14.7614,7.00001 12,7.00001C 11.4021,7.00001 10.8288,7.10493 10.2974,7.29738C 10.1049,7.82881 10,8.40215 10,9 Z "/>
</svg>
