<?xml version="1.0" encoding="utf-8"?>
<!DOCTYPE svg PUBLIC "-//W3C//DTD SVG 1.1//EN" "http://www.w3.org/Graphics/SVG/1.1/DTD/svg11.dtd">
<svg xmlns="http://www.w3.org/2000/svg" xmlns:xlink="http://www.w3.org/1999/xlink" version="1.1" baseProfile="full" width="24" height="24" viewBox="0 0 24.00 24.00" enable-background="new 0 0 24.00 24.00" xml:space="preserve">
	<path fill="#000000" fill-opacity="1" stroke-width="1.33333" stroke-linejoin="miter" d="M 15,12C 15,10.698 14.161,9.598 13,9.184L 13,6.816C 14.161,6.402 15,5.302 15,4C 15,2.346 13.654,1 12,1C 10.346,1 9,2.346 9,4C 9,5.302 9.839,6.402 11,6.816L 11,9.185C 9.839,9.598 9,10.698 9,12C 9,13.302 9.839,14.402 11,14.816L 11,17.185C 9.839,17.598 9,18.698 9,20C 9,21.654 10.346,23 12,23C 13.654,23 15,21.654 15,20C 15,18.698 14.161,17.598 13,17.184L 13,14.815C 14.161,14.402 15,13.302 15,12 Z M 12,3C 12.552,3 13,3.449 13,4C 13,4.551 12.552,5 12,5C 11.448,5 11,4.551 11,4C 11,3.449 11.448,3 12,3 Z M 12,21C 11.449,21 11,20.552 11,20C 11,19.448 11.449,19 12,19C 12.551,19 13,19.448 13,20C 13,20.552 12.551,21 12,21 Z "/>
</svg>
