<?xml version="1.0" encoding="utf-8"?>
<!DOCTYPE svg PUBLIC "-//W3C//DTD SVG 1.1//EN" "http://www.w3.org/Graphics/SVG/1.1/DTD/svg11.dtd">
<svg xmlns="http://www.w3.org/2000/svg" xmlns:xlink="http://www.w3.org/1999/xlink" version="1.1" baseProfile="full" width="24" height="24" viewBox="0 0 24.00 24.00" enable-background="new 0 0 24.00 24.00" xml:space="preserve">
	<path fill="#000000" fill-opacity="1" stroke-width="1.33333" stroke-linejoin="miter" d="M 18,11L 14.816,11C 14.402,9.83899 13.302,8.99999 12,8.99999C 10.698,8.99999 9.59801,9.83899 9.18401,11L 6.00001,11C 5.66601,11 4.00001,10.903 4.00001,8.99999L 4.00001,7.99999C 4.00001,6.17399 5.53601,6.00799 6.00001,5.99999L 16.184,5.99999C 16.598,7.16099 17.698,7.99999 19,7.99999C 20.654,7.99999 22,6.65399 22,4.99999C 22,3.34599 20.654,1.99999 19,1.99999C 17.698,1.99999 16.598,2.83899 16.184,3.99999L 6.00001,3.99999C 4.39301,3.99999 2.00001,5.06499 2.00001,7.99999L 2.00001,8.99999C 2.00001,11.935 4.39301,13 6.00001,13L 9.18401,13C 9.59801,14.161 10.698,15 12,15C 13.302,15 14.402,14.161 14.816,13L 18,13C 18.334,13 20,13.097 20,15L 20,16C 20,17.826 18.464,17.992 18,18L 7.81601,18C 7.40201,16.839 6.30201,16 5.00001,16C 3.34601,16 2.00001,17.346 2.00001,19C 2.00001,20.654 3.34601,22 5.00001,22C 6.30201,22 7.40201,21.161 7.81601,20L 18,20C 19.607,20 22,18.935 22,16L 22,15C 22,12.065 19.607,11 18,11 Z M 19,3.99999C 19.552,3.99999 20,4.44899 20,4.99999C 20,5.55099 19.552,5.99999 19,5.99999C 18.448,5.99999 18,5.55099 18,4.99999C 18,4.44899 18.448,3.99999 19,3.99999 Z M 5.00001,20C 4.44901,20 4.00001,19.552 4.00001,19C 4.00001,18.448 4.44901,18 5.00001,18C 5.55101,18 6.00001,18.448 6.00001,19C 6.00001,19.552 5.55101,20 5.00001,20 Z "/>
</svg>
