<?xml version="1.0" encoding="utf-8"?>
<!DOCTYPE svg PUBLIC "-//W3C//DTD SVG 1.1//EN" "http://www.w3.org/Graphics/SVG/1.1/DTD/svg11.dtd">
<svg xmlns="http://www.w3.org/2000/svg" xmlns:xlink="http://www.w3.org/1999/xlink" version="1.1" baseProfile="full" width="24" height="24" viewBox="0 0 24.00 24.00" enable-background="new 0 0 24.00 24.00" xml:space="preserve">
	<path fill="#000000" fill-opacity="1" stroke-width="1.33333" stroke-linejoin="miter" d="M 9,3L 9,4L 4,4L 4,6L 5,6L 5,19C 5,20.1046 5.89543,21 7,21L 17,21C 18.1046,21 19,20.1046 19,19L 19,6L 20,6L 20,4L 15,4L 15,3L 9,3 Z M 9,8L 11,8L 11,17L 9,17L 9,8 Z M 13,8L 15,8L 15,17L 13,17L 13,8 Z "/>
</svg>
