<?xml version="1.0" encoding="utf-8"?>
<!DOCTYPE svg PUBLIC "-//W3C//DTD SVG 1.1//EN" "http://www.w3.org/Graphics/SVG/1.1/DTD/svg11.dtd">
<svg xmlns="http://www.w3.org/2000/svg" xmlns:xlink="http://www.w3.org/1999/xlink" version="1.1" baseProfile="full" width="24" height="24" viewBox="0 0 24.00 24.00" enable-background="new 0 0 24.00 24.00" xml:space="preserve">
	<path fill="#000000" fill-opacity="1" stroke-linejoin="round" d="M 5,4L 19,4C 20.6568,4 22,5.34315 22,7L 22,11L 15,11L 15,10L 9,10L 9,11L 2,11L 2,7C 2,5.34315 3.34315,4 5,4 Z M 11,11L 13,11L 13,13L 11,13L 11,11 Z M 2,12L 9,12L 9,13L 11,15L 13,15L 15,13L 15,12L 22,12L 22,20L 2,20L 2,12 Z "/>
</svg>
