<?xml version="1.0" encoding="utf-8"?>
<!DOCTYPE svg PUBLIC "-//W3C//DTD SVG 1.1//EN" "http://www.w3.org/Graphics/SVG/1.1/DTD/svg11.dtd">
<svg xmlns="http://www.w3.org/2000/svg" xmlns:xlink="http://www.w3.org/1999/xlink" version="1.1" baseProfile="full" width="24" height="24" viewBox="0 0 24.00 24.00" enable-background="new 0 0 24.00 24.00" xml:space="preserve">
	<path fill="#000000" fill-opacity="1" stroke-width="1.33333" stroke-linejoin="miter" d="M 10.5,3C 8.01472,3 6,5.0147 6,7.5C 6.0021,8.1087 6.12767,8.7107 6.36914,9.2695C 5.49447,10.1168 5.00049,11.2823 5,12.5C 5,14.9853 7.01472,17 9.5,17C 10.0178,16.9995 10.5213,16.8931 11,16.7227L 11,21L 13,21L 13,15.7656C 13.4887,15.9068 13.9903,15.998 14.5,16C 17.5376,16 20,13.5376 20,10.5C 20,7.4624 17.5376,5 14.5,5C 14.4146,5.0013 14.3293,5.0045 14.2441,5.0098C 13.4109,3.7556 12.0057,3.0013 10.5,3 Z M 10.5,5C 11.8196,5.0016 12.9107,6.0286 12.9922,7.3457C 13.4627,7.1195 13.9779,7.0013 14.5,7C 16.433,7 18,8.567 18,10.5C 18,12.433 16.433,14 14.5,14C 13.5414,13.9992 12.625,13.6053 11.9648,12.9102C 11.7644,14.1155 10.7219,14.9994 9.5,15C 8.11929,15 7,13.8807 7,12.5C 7,11.1193 7.79688,10.541 9,9.791C 8.19531,8.7598 8,8.1584 8,7.5C 8,6.1193 9.11929,5 10.5,5 Z "/>
</svg>
