<?xml version="1.0" encoding="utf-8"?>
<!DOCTYPE svg PUBLIC "-//W3C//DTD SVG 1.1//EN" "http://www.w3.org/Graphics/SVG/1.1/DTD/svg11.dtd">
<svg xmlns="http://www.w3.org/2000/svg" xmlns:xlink="http://www.w3.org/1999/xlink" version="1.1" baseProfile="full" width="24" height="24" viewBox="0 0 24.00 24.00" enable-background="new 0 0 24.00 24.00" xml:space="preserve">
	<path fill="#000000" fill-opacity="1" stroke-linejoin="round" d="M 11,21L 11,16.7439C 10.5308,16.9098 10.026,17 9.5,17C 7.01472,17 5,14.9853 5,12.5C 5,11.2346 5.52228,10.0912 6.36302,9.27364C 6.12938,8.7294 6,8.12981 6,7.5C 6,5.01472 8.01472,3 10.5,3C 12.0627,3 13.4393,3.79654 14.2461,5.00576C 14.3302,5.00193 14.4149,5 14.5,5C 17.5376,5 20,7.46243 20,10.5C 20,13.5376 17.5376,16 14.5,16C 13.98,16 13.4768,15.9278 13,15.793L 13,21L 11,21 Z "/>
</svg>
