<?xml version="1.0" encoding="utf-8"?>
<!DOCTYPE svg PUBLIC "-//W3C//DTD SVG 1.1//EN" "http://www.w3.org/Graphics/SVG/1.1/DTD/svg11.dtd">
<svg xmlns="http://www.w3.org/2000/svg" xmlns:xlink="http://www.w3.org/1999/xlink" version="1.1" baseProfile="full" width="24" height="24" viewBox="0 0 24.00 24.00" enable-background="new 0 0 24.00 24.00" xml:space="preserve">
	<path fill="#000000" fill-opacity="1" stroke-width="1.33333" stroke-linejoin="miter" d="M 19.5,2.00001L 4.5,2.00001C 3.11929,2.00001 2,3.1193 2,4.5L 2,19.5C 2,20.8807 3.11929,22 4.5,22L 19.5,22C 20.8807,22 22,20.8807 22,19.5L 22,4.5C 22,3.1193 20.8807,2.00001 19.5,2.00001 Z M 10.7,17.2C 10.7,17.8627 10.1627,18.4 9.5,18.4L 5.8,18.4C 5.13726,18.4 4.6,17.8627 4.6,17.2L 4.6,5.8C 4.6,5.1373 5.13726,4.6 5.8,4.6L 9.5,4.6C 10.1627,4.6 10.7,5.1373 10.7,5.8L 10.7,17.2 Z M 19.4,12.2C 19.4,12.8627 18.8627,13.4 18.2,13.4L 14.5,13.4C 13.8373,13.4 13.3,12.8627 13.3,12.2L 13.3,5.8C 13.3,5.1373 13.8373,4.6 14.5,4.6L 18.2,4.6C 18.8627,4.6 19.4,5.1373 19.4,5.8L 19.4,12.2 Z "/>
</svg>
