<?xml version="1.0" encoding="utf-8"?>
<!DOCTYPE svg PUBLIC "-//W3C//DTD SVG 1.1//EN" "http://www.w3.org/Graphics/SVG/1.1/DTD/svg11.dtd">
<svg xmlns="http://www.w3.org/2000/svg" xmlns:xlink="http://www.w3.org/1999/xlink" version="1.1" baseProfile="full" width="24" height="24" viewBox="0 0 24.00 24.00" enable-background="new 0 0 24.00 24.00" xml:space="preserve">
	<path fill="#000000" fill-opacity="1" stroke-width="0.2" stroke-linejoin="round" d="M 2.9975,3.99875L 17.0025,3.99875L 17.0025,7.9975L 20,7.9975L 22.9975,11.9975L 22.9975,16.9975L 21.0013,16.9975C 21.0013,18.6575 19.6587,20 17.9975,20C 16.3425,20 15,18.6575 15,16.9975L 8.99875,16.9975C 8.99875,18.6575 7.65625,20 6.00125,20C 4.34125,20 2.9975,18.6575 2.9975,16.9975L 1.00125,16.9975L 1.00125,5.99625C 1.00125,4.8925 1.895,3.99875 2.9975,3.99875 Z M 17.0025,9.49751L 17.0025,11.9975L 21.465,11.9975L 19.5025,9.49751L 17.0025,9.49751 Z M 6.00125,15.4975C 5.17125,15.4975 4.5025,16.1713 4.5025,16.9975C 4.5025,17.8275 5.17125,18.4963 6.00125,18.4963C 6.82625,18.4963 7.5,17.8275 7.5,16.9975C 7.5,16.1713 6.82625,15.4975 6.00125,15.4975 Z M 17.9975,15.4975C 17.1725,15.4975 16.4987,16.1713 16.4987,16.9975C 16.4987,17.8275 17.1725,18.4963 17.9975,18.4963C 18.8287,18.4963 19.5025,17.8275 19.5025,16.9975C 19.5025,16.1713 18.8287,15.4975 17.9975,15.4975 Z M 8,14L 14,8.00001L 12.5898,6.58009L 8,11.17L 5.91,9.08L 4.5,10.5L 8,14 Z "/>
</svg>
