<?xml version="1.0" encoding="utf-8"?>
<!DOCTYPE svg PUBLIC "-//W3C//DTD SVG 1.1//EN" "http://www.w3.org/Graphics/SVG/1.1/DTD/svg11.dtd">
<svg xmlns="http://www.w3.org/2000/svg" xmlns:xlink="http://www.w3.org/1999/xlink" version="1.1" baseProfile="full" width="24" height="24" viewBox="0 0 24.00 24.00" enable-background="new 0 0 24.00 24.00" xml:space="preserve">
	<path fill="#000000" fill-opacity="1" stroke-width="0.2" stroke-linejoin="round" d="M 2.9975,3.99875C 1.895,3.99875 1.00125,4.8925 1.00125,5.99625L 1.00125,16.9975L 2.9975,16.9975C 2.9975,18.6575 4.34125,20 6.00125,20C 7.65625,20 8.99875,18.6575 8.99875,16.9975L 15,16.9975C 15,18.6575 16.3425,20 17.9975,20C 19.6587,20 21.0013,18.6575 21.0013,16.9975L 22.9975,16.9975L 22.9975,11.9975L 20,7.9975L 17.0025,7.9975L 17.0025,3.99875M 10,6.00125L 13.9987,10L 10,13.9987L 10,11.0012L 3.99875,11.0012L 3.99875,8.99875L 10,8.99875M 17.0025,9.4975L 19.5025,9.4975L 21.465,11.9975L 17.0025,11.9975M 6.00125,15.4975C 6.82625,15.4975 7.5,16.1712 7.5,16.9975C 7.5,17.8275 6.82625,18.4963 6.00125,18.4963C 5.17125,18.4963 4.5025,17.8275 4.5025,16.9975C 4.5025,16.1712 5.17125,15.4975 6.00125,15.4975 Z M 17.9975,15.4975C 18.8287,15.4975 19.5025,16.1712 19.5025,16.9975C 19.5025,17.8275 18.8287,18.4963 17.9975,18.4963C 17.1725,18.4963 16.4988,17.8275 16.4988,16.9975C 16.4988,16.1712 17.1725,15.4975 17.9975,15.4975 Z "/>
</svg>
