<?xml version="1.0" encoding="utf-8"?>
<!DOCTYPE svg PUBLIC "-//W3C//DTD SVG 1.1//EN" "http://www.w3.org/Graphics/SVG/1.1/DTD/svg11.dtd">
<svg xmlns="http://www.w3.org/2000/svg" xmlns:xlink="http://www.w3.org/1999/xlink" version="1.1" baseProfile="full" width="24" height="24" viewBox="0 0 24.00 24.00" enable-background="new 0 0 24.00 24.00" xml:space="preserve">
	<path fill="#000000" fill-opacity="1" stroke-width="0.2" stroke-linejoin="round" d="M 6,0C 9.31371,0 12,2.68629 12,6C 12,9.31371 9.31371,12 6,12C 2.68629,12 0,9.31371 0,6C 0,2.68629 2.68629,0 6,0 Z M 2,5L 2,7L 5,7L 5,10L 7,10L 7,7L 10,7L 10,5L 7,5L 7,2L 5,2L 5,5L 2,5 Z M 17.9994,20.4981C 18.8274,20.4981 19.4994,19.8261 19.4994,18.9981C 19.4994,18.1701 18.8274,17.4981 17.9994,17.4981C 17.1714,17.4981 16.4994,18.1701 16.4994,18.9981C 16.4994,19.8261 17.1714,20.4981 17.9994,20.4981 Z M 19.4994,11.4981L 16.9994,11.4981L 16.9994,13.9981L 21.4634,13.9981L 19.4994,11.4981 Z M 5.99941,20.4981C 6.82741,20.4981 7.49941,19.8261 7.49941,18.9981C 7.49941,18.1701 6.82741,17.4981 5.99941,17.4981C 5.17141,17.4981 4.49941,18.1701 4.49941,18.9981C 4.49941,19.8261 5.17141,20.4981 5.99941,20.4981 Z M 19.9994,9.99807L 22.9994,13.9981L 22.9994,18.9981L 20.9994,18.9981C 20.9994,20.6551 19.6564,21.9981 17.9994,21.9981C 16.3424,21.9981 14.9994,20.6551 14.9994,18.9981L 8.99941,18.9981C 8.99941,20.6551 7.65641,21.9981 5.99941,21.9981C 4.34241,21.9981 2.99941,20.6551 2.99941,18.9981L 0.99941,18.9981L 0.99941,12.2449C 2.3691,13.3431 4.10783,14 6,14C 10.4183,14 14,10.4183 14,5.99807L 16.9994,5.99807L 16.9994,9.99807L 19.9994,9.99807 Z "/>
</svg>
