<?xml version="1.0" encoding="utf-8"?>
<!DOCTYPE svg PUBLIC "-//W3C//DTD SVG 1.1//EN" "http://www.w3.org/Graphics/SVG/1.1/DTD/svg11.dtd">
<svg xmlns="http://www.w3.org/2000/svg" xmlns:xlink="http://www.w3.org/1999/xlink" version="1.1" baseProfile="full" width="24" height="24" viewBox="0 0 24.00 24.00" enable-background="new 0 0 24.00 24.00" xml:space="preserve">
	<path fill="#000000" fill-opacity="1" stroke-linejoin="round" d="M 22,15L 22,17L 10,17C 10,18.6569 8.65685,20 7,20C 5.34315,20 4,18.6569 4,17L 2,17L 2,6C 2,4.89543 2.89543,4 4,4L 17,4C 18.1046,4 19,4.89543 19,6L 19,15L 22,15 Z M 7,16C 6.44771,16 6,16.4477 6,17C 6,17.5523 6.44771,18 7,18C 7.55228,18 8,17.5523 8,17C 8,16.4477 7.55228,16 7,16 Z "/>
</svg>
