<?xml version="1.0" encoding="utf-8"?>
<!DOCTYPE svg PUBLIC "-//W3C//DTD SVG 1.1//EN" "http://www.w3.org/Graphics/SVG/1.1/DTD/svg11.dtd">
<svg xmlns="http://www.w3.org/2000/svg" xmlns:xlink="http://www.w3.org/1999/xlink" version="1.1" baseProfile="full" width="24" height="24" viewBox="0 0 24.00 24.00" enable-background="new 0 0 24.00 24.00" xml:space="preserve">
	<path fill="#000000" fill-opacity="1" stroke-width="0.2" stroke-linejoin="round" d="M 3,13.5L 2.25,12L 7.5,12L 6.9,10.5L 2,10.5L 1.25,9L 9.04999,9.00001L 8.45,7.50002L 1.11111,7.5L 0.250002,6L 3.99994,6C 4.00001,4.89506 4.89498,4.00012 5.99994,4.00012L 18,4L 18,8L 21,8L 24,12L 24,17L 22,17C 22,18.657 20.657,20 19,20C 17.343,20 16,18.657 16,17L 11.9999,17.0001C 11.9999,18.6571 10.6569,20.0001 8.99994,20.0001C 7.34294,20.0001 5.99994,18.6571 5.99994,17.0001L 3.99994,17.0001L 3.99997,13.5L 3,13.5 Z M 19,18.5C 19.828,18.5 20.5,17.828 20.5,17C 20.5,16.172 19.828,15.5 19,15.5C 18.172,15.5 17.5,16.172 17.5,17C 17.5,17.828 18.172,18.5 19,18.5 Z M 20.5,9.50001L 18,9.50001L 18,12L 22.464,12L 20.5,9.50001 Z M 8.99993,18.5001C 9.82794,18.5001 10.4999,17.8281 10.4999,17.0001C 10.4999,16.1721 9.82794,15.5001 8.99993,15.5001C 8.17193,15.5001 7.49993,16.1721 7.49993,17.0001C 7.49993,17.8281 8.17193,18.5001 8.99993,18.5001 Z "/>
</svg>
