<?xml version="1.0" encoding="utf-8"?>
<!DOCTYPE svg PUBLIC "-//W3C//DTD SVG 1.1//EN" "http://www.w3.org/Graphics/SVG/1.1/DTD/svg11.dtd">
<svg xmlns="http://www.w3.org/2000/svg" xmlns:xlink="http://www.w3.org/1999/xlink" version="1.1" baseProfile="full" width="24" height="24" viewBox="0 0 24.00 24.00" enable-background="new 0 0 24.00 24.00" xml:space="preserve">
	<path fill="#000000" fill-opacity="1" stroke-width="1.33333" stroke-linejoin="miter" d="M 16,21L 8,21C 7.44772,21 7,20.5523 7,20L 7,12.07L 5.7,13.07C 5.30996,13.4577 4.68004,13.4577 4.29,13.07L 1.46,10.29C 1.07228,9.9 1.07228,9.27 1.46,8.88L 7.34,3L 9,3C 9.2935,4.8025 10.3998,6.3698 12,7.25C 13.6002,6.3698 14.7065,4.8025 15,3L 16.66,3L 22.54,8.88C 22.9277,9.27 22.9277,9.9 22.54,10.29L 19.71,13.12C 19.32,13.5077 18.69,13.5077 18.3,13.12L 17,12.12L 17,20C 17,20.5523 16.5523,21 16,21"/>
</svg>
