<?xml version="1.0" encoding="utf-8"?>
<!DOCTYPE svg PUBLIC "-//W3C//DTD SVG 1.1//EN" "http://www.w3.org/Graphics/SVG/1.1/DTD/svg11.dtd">
<svg xmlns="http://www.w3.org/2000/svg" xmlns:xlink="http://www.w3.org/1999/xlink" version="1.1" baseProfile="full" width="24" height="24" viewBox="0 0 24.00 24.00" enable-background="new 0 0 24.00 24.00" xml:space="preserve">
	<path fill="#000000" fill-opacity="1" stroke-width="1.33333" stroke-linejoin="miter" d="M 6,2C 4.89543,2 4,2.8954 4,4L 4,20C 4,21.1046 4.89543,22 6,22L 18,22C 19.1046,22 20,21.1046 20,20L 20,4C 20,2.8954 19.1046,2 18,2L 6,2 Z M 7,4C 7.55228,4 8,4.4477 8,5C 8,5.5523 7.55228,6 7,6C 6.44772,6 6,5.5523 6,5C 6,4.4477 6.44772,4 7,4 Z M 10,4C 10.5523,4 11,4.4477 11,5C 11,5.5523 10.5523,6 10,6C 9.44772,6 9,5.5523 9,5C 9,4.4477 9.44772,4 10,4 Z M 12,8C 15.3137,8 18,10.6863 18,14C 18,17.3137 15.3137,20 12,20C 8.68629,20 6,17.3137 6,14C 6,10.6863 8.68629,8 12,8 Z M 9.32422,10C 8.91245,10.8888 8.5,11.7768 8.5,12.666C 8.5,13.5548 9.32422,14.4452 9.32422,15.334C 9.32422,16.2232 8.5,17.1112 8.5,18L 9.73438,18C 9.73438,17.1112 10.5586,16.2232 10.5586,15.334C 10.5586,14.4452 9.73438,13.5548 9.73438,12.666C 9.73438,11.7768 10.1468,10.8888 10.5586,10L 9.32422,10 Z M 11.7949,10C 11.3832,10.8888 10.9707,11.7768 10.9707,12.666C 10.9707,13.5548 11.7949,14.4452 11.7949,15.334C 11.7949,16.2232 10.9707,17.1112 10.9707,18L 12.2051,18C 12.2051,17.1112 13.0293,16.2232 13.0293,15.334C 13.0293,14.4452 12.2051,13.5548 12.2051,12.666C 12.2051,11.7768 12.6175,10.8888 13.0293,10L 11.7949,10 Z M 14.2656,10C 13.8539,10.8888 13.4414,11.7768 13.4414,12.666C 13.4414,13.5548 14.2656,14.4452 14.2656,15.334C 14.2656,16.2232 13.4414,17.1112 13.4414,18L 14.6758,18C 14.6758,17.1112 15.5,16.2232 15.5,15.334C 15.5,14.4452 14.6758,13.5548 14.6758,12.666C 14.6758,11.7768 15.0882,10.8888 15.5,10L 14.2656,10 Z "/>
</svg>
