<?xml version="1.0" encoding="utf-8"?>
<!DOCTYPE svg PUBLIC "-//W3C//DTD SVG 1.1//EN" "http://www.w3.org/Graphics/SVG/1.1/DTD/svg11.dtd">
<svg xmlns="http://www.w3.org/2000/svg" xmlns:xlink="http://www.w3.org/1999/xlink" version="1.1" baseProfile="full" width="24" height="24" viewBox="0 0 24.00 24.00" enable-background="new 0 0 24.00 24.00" xml:space="preserve">
	<path fill="#000000" fill-opacity="1" stroke-width="1.33333" stroke-linejoin="miter" d="M 6,2L 18,2C 19.1046,2 20,2.8954 20,4L 20,20C 20,21.1046 19.1046,22 18,22L 6,22C 4.89543,22 4,21.1046 4,20L 4,4C 4,2.8954 4.89543,2 6,2 Z M 7,4C 6.44772,4 6,4.4477 6,5C 6,5.5523 6.44772,6 7,6C 7.55228,6 8,5.5523 8,5C 8,4.4477 7.55228,4 7,4 Z M 10,4C 9.44772,4 9,4.4477 9,5C 9,5.5523 9.44772,6 10,6C 10.5523,6 11,5.5523 11,5C 11,4.4477 10.5523,4 10,4 Z M 12,8C 8.68629,8 6,10.6863 6,14C 6,17.3137 8.68629,20 12,20C 15.3137,20 18,17.3137 18,14C 18,10.6863 15.3137,8 12,8 Z M 8.10742,10.5L 9.99805,10.5C 9.7582,11.8798 9.99813,12.6691 10.5781,13.2891C 11.6784,14.3594 12.1592,15.7103 11.8887,17.5L 9.99805,17.5C 10.2379,16.1202 9.99797,15.3309 9.41797,14.7109C 8.31766,13.6404 7.84883,12.2897 8.10742,10.5 Z M 12.1074,10.5L 13.998,10.5C 13.7582,11.8798 13.9981,12.6691 14.5781,13.2891C 15.6784,14.3594 16.1592,15.7103 15.8887,17.5L 13.998,17.5C 14.2379,16.1202 13.998,15.3309 13.418,14.7109C 12.3177,13.6404 11.8488,12.2897 12.1074,10.5 Z "/>
</svg>
