<?xml version="1.0" encoding="utf-8"?>
<!DOCTYPE svg PUBLIC "-//W3C//DTD SVG 1.1//EN" "http://www.w3.org/Graphics/SVG/1.1/DTD/svg11.dtd">
<svg xmlns="http://www.w3.org/2000/svg" xmlns:xlink="http://www.w3.org/1999/xlink" version="1.1" baseProfile="full" width="24" height="24" viewBox="0 0 24.00 24.00" enable-background="new 0 0 24.00 24.00" xml:space="preserve">
	<path fill="#000000" fill-opacity="1" stroke-width="0.2" stroke-linejoin="round" d="M 5,2.9978L 5,12.0025L 2.9975,12.0025L 2.9975,13.9987L 5,13.9987L 5,21.0012L 7.0025,21.0012L 7.0025,13.9987L 8.99875,13.9987L 8.99875,12.0025L 7.0025,12.0025L 7.0025,2.9978M 11.0013,2.9978L 11.0013,7.9975L 8.99875,7.9975L 8.99875,10L 11.0013,10L 11.0013,21.0012L 12.9975,21.0012L 12.9975,10L 15,10L 15,7.9975L 12.9975,7.9975L 12.9975,2.9978M 17.0025,2.9978L 17.0025,13.9987L 15,13.9987L 15,16.0012L 17.0025,16.0012L 17.0025,21.0012L 18.9988,21.0012L 18.9988,16.0012L 21.0013,16.0012L 21.0013,13.9987L 18.9988,13.9987L 18.9988,2.9978"/>
</svg>
