<?xml version="1.0" encoding="utf-8"?>
<!DOCTYPE svg PUBLIC "-//W3C//DTD SVG 1.1//EN" "http://www.w3.org/Graphics/SVG/1.1/DTD/svg11.dtd">
<svg xmlns="http://www.w3.org/2000/svg" xmlns:xlink="http://www.w3.org/1999/xlink" version="1.1" baseProfile="full" width="24" height="24" viewBox="0 0 24.00 24.00" enable-background="new 0 0 24.00 24.00" xml:space="preserve">
	<path fill="#000000" fill-opacity="1" stroke-width="1.33333" stroke-linejoin="miter" d="M 3,17L 3,19L 9,19L 9,17L 3,17 Z M 3,5L 3,7L 13,7L 13,5L 3,5 Z M 13,21L 13,19L 21,19L 21,17L 13,17L 13,15L 11,15L 11,21L 13,21 Z M 7,9L 7,11L 3,11L 3,13L 7,13L 7,15L 9,15L 9,9L 7,9 Z M 21,13L 21,11L 11,11L 11,13L 21,13 Z M 15,9L 17,9L 17,7L 21,7L 21,5L 17,5L 17,3L 15,3L 15,9 Z "/>
</svg>
