<?xml version="1.0" encoding="utf-8"?>
<!DOCTYPE svg PUBLIC "-//W3C//DTD SVG 1.1//EN" "http://www.w3.org/Graphics/SVG/1.1/DTD/svg11.dtd">
<svg xmlns="http://www.w3.org/2000/svg" xmlns:xlink="http://www.w3.org/1999/xlink" version="1.1" baseProfile="full" width="24" height="24" viewBox="0 0 24.00 24.00" enable-background="new 0 0 24.00 24.00" xml:space="preserve">
	<path fill="#000000" fill-opacity="1" stroke-width="1.33333" stroke-linejoin="miter" d="M 8.47115,5.95326C 8.95367,5.67105 9.47301,5.44494 10.0202,5.2839L 10,4C 9.98498,2.8965 10.8666,1.9894 11.97,1.973C 13.1319,1.988 14.015,2.8955 14,4L 13.9819,5.28452C 14.5285,5.44558 15.0473,5.67155 15.5293,5.95351L 13.928,8.072L 10.074,8.072L 8.47115,5.95326 Z M 19,12C 19,12.479 18.9519,12.9467 18.8603,13.3986L 16.332,12.619L 15.142,8.955L 16.7376,6.84675C 17.1715,7.2459 17.5549,7.69916 17.8771,8.19582C 18.6663,8.13077 19.4331,8.24664 20.107,8.59C 21.1401,9.1187 21.8439,10.1252 21.986,11.277L 18.9911,11.6449C 18.997,11.7625 19,11.8809 19,12 Z M 5,12C 5,11.8814 5.00295,11.7634 5.00878,11.6462L 2.015,11.277C 2.1567,10.1256 2.8597,9.1192 3.892,8.59C 4.56717,8.24536 5.33584,8.12931 6.08239,8.25908C 6.40615,7.74801 6.79428,7.28177 7.23539,6.87176L 8.861,8.95401L 7.67,12.617L 5.13965,13.3982C 5.04807,12.9464 5,12.4788 5,12 Z M 10.237,9.572L 13.764,9.572L 14.854,12.928L 12,15L 9.147,12.928L 10.237,9.572 Z M 8.131,14.045L 11.251,16.309L 11.2503,18.9603C 10.6823,18.8998 10.1347,18.7715 9.61558,18.5834L 8.388,21.338C 7.32753,20.8659 6.57012,19.8987 6.366,18.756C 6.23448,18.0092 6.34907,17.24 6.69235,16.5641C 6.2444,16.0436 5.87169,15.4565 5.59111,14.8197L 8.131,14.045 Z M 15.87,14.045L 18.4089,14.8197C 18.1287,15.4556 17.7566,16.0419 17.3095,16.5619C 17.6533,17.2384 17.7679,18.0085 17.636,18.756C 17.4319,19.8987 16.6745,20.8659 15.614,21.338L 14.3881,18.5821C 13.858,18.7744 13.3309,18.9409 12.75,19L 12.751,16.309L 15.87,14.045 Z "/>
</svg>
