<?xml version="1.0" encoding="utf-8"?>
<!DOCTYPE svg PUBLIC "-//W3C//DTD SVG 1.1//EN" "http://www.w3.org/Graphics/SVG/1.1/DTD/svg11.dtd">
<svg xmlns="http://www.w3.org/2000/svg" xmlns:xlink="http://www.w3.org/1999/xlink" version="1.1" baseProfile="full" width="24" height="24" viewBox="0 0 24.00 24.00" enable-background="new 0 0 24.00 24.00" xml:space="preserve">
	<path fill="#000000" fill-opacity="1" stroke-linejoin="round" d="M 4,2.00001L 22,2.00002L 22,14L 17,19L 13,19L 10,22L 7,22L 7,19L 2,19L 2,6.00001L 4,2.00001 Z M 20,13L 20,4.00001L 5.99999,4.00001L 6,16L 9,16L 9,19L 12,16L 17,16L 20,13 Z M 15,7L 17,7L 17,12L 15,12L 15,7 Z M 12,7L 12,12L 10,12L 10,7L 12,7 Z "/>
</svg>
