<?xml version="1.0" encoding="utf-8"?>
<!DOCTYPE svg PUBLIC "-//W3C//DTD SVG 1.1//EN" "http://www.w3.org/Graphics/SVG/1.1/DTD/svg11.dtd">
<svg xmlns="http://www.w3.org/2000/svg" xmlns:xlink="http://www.w3.org/1999/xlink" version="1.1" baseProfile="full" width="24" height="24" viewBox="0 0 24.00 24.00" enable-background="new 0 0 24.00 24.00" xml:space="preserve">
	<path fill="#000000" fill-opacity="1" stroke-width="1.33333" stroke-linejoin="miter" d="M 2,7L 2,9L 6,9L 6,11L 4,11C 2.89543,11 2,11.8954 2,13L 2,17L 8,17L 8,15L 4,15L 4,13L 6,13C 7.10457,13 8,12.1046 8,11L 8,9C 8,7.89 7.1,7 6,7L 2,7 Z M 9,7L 9,17L 11,17L 11,13L 14,13L 14,11L 11,11L 11,9L 15,9L 15,7L 9,7 Z M 18,7C 16.8954,7 16,7.8954 16,9L 16,17L 18,17L 18,14L 20,14L 20,17L 22,17L 22,9C 22,7.8954 21.1046,7 20,7L 18,7 Z M 18,9L 20,9L 20,12L 18,12L 18,9 Z "/>
</svg>
