<?xml version="1.0" encoding="utf-8"?>
<!DOCTYPE svg PUBLIC "-//W3C//DTD SVG 1.1//EN" "http://www.w3.org/Graphics/SVG/1.1/DTD/svg11.dtd">
<svg xmlns="http://www.w3.org/2000/svg" xmlns:xlink="http://www.w3.org/1999/xlink" version="1.1" baseProfile="full" width="24" height="24" viewBox="0 0 24.00 24.00" enable-background="new 0 0 24.00 24.00" xml:space="preserve">
	<path fill="#000000" fill-opacity="1" stroke-linejoin="round" d="M 20,13L 16,13C 16,14.104 15.104,15 14,15L 10,15C 8.896,15 8,14.104 8,13L 4,13L 2,18L 2,20C 2,21.104 2.896,22 4,22L 20,22C 21.104,22 22,21.104 22,20L 22,18M 6,20C 5.10933,20 4.66133,18.9213 5.292,18.292C 5.92133,17.6613 7,18.1093 7,19C 7,19.552 6.552,20 6,20 Z M 10,20C 9.10933,20 8.66133,18.9213 9.292,18.292C 9.92133,17.6613 11,18.1093 11,19C 11,19.552 10.552,20 10,20 Z M 14,20C 13.1093,20 12.6613,18.9213 13.292,18.292C 13.9213,17.6613 15,18.1093 15,19C 15,19.552 14.552,20 14,20 Z M 18,20C 17.1093,20 16.6613,18.9213 17.292,18.292C 17.9213,17.6613 19,18.1093 19,19C 19,19.552 18.552,20 18,20 Z M 18,10L 18,3L 6,3L 6,10L 3,10L 3,12L 21,12L 21,10M 8,5L 16,5L 16,6L 8,6M 8,7L 14,7L 14,8L 8,8"/>
</svg>
