<?xml version="1.0" encoding="utf-8"?>
<!DOCTYPE svg PUBLIC "-//W3C//DTD SVG 1.1//EN" "http://www.w3.org/Graphics/SVG/1.1/DTD/svg11.dtd">
<svg xmlns="http://www.w3.org/2000/svg" xmlns:xlink="http://www.w3.org/1999/xlink" version="1.1" baseProfile="full" width="24" height="24" viewBox="0 0 24.00 24.00" enable-background="new 0 0 24.00 24.00" xml:space="preserve">
	<path fill="#000000" fill-opacity="1" stroke-linejoin="round" d="M 12,2C 17.5228,2 22,6.47716 22,12C 22,17.5228 17.5228,22 12,22C 6.64482,22 2.2728,17.7906 2.01228,12.5L 9,12.5L 9,14.5C 9,14.7761 9.22386,15 9.5,15L 14.5,15C 14.7761,15 15,14.7761 15,14.5L 15,9.5C 15,9.22386 14.7761,9 14.5,9L 9.5,9C 9.22386,9 9,9.22386 9,9.5L 9,11.5L 2.01228,11.5C 2.27279,6.20945 6.64481,2 12,2 Z "/>
</svg>
