<?xml version="1.0" encoding="utf-8"?>
<!DOCTYPE svg PUBLIC "-//W3C//DTD SVG 1.1//EN" "http://www.w3.org/Graphics/SVG/1.1/DTD/svg11.dtd">
<svg xmlns="http://www.w3.org/2000/svg" xmlns:xlink="http://www.w3.org/1999/xlink" version="1.1" baseProfile="full" width="24" height="24" viewBox="0 0 24.00 24.00" enable-background="new 0 0 24.00 24.00" xml:space="preserve">
	<path fill="#000000" fill-opacity="1" stroke-width="1.33333" stroke-linejoin="miter" d="M 6.37526,13.2388L 6.37526,13.2388C 6.37526,11.8396 6.37526,10.4418 6.37526,9.04261L 7.39947,9.04261L 7.39947,15.8413L 6.38506,15.8413C 6.38506,15.63 6.38506,15.4201 6.38506,15.2088C 5.92752,15.6846 5.29369,15.9574 4.5829,15.9574C 3.12075,15.9574 2,14.8982 2,13.2975L 2,9.04261L 3.02141,9.04261L 3.02141,13.2388C 3.02141,14.3343 3.74339,15.0437 4.69904,15.0437C 5.64349,15.0437 6.37526,14.3147 6.37526,13.2388M 9.14286,9.04261L 9.14286,11.5192C 9.37233,11.2855 9.64657,11.0994 9.95019,10.9721C 10.2538,10.8462 10.5798,10.7818 10.9086,10.7818C 12.3694,10.7818 13.5209,11.9375 13.5209,13.3745C 13.5209,14.8017 12.3694,15.9574 10.9086,15.9574C 10.577,15.9574 10.251,15.893 9.94599,15.7671C 9.64097,15.6384 9.36533,15.4537 9.13306,15.2186C 9.13306,15.4257 9.13306,15.6342 9.13306,15.8413C 8.80845,15.8413 8.48244,15.8413 8.15783,15.8413L 8.16063,9.04261L 9.14286,9.04261M 12.5457,13.3745L 12.5457,13.3745C 12.5457,12.4132 11.7747,11.6549 10.8387,11.6549C 9.89282,11.6549 9.12607,12.4132 9.12607,13.3745C 9.12607,14.3245 9.88303,15.0927 10.8387,15.0927C 11.7747,15.0927 12.5457,14.3245 12.5457,13.3745M 16.4634,10.7916C 17.8962,10.7916 18.9484,11.8872 18.9484,13.3647L 18.9484,13.6851L 14.9061,13.6851C 15.0418,14.4896 15.7134,15.0927 16.553,15.0927C 17.128,15.0927 17.6149,14.8604 17.9843,14.3637L 18.6965,14.887C 18.1998,15.5488 17.4596,15.9476 16.553,15.9476C 15.0614,15.9476 13.9113,14.8408 13.9113,13.3647C 13.9113,11.9669 15.0125,10.7916 16.4634,10.7916 Z M 14.9229,12.9072L 17.9549,12.9072C 17.7898,12.1488 17.1756,11.6451 16.4438,11.6451C 15.7134,11.6451 15.0978,12.1488 14.9229,12.9072 Z M 20.4791,13.0233L 20.4791,15.8413L 19.4941,15.8413L 19.4941,10.8881C 19.8187,10.8881 20.1447,10.8881 20.4693,10.8881L 20.4693,11.4996C 20.7127,11.1022 21.1129,10.8504 21.6586,10.8504L 22,10.8504L 22,11.7612L 21.59,11.7612C 20.945,11.7612 20.4791,12.2579 20.4791,13.0233"/>
</svg>
