<?xml version="1.0" encoding="utf-8"?>
<!DOCTYPE svg PUBLIC "-//W3C//DTD SVG 1.1//EN" "http://www.w3.org/Graphics/SVG/1.1/DTD/svg11.dtd">
<svg xmlns="http://www.w3.org/2000/svg" xmlns:xlink="http://www.w3.org/1999/xlink" version="1.1" baseProfile="full" width="24" height="24" viewBox="0 0 24.00 24.00" enable-background="new 0 0 24.00 24.00" xml:space="preserve">
	<path fill="#000000" fill-opacity="1" stroke-width="1.33333" stroke-linejoin="miter" d="M 11.411,2.008C 5.207,2.008 2.529,7.53 2.529,7.53L 3.318,8.094C 3.318,8.094 2.326,9.981 2.353,12.4C 2.353,17.339 6.285,21.992 12.073,21.992C 17.331,21.992 21.674,17.712 21.674,12.412C 21.674,5.5 16.314,2.008 11.411,2.008 Z M 11.465,3.693C 16.312,3.693 20.073,7.599 20.073,12.14C 20.073,16.953 16.453,20.301 12.234,20.301C 9.129,20.301 6.328,17.937 6.328,14.695C 6.328,12.822 7.324,11.517 8.439,10.821L 8.602,10.998C 8.297,11.237 7.427,12.635 7.427,14.009C 7.427,16.56 9.427,18.326 11.947,18.326C 15.157,18.326 17.298,15.588 17.298,12.409C 17.298,8.71 14.033,5.57 10.104,5.57C 7.931,5.57 6.086,6.504 5.026,7.329L 4.861,7.18C 6.248,5.042 8.649,3.693 11.465,3.693 Z M 10.019,7.231C 12.526,7.231 14.974,8.89 15.585,11.245L 15.363,11.329C 14.266,9.88 12.468,8.679 10.345,8.679C 6.439,8.679 4.387,12.229 4.688,15.194L 4.458,15.278C 4.458,15.278 4.027,14.326 4.027,13.197C 4.027,9.928 6.712,7.231 10.019,7.231 Z M 11.676,11.334C 12.863,11.334 13.812,12.296 13.812,13.438C 13.812,14.384 13.206,14.944 13.206,14.944L 13.924,15.446C 13.924,15.446 13.212,16.565 11.757,16.565C 10.365,16.565 9.134,15.442 9.134,13.932C 9.134,12.375 10.473,11.334 11.676,11.334 Z "/>
</svg>
