<?xml version="1.0" encoding="utf-8"?>
<!DOCTYPE svg PUBLIC "-//W3C//DTD SVG 1.1//EN" "http://www.w3.org/Graphics/SVG/1.1/DTD/svg11.dtd">
<svg xmlns="http://www.w3.org/2000/svg" xmlns:xlink="http://www.w3.org/1999/xlink" version="1.1" baseProfile="full" width="24" height="24" viewBox="0 0 24.00 24.00" enable-background="new 0 0 24.00 24.00" xml:space="preserve">
	<path fill="#000000" fill-opacity="1" stroke-linejoin="round" d="M 8.99999,7.00001L 11,7.00001L 11,11L 13,11L 13,7.00001L 15,7.00001L 15,17L 13,17L 13,13L 11,13L 11,17L 9,17L 8.99999,7.00001 Z M 17,7L 20,7.00001C 21.6568,7.00001 23,8.34315 23,10L 23,14C 23,15.6568 21.6568,17 20,17L 17,17L 17,7 Z M 20,15C 20.5523,15 21,14.5523 21,14L 21,10C 21,9.44772 20.5523,9 20,9L 19,9L 19,15L 20,15 Z M 7,14C 7,15.6569 5.65685,17 4,17C 2.34315,17 1,15.6569 1,14L 1,7L 3,7L 3,14C 3,14.5523 3.44772,15 4,15C 4.55228,15 5,14.5523 5,14L 5,7L 7,7L 7,14 Z "/>
</svg>
