<?xml version="1.0" encoding="utf-8"?>
<!DOCTYPE svg PUBLIC "-//W3C//DTD SVG 1.1//EN" "http://www.w3.org/Graphics/SVG/1.1/DTD/svg11.dtd">
<svg xmlns="http://www.w3.org/2000/svg" xmlns:xlink="http://www.w3.org/1999/xlink" version="1.1" baseProfile="full" width="24" height="24" viewBox="0 0 24.00 24.00" enable-background="new 0 0 24.00 24.00" xml:space="preserve">
	<path fill="#000000" fill-opacity="1" stroke-width="0.2" stroke-linejoin="round" d="M 12,4C 8.905,4.001 6.179,6.034 5.295,9L 18.7012,9C 17.817,6.036 15.093,4.003 12,4 Z M 12,2C 16.971,2 21,6.029 21,11L 13,11L 13,19C 13,20.657 11.657,22 10,22C 8.343,22 7,20.657 7,19L 7,18L 9,18L 9,19C 9,19.552 9.448,20 10,20C 10.552,20 11,19.552 11,19L 11,11L 3,11C 3,6.029 7.029,2 12,2 Z "/>
</svg>
