<?xml version="1.0" encoding="utf-8"?>
<!DOCTYPE svg PUBLIC "-//W3C//DTD SVG 1.1//EN" "http://www.w3.org/Graphics/SVG/1.1/DTD/svg11.dtd">
<svg xmlns="http://www.w3.org/2000/svg" xmlns:xlink="http://www.w3.org/1999/xlink" version="1.1" baseProfile="full" width="24" height="24" viewBox="0 0 24.00 24.00" enable-background="new 0 0 24.00 24.00" xml:space="preserve">
	<path fill="#000000" fill-opacity="1" stroke-linejoin="round" d="M 8.59756,8.59757L 7.17073,8.37806C 6.5122,11.6707 6.46285,14.2379 7.60976,15.5122C 8.59756,16.6098 11.8902,16.6098 11.8902,16.6098C 11.8902,16.6098 15.2927,16.6098 16.2805,15.5122C 17.4274,14.2379 17.378,11.6707 16.7195,8.37806L 15.2927,8.59757C 15.2927,8.59757 16.5431,13.8779 14.689,14.689C 13.811,15.0732 11.8902,15.0732 11.8902,15.0732C 11.8902,15.0732 10.0793,15.0732 9.20122,14.689C 7.3471,13.8779 8.59756,8.59757 8.59756,8.59757 Z M 12,3.00001C 16.9706,3.00001 21,7.02945 21,12C 21,16.9706 16.9706,21 12,21C 7.02944,21 3,16.9706 3,12C 3,7.02945 7.02944,3.00001 12,3.00001 Z "/>
</svg>
