<?xml version="1.0" encoding="utf-8"?>
<!DOCTYPE svg PUBLIC "-//W3C//DTD SVG 1.1//EN" "http://www.w3.org/Graphics/SVG/1.1/DTD/svg11.dtd">
<svg xmlns="http://www.w3.org/2000/svg" xmlns:xlink="http://www.w3.org/1999/xlink" version="1.1" baseProfile="full" width="24" height="24" viewBox="0 0 24.00 24.00" enable-background="new 0 0 24.00 24.00" xml:space="preserve">
	<path fill="#000000" fill-opacity="1" stroke-width="0.2" stroke-linejoin="round" d="M 13.5,7C 17.0898,7 20,9.91015 20,13.5C 20,17.0899 17.0898,20 13.5,20L 9.99997,20L 9.99997,18L 13.5,18C 15.9853,18 18,15.9853 18,13.5C 18,11.0147 15.9853,9 13.5,9L 7.83,9L 10.91,12.09L 9.49998,13.5L 4,8L 9.49998,2.50005L 10.92,3.91005L 7.83,7L 13.5,7 Z M 6,18L 8,18L 8,20L 6,20L 6,18 Z "/>
</svg>
