<?xml version="1.0" encoding="utf-8"?>
<!DOCTYPE svg PUBLIC "-//W3C//DTD SVG 1.1//EN" "http://www.w3.org/Graphics/SVG/1.1/DTD/svg11.dtd">
<svg xmlns="http://www.w3.org/2000/svg" xmlns:xlink="http://www.w3.org/1999/xlink" version="1.1" baseProfile="full" width="24" height="24" viewBox="0 0 24.00 24.00" enable-background="new 0 0 24.00 24.00" xml:space="preserve">
	<path fill="#000000" fill-opacity="1" stroke-linejoin="round" d="M 2,2L 6,2L 6,3L 13,3.00001L 13,2.00002L 17,2.00002L 17,6.00001L 16,6.00001L 16,9L 18,9L 18,8L 22,8L 22,12L 21,12L 21,18L 22,18L 22,22L 18,22L 18,21L 12,21L 12,22L 8,22L 8,18L 8.99999,18L 8.99999,16L 6,16L 6,17L 2,17L 2,13L 3,13L 3,6L 2,6L 2,2 Z M 18,12L 18,11L 16,11L 16,13L 17,13L 17,17L 13,17L 13,16L 11,16L 11,18L 12,18L 12,19L 18,19L 18,18L 19,18L 19,12L 18,12 Z M 13,6.00001L 13,5.00002L 6,5.00001L 6,6.00001L 5,6.00001L 5,13L 6,13L 6,14L 8.99999,14L 9,12L 7.99999,12L 7.99999,8.00002L 12,8.00002L 12,9L 14,9L 14,6.00001L 13,6.00001 Z M 12,12L 11,12L 11,14L 13,14L 13,13L 14,13L 14,11L 12,11L 12,12 Z "/>
</svg>
