<?xml version="1.0" encoding="utf-8"?>
<!DOCTYPE svg PUBLIC "-//W3C//DTD SVG 1.1//EN" "http://www.w3.org/Graphics/SVG/1.1/DTD/svg11.dtd">
<svg xmlns="http://www.w3.org/2000/svg" xmlns:xlink="http://www.w3.org/1999/xlink" version="1.1" baseProfile="full" width="24" height="24" viewBox="0 0 24.00 24.00" enable-background="new 0 0 24.00 24.00" xml:space="preserve">
	<path fill="#000000" fill-opacity="1" stroke-width="1.33333" stroke-linejoin="miter" d="M 2,12C 2,17.5229 6.4771,22 12,22C 17.523,22 22,17.523 22,12C 22,6.4772 17.523,2 12,2C 6.4771,2 2,6.4772 2,12M 5.2401,18.7601C 3.4345,16.9541 2.44,14.5541 2.44,12.0001C 2.44,9.4467 3.43448,7.046 5.2401,5.2404C 7.0458,3.4347 9.4464,2.4403 12,2.4403C 14.5534,2.4403 16.9542,3.4346 18.7599,5.2403C 20.5659,7.046 21.5599,9.4467 21.5599,12.0001C 21.5599,14.5536 20.5655,16.9545 18.7599,18.7602C 16.9542,20.5657 14.5535,21.56 12,21.56C 9.4464,21.56 7.0458,20.5657 5.2401,18.7602M 6.3538,9.5079C 4.3439,11.7932 4.7251,13.6792 4.7251,13.6792C 4.7251,13.6792 5.27947,12.3807 6.6139,11.0134C 7.24573,10.3658 7.7182,10.1491 8.0407,10.1482C 8.39914,10.1471 8.57198,10.413 8.57198,10.65L 8.57198,15.2888C 8.57198,15.7464 8.27453,15.8465 8.00041,15.8414C 7.76634,15.8371 7.5496,15.7564 7.5496,15.7564C 8.9185,17.7296 12.1935,18.0066 12.1935,18.0066L 13.6317,16.4832L 13.6655,16.512L 14.9832,17.6256C 17.3918,16.2063 18.553,13.5751 18.553,13.5751C 17.4783,14.7034 16.7932,14.9664 16.3866,14.9643C 16.0259,14.9625 15.8843,14.7522 15.8843,14.7522C 15.865,14.6545 15.8178,8.9039 15.8918,8.8995C 16.3077,8.1255 17.6345,6.5647 17.6345,6.5647C 15.1565,7.0491 13.8051,8.6592 13.8051,8.6592C 13.4062,8.3476 12.5921,8.3993 12.5921,8.3993C 12.9731,8.6073 13.3544,9.2132 13.3544,9.7151L 13.3544,14.6485C 13.3544,14.6485 12.5227,15.3754 11.8816,15.3754C 11.5026,15.3754 11.2689,15.1696 11.1412,15.0015C 11.0512,14.8835 11.0132,14.7855 11.0132,14.7855L 11.0132,8.6925C 10.9346,8.7489 10.8229,8.796 10.708,8.7953C 10.5718,8.7947 10.4309,8.727 10.3351,8.5279C 10.2628,8.3779 10.2163,8.1535 10.2163,7.8269C 10.2163,6.702 11.4986,5.9575 11.4986,5.9575C 9.87,6.3903 8.3625,7.2213 6.3524,9.5061"/>
</svg>
