<?xml version="1.0" encoding="utf-8"?>
<!DOCTYPE svg PUBLIC "-//W3C//DTD SVG 1.1//EN" "http://www.w3.org/Graphics/SVG/1.1/DTD/svg11.dtd">
<svg xmlns="http://www.w3.org/2000/svg" xmlns:xlink="http://www.w3.org/1999/xlink" version="1.1" baseProfile="full" width="24" height="24" viewBox="0 0 24.00 24.00" enable-background="new 0 0 24.00 24.00" xml:space="preserve">
	<path fill="#000000" fill-opacity="1" stroke-width="0.2" stroke-linejoin="miter" d="M 15,20C 15,19.45 14.55,19 14,19L 13,19L 13,17L 17,17C 18.1,17 19,16.1 19,15L 19,5C 19,3.9 18.1,3 17,3L 7,3C 5.9,3 5,3.9 5,5L 5,15C 5,16.1 5.89,17 7,17L 11,17L 11,19L 10,19C 9.45,19 9,19.45 9,20L 2,20L 2,22L 9,22C 9,22.55 9.45,23 10,23L 14,23C 14.55,23 15,22.55 15,22L 22,22L 22,20L 15,20 Z M 7,15L 7,5L 17,5L 17,15L 7,15 Z M 12,6L 8,10L 11,10L 11,14L 13,14L 13,10L 16,10L 12,6 Z "/>
</svg>
