<?xml version="1.0" encoding="utf-8"?>
<!DOCTYPE svg PUBLIC "-//W3C//DTD SVG 1.1//EN" "http://www.w3.org/Graphics/SVG/1.1/DTD/svg11.dtd">
<svg xmlns="http://www.w3.org/2000/svg" xmlns:xlink="http://www.w3.org/1999/xlink" version="1.1" baseProfile="full" width="24" height="24" viewBox="0 0 24.00 24.00" enable-background="new 0 0 24.00 24.00" xml:space="preserve">
	<path fill="#000000" fill-opacity="1" stroke-width="1.33333" stroke-linejoin="miter" d="M 20.4074,3C 21.7999,5.714 22.3521,8.8351 22,12C 21.7978,15.1648 20.6994,18.2858 18.8326,21L 17.3001,20C 18.9106,17.5713 19.8456,14.8008 20,12C 20.3356,9.1992 19.8854,6.4287 18.6999,4L 20.4074,3 Z M 5.1674,3L 6.69991,4C 5.08993,6.4289 4.15495,9.1993 4,12C 3.66489,14.8007 4.11511,17.5711 5.30009,20L 3.6126,21C 2.21247,18.2883 1.65318,15.1669 2,12C 2.20221,8.8352 3.30059,5.7142 5.1674,3 Z M 12.08,10.68L 14.4,7.45L 16.93,7.45L 13.15,12.45L 15.35,17.37L 13.09,17.37L 11.71,14L 9.28,17.33L 6.76,17.33L 10.66,12.21L 8.53,7.45L 10.8,7.45L 12.08,10.68 Z "/>
</svg>
