<?xml version="1.0" encoding="utf-8"?>
<!DOCTYPE svg PUBLIC "-//W3C//DTD SVG 1.1//EN" "http://www.w3.org/Graphics/SVG/1.1/DTD/svg11.dtd">
<svg xmlns="http://www.w3.org/2000/svg" xmlns:xlink="http://www.w3.org/1999/xlink" version="1.1" baseProfile="full" width="24" height="24" viewBox="0 0 24.00 24.00" enable-background="new 0 0 24.00 24.00" xml:space="preserve">
	<path fill="#000000" fill-opacity="1" stroke-width="1.33333" stroke-linejoin="miter" d="M 3.14258,1C 1.95542,1 1,1.9554 1,3.1426L 1,5L 3,5L 3,3L 5,3L 5,1L 3.14258,1 Z M 7,1L 7,3L 10,3L 10,1L 7,1 Z M 12,1L 12,3L 14,3L 14,5L 16,5L 16,3.1426C 16,1.9553 15.0446,1 13.8574,1L 12,1 Z M 1,7L 1,10L 3,10L 3,7L 1,7 Z M 9,7C 7.89199,7 7,7.892 7,9C 7,11.3333 7,16 7,16C 7,16 11.5716,16 13.8574,16C 15.0446,16 16,15.0446 16,13.8574C 16,11.5717 16,7 16,7C 16,7 11.3333,7 9,7 Z M 18,7L 18,9L 20,9L 20,11L 22,11L 22,9C 22,7.892 21.108,7 20,7L 18,7 Z M 9,9L 14,9L 14,14L 9,14L 9,9 Z M 1,12L 1,13.8574C 1,15.0447 1.95542,16 3.14258,16L 5,16L 5,14L 3,14L 3,12L 1,12 Z M 20,13L 20,16L 22,16L 22,13L 20,13 Z M 7,18L 7,20C 7,21.108 7.89199,22 9,22L 11,22L 11,20L 9,20L 9,18L 7,18 Z M 20,18L 20,20L 18,20L 18,22L 20,22C 21.108,22 22,21.108 22,20L 22,18L 20,18 Z M 13,20L 13,22L 16,22L 16,20L 13,20 Z "/>
</svg>
