<?xml version="1.0" encoding="utf-8"?>
<!DOCTYPE svg PUBLIC "-//W3C//DTD SVG 1.1//EN" "http://www.w3.org/Graphics/SVG/1.1/DTD/svg11.dtd">
<svg xmlns="http://www.w3.org/2000/svg" xmlns:xlink="http://www.w3.org/1999/xlink" version="1.1" baseProfile="full" width="24" height="24" viewBox="0 0 24.00 24.00" enable-background="new 0 0 24.00 24.00" xml:space="preserve">
	<path fill="#000000" fill-opacity="1" stroke-width="1.33333" stroke-linejoin="miter" d="M 3,1C 1.89199,1 1,1.892 1,3L 1,14C 1,15.108 1.89199,16 3,16C 4.33333,16 7,16 7,16C 7,16 7,18.6667 7,20C 7,21.108 7.89199,22 9,22L 20,22C 21.108,22 22,21.108 22,20L 22,9C 22,7.892 21.108,7 20,7C 18.6667,7 16,7 16,7C 16,7 16,4.3333 16,3C 16,1.892 15.108,1 14,1L 3,1 Z M 3,3L 14,3C 14,4.3333 14,7 14,7L 9,7C 7.89199,7 7,7.892 7,9L 7,14C 7,14 4.33333,14 3,14L 3,3 Z M 9,9L 14,9L 14,14L 9,14L 9,9 Z M 16,9C 16,9 18.6667,9 20,9L 20,20L 9,20C 9,18.6667 9,16 9,16L 14,16C 15.108,16 16,15.108 16,14L 16,9 Z "/>
</svg>
