<?xml version="1.0" encoding="utf-8"?>
<!DOCTYPE svg PUBLIC "-//W3C//DTD SVG 1.1//EN" "http://www.w3.org/Graphics/SVG/1.1/DTD/svg11.dtd">
<svg xmlns="http://www.w3.org/2000/svg" xmlns:xlink="http://www.w3.org/1999/xlink" version="1.1" baseProfile="full" width="24" height="24" viewBox="0 0 24.00 24.00" enable-background="new 0 0 24.00 24.00" xml:space="preserve">
	<path fill="#000000" fill-opacity="1" stroke-width="0.2" stroke-linejoin="round" d="M 2,4L 4,4L 4,2L 10,2L 10,4C 15.5229,4 20,8.47715 20,14L 22,14L 22,20L 20,20L 20,22L 18,22L 18,20L 16,20L 16,14L 18,14C 18,9.58172 14.4183,6 9.99999,6L 10,8L 4,8L 4,6L 2,6L 2,4 Z M 18,16L 18,18L 20,18L 20,16L 18,16 Z M 6,4L 6,6L 8,6L 8,4L 6,4 Z "/>
</svg>
