<?xml version="1.0" encoding="utf-8"?>
<!DOCTYPE svg PUBLIC "-//W3C//DTD SVG 1.1//EN" "http://www.w3.org/Graphics/SVG/1.1/DTD/svg11.dtd">
<svg xmlns="http://www.w3.org/2000/svg" xmlns:xlink="http://www.w3.org/1999/xlink" version="1.1" baseProfile="full" width="24" height="24" viewBox="0 0 24.00 24.00" enable-background="new 0 0 24.00 24.00" xml:space="preserve">
	<path fill="#000000" fill-opacity="1" stroke-width="0.2" stroke-linejoin="round" d="M 18.5,2C 19.3284,2 20,2.67157 20,3.5C 20,4.32843 19.3284,5 18.5,5C 18.2684,5 18.0491,4.94752 17.8533,4.85381L 14.1599,8.54718L 14.4765,9.02033C 16.6881,7.73565 19.2582,7 22,7L 23,7.0328L 23,9.03791L 22,9.00001C 19.4226,9.00001 17.0204,9.75006 14.9998,11.0438C 14.9764,13.2182 13.2182,14.9764 11.0438,14.9998C 9.75004,17.0204 8.99999,19.4226 8.99999,22L 9.03788,23L 7.0328,23L 7,22C 7,19.2582 7.73565,16.6881 9.02033,14.4765L 8.54718,14.1599L 4.85381,17.8533C 4.94752,18.0491 5,18.2684 5,18.5C 5,19.3284 4.32843,20 3.5,20C 2.67157,20 2,19.3284 2,18.5C 2,17.6716 2.67157,17 3.5,17C 3.73157,17 3.95089,17.0525 4.1467,17.1462L 7.84007,13.4528C 7.31354,12.7755 7,11.9244 7,11C 7,8.79086 8.79086,7 11,7C 11.9244,7 12.7755,7.31353 13.4528,7.84007L 17.1462,4.14671C 17.0525,3.95089 17,3.73157 17,3.5C 17,2.67157 17.6716,2 18.5,2 Z M 11,9.00001C 9.89542,9.00001 8.99999,9.89544 8.99999,11C 8.99999,12.1046 9.89542,13 11,13C 12.1046,13 13,12.1046 13,11C 13,9.89544 12.1046,9.00001 11,9.00001 Z "/>
</svg>
