<?xml version="1.0" encoding="utf-8"?>
<!DOCTYPE svg PUBLIC "-//W3C//DTD SVG 1.1//EN" "http://www.w3.org/Graphics/SVG/1.1/DTD/svg11.dtd">
<svg xmlns="http://www.w3.org/2000/svg" xmlns:xlink="http://www.w3.org/1999/xlink" version="1.1" baseProfile="full" width="24" height="24" viewBox="0 0 24.00 24.00" enable-background="new 0 0 24.00 24.00" xml:space="preserve">
	<path fill="#000000" fill-opacity="1" stroke-width="1.33333" stroke-linejoin="miter" d="M 20,22C 21.108,22 22,21.108 22,20L 22,9C 22,7.892 21.108,7 20,7C 16.3333,7 12.6667,7 9,7C 7.892,7 7,7.89199 7,9C 7,12.6667 7,16.3333 7,20C 7,21.108 7.892,22 9,22L 20,22 Z M 20,20L 9,20L 9,9L 20,9L 20,20 Z M 5,16L 5,14L 3,14L 3,3L 14,3.00001L 14,5L 16,5L 16,3.00001C 16,1.892 15.108,1.00001 14,1.00001L 3,1.00001C 1.892,1.00001 1,1.892 1,3L 1,14C 1,15.108 1.892,16 3,16L 5,16 Z "/>
</svg>
