<?xml version="1.0" encoding="utf-8"?>
<!DOCTYPE svg PUBLIC "-//W3C//DTD SVG 1.1//EN" "http://www.w3.org/Graphics/SVG/1.1/DTD/svg11.dtd">
<svg xmlns="http://www.w3.org/2000/svg" xmlns:xlink="http://www.w3.org/1999/xlink" version="1.1" baseProfile="full" width="24" height="24" viewBox="0 0 24.00 24.00" enable-background="new 0 0 24.00 24.00" xml:space="preserve">
	<path fill="#000000" fill-opacity="1" stroke-width="0.2" stroke-linejoin="round" d="M 2,2L 8,2L 8,4L 16,4L 16,2.00001L 22,2.00001L 22,8L 20,8L 20,16L 22,16L 22,22L 16,22L 16,20L 8,20L 8,22L 2,22L 2,16L 4,16L 4,8L 2,8L 2,2 Z M 16,8L 16,6L 8,6L 8,8L 6,8L 6,16L 8,16L 8,18L 16,18L 16,16L 18,16L 18,8L 16,8 Z M 4,4.00001L 4,6.00001L 5.99999,6.00001L 5.99999,4.00001L 4,4.00001 Z M 18,4.00001L 18,6.00001L 20,6.00001L 20,4.00001L 18,4.00001 Z M 4,18L 4,20L 6,20L 6,18L 4,18 Z M 18,18L 18,20L 20,20L 20,18L 18,18 Z "/>
</svg>
