<?xml version="1.0" encoding="utf-8"?>
<!DOCTYPE svg PUBLIC "-//W3C//DTD SVG 1.1//EN" "http://www.w3.org/Graphics/SVG/1.1/DTD/svg11.dtd">
<svg xmlns="http://www.w3.org/2000/svg" xmlns:xlink="http://www.w3.org/1999/xlink" version="1.1" baseProfile="full" width="24" height="24" viewBox="0 0 24.00 24.00" enable-background="new 0 0 24.00 24.00" xml:space="preserve">
	<path fill="#000000" fill-opacity="1" fill-rule="evenodd" stroke-width="0.2" stroke-linejoin="round" d="M 2.0025,2.0025L 2.0025,7.9975L 4.2775,7.9975L 5.56625,16.0012L 3.99875,16.0012L 3.99875,22.0025L 10,22.0025L 10,20.0637L 15,20.0538L 15,22.0025L 21.0013,22.0025L 21.0013,16.0012L 19.17,16.0012L 20,8.99875L 22.0025,8.99875L 22.0025,2.9978L 16.0012,2.9978L 16.0012,6.53375L 14.8,7.9975L 9.59,7.9975L 7.9975,5.82L 7.9975,2.0025M 3.99875,3.99875L 6.00125,3.99875L 6.00125,6.00125L 3.99875,6.00125M 17.9975,5L 20,5L 20,7.0025L 17.9975,7.0025M 6.30875,7.9975L 7.11375,7.9975L 8.99875,10.5862L 8.99875,13.9987L 15,13.9987L 15,10.9125L 16.5675,8.99875L 17.9887,8.99875L 17.1587,16.0012L 15,16.0012L 15,18.0563L 10,18.0613L 10,16.0012L 7.5975,16.0012M 11.0013,10L 12.9975,10L 12.9975,12.0025L 11.0013,12.0025M 6.00125,17.9975L 7.9975,17.9975L 7.9975,20L 6.00125,20M 17.0025,17.9975L 18.9988,17.9975L 18.9988,20L 17.0025,20"/>
</svg>
