<?xml version="1.0" encoding="utf-8"?>
<!DOCTYPE svg PUBLIC "-//W3C//DTD SVG 1.1//EN" "http://www.w3.org/Graphics/SVG/1.1/DTD/svg11.dtd">
<svg xmlns="http://www.w3.org/2000/svg" xmlns:xlink="http://www.w3.org/1999/xlink" version="1.1" baseProfile="full" width="24" height="24" viewBox="0 0 24.00 24.00" enable-background="new 0 0 24.00 24.00" xml:space="preserve">
	<path fill="#000000" fill-opacity="1" stroke-width="1.33333" stroke-linejoin="miter" d="M 7.5,4C 6.67157,4 6,4.6716 6,5.5C 6,6.3284 6.67157,7 7.5,7C 8.1349,6.9991 8.70048,6.5986 8.91211,6L 13,6C 13.6667,5.3333 14.3333,5 15,5L 8.91211,5C 8.70048,4.4014 8.1349,4.0009 7.5,4 Z M 19,5C 8,5 14,17 5,17L 5,19C 16,19 10,7 19,7L 19,5 Z M 16.5,17C 15.8651,17.0009 15.2995,17.4014 15.0879,18L 11,18C 10.3333,18.6667 9.66667,19 9,19L 15.0879,19C 15.2995,19.5986 15.8651,19.9991 16.5,20C 17.3284,20 18,19.3284 18,18.5C 18,17.6716 17.3284,17 16.5,17 Z "/>
</svg>
