<?xml version="1.0" encoding="utf-8"?>
<!DOCTYPE svg PUBLIC "-//W3C//DTD SVG 1.1//EN" "http://www.w3.org/Graphics/SVG/1.1/DTD/svg11.dtd">
<svg xmlns="http://www.w3.org/2000/svg" xmlns:xlink="http://www.w3.org/1999/xlink" version="1.1" baseProfile="full" width="24" height="24" viewBox="0 0 24.00 24.00" enable-background="new 0 0 24.00 24.00" xml:space="preserve">
	<path fill="#000000" fill-opacity="1" stroke-width="1.33333" stroke-linejoin="miter" d="M 20,22C 21.108,22 22,21.108 22,20L 22,18L 20,18L 20,20L 18,20L 18,22L 20,22 Z M 16,22L 16,20L 13,20L 13,22L 16,22 Z M 11,22L 11,20L 9,20L 9,18L 7,18L 7,20C 7,21.108 7.89199,22 9,22L 11,22 Z M 22,16L 22,13L 20,13L 20,16L 22,16 Z M 9,16C 9,16 9,11.3333 9,9C 11.3333,9 16,9 16,9C 16,9 16,5 16,3C 16,1.892 15.108,1 14,1L 3,1C 1.89199,1 1,1.892 1,3L 1,14C 1,15.108 1.89199,16 3,16C 5,16 9,16 9,16 Z M 7,14L 3,14L 3,3L 14,3L 14,7L 9,7C 7.89199,7 7,7.892 7,9L 7,14 Z M 22,11L 22,9C 22,7.892 21.108,7 20,7L 18,7L 18,9L 20,9L 20,11L 22,11 Z "/>
</svg>
