<?xml version="1.0" encoding="utf-8"?>
<!DOCTYPE svg PUBLIC "-//W3C//DTD SVG 1.1//EN" "http://www.w3.org/Graphics/SVG/1.1/DTD/svg11.dtd">
<svg xmlns="http://www.w3.org/2000/svg" xmlns:xlink="http://www.w3.org/1999/xlink" version="1.1" baseProfile="full" width="24" height="24" viewBox="0 0 24.00 24.00" enable-background="new 0 0 24.00 24.00" xml:space="preserve">
	<path fill="#000000" fill-opacity="1" fill-rule="evenodd" stroke-width="0.2" stroke-linejoin="round" d="M 8.99875,2.9978L 8.99875,8.99875L 9.72625,8.99875L 5.79125,16.0012L 2.0025,16.0012L 2.0025,22.0025L 7.9975,22.0025L 7.9975,20L 16.0012,20L 16.0012,22.0025L 22.0025,22.0025L 22.0025,16.0012L 18.2075,16.0012L 14.2725,8.99875L 15,8.99875L 15,2.9978M 11.0013,5L 12.9975,5L 12.9975,7.0025L 11.0013,7.0025M 12.0025,9.0375L 16.0012,16.1525L 16.0012,17.9975L 7.9975,17.9975L 7.9975,16.1525M 3.99875,17.9975L 6.00125,17.9975L 6.00125,20L 3.99875,20M 17.9975,17.9975L 20,17.9975L 20,20L 17.9975,20"/>
</svg>
