<?xml version="1.0" encoding="utf-8"?>
<!DOCTYPE svg PUBLIC "-//W3C//DTD SVG 1.1//EN" "http://www.w3.org/Graphics/SVG/1.1/DTD/svg11.dtd">
<svg xmlns="http://www.w3.org/2000/svg" xmlns:xlink="http://www.w3.org/1999/xlink" version="1.1" baseProfile="full" width="24" height="24" viewBox="0 0 24.00 24.00" enable-background="new 0 0 24.00 24.00" xml:space="preserve">
	<path fill="#000000" fill-opacity="1" stroke-width="0.2" stroke-linejoin="round" d="M 22,9.00124L 19.9737,9.00124C 18.705,5.4125 15.3112,3.005 11.5025,3C 6.53125,3 2.50375,7.03375 2.50375,12.005C 2.50375,16.975 6.53125,21.0037 11.5025,21.0037C 15.3112,20.9987 18.705,18.5962 19.9788,15.0025L 22,15.0025M 20.0037,11.0037L 20.0037,13L 18.0013,13L 18.0013,11.0037M 17.8162,15.0025C 16.6587,17.4438 14.2025,18.9962 11.5025,19.0012C 7.635,19.0012 4.5,15.8663 4.5,12.005C 4.5,8.1375 7.635,5.0025 11.5025,5.0025C 14.2025,5.00749 16.6587,6.565 17.8113,9.00124L 16.005,9.00124L 16.005,15.0025"/>
</svg>
