<?xml version="1.0" encoding="utf-8"?>
<!DOCTYPE svg PUBLIC "-//W3C//DTD SVG 1.1//EN" "http://www.w3.org/Graphics/SVG/1.1/DTD/svg11.dtd">
<svg xmlns="http://www.w3.org/2000/svg" xmlns:xlink="http://www.w3.org/1999/xlink" version="1.1" baseProfile="full" width="24" height="24" viewBox="0 0 24.00 24.00" enable-background="new 0 0 24.00 24.00" xml:space="preserve">
	<path fill="#000000" fill-opacity="1" stroke-width="0.2" stroke-linejoin="round" d="M 8.99875,2.0025L 8.99875,4.0575C 6.71875,4.9175 4.9175,6.71875 4.0525,8.99875L 2.0025,8.99875L 2.0025,15L 4.0575,15C 4.9175,17.28 6.71875,19.0875 8.99875,19.9513L 8.99875,22.0025L 15,22.0025L 15,19.9412C 17.28,19.0825 19.0875,17.28 19.9513,15L 22.0025,15L 22.0025,8.99875L 19.9413,8.99875C 19.0825,6.71875 17.28,4.9175 15,4.0525L 15,2.0025M 11.0013,3.99875L 12.9975,3.99875L 12.9975,6.00125L 11.0013,6.00125M 8.99875,6.25L 8.99875,7.9975L 15,7.9975L 15,6.25C 16.1763,6.86 17.1388,7.8225 17.7538,8.99875L 16.0012,8.99875L 16.0012,15L 17.7538,15C 17.1388,16.1762 16.1763,17.1388 15,17.7537L 15,16.0012L 8.99875,16.0012L 8.99875,17.7537C 7.8225,17.1388 6.86,16.1762 6.25,15L 7.9975,15L 7.9975,8.99875L 6.25,8.99875C 6.86,7.8225 7.8225,6.86 8.99875,6.25 Z M 3.99875,11.0012L 6.00125,11.0012L 6.00125,12.9975L 3.99875,12.9975M 17.9975,11.0012L 20,11.0012L 20,12.9975L 17.9975,12.9975M 11.0013,17.9975L 12.9975,17.9975L 12.9975,20L 11.0013,20"/>
</svg>
