<?xml version="1.0" encoding="utf-8"?>
<!DOCTYPE svg PUBLIC "-//W3C//DTD SVG 1.1//EN" "http://www.w3.org/Graphics/SVG/1.1/DTD/svg11.dtd">
<svg xmlns="http://www.w3.org/2000/svg" xmlns:xlink="http://www.w3.org/1999/xlink" version="1.1" baseProfile="full" width="24" height="24" viewBox="0 0 24.00 24.00" enable-background="new 0 0 24.00 24.00" xml:space="preserve">
	<path fill="#000000" fill-opacity="1" stroke-width="0.2" stroke-linejoin="round" d="M 2,4.00001L 7.99999,4.00001L 7.99999,6.00001L 16,6.00001L 16,4.00002L 22,4.00002L 22,10L 20,10L 20,14L 22,14L 22,20L 16,20L 16,18L 7.99999,18L 7.99999,20L 2,20L 2,14L 4,14L 4,10L 2,10L 2,4.00001 Z M 16,10L 16,8.00001L 7.99999,8.00001L 7.99999,10L 5.99999,10L 5.99999,14L 7.99999,14L 7.99999,16L 16,16L 16,14L 18,14L 18,10L 16,10 Z M 3.99999,6.00002L 3.99999,8.00002L 5.99999,8.00002L 5.99999,6.00002L 3.99999,6.00002 Z M 18,6.00002L 18,8.00002L 20,8.00002L 20,6.00002L 18,6.00002 Z M 4,16L 4,18L 5.99999,18L 5.99999,16L 4,16 Z M 18,16L 18,18L 20,18L 20,16L 18,16 Z "/>
</svg>
