<?xml version="1.0" encoding="utf-8"?>
<!DOCTYPE svg PUBLIC "-//W3C//DTD SVG 1.1//EN" "http://www.w3.org/Graphics/SVG/1.1/DTD/svg11.dtd">
<svg xmlns="http://www.w3.org/2000/svg" xmlns:xlink="http://www.w3.org/1999/xlink" version="1.1" baseProfile="full" width="24" height="24" viewBox="0 0 24.00 24.00" enable-background="new 0 0 24.00 24.00" xml:space="preserve">
	<path fill="#000000" fill-opacity="1" stroke-linejoin="round" d="M 16,19L 8,19L 8,5L 16,5M 16.5,3L 7.5,3C 6.67,3 6,3.67 6,4.5L 6,19.5C 6,20.33 6.67,21 7.5,21L 16.5,21C 17.33,21 18,20.33 18,19.5L 18,4.5C 18,3.67 17.33,3 16.5,3 Z M 19,17L 21,17L 21,7L 19,7M 22,9L 22,15L 24,15L 24,9M 3,17L 5,17L 5,7L 3,7M 0,15L 2,15L 2,9L 0,9L 0,15 Z "/>
</svg>
