<?xml version="1.0" encoding="utf-8"?>
<!DOCTYPE svg PUBLIC "-//W3C//DTD SVG 1.1//EN" "http://www.w3.org/Graphics/SVG/1.1/DTD/svg11.dtd">
<svg xmlns="http://www.w3.org/2000/svg" xmlns:xlink="http://www.w3.org/1999/xlink" version="1.1" baseProfile="full" width="24" height="24" viewBox="0 0 24.00 24.00" enable-background="new 0 0 24.00 24.00" xml:space="preserve">
	<path fill="#000000" fill-opacity="1" stroke-width="0.2" stroke-linejoin="miter" d="M 8.2,5L 6.55,3.35C 6.81479,3.1238 7.15172,2.9996 7.5,3L 16.5,3C 17.3284,3 18,3.6716 18,4.5L 18,14.8L 16,12.8L 16,5L 8.2,5 Z M 1.27157e-006,15L 2,15L 2,9L 1.27157e-006,9L 1.27157e-006,15 Z M 21,17L 21,7L 19,7L 19,15.8L 20.2,17L 21,17 Z M 3,17L 5,17L 5,7L 3,7L 3,17 Z M 18,17.35L 22.11,21.46L 20.8398,22.73L 18,19.85C 17.8348,20.5398 17.209,21.0195 16.5,21L 7.5,21C 6.67157,21 6,20.3284 6,19.5L 6,7.89L 1.11,3L 2.39,1.73L 6.09001,5.44L 8,7.33984L 16,15.34L 18,17.34L 18,17.35 Z M 16,17.89L 8,9.89L 8,19L 16,19L 16,17.89 Z M 22,9L 22,15L 24,15L 24,9L 22,9 Z "/>
</svg>
