<?xml version="1.0" encoding="utf-8"?>
<!DOCTYPE svg PUBLIC "-//W3C//DTD SVG 1.1//EN" "http://www.w3.org/Graphics/SVG/1.1/DTD/svg11.dtd">
<svg xmlns="http://www.w3.org/2000/svg" xmlns:xlink="http://www.w3.org/1999/xlink" version="1.1" baseProfile="full" width="24" height="24" viewBox="0 0 24.00 24.00" enable-background="new 0 0 24.00 24.00" xml:space="preserve">
	<path fill="#000000" fill-opacity="1" stroke-width="1.33333" stroke-linejoin="miter" d="M 8,11.5C 8,10.67 7.33,10 6.5,10C 5.67,10 5,10.67 5,11.5C 5,12.33 5.67,13 6.5,13C 7.33,13 8,12.33 8,11.5 Z M 15,6.5C 15,5.67 14.33,5 13.5,5L 10.5,5C 9.67,5 9,5.67 9,6.5C 9,7.33 9.67,8 10.5,8L 13.5,8C 14.33,8 15,7.33 15,6.5 Z M 8.5,15C 7.67,15 7,15.67 7,16.5C 7,17.33 7.67,18 8.5,18C 9.33,18 10,17.33 10,16.5C 10,15.67 9.33,15 8.5,15 Z M 12,1C 5.93,1 1,5.93 1,12C 1,18.07 5.93,23 12,23C 18.07,23 23,18.07 23,12C 23,5.93 18.07,1 12,1 Z M 12,21C 7.04,21 3,16.96 3,12C 3,7.04 7.04,3 12,3C 16.96,3 21,7.04 21,12C 21,16.96 16.96,21 12,21 Z M 17.5,10C 16.67,10 16,10.67 16,11.5C 16,12.33 16.67,13 17.5,13C 18.33,13 19,12.33 19,11.5C 19,10.67 18.33,10 17.5,10 Z M 15.5,15C 14.67,15 14,15.67 14,16.5C 14,17.33 14.67,18 15.5,18C 16.33,18 17,17.33 17,16.5C 17,15.67 16.33,15 15.5,15 Z "/>
</svg>
