<?xml version="1.0" encoding="utf-8"?>
<!DOCTYPE svg PUBLIC "-//W3C//DTD SVG 1.1//EN" "http://www.w3.org/Graphics/SVG/1.1/DTD/svg11.dtd">
<svg xmlns="http://www.w3.org/2000/svg" xmlns:xlink="http://www.w3.org/1999/xlink" version="1.1" baseProfile="full" width="24" height="24" viewBox="0 0 24.00 24.00" enable-background="new 0 0 24.00 24.00" xml:space="preserve">
	<path fill="#000000" fill-opacity="1" stroke-linejoin="round" d="M 17,14.499L 17,10.999C 17,10.447 16.552,9.999 16,9.999L 4,9.999C 3.448,9.999 3,10.447 3,10.999L 3,20.999C 3,21.551 3.448,21.999 4,21.999L 16,21.999C 16.552,21.999 17,21.551 17,20.999L 17,17.499L 21,21.499L 21,10.499M 3,3.863L 4.396,5.239C 7.484,2.187 12.5053,2.187 15.604,5.239L 17,3.863C 13.14,0.0456676 6.86934,0.0456676 3,3.863 Z M 5.80267,6.62433L 7.19734,7.999C 8.74534,6.47767 11.2507,6.47767 12.8027,7.999L 14.1973,6.62433C 11.88,4.343 8.12,4.343 5.80267,6.62433 Z "/>
</svg>
