<?xml version="1.0" encoding="utf-8"?>
<!DOCTYPE svg PUBLIC "-//W3C//DTD SVG 1.1//EN" "http://www.w3.org/Graphics/SVG/1.1/DTD/svg11.dtd">
<svg xmlns="http://www.w3.org/2000/svg" xmlns:xlink="http://www.w3.org/1999/xlink" version="1.1" baseProfile="full" width="24" height="24" viewBox="0 0 24.00 24.00" enable-background="new 0 0 24.00 24.00" xml:space="preserve">
	<path fill="#000000" fill-opacity="1" stroke-width="1.33333" stroke-linejoin="miter" d="M 5,3.00001L 19,3.00001C 20.1046,3.00001 21,3.89544 21,5.00001L 21,19C 21,20.1046 20.1046,21 19,21L 5,21C 3.89543,21 3,20.1046 3,19L 3,5.00001C 3,3.89544 3.89543,3.00001 5,3.00001 Z M 18.0938,15L 16.0781,12L 18.0938,9L 16.3594,9L 14.3906,12L 14.3906,9L 12.8906,9L 12.8906,15L 14.3906,15L 14.3906,12L 16.3594,15L 18.0938,15 Z M 11.8594,13.5L 11.8594,12L 10.875,12L 10.875,9L 9.375,9L 9.375,12L 7.875,12L 7.875,9L 6.375,9L 6.375,13.5L 9.375,13.5L 9.375,15L 10.875,15L 10.875,13.5L 11.8594,13.5 Z "/>
</svg>
