<?xml version="1.0" encoding="utf-8"?>
<!DOCTYPE svg PUBLIC "-//W3C//DTD SVG 1.1//EN" "http://www.w3.org/Graphics/SVG/1.1/DTD/svg11.dtd">
<svg xmlns="http://www.w3.org/2000/svg" xmlns:xlink="http://www.w3.org/1999/xlink" version="1.1" baseProfile="full" width="24" height="24" viewBox="0 0 24.00 24.00" enable-background="new 0 0 24.00 24.00" xml:space="preserve">
	<path fill="#000000" fill-opacity="1" stroke-width="1.33333" stroke-linejoin="miter" d="M 17,10.5L 17,7C 17,6.45 16.55,6 16,6L 4,6C 3.45,6 3,6.45 3,7L 3,17C 3,17.55 3.45,18 4,18L 16,18C 16.55,18 17,17.55 17,17L 17,13.5L 21,17.5L 21,6.5L 17,10.5 Z M 14,13L 11,13L 11,16L 9,16L 9,13L 6,13L 6,11L 9,11L 9,8L 11,8L 11,11L 14,11L 14,13 Z "/>
</svg>
