<?xml version="1.0" encoding="utf-8"?>
<!DOCTYPE svg PUBLIC "-//W3C//DTD SVG 1.1//EN" "http://www.w3.org/Graphics/SVG/1.1/DTD/svg11.dtd">
<svg xmlns="http://www.w3.org/2000/svg" xmlns:xlink="http://www.w3.org/1999/xlink" version="1.1" baseProfile="full" width="24" height="24" viewBox="0 0 24.00 24.00" enable-background="new 0 0 24.00 24.00" xml:space="preserve">
	<path fill="#000000" fill-opacity="1" stroke-width="1.33333" stroke-linejoin="miter" d="M 18,7L 18,4C 18,2.9 17.1,2 16,2L 8,2C 6.9,2 6,2.9 6,4L 6,7L 5,7L 5,13L 8,19L 8,22L 16,22L 16,19L 19,13L 19,7L 18,7 Z M 8,4L 16,4L 16,7L 14,7L 14,5L 13,5L 13,7L 11,7L 11,5L 10,5L 10,7L 8,7L 8,4 Z "/>
</svg>
