<?xml version="1.0" encoding="utf-8"?>
<!DOCTYPE svg PUBLIC "-//W3C//DTD SVG 1.1//EN" "http://www.w3.org/Graphics/SVG/1.1/DTD/svg11.dtd">
<svg xmlns="http://www.w3.org/2000/svg" xmlns:xlink="http://www.w3.org/1999/xlink" version="1.1" baseProfile="full" width="24" height="24" viewBox="0 0 24.00 24.00" enable-background="new 0 0 24.00 24.00" xml:space="preserve">
	<path fill="#000000" fill-opacity="1" stroke-width="1.33333" stroke-linejoin="miter" d="M 19,3L 5,3C 3.9,3 3,3.9 3,5L 3,19C 3,20.1 3.9,21 5,21L 19,21C 20.1,21 21,20.1 21,19L 21,5C 21,3.9 20.1,3 19,3 Z M 12,13.5L 11,13.5L 11,15L 9.5,15L 9.5,13.5L 6.5,13.5L 6.5,9L 8,9L 8,12L 9.5,12L 9.5,9L 11,9L 11,12L 12,12L 12,13.5 Z M 18,15L 16.2,15L 14.4,12.8L 14.4,15L 13,15L 13,9L 14.5,9L 14.5,11.2L 16.2,9L 18,9L 15.8,12L 18,15 Z "/>
</svg>
