<?xml version="1.0" encoding="utf-8"?>
<!DOCTYPE svg PUBLIC "-//W3C//DTD SVG 1.1//EN" "http://www.w3.org/Graphics/SVG/1.1/DTD/svg11.dtd">
<svg xmlns="http://www.w3.org/2000/svg" xmlns:xlink="http://www.w3.org/1999/xlink" version="1.1" baseProfile="full" width="24" height="24" viewBox="0 0 24.00 24.00" enable-background="new 0 0 24.00 24.00" xml:space="preserve">
	<g>
		<path fill="#000000" fill-opacity="1" stroke-width="1.33333" stroke-linejoin="miter" d="M 18,14.5L 18,11C 18,10.4477 17.5523,10 17,10L 16,10C 18.2443,8.3911 18.7595,5.2675 17.1506,3.0232C 15.5418,0.778799 12.4182,0.2637 10.1738,1.8725C 9.50419,2.3526 8.96356,2.9906 8.6,3.73C 6.24776,2.2835 3.16825,3.0177 1.72174,5.37C 0.275221,7.7222 1.00946,10.8017 3.3617,12.2482C 3.56623,12.374 3.77954,12.4849 4,12.58L 4,21C 4,21.5523 4.44772,22 5,22L 17,22C 17.5523,22 18,21.5523 18,21L 18,17.5L 22,21.5L 22,10.5L 18,14.5 Z M 13,4C 14.1046,4 15,4.8954 15,6C 15,7.1046 14.1046,8 13,8C 11.8954,8 11,7.1046 11,6C 11,4.8954 11.8954,4 13,4 Z M 6,6C 7.10457,6 8,6.8954 8,8C 8,9.1046 7.10457,10 6,10C 4.89543,10 4,9.1046 4,8C 4,6.8954 4.89543,6 6,6 Z "/>
	</g>
</svg>
