<?xml version="1.0" encoding="utf-8"?>
<!DOCTYPE svg PUBLIC "-//W3C//DTD SVG 1.1//EN" "http://www.w3.org/Graphics/SVG/1.1/DTD/svg11.dtd">
<svg xmlns="http://www.w3.org/2000/svg" xmlns:xlink="http://www.w3.org/1999/xlink" version="1.1" baseProfile="full" width="24" height="24" viewBox="0 0 24.00 24.00" enable-background="new 0 0 24.00 24.00" xml:space="preserve">
	<path fill="#000000" fill-opacity="1" stroke-width="1.33333" stroke-linejoin="miter" d="M 19,5L 19,7L 15,7L 15,5L 19,5M 9,5L 9,11L 5,11L 5,5L 9,5M 19,13L 19,19L 15,19L 15,13L 19,13M 9,17L 9,19L 5,19L 5,17L 9,17M 21,3L 13,3L 13,9L 21,9L 21,3 Z M 11,3L 3,3L 3,13L 11,13L 11,3 Z M 21,11L 13,11L 13,21L 21,21L 21,11 Z M 11,15L 3,15L 3,21L 11,21L 11,15 Z "/>
</svg>
