<?xml version="1.0" encoding="utf-8"?>
<!DOCTYPE svg PUBLIC "-//W3C//DTD SVG 1.1//EN" "http://www.w3.org/Graphics/SVG/1.1/DTD/svg11.dtd">
<svg xmlns="http://www.w3.org/2000/svg" xmlns:xlink="http://www.w3.org/1999/xlink" version="1.1" baseProfile="full" width="24" height="24" viewBox="0 0 24.00 24.00" enable-background="new 0 0 24.00 24.00" xml:space="preserve">
	<path fill="#000000" fill-opacity="1" stroke-linejoin="round" d="M 13,5L 10,5C 9.45,5 9,5.45 9,6L 9,18C 9,18.55 9.45,19 10,19L 13,19C 13.55,19 14,18.55 14,18L 14,6C 14,5.45 13.55,5 13,5 Z M 20,5L 17,5C 16.45,5 16,5.45 16,6L 16,18C 16,18.55 16.45,19 17,19L 20,19C 20.55,19 21,18.55 21,18L 21,6C 21,5.45 20.55,5 20,5 Z M 6,5L 3,5C 2.45,5 2,5.45 2,6L 2,18C 2,18.55 2.45,19 3,19L 6,19C 6.55,19 7,18.55 7,18L 7,6C 7,5.45 6.55,5 6,5 Z "/>
</svg>
