<?xml version="1.0" encoding="utf-8"?>
<!DOCTYPE svg PUBLIC "-//W3C//DTD SVG 1.1//EN" "http://www.w3.org/Graphics/SVG/1.1/DTD/svg11.dtd">
<svg xmlns="http://www.w3.org/2000/svg" xmlns:xlink="http://www.w3.org/1999/xlink" version="1.1" baseProfile="full" width="24" height="24" viewBox="0 0 24.00 24.00" enable-background="new 0 0 24.00 24.00" xml:space="preserve">
	<path fill="#000000" fill-opacity="1" stroke-linejoin="round" d="M 22,7.42026C 21.9109,9.37179 20.5505,12.0441 17.9191,15.4358C 15.1986,18.9786 12.8969,20.75 11.014,20.75C 9.84797,20.75 8.86057,19.6716 8.05452,17.5136C 7.51598,15.5357 6.97783,13.5579 6.43927,11.58C 5.84056,9.4232 5.19844,8.34347 4.51177,8.34347C 4.3621,8.34347 3.8384,8.65914 2.94148,9.28777L 2,8.07262C 2.98758,7.20325 3.9617,6.33399 4.92019,5.46345C 6.23723,4.32324 7.22599,3.72353 7.88491,3.66294C 9.44232,3.51307 10.4008,4.57961 10.7605,6.86257C 11.1492,9.32587 11.4183,10.858 11.5695,11.4576C 12.0184,13.5012 12.5122,14.5218 13.0519,14.5218C 13.4706,14.5218 14.0997,13.8589 14.9385,12.5335C 15.7764,11.2077 16.2253,10.199 16.2859,9.50614C 16.4053,8.36202 15.9562,7.7885 14.9385,7.7885C 14.4594,7.7885 13.9656,7.89891 13.4576,8.11728C 14.4408,4.88992 16.3199,3.32246 19.0931,3.41186C 21.1492,3.47243 22.1184,4.80834 22,7.42026 Z "/>
</svg>
