<?xml version="1.0" encoding="utf-8"?>
<!DOCTYPE svg PUBLIC "-//W3C//DTD SVG 1.1//EN" "http://www.w3.org/Graphics/SVG/1.1/DTD/svg11.dtd">
<svg xmlns="http://www.w3.org/2000/svg" xmlns:xlink="http://www.w3.org/1999/xlink" version="1.1" baseProfile="full" width="24" height="24" viewBox="0 0 24.00 24.00" enable-background="new 0 0 24.00 24.00" xml:space="preserve">
	<path fill="#000000" fill-opacity="1" stroke-width="1.33333" stroke-linejoin="miter" d="M 11,2C 10.446,2 10,2.446 10,3L 10,5L 10,9C 10,9.2771 10.2229,9.5 10.5,9.5L 12,9.5C 12.277,9.5 12.5,9.723 12.5,10C 12.5,10.277 12.277,10.5 12,10.5L 10.5,10.5C 9.73438,10.5 9,9.7656 9,9L 9,5.1562C 7.2731,5.5995 6,7.131 6,9L 6,10.5C 7.38071,10.5 8.5,11.6193 8.5,13C 8.5,14.3807 7.38071,15.5 6,15.5L 6,17C 6,19.77 8.23,22 11,22L 13,22C 15.77,22 18,19.77 18,17L 18,15.5C 16.6193,15.5 15.5,14.3807 15.5,13C 15.5,11.6193 16.6193,10.5 18,10.5L 18,9C 18,6.784 16.216,5 14,5L 14,3C 14,2.446 13.554,2 13,2L 11,2 Z M 10.75,16.5L 13.25,16.5L 12.75,20L 11.25,20L 10.75,16.5 Z "/>
</svg>
