<?xml version="1.0" encoding="utf-8"?>
<!DOCTYPE svg PUBLIC "-//W3C//DTD SVG 1.1//EN" "http://www.w3.org/Graphics/SVG/1.1/DTD/svg11.dtd">
<svg xmlns="http://www.w3.org/2000/svg" xmlns:xlink="http://www.w3.org/1999/xlink" version="1.1" baseProfile="full" width="24" height="24" viewBox="0 0 24.00 24.00" enable-background="new 0 0 24.00 24.00" xml:space="preserve">
	<path fill="#000000" fill-opacity="1" fill-rule="evenodd" stroke-linejoin="round" d="M 17,16.4733L 17,7.39467L 11,11.932M 2.21867,9.192C 1.916,8.86933 1.91067,8.36933 2.19734,8.036L 3.4,6.932C 3.59867,6.75467 4.088,6.66667 4.448,6.932L 7.86933,9.536L 15.796,2.28533C 16.1187,1.97334 16.6667,1.84267 17.296,2.16667L 21.296,4.08267C 21.6613,4.28533 22,4.624 22,5.23334L 22,18.7333C 22,19.1347 21.708,19.5627 21.4,19.7333L 17,21.8333C 16.676,21.9627 16.0773,21.8427 15.8693,21.6347L 7.848,14.3333L 4.448,16.932C 4.06667,17.192 3.59867,17.124 3.4,16.932L 2.19734,15.8333C 1.88,15.5147 1.916,14.9627 2.24934,14.6347L 5.24933,11.932"/>
</svg>
