<?xml version="1.0" encoding="utf-8"?>
<!DOCTYPE svg PUBLIC "-//W3C//DTD SVG 1.1//EN" "http://www.w3.org/Graphics/SVG/1.1/DTD/svg11.dtd">
<svg xmlns="http://www.w3.org/2000/svg" xmlns:xlink="http://www.w3.org/1999/xlink" version="1.1" baseProfile="full" width="24" height="24" viewBox="0 0 24.00 24.00" enable-background="new 0 0 24.00 24.00" xml:space="preserve">
	<path fill="#000000" fill-opacity="1" stroke-width="1.33333" stroke-linejoin="miter" d="M 12,2C 6.47715,2 2,6.4771 2,12C 2,17.5229 6.47715,22 12,22C 17.5228,22 22,17.5229 22,12C 22,6.4771 17.5228,2 12,2 Z M 5.50586,8.5L 6.97852,8.5C 7.35515,8.5 7.49742,8.6642 7.63867,9.0723C 8.35942,11.1718 9.57463,13.0078 10.0742,13.0078C 10.2616,13.0078 10.3477,12.9211 10.3477,12.4453L 10.3477,10.2754C 10.2929,9.2762 9.76172,9.1931 9.76172,8.8379C 9.76172,8.6731 9.90256,8.5 10.1367,8.5L 12.4531,8.5C 12.7654,8.5 12.8691,8.6663 12.8691,9.041L 12.8691,11.9609C 12.8691,12.2732 13.0099,12.3828 13.1035,12.3828C 13.2909,12.3828 13.4456,12.2732 13.7891,11.9297C 14.8507,10.7431 15.6016,8.916 15.6016,8.916C 15.6953,8.6974 15.8675,8.5 16.2422,8.5L 17.7148,8.5C 18.1605,8.5 18.2557,8.7288 18.1621,9.041C 17.9748,9.8997 16.1777,12.4297 16.1777,12.4297C 16.0216,12.6795 15.9592,12.8049 16.1777,13.0859C 16.3339,13.3046 16.8499,13.7406 17.1934,14.1465C 17.8264,14.8586 18.3026,15.459 18.4355,15.873C 18.557,16.2885 18.3468,16.5 17.9258,16.5L 16.4531,16.5C 15.8911,16.5 15.7258,16.0519 14.7266,15.0527C 13.8522,14.2096 13.4783,14.0996 13.2598,14.0996C 12.9631,14.0996 12.873,14.1844 12.873,14.6055L 12.873,15.9277C 12.873,16.2904 12.7571,16.5 11.8203,16.5C 10.259,16.5 8.54394,15.5513 7.32617,13.8027C 5.49951,11.2423 5,9.3063 5,8.916C 5,8.6974 5.08481,8.5 5.50586,8.5 Z "/>
</svg>
