<?xml version="1.0" encoding="utf-8"?>
<!DOCTYPE svg PUBLIC "-//W3C//DTD SVG 1.1//EN" "http://www.w3.org/Graphics/SVG/1.1/DTD/svg11.dtd">
<svg xmlns="http://www.w3.org/2000/svg" xmlns:xlink="http://www.w3.org/1999/xlink" version="1.1" baseProfile="full" width="24" height="24" viewBox="0 0 24.00 24.00" enable-background="new 0 0 24.00 24.00" xml:space="preserve">
	<path fill="#000000" fill-opacity="1" stroke-width="1.33333" stroke-linejoin="miter" d="M 20.797,7.7448C 20.9257,7.3155 20.797,7 20.1842,7L 18.1579,7C 17.6427,7 17.4052,7.2725 17.2763,7.5731C 17.2763,7.5731 16.2459,10.0848 14.7861,11.7163C 14.3138,12.1885 14.0991,12.3388 13.8415,12.3388C 13.7127,12.3388 13.5195,12.1885 13.5195,11.7592L 13.5195,7.7448C 13.5195,7.2296 13.3768,7 12.9474,7L 9.76316,7C 9.44119,7 9.24756,7.2391 9.24756,7.4658C 9.24756,7.9542 9.97741,8.0668 10.0526,9.4408L 10.0526,12.4247C 10.0526,13.0789 9.93449,13.1976 9.67688,13.1976C 8.98995,13.1976 7.31898,10.6746 6.32795,7.7878C 6.13373,7.2267 5.93893,7 5.42106,7L 3.39474,7C 2.8158,7 2.7,7.2725 2.7,7.5731C 2.7,8.1098 3.38697,10.7717 5.89863,14.2924C 7.57306,16.6967 9.93222,18 12.079,18C 13.367,18 13.5263,17.7105 13.5263,17.2119L 13.5263,15.3947C 13.5263,14.8158 13.6483,14.7002 14.0562,14.7002C 14.3568,14.7002 14.872,14.8505 16.0742,16.0097C 17.4481,17.3836 17.6746,18 18.4474,18L 20.4737,18C 21.0526,18 21.3421,17.7105 21.1751,17.1393C 20.9924,16.5699 20.3364,15.7439 19.466,14.7646C 18.9937,14.2065 18.2853,13.6054 18.0706,13.3048C 17.7701,12.9185 17.8559,12.7467 18.0706,12.4032C 18.0706,12.4032 20.5394,8.9255 20.797,7.7448 Z "/>
</svg>
