<?xml version="1.0" encoding="utf-8"?>
<!DOCTYPE svg PUBLIC "-//W3C//DTD SVG 1.1//EN" "http://www.w3.org/Graphics/SVG/1.1/DTD/svg11.dtd">
<svg xmlns="http://www.w3.org/2000/svg" xmlns:xlink="http://www.w3.org/1999/xlink" version="1.1" baseProfile="full" width="24" height="24" viewBox="0 0 24.00 24.00" enable-background="new 0 0 24.00 24.00" xml:space="preserve">
	<path fill="#000000" fill-opacity="1" stroke-width="1.33333" stroke-linejoin="miter" d="M 12,2.00001C 17.519,2.00001 22,6.48101 22,12C 22,17.519 17.519,22 12,22C 6.481,22 2,17.519 2,12C 2,6.48101 6.481,2.00001 12,2.00001 Z M 13.6,20.349C 15.96,18.035 17.686,15.076 18.492,11.76C 17.843,11.622 17.175,11.538 16.492,11.51C 15.562,15.109 13.409,18.219 10.504,20.369C 10.99,20.455 11.49,20.5 12,20.5C 12.547,20.5 13.082,20.448 13.6,20.349 Z M 9.231,20.039C 12.227,18.067 14.475,15.052 15.456,11.512C 14.706,11.546 13.974,11.648 13.266,11.813C 12.182,14.892 9.971,17.442 7.128,18.966C 7.77,19.415 8.477,19.779 9.231,20.039 Z M 20.492,12.371C 20.156,12.234 19.812,12.113 19.461,12.008C 18.757,14.897 17.392,17.528 15.535,19.732C 18.359,18.438 20.354,15.643 20.492,12.371 Z M 3.555,11.035C 3.519,11.354 3.5,11.678 3.5,12.006C 3.5,14.49 4.569,16.727 6.273,18.28C 6.855,17.995 7.411,17.663 7.936,17.291C 6.083,15.535 4.584,13.41 3.555,11.035 Z M 5.33,6.74401C 4.734,7.49601 4.264,8.35101 3.949,9.27801C 4.916,12.13 6.579,14.662 8.736,16.671C 9.246,16.24 9.72,15.767 10.153,15.257C 7.743,13.033 6.017,10.077 5.33,6.74401 Z M 8.037,4.49201C 7.358,4.85001 6.733,5.29801 6.179,5.82001C 6.706,9.21001 8.371,12.227 10.77,14.466C 11.167,13.91 11.518,13.319 11.817,12.698C 9.678,10.563 8.279,7.68801 8.037,4.49201 Z M 19.963,9.03001C 18.7,8.68401 17.371,8.50001 16,8.50001C 14.1,8.50001 12.281,8.85401 10.608,9.50001C 10.955,10.1 11.353,10.668 11.796,11.196C 13.115,10.745 14.529,10.5 16,10.5C 17.57,10.5 19.076,10.779 20.47,11.29C 20.404,10.501 20.23,9.74301 19.963,9.03001 Z M 17.538,5.56501C 17.031,5.52201 16.518,5.50001 16,5.50001C 13.686,5.50001 11.474,5.93701 9.442,6.73401C 9.623,7.38301 9.858,8.00901 10.14,8.60901C 11.955,7.89301 13.932,7.50001 16,7.50001C 17.175,7.50001 18.32,7.62701 19.423,7.86801C 18.933,6.99301 18.293,6.21401 17.538,5.56501 Z M 15.978,4.50001C 14.791,3.87001 13.437,3.51301 12,3.51301C 10.949,3.51301 9.942,3.70401 9.013,4.05301C 9.039,4.63101 9.106,5.19701 9.211,5.75101C 11.313,4.94501 13.595,4.50301 15.978,4.50001 Z "/>
</svg>
