<?xml version="1.0" encoding="utf-8"?>
<!DOCTYPE svg PUBLIC "-//W3C//DTD SVG 1.1//EN" "http://www.w3.org/Graphics/SVG/1.1/DTD/svg11.dtd">
<svg xmlns="http://www.w3.org/2000/svg" xmlns:xlink="http://www.w3.org/1999/xlink" version="1.1" baseProfile="full" width="24" height="24" viewBox="0 0 24.00 24.00" enable-background="new 0 0 24.00 24.00" xml:space="preserve">
	<path fill="#000000" fill-opacity="1" stroke-width="0.2" stroke-linejoin="round" d="M 11.9994,3.99805L 9.9084,6.08905L 11.9994,8.18005M 4.2724,2.99805L 2.9994,4.27106L 7.7264,8.99805L 2.9994,8.99805L 2.9994,14.998L 6.9994,14.998L 11.9994,19.998L 11.9994,13.2711L 16.2544,17.5261C 15.5844,18.043 14.8304,18.4561 13.9994,18.704L 13.9994,20.767C 15.3764,20.454 16.6284,19.8201 17.6844,18.9561L 19.7264,20.998L 20.9994,19.725L 11.9994,10.725M 18.9994,11.998C 18.9994,12.9371 18.7954,13.822 18.4604,14.6401L 19.9744,16.1541C 20.6244,14.91 20.9994,13.499 20.9994,11.998C 20.9994,7.71503 18.0064,4.13806 13.9994,3.22803L 13.9994,5.29205C 16.8904,6.15204 18.9994,8.82806 18.9994,11.998 Z M 16.4994,11.998C 16.4994,10.2321 15.4794,8.70807 13.9994,7.97003L 13.9994,10.1801L 16.4534,12.634C 16.4834,12.426 16.4994,12.2141 16.4994,11.998 Z "/>
</svg>
