<?xml version="1.0" encoding="utf-8"?>
<!DOCTYPE svg PUBLIC "-//W3C//DTD SVG 1.1//EN" "http://www.w3.org/Graphics/SVG/1.1/DTD/svg11.dtd">
<svg xmlns="http://www.w3.org/2000/svg" xmlns:xlink="http://www.w3.org/1999/xlink" version="1.1" baseProfile="full" width="24" height="24" viewBox="0 0 24.00 24.00" enable-background="new 0 0 24.00 24.00" xml:space="preserve">
	<path fill="#000000" fill-opacity="1" stroke-width="0.2" stroke-linejoin="round" d="M 13.9994,3.22858L 13.9994,5.29156C 16.8904,6.15253 18.9994,8.82855 18.9994,11.9976C 18.9994,15.1675 16.8904,17.8436 13.9994,18.7045L 13.9994,20.7675C 18.0064,19.8566 20.9994,16.2805 20.9994,11.9976C 20.9994,7.71558 18.0064,4.13855 13.9994,3.22858 Z M 16.4994,11.9976C 16.4994,10.2325 15.4794,8.70752 13.9994,7.97052L 13.9994,16.0256C 15.4794,15.2875 16.4994,13.7635 16.4994,11.9976 Z M 2.9994,8.99756L 2.9994,14.9976L 6.9994,14.9976L 11.9994,19.9976L 11.9994,3.99756L 6.9994,8.99756L 2.9994,8.99756 Z "/>
</svg>
