<?xml version="1.0" encoding="utf-8"?>
<!DOCTYPE svg PUBLIC "-//W3C//DTD SVG 1.1//EN" "http://www.w3.org/Graphics/SVG/1.1/DTD/svg11.dtd">
<svg xmlns="http://www.w3.org/2000/svg" xmlns:xlink="http://www.w3.org/1999/xlink" version="1.1" baseProfile="full" width="24" height="24" viewBox="0 0 24.00 24.00" enable-background="new 0 0 24.00 24.00" xml:space="preserve">
	<path fill="#000000" fill-opacity="1" stroke-width="1.33333" stroke-linejoin="miter" d="M 18,13L 21,16L 21,20C 21,21.11 20.1,22 19,22L 4.99,22C 3.89,22 3,21.1 3,20L 3,16L 6,13L 6.83,13L 8.83,15L 6.78,15L 5,17L 19,17L 17.23,15L 15.32,15L 17.32,13L 18,13 Z M 19,20L 19,19L 5,19L 5,20L 19,20 Z M 11.34,15.02L 6.39,10.07C 6,9.68 6,9.05 6.39,8.66L 12.76,2.29C 13.15,1.9 13.78,1.9 14.16,2.3L 19.11,7.25C 19.5,7.64 19.5,8.27 19.11,8.66L 12.75,15.02C 12.36,15.41 11.73,15.41 11.34,15.02 Z M 13.46,4.41L 8.51,9.36L 12.05,12.9L 17,7.95L 13.46,4.41 Z "/>
</svg>
