<?xml version="1.0" encoding="utf-8"?>
<!DOCTYPE svg PUBLIC "-//W3C//DTD SVG 1.1//EN" "http://www.w3.org/Graphics/SVG/1.1/DTD/svg11.dtd">
<svg xmlns="http://www.w3.org/2000/svg" xmlns:xlink="http://www.w3.org/1999/xlink" version="1.1" baseProfile="full" width="24" height="24" viewBox="0 0 24.00 24.00" enable-background="new 0 0 24.00 24.00" xml:space="preserve">
	<path fill="#000000" fill-opacity="1" stroke-width="1.33333" stroke-linejoin="miter" d="M 5,3C 3.89,3 3,3.9 3,5L 3,19C 3,20.1 3.89,21 5,21L 19,21C 20.1,21 21,20.1 21,19L 21,16.7207C 21.59,16.3707 22,15.74 22,15L 22,9C 22,8.26 21.59,7.6293 21,7.2793L 21,5C 21,3.9 20.1,3 19,3L 5,3 Z M 5,5L 19,5L 19,7L 13,7C 11.9,7 11,7.9 11,9L 11,15C 11,16.1 11.9,17 13,17L 19,17L 19,19L 5,19L 5,5 Z M 13,9L 20,9L 20,15L 13,15L 13,9 Z M 16,10.5C 15.1716,10.5 14.5,11.1716 14.5,12C 14.5,12.8284 15.1716,13.5 16,13.5C 16.8284,13.5 17.5,12.8284 17.5,12C 17.5,11.1716 16.8284,10.5 16,10.5 Z "/>
</svg>
