<?xml version="1.0" encoding="utf-8"?>
<!DOCTYPE svg PUBLIC "-//W3C//DTD SVG 1.1//EN" "http://www.w3.org/Graphics/SVG/1.1/DTD/svg11.dtd">
<svg xmlns="http://www.w3.org/2000/svg" xmlns:xlink="http://www.w3.org/1999/xlink" version="1.1" baseProfile="full" width="24" height="24" viewBox="0 0 24.00 24.00" enable-background="new 0 0 24.00 24.00" xml:space="preserve">
	<path fill="#000000" fill-opacity="1" stroke-linejoin="round" d="M 20,14L 4,14L 4,8L 7,8L 7,10L 9,10L 9,8L 15,8L 15,10L 17,10L 17,8L 20,8M 20,19L 4,19L 4,17L 20,17M 9,4L 15,4L 15,6L 9,6M 20,6L 17,6L 17,4C 17,2.89 16.11,2 15,2L 9,2C 7.89,2 7,2.89 7,4L 7,6L 4,6C 2.89,6 2,6.89 2,8L 2,19C 2,20.11 2.89,21 4,21L 20,21C 21.11,21 22,20.11 22,19L 22,8C 22,6.89 21.11,6 20,6 Z "/>
</svg>
