<?xml version="1.0" encoding="utf-8"?>
<!DOCTYPE svg PUBLIC "-//W3C//DTD SVG 1.1//EN" "http://www.w3.org/Graphics/SVG/1.1/DTD/svg11.dtd">
<svg xmlns="http://www.w3.org/2000/svg" xmlns:xlink="http://www.w3.org/1999/xlink" version="1.1" baseProfile="full" width="24" height="24" viewBox="0 0 24.00 24.00" enable-background="new 0 0 24.00 24.00" xml:space="preserve">
	<path fill="#000000" fill-opacity="1" stroke-width="1.33333" stroke-linejoin="miter" d="M 4,4L 11,4L 11,2L 4,2C 2.9,2 2,2.9 2,4L 2,11L 4,11L 4,4 Z M 10,13L 6,18L 18,18L 15,14L 12.97,16.71L 10,13 Z M 17,8.5C 17,7.67 16.33,7 15.5,7C 14.67,7 14,7.67 14,8.5C 14,9.33 14.67,10 15.5,10C 16.33,10 17,9.33 17,8.5 Z M 20,2L 13,2L 13,4L 20,4L 20,11L 22,11L 22,4C 22,2.9 21.1,2 20,2 Z M 20,20L 13,20L 13,22L 20,22C 21.1,22 22,21.1 22,20L 22,13L 20,13L 20,20 Z M 4,13L 2,13L 2,20C 2,21.1 2.9,22 4,22L 11,22L 11,20L 4,20L 4,13 Z "/>
</svg>
