<?xml version="1.0" encoding="utf-8"?>
<!DOCTYPE svg PUBLIC "-//W3C//DTD SVG 1.1//EN" "http://www.w3.org/Graphics/SVG/1.1/DTD/svg11.dtd">
<svg xmlns="http://www.w3.org/2000/svg" xmlns:xlink="http://www.w3.org/1999/xlink" version="1.1" baseProfile="full" width="24" height="24" viewBox="0 0 24.00 24.00" enable-background="new 0 0 24.00 24.00" xml:space="preserve">
	<path fill="#000000" fill-opacity="1" stroke-linejoin="round" d="M 20,10L 4,10L 4,4L 20,4M 20,15L 4,15L 4,13L 20,13M 20,2L 4,2C 2.89,2 2,2.89 2,4L 2,15C 2,16.11 2.89,17 4,17L 8,17L 8,22L 12,20L 16,22L 16,17L 20,17C 21.11,17 22,16.11 22,15L 22,4C 22,2.89 21.11,2 20,2 Z "/>
</svg>
