<?xml version="1.0" encoding="utf-8"?>
<!DOCTYPE svg PUBLIC "-//W3C//DTD SVG 1.1//EN" "http://www.w3.org/Graphics/SVG/1.1/DTD/svg11.dtd">
<svg xmlns="http://www.w3.org/2000/svg" xmlns:xlink="http://www.w3.org/1999/xlink" version="1.1" baseProfile="full" width="24" height="24" viewBox="0 0 24.00 24.00" enable-background="new 0 0 24.00 24.00" xml:space="preserve">
	<path fill="#000000" fill-opacity="1" stroke-width="0.2" stroke-linejoin="round" d="M 14.0003,11.0009L 19.0107,11.0009L 16.5056,8.49574L 17.9198,7.08153L 22.8391,12.0009L 17.9198,16.9204L 16.5056,15.5062L 19.0107,13.0009L 14.0003,13.0009L 14.0003,11.0009 Z M 12,18C 8.68701,18 6,15.314 6,12C 6,8.686 8.68701,6.00001 12,6.00001C 13.4023,6.00001 14.6921,6.48091 15.7136,7.2868L 17.1302,5.87017L 16.954,5.727L 16,9.53674e-006L 8,9.53674e-006L 7.04501,5.727C 5.19198,7.19198 4,9.455 4,12C 4,14.545 5.19198,16.808 7.04501,18.273L 8,24L 16,24L 16.954,18.273L 17.1291,18.1307L 15.7125,16.7141C 14.6912,17.5194 13.4018,18 12,18 Z "/>
</svg>
