<?xml version="1.0" encoding="utf-8"?>
<!DOCTYPE svg PUBLIC "-//W3C//DTD SVG 1.1//EN" "http://www.w3.org/Graphics/SVG/1.1/DTD/svg11.dtd">
<svg xmlns="http://www.w3.org/2000/svg" xmlns:xlink="http://www.w3.org/1999/xlink" version="1.1" baseProfile="full" width="24" height="24" viewBox="0 0 24.00 24.00" enable-background="new 0 0 24.00 24.00" xml:space="preserve">
	<path fill="#000000" fill-opacity="1" stroke-width="1.33333" stroke-linejoin="miter" d="M 8,0L 7.17188,5L 7,5C 5.9,5 5,5.89 5,7L 5,17C 5,18.11 5.9,19 7,19L 7.17188,19L 8,24L 16,24L 16.8281,19L 17,19C 18.1,19 19,18.11 19,17L 19,7C 19,5.89 18.1,5 17,5L 16.8281,5L 16,0L 8,0 Z M 7,7L 17,7L 17,17L 7,17L 7,7 Z "/>
</svg>
