<?xml version="1.0" encoding="utf-8"?>
<!DOCTYPE svg PUBLIC "-//W3C//DTD SVG 1.1//EN" "http://www.w3.org/Graphics/SVG/1.1/DTD/svg11.dtd">
<svg xmlns="http://www.w3.org/2000/svg" xmlns:xlink="http://www.w3.org/1999/xlink" version="1.1" baseProfile="full" width="24" height="24" viewBox="0 0 24.00 24.00" enable-background="new 0 0 24.00 24.00" xml:space="preserve">
	<path fill="#000000" fill-opacity="1" stroke-width="0.2" stroke-linejoin="miter" d="M 1.27157e-006,9L 2,9L 2,15L 1.27157e-006,15L 1.27157e-006,9 Z M 12,7.5C 14.4742,7.511 16.471,9.5257 16.46,12C 16.4531,12.3818 16.3993,12.7613 16.3,13.13L 17.48,14.31C 17.8117,13.5844 17.9888,12.7977 18,12C 17.9946,10.1709 17.1552,8.4441 15.72,7.31L 15,3L 9,3L 8.59,5.39L 10.86,7.66015C 11.2303,7.55176 11.6143,7.4981 12,7.5 Z M 21,17L 21,7L 19,7L 19,15.8L 20.2,17L 21,17 Z M 16.5098,15.86L 22.11,21.46L 20.8398,22.73L 15.55,17.44L 15,21L 9,21L 8.27,16.72C 5.85465,14.8182 5.26743,11.3986 6.91001,8.8L 1.11,3L 2.39,1.73L 8.09,7.44L 9.17,8.51L 15.44,14.79L 16.5098,15.86 Z M 14.05,15.94L 8.05,9.94C 7.69703,10.5698 7.50791,11.2781 7.5,12C 7.51102,14.4742 9.5257,16.471 12,16.46C 12.7155,16.4563 13.4193,16.2778 14.05,15.94 Z M 22,9L 22,15L 24,15L 24,9L 22,9 Z M 3,17L 5,17L 5,7L 3,7L 3,17 Z "/>
</svg>
