<?xml version="1.0" encoding="utf-8"?>
<!DOCTYPE svg PUBLIC "-//W3C//DTD SVG 1.1//EN" "http://www.w3.org/Graphics/SVG/1.1/DTD/svg11.dtd">
<svg xmlns="http://www.w3.org/2000/svg" xmlns:xlink="http://www.w3.org/1999/xlink" version="1.1" baseProfile="full" width="24" height="24" viewBox="0 0 24.00 24.00" enable-background="new 0 0 24.00 24.00" xml:space="preserve">
	<path fill="#000000" fill-opacity="1" stroke-width="0.2" stroke-linejoin="round" d="M 12.0025,3.2525C 12.0025,3.2525 6.00125,10 6.00125,13.9987C 6.00125,17.315 8.68625,20 12.0025,20C 15.3125,20 17.9975,17.315 17.9975,13.9987C 17.9975,10 12.0025,3.2525 12.0025,3.2525 Z M 14.4675,9.97125L 15.5325,11.03L 9.53125,17.0313L 8.46625,15.9662M 9.75125,10C 10.44,10 11.0013,10.5612 11.0013,11.25C 11.0013,11.9387 10.44,12.5 9.75125,12.5C 9.0575,12.5 8.50125,11.9387 8.50125,11.25C 8.50125,10.5612 9.0575,10 9.75125,10 Z M 14.2475,14.5025C 14.9413,14.5025 15.4975,15.0588 15.4975,15.7525C 15.4975,16.44 14.9413,17.0025 14.2475,17.0025C 13.56,17.0025 12.9975,16.44 12.9975,15.7525C 12.9975,15.0588 13.56,14.5025 14.2475,14.5025 Z "/>
</svg>
