<?xml version="1.0" encoding="utf-8"?>
<!DOCTYPE svg PUBLIC "-//W3C//DTD SVG 1.1//EN" "http://www.w3.org/Graphics/SVG/1.1/DTD/svg11.dtd">
<svg xmlns="http://www.w3.org/2000/svg" xmlns:xlink="http://www.w3.org/1999/xlink" version="1.1" baseProfile="full" width="24" height="24" viewBox="0 0 24.00 24.00" enable-background="new 0 0 24.00 24.00" xml:space="preserve">
	<path fill="#000000" fill-opacity="1" stroke-width="1.33333" stroke-linejoin="miter" d="M 12,3.7676L 11.252,4.6094C 11.252,4.6094 9.96597,6.056 8.67578,7.9375C 7.38559,9.819 6,12.0658 6,14.2324C 6,17.5343 8.69814,20.2324 12,20.2324C 15.3019,20.2324 18,17.5343 18,14.2324C 18,12.0658 16.6144,9.819 15.3242,7.9375C 14.034,6.056 12.748,4.6094 12.748,4.6094L 12,3.7676 Z M 12,6.9043C 12.4376,7.4236 12.8395,7.8488 13.6758,9.0684C 14.8856,10.8327 16,13.0658 16,14.2324C 16,16.4534 14.221,18.2324 12,18.2324C 9.77902,18.2324 8,16.4534 8,14.2324C 8,13.0658 9.11441,10.8327 10.3242,9.0684C 11.1605,7.8488 11.5624,7.4236 12,6.9043 Z "/>
</svg>
