<?xml version="1.0" encoding="utf-8"?>
<!DOCTYPE svg PUBLIC "-//W3C//DTD SVG 1.1//EN" "http://www.w3.org/Graphics/SVG/1.1/DTD/svg11.dtd">
<svg xmlns="http://www.w3.org/2000/svg" xmlns:xlink="http://www.w3.org/1999/xlink" version="1.1" baseProfile="full" width="24" height="24" viewBox="0 0 24.00 24.00" enable-background="new 0 0 24.00 24.00" xml:space="preserve">
	<path fill="#000000" fill-opacity="1" stroke-linejoin="round" d="M 20,12L 22,12L 22,14L 20,14C 18.62,14 17.26,13.6507 16,13C 13.5,14.3027 10.5,14.3027 8,13C 6.74,13.6507 5.36934,14 4,14L 2,14L 2,12L 4,12C 5.39067,12 6.78134,11.532 8,10.672C 10.4373,12.38 13.5627,12.38 16,10.672C 17.2187,11.532 18.6093,12 20,12 Z M 20,6L 22,6L 22,8L 20,8C 18.62,8 17.26,7.65067 16,7C 13.5,8.30267 10.5,8.30267 8,7C 6.74,7.65067 5.36933,8 4,8L 2,8L 2,6L 4,6C 5.39067,6 6.78133,5.532 8,4.672C 10.4373,6.38 13.5627,6.38 16,4.672C 17.2187,5.532 18.6093,6 20,6 Z M 20,18L 22,18L 22,20L 20,20C 18.62,20 17.26,19.6507 16,19C 13.5,20.3027 10.5,20.3027 8,19C 6.74,19.6507 5.36933,20 4,20L 2,20L 2,18L 4,18C 5.39067,18 6.78133,17.532 8,16.672C 10.4373,18.38 13.5627,18.38 16,16.672C 17.2187,17.532 18.6093,18 20,18 Z "/>
</svg>
