<?xml version="1.0" encoding="utf-8"?>
<!DOCTYPE svg PUBLIC "-//W3C//DTD SVG 1.1//EN" "http://www.w3.org/Graphics/SVG/1.1/DTD/svg11.dtd">
<svg xmlns="http://www.w3.org/2000/svg" xmlns:xlink="http://www.w3.org/1999/xlink" version="1.1" baseProfile="full" width="24" height="24" viewBox="0 0 24.00 24.00" enable-background="new 0 0 24.00 24.00" xml:space="preserve">
	<path fill="#000000" fill-opacity="1" stroke-width="0.2" stroke-linejoin="round" d="M 2.00001,18C 4.22224,17 6.44446,16 8.66668,16C 10.8889,16 13.1111,18 15.3333,18C 17.5556,18 19.7778,16 22,16L 22,19C 19.7778,19 17.5556,21 15.3333,21C 13.1111,21 10.8889,19 8.66668,19C 6.44446,19 4.22224,20 2.00001,21L 2.00001,18 Z M 2.00002,12C 4.22224,11 6.44446,10 8.66668,10C 10.8889,10 13.1111,12 15.3333,12C 17.5556,12 19.7778,10 22,10L 22,13C 19.7778,13 17.5556,15 15.3333,15C 13.1111,15 10.8889,13 8.66668,13C 6.44446,13 4.22224,14 2.00002,15L 2.00002,12 Z M 2.00002,6C 4.22224,5 6.44446,4 8.66668,4C 10.8889,4 13.1111,6 15.3333,6C 17.5556,6 19.7778,4 22,4L 22,7C 19.7778,7 17.5556,9 15.3333,9C 13.1111,9 10.8889,7 8.66668,7C 6.44446,7 4.22224,8 2.00002,8.99999L 2.00002,6 Z "/>
</svg>
