<?xml version="1.0" encoding="utf-8"?>
<!DOCTYPE svg PUBLIC "-//W3C//DTD SVG 1.1//EN" "http://www.w3.org/Graphics/SVG/1.1/DTD/svg11.dtd">
<svg xmlns="http://www.w3.org/2000/svg" xmlns:xlink="http://www.w3.org/1999/xlink" version="1.1" baseProfile="full" width="24" height="24" viewBox="0 0 24.00 24.00" enable-background="new 0 0 24.00 24.00" xml:space="preserve">
	<path fill="#000000" fill-opacity="1" stroke-width="1.33333" stroke-linejoin="miter" d="M 20.54,6.63C 21.2311,7.5743 21.6933,8.6664 21.89,9.82C 22.095,11.0666 21.9885,12.3445 21.58,13.54C 21.1756,14.7092 20.4885,15.7603 19.58,16.6C 18.9113,17.2384 18.1492,17.7712 17.32,18.18C 17.7265,19.2514 17.1899,20.4497 16.12,20.86C 15.8837,20.9507 15.6331,20.9981 15.38,21C 14.2657,20.9955 13.3529,20.1135 13.31,19C 13.05,19 10.73,19 10.24,19C 10.1288,20.1434 9.11182,20.9801 7.96846,20.8689C 6.91462,20.7665 6.10594,19.8887 6.09,18.83C 6.09725,18.6363 6.13089,18.4446 6.19,18.26C 4.60167,17.7314 3.20834,16.7386 2.19,15.41C 1.86286,14.965 1.95839,14.3391 2.42,14C 2.59862,13.8567 2.821,13.779 3.05,13.78C 3.77,13.78 4.05,13.53 4.22,13.15C 4.46407,12.4312 4.59562,11.679 4.61,10.92C 4.64031,10.3941 4.69705,9.8702 4.78,9.35C 5.13135,7.6165 6.10178,6.0702 7.51,5C 9.15759,3.7035 11.1935,2.9991 13.29,3C 14.7189,3.0111 16.1258,3.3534 17.4,4C 18.639,4.6175 19.7148,5.5186 20.54,6.63 Z M 16.72,17.31C 18.5077,16.5177 19.9021,15.0404 20.59,13.21C 22.21,8.27 18.01,4.05 13.29,4.05C 12.9355,4.0484 12.5813,4.0718 12.23,4.12C 9.36,4.51 6.4,6.52 5.81,9.51C 5.43,11.51 6.01,14.79 3.05,14.79C 4.00192,16.0228 5.31722,16.9254 6.81,17.37C 7.66433,16.6103 8.97273,16.6871 9.74,17.55C 9.84767,17.6691 9.94159,17.7999 10.02,17.94C 10.59,17.94 13.2,17.94 13.55,17.94C 14.0748,16.9184 15.3283,16.5155 16.35,17.04C 16.4802,17.1202 16.6039,17.2104 16.72,17.31 Z M 10.97,10.31C 10.3855,10.3431 9.88484,9.8962 9.8517,9.3117C 9.81856,8.7272 10.2655,8.2265 10.85,8.1934C 11.4345,8.1603 11.9352,8.6072 11.97,9.25C 11.9923,9.8018 11.5631,10.2673 11,10.29L 10.97,10.31 Z M 15.66,10.31C 15.0755,10.3431 14.5748,9.8962 14.5417,9.3117C 14.5086,8.7272 14.9555,8.2265 15.54,8.1934C 16.1245,8.1603 16.6252,8.6072 16.66,9.25C 16.6821,9.8018 16.2526,10.2671 15.66,10.29L 15.66,10.31 Z M 9.71,12.07C 9.65456,11.7861 9.83703,11.5101 10.12,11.45C 10.4028,11.4001 10.6752,11.5802 10.74,11.86L 10.74,11.86C 11.0933,12.9675 12.1608,13.6874 13.32,13.6C 14.4625,13.6571 15.5072,12.958 15.89,11.88C 16.0253,11.6204 16.3453,11.5196 16.6049,11.6549C 16.7786,11.7454 16.8882,11.9242 16.89,12.12C 16.698,12.8322 16.2629,13.4549 15.66,13.88C 14.9739,14.3623 14.1586,14.6271 13.32,14.64L 13.21,14.64C 11.576,14.7074 10.1119,13.6374 9.68,12.06L 9.71,12.07 Z "/>
</svg>
