<?xml version="1.0" encoding="utf-8"?>
<!DOCTYPE svg PUBLIC "-//W3C//DTD SVG 1.1//EN" "http://www.w3.org/Graphics/SVG/1.1/DTD/svg11.dtd">
<svg xmlns="http://www.w3.org/2000/svg" xmlns:xlink="http://www.w3.org/1999/xlink" version="1.1" baseProfile="full" width="24" height="24" viewBox="0 0 24.00 24.00" enable-background="new 0 0 24.00 24.00" xml:space="preserve">
	<path fill="#000000" fill-opacity="1" stroke-linejoin="round" d="M 4,16.36C 3.86,15.8173 4.18267,15.2507 4.72933,15.1093L 7,14.5L 5.328,12.86C 4.932,12.4587 4.932,11.812 5.328,11.4013C 5.72933,11 6.40133,11 6.792,11.4013L 8.448,13.052L 9.04133,10.8027C 9.18267,10.24 9.74933,9.92133 10.292,10.068C 10.8493,10.208 11.172,10.7813 11,11.328L 10.4213,13.5787L 12.672,13C 13.2187,12.828 13.792,13.1507 13.932,13.708C 14.0787,14.2507 13.76,14.8173 13.1973,14.9587L 10.948,15.552L 12.5987,17.208C 13,17.5987 13,18.2707 12.5987,18.672C 12.1973,19.068 11.5413,19.068 11.1507,18.672L 9.5,17L 8.89067,19.2707C 8.74933,19.828 8.18267,20.14 7.64,20C 7.07867,19.86 6.77067,19.292 6.912,18.74L 7.5,16.5L 5.26,17.088C 4.708,17.2293 4.14,16.9213 4,16.36 Z M 1,10C 1,7.24 3.24,5 6,5C 7,2.65067 9.30267,1 12,1C 15.432,1 18.24,3.66133 18.5,7.03067L 19,7C 21.208,7 23,8.792 23,11C 23,13.208 21.208,15 19,15C 18.448,15 18,14.552 18,14C 18,13.448 18.448,13 19,13C 20.0987,13 21,12.0987 21,11C 21,9.90133 20.0987,9 19,9L 17,9L 17,8C 17,5.24 14.76,3 12,3C 9.5,3 7.448,4.81733 7.06267,7.188C 6.72933,7.068 6.36933,7 6,7C 4.33867,7 3,8.33867 3,10C 3,10.8493 3.34933,11.6093 3.912,12.1613C 4.27067,12.552 4.26,13.1613 3.88,13.5413C 3.5,13.932 2.84933,13.932 2.46933,13.5413C 1.56267,12.6307 1,11.38 1,10 Z M 14.0267,20.4267C 14.1253,20.8173 14.5213,21.0413 14.912,20.9373L 16.484,20.5107L 16.0627,22.088C 15.9587,22.4787 16.1827,22.8747 16.5733,22.9733C 16.9533,23.0787 17.3493,22.8547 17.448,22.464L 17.86,20.8853L 19.0267,22.0467C 19.2973,22.328 19.7653,22.328 20.0467,22.0467C 20.328,21.7653 20.328,21.2973 20.0467,21.0267L 18.8853,19.86L 20.464,19.448C 20.8547,19.3493 21.0787,18.9533 20.9733,18.5733C 20.8747,18.1827 20.4787,17.9587 20.088,18.0627L 18.5107,18.484L 18.9373,16.912C 19.0413,16.5213 18.8173,16.1253 18.4267,16.0267C 18.0467,15.9213 17.6507,16.1453 17.552,16.536L 17.14,18.1093L 15.9733,16.9533C 15.6973,16.672 15.2347,16.672 14.9533,16.9533C 14.672,17.24 14.672,17.7027 14.9533,17.9733L 16.1093,19.14L 14.536,19.552C 14.1453,19.6507 13.9213,20.0467 14.0267,20.4267 Z "/>
</svg>
