<?xml version="1.0" encoding="utf-8"?>
<!DOCTYPE svg PUBLIC "-//W3C//DTD SVG 1.1//EN" "http://www.w3.org/Graphics/SVG/1.1/DTD/svg11.dtd">
<svg xmlns="http://www.w3.org/2000/svg" xmlns:xlink="http://www.w3.org/1999/xlink" version="1.1" baseProfile="full" width="24" height="24" viewBox="0 0 24.00 24.00" enable-background="new 0 0 24.00 24.00" xml:space="preserve">
	<path fill="#000000" fill-opacity="1" stroke-linejoin="round" d="M 13.552,2.66134C 13,2.42267 12.4533,2.256 11.88,2.14667L 14.3747,0.844002L 15.2707,3.73467C 14.76,3.31333 14.1933,2.95334 13.552,2.66134 Z M 6.09333,3.464C 5.604,3.81334 5.172,4.21334 4.80267,4.656L 4.912,1.844L 7.87467,2.52667C 7.25067,2.73467 6.65067,3.052 6.09333,3.464 Z M 18,8.73467C 17.912,8.14667 17.7813,7.57333 17.5933,7.02667L 19.9747,8.52667L 17.9227,10.756C 18.032,10.104 18.052,9.42267 18,8.73467 Z M 3.04133,10.3227C 3.11467,10.9227 3.24533,11.4947 3.432,12.0267L 1.06267,10.5267L 3.104,8.30267C 3,8.95333 2.97467,9.636 3.04133,10.3227 Z M 16.6773,22.2133C 16.6773,23.204 15.912,24 14.9533,24C 13.9947,24 13.2293,23.204 13.2293,22.2133C 13.2293,21.032 14.9533,19.0267 14.9533,19.0267C 14.9533,19.0267 16.6773,21.032 16.6773,22.2133 Z M 6.02667,21.4533C 5.92667,21.0733 6.15067,20.6773 6.536,20.5787L 8.12533,20.1507L 6.95867,19.0053C 6.67733,18.724 6.67733,18.2653 6.95867,17.98C 7.23467,17.704 7.70267,17.704 7.98,17.98L 9.14133,19.136L 9.552,17.5627C 9.65067,17.1667 10.052,16.9427 10.4267,17.052C 10.8227,17.1467 11.0467,17.5467 10.9267,17.932L 10.5213,19.5053L 12.0987,19.0987C 12.4787,18.98 12.88,19.208 12.98,19.5987C 13.084,19.9747 12.86,20.3747 12.4693,20.4747L 10.8907,20.8853L 12.0467,22.0467C 12.328,22.3227 12.328,22.792 12.0467,23.068C 11.7653,23.3493 11.308,23.3493 11.032,23.068L 9.87467,21.9013L 9.448,23.4893C 9.35466,23.88 8.95333,24.0987 8.57333,24C 8.18267,23.9013 7.96933,23.5053 8.06266,23.12L 8.47867,21.552L 6.90667,21.964C 6.52133,22.0627 6.12533,21.844 6.02667,21.4533 Z M 19,15.0267C 18.6507,15.0267 18.3133,15.084 18,15.1933L 18,15.0267C 18,13.2133 17.1933,11.584 15.9227,10.484C 16.3547,8.052 15.104,5.52667 12.7453,4.49467C 9.97467,3.26534 6.724,4.52667 5.5,7.28134C 4.604,9.26533 5,11.4747 6.27067,13.0267L 6,13.0267C 3.792,13.0267 2,14.8133 2,17.0267C 2,18.172 2.49467,19.204 3.26533,19.932L 3.27067,19.9267C 3.27067,19.9267 3.97467,20.636 4.68267,19.9267C 5.39067,19.2187 4.68267,18.516 4.68267,18.516C 4.27067,18.1467 4,17.62 4,17.0267C 4,15.9227 4.90133,15.0267 6,15.0267L 8,15.0267C 8,12.8133 9.792,11.0267 12,11.0267C 14.2133,11.0267 16,12.8133 16,15.0267L 16,17.0267L 19,17.0267C 19.552,17.0267 20,17.4747 20,18.0267C 20,18.5733 19.552,19.0267 19,19.0267L 18,19.0267C 18,19.0267 17,19.0267 17,20.0267C 17,21.0267 18,21.0267 18,21.0267L 19,21.0267C 20.6613,21.0267 22,19.6827 22,18.0267C 22,16.3653 20.6613,15.0267 19,15.0267 Z M 12,9.02667C 10.1613,9.02667 8.5,9.85467 7.412,11.156C 6.932,10.2453 6.85467,9.11467 7.31333,8.09467C 8.09333,6.33334 10.1613,5.52667 11.932,6.32267C 13.1827,6.88534 13.9427,8.084 14,9.36533C 13.38,9.14667 12.7027,9.02667 12,9.02667 Z "/>
</svg>
