<?xml version="1.0" encoding="utf-8"?>
<!DOCTYPE svg PUBLIC "-//W3C//DTD SVG 1.1//EN" "http://www.w3.org/Graphics/SVG/1.1/DTD/svg11.dtd">
<svg xmlns="http://www.w3.org/2000/svg" xmlns:xlink="http://www.w3.org/1999/xlink" version="1.1" baseProfile="full" width="24" height="24" viewBox="0 0 24.00 24.00" enable-background="new 0 0 24.00 24.00" xml:space="preserve">
	<path fill="#000000" fill-opacity="1" stroke-width="0.2" stroke-linejoin="round" d="M 12.7411,5.47192C 15.0989,6.52166 16.3543,9.02649 15.9207,11.458C 17.1941,12.5583 18,14.185 18,16L 17.9976,16.1716C 18.3111,16.0605 18.6485,16 19,16C 20.6569,16 22,17.3431 22,19C 22,20.6569 20.6569,22 19,22L 6,22C 3.79086,22 2,20.2091 2,18C 2,15.7909 3.79086,14 6,14L 6.27216,14.0113C 4.9792,12.4521 4.59994,10.2351 5.47958,8.25937C 6.71507,5.48442 9.96618,4.23643 12.7411,5.47192 Z M 11.9277,7.29902C 10.1618,6.5128 8.09289,7.30697 7.30667,9.07285C 6.85188,10.0943 6.92589,11.2172 7.41091,12.1345C 8.51153,10.8292 10.1589,10 12,10C 12.7018,10 13.3755,10.1205 14.0014,10.3419C 13.9438,9.05954 13.1801,7.85666 11.9277,7.29902 Z M 13.5546,3.64484C 13.0077,3.40137 12.4473,3.22862 11.8836,3.12266L 14.3681,1.81776L 15.2748,4.70689C 14.7639,4.28639 14.1885,3.92705 13.5546,3.64484 Z M 6.08901,4.43998C 5.60473,4.79183 5.17493,5.19078 4.80131,5.626L 4.91345,2.82194L 7.86887,3.48128C 7.24927,3.71347 6.65035,4.03214 6.08901,4.43998 Z M 17.976,9.71267C 17.9134,9.11734 17.7828,8.54563 17.5927,8.00446L 19.9651,9.50361L 17.9163,11.7334C 18.0251,11.0807 18.0485,10.4027 17.976,9.71267 Z M 3.04482,11.3029C 3.1074,11.8983 3.238,12.47 3.4281,13.0111L 1.05578,11.512L 3.10449,9.28219C 2.99577,9.93487 2.9723,10.6129 3.04482,11.3029 Z M 19,18L 16,18L 16,16C 16,13.7909 14.2091,12 12,12C 9.79086,12 8,13.7909 8,16L 6,16C 4.89543,16 4,16.8954 4,18C 4,19.1046 4.89543,20 6,20L 19,20C 19.5523,20 20,19.5523 20,19C 20,18.4477 19.5523,18 19,18 Z "/>
</svg>
