<?xml version="1.0" encoding="utf-8"?>
<!DOCTYPE svg PUBLIC "-//W3C//DTD SVG 1.1//EN" "http://www.w3.org/Graphics/SVG/1.1/DTD/svg11.dtd">
<svg xmlns="http://www.w3.org/2000/svg" xmlns:xlink="http://www.w3.org/1999/xlink" version="1.1" baseProfile="full" width="24" height="24" viewBox="0 0 24.00 24.00" enable-background="new 0 0 24.00 24.00" xml:space="preserve">
	<path fill="#000000" fill-opacity="1" stroke-linejoin="round" d="M 12.7453,4.468C 15.104,5.5 16.3547,8.02533 15.9227,10.4573C 17.1933,11.5573 18,13.1867 18,15L 18,15.1667C 18.3133,15.0573 18.6507,15 19,15C 20.6613,15 22,16.3387 22,18C 22,19.656 20.6613,21 19,21L 17,21C 17,21 16,21 16,20C 16,19 17,19 17,19L 19,19C 19.552,19 20,18.5467 20,18C 20,17.448 19.552,17 19,17L 16,17L 16,15C 16,12.7867 14.2133,11 12,11C 9.792,11 8,12.7867 8,15L 6,15C 4.90134,15 4,15.896 4,17C 4,18.0987 4.90134,19 6,19L 7,19C 7,19 8,19 8,20C 8,21 7,21 7,21L 6,21C 3.792,21 2,19.208 2,17C 2,14.7867 3.792,13 6,13L 6.27067,13C 5,11.448 4.604,9.23867 5.5,7.25467C 6.724,4.5 9.97467,3.23867 12.7453,4.468 Z M 11.932,6.296C 10.1613,5.5 8.09334,6.30667 7.31334,8.068C 6.85467,9.088 6.932,10.2187 7.412,11.1293C 8.5,9.828 10.1613,9 12,9C 12.7027,9 13.38,9.12 14,9.33867C 13.9427,8.05733 13.1827,6.85867 11.932,6.296 Z M 13.552,2.63467C 13,2.396 12.4533,2.22933 11.88,2.12L 14.3747,0.817337L 15.2707,3.708C 14.76,3.28667 14.1933,2.92667 13.552,2.63467 Z M 6.09334,3.43734C 5.604,3.78667 5.172,4.18667 4.80267,4.62934L 4.912,1.81734L 7.87467,2.5C 7.25067,2.708 6.65067,3.02534 6.09334,3.43734 Z M 18,8.708C 17.912,8.12 17.7813,7.54667 17.5933,7L 19.9747,8.5L 17.9227,10.7293C 18.032,10.0773 18.052,9.396 18,8.708 Z M 3.04134,10.296C 3.11467,10.896 3.24534,11.468 3.432,12L 1.06267,10.5L 3.104,8.276C 3,8.92667 2.97467,9.60933 3.04134,10.296 Z M 12,18.9107C 12.5933,19.8173 13,20.6293 13,21C 13,21.5467 12.552,22 12,22C 11.4533,22 11,21.5467 11,21C 11,20.6293 11.412,19.8173 12,18.9107 Z M 12,15.624C 12,15.624 9,19 9,21C 9,22.6507 10.3493,24 12,24C 13.656,24 15,22.6507 15,21C 15,19 12,15.624 12,15.624 Z "/>
</svg>
