<?xml version="1.0" encoding="utf-8"?>
<!DOCTYPE svg PUBLIC "-//W3C//DTD SVG 1.1//EN" "http://www.w3.org/Graphics/SVG/1.1/DTD/svg11.dtd">
<svg xmlns="http://www.w3.org/2000/svg" xmlns:xlink="http://www.w3.org/1999/xlink" version="1.1" baseProfile="full" width="24" height="24" viewBox="0 0 24.00 24.00" enable-background="new 0 0 24.00 24.00" xml:space="preserve">
	<path fill="#000000" fill-opacity="1" stroke-linejoin="round" d="M 12,2L 14.3907,5.42134C 13.6507,5.15067 12.8387,5 12,5C 11.1613,5 10.3493,5.15067 9.60933,5.42134L 12,2 Z M 3.33867,7L 7.5,6.65067C 6.90133,7.16134 6.36,7.78134 5.93733,8.5C 5.5,9.24 5.25067,10 5.10933,10.792L 3.33867,7 Z M 20.6507,7L 18.88,10.792C 18.74,10 18.4693,9.22933 18.052,8.5C 17.6307,7.78134 17.0987,7.15067 16.5,6.64M 14,15C 14,14.448 13.552,14 13,14L 3,14C 2.448,14 2,14.448 2,15C 2,15.552 2.448,16 3,16L 13,16C 13.552,16 14,15.552 14,15 Z M 22,15C 22,14.448 21.552,14 21,14L 17,14C 16.448,14 16,14.448 16,15C 16,15.552 16.448,16 17,16L 21,16C 21.552,16 22,15.552 22,15 Z M 10,19C 10,19.552 10.448,20 11,20L 20,20C 20.552,20 21,19.552 21,19C 21,18.448 20.552,18 20,18L 11,18C 10.448,18 10,18.448 10,19 Z M 3,19C 3,19.552 3.448,20 4,20L 7,20C 7.552,20 8,19.552 8,19C 8,18.448 7.552,18 7,18L 4,18C 3.448,18 3,18.448 3,19 Z M 12,9C 13.6613,9 15,10.3387 15,12L 17,12C 17,9.24 14.76,7 12,7C 9.24,7 7,9.24 7,12L 9,12C 9,10.3387 10.3387,9 12,9 Z "/>
</svg>
