<?xml version="1.0" encoding="utf-8"?>
<!DOCTYPE svg PUBLIC "-//W3C//DTD SVG 1.1//EN" "http://www.w3.org/Graphics/SVG/1.1/DTD/svg11.dtd">
<svg xmlns="http://www.w3.org/2000/svg" xmlns:xlink="http://www.w3.org/1999/xlink" version="1.1" baseProfile="full" width="24" height="24" viewBox="0 0 24.00 24.00" enable-background="new 0 0 24.00 24.00" xml:space="preserve">
	<path fill="#000000" fill-opacity="1" stroke-width="0.2" stroke-linejoin="round" d="M 3,12L 7,12C 7,9.23858 9.23857,7 12,7C 14.7614,7 17,9.23858 17,12L 21,12C 21.5523,12 22,12.4477 22,13C 22,13.5523 21.5523,14 21,14L 3,14C 2.44772,14 2,13.5523 2,13C 2,12.4477 2.44772,12 3,12 Z M 15,12C 15,10.3432 13.6568,9.00001 12,9.00001C 10.3431,9.00001 8.99999,10.3432 8.99999,12L 15,12 Z M 12,2.00003L 14.3941,5.42011C 13.6471,5.14829 12.8409,5.00002 12,5.00002C 11.1591,5.00002 10.3528,5.14829 9.60592,5.42011L 12,2.00003 Z M 3.34495,7.00903L 7.50387,6.64576C 6.89501,7.15669 6.36347,7.7808 5.94302,8.50903C 5.52258,9.23727 5.24786,10.0097 5.10981,10.7924L 3.34495,7.00903 Z M 20.646,7.00383L 18.8812,10.7872C 18.7431,10.0044 18.4684,9.23206 18.0479,8.50383C 17.6275,7.77559 17.0959,7.15148 16.4871,6.64055L 20.646,7.00383 Z M 12.7126,16.2952L 15.8239,19.4065C 16.2144,19.797 16.2144,20.4301 15.8239,20.8207C 15.4334,21.2112 14.8002,21.2112 14.4097,20.8207L 12,18.411L 9.59031,20.8207C 9.19979,21.2112 8.56662,21.2112 8.1761,20.8207C 7.78558,20.4301 7.78557,19.797 8.1761,19.4065L 11.2874,16.2952C 11.4841,16.0984 11.7425,16.0008 12.0004,16.0023C 12.258,16.001 12.5161,16.0986 12.7126,16.2952 Z "/>
</svg>
