<?xml version="1.0" encoding="utf-8"?>
<!DOCTYPE svg PUBLIC "-//W3C//DTD SVG 1.1//EN" "http://www.w3.org/Graphics/SVG/1.1/DTD/svg11.dtd">
<svg xmlns="http://www.w3.org/2000/svg" xmlns:xlink="http://www.w3.org/1999/xlink" version="1.1" baseProfile="full" width="24" height="24" viewBox="0 0 24.00 24.00" enable-background="new 0 0 24.00 24.00" xml:space="preserve">
	<path fill="#000000" fill-opacity="1" stroke-width="0.2" stroke-linejoin="round" d="M 18,20C 18.5523,20 19,19.5523 19,19C 19,18.4477 18.5523,18 18,18L 4.00001,18C 3.44772,18 3.00001,17.5523 3.00001,17C 3.00001,16.4477 3.44772,16 4.00001,16L 18,16C 19.6569,16 21,17.3431 21,19C 21,20.6569 19.6569,22 18,22C 17.1716,22 16.4216,21.6642 15.8787,21.1213L 15.8876,21.1124C 15.5007,20.7216 15.502,20.0912 15.8913,19.7019C 16.2818,19.3114 16.9149,19.3114 17.3055,19.7019L 17.2966,19.7108C 17.4773,19.8896 17.7257,20 18,20 Z M 6,6L 6.69059,6.0594C 7.32367,3.72057 9.4609,2.00001 12,2.00001C 15.0376,2.00001 17.5,4.46244 17.5,7.5L 17.4182,8.45043C 17.8774,8.16491 18.4194,8 19,8C 20.6569,8 22,9.34315 22,11C 22,12.6569 20.6569,14 19,14L 6,14C 3.79086,14 2,12.2091 2,10C 2,7.79086 3.79086,6 6,6 Z M 5.99999,8.00001C 4.89543,8.00001 4,8.89544 4,10C 4,11.1046 4.89543,12 5.99999,12L 19,12C 19.5523,12 20,11.5523 20,11C 20,10.4477 19.5523,10 19,10L 15.5,10L 15.5,7.50001C 15.5,5.56701 13.933,4.00001 12,4.00001C 10.067,4.00001 8.49999,5.56701 8.49999,7.50001L 8.5,8L 5.99999,8.00001 Z "/>
</svg>
