<?xml version="1.0" encoding="utf-8"?>
<!DOCTYPE svg PUBLIC "-//W3C//DTD SVG 1.1//EN" "http://www.w3.org/Graphics/SVG/1.1/DTD/svg11.dtd">
<svg xmlns="http://www.w3.org/2000/svg" xmlns:xlink="http://www.w3.org/1999/xlink" version="1.1" baseProfile="full" width="24" height="24" viewBox="0 0 24.00 24.00" enable-background="new 0 0 24.00 24.00" xml:space="preserve">
	<path fill="#000000" fill-opacity="1" stroke-linejoin="round" d="M 21.9787,10.2813C 21.74,10.3027 21.5,10.312 21.26,10.312C 19.3227,10.312 17.3853,9.57333 15.912,8.09333C 14.2453,6.43733 13.516,4.188 13.7187,2.02133C 13.7653,1.52667 13.2187,1 12.708,1C 12.5733,1 12.4373,1.036 12.3173,1.12C 11.9787,1.364 11.6613,1.636 11.36,1.93733C 9.052,4.24 8.552,7.66133 9.844,10.4587C 8.312,11.1147 7.13067,12.4267 6.688,14.0627L 6,14C 3.792,14 2,15.792 2,18C 2,20.208 3.792,22 6,22L 19,22C 20.6613,22 22,20.6613 22,19C 22,17.3387 20.6613,16 19,16C 18.4213,16 17.88,16.1613 17.4213,16.448L 17.5,15.5C 17.5,15.276 17.484,15.052 17.4587,14.8333C 19.136,14.6667 20.7707,13.9373 22.0627,12.64C 22.38,12.3387 22.636,12.0213 22.88,11.6827C 23.2653,11.1307 22.6507,10.276 22.0413,10.276 Z M 19,18C 19.552,18 20,18.448 20,19C 20,19.552 19.552,20 19,20L 6,20C 4.90133,20 4,19.0987 4,18C 4,16.9013 4.90133,16 6,16L 8.5,16L 8.5,15.5C 8.5,13.9427 9.53067,12.636 10.9427,12.1827C 11.0987,12.1307 11.26,12.088 11.4267,12.0573C 11.6147,12.0267 11.8027,12 12,12C 12.2293,12 12.448,12.0267 12.6613,12.068C 12.7347,12.0827 12.8027,12.104 12.8747,12.1253C 13.0107,12.1613 13.1507,12.1973 13.2813,12.2507C 13.36,12.2813 13.4373,12.3227 13.516,12.36C 13.6307,12.412 13.74,12.4733 13.844,12.536C 13.9213,12.588 14,12.64 14.0733,12.6973C 14.1667,12.7653 14.2547,12.8387 14.3387,12.9173C 14.412,12.9787 14.484,13.0467 14.552,13.12C 14.6253,13.1973 14.6933,13.2867 14.76,13.3693C 14.8227,13.4533 14.8853,13.5307 14.9427,13.62C 15,13.708 15.0413,13.8027 15.0933,13.896C 15.14,13.9893 15.1973,14.0827 15.24,14.1827C 15.4067,14.588 15.5,15.0307 15.5,15.5L 15.5,18M 16.828,12.864C 15.896,11.156 14.0827,10 12,10L 11.8747,10.0107C 11.412,9.188 11.14,8.26 11.14,7.28667C 11.14,6.312 11.3853,5.37467 11.86,4.552C 12.2133,6.412 13.12,8.136 14.4893,9.5C 15.864,10.88 17.584,11.7867 19.4533,12.14C 18.6613,12.5987 17.76,12.844 16.828,12.864 Z "/>
</svg>
