<?xml version="1.0" encoding="utf-8"?>
<!DOCTYPE svg PUBLIC "-//W3C//DTD SVG 1.1//EN" "http://www.w3.org/Graphics/SVG/1.1/DTD/svg11.dtd">
<svg xmlns="http://www.w3.org/2000/svg" xmlns:xlink="http://www.w3.org/1999/xlink" version="1.1" baseProfile="full" width="24" height="24" viewBox="0 0 24.00 24.00" enable-background="new 0 0 24.00 24.00" xml:space="preserve">
	<path fill="#000000" fill-opacity="1" stroke-linejoin="round" d="M 6,19.0267C 4.90133,19.0267 4,18.1253 4,17.0267C 4,15.9227 4.90133,15.0267 6,15.0267L 8,15.0267C 8,12.8133 9.792,11.0267 12,11.0267C 14.2133,11.0267 16,12.8133 16,15.0267L 16,17.0267L 19,17.0267C 19.552,17.0267 20,17.4747 20,18.0267C 20,18.5733 19.552,19.0267 19,19.0267L 17,19.0267C 17,19.0267 16,19.0267 16,20.0267C 16,21.0267 17,21.0267 17,21.0267L 19,21.0267C 20.6613,21.0267 22,19.6827 22,18.0267C 22,16.3653 20.6613,15.0267 19,15.0267C 18.6507,15.0267 18.3133,15.084 18,15.1933L 18,15.0267C 18,13.2133 17.1933,11.584 15.9227,10.484C 16.3547,8.052 15.104,5.52667 12.7453,4.49467C 9.97467,3.26534 6.724,4.52667 5.5,7.28134C 4.604,9.26533 5,11.4747 6.27067,13.0267L 6,13.0267C 3.792,13.0267 2,14.8133 2,17.0267C 2,19.2347 3.792,21.0267 6,21.0267C 6,21.0267 7,21.0267 7,20.0267C 7,19.0267 6,19.0267 6,19.0267 Z M 12,9.02667C 10.1613,9.02667 8.5,9.85467 7.412,11.156C 6.932,10.2453 6.85467,9.11467 7.31333,8.09467C 8.09333,6.33334 10.1613,5.52667 11.932,6.32267C 13.1827,6.88534 13.9427,8.084 14,9.36533C 13.38,9.14667 12.7027,9.02667 12,9.02667 Z M 13.552,2.66134C 13,2.42267 12.4533,2.256 11.88,2.14667L 14.3747,0.844002L 15.2707,3.73467C 14.76,3.31333 14.1933,2.95334 13.552,2.66134 Z M 6.09333,3.464C 5.604,3.81334 5.172,4.21334 4.80267,4.656L 4.912,1.844L 7.87467,2.52667C 7.25067,2.73467 6.65067,3.052 6.09333,3.464 Z M 18,8.73467C 17.912,8.14667 17.7813,7.57333 17.5933,7.02667L 19.9747,8.52667L 17.9227,10.756C 18.032,10.104 18.052,9.42267 18,8.73467 Z M 3.04133,10.3227C 3.11467,10.9227 3.24533,11.4947 3.432,12.0267L 1.06267,10.5267L 3.104,8.30267C 3,8.95333 2.97467,9.636 3.04133,10.3227 Z M 8.02667,21.4533C 8.12533,21.8387 8.52667,22.0627 8.912,21.964L 10.4893,21.5373L 10.0627,23.1147C 9.964,23.5 10.188,23.896 10.5733,24C 10.9533,24.0987 11.3493,23.8747 11.4533,23.4893L 11.8653,21.912L 13.0267,23.068C 13.3027,23.3493 13.7707,23.3493 14.052,23.068C 14.3333,22.7867 14.3333,22.3227 14.052,22.0467L 12.8907,20.88L 14.4693,20.4747C 14.8547,20.3707 15.0787,19.9747 14.98,19.5933C 14.88,19.208 14.484,18.984 14.0933,19.084L 12.516,19.5053L 12.9427,17.932C 13.0413,17.5413 12.8227,17.1467 12.432,17.0467C 12.052,16.948 11.656,17.1667 11.552,17.5573L 11.1413,19.136L 9.98,17.9747C 9.70267,17.6933 9.23467,17.6933 8.95333,17.9747C 8.67733,18.2653 8.67733,18.724 8.95333,19L 10.1147,20.1613L 8.536,20.5733C 8.15067,20.6773 7.92666,21.0733 8.02667,21.4533 Z "/>
</svg>
