<?xml version="1.0" encoding="utf-8"?>
<!DOCTYPE svg PUBLIC "-//W3C//DTD SVG 1.1//EN" "http://www.w3.org/Graphics/SVG/1.1/DTD/svg11.dtd">
<svg xmlns="http://www.w3.org/2000/svg" xmlns:xlink="http://www.w3.org/1999/xlink" version="1.1" baseProfile="full" width="24" height="24" viewBox="0 0 24.00 24.00" enable-background="new 0 0 24.00 24.00" xml:space="preserve">
	<path fill="#000000" fill-opacity="1" stroke-linejoin="round" d="M 19,15C 18.6507,15 18.3133,15.0573 18,15.1667L 18,15C 18,13.1867 17.1933,11.5573 15.9227,10.4573C 16.3547,8.02534 15.104,5.5 12.7453,4.468C 9.97467,3.23867 6.724,4.5 5.5,7.25467C 4.604,9.23867 5,11.448 6.27067,13L 6,13C 3.792,13 2,14.7867 2,17C 2,19.208 3.792,21 6,21L 7,21C 7,21 8,21 8,20C 8,19 7,19 7,19L 6,19C 4.90133,19 4,18.0987 4,17C 4,15.896 4.90133,15 6,15L 8,15C 8,12.7867 9.792,11 12,11C 14.2133,11 16,12.7867 16,15L 16,17L 19,17C 19.552,17 20,17.448 20,18C 20,18.5467 19.552,19 19,19L 17,19C 17,19 16,19 16,20C 16,21 17,21 17,21L 19,21C 20.6613,21 22,19.656 22,18C 22,16.3387 20.6613,15 19,15 Z M 12,9C 10.1613,9 8.5,9.828 7.412,11.1293C 6.932,10.2187 6.85467,9.088 7.31333,8.068C 8.09333,6.30667 10.1613,5.5 11.932,6.296C 13.1827,6.85867 13.9427,8.05734 14,9.33867C 13.38,9.12 12.7027,9 12,9 Z M 13.552,2.63467C 13,2.396 12.4533,2.22934 11.88,2.12L 14.3747,0.817337L 15.2707,3.708C 14.76,3.28667 14.1933,2.92667 13.552,2.63467 Z M 6.09333,3.43734C 5.604,3.78667 5.172,4.18667 4.80267,4.62934L 4.912,1.81734L 7.87467,2.5C 7.25067,2.708 6.65067,3.02534 6.09333,3.43734 Z M 18,8.708C 17.912,8.12 17.7813,7.54667 17.5933,7L 19.9747,8.5L 17.9227,10.7293C 18.032,10.0773 18.052,9.396 18,8.708 Z M 3.04133,10.296C 3.11467,10.896 3.24533,11.468 3.432,12L 1.06267,10.5L 3.104,8.276C 3,8.92667 2.97467,9.60934 3.04133,10.296 Z M 11.7973,15L 14.2507,15L 12.6147,18.2707L 14.2507,18.2707L 11.1827,24L 11.7973,19.9053L 9.75066,19.9053"/>
</svg>
