<?xml version="1.0" encoding="utf-8"?>
<!DOCTYPE svg PUBLIC "-//W3C//DTD SVG 1.1//EN" "http://www.w3.org/Graphics/SVG/1.1/DTD/svg11.dtd">
<svg xmlns="http://www.w3.org/2000/svg" xmlns:xlink="http://www.w3.org/1999/xlink" version="1.1" baseProfile="full" width="24" height="24" viewBox="0 0 24.00 24.00" enable-background="new 0 0 24.00 24.00" xml:space="preserve">
	<path fill="#000000" fill-opacity="1" stroke-linejoin="round" d="M 12,7C 9.24,7 7,9.24 7,12C 7,14.76 9.24,17 12,17C 14.76,17 17,14.76 17,12C 17,9.24 14.76,7 12,7 Z M 12,15C 10.3387,15 9,13.6613 9,12C 9,10.3387 10.3387,9 12,9C 13.656,9 15,10.3387 15,12C 15,13.6613 13.656,15 12,15 Z M 12,2L 14.3907,5.42134C 13.6507,5.15067 12.8387,5 12,5C 11.156,5 10.3493,5.15067 9.60933,5.42134L 12,2 Z M 3.33867,7L 7.5,6.65067C 6.90133,7.16134 6.36,7.78134 5.93733,8.5C 5.5,9.24 5.25067,10 5.10933,10.792L 3.33867,7 Z M 3.36,17L 5.12,13.2293C 5.26,14 5.52667,14.7813 5.948,15.5C 6.36933,16.24 6.90667,16.86 7.5,17.3693L 3.36,17 Z M 12,22L 9.58933,18.5627C 10.328,18.828 11.1413,19 12,19C 12.8173,19 13.6307,18.828 14.3693,18.5627M 19,13L 19,7L 21,7L 21,13L 19,13 Z M 19,17L 19,15L 21,15L 21,17"/>
</svg>
