<?xml version="1.0" encoding="utf-8"?>
<!DOCTYPE svg PUBLIC "-//W3C//DTD SVG 1.1//EN" "http://www.w3.org/Graphics/SVG/1.1/DTD/svg11.dtd">
<svg xmlns="http://www.w3.org/2000/svg" xmlns:xlink="http://www.w3.org/1999/xlink" version="1.1" baseProfile="full" width="24" height="24" viewBox="0 0 24.00 24.00" enable-background="new 0 0 24.00 24.00" xml:space="preserve">
	<path fill="#000000" fill-opacity="1" stroke-linejoin="round" d="M 6,14.0267C 6.552,14.0267 7,14.4747 7,15.0267C 7,15.5787 6.552,16.0267 6,16.0267C 3.24,16.0267 1,13.7867 1,11.0267C 1,8.26667 3.24,6.02667 6,6.02667C 7,3.67734 9.30267,2.02667 12,2.02667C 15.432,2.02667 18.24,4.688 18.5,8.05733L 19,8.02667C 21.208,8.02667 23,9.81867 23,12.0267C 23,14.2347 21.208,16.0267 19,16.0267L 18,16.0267C 17.448,16.0267 17,15.5787 17,15.0267C 17,14.4747 17.448,14.0267 18,14.0267L 19,14.0267C 20.0987,14.0267 21,13.1253 21,12.0267C 21,10.928 20.0987,10.0267 19,10.0267L 17,10.0267L 17,9.02667C 17,6.26667 14.76,4.02667 12,4.02667C 9.5,4.02667 7.448,5.844 7.06267,8.21467C 6.72933,8.09467 6.36933,8.02667 6,8.02667C 4.33867,8.02667 3,9.36533 3,11.0267C 3,12.688 4.33867,14.0267 6,14.0267 Z M 12,14.152C 12.1827,14.3907 12.3747,14.6573 12.5627,14.9387C 12.9947,15.5627 14,17.032 14,18C 14,19.1053 13.104,20 12,20C 10.896,20 10,19.1053 10,18C 10,17.032 11.0053,15.5627 11.4373,14.9387C 11.6253,14.6573 11.8173,14.396 12,14.152 Z M 12,11.0267L 11.5,11.5893C 11.5,11.5893 10.6453,12.5533 9.78667,13.808C 8.92667,15.0573 8,16.5573 8,18C 8,20.2093 9.792,22 12,22C 14.208,22 16,20.2093 16,18C 16,16.5573 15.0733,15.0573 14.2133,13.808C 13.3547,12.5533 12.5,11.5893 12.5,11.5893"/>
</svg>
