<?xml version="1.0" encoding="utf-8"?>
<!DOCTYPE svg PUBLIC "-//W3C//DTD SVG 1.1//EN" "http://www.w3.org/Graphics/SVG/1.1/DTD/svg11.dtd">
<svg xmlns="http://www.w3.org/2000/svg" xmlns:xlink="http://www.w3.org/1999/xlink" version="1.1" baseProfile="full" width="24" height="24" viewBox="0 0 24.00 24.00" enable-background="new 0 0 24.00 24.00" xml:space="preserve">
	<path fill="#000000" fill-opacity="1" stroke-width="0.2" stroke-linejoin="round" d="M 12,8C 13.1046,8 14,7.10457 14,6C 14,4.89544 13.1046,4.00001 12,4.00001C 11.4509,4.00001 10.9535,4.22128 10.5921,4.57953L 10.5947,4.58212C 10.2041,4.97264 9.57097,4.97264 9.18045,4.58212C 8.79201,4.19369 8.78993,3.56521 9.1742,3.1742L 9.17157,3.17158C 9.89543,2.44772 10.8954,2 12,2C 14.2091,2 16,3.79086 16,6C 16,8.20914 14.2091,10 12,10L 4,10C 3.44771,10 3,9.55229 3,9C 3,8.44772 3.44771,8 4,8L 12,8 Z M 18,20C 18.5523,20 19,19.5523 19,19C 19,18.4477 18.5523,18 18,18L 4,18C 3.44771,18 3,17.5523 3,17C 3,16.4477 3.44771,16 4,16L 18,16C 19.6569,16 21,17.3431 21,19C 21,20.6569 19.6568,22 18,22C 17.1716,22 16.4216,21.6642 15.8787,21.1213L 15.8876,21.1124C 15.5007,20.7216 15.502,20.0912 15.8913,19.7019C 16.2818,19.3114 16.9149,19.3114 17.3055,19.7019L 17.2966,19.7108C 17.4773,19.8896 17.7257,20 18,20 Z M 19,10C 18.7257,10 18.4773,10.1104 18.2966,10.2892L 18.3055,10.2981C 17.9149,10.6886 17.2818,10.6886 16.8913,10.2981C 16.502,9.90881 16.5007,9.2784 16.8876,8.88758L 16.8787,8.87868C 17.4216,8.33579 18.1716,8 19,8C 20.6568,8 22,9.34315 22,11C 22,12.6569 20.6569,14 19,14L 5,14C 4.44772,14 4,13.5523 4,13C 4,12.4477 4.44772,12 5,12L 19,12C 19.5523,12 20,11.5523 20,11C 20,10.4477 19.5523,10 19,10 Z "/>
</svg>
