<?xml version="1.0" encoding="utf-8"?>
<!DOCTYPE svg PUBLIC "-//W3C//DTD SVG 1.1//EN" "http://www.w3.org/Graphics/SVG/1.1/DTD/svg11.dtd">
<svg xmlns="http://www.w3.org/2000/svg" xmlns:xlink="http://www.w3.org/1999/xlink" version="1.1" baseProfile="full" width="24" height="24" viewBox="0 0 24.00 24.00" enable-background="new 0 0 24.00 24.00" xml:space="preserve">
	<path fill="#000000" fill-opacity="1" stroke-width="0.2" stroke-linejoin="round" d="M 12,7C 14.7614,7 17,9.23858 17,12C 17,14.7614 14.7614,17 12,17C 9.23857,17 7,14.7614 7,12C 7,9.23858 9.23857,7 12,7 Z M 12,9.00001C 10.3431,9.00001 9,10.3432 9,12C 9,13.6569 10.3431,15 12,15C 13.6568,15 15,13.6569 15,12C 15,10.3432 13.6568,9.00001 12,9.00001 Z M 12,2.00002L 14.3941,5.42011C 13.6471,5.14828 12.8409,5.00001 12,5.00001C 11.1591,5.00001 10.3528,5.14828 9.60593,5.42011L 12,2.00002 Z M 3.34495,7.00902L 7.50388,6.64575C 6.89501,7.15668 6.36348,7.78079 5.94303,8.50902C 5.52258,9.23726 5.24786,10.0096 5.10981,10.7924L 3.34495,7.00902 Z M 3.35537,17.009L 5.12022,13.2257C 5.25827,14.0084 5.533,14.7808 5.95344,15.509C 6.37389,16.2373 6.90543,16.8614 7.51429,17.3723L 3.35537,17.009 Z M 20.646,7.00382L 18.8812,10.7872C 18.7431,10.0044 18.4684,9.23205 18.0479,8.50382C 17.6275,7.77559 17.096,7.15148 16.4871,6.64054L 20.646,7.00382 Z M 20.6356,16.9934L 16.4767,17.3567C 17.0855,16.8457 17.6171,16.2216 18.0375,15.4934C 18.458,14.7652 18.7327,13.9928 18.8707,13.21L 20.6356,16.9934 Z M 11.9792,21.9792L 9.58509,18.5591C 10.332,18.8309 11.1383,18.9792 11.9792,18.9792C 12.8201,18.9792 13.6263,18.8309 14.3732,18.5591L 11.9792,21.9792 Z "/>
</svg>
