<?xml version="1.0" encoding="utf-8"?>
<!DOCTYPE svg PUBLIC "-//W3C//DTD SVG 1.1//EN" "http://www.w3.org/Graphics/SVG/1.1/DTD/svg11.dtd">
<svg xmlns="http://www.w3.org/2000/svg" xmlns:xlink="http://www.w3.org/1999/xlink" version="1.1" baseProfile="full" width="24" height="24" viewBox="0 0 24.00 24.00" enable-background="new 0 0 24.00 24.00" xml:space="preserve">
	<path fill="#000000" fill-opacity="1" stroke-width="0.2" stroke-linejoin="round" d="M 4.50095,13.5945C 4.97925,13.8707 5.14312,14.4823 4.86698,14.9605C 4.591,15.4386 3.97995,15.6025 3.50178,15.327L 3.49958,15.3308C 2.00531,14.4663 1,12.8505 1,11C 1,8.23919 3.23758,6.00099 5.99817,6C 6.97773,3.65105 9.29605,2.00001 12,2.00001C 15.4328,2.00001 18.2441,4.66115 18.4835,8.03304L 19,8C 21.2091,8 23,9.79086 23,12C 23,14.2091 21.2091,16 19,16C 18.4477,16 18,15.5523 18,15C 18,14.4477 18.4477,14 19,14C 20.1046,14 21,13.1046 21,12C 21,10.8954 20.1046,10 19,10L 17,10L 17,9C 17,6.23858 14.7614,4 12,4C 9.51284,4 7.44982,5.816 7.06456,8.19437C 6.73372,8.06877 6.37489,8 6,8C 4.34315,8 3,9.34315 3,11C 3,12.11 3.60282,13.0792 4.49893,13.598L 4.50095,13.5945 Z M 9.5,11L 12.5,11L 10.5,15L 12.5,15L 8.75,22L 9.49999,17L 7,17L 9.5,11 Z M 17.5,18.6717C 17.5,19.9575 16.4926,21 15.25,21C 14.0074,21 13,19.9575 13,18.6717C 13,17.1193 15.25,14.5 15.25,14.5C 15.25,14.5 17.5,17.1193 17.5,18.6717 Z "/>
</svg>
