<?xml version="1.0" encoding="utf-8"?>
<!DOCTYPE svg PUBLIC "-//W3C//DTD SVG 1.1//EN" "http://www.w3.org/Graphics/SVG/1.1/DTD/svg11.dtd">
<svg xmlns="http://www.w3.org/2000/svg" xmlns:xlink="http://www.w3.org/1999/xlink" version="1.1" baseProfile="full" width="24" height="24" viewBox="0 0 24.00 24.00" enable-background="new 0 0 24.00 24.00" xml:space="preserve">
	<path fill="#000000" fill-opacity="1" stroke-width="1.33333" stroke-linejoin="miter" d="M 10.4601,18.9771C 8.99958,21.0691 6.14926,21.5948 4.09378,20.1513C 2.0383,18.7077 1.55603,15.8416 3.0166,13.7496C 3.87314,12.5227 5.20763,11.8346 6.57947,11.7663L 6.62684,13.1969C 5.72028,13.2674 4.84005,13.7408 4.26625,14.5627C 3.26754,15.9932 3.57534,17.9375 4.95374,18.9056C 6.33214,19.8736 8.25916,19.4987 9.25787,18.0682C 9.56785,17.6243 9.75196,17.1308 9.81727,16.6323L 9.82421,15.6218L 15.4049,15.5831L 15.4673,15.4662C 15.9954,14.5514 17.1534,14.2312 18.0537,14.751C 18.9541,15.2708 19.2558,16.4338 18.7276,17.3485C 18.1995,18.2633 17.0415,18.5835 16.1412,18.0637C 15.7308,17.8267 15.4447,17.4561 15.305,17.0363L 11.2418,17.0644C 11.1313,17.7308 10.8735,18.3849 10.4601,18.9771 Z M 17.7377,11.8643C 20.2705,12.1718 22.0728,14.4417 21.7633,16.9342C 21.4537,19.4268 19.1495,21.1982 16.6166,20.8907C 15.1313,20.7104 13.8972,19.8552 13.1929,18.676L 14.4338,17.9625C 14.9216,18.7299 15.7528,19.2848 16.7479,19.4056C 18.4798,19.6159 20.0521,18.4313 20.2597,16.7597C 20.4673,15.0882 19.2316,13.5628 17.4997,13.3525C 16.9609,13.2872 16.4376,13.3567 15.966,13.534L 15.1234,13.9746L 12.5402,9.19645L 12.3196,9.2011C 11.2639,9.1643 10.4376,8.2921 10.4738,7.2532C 10.5101,6.2142 11.3953,5.4018 12.451,5.4387C 13.5066,5.4756 14.3329,6.3477 14.2967,7.3867C 14.2812,7.83015 14.1111,8.23234 13.839,8.54482L 15.7362,12.0542C 16.3616,11.8524 17.041,11.7797 17.7377,11.8643 Z M 8.24702,9.1381C 7.24688,6.7909 8.3115,4.0951 10.6249,3.1169C 12.9383,2.1387 15.6245,3.2485 16.6247,5.5958C 17.2112,6.9723 17.0876,8.4687 16.4185,9.6682L 15.1802,8.9503C 15.6008,8.1441 15.6658,7.1468 15.2729,6.2246C 14.589,4.6196 12.777,3.8503 11.2256,4.5063C 9.67425,5.1623 8.971,6.9951 9.65488,8.6001C 9.93468,9.25676 10.4033,9.77355 10.9657,10.11L 11.3599,10.3226L 8.2897,15.3106C 8.32466,15.3633 8.35739,15.4181 8.38769,15.4751C 8.88358,16.4078 8.54147,17.5595 7.62356,18.0475C 6.70565,18.5356 5.55953,18.1752 5.06363,17.2426C 4.56774,16.3099 4.90985,15.1582 5.82776,14.6701C 6.21879,14.4622 6.65124,14.4083 7.05718,14.487L 9.36669,10.7348C 8.89973,10.3012 8.51352,9.76356 8.24702,9.1381 Z "/>
</svg>
