<?xml version="1.0" encoding="utf-8"?>
<!DOCTYPE svg PUBLIC "-//W3C//DTD SVG 1.1//EN" "http://www.w3.org/Graphics/SVG/1.1/DTD/svg11.dtd">
<svg xmlns="http://www.w3.org/2000/svg" xmlns:xlink="http://www.w3.org/1999/xlink" version="1.1" baseProfile="full" width="24" height="24" viewBox="0 0 24.00 24.00" enable-background="new 0 0 24.00 24.00" xml:space="preserve">
	<path fill="#000000" fill-opacity="1" stroke-width="0.2" stroke-linejoin="round" d="M 12,3C 14.2091,3 16,4.79086 16,6.99999C 16,7.72857 15.8052,8.41165 15.4649,9L 18,9C 18.9523,9 19.7491,9.66555 19.9507,10.5569C 21.9645,18.5682 22,18.78 22,19C 22,20.1046 21.1046,21 20,21L 4,21C 2.89543,21 2,20.1046 2,19C 2,18.78 2.03554,18.5682 4.04926,10.5569C 4.25088,9.66555 5.04771,9 6,9L 8.53513,9C 8.19479,8.41165 8,7.72857 8,6.99999C 8,4.79086 9.79086,3 12,3 Z M 12,5C 10.8954,5 10,5.89544 10,7.00001C 10,8.10458 10.8954,9 12,9C 13.1046,9 14,8.10458 14,7.00001C 14,5.89544 13.1046,5 12,5 Z "/>
</svg>
