<?xml version="1.0" encoding="utf-8"?>
<!DOCTYPE svg PUBLIC "-//W3C//DTD SVG 1.1//EN" "http://www.w3.org/Graphics/SVG/1.1/DTD/svg11.dtd">
<svg xmlns="http://www.w3.org/2000/svg" xmlns:xlink="http://www.w3.org/1999/xlink" version="1.1" baseProfile="full" width="24" height="24" viewBox="0 0 24.00 24.00" enable-background="new 0 0 24.00 24.00" xml:space="preserve">
	<path fill="#000000" fill-opacity="1" stroke-width="1.33333" stroke-linejoin="miter" d="M 12,3C 14.2091,3 16,4.7909 16,7C 16,7.73 15.81,8.41 15.46,9L 18,9C 18.95,9 19.75,9.67 19.95,10.56C 21.96,18.57 22,18.78 22,19C 22,20.1046 21.1046,21 20,21L 4,21C 2.89543,21 2,20.1046 2,19C 2,18.78 2.04,18.57 4.05,10.56C 4.25,9.67 5.05,9 6,9L 8.54,9C 8.19,8.41 8,7.73 8,7C 8,4.7909 9.79086,3 12,3 Z M 12,5C 10.8954,5 10,5.8954 10,7C 10,8.1046 10.8954,9 12,9C 13.1046,9 14,8.1046 14,7C 14,5.8954 13.1046,5 12,5 Z M 6,11L 6,19L 8,19L 8,16.5L 9,17.5L 9,19L 11,19L 11,17L 9,15L 11,13L 11,11L 9,11L 9,12.5L 8,13.5L 8,11L 6,11 Z M 15,11C 13.892,11 13,11.892 13,13L 13,17C 13,18.108 13.892,19 15,19L 18,19L 18,14L 16,14L 16,17L 15,17L 15,13L 18,13L 18,11L 15,11 Z "/>
</svg>
