<?xml version="1.0" encoding="utf-8"?>
<!DOCTYPE svg PUBLIC "-//W3C//DTD SVG 1.1//EN" "http://www.w3.org/Graphics/SVG/1.1/DTD/svg11.dtd">
<svg xmlns="http://www.w3.org/2000/svg" xmlns:xlink="http://www.w3.org/1999/xlink" version="1.1" baseProfile="full" width="24" height="24" viewBox="0 0 24.00 24.00" enable-background="new 0 0 24.00 24.00" xml:space="preserve">
	<path fill="#000000" fill-opacity="1" stroke-linejoin="round" d="M 18.4,11.2L 14.3,11.4L 16.6,8.8C 16.8,8.5 16.9,8 16.8,7.5C 16.7,7.2 16.6,6.9 16.3,6.7L 10.9,3.5C 10.5,3.2 9.9,3.3 9.5,3.6L 6.8,6.1C 6.3,6.6 6.2,7.3 6.7,7.8C 7.1,8.3 7.9,8.3 8.4,7.9L 10.4,6.1L 12.3,7.2L 8.1,11.5C 8,11.6 8,11.7 7.9,11.7C 7.4,11.9 6.9,12.1 6.5,12.4L 8,13.9C 8.5,13.7 9,13.5 9.5,13.5C 11.4,13.5 13,15.1 13,17C 13,17.6 12.9,18.1 12.6,18.5L 14.1,20C 14.7,19.1 15,18.1 15,17C 15,15.8 14.6,14.6 13.9,13.7L 17.2,13.4L 17,18.2C 16.9,18.9 17.4,19.4 18.1,19.5L 18.2,19.5C 18.8,19.5 19.3,19 19.4,18.4L 19.6,12.5C 19.6,12.2 19.5,11.8 19.3,11.6C 19,11.3 18.7,11.2 18.4,11.2 Z M 18,5.5C 19.1,5.5 20,4.6 20,3.5C 20,2.4 19.1,1.5 18,1.5C 16.9,1.5 16,2.4 16,3.5C 16,4.6 16.9,5.5 18,5.5 Z M 12.5,21.6C 11.6,22.2 10.6,22.5 9.5,22.5C 6.5,22.5 4,20 4,17C 4,15.9 4.3,14.9 4.9,14L 6.4,15.5C 6.2,16 6,16.5 6,17C 6,18.9 7.6,20.5 9.5,20.5C 10.1,20.5 10.6,20.4 11,20.1L 12.5,21.6 Z "/>
</svg>
