<?xml version="1.0" encoding="utf-8"?>
<!DOCTYPE svg PUBLIC "-//W3C//DTD SVG 1.1//EN" "http://www.w3.org/Graphics/SVG/1.1/DTD/svg11.dtd">
<svg xmlns="http://www.w3.org/2000/svg" xmlns:xlink="http://www.w3.org/1999/xlink" version="1.1" baseProfile="full" width="24" height="24" viewBox="0 0 24.00 24.00" enable-background="new 0 0 24.00 24.00" xml:space="preserve">
	<g>
		<path fill="#000000" fill-opacity="1" stroke-width="1.33333" stroke-linejoin="miter" d="M 8.5,9C 4.91015,9 2,11.9101 2,15.5C 2,19.0898 4.91015,22 8.5,22C 12.0899,22 15,19.0898 15,15.5L 15,13.91L 22,12L 22,9L 11,9L 11,11L 9,11L 9,9L 8.5,9 Z M 11,2L 11,7L 9,7L 9,2L 11,2 Z M 6.35,7.28C 5.68176,7.4366 5.03646,7.6786 4.43,8L 2.14,4.88L 3.76,3.7L 6.35,7.28 Z M 17.86,4.88L 16.32,7L 13.85,7L 16.24,3.7L 17.86,4.88 Z "/>
	</g>
</svg>
