<?xml version="1.0" encoding="utf-8"?>
<!DOCTYPE svg PUBLIC "-//W3C//DTD SVG 1.1//EN" "http://www.w3.org/Graphics/SVG/1.1/DTD/svg11.dtd">
<svg xmlns="http://www.w3.org/2000/svg" xmlns:xlink="http://www.w3.org/1999/xlink" version="1.1" baseProfile="full" width="24" height="24" viewBox="0 0 24.00 24.00" enable-background="new 0 0 24.00 24.00" xml:space="preserve">
	<path fill="#000000" fill-opacity="1" stroke-width="0.2" stroke-linejoin="round" d="M 17.2421,18.1548L 19.0371,19.9498L 20.4511,18.5348L 18.6561,16.7408M 19.9991,12.4978L 22.9991,12.4978L 22.9991,10.4978L 19.9991,10.4978M 14.9991,6.30776L 14.9991,1.49776L 8.99909,1.49776L 8.99909,6.30776C 7.2081,7.34577 5.9991,9.27877 5.9991,11.4978C 5.9991,14.8118 8.68611,17.4978 11.9991,17.4978C 15.3131,17.4978 17.9991,14.8118 17.9991,11.4978C 17.9991,9.27877 16.7911,7.34577 14.9991,6.30776 Z M 3.9991,10.4978L 0.999102,10.4978L 0.999102,12.4978L 3.9991,12.4978M 10.9991,22.4478C 11.3151,22.4498 12.9991,22.4478 12.9991,22.4478L 12.9991,19.4978L 10.9991,19.4978M 3.5481,18.5348L 4.9621,19.9498L 6.7571,18.1548L 5.3431,16.7408L 3.5481,18.5348 Z "/>
</svg>
