<?xml version="1.0" encoding="utf-8"?>
<!DOCTYPE svg PUBLIC "-//W3C//DTD SVG 1.1//EN" "http://www.w3.org/Graphics/SVG/1.1/DTD/svg11.dtd">
<svg xmlns="http://www.w3.org/2000/svg" xmlns:xlink="http://www.w3.org/1999/xlink" version="1.1" baseProfile="full" width="24" height="24" viewBox="0 0 24.00 24.00" enable-background="new 0 0 24.00 24.00" xml:space="preserve">
	<path fill="#000000" fill-opacity="1" stroke-width="0.2" stroke-linejoin="round" d="M 4.962,19.9498L 6.757,18.1548L 5.343,16.7408L 3.548,18.5348M 3.548,4.46078L 5.343,6.25577L 6.757,4.84177L 4.962,3.04677M 20.451,18.5348L 18.656,16.7408L 17.242,18.1548L 19.037,19.9498M 12.999,22.4478L 12.999,19.4978L 10.999,19.4978L 10.999,22.4478C 11.315,22.4498 12.999,22.4478 12.999,22.4478 Z M 19.037,3.04677L 17.242,4.84177L 18.656,6.25577L 20.451,4.46078M 10.999,3.49776L 12.999,3.49776L 12.999,0.547766L 10.999,0.547766M 4.999,14.4978L 18.999,14.4978L 18.999,8.49776L 4.999,8.49776L 4.999,14.4978 Z "/>
</svg>
