<?xml version="1.0" encoding="utf-8"?>
<!DOCTYPE svg PUBLIC "-//W3C//DTD SVG 1.1//EN" "http://www.w3.org/Graphics/SVG/1.1/DTD/svg11.dtd">
<svg xmlns="http://www.w3.org/2000/svg" xmlns:xlink="http://www.w3.org/1999/xlink" version="1.1" baseProfile="full" width="24" height="24" viewBox="0 0 24.00 24.00" enable-background="new 0 0 24.00 24.00" xml:space="preserve">
	<path fill="#000000" fill-opacity="1" stroke-width="0.2" stroke-linejoin="round" d="M 3.27125,1.44L 2.0025,2.71948L 4.0525,4.77C 2.75375,5.37125 1.51875,6.11375 0.376253,7.0025C 4.20375,11.7963 8.135,16.67 12.0113,21.4887L 15.9087,16.6313L 19.2288,19.9513L 20.4975,18.6813C 14.8688,13.0425 3.27125,1.44 3.27125,1.44 Z M 12.0025,2.9978C 10.5962,3.0025 9.20875,3.17375 7.86125,3.48125L 9.56,5.185C 10.3662,5.06875 11.1812,5 12.0025,5C 15.0737,5.015 18.0863,5.85875 20.7125,7.45125L 16.7575,12.3825L 18.1787,13.8038C 20.0787,11.4312 22.0163,9.02375 23.6475,7.0025C 20.3175,4.40875 16.2212,3.0025 12.0025,2.9978 Z M 5.56625,6.28875L 14.4875,15.205L 12.0025,18.3013L 3.27125,7.43625C 4.00875,6.9925 4.775,6.61125 5.56625,6.28875 Z "/>
</svg>
