<?xml version="1.0" encoding="utf-8"?>
<!DOCTYPE svg PUBLIC "-//W3C//DTD SVG 1.1//EN" "http://www.w3.org/Graphics/SVG/1.1/DTD/svg11.dtd">
<svg xmlns="http://www.w3.org/2000/svg" xmlns:xlink="http://www.w3.org/1999/xlink" version="1.1" baseProfile="full" width="24" height="24" viewBox="0 0 24.00 24.00" enable-background="new 0 0 24.00 24.00" xml:space="preserve">
	<path fill="#000000" fill-opacity="1" stroke-width="1.33333" stroke-linejoin="miter" d="M 12,3C 7.78879,3.0082 3.69964,4.4152 0.375001,7C 4.41565,12.0621 7.89151,16.3706 12.0098,21.4902C 13.2298,19.9701 14.2858,18.6573 15.5,17.1445L 15.5,14.5C 15.5,11.7386 17.7386,9.5 20.5,9.5C 20.8514,9.5016 21.2016,9.5402 21.5449,9.6152C 22.2041,8.7951 23.0317,7.7642 23.6465,7C 20.316,4.4107 16.2186,3.0034 12,3 Z M 20.5,12C 19.1,12 18,13.1 18,14.5L 18,16C 17.5,16 17,16.5 17,17L 17,21C 17,21.5 17.5,22 18,22L 23,22C 23.5,22 24,21.5 24,21L 24,17C 24,16.5 23.5,16 23,16L 23,14.5C 23,13.1 21.9,12 20.5,12 Z M 20.5,13C 21.3,13 22,13.7 22,14.5L 22,16L 19,16L 19,14.5C 19,13.7 19.7,13 20.5,13 Z "/>
</svg>
