<?xml version="1.0" encoding="utf-8"?>
<!DOCTYPE svg PUBLIC "-//W3C//DTD SVG 1.1//EN" "http://www.w3.org/Graphics/SVG/1.1/DTD/svg11.dtd">
<svg xmlns="http://www.w3.org/2000/svg" xmlns:xlink="http://www.w3.org/1999/xlink" version="1.1" baseProfile="full" width="24" height="24" viewBox="0 0 24.00 24.00" enable-background="new 0 0 24.00 24.00" xml:space="preserve">
	<path fill="#000000" fill-opacity="1" stroke-width="0.2" stroke-linejoin="miter" d="M 12,3C 16.2186,3.0034 20.3164,4.4107 23.6465,7L 21.5449,9.6152L 20.5,9.5C 19.9322,9.5017 19.3688,9.6001 18.834,9.791L 20.7148,7.4492C 18.0847,5.8602 15.0729,5.0137 12,5C 8.92354,5.0077 5.90684,5.8502 3.27148,7.4375L 8.39063,13.8047C 9.52116,13.2779 10.7528,13.0033 12,13C 13.228,13.0054 14.4394,13.2762 15.5547,13.7891L 15.5,14.5L 15.5,17.1445L 12.0098,21.4902L 0.375001,7C 3.69964,4.4152 7.78879,3.0082 12,3 Z M 23,16C 23.5,16 24,16.5 24,17L 24,21C 24,21.5 23.5,22 23,22L 18,22C 17.5,22 17,21.5 17,21L 17,17C 17,16.5 17.5,16 18,16L 18,14.5C 18,13.1 19.1,12 20.5,12C 21.9,12 23,13.1 23,14.5L 23,16 Z M 22,16L 22,14.5C 22,13.7 21.3,13 20.5,13C 19.7,13 19,13.7 19,14.5L 19,16L 22,16 Z "/>
</svg>
