<?xml version="1.0" encoding="utf-8"?>
<!DOCTYPE svg PUBLIC "-//W3C//DTD SVG 1.1//EN" "http://www.w3.org/Graphics/SVG/1.1/DTD/svg11.dtd">
<svg xmlns="http://www.w3.org/2000/svg" xmlns:xlink="http://www.w3.org/1999/xlink" version="1.1" baseProfile="full" width="24" height="24" viewBox="0 0 24.00 24.00" enable-background="new 0 0 24.00 24.00" xml:space="preserve">
	<path fill="#000000" fill-opacity="1" stroke-width="1.33333" stroke-linejoin="miter" d="M 12,6C 8.6,6 5.5,7.1 3,9L 1.2,6.6C 4.2,4.3 8,3 12,3C 16,3 19.8,4.3 22.8,6.6L 21,9C 18.5,7.1 15.4,6 12,6 Z M 13,19C 13,17.7 13.4,16.4 14.2,15.4C 13.5,15.2 12.8,15 12,15C 10.7,15 9.4,15.5 8.4,16.2L 12,21L 13,19.6C 13,19.4 13,19.2 13,19 Z M 16.8,13.4C 17.1,13.3 17.5,13.2 17.9,13.1L 19.2,11.4C 17.2,9.9 14.7,9 12,9C 9.3,9 6.8,9.9 4.8,11.4L 6.6,13.8C 8.1,12.7 10,12 12,12C 13.8,12 15.4,12.5 16.8,13.4 Z M 16.5,22.6L 17.2,19.8L 15,17.9L 17.9,17.7L 19,15L 20.1,17.6L 23,17.8L 20.8,19.7L 21.5,22.5L 19,21.1L 16.5,22.6 Z "/>
</svg>
