<?xml version="1.0" encoding="utf-8"?>
<!DOCTYPE svg PUBLIC "-//W3C//DTD SVG 1.1//EN" "http://www.w3.org/Graphics/SVG/1.1/DTD/svg11.dtd">
<svg xmlns="http://www.w3.org/2000/svg" xmlns:xlink="http://www.w3.org/1999/xlink" version="1.1" baseProfile="full" width="24" height="24" viewBox="0 0 24.00 24.00" enable-background="new 0 0 24.00 24.00" xml:space="preserve">
	<path fill="#000000" fill-opacity="1" stroke-width="1.33333" stroke-linejoin="miter" d="M 2,15.9645C 2,18.19 3.53715,19.5148 5.78698,19.5148L 18.568,19.5148C 20.4663,19.5148 22,18.2041 22,16.3195L 22,6.9704C 22,5.8347 21.1535,4.6036 20.1065,4.6036L 17.1479,4.6036L 17.1479,12.2959C 17.1479,18.1383 6.97042,18.0933 6.97042,12.4142L 6.97042,4.4852L 4.72189,4.4852C 3.25801,4.4852 2,5.4127 2,6.8521L 2,15.9645 Z M 9.3372,11.2308C 9.3372,15.7351 14.6626,15.0908 14.6626,11.9408L 14.6626,4.4852L 9.3372,4.4852L 9.3372,11.2308 Z "/>
</svg>
