<?xml version="1.0" encoding="utf-8"?>
<!DOCTYPE svg PUBLIC "-//W3C//DTD SVG 1.1//EN" "http://www.w3.org/Graphics/SVG/1.1/DTD/svg11.dtd">
<svg xmlns="http://www.w3.org/2000/svg" xmlns:xlink="http://www.w3.org/1999/xlink" version="1.1" baseProfile="full" width="24" height="24" viewBox="0 0 24.00 24.00" enable-background="new 0 0 24.00 24.00" xml:space="preserve">
	<path fill="#000000" fill-opacity="1" stroke-width="1.33333" stroke-linejoin="miter" d="M 2.672,5.301L 2.672,5.914L 1.964,6.205L 1.964,5.602L 2.672,5.301 Z M 2.672,11.243L 2.672,11.856L 1.964,12.147L 1.964,11.555L 2.672,11.243 Z M 2.672,17.268L 2.672,17.891L 1.964,18.182L 1.964,17.59L 2.672,17.268 Z M 2.599,7.286L 2.599,7.836L 2.026,8.096L 2.026,7.556L 2.599,7.286 Z M 2.599,9.28L 2.599,9.82L 2.026,10.08L 2.026,9.54L 2.599,9.28 Z M 2.599,13.31L 2.599,13.84L 2.026,14.1L 2.026,13.56L 2.599,13.31 Z M 2.599,15.326L 2.599,15.866L 2.026,16.126L 2.026,15.596L 2.599,15.326 Z M 4.483,5.644L 4.483,6.361L 3.505,6.725L 3.505,6.018L 4.483,5.644 Z M 4.483,11.659L 4.483,12.366L 3.506,12.739L 3.506,12.033L 4.483,11.659 Z M 4.483,17.704L 4.483,18.411L 3.506,18.806L 3.506,18.099L 4.483,17.704 Z M 4.431,7.721L 4.431,8.376L 3.644,8.677L 3.644,8.023L 4.431,7.721 Z M 4.431,9.727L 4.431,10.371L 3.645,10.672L 3.645,10.007L 4.431,9.727 Z M 4.431,13.736L 4.431,14.38L 3.645,14.692L 3.645,14.027L 4.431,13.736 Z M 4.431,15.762L 4.431,16.405L 3.645,16.717L 3.645,16.063L 4.431,15.762 Z M 6.311,6.091L 6.311,6.943L 5.047,7.431L 5.047,6.589L 6.311,6.091 Z M 6.311,12.105L 6.311,12.957L 5.047,13.446L 5.047,12.605L 6.311,12.105 Z M 6.311,18.078L 6.311,18.93L 5.047,19.429L 5.047,18.577L 6.311,18.078 Z M 6.247,8.179L 6.247,8.937L 5.186,9.342L 5.186,8.605L 6.247,8.179 Z M 6.247,10.184L 6.247,10.931L 5.186,11.347L 5.186,10.599L 6.247,10.184 Z M 6.247,14.194L 6.247,14.941L 5.186,15.367L 5.186,14.619L 6.247,14.194 Z M 6.247,16.135L 6.247,16.904L 5.186,17.32L 5.186,16.572L 6.247,16.135 Z M 8.285,6.037L 8.285,7.16L 6.724,7.784L 6.724,6.673L 8.285,6.037 Z M 8.285,12.064L 8.285,13.186L 6.724,13.799L 6.724,12.677L 8.285,12.064 Z M 8.285,18.026L 8.285,19.148L 6.724,19.771L 6.724,18.66L 8.285,18.026 Z M 8.201,8.127L 8.201,9.156L 6.892,9.686L 6.892,8.656L 8.201,8.127 Z M 8.201,10.132L 8.201,11.149L 6.892,11.679L 6.892,10.65L 8.201,10.132 Z M 8.201,14.152L 8.201,15.18L 6.892,15.7L 6.892,14.671L 8.201,14.152 Z M 8.201,16.095L 8.201,17.123L 6.892,17.643L 6.892,16.625L 8.201,16.095 Z M 10.339,5.852L 10.339,7.317L 8.609,8.023L 8.609,6.558L 10.339,5.852 Z M 10.339,11.866L 10.339,13.33L 8.61,14.026L 8.61,12.562L 10.339,11.866 Z M 10.339,17.839L 10.339,19.303L 8.609,20L 8.609,18.536L 10.339,17.839 Z M 10.255,8.054L 10.255,9.28L 8.776,9.872L 8.776,8.635L 10.255,8.054 Z M 10.255,9.965L 10.255,11.201L 8.776,11.783L 8.776,10.557L 10.255,9.965 Z M 10.255,14.058L 10.255,15.305L 8.776,15.876L 8.776,14.65L 10.255,14.058 Z M 10.255,16.011L 10.255,17.247L 8.776,17.839L 8.776,16.603L 10.255,16.011 Z M 12.451,5.115L 12.451,7.119L 10.588,7.888L 10.588,6.018C 11.234,5.651 11.854,5.35 12.451,5.115 Z M 12.451,7.327L 12.451,9.061L 10.588,9.841L 10.588,8.095L 12.451,7.327 Z M 12.451,9.28L 12.451,11.036L 10.588,11.815L 10.588,10.06L 12.451,9.28 Z M 12.451,11.253L 12.451,12.987L 10.588,13.767L 10.588,12.022L 12.451,11.253 Z M 12.451,13.207L 12.451,14.993L 10.588,15.783L 10.588,13.985L 12.451,13.207 Z M 12.451,15.211L 12.451,16.957L 10.588,17.756L 10.588,15.99L 12.451,15.211 Z M 12.451,17.174L 12.451,19.044C 11.722,19.321 11.1,19.587 10.588,19.844L 10.588,17.964L 12.451,17.174 Z M 22.036,5.177L 22.036,19.229C 20.848,18.444 19.366,18.052 17.588,18.052C 16.116,18.052 14.47,18.354 12.651,18.958L 12.651,17.062C 13.616,16.69 14.679,16.422 15.839,16.26L 15.839,11.687C 14.86,11.812 13.797,12.152 12.651,12.708L 12.651,11.396C 13.644,10.938 14.707,10.625 15.839,10.458L 15.839,5.979C 14.818,6.181 13.756,6.525 12.651,7.01L 12.651,5.031C 14.269,4.344 15.856,4 17.411,4C 19.085,4 20.627,4.392 22.036,5.177 Z M 20.151,6.406C 19.391,6.017 18.479,5.823 17.417,5.823C 17.294,5.823 17.17,5.83 17.047,5.844L 17.047,10.375L 17.458,10.365C 18.369,10.365 19.267,10.511 20.151,10.803L 20.151,6.406 Z M 20.151,12.104C 19.335,11.743 18.431,11.562 17.437,11.562C 17.314,11.562 17.184,11.569 17.046,11.583L 17.046,16.156L 17.457,16.156C 18.45,16.156 19.348,16.281 20.15,16.531L 20.15,12.104L 20.151,12.104 Z "/>
</svg>
