<?xml version="1.0" encoding="utf-8"?>
<!DOCTYPE svg PUBLIC "-//W3C//DTD SVG 1.1//EN" "http://www.w3.org/Graphics/SVG/1.1/DTD/svg11.dtd">
<svg xmlns="http://www.w3.org/2000/svg" xmlns:xlink="http://www.w3.org/1999/xlink" version="1.1" baseProfile="full" width="24" height="24" viewBox="0 0 24.00 24.00" enable-background="new 0 0 24.00 24.00" xml:space="preserve">
	<path fill="#000000" fill-opacity="1" stroke-width="1.33333" stroke-linejoin="miter" d="M 13.334,11.668L 16.209,14.578C 17.623,13.164 16.209,11.75 16.209,11.75L 14.724,10.236C 14.897,9.859 15,9.443 15,9C 15,7.949 14.458,7.028 13.64,6.492L 15,2.11C 13.086,1.529 12.505,3.442 12.505,3.442L 11.691,6.031C 10.461,6.159 9.46,7.021 9.128,8.178L 4.674,9.634C 5.306,11.531 7.204,10.899 7.204,10.899L 9.274,10.231C 9.61,10.966 10.231,11.543 11,11.817L 11,19C 11,19 9,19 9,21C 9,21.5 9,21.812 9,22L 15,22L 15,21C 15,21 15,19 13,19L 13,11.816C 13.116,11.775 13.225,11.722 13.334,11.668 Z M 10.5,9C 10.5,8.173 11.173,7.5 12,7.5C 12.827,7.5 13.5,8.173 13.5,9C 13.5,9.827 12.827,10.5 12,10.5C 11.173,10.5 10.5,9.827 10.5,9 Z "/>
</svg>
