<?xml version="1.0" encoding="utf-8"?>
<!DOCTYPE svg PUBLIC "-//W3C//DTD SVG 1.1//EN" "http://www.w3.org/Graphics/SVG/1.1/DTD/svg11.dtd">
<svg xmlns="http://www.w3.org/2000/svg" xmlns:xlink="http://www.w3.org/1999/xlink" version="1.1" baseProfile="full" width="24" height="24" viewBox="0 0 24.00 24.00" enable-background="new 0 0 24.00 24.00" xml:space="preserve">
	<path fill="#000000" fill-opacity="1" stroke-width="0.2" stroke-linejoin="round" d="M 6,11L 10,11L 10,9L 14,9L 14,11L 18,11L 18,4L 6,4.00001L 6,11 Z M 18,13L 6,13L 6,20L 18,20L 18,13 Z M 6,2.00002L 18,2.00001C 19.1046,2.00001 20,2.89543 20,4L 20,20C 20,21.1046 19.1046,22 18,22L 6,22C 4.89543,22 4,21.1046 4,20L 4,4.00001C 4,2.89544 4.89543,2.00002 6,2.00002 Z "/>
</svg>
