<?xml version="1.0" encoding="utf-8"?>
<!DOCTYPE svg PUBLIC "-//W3C//DTD SVG 1.1//EN" "http://www.w3.org/Graphics/SVG/1.1/DTD/svg11.dtd">
<svg xmlns="http://www.w3.org/2000/svg" xmlns:xlink="http://www.w3.org/1999/xlink" version="1.1" baseProfile="full" width="24" height="24" viewBox="0 0 24.00 24.00" enable-background="new 0 0 24.00 24.00" xml:space="preserve">
	<path fill="#000000" fill-opacity="1" stroke-width="1.33333" stroke-linejoin="miter" d="M 13,6C 13,5.7 13.1,4.6 13.8,3.8L 12,2.4L 10.2,3.9C 10.9,4.6 11,5.7 11,6C 4.7,6.4 2,11 2,11L 9,18C 9,18 9.7,16.7 11,16.2L 11,18.3C 10.4,18.6 10,19.3 10,20C 10,21.1 10.9,22 12,22C 13.1,22 14,21.1 14,20C 14,19.3 13.6,18.6 13,18.3L 13,16.2C 14.3,16.7 15,18 15,18L 22,11C 22,11 19.3,6.5 13,6 Z M 11,14.1C 10.2,14.3 9.5,14.6 8.9,15.1L 4.7,10.9C 5.8,9.8 7.8,8.3 11,8.1L 11,14.1 Z M 15.1,15.1C 14.5,14.7 13.8,14.3 13,14.1L 13,8.1C 16.2,8.4 18.2,9.8 19.3,10.9L 15.1,15.1 Z M 18,1.3L 17.3,3.2C 16.6,2.9 15.5,2.9 14.7,3.2L 14,1.3C 15.2,0.9 16.8,0.9 18,1.3 Z M 21,6L 19,6C 19,6 19,4.7 18.2,3.9L 19.7,2.6C 21,4 21,5.9 21,6 Z M 4.2,2.6L 5.7,3.9C 5,4.7 5,6 5,6L 3,6C 3,5.9 3,4 4.2,2.6 Z M 10,1.3L 9.3,3.2C 8.6,2.9 7.5,2.9 6.7,3.2L 6,1.3C 7.2,0.9 8.8,0.9 10,1.3 Z "/>
</svg>
