<?xml version="1.0" encoding="utf-8"?>
<!DOCTYPE svg PUBLIC "-//W3C//DTD SVG 1.1//EN" "http://www.w3.org/Graphics/SVG/1.1/DTD/svg11.dtd">
<svg xmlns="http://www.w3.org/2000/svg" xmlns:xlink="http://www.w3.org/1999/xlink" version="1.1" baseProfile="full" width="24" height="24" viewBox="0 0 24.00 24.00" enable-background="new 0 0 24.00 24.00" xml:space="preserve">
	<path fill="#000000" fill-opacity="1" stroke-width="1.33333" stroke-linejoin="miter" d="M 12,4C 5,4 2,9 2,9L 9,16C 9,16 9.5,15.1 10.4,14.5L 10.7,16.5C 10.3,16.8 10,17.4 10,18C 10,19.1 10.9,20 12,20C 13.1,20 14,19.1 14,18C 14,17.1 13.5,16.4 12.7,16.1L 12.3,14C 14.1,14.2 15,16 15,16L 22,9C 22,9 19,4 12,4 Z M 15.1,13.1C 14.3,12.5 13.3,12 12,12L 11,6.1C 11.3,6 11.7,6 12,6C 15.7,6 18.1,7.7 19.3,8.9L 15.1,13.1 Z M 8.9,13.1L 4.7,8.9C 5.5,8 7,7 9,6.4L 10,12.4C 9.6,12.6 9.2,12.8 8.9,13.1 Z "/>
</svg>
