<?xml version="1.0" encoding="utf-8"?>
<!DOCTYPE svg PUBLIC "-//W3C//DTD SVG 1.1//EN" "http://www.w3.org/Graphics/SVG/1.1/DTD/svg11.dtd">
<svg xmlns="http://www.w3.org/2000/svg" xmlns:xlink="http://www.w3.org/1999/xlink" version="1.1" baseProfile="full" width="24" height="24" viewBox="0 0 24.00 24.00" enable-background="new 0 0 24.00 24.00" xml:space="preserve">
	<path fill="#000000" fill-opacity="1" stroke-width="1.33333" stroke-linejoin="miter" d="M 3.42153,11.9997C 3.42153,10.756 3.68834,9.57531 4.16433,8.5085L 8.2564,19.7201C 5.39457,18.3298 3.42153,15.3952 3.42153,11.9997 Z M 17.7909,11.567C 17.7909,12.3012 17.5085,13.1532 17.1382,14.3402L 16.2823,17.1991L 13.1821,7.97769L 14.1639,7.89615C 14.6261,7.84147 14.5716,7.16211 14.1092,7.18918C 14.1092,7.18918 12.7197,7.29823 11.8227,7.29823L 9.56345,7.18918C 9.10087,7.16211 9.04664,7.86883 9.50903,7.89615L 10.4088,7.97769L 11.7452,11.6396L 9.86769,17.2699L 6.74397,7.97769L 7.72569,7.89615C 8.18763,7.84147 8.13305,7.16211 7.67081,7.18918C 7.67081,7.18918 6.28158,7.29823 5.38452,7.29823L 4.8324,7.28783C 6.36633,4.95918 9.00281,3.42135 11.9999,3.42135C 14.2331,3.42135 16.2666,4.27524 17.7927,5.67363L 17.6816,5.66669C 16.8389,5.66669 16.241,6.40076 16.241,7.18918C 16.241,7.89615 16.6489,8.49426 17.0837,9.20122C 17.4099,9.77251 17.7909,10.5065 17.7909,11.567 Z M 12.1505,12.7501L 14.7872,19.9742L 14.8486,20.0924C 13.957,20.4062 12.9988,20.5787 11.9999,20.5787C 11.1579,20.5787 10.3451,20.4552 9.57638,20.2292L 12.1505,12.7501 Z M 19.5275,7.88426C 20.1971,9.10607 20.5782,10.5082 20.5782,11.9997C 20.5782,15.1645 18.863,17.9275 16.3127,19.4145L 18.9328,11.8389C 19.4222,10.6151 19.5852,9.63654 19.5852,8.76639L 19.5275,7.88426 Z M 11.9999,2.00007C 17.5139,2.00007 22,6.48581 22,11.9997C 22,17.514 17.5139,21.9999 11.9999,21.9999C 6.48584,21.9999 2,17.514 2,11.9997C 2,6.48581 6.48584,2.00007 11.9999,2.00007 Z M 11.9999,21.5414C 17.2609,21.5414 21.5413,17.2609 21.5413,11.9997C 21.5413,6.73872 17.2609,2.45861 11.9999,2.45861C 6.73884,2.45861 2.45859,6.73872 2.45859,11.9997C 2.45859,17.2609 6.73884,21.5414 11.9999,21.5414 Z "/>
</svg>
