<?xml version="1.0" encoding="utf-8"?>
<!DOCTYPE svg PUBLIC "-//W3C//DTD SVG 1.1//EN" "http://www.w3.org/Graphics/SVG/1.1/DTD/svg11.dtd">
<svg xmlns="http://www.w3.org/2000/svg" xmlns:xlink="http://www.w3.org/1999/xlink" version="1.1" baseProfile="full" width="24" height="24" viewBox="0 0 24.00 24.00" enable-background="new 0 0 24.00 24.00" xml:space="preserve">
	<path fill="#000000" fill-opacity="1" stroke-linejoin="round" d="M 12,15C 7.58,15 4.00001,16.79 4.00001,19L 4.00001,21L 20,21L 20,19C 20,16.79 16.42,15 12,15 Z M 8,9C 8,11.209 9.791,13 12,13C 14.209,13 16,11.209 16,9M 11.5,2C 11.195,2 11,2.21 11,2.5L 11,5.5L 10,5.5L 10,3C 10,3 7.75,3.859 7.75,6.75C 7.75,6.75 7,6.892 7,8L 17,8C 16.95,6.892 16.25,6.75 16.25,6.75C 16.25,3.859 14,3 14,3L 14,5.5L 13,5.5L 13,2.5C 13,2.21 12.805,2 12.5,2L 11.5,2 Z "/>
</svg>
