<?xml version="1.0" encoding="utf-8"?>
<!DOCTYPE svg PUBLIC "-//W3C//DTD SVG 1.1//EN" "http://www.w3.org/Graphics/SVG/1.1/DTD/svg11.dtd">
<svg xmlns="http://www.w3.org/2000/svg" xmlns:xlink="http://www.w3.org/1999/xlink" version="1.1" baseProfile="full" width="24" height="24" viewBox="0 0 24.00 24.00" enable-background="new 0 0 24.00 24.00" xml:space="preserve">
	<path fill="#000000" fill-opacity="1" stroke-width="1.33333" stroke-linejoin="miter" d="M 22.61,18.99L 13.53,9.91C 14.46,7.57 13.98,4.81 12.09,2.91C 9.79,0.609999 6.21,0.399996 3.66,2.26L 7.5,6.11L 6.08,7.52L 2.25,3.69C 0.390003,6.23 0.600003,9.82 2.9,12.11C 4.76,13.97 7.47,14.46 9.79,13.59L 18.9,22.7C 19.29,23.09 19.92,23.09 20.31,22.7L 22.61,20.4C 23.01,20.02 23.01,19.39 22.61,18.99 Z M 19.61,20.59L 10.15,11.13C 9.54,11.58 8.86,11.85 8.15,11.95C 6.79,12.15 5.36,11.74 4.32,10.7C 3.37,9.76 2.93,8.5 3,7.26L 6.09,10.35L 10.33,6.11L 7.24,3.02C 8.48,2.95 9.73,3.39 10.68,4.33C 11.76,5.41 12.17,6.9 11.92,8.29C 11.8,9 11.5,9.66 11.04,10.25L 20.49,19.7L 19.61,20.59 Z "/>
</svg>
