<?xml version="1.0" encoding="utf-8"?>
<!DOCTYPE svg PUBLIC "-//W3C//DTD SVG 1.1//EN" "http://www.w3.org/Graphics/SVG/1.1/DTD/svg11.dtd">
<svg xmlns="http://www.w3.org/2000/svg" xmlns:xlink="http://www.w3.org/1999/xlink" version="1.1" baseProfile="full" width="24" height="24" viewBox="0 0 24.00 24.00" enable-background="new 0 0 24.00 24.00" xml:space="preserve">
	<path fill="#000000" fill-opacity="1" stroke-width="0.2" stroke-linejoin="round" d="M 17,17.5L 12,15L 7,17.5L 7,5L 5,5L 5,19L 19,19L 19,5L 17,5L 17,17.5 Z M 11.9998,12.4166L 14.247,13.7719L 13.6525,11.2159L 15.6361,9.49738L 13.0212,9.27265L 11.9998,6.86286L 10.9783,9.27265L 8.36347,9.49738L 10.3471,11.2159L 9.75254,13.7719L 11.9998,12.4166 Z M 5,3L 19,3C 20.1046,3 21,3.89543 21,5L 21,19C 21,20.1046 20.1046,21 19,21L 5,21C 3.89543,21 3,20.1046 3,19L 3,5C 3,3.89543 3.89543,3 5,3 Z "/>
</svg>
