<?xml version="1.0" encoding="utf-8"?>
<!DOCTYPE svg PUBLIC "-//W3C//DTD SVG 1.1//EN" "http://www.w3.org/Graphics/SVG/1.1/DTD/svg11.dtd">
<svg xmlns="http://www.w3.org/2000/svg" xmlns:xlink="http://www.w3.org/1999/xlink" version="1.1" baseProfile="full" width="24" height="24" viewBox="0 0 24.00 24.00" enable-background="new 0 0 24.00 24.00" xml:space="preserve">
	<path fill="#000000" fill-opacity="1" stroke-width="1.33333" stroke-linejoin="miter" d="M 12,12L 12.025,11.9042L 14.575,7.10418L 14.7542,7.00001L 16.3375,7.00001L 16.5083,7.09585L 16.5125,7.29585L 14.0125,12L 16.5125,16.7042L 16.5083,16.9042L 16.3375,17L 14.7542,17L 14.575,16.8958L 12.025,12.0958L 12,12L 11.975,12.0958L 9.42499,16.8958L 9.24583,17L 7.66249,17L 7.49166,16.9042L 7.48749,16.7042L 9.98749,12L 7.48749,7.29585L 7.49166,7.09585L 7.66249,7.00001L 9.24583,7.00001L 9.42499,7.10418L 11.975,11.9042L 12,12 Z M 22.75,11.0667C 22.9125,11.35 23,11.6708 23,12C 23,12.3292 22.9125,12.65 22.75,12.9333L 18.0792,21C 17.7208,21.6208 17.0625,22 16.3458,22L 7.65416,22C 6.93749,22 6.27916,21.6208 5.92083,21L 1.24999,12.9333C 1.08749,12.65 0.999992,12.3292 0.999992,12C 0.999992,11.6708 1.08749,11.35 1.24999,11.0667L 5.92083,3.00002C 6.27916,2.37918 6.93749,2.00002 7.65416,2.00002L 16.3458,2.00002C 17.0625,2.00002 17.7208,2.37918 18.0792,3.00002L 22.75,11.0667 Z M 20.7958,11.2542L 16.9708,4.80002C 16.6792,4.30418 16.1417,4.00001 15.5583,4.00001L 8.44166,4.00001C 7.85832,4.00001 7.32083,4.30418 7.02916,4.80002L 3.20416,11.2542C 3.07082,11.4792 2.99999,11.7375 2.99999,12C 2.99999,12.2625 3.07082,12.5209 3.20416,12.7459L 7.02916,19.2C 7.32083,19.6959 7.85832,20 8.44166,20L 15.5583,20C 16.1417,20 16.6792,19.6959 16.9708,19.2L 20.7958,12.7459C 20.9292,12.5209 21,12.2625 21,12C 21,11.7375 20.9292,11.4792 20.7958,11.2542 Z "/>
</svg>
