<?xml version="1.0" encoding="utf-8"?>
<!DOCTYPE svg PUBLIC "-//W3C//DTD SVG 1.1//EN" "http://www.w3.org/Graphics/SVG/1.1/DTD/svg11.dtd">
<svg xmlns="http://www.w3.org/2000/svg" xmlns:xlink="http://www.w3.org/1999/xlink" version="1.1" baseProfile="full" width="24" height="24" viewBox="0 0 24.00 24.00" enable-background="new 0 0 24.00 24.00" xml:space="preserve">
	<path fill="#000000" fill-opacity="1" stroke-width="1.33333" stroke-linejoin="miter" d="M 20,5L 21.67,5C 22.4,5 23,5.6 23,6.33L 23,19.67C 23,20.4 22.399,21 21.67,21L 14.33,21C 13.6,21 13,20.4 13,19.67L 13,16.75L 7.75,16.75C 5.75,16.75 5,19 3,20C 1,20 -0.5,17 3.5,8.5L 3.75,8.5L 4.19,7.67C 4.19,7.67 7,6 8.33,7.23L 13,7.23L 13,6.33C 13,5.6 13.6,5 14.33,5L 16,5L 16,3L 20,3L 20,5 Z M 21,7L 15,7L 15,19L 21,19L 21,7 Z M 15.492,14L 18.492,7.5L 18.492,12L 20.492,12L 17.492,18.5L 17.492,14L 15.492,14 Z M 11,8C 10.451,8 10,8.451 10,9C 10,9.549 10.451,10 11,10C 11.548,10 12,9.549 12,9C 12,8.451 11.548,8 11,8 Z "/>
</svg>
