<?xml version="1.0" encoding="utf-8"?>
<!DOCTYPE svg PUBLIC "-//W3C//DTD SVG 1.1//EN" "http://www.w3.org/Graphics/SVG/1.1/DTD/svg11.dtd">
<svg xmlns="http://www.w3.org/2000/svg" xmlns:xlink="http://www.w3.org/1999/xlink" version="1.1" baseProfile="full" width="24" height="24" viewBox="0 0 24.00 24.00" enable-background="new 0 0 24.00 24.00" xml:space="preserve">
	<path fill="#000000" fill-opacity="1" stroke-width="0.2" stroke-linejoin="round" d="M 21.667,5.00001C 22.4033,5.00001 23,5.59697 23,6.33301L 23,19.667C 23,20.403 22.4033,21 21.667,21L 14.333,21C 13.5967,21 13,20.403 13,19.667L 13,16.75L 7.74999,16.75C 5.74999,16.75 5,19 3,20C 1,20 -0.5,17 3.50673,8.50002L 3.75,8.50001L 4.18516,7.66676C 4.18516,7.66676 7,6.00001 8.3259,7.22772L 13,7.22772L 13,6.33301C 13,5.59697 13.5967,5.00001 14.333,5.00001L 16,5.00001L 16,3.00001L 20,3.00001L 20,5.00001L 21.667,5.00001 Z M 11,8.00002C 10.4477,8.00002 9.99999,8.44774 9.99999,9.00002C 9.99999,9.5523 10.4477,10 11,10C 11.5523,10 12,9.5523 12,9.00002C 12,8.44774 11.5523,8.00002 11,8.00002 Z M 18.1875,8C 17.3182,8 16.6165,8.1979 16.084,8.5937C 15.5553,8.9858 15.2968,9.5733 15.3086,10.3574L 15.3203,10.3926L 17.2539,10.3926C 17.2617,10.0872 17.3531,9.8577 17.5293,9.7031C 17.7055,9.5486 17.9251,9.4707 18.1875,9.4707C 18.5125,9.4707 18.7632,9.5654 18.9395,9.7539C 19.1157,9.9424 19.2031,10.195 19.2031,10.5117C 19.2031,10.8171 19.1273,11.0866 18.9746,11.3203C 18.8258,11.5541 18.6198,11.7499 18.3574,11.9082C 17.8484,12.2513 17.4985,12.5545 17.3066,12.8184C 17.1148,13.0823 17.0156,13.476 17.0117,14L 18.998,14C 18.998,13.6871 19.0408,13.4407 19.127,13.2598C 19.217,13.075 19.3881,12.9025 19.6387,12.7441C 20.089,12.5179 20.4583,12.2064 20.748,11.8105C 21.0417,11.4147 21.1895,10.983 21.1895,10.5117C 21.1895,9.7426 20.9212,9.1301 20.3848,8.6777C 19.8522,8.2253 19.1195,8 18.1875,8 Z M 17,15L 17,17L 19,17L 19,15L 17,15 Z "/>
</svg>
