<?xml version="1.0" encoding="utf-8"?>
<!DOCTYPE svg PUBLIC "-//W3C//DTD SVG 1.1//EN" "http://www.w3.org/Graphics/SVG/1.1/DTD/svg11.dtd">
<svg xmlns="http://www.w3.org/2000/svg" xmlns:xlink="http://www.w3.org/1999/xlink" version="1.1" baseProfile="full" width="24" height="24" viewBox="0 0 24.00 24.00" enable-background="new 0 0 24.00 24.00" xml:space="preserve">
	<path fill="#000000" fill-opacity="1" stroke-width="0.2" stroke-linejoin="round" d="M 21,19L 21,7L 15,7L 15,19L 21,19 Z M 21.667,5.00001C 22.4033,5.00001 23,5.59697 23,6.33301L 23,19.667C 23,20.403 22.4033,21 21.667,21L 14.333,21C 13.5967,21 13,20.403 13,19.667L 13,16.75L 7.74999,16.75C 5.74999,16.75 5,19 3,20C 1,20 -0.5,17 3.50673,8.50002L 3.75,8.50001L 4.18516,7.66676C 4.18516,7.66676 7,6.00001 8.3259,7.22772L 13,7.22772L 13,6.33301C 13,5.59697 13.5967,5.00001 14.333,5.00001L 16,5.00001L 16,3.00001L 20,3.00001L 20,5.00001L 21.667,5.00001 Z M 11,8.00002C 10.4477,8.00002 9.99999,8.44773 9.99999,9.00002C 9.99999,9.5523 10.4477,10 11,10C 11.5523,10 12,9.5523 12,9.00002C 12,8.44773 11.5523,8.00002 11,8.00002 Z "/>
</svg>
