<?xml version="1.0" encoding="utf-8"?>
<!DOCTYPE svg PUBLIC "-//W3C//DTD SVG 1.1//EN" "http://www.w3.org/Graphics/SVG/1.1/DTD/svg11.dtd">
<svg xmlns="http://www.w3.org/2000/svg" xmlns:xlink="http://www.w3.org/1999/xlink" version="1.1" baseProfile="full" width="24" height="24" viewBox="0 0 24.00 24.00" enable-background="new 0 0 24.00 24.00" xml:space="preserve">
	<path fill="#000000" fill-opacity="1" stroke-width="1.33333" stroke-linejoin="miter" d="M 11.9983,15.3971C 9.7452,13.0896 8,9.5448 8,6C 1.99103,4.001 8,6 2.00042,4.0034C 2.00042,9.6488 6.33161,14.1142 10.5467,16.6577C 9.37655,17.5031 8.14715,17.9966 7,17.9966C 7,18.9763 7,17.9966 7,18.9966C 8.19852,18.9966 10.0255,18.4579 11.9966,17.4614C 13.9704,18.4601 15.8001,19 17,19C 17,18 17,18.9798 17,18C 15.8512,18 14.6198,17.5051 13.4482,16.6573C 17.6649,14.1145 21.9996,9.6477 21.9996,4C 16,5.9966 22.009,3.9975 16,5.9966C 16,9.5431 14.2531,13.0896 11.9983,15.3971 Z "/>
</svg>
