<?xml version="1.0" encoding="utf-8"?>
<!DOCTYPE svg PUBLIC "-//W3C//DTD SVG 1.1//EN" "http://www.w3.org/Graphics/SVG/1.1/DTD/svg11.dtd">
<svg xmlns="http://www.w3.org/2000/svg" xmlns:xlink="http://www.w3.org/1999/xlink" version="1.1" baseProfile="full" width="24" height="24" viewBox="0 0 24.00 24.00" enable-background="new 0 0 24.00 24.00" xml:space="preserve">
	<path fill="#000000" fill-opacity="1" stroke-width="1.33333" stroke-linejoin="miter" d="M 12.025,3.36025C 8.49167,3.36025 5.1506,2.89548 2,1.99995C 2,9.06606 2,20.2284 2,22.0001C 5.1506,21.1045 8.49167,20.6397 12.025,20.6397C 15.5181,20.6397 18.8486,21.0944 22,22.0001C 22,15.1954 22,9.30769 22,1.99995C 18.8486,2.9058 15.5181,3.36025 12.025,3.36025 Z M 12.8425,13.0379L 12.9749,18.9207L 12,18.7854C 11.9996,18.7854 11.9993,18.7854 11.9989,18.7854C 11.9052,18.7854 11.1861,18.8877 11.0245,18.9337L 11.1575,13.0379C 10.877,12.5424 6.66878,5.43753 6.43561,5.06749L 7.52151,5.24749C 7.82584,5.24749 8.1185,5.20829 8.49062,5.17233C 9.03047,6.14628 11.881,10.8313 11.9988,11.0284C 11.9992,11.0277 14.9696,6.14627 15.6088,5.13102C 15.8816,5.2083 16.1742,5.24749 16.4785,5.24749C 16.784,5.24749 17.0682,5.20863 17.5652,5.06624L 12.8425,13.0379 Z "/>
</svg>
