<?xml version="1.0" encoding="utf-8"?>
<!DOCTYPE svg PUBLIC "-//W3C//DTD SVG 1.1//EN" "http://www.w3.org/Graphics/SVG/1.1/DTD/svg11.dtd">
<svg xmlns="http://www.w3.org/2000/svg" xmlns:xlink="http://www.w3.org/1999/xlink" version="1.1" baseProfile="full" width="24" height="24" viewBox="0 0 24.00 24.00" enable-background="new 0 0 24.00 24.00" xml:space="preserve">
	<path fill="#000000" fill-opacity="1" stroke-width="1.33333" stroke-linejoin="miter" d="M 13.5449,5.92581L 9.18161,17.1133C 9.15671,17.1865 8.25681,19.6455 5.229,19.6455C 4.67679,19.6455 4.229,19.1982 4.229,18.6455C 4.229,18.0928 4.67679,17.6455 5.229,17.6455C 6.78809,17.6455 7.2627,16.5322 7.31149,16.4053L 7.6777,15.3975L 3.8237,5.93991C 3.61569,5.42819 3.8613,4.8447 4.37259,4.6362C 4.88281,4.4277 5.46729,4.6738 5.6763,5.18509L 8.74759,12.7228L 11.6816,5.19919C 11.8828,4.6846 12.4648,4.43161 12.9766,4.63089C 13.4912,4.83151 13.7461,5.4111 13.5449,5.92581 Z M 18.5208,6.375C 18.3189,6.375 18.1334,6.4451 17.9758,6.57141C 17.9758,6.57141 13.8,9.5647 13.9921,9.87601C 14.1894,10.1957 18.826,8.02719 18.8368,8.02301C 19.1521,7.8974 19.375,7.58929 19.375,7.22919C 19.375,6.75739 18.9926,6.375 18.5208,6.375 Z M 19.2664,16.8414C 19.1675,16.6653 19.0155,16.5379 18.8282,16.4625C 18.8282,16.4625 14.1729,14.2885 13.9956,14.6085C 13.8136,14.9371 17.9755,17.9168 17.9845,17.9242C 18.2485,18.1375 18.6263,18.1809 18.9402,18.0045C 19.3515,17.7734 19.4975,17.2526 19.2664,16.8414 Z M 20.9666,11.4182C 20.7912,11.3182 20.5953,11.2872 20.3959,11.3189C 20.3959,11.3189 15.2857,11.8508 15.2984,12.2165C 15.3114,12.5919 20.4134,13.0047 20.4248,13.0064C 20.761,13.0534 21.1072,12.8962 21.2856,12.5834C 21.5192,12.1736 21.3764,11.6519 20.9666,11.4182 Z "/>
</svg>
