<?xml version="1.0" encoding="utf-8"?>
<!DOCTYPE svg PUBLIC "-//W3C//DTD SVG 1.1//EN" "http://www.w3.org/Graphics/SVG/1.1/DTD/svg11.dtd">
<svg xmlns="http://www.w3.org/2000/svg" xmlns:xlink="http://www.w3.org/1999/xlink" version="1.1" baseProfile="full" width="24" height="24" viewBox="0 0 24.00 24.00" enable-background="new 0 0 24.00 24.00" xml:space="preserve">
	<path fill="#000000" fill-opacity="1" stroke-linejoin="round" d="M 18,14C 20.2091,14 22,15.7909 22,18C 22,20.2091 20.2091,22 18,22C 15.7909,22 14,20.2091 14,18L 14.0912,17.1467C 14.0509,16.4451 13.9227,15.8376 13.55,15.4916C 13.3468,15.303 13.0709,15.192 12.7477,15.1318C 11.7921,15.684 10.683,16 9.5,16C 5.91015,16 3,13.0899 3,9.5C 3,5.91015 5.91015,3 9.5,3C 13.0899,3 16,5.91015 16,9.5C 16,10.683 15.684,11.7921 15.1318,12.7477C 15.192,13.0709 15.303,13.3468 15.4916,13.55C 15.8376,13.9227 16.4451,14.0509 17.1467,14.0912L 18,14 Z M 7.5,10C 8.32843,10 9,10.6716 9,11.5C 9,12.3284 8.32843,13 7.5,13C 6.67157,13 6,12.3284 6,11.5C 6,10.6716 6.67157,10 7.5,10 Z M 9.5,5C 7.01472,5 5,7.01472 5,9.5C 5,11.9853 7.01472,14 9.5,14C 11.9853,14 14,11.9853 14,9.5C 14,7.01472 11.9853,5 9.5,5 Z "/>
</svg>
