<?xml version="1.0" encoding="utf-8"?>
<!DOCTYPE svg PUBLIC "-//W3C//DTD SVG 1.1//EN" "http://www.w3.org/Graphics/SVG/1.1/DTD/svg11.dtd">
<svg xmlns="http://www.w3.org/2000/svg" xmlns:xlink="http://www.w3.org/1999/xlink" version="1.1" baseProfile="full" width="24" height="24" viewBox="0 0 24.00 24.00" enable-background="new 0 0 24.00 24.00" xml:space="preserve">
	<path fill="#000000" fill-opacity="1" stroke-linejoin="round" d="M 12,2C 17.5228,2 22,6.47716 22,12C 22,17.5228 17.5228,22 12,22C 6.47715,22 2,17.5228 2,12C 2,6.47716 6.47715,2 12,2 Z M 12,4.00001C 7.58172,4.00001 4,7.58173 4,12C 4,16.4183 7.58172,20 12,20C 9.79086,20 8,18.2091 8,16C 8,13.7909 9.79086,12 12,12C 14.2091,12 16,10.2091 16,8C 16,5.79086 14.2091,4.00001 12,4.00001 Z M 12,6.50001C 12.8284,6.50001 13.5,7.17158 13.5,8C 13.5,8.82843 12.8284,9.5 12,9.5C 11.1716,9.5 10.5,8.82843 10.5,8C 10.5,7.17158 11.1716,6.50001 12,6.50001 Z M 12,14.5C 11.1716,14.5 10.5,15.1716 10.5,16C 10.5,16.8284 11.1716,17.5 12,17.5C 12.8284,17.5 13.5,16.8284 13.5,16C 13.5,15.1716 12.8284,14.5 12,14.5 Z "/>
</svg>
