<?xml version="1.0" encoding="utf-8"?>
<!DOCTYPE svg PUBLIC "-//W3C//DTD SVG 1.1//EN" "http://www.w3.org/Graphics/SVG/1.1/DTD/svg11.dtd">
<svg xmlns="http://www.w3.org/2000/svg" xmlns:xlink="http://www.w3.org/1999/xlink" version="1.1" baseProfile="full" width="24" height="24" viewBox="0 0 24.00 24.00" enable-background="new 0 0 24.00 24.00" xml:space="preserve">
	<path fill="#000000" fill-opacity="1" stroke-width="1.33333" stroke-linejoin="miter" d="M 9.98438,15L 15.1875,12L 9.98438,9L 9.98438,15 Z M 21.5625,7.1719C 21.6875,7.6406 21.7812,8.2734 21.8438,9.0703C 21.9063,9.8672 21.9375,10.5625 21.9375,11.1562L 21.9844,12C 21.9844,14.1875 21.8438,15.7969 21.5625,16.8281C 21.3125,17.7344 20.7344,18.3125 19.8281,18.5625C 19.3594,18.6875 18.4766,18.7812 17.1797,18.8437C 15.8828,18.9062 14.6875,18.9375 13.5938,18.9375L 12,18.9844C 7.8125,18.9844 5.20313,18.8437 4.17188,18.5625C 3.26562,18.3125 2.6875,17.7344 2.4375,16.8281C 2.3125,16.3594 2.21875,15.7266 2.15625,14.9297C 2.09375,14.1328 2.0625,13.4375 2.0625,12.8437L 2.01563,12C 2.01563,9.8125 2.15625,8.2031 2.4375,7.1719C 2.6875,6.2656 3.26562,5.6875 4.17188,5.4375C 4.64063,5.3125 5.52344,5.2188 6.82031,5.1562C 8.11719,5.0937 9.3125,5.0625 10.4063,5.0625L 12,5.0156C 16.1875,5.0156 18.7969,5.1562 19.8281,5.4375C 20.7344,5.6875 21.3125,6.2656 21.5625,7.1719 Z "/>
</svg>
