<?xml version="1.0" encoding="utf-8"?>
<!DOCTYPE svg PUBLIC "-//W3C//DTD SVG 1.1//EN" "http://www.w3.org/Graphics/SVG/1.1/DTD/svg11.dtd">
<svg xmlns="http://www.w3.org/2000/svg" xmlns:xlink="http://www.w3.org/1999/xlink" version="1.1" baseProfile="full" width="24" height="24" viewBox="0 0 24.00 24.00" enable-background="new 0 0 24.00 24.00" xml:space="preserve">
	<path fill="#000000" fill-opacity="1" stroke-width="1.33333" stroke-linejoin="miter" d="M 9.98438,15L 15,12L 9.98438,9L 9.98438,15 Z M 19.4531,12.9844L 21.5625,14.625C 21.7812,14.7812 21.8125,15 21.6563,15.2812L 19.6406,18.75C 19.5156,18.9687 19.3125,19.0312 19.0313,18.9375L 16.5469,17.9531C 15.8906,18.4219 15.3281,18.75 14.8594,18.9375L 14.4844,21.5625C 14.4219,21.8437 14.2656,21.9844 14.0156,21.9844L 9.98438,21.9844C 9.73438,21.9844 9.57812,21.8437 9.51563,21.5625L 9.14063,18.9375C 8.54687,18.6875 7.98437,18.3594 7.45313,17.9531L 4.96875,18.9375C 4.6875,19.0312 4.48437,18.9687 4.35938,18.75L 2.34375,15.2812C 2.1875,15 2.21875,14.7812 2.4375,14.625L 4.54688,12.9844C 4.51563,12.7656 4.5,12.4375 4.5,12C 4.5,11.5625 4.51563,11.2344 4.54688,11.0156L 2.4375,9.375C 2.21875,9.2187 2.1875,9 2.34375,8.7187L 4.35938,5.25C 4.48437,5.0313 4.6875,4.9687 4.96875,5.0625L 7.45313,6.0469C 8.10938,5.5781 8.67188,5.25 9.14063,5.0625L 9.51563,2.4375C 9.57812,2.1562 9.73438,2.0156 9.98438,2.0156L 14.0156,2.0156C 14.2656,2.0156 14.4219,2.1562 14.4844,2.4375L 14.8594,5.0625C 15.4531,5.3125 16.0156,5.6406 16.5469,6.0469L 19.0313,5.0625C 19.3125,4.9687 19.5156,5.0313 19.6406,5.25L 21.6563,8.7187C 21.8125,9 21.7812,9.2187 21.5625,9.375L 19.4531,11.0156C 19.4844,11.2344 19.5,11.5625 19.5,12C 19.5,12.4375 19.4844,12.7656 19.4531,12.9844 Z "/>
</svg>
