<?xml version="1.0" encoding="utf-8"?>
<!DOCTYPE svg PUBLIC "-//W3C//DTD SVG 1.1//EN" "http://www.w3.org/Graphics/SVG/1.1/DTD/svg11.dtd">
<svg xmlns="http://www.w3.org/2000/svg" xmlns:xlink="http://www.w3.org/1999/xlink" version="1.1" baseProfile="full" width="24" height="24" viewBox="0 0 24.00 24.00" enable-background="new 0 0 24.00 24.00" xml:space="preserve">
	<path fill="#000000" fill-opacity="1" stroke-width="1.33333" stroke-linejoin="miter" d="M 19.8533,13.6112C 19.5653,13.3411 19.4032,12.9811 19.4032,12.6031L 19.4032,11.3429C 19.4032,10.9829 19.5653,10.6049 19.8533,10.3528L 21.2034,9.11971C 21.4374,8.84969 21.5005,8.48965 21.3384,8.21962L 19.8713,5.70837C 19.7093,5.43835 19.3762,5.31233 19.0792,5.41134L 17.342,5.9514C 16.982,6.07741 16.577,6.04141 16.2439,5.84339L 15.1638,5.21332C 14.8308,5.0333 14.5878,4.70027 14.5068,4.31323L 14.0567,2.54005C 13.9667,2.23402 13.6967,2 13.3546,2L 10.4653,2C 10.1503,2 9.88029,2.23402 9.80828,2.54005L 9.44825,4.34023C 9.35824,4.70027 9.13321,5.0333 8.81818,5.24033L 7.73807,5.87039C 7.39604,6.05041 7.018,6.08641 6.62196,5.9604L 4.91179,5.42034C 4.60576,5.31233 4.28173,5.43835 4.10171,5.71737L 2.66157,8.32763C 2.48155,8.59766 2.57156,8.9577 2.79658,9.20972L 4.14671,10.4158C 4.43474,10.6859 4.59676,11.0459 4.59676,11.4059L 4.59676,12.6661C 4.59676,13.0261 4.43474,13.3861 4.14671,13.6562L 2.79658,14.8983C 2.56256,15.1053 2.49955,15.4563 2.66157,15.7354L 4.12871,18.2556C 4.29073,18.5257 4.62376,18.6607 4.92079,18.5617L 6.65797,18.0216C 7.018,17.9136 7.42304,17.9586 7.75607,18.1476L 8.83618,18.7777C 9.10621,18.9577 9.37624,19.2997 9.46625,19.6778L 9.82628,21.4599C 9.85328,21.784 10.1863,22 10.4563,22L 13.3906,22C 13.7147,22 13.9847,21.784 14.0567,21.4599L 14.4527,19.6958C 14.5428,19.2997 14.7768,18.9757 15.1008,18.7957L 16.1809,18.1656C 16.496,17.9856 16.901,17.9226 17.261,18.0396L 19.0072,18.6157C 19.3132,18.7057 19.6373,18.5617 19.8173,18.2826L 21.3002,15.6272C 21.4442,15.3572 21.3902,14.9972 21.1472,14.8172C 20.8329,14.5222 19.94,13.6919 19.8533,13.6112 Z M 16.523,12.315C 16.523,13.0351 16.4059,13.7732 16.4059,13.7732C 16.4059,13.7732 16.3159,14.4032 16.0459,14.6733C 15.7039,15.0333 15.2538,15.0153 15.0558,15.0513C 14.3807,15.1143 12.2205,15.1413 11.9955,15.1413C 11.7705,15.1413 9.61026,15.1143 8.93519,15.0513C 8.73717,15.0063 8.28713,15.0153 7.94509,14.6553C 7.67507,14.3852 7.58506,13.7552 7.58506,13.7552C 7.58506,13.7552 7.49505,13.0351 7.47705,12.315L 7.47705,11.631C 7.49505,10.9109 7.58506,10.1728 7.58506,10.1728C 7.58506,10.1728 7.67507,9.54276 7.94509,9.27273C 8.28713,8.91269 8.66517,8.91269 8.84518,8.91269C 10.0153,8.82268 11.7705,8.82268 11.9955,8.82268C 12.2205,8.82268 13.9757,8.82268 15.1458,8.91269C 15.3258,8.91269 15.7039,8.93069 16.0459,9.27273C 16.3159,9.54276 16.4059,10.1728 16.4059,10.1728C 16.4059,10.1728 16.514,10.8929 16.514,11.631L 16.514,12.315L 16.523,12.315 Z M 10.7624,13.3321L 10.7624,10.6319L 13.2376,11.982L 10.7624,13.3321 Z "/>
</svg>
