<?xml version="1.0" encoding="utf-8"?>
<!DOCTYPE svg PUBLIC "-//W3C//DTD SVG 1.1//EN" "http://www.w3.org/Graphics/SVG/1.1/DTD/svg11.dtd">
<svg xmlns="http://www.w3.org/2000/svg" xmlns:xlink="http://www.w3.org/1999/xlink" version="1.1" baseProfile="full" width="24" height="24" viewBox="0 0 24.00 24.00" enable-background="new 0 0 24.00 24.00" xml:space="preserve">
	<path fill="#000000" fill-opacity="1" stroke-width="1.33333" stroke-linejoin="miter" d="M 6,3.5449C 5.81455,3.5449 5.63003,3.6221 5.46094,3.7148L 0.550782,6.502C 0.2126,6.6983 1.27157e-006,7.0584 1.27157e-006,7.4512L 1.27157e-006,13.6797C 1.27157e-006,14.0724 0.2126,14.4325 0.550782,14.6289L 11.4609,20.8262C 11.63,20.9243 11.8145,21 12,21C 12.1855,21 12.37,20.9228 12.5391,20.8301L 23.4492,14.6348C 23.7929,14.4384 24,14.0783 24,13.6855L 24,7.4512C 24,7.0584 23.7874,6.6983 23.4492,6.502L 18.5391,3.7148C 18.37,3.6221 18.1855,3.5449 18,3.5449C 17.8145,3.5449 17.63,3.6221 17.4609,3.7148L 12.5391,6.5137C 12.2063,6.7046 11.7991,6.7046 11.4609,6.5137L 6.53906,3.7148C 6.36997,3.6221 6.18545,3.5449 6,3.5449 Z M 18.1367,4.0918L 23.4551,7.0918L 18.1367,10.2266L 18.1367,4.0918 Z "/>
</svg>
