<?xml version="1.0" encoding="utf-8"?>
<!DOCTYPE svg PUBLIC "-//W3C//DTD SVG 1.1//EN" "http://www.w3.org/Graphics/SVG/1.1/DTD/svg11.dtd">
<svg xmlns="http://www.w3.org/2000/svg" xmlns:xlink="http://www.w3.org/1999/xlink" version="1.1" baseProfile="full" width="24" height="24" viewBox="0 0 24.00 24.00" enable-background="new 0 0 24.00 24.00" xml:space="preserve">
	<path fill="#000000" fill-opacity="1" stroke-width="1.33333" stroke-linejoin="miter" d="M 11.28,9.81316C 11.28,9.81316 11.28,7 14.0932,7L 22.5221,7C 22.5221,7 22.5221,9.81316 19.7089,9.81316L 11.28,9.81316 Z M 11.28,13.4119C 11.28,13.4119 11.28,10.5987 14.0932,10.5987L 18.3076,10.5987C 18.3076,10.5987 18.3076,13.4119 15.4945,13.4119L 11.28,13.4119 Z M 11.28,17C 11.28,17 11.28,14.1868 14.0932,14.1868L 15.4945,14.1868C 15.4945,14.1868 15.4945,17 12.6813,17L 11.28,17 Z M 10.4583,14.8021L 10.4583,17L 1.58333,17L 7.30208,9.20833L 2.39583,9.20833L 2.39583,7L 11.6563,7L 5.95833,14.8021L 10.4583,14.8021 Z "/>
</svg>
