<?xml version="1.0" encoding="utf-8"?>
<!DOCTYPE svg PUBLIC "-//W3C//DTD SVG 1.1//EN" "http://www.w3.org/Graphics/SVG/1.1/DTD/svg11.dtd">
<svg xmlns="http://www.w3.org/2000/svg" xmlns:xlink="http://www.w3.org/1999/xlink" version="1.1" baseProfile="full" width="24" height="24" viewBox="0 0 24.00 24.00" enable-background="new 0 0 24.00 24.00" xml:space="preserve">
	<path fill="#000000" fill-opacity="1" stroke-width="1.33333" stroke-linejoin="miter" d="M 4.06201,6.15205C 3.96508,6.17427 3.87513,6.21746 3.79803,6.27767C 2.66479,7.89895 2,9.87184 2,12C 2,17.5228 6.47715,22 12,22C 14.9945,22 17.6816,20.6838 19.5143,18.5983L 17.0244,18.8532C 14.2474,19.1537 11.4482,19.1907 8.66417,18.9637C 7.94654,18.9353 7.24221,18.7609 6.59421,18.4513C 5.73253,18.0595 5.14881,17.2339 5.06685,16.2909C 5.06374,16.1347 5.12139,15.9834 5.22763,15.8688L 7.41817,13.5979L 15.0348,5.69987L 15.0348,5.59939L 10.8447,5.59939C 8.57425,5.63747 6.30865,5.82206 4.06201,6.15205 Z M 20.1696,17.4766C 20.2617,17.4669 20.3488,17.4364 20.4252,17.389C 21.422,15.8338 22,13.9844 22,12C 22,6.47716 17.5228,2 12,2C 9.2196,2 6.70422,3.13473 4.89172,4.96634L 5.16734,4.96634C 8.28268,4.57195 11.428,4.46764 14.5626,4.65484C 15.5083,4.64369 16.447,4.81773 17.3259,5.16731C 18.2474,5.53197 18.8876,6.38156 18.9839,7.36791C 18.9896,7.5336 18.9321,7.69518 18.8231,7.82008L 9.7092,17.1852L 8.98572,17.9488L 8.98572,18.0594L 13.1357,18.0594C 15.4897,18.0042 17.8385,17.8096 20.1696,17.4766 Z "/>
</svg>
