<?xml version="1.0" encoding="utf-8"?>
<!DOCTYPE svg PUBLIC "-//W3C//DTD SVG 1.1//EN" "http://www.w3.org/Graphics/SVG/1.1/DTD/svg11.dtd">
<svg xmlns="http://www.w3.org/2000/svg" xmlns:xlink="http://www.w3.org/1999/xlink" version="1.1" baseProfile="full" width="24" height="24" viewBox="0 0 24.00 24.00" enable-background="new 0 0 24.00 24.00" xml:space="preserve">
	<path fill="#000000" fill-opacity="1" stroke-width="1.33333" stroke-linejoin="miter" d="M 7,3L 3,5L 3,19C 3,20.1046 3.89543,21 5,21L 19,21C 20.1046,21 21,20.1046 21,19L 21,5L 17,3L 17,5C 17,5.5523 16.5523,6 16,6L 10,6C 9.44772,6 9,5.5523 9,5L 9,3L 7,3 Z M 8,10L 16,10C 16.5523,10 17,10.4477 17,11L 17,19L 7,19L 7,11C 7,10.4477 7.44772,10 8,10 Z "/>
</svg>
