<?xml version="1.0" encoding="utf-8"?>
<!DOCTYPE svg PUBLIC "-//W3C//DTD SVG 1.1//EN" "http://www.w3.org/Graphics/SVG/1.1/DTD/svg11.dtd">
<svg xmlns="http://www.w3.org/2000/svg" xmlns:xlink="http://www.w3.org/1999/xlink" version="1.1" baseProfile="full" width="24" height="24" viewBox="0 0 24.00 24.00" enable-background="new 0 0 24.00 24.00" xml:space="preserve">
	<path fill="#000000" fill-opacity="1" stroke-width="0.2" stroke-linejoin="round" d="M 13.9994,16.9981L 11.9994,16.9981L 11.9994,14.9981L 9.99941,14.9981L 9.99941,12.9981L 11.9994,12.9981L 11.9994,14.9981L 13.9994,14.9981M 13.9994,8.99807L 11.9994,8.99807L 11.9994,10.9981L 13.9994,10.9981L 13.9994,12.9981L 11.9994,12.9981L 11.9994,10.9981L 9.99941,10.9981L 9.99941,8.99807L 11.9994,8.99807L 11.9994,6.99807L 9.99941,6.99807L 9.99941,4.99807L 11.9994,4.99807L 11.9994,6.99807L 13.9994,6.99807M 18.9994,2.99807L 4.99941,2.99807C 3.89441,2.99807 2.99941,3.89406 2.99941,4.99807L 2.99941,18.9981C 2.99941,20.1021 3.89441,20.9981 4.99941,20.9981L 18.9994,20.9981C 20.1034,20.9981 20.9994,20.1021 20.9994,18.9981L 20.9994,4.99807C 20.9994,3.89406 20.1034,2.99807 18.9994,2.99807 Z "/>
</svg>
