<?xml version="1.0" encoding="utf-8"?>
<!DOCTYPE svg PUBLIC "-//W3C//DTD SVG 1.1//EN" "http://www.w3.org/Graphics/SVG/1.1/DTD/svg11.dtd">
<svg xmlns="http://www.w3.org/2000/svg" xmlns:xlink="http://www.w3.org/1999/xlink" version="1.1" baseProfile="full" width="24" height="24" viewBox="0 0 24.00 24.00" enable-background="new 0 0 24.00 24.00" xml:space="preserve">
	<path fill="#000000" fill-opacity="1" stroke-width="1.33333" stroke-linejoin="miter" d="M 18.49,19.13C 20,17.77 20,15.18 20,14C 20,11.7909 18.2091,10 16,10C 15.295,10.003 14.604,10.1964 14,10.56L 14,6C 13.9911,4.3432 12.6408,3.0072 10.984,3.0161C 10.2516,3.02 9.54591,3.2917 9,3.78C 7.8612,2.7614 6.1388,2.7614 5,3.78C 4.45236,3.2822 3.74005,3.0044 3,3L 3,5C 3.55228,5 4,5.4477 4,6L 4,16L 6,16L 6,6C 6,5.4477 6.44772,5 7,5C 7.55228,5 8,5.4477 8,6L 8,16L 10,16L 10,6C 10,5.4477 10.4477,5 11,5C 11.5523,5 12,5.4477 12,6L 12,14C 12,15.18 12,17.77 13.51,19.13C 12.7217,19.5442 11.8756,19.8375 11,20L 11,22C 12.29,22 14.84,20.74 16,20.13C 17.16,20.74 19.71,22 21,22L 21,20C 20.1244,19.8375 19.2783,19.5442 18.49,19.13 Z M 16,12C 17.1046,12 18,12.8954 18,14C 18,16.92 17.46,18 16,18C 14.54,18 14,16.92 14,14C 14,12.8954 14.8954,12 16,12 Z "/>
</svg>
