<?xml version="1.0" encoding="utf-8"?>
<!DOCTYPE svg PUBLIC "-//W3C//DTD SVG 1.1//EN" "http://www.w3.org/Graphics/SVG/1.1/DTD/svg11.dtd">
<svg xmlns="http://www.w3.org/2000/svg" xmlns:xlink="http://www.w3.org/1999/xlink" version="1.1" baseProfile="full" width="24" height="24" viewBox="0 0 24.00 24.00" enable-background="new 0 0 24.00 24.00" xml:space="preserve">
	<path fill="#000000" fill-opacity="1" stroke-width="1.33333" stroke-linejoin="miter" d="M 15,13C 14.2966,13.0043 13.6067,13.194 13,13.55L 13,6C 12.9911,4.3432 11.6408,3.0072 9.98401,3.0161C 9.2516,3.02 8.54591,3.2917 8,3.78C 7.45236,3.2822 6.74005,3.0044 6,3L 6,5C 6.55228,5 7,5.4477 7,6L 7,16L 9,16L 9,6C 9,5.4477 9.44771,5 10,5C 10.5523,5 11,5.4477 11,6L 11,17C 11,18.1046 10.1046,19 9,19L 9,21C 10.1521,20.9935 11.2454,20.4906 12,19.62C 13.447,21.2893 15.9733,21.4694 17.6425,20.0224C 19.3118,18.5754 19.4919,16.0491 18.0449,14.3799C 17.28,13.4975 16.1677,12.9934 15,13 Z M 15,19C 13.8954,19 13,18.1046 13,17C 13,15.8954 13.8954,15 15,15C 16.1046,15 17,15.8954 17,17C 17,18.1046 16.1046,19 15,19 Z "/>
</svg>
