<?xml version="1.0" encoding="utf-8"?>
<!DOCTYPE svg PUBLIC "-//W3C//DTD SVG 1.1//EN" "http://www.w3.org/Graphics/SVG/1.1/DTD/svg11.dtd">
<svg xmlns="http://www.w3.org/2000/svg" xmlns:xlink="http://www.w3.org/1999/xlink" version="1.1" baseProfile="full" width="24" height="24" viewBox="0 0 24.00 24.00" enable-background="new 0 0 24.00 24.00" xml:space="preserve">
	<path fill="#000000" fill-opacity="1" stroke-width="1.33333" stroke-linejoin="miter" d="M 20,17C 20,18.6568 18.6569,20 17,20C 15.3776,19.9197 14.0803,18.6224 14,17C 14.1615,15.3886 14.4968,13.7993 15,12.26C 15.5352,10.5511 15.8708,8.7861 16,7C 15.9266,4.2696 13.7304,2.0734 11,2C 8.26956,2.0734 6.07341,4.2696 6,7C 6.15174,8.5281 6.4875,10.0324 7,11.48L 7.21,12.2C 5.10436,11.5317 2.85567,12.697 2.18742,14.8026C 1.51916,16.9083 2.6844,19.1569 4.79004,19.8252C 6.89568,20.4935 9.14437,19.3282 9.81262,17.2226C 9.93809,16.8272 10.0013,16.4148 10,16C 9.84152,14.2691 9.47556,12.5635 8.91,10.92C 8.46817,9.6494 8.16311,8.3353 8,7C 8.08027,5.3776 9.37755,4.0803 11,4C 12.6224,4.0803 13.9197,5.3776 14,7C 13.8385,8.6114 13.5032,10.2007 13,11.74C 12.4648,13.4489 12.1292,15.2139 12,17C 12.0734,19.7304 14.2696,21.9266 17,22C 19.7614,22 22,19.7614 22,17L 20,17 Z M 6,18C 4.89543,18 4,17.1046 4,16C 4,14.8954 4.89543,14 6,14C 7.10457,14 8,14.8954 8,16C 8,17.1046 7.10457,18 6,18 Z "/>
</svg>
