<?xml version="1.0" encoding="utf-8"?>
<!DOCTYPE svg PUBLIC "-//W3C//DTD SVG 1.1//EN" "http://www.w3.org/Graphics/SVG/1.1/DTD/svg11.dtd">
<svg xmlns="http://www.w3.org/2000/svg" xmlns:xlink="http://www.w3.org/1999/xlink" version="1.1" baseProfile="full" width="24" height="24" viewBox="0 0 24.00 24.00" enable-background="new 0 0 24.00 24.00" xml:space="preserve">
	<path fill="#000000" fill-opacity="1" stroke-width="1.33333" stroke-linejoin="miter" d="M 20,16L 20,18L 13,18L 13,15.91C 15.9869,15.3577 17.9606,12.4886 17.4083,9.5017C 16.856,6.5147 13.9869,4.5411 11,5.0933C 8.01306,5.6456 6.03939,8.5147 6.59167,11.5017C 7.00599,13.7425 8.75922,15.4957 11,15.91L 11,18L 4,18L 4,16L 6.92,16C 5.37388,14.5899 4.49503,12.5926 4.5,10.5C 4.5,6.3579 7.85786,3 12,3C 16.1421,3 19.5,6.3579 19.5,10.5C 19.505,12.5926 18.6261,14.5899 17.08,16L 20,16 Z M 20,19L 4,19L 4,21L 20,21L 20,19 Z "/>
</svg>
