<?xml version="1.0" encoding="utf-8"?>
<!DOCTYPE svg PUBLIC "-//W3C//DTD SVG 1.1//EN" "http://www.w3.org/Graphics/SVG/1.1/DTD/svg11.dtd">
<svg xmlns="http://www.w3.org/2000/svg" xmlns:xlink="http://www.w3.org/1999/xlink" version="1.1" baseProfile="full" width="24" height="24" viewBox="0 0 24.00 24.00" enable-background="new 0 0 24.00 24.00" xml:space="preserve">
	<path fill="#000000" fill-opacity="1" stroke-width="1.33333" stroke-linejoin="miter" d="M 12,4C 6.48,4 2,7.58 2,12C 1.99618,14.1187 3.6451,15.8729 5.76,16L 6,16C 8.20914,16 10,14.2091 10,12C 10,9.7909 8.20914,8 6,8L 5.76,8C 7.44328,6.4103 9.68527,5.548 12,5.6C 13.7662,5.5792 15.5014,6.065 17,7L 18.25,5.75C 16.3765,4.5818 14.2077,3.9745 12,4 Z M 6,10C 7.10456,10.0055 7.99549,10.9054 7.98995,12.01C 7.98441,13.1146 7.0845,14.0055 5.97994,13.9999C 4.95668,13.9948 4.10234,13.2181 4,12.2C 3.98663,12.067 3.98663,11.933 4,11.8C 4.10308,10.7742 4.96904,9.9948 6,10 Z M 18.24,8L 18,8C 15.7909,8 14,9.7909 14,12C 14,14.2091 15.7909,16 18,16L 18.24,16C 16.5567,17.5897 14.3147,18.452 12,18.4C 10.2338,18.4208 8.49859,17.935 7,17L 5.76,18.24C 7.62953,19.4099 9.7947,20.0206 12,20C 17.52,20 22,16.42 22,12C 22.0038,9.8813 20.3549,8.1271 18.24,8 Z M 18,14C 16.8954,13.9945 16.0045,13.0946 16.0101,11.99C 16.0156,10.8854 16.9155,9.9945 18.0201,10.0001C 19.0433,10.0052 19.8977,10.7819 20,11.8C 20.0134,11.933 20.0134,12.067 20,12.2C 19.8969,13.2258 19.031,14.0052 18,14 Z "/>
</svg>
