<?xml version="1.0" encoding="utf-8"?>
<!DOCTYPE svg PUBLIC "-//W3C//DTD SVG 1.1//EN" "http://www.w3.org/Graphics/SVG/1.1/DTD/svg11.dtd">
<svg xmlns="http://www.w3.org/2000/svg" xmlns:xlink="http://www.w3.org/1999/xlink" version="1.1" baseProfile="full" width="24" height="24" viewBox="0 0 24.00 24.00" enable-background="new 0 0 24.00 24.00" xml:space="preserve">
	<path fill="#000000" fill-opacity="1" stroke-width="1.33333" stroke-linejoin="miter" d="M 16,2C 14.9453,1.9951 13.9089,2.2749 13,2.81C 12.6384,3.0121 12.3026,3.2572 12,3.54C 11.6974,3.2572 11.3616,3.0121 11,2.81C 10.0911,2.2749 9.05467,1.9951 8,2C 4.68629,2 2,4.6863 2,8C 2,11.3137 4.68629,14 8,14L 8,12C 5.79086,12.0028 3.99777,10.2141 3.99501,8.005C 3.99225,5.7959 5.78088,4.0028 7.99002,4C 9.01712,3.9987 10.0054,4.3926 10.75,5.1C 10.841,5.179 10.9247,5.266 11,5.36L 11,22L 13,22L 13,5.36C 13.0753,5.266 13.159,5.179 13.25,5.1C 14.8516,3.5785 17.3835,3.6434 18.905,5.245C 20.4265,6.8466 20.3616,9.3785 18.76,10.9C 18.0153,11.6074 17.0271,12.0013 16,12L 16,14C 19.3137,14 22,11.3137 22,8C 22,4.6863 19.3137,2 16,2 Z "/>
</svg>
