<?xml version="1.0" encoding="utf-8"?>
<!DOCTYPE svg PUBLIC "-//W3C//DTD SVG 1.1//EN" "http://www.w3.org/Graphics/SVG/1.1/DTD/svg11.dtd">
<svg xmlns="http://www.w3.org/2000/svg" xmlns:xlink="http://www.w3.org/1999/xlink" version="1.1" baseProfile="full" width="24" height="24" viewBox="0 0 24.00 24.00" enable-background="new 0 0 24.00 24.00" xml:space="preserve">
	<path fill="#000000" fill-opacity="1" stroke-width="1.33333" stroke-linejoin="miter" d="M 15.59,9C 17.7021,7.7382 18.9967,5.4603 19,3L 17,3C 17,5.7614 14.7614,8 12,8C 9.23858,8 7,5.7614 7,3L 5,3C 5.00328,5.4603 6.29791,7.7382 8.41,9C 5.09115,10.9827 4.00798,15.2805 5.99068,18.5993C 7.97338,21.9182 12.2711,23.0013 15.59,21.0186C 18.9089,19.0359 19.992,14.7382 18.0093,11.4193C 17.4154,10.4252 16.5841,9.5939 15.59,9 Z M 12,20C 9.23858,20 7,17.7614 7,15C 7,12.2386 9.23858,10 12,10C 14.7614,10 17,12.2386 17,15C 17,17.7614 14.7614,20 12,20 Z "/>
</svg>
