<?xml version="1.0" encoding="utf-8"?>
<!DOCTYPE svg PUBLIC "-//W3C//DTD SVG 1.1//EN" "http://www.w3.org/Graphics/SVG/1.1/DTD/svg11.dtd">
<svg xmlns="http://www.w3.org/2000/svg" xmlns:xlink="http://www.w3.org/1999/xlink" version="1.1" baseProfile="full" width="24" height="24" viewBox="0 0 24.00 24.00" enable-background="new 0 0 24.00 24.00" xml:space="preserve">
	<path fill="#000000" d="M15.7550001,14.2550001h-0.79l-0.2799997-0.2700005c0.9799995-1.1399994,1.5700006-2.6199999,1.5700006-4.2299995
		c0-3.5900002-2.9100008-6.5-6.500001-6.5s-6.5,2.9099998-6.5,6.5s2.9099998,6.500001,6.5,6.500001
		c1.6099997,0,3.0900002-0.5900011,4.2299995-1.5700006l0.2700005,0.2799997v0.79l5.000001,4.9899988l1.4899979-1.4899979
		L15.7550001,14.2550001z M9.7550001,14.2550001c-2.4899998,0-4.5-2.0100002-4.5-4.5s2.0100002-4.5,4.5-4.5s4.5,2.0100002,4.5,4.5
		S12.2449999,14.2550001,9.7550001,14.2550001z M7.2550001,9.2550001h5v1h-5V9.2550001z"/>
</svg>
